<?xml version="1.0" encoding="utf-8" standalone="no"?>
<!DOCTYPE svg PUBLIC "-//W3C//DTD SVG 1.1//EN"
  "http://www.w3.org/Graphics/SVG/1.1/DTD/svg11.dtd">
<svg xmlns:xlink="http://www.w3.org/1999/xlink" width="155.905512pt" height="113.385827pt" viewBox="0 0 155.905512 113.385827" xmlns="http://www.w3.org/2000/svg" version="1.1">
 <metadata>
  <rdf:RDF xmlns:dc="http://purl.org/dc/elements/1.1/" xmlns:cc="http://creativecommons.org/ns#" xmlns:rdf="http://www.w3.org/1999/02/22-rdf-syntax-ns#">
   <cc:Work>
    <dc:type rdf:resource="http://purl.org/dc/dcmitype/StillImage"/>
    <dc:date>2025-05-13T18:13:30.830213</dc:date>
    <dc:format>image/svg+xml</dc:format>
    <dc:creator>
     <cc:Agent>
      <dc:title>Matplotlib v3.9.2, https://matplotlib.org/</dc:title>
     </cc:Agent>
    </dc:creator>
   </cc:Work>
  </rdf:RDF>
 </metadata>
 <defs>
  <style type="text/css">*{stroke-linejoin: round; stroke-linecap: butt}</style>
 </defs>
 <g id="figure_1">
  <g id="patch_1">
   <path d="M 0 113.385827 
L 155.905512 113.385827 
L 155.905512 0 
L 0 0 
z
" style="fill: #ffffff"/>
  </g>
  <g id="axes_1">
   <g id="patch_2">
    <path d="M 25.36 89.218327 
L 150.505512 89.218327 
L 150.505512 5.4 
L 25.36 5.4 
z
" style="fill: #ffffff"/>
   </g>
   <g id="PathCollection_1">
    <defs>
     <path id="C0_0_19ded14b66" d="M 0 0.866025 
C 0.229673 0.866025 0.449969 0.774776 0.612372 0.612372 
C 0.774776 0.449969 0.866025 0.229673 0.866025 -0 
C 0.866025 -0.229673 0.774776 -0.449969 0.612372 -0.612372 
C 0.449969 -0.774776 0.229673 -0.866025 0 -0.866025 
C -0.229673 -0.866025 -0.449969 -0.774776 -0.612372 -0.612372 
C -0.774776 -0.449969 -0.866025 -0.229673 -0.866025 0 
C -0.866025 0.229673 -0.774776 0.449969 -0.612372 0.612372 
C -0.449969 0.774776 -0.229673 0.866025 0 0.866025 
z
"/>
    </defs>
    <g clip-path="url(#p6b6fdbebb4)">
     <use xlink:href="#C0_0_19ded14b66" x="59.490594" y="57.939465" style="fill: #ff8c00; fill-opacity: 0.8"/>
    </g>
    <g clip-path="url(#p6b6fdbebb4)">
     <use xlink:href="#C0_0_19ded14b66" x="77.774841" y="61.564989" style="fill: #ff8c00; fill-opacity: 0.8"/>
    </g>
    <g clip-path="url(#p6b6fdbebb4)">
     <use xlink:href="#C0_0_19ded14b66" x="106.217003" y="39.245046" style="fill: #ff8c00; fill-opacity: 0.8"/>
    </g>
    <g clip-path="url(#p6b6fdbebb4)">
     <use xlink:href="#C0_0_19ded14b66" x="81.838007" y="73.198461" style="fill: #ff8c00; fill-opacity: 0.8"/>
    </g>
    <g clip-path="url(#p6b6fdbebb4)">
     <use xlink:href="#C0_0_19ded14b66" x="71.680092" y="42.435604" style="fill: #ff8c00; fill-opacity: 0.8"/>
    </g>
    <g clip-path="url(#p6b6fdbebb4)">
     <use xlink:href="#C0_0_19ded14b66" x="57.459011" y="55.630801" style="fill: #ff8c00; fill-opacity: 0.8"/>
    </g>
    <g clip-path="url(#p6b6fdbebb4)">
     <use xlink:href="#C0_0_19ded14b66" x="69.648509" y="71.858689" style="fill: #ff8c00; fill-opacity: 0.8"/>
    </g>
    <g clip-path="url(#p6b6fdbebb4)">
     <use xlink:href="#C0_0_19ded14b66" x="85.901173" y="46.611755" style="fill: #ff8c00; fill-opacity: 0.8"/>
    </g>
    <g clip-path="url(#p6b6fdbebb4)">
     <use xlink:href="#C0_0_19ded14b66" x="83.86959" y="37.356747" style="fill: #ff8c00; fill-opacity: 0.8"/>
    </g>
    <g clip-path="url(#p6b6fdbebb4)">
     <use xlink:href="#C0_0_19ded14b66" x="69.648509" y="68.090434" style="fill: #ff8c00; fill-opacity: 0.8"/>
    </g>
    <g clip-path="url(#p6b6fdbebb4)">
     <use xlink:href="#C0_0_19ded14b66" x="81.838007" y="47.324238" style="fill: #ff8c00; fill-opacity: 0.8"/>
    </g>
    <g clip-path="url(#p6b6fdbebb4)">
     <use xlink:href="#C0_0_19ded14b66" x="59.490594" y="35.153131" style="fill: #ff8c00; fill-opacity: 0.8"/>
    </g>
    <g clip-path="url(#p6b6fdbebb4)">
     <use xlink:href="#C0_0_19ded14b66" x="47.301096" y="58.00774" style="fill: #ff8c00; fill-opacity: 0.8"/>
    </g>
    <g clip-path="url(#p6b6fdbebb4)">
     <use xlink:href="#C0_0_19ded14b66" x="128.564416" y="39.998097" style="fill: #ff8c00; fill-opacity: 0.8"/>
    </g>
    <g clip-path="url(#p6b6fdbebb4)">
     <use xlink:href="#C0_0_19ded14b66" x="89.964339" y="45.649063" style="fill: #ff8c00; fill-opacity: 0.8"/>
    </g>
    <g clip-path="url(#p6b6fdbebb4)">
     <use xlink:href="#C0_0_19ded14b66" x="39.174764" y="25.128357" style="fill: #ff8c00; fill-opacity: 0.8"/>
    </g>
    <g clip-path="url(#p6b6fdbebb4)">
     <use xlink:href="#C0_0_19ded14b66" x="65.585343" y="24.890757" style="fill: #ff8c00; fill-opacity: 0.8"/>
    </g>
    <g clip-path="url(#p6b6fdbebb4)">
     <use xlink:href="#C0_0_19ded14b66" x="89.964339" y="9.209924" style="fill: #ff8c00; fill-opacity: 0.8"/>
    </g>
    <g clip-path="url(#p6b6fdbebb4)">
     <use xlink:href="#C0_0_19ded14b66" x="69.648509" y="53.499265" style="fill: #ff8c00; fill-opacity: 0.8"/>
    </g>
    <g clip-path="url(#p6b6fdbebb4)">
     <use xlink:href="#C0_0_19ded14b66" x="53.395845" y="44.470131" style="fill: #ff8c00; fill-opacity: 0.8"/>
    </g>
    <g clip-path="url(#p6b6fdbebb4)">
     <use xlink:href="#C0_0_19ded14b66" x="59.490594" y="69.309254" style="fill: #ff8c00; fill-opacity: 0.8"/>
    </g>
    <g clip-path="url(#p6b6fdbebb4)">
     <use xlink:href="#C0_0_19ded14b66" x="87.932756" y="45.450541" style="fill: #ff8c00; fill-opacity: 0.8"/>
    </g>
    <g clip-path="url(#p6b6fdbebb4)">
     <use xlink:href="#C0_0_19ded14b66" x="65.585343" y="73.441695" style="fill: #ff8c00; fill-opacity: 0.8"/>
    </g>
    <g clip-path="url(#p6b6fdbebb4)">
     <use xlink:href="#C0_0_19ded14b66" x="53.395845" y="53.295175" style="fill: #ff8c00; fill-opacity: 0.8"/>
    </g>
    <g clip-path="url(#p6b6fdbebb4)">
     <use xlink:href="#C0_0_19ded14b66" x="53.395845" y="48.448724" style="fill: #ff8c00; fill-opacity: 0.8"/>
    </g>
    <g clip-path="url(#p6b6fdbebb4)">
     <use xlink:href="#C0_0_19ded14b66" x="59.490594" y="32.118733" style="fill: #ff8c00; fill-opacity: 0.8"/>
    </g>
    <g clip-path="url(#p6b6fdbebb4)">
     <use xlink:href="#C0_0_19ded14b66" x="69.648509" y="66.823504" style="fill: #ff8c00; fill-opacity: 0.8"/>
    </g>
    <g clip-path="url(#p6b6fdbebb4)">
     <use xlink:href="#C0_0_19ded14b66" x="53.395845" y="30.304771" style="fill: #ff8c00; fill-opacity: 0.8"/>
    </g>
    <g clip-path="url(#p6b6fdbebb4)">
     <use xlink:href="#C0_0_19ded14b66" x="110.280169" y="46.221816" style="fill: #ff8c00; fill-opacity: 0.8"/>
    </g>
    <g clip-path="url(#p6b6fdbebb4)">
     <use xlink:href="#C0_0_19ded14b66" x="57.459011" y="49.143377" style="fill: #ff8c00; fill-opacity: 0.8"/>
    </g>
    <g clip-path="url(#p6b6fdbebb4)">
     <use xlink:href="#C0_0_19ded14b66" x="102.153837" y="44.352446" style="fill: #ff8c00; fill-opacity: 0.8"/>
    </g>
    <g clip-path="url(#p6b6fdbebb4)">
     <use xlink:href="#C0_0_19ded14b66" x="71.680092" y="57.948387" style="fill: #ff8c00; fill-opacity: 0.8"/>
    </g>
    <g clip-path="url(#p6b6fdbebb4)">
     <use xlink:href="#C0_0_19ded14b66" x="69.648509" y="75.068985" style="fill: #ff8c00; fill-opacity: 0.8"/>
    </g>
    <g clip-path="url(#p6b6fdbebb4)">
     <use xlink:href="#C0_0_19ded14b66" x="91.995922" y="41.049339" style="fill: #ff8c00; fill-opacity: 0.8"/>
    </g>
    <g clip-path="url(#p6b6fdbebb4)">
     <use xlink:href="#C0_0_19ded14b66" x="39.174764" y="61.426368" style="fill: #ff8c00; fill-opacity: 0.8"/>
    </g>
    <g clip-path="url(#p6b6fdbebb4)">
     <use xlink:href="#C0_0_19ded14b66" x="53.395845" y="20.760548" style="fill: #ff8c00; fill-opacity: 0.8"/>
    </g>
    <g clip-path="url(#p6b6fdbebb4)">
     <use xlink:href="#C0_0_19ded14b66" x="51.364262" y="30.781733" style="fill: #ff8c00; fill-opacity: 0.8"/>
    </g>
    <g clip-path="url(#p6b6fdbebb4)">
     <use xlink:href="#C0_0_19ded14b66" x="49.332679" y="38.824405" style="fill: #ff8c00; fill-opacity: 0.8"/>
    </g>
    <g clip-path="url(#p6b6fdbebb4)">
     <use xlink:href="#C0_0_19ded14b66" x="98.090671" y="39.556154" style="fill: #ff8c00; fill-opacity: 0.8"/>
    </g>
    <g clip-path="url(#p6b6fdbebb4)">
     <use xlink:href="#C0_0_19ded14b66" x="65.585343" y="45.227273" style="fill: #ff8c00; fill-opacity: 0.8"/>
    </g>
    <g clip-path="url(#p6b6fdbebb4)">
     <use xlink:href="#C0_0_19ded14b66" x="57.459011" y="34.949752" style="fill: #ff8c00; fill-opacity: 0.8"/>
    </g>
    <g clip-path="url(#p6b6fdbebb4)">
     <use xlink:href="#C0_0_19ded14b66" x="53.395845" y="42.09286" style="fill: #ff8c00; fill-opacity: 0.8"/>
    </g>
    <g clip-path="url(#p6b6fdbebb4)">
     <use xlink:href="#C0_0_19ded14b66" x="75.743258" y="41.096662" style="fill: #ff8c00; fill-opacity: 0.8"/>
    </g>
    <g clip-path="url(#p6b6fdbebb4)">
     <use xlink:href="#C0_0_19ded14b66" x="144.817079" y="21.566319" style="fill: #ff8c00; fill-opacity: 0.8"/>
    </g>
    <g clip-path="url(#p6b6fdbebb4)">
     <use xlink:href="#C0_0_19ded14b66" x="41.206347" y="52.455777" style="fill: #ff8c00; fill-opacity: 0.8"/>
    </g>
    <g clip-path="url(#p6b6fdbebb4)">
     <use xlink:href="#C0_0_19ded14b66" x="67.616926" y="70.688479" style="fill: #ff8c00; fill-opacity: 0.8"/>
    </g>
    <g clip-path="url(#p6b6fdbebb4)">
     <use xlink:href="#C0_0_19ded14b66" x="39.174764" y="56.823784" style="fill: #ff8c00; fill-opacity: 0.8"/>
    </g>
    <g clip-path="url(#p6b6fdbebb4)">
     <use xlink:href="#C0_0_19ded14b66" x="65.585343" y="67.136796" style="fill: #ff8c00; fill-opacity: 0.8"/>
    </g>
    <g clip-path="url(#p6b6fdbebb4)">
     <use xlink:href="#C0_0_19ded14b66" x="79.806424" y="67.406458" style="fill: #ff8c00; fill-opacity: 0.8"/>
    </g>
    <g clip-path="url(#p6b6fdbebb4)">
     <use xlink:href="#C0_0_19ded14b66" x="49.332679" y="75.204694" style="fill: #ff8c00; fill-opacity: 0.8"/>
    </g>
    <g clip-path="url(#p6b6fdbebb4)">
     <use xlink:href="#C0_0_19ded14b66" x="87.932756" y="42.408297" style="fill: #ff8c00; fill-opacity: 0.8"/>
    </g>
    <g clip-path="url(#p6b6fdbebb4)">
     <use xlink:href="#C0_0_19ded14b66" x="81.838007" y="33.655487" style="fill: #ff8c00; fill-opacity: 0.8"/>
    </g>
    <g clip-path="url(#p6b6fdbebb4)">
     <use xlink:href="#C0_0_19ded14b66" x="31.048432" y="55.17058" style="fill: #ff8c00; fill-opacity: 0.8"/>
    </g>
    <g clip-path="url(#p6b6fdbebb4)">
     <use xlink:href="#C0_0_19ded14b66" x="43.23793" y="35.633751" style="fill: #ff8c00; fill-opacity: 0.8"/>
    </g>
    <g clip-path="url(#p6b6fdbebb4)">
     <use xlink:href="#C0_0_19ded14b66" x="122.469667" y="42.650129" style="fill: #ff8c00; fill-opacity: 0.8"/>
    </g>
    <g clip-path="url(#p6b6fdbebb4)">
     <use xlink:href="#C0_0_19ded14b66" x="91.995922" y="30.539109" style="fill: #ff8c00; fill-opacity: 0.8"/>
    </g>
    <g clip-path="url(#p6b6fdbebb4)">
     <use xlink:href="#C0_0_19ded14b66" x="61.522177" y="36.37787" style="fill: #ff8c00; fill-opacity: 0.8"/>
    </g>
    <g clip-path="url(#p6b6fdbebb4)">
     <use xlink:href="#C0_0_19ded14b66" x="81.838007" y="65.655435" style="fill: #ff8c00; fill-opacity: 0.8"/>
    </g>
    <g clip-path="url(#p6b6fdbebb4)">
     <use xlink:href="#C0_0_19ded14b66" x="59.490594" y="60.544154" style="fill: #ff8c00; fill-opacity: 0.8"/>
    </g>
    <g clip-path="url(#p6b6fdbebb4)">
     <use xlink:href="#C0_0_19ded14b66" x="91.995922" y="34.661972" style="fill: #ff8c00; fill-opacity: 0.8"/>
    </g>
    <g clip-path="url(#p6b6fdbebb4)">
     <use xlink:href="#C0_0_19ded14b66" x="77.774841" y="75.090016" style="fill: #ff8c00; fill-opacity: 0.8"/>
    </g>
    <g clip-path="url(#p6b6fdbebb4)">
     <use xlink:href="#C0_0_19ded14b66" x="55.427428" y="72.85425" style="fill: #ff8c00; fill-opacity: 0.8"/>
    </g>
    <g clip-path="url(#p6b6fdbebb4)">
     <use xlink:href="#C0_0_19ded14b66" x="98.090671" y="22.771903" style="fill: #ff8c00; fill-opacity: 0.8"/>
    </g>
    <g clip-path="url(#p6b6fdbebb4)">
     <use xlink:href="#C0_0_19ded14b66" x="73.711675" y="74.758075" style="fill: #ff8c00; fill-opacity: 0.8"/>
    </g>
    <g clip-path="url(#p6b6fdbebb4)">
     <use xlink:href="#C0_0_19ded14b66" x="69.648509" y="25.399884" style="fill: #ff8c00; fill-opacity: 0.8"/>
    </g>
    <g clip-path="url(#p6b6fdbebb4)">
     <use xlink:href="#C0_0_19ded14b66" x="83.86959" y="61.626219" style="fill: #ff8c00; fill-opacity: 0.8"/>
    </g>
    <g clip-path="url(#p6b6fdbebb4)">
     <use xlink:href="#C0_0_19ded14b66" x="51.364262" y="46.121227" style="fill: #ff8c00; fill-opacity: 0.8"/>
    </g>
    <g clip-path="url(#p6b6fdbebb4)">
     <use xlink:href="#C0_0_19ded14b66" x="79.806424" y="58.619212" style="fill: #ff8c00; fill-opacity: 0.8"/>
    </g>
    <g clip-path="url(#p6b6fdbebb4)">
     <use xlink:href="#C0_0_19ded14b66" x="75.743258" y="35.820235" style="fill: #ff8c00; fill-opacity: 0.8"/>
    </g>
    <g clip-path="url(#p6b6fdbebb4)">
     <use xlink:href="#C0_0_19ded14b66" x="73.711675" y="65.32664" style="fill: #ff8c00; fill-opacity: 0.8"/>
    </g>
    <g clip-path="url(#p6b6fdbebb4)">
     <use xlink:href="#C0_0_19ded14b66" x="55.427428" y="54.041312" style="fill: #ff8c00; fill-opacity: 0.8"/>
    </g>
    <g clip-path="url(#p6b6fdbebb4)">
     <use xlink:href="#C0_0_19ded14b66" x="71.680092" y="45.389486" style="fill: #ff8c00; fill-opacity: 0.8"/>
    </g>
    <g clip-path="url(#p6b6fdbebb4)">
     <use xlink:href="#C0_0_19ded14b66" x="75.743258" y="59.322475" style="fill: #ff8c00; fill-opacity: 0.8"/>
    </g>
    <g clip-path="url(#p6b6fdbebb4)">
     <use xlink:href="#C0_0_19ded14b66" x="79.806424" y="47.389307" style="fill: #ff8c00; fill-opacity: 0.8"/>
    </g>
    <g clip-path="url(#p6b6fdbebb4)">
     <use xlink:href="#C0_0_19ded14b66" x="85.901173" y="44.801091" style="fill: #ff8c00; fill-opacity: 0.8"/>
    </g>
    <g clip-path="url(#p6b6fdbebb4)">
     <use xlink:href="#C0_0_19ded14b66" x="65.585343" y="64.806613" style="fill: #ff8c00; fill-opacity: 0.8"/>
    </g>
    <g clip-path="url(#p6b6fdbebb4)">
     <use xlink:href="#C0_0_19ded14b66" x="31.048432" y="48.123125" style="fill: #ff8c00; fill-opacity: 0.8"/>
    </g>
    <g clip-path="url(#p6b6fdbebb4)">
     <use xlink:href="#C0_0_19ded14b66" x="94.027505" y="20.51918" style="fill: #ff8c00; fill-opacity: 0.8"/>
    </g>
    <g clip-path="url(#p6b6fdbebb4)">
     <use xlink:href="#C0_0_19ded14b66" x="104.18542" y="22.109353" style="fill: #ff8c00; fill-opacity: 0.8"/>
    </g>
    <g clip-path="url(#p6b6fdbebb4)">
     <use xlink:href="#C0_0_19ded14b66" x="59.490594" y="72.096439" style="fill: #ff8c00; fill-opacity: 0.8"/>
    </g>
    <g clip-path="url(#p6b6fdbebb4)">
     <use xlink:href="#C0_0_19ded14b66" x="89.964339" y="32.163704" style="fill: #ff8c00; fill-opacity: 0.8"/>
    </g>
    <g clip-path="url(#p6b6fdbebb4)">
     <use xlink:href="#C0_0_19ded14b66" x="39.174764" y="51.938406" style="fill: #ff8c00; fill-opacity: 0.8"/>
    </g>
    <g clip-path="url(#p6b6fdbebb4)">
     <use xlink:href="#C0_0_19ded14b66" x="81.838007" y="69.514427" style="fill: #ff8c00; fill-opacity: 0.8"/>
    </g>
    <g clip-path="url(#p6b6fdbebb4)">
     <use xlink:href="#C0_0_19ded14b66" x="69.648509" y="34.814359" style="fill: #ff8c00; fill-opacity: 0.8"/>
    </g>
    <g clip-path="url(#p6b6fdbebb4)">
     <use xlink:href="#C0_0_19ded14b66" x="53.395845" y="43.797136" style="fill: #ff8c00; fill-opacity: 0.8"/>
    </g>
    <g clip-path="url(#p6b6fdbebb4)">
     <use xlink:href="#C0_0_19ded14b66" x="85.901173" y="56.626274" style="fill: #ff8c00; fill-opacity: 0.8"/>
    </g>
    <g clip-path="url(#p6b6fdbebb4)">
     <use xlink:href="#C0_0_19ded14b66" x="69.648509" y="63.855589" style="fill: #ff8c00; fill-opacity: 0.8"/>
    </g>
    <g clip-path="url(#p6b6fdbebb4)">
     <use xlink:href="#C0_0_19ded14b66" x="57.459011" y="76.152839" style="fill: #ff8c00; fill-opacity: 0.8"/>
    </g>
    <g clip-path="url(#p6b6fdbebb4)">
     <use xlink:href="#C0_0_19ded14b66" x="59.490594" y="48.71292" style="fill: #ff8c00; fill-opacity: 0.8"/>
    </g>
    <g clip-path="url(#p6b6fdbebb4)">
     <use xlink:href="#C0_0_19ded14b66" x="65.585343" y="39.297016" style="fill: #ff8c00; fill-opacity: 0.8"/>
    </g>
    <g clip-path="url(#p6b6fdbebb4)">
     <use xlink:href="#C0_0_19ded14b66" x="98.090671" y="55.358586" style="fill: #ff8c00; fill-opacity: 0.8"/>
    </g>
    <g clip-path="url(#p6b6fdbebb4)">
     <use xlink:href="#C0_0_19ded14b66" x="85.901173" y="47.182656" style="fill: #ff8c00; fill-opacity: 0.8"/>
    </g>
    <g clip-path="url(#p6b6fdbebb4)">
     <use xlink:href="#C0_0_19ded14b66" x="53.395845" y="72.187849" style="fill: #ff8c00; fill-opacity: 0.8"/>
    </g>
    <g clip-path="url(#p6b6fdbebb4)">
     <use xlink:href="#C0_0_19ded14b66" x="71.680092" y="25.144044" style="fill: #ff8c00; fill-opacity: 0.8"/>
    </g>
    <g clip-path="url(#p6b6fdbebb4)">
     <use xlink:href="#C0_0_19ded14b66" x="87.932756" y="58.296377" style="fill: #ff8c00; fill-opacity: 0.8"/>
    </g>
    <g clip-path="url(#p6b6fdbebb4)">
     <use xlink:href="#C0_0_19ded14b66" x="79.806424" y="54.417505" style="fill: #ff8c00; fill-opacity: 0.8"/>
    </g>
    <g clip-path="url(#p6b6fdbebb4)">
     <use xlink:href="#C0_0_19ded14b66" x="67.616926" y="32.391447" style="fill: #ff8c00; fill-opacity: 0.8"/>
    </g>
    <g clip-path="url(#p6b6fdbebb4)">
     <use xlink:href="#C0_0_19ded14b66" x="59.490594" y="67.704712" style="fill: #ff8c00; fill-opacity: 0.8"/>
    </g>
    <g clip-path="url(#p6b6fdbebb4)">
     <use xlink:href="#C0_0_19ded14b66" x="73.711675" y="74.438752" style="fill: #ff8c00; fill-opacity: 0.8"/>
    </g>
    <g clip-path="url(#p6b6fdbebb4)">
     <use xlink:href="#C0_0_19ded14b66" x="85.901173" y="48.681581" style="fill: #ff8c00; fill-opacity: 0.8"/>
    </g>
    <g clip-path="url(#p6b6fdbebb4)">
     <use xlink:href="#C0_0_19ded14b66" x="57.459011" y="64.194842" style="fill: #ff8c00; fill-opacity: 0.8"/>
    </g>
    <g clip-path="url(#p6b6fdbebb4)">
     <use xlink:href="#C0_0_19ded14b66" x="104.18542" y="31.57741" style="fill: #ff8c00; fill-opacity: 0.8"/>
    </g>
    <g clip-path="url(#p6b6fdbebb4)">
     <use xlink:href="#C0_0_19ded14b66" x="51.364262" y="46.28919" style="fill: #ff8c00; fill-opacity: 0.8"/>
    </g>
    <g clip-path="url(#p6b6fdbebb4)">
     <use xlink:href="#C0_0_19ded14b66" x="91.995922" y="24.242846" style="fill: #ff8c00; fill-opacity: 0.8"/>
    </g>
    <g clip-path="url(#p6b6fdbebb4)">
     <use xlink:href="#C0_0_19ded14b66" x="65.585343" y="38.598332" style="fill: #ff8c00; fill-opacity: 0.8"/>
    </g>
    <g clip-path="url(#p6b6fdbebb4)">
     <use xlink:href="#C0_0_19ded14b66" x="67.616926" y="33.369531" style="fill: #ff8c00; fill-opacity: 0.8"/>
    </g>
    <g clip-path="url(#p6b6fdbebb4)">
     <use xlink:href="#C0_0_19ded14b66" x="79.806424" y="34.892077" style="fill: #ff8c00; fill-opacity: 0.8"/>
    </g>
    <g clip-path="url(#p6b6fdbebb4)">
     <use xlink:href="#C0_0_19ded14b66" x="106.217003" y="50.985171" style="fill: #ff8c00; fill-opacity: 0.8"/>
    </g>
    <g clip-path="url(#p6b6fdbebb4)">
     <use xlink:href="#C0_0_19ded14b66" x="65.585343" y="63.942708" style="fill: #ff8c00; fill-opacity: 0.8"/>
    </g>
    <g clip-path="url(#p6b6fdbebb4)">
     <use xlink:href="#C0_0_19ded14b66" x="47.301096" y="63.794521" style="fill: #ff8c00; fill-opacity: 0.8"/>
    </g>
    <g clip-path="url(#p6b6fdbebb4)">
     <use xlink:href="#C0_0_19ded14b66" x="98.090671" y="52.044824" style="fill: #ff8c00; fill-opacity: 0.8"/>
    </g>
    <g clip-path="url(#p6b6fdbebb4)">
     <use xlink:href="#C0_0_19ded14b66" x="63.55376" y="60.353229" style="fill: #ff8c00; fill-opacity: 0.8"/>
    </g>
    <g clip-path="url(#p6b6fdbebb4)">
     <use xlink:href="#C0_0_19ded14b66" x="45.269513" y="61.89433" style="fill: #ff8c00; fill-opacity: 0.8"/>
    </g>
    <g clip-path="url(#p6b6fdbebb4)">
     <use xlink:href="#C0_0_19ded14b66" x="87.932756" y="54.886307" style="fill: #ff8c00; fill-opacity: 0.8"/>
    </g>
    <g clip-path="url(#p6b6fdbebb4)">
     <use xlink:href="#C0_0_19ded14b66" x="45.269513" y="27.577485" style="fill: #ff8c00; fill-opacity: 0.8"/>
    </g>
    <g clip-path="url(#p6b6fdbebb4)">
     <use xlink:href="#C0_0_19ded14b66" x="43.23793" y="84.07156" style="fill: #ff8c00; fill-opacity: 0.8"/>
    </g>
    <g clip-path="url(#p6b6fdbebb4)">
     <use xlink:href="#C0_0_19ded14b66" x="81.838007" y="40.860068" style="fill: #ff8c00; fill-opacity: 0.8"/>
    </g>
    <g clip-path="url(#p6b6fdbebb4)">
     <use xlink:href="#C0_0_19ded14b66" x="57.459011" y="76.014184" style="fill: #ff8c00; fill-opacity: 0.8"/>
    </g>
    <g clip-path="url(#p6b6fdbebb4)">
     <use xlink:href="#C0_0_19ded14b66" x="55.427428" y="33.701011" style="fill: #ff8c00; fill-opacity: 0.8"/>
    </g>
    <g clip-path="url(#p6b6fdbebb4)">
     <use xlink:href="#C0_0_19ded14b66" x="83.86959" y="34.468031" style="fill: #ff8c00; fill-opacity: 0.8"/>
    </g>
    <g clip-path="url(#p6b6fdbebb4)">
     <use xlink:href="#C0_0_19ded14b66" x="75.743258" y="57.838977" style="fill: #ff8c00; fill-opacity: 0.8"/>
    </g>
    <g clip-path="url(#p6b6fdbebb4)">
     <use xlink:href="#C0_0_19ded14b66" x="61.522177" y="24.916062" style="fill: #ff8c00; fill-opacity: 0.8"/>
    </g>
    <g clip-path="url(#p6b6fdbebb4)">
     <use xlink:href="#C0_0_19ded14b66" x="43.23793" y="59.973013" style="fill: #ff8c00; fill-opacity: 0.8"/>
    </g>
    <g clip-path="url(#p6b6fdbebb4)">
     <use xlink:href="#C0_0_19ded14b66" x="67.616926" y="51.142116" style="fill: #ff8c00; fill-opacity: 0.8"/>
    </g>
    <g clip-path="url(#p6b6fdbebb4)">
     <use xlink:href="#C0_0_19ded14b66" x="96.059088" y="73.194487" style="fill: #ff8c00; fill-opacity: 0.8"/>
    </g>
    <g clip-path="url(#p6b6fdbebb4)">
     <use xlink:href="#C0_0_19ded14b66" x="79.806424" y="17.344227" style="fill: #ff8c00; fill-opacity: 0.8"/>
    </g>
    <g clip-path="url(#p6b6fdbebb4)">
     <use xlink:href="#C0_0_19ded14b66" x="59.490594" y="63.255928" style="fill: #ff8c00; fill-opacity: 0.8"/>
    </g>
    <g clip-path="url(#p6b6fdbebb4)">
     <use xlink:href="#C0_0_19ded14b66" x="116.374918" y="45.811857" style="fill: #ff8c00; fill-opacity: 0.8"/>
    </g>
    <g clip-path="url(#p6b6fdbebb4)">
     <use xlink:href="#C0_0_19ded14b66" x="75.743258" y="53.571208" style="fill: #ff8c00; fill-opacity: 0.8"/>
    </g>
    <g clip-path="url(#p6b6fdbebb4)">
     <use xlink:href="#C0_0_19ded14b66" x="81.838007" y="61.491501" style="fill: #ff8c00; fill-opacity: 0.8"/>
    </g>
    <g clip-path="url(#p6b6fdbebb4)">
     <use xlink:href="#C0_0_19ded14b66" x="81.838007" y="60.654285" style="fill: #ff8c00; fill-opacity: 0.8"/>
    </g>
    <g clip-path="url(#p6b6fdbebb4)">
     <use xlink:href="#C0_0_19ded14b66" x="53.395845" y="85.408403" style="fill: #ff8c00; fill-opacity: 0.8"/>
    </g>
    <g clip-path="url(#p6b6fdbebb4)">
     <use xlink:href="#C0_0_19ded14b66" x="114.343335" y="14.90939" style="fill: #ff8c00; fill-opacity: 0.8"/>
    </g>
    <g clip-path="url(#p6b6fdbebb4)">
     <use xlink:href="#C0_0_19ded14b66" x="73.711675" y="46.978407" style="fill: #ff8c00; fill-opacity: 0.8"/>
    </g>
    <g clip-path="url(#p6b6fdbebb4)">
     <use xlink:href="#C0_0_19ded14b66" x="79.806424" y="46.688124" style="fill: #ff8c00; fill-opacity: 0.8"/>
    </g>
    <g clip-path="url(#p6b6fdbebb4)">
     <use xlink:href="#C0_0_19ded14b66" x="75.743258" y="53.59316" style="fill: #ff8c00; fill-opacity: 0.8"/>
    </g>
    <g clip-path="url(#p6b6fdbebb4)">
     <use xlink:href="#C0_0_19ded14b66" x="98.090671" y="51.319886" style="fill: #ff8c00; fill-opacity: 0.8"/>
    </g>
   </g>
   <g id="PolyCollection_1">
    <path d="M 31.048432 52.681741 
L 31.048432 64.581328 
L 32.197611 64.202179 
L 33.346789 63.828326 
L 34.495967 63.462277 
L 35.645145 63.091421 
L 36.794324 62.727361 
L 37.943502 62.362999 
L 39.09268 61.981399 
L 40.241858 61.621913 
L 41.391037 61.223126 
L 42.540215 60.846948 
L 43.689393 60.464928 
L 44.838571 60.101342 
L 45.98775 59.744692 
L 47.136928 59.384144 
L 48.286106 59.020382 
L 49.435284 58.655172 
L 50.584463 58.299413 
L 51.733641 57.959243 
L 52.882819 57.621482 
L 54.031997 57.283231 
L 55.181176 56.940029 
L 56.330354 56.59888 
L 57.479532 56.258122 
L 58.62871 55.930568 
L 59.777889 55.600614 
L 60.927067 55.253458 
L 62.076245 54.933262 
L 63.225423 54.599263 
L 64.374602 54.270087 
L 65.52378 53.940727 
L 66.672958 53.635276 
L 67.822136 53.316197 
L 68.971315 53.008279 
L 70.120493 52.702397 
L 71.269671 52.430948 
L 72.418849 52.155313 
L 73.568028 51.887237 
L 74.717206 51.625294 
L 75.866384 51.36559 
L 77.015562 51.143983 
L 78.164741 50.947865 
L 79.313919 50.715873 
L 80.463097 50.495992 
L 81.612276 50.275249 
L 82.761454 50.064689 
L 83.910632 49.873514 
L 85.05981 49.699323 
L 86.208989 49.501802 
L 87.358167 49.331892 
L 88.507345 49.161119 
L 89.656523 48.980224 
L 90.805702 48.825044 
L 91.95488 48.674654 
L 93.104058 48.516419 
L 94.253236 48.351741 
L 95.402415 48.181073 
L 96.551593 48.026061 
L 97.700771 47.883279 
L 98.849949 47.752509 
L 99.999128 47.602542 
L 101.148306 47.460838 
L 102.297484 47.332942 
L 103.446662 47.190699 
L 104.595841 47.067366 
L 105.745019 46.915905 
L 106.894197 46.797949 
L 108.043375 46.684111 
L 109.192554 46.558193 
L 110.341732 46.43694 
L 111.49091 46.308092 
L 112.640088 46.18255 
L 113.789267 46.059437 
L 114.938445 45.917281 
L 116.087623 45.786658 
L 117.236801 45.666586 
L 118.38598 45.523371 
L 119.535158 45.390808 
L 120.684336 45.283386 
L 121.833514 45.133172 
L 122.982693 45.01421 
L 124.131871 44.896979 
L 125.281049 44.782495 
L 126.430227 44.667328 
L 127.579406 44.555032 
L 128.728584 44.436556 
L 129.877762 44.318113 
L 131.02694 44.189564 
L 132.176119 44.060476 
L 133.325297 43.93843 
L 134.474475 43.800294 
L 135.623653 43.688913 
L 136.772832 43.555905 
L 137.92201 43.457993 
L 139.071188 43.344414 
L 140.220366 43.20286 
L 141.369545 43.083079 
L 142.518723 42.980683 
L 143.667901 42.854098 
L 144.817079 42.747004 
L 144.817079 25.28793 
L 144.817079 25.28793 
L 143.667901 25.672264 
L 142.518723 26.029621 
L 141.369545 26.418219 
L 140.220366 26.806341 
L 139.071188 27.181646 
L 137.92201 27.567225 
L 136.772832 27.952985 
L 135.623653 28.338948 
L 134.474475 28.729881 
L 133.325297 29.110273 
L 132.176119 29.487275 
L 131.02694 29.868628 
L 129.877762 30.266311 
L 128.728584 30.624427 
L 127.579406 30.979272 
L 126.430227 31.344648 
L 125.281049 31.715913 
L 124.131871 32.095719 
L 122.982693 32.475344 
L 121.833514 32.849845 
L 120.684336 33.217034 
L 119.535158 33.586628 
L 118.38598 33.919299 
L 117.236801 34.275334 
L 116.087623 34.655365 
L 114.938445 35.01308 
L 113.789267 35.375559 
L 112.640088 35.742384 
L 111.49091 36.101618 
L 110.341732 36.474502 
L 109.192554 36.844376 
L 108.043375 37.222294 
L 106.894197 37.586592 
L 105.745019 37.95874 
L 104.595841 38.316632 
L 103.446662 38.65542 
L 102.297484 39.002697 
L 101.148306 39.361939 
L 99.999128 39.718179 
L 98.849949 40.069381 
L 97.700771 40.41263 
L 96.551593 40.732019 
L 95.402415 41.057946 
L 94.253236 41.375687 
L 93.104058 41.713603 
L 91.95488 42.056286 
L 90.805702 42.375054 
L 89.656523 42.70177 
L 88.507345 43.017965 
L 87.358167 43.328614 
L 86.208989 43.654037 
L 85.05981 43.94843 
L 83.910632 44.269691 
L 82.761454 44.55576 
L 81.612276 44.835625 
L 80.463097 45.110677 
L 79.313919 45.387732 
L 78.164741 45.665837 
L 77.015562 45.943764 
L 75.866384 46.225489 
L 74.717206 46.482487 
L 73.568028 46.710102 
L 72.418849 46.927734 
L 71.269671 47.164042 
L 70.120493 47.378449 
L 68.971315 47.610016 
L 67.822136 47.815699 
L 66.672958 48.011264 
L 65.52378 48.226809 
L 64.374602 48.432915 
L 63.225423 48.626516 
L 62.076245 48.830637 
L 60.927067 49.023657 
L 59.777889 49.192812 
L 58.62871 49.36039 
L 57.479532 49.512843 
L 56.330354 49.695463 
L 55.181176 49.85052 
L 54.031997 50.003208 
L 52.882819 50.15883 
L 51.733641 50.297911 
L 50.584463 50.453857 
L 49.435284 50.59043 
L 48.286106 50.730153 
L 47.136928 50.869086 
L 45.98775 51.007802 
L 44.838571 51.14517 
L 43.689393 51.292155 
L 42.540215 51.432158 
L 41.391037 51.566655 
L 40.241858 51.697771 
L 39.09268 51.82834 
L 37.943502 51.951284 
L 36.794324 52.066634 
L 35.645145 52.18334 
L 34.495967 52.310246 
L 33.346789 52.452115 
L 32.197611 52.583309 
L 31.048432 52.681741 
z
" clip-path="url(#p6b6fdbebb4)" style="fill: #ff8c00; fill-opacity: 0.15"/>
   </g>
   <g id="matplotlib.axis_1">
    <g id="xtick_1">
     <g id="line2d_1">
      <defs>
       <path id="m9976d768ff" d="M 0 0 
L 0 3.5 
" style="stroke: #000000; stroke-width: 0.25"/>
      </defs>
      <g>
       <use xlink:href="#m9976d768ff" x="43.23793" y="89.218327" style="stroke: #000000; stroke-width: 0.25"/>
      </g>
     </g>
     <g id="text_1">
      <!-- 30 -->
      <g transform="translate(40.457462 97.297233) scale(0.05 -0.05)">
       <defs>
        <path id="ArialMT-33" d="M 269 1209 
L 831 1284 
Q 928 806 1161 595 
Q 1394 384 1728 384 
Q 2125 384 2398 659 
Q 2672 934 2672 1341 
Q 2672 1728 2419 1979 
Q 2166 2231 1775 2231 
Q 1616 2231 1378 2169 
L 1441 2663 
Q 1497 2656 1531 2656 
Q 1891 2656 2178 2843 
Q 2466 3031 2466 3422 
Q 2466 3731 2256 3934 
Q 2047 4138 1716 4138 
Q 1388 4138 1169 3931 
Q 950 3725 888 3313 
L 325 3413 
Q 428 3978 793 4289 
Q 1159 4600 1703 4600 
Q 2078 4600 2393 4439 
Q 2709 4278 2876 4000 
Q 3044 3722 3044 3409 
Q 3044 3113 2884 2869 
Q 2725 2625 2413 2481 
Q 2819 2388 3044 2092 
Q 3269 1797 3269 1353 
Q 3269 753 2831 336 
Q 2394 -81 1725 -81 
Q 1122 -81 723 278 
Q 325 638 269 1209 
z
" transform="scale(0.015625)"/>
        <path id="ArialMT-30" d="M 266 2259 
Q 266 3072 433 3567 
Q 600 4063 929 4331 
Q 1259 4600 1759 4600 
Q 2128 4600 2406 4451 
Q 2684 4303 2865 4023 
Q 3047 3744 3150 3342 
Q 3253 2941 3253 2259 
Q 3253 1453 3087 958 
Q 2922 463 2592 192 
Q 2263 -78 1759 -78 
Q 1097 -78 719 397 
Q 266 969 266 2259 
z
M 844 2259 
Q 844 1131 1108 757 
Q 1372 384 1759 384 
Q 2147 384 2411 759 
Q 2675 1134 2675 2259 
Q 2675 3391 2411 3762 
Q 2147 4134 1753 4134 
Q 1366 4134 1134 3806 
Q 844 3388 844 2259 
z
" transform="scale(0.015625)"/>
       </defs>
       <use xlink:href="#ArialMT-33"/>
       <use xlink:href="#ArialMT-30" x="55.615234"/>
      </g>
     </g>
    </g>
    <g id="xtick_2">
     <g id="line2d_2">
      <g>
       <use xlink:href="#m9976d768ff" x="63.55376" y="89.218327" style="stroke: #000000; stroke-width: 0.25"/>
      </g>
     </g>
     <g id="text_2">
      <!-- 40 -->
      <g transform="translate(60.773291 97.297233) scale(0.05 -0.05)">
       <defs>
        <path id="ArialMT-34" d="M 2069 0 
L 2069 1097 
L 81 1097 
L 81 1613 
L 2172 4581 
L 2631 4581 
L 2631 1613 
L 3250 1613 
L 3250 1097 
L 2631 1097 
L 2631 0 
L 2069 0 
z
M 2069 1613 
L 2069 3678 
L 634 1613 
L 2069 1613 
z
" transform="scale(0.015625)"/>
       </defs>
       <use xlink:href="#ArialMT-34"/>
       <use xlink:href="#ArialMT-30" x="55.615234"/>
      </g>
     </g>
    </g>
    <g id="xtick_3">
     <g id="line2d_3">
      <g>
       <use xlink:href="#m9976d768ff" x="83.86959" y="89.218327" style="stroke: #000000; stroke-width: 0.25"/>
      </g>
     </g>
     <g id="text_3">
      <!-- 50 -->
      <g transform="translate(81.089121 97.297233) scale(0.05 -0.05)">
       <defs>
        <path id="ArialMT-35" d="M 266 1200 
L 856 1250 
Q 922 819 1161 601 
Q 1400 384 1738 384 
Q 2144 384 2425 690 
Q 2706 997 2706 1503 
Q 2706 1984 2436 2262 
Q 2166 2541 1728 2541 
Q 1456 2541 1237 2417 
Q 1019 2294 894 2097 
L 366 2166 
L 809 4519 
L 3088 4519 
L 3088 3981 
L 1259 3981 
L 1013 2750 
Q 1425 3038 1878 3038 
Q 2478 3038 2890 2622 
Q 3303 2206 3303 1553 
Q 3303 931 2941 478 
Q 2500 -78 1738 -78 
Q 1113 -78 717 272 
Q 322 622 266 1200 
z
" transform="scale(0.015625)"/>
       </defs>
       <use xlink:href="#ArialMT-35"/>
       <use xlink:href="#ArialMT-30" x="55.615234"/>
      </g>
     </g>
    </g>
    <g id="xtick_4">
     <g id="line2d_4">
      <g>
       <use xlink:href="#m9976d768ff" x="104.18542" y="89.218327" style="stroke: #000000; stroke-width: 0.25"/>
      </g>
     </g>
     <g id="text_4">
      <!-- 60 -->
      <g transform="translate(101.404951 97.297233) scale(0.05 -0.05)">
       <defs>
        <path id="ArialMT-36" d="M 3184 3459 
L 2625 3416 
Q 2550 3747 2413 3897 
Q 2184 4138 1850 4138 
Q 1581 4138 1378 3988 
Q 1113 3794 959 3422 
Q 806 3050 800 2363 
Q 1003 2672 1297 2822 
Q 1591 2972 1913 2972 
Q 2475 2972 2870 2558 
Q 3266 2144 3266 1488 
Q 3266 1056 3080 686 
Q 2894 316 2569 119 
Q 2244 -78 1831 -78 
Q 1128 -78 684 439 
Q 241 956 241 2144 
Q 241 3472 731 4075 
Q 1159 4600 1884 4600 
Q 2425 4600 2770 4297 
Q 3116 3994 3184 3459 
z
M 888 1484 
Q 888 1194 1011 928 
Q 1134 663 1356 523 
Q 1578 384 1822 384 
Q 2178 384 2434 671 
Q 2691 959 2691 1453 
Q 2691 1928 2437 2201 
Q 2184 2475 1800 2475 
Q 1419 2475 1153 2201 
Q 888 1928 888 1484 
z
" transform="scale(0.015625)"/>
       </defs>
       <use xlink:href="#ArialMT-36"/>
       <use xlink:href="#ArialMT-30" x="55.615234"/>
      </g>
     </g>
    </g>
    <g id="xtick_5">
     <g id="line2d_5">
      <g>
       <use xlink:href="#m9976d768ff" x="124.50125" y="89.218327" style="stroke: #000000; stroke-width: 0.25"/>
      </g>
     </g>
     <g id="text_5">
      <!-- 70 -->
      <g transform="translate(121.720781 97.297233) scale(0.05 -0.05)">
       <defs>
        <path id="ArialMT-37" d="M 303 3981 
L 303 4522 
L 3269 4522 
L 3269 4084 
Q 2831 3619 2401 2847 
Q 1972 2075 1738 1259 
Q 1569 684 1522 0 
L 944 0 
Q 953 541 1156 1306 
Q 1359 2072 1739 2783 
Q 2119 3494 2547 3981 
L 303 3981 
z
" transform="scale(0.015625)"/>
       </defs>
       <use xlink:href="#ArialMT-37"/>
       <use xlink:href="#ArialMT-30" x="55.615234"/>
      </g>
     </g>
    </g>
    <g id="xtick_6">
     <g id="line2d_6">
      <g>
       <use xlink:href="#m9976d768ff" x="144.817079" y="89.218327" style="stroke: #000000; stroke-width: 0.25"/>
      </g>
     </g>
     <g id="text_6">
      <!-- 80 -->
      <g transform="translate(142.036611 97.297233) scale(0.05 -0.05)">
       <defs>
        <path id="ArialMT-38" d="M 1131 2484 
Q 781 2613 612 2850 
Q 444 3088 444 3419 
Q 444 3919 803 4259 
Q 1163 4600 1759 4600 
Q 2359 4600 2725 4251 
Q 3091 3903 3091 3403 
Q 3091 3084 2923 2848 
Q 2756 2613 2416 2484 
Q 2838 2347 3058 2040 
Q 3278 1734 3278 1309 
Q 3278 722 2862 322 
Q 2447 -78 1769 -78 
Q 1091 -78 675 323 
Q 259 725 259 1325 
Q 259 1772 486 2073 
Q 713 2375 1131 2484 
z
M 1019 3438 
Q 1019 3113 1228 2906 
Q 1438 2700 1772 2700 
Q 2097 2700 2305 2904 
Q 2513 3109 2513 3406 
Q 2513 3716 2298 3927 
Q 2084 4138 1766 4138 
Q 1444 4138 1231 3931 
Q 1019 3725 1019 3438 
z
M 838 1322 
Q 838 1081 952 856 
Q 1066 631 1291 507 
Q 1516 384 1775 384 
Q 2178 384 2440 643 
Q 2703 903 2703 1303 
Q 2703 1709 2433 1975 
Q 2163 2241 1756 2241 
Q 1359 2241 1098 1978 
Q 838 1716 838 1322 
z
" transform="scale(0.015625)"/>
       </defs>
       <use xlink:href="#ArialMT-38"/>
       <use xlink:href="#ArialMT-30" x="55.615234"/>
      </g>
     </g>
    </g>
    <g id="text_7">
     <!-- NIH Toolbox cognition total composite score [a.u.] -->
     <g transform="translate(22.124006 106.585671) scale(0.06 -0.06)">
      <defs>
       <path id="ArialMT-4e" d="M 488 0 
L 488 4581 
L 1109 4581 
L 3516 984 
L 3516 4581 
L 4097 4581 
L 4097 0 
L 3475 0 
L 1069 3600 
L 1069 0 
L 488 0 
z
" transform="scale(0.015625)"/>
       <path id="ArialMT-49" d="M 597 0 
L 597 4581 
L 1203 4581 
L 1203 0 
L 597 0 
z
" transform="scale(0.015625)"/>
       <path id="ArialMT-48" d="M 513 0 
L 513 4581 
L 1119 4581 
L 1119 2700 
L 3500 2700 
L 3500 4581 
L 4106 4581 
L 4106 0 
L 3500 0 
L 3500 2159 
L 1119 2159 
L 1119 0 
L 513 0 
z
" transform="scale(0.015625)"/>
       <path id="ArialMT-20" transform="scale(0.015625)"/>
       <path id="ArialMT-54" d="M 1659 0 
L 1659 4041 
L 150 4041 
L 150 4581 
L 3781 4581 
L 3781 4041 
L 2266 4041 
L 2266 0 
L 1659 0 
z
" transform="scale(0.015625)"/>
       <path id="ArialMT-6f" d="M 213 1659 
Q 213 2581 725 3025 
Q 1153 3394 1769 3394 
Q 2453 3394 2887 2945 
Q 3322 2497 3322 1706 
Q 3322 1066 3130 698 
Q 2938 331 2570 128 
Q 2203 -75 1769 -75 
Q 1072 -75 642 372 
Q 213 819 213 1659 
z
M 791 1659 
Q 791 1022 1069 705 
Q 1347 388 1769 388 
Q 2188 388 2466 706 
Q 2744 1025 2744 1678 
Q 2744 2294 2464 2611 
Q 2184 2928 1769 2928 
Q 1347 2928 1069 2612 
Q 791 2297 791 1659 
z
" transform="scale(0.015625)"/>
       <path id="ArialMT-6c" d="M 409 0 
L 409 4581 
L 972 4581 
L 972 0 
L 409 0 
z
" transform="scale(0.015625)"/>
       <path id="ArialMT-62" d="M 941 0 
L 419 0 
L 419 4581 
L 981 4581 
L 981 2947 
Q 1338 3394 1891 3394 
Q 2197 3394 2470 3270 
Q 2744 3147 2920 2923 
Q 3097 2700 3197 2384 
Q 3297 2069 3297 1709 
Q 3297 856 2875 390 
Q 2453 -75 1863 -75 
Q 1275 -75 941 416 
L 941 0 
z
M 934 1684 
Q 934 1088 1097 822 
Q 1363 388 1816 388 
Q 2184 388 2453 708 
Q 2722 1028 2722 1663 
Q 2722 2313 2464 2622 
Q 2206 2931 1841 2931 
Q 1472 2931 1203 2611 
Q 934 2291 934 1684 
z
" transform="scale(0.015625)"/>
       <path id="ArialMT-78" d="M 47 0 
L 1259 1725 
L 138 3319 
L 841 3319 
L 1350 2541 
Q 1494 2319 1581 2169 
Q 1719 2375 1834 2534 
L 2394 3319 
L 3066 3319 
L 1919 1756 
L 3153 0 
L 2463 0 
L 1781 1031 
L 1600 1309 
L 728 0 
L 47 0 
z
" transform="scale(0.015625)"/>
       <path id="ArialMT-63" d="M 2588 1216 
L 3141 1144 
Q 3050 572 2676 248 
Q 2303 -75 1759 -75 
Q 1078 -75 664 370 
Q 250 816 250 1647 
Q 250 2184 428 2587 
Q 606 2991 970 3192 
Q 1334 3394 1763 3394 
Q 2303 3394 2647 3120 
Q 2991 2847 3088 2344 
L 2541 2259 
Q 2463 2594 2264 2762 
Q 2066 2931 1784 2931 
Q 1359 2931 1093 2626 
Q 828 2322 828 1663 
Q 828 994 1084 691 
Q 1341 388 1753 388 
Q 2084 388 2306 591 
Q 2528 794 2588 1216 
z
" transform="scale(0.015625)"/>
       <path id="ArialMT-67" d="M 319 -275 
L 866 -356 
Q 900 -609 1056 -725 
Q 1266 -881 1628 -881 
Q 2019 -881 2231 -725 
Q 2444 -569 2519 -288 
Q 2563 -116 2559 434 
Q 2191 0 1641 0 
Q 956 0 581 494 
Q 206 988 206 1678 
Q 206 2153 378 2554 
Q 550 2956 876 3175 
Q 1203 3394 1644 3394 
Q 2231 3394 2613 2919 
L 2613 3319 
L 3131 3319 
L 3131 450 
Q 3131 -325 2973 -648 
Q 2816 -972 2473 -1159 
Q 2131 -1347 1631 -1347 
Q 1038 -1347 672 -1080 
Q 306 -813 319 -275 
z
M 784 1719 
Q 784 1066 1043 766 
Q 1303 466 1694 466 
Q 2081 466 2343 764 
Q 2606 1063 2606 1700 
Q 2606 2309 2336 2618 
Q 2066 2928 1684 2928 
Q 1309 2928 1046 2623 
Q 784 2319 784 1719 
z
" transform="scale(0.015625)"/>
       <path id="ArialMT-6e" d="M 422 0 
L 422 3319 
L 928 3319 
L 928 2847 
Q 1294 3394 1984 3394 
Q 2284 3394 2536 3286 
Q 2788 3178 2913 3003 
Q 3038 2828 3088 2588 
Q 3119 2431 3119 2041 
L 3119 0 
L 2556 0 
L 2556 2019 
Q 2556 2363 2490 2533 
Q 2425 2703 2258 2804 
Q 2091 2906 1866 2906 
Q 1506 2906 1245 2678 
Q 984 2450 984 1813 
L 984 0 
L 422 0 
z
" transform="scale(0.015625)"/>
       <path id="ArialMT-69" d="M 425 3934 
L 425 4581 
L 988 4581 
L 988 3934 
L 425 3934 
z
M 425 0 
L 425 3319 
L 988 3319 
L 988 0 
L 425 0 
z
" transform="scale(0.015625)"/>
       <path id="ArialMT-74" d="M 1650 503 
L 1731 6 
Q 1494 -44 1306 -44 
Q 1000 -44 831 53 
Q 663 150 594 308 
Q 525 466 525 972 
L 525 2881 
L 113 2881 
L 113 3319 
L 525 3319 
L 525 4141 
L 1084 4478 
L 1084 3319 
L 1650 3319 
L 1650 2881 
L 1084 2881 
L 1084 941 
Q 1084 700 1114 631 
Q 1144 563 1211 522 
Q 1278 481 1403 481 
Q 1497 481 1650 503 
z
" transform="scale(0.015625)"/>
       <path id="ArialMT-61" d="M 2588 409 
Q 2275 144 1986 34 
Q 1697 -75 1366 -75 
Q 819 -75 525 192 
Q 231 459 231 875 
Q 231 1119 342 1320 
Q 453 1522 633 1644 
Q 813 1766 1038 1828 
Q 1203 1872 1538 1913 
Q 2219 1994 2541 2106 
Q 2544 2222 2544 2253 
Q 2544 2597 2384 2738 
Q 2169 2928 1744 2928 
Q 1347 2928 1158 2789 
Q 969 2650 878 2297 
L 328 2372 
Q 403 2725 575 2942 
Q 747 3159 1072 3276 
Q 1397 3394 1825 3394 
Q 2250 3394 2515 3294 
Q 2781 3194 2906 3042 
Q 3031 2891 3081 2659 
Q 3109 2516 3109 2141 
L 3109 1391 
Q 3109 606 3145 398 
Q 3181 191 3288 0 
L 2700 0 
Q 2613 175 2588 409 
z
M 2541 1666 
Q 2234 1541 1622 1453 
Q 1275 1403 1131 1340 
Q 988 1278 909 1158 
Q 831 1038 831 891 
Q 831 666 1001 516 
Q 1172 366 1500 366 
Q 1825 366 2078 508 
Q 2331 650 2450 897 
Q 2541 1088 2541 1459 
L 2541 1666 
z
" transform="scale(0.015625)"/>
       <path id="ArialMT-6d" d="M 422 0 
L 422 3319 
L 925 3319 
L 925 2853 
Q 1081 3097 1340 3245 
Q 1600 3394 1931 3394 
Q 2300 3394 2536 3241 
Q 2772 3088 2869 2813 
Q 3263 3394 3894 3394 
Q 4388 3394 4653 3120 
Q 4919 2847 4919 2278 
L 4919 0 
L 4359 0 
L 4359 2091 
Q 4359 2428 4304 2576 
Q 4250 2725 4106 2815 
Q 3963 2906 3769 2906 
Q 3419 2906 3187 2673 
Q 2956 2441 2956 1928 
L 2956 0 
L 2394 0 
L 2394 2156 
Q 2394 2531 2256 2718 
Q 2119 2906 1806 2906 
Q 1569 2906 1367 2781 
Q 1166 2656 1075 2415 
Q 984 2175 984 1722 
L 984 0 
L 422 0 
z
" transform="scale(0.015625)"/>
       <path id="ArialMT-70" d="M 422 -1272 
L 422 3319 
L 934 3319 
L 934 2888 
Q 1116 3141 1344 3267 
Q 1572 3394 1897 3394 
Q 2322 3394 2647 3175 
Q 2972 2956 3137 2557 
Q 3303 2159 3303 1684 
Q 3303 1175 3120 767 
Q 2938 359 2589 142 
Q 2241 -75 1856 -75 
Q 1575 -75 1351 44 
Q 1128 163 984 344 
L 984 -1272 
L 422 -1272 
z
M 931 1641 
Q 931 1000 1190 694 
Q 1450 388 1819 388 
Q 2194 388 2461 705 
Q 2728 1022 2728 1688 
Q 2728 2322 2467 2637 
Q 2206 2953 1844 2953 
Q 1484 2953 1207 2617 
Q 931 2281 931 1641 
z
" transform="scale(0.015625)"/>
       <path id="ArialMT-73" d="M 197 991 
L 753 1078 
Q 800 744 1014 566 
Q 1228 388 1613 388 
Q 2000 388 2187 545 
Q 2375 703 2375 916 
Q 2375 1106 2209 1216 
Q 2094 1291 1634 1406 
Q 1016 1563 777 1677 
Q 538 1791 414 1992 
Q 291 2194 291 2438 
Q 291 2659 392 2848 
Q 494 3038 669 3163 
Q 800 3259 1026 3326 
Q 1253 3394 1513 3394 
Q 1903 3394 2198 3281 
Q 2494 3169 2634 2976 
Q 2775 2784 2828 2463 
L 2278 2388 
Q 2241 2644 2061 2787 
Q 1881 2931 1553 2931 
Q 1166 2931 1000 2803 
Q 834 2675 834 2503 
Q 834 2394 903 2306 
Q 972 2216 1119 2156 
Q 1203 2125 1616 2013 
Q 2213 1853 2448 1751 
Q 2684 1650 2818 1456 
Q 2953 1263 2953 975 
Q 2953 694 2789 445 
Q 2625 197 2315 61 
Q 2006 -75 1616 -75 
Q 969 -75 630 194 
Q 291 463 197 991 
z
" transform="scale(0.015625)"/>
       <path id="ArialMT-65" d="M 2694 1069 
L 3275 997 
Q 3138 488 2766 206 
Q 2394 -75 1816 -75 
Q 1088 -75 661 373 
Q 234 822 234 1631 
Q 234 2469 665 2931 
Q 1097 3394 1784 3394 
Q 2450 3394 2872 2941 
Q 3294 2488 3294 1666 
Q 3294 1616 3291 1516 
L 816 1516 
Q 847 969 1125 678 
Q 1403 388 1819 388 
Q 2128 388 2347 550 
Q 2566 713 2694 1069 
z
M 847 1978 
L 2700 1978 
Q 2663 2397 2488 2606 
Q 2219 2931 1791 2931 
Q 1403 2931 1139 2672 
Q 875 2413 847 1978 
z
" transform="scale(0.015625)"/>
       <path id="ArialMT-72" d="M 416 0 
L 416 3319 
L 922 3319 
L 922 2816 
Q 1116 3169 1280 3281 
Q 1444 3394 1641 3394 
Q 1925 3394 2219 3213 
L 2025 2691 
Q 1819 2813 1613 2813 
Q 1428 2813 1281 2702 
Q 1134 2591 1072 2394 
Q 978 2094 978 1738 
L 978 0 
L 416 0 
z
" transform="scale(0.015625)"/>
       <path id="ArialMT-5b" d="M 434 -1272 
L 434 4581 
L 1675 4581 
L 1675 4116 
L 997 4116 
L 997 -806 
L 1675 -806 
L 1675 -1272 
L 434 -1272 
z
" transform="scale(0.015625)"/>
       <path id="ArialMT-2e" d="M 581 0 
L 581 641 
L 1222 641 
L 1222 0 
L 581 0 
z
" transform="scale(0.015625)"/>
       <path id="ArialMT-75" d="M 2597 0 
L 2597 488 
Q 2209 -75 1544 -75 
Q 1250 -75 995 37 
Q 741 150 617 320 
Q 494 491 444 738 
Q 409 903 409 1263 
L 409 3319 
L 972 3319 
L 972 1478 
Q 972 1038 1006 884 
Q 1059 663 1231 536 
Q 1403 409 1656 409 
Q 1909 409 2131 539 
Q 2353 669 2445 892 
Q 2538 1116 2538 1541 
L 2538 3319 
L 3100 3319 
L 3100 0 
L 2597 0 
z
" transform="scale(0.015625)"/>
       <path id="ArialMT-5d" d="M 1363 -1272 
L 122 -1272 
L 122 -806 
L 800 -806 
L 800 4116 
L 122 4116 
L 122 4581 
L 1363 4581 
L 1363 -1272 
z
" transform="scale(0.015625)"/>
      </defs>
      <use xlink:href="#ArialMT-4e"/>
      <use xlink:href="#ArialMT-49" x="72.216797"/>
      <use xlink:href="#ArialMT-48" x="100"/>
      <use xlink:href="#ArialMT-20" x="172.216797"/>
      <use xlink:href="#ArialMT-54" x="198.25"/>
      <use xlink:href="#ArialMT-6f" x="248.208984"/>
      <use xlink:href="#ArialMT-6f" x="303.824219"/>
      <use xlink:href="#ArialMT-6c" x="359.439453"/>
      <use xlink:href="#ArialMT-62" x="381.65625"/>
      <use xlink:href="#ArialMT-6f" x="437.271484"/>
      <use xlink:href="#ArialMT-78" x="492.886719"/>
      <use xlink:href="#ArialMT-20" x="542.886719"/>
      <use xlink:href="#ArialMT-63" x="570.669922"/>
      <use xlink:href="#ArialMT-6f" x="620.669922"/>
      <use xlink:href="#ArialMT-67" x="676.285156"/>
      <use xlink:href="#ArialMT-6e" x="731.900391"/>
      <use xlink:href="#ArialMT-69" x="787.515625"/>
      <use xlink:href="#ArialMT-74" x="809.732422"/>
      <use xlink:href="#ArialMT-69" x="837.515625"/>
      <use xlink:href="#ArialMT-6f" x="859.732422"/>
      <use xlink:href="#ArialMT-6e" x="915.347656"/>
      <use xlink:href="#ArialMT-20" x="970.962891"/>
      <use xlink:href="#ArialMT-74" x="998.746094"/>
      <use xlink:href="#ArialMT-6f" x="1026.529297"/>
      <use xlink:href="#ArialMT-74" x="1082.144531"/>
      <use xlink:href="#ArialMT-61" x="1109.927734"/>
      <use xlink:href="#ArialMT-6c" x="1165.542969"/>
      <use xlink:href="#ArialMT-20" x="1187.759766"/>
      <use xlink:href="#ArialMT-63" x="1215.542969"/>
      <use xlink:href="#ArialMT-6f" x="1265.542969"/>
      <use xlink:href="#ArialMT-6d" x="1321.158203"/>
      <use xlink:href="#ArialMT-70" x="1404.458984"/>
      <use xlink:href="#ArialMT-6f" x="1460.074219"/>
      <use xlink:href="#ArialMT-73" x="1515.689453"/>
      <use xlink:href="#ArialMT-69" x="1565.689453"/>
      <use xlink:href="#ArialMT-74" x="1587.90625"/>
      <use xlink:href="#ArialMT-65" x="1615.689453"/>
      <use xlink:href="#ArialMT-20" x="1671.304688"/>
      <use xlink:href="#ArialMT-73" x="1699.087891"/>
      <use xlink:href="#ArialMT-63" x="1749.087891"/>
      <use xlink:href="#ArialMT-6f" x="1799.087891"/>
      <use xlink:href="#ArialMT-72" x="1854.703125"/>
      <use xlink:href="#ArialMT-65" x="1888.003906"/>
      <use xlink:href="#ArialMT-20" x="1943.619141"/>
      <use xlink:href="#ArialMT-5b" x="1971.402344"/>
      <use xlink:href="#ArialMT-61" x="1999.185547"/>
      <use xlink:href="#ArialMT-2e" x="2054.800781"/>
      <use xlink:href="#ArialMT-75" x="2082.583984"/>
      <use xlink:href="#ArialMT-2e" x="2138.199219"/>
      <use xlink:href="#ArialMT-5d" x="2165.982422"/>
     </g>
    </g>
   </g>
   <g id="matplotlib.axis_2">
    <g id="ytick_1">
     <g id="line2d_7">
      <defs>
       <path id="m69852bbbb1" d="M 0 0 
L -3.5 0 
" style="stroke: #000000; stroke-width: 0.25"/>
      </defs>
      <g>
       <use xlink:href="#m69852bbbb1" x="25.36" y="75.971419" style="stroke: #000000; stroke-width: 0.25"/>
      </g>
     </g>
     <g id="text_8">
      <!-- −2 -->
      <g transform="translate(15.159219 77.760872) scale(0.05 -0.05)">
       <defs>
        <path id="ArialMT-2212" d="M 3381 1997 
L 356 1997 
L 356 2522 
L 3381 2522 
L 3381 1997 
z
" transform="scale(0.015625)"/>
        <path id="ArialMT-32" d="M 3222 541 
L 3222 0 
L 194 0 
Q 188 203 259 391 
Q 375 700 629 1000 
Q 884 1300 1366 1694 
Q 2113 2306 2375 2664 
Q 2638 3022 2638 3341 
Q 2638 3675 2398 3904 
Q 2159 4134 1775 4134 
Q 1369 4134 1125 3890 
Q 881 3647 878 3216 
L 300 3275 
Q 359 3922 746 4261 
Q 1134 4600 1788 4600 
Q 2447 4600 2831 4234 
Q 3216 3869 3216 3328 
Q 3216 3053 3103 2787 
Q 2991 2522 2730 2228 
Q 2469 1934 1863 1422 
Q 1356 997 1212 845 
Q 1069 694 975 541 
L 3222 541 
z
" transform="scale(0.015625)"/>
       </defs>
       <use xlink:href="#ArialMT-2212"/>
       <use xlink:href="#ArialMT-32" x="58.398438"/>
      </g>
     </g>
    </g>
    <g id="ytick_2">
     <g id="line2d_8">
      <g>
       <use xlink:href="#m69852bbbb1" x="25.36" y="61.0936" style="stroke: #000000; stroke-width: 0.25"/>
      </g>
     </g>
     <g id="text_9">
      <!-- −1 -->
      <g transform="translate(15.159219 62.883053) scale(0.05 -0.05)">
       <defs>
        <path id="ArialMT-31" d="M 2384 0 
L 1822 0 
L 1822 3584 
Q 1619 3391 1289 3197 
Q 959 3003 697 2906 
L 697 3450 
Q 1169 3672 1522 3987 
Q 1875 4303 2022 4600 
L 2384 4600 
L 2384 0 
z
" transform="scale(0.015625)"/>
       </defs>
       <use xlink:href="#ArialMT-2212"/>
       <use xlink:href="#ArialMT-31" x="58.398438"/>
      </g>
     </g>
    </g>
    <g id="ytick_3">
     <g id="line2d_9">
      <g>
       <use xlink:href="#m69852bbbb1" x="25.36" y="46.215781" style="stroke: #000000; stroke-width: 0.25"/>
      </g>
     </g>
     <g id="text_10">
      <!-- 0 -->
      <g transform="translate(18.079531 48.005234) scale(0.05 -0.05)">
       <use xlink:href="#ArialMT-30"/>
      </g>
     </g>
    </g>
    <g id="ytick_4">
     <g id="line2d_10">
      <g>
       <use xlink:href="#m69852bbbb1" x="25.36" y="31.337962" style="stroke: #000000; stroke-width: 0.25"/>
      </g>
     </g>
     <g id="text_11">
      <!-- 1 -->
      <g transform="translate(18.079531 33.127415) scale(0.05 -0.05)">
       <use xlink:href="#ArialMT-31"/>
      </g>
     </g>
    </g>
    <g id="ytick_5">
     <g id="line2d_11">
      <g>
       <use xlink:href="#m69852bbbb1" x="25.36" y="16.460143" style="stroke: #000000; stroke-width: 0.25"/>
      </g>
     </g>
     <g id="text_12">
      <!-- 2 -->
      <g transform="translate(18.079531 18.249596) scale(0.05 -0.05)">
       <use xlink:href="#ArialMT-32"/>
      </g>
     </g>
    </g>
    <g id="text_13">
     <!-- SA PC1 [a.u.] -->
     <g transform="translate(9.966719 65.319476) rotate(-90) scale(0.06 -0.06)">
      <defs>
       <path id="ArialMT-53" d="M 288 1472 
L 859 1522 
Q 900 1178 1048 958 
Q 1197 738 1509 602 
Q 1822 466 2213 466 
Q 2559 466 2825 569 
Q 3091 672 3220 851 
Q 3350 1031 3350 1244 
Q 3350 1459 3225 1620 
Q 3100 1781 2813 1891 
Q 2628 1963 1997 2114 
Q 1366 2266 1113 2400 
Q 784 2572 623 2826 
Q 463 3081 463 3397 
Q 463 3744 659 4045 
Q 856 4347 1234 4503 
Q 1613 4659 2075 4659 
Q 2584 4659 2973 4495 
Q 3363 4331 3572 4012 
Q 3781 3694 3797 3291 
L 3216 3247 
Q 3169 3681 2898 3903 
Q 2628 4125 2100 4125 
Q 1550 4125 1298 3923 
Q 1047 3722 1047 3438 
Q 1047 3191 1225 3031 
Q 1400 2872 2139 2705 
Q 2878 2538 3153 2413 
Q 3553 2228 3743 1945 
Q 3934 1663 3934 1294 
Q 3934 928 3725 604 
Q 3516 281 3123 101 
Q 2731 -78 2241 -78 
Q 1619 -78 1198 103 
Q 778 284 539 648 
Q 300 1013 288 1472 
z
" transform="scale(0.015625)"/>
       <path id="ArialMT-41" d="M -9 0 
L 1750 4581 
L 2403 4581 
L 4278 0 
L 3588 0 
L 3053 1388 
L 1138 1388 
L 634 0 
L -9 0 
z
M 1313 1881 
L 2866 1881 
L 2388 3150 
Q 2169 3728 2063 4100 
Q 1975 3659 1816 3225 
L 1313 1881 
z
" transform="scale(0.015625)"/>
       <path id="ArialMT-50" d="M 494 0 
L 494 4581 
L 2222 4581 
Q 2678 4581 2919 4538 
Q 3256 4481 3484 4323 
Q 3713 4166 3852 3881 
Q 3991 3597 3991 3256 
Q 3991 2672 3619 2267 
Q 3247 1863 2275 1863 
L 1100 1863 
L 1100 0 
L 494 0 
z
M 1100 2403 
L 2284 2403 
Q 2872 2403 3119 2622 
Q 3366 2841 3366 3238 
Q 3366 3525 3220 3729 
Q 3075 3934 2838 4000 
Q 2684 4041 2272 4041 
L 1100 4041 
L 1100 2403 
z
" transform="scale(0.015625)"/>
       <path id="ArialMT-43" d="M 3763 1606 
L 4369 1453 
Q 4178 706 3683 314 
Q 3188 -78 2472 -78 
Q 1731 -78 1267 223 
Q 803 525 561 1097 
Q 319 1669 319 2325 
Q 319 3041 592 3573 
Q 866 4106 1370 4382 
Q 1875 4659 2481 4659 
Q 3169 4659 3637 4309 
Q 4106 3959 4291 3325 
L 3694 3184 
Q 3534 3684 3231 3912 
Q 2928 4141 2469 4141 
Q 1941 4141 1586 3887 
Q 1231 3634 1087 3207 
Q 944 2781 944 2328 
Q 944 1744 1114 1308 
Q 1284 872 1643 656 
Q 2003 441 2422 441 
Q 2931 441 3284 734 
Q 3638 1028 3763 1606 
z
" transform="scale(0.015625)"/>
      </defs>
      <use xlink:href="#ArialMT-53"/>
      <use xlink:href="#ArialMT-41" x="66.699219"/>
      <use xlink:href="#ArialMT-20" x="127.898438"/>
      <use xlink:href="#ArialMT-50" x="155.681641"/>
      <use xlink:href="#ArialMT-43" x="222.380859"/>
      <use xlink:href="#ArialMT-31" x="294.597656"/>
      <use xlink:href="#ArialMT-20" x="350.212891"/>
      <use xlink:href="#ArialMT-5b" x="377.996094"/>
      <use xlink:href="#ArialMT-61" x="405.779297"/>
      <use xlink:href="#ArialMT-2e" x="461.394531"/>
      <use xlink:href="#ArialMT-75" x="489.177734"/>
      <use xlink:href="#ArialMT-2e" x="544.792969"/>
      <use xlink:href="#ArialMT-5d" x="572.576172"/>
     </g>
    </g>
   </g>
   <g id="line2d_12">
    <path d="M 31.048432 58.513983 
L 32.197611 58.264604 
L 33.346789 58.015226 
L 34.495967 57.765847 
L 35.645145 57.516469 
L 36.794324 57.26709 
L 37.943502 57.017711 
L 39.09268 56.768333 
L 40.241858 56.518954 
L 41.391037 56.269575 
L 42.540215 56.020197 
L 43.689393 55.770818 
L 44.838571 55.521439 
L 45.98775 55.272061 
L 47.136928 55.022682 
L 48.286106 54.773303 
L 49.435284 54.523925 
L 50.584463 54.274546 
L 51.733641 54.025167 
L 52.882819 53.775789 
L 54.031997 53.52641 
L 55.181176 53.277031 
L 56.330354 53.027653 
L 57.479532 52.778274 
L 58.62871 52.528895 
L 59.777889 52.279517 
L 60.927067 52.030138 
L 62.076245 51.780759 
L 63.225423 51.531381 
L 64.374602 51.282002 
L 65.52378 51.032623 
L 66.672958 50.783245 
L 67.822136 50.533866 
L 68.971315 50.284487 
L 70.120493 50.035109 
L 71.269671 49.78573 
L 72.418849 49.536351 
L 73.568028 49.286973 
L 74.717206 49.037594 
L 75.866384 48.788216 
L 77.015562 48.538837 
L 78.164741 48.289458 
L 79.313919 48.04008 
L 80.463097 47.790701 
L 81.612276 47.541322 
L 82.761454 47.291944 
L 83.910632 47.042565 
L 85.05981 46.793186 
L 86.208989 46.543808 
L 87.358167 46.294429 
L 88.507345 46.04505 
L 89.656523 45.795672 
L 90.805702 45.546293 
L 91.95488 45.296914 
L 93.104058 45.047536 
L 94.253236 44.798157 
L 95.402415 44.548778 
L 96.551593 44.2994 
L 97.700771 44.050021 
L 98.849949 43.800642 
L 99.999128 43.551264 
L 101.148306 43.301885 
L 102.297484 43.052506 
L 103.446662 42.803128 
L 104.595841 42.553749 
L 105.745019 42.30437 
L 106.894197 42.054992 
L 108.043375 41.805613 
L 109.192554 41.556234 
L 110.341732 41.306856 
L 111.49091 41.057477 
L 112.640088 40.808098 
L 113.789267 40.55872 
L 114.938445 40.309341 
L 116.087623 40.059963 
L 117.236801 39.810584 
L 118.38598 39.561205 
L 119.535158 39.311827 
L 120.684336 39.062448 
L 121.833514 38.813069 
L 122.982693 38.563691 
L 124.131871 38.314312 
L 125.281049 38.064933 
L 126.430227 37.815555 
L 127.579406 37.566176 
L 128.728584 37.316797 
L 129.877762 37.067419 
L 131.02694 36.81804 
L 132.176119 36.568661 
L 133.325297 36.319283 
L 134.474475 36.069904 
L 135.623653 35.820525 
L 136.772832 35.571147 
L 137.92201 35.321768 
L 139.071188 35.072389 
L 140.220366 34.823011 
L 141.369545 34.573632 
L 142.518723 34.324253 
L 143.667901 34.074875 
L 144.817079 33.825496 
" clip-path="url(#p6b6fdbebb4)" style="fill: none; stroke: #ff8c00; stroke-width: 0.75; stroke-linecap: square"/>
   </g>
   <g id="patch_3">
    <path d="M 25.36 89.218327 
L 25.36 5.4 
" style="fill: none; stroke: #000000; stroke-width: 0.25; stroke-linejoin: miter; stroke-linecap: square"/>
   </g>
   <g id="patch_4">
    <path d="M 25.36 89.218327 
L 150.505512 89.218327 
" style="fill: none; stroke: #000000; stroke-width: 0.25; stroke-linejoin: miter; stroke-linecap: square"/>
   </g>
   <g id="text_14">
    <g id="patch_5">
     <path d="M 29.114365 18.699023 
L 52.764365 18.699023 
Q 54.264365 18.699023 54.264365 17.199023 
L 54.264365 7.132617 
Q 54.264365 5.632617 52.764365 5.632617 
L 29.114365 5.632617 
Q 27.614365 5.632617 27.614365 7.132617 
L 27.614365 17.199023 
Q 27.614365 18.699023 29.114365 18.699023 
z
" style="fill: #c0c0c0; opacity: 0.4; stroke: #c0c0c0; stroke-linejoin: miter"/>
    </g>
    <!-- $r=0.234$ -->
    <g transform="translate(29.114365 10.655273) scale(0.05 -0.05)">
     <defs>
      <path id="DejaVuSans-Oblique-72" d="M 2853 2969 
Q 2766 3016 2653 3041 
Q 2541 3066 2413 3066 
Q 1953 3066 1609 2717 
Q 1266 2369 1153 1784 
L 800 0 
L 225 0 
L 909 3500 
L 1484 3500 
L 1375 2956 
Q 1603 3259 1920 3421 
Q 2238 3584 2597 3584 
Q 2691 3584 2781 3573 
Q 2872 3563 2963 3538 
L 2853 2969 
z
" transform="scale(0.015625)"/>
      <path id="DejaVuSans-3d" d="M 678 2906 
L 4684 2906 
L 4684 2381 
L 678 2381 
L 678 2906 
z
M 678 1631 
L 4684 1631 
L 4684 1100 
L 678 1100 
L 678 1631 
z
" transform="scale(0.015625)"/>
      <path id="DejaVuSans-30" d="M 2034 4250 
Q 1547 4250 1301 3770 
Q 1056 3291 1056 2328 
Q 1056 1369 1301 889 
Q 1547 409 2034 409 
Q 2525 409 2770 889 
Q 3016 1369 3016 2328 
Q 3016 3291 2770 3770 
Q 2525 4250 2034 4250 
z
M 2034 4750 
Q 2819 4750 3233 4129 
Q 3647 3509 3647 2328 
Q 3647 1150 3233 529 
Q 2819 -91 2034 -91 
Q 1250 -91 836 529 
Q 422 1150 422 2328 
Q 422 3509 836 4129 
Q 1250 4750 2034 4750 
z
" transform="scale(0.015625)"/>
      <path id="DejaVuSans-2e" d="M 684 794 
L 1344 794 
L 1344 0 
L 684 0 
L 684 794 
z
" transform="scale(0.015625)"/>
      <path id="DejaVuSans-32" d="M 1228 531 
L 3431 531 
L 3431 0 
L 469 0 
L 469 531 
Q 828 903 1448 1529 
Q 2069 2156 2228 2338 
Q 2531 2678 2651 2914 
Q 2772 3150 2772 3378 
Q 2772 3750 2511 3984 
Q 2250 4219 1831 4219 
Q 1534 4219 1204 4116 
Q 875 4013 500 3803 
L 500 4441 
Q 881 4594 1212 4672 
Q 1544 4750 1819 4750 
Q 2544 4750 2975 4387 
Q 3406 4025 3406 3419 
Q 3406 3131 3298 2873 
Q 3191 2616 2906 2266 
Q 2828 2175 2409 1742 
Q 1991 1309 1228 531 
z
" transform="scale(0.015625)"/>
      <path id="DejaVuSans-33" d="M 2597 2516 
Q 3050 2419 3304 2112 
Q 3559 1806 3559 1356 
Q 3559 666 3084 287 
Q 2609 -91 1734 -91 
Q 1441 -91 1130 -33 
Q 819 25 488 141 
L 488 750 
Q 750 597 1062 519 
Q 1375 441 1716 441 
Q 2309 441 2620 675 
Q 2931 909 2931 1356 
Q 2931 1769 2642 2001 
Q 2353 2234 1838 2234 
L 1294 2234 
L 1294 2753 
L 1863 2753 
Q 2328 2753 2575 2939 
Q 2822 3125 2822 3475 
Q 2822 3834 2567 4026 
Q 2313 4219 1838 4219 
Q 1578 4219 1281 4162 
Q 984 4106 628 3988 
L 628 4550 
Q 988 4650 1302 4700 
Q 1616 4750 1894 4750 
Q 2613 4750 3031 4423 
Q 3450 4097 3450 3541 
Q 3450 3153 3228 2886 
Q 3006 2619 2597 2516 
z
" transform="scale(0.015625)"/>
      <path id="DejaVuSans-34" d="M 2419 4116 
L 825 1625 
L 2419 1625 
L 2419 4116 
z
M 2253 4666 
L 3047 4666 
L 3047 1625 
L 3713 1625 
L 3713 1100 
L 3047 1100 
L 3047 0 
L 2419 0 
L 2419 1100 
L 313 1100 
L 313 1709 
L 2253 4666 
z
" transform="scale(0.015625)"/>
     </defs>
     <use xlink:href="#DejaVuSans-Oblique-72" transform="translate(0 0.78125)"/>
     <use xlink:href="#DejaVuSans-3d" transform="translate(60.595703 0.78125)"/>
     <use xlink:href="#DejaVuSans-30" transform="translate(163.867188 0.78125)"/>
     <use xlink:href="#DejaVuSans-2e" transform="translate(227.490234 0.78125)"/>
     <use xlink:href="#DejaVuSans-32" transform="translate(253.777344 0.78125)"/>
     <use xlink:href="#DejaVuSans-33" transform="translate(317.400391 0.78125)"/>
     <use xlink:href="#DejaVuSans-34" transform="translate(381.023438 0.78125)"/>
    </g>
    <!-- $p=0.006$ -->
    <g transform="translate(29.114365 16.149023) scale(0.05 -0.05)">
     <defs>
      <path id="DejaVuSans-Oblique-70" d="M 3175 2156 
Q 3175 2616 2975 2859 
Q 2775 3103 2400 3103 
Q 2144 3103 1911 2972 
Q 1678 2841 1497 2591 
Q 1319 2344 1212 1994 
Q 1106 1644 1106 1300 
Q 1106 863 1306 627 
Q 1506 391 1875 391 
Q 2147 391 2380 519 
Q 2613 647 2778 891 
Q 2956 1147 3065 1494 
Q 3175 1841 3175 2156 
z
M 1394 2969 
Q 1625 3272 1939 3428 
Q 2253 3584 2638 3584 
Q 3175 3584 3472 3232 
Q 3769 2881 3769 2247 
Q 3769 1728 3584 1258 
Q 3400 788 3053 416 
Q 2822 169 2531 39 
Q 2241 -91 1919 -91 
Q 1547 -91 1294 64 
Q 1041 219 916 525 
L 556 -1331 
L -19 -1331 
L 922 3500 
L 1497 3500 
L 1394 2969 
z
" transform="scale(0.015625)"/>
      <path id="DejaVuSans-36" d="M 2113 2584 
Q 1688 2584 1439 2293 
Q 1191 2003 1191 1497 
Q 1191 994 1439 701 
Q 1688 409 2113 409 
Q 2538 409 2786 701 
Q 3034 994 3034 1497 
Q 3034 2003 2786 2293 
Q 2538 2584 2113 2584 
z
M 3366 4563 
L 3366 3988 
Q 3128 4100 2886 4159 
Q 2644 4219 2406 4219 
Q 1781 4219 1451 3797 
Q 1122 3375 1075 2522 
Q 1259 2794 1537 2939 
Q 1816 3084 2150 3084 
Q 2853 3084 3261 2657 
Q 3669 2231 3669 1497 
Q 3669 778 3244 343 
Q 2819 -91 2113 -91 
Q 1303 -91 875 529 
Q 447 1150 447 2328 
Q 447 3434 972 4092 
Q 1497 4750 2381 4750 
Q 2619 4750 2861 4703 
Q 3103 4656 3366 4563 
z
" transform="scale(0.015625)"/>
     </defs>
     <use xlink:href="#DejaVuSans-Oblique-70" transform="translate(0 0.78125)"/>
     <use xlink:href="#DejaVuSans-3d" transform="translate(82.958984 0.78125)"/>
     <use xlink:href="#DejaVuSans-30" transform="translate(186.230469 0.78125)"/>
     <use xlink:href="#DejaVuSans-2e" transform="translate(249.853516 0.78125)"/>
     <use xlink:href="#DejaVuSans-30" transform="translate(281.640625 0.78125)"/>
     <use xlink:href="#DejaVuSans-30" transform="translate(345.263672 0.78125)"/>
     <use xlink:href="#DejaVuSans-36" transform="translate(408.886719 0.78125)"/>
    </g>
   </g>
  </g>
 </g>
 <defs>
  <clipPath id="p6b6fdbebb4">
   <rect x="25.36" y="5.4" width="125.145512" height="83.818327"/>
  </clipPath>
 </defs>
</svg>
