<?xml version="1.0" encoding="utf-8" standalone="no"?>
<!DOCTYPE svg PUBLIC "-//W3C//DTD SVG 1.1//EN"
  "http://www.w3.org/Graphics/SVG/1.1/DTD/svg11.dtd">
<svg xmlns:xlink="http://www.w3.org/1999/xlink" width="155.905512pt" height="113.385827pt" viewBox="0 0 155.905512 113.385827" xmlns="http://www.w3.org/2000/svg" version="1.1">
 <metadata>
  <rdf:RDF xmlns:dc="http://purl.org/dc/elements/1.1/" xmlns:cc="http://creativecommons.org/ns#" xmlns:rdf="http://www.w3.org/1999/02/22-rdf-syntax-ns#">
   <cc:Work>
    <dc:type rdf:resource="http://purl.org/dc/dcmitype/StillImage"/>
    <dc:date>2025-08-13T10:45:10.737219</dc:date>
    <dc:format>image/svg+xml</dc:format>
    <dc:creator>
     <cc:Agent>
      <dc:title>Matplotlib v3.9.2, https://matplotlib.org/</dc:title>
     </cc:Agent>
    </dc:creator>
   </cc:Work>
  </rdf:RDF>
 </metadata>
 <defs>
  <style type="text/css">*{stroke-linejoin: round; stroke-linecap: butt}</style>
 </defs>
 <g id="figure_1">
  <g id="patch_1">
   <path d="M 0 113.385827 
L 155.905512 113.385827 
L 155.905512 0 
L 0 0 
z
" style="fill: #ffffff"/>
  </g>
  <g id="axes_1">
   <g id="patch_2">
    <path d="M 25.24 89.218327 
L 150.505512 89.218327 
L 150.505512 5.4 
L 25.24 5.4 
z
" style="fill: #ffffff"/>
   </g>
   <g id="PathCollection_1">
    <defs>
     <path id="C0_0_8db014efe5" d="M 0 0.866025 
C 0.229673 0.866025 0.449969 0.774776 0.612372 0.612372 
C 0.774776 0.449969 0.866025 0.229673 0.866025 -0 
C 0.866025 -0.229673 0.774776 -0.449969 0.612372 -0.612372 
C 0.449969 -0.774776 0.229673 -0.866025 0 -0.866025 
C -0.229673 -0.866025 -0.449969 -0.774776 -0.612372 -0.612372 
C -0.774776 -0.449969 -0.866025 -0.229673 -0.866025 0 
C -0.866025 0.229673 -0.774776 0.449969 -0.612372 0.612372 
C -0.449969 0.774776 -0.229673 0.866025 0 0.866025 
z
"/>
    </defs>
    <g clip-path="url(#p2f48bf2bbc)">
     <use xlink:href="#C0_0_8db014efe5" x="59.403321" y="75.7354" style="fill: #ff8c00; fill-opacity: 0.8"/>
    </g>
    <g clip-path="url(#p2f48bf2bbc)">
     <use xlink:href="#C0_0_8db014efe5" x="77.705101" y="72.963505" style="fill: #ff8c00; fill-opacity: 0.8"/>
    </g>
    <g clip-path="url(#p2f48bf2bbc)">
     <use xlink:href="#C0_0_8db014efe5" x="106.174535" y="78.507295" style="fill: #ff8c00; fill-opacity: 0.8"/>
    </g>
    <g clip-path="url(#p2f48bf2bbc)">
     <use xlink:href="#C0_0_8db014efe5" x="81.772163" y="50.788346" style="fill: #ff8c00; fill-opacity: 0.8"/>
    </g>
    <g clip-path="url(#p2f48bf2bbc)">
     <use xlink:href="#C0_0_8db014efe5" x="71.604508" y="78.507295" style="fill: #ff8c00; fill-opacity: 0.8"/>
    </g>
    <g clip-path="url(#p2f48bf2bbc)">
     <use xlink:href="#C0_0_8db014efe5" x="57.36979" y="75.7354" style="fill: #ff8c00; fill-opacity: 0.8"/>
    </g>
    <g clip-path="url(#p2f48bf2bbc)">
     <use xlink:href="#C0_0_8db014efe5" x="69.570977" y="48.016452" style="fill: #ff8c00; fill-opacity: 0.8"/>
    </g>
    <g clip-path="url(#p2f48bf2bbc)">
     <use xlink:href="#C0_0_8db014efe5" x="85.839225" y="78.507295" style="fill: #ff8c00; fill-opacity: 0.8"/>
    </g>
    <g clip-path="url(#p2f48bf2bbc)">
     <use xlink:href="#C0_0_8db014efe5" x="83.805694" y="78.507295" style="fill: #ff8c00; fill-opacity: 0.8"/>
    </g>
    <g clip-path="url(#p2f48bf2bbc)">
     <use xlink:href="#C0_0_8db014efe5" x="69.570977" y="61.875926" style="fill: #ff8c00; fill-opacity: 0.8"/>
    </g>
    <g clip-path="url(#p2f48bf2bbc)">
     <use xlink:href="#C0_0_8db014efe5" x="81.772163" y="72.963505" style="fill: #ff8c00; fill-opacity: 0.8"/>
    </g>
    <g clip-path="url(#p2f48bf2bbc)">
     <use xlink:href="#C0_0_8db014efe5" x="59.403321" y="78.507295" style="fill: #ff8c00; fill-opacity: 0.8"/>
    </g>
    <g clip-path="url(#p2f48bf2bbc)">
     <use xlink:href="#C0_0_8db014efe5" x="47.202135" y="72.963505" style="fill: #ff8c00; fill-opacity: 0.8"/>
    </g>
    <g clip-path="url(#p2f48bf2bbc)">
     <use xlink:href="#C0_0_8db014efe5" x="128.543377" y="78.507295" style="fill: #ff8c00; fill-opacity: 0.8"/>
    </g>
    <g clip-path="url(#p2f48bf2bbc)">
     <use xlink:href="#C0_0_8db014efe5" x="89.906287" y="78.507295" style="fill: #ff8c00; fill-opacity: 0.8"/>
    </g>
    <g clip-path="url(#p2f48bf2bbc)">
     <use xlink:href="#C0_0_8db014efe5" x="39.068011" y="78.507295" style="fill: #ff8c00; fill-opacity: 0.8"/>
    </g>
    <g clip-path="url(#p2f48bf2bbc)">
     <use xlink:href="#C0_0_8db014efe5" x="65.503915" y="78.507295" style="fill: #ff8c00; fill-opacity: 0.8"/>
    </g>
    <g clip-path="url(#p2f48bf2bbc)">
     <use xlink:href="#C0_0_8db014efe5" x="89.906287" y="78.507295" style="fill: #ff8c00; fill-opacity: 0.8"/>
    </g>
    <g clip-path="url(#p2f48bf2bbc)">
     <use xlink:href="#C0_0_8db014efe5" x="69.570977" y="72.963505" style="fill: #ff8c00; fill-opacity: 0.8"/>
    </g>
    <g clip-path="url(#p2f48bf2bbc)">
     <use xlink:href="#C0_0_8db014efe5" x="53.302728" y="72.963505" style="fill: #ff8c00; fill-opacity: 0.8"/>
    </g>
    <g clip-path="url(#p2f48bf2bbc)">
     <use xlink:href="#C0_0_8db014efe5" x="59.403321" y="64.647821" style="fill: #ff8c00; fill-opacity: 0.8"/>
    </g>
    <g clip-path="url(#p2f48bf2bbc)">
     <use xlink:href="#C0_0_8db014efe5" x="87.872756" y="78.507295" style="fill: #ff8c00; fill-opacity: 0.8"/>
    </g>
    <g clip-path="url(#p2f48bf2bbc)">
     <use xlink:href="#C0_0_8db014efe5" x="65.503915" y="67.419715" style="fill: #ff8c00; fill-opacity: 0.8"/>
    </g>
    <g clip-path="url(#p2f48bf2bbc)">
     <use xlink:href="#C0_0_8db014efe5" x="53.302728" y="64.647821" style="fill: #ff8c00; fill-opacity: 0.8"/>
    </g>
    <g clip-path="url(#p2f48bf2bbc)">
     <use xlink:href="#C0_0_8db014efe5" x="53.302728" y="75.7354" style="fill: #ff8c00; fill-opacity: 0.8"/>
    </g>
    <g clip-path="url(#p2f48bf2bbc)">
     <use xlink:href="#C0_0_8db014efe5" x="59.403321" y="78.507295" style="fill: #ff8c00; fill-opacity: 0.8"/>
    </g>
    <g clip-path="url(#p2f48bf2bbc)">
     <use xlink:href="#C0_0_8db014efe5" x="69.570977" y="75.7354" style="fill: #ff8c00; fill-opacity: 0.8"/>
    </g>
    <g clip-path="url(#p2f48bf2bbc)">
     <use xlink:href="#C0_0_8db014efe5" x="53.302728" y="78.507295" style="fill: #ff8c00; fill-opacity: 0.8"/>
    </g>
    <g clip-path="url(#p2f48bf2bbc)">
     <use xlink:href="#C0_0_8db014efe5" x="110.241597" y="64.647821" style="fill: #ff8c00; fill-opacity: 0.8"/>
    </g>
    <g clip-path="url(#p2f48bf2bbc)">
     <use xlink:href="#C0_0_8db014efe5" x="57.36979" y="78.507295" style="fill: #ff8c00; fill-opacity: 0.8"/>
    </g>
    <g clip-path="url(#p2f48bf2bbc)">
     <use xlink:href="#C0_0_8db014efe5" x="102.107473" y="78.507295" style="fill: #ff8c00; fill-opacity: 0.8"/>
    </g>
    <g clip-path="url(#p2f48bf2bbc)">
     <use xlink:href="#C0_0_8db014efe5" x="71.604508" y="75.7354" style="fill: #ff8c00; fill-opacity: 0.8"/>
    </g>
    <g clip-path="url(#p2f48bf2bbc)">
     <use xlink:href="#C0_0_8db014efe5" x="69.570977" y="53.560241" style="fill: #ff8c00; fill-opacity: 0.8"/>
    </g>
    <g clip-path="url(#p2f48bf2bbc)">
     <use xlink:href="#C0_0_8db014efe5" x="91.939818" y="75.7354" style="fill: #ff8c00; fill-opacity: 0.8"/>
    </g>
    <g clip-path="url(#p2f48bf2bbc)">
     <use xlink:href="#C0_0_8db014efe5" x="39.068011" y="64.647821" style="fill: #ff8c00; fill-opacity: 0.8"/>
    </g>
    <g clip-path="url(#p2f48bf2bbc)">
     <use xlink:href="#C0_0_8db014efe5" x="53.302728" y="75.7354" style="fill: #ff8c00; fill-opacity: 0.8"/>
    </g>
    <g clip-path="url(#p2f48bf2bbc)">
     <use xlink:href="#C0_0_8db014efe5" x="51.269197" y="75.7354" style="fill: #ff8c00; fill-opacity: 0.8"/>
    </g>
    <g clip-path="url(#p2f48bf2bbc)">
     <use xlink:href="#C0_0_8db014efe5" x="49.235666" y="78.507295" style="fill: #ff8c00; fill-opacity: 0.8"/>
    </g>
    <g clip-path="url(#p2f48bf2bbc)">
     <use xlink:href="#C0_0_8db014efe5" x="98.040411" y="78.507295" style="fill: #ff8c00; fill-opacity: 0.8"/>
    </g>
    <g clip-path="url(#p2f48bf2bbc)">
     <use xlink:href="#C0_0_8db014efe5" x="65.503915" y="78.507295" style="fill: #ff8c00; fill-opacity: 0.8"/>
    </g>
    <g clip-path="url(#p2f48bf2bbc)">
     <use xlink:href="#C0_0_8db014efe5" x="57.36979" y="78.507295" style="fill: #ff8c00; fill-opacity: 0.8"/>
    </g>
    <g clip-path="url(#p2f48bf2bbc)">
     <use xlink:href="#C0_0_8db014efe5" x="53.302728" y="72.963505" style="fill: #ff8c00; fill-opacity: 0.8"/>
    </g>
    <g clip-path="url(#p2f48bf2bbc)">
     <use xlink:href="#C0_0_8db014efe5" x="75.67157" y="78.507295" style="fill: #ff8c00; fill-opacity: 0.8"/>
    </g>
    <g clip-path="url(#p2f48bf2bbc)">
     <use xlink:href="#C0_0_8db014efe5" x="144.811625" y="78.507295" style="fill: #ff8c00; fill-opacity: 0.8"/>
    </g>
    <g clip-path="url(#p2f48bf2bbc)">
     <use xlink:href="#C0_0_8db014efe5" x="41.101542" y="78.507295" style="fill: #ff8c00; fill-opacity: 0.8"/>
    </g>
    <g clip-path="url(#p2f48bf2bbc)">
     <use xlink:href="#C0_0_8db014efe5" x="67.537446" y="53.560241" style="fill: #ff8c00; fill-opacity: 0.8"/>
    </g>
    <g clip-path="url(#p2f48bf2bbc)">
     <use xlink:href="#C0_0_8db014efe5" x="39.068011" y="75.7354" style="fill: #ff8c00; fill-opacity: 0.8"/>
    </g>
    <g clip-path="url(#p2f48bf2bbc)">
     <use xlink:href="#C0_0_8db014efe5" x="65.503915" y="67.419715" style="fill: #ff8c00; fill-opacity: 0.8"/>
    </g>
    <g clip-path="url(#p2f48bf2bbc)">
     <use xlink:href="#C0_0_8db014efe5" x="79.738632" y="72.963505" style="fill: #ff8c00; fill-opacity: 0.8"/>
    </g>
    <g clip-path="url(#p2f48bf2bbc)">
     <use xlink:href="#C0_0_8db014efe5" x="49.235666" y="50.788346" style="fill: #ff8c00; fill-opacity: 0.8"/>
    </g>
    <g clip-path="url(#p2f48bf2bbc)">
     <use xlink:href="#C0_0_8db014efe5" x="87.872756" y="75.7354" style="fill: #ff8c00; fill-opacity: 0.8"/>
    </g>
    <g clip-path="url(#p2f48bf2bbc)">
     <use xlink:href="#C0_0_8db014efe5" x="81.772163" y="78.507295" style="fill: #ff8c00; fill-opacity: 0.8"/>
    </g>
    <g clip-path="url(#p2f48bf2bbc)">
     <use xlink:href="#C0_0_8db014efe5" x="30.933887" y="72.963505" style="fill: #ff8c00; fill-opacity: 0.8"/>
    </g>
    <g clip-path="url(#p2f48bf2bbc)">
     <use xlink:href="#C0_0_8db014efe5" x="43.135073" y="78.507295" style="fill: #ff8c00; fill-opacity: 0.8"/>
    </g>
    <g clip-path="url(#p2f48bf2bbc)">
     <use xlink:href="#C0_0_8db014efe5" x="122.442784" y="75.7354" style="fill: #ff8c00; fill-opacity: 0.8"/>
    </g>
    <g clip-path="url(#p2f48bf2bbc)">
     <use xlink:href="#C0_0_8db014efe5" x="91.939818" y="78.507295" style="fill: #ff8c00; fill-opacity: 0.8"/>
    </g>
    <g clip-path="url(#p2f48bf2bbc)">
     <use xlink:href="#C0_0_8db014efe5" x="61.436852" y="78.507295" style="fill: #ff8c00; fill-opacity: 0.8"/>
    </g>
    <g clip-path="url(#p2f48bf2bbc)">
     <use xlink:href="#C0_0_8db014efe5" x="81.772163" y="75.7354" style="fill: #ff8c00; fill-opacity: 0.8"/>
    </g>
    <g clip-path="url(#p2f48bf2bbc)">
     <use xlink:href="#C0_0_8db014efe5" x="59.403321" y="75.7354" style="fill: #ff8c00; fill-opacity: 0.8"/>
    </g>
    <g clip-path="url(#p2f48bf2bbc)">
     <use xlink:href="#C0_0_8db014efe5" x="91.939818" y="78.507295" style="fill: #ff8c00; fill-opacity: 0.8"/>
    </g>
    <g clip-path="url(#p2f48bf2bbc)">
     <use xlink:href="#C0_0_8db014efe5" x="77.705101" y="45.244557" style="fill: #ff8c00; fill-opacity: 0.8"/>
    </g>
    <g clip-path="url(#p2f48bf2bbc)">
     <use xlink:href="#C0_0_8db014efe5" x="55.336259" y="56.332136" style="fill: #ff8c00; fill-opacity: 0.8"/>
    </g>
    <g clip-path="url(#p2f48bf2bbc)">
     <use xlink:href="#C0_0_8db014efe5" x="98.040411" y="78.507295" style="fill: #ff8c00; fill-opacity: 0.8"/>
    </g>
    <g clip-path="url(#p2f48bf2bbc)">
     <use xlink:href="#C0_0_8db014efe5" x="73.638039" y="56.332136" style="fill: #ff8c00; fill-opacity: 0.8"/>
    </g>
    <g clip-path="url(#p2f48bf2bbc)">
     <use xlink:href="#C0_0_8db014efe5" x="69.570977" y="78.507295" style="fill: #ff8c00; fill-opacity: 0.8"/>
    </g>
    <g clip-path="url(#p2f48bf2bbc)">
     <use xlink:href="#C0_0_8db014efe5" x="83.805694" y="78.507295" style="fill: #ff8c00; fill-opacity: 0.8"/>
    </g>
    <g clip-path="url(#p2f48bf2bbc)">
     <use xlink:href="#C0_0_8db014efe5" x="51.269197" y="70.19161" style="fill: #ff8c00; fill-opacity: 0.8"/>
    </g>
    <g clip-path="url(#p2f48bf2bbc)">
     <use xlink:href="#C0_0_8db014efe5" x="79.738632" y="70.19161" style="fill: #ff8c00; fill-opacity: 0.8"/>
    </g>
    <g clip-path="url(#p2f48bf2bbc)">
     <use xlink:href="#C0_0_8db014efe5" x="75.67157" y="75.7354" style="fill: #ff8c00; fill-opacity: 0.8"/>
    </g>
    <g clip-path="url(#p2f48bf2bbc)">
     <use xlink:href="#C0_0_8db014efe5" x="73.638039" y="70.19161" style="fill: #ff8c00; fill-opacity: 0.8"/>
    </g>
    <g clip-path="url(#p2f48bf2bbc)">
     <use xlink:href="#C0_0_8db014efe5" x="55.336259" y="70.19161" style="fill: #ff8c00; fill-opacity: 0.8"/>
    </g>
    <g clip-path="url(#p2f48bf2bbc)">
     <use xlink:href="#C0_0_8db014efe5" x="71.604508" y="78.507295" style="fill: #ff8c00; fill-opacity: 0.8"/>
    </g>
    <g clip-path="url(#p2f48bf2bbc)">
     <use xlink:href="#C0_0_8db014efe5" x="75.67157" y="75.7354" style="fill: #ff8c00; fill-opacity: 0.8"/>
    </g>
    <g clip-path="url(#p2f48bf2bbc)">
     <use xlink:href="#C0_0_8db014efe5" x="79.738632" y="78.507295" style="fill: #ff8c00; fill-opacity: 0.8"/>
    </g>
    <g clip-path="url(#p2f48bf2bbc)">
     <use xlink:href="#C0_0_8db014efe5" x="85.839225" y="78.507295" style="fill: #ff8c00; fill-opacity: 0.8"/>
    </g>
    <g clip-path="url(#p2f48bf2bbc)">
     <use xlink:href="#C0_0_8db014efe5" x="65.503915" y="61.875926" style="fill: #ff8c00; fill-opacity: 0.8"/>
    </g>
    <g clip-path="url(#p2f48bf2bbc)">
     <use xlink:href="#C0_0_8db014efe5" x="30.933887" y="72.963505" style="fill: #ff8c00; fill-opacity: 0.8"/>
    </g>
    <g clip-path="url(#p2f48bf2bbc)">
     <use xlink:href="#C0_0_8db014efe5" x="93.973349" y="78.507295" style="fill: #ff8c00; fill-opacity: 0.8"/>
    </g>
    <g clip-path="url(#p2f48bf2bbc)">
     <use xlink:href="#C0_0_8db014efe5" x="104.141004" y="78.507295" style="fill: #ff8c00; fill-opacity: 0.8"/>
    </g>
    <g clip-path="url(#p2f48bf2bbc)">
     <use xlink:href="#C0_0_8db014efe5" x="59.403321" y="48.016452" style="fill: #ff8c00; fill-opacity: 0.8"/>
    </g>
    <g clip-path="url(#p2f48bf2bbc)">
     <use xlink:href="#C0_0_8db014efe5" x="89.906287" y="78.507295" style="fill: #ff8c00; fill-opacity: 0.8"/>
    </g>
    <g clip-path="url(#p2f48bf2bbc)">
     <use xlink:href="#C0_0_8db014efe5" x="39.068011" y="75.7354" style="fill: #ff8c00; fill-opacity: 0.8"/>
    </g>
    <g clip-path="url(#p2f48bf2bbc)">
     <use xlink:href="#C0_0_8db014efe5" x="81.772163" y="59.104031" style="fill: #ff8c00; fill-opacity: 0.8"/>
    </g>
    <g clip-path="url(#p2f48bf2bbc)">
     <use xlink:href="#C0_0_8db014efe5" x="69.570977" y="78.507295" style="fill: #ff8c00; fill-opacity: 0.8"/>
    </g>
    <g clip-path="url(#p2f48bf2bbc)">
     <use xlink:href="#C0_0_8db014efe5" x="53.302728" y="78.507295" style="fill: #ff8c00; fill-opacity: 0.8"/>
    </g>
    <g clip-path="url(#p2f48bf2bbc)">
     <use xlink:href="#C0_0_8db014efe5" x="85.839225" y="64.647821" style="fill: #ff8c00; fill-opacity: 0.8"/>
    </g>
    <g clip-path="url(#p2f48bf2bbc)">
     <use xlink:href="#C0_0_8db014efe5" x="69.570977" y="72.963505" style="fill: #ff8c00; fill-opacity: 0.8"/>
    </g>
    <g clip-path="url(#p2f48bf2bbc)">
     <use xlink:href="#C0_0_8db014efe5" x="57.36979" y="39.700767" style="fill: #ff8c00; fill-opacity: 0.8"/>
    </g>
    <g clip-path="url(#p2f48bf2bbc)">
     <use xlink:href="#C0_0_8db014efe5" x="59.403321" y="78.507295" style="fill: #ff8c00; fill-opacity: 0.8"/>
    </g>
    <g clip-path="url(#p2f48bf2bbc)">
     <use xlink:href="#C0_0_8db014efe5" x="65.503915" y="78.507295" style="fill: #ff8c00; fill-opacity: 0.8"/>
    </g>
    <g clip-path="url(#p2f48bf2bbc)">
     <use xlink:href="#C0_0_8db014efe5" x="98.040411" y="75.7354" style="fill: #ff8c00; fill-opacity: 0.8"/>
    </g>
    <g clip-path="url(#p2f48bf2bbc)">
     <use xlink:href="#C0_0_8db014efe5" x="85.839225" y="72.963505" style="fill: #ff8c00; fill-opacity: 0.8"/>
    </g>
    <g clip-path="url(#p2f48bf2bbc)">
     <use xlink:href="#C0_0_8db014efe5" x="53.302728" y="64.647821" style="fill: #ff8c00; fill-opacity: 0.8"/>
    </g>
    <g clip-path="url(#p2f48bf2bbc)">
     <use xlink:href="#C0_0_8db014efe5" x="71.604508" y="78.507295" style="fill: #ff8c00; fill-opacity: 0.8"/>
    </g>
    <g clip-path="url(#p2f48bf2bbc)">
     <use xlink:href="#C0_0_8db014efe5" x="87.872756" y="59.104031" style="fill: #ff8c00; fill-opacity: 0.8"/>
    </g>
    <g clip-path="url(#p2f48bf2bbc)">
     <use xlink:href="#C0_0_8db014efe5" x="79.738632" y="78.507295" style="fill: #ff8c00; fill-opacity: 0.8"/>
    </g>
    <g clip-path="url(#p2f48bf2bbc)">
     <use xlink:href="#C0_0_8db014efe5" x="67.537446" y="78.507295" style="fill: #ff8c00; fill-opacity: 0.8"/>
    </g>
    <g clip-path="url(#p2f48bf2bbc)">
     <use xlink:href="#C0_0_8db014efe5" x="59.403321" y="72.963505" style="fill: #ff8c00; fill-opacity: 0.8"/>
    </g>
    <g clip-path="url(#p2f48bf2bbc)">
     <use xlink:href="#C0_0_8db014efe5" x="73.638039" y="53.560241" style="fill: #ff8c00; fill-opacity: 0.8"/>
    </g>
    <g clip-path="url(#p2f48bf2bbc)">
     <use xlink:href="#C0_0_8db014efe5" x="85.839225" y="78.507295" style="fill: #ff8c00; fill-opacity: 0.8"/>
    </g>
    <g clip-path="url(#p2f48bf2bbc)">
     <use xlink:href="#C0_0_8db014efe5" x="57.36979" y="61.875926" style="fill: #ff8c00; fill-opacity: 0.8"/>
    </g>
    <g clip-path="url(#p2f48bf2bbc)">
     <use xlink:href="#C0_0_8db014efe5" x="104.141004" y="78.507295" style="fill: #ff8c00; fill-opacity: 0.8"/>
    </g>
    <g clip-path="url(#p2f48bf2bbc)">
     <use xlink:href="#C0_0_8db014efe5" x="51.269197" y="75.7354" style="fill: #ff8c00; fill-opacity: 0.8"/>
    </g>
    <g clip-path="url(#p2f48bf2bbc)">
     <use xlink:href="#C0_0_8db014efe5" x="91.939818" y="75.7354" style="fill: #ff8c00; fill-opacity: 0.8"/>
    </g>
    <g clip-path="url(#p2f48bf2bbc)">
     <use xlink:href="#C0_0_8db014efe5" x="65.503915" y="78.507295" style="fill: #ff8c00; fill-opacity: 0.8"/>
    </g>
    <g clip-path="url(#p2f48bf2bbc)">
     <use xlink:href="#C0_0_8db014efe5" x="67.537446" y="78.507295" style="fill: #ff8c00; fill-opacity: 0.8"/>
    </g>
    <g clip-path="url(#p2f48bf2bbc)">
     <use xlink:href="#C0_0_8db014efe5" x="79.738632" y="78.507295" style="fill: #ff8c00; fill-opacity: 0.8"/>
    </g>
    <g clip-path="url(#p2f48bf2bbc)">
     <use xlink:href="#C0_0_8db014efe5" x="106.174535" y="78.507295" style="fill: #ff8c00; fill-opacity: 0.8"/>
    </g>
    <g clip-path="url(#p2f48bf2bbc)">
     <use xlink:href="#C0_0_8db014efe5" x="65.503915" y="72.963505" style="fill: #ff8c00; fill-opacity: 0.8"/>
    </g>
    <g clip-path="url(#p2f48bf2bbc)">
     <use xlink:href="#C0_0_8db014efe5" x="47.202135" y="72.963505" style="fill: #ff8c00; fill-opacity: 0.8"/>
    </g>
    <g clip-path="url(#p2f48bf2bbc)">
     <use xlink:href="#C0_0_8db014efe5" x="98.040411" y="67.419715" style="fill: #ff8c00; fill-opacity: 0.8"/>
    </g>
    <g clip-path="url(#p2f48bf2bbc)">
     <use xlink:href="#C0_0_8db014efe5" x="63.470383" y="75.7354" style="fill: #ff8c00; fill-opacity: 0.8"/>
    </g>
    <g clip-path="url(#p2f48bf2bbc)">
     <use xlink:href="#C0_0_8db014efe5" x="45.168604" y="64.647821" style="fill: #ff8c00; fill-opacity: 0.8"/>
    </g>
    <g clip-path="url(#p2f48bf2bbc)">
     <use xlink:href="#C0_0_8db014efe5" x="87.872756" y="75.7354" style="fill: #ff8c00; fill-opacity: 0.8"/>
    </g>
    <g clip-path="url(#p2f48bf2bbc)">
     <use xlink:href="#C0_0_8db014efe5" x="45.168604" y="78.507295" style="fill: #ff8c00; fill-opacity: 0.8"/>
    </g>
    <g clip-path="url(#p2f48bf2bbc)">
     <use xlink:href="#C0_0_8db014efe5" x="43.135073" y="20.297503" style="fill: #ff8c00; fill-opacity: 0.8"/>
    </g>
    <g clip-path="url(#p2f48bf2bbc)">
     <use xlink:href="#C0_0_8db014efe5" x="81.772163" y="75.7354" style="fill: #ff8c00; fill-opacity: 0.8"/>
    </g>
    <g clip-path="url(#p2f48bf2bbc)">
     <use xlink:href="#C0_0_8db014efe5" x="57.36979" y="42.472662" style="fill: #ff8c00; fill-opacity: 0.8"/>
    </g>
    <g clip-path="url(#p2f48bf2bbc)">
     <use xlink:href="#C0_0_8db014efe5" x="55.336259" y="78.507295" style="fill: #ff8c00; fill-opacity: 0.8"/>
    </g>
    <g clip-path="url(#p2f48bf2bbc)">
     <use xlink:href="#C0_0_8db014efe5" x="83.805694" y="78.507295" style="fill: #ff8c00; fill-opacity: 0.8"/>
    </g>
    <g clip-path="url(#p2f48bf2bbc)">
     <use xlink:href="#C0_0_8db014efe5" x="75.67157" y="70.19161" style="fill: #ff8c00; fill-opacity: 0.8"/>
    </g>
    <g clip-path="url(#p2f48bf2bbc)">
     <use xlink:href="#C0_0_8db014efe5" x="61.436852" y="78.507295" style="fill: #ff8c00; fill-opacity: 0.8"/>
    </g>
    <g clip-path="url(#p2f48bf2bbc)">
     <use xlink:href="#C0_0_8db014efe5" x="43.135073" y="72.963505" style="fill: #ff8c00; fill-opacity: 0.8"/>
    </g>
    <g clip-path="url(#p2f48bf2bbc)">
     <use xlink:href="#C0_0_8db014efe5" x="67.537446" y="75.7354" style="fill: #ff8c00; fill-opacity: 0.8"/>
    </g>
    <g clip-path="url(#p2f48bf2bbc)">
     <use xlink:href="#C0_0_8db014efe5" x="96.00688" y="53.560241" style="fill: #ff8c00; fill-opacity: 0.8"/>
    </g>
    <g clip-path="url(#p2f48bf2bbc)">
     <use xlink:href="#C0_0_8db014efe5" x="79.738632" y="78.507295" style="fill: #ff8c00; fill-opacity: 0.8"/>
    </g>
    <g clip-path="url(#p2f48bf2bbc)">
     <use xlink:href="#C0_0_8db014efe5" x="59.403321" y="75.7354" style="fill: #ff8c00; fill-opacity: 0.8"/>
    </g>
    <g clip-path="url(#p2f48bf2bbc)">
     <use xlink:href="#C0_0_8db014efe5" x="116.34219" y="75.7354" style="fill: #ff8c00; fill-opacity: 0.8"/>
    </g>
    <g clip-path="url(#p2f48bf2bbc)">
     <use xlink:href="#C0_0_8db014efe5" x="75.67157" y="72.963505" style="fill: #ff8c00; fill-opacity: 0.8"/>
    </g>
    <g clip-path="url(#p2f48bf2bbc)">
     <use xlink:href="#C0_0_8db014efe5" x="81.772163" y="67.419715" style="fill: #ff8c00; fill-opacity: 0.8"/>
    </g>
    <g clip-path="url(#p2f48bf2bbc)">
     <use xlink:href="#C0_0_8db014efe5" x="81.772163" y="70.19161" style="fill: #ff8c00; fill-opacity: 0.8"/>
    </g>
    <g clip-path="url(#p2f48bf2bbc)">
     <use xlink:href="#C0_0_8db014efe5" x="53.302728" y="9.209924" style="fill: #ff8c00; fill-opacity: 0.8"/>
    </g>
    <g clip-path="url(#p2f48bf2bbc)">
     <use xlink:href="#C0_0_8db014efe5" x="114.308659" y="78.507295" style="fill: #ff8c00; fill-opacity: 0.8"/>
    </g>
    <g clip-path="url(#p2f48bf2bbc)">
     <use xlink:href="#C0_0_8db014efe5" x="73.638039" y="70.19161" style="fill: #ff8c00; fill-opacity: 0.8"/>
    </g>
    <g clip-path="url(#p2f48bf2bbc)">
     <use xlink:href="#C0_0_8db014efe5" x="79.738632" y="75.7354" style="fill: #ff8c00; fill-opacity: 0.8"/>
    </g>
    <g clip-path="url(#p2f48bf2bbc)">
     <use xlink:href="#C0_0_8db014efe5" x="75.67157" y="75.7354" style="fill: #ff8c00; fill-opacity: 0.8"/>
    </g>
    <g clip-path="url(#p2f48bf2bbc)">
     <use xlink:href="#C0_0_8db014efe5" x="98.040411" y="75.7354" style="fill: #ff8c00; fill-opacity: 0.8"/>
    </g>
   </g>
   <g id="PolyCollection_1">
    <path d="M 30.933887 61.726485 
L 30.933887 71.434003 
L 32.084167 71.487555 
L 33.234447 71.529913 
L 34.384727 71.574463 
L 35.535008 71.611689 
L 36.685288 71.65291 
L 37.835568 71.688894 
L 38.985848 71.733243 
L 40.136128 71.771406 
L 41.286409 71.809481 
L 42.436689 71.844462 
L 43.586969 71.885344 
L 44.737249 71.931387 
L 45.887529 71.97599 
L 47.037809 72.017551 
L 48.18809 72.061909 
L 49.33837 72.107972 
L 50.48865 72.147114 
L 51.63893 72.195185 
L 52.78921 72.234586 
L 53.939491 72.283258 
L 55.089771 72.337166 
L 56.240051 72.390732 
L 57.390331 72.442437 
L 58.540611 72.498255 
L 59.690891 72.550628 
L 60.841172 72.610093 
L 61.991452 72.656799 
L 63.141732 72.720736 
L 64.292012 72.799713 
L 65.442292 72.8539 
L 66.592573 72.910623 
L 67.742853 72.977932 
L 68.893133 73.052308 
L 70.043413 73.136926 
L 71.193693 73.219426 
L 72.343973 73.295895 
L 73.494254 73.387552 
L 74.644534 73.460617 
L 75.794814 73.55027 
L 76.945094 73.643479 
L 78.095374 73.746028 
L 79.245655 73.851613 
L 80.395935 73.954114 
L 81.546215 74.065849 
L 82.696495 74.168025 
L 83.846775 74.288451 
L 84.997055 74.410996 
L 86.147336 74.543479 
L 87.297616 74.687978 
L 88.447896 74.848656 
L 89.598176 75.006906 
L 90.748456 75.17544 
L 91.898737 75.336608 
L 93.049017 75.508911 
L 94.199297 75.687916 
L 95.349577 75.869482 
L 96.499857 76.048561 
L 97.650137 76.242459 
L 98.800418 76.438296 
L 99.950698 76.62914 
L 101.100978 76.822355 
L 102.251258 77.037836 
L 103.401538 77.243859 
L 104.551819 77.45579 
L 105.702099 77.686534 
L 106.852379 77.897995 
L 108.002659 78.118014 
L 109.152939 78.341161 
L 110.303219 78.55244 
L 111.4535 78.78863 
L 112.60378 78.989937 
L 113.75406 79.214354 
L 114.90434 79.427075 
L 116.05462 79.669506 
L 117.204901 79.898278 
L 118.355181 80.134453 
L 119.505461 80.363017 
L 120.655741 80.599316 
L 121.806021 80.826218 
L 122.956301 81.05083 
L 124.106582 81.277424 
L 125.256862 81.511502 
L 126.407142 81.738574 
L 127.557422 81.965522 
L 128.707702 82.190422 
L 129.857983 82.421822 
L 131.008263 82.647011 
L 132.158543 82.880965 
L 133.308823 83.105746 
L 134.459103 83.328764 
L 135.609383 83.551668 
L 136.759664 83.779372 
L 137.909944 84.001163 
L 139.060224 84.231552 
L 140.210504 84.466579 
L 141.360784 84.703227 
L 142.511065 84.940554 
L 143.661345 85.180402 
L 144.811625 85.408403 
L 144.811625 74.44965 
L 144.811625 74.44965 
L 143.661345 74.425483 
L 142.511065 74.390305 
L 141.360784 74.355182 
L 140.210504 74.309718 
L 139.060224 74.266119 
L 137.909944 74.226267 
L 136.759664 74.178697 
L 135.609383 74.134081 
L 134.459103 74.087402 
L 133.308823 74.037253 
L 132.158543 73.991781 
L 131.008263 73.945233 
L 129.857983 73.887437 
L 128.707702 73.831581 
L 127.557422 73.799893 
L 126.407142 73.76463 
L 125.256862 73.725718 
L 124.106582 73.675713 
L 122.956301 73.622897 
L 121.806021 73.582999 
L 120.655741 73.5354 
L 119.505461 73.485198 
L 118.355181 73.454116 
L 117.204901 73.410323 
L 116.05462 73.363629 
L 114.90434 73.312814 
L 113.75406 73.264144 
L 112.60378 73.220604 
L 111.4535 73.173954 
L 110.303219 73.127956 
L 109.152939 73.080975 
L 108.002659 73.037832 
L 106.852379 72.989822 
L 105.702099 72.930151 
L 104.551819 72.875378 
L 103.401538 72.819107 
L 102.251258 72.757302 
L 101.100978 72.694701 
L 99.950698 72.634158 
L 98.800418 72.580143 
L 97.650137 72.512324 
L 96.499857 72.44196 
L 95.349577 72.363736 
L 94.199297 72.286311 
L 93.049017 72.209692 
L 91.898737 72.115369 
L 90.748456 72.028352 
L 89.598176 71.917546 
L 88.447896 71.816053 
L 87.297616 71.715014 
L 86.147336 71.597911 
L 84.997055 71.481402 
L 83.846775 71.357808 
L 82.696495 71.226491 
L 81.546215 71.071491 
L 80.395935 70.918021 
L 79.245655 70.75267 
L 78.095374 70.584102 
L 76.945094 70.408168 
L 75.794814 70.239479 
L 74.644534 70.062832 
L 73.494254 69.874799 
L 72.343973 69.694942 
L 71.193693 69.498966 
L 70.043413 69.306156 
L 68.893133 69.103054 
L 67.742853 68.890157 
L 66.592573 68.692628 
L 65.442292 68.467101 
L 64.292012 68.250584 
L 63.141732 68.042404 
L 61.991452 67.824608 
L 60.841172 67.593951 
L 59.690891 67.384757 
L 58.540611 67.177754 
L 57.390331 66.955323 
L 56.240051 66.732101 
L 55.089771 66.513179 
L 53.939491 66.283259 
L 52.78921 66.06567 
L 51.63893 65.838045 
L 50.48865 65.617779 
L 49.33837 65.395826 
L 48.18809 65.167225 
L 47.037809 64.949274 
L 45.887529 64.716218 
L 44.737249 64.502411 
L 43.586969 64.260708 
L 42.436689 64.042795 
L 41.286409 63.808861 
L 40.136128 63.578397 
L 38.985848 63.337622 
L 37.835568 63.102235 
L 36.685288 62.874396 
L 35.535008 62.639309 
L 34.384727 62.412518 
L 33.234447 62.184497 
L 32.084167 61.956043 
L 30.933887 61.726485 
z
" clip-path="url(#p2f48bf2bbc)" style="fill: #ff8c00; fill-opacity: 0.15"/>
   </g>
   <g id="matplotlib.axis_1">
    <g id="xtick_1">
     <g id="line2d_1">
      <defs>
       <path id="mcc1dc1c852" d="M 0 0 
L 0 3.5 
" style="stroke: #000000; stroke-width: 0.25"/>
      </defs>
      <g>
       <use xlink:href="#mcc1dc1c852" x="43.135073" y="89.218327" style="stroke: #000000; stroke-width: 0.25"/>
      </g>
     </g>
     <g id="text_1">
      <!-- 30 -->
      <g transform="translate(40.354604 97.297233) scale(0.05 -0.05)">
       <defs>
        <path id="ArialMT-33" d="M 269 1209 
L 831 1284 
Q 928 806 1161 595 
Q 1394 384 1728 384 
Q 2125 384 2398 659 
Q 2672 934 2672 1341 
Q 2672 1728 2419 1979 
Q 2166 2231 1775 2231 
Q 1616 2231 1378 2169 
L 1441 2663 
Q 1497 2656 1531 2656 
Q 1891 2656 2178 2843 
Q 2466 3031 2466 3422 
Q 2466 3731 2256 3934 
Q 2047 4138 1716 4138 
Q 1388 4138 1169 3931 
Q 950 3725 888 3313 
L 325 3413 
Q 428 3978 793 4289 
Q 1159 4600 1703 4600 
Q 2078 4600 2393 4439 
Q 2709 4278 2876 4000 
Q 3044 3722 3044 3409 
Q 3044 3113 2884 2869 
Q 2725 2625 2413 2481 
Q 2819 2388 3044 2092 
Q 3269 1797 3269 1353 
Q 3269 753 2831 336 
Q 2394 -81 1725 -81 
Q 1122 -81 723 278 
Q 325 638 269 1209 
z
" transform="scale(0.015625)"/>
        <path id="ArialMT-30" d="M 266 2259 
Q 266 3072 433 3567 
Q 600 4063 929 4331 
Q 1259 4600 1759 4600 
Q 2128 4600 2406 4451 
Q 2684 4303 2865 4023 
Q 3047 3744 3150 3342 
Q 3253 2941 3253 2259 
Q 3253 1453 3087 958 
Q 2922 463 2592 192 
Q 2263 -78 1759 -78 
Q 1097 -78 719 397 
Q 266 969 266 2259 
z
M 844 2259 
Q 844 1131 1108 757 
Q 1372 384 1759 384 
Q 2147 384 2411 759 
Q 2675 1134 2675 2259 
Q 2675 3391 2411 3762 
Q 2147 4134 1753 4134 
Q 1366 4134 1134 3806 
Q 844 3388 844 2259 
z
" transform="scale(0.015625)"/>
       </defs>
       <use xlink:href="#ArialMT-33"/>
       <use xlink:href="#ArialMT-30" x="55.615234"/>
      </g>
     </g>
    </g>
    <g id="xtick_2">
     <g id="line2d_2">
      <g>
       <use xlink:href="#mcc1dc1c852" x="63.470383" y="89.218327" style="stroke: #000000; stroke-width: 0.25"/>
      </g>
     </g>
     <g id="text_2">
      <!-- 40 -->
      <g transform="translate(60.689915 97.297233) scale(0.05 -0.05)">
       <defs>
        <path id="ArialMT-34" d="M 2069 0 
L 2069 1097 
L 81 1097 
L 81 1613 
L 2172 4581 
L 2631 4581 
L 2631 1613 
L 3250 1613 
L 3250 1097 
L 2631 1097 
L 2631 0 
L 2069 0 
z
M 2069 1613 
L 2069 3678 
L 634 1613 
L 2069 1613 
z
" transform="scale(0.015625)"/>
       </defs>
       <use xlink:href="#ArialMT-34"/>
       <use xlink:href="#ArialMT-30" x="55.615234"/>
      </g>
     </g>
    </g>
    <g id="xtick_3">
     <g id="line2d_3">
      <g>
       <use xlink:href="#mcc1dc1c852" x="83.805694" y="89.218327" style="stroke: #000000; stroke-width: 0.25"/>
      </g>
     </g>
     <g id="text_3">
      <!-- 50 -->
      <g transform="translate(81.025225 97.297233) scale(0.05 -0.05)">
       <defs>
        <path id="ArialMT-35" d="M 266 1200 
L 856 1250 
Q 922 819 1161 601 
Q 1400 384 1738 384 
Q 2144 384 2425 690 
Q 2706 997 2706 1503 
Q 2706 1984 2436 2262 
Q 2166 2541 1728 2541 
Q 1456 2541 1237 2417 
Q 1019 2294 894 2097 
L 366 2166 
L 809 4519 
L 3088 4519 
L 3088 3981 
L 1259 3981 
L 1013 2750 
Q 1425 3038 1878 3038 
Q 2478 3038 2890 2622 
Q 3303 2206 3303 1553 
Q 3303 931 2941 478 
Q 2500 -78 1738 -78 
Q 1113 -78 717 272 
Q 322 622 266 1200 
z
" transform="scale(0.015625)"/>
       </defs>
       <use xlink:href="#ArialMT-35"/>
       <use xlink:href="#ArialMT-30" x="55.615234"/>
      </g>
     </g>
    </g>
    <g id="xtick_4">
     <g id="line2d_4">
      <g>
       <use xlink:href="#mcc1dc1c852" x="104.141004" y="89.218327" style="stroke: #000000; stroke-width: 0.25"/>
      </g>
     </g>
     <g id="text_4">
      <!-- 60 -->
      <g transform="translate(101.360535 97.297233) scale(0.05 -0.05)">
       <defs>
        <path id="ArialMT-36" d="M 3184 3459 
L 2625 3416 
Q 2550 3747 2413 3897 
Q 2184 4138 1850 4138 
Q 1581 4138 1378 3988 
Q 1113 3794 959 3422 
Q 806 3050 800 2363 
Q 1003 2672 1297 2822 
Q 1591 2972 1913 2972 
Q 2475 2972 2870 2558 
Q 3266 2144 3266 1488 
Q 3266 1056 3080 686 
Q 2894 316 2569 119 
Q 2244 -78 1831 -78 
Q 1128 -78 684 439 
Q 241 956 241 2144 
Q 241 3472 731 4075 
Q 1159 4600 1884 4600 
Q 2425 4600 2770 4297 
Q 3116 3994 3184 3459 
z
M 888 1484 
Q 888 1194 1011 928 
Q 1134 663 1356 523 
Q 1578 384 1822 384 
Q 2178 384 2434 671 
Q 2691 959 2691 1453 
Q 2691 1928 2437 2201 
Q 2184 2475 1800 2475 
Q 1419 2475 1153 2201 
Q 888 1928 888 1484 
z
" transform="scale(0.015625)"/>
       </defs>
       <use xlink:href="#ArialMT-36"/>
       <use xlink:href="#ArialMT-30" x="55.615234"/>
      </g>
     </g>
    </g>
    <g id="xtick_5">
     <g id="line2d_5">
      <g>
       <use xlink:href="#mcc1dc1c852" x="124.476315" y="89.218327" style="stroke: #000000; stroke-width: 0.25"/>
      </g>
     </g>
     <g id="text_5">
      <!-- 70 -->
      <g transform="translate(121.695846 97.297233) scale(0.05 -0.05)">
       <defs>
        <path id="ArialMT-37" d="M 303 3981 
L 303 4522 
L 3269 4522 
L 3269 4084 
Q 2831 3619 2401 2847 
Q 1972 2075 1738 1259 
Q 1569 684 1522 0 
L 944 0 
Q 953 541 1156 1306 
Q 1359 2072 1739 2783 
Q 2119 3494 2547 3981 
L 303 3981 
z
" transform="scale(0.015625)"/>
       </defs>
       <use xlink:href="#ArialMT-37"/>
       <use xlink:href="#ArialMT-30" x="55.615234"/>
      </g>
     </g>
    </g>
    <g id="xtick_6">
     <g id="line2d_6">
      <g>
       <use xlink:href="#mcc1dc1c852" x="144.811625" y="89.218327" style="stroke: #000000; stroke-width: 0.25"/>
      </g>
     </g>
     <g id="text_6">
      <!-- 80 -->
      <g transform="translate(142.031156 97.297233) scale(0.05 -0.05)">
       <defs>
        <path id="ArialMT-38" d="M 1131 2484 
Q 781 2613 612 2850 
Q 444 3088 444 3419 
Q 444 3919 803 4259 
Q 1163 4600 1759 4600 
Q 2359 4600 2725 4251 
Q 3091 3903 3091 3403 
Q 3091 3084 2923 2848 
Q 2756 2613 2416 2484 
Q 2838 2347 3058 2040 
Q 3278 1734 3278 1309 
Q 3278 722 2862 322 
Q 2447 -78 1769 -78 
Q 1091 -78 675 323 
Q 259 725 259 1325 
Q 259 1772 486 2073 
Q 713 2375 1131 2484 
z
M 1019 3438 
Q 1019 3113 1228 2906 
Q 1438 2700 1772 2700 
Q 2097 2700 2305 2904 
Q 2513 3109 2513 3406 
Q 2513 3716 2298 3927 
Q 2084 4138 1766 4138 
Q 1444 4138 1231 3931 
Q 1019 3725 1019 3438 
z
M 838 1322 
Q 838 1081 952 856 
Q 1066 631 1291 507 
Q 1516 384 1775 384 
Q 2178 384 2440 643 
Q 2703 903 2703 1303 
Q 2703 1709 2433 1975 
Q 2163 2241 1756 2241 
Q 1359 2241 1098 1978 
Q 838 1716 838 1322 
z
" transform="scale(0.015625)"/>
       </defs>
       <use xlink:href="#ArialMT-38"/>
       <use xlink:href="#ArialMT-30" x="55.615234"/>
      </g>
     </g>
    </g>
    <g id="text_7">
     <!-- NIH cognition score -->
     <g transform="translate(61.695881 106.585671) scale(0.06 -0.06)">
      <defs>
       <path id="ArialMT-4e" d="M 488 0 
L 488 4581 
L 1109 4581 
L 3516 984 
L 3516 4581 
L 4097 4581 
L 4097 0 
L 3475 0 
L 1069 3600 
L 1069 0 
L 488 0 
z
" transform="scale(0.015625)"/>
       <path id="ArialMT-49" d="M 597 0 
L 597 4581 
L 1203 4581 
L 1203 0 
L 597 0 
z
" transform="scale(0.015625)"/>
       <path id="ArialMT-48" d="M 513 0 
L 513 4581 
L 1119 4581 
L 1119 2700 
L 3500 2700 
L 3500 4581 
L 4106 4581 
L 4106 0 
L 3500 0 
L 3500 2159 
L 1119 2159 
L 1119 0 
L 513 0 
z
" transform="scale(0.015625)"/>
       <path id="ArialMT-20" transform="scale(0.015625)"/>
       <path id="ArialMT-63" d="M 2588 1216 
L 3141 1144 
Q 3050 572 2676 248 
Q 2303 -75 1759 -75 
Q 1078 -75 664 370 
Q 250 816 250 1647 
Q 250 2184 428 2587 
Q 606 2991 970 3192 
Q 1334 3394 1763 3394 
Q 2303 3394 2647 3120 
Q 2991 2847 3088 2344 
L 2541 2259 
Q 2463 2594 2264 2762 
Q 2066 2931 1784 2931 
Q 1359 2931 1093 2626 
Q 828 2322 828 1663 
Q 828 994 1084 691 
Q 1341 388 1753 388 
Q 2084 388 2306 591 
Q 2528 794 2588 1216 
z
" transform="scale(0.015625)"/>
       <path id="ArialMT-6f" d="M 213 1659 
Q 213 2581 725 3025 
Q 1153 3394 1769 3394 
Q 2453 3394 2887 2945 
Q 3322 2497 3322 1706 
Q 3322 1066 3130 698 
Q 2938 331 2570 128 
Q 2203 -75 1769 -75 
Q 1072 -75 642 372 
Q 213 819 213 1659 
z
M 791 1659 
Q 791 1022 1069 705 
Q 1347 388 1769 388 
Q 2188 388 2466 706 
Q 2744 1025 2744 1678 
Q 2744 2294 2464 2611 
Q 2184 2928 1769 2928 
Q 1347 2928 1069 2612 
Q 791 2297 791 1659 
z
" transform="scale(0.015625)"/>
       <path id="ArialMT-67" d="M 319 -275 
L 866 -356 
Q 900 -609 1056 -725 
Q 1266 -881 1628 -881 
Q 2019 -881 2231 -725 
Q 2444 -569 2519 -288 
Q 2563 -116 2559 434 
Q 2191 0 1641 0 
Q 956 0 581 494 
Q 206 988 206 1678 
Q 206 2153 378 2554 
Q 550 2956 876 3175 
Q 1203 3394 1644 3394 
Q 2231 3394 2613 2919 
L 2613 3319 
L 3131 3319 
L 3131 450 
Q 3131 -325 2973 -648 
Q 2816 -972 2473 -1159 
Q 2131 -1347 1631 -1347 
Q 1038 -1347 672 -1080 
Q 306 -813 319 -275 
z
M 784 1719 
Q 784 1066 1043 766 
Q 1303 466 1694 466 
Q 2081 466 2343 764 
Q 2606 1063 2606 1700 
Q 2606 2309 2336 2618 
Q 2066 2928 1684 2928 
Q 1309 2928 1046 2623 
Q 784 2319 784 1719 
z
" transform="scale(0.015625)"/>
       <path id="ArialMT-6e" d="M 422 0 
L 422 3319 
L 928 3319 
L 928 2847 
Q 1294 3394 1984 3394 
Q 2284 3394 2536 3286 
Q 2788 3178 2913 3003 
Q 3038 2828 3088 2588 
Q 3119 2431 3119 2041 
L 3119 0 
L 2556 0 
L 2556 2019 
Q 2556 2363 2490 2533 
Q 2425 2703 2258 2804 
Q 2091 2906 1866 2906 
Q 1506 2906 1245 2678 
Q 984 2450 984 1813 
L 984 0 
L 422 0 
z
" transform="scale(0.015625)"/>
       <path id="ArialMT-69" d="M 425 3934 
L 425 4581 
L 988 4581 
L 988 3934 
L 425 3934 
z
M 425 0 
L 425 3319 
L 988 3319 
L 988 0 
L 425 0 
z
" transform="scale(0.015625)"/>
       <path id="ArialMT-74" d="M 1650 503 
L 1731 6 
Q 1494 -44 1306 -44 
Q 1000 -44 831 53 
Q 663 150 594 308 
Q 525 466 525 972 
L 525 2881 
L 113 2881 
L 113 3319 
L 525 3319 
L 525 4141 
L 1084 4478 
L 1084 3319 
L 1650 3319 
L 1650 2881 
L 1084 2881 
L 1084 941 
Q 1084 700 1114 631 
Q 1144 563 1211 522 
Q 1278 481 1403 481 
Q 1497 481 1650 503 
z
" transform="scale(0.015625)"/>
       <path id="ArialMT-73" d="M 197 991 
L 753 1078 
Q 800 744 1014 566 
Q 1228 388 1613 388 
Q 2000 388 2187 545 
Q 2375 703 2375 916 
Q 2375 1106 2209 1216 
Q 2094 1291 1634 1406 
Q 1016 1563 777 1677 
Q 538 1791 414 1992 
Q 291 2194 291 2438 
Q 291 2659 392 2848 
Q 494 3038 669 3163 
Q 800 3259 1026 3326 
Q 1253 3394 1513 3394 
Q 1903 3394 2198 3281 
Q 2494 3169 2634 2976 
Q 2775 2784 2828 2463 
L 2278 2388 
Q 2241 2644 2061 2787 
Q 1881 2931 1553 2931 
Q 1166 2931 1000 2803 
Q 834 2675 834 2503 
Q 834 2394 903 2306 
Q 972 2216 1119 2156 
Q 1203 2125 1616 2013 
Q 2213 1853 2448 1751 
Q 2684 1650 2818 1456 
Q 2953 1263 2953 975 
Q 2953 694 2789 445 
Q 2625 197 2315 61 
Q 2006 -75 1616 -75 
Q 969 -75 630 194 
Q 291 463 197 991 
z
" transform="scale(0.015625)"/>
       <path id="ArialMT-72" d="M 416 0 
L 416 3319 
L 922 3319 
L 922 2816 
Q 1116 3169 1280 3281 
Q 1444 3394 1641 3394 
Q 1925 3394 2219 3213 
L 2025 2691 
Q 1819 2813 1613 2813 
Q 1428 2813 1281 2702 
Q 1134 2591 1072 2394 
Q 978 2094 978 1738 
L 978 0 
L 416 0 
z
" transform="scale(0.015625)"/>
       <path id="ArialMT-65" d="M 2694 1069 
L 3275 997 
Q 3138 488 2766 206 
Q 2394 -75 1816 -75 
Q 1088 -75 661 373 
Q 234 822 234 1631 
Q 234 2469 665 2931 
Q 1097 3394 1784 3394 
Q 2450 3394 2872 2941 
Q 3294 2488 3294 1666 
Q 3294 1616 3291 1516 
L 816 1516 
Q 847 969 1125 678 
Q 1403 388 1819 388 
Q 2128 388 2347 550 
Q 2566 713 2694 1069 
z
M 847 1978 
L 2700 1978 
Q 2663 2397 2488 2606 
Q 2219 2931 1791 2931 
Q 1403 2931 1139 2672 
Q 875 2413 847 1978 
z
" transform="scale(0.015625)"/>
      </defs>
      <use xlink:href="#ArialMT-4e"/>
      <use xlink:href="#ArialMT-49" x="72.216797"/>
      <use xlink:href="#ArialMT-48" x="100"/>
      <use xlink:href="#ArialMT-20" x="172.216797"/>
      <use xlink:href="#ArialMT-63" x="200"/>
      <use xlink:href="#ArialMT-6f" x="250"/>
      <use xlink:href="#ArialMT-67" x="305.615234"/>
      <use xlink:href="#ArialMT-6e" x="361.230469"/>
      <use xlink:href="#ArialMT-69" x="416.845703"/>
      <use xlink:href="#ArialMT-74" x="439.0625"/>
      <use xlink:href="#ArialMT-69" x="466.845703"/>
      <use xlink:href="#ArialMT-6f" x="489.0625"/>
      <use xlink:href="#ArialMT-6e" x="544.677734"/>
      <use xlink:href="#ArialMT-20" x="600.292969"/>
      <use xlink:href="#ArialMT-73" x="628.076172"/>
      <use xlink:href="#ArialMT-63" x="678.076172"/>
      <use xlink:href="#ArialMT-6f" x="728.076172"/>
      <use xlink:href="#ArialMT-72" x="783.691406"/>
      <use xlink:href="#ArialMT-65" x="816.992188"/>
     </g>
    </g>
   </g>
   <g id="matplotlib.axis_2">
    <g id="ytick_1">
     <g id="line2d_7">
      <defs>
       <path id="m328e1005cd" d="M 0 0 
L -3.5 0 
" style="stroke: #000000; stroke-width: 0.25"/>
      </defs>
      <g>
       <use xlink:href="#m328e1005cd" x="25.24" y="78.507295" style="stroke: #000000; stroke-width: 0.25"/>
      </g>
     </g>
     <g id="text_8">
      <!-- 0 -->
      <g transform="translate(17.959531 80.296748) scale(0.05 -0.05)">
       <use xlink:href="#ArialMT-30"/>
      </g>
     </g>
    </g>
    <g id="ytick_2">
     <g id="line2d_8">
      <g>
       <use xlink:href="#m328e1005cd" x="25.24" y="64.647821" style="stroke: #000000; stroke-width: 0.25"/>
      </g>
     </g>
     <g id="text_9">
      <!-- 5 -->
      <g transform="translate(17.959531 66.437274) scale(0.05 -0.05)">
       <use xlink:href="#ArialMT-35"/>
      </g>
     </g>
    </g>
    <g id="ytick_3">
     <g id="line2d_9">
      <g>
       <use xlink:href="#m328e1005cd" x="25.24" y="50.788346" style="stroke: #000000; stroke-width: 0.25"/>
      </g>
     </g>
     <g id="text_10">
      <!-- 10 -->
      <g transform="translate(15.179063 52.5778) scale(0.05 -0.05)">
       <defs>
        <path id="ArialMT-31" d="M 2384 0 
L 1822 0 
L 1822 3584 
Q 1619 3391 1289 3197 
Q 959 3003 697 2906 
L 697 3450 
Q 1169 3672 1522 3987 
Q 1875 4303 2022 4600 
L 2384 4600 
L 2384 0 
z
" transform="scale(0.015625)"/>
       </defs>
       <use xlink:href="#ArialMT-31"/>
       <use xlink:href="#ArialMT-30" x="55.615234"/>
      </g>
     </g>
    </g>
    <g id="ytick_4">
     <g id="line2d_10">
      <g>
       <use xlink:href="#m328e1005cd" x="25.24" y="36.928872" style="stroke: #000000; stroke-width: 0.25"/>
      </g>
     </g>
     <g id="text_11">
      <!-- 15 -->
      <g transform="translate(15.179063 38.718325) scale(0.05 -0.05)">
       <use xlink:href="#ArialMT-31"/>
       <use xlink:href="#ArialMT-35" x="55.615234"/>
      </g>
     </g>
    </g>
    <g id="ytick_5">
     <g id="line2d_11">
      <g>
       <use xlink:href="#m328e1005cd" x="25.24" y="23.069398" style="stroke: #000000; stroke-width: 0.25"/>
      </g>
     </g>
     <g id="text_12">
      <!-- 20 -->
      <g transform="translate(15.179063 24.858851) scale(0.05 -0.05)">
       <defs>
        <path id="ArialMT-32" d="M 3222 541 
L 3222 0 
L 194 0 
Q 188 203 259 391 
Q 375 700 629 1000 
Q 884 1300 1366 1694 
Q 2113 2306 2375 2664 
Q 2638 3022 2638 3341 
Q 2638 3675 2398 3904 
Q 2159 4134 1775 4134 
Q 1369 4134 1125 3890 
Q 881 3647 878 3216 
L 300 3275 
Q 359 3922 746 4261 
Q 1134 4600 1788 4600 
Q 2447 4600 2831 4234 
Q 3216 3869 3216 3328 
Q 3216 3053 3103 2787 
Q 2991 2522 2730 2228 
Q 2469 1934 1863 1422 
Q 1356 997 1212 845 
Q 1069 694 975 541 
L 3222 541 
z
" transform="scale(0.015625)"/>
       </defs>
       <use xlink:href="#ArialMT-32"/>
       <use xlink:href="#ArialMT-30" x="55.615234"/>
      </g>
     </g>
    </g>
    <g id="ytick_6">
     <g id="line2d_12">
      <g>
       <use xlink:href="#m328e1005cd" x="25.24" y="9.209924" style="stroke: #000000; stroke-width: 0.25"/>
      </g>
     </g>
     <g id="text_13">
      <!-- 25 -->
      <g transform="translate(15.179063 10.999377) scale(0.05 -0.05)">
       <use xlink:href="#ArialMT-32"/>
       <use xlink:href="#ArialMT-35" x="55.615234"/>
      </g>
     </g>
    </g>
    <g id="text_14">
     <!-- Number infranormal deviations -->
     <g transform="translate(9.986563 88.157913) rotate(-90) scale(0.06 -0.06)">
      <defs>
       <path id="ArialMT-75" d="M 2597 0 
L 2597 488 
Q 2209 -75 1544 -75 
Q 1250 -75 995 37 
Q 741 150 617 320 
Q 494 491 444 738 
Q 409 903 409 1263 
L 409 3319 
L 972 3319 
L 972 1478 
Q 972 1038 1006 884 
Q 1059 663 1231 536 
Q 1403 409 1656 409 
Q 1909 409 2131 539 
Q 2353 669 2445 892 
Q 2538 1116 2538 1541 
L 2538 3319 
L 3100 3319 
L 3100 0 
L 2597 0 
z
" transform="scale(0.015625)"/>
       <path id="ArialMT-6d" d="M 422 0 
L 422 3319 
L 925 3319 
L 925 2853 
Q 1081 3097 1340 3245 
Q 1600 3394 1931 3394 
Q 2300 3394 2536 3241 
Q 2772 3088 2869 2813 
Q 3263 3394 3894 3394 
Q 4388 3394 4653 3120 
Q 4919 2847 4919 2278 
L 4919 0 
L 4359 0 
L 4359 2091 
Q 4359 2428 4304 2576 
Q 4250 2725 4106 2815 
Q 3963 2906 3769 2906 
Q 3419 2906 3187 2673 
Q 2956 2441 2956 1928 
L 2956 0 
L 2394 0 
L 2394 2156 
Q 2394 2531 2256 2718 
Q 2119 2906 1806 2906 
Q 1569 2906 1367 2781 
Q 1166 2656 1075 2415 
Q 984 2175 984 1722 
L 984 0 
L 422 0 
z
" transform="scale(0.015625)"/>
       <path id="ArialMT-62" d="M 941 0 
L 419 0 
L 419 4581 
L 981 4581 
L 981 2947 
Q 1338 3394 1891 3394 
Q 2197 3394 2470 3270 
Q 2744 3147 2920 2923 
Q 3097 2700 3197 2384 
Q 3297 2069 3297 1709 
Q 3297 856 2875 390 
Q 2453 -75 1863 -75 
Q 1275 -75 941 416 
L 941 0 
z
M 934 1684 
Q 934 1088 1097 822 
Q 1363 388 1816 388 
Q 2184 388 2453 708 
Q 2722 1028 2722 1663 
Q 2722 2313 2464 2622 
Q 2206 2931 1841 2931 
Q 1472 2931 1203 2611 
Q 934 2291 934 1684 
z
" transform="scale(0.015625)"/>
       <path id="ArialMT-66" d="M 556 0 
L 556 2881 
L 59 2881 
L 59 3319 
L 556 3319 
L 556 3672 
Q 556 4006 616 4169 
Q 697 4388 901 4523 
Q 1106 4659 1475 4659 
Q 1713 4659 2000 4603 
L 1916 4113 
Q 1741 4144 1584 4144 
Q 1328 4144 1222 4034 
Q 1116 3925 1116 3625 
L 1116 3319 
L 1763 3319 
L 1763 2881 
L 1116 2881 
L 1116 0 
L 556 0 
z
" transform="scale(0.015625)"/>
       <path id="ArialMT-61" d="M 2588 409 
Q 2275 144 1986 34 
Q 1697 -75 1366 -75 
Q 819 -75 525 192 
Q 231 459 231 875 
Q 231 1119 342 1320 
Q 453 1522 633 1644 
Q 813 1766 1038 1828 
Q 1203 1872 1538 1913 
Q 2219 1994 2541 2106 
Q 2544 2222 2544 2253 
Q 2544 2597 2384 2738 
Q 2169 2928 1744 2928 
Q 1347 2928 1158 2789 
Q 969 2650 878 2297 
L 328 2372 
Q 403 2725 575 2942 
Q 747 3159 1072 3276 
Q 1397 3394 1825 3394 
Q 2250 3394 2515 3294 
Q 2781 3194 2906 3042 
Q 3031 2891 3081 2659 
Q 3109 2516 3109 2141 
L 3109 1391 
Q 3109 606 3145 398 
Q 3181 191 3288 0 
L 2700 0 
Q 2613 175 2588 409 
z
M 2541 1666 
Q 2234 1541 1622 1453 
Q 1275 1403 1131 1340 
Q 988 1278 909 1158 
Q 831 1038 831 891 
Q 831 666 1001 516 
Q 1172 366 1500 366 
Q 1825 366 2078 508 
Q 2331 650 2450 897 
Q 2541 1088 2541 1459 
L 2541 1666 
z
" transform="scale(0.015625)"/>
       <path id="ArialMT-6c" d="M 409 0 
L 409 4581 
L 972 4581 
L 972 0 
L 409 0 
z
" transform="scale(0.015625)"/>
       <path id="ArialMT-64" d="M 2575 0 
L 2575 419 
Q 2259 -75 1647 -75 
Q 1250 -75 917 144 
Q 584 363 401 755 
Q 219 1147 219 1656 
Q 219 2153 384 2558 
Q 550 2963 881 3178 
Q 1213 3394 1622 3394 
Q 1922 3394 2156 3267 
Q 2391 3141 2538 2938 
L 2538 4581 
L 3097 4581 
L 3097 0 
L 2575 0 
z
M 797 1656 
Q 797 1019 1065 703 
Q 1334 388 1700 388 
Q 2069 388 2326 689 
Q 2584 991 2584 1609 
Q 2584 2291 2321 2609 
Q 2059 2928 1675 2928 
Q 1300 2928 1048 2622 
Q 797 2316 797 1656 
z
" transform="scale(0.015625)"/>
       <path id="ArialMT-76" d="M 1344 0 
L 81 3319 
L 675 3319 
L 1388 1331 
Q 1503 1009 1600 663 
Q 1675 925 1809 1294 
L 2547 3319 
L 3125 3319 
L 1869 0 
L 1344 0 
z
" transform="scale(0.015625)"/>
      </defs>
      <use xlink:href="#ArialMT-4e"/>
      <use xlink:href="#ArialMT-75" x="72.216797"/>
      <use xlink:href="#ArialMT-6d" x="127.832031"/>
      <use xlink:href="#ArialMT-62" x="211.132812"/>
      <use xlink:href="#ArialMT-65" x="266.748047"/>
      <use xlink:href="#ArialMT-72" x="322.363281"/>
      <use xlink:href="#ArialMT-20" x="355.664062"/>
      <use xlink:href="#ArialMT-69" x="383.447266"/>
      <use xlink:href="#ArialMT-6e" x="405.664062"/>
      <use xlink:href="#ArialMT-66" x="461.279297"/>
      <use xlink:href="#ArialMT-72" x="489.0625"/>
      <use xlink:href="#ArialMT-61" x="522.363281"/>
      <use xlink:href="#ArialMT-6e" x="577.978516"/>
      <use xlink:href="#ArialMT-6f" x="633.59375"/>
      <use xlink:href="#ArialMT-72" x="689.208984"/>
      <use xlink:href="#ArialMT-6d" x="722.509766"/>
      <use xlink:href="#ArialMT-61" x="805.810547"/>
      <use xlink:href="#ArialMT-6c" x="861.425781"/>
      <use xlink:href="#ArialMT-20" x="883.642578"/>
      <use xlink:href="#ArialMT-64" x="911.425781"/>
      <use xlink:href="#ArialMT-65" x="967.041016"/>
      <use xlink:href="#ArialMT-76" x="1022.65625"/>
      <use xlink:href="#ArialMT-69" x="1072.65625"/>
      <use xlink:href="#ArialMT-61" x="1094.873047"/>
      <use xlink:href="#ArialMT-74" x="1150.488281"/>
      <use xlink:href="#ArialMT-69" x="1178.271484"/>
      <use xlink:href="#ArialMT-6f" x="1200.488281"/>
      <use xlink:href="#ArialMT-6e" x="1256.103516"/>
      <use xlink:href="#ArialMT-73" x="1311.71875"/>
     </g>
    </g>
   </g>
   <g id="line2d_13">
    <path d="M 30.933887 66.95397 
L 32.084167 67.08239 
L 33.234447 67.21081 
L 34.384727 67.339229 
L 35.535008 67.467649 
L 36.685288 67.596069 
L 37.835568 67.724489 
L 38.985848 67.852909 
L 40.136128 67.981328 
L 41.286409 68.109748 
L 42.436689 68.238168 
L 43.586969 68.366588 
L 44.737249 68.495008 
L 45.887529 68.623427 
L 47.037809 68.751847 
L 48.18809 68.880267 
L 49.33837 69.008687 
L 50.48865 69.137107 
L 51.63893 69.265526 
L 52.78921 69.393946 
L 53.939491 69.522366 
L 55.089771 69.650786 
L 56.240051 69.779206 
L 57.390331 69.907625 
L 58.540611 70.036045 
L 59.690891 70.164465 
L 60.841172 70.292885 
L 61.991452 70.421305 
L 63.141732 70.549724 
L 64.292012 70.678144 
L 65.442292 70.806564 
L 66.592573 70.934984 
L 67.742853 71.063404 
L 68.893133 71.191823 
L 70.043413 71.320243 
L 71.193693 71.448663 
L 72.343973 71.577083 
L 73.494254 71.705503 
L 74.644534 71.833922 
L 75.794814 71.962342 
L 76.945094 72.090762 
L 78.095374 72.219182 
L 79.245655 72.347602 
L 80.395935 72.476021 
L 81.546215 72.604441 
L 82.696495 72.732861 
L 83.846775 72.861281 
L 84.997055 72.989701 
L 86.147336 73.11812 
L 87.297616 73.24654 
L 88.447896 73.37496 
L 89.598176 73.50338 
L 90.748456 73.631799 
L 91.898737 73.760219 
L 93.049017 73.888639 
L 94.199297 74.017059 
L 95.349577 74.145479 
L 96.499857 74.273898 
L 97.650137 74.402318 
L 98.800418 74.530738 
L 99.950698 74.659158 
L 101.100978 74.787578 
L 102.251258 74.915997 
L 103.401538 75.044417 
L 104.551819 75.172837 
L 105.702099 75.301257 
L 106.852379 75.429677 
L 108.002659 75.558096 
L 109.152939 75.686516 
L 110.303219 75.814936 
L 111.4535 75.943356 
L 112.60378 76.071776 
L 113.75406 76.200195 
L 114.90434 76.328615 
L 116.05462 76.457035 
L 117.204901 76.585455 
L 118.355181 76.713875 
L 119.505461 76.842294 
L 120.655741 76.970714 
L 121.806021 77.099134 
L 122.956301 77.227554 
L 124.106582 77.355974 
L 125.256862 77.484393 
L 126.407142 77.612813 
L 127.557422 77.741233 
L 128.707702 77.869653 
L 129.857983 77.998073 
L 131.008263 78.126492 
L 132.158543 78.254912 
L 133.308823 78.383332 
L 134.459103 78.511752 
L 135.609383 78.640172 
L 136.759664 78.768591 
L 137.909944 78.897011 
L 139.060224 79.025431 
L 140.210504 79.153851 
L 141.360784 79.282271 
L 142.511065 79.41069 
L 143.661345 79.53911 
L 144.811625 79.66753 
" clip-path="url(#p2f48bf2bbc)" style="fill: none; stroke: #ff8c00; stroke-width: 0.75; stroke-linecap: square"/>
   </g>
   <g id="patch_3">
    <path d="M 25.24 89.218327 
L 25.24 5.4 
" style="fill: none; stroke: #000000; stroke-width: 0.25; stroke-linejoin: miter; stroke-linecap: square"/>
   </g>
   <g id="patch_4">
    <path d="M 25.24 89.218327 
L 150.505512 89.218327 
" style="fill: none; stroke: #000000; stroke-width: 0.25; stroke-linejoin: miter; stroke-linecap: square"/>
   </g>
   <g id="text_15">
    <g id="patch_5">
     <path d="M 28.997965 18.699023 
L 57.397965 18.699023 
Q 58.897965 18.699023 58.897965 17.199023 
L 58.897965 7.132617 
Q 58.897965 5.632617 57.397965 5.632617 
L 28.997965 5.632617 
Q 27.497965 5.632617 27.497965 7.132617 
L 27.497965 17.199023 
Q 27.497965 18.699023 28.997965 18.699023 
z
" style="fill: #c0c0c0; opacity: 0.4; stroke: #c0c0c0; stroke-linejoin: miter"/>
    </g>
    <!-- $r=-0.232$ -->
    <g transform="translate(28.997965 10.655273) scale(0.05 -0.05)">
     <defs>
      <path id="DejaVuSans-Oblique-72" d="M 2853 2969 
Q 2766 3016 2653 3041 
Q 2541 3066 2413 3066 
Q 1953 3066 1609 2717 
Q 1266 2369 1153 1784 
L 800 0 
L 225 0 
L 909 3500 
L 1484 3500 
L 1375 2956 
Q 1603 3259 1920 3421 
Q 2238 3584 2597 3584 
Q 2691 3584 2781 3573 
Q 2872 3563 2963 3538 
L 2853 2969 
z
" transform="scale(0.015625)"/>
      <path id="DejaVuSans-3d" d="M 678 2906 
L 4684 2906 
L 4684 2381 
L 678 2381 
L 678 2906 
z
M 678 1631 
L 4684 1631 
L 4684 1100 
L 678 1100 
L 678 1631 
z
" transform="scale(0.015625)"/>
      <path id="DejaVuSans-2212" d="M 678 2272 
L 4684 2272 
L 4684 1741 
L 678 1741 
L 678 2272 
z
" transform="scale(0.015625)"/>
      <path id="DejaVuSans-30" d="M 2034 4250 
Q 1547 4250 1301 3770 
Q 1056 3291 1056 2328 
Q 1056 1369 1301 889 
Q 1547 409 2034 409 
Q 2525 409 2770 889 
Q 3016 1369 3016 2328 
Q 3016 3291 2770 3770 
Q 2525 4250 2034 4250 
z
M 2034 4750 
Q 2819 4750 3233 4129 
Q 3647 3509 3647 2328 
Q 3647 1150 3233 529 
Q 2819 -91 2034 -91 
Q 1250 -91 836 529 
Q 422 1150 422 2328 
Q 422 3509 836 4129 
Q 1250 4750 2034 4750 
z
" transform="scale(0.015625)"/>
      <path id="DejaVuSans-2e" d="M 684 794 
L 1344 794 
L 1344 0 
L 684 0 
L 684 794 
z
" transform="scale(0.015625)"/>
      <path id="DejaVuSans-32" d="M 1228 531 
L 3431 531 
L 3431 0 
L 469 0 
L 469 531 
Q 828 903 1448 1529 
Q 2069 2156 2228 2338 
Q 2531 2678 2651 2914 
Q 2772 3150 2772 3378 
Q 2772 3750 2511 3984 
Q 2250 4219 1831 4219 
Q 1534 4219 1204 4116 
Q 875 4013 500 3803 
L 500 4441 
Q 881 4594 1212 4672 
Q 1544 4750 1819 4750 
Q 2544 4750 2975 4387 
Q 3406 4025 3406 3419 
Q 3406 3131 3298 2873 
Q 3191 2616 2906 2266 
Q 2828 2175 2409 1742 
Q 1991 1309 1228 531 
z
" transform="scale(0.015625)"/>
      <path id="DejaVuSans-33" d="M 2597 2516 
Q 3050 2419 3304 2112 
Q 3559 1806 3559 1356 
Q 3559 666 3084 287 
Q 2609 -91 1734 -91 
Q 1441 -91 1130 -33 
Q 819 25 488 141 
L 488 750 
Q 750 597 1062 519 
Q 1375 441 1716 441 
Q 2309 441 2620 675 
Q 2931 909 2931 1356 
Q 2931 1769 2642 2001 
Q 2353 2234 1838 2234 
L 1294 2234 
L 1294 2753 
L 1863 2753 
Q 2328 2753 2575 2939 
Q 2822 3125 2822 3475 
Q 2822 3834 2567 4026 
Q 2313 4219 1838 4219 
Q 1578 4219 1281 4162 
Q 984 4106 628 3988 
L 628 4550 
Q 988 4650 1302 4700 
Q 1616 4750 1894 4750 
Q 2613 4750 3031 4423 
Q 3450 4097 3450 3541 
Q 3450 3153 3228 2886 
Q 3006 2619 2597 2516 
z
" transform="scale(0.015625)"/>
     </defs>
     <use xlink:href="#DejaVuSans-Oblique-72" transform="translate(0 0.78125)"/>
     <use xlink:href="#DejaVuSans-3d" transform="translate(60.595703 0.78125)"/>
     <use xlink:href="#DejaVuSans-2212" transform="translate(183.349609 0.78125)"/>
     <use xlink:href="#DejaVuSans-30" transform="translate(286.621094 0.78125)"/>
     <use xlink:href="#DejaVuSans-2e" transform="translate(350.244141 0.78125)"/>
     <use xlink:href="#DejaVuSans-32" transform="translate(376.53125 0.78125)"/>
     <use xlink:href="#DejaVuSans-33" transform="translate(440.154297 0.78125)"/>
     <use xlink:href="#DejaVuSans-32" transform="translate(503.777344 0.78125)"/>
    </g>
    <!-- $p=0.006$ -->
    <g transform="translate(28.997965 16.149023) scale(0.05 -0.05)">
     <defs>
      <path id="DejaVuSans-Oblique-70" d="M 3175 2156 
Q 3175 2616 2975 2859 
Q 2775 3103 2400 3103 
Q 2144 3103 1911 2972 
Q 1678 2841 1497 2591 
Q 1319 2344 1212 1994 
Q 1106 1644 1106 1300 
Q 1106 863 1306 627 
Q 1506 391 1875 391 
Q 2147 391 2380 519 
Q 2613 647 2778 891 
Q 2956 1147 3065 1494 
Q 3175 1841 3175 2156 
z
M 1394 2969 
Q 1625 3272 1939 3428 
Q 2253 3584 2638 3584 
Q 3175 3584 3472 3232 
Q 3769 2881 3769 2247 
Q 3769 1728 3584 1258 
Q 3400 788 3053 416 
Q 2822 169 2531 39 
Q 2241 -91 1919 -91 
Q 1547 -91 1294 64 
Q 1041 219 916 525 
L 556 -1331 
L -19 -1331 
L 922 3500 
L 1497 3500 
L 1394 2969 
z
" transform="scale(0.015625)"/>
      <path id="DejaVuSans-36" d="M 2113 2584 
Q 1688 2584 1439 2293 
Q 1191 2003 1191 1497 
Q 1191 994 1439 701 
Q 1688 409 2113 409 
Q 2538 409 2786 701 
Q 3034 994 3034 1497 
Q 3034 2003 2786 2293 
Q 2538 2584 2113 2584 
z
M 3366 4563 
L 3366 3988 
Q 3128 4100 2886 4159 
Q 2644 4219 2406 4219 
Q 1781 4219 1451 3797 
Q 1122 3375 1075 2522 
Q 1259 2794 1537 2939 
Q 1816 3084 2150 3084 
Q 2853 3084 3261 2657 
Q 3669 2231 3669 1497 
Q 3669 778 3244 343 
Q 2819 -91 2113 -91 
Q 1303 -91 875 529 
Q 447 1150 447 2328 
Q 447 3434 972 4092 
Q 1497 4750 2381 4750 
Q 2619 4750 2861 4703 
Q 3103 4656 3366 4563 
z
" transform="scale(0.015625)"/>
     </defs>
     <use xlink:href="#DejaVuSans-Oblique-70" transform="translate(0 0.78125)"/>
     <use xlink:href="#DejaVuSans-3d" transform="translate(82.958984 0.78125)"/>
     <use xlink:href="#DejaVuSans-30" transform="translate(186.230469 0.78125)"/>
     <use xlink:href="#DejaVuSans-2e" transform="translate(249.853516 0.78125)"/>
     <use xlink:href="#DejaVuSans-30" transform="translate(281.640625 0.78125)"/>
     <use xlink:href="#DejaVuSans-30" transform="translate(345.263672 0.78125)"/>
     <use xlink:href="#DejaVuSans-36" transform="translate(408.886719 0.78125)"/>
    </g>
   </g>
  </g>
 </g>
 <defs>
  <clipPath id="p2f48bf2bbc">
   <rect x="25.24" y="5.4" width="125.265512" height="83.818327"/>
  </clipPath>
 </defs>
</svg>
