<?xml version="1.0" encoding="utf-8" standalone="no"?>
<!DOCTYPE svg PUBLIC "-//W3C//DTD SVG 1.1//EN"
  "http://www.w3.org/Graphics/SVG/1.1/DTD/svg11.dtd">
<svg xmlns:xlink="http://www.w3.org/1999/xlink" width="155.905512pt" height="113.385827pt" viewBox="0 0 155.905512 113.385827" xmlns="http://www.w3.org/2000/svg" version="1.1">
 <metadata>
  <rdf:RDF xmlns:dc="http://purl.org/dc/elements/1.1/" xmlns:cc="http://creativecommons.org/ns#" xmlns:rdf="http://www.w3.org/1999/02/22-rdf-syntax-ns#">
   <cc:Work>
    <dc:type rdf:resource="http://purl.org/dc/dcmitype/StillImage"/>
    <dc:date>2025-08-06T16:42:11.287777</dc:date>
    <dc:format>image/svg+xml</dc:format>
    <dc:creator>
     <cc:Agent>
      <dc:title>Matplotlib v3.9.2, https://matplotlib.org/</dc:title>
     </cc:Agent>
    </dc:creator>
   </cc:Work>
  </rdf:RDF>
 </metadata>
 <defs>
  <style type="text/css">*{stroke-linejoin: round; stroke-linecap: butt}</style>
 </defs>
 <g id="figure_1">
  <g id="patch_1">
   <path d="M 0 113.385827 
L 155.905512 113.385827 
L 155.905512 0 
L 0 0 
z
" style="fill: #ffffff"/>
  </g>
  <g id="axes_1">
   <g id="patch_2">
    <path d="M 25.36 89.218327 
L 150.505512 89.218327 
L 150.505512 5.4 
L 25.36 5.4 
z
" style="fill: #ffffff"/>
   </g>
   <g id="PathCollection_1">
    <defs>
     <path id="C0_0_a7d13c37d7" d="M 0 0.866025 
C 0.229673 0.866025 0.449969 0.774776 0.612372 0.612372 
C 0.774776 0.449969 0.866025 0.229673 0.866025 -0 
C 0.866025 -0.229673 0.774776 -0.449969 0.612372 -0.612372 
C 0.449969 -0.774776 0.229673 -0.866025 0 -0.866025 
C -0.229673 -0.866025 -0.449969 -0.774776 -0.612372 -0.612372 
C -0.774776 -0.449969 -0.866025 -0.229673 -0.866025 0 
C -0.866025 0.229673 -0.774776 0.449969 -0.612372 0.612372 
C -0.449969 0.774776 -0.229673 0.866025 0 0.866025 
z
"/>
    </defs>
    <g clip-path="url(#p9833859303)">
     <use xlink:href="#C0_0_a7d13c37d7" x="59.490594" y="75.22504" style="fill: #ff8c00; fill-opacity: 0.8"/>
    </g>
    <g clip-path="url(#p9833859303)">
     <use xlink:href="#C0_0_a7d13c37d7" x="77.774841" y="27.431979" style="fill: #ff8c00; fill-opacity: 0.8"/>
    </g>
    <g clip-path="url(#p9833859303)">
     <use xlink:href="#C0_0_a7d13c37d7" x="106.217003" y="29.488628" style="fill: #ff8c00; fill-opacity: 0.8"/>
    </g>
    <g clip-path="url(#p9833859303)">
     <use xlink:href="#C0_0_a7d13c37d7" x="81.838007" y="46.084064" style="fill: #ff8c00; fill-opacity: 0.8"/>
    </g>
    <g clip-path="url(#p9833859303)">
     <use xlink:href="#C0_0_a7d13c37d7" x="71.680092" y="44.66765" style="fill: #ff8c00; fill-opacity: 0.8"/>
    </g>
    <g clip-path="url(#p9833859303)">
     <use xlink:href="#C0_0_a7d13c37d7" x="57.459011" y="61.503374" style="fill: #ff8c00; fill-opacity: 0.8"/>
    </g>
    <g clip-path="url(#p9833859303)">
     <use xlink:href="#C0_0_a7d13c37d7" x="69.648509" y="34.646222" style="fill: #ff8c00; fill-opacity: 0.8"/>
    </g>
    <g clip-path="url(#p9833859303)">
     <use xlink:href="#C0_0_a7d13c37d7" x="85.901173" y="58.046995" style="fill: #ff8c00; fill-opacity: 0.8"/>
    </g>
    <g clip-path="url(#p9833859303)">
     <use xlink:href="#C0_0_a7d13c37d7" x="67.616926" y="25.76621" style="fill: #ff8c00; fill-opacity: 0.8"/>
    </g>
    <g clip-path="url(#p9833859303)">
     <use xlink:href="#C0_0_a7d13c37d7" x="83.86959" y="70.978383" style="fill: #ff8c00; fill-opacity: 0.8"/>
    </g>
    <g clip-path="url(#p9833859303)">
     <use xlink:href="#C0_0_a7d13c37d7" x="69.648509" y="81.045791" style="fill: #ff8c00; fill-opacity: 0.8"/>
    </g>
    <g clip-path="url(#p9833859303)">
     <use xlink:href="#C0_0_a7d13c37d7" x="81.838007" y="72.04998" style="fill: #ff8c00; fill-opacity: 0.8"/>
    </g>
    <g clip-path="url(#p9833859303)">
     <use xlink:href="#C0_0_a7d13c37d7" x="59.490594" y="59.25878" style="fill: #ff8c00; fill-opacity: 0.8"/>
    </g>
    <g clip-path="url(#p9833859303)">
     <use xlink:href="#C0_0_a7d13c37d7" x="47.301096" y="72.998286" style="fill: #ff8c00; fill-opacity: 0.8"/>
    </g>
    <g clip-path="url(#p9833859303)">
     <use xlink:href="#C0_0_a7d13c37d7" x="128.564416" y="61.97572" style="fill: #ff8c00; fill-opacity: 0.8"/>
    </g>
    <g clip-path="url(#p9833859303)">
     <use xlink:href="#C0_0_a7d13c37d7" x="89.964339" y="48.547579" style="fill: #ff8c00; fill-opacity: 0.8"/>
    </g>
    <g clip-path="url(#p9833859303)">
     <use xlink:href="#C0_0_a7d13c37d7" x="39.174764" y="45.543441" style="fill: #ff8c00; fill-opacity: 0.8"/>
    </g>
    <g clip-path="url(#p9833859303)">
     <use xlink:href="#C0_0_a7d13c37d7" x="65.585343" y="61.688084" style="fill: #ff8c00; fill-opacity: 0.8"/>
    </g>
    <g clip-path="url(#p9833859303)">
     <use xlink:href="#C0_0_a7d13c37d7" x="89.964339" y="63.341516" style="fill: #ff8c00; fill-opacity: 0.8"/>
    </g>
    <g clip-path="url(#p9833859303)">
     <use xlink:href="#C0_0_a7d13c37d7" x="69.648509" y="41.392506" style="fill: #ff8c00; fill-opacity: 0.8"/>
    </g>
    <g clip-path="url(#p9833859303)">
     <use xlink:href="#C0_0_a7d13c37d7" x="53.395845" y="36.370949" style="fill: #ff8c00; fill-opacity: 0.8"/>
    </g>
    <g clip-path="url(#p9833859303)">
     <use xlink:href="#C0_0_a7d13c37d7" x="59.490594" y="37.819383" style="fill: #ff8c00; fill-opacity: 0.8"/>
    </g>
    <g clip-path="url(#p9833859303)">
     <use xlink:href="#C0_0_a7d13c37d7" x="87.932756" y="54.657649" style="fill: #ff8c00; fill-opacity: 0.8"/>
    </g>
    <g clip-path="url(#p9833859303)">
     <use xlink:href="#C0_0_a7d13c37d7" x="65.585343" y="29.486295" style="fill: #ff8c00; fill-opacity: 0.8"/>
    </g>
    <g clip-path="url(#p9833859303)">
     <use xlink:href="#C0_0_a7d13c37d7" x="53.395845" y="29.306155" style="fill: #ff8c00; fill-opacity: 0.8"/>
    </g>
    <g clip-path="url(#p9833859303)">
     <use xlink:href="#C0_0_a7d13c37d7" x="96.059088" y="41.978993" style="fill: #ff8c00; fill-opacity: 0.8"/>
    </g>
    <g clip-path="url(#p9833859303)">
     <use xlink:href="#C0_0_a7d13c37d7" x="53.395845" y="53.652303" style="fill: #ff8c00; fill-opacity: 0.8"/>
    </g>
    <g clip-path="url(#p9833859303)">
     <use xlink:href="#C0_0_a7d13c37d7" x="59.490594" y="73.268805" style="fill: #ff8c00; fill-opacity: 0.8"/>
    </g>
    <g clip-path="url(#p9833859303)">
     <use xlink:href="#C0_0_a7d13c37d7" x="69.648509" y="36.115091" style="fill: #ff8c00; fill-opacity: 0.8"/>
    </g>
    <g clip-path="url(#p9833859303)">
     <use xlink:href="#C0_0_a7d13c37d7" x="53.395845" y="38.832294" style="fill: #ff8c00; fill-opacity: 0.8"/>
    </g>
    <g clip-path="url(#p9833859303)">
     <use xlink:href="#C0_0_a7d13c37d7" x="110.280169" y="60.233374" style="fill: #ff8c00; fill-opacity: 0.8"/>
    </g>
    <g clip-path="url(#p9833859303)">
     <use xlink:href="#C0_0_a7d13c37d7" x="57.459011" y="38.079543" style="fill: #ff8c00; fill-opacity: 0.8"/>
    </g>
    <g clip-path="url(#p9833859303)">
     <use xlink:href="#C0_0_a7d13c37d7" x="102.153837" y="64.736862" style="fill: #ff8c00; fill-opacity: 0.8"/>
    </g>
    <g clip-path="url(#p9833859303)">
     <use xlink:href="#C0_0_a7d13c37d7" x="71.680092" y="54.535338" style="fill: #ff8c00; fill-opacity: 0.8"/>
    </g>
    <g clip-path="url(#p9833859303)">
     <use xlink:href="#C0_0_a7d13c37d7" x="69.648509" y="20.423566" style="fill: #ff8c00; fill-opacity: 0.8"/>
    </g>
    <g clip-path="url(#p9833859303)">
     <use xlink:href="#C0_0_a7d13c37d7" x="91.995922" y="37.854402" style="fill: #ff8c00; fill-opacity: 0.8"/>
    </g>
    <g clip-path="url(#p9833859303)">
     <use xlink:href="#C0_0_a7d13c37d7" x="75.743258" y="12.060646" style="fill: #ff8c00; fill-opacity: 0.8"/>
    </g>
    <g clip-path="url(#p9833859303)">
     <use xlink:href="#C0_0_a7d13c37d7" x="39.174764" y="55.299014" style="fill: #ff8c00; fill-opacity: 0.8"/>
    </g>
    <g clip-path="url(#p9833859303)">
     <use xlink:href="#C0_0_a7d13c37d7" x="53.395845" y="48.24955" style="fill: #ff8c00; fill-opacity: 0.8"/>
    </g>
    <g clip-path="url(#p9833859303)">
     <use xlink:href="#C0_0_a7d13c37d7" x="51.364262" y="39.431313" style="fill: #ff8c00; fill-opacity: 0.8"/>
    </g>
    <g clip-path="url(#p9833859303)">
     <use xlink:href="#C0_0_a7d13c37d7" x="102.153837" y="50.61667" style="fill: #ff8c00; fill-opacity: 0.8"/>
    </g>
    <g clip-path="url(#p9833859303)">
     <use xlink:href="#C0_0_a7d13c37d7" x="114.343335" y="36.286269" style="fill: #ff8c00; fill-opacity: 0.8"/>
    </g>
    <g clip-path="url(#p9833859303)">
     <use xlink:href="#C0_0_a7d13c37d7" x="49.332679" y="35.780717" style="fill: #ff8c00; fill-opacity: 0.8"/>
    </g>
    <g clip-path="url(#p9833859303)">
     <use xlink:href="#C0_0_a7d13c37d7" x="98.090671" y="31.25647" style="fill: #ff8c00; fill-opacity: 0.8"/>
    </g>
    <g clip-path="url(#p9833859303)">
     <use xlink:href="#C0_0_a7d13c37d7" x="67.616926" y="37.616235" style="fill: #ff8c00; fill-opacity: 0.8"/>
    </g>
    <g clip-path="url(#p9833859303)">
     <use xlink:href="#C0_0_a7d13c37d7" x="65.585343" y="35.276816" style="fill: #ff8c00; fill-opacity: 0.8"/>
    </g>
    <g clip-path="url(#p9833859303)">
     <use xlink:href="#C0_0_a7d13c37d7" x="57.459011" y="62.75276" style="fill: #ff8c00; fill-opacity: 0.8"/>
    </g>
    <g clip-path="url(#p9833859303)">
     <use xlink:href="#C0_0_a7d13c37d7" x="89.964339" y="66.121283" style="fill: #ff8c00; fill-opacity: 0.8"/>
    </g>
    <g clip-path="url(#p9833859303)">
     <use xlink:href="#C0_0_a7d13c37d7" x="53.395845" y="17.222471" style="fill: #ff8c00; fill-opacity: 0.8"/>
    </g>
    <g clip-path="url(#p9833859303)">
     <use xlink:href="#C0_0_a7d13c37d7" x="75.743258" y="46.541263" style="fill: #ff8c00; fill-opacity: 0.8"/>
    </g>
    <g clip-path="url(#p9833859303)">
     <use xlink:href="#C0_0_a7d13c37d7" x="144.817079" y="22.936292" style="fill: #ff8c00; fill-opacity: 0.8"/>
    </g>
    <g clip-path="url(#p9833859303)">
     <use xlink:href="#C0_0_a7d13c37d7" x="98.090671" y="68.444328" style="fill: #ff8c00; fill-opacity: 0.8"/>
    </g>
    <g clip-path="url(#p9833859303)">
     <use xlink:href="#C0_0_a7d13c37d7" x="106.217003" y="45.49189" style="fill: #ff8c00; fill-opacity: 0.8"/>
    </g>
    <g clip-path="url(#p9833859303)">
     <use xlink:href="#C0_0_a7d13c37d7" x="41.206347" y="23.722473" style="fill: #ff8c00; fill-opacity: 0.8"/>
    </g>
    <g clip-path="url(#p9833859303)">
     <use xlink:href="#C0_0_a7d13c37d7" x="67.616926" y="29.809356" style="fill: #ff8c00; fill-opacity: 0.8"/>
    </g>
    <g clip-path="url(#p9833859303)">
     <use xlink:href="#C0_0_a7d13c37d7" x="73.711675" y="39.711422" style="fill: #ff8c00; fill-opacity: 0.8"/>
    </g>
    <g clip-path="url(#p9833859303)">
     <use xlink:href="#C0_0_a7d13c37d7" x="39.174764" y="38.431365" style="fill: #ff8c00; fill-opacity: 0.8"/>
    </g>
    <g clip-path="url(#p9833859303)">
     <use xlink:href="#C0_0_a7d13c37d7" x="65.585343" y="47.29521" style="fill: #ff8c00; fill-opacity: 0.8"/>
    </g>
    <g clip-path="url(#p9833859303)">
     <use xlink:href="#C0_0_a7d13c37d7" x="79.806424" y="12.63239" style="fill: #ff8c00; fill-opacity: 0.8"/>
    </g>
    <g clip-path="url(#p9833859303)">
     <use xlink:href="#C0_0_a7d13c37d7" x="49.332679" y="9.209924" style="fill: #ff8c00; fill-opacity: 0.8"/>
    </g>
    <g clip-path="url(#p9833859303)">
     <use xlink:href="#C0_0_a7d13c37d7" x="87.932756" y="69.437408" style="fill: #ff8c00; fill-opacity: 0.8"/>
    </g>
    <g clip-path="url(#p9833859303)">
     <use xlink:href="#C0_0_a7d13c37d7" x="81.838007" y="42.879244" style="fill: #ff8c00; fill-opacity: 0.8"/>
    </g>
    <g clip-path="url(#p9833859303)">
     <use xlink:href="#C0_0_a7d13c37d7" x="31.048432" y="52.331341" style="fill: #ff8c00; fill-opacity: 0.8"/>
    </g>
    <g clip-path="url(#p9833859303)">
     <use xlink:href="#C0_0_a7d13c37d7" x="104.18542" y="52.037729" style="fill: #ff8c00; fill-opacity: 0.8"/>
    </g>
    <g clip-path="url(#p9833859303)">
     <use xlink:href="#C0_0_a7d13c37d7" x="43.23793" y="51.739807" style="fill: #ff8c00; fill-opacity: 0.8"/>
    </g>
    <g clip-path="url(#p9833859303)">
     <use xlink:href="#C0_0_a7d13c37d7" x="122.469667" y="54.902496" style="fill: #ff8c00; fill-opacity: 0.8"/>
    </g>
    <g clip-path="url(#p9833859303)">
     <use xlink:href="#C0_0_a7d13c37d7" x="91.995922" y="55.560649" style="fill: #ff8c00; fill-opacity: 0.8"/>
    </g>
    <g clip-path="url(#p9833859303)">
     <use xlink:href="#C0_0_a7d13c37d7" x="61.522177" y="41.310901" style="fill: #ff8c00; fill-opacity: 0.8"/>
    </g>
    <g clip-path="url(#p9833859303)">
     <use xlink:href="#C0_0_a7d13c37d7" x="98.090671" y="32.322564" style="fill: #ff8c00; fill-opacity: 0.8"/>
    </g>
    <g clip-path="url(#p9833859303)">
     <use xlink:href="#C0_0_a7d13c37d7" x="61.522177" y="69.027455" style="fill: #ff8c00; fill-opacity: 0.8"/>
    </g>
    <g clip-path="url(#p9833859303)">
     <use xlink:href="#C0_0_a7d13c37d7" x="69.648509" y="53.537702" style="fill: #ff8c00; fill-opacity: 0.8"/>
    </g>
    <g clip-path="url(#p9833859303)">
     <use xlink:href="#C0_0_a7d13c37d7" x="51.364262" y="57.990716" style="fill: #ff8c00; fill-opacity: 0.8"/>
    </g>
    <g clip-path="url(#p9833859303)">
     <use xlink:href="#C0_0_a7d13c37d7" x="81.838007" y="19.760225" style="fill: #ff8c00; fill-opacity: 0.8"/>
    </g>
    <g clip-path="url(#p9833859303)">
     <use xlink:href="#C0_0_a7d13c37d7" x="59.490594" y="36.020095" style="fill: #ff8c00; fill-opacity: 0.8"/>
    </g>
    <g clip-path="url(#p9833859303)">
     <use xlink:href="#C0_0_a7d13c37d7" x="87.932756" y="35.115557" style="fill: #ff8c00; fill-opacity: 0.8"/>
    </g>
    <g clip-path="url(#p9833859303)">
     <use xlink:href="#C0_0_a7d13c37d7" x="91.995922" y="27.841829" style="fill: #ff8c00; fill-opacity: 0.8"/>
    </g>
    <g clip-path="url(#p9833859303)">
     <use xlink:href="#C0_0_a7d13c37d7" x="77.774841" y="62.833321" style="fill: #ff8c00; fill-opacity: 0.8"/>
    </g>
    <g clip-path="url(#p9833859303)">
     <use xlink:href="#C0_0_a7d13c37d7" x="55.427428" y="53.193365" style="fill: #ff8c00; fill-opacity: 0.8"/>
    </g>
    <g clip-path="url(#p9833859303)">
     <use xlink:href="#C0_0_a7d13c37d7" x="98.090671" y="68.1853" style="fill: #ff8c00; fill-opacity: 0.8"/>
    </g>
    <g clip-path="url(#p9833859303)">
     <use xlink:href="#C0_0_a7d13c37d7" x="73.711675" y="60.813759" style="fill: #ff8c00; fill-opacity: 0.8"/>
    </g>
    <g clip-path="url(#p9833859303)">
     <use xlink:href="#C0_0_a7d13c37d7" x="69.648509" y="83.927596" style="fill: #ff8c00; fill-opacity: 0.8"/>
    </g>
    <g clip-path="url(#p9833859303)">
     <use xlink:href="#C0_0_a7d13c37d7" x="83.86959" y="35.070337" style="fill: #ff8c00; fill-opacity: 0.8"/>
    </g>
    <g clip-path="url(#p9833859303)">
     <use xlink:href="#C0_0_a7d13c37d7" x="51.364262" y="61.169147" style="fill: #ff8c00; fill-opacity: 0.8"/>
    </g>
    <g clip-path="url(#p9833859303)">
     <use xlink:href="#C0_0_a7d13c37d7" x="79.806424" y="71.769827" style="fill: #ff8c00; fill-opacity: 0.8"/>
    </g>
    <g clip-path="url(#p9833859303)">
     <use xlink:href="#C0_0_a7d13c37d7" x="63.55376" y="29.842239" style="fill: #ff8c00; fill-opacity: 0.8"/>
    </g>
    <g clip-path="url(#p9833859303)">
     <use xlink:href="#C0_0_a7d13c37d7" x="43.23793" y="25.571761" style="fill: #ff8c00; fill-opacity: 0.8"/>
    </g>
    <g clip-path="url(#p9833859303)">
     <use xlink:href="#C0_0_a7d13c37d7" x="75.743258" y="59.723326" style="fill: #ff8c00; fill-opacity: 0.8"/>
    </g>
    <g clip-path="url(#p9833859303)">
     <use xlink:href="#C0_0_a7d13c37d7" x="73.711675" y="21.425447" style="fill: #ff8c00; fill-opacity: 0.8"/>
    </g>
    <g clip-path="url(#p9833859303)">
     <use xlink:href="#C0_0_a7d13c37d7" x="55.427428" y="59.576699" style="fill: #ff8c00; fill-opacity: 0.8"/>
    </g>
    <g clip-path="url(#p9833859303)">
     <use xlink:href="#C0_0_a7d13c37d7" x="71.680092" y="79.443138" style="fill: #ff8c00; fill-opacity: 0.8"/>
    </g>
    <g clip-path="url(#p9833859303)">
     <use xlink:href="#C0_0_a7d13c37d7" x="75.743258" y="41.259796" style="fill: #ff8c00; fill-opacity: 0.8"/>
    </g>
    <g clip-path="url(#p9833859303)">
     <use xlink:href="#C0_0_a7d13c37d7" x="100.122254" y="62.243616" style="fill: #ff8c00; fill-opacity: 0.8"/>
    </g>
    <g clip-path="url(#p9833859303)">
     <use xlink:href="#C0_0_a7d13c37d7" x="79.806424" y="61.508243" style="fill: #ff8c00; fill-opacity: 0.8"/>
    </g>
    <g clip-path="url(#p9833859303)">
     <use xlink:href="#C0_0_a7d13c37d7" x="85.901173" y="45.251176" style="fill: #ff8c00; fill-opacity: 0.8"/>
    </g>
    <g clip-path="url(#p9833859303)">
     <use xlink:href="#C0_0_a7d13c37d7" x="65.585343" y="49.337715" style="fill: #ff8c00; fill-opacity: 0.8"/>
    </g>
    <g clip-path="url(#p9833859303)">
     <use xlink:href="#C0_0_a7d13c37d7" x="110.280169" y="32.015918" style="fill: #ff8c00; fill-opacity: 0.8"/>
    </g>
    <g clip-path="url(#p9833859303)">
     <use xlink:href="#C0_0_a7d13c37d7" x="94.027505" y="48.56918" style="fill: #ff8c00; fill-opacity: 0.8"/>
    </g>
    <g clip-path="url(#p9833859303)">
     <use xlink:href="#C0_0_a7d13c37d7" x="31.048432" y="54.872477" style="fill: #ff8c00; fill-opacity: 0.8"/>
    </g>
    <g clip-path="url(#p9833859303)">
     <use xlink:href="#C0_0_a7d13c37d7" x="94.027505" y="65.711699" style="fill: #ff8c00; fill-opacity: 0.8"/>
    </g>
    <g clip-path="url(#p9833859303)">
     <use xlink:href="#C0_0_a7d13c37d7" x="104.18542" y="24.278165" style="fill: #ff8c00; fill-opacity: 0.8"/>
    </g>
    <g clip-path="url(#p9833859303)">
     <use xlink:href="#C0_0_a7d13c37d7" x="71.680092" y="81.276003" style="fill: #ff8c00; fill-opacity: 0.8"/>
    </g>
    <g clip-path="url(#p9833859303)">
     <use xlink:href="#C0_0_a7d13c37d7" x="77.774841" y="23.635844" style="fill: #ff8c00; fill-opacity: 0.8"/>
    </g>
    <g clip-path="url(#p9833859303)">
     <use xlink:href="#C0_0_a7d13c37d7" x="59.490594" y="43.666096" style="fill: #ff8c00; fill-opacity: 0.8"/>
    </g>
    <g clip-path="url(#p9833859303)">
     <use xlink:href="#C0_0_a7d13c37d7" x="89.964339" y="80.787068" style="fill: #ff8c00; fill-opacity: 0.8"/>
    </g>
    <g clip-path="url(#p9833859303)">
     <use xlink:href="#C0_0_a7d13c37d7" x="39.174764" y="14.013022" style="fill: #ff8c00; fill-opacity: 0.8"/>
    </g>
    <g clip-path="url(#p9833859303)">
     <use xlink:href="#C0_0_a7d13c37d7" x="81.838007" y="38.760502" style="fill: #ff8c00; fill-opacity: 0.8"/>
    </g>
    <g clip-path="url(#p9833859303)">
     <use xlink:href="#C0_0_a7d13c37d7" x="69.648509" y="17.937462" style="fill: #ff8c00; fill-opacity: 0.8"/>
    </g>
    <g clip-path="url(#p9833859303)">
     <use xlink:href="#C0_0_a7d13c37d7" x="49.332679" y="62.263377" style="fill: #ff8c00; fill-opacity: 0.8"/>
    </g>
    <g clip-path="url(#p9833859303)">
     <use xlink:href="#C0_0_a7d13c37d7" x="53.395845" y="54.484676" style="fill: #ff8c00; fill-opacity: 0.8"/>
    </g>
    <g clip-path="url(#p9833859303)">
     <use xlink:href="#C0_0_a7d13c37d7" x="85.901173" y="78.733757" style="fill: #ff8c00; fill-opacity: 0.8"/>
    </g>
    <g clip-path="url(#p9833859303)">
     <use xlink:href="#C0_0_a7d13c37d7" x="69.648509" y="52.056259" style="fill: #ff8c00; fill-opacity: 0.8"/>
    </g>
    <g clip-path="url(#p9833859303)">
     <use xlink:href="#C0_0_a7d13c37d7" x="53.395845" y="60.817427" style="fill: #ff8c00; fill-opacity: 0.8"/>
    </g>
    <g clip-path="url(#p9833859303)">
     <use xlink:href="#C0_0_a7d13c37d7" x="57.459011" y="34.187768" style="fill: #ff8c00; fill-opacity: 0.8"/>
    </g>
    <g clip-path="url(#p9833859303)">
     <use xlink:href="#C0_0_a7d13c37d7" x="59.490594" y="61.503577" style="fill: #ff8c00; fill-opacity: 0.8"/>
    </g>
    <g clip-path="url(#p9833859303)">
     <use xlink:href="#C0_0_a7d13c37d7" x="61.522177" y="49.187968" style="fill: #ff8c00; fill-opacity: 0.8"/>
    </g>
    <g clip-path="url(#p9833859303)">
     <use xlink:href="#C0_0_a7d13c37d7" x="55.427428" y="61.261279" style="fill: #ff8c00; fill-opacity: 0.8"/>
    </g>
    <g clip-path="url(#p9833859303)">
     <use xlink:href="#C0_0_a7d13c37d7" x="65.585343" y="33.499082" style="fill: #ff8c00; fill-opacity: 0.8"/>
    </g>
    <g clip-path="url(#p9833859303)">
     <use xlink:href="#C0_0_a7d13c37d7" x="98.090671" y="27.408915" style="fill: #ff8c00; fill-opacity: 0.8"/>
    </g>
    <g clip-path="url(#p9833859303)">
     <use xlink:href="#C0_0_a7d13c37d7" x="85.901173" y="41.511133" style="fill: #ff8c00; fill-opacity: 0.8"/>
    </g>
    <g clip-path="url(#p9833859303)">
     <use xlink:href="#C0_0_a7d13c37d7" x="53.395845" y="32.526061" style="fill: #ff8c00; fill-opacity: 0.8"/>
    </g>
    <g clip-path="url(#p9833859303)">
     <use xlink:href="#C0_0_a7d13c37d7" x="71.680092" y="65.375107" style="fill: #ff8c00; fill-opacity: 0.8"/>
    </g>
    <g clip-path="url(#p9833859303)">
     <use xlink:href="#C0_0_a7d13c37d7" x="55.427428" y="37.679527" style="fill: #ff8c00; fill-opacity: 0.8"/>
    </g>
    <g clip-path="url(#p9833859303)">
     <use xlink:href="#C0_0_a7d13c37d7" x="87.932756" y="65.920675" style="fill: #ff8c00; fill-opacity: 0.8"/>
    </g>
    <g clip-path="url(#p9833859303)">
     <use xlink:href="#C0_0_a7d13c37d7" x="79.806424" y="37.761635" style="fill: #ff8c00; fill-opacity: 0.8"/>
    </g>
    <g clip-path="url(#p9833859303)">
     <use xlink:href="#C0_0_a7d13c37d7" x="73.711675" y="72.174896" style="fill: #ff8c00; fill-opacity: 0.8"/>
    </g>
    <g clip-path="url(#p9833859303)">
     <use xlink:href="#C0_0_a7d13c37d7" x="67.616926" y="73.805188" style="fill: #ff8c00; fill-opacity: 0.8"/>
    </g>
    <g clip-path="url(#p9833859303)">
     <use xlink:href="#C0_0_a7d13c37d7" x="59.490594" y="30.661635" style="fill: #ff8c00; fill-opacity: 0.8"/>
    </g>
    <g clip-path="url(#p9833859303)">
     <use xlink:href="#C0_0_a7d13c37d7" x="73.711675" y="38.684082" style="fill: #ff8c00; fill-opacity: 0.8"/>
    </g>
    <g clip-path="url(#p9833859303)">
     <use xlink:href="#C0_0_a7d13c37d7" x="85.901173" y="63.294758" style="fill: #ff8c00; fill-opacity: 0.8"/>
    </g>
    <g clip-path="url(#p9833859303)">
     <use xlink:href="#C0_0_a7d13c37d7" x="57.459011" y="18.897743" style="fill: #ff8c00; fill-opacity: 0.8"/>
    </g>
    <g clip-path="url(#p9833859303)">
     <use xlink:href="#C0_0_a7d13c37d7" x="104.18542" y="40.268253" style="fill: #ff8c00; fill-opacity: 0.8"/>
    </g>
    <g clip-path="url(#p9833859303)">
     <use xlink:href="#C0_0_a7d13c37d7" x="51.364262" y="53.499056" style="fill: #ff8c00; fill-opacity: 0.8"/>
    </g>
    <g clip-path="url(#p9833859303)">
     <use xlink:href="#C0_0_a7d13c37d7" x="91.995922" y="59.20767" style="fill: #ff8c00; fill-opacity: 0.8"/>
    </g>
    <g clip-path="url(#p9833859303)">
     <use xlink:href="#C0_0_a7d13c37d7" x="85.901173" y="56.958847" style="fill: #ff8c00; fill-opacity: 0.8"/>
    </g>
    <g clip-path="url(#p9833859303)">
     <use xlink:href="#C0_0_a7d13c37d7" x="65.585343" y="49.162741" style="fill: #ff8c00; fill-opacity: 0.8"/>
    </g>
    <g clip-path="url(#p9833859303)">
     <use xlink:href="#C0_0_a7d13c37d7" x="85.901173" y="49.6301" style="fill: #ff8c00; fill-opacity: 0.8"/>
    </g>
    <g clip-path="url(#p9833859303)">
     <use xlink:href="#C0_0_a7d13c37d7" x="67.616926" y="44.178103" style="fill: #ff8c00; fill-opacity: 0.8"/>
    </g>
    <g clip-path="url(#p9833859303)">
     <use xlink:href="#C0_0_a7d13c37d7" x="79.806424" y="49.948659" style="fill: #ff8c00; fill-opacity: 0.8"/>
    </g>
    <g clip-path="url(#p9833859303)">
     <use xlink:href="#C0_0_a7d13c37d7" x="57.459011" y="32.133865" style="fill: #ff8c00; fill-opacity: 0.8"/>
    </g>
    <g clip-path="url(#p9833859303)">
     <use xlink:href="#C0_0_a7d13c37d7" x="106.217003" y="19.09069" style="fill: #ff8c00; fill-opacity: 0.8"/>
    </g>
    <g clip-path="url(#p9833859303)">
     <use xlink:href="#C0_0_a7d13c37d7" x="65.585343" y="65.414415" style="fill: #ff8c00; fill-opacity: 0.8"/>
    </g>
    <g clip-path="url(#p9833859303)">
     <use xlink:href="#C0_0_a7d13c37d7" x="47.301096" y="10.37171" style="fill: #ff8c00; fill-opacity: 0.8"/>
    </g>
    <g clip-path="url(#p9833859303)">
     <use xlink:href="#C0_0_a7d13c37d7" x="98.090671" y="51.160309" style="fill: #ff8c00; fill-opacity: 0.8"/>
    </g>
    <g clip-path="url(#p9833859303)">
     <use xlink:href="#C0_0_a7d13c37d7" x="63.55376" y="31.676942" style="fill: #ff8c00; fill-opacity: 0.8"/>
    </g>
    <g clip-path="url(#p9833859303)">
     <use xlink:href="#C0_0_a7d13c37d7" x="45.269513" y="50.530457" style="fill: #ff8c00; fill-opacity: 0.8"/>
    </g>
    <g clip-path="url(#p9833859303)">
     <use xlink:href="#C0_0_a7d13c37d7" x="87.932756" y="28.946841" style="fill: #ff8c00; fill-opacity: 0.8"/>
    </g>
    <g clip-path="url(#p9833859303)">
     <use xlink:href="#C0_0_a7d13c37d7" x="69.648509" y="60.935015" style="fill: #ff8c00; fill-opacity: 0.8"/>
    </g>
    <g clip-path="url(#p9833859303)">
     <use xlink:href="#C0_0_a7d13c37d7" x="45.269513" y="72.932615" style="fill: #ff8c00; fill-opacity: 0.8"/>
    </g>
    <g clip-path="url(#p9833859303)">
     <use xlink:href="#C0_0_a7d13c37d7" x="43.23793" y="22.699409" style="fill: #ff8c00; fill-opacity: 0.8"/>
    </g>
    <g clip-path="url(#p9833859303)">
     <use xlink:href="#C0_0_a7d13c37d7" x="81.838007" y="36.296411" style="fill: #ff8c00; fill-opacity: 0.8"/>
    </g>
    <g clip-path="url(#p9833859303)">
     <use xlink:href="#C0_0_a7d13c37d7" x="57.459011" y="41.488825" style="fill: #ff8c00; fill-opacity: 0.8"/>
    </g>
    <g clip-path="url(#p9833859303)">
     <use xlink:href="#C0_0_a7d13c37d7" x="55.427428" y="39.526051" style="fill: #ff8c00; fill-opacity: 0.8"/>
    </g>
    <g clip-path="url(#p9833859303)">
     <use xlink:href="#C0_0_a7d13c37d7" x="83.86959" y="36.058615" style="fill: #ff8c00; fill-opacity: 0.8"/>
    </g>
    <g clip-path="url(#p9833859303)">
     <use xlink:href="#C0_0_a7d13c37d7" x="75.743258" y="73.531542" style="fill: #ff8c00; fill-opacity: 0.8"/>
    </g>
    <g clip-path="url(#p9833859303)">
     <use xlink:href="#C0_0_a7d13c37d7" x="61.522177" y="60.565013" style="fill: #ff8c00; fill-opacity: 0.8"/>
    </g>
    <g clip-path="url(#p9833859303)">
     <use xlink:href="#C0_0_a7d13c37d7" x="61.522177" y="16.471283" style="fill: #ff8c00; fill-opacity: 0.8"/>
    </g>
    <g clip-path="url(#p9833859303)">
     <use xlink:href="#C0_0_a7d13c37d7" x="43.23793" y="35.452144" style="fill: #ff8c00; fill-opacity: 0.8"/>
    </g>
    <g clip-path="url(#p9833859303)">
     <use xlink:href="#C0_0_a7d13c37d7" x="67.616926" y="49.478514" style="fill: #ff8c00; fill-opacity: 0.8"/>
    </g>
    <g clip-path="url(#p9833859303)">
     <use xlink:href="#C0_0_a7d13c37d7" x="96.059088" y="60.265345" style="fill: #ff8c00; fill-opacity: 0.8"/>
    </g>
    <g clip-path="url(#p9833859303)">
     <use xlink:href="#C0_0_a7d13c37d7" x="55.427428" y="51.227906" style="fill: #ff8c00; fill-opacity: 0.8"/>
    </g>
    <g clip-path="url(#p9833859303)">
     <use xlink:href="#C0_0_a7d13c37d7" x="79.806424" y="52.270202" style="fill: #ff8c00; fill-opacity: 0.8"/>
    </g>
    <g clip-path="url(#p9833859303)">
     <use xlink:href="#C0_0_a7d13c37d7" x="59.490594" y="61.274538" style="fill: #ff8c00; fill-opacity: 0.8"/>
    </g>
    <g clip-path="url(#p9833859303)">
     <use xlink:href="#C0_0_a7d13c37d7" x="116.374918" y="36.081802" style="fill: #ff8c00; fill-opacity: 0.8"/>
    </g>
    <g clip-path="url(#p9833859303)">
     <use xlink:href="#C0_0_a7d13c37d7" x="49.332679" y="43.124808" style="fill: #ff8c00; fill-opacity: 0.8"/>
    </g>
    <g clip-path="url(#p9833859303)">
     <use xlink:href="#C0_0_a7d13c37d7" x="75.743258" y="85.408403" style="fill: #ff8c00; fill-opacity: 0.8"/>
    </g>
    <g clip-path="url(#p9833859303)">
     <use xlink:href="#C0_0_a7d13c37d7" x="75.743258" y="23.814944" style="fill: #ff8c00; fill-opacity: 0.8"/>
    </g>
    <g clip-path="url(#p9833859303)">
     <use xlink:href="#C0_0_a7d13c37d7" x="81.838007" y="42.424849" style="fill: #ff8c00; fill-opacity: 0.8"/>
    </g>
    <g clip-path="url(#p9833859303)">
     <use xlink:href="#C0_0_a7d13c37d7" x="81.838007" y="41.450636" style="fill: #ff8c00; fill-opacity: 0.8"/>
    </g>
    <g clip-path="url(#p9833859303)">
     <use xlink:href="#C0_0_a7d13c37d7" x="87.932756" y="47.035998" style="fill: #ff8c00; fill-opacity: 0.8"/>
    </g>
    <g clip-path="url(#p9833859303)">
     <use xlink:href="#C0_0_a7d13c37d7" x="53.395845" y="60.159052" style="fill: #ff8c00; fill-opacity: 0.8"/>
    </g>
    <g clip-path="url(#p9833859303)">
     <use xlink:href="#C0_0_a7d13c37d7" x="67.616926" y="27.456073" style="fill: #ff8c00; fill-opacity: 0.8"/>
    </g>
    <g clip-path="url(#p9833859303)">
     <use xlink:href="#C0_0_a7d13c37d7" x="114.343335" y="27.473463" style="fill: #ff8c00; fill-opacity: 0.8"/>
    </g>
    <g clip-path="url(#p9833859303)">
     <use xlink:href="#C0_0_a7d13c37d7" x="73.711675" y="60.014789" style="fill: #ff8c00; fill-opacity: 0.8"/>
    </g>
    <g clip-path="url(#p9833859303)">
     <use xlink:href="#C0_0_a7d13c37d7" x="41.206347" y="41.696758" style="fill: #ff8c00; fill-opacity: 0.8"/>
    </g>
    <g clip-path="url(#p9833859303)">
     <use xlink:href="#C0_0_a7d13c37d7" x="79.806424" y="55.876282" style="fill: #ff8c00; fill-opacity: 0.8"/>
    </g>
    <g clip-path="url(#p9833859303)">
     <use xlink:href="#C0_0_a7d13c37d7" x="75.743258" y="27.027981" style="fill: #ff8c00; fill-opacity: 0.8"/>
    </g>
    <g clip-path="url(#p9833859303)">
     <use xlink:href="#C0_0_a7d13c37d7" x="98.090671" y="27.944431" style="fill: #ff8c00; fill-opacity: 0.8"/>
    </g>
    <g clip-path="url(#p9833859303)">
     <use xlink:href="#C0_0_a7d13c37d7" x="69.648509" y="75.364818" style="fill: #ff8c00; fill-opacity: 0.8"/>
    </g>
   </g>
   <g id="PolyCollection_1">
    <path d="M 31.048432 39.905446 
L 31.048432 51.575779 
L 32.197611 51.469985 
L 33.346789 51.363189 
L 34.495967 51.274339 
L 35.645145 51.184161 
L 36.794324 51.097148 
L 37.943502 51.027205 
L 39.09268 50.937162 
L 40.241858 50.842986 
L 41.391037 50.756696 
L 42.540215 50.660506 
L 43.689393 50.573656 
L 44.838571 50.491442 
L 45.98775 50.408619 
L 47.136928 50.323497 
L 48.286106 50.24842 
L 49.435284 50.183434 
L 50.584463 50.113753 
L 51.733641 50.035287 
L 52.882819 49.957095 
L 54.031997 49.892109 
L 55.181176 49.823526 
L 56.330354 49.746649 
L 57.479532 49.698227 
L 58.62871 49.654442 
L 59.777889 49.615868 
L 60.927067 49.567576 
L 62.076245 49.51969 
L 63.225423 49.460418 
L 64.374602 49.438821 
L 65.52378 49.413146 
L 66.672958 49.398504 
L 67.822136 49.384946 
L 68.971315 49.392644 
L 70.120493 49.380898 
L 71.269671 49.420713 
L 72.418849 49.448372 
L 73.568028 49.507857 
L 74.717206 49.552041 
L 75.866384 49.635762 
L 77.015562 49.683394 
L 78.164741 49.738454 
L 79.313919 49.79976 
L 80.463097 49.893012 
L 81.612276 49.962068 
L 82.761454 50.051513 
L 83.910632 50.152313 
L 85.05981 50.230127 
L 86.208989 50.347081 
L 87.358167 50.451878 
L 88.507345 50.548654 
L 89.656523 50.654046 
L 90.805702 50.778274 
L 91.95488 50.907182 
L 93.104058 51.032148 
L 94.253236 51.186519 
L 95.402415 51.321879 
L 96.551593 51.465298 
L 97.700771 51.591073 
L 98.849949 51.730055 
L 99.999128 51.880633 
L 101.148306 52.021774 
L 102.297484 52.159047 
L 103.446662 52.326662 
L 104.595841 52.491431 
L 105.745019 52.649165 
L 106.894197 52.818257 
L 108.043375 52.982297 
L 109.192554 53.158534 
L 110.341732 53.31491 
L 111.49091 53.454085 
L 112.640088 53.614449 
L 113.789267 53.782574 
L 114.938445 53.933012 
L 116.087623 54.088297 
L 117.236801 54.258457 
L 118.38598 54.412752 
L 119.535158 54.552383 
L 120.684336 54.712022 
L 121.833514 54.890324 
L 122.982693 55.047451 
L 124.131871 55.221063 
L 125.281049 55.369337 
L 126.430227 55.540831 
L 127.579406 55.717227 
L 128.728584 55.877359 
L 129.877762 56.059981 
L 131.02694 56.240582 
L 132.176119 56.411262 
L 133.325297 56.576777 
L 134.474475 56.745799 
L 135.623653 56.917338 
L 136.772832 57.088453 
L 137.92201 57.246345 
L 139.071188 57.404376 
L 140.220366 57.562953 
L 141.369545 57.727784 
L 142.518723 57.878863 
L 143.667901 58.048583 
L 144.817079 58.239153 
L 144.817079 39.990153 
L 144.817079 39.990153 
L 143.667901 40.079704 
L 142.518723 40.151251 
L 141.369545 40.258187 
L 140.220366 40.363365 
L 139.071188 40.455512 
L 137.92201 40.561938 
L 136.772832 40.63662 
L 135.623653 40.75043 
L 134.474475 40.847211 
L 133.325297 40.937323 
L 132.176119 41.043457 
L 131.02694 41.150902 
L 129.877762 41.250878 
L 128.728584 41.339373 
L 127.579406 41.444805 
L 126.430227 41.517763 
L 125.281049 41.57837 
L 124.131871 41.680639 
L 122.982693 41.784158 
L 121.833514 41.870954 
L 120.684336 41.981308 
L 119.535158 42.090264 
L 118.38598 42.181232 
L 117.236801 42.288915 
L 116.087623 42.396323 
L 114.938445 42.469832 
L 113.789267 42.570269 
L 112.640088 42.660071 
L 111.49091 42.758265 
L 110.341732 42.853052 
L 109.192554 42.923137 
L 108.043375 43.027624 
L 106.894197 43.12238 
L 105.745019 43.185612 
L 104.595841 43.283573 
L 103.446662 43.365809 
L 102.297484 43.451592 
L 101.148306 43.534893 
L 99.999128 43.605015 
L 98.849949 43.696086 
L 97.700771 43.764152 
L 96.551593 43.853424 
L 95.402415 43.933983 
L 94.253236 43.982135 
L 93.104058 44.054635 
L 91.95488 44.094327 
L 90.805702 44.15038 
L 89.656523 44.207772 
L 88.507345 44.230123 
L 87.358167 44.296969 
L 86.208989 44.340892 
L 85.05981 44.374804 
L 83.910632 44.405289 
L 82.761454 44.43124 
L 81.612276 44.457213 
L 80.463097 44.485387 
L 79.313919 44.503241 
L 78.164741 44.480024 
L 77.015562 44.483491 
L 75.866384 44.470892 
L 74.717206 44.441706 
L 73.568028 44.402684 
L 72.418849 44.372874 
L 71.269671 44.332883 
L 70.120493 44.282369 
L 68.971315 44.232501 
L 67.822136 44.163861 
L 66.672958 44.095691 
L 65.52378 44.035491 
L 64.374602 43.952918 
L 63.225423 43.859503 
L 62.076245 43.760746 
L 60.927067 43.66792 
L 59.777889 43.547794 
L 58.62871 43.428625 
L 57.479532 43.307005 
L 56.330354 43.198449 
L 55.181176 43.06436 
L 54.031997 42.916797 
L 52.882819 42.785509 
L 51.733641 42.639374 
L 50.584463 42.497972 
L 49.435284 42.359877 
L 48.286106 42.217079 
L 47.136928 42.074204 
L 45.98775 41.953594 
L 44.838571 41.813616 
L 43.689393 41.668222 
L 42.540215 41.518038 
L 41.391037 41.385389 
L 40.241858 41.24319 
L 39.09268 41.071842 
L 37.943502 40.923683 
L 36.794324 40.765528 
L 35.645145 40.590312 
L 34.495967 40.404512 
L 33.346789 40.257264 
L 32.197611 40.077138 
L 31.048432 39.905446 
z
" clip-path="url(#p9833859303)" style="fill: #ff8c00; fill-opacity: 0.15"/>
   </g>
   <g id="matplotlib.axis_1">
    <g id="xtick_1">
     <g id="line2d_1">
      <defs>
       <path id="m7ee7b47917" d="M 0 0 
L 0 3.5 
" style="stroke: #000000; stroke-width: 0.25"/>
      </defs>
      <g>
       <use xlink:href="#m7ee7b47917" x="43.23793" y="89.218327" style="stroke: #000000; stroke-width: 0.25"/>
      </g>
     </g>
     <g id="text_1">
      <!-- 30 -->
      <g transform="translate(40.457462 97.297233) scale(0.05 -0.05)">
       <defs>
        <path id="ArialMT-33" d="M 269 1209 
L 831 1284 
Q 928 806 1161 595 
Q 1394 384 1728 384 
Q 2125 384 2398 659 
Q 2672 934 2672 1341 
Q 2672 1728 2419 1979 
Q 2166 2231 1775 2231 
Q 1616 2231 1378 2169 
L 1441 2663 
Q 1497 2656 1531 2656 
Q 1891 2656 2178 2843 
Q 2466 3031 2466 3422 
Q 2466 3731 2256 3934 
Q 2047 4138 1716 4138 
Q 1388 4138 1169 3931 
Q 950 3725 888 3313 
L 325 3413 
Q 428 3978 793 4289 
Q 1159 4600 1703 4600 
Q 2078 4600 2393 4439 
Q 2709 4278 2876 4000 
Q 3044 3722 3044 3409 
Q 3044 3113 2884 2869 
Q 2725 2625 2413 2481 
Q 2819 2388 3044 2092 
Q 3269 1797 3269 1353 
Q 3269 753 2831 336 
Q 2394 -81 1725 -81 
Q 1122 -81 723 278 
Q 325 638 269 1209 
z
" transform="scale(0.015625)"/>
        <path id="ArialMT-30" d="M 266 2259 
Q 266 3072 433 3567 
Q 600 4063 929 4331 
Q 1259 4600 1759 4600 
Q 2128 4600 2406 4451 
Q 2684 4303 2865 4023 
Q 3047 3744 3150 3342 
Q 3253 2941 3253 2259 
Q 3253 1453 3087 958 
Q 2922 463 2592 192 
Q 2263 -78 1759 -78 
Q 1097 -78 719 397 
Q 266 969 266 2259 
z
M 844 2259 
Q 844 1131 1108 757 
Q 1372 384 1759 384 
Q 2147 384 2411 759 
Q 2675 1134 2675 2259 
Q 2675 3391 2411 3762 
Q 2147 4134 1753 4134 
Q 1366 4134 1134 3806 
Q 844 3388 844 2259 
z
" transform="scale(0.015625)"/>
       </defs>
       <use xlink:href="#ArialMT-33"/>
       <use xlink:href="#ArialMT-30" x="55.615234"/>
      </g>
     </g>
    </g>
    <g id="xtick_2">
     <g id="line2d_2">
      <g>
       <use xlink:href="#m7ee7b47917" x="63.55376" y="89.218327" style="stroke: #000000; stroke-width: 0.25"/>
      </g>
     </g>
     <g id="text_2">
      <!-- 40 -->
      <g transform="translate(60.773291 97.297233) scale(0.05 -0.05)">
       <defs>
        <path id="ArialMT-34" d="M 2069 0 
L 2069 1097 
L 81 1097 
L 81 1613 
L 2172 4581 
L 2631 4581 
L 2631 1613 
L 3250 1613 
L 3250 1097 
L 2631 1097 
L 2631 0 
L 2069 0 
z
M 2069 1613 
L 2069 3678 
L 634 1613 
L 2069 1613 
z
" transform="scale(0.015625)"/>
       </defs>
       <use xlink:href="#ArialMT-34"/>
       <use xlink:href="#ArialMT-30" x="55.615234"/>
      </g>
     </g>
    </g>
    <g id="xtick_3">
     <g id="line2d_3">
      <g>
       <use xlink:href="#m7ee7b47917" x="83.86959" y="89.218327" style="stroke: #000000; stroke-width: 0.25"/>
      </g>
     </g>
     <g id="text_3">
      <!-- 50 -->
      <g transform="translate(81.089121 97.297233) scale(0.05 -0.05)">
       <defs>
        <path id="ArialMT-35" d="M 266 1200 
L 856 1250 
Q 922 819 1161 601 
Q 1400 384 1738 384 
Q 2144 384 2425 690 
Q 2706 997 2706 1503 
Q 2706 1984 2436 2262 
Q 2166 2541 1728 2541 
Q 1456 2541 1237 2417 
Q 1019 2294 894 2097 
L 366 2166 
L 809 4519 
L 3088 4519 
L 3088 3981 
L 1259 3981 
L 1013 2750 
Q 1425 3038 1878 3038 
Q 2478 3038 2890 2622 
Q 3303 2206 3303 1553 
Q 3303 931 2941 478 
Q 2500 -78 1738 -78 
Q 1113 -78 717 272 
Q 322 622 266 1200 
z
" transform="scale(0.015625)"/>
       </defs>
       <use xlink:href="#ArialMT-35"/>
       <use xlink:href="#ArialMT-30" x="55.615234"/>
      </g>
     </g>
    </g>
    <g id="xtick_4">
     <g id="line2d_4">
      <g>
       <use xlink:href="#m7ee7b47917" x="104.18542" y="89.218327" style="stroke: #000000; stroke-width: 0.25"/>
      </g>
     </g>
     <g id="text_4">
      <!-- 60 -->
      <g transform="translate(101.404951 97.297233) scale(0.05 -0.05)">
       <defs>
        <path id="ArialMT-36" d="M 3184 3459 
L 2625 3416 
Q 2550 3747 2413 3897 
Q 2184 4138 1850 4138 
Q 1581 4138 1378 3988 
Q 1113 3794 959 3422 
Q 806 3050 800 2363 
Q 1003 2672 1297 2822 
Q 1591 2972 1913 2972 
Q 2475 2972 2870 2558 
Q 3266 2144 3266 1488 
Q 3266 1056 3080 686 
Q 2894 316 2569 119 
Q 2244 -78 1831 -78 
Q 1128 -78 684 439 
Q 241 956 241 2144 
Q 241 3472 731 4075 
Q 1159 4600 1884 4600 
Q 2425 4600 2770 4297 
Q 3116 3994 3184 3459 
z
M 888 1484 
Q 888 1194 1011 928 
Q 1134 663 1356 523 
Q 1578 384 1822 384 
Q 2178 384 2434 671 
Q 2691 959 2691 1453 
Q 2691 1928 2437 2201 
Q 2184 2475 1800 2475 
Q 1419 2475 1153 2201 
Q 888 1928 888 1484 
z
" transform="scale(0.015625)"/>
       </defs>
       <use xlink:href="#ArialMT-36"/>
       <use xlink:href="#ArialMT-30" x="55.615234"/>
      </g>
     </g>
    </g>
    <g id="xtick_5">
     <g id="line2d_5">
      <g>
       <use xlink:href="#m7ee7b47917" x="124.50125" y="89.218327" style="stroke: #000000; stroke-width: 0.25"/>
      </g>
     </g>
     <g id="text_5">
      <!-- 70 -->
      <g transform="translate(121.720781 97.297233) scale(0.05 -0.05)">
       <defs>
        <path id="ArialMT-37" d="M 303 3981 
L 303 4522 
L 3269 4522 
L 3269 4084 
Q 2831 3619 2401 2847 
Q 1972 2075 1738 1259 
Q 1569 684 1522 0 
L 944 0 
Q 953 541 1156 1306 
Q 1359 2072 1739 2783 
Q 2119 3494 2547 3981 
L 303 3981 
z
" transform="scale(0.015625)"/>
       </defs>
       <use xlink:href="#ArialMT-37"/>
       <use xlink:href="#ArialMT-30" x="55.615234"/>
      </g>
     </g>
    </g>
    <g id="xtick_6">
     <g id="line2d_6">
      <g>
       <use xlink:href="#m7ee7b47917" x="144.817079" y="89.218327" style="stroke: #000000; stroke-width: 0.25"/>
      </g>
     </g>
     <g id="text_6">
      <!-- 80 -->
      <g transform="translate(142.036611 97.297233) scale(0.05 -0.05)">
       <defs>
        <path id="ArialMT-38" d="M 1131 2484 
Q 781 2613 612 2850 
Q 444 3088 444 3419 
Q 444 3919 803 4259 
Q 1163 4600 1759 4600 
Q 2359 4600 2725 4251 
Q 3091 3903 3091 3403 
Q 3091 3084 2923 2848 
Q 2756 2613 2416 2484 
Q 2838 2347 3058 2040 
Q 3278 1734 3278 1309 
Q 3278 722 2862 322 
Q 2447 -78 1769 -78 
Q 1091 -78 675 323 
Q 259 725 259 1325 
Q 259 1772 486 2073 
Q 713 2375 1131 2484 
z
M 1019 3438 
Q 1019 3113 1228 2906 
Q 1438 2700 1772 2700 
Q 2097 2700 2305 2904 
Q 2513 3109 2513 3406 
Q 2513 3716 2298 3927 
Q 2084 4138 1766 4138 
Q 1444 4138 1231 3931 
Q 1019 3725 1019 3438 
z
M 838 1322 
Q 838 1081 952 856 
Q 1066 631 1291 507 
Q 1516 384 1775 384 
Q 2178 384 2440 643 
Q 2703 903 2703 1303 
Q 2703 1709 2433 1975 
Q 2163 2241 1756 2241 
Q 1359 2241 1098 1978 
Q 838 1716 838 1322 
z
" transform="scale(0.015625)"/>
       </defs>
       <use xlink:href="#ArialMT-38"/>
       <use xlink:href="#ArialMT-30" x="55.615234"/>
      </g>
     </g>
    </g>
    <g id="text_7">
     <!-- NIH cognition score [a.u.] -->
     <g transform="translate(54.252131 106.585671) scale(0.06 -0.06)">
      <defs>
       <path id="ArialMT-4e" d="M 488 0 
L 488 4581 
L 1109 4581 
L 3516 984 
L 3516 4581 
L 4097 4581 
L 4097 0 
L 3475 0 
L 1069 3600 
L 1069 0 
L 488 0 
z
" transform="scale(0.015625)"/>
       <path id="ArialMT-49" d="M 597 0 
L 597 4581 
L 1203 4581 
L 1203 0 
L 597 0 
z
" transform="scale(0.015625)"/>
       <path id="ArialMT-48" d="M 513 0 
L 513 4581 
L 1119 4581 
L 1119 2700 
L 3500 2700 
L 3500 4581 
L 4106 4581 
L 4106 0 
L 3500 0 
L 3500 2159 
L 1119 2159 
L 1119 0 
L 513 0 
z
" transform="scale(0.015625)"/>
       <path id="ArialMT-20" transform="scale(0.015625)"/>
       <path id="ArialMT-63" d="M 2588 1216 
L 3141 1144 
Q 3050 572 2676 248 
Q 2303 -75 1759 -75 
Q 1078 -75 664 370 
Q 250 816 250 1647 
Q 250 2184 428 2587 
Q 606 2991 970 3192 
Q 1334 3394 1763 3394 
Q 2303 3394 2647 3120 
Q 2991 2847 3088 2344 
L 2541 2259 
Q 2463 2594 2264 2762 
Q 2066 2931 1784 2931 
Q 1359 2931 1093 2626 
Q 828 2322 828 1663 
Q 828 994 1084 691 
Q 1341 388 1753 388 
Q 2084 388 2306 591 
Q 2528 794 2588 1216 
z
" transform="scale(0.015625)"/>
       <path id="ArialMT-6f" d="M 213 1659 
Q 213 2581 725 3025 
Q 1153 3394 1769 3394 
Q 2453 3394 2887 2945 
Q 3322 2497 3322 1706 
Q 3322 1066 3130 698 
Q 2938 331 2570 128 
Q 2203 -75 1769 -75 
Q 1072 -75 642 372 
Q 213 819 213 1659 
z
M 791 1659 
Q 791 1022 1069 705 
Q 1347 388 1769 388 
Q 2188 388 2466 706 
Q 2744 1025 2744 1678 
Q 2744 2294 2464 2611 
Q 2184 2928 1769 2928 
Q 1347 2928 1069 2612 
Q 791 2297 791 1659 
z
" transform="scale(0.015625)"/>
       <path id="ArialMT-67" d="M 319 -275 
L 866 -356 
Q 900 -609 1056 -725 
Q 1266 -881 1628 -881 
Q 2019 -881 2231 -725 
Q 2444 -569 2519 -288 
Q 2563 -116 2559 434 
Q 2191 0 1641 0 
Q 956 0 581 494 
Q 206 988 206 1678 
Q 206 2153 378 2554 
Q 550 2956 876 3175 
Q 1203 3394 1644 3394 
Q 2231 3394 2613 2919 
L 2613 3319 
L 3131 3319 
L 3131 450 
Q 3131 -325 2973 -648 
Q 2816 -972 2473 -1159 
Q 2131 -1347 1631 -1347 
Q 1038 -1347 672 -1080 
Q 306 -813 319 -275 
z
M 784 1719 
Q 784 1066 1043 766 
Q 1303 466 1694 466 
Q 2081 466 2343 764 
Q 2606 1063 2606 1700 
Q 2606 2309 2336 2618 
Q 2066 2928 1684 2928 
Q 1309 2928 1046 2623 
Q 784 2319 784 1719 
z
" transform="scale(0.015625)"/>
       <path id="ArialMT-6e" d="M 422 0 
L 422 3319 
L 928 3319 
L 928 2847 
Q 1294 3394 1984 3394 
Q 2284 3394 2536 3286 
Q 2788 3178 2913 3003 
Q 3038 2828 3088 2588 
Q 3119 2431 3119 2041 
L 3119 0 
L 2556 0 
L 2556 2019 
Q 2556 2363 2490 2533 
Q 2425 2703 2258 2804 
Q 2091 2906 1866 2906 
Q 1506 2906 1245 2678 
Q 984 2450 984 1813 
L 984 0 
L 422 0 
z
" transform="scale(0.015625)"/>
       <path id="ArialMT-69" d="M 425 3934 
L 425 4581 
L 988 4581 
L 988 3934 
L 425 3934 
z
M 425 0 
L 425 3319 
L 988 3319 
L 988 0 
L 425 0 
z
" transform="scale(0.015625)"/>
       <path id="ArialMT-74" d="M 1650 503 
L 1731 6 
Q 1494 -44 1306 -44 
Q 1000 -44 831 53 
Q 663 150 594 308 
Q 525 466 525 972 
L 525 2881 
L 113 2881 
L 113 3319 
L 525 3319 
L 525 4141 
L 1084 4478 
L 1084 3319 
L 1650 3319 
L 1650 2881 
L 1084 2881 
L 1084 941 
Q 1084 700 1114 631 
Q 1144 563 1211 522 
Q 1278 481 1403 481 
Q 1497 481 1650 503 
z
" transform="scale(0.015625)"/>
       <path id="ArialMT-73" d="M 197 991 
L 753 1078 
Q 800 744 1014 566 
Q 1228 388 1613 388 
Q 2000 388 2187 545 
Q 2375 703 2375 916 
Q 2375 1106 2209 1216 
Q 2094 1291 1634 1406 
Q 1016 1563 777 1677 
Q 538 1791 414 1992 
Q 291 2194 291 2438 
Q 291 2659 392 2848 
Q 494 3038 669 3163 
Q 800 3259 1026 3326 
Q 1253 3394 1513 3394 
Q 1903 3394 2198 3281 
Q 2494 3169 2634 2976 
Q 2775 2784 2828 2463 
L 2278 2388 
Q 2241 2644 2061 2787 
Q 1881 2931 1553 2931 
Q 1166 2931 1000 2803 
Q 834 2675 834 2503 
Q 834 2394 903 2306 
Q 972 2216 1119 2156 
Q 1203 2125 1616 2013 
Q 2213 1853 2448 1751 
Q 2684 1650 2818 1456 
Q 2953 1263 2953 975 
Q 2953 694 2789 445 
Q 2625 197 2315 61 
Q 2006 -75 1616 -75 
Q 969 -75 630 194 
Q 291 463 197 991 
z
" transform="scale(0.015625)"/>
       <path id="ArialMT-72" d="M 416 0 
L 416 3319 
L 922 3319 
L 922 2816 
Q 1116 3169 1280 3281 
Q 1444 3394 1641 3394 
Q 1925 3394 2219 3213 
L 2025 2691 
Q 1819 2813 1613 2813 
Q 1428 2813 1281 2702 
Q 1134 2591 1072 2394 
Q 978 2094 978 1738 
L 978 0 
L 416 0 
z
" transform="scale(0.015625)"/>
       <path id="ArialMT-65" d="M 2694 1069 
L 3275 997 
Q 3138 488 2766 206 
Q 2394 -75 1816 -75 
Q 1088 -75 661 373 
Q 234 822 234 1631 
Q 234 2469 665 2931 
Q 1097 3394 1784 3394 
Q 2450 3394 2872 2941 
Q 3294 2488 3294 1666 
Q 3294 1616 3291 1516 
L 816 1516 
Q 847 969 1125 678 
Q 1403 388 1819 388 
Q 2128 388 2347 550 
Q 2566 713 2694 1069 
z
M 847 1978 
L 2700 1978 
Q 2663 2397 2488 2606 
Q 2219 2931 1791 2931 
Q 1403 2931 1139 2672 
Q 875 2413 847 1978 
z
" transform="scale(0.015625)"/>
       <path id="ArialMT-5b" d="M 434 -1272 
L 434 4581 
L 1675 4581 
L 1675 4116 
L 997 4116 
L 997 -806 
L 1675 -806 
L 1675 -1272 
L 434 -1272 
z
" transform="scale(0.015625)"/>
       <path id="ArialMT-61" d="M 2588 409 
Q 2275 144 1986 34 
Q 1697 -75 1366 -75 
Q 819 -75 525 192 
Q 231 459 231 875 
Q 231 1119 342 1320 
Q 453 1522 633 1644 
Q 813 1766 1038 1828 
Q 1203 1872 1538 1913 
Q 2219 1994 2541 2106 
Q 2544 2222 2544 2253 
Q 2544 2597 2384 2738 
Q 2169 2928 1744 2928 
Q 1347 2928 1158 2789 
Q 969 2650 878 2297 
L 328 2372 
Q 403 2725 575 2942 
Q 747 3159 1072 3276 
Q 1397 3394 1825 3394 
Q 2250 3394 2515 3294 
Q 2781 3194 2906 3042 
Q 3031 2891 3081 2659 
Q 3109 2516 3109 2141 
L 3109 1391 
Q 3109 606 3145 398 
Q 3181 191 3288 0 
L 2700 0 
Q 2613 175 2588 409 
z
M 2541 1666 
Q 2234 1541 1622 1453 
Q 1275 1403 1131 1340 
Q 988 1278 909 1158 
Q 831 1038 831 891 
Q 831 666 1001 516 
Q 1172 366 1500 366 
Q 1825 366 2078 508 
Q 2331 650 2450 897 
Q 2541 1088 2541 1459 
L 2541 1666 
z
" transform="scale(0.015625)"/>
       <path id="ArialMT-2e" d="M 581 0 
L 581 641 
L 1222 641 
L 1222 0 
L 581 0 
z
" transform="scale(0.015625)"/>
       <path id="ArialMT-75" d="M 2597 0 
L 2597 488 
Q 2209 -75 1544 -75 
Q 1250 -75 995 37 
Q 741 150 617 320 
Q 494 491 444 738 
Q 409 903 409 1263 
L 409 3319 
L 972 3319 
L 972 1478 
Q 972 1038 1006 884 
Q 1059 663 1231 536 
Q 1403 409 1656 409 
Q 1909 409 2131 539 
Q 2353 669 2445 892 
Q 2538 1116 2538 1541 
L 2538 3319 
L 3100 3319 
L 3100 0 
L 2597 0 
z
" transform="scale(0.015625)"/>
       <path id="ArialMT-5d" d="M 1363 -1272 
L 122 -1272 
L 122 -806 
L 800 -806 
L 800 4116 
L 122 4116 
L 122 4581 
L 1363 4581 
L 1363 -1272 
z
" transform="scale(0.015625)"/>
      </defs>
      <use xlink:href="#ArialMT-4e"/>
      <use xlink:href="#ArialMT-49" x="72.216797"/>
      <use xlink:href="#ArialMT-48" x="100"/>
      <use xlink:href="#ArialMT-20" x="172.216797"/>
      <use xlink:href="#ArialMT-63" x="200"/>
      <use xlink:href="#ArialMT-6f" x="250"/>
      <use xlink:href="#ArialMT-67" x="305.615234"/>
      <use xlink:href="#ArialMT-6e" x="361.230469"/>
      <use xlink:href="#ArialMT-69" x="416.845703"/>
      <use xlink:href="#ArialMT-74" x="439.0625"/>
      <use xlink:href="#ArialMT-69" x="466.845703"/>
      <use xlink:href="#ArialMT-6f" x="489.0625"/>
      <use xlink:href="#ArialMT-6e" x="544.677734"/>
      <use xlink:href="#ArialMT-20" x="600.292969"/>
      <use xlink:href="#ArialMT-73" x="628.076172"/>
      <use xlink:href="#ArialMT-63" x="678.076172"/>
      <use xlink:href="#ArialMT-6f" x="728.076172"/>
      <use xlink:href="#ArialMT-72" x="783.691406"/>
      <use xlink:href="#ArialMT-65" x="816.992188"/>
      <use xlink:href="#ArialMT-20" x="872.607422"/>
      <use xlink:href="#ArialMT-5b" x="900.390625"/>
      <use xlink:href="#ArialMT-61" x="928.173828"/>
      <use xlink:href="#ArialMT-2e" x="983.789062"/>
      <use xlink:href="#ArialMT-75" x="1011.572266"/>
      <use xlink:href="#ArialMT-2e" x="1067.1875"/>
      <use xlink:href="#ArialMT-5d" x="1094.970703"/>
     </g>
    </g>
   </g>
   <g id="matplotlib.axis_2">
    <g id="ytick_1">
     <g id="line2d_7">
      <defs>
       <path id="mfa91aebc52" d="M 0 0 
L -3.5 0 
" style="stroke: #000000; stroke-width: 0.25"/>
      </defs>
      <g>
       <use xlink:href="#mfa91aebc52" x="25.36" y="79.063301" style="stroke: #000000; stroke-width: 0.25"/>
      </g>
     </g>
     <g id="text_8">
      <!-- −2 -->
      <g transform="translate(15.159219 80.852754) scale(0.05 -0.05)">
       <defs>
        <path id="ArialMT-2212" d="M 3381 1997 
L 356 1997 
L 356 2522 
L 3381 2522 
L 3381 1997 
z
" transform="scale(0.015625)"/>
        <path id="ArialMT-32" d="M 3222 541 
L 3222 0 
L 194 0 
Q 188 203 259 391 
Q 375 700 629 1000 
Q 884 1300 1366 1694 
Q 2113 2306 2375 2664 
Q 2638 3022 2638 3341 
Q 2638 3675 2398 3904 
Q 2159 4134 1775 4134 
Q 1369 4134 1125 3890 
Q 881 3647 878 3216 
L 300 3275 
Q 359 3922 746 4261 
Q 1134 4600 1788 4600 
Q 2447 4600 2831 4234 
Q 3216 3869 3216 3328 
Q 3216 3053 3103 2787 
Q 2991 2522 2730 2228 
Q 2469 1934 1863 1422 
Q 1356 997 1212 845 
Q 1069 694 975 541 
L 3222 541 
z
" transform="scale(0.015625)"/>
       </defs>
       <use xlink:href="#ArialMT-2212"/>
       <use xlink:href="#ArialMT-32" x="58.398438"/>
      </g>
     </g>
    </g>
    <g id="ytick_2">
     <g id="line2d_8">
      <g>
       <use xlink:href="#mfa91aebc52" x="25.36" y="63.290718" style="stroke: #000000; stroke-width: 0.25"/>
      </g>
     </g>
     <g id="text_9">
      <!-- −1 -->
      <g transform="translate(15.159219 65.080171) scale(0.05 -0.05)">
       <defs>
        <path id="ArialMT-31" d="M 2384 0 
L 1822 0 
L 1822 3584 
Q 1619 3391 1289 3197 
Q 959 3003 697 2906 
L 697 3450 
Q 1169 3672 1522 3987 
Q 1875 4303 2022 4600 
L 2384 4600 
L 2384 0 
z
" transform="scale(0.015625)"/>
       </defs>
       <use xlink:href="#ArialMT-2212"/>
       <use xlink:href="#ArialMT-31" x="58.398438"/>
      </g>
     </g>
    </g>
    <g id="ytick_3">
     <g id="line2d_9">
      <g>
       <use xlink:href="#mfa91aebc52" x="25.36" y="47.518135" style="stroke: #000000; stroke-width: 0.25"/>
      </g>
     </g>
     <g id="text_10">
      <!-- 0 -->
      <g transform="translate(18.079531 49.307588) scale(0.05 -0.05)">
       <use xlink:href="#ArialMT-30"/>
      </g>
     </g>
    </g>
    <g id="ytick_4">
     <g id="line2d_10">
      <g>
       <use xlink:href="#mfa91aebc52" x="25.36" y="31.745552" style="stroke: #000000; stroke-width: 0.25"/>
      </g>
     </g>
     <g id="text_11">
      <!-- 1 -->
      <g transform="translate(18.079531 33.535005) scale(0.05 -0.05)">
       <use xlink:href="#ArialMT-31"/>
      </g>
     </g>
    </g>
    <g id="ytick_5">
     <g id="line2d_11">
      <g>
       <use xlink:href="#mfa91aebc52" x="25.36" y="15.97297" style="stroke: #000000; stroke-width: 0.25"/>
      </g>
     </g>
     <g id="text_12">
      <!-- 2 -->
      <g transform="translate(18.079531 17.762423) scale(0.05 -0.05)">
       <use xlink:href="#ArialMT-32"/>
      </g>
     </g>
    </g>
    <g id="text_13">
     <!-- CTh PC1 -->
     <g transform="translate(9.966719 59.645726) rotate(-90) scale(0.06 -0.06)">
      <defs>
       <path id="ArialMT-43" d="M 3763 1606 
L 4369 1453 
Q 4178 706 3683 314 
Q 3188 -78 2472 -78 
Q 1731 -78 1267 223 
Q 803 525 561 1097 
Q 319 1669 319 2325 
Q 319 3041 592 3573 
Q 866 4106 1370 4382 
Q 1875 4659 2481 4659 
Q 3169 4659 3637 4309 
Q 4106 3959 4291 3325 
L 3694 3184 
Q 3534 3684 3231 3912 
Q 2928 4141 2469 4141 
Q 1941 4141 1586 3887 
Q 1231 3634 1087 3207 
Q 944 2781 944 2328 
Q 944 1744 1114 1308 
Q 1284 872 1643 656 
Q 2003 441 2422 441 
Q 2931 441 3284 734 
Q 3638 1028 3763 1606 
z
" transform="scale(0.015625)"/>
       <path id="ArialMT-54" d="M 1659 0 
L 1659 4041 
L 150 4041 
L 150 4581 
L 3781 4581 
L 3781 4041 
L 2266 4041 
L 2266 0 
L 1659 0 
z
" transform="scale(0.015625)"/>
       <path id="ArialMT-68" d="M 422 0 
L 422 4581 
L 984 4581 
L 984 2938 
Q 1378 3394 1978 3394 
Q 2347 3394 2619 3248 
Q 2891 3103 3008 2847 
Q 3125 2591 3125 2103 
L 3125 0 
L 2563 0 
L 2563 2103 
Q 2563 2525 2380 2717 
Q 2197 2909 1863 2909 
Q 1613 2909 1392 2779 
Q 1172 2650 1078 2428 
Q 984 2206 984 1816 
L 984 0 
L 422 0 
z
" transform="scale(0.015625)"/>
       <path id="ArialMT-50" d="M 494 0 
L 494 4581 
L 2222 4581 
Q 2678 4581 2919 4538 
Q 3256 4481 3484 4323 
Q 3713 4166 3852 3881 
Q 3991 3597 3991 3256 
Q 3991 2672 3619 2267 
Q 3247 1863 2275 1863 
L 1100 1863 
L 1100 0 
L 494 0 
z
M 1100 2403 
L 2284 2403 
Q 2872 2403 3119 2622 
Q 3366 2841 3366 3238 
Q 3366 3525 3220 3729 
Q 3075 3934 2838 4000 
Q 2684 4041 2272 4041 
L 1100 4041 
L 1100 2403 
z
" transform="scale(0.015625)"/>
      </defs>
      <use xlink:href="#ArialMT-43"/>
      <use xlink:href="#ArialMT-54" x="72.216797"/>
      <use xlink:href="#ArialMT-68" x="133.300781"/>
      <use xlink:href="#ArialMT-20" x="188.916016"/>
      <use xlink:href="#ArialMT-50" x="216.699219"/>
      <use xlink:href="#ArialMT-43" x="283.398438"/>
      <use xlink:href="#ArialMT-31" x="355.615234"/>
     </g>
    </g>
   </g>
   <g id="line2d_12">
    <path d="M 31.048432 45.875379 
L 32.197611 45.903646 
L 33.346789 45.931913 
L 34.495967 45.96018 
L 35.645145 45.988448 
L 36.794324 46.016715 
L 37.943502 46.044982 
L 39.09268 46.073249 
L 40.241858 46.101516 
L 41.391037 46.129784 
L 42.540215 46.158051 
L 43.689393 46.186318 
L 44.838571 46.214585 
L 45.98775 46.242853 
L 47.136928 46.27112 
L 48.286106 46.299387 
L 49.435284 46.327654 
L 50.584463 46.355921 
L 51.733641 46.384189 
L 52.882819 46.412456 
L 54.031997 46.440723 
L 55.181176 46.46899 
L 56.330354 46.497257 
L 57.479532 46.525525 
L 58.62871 46.553792 
L 59.777889 46.582059 
L 60.927067 46.610326 
L 62.076245 46.638594 
L 63.225423 46.666861 
L 64.374602 46.695128 
L 65.52378 46.723395 
L 66.672958 46.751662 
L 67.822136 46.77993 
L 68.971315 46.808197 
L 70.120493 46.836464 
L 71.269671 46.864731 
L 72.418849 46.892999 
L 73.568028 46.921266 
L 74.717206 46.949533 
L 75.866384 46.9778 
L 77.015562 47.006067 
L 78.164741 47.034335 
L 79.313919 47.062602 
L 80.463097 47.090869 
L 81.612276 47.119136 
L 82.761454 47.147403 
L 83.910632 47.175671 
L 85.05981 47.203938 
L 86.208989 47.232205 
L 87.358167 47.260472 
L 88.507345 47.28874 
L 89.656523 47.317007 
L 90.805702 47.345274 
L 91.95488 47.373541 
L 93.104058 47.401808 
L 94.253236 47.430076 
L 95.402415 47.458343 
L 96.551593 47.48661 
L 97.700771 47.514877 
L 98.849949 47.543145 
L 99.999128 47.571412 
L 101.148306 47.599679 
L 102.297484 47.627946 
L 103.446662 47.656213 
L 104.595841 47.684481 
L 105.745019 47.712748 
L 106.894197 47.741015 
L 108.043375 47.769282 
L 109.192554 47.797549 
L 110.341732 47.825817 
L 111.49091 47.854084 
L 112.640088 47.882351 
L 113.789267 47.910618 
L 114.938445 47.938886 
L 116.087623 47.967153 
L 117.236801 47.99542 
L 118.38598 48.023687 
L 119.535158 48.051954 
L 120.684336 48.080222 
L 121.833514 48.108489 
L 122.982693 48.136756 
L 124.131871 48.165023 
L 125.281049 48.193291 
L 126.430227 48.221558 
L 127.579406 48.249825 
L 128.728584 48.278092 
L 129.877762 48.306359 
L 131.02694 48.334627 
L 132.176119 48.362894 
L 133.325297 48.391161 
L 134.474475 48.419428 
L 135.623653 48.447695 
L 136.772832 48.475963 
L 137.92201 48.50423 
L 139.071188 48.532497 
L 140.220366 48.560764 
L 141.369545 48.589032 
L 142.518723 48.617299 
L 143.667901 48.645566 
L 144.817079 48.673833 
" clip-path="url(#p9833859303)" style="fill: none; stroke: #ff8c00; stroke-width: 0.75; stroke-linecap: square"/>
   </g>
   <g id="patch_3">
    <path d="M 25.36 89.218327 
L 25.36 5.4 
" style="fill: none; stroke: #000000; stroke-width: 0.25; stroke-linejoin: miter; stroke-linecap: square"/>
   </g>
   <g id="patch_4">
    <path d="M 25.36 89.218327 
L 150.505512 89.218327 
" style="fill: none; stroke: #000000; stroke-width: 0.25; stroke-linejoin: miter; stroke-linecap: square"/>
   </g>
   <g id="text_14">
    <g id="patch_5">
     <path d="M 29.114365 18.699023 
L 57.764365 18.699023 
Q 59.264365 18.699023 59.264365 17.199023 
L 59.264365 7.132617 
Q 59.264365 5.632617 57.764365 5.632617 
L 29.114365 5.632617 
Q 27.614365 5.632617 27.614365 7.132617 
L 27.614365 17.199023 
Q 27.614365 18.699023 29.114365 18.699023 
z
" style="fill: #c0c0c0; opacity: 0.4; stroke: #c0c0c0; stroke-linejoin: miter"/>
    </g>
    <!-- $r=-0.053$ -->
    <g transform="translate(29.114365 10.655273) scale(0.05 -0.05)">
     <defs>
      <path id="DejaVuSans-Oblique-72" d="M 2853 2969 
Q 2766 3016 2653 3041 
Q 2541 3066 2413 3066 
Q 1953 3066 1609 2717 
Q 1266 2369 1153 1784 
L 800 0 
L 225 0 
L 909 3500 
L 1484 3500 
L 1375 2956 
Q 1603 3259 1920 3421 
Q 2238 3584 2597 3584 
Q 2691 3584 2781 3573 
Q 2872 3563 2963 3538 
L 2853 2969 
z
" transform="scale(0.015625)"/>
      <path id="DejaVuSans-3d" d="M 678 2906 
L 4684 2906 
L 4684 2381 
L 678 2381 
L 678 2906 
z
M 678 1631 
L 4684 1631 
L 4684 1100 
L 678 1100 
L 678 1631 
z
" transform="scale(0.015625)"/>
      <path id="DejaVuSans-2212" d="M 678 2272 
L 4684 2272 
L 4684 1741 
L 678 1741 
L 678 2272 
z
" transform="scale(0.015625)"/>
      <path id="DejaVuSans-30" d="M 2034 4250 
Q 1547 4250 1301 3770 
Q 1056 3291 1056 2328 
Q 1056 1369 1301 889 
Q 1547 409 2034 409 
Q 2525 409 2770 889 
Q 3016 1369 3016 2328 
Q 3016 3291 2770 3770 
Q 2525 4250 2034 4250 
z
M 2034 4750 
Q 2819 4750 3233 4129 
Q 3647 3509 3647 2328 
Q 3647 1150 3233 529 
Q 2819 -91 2034 -91 
Q 1250 -91 836 529 
Q 422 1150 422 2328 
Q 422 3509 836 4129 
Q 1250 4750 2034 4750 
z
" transform="scale(0.015625)"/>
      <path id="DejaVuSans-2e" d="M 684 794 
L 1344 794 
L 1344 0 
L 684 0 
L 684 794 
z
" transform="scale(0.015625)"/>
      <path id="DejaVuSans-35" d="M 691 4666 
L 3169 4666 
L 3169 4134 
L 1269 4134 
L 1269 2991 
Q 1406 3038 1543 3061 
Q 1681 3084 1819 3084 
Q 2600 3084 3056 2656 
Q 3513 2228 3513 1497 
Q 3513 744 3044 326 
Q 2575 -91 1722 -91 
Q 1428 -91 1123 -41 
Q 819 9 494 109 
L 494 744 
Q 775 591 1075 516 
Q 1375 441 1709 441 
Q 2250 441 2565 725 
Q 2881 1009 2881 1497 
Q 2881 1984 2565 2268 
Q 2250 2553 1709 2553 
Q 1456 2553 1204 2497 
Q 953 2441 691 2322 
L 691 4666 
z
" transform="scale(0.015625)"/>
      <path id="DejaVuSans-33" d="M 2597 2516 
Q 3050 2419 3304 2112 
Q 3559 1806 3559 1356 
Q 3559 666 3084 287 
Q 2609 -91 1734 -91 
Q 1441 -91 1130 -33 
Q 819 25 488 141 
L 488 750 
Q 750 597 1062 519 
Q 1375 441 1716 441 
Q 2309 441 2620 675 
Q 2931 909 2931 1356 
Q 2931 1769 2642 2001 
Q 2353 2234 1838 2234 
L 1294 2234 
L 1294 2753 
L 1863 2753 
Q 2328 2753 2575 2939 
Q 2822 3125 2822 3475 
Q 2822 3834 2567 4026 
Q 2313 4219 1838 4219 
Q 1578 4219 1281 4162 
Q 984 4106 628 3988 
L 628 4550 
Q 988 4650 1302 4700 
Q 1616 4750 1894 4750 
Q 2613 4750 3031 4423 
Q 3450 4097 3450 3541 
Q 3450 3153 3228 2886 
Q 3006 2619 2597 2516 
z
" transform="scale(0.015625)"/>
     </defs>
     <use xlink:href="#DejaVuSans-Oblique-72" transform="translate(0 0.78125)"/>
     <use xlink:href="#DejaVuSans-3d" transform="translate(60.595703 0.78125)"/>
     <use xlink:href="#DejaVuSans-2212" transform="translate(183.349609 0.78125)"/>
     <use xlink:href="#DejaVuSans-30" transform="translate(286.621094 0.78125)"/>
     <use xlink:href="#DejaVuSans-2e" transform="translate(350.244141 0.78125)"/>
     <use xlink:href="#DejaVuSans-30" transform="translate(382.03125 0.78125)"/>
     <use xlink:href="#DejaVuSans-35" transform="translate(445.654297 0.78125)"/>
     <use xlink:href="#DejaVuSans-33" transform="translate(509.277344 0.78125)"/>
    </g>
    <!-- $p=0.484$ -->
    <g transform="translate(29.114365 16.149023) scale(0.05 -0.05)">
     <defs>
      <path id="DejaVuSans-Oblique-70" d="M 3175 2156 
Q 3175 2616 2975 2859 
Q 2775 3103 2400 3103 
Q 2144 3103 1911 2972 
Q 1678 2841 1497 2591 
Q 1319 2344 1212 1994 
Q 1106 1644 1106 1300 
Q 1106 863 1306 627 
Q 1506 391 1875 391 
Q 2147 391 2380 519 
Q 2613 647 2778 891 
Q 2956 1147 3065 1494 
Q 3175 1841 3175 2156 
z
M 1394 2969 
Q 1625 3272 1939 3428 
Q 2253 3584 2638 3584 
Q 3175 3584 3472 3232 
Q 3769 2881 3769 2247 
Q 3769 1728 3584 1258 
Q 3400 788 3053 416 
Q 2822 169 2531 39 
Q 2241 -91 1919 -91 
Q 1547 -91 1294 64 
Q 1041 219 916 525 
L 556 -1331 
L -19 -1331 
L 922 3500 
L 1497 3500 
L 1394 2969 
z
" transform="scale(0.015625)"/>
      <path id="DejaVuSans-34" d="M 2419 4116 
L 825 1625 
L 2419 1625 
L 2419 4116 
z
M 2253 4666 
L 3047 4666 
L 3047 1625 
L 3713 1625 
L 3713 1100 
L 3047 1100 
L 3047 0 
L 2419 0 
L 2419 1100 
L 313 1100 
L 313 1709 
L 2253 4666 
z
" transform="scale(0.015625)"/>
      <path id="DejaVuSans-38" d="M 2034 2216 
Q 1584 2216 1326 1975 
Q 1069 1734 1069 1313 
Q 1069 891 1326 650 
Q 1584 409 2034 409 
Q 2484 409 2743 651 
Q 3003 894 3003 1313 
Q 3003 1734 2745 1975 
Q 2488 2216 2034 2216 
z
M 1403 2484 
Q 997 2584 770 2862 
Q 544 3141 544 3541 
Q 544 4100 942 4425 
Q 1341 4750 2034 4750 
Q 2731 4750 3128 4425 
Q 3525 4100 3525 3541 
Q 3525 3141 3298 2862 
Q 3072 2584 2669 2484 
Q 3125 2378 3379 2068 
Q 3634 1759 3634 1313 
Q 3634 634 3220 271 
Q 2806 -91 2034 -91 
Q 1263 -91 848 271 
Q 434 634 434 1313 
Q 434 1759 690 2068 
Q 947 2378 1403 2484 
z
M 1172 3481 
Q 1172 3119 1398 2916 
Q 1625 2713 2034 2713 
Q 2441 2713 2670 2916 
Q 2900 3119 2900 3481 
Q 2900 3844 2670 4047 
Q 2441 4250 2034 4250 
Q 1625 4250 1398 4047 
Q 1172 3844 1172 3481 
z
" transform="scale(0.015625)"/>
     </defs>
     <use xlink:href="#DejaVuSans-Oblique-70" transform="translate(0 0.78125)"/>
     <use xlink:href="#DejaVuSans-3d" transform="translate(82.958984 0.78125)"/>
     <use xlink:href="#DejaVuSans-30" transform="translate(186.230469 0.78125)"/>
     <use xlink:href="#DejaVuSans-2e" transform="translate(249.853516 0.78125)"/>
     <use xlink:href="#DejaVuSans-34" transform="translate(281.640625 0.78125)"/>
     <use xlink:href="#DejaVuSans-38" transform="translate(345.263672 0.78125)"/>
     <use xlink:href="#DejaVuSans-34" transform="translate(408.886719 0.78125)"/>
    </g>
   </g>
  </g>
 </g>
 <defs>
  <clipPath id="p9833859303">
   <rect x="25.36" y="5.4" width="125.145512" height="83.818327"/>
  </clipPath>
 </defs>
</svg>
