<?xml version="1.0" encoding="utf-8" standalone="no"?>
<!DOCTYPE svg PUBLIC "-//W3C//DTD SVG 1.1//EN"
  "http://www.w3.org/Graphics/SVG/1.1/DTD/svg11.dtd">
<svg xmlns:xlink="http://www.w3.org/1999/xlink" width="155.905512pt" height="113.385827pt" viewBox="0 0 155.905512 113.385827" xmlns="http://www.w3.org/2000/svg" version="1.1">
 <metadata>
  <rdf:RDF xmlns:dc="http://purl.org/dc/elements/1.1/" xmlns:cc="http://creativecommons.org/ns#" xmlns:rdf="http://www.w3.org/1999/02/22-rdf-syntax-ns#">
   <cc:Work>
    <dc:type rdf:resource="http://purl.org/dc/dcmitype/StillImage"/>
    <dc:date>2025-08-06T16:42:12.598269</dc:date>
    <dc:format>image/svg+xml</dc:format>
    <dc:creator>
     <cc:Agent>
      <dc:title>Matplotlib v3.9.2, https://matplotlib.org/</dc:title>
     </cc:Agent>
    </dc:creator>
   </cc:Work>
  </rdf:RDF>
 </metadata>
 <defs>
  <style type="text/css">*{stroke-linejoin: round; stroke-linecap: butt}</style>
 </defs>
 <g id="figure_1">
  <g id="patch_1">
   <path d="M 0 113.385827 
L 155.905512 113.385827 
L 155.905512 0 
L 0 0 
z
" style="fill: #ffffff"/>
  </g>
  <g id="axes_1">
   <g id="patch_2">
    <path d="M 25.24 89.218327 
L 150.505512 89.218327 
L 150.505512 5.4 
L 25.24 5.4 
z
" style="fill: #ffffff"/>
   </g>
   <g id="PathCollection_1">
    <defs>
     <path id="C0_0_aa29f90124" d="M 0 0.866025 
C 0.229673 0.866025 0.449969 0.774776 0.612372 0.612372 
C 0.774776 0.449969 0.866025 0.229673 0.866025 -0 
C 0.866025 -0.229673 0.774776 -0.449969 0.612372 -0.612372 
C 0.449969 -0.774776 0.229673 -0.866025 0 -0.866025 
C -0.229673 -0.866025 -0.449969 -0.774776 -0.612372 -0.612372 
C -0.774776 -0.449969 -0.866025 -0.229673 -0.866025 0 
C -0.866025 0.229673 -0.774776 0.449969 -0.612372 0.612372 
C -0.449969 0.774776 -0.229673 0.866025 0 0.866025 
z
"/>
    </defs>
    <g clip-path="url(#p26ee34b9e4)">
     <use xlink:href="#C0_0_aa29f90124" x="59.403321" y="55.591607" style="fill: #ff8c00; fill-opacity: 0.8"/>
    </g>
    <g clip-path="url(#p26ee34b9e4)">
     <use xlink:href="#C0_0_aa29f90124" x="77.705101" y="82.095425" style="fill: #ff8c00; fill-opacity: 0.8"/>
    </g>
    <g clip-path="url(#p26ee34b9e4)">
     <use xlink:href="#C0_0_aa29f90124" x="106.174535" y="85.408403" style="fill: #ff8c00; fill-opacity: 0.8"/>
    </g>
    <g clip-path="url(#p26ee34b9e4)">
     <use xlink:href="#C0_0_aa29f90124" x="81.772163" y="85.408403" style="fill: #ff8c00; fill-opacity: 0.8"/>
    </g>
    <g clip-path="url(#p26ee34b9e4)">
     <use xlink:href="#C0_0_aa29f90124" x="71.604508" y="85.408403" style="fill: #ff8c00; fill-opacity: 0.8"/>
    </g>
    <g clip-path="url(#p26ee34b9e4)">
     <use xlink:href="#C0_0_aa29f90124" x="57.36979" y="82.095425" style="fill: #ff8c00; fill-opacity: 0.8"/>
    </g>
    <g clip-path="url(#p26ee34b9e4)">
     <use xlink:href="#C0_0_aa29f90124" x="69.570977" y="85.408403" style="fill: #ff8c00; fill-opacity: 0.8"/>
    </g>
    <g clip-path="url(#p26ee34b9e4)">
     <use xlink:href="#C0_0_aa29f90124" x="85.839225" y="75.469471" style="fill: #ff8c00; fill-opacity: 0.8"/>
    </g>
    <g clip-path="url(#p26ee34b9e4)">
     <use xlink:href="#C0_0_aa29f90124" x="67.537446" y="85.408403" style="fill: #ff8c00; fill-opacity: 0.8"/>
    </g>
    <g clip-path="url(#p26ee34b9e4)">
     <use xlink:href="#C0_0_aa29f90124" x="83.805694" y="68.843516" style="fill: #ff8c00; fill-opacity: 0.8"/>
    </g>
    <g clip-path="url(#p26ee34b9e4)">
     <use xlink:href="#C0_0_aa29f90124" x="69.570977" y="39.02672" style="fill: #ff8c00; fill-opacity: 0.8"/>
    </g>
    <g clip-path="url(#p26ee34b9e4)">
     <use xlink:href="#C0_0_aa29f90124" x="81.772163" y="65.530539" style="fill: #ff8c00; fill-opacity: 0.8"/>
    </g>
    <g clip-path="url(#p26ee34b9e4)">
     <use xlink:href="#C0_0_aa29f90124" x="59.403321" y="82.095425" style="fill: #ff8c00; fill-opacity: 0.8"/>
    </g>
    <g clip-path="url(#p26ee34b9e4)">
     <use xlink:href="#C0_0_aa29f90124" x="47.202135" y="72.156493" style="fill: #ff8c00; fill-opacity: 0.8"/>
    </g>
    <g clip-path="url(#p26ee34b9e4)">
     <use xlink:href="#C0_0_aa29f90124" x="128.543377" y="75.469471" style="fill: #ff8c00; fill-opacity: 0.8"/>
    </g>
    <g clip-path="url(#p26ee34b9e4)">
     <use xlink:href="#C0_0_aa29f90124" x="89.906287" y="85.408403" style="fill: #ff8c00; fill-opacity: 0.8"/>
    </g>
    <g clip-path="url(#p26ee34b9e4)">
     <use xlink:href="#C0_0_aa29f90124" x="39.068011" y="85.408403" style="fill: #ff8c00; fill-opacity: 0.8"/>
    </g>
    <g clip-path="url(#p26ee34b9e4)">
     <use xlink:href="#C0_0_aa29f90124" x="65.503915" y="78.782448" style="fill: #ff8c00; fill-opacity: 0.8"/>
    </g>
    <g clip-path="url(#p26ee34b9e4)">
     <use xlink:href="#C0_0_aa29f90124" x="89.906287" y="75.469471" style="fill: #ff8c00; fill-opacity: 0.8"/>
    </g>
    <g clip-path="url(#p26ee34b9e4)">
     <use xlink:href="#C0_0_aa29f90124" x="69.570977" y="85.408403" style="fill: #ff8c00; fill-opacity: 0.8"/>
    </g>
    <g clip-path="url(#p26ee34b9e4)">
     <use xlink:href="#C0_0_aa29f90124" x="53.302728" y="82.095425" style="fill: #ff8c00; fill-opacity: 0.8"/>
    </g>
    <g clip-path="url(#p26ee34b9e4)">
     <use xlink:href="#C0_0_aa29f90124" x="59.403321" y="85.408403" style="fill: #ff8c00; fill-opacity: 0.8"/>
    </g>
    <g clip-path="url(#p26ee34b9e4)">
     <use xlink:href="#C0_0_aa29f90124" x="87.872756" y="82.095425" style="fill: #ff8c00; fill-opacity: 0.8"/>
    </g>
    <g clip-path="url(#p26ee34b9e4)">
     <use xlink:href="#C0_0_aa29f90124" x="65.503915" y="85.408403" style="fill: #ff8c00; fill-opacity: 0.8"/>
    </g>
    <g clip-path="url(#p26ee34b9e4)">
     <use xlink:href="#C0_0_aa29f90124" x="53.302728" y="85.408403" style="fill: #ff8c00; fill-opacity: 0.8"/>
    </g>
    <g clip-path="url(#p26ee34b9e4)">
     <use xlink:href="#C0_0_aa29f90124" x="96.00688" y="82.095425" style="fill: #ff8c00; fill-opacity: 0.8"/>
    </g>
    <g clip-path="url(#p26ee34b9e4)">
     <use xlink:href="#C0_0_aa29f90124" x="53.302728" y="85.408403" style="fill: #ff8c00; fill-opacity: 0.8"/>
    </g>
    <g clip-path="url(#p26ee34b9e4)">
     <use xlink:href="#C0_0_aa29f90124" x="59.403321" y="52.278629" style="fill: #ff8c00; fill-opacity: 0.8"/>
    </g>
    <g clip-path="url(#p26ee34b9e4)">
     <use xlink:href="#C0_0_aa29f90124" x="69.570977" y="85.408403" style="fill: #ff8c00; fill-opacity: 0.8"/>
    </g>
    <g clip-path="url(#p26ee34b9e4)">
     <use xlink:href="#C0_0_aa29f90124" x="53.302728" y="85.408403" style="fill: #ff8c00; fill-opacity: 0.8"/>
    </g>
    <g clip-path="url(#p26ee34b9e4)">
     <use xlink:href="#C0_0_aa29f90124" x="110.241597" y="62.217561" style="fill: #ff8c00; fill-opacity: 0.8"/>
    </g>
    <g clip-path="url(#p26ee34b9e4)">
     <use xlink:href="#C0_0_aa29f90124" x="57.36979" y="85.408403" style="fill: #ff8c00; fill-opacity: 0.8"/>
    </g>
    <g clip-path="url(#p26ee34b9e4)">
     <use xlink:href="#C0_0_aa29f90124" x="102.107473" y="75.469471" style="fill: #ff8c00; fill-opacity: 0.8"/>
    </g>
    <g clip-path="url(#p26ee34b9e4)">
     <use xlink:href="#C0_0_aa29f90124" x="71.604508" y="82.095425" style="fill: #ff8c00; fill-opacity: 0.8"/>
    </g>
    <g clip-path="url(#p26ee34b9e4)">
     <use xlink:href="#C0_0_aa29f90124" x="69.570977" y="85.408403" style="fill: #ff8c00; fill-opacity: 0.8"/>
    </g>
    <g clip-path="url(#p26ee34b9e4)">
     <use xlink:href="#C0_0_aa29f90124" x="91.939818" y="82.095425" style="fill: #ff8c00; fill-opacity: 0.8"/>
    </g>
    <g clip-path="url(#p26ee34b9e4)">
     <use xlink:href="#C0_0_aa29f90124" x="75.67157" y="85.408403" style="fill: #ff8c00; fill-opacity: 0.8"/>
    </g>
    <g clip-path="url(#p26ee34b9e4)">
     <use xlink:href="#C0_0_aa29f90124" x="39.068011" y="78.782448" style="fill: #ff8c00; fill-opacity: 0.8"/>
    </g>
    <g clip-path="url(#p26ee34b9e4)">
     <use xlink:href="#C0_0_aa29f90124" x="53.302728" y="85.408403" style="fill: #ff8c00; fill-opacity: 0.8"/>
    </g>
    <g clip-path="url(#p26ee34b9e4)">
     <use xlink:href="#C0_0_aa29f90124" x="51.269197" y="85.408403" style="fill: #ff8c00; fill-opacity: 0.8"/>
    </g>
    <g clip-path="url(#p26ee34b9e4)">
     <use xlink:href="#C0_0_aa29f90124" x="102.107473" y="85.408403" style="fill: #ff8c00; fill-opacity: 0.8"/>
    </g>
    <g clip-path="url(#p26ee34b9e4)">
     <use xlink:href="#C0_0_aa29f90124" x="114.308659" y="82.095425" style="fill: #ff8c00; fill-opacity: 0.8"/>
    </g>
    <g clip-path="url(#p26ee34b9e4)">
     <use xlink:href="#C0_0_aa29f90124" x="49.235666" y="85.408403" style="fill: #ff8c00; fill-opacity: 0.8"/>
    </g>
    <g clip-path="url(#p26ee34b9e4)">
     <use xlink:href="#C0_0_aa29f90124" x="98.040411" y="78.782448" style="fill: #ff8c00; fill-opacity: 0.8"/>
    </g>
    <g clip-path="url(#p26ee34b9e4)">
     <use xlink:href="#C0_0_aa29f90124" x="67.537446" y="85.408403" style="fill: #ff8c00; fill-opacity: 0.8"/>
    </g>
    <g clip-path="url(#p26ee34b9e4)">
     <use xlink:href="#C0_0_aa29f90124" x="65.503915" y="85.408403" style="fill: #ff8c00; fill-opacity: 0.8"/>
    </g>
    <g clip-path="url(#p26ee34b9e4)">
     <use xlink:href="#C0_0_aa29f90124" x="57.36979" y="62.217561" style="fill: #ff8c00; fill-opacity: 0.8"/>
    </g>
    <g clip-path="url(#p26ee34b9e4)">
     <use xlink:href="#C0_0_aa29f90124" x="89.906287" y="75.469471" style="fill: #ff8c00; fill-opacity: 0.8"/>
    </g>
    <g clip-path="url(#p26ee34b9e4)">
     <use xlink:href="#C0_0_aa29f90124" x="53.302728" y="85.408403" style="fill: #ff8c00; fill-opacity: 0.8"/>
    </g>
    <g clip-path="url(#p26ee34b9e4)">
     <use xlink:href="#C0_0_aa29f90124" x="75.67157" y="82.095425" style="fill: #ff8c00; fill-opacity: 0.8"/>
    </g>
    <g clip-path="url(#p26ee34b9e4)">
     <use xlink:href="#C0_0_aa29f90124" x="144.811625" y="85.408403" style="fill: #ff8c00; fill-opacity: 0.8"/>
    </g>
    <g clip-path="url(#p26ee34b9e4)">
     <use xlink:href="#C0_0_aa29f90124" x="98.040411" y="68.843516" style="fill: #ff8c00; fill-opacity: 0.8"/>
    </g>
    <g clip-path="url(#p26ee34b9e4)">
     <use xlink:href="#C0_0_aa29f90124" x="106.174535" y="78.782448" style="fill: #ff8c00; fill-opacity: 0.8"/>
    </g>
    <g clip-path="url(#p26ee34b9e4)">
     <use xlink:href="#C0_0_aa29f90124" x="41.101542" y="82.095425" style="fill: #ff8c00; fill-opacity: 0.8"/>
    </g>
    <g clip-path="url(#p26ee34b9e4)">
     <use xlink:href="#C0_0_aa29f90124" x="67.537446" y="85.408403" style="fill: #ff8c00; fill-opacity: 0.8"/>
    </g>
    <g clip-path="url(#p26ee34b9e4)">
     <use xlink:href="#C0_0_aa29f90124" x="73.638039" y="85.408403" style="fill: #ff8c00; fill-opacity: 0.8"/>
    </g>
    <g clip-path="url(#p26ee34b9e4)">
     <use xlink:href="#C0_0_aa29f90124" x="39.068011" y="85.408403" style="fill: #ff8c00; fill-opacity: 0.8"/>
    </g>
    <g clip-path="url(#p26ee34b9e4)">
     <use xlink:href="#C0_0_aa29f90124" x="65.503915" y="85.408403" style="fill: #ff8c00; fill-opacity: 0.8"/>
    </g>
    <g clip-path="url(#p26ee34b9e4)">
     <use xlink:href="#C0_0_aa29f90124" x="79.738632" y="85.408403" style="fill: #ff8c00; fill-opacity: 0.8"/>
    </g>
    <g clip-path="url(#p26ee34b9e4)">
     <use xlink:href="#C0_0_aa29f90124" x="49.235666" y="85.408403" style="fill: #ff8c00; fill-opacity: 0.8"/>
    </g>
    <g clip-path="url(#p26ee34b9e4)">
     <use xlink:href="#C0_0_aa29f90124" x="87.872756" y="62.217561" style="fill: #ff8c00; fill-opacity: 0.8"/>
    </g>
    <g clip-path="url(#p26ee34b9e4)">
     <use xlink:href="#C0_0_aa29f90124" x="81.772163" y="85.408403" style="fill: #ff8c00; fill-opacity: 0.8"/>
    </g>
    <g clip-path="url(#p26ee34b9e4)">
     <use xlink:href="#C0_0_aa29f90124" x="30.933887" y="78.782448" style="fill: #ff8c00; fill-opacity: 0.8"/>
    </g>
    <g clip-path="url(#p26ee34b9e4)">
     <use xlink:href="#C0_0_aa29f90124" x="104.141004" y="85.408403" style="fill: #ff8c00; fill-opacity: 0.8"/>
    </g>
    <g clip-path="url(#p26ee34b9e4)">
     <use xlink:href="#C0_0_aa29f90124" x="43.135073" y="82.095425" style="fill: #ff8c00; fill-opacity: 0.8"/>
    </g>
    <g clip-path="url(#p26ee34b9e4)">
     <use xlink:href="#C0_0_aa29f90124" x="122.442784" y="82.095425" style="fill: #ff8c00; fill-opacity: 0.8"/>
    </g>
    <g clip-path="url(#p26ee34b9e4)">
     <use xlink:href="#C0_0_aa29f90124" x="91.939818" y="85.408403" style="fill: #ff8c00; fill-opacity: 0.8"/>
    </g>
    <g clip-path="url(#p26ee34b9e4)">
     <use xlink:href="#C0_0_aa29f90124" x="61.436852" y="85.408403" style="fill: #ff8c00; fill-opacity: 0.8"/>
    </g>
    <g clip-path="url(#p26ee34b9e4)">
     <use xlink:href="#C0_0_aa29f90124" x="98.040411" y="85.408403" style="fill: #ff8c00; fill-opacity: 0.8"/>
    </g>
    <g clip-path="url(#p26ee34b9e4)">
     <use xlink:href="#C0_0_aa29f90124" x="61.436852" y="65.530539" style="fill: #ff8c00; fill-opacity: 0.8"/>
    </g>
    <g clip-path="url(#p26ee34b9e4)">
     <use xlink:href="#C0_0_aa29f90124" x="69.570977" y="82.095425" style="fill: #ff8c00; fill-opacity: 0.8"/>
    </g>
    <g clip-path="url(#p26ee34b9e4)">
     <use xlink:href="#C0_0_aa29f90124" x="51.269197" y="75.469471" style="fill: #ff8c00; fill-opacity: 0.8"/>
    </g>
    <g clip-path="url(#p26ee34b9e4)">
     <use xlink:href="#C0_0_aa29f90124" x="81.772163" y="85.408403" style="fill: #ff8c00; fill-opacity: 0.8"/>
    </g>
    <g clip-path="url(#p26ee34b9e4)">
     <use xlink:href="#C0_0_aa29f90124" x="59.403321" y="85.408403" style="fill: #ff8c00; fill-opacity: 0.8"/>
    </g>
    <g clip-path="url(#p26ee34b9e4)">
     <use xlink:href="#C0_0_aa29f90124" x="87.872756" y="85.408403" style="fill: #ff8c00; fill-opacity: 0.8"/>
    </g>
    <g clip-path="url(#p26ee34b9e4)">
     <use xlink:href="#C0_0_aa29f90124" x="91.939818" y="85.408403" style="fill: #ff8c00; fill-opacity: 0.8"/>
    </g>
    <g clip-path="url(#p26ee34b9e4)">
     <use xlink:href="#C0_0_aa29f90124" x="77.705101" y="72.156493" style="fill: #ff8c00; fill-opacity: 0.8"/>
    </g>
    <g clip-path="url(#p26ee34b9e4)">
     <use xlink:href="#C0_0_aa29f90124" x="55.336259" y="85.408403" style="fill: #ff8c00; fill-opacity: 0.8"/>
    </g>
    <g clip-path="url(#p26ee34b9e4)">
     <use xlink:href="#C0_0_aa29f90124" x="98.040411" y="78.782448" style="fill: #ff8c00; fill-opacity: 0.8"/>
    </g>
    <g clip-path="url(#p26ee34b9e4)">
     <use xlink:href="#C0_0_aa29f90124" x="73.638039" y="82.095425" style="fill: #ff8c00; fill-opacity: 0.8"/>
    </g>
    <g clip-path="url(#p26ee34b9e4)">
     <use xlink:href="#C0_0_aa29f90124" x="69.570977" y="29.087788" style="fill: #ff8c00; fill-opacity: 0.8"/>
    </g>
    <g clip-path="url(#p26ee34b9e4)">
     <use xlink:href="#C0_0_aa29f90124" x="83.805694" y="85.408403" style="fill: #ff8c00; fill-opacity: 0.8"/>
    </g>
    <g clip-path="url(#p26ee34b9e4)">
     <use xlink:href="#C0_0_aa29f90124" x="51.269197" y="72.156493" style="fill: #ff8c00; fill-opacity: 0.8"/>
    </g>
    <g clip-path="url(#p26ee34b9e4)">
     <use xlink:href="#C0_0_aa29f90124" x="79.738632" y="58.904584" style="fill: #ff8c00; fill-opacity: 0.8"/>
    </g>
    <g clip-path="url(#p26ee34b9e4)">
     <use xlink:href="#C0_0_aa29f90124" x="63.470383" y="85.408403" style="fill: #ff8c00; fill-opacity: 0.8"/>
    </g>
    <g clip-path="url(#p26ee34b9e4)">
     <use xlink:href="#C0_0_aa29f90124" x="43.135073" y="85.408403" style="fill: #ff8c00; fill-opacity: 0.8"/>
    </g>
    <g clip-path="url(#p26ee34b9e4)">
     <use xlink:href="#C0_0_aa29f90124" x="75.67157" y="72.156493" style="fill: #ff8c00; fill-opacity: 0.8"/>
    </g>
    <g clip-path="url(#p26ee34b9e4)">
     <use xlink:href="#C0_0_aa29f90124" x="73.638039" y="85.408403" style="fill: #ff8c00; fill-opacity: 0.8"/>
    </g>
    <g clip-path="url(#p26ee34b9e4)">
     <use xlink:href="#C0_0_aa29f90124" x="55.336259" y="68.843516" style="fill: #ff8c00; fill-opacity: 0.8"/>
    </g>
    <g clip-path="url(#p26ee34b9e4)">
     <use xlink:href="#C0_0_aa29f90124" x="71.604508" y="45.652675" style="fill: #ff8c00; fill-opacity: 0.8"/>
    </g>
    <g clip-path="url(#p26ee34b9e4)">
     <use xlink:href="#C0_0_aa29f90124" x="75.67157" y="85.408403" style="fill: #ff8c00; fill-opacity: 0.8"/>
    </g>
    <g clip-path="url(#p26ee34b9e4)">
     <use xlink:href="#C0_0_aa29f90124" x="100.073942" y="75.469471" style="fill: #ff8c00; fill-opacity: 0.8"/>
    </g>
    <g clip-path="url(#p26ee34b9e4)">
     <use xlink:href="#C0_0_aa29f90124" x="79.738632" y="78.782448" style="fill: #ff8c00; fill-opacity: 0.8"/>
    </g>
    <g clip-path="url(#p26ee34b9e4)">
     <use xlink:href="#C0_0_aa29f90124" x="85.839225" y="78.782448" style="fill: #ff8c00; fill-opacity: 0.8"/>
    </g>
    <g clip-path="url(#p26ee34b9e4)">
     <use xlink:href="#C0_0_aa29f90124" x="65.503915" y="85.408403" style="fill: #ff8c00; fill-opacity: 0.8"/>
    </g>
    <g clip-path="url(#p26ee34b9e4)">
     <use xlink:href="#C0_0_aa29f90124" x="110.241597" y="85.408403" style="fill: #ff8c00; fill-opacity: 0.8"/>
    </g>
    <g clip-path="url(#p26ee34b9e4)">
     <use xlink:href="#C0_0_aa29f90124" x="93.973349" y="82.095425" style="fill: #ff8c00; fill-opacity: 0.8"/>
    </g>
    <g clip-path="url(#p26ee34b9e4)">
     <use xlink:href="#C0_0_aa29f90124" x="30.933887" y="82.095425" style="fill: #ff8c00; fill-opacity: 0.8"/>
    </g>
    <g clip-path="url(#p26ee34b9e4)">
     <use xlink:href="#C0_0_aa29f90124" x="93.973349" y="82.095425" style="fill: #ff8c00; fill-opacity: 0.8"/>
    </g>
    <g clip-path="url(#p26ee34b9e4)">
     <use xlink:href="#C0_0_aa29f90124" x="104.141004" y="85.408403" style="fill: #ff8c00; fill-opacity: 0.8"/>
    </g>
    <g clip-path="url(#p26ee34b9e4)">
     <use xlink:href="#C0_0_aa29f90124" x="71.604508" y="58.904584" style="fill: #ff8c00; fill-opacity: 0.8"/>
    </g>
    <g clip-path="url(#p26ee34b9e4)">
     <use xlink:href="#C0_0_aa29f90124" x="77.705101" y="85.408403" style="fill: #ff8c00; fill-opacity: 0.8"/>
    </g>
    <g clip-path="url(#p26ee34b9e4)">
     <use xlink:href="#C0_0_aa29f90124" x="59.403321" y="85.408403" style="fill: #ff8c00; fill-opacity: 0.8"/>
    </g>
    <g clip-path="url(#p26ee34b9e4)">
     <use xlink:href="#C0_0_aa29f90124" x="89.906287" y="52.278629" style="fill: #ff8c00; fill-opacity: 0.8"/>
    </g>
    <g clip-path="url(#p26ee34b9e4)">
     <use xlink:href="#C0_0_aa29f90124" x="39.068011" y="85.408403" style="fill: #ff8c00; fill-opacity: 0.8"/>
    </g>
    <g clip-path="url(#p26ee34b9e4)">
     <use xlink:href="#C0_0_aa29f90124" x="81.772163" y="82.095425" style="fill: #ff8c00; fill-opacity: 0.8"/>
    </g>
    <g clip-path="url(#p26ee34b9e4)">
     <use xlink:href="#C0_0_aa29f90124" x="69.570977" y="85.408403" style="fill: #ff8c00; fill-opacity: 0.8"/>
    </g>
    <g clip-path="url(#p26ee34b9e4)">
     <use xlink:href="#C0_0_aa29f90124" x="49.235666" y="75.469471" style="fill: #ff8c00; fill-opacity: 0.8"/>
    </g>
    <g clip-path="url(#p26ee34b9e4)">
     <use xlink:href="#C0_0_aa29f90124" x="53.302728" y="85.408403" style="fill: #ff8c00; fill-opacity: 0.8"/>
    </g>
    <g clip-path="url(#p26ee34b9e4)">
     <use xlink:href="#C0_0_aa29f90124" x="85.839225" y="35.713743" style="fill: #ff8c00; fill-opacity: 0.8"/>
    </g>
    <g clip-path="url(#p26ee34b9e4)">
     <use xlink:href="#C0_0_aa29f90124" x="69.570977" y="82.095425" style="fill: #ff8c00; fill-opacity: 0.8"/>
    </g>
    <g clip-path="url(#p26ee34b9e4)">
     <use xlink:href="#C0_0_aa29f90124" x="53.302728" y="75.469471" style="fill: #ff8c00; fill-opacity: 0.8"/>
    </g>
    <g clip-path="url(#p26ee34b9e4)">
     <use xlink:href="#C0_0_aa29f90124" x="57.36979" y="78.782448" style="fill: #ff8c00; fill-opacity: 0.8"/>
    </g>
    <g clip-path="url(#p26ee34b9e4)">
     <use xlink:href="#C0_0_aa29f90124" x="59.403321" y="78.782448" style="fill: #ff8c00; fill-opacity: 0.8"/>
    </g>
    <g clip-path="url(#p26ee34b9e4)">
     <use xlink:href="#C0_0_aa29f90124" x="61.436852" y="85.408403" style="fill: #ff8c00; fill-opacity: 0.8"/>
    </g>
    <g clip-path="url(#p26ee34b9e4)">
     <use xlink:href="#C0_0_aa29f90124" x="55.336259" y="82.095425" style="fill: #ff8c00; fill-opacity: 0.8"/>
    </g>
    <g clip-path="url(#p26ee34b9e4)">
     <use xlink:href="#C0_0_aa29f90124" x="65.503915" y="85.408403" style="fill: #ff8c00; fill-opacity: 0.8"/>
    </g>
    <g clip-path="url(#p26ee34b9e4)">
     <use xlink:href="#C0_0_aa29f90124" x="98.040411" y="85.408403" style="fill: #ff8c00; fill-opacity: 0.8"/>
    </g>
    <g clip-path="url(#p26ee34b9e4)">
     <use xlink:href="#C0_0_aa29f90124" x="85.839225" y="85.408403" style="fill: #ff8c00; fill-opacity: 0.8"/>
    </g>
    <g clip-path="url(#p26ee34b9e4)">
     <use xlink:href="#C0_0_aa29f90124" x="53.302728" y="85.408403" style="fill: #ff8c00; fill-opacity: 0.8"/>
    </g>
    <g clip-path="url(#p26ee34b9e4)">
     <use xlink:href="#C0_0_aa29f90124" x="71.604508" y="75.469471" style="fill: #ff8c00; fill-opacity: 0.8"/>
    </g>
    <g clip-path="url(#p26ee34b9e4)">
     <use xlink:href="#C0_0_aa29f90124" x="55.336259" y="85.408403" style="fill: #ff8c00; fill-opacity: 0.8"/>
    </g>
    <g clip-path="url(#p26ee34b9e4)">
     <use xlink:href="#C0_0_aa29f90124" x="87.872756" y="68.843516" style="fill: #ff8c00; fill-opacity: 0.8"/>
    </g>
    <g clip-path="url(#p26ee34b9e4)">
     <use xlink:href="#C0_0_aa29f90124" x="79.738632" y="85.408403" style="fill: #ff8c00; fill-opacity: 0.8"/>
    </g>
    <g clip-path="url(#p26ee34b9e4)">
     <use xlink:href="#C0_0_aa29f90124" x="73.638039" y="72.156493" style="fill: #ff8c00; fill-opacity: 0.8"/>
    </g>
    <g clip-path="url(#p26ee34b9e4)">
     <use xlink:href="#C0_0_aa29f90124" x="67.537446" y="62.217561" style="fill: #ff8c00; fill-opacity: 0.8"/>
    </g>
    <g clip-path="url(#p26ee34b9e4)">
     <use xlink:href="#C0_0_aa29f90124" x="59.403321" y="85.408403" style="fill: #ff8c00; fill-opacity: 0.8"/>
    </g>
    <g clip-path="url(#p26ee34b9e4)">
     <use xlink:href="#C0_0_aa29f90124" x="73.638039" y="85.408403" style="fill: #ff8c00; fill-opacity: 0.8"/>
    </g>
    <g clip-path="url(#p26ee34b9e4)">
     <use xlink:href="#C0_0_aa29f90124" x="85.839225" y="75.469471" style="fill: #ff8c00; fill-opacity: 0.8"/>
    </g>
    <g clip-path="url(#p26ee34b9e4)">
     <use xlink:href="#C0_0_aa29f90124" x="57.36979" y="85.408403" style="fill: #ff8c00; fill-opacity: 0.8"/>
    </g>
    <g clip-path="url(#p26ee34b9e4)">
     <use xlink:href="#C0_0_aa29f90124" x="104.141004" y="82.095425" style="fill: #ff8c00; fill-opacity: 0.8"/>
    </g>
    <g clip-path="url(#p26ee34b9e4)">
     <use xlink:href="#C0_0_aa29f90124" x="51.269197" y="78.782448" style="fill: #ff8c00; fill-opacity: 0.8"/>
    </g>
    <g clip-path="url(#p26ee34b9e4)">
     <use xlink:href="#C0_0_aa29f90124" x="91.939818" y="78.782448" style="fill: #ff8c00; fill-opacity: 0.8"/>
    </g>
    <g clip-path="url(#p26ee34b9e4)">
     <use xlink:href="#C0_0_aa29f90124" x="85.839225" y="75.469471" style="fill: #ff8c00; fill-opacity: 0.8"/>
    </g>
    <g clip-path="url(#p26ee34b9e4)">
     <use xlink:href="#C0_0_aa29f90124" x="65.503915" y="82.095425" style="fill: #ff8c00; fill-opacity: 0.8"/>
    </g>
    <g clip-path="url(#p26ee34b9e4)">
     <use xlink:href="#C0_0_aa29f90124" x="85.839225" y="82.095425" style="fill: #ff8c00; fill-opacity: 0.8"/>
    </g>
    <g clip-path="url(#p26ee34b9e4)">
     <use xlink:href="#C0_0_aa29f90124" x="67.537446" y="82.095425" style="fill: #ff8c00; fill-opacity: 0.8"/>
    </g>
    <g clip-path="url(#p26ee34b9e4)">
     <use xlink:href="#C0_0_aa29f90124" x="79.738632" y="85.408403" style="fill: #ff8c00; fill-opacity: 0.8"/>
    </g>
    <g clip-path="url(#p26ee34b9e4)">
     <use xlink:href="#C0_0_aa29f90124" x="57.36979" y="82.095425" style="fill: #ff8c00; fill-opacity: 0.8"/>
    </g>
    <g clip-path="url(#p26ee34b9e4)">
     <use xlink:href="#C0_0_aa29f90124" x="106.174535" y="85.408403" style="fill: #ff8c00; fill-opacity: 0.8"/>
    </g>
    <g clip-path="url(#p26ee34b9e4)">
     <use xlink:href="#C0_0_aa29f90124" x="65.503915" y="82.095425" style="fill: #ff8c00; fill-opacity: 0.8"/>
    </g>
    <g clip-path="url(#p26ee34b9e4)">
     <use xlink:href="#C0_0_aa29f90124" x="47.202135" y="85.408403" style="fill: #ff8c00; fill-opacity: 0.8"/>
    </g>
    <g clip-path="url(#p26ee34b9e4)">
     <use xlink:href="#C0_0_aa29f90124" x="98.040411" y="78.782448" style="fill: #ff8c00; fill-opacity: 0.8"/>
    </g>
    <g clip-path="url(#p26ee34b9e4)">
     <use xlink:href="#C0_0_aa29f90124" x="63.470383" y="85.408403" style="fill: #ff8c00; fill-opacity: 0.8"/>
    </g>
    <g clip-path="url(#p26ee34b9e4)">
     <use xlink:href="#C0_0_aa29f90124" x="45.168604" y="85.408403" style="fill: #ff8c00; fill-opacity: 0.8"/>
    </g>
    <g clip-path="url(#p26ee34b9e4)">
     <use xlink:href="#C0_0_aa29f90124" x="87.872756" y="85.408403" style="fill: #ff8c00; fill-opacity: 0.8"/>
    </g>
    <g clip-path="url(#p26ee34b9e4)">
     <use xlink:href="#C0_0_aa29f90124" x="69.570977" y="85.408403" style="fill: #ff8c00; fill-opacity: 0.8"/>
    </g>
    <g clip-path="url(#p26ee34b9e4)">
     <use xlink:href="#C0_0_aa29f90124" x="45.168604" y="72.156493" style="fill: #ff8c00; fill-opacity: 0.8"/>
    </g>
    <g clip-path="url(#p26ee34b9e4)">
     <use xlink:href="#C0_0_aa29f90124" x="43.135073" y="85.408403" style="fill: #ff8c00; fill-opacity: 0.8"/>
    </g>
    <g clip-path="url(#p26ee34b9e4)">
     <use xlink:href="#C0_0_aa29f90124" x="81.772163" y="85.408403" style="fill: #ff8c00; fill-opacity: 0.8"/>
    </g>
    <g clip-path="url(#p26ee34b9e4)">
     <use xlink:href="#C0_0_aa29f90124" x="57.36979" y="78.782448" style="fill: #ff8c00; fill-opacity: 0.8"/>
    </g>
    <g clip-path="url(#p26ee34b9e4)">
     <use xlink:href="#C0_0_aa29f90124" x="55.336259" y="85.408403" style="fill: #ff8c00; fill-opacity: 0.8"/>
    </g>
    <g clip-path="url(#p26ee34b9e4)">
     <use xlink:href="#C0_0_aa29f90124" x="83.805694" y="82.095425" style="fill: #ff8c00; fill-opacity: 0.8"/>
    </g>
    <g clip-path="url(#p26ee34b9e4)">
     <use xlink:href="#C0_0_aa29f90124" x="75.67157" y="62.217561" style="fill: #ff8c00; fill-opacity: 0.8"/>
    </g>
    <g clip-path="url(#p26ee34b9e4)">
     <use xlink:href="#C0_0_aa29f90124" x="61.436852" y="82.095425" style="fill: #ff8c00; fill-opacity: 0.8"/>
    </g>
    <g clip-path="url(#p26ee34b9e4)">
     <use xlink:href="#C0_0_aa29f90124" x="61.436852" y="85.408403" style="fill: #ff8c00; fill-opacity: 0.8"/>
    </g>
    <g clip-path="url(#p26ee34b9e4)">
     <use xlink:href="#C0_0_aa29f90124" x="43.135073" y="85.408403" style="fill: #ff8c00; fill-opacity: 0.8"/>
    </g>
    <g clip-path="url(#p26ee34b9e4)">
     <use xlink:href="#C0_0_aa29f90124" x="67.537446" y="85.408403" style="fill: #ff8c00; fill-opacity: 0.8"/>
    </g>
    <g clip-path="url(#p26ee34b9e4)">
     <use xlink:href="#C0_0_aa29f90124" x="96.00688" y="78.782448" style="fill: #ff8c00; fill-opacity: 0.8"/>
    </g>
    <g clip-path="url(#p26ee34b9e4)">
     <use xlink:href="#C0_0_aa29f90124" x="55.336259" y="82.095425" style="fill: #ff8c00; fill-opacity: 0.8"/>
    </g>
    <g clip-path="url(#p26ee34b9e4)">
     <use xlink:href="#C0_0_aa29f90124" x="79.738632" y="82.095425" style="fill: #ff8c00; fill-opacity: 0.8"/>
    </g>
    <g clip-path="url(#p26ee34b9e4)">
     <use xlink:href="#C0_0_aa29f90124" x="59.403321" y="82.095425" style="fill: #ff8c00; fill-opacity: 0.8"/>
    </g>
    <g clip-path="url(#p26ee34b9e4)">
     <use xlink:href="#C0_0_aa29f90124" x="116.34219" y="85.408403" style="fill: #ff8c00; fill-opacity: 0.8"/>
    </g>
    <g clip-path="url(#p26ee34b9e4)">
     <use xlink:href="#C0_0_aa29f90124" x="49.235666" y="85.408403" style="fill: #ff8c00; fill-opacity: 0.8"/>
    </g>
    <g clip-path="url(#p26ee34b9e4)">
     <use xlink:href="#C0_0_aa29f90124" x="75.67157" y="9.209924" style="fill: #ff8c00; fill-opacity: 0.8"/>
    </g>
    <g clip-path="url(#p26ee34b9e4)">
     <use xlink:href="#C0_0_aa29f90124" x="75.67157" y="85.408403" style="fill: #ff8c00; fill-opacity: 0.8"/>
    </g>
    <g clip-path="url(#p26ee34b9e4)">
     <use xlink:href="#C0_0_aa29f90124" x="81.772163" y="85.408403" style="fill: #ff8c00; fill-opacity: 0.8"/>
    </g>
    <g clip-path="url(#p26ee34b9e4)">
     <use xlink:href="#C0_0_aa29f90124" x="81.772163" y="85.408403" style="fill: #ff8c00; fill-opacity: 0.8"/>
    </g>
    <g clip-path="url(#p26ee34b9e4)">
     <use xlink:href="#C0_0_aa29f90124" x="87.872756" y="85.408403" style="fill: #ff8c00; fill-opacity: 0.8"/>
    </g>
    <g clip-path="url(#p26ee34b9e4)">
     <use xlink:href="#C0_0_aa29f90124" x="53.302728" y="62.217561" style="fill: #ff8c00; fill-opacity: 0.8"/>
    </g>
    <g clip-path="url(#p26ee34b9e4)">
     <use xlink:href="#C0_0_aa29f90124" x="67.537446" y="82.095425" style="fill: #ff8c00; fill-opacity: 0.8"/>
    </g>
    <g clip-path="url(#p26ee34b9e4)">
     <use xlink:href="#C0_0_aa29f90124" x="114.308659" y="82.095425" style="fill: #ff8c00; fill-opacity: 0.8"/>
    </g>
    <g clip-path="url(#p26ee34b9e4)">
     <use xlink:href="#C0_0_aa29f90124" x="73.638039" y="72.156493" style="fill: #ff8c00; fill-opacity: 0.8"/>
    </g>
    <g clip-path="url(#p26ee34b9e4)">
     <use xlink:href="#C0_0_aa29f90124" x="41.101542" y="85.408403" style="fill: #ff8c00; fill-opacity: 0.8"/>
    </g>
    <g clip-path="url(#p26ee34b9e4)">
     <use xlink:href="#C0_0_aa29f90124" x="79.738632" y="85.408403" style="fill: #ff8c00; fill-opacity: 0.8"/>
    </g>
    <g clip-path="url(#p26ee34b9e4)">
     <use xlink:href="#C0_0_aa29f90124" x="75.67157" y="85.408403" style="fill: #ff8c00; fill-opacity: 0.8"/>
    </g>
    <g clip-path="url(#p26ee34b9e4)">
     <use xlink:href="#C0_0_aa29f90124" x="98.040411" y="85.408403" style="fill: #ff8c00; fill-opacity: 0.8"/>
    </g>
    <g clip-path="url(#p26ee34b9e4)">
     <use xlink:href="#C0_0_aa29f90124" x="69.570977" y="68.843516" style="fill: #ff8c00; fill-opacity: 0.8"/>
    </g>
   </g>
   <g id="PolyCollection_1">
    <path d="M 30.933887 77.57783 
L 30.933887 82.680471 
L 32.084167 82.611886 
L 33.234447 82.537584 
L 34.384727 82.470733 
L 35.535008 82.4101 
L 36.685288 82.335059 
L 37.835568 82.259717 
L 38.985848 82.194491 
L 40.136128 82.133485 
L 41.286409 82.062021 
L 42.436689 81.992024 
L 43.586969 81.925722 
L 44.737249 81.870522 
L 45.887529 81.810385 
L 47.037809 81.743351 
L 48.18809 81.685453 
L 49.33837 81.625842 
L 50.48865 81.556279 
L 51.63893 81.494504 
L 52.78921 81.443458 
L 53.939491 81.3924 
L 55.089771 81.337954 
L 56.240051 81.277658 
L 57.390331 81.233454 
L 58.540611 81.183443 
L 59.690891 81.134876 
L 60.841172 81.089833 
L 61.991452 81.050834 
L 63.141732 81.008604 
L 64.292012 80.971136 
L 65.442292 80.93432 
L 66.592573 80.89162 
L 67.742853 80.849842 
L 68.893133 80.81523 
L 70.043413 80.78355 
L 71.193693 80.754832 
L 72.343973 80.724982 
L 73.494254 80.703379 
L 74.644534 80.675638 
L 75.794814 80.649057 
L 76.945094 80.635002 
L 78.095374 80.623329 
L 79.245655 80.611665 
L 80.395935 80.604578 
L 81.546215 80.589561 
L 82.696495 80.583207 
L 83.846775 80.580984 
L 84.997055 80.582393 
L 86.147336 80.57243 
L 87.297616 80.570866 
L 88.447896 80.573699 
L 89.598176 80.570046 
L 90.748456 80.564412 
L 91.898737 80.566617 
L 93.049017 80.569981 
L 94.199297 80.568081 
L 95.349577 80.572007 
L 96.499857 80.578294 
L 97.650137 80.578649 
L 98.800418 80.582078 
L 99.950698 80.582693 
L 101.100978 80.580883 
L 102.251258 80.589096 
L 103.401538 80.5954 
L 104.551819 80.594539 
L 105.702099 80.603895 
L 106.852379 80.614485 
L 108.002659 80.627768 
L 109.152939 80.643688 
L 110.303219 80.663342 
L 111.4535 80.676966 
L 112.60378 80.696114 
L 113.75406 80.726561 
L 114.90434 80.741236 
L 116.05462 80.75484 
L 117.204901 80.772998 
L 118.355181 80.787656 
L 119.505461 80.800929 
L 120.655741 80.810131 
L 121.806021 80.829329 
L 122.956301 80.851661 
L 124.106582 80.876526 
L 125.256862 80.898663 
L 126.407142 80.924519 
L 127.557422 80.949204 
L 128.707702 80.967159 
L 129.857983 80.992752 
L 131.008263 81.009144 
L 132.158543 81.038411 
L 133.308823 81.060677 
L 134.459103 81.084191 
L 135.609383 81.099278 
L 136.759664 81.121793 
L 137.909944 81.142209 
L 139.060224 81.168166 
L 140.210504 81.189585 
L 141.360784 81.213452 
L 142.511065 81.241574 
L 143.661345 81.271289 
L 144.811625 81.301193 
L 144.811625 73.08748 
L 144.811625 73.08748 
L 143.661345 73.168207 
L 142.511065 73.250398 
L 141.360784 73.329258 
L 140.210504 73.409976 
L 139.060224 73.502682 
L 137.909944 73.580538 
L 136.759664 73.673004 
L 135.609383 73.753722 
L 134.459103 73.83449 
L 133.308823 73.915376 
L 132.158543 74.008041 
L 131.008263 74.091507 
L 129.857983 74.166632 
L 128.707702 74.263355 
L 127.557422 74.339267 
L 126.407142 74.418126 
L 125.256862 74.509716 
L 124.106582 74.584074 
L 122.956301 74.663843 
L 121.806021 74.749259 
L 120.655741 74.832152 
L 119.505461 74.908165 
L 118.355181 74.993741 
L 117.204901 75.071834 
L 116.05462 75.147456 
L 114.90434 75.220438 
L 113.75406 75.294793 
L 112.60378 75.37364 
L 111.4535 75.457712 
L 110.303219 75.537329 
L 109.152939 75.606793 
L 108.002659 75.685912 
L 106.852379 75.757239 
L 105.702099 75.827408 
L 104.551819 75.892582 
L 103.401538 75.957158 
L 102.251258 76.022643 
L 101.100978 76.10431 
L 99.950698 76.174784 
L 98.800418 76.24116 
L 97.650137 76.316943 
L 96.499857 76.386273 
L 95.349577 76.457195 
L 94.199297 76.535363 
L 93.049017 76.602859 
L 91.898737 76.676066 
L 90.748456 76.738431 
L 89.598176 76.801674 
L 88.447896 76.853478 
L 87.297616 76.920496 
L 86.147336 76.987506 
L 84.997055 77.049045 
L 83.846775 77.101297 
L 82.696495 77.159619 
L 81.546215 77.209857 
L 80.395935 77.262187 
L 79.245655 77.31456 
L 78.095374 77.355777 
L 76.945094 77.407515 
L 75.794814 77.452442 
L 74.644534 77.497561 
L 73.494254 77.537683 
L 72.343973 77.575133 
L 71.193693 77.601421 
L 70.043413 77.631134 
L 68.893133 77.655414 
L 67.742853 77.673225 
L 66.592573 77.70083 
L 65.442292 77.720938 
L 64.292012 77.733464 
L 63.141732 77.739137 
L 61.991452 77.751092 
L 60.841172 77.762203 
L 59.690891 77.782961 
L 58.540611 77.794892 
L 57.390331 77.808024 
L 56.240051 77.799548 
L 55.089771 77.804583 
L 53.939491 77.805624 
L 52.78921 77.810456 
L 51.63893 77.80546 
L 50.48865 77.793676 
L 49.33837 77.782992 
L 48.18809 77.7664 
L 47.037809 77.764166 
L 45.887529 77.76057 
L 44.737249 77.755423 
L 43.586969 77.741962 
L 42.436689 77.73611 
L 41.286409 77.715217 
L 40.136128 77.711436 
L 38.985848 77.700346 
L 37.835568 77.679611 
L 36.685288 77.672654 
L 35.535008 77.661212 
L 34.384727 77.64243 
L 33.234447 77.618656 
L 32.084167 77.599053 
L 30.933887 77.57783 
z
" clip-path="url(#p26ee34b9e4)" style="fill: #ff8c00; fill-opacity: 0.15"/>
   </g>
   <g id="matplotlib.axis_1">
    <g id="xtick_1">
     <g id="line2d_1">
      <defs>
       <path id="ma7fe9d9fb3" d="M 0 0 
L 0 3.5 
" style="stroke: #000000; stroke-width: 0.25"/>
      </defs>
      <g>
       <use xlink:href="#ma7fe9d9fb3" x="43.135073" y="89.218327" style="stroke: #000000; stroke-width: 0.25"/>
      </g>
     </g>
     <g id="text_1">
      <!-- 30 -->
      <g transform="translate(40.354604 97.297233) scale(0.05 -0.05)">
       <defs>
        <path id="ArialMT-33" d="M 269 1209 
L 831 1284 
Q 928 806 1161 595 
Q 1394 384 1728 384 
Q 2125 384 2398 659 
Q 2672 934 2672 1341 
Q 2672 1728 2419 1979 
Q 2166 2231 1775 2231 
Q 1616 2231 1378 2169 
L 1441 2663 
Q 1497 2656 1531 2656 
Q 1891 2656 2178 2843 
Q 2466 3031 2466 3422 
Q 2466 3731 2256 3934 
Q 2047 4138 1716 4138 
Q 1388 4138 1169 3931 
Q 950 3725 888 3313 
L 325 3413 
Q 428 3978 793 4289 
Q 1159 4600 1703 4600 
Q 2078 4600 2393 4439 
Q 2709 4278 2876 4000 
Q 3044 3722 3044 3409 
Q 3044 3113 2884 2869 
Q 2725 2625 2413 2481 
Q 2819 2388 3044 2092 
Q 3269 1797 3269 1353 
Q 3269 753 2831 336 
Q 2394 -81 1725 -81 
Q 1122 -81 723 278 
Q 325 638 269 1209 
z
" transform="scale(0.015625)"/>
        <path id="ArialMT-30" d="M 266 2259 
Q 266 3072 433 3567 
Q 600 4063 929 4331 
Q 1259 4600 1759 4600 
Q 2128 4600 2406 4451 
Q 2684 4303 2865 4023 
Q 3047 3744 3150 3342 
Q 3253 2941 3253 2259 
Q 3253 1453 3087 958 
Q 2922 463 2592 192 
Q 2263 -78 1759 -78 
Q 1097 -78 719 397 
Q 266 969 266 2259 
z
M 844 2259 
Q 844 1131 1108 757 
Q 1372 384 1759 384 
Q 2147 384 2411 759 
Q 2675 1134 2675 2259 
Q 2675 3391 2411 3762 
Q 2147 4134 1753 4134 
Q 1366 4134 1134 3806 
Q 844 3388 844 2259 
z
" transform="scale(0.015625)"/>
       </defs>
       <use xlink:href="#ArialMT-33"/>
       <use xlink:href="#ArialMT-30" x="55.615234"/>
      </g>
     </g>
    </g>
    <g id="xtick_2">
     <g id="line2d_2">
      <g>
       <use xlink:href="#ma7fe9d9fb3" x="63.470383" y="89.218327" style="stroke: #000000; stroke-width: 0.25"/>
      </g>
     </g>
     <g id="text_2">
      <!-- 40 -->
      <g transform="translate(60.689915 97.297233) scale(0.05 -0.05)">
       <defs>
        <path id="ArialMT-34" d="M 2069 0 
L 2069 1097 
L 81 1097 
L 81 1613 
L 2172 4581 
L 2631 4581 
L 2631 1613 
L 3250 1613 
L 3250 1097 
L 2631 1097 
L 2631 0 
L 2069 0 
z
M 2069 1613 
L 2069 3678 
L 634 1613 
L 2069 1613 
z
" transform="scale(0.015625)"/>
       </defs>
       <use xlink:href="#ArialMT-34"/>
       <use xlink:href="#ArialMT-30" x="55.615234"/>
      </g>
     </g>
    </g>
    <g id="xtick_3">
     <g id="line2d_3">
      <g>
       <use xlink:href="#ma7fe9d9fb3" x="83.805694" y="89.218327" style="stroke: #000000; stroke-width: 0.25"/>
      </g>
     </g>
     <g id="text_3">
      <!-- 50 -->
      <g transform="translate(81.025225 97.297233) scale(0.05 -0.05)">
       <defs>
        <path id="ArialMT-35" d="M 266 1200 
L 856 1250 
Q 922 819 1161 601 
Q 1400 384 1738 384 
Q 2144 384 2425 690 
Q 2706 997 2706 1503 
Q 2706 1984 2436 2262 
Q 2166 2541 1728 2541 
Q 1456 2541 1237 2417 
Q 1019 2294 894 2097 
L 366 2166 
L 809 4519 
L 3088 4519 
L 3088 3981 
L 1259 3981 
L 1013 2750 
Q 1425 3038 1878 3038 
Q 2478 3038 2890 2622 
Q 3303 2206 3303 1553 
Q 3303 931 2941 478 
Q 2500 -78 1738 -78 
Q 1113 -78 717 272 
Q 322 622 266 1200 
z
" transform="scale(0.015625)"/>
       </defs>
       <use xlink:href="#ArialMT-35"/>
       <use xlink:href="#ArialMT-30" x="55.615234"/>
      </g>
     </g>
    </g>
    <g id="xtick_4">
     <g id="line2d_4">
      <g>
       <use xlink:href="#ma7fe9d9fb3" x="104.141004" y="89.218327" style="stroke: #000000; stroke-width: 0.25"/>
      </g>
     </g>
     <g id="text_4">
      <!-- 60 -->
      <g transform="translate(101.360535 97.297233) scale(0.05 -0.05)">
       <defs>
        <path id="ArialMT-36" d="M 3184 3459 
L 2625 3416 
Q 2550 3747 2413 3897 
Q 2184 4138 1850 4138 
Q 1581 4138 1378 3988 
Q 1113 3794 959 3422 
Q 806 3050 800 2363 
Q 1003 2672 1297 2822 
Q 1591 2972 1913 2972 
Q 2475 2972 2870 2558 
Q 3266 2144 3266 1488 
Q 3266 1056 3080 686 
Q 2894 316 2569 119 
Q 2244 -78 1831 -78 
Q 1128 -78 684 439 
Q 241 956 241 2144 
Q 241 3472 731 4075 
Q 1159 4600 1884 4600 
Q 2425 4600 2770 4297 
Q 3116 3994 3184 3459 
z
M 888 1484 
Q 888 1194 1011 928 
Q 1134 663 1356 523 
Q 1578 384 1822 384 
Q 2178 384 2434 671 
Q 2691 959 2691 1453 
Q 2691 1928 2437 2201 
Q 2184 2475 1800 2475 
Q 1419 2475 1153 2201 
Q 888 1928 888 1484 
z
" transform="scale(0.015625)"/>
       </defs>
       <use xlink:href="#ArialMT-36"/>
       <use xlink:href="#ArialMT-30" x="55.615234"/>
      </g>
     </g>
    </g>
    <g id="xtick_5">
     <g id="line2d_5">
      <g>
       <use xlink:href="#ma7fe9d9fb3" x="124.476315" y="89.218327" style="stroke: #000000; stroke-width: 0.25"/>
      </g>
     </g>
     <g id="text_5">
      <!-- 70 -->
      <g transform="translate(121.695846 97.297233) scale(0.05 -0.05)">
       <defs>
        <path id="ArialMT-37" d="M 303 3981 
L 303 4522 
L 3269 4522 
L 3269 4084 
Q 2831 3619 2401 2847 
Q 1972 2075 1738 1259 
Q 1569 684 1522 0 
L 944 0 
Q 953 541 1156 1306 
Q 1359 2072 1739 2783 
Q 2119 3494 2547 3981 
L 303 3981 
z
" transform="scale(0.015625)"/>
       </defs>
       <use xlink:href="#ArialMT-37"/>
       <use xlink:href="#ArialMT-30" x="55.615234"/>
      </g>
     </g>
    </g>
    <g id="xtick_6">
     <g id="line2d_6">
      <g>
       <use xlink:href="#ma7fe9d9fb3" x="144.811625" y="89.218327" style="stroke: #000000; stroke-width: 0.25"/>
      </g>
     </g>
     <g id="text_6">
      <!-- 80 -->
      <g transform="translate(142.031156 97.297233) scale(0.05 -0.05)">
       <defs>
        <path id="ArialMT-38" d="M 1131 2484 
Q 781 2613 612 2850 
Q 444 3088 444 3419 
Q 444 3919 803 4259 
Q 1163 4600 1759 4600 
Q 2359 4600 2725 4251 
Q 3091 3903 3091 3403 
Q 3091 3084 2923 2848 
Q 2756 2613 2416 2484 
Q 2838 2347 3058 2040 
Q 3278 1734 3278 1309 
Q 3278 722 2862 322 
Q 2447 -78 1769 -78 
Q 1091 -78 675 323 
Q 259 725 259 1325 
Q 259 1772 486 2073 
Q 713 2375 1131 2484 
z
M 1019 3438 
Q 1019 3113 1228 2906 
Q 1438 2700 1772 2700 
Q 2097 2700 2305 2904 
Q 2513 3109 2513 3406 
Q 2513 3716 2298 3927 
Q 2084 4138 1766 4138 
Q 1444 4138 1231 3931 
Q 1019 3725 1019 3438 
z
M 838 1322 
Q 838 1081 952 856 
Q 1066 631 1291 507 
Q 1516 384 1775 384 
Q 2178 384 2440 643 
Q 2703 903 2703 1303 
Q 2703 1709 2433 1975 
Q 2163 2241 1756 2241 
Q 1359 2241 1098 1978 
Q 838 1716 838 1322 
z
" transform="scale(0.015625)"/>
       </defs>
       <use xlink:href="#ArialMT-38"/>
       <use xlink:href="#ArialMT-30" x="55.615234"/>
      </g>
     </g>
    </g>
    <g id="text_7">
     <!-- NIH cognition score [a.u.] -->
     <g transform="translate(54.192131 106.585671) scale(0.06 -0.06)">
      <defs>
       <path id="ArialMT-4e" d="M 488 0 
L 488 4581 
L 1109 4581 
L 3516 984 
L 3516 4581 
L 4097 4581 
L 4097 0 
L 3475 0 
L 1069 3600 
L 1069 0 
L 488 0 
z
" transform="scale(0.015625)"/>
       <path id="ArialMT-49" d="M 597 0 
L 597 4581 
L 1203 4581 
L 1203 0 
L 597 0 
z
" transform="scale(0.015625)"/>
       <path id="ArialMT-48" d="M 513 0 
L 513 4581 
L 1119 4581 
L 1119 2700 
L 3500 2700 
L 3500 4581 
L 4106 4581 
L 4106 0 
L 3500 0 
L 3500 2159 
L 1119 2159 
L 1119 0 
L 513 0 
z
" transform="scale(0.015625)"/>
       <path id="ArialMT-20" transform="scale(0.015625)"/>
       <path id="ArialMT-63" d="M 2588 1216 
L 3141 1144 
Q 3050 572 2676 248 
Q 2303 -75 1759 -75 
Q 1078 -75 664 370 
Q 250 816 250 1647 
Q 250 2184 428 2587 
Q 606 2991 970 3192 
Q 1334 3394 1763 3394 
Q 2303 3394 2647 3120 
Q 2991 2847 3088 2344 
L 2541 2259 
Q 2463 2594 2264 2762 
Q 2066 2931 1784 2931 
Q 1359 2931 1093 2626 
Q 828 2322 828 1663 
Q 828 994 1084 691 
Q 1341 388 1753 388 
Q 2084 388 2306 591 
Q 2528 794 2588 1216 
z
" transform="scale(0.015625)"/>
       <path id="ArialMT-6f" d="M 213 1659 
Q 213 2581 725 3025 
Q 1153 3394 1769 3394 
Q 2453 3394 2887 2945 
Q 3322 2497 3322 1706 
Q 3322 1066 3130 698 
Q 2938 331 2570 128 
Q 2203 -75 1769 -75 
Q 1072 -75 642 372 
Q 213 819 213 1659 
z
M 791 1659 
Q 791 1022 1069 705 
Q 1347 388 1769 388 
Q 2188 388 2466 706 
Q 2744 1025 2744 1678 
Q 2744 2294 2464 2611 
Q 2184 2928 1769 2928 
Q 1347 2928 1069 2612 
Q 791 2297 791 1659 
z
" transform="scale(0.015625)"/>
       <path id="ArialMT-67" d="M 319 -275 
L 866 -356 
Q 900 -609 1056 -725 
Q 1266 -881 1628 -881 
Q 2019 -881 2231 -725 
Q 2444 -569 2519 -288 
Q 2563 -116 2559 434 
Q 2191 0 1641 0 
Q 956 0 581 494 
Q 206 988 206 1678 
Q 206 2153 378 2554 
Q 550 2956 876 3175 
Q 1203 3394 1644 3394 
Q 2231 3394 2613 2919 
L 2613 3319 
L 3131 3319 
L 3131 450 
Q 3131 -325 2973 -648 
Q 2816 -972 2473 -1159 
Q 2131 -1347 1631 -1347 
Q 1038 -1347 672 -1080 
Q 306 -813 319 -275 
z
M 784 1719 
Q 784 1066 1043 766 
Q 1303 466 1694 466 
Q 2081 466 2343 764 
Q 2606 1063 2606 1700 
Q 2606 2309 2336 2618 
Q 2066 2928 1684 2928 
Q 1309 2928 1046 2623 
Q 784 2319 784 1719 
z
" transform="scale(0.015625)"/>
       <path id="ArialMT-6e" d="M 422 0 
L 422 3319 
L 928 3319 
L 928 2847 
Q 1294 3394 1984 3394 
Q 2284 3394 2536 3286 
Q 2788 3178 2913 3003 
Q 3038 2828 3088 2588 
Q 3119 2431 3119 2041 
L 3119 0 
L 2556 0 
L 2556 2019 
Q 2556 2363 2490 2533 
Q 2425 2703 2258 2804 
Q 2091 2906 1866 2906 
Q 1506 2906 1245 2678 
Q 984 2450 984 1813 
L 984 0 
L 422 0 
z
" transform="scale(0.015625)"/>
       <path id="ArialMT-69" d="M 425 3934 
L 425 4581 
L 988 4581 
L 988 3934 
L 425 3934 
z
M 425 0 
L 425 3319 
L 988 3319 
L 988 0 
L 425 0 
z
" transform="scale(0.015625)"/>
       <path id="ArialMT-74" d="M 1650 503 
L 1731 6 
Q 1494 -44 1306 -44 
Q 1000 -44 831 53 
Q 663 150 594 308 
Q 525 466 525 972 
L 525 2881 
L 113 2881 
L 113 3319 
L 525 3319 
L 525 4141 
L 1084 4478 
L 1084 3319 
L 1650 3319 
L 1650 2881 
L 1084 2881 
L 1084 941 
Q 1084 700 1114 631 
Q 1144 563 1211 522 
Q 1278 481 1403 481 
Q 1497 481 1650 503 
z
" transform="scale(0.015625)"/>
       <path id="ArialMT-73" d="M 197 991 
L 753 1078 
Q 800 744 1014 566 
Q 1228 388 1613 388 
Q 2000 388 2187 545 
Q 2375 703 2375 916 
Q 2375 1106 2209 1216 
Q 2094 1291 1634 1406 
Q 1016 1563 777 1677 
Q 538 1791 414 1992 
Q 291 2194 291 2438 
Q 291 2659 392 2848 
Q 494 3038 669 3163 
Q 800 3259 1026 3326 
Q 1253 3394 1513 3394 
Q 1903 3394 2198 3281 
Q 2494 3169 2634 2976 
Q 2775 2784 2828 2463 
L 2278 2388 
Q 2241 2644 2061 2787 
Q 1881 2931 1553 2931 
Q 1166 2931 1000 2803 
Q 834 2675 834 2503 
Q 834 2394 903 2306 
Q 972 2216 1119 2156 
Q 1203 2125 1616 2013 
Q 2213 1853 2448 1751 
Q 2684 1650 2818 1456 
Q 2953 1263 2953 975 
Q 2953 694 2789 445 
Q 2625 197 2315 61 
Q 2006 -75 1616 -75 
Q 969 -75 630 194 
Q 291 463 197 991 
z
" transform="scale(0.015625)"/>
       <path id="ArialMT-72" d="M 416 0 
L 416 3319 
L 922 3319 
L 922 2816 
Q 1116 3169 1280 3281 
Q 1444 3394 1641 3394 
Q 1925 3394 2219 3213 
L 2025 2691 
Q 1819 2813 1613 2813 
Q 1428 2813 1281 2702 
Q 1134 2591 1072 2394 
Q 978 2094 978 1738 
L 978 0 
L 416 0 
z
" transform="scale(0.015625)"/>
       <path id="ArialMT-65" d="M 2694 1069 
L 3275 997 
Q 3138 488 2766 206 
Q 2394 -75 1816 -75 
Q 1088 -75 661 373 
Q 234 822 234 1631 
Q 234 2469 665 2931 
Q 1097 3394 1784 3394 
Q 2450 3394 2872 2941 
Q 3294 2488 3294 1666 
Q 3294 1616 3291 1516 
L 816 1516 
Q 847 969 1125 678 
Q 1403 388 1819 388 
Q 2128 388 2347 550 
Q 2566 713 2694 1069 
z
M 847 1978 
L 2700 1978 
Q 2663 2397 2488 2606 
Q 2219 2931 1791 2931 
Q 1403 2931 1139 2672 
Q 875 2413 847 1978 
z
" transform="scale(0.015625)"/>
       <path id="ArialMT-5b" d="M 434 -1272 
L 434 4581 
L 1675 4581 
L 1675 4116 
L 997 4116 
L 997 -806 
L 1675 -806 
L 1675 -1272 
L 434 -1272 
z
" transform="scale(0.015625)"/>
       <path id="ArialMT-61" d="M 2588 409 
Q 2275 144 1986 34 
Q 1697 -75 1366 -75 
Q 819 -75 525 192 
Q 231 459 231 875 
Q 231 1119 342 1320 
Q 453 1522 633 1644 
Q 813 1766 1038 1828 
Q 1203 1872 1538 1913 
Q 2219 1994 2541 2106 
Q 2544 2222 2544 2253 
Q 2544 2597 2384 2738 
Q 2169 2928 1744 2928 
Q 1347 2928 1158 2789 
Q 969 2650 878 2297 
L 328 2372 
Q 403 2725 575 2942 
Q 747 3159 1072 3276 
Q 1397 3394 1825 3394 
Q 2250 3394 2515 3294 
Q 2781 3194 2906 3042 
Q 3031 2891 3081 2659 
Q 3109 2516 3109 2141 
L 3109 1391 
Q 3109 606 3145 398 
Q 3181 191 3288 0 
L 2700 0 
Q 2613 175 2588 409 
z
M 2541 1666 
Q 2234 1541 1622 1453 
Q 1275 1403 1131 1340 
Q 988 1278 909 1158 
Q 831 1038 831 891 
Q 831 666 1001 516 
Q 1172 366 1500 366 
Q 1825 366 2078 508 
Q 2331 650 2450 897 
Q 2541 1088 2541 1459 
L 2541 1666 
z
" transform="scale(0.015625)"/>
       <path id="ArialMT-2e" d="M 581 0 
L 581 641 
L 1222 641 
L 1222 0 
L 581 0 
z
" transform="scale(0.015625)"/>
       <path id="ArialMT-75" d="M 2597 0 
L 2597 488 
Q 2209 -75 1544 -75 
Q 1250 -75 995 37 
Q 741 150 617 320 
Q 494 491 444 738 
Q 409 903 409 1263 
L 409 3319 
L 972 3319 
L 972 1478 
Q 972 1038 1006 884 
Q 1059 663 1231 536 
Q 1403 409 1656 409 
Q 1909 409 2131 539 
Q 2353 669 2445 892 
Q 2538 1116 2538 1541 
L 2538 3319 
L 3100 3319 
L 3100 0 
L 2597 0 
z
" transform="scale(0.015625)"/>
       <path id="ArialMT-5d" d="M 1363 -1272 
L 122 -1272 
L 122 -806 
L 800 -806 
L 800 4116 
L 122 4116 
L 122 4581 
L 1363 4581 
L 1363 -1272 
z
" transform="scale(0.015625)"/>
      </defs>
      <use xlink:href="#ArialMT-4e"/>
      <use xlink:href="#ArialMT-49" x="72.216797"/>
      <use xlink:href="#ArialMT-48" x="100"/>
      <use xlink:href="#ArialMT-20" x="172.216797"/>
      <use xlink:href="#ArialMT-63" x="200"/>
      <use xlink:href="#ArialMT-6f" x="250"/>
      <use xlink:href="#ArialMT-67" x="305.615234"/>
      <use xlink:href="#ArialMT-6e" x="361.230469"/>
      <use xlink:href="#ArialMT-69" x="416.845703"/>
      <use xlink:href="#ArialMT-74" x="439.0625"/>
      <use xlink:href="#ArialMT-69" x="466.845703"/>
      <use xlink:href="#ArialMT-6f" x="489.0625"/>
      <use xlink:href="#ArialMT-6e" x="544.677734"/>
      <use xlink:href="#ArialMT-20" x="600.292969"/>
      <use xlink:href="#ArialMT-73" x="628.076172"/>
      <use xlink:href="#ArialMT-63" x="678.076172"/>
      <use xlink:href="#ArialMT-6f" x="728.076172"/>
      <use xlink:href="#ArialMT-72" x="783.691406"/>
      <use xlink:href="#ArialMT-65" x="816.992188"/>
      <use xlink:href="#ArialMT-20" x="872.607422"/>
      <use xlink:href="#ArialMT-5b" x="900.390625"/>
      <use xlink:href="#ArialMT-61" x="928.173828"/>
      <use xlink:href="#ArialMT-2e" x="983.789062"/>
      <use xlink:href="#ArialMT-75" x="1011.572266"/>
      <use xlink:href="#ArialMT-2e" x="1067.1875"/>
      <use xlink:href="#ArialMT-5d" x="1094.970703"/>
     </g>
    </g>
   </g>
   <g id="matplotlib.axis_2">
    <g id="ytick_1">
     <g id="line2d_7">
      <defs>
       <path id="me9e0dfbb58" d="M 0 0 
L -3.5 0 
" style="stroke: #000000; stroke-width: 0.25"/>
      </defs>
      <g>
       <use xlink:href="#me9e0dfbb58" x="25.24" y="85.408403" style="stroke: #000000; stroke-width: 0.25"/>
      </g>
     </g>
     <g id="text_8">
      <!-- 0 -->
      <g transform="translate(17.959531 87.197856) scale(0.05 -0.05)">
       <use xlink:href="#ArialMT-30"/>
      </g>
     </g>
    </g>
    <g id="ytick_2">
     <g id="line2d_8">
      <g>
       <use xlink:href="#me9e0dfbb58" x="25.24" y="68.843516" style="stroke: #000000; stroke-width: 0.25"/>
      </g>
     </g>
     <g id="text_9">
      <!-- 5 -->
      <g transform="translate(17.959531 70.632969) scale(0.05 -0.05)">
       <use xlink:href="#ArialMT-35"/>
      </g>
     </g>
    </g>
    <g id="ytick_3">
     <g id="line2d_9">
      <g>
       <use xlink:href="#me9e0dfbb58" x="25.24" y="52.278629" style="stroke: #000000; stroke-width: 0.25"/>
      </g>
     </g>
     <g id="text_10">
      <!-- 10 -->
      <g transform="translate(15.179063 54.068083) scale(0.05 -0.05)">
       <defs>
        <path id="ArialMT-31" d="M 2384 0 
L 1822 0 
L 1822 3584 
Q 1619 3391 1289 3197 
Q 959 3003 697 2906 
L 697 3450 
Q 1169 3672 1522 3987 
Q 1875 4303 2022 4600 
L 2384 4600 
L 2384 0 
z
" transform="scale(0.015625)"/>
       </defs>
       <use xlink:href="#ArialMT-31"/>
       <use xlink:href="#ArialMT-30" x="55.615234"/>
      </g>
     </g>
    </g>
    <g id="ytick_4">
     <g id="line2d_10">
      <g>
       <use xlink:href="#me9e0dfbb58" x="25.24" y="35.713743" style="stroke: #000000; stroke-width: 0.25"/>
      </g>
     </g>
     <g id="text_11">
      <!-- 15 -->
      <g transform="translate(15.179063 37.503196) scale(0.05 -0.05)">
       <use xlink:href="#ArialMT-31"/>
       <use xlink:href="#ArialMT-35" x="55.615234"/>
      </g>
     </g>
    </g>
    <g id="ytick_5">
     <g id="line2d_11">
      <g>
       <use xlink:href="#me9e0dfbb58" x="25.24" y="19.148856" style="stroke: #000000; stroke-width: 0.25"/>
      </g>
     </g>
     <g id="text_12">
      <!-- 20 -->
      <g transform="translate(15.179063 20.938309) scale(0.05 -0.05)">
       <defs>
        <path id="ArialMT-32" d="M 3222 541 
L 3222 0 
L 194 0 
Q 188 203 259 391 
Q 375 700 629 1000 
Q 884 1300 1366 1694 
Q 2113 2306 2375 2664 
Q 2638 3022 2638 3341 
Q 2638 3675 2398 3904 
Q 2159 4134 1775 4134 
Q 1369 4134 1125 3890 
Q 881 3647 878 3216 
L 300 3275 
Q 359 3922 746 4261 
Q 1134 4600 1788 4600 
Q 2447 4600 2831 4234 
Q 3216 3869 3216 3328 
Q 3216 3053 3103 2787 
Q 2991 2522 2730 2228 
Q 2469 1934 1863 1422 
Q 1356 997 1212 845 
Q 1069 694 975 541 
L 3222 541 
z
" transform="scale(0.015625)"/>
       </defs>
       <use xlink:href="#ArialMT-32"/>
       <use xlink:href="#ArialMT-30" x="55.615234"/>
      </g>
     </g>
    </g>
    <g id="text_13">
     <!-- Number infranormal deviations -->
     <g transform="translate(9.986563 88.157913) rotate(-90) scale(0.06 -0.06)">
      <defs>
       <path id="ArialMT-6d" d="M 422 0 
L 422 3319 
L 925 3319 
L 925 2853 
Q 1081 3097 1340 3245 
Q 1600 3394 1931 3394 
Q 2300 3394 2536 3241 
Q 2772 3088 2869 2813 
Q 3263 3394 3894 3394 
Q 4388 3394 4653 3120 
Q 4919 2847 4919 2278 
L 4919 0 
L 4359 0 
L 4359 2091 
Q 4359 2428 4304 2576 
Q 4250 2725 4106 2815 
Q 3963 2906 3769 2906 
Q 3419 2906 3187 2673 
Q 2956 2441 2956 1928 
L 2956 0 
L 2394 0 
L 2394 2156 
Q 2394 2531 2256 2718 
Q 2119 2906 1806 2906 
Q 1569 2906 1367 2781 
Q 1166 2656 1075 2415 
Q 984 2175 984 1722 
L 984 0 
L 422 0 
z
" transform="scale(0.015625)"/>
       <path id="ArialMT-62" d="M 941 0 
L 419 0 
L 419 4581 
L 981 4581 
L 981 2947 
Q 1338 3394 1891 3394 
Q 2197 3394 2470 3270 
Q 2744 3147 2920 2923 
Q 3097 2700 3197 2384 
Q 3297 2069 3297 1709 
Q 3297 856 2875 390 
Q 2453 -75 1863 -75 
Q 1275 -75 941 416 
L 941 0 
z
M 934 1684 
Q 934 1088 1097 822 
Q 1363 388 1816 388 
Q 2184 388 2453 708 
Q 2722 1028 2722 1663 
Q 2722 2313 2464 2622 
Q 2206 2931 1841 2931 
Q 1472 2931 1203 2611 
Q 934 2291 934 1684 
z
" transform="scale(0.015625)"/>
       <path id="ArialMT-66" d="M 556 0 
L 556 2881 
L 59 2881 
L 59 3319 
L 556 3319 
L 556 3672 
Q 556 4006 616 4169 
Q 697 4388 901 4523 
Q 1106 4659 1475 4659 
Q 1713 4659 2000 4603 
L 1916 4113 
Q 1741 4144 1584 4144 
Q 1328 4144 1222 4034 
Q 1116 3925 1116 3625 
L 1116 3319 
L 1763 3319 
L 1763 2881 
L 1116 2881 
L 1116 0 
L 556 0 
z
" transform="scale(0.015625)"/>
       <path id="ArialMT-6c" d="M 409 0 
L 409 4581 
L 972 4581 
L 972 0 
L 409 0 
z
" transform="scale(0.015625)"/>
       <path id="ArialMT-64" d="M 2575 0 
L 2575 419 
Q 2259 -75 1647 -75 
Q 1250 -75 917 144 
Q 584 363 401 755 
Q 219 1147 219 1656 
Q 219 2153 384 2558 
Q 550 2963 881 3178 
Q 1213 3394 1622 3394 
Q 1922 3394 2156 3267 
Q 2391 3141 2538 2938 
L 2538 4581 
L 3097 4581 
L 3097 0 
L 2575 0 
z
M 797 1656 
Q 797 1019 1065 703 
Q 1334 388 1700 388 
Q 2069 388 2326 689 
Q 2584 991 2584 1609 
Q 2584 2291 2321 2609 
Q 2059 2928 1675 2928 
Q 1300 2928 1048 2622 
Q 797 2316 797 1656 
z
" transform="scale(0.015625)"/>
       <path id="ArialMT-76" d="M 1344 0 
L 81 3319 
L 675 3319 
L 1388 1331 
Q 1503 1009 1600 663 
Q 1675 925 1809 1294 
L 2547 3319 
L 3125 3319 
L 1869 0 
L 1344 0 
z
" transform="scale(0.015625)"/>
      </defs>
      <use xlink:href="#ArialMT-4e"/>
      <use xlink:href="#ArialMT-75" x="72.216797"/>
      <use xlink:href="#ArialMT-6d" x="127.832031"/>
      <use xlink:href="#ArialMT-62" x="211.132812"/>
      <use xlink:href="#ArialMT-65" x="266.748047"/>
      <use xlink:href="#ArialMT-72" x="322.363281"/>
      <use xlink:href="#ArialMT-20" x="355.664062"/>
      <use xlink:href="#ArialMT-69" x="383.447266"/>
      <use xlink:href="#ArialMT-6e" x="405.664062"/>
      <use xlink:href="#ArialMT-66" x="461.279297"/>
      <use xlink:href="#ArialMT-72" x="489.0625"/>
      <use xlink:href="#ArialMT-61" x="522.363281"/>
      <use xlink:href="#ArialMT-6e" x="577.978516"/>
      <use xlink:href="#ArialMT-6f" x="633.59375"/>
      <use xlink:href="#ArialMT-72" x="689.208984"/>
      <use xlink:href="#ArialMT-6d" x="722.509766"/>
      <use xlink:href="#ArialMT-61" x="805.810547"/>
      <use xlink:href="#ArialMT-6c" x="861.425781"/>
      <use xlink:href="#ArialMT-20" x="883.642578"/>
      <use xlink:href="#ArialMT-64" x="911.425781"/>
      <use xlink:href="#ArialMT-65" x="967.041016"/>
      <use xlink:href="#ArialMT-76" x="1022.65625"/>
      <use xlink:href="#ArialMT-69" x="1072.65625"/>
      <use xlink:href="#ArialMT-61" x="1094.873047"/>
      <use xlink:href="#ArialMT-74" x="1150.488281"/>
      <use xlink:href="#ArialMT-69" x="1178.271484"/>
      <use xlink:href="#ArialMT-6f" x="1200.488281"/>
      <use xlink:href="#ArialMT-6e" x="1256.103516"/>
      <use xlink:href="#ArialMT-73" x="1311.71875"/>
     </g>
    </g>
   </g>
   <g id="line2d_12">
    <path d="M 30.933887 80.210727 
L 32.084167 80.183317 
L 33.234447 80.155906 
L 34.384727 80.128495 
L 35.535008 80.101085 
L 36.685288 80.073674 
L 37.835568 80.046263 
L 38.985848 80.018853 
L 40.136128 79.991442 
L 41.286409 79.964031 
L 42.436689 79.936621 
L 43.586969 79.90921 
L 44.737249 79.881799 
L 45.887529 79.854389 
L 47.037809 79.826978 
L 48.18809 79.799567 
L 49.33837 79.772157 
L 50.48865 79.744746 
L 51.63893 79.717335 
L 52.78921 79.689925 
L 53.939491 79.662514 
L 55.089771 79.635103 
L 56.240051 79.607693 
L 57.390331 79.580282 
L 58.540611 79.552871 
L 59.690891 79.525461 
L 60.841172 79.49805 
L 61.991452 79.470639 
L 63.141732 79.443229 
L 64.292012 79.415818 
L 65.442292 79.388407 
L 66.592573 79.360997 
L 67.742853 79.333586 
L 68.893133 79.306175 
L 70.043413 79.278765 
L 71.193693 79.251354 
L 72.343973 79.223943 
L 73.494254 79.196533 
L 74.644534 79.169122 
L 75.794814 79.141711 
L 76.945094 79.114301 
L 78.095374 79.08689 
L 79.245655 79.059479 
L 80.395935 79.032069 
L 81.546215 79.004658 
L 82.696495 78.977247 
L 83.846775 78.949837 
L 84.997055 78.922426 
L 86.147336 78.895015 
L 87.297616 78.867605 
L 88.447896 78.840194 
L 89.598176 78.812783 
L 90.748456 78.785373 
L 91.898737 78.757962 
L 93.049017 78.730551 
L 94.199297 78.703141 
L 95.349577 78.67573 
L 96.499857 78.648319 
L 97.650137 78.620909 
L 98.800418 78.593498 
L 99.950698 78.566087 
L 101.100978 78.538677 
L 102.251258 78.511266 
L 103.401538 78.483855 
L 104.551819 78.456445 
L 105.702099 78.429034 
L 106.852379 78.401623 
L 108.002659 78.374213 
L 109.152939 78.346802 
L 110.303219 78.319391 
L 111.4535 78.291981 
L 112.60378 78.26457 
L 113.75406 78.237159 
L 114.90434 78.209749 
L 116.05462 78.182338 
L 117.204901 78.154927 
L 118.355181 78.127517 
L 119.505461 78.100106 
L 120.655741 78.072695 
L 121.806021 78.045285 
L 122.956301 78.017874 
L 124.106582 77.990463 
L 125.256862 77.963053 
L 126.407142 77.935642 
L 127.557422 77.908231 
L 128.707702 77.880821 
L 129.857983 77.85341 
L 131.008263 77.825999 
L 132.158543 77.798589 
L 133.308823 77.771178 
L 134.459103 77.743767 
L 135.609383 77.716357 
L 136.759664 77.688946 
L 137.909944 77.661535 
L 139.060224 77.634125 
L 140.210504 77.606714 
L 141.360784 77.579303 
L 142.511065 77.551893 
L 143.661345 77.524482 
L 144.811625 77.497071 
" clip-path="url(#p26ee34b9e4)" style="fill: none; stroke: #ff8c00; stroke-width: 0.75; stroke-linecap: square"/>
   </g>
   <g id="patch_3">
    <path d="M 25.24 89.218327 
L 25.24 5.4 
" style="fill: none; stroke: #000000; stroke-width: 0.25; stroke-linejoin: miter; stroke-linecap: square"/>
   </g>
   <g id="patch_4">
    <path d="M 25.24 89.218327 
L 150.505512 89.218327 
" style="fill: none; stroke: #000000; stroke-width: 0.25; stroke-linejoin: miter; stroke-linecap: square"/>
   </g>
   <g id="text_14">
    <g id="patch_5">
     <path d="M 28.997965 18.699023 
L 52.297965 18.699023 
Q 53.797965 18.699023 53.797965 17.199023 
L 53.797965 7.132617 
Q 53.797965 5.632617 52.297965 5.632617 
L 28.997965 5.632617 
Q 27.497965 5.632617 27.497965 7.132617 
L 27.497965 17.199023 
Q 27.497965 18.699023 28.997965 18.699023 
z
" style="fill: #c0c0c0; opacity: 0.4; stroke: #c0c0c0; stroke-linejoin: miter"/>
    </g>
    <!-- $r=0.107$ -->
    <g transform="translate(28.997965 10.655273) scale(0.05 -0.05)">
     <defs>
      <path id="DejaVuSans-Oblique-72" d="M 2853 2969 
Q 2766 3016 2653 3041 
Q 2541 3066 2413 3066 
Q 1953 3066 1609 2717 
Q 1266 2369 1153 1784 
L 800 0 
L 225 0 
L 909 3500 
L 1484 3500 
L 1375 2956 
Q 1603 3259 1920 3421 
Q 2238 3584 2597 3584 
Q 2691 3584 2781 3573 
Q 2872 3563 2963 3538 
L 2853 2969 
z
" transform="scale(0.015625)"/>
      <path id="DejaVuSans-3d" d="M 678 2906 
L 4684 2906 
L 4684 2381 
L 678 2381 
L 678 2906 
z
M 678 1631 
L 4684 1631 
L 4684 1100 
L 678 1100 
L 678 1631 
z
" transform="scale(0.015625)"/>
      <path id="DejaVuSans-30" d="M 2034 4250 
Q 1547 4250 1301 3770 
Q 1056 3291 1056 2328 
Q 1056 1369 1301 889 
Q 1547 409 2034 409 
Q 2525 409 2770 889 
Q 3016 1369 3016 2328 
Q 3016 3291 2770 3770 
Q 2525 4250 2034 4250 
z
M 2034 4750 
Q 2819 4750 3233 4129 
Q 3647 3509 3647 2328 
Q 3647 1150 3233 529 
Q 2819 -91 2034 -91 
Q 1250 -91 836 529 
Q 422 1150 422 2328 
Q 422 3509 836 4129 
Q 1250 4750 2034 4750 
z
" transform="scale(0.015625)"/>
      <path id="DejaVuSans-2e" d="M 684 794 
L 1344 794 
L 1344 0 
L 684 0 
L 684 794 
z
" transform="scale(0.015625)"/>
      <path id="DejaVuSans-31" d="M 794 531 
L 1825 531 
L 1825 4091 
L 703 3866 
L 703 4441 
L 1819 4666 
L 2450 4666 
L 2450 531 
L 3481 531 
L 3481 0 
L 794 0 
L 794 531 
z
" transform="scale(0.015625)"/>
      <path id="DejaVuSans-37" d="M 525 4666 
L 3525 4666 
L 3525 4397 
L 1831 0 
L 1172 0 
L 2766 4134 
L 525 4134 
L 525 4666 
z
" transform="scale(0.015625)"/>
     </defs>
     <use xlink:href="#DejaVuSans-Oblique-72" transform="translate(0 0.78125)"/>
     <use xlink:href="#DejaVuSans-3d" transform="translate(60.595703 0.78125)"/>
     <use xlink:href="#DejaVuSans-30" transform="translate(163.867188 0.78125)"/>
     <use xlink:href="#DejaVuSans-2e" transform="translate(227.490234 0.78125)"/>
     <use xlink:href="#DejaVuSans-31" transform="translate(259.277344 0.78125)"/>
     <use xlink:href="#DejaVuSans-30" transform="translate(322.900391 0.78125)"/>
     <use xlink:href="#DejaVuSans-37" transform="translate(386.523438 0.78125)"/>
    </g>
    <!-- $p=0.157$ -->
    <g transform="translate(28.997965 16.149023) scale(0.05 -0.05)">
     <defs>
      <path id="DejaVuSans-Oblique-70" d="M 3175 2156 
Q 3175 2616 2975 2859 
Q 2775 3103 2400 3103 
Q 2144 3103 1911 2972 
Q 1678 2841 1497 2591 
Q 1319 2344 1212 1994 
Q 1106 1644 1106 1300 
Q 1106 863 1306 627 
Q 1506 391 1875 391 
Q 2147 391 2380 519 
Q 2613 647 2778 891 
Q 2956 1147 3065 1494 
Q 3175 1841 3175 2156 
z
M 1394 2969 
Q 1625 3272 1939 3428 
Q 2253 3584 2638 3584 
Q 3175 3584 3472 3232 
Q 3769 2881 3769 2247 
Q 3769 1728 3584 1258 
Q 3400 788 3053 416 
Q 2822 169 2531 39 
Q 2241 -91 1919 -91 
Q 1547 -91 1294 64 
Q 1041 219 916 525 
L 556 -1331 
L -19 -1331 
L 922 3500 
L 1497 3500 
L 1394 2969 
z
" transform="scale(0.015625)"/>
      <path id="DejaVuSans-35" d="M 691 4666 
L 3169 4666 
L 3169 4134 
L 1269 4134 
L 1269 2991 
Q 1406 3038 1543 3061 
Q 1681 3084 1819 3084 
Q 2600 3084 3056 2656 
Q 3513 2228 3513 1497 
Q 3513 744 3044 326 
Q 2575 -91 1722 -91 
Q 1428 -91 1123 -41 
Q 819 9 494 109 
L 494 744 
Q 775 591 1075 516 
Q 1375 441 1709 441 
Q 2250 441 2565 725 
Q 2881 1009 2881 1497 
Q 2881 1984 2565 2268 
Q 2250 2553 1709 2553 
Q 1456 2553 1204 2497 
Q 953 2441 691 2322 
L 691 4666 
z
" transform="scale(0.015625)"/>
     </defs>
     <use xlink:href="#DejaVuSans-Oblique-70" transform="translate(0 0.78125)"/>
     <use xlink:href="#DejaVuSans-3d" transform="translate(82.958984 0.78125)"/>
     <use xlink:href="#DejaVuSans-30" transform="translate(186.230469 0.78125)"/>
     <use xlink:href="#DejaVuSans-2e" transform="translate(249.853516 0.78125)"/>
     <use xlink:href="#DejaVuSans-31" transform="translate(281.640625 0.78125)"/>
     <use xlink:href="#DejaVuSans-35" transform="translate(345.263672 0.78125)"/>
     <use xlink:href="#DejaVuSans-37" transform="translate(401.636719 0.78125)"/>
    </g>
   </g>
  </g>
 </g>
 <defs>
  <clipPath id="p26ee34b9e4">
   <rect x="25.24" y="5.4" width="125.265512" height="83.818327"/>
  </clipPath>
 </defs>
</svg>
