<?xml version="1.0" encoding="utf-8" standalone="no"?>
<!DOCTYPE svg PUBLIC "-//W3C//DTD SVG 1.1//EN"
  "http://www.w3.org/Graphics/SVG/1.1/DTD/svg11.dtd">
<svg xmlns:xlink="http://www.w3.org/1999/xlink" width="245.629844pt" height="258.483398pt" viewBox="0 0 245.629844 258.483398" xmlns="http://www.w3.org/2000/svg" version="1.1">
 <metadata>
  <rdf:RDF xmlns:dc="http://purl.org/dc/elements/1.1/" xmlns:cc="http://creativecommons.org/ns#" xmlns:rdf="http://www.w3.org/1999/02/22-rdf-syntax-ns#">
   <cc:Work>
    <dc:type rdf:resource="http://purl.org/dc/dcmitype/StillImage"/>
    <dc:date>2025-06-10T10:56:51.803713</dc:date>
    <dc:format>image/svg+xml</dc:format>
    <dc:creator>
     <cc:Agent>
      <dc:title>Matplotlib v3.9.2, https://matplotlib.org/</dc:title>
     </cc:Agent>
    </dc:creator>
   </cc:Work>
  </rdf:RDF>
 </metadata>
 <defs>
  <style type="text/css">*{stroke-linejoin: round; stroke-linecap: butt}</style>
 </defs>
 <g id="figure_1">
  <g id="patch_1">
   <path d="M 0 258.483398 
L 245.629844 258.483398 
L 245.629844 0 
L 0 0 
z
" style="fill: #ffffff"/>
  </g>
  <g id="axes_1">
   <g id="patch_2">
    <path d="M 71.029844 231.723554 
L 238.429844 231.723554 
L 238.429844 9.963554 
L 71.029844 9.963554 
z
" style="fill: #ffffff"/>
   </g>
   <g id="matplotlib.axis_1">
    <g id="xtick_1">
     <g id="text_1">
      <!-- Term -->
      <g style="fill: #262626" transform="translate(100.238523 249.097148) scale(0.11 -0.11)">
       <defs>
        <path id="ArialMT-54" d="M 1659 0 
L 1659 4041 
L 150 4041 
L 150 4581 
L 3781 4581 
L 3781 4041 
L 2266 4041 
L 2266 0 
L 1659 0 
z
" transform="scale(0.015625)"/>
        <path id="ArialMT-65" d="M 2694 1069 
L 3275 997 
Q 3138 488 2766 206 
Q 2394 -75 1816 -75 
Q 1088 -75 661 373 
Q 234 822 234 1631 
Q 234 2469 665 2931 
Q 1097 3394 1784 3394 
Q 2450 3394 2872 2941 
Q 3294 2488 3294 1666 
Q 3294 1616 3291 1516 
L 816 1516 
Q 847 969 1125 678 
Q 1403 388 1819 388 
Q 2128 388 2347 550 
Q 2566 713 2694 1069 
z
M 847 1978 
L 2700 1978 
Q 2663 2397 2488 2606 
Q 2219 2931 1791 2931 
Q 1403 2931 1139 2672 
Q 875 2413 847 1978 
z
" transform="scale(0.015625)"/>
        <path id="ArialMT-72" d="M 416 0 
L 416 3319 
L 922 3319 
L 922 2816 
Q 1116 3169 1280 3281 
Q 1444 3394 1641 3394 
Q 1925 3394 2219 3213 
L 2025 2691 
Q 1819 2813 1613 2813 
Q 1428 2813 1281 2702 
Q 1134 2591 1072 2394 
Q 978 2094 978 1738 
L 978 0 
L 416 0 
z
" transform="scale(0.015625)"/>
        <path id="ArialMT-6d" d="M 422 0 
L 422 3319 
L 925 3319 
L 925 2853 
Q 1081 3097 1340 3245 
Q 1600 3394 1931 3394 
Q 2300 3394 2536 3241 
Q 2772 3088 2869 2813 
Q 3263 3394 3894 3394 
Q 4388 3394 4653 3120 
Q 4919 2847 4919 2278 
L 4919 0 
L 4359 0 
L 4359 2091 
Q 4359 2428 4304 2576 
Q 4250 2725 4106 2815 
Q 3963 2906 3769 2906 
Q 3419 2906 3187 2673 
Q 2956 2441 2956 1928 
L 2956 0 
L 2394 0 
L 2394 2156 
Q 2394 2531 2256 2718 
Q 2119 2906 1806 2906 
Q 1569 2906 1367 2781 
Q 1166 2656 1075 2415 
Q 984 2175 984 1722 
L 984 0 
L 422 0 
z
" transform="scale(0.015625)"/>
       </defs>
       <use xlink:href="#ArialMT-54"/>
       <use xlink:href="#ArialMT-65" x="49.958984"/>
       <use xlink:href="#ArialMT-72" x="105.574219"/>
       <use xlink:href="#ArialMT-6d" x="138.875"/>
      </g>
     </g>
    </g>
    <g id="xtick_2">
     <g id="text_2">
      <!-- Preterm -->
      <g style="fill: #262626" transform="translate(177.444915 249.097148) scale(0.11 -0.11)">
       <defs>
        <path id="ArialMT-50" d="M 494 0 
L 494 4581 
L 2222 4581 
Q 2678 4581 2919 4538 
Q 3256 4481 3484 4323 
Q 3713 4166 3852 3881 
Q 3991 3597 3991 3256 
Q 3991 2672 3619 2267 
Q 3247 1863 2275 1863 
L 1100 1863 
L 1100 0 
L 494 0 
z
M 1100 2403 
L 2284 2403 
Q 2872 2403 3119 2622 
Q 3366 2841 3366 3238 
Q 3366 3525 3220 3729 
Q 3075 3934 2838 4000 
Q 2684 4041 2272 4041 
L 1100 4041 
L 1100 2403 
z
" transform="scale(0.015625)"/>
        <path id="ArialMT-74" d="M 1650 503 
L 1731 6 
Q 1494 -44 1306 -44 
Q 1000 -44 831 53 
Q 663 150 594 308 
Q 525 466 525 972 
L 525 2881 
L 113 2881 
L 113 3319 
L 525 3319 
L 525 4141 
L 1084 4478 
L 1084 3319 
L 1650 3319 
L 1650 2881 
L 1084 2881 
L 1084 941 
Q 1084 700 1114 631 
Q 1144 563 1211 522 
Q 1278 481 1403 481 
Q 1497 481 1650 503 
z
" transform="scale(0.015625)"/>
       </defs>
       <use xlink:href="#ArialMT-50"/>
       <use xlink:href="#ArialMT-72" x="66.699219"/>
       <use xlink:href="#ArialMT-65" x="100"/>
       <use xlink:href="#ArialMT-74" x="155.615234"/>
       <use xlink:href="#ArialMT-65" x="183.398438"/>
       <use xlink:href="#ArialMT-72" x="239.013672"/>
       <use xlink:href="#ArialMT-6d" x="272.314453"/>
      </g>
     </g>
    </g>
   </g>
   <g id="matplotlib.axis_2">
    <g id="ytick_1">
     <g id="text_3">
      <!-- −60000 -->
      <g style="fill: #262626" transform="translate(24.52 211.918831) scale(0.11 -0.11)">
       <defs>
        <path id="ArialMT-2212" d="M 3381 1997 
L 356 1997 
L 356 2522 
L 3381 2522 
L 3381 1997 
z
" transform="scale(0.015625)"/>
        <path id="ArialMT-36" d="M 3184 3459 
L 2625 3416 
Q 2550 3747 2413 3897 
Q 2184 4138 1850 4138 
Q 1581 4138 1378 3988 
Q 1113 3794 959 3422 
Q 806 3050 800 2363 
Q 1003 2672 1297 2822 
Q 1591 2972 1913 2972 
Q 2475 2972 2870 2558 
Q 3266 2144 3266 1488 
Q 3266 1056 3080 686 
Q 2894 316 2569 119 
Q 2244 -78 1831 -78 
Q 1128 -78 684 439 
Q 241 956 241 2144 
Q 241 3472 731 4075 
Q 1159 4600 1884 4600 
Q 2425 4600 2770 4297 
Q 3116 3994 3184 3459 
z
M 888 1484 
Q 888 1194 1011 928 
Q 1134 663 1356 523 
Q 1578 384 1822 384 
Q 2178 384 2434 671 
Q 2691 959 2691 1453 
Q 2691 1928 2437 2201 
Q 2184 2475 1800 2475 
Q 1419 2475 1153 2201 
Q 888 1928 888 1484 
z
" transform="scale(0.015625)"/>
        <path id="ArialMT-30" d="M 266 2259 
Q 266 3072 433 3567 
Q 600 4063 929 4331 
Q 1259 4600 1759 4600 
Q 2128 4600 2406 4451 
Q 2684 4303 2865 4023 
Q 3047 3744 3150 3342 
Q 3253 2941 3253 2259 
Q 3253 1453 3087 958 
Q 2922 463 2592 192 
Q 2263 -78 1759 -78 
Q 1097 -78 719 397 
Q 266 969 266 2259 
z
M 844 2259 
Q 844 1131 1108 757 
Q 1372 384 1759 384 
Q 2147 384 2411 759 
Q 2675 1134 2675 2259 
Q 2675 3391 2411 3762 
Q 2147 4134 1753 4134 
Q 1366 4134 1134 3806 
Q 844 3388 844 2259 
z
" transform="scale(0.015625)"/>
       </defs>
       <use xlink:href="#ArialMT-2212"/>
       <use xlink:href="#ArialMT-36" x="58.398438"/>
       <use xlink:href="#ArialMT-30" x="114.013672"/>
       <use xlink:href="#ArialMT-30" x="169.628906"/>
       <use xlink:href="#ArialMT-30" x="225.244141"/>
       <use xlink:href="#ArialMT-30" x="280.859375"/>
      </g>
     </g>
    </g>
    <g id="ytick_2">
     <g id="text_4">
      <!-- −40000 -->
      <g style="fill: #262626" transform="translate(24.52 183.798083) scale(0.11 -0.11)">
       <defs>
        <path id="ArialMT-34" d="M 2069 0 
L 2069 1097 
L 81 1097 
L 81 1613 
L 2172 4581 
L 2631 4581 
L 2631 1613 
L 3250 1613 
L 3250 1097 
L 2631 1097 
L 2631 0 
L 2069 0 
z
M 2069 1613 
L 2069 3678 
L 634 1613 
L 2069 1613 
z
" transform="scale(0.015625)"/>
       </defs>
       <use xlink:href="#ArialMT-2212"/>
       <use xlink:href="#ArialMT-34" x="58.398438"/>
       <use xlink:href="#ArialMT-30" x="114.013672"/>
       <use xlink:href="#ArialMT-30" x="169.628906"/>
       <use xlink:href="#ArialMT-30" x="225.244141"/>
       <use xlink:href="#ArialMT-30" x="280.859375"/>
      </g>
     </g>
    </g>
    <g id="ytick_3">
     <g id="text_5">
      <!-- −20000 -->
      <g style="fill: #262626" transform="translate(24.52 155.677335) scale(0.11 -0.11)">
       <defs>
        <path id="ArialMT-32" d="M 3222 541 
L 3222 0 
L 194 0 
Q 188 203 259 391 
Q 375 700 629 1000 
Q 884 1300 1366 1694 
Q 2113 2306 2375 2664 
Q 2638 3022 2638 3341 
Q 2638 3675 2398 3904 
Q 2159 4134 1775 4134 
Q 1369 4134 1125 3890 
Q 881 3647 878 3216 
L 300 3275 
Q 359 3922 746 4261 
Q 1134 4600 1788 4600 
Q 2447 4600 2831 4234 
Q 3216 3869 3216 3328 
Q 3216 3053 3103 2787 
Q 2991 2522 2730 2228 
Q 2469 1934 1863 1422 
Q 1356 997 1212 845 
Q 1069 694 975 541 
L 3222 541 
z
" transform="scale(0.015625)"/>
       </defs>
       <use xlink:href="#ArialMT-2212"/>
       <use xlink:href="#ArialMT-32" x="58.398438"/>
       <use xlink:href="#ArialMT-30" x="114.013672"/>
       <use xlink:href="#ArialMT-30" x="169.628906"/>
       <use xlink:href="#ArialMT-30" x="225.244141"/>
       <use xlink:href="#ArialMT-30" x="280.859375"/>
      </g>
     </g>
    </g>
    <g id="ytick_4">
     <g id="text_6">
      <!-- 0 -->
      <g style="fill: #262626" transform="translate(55.412813 127.556586) scale(0.11 -0.11)">
       <use xlink:href="#ArialMT-30"/>
      </g>
     </g>
    </g>
    <g id="ytick_5">
     <g id="text_7">
      <!-- 20000 -->
      <g style="fill: #262626" transform="translate(30.944687 99.435838) scale(0.11 -0.11)">
       <use xlink:href="#ArialMT-32"/>
       <use xlink:href="#ArialMT-30" x="55.615234"/>
       <use xlink:href="#ArialMT-30" x="111.230469"/>
       <use xlink:href="#ArialMT-30" x="166.845703"/>
       <use xlink:href="#ArialMT-30" x="222.460938"/>
      </g>
     </g>
    </g>
    <g id="ytick_6">
     <g id="text_8">
      <!-- 40000 -->
      <g style="fill: #262626" transform="translate(30.944687 71.31509) scale(0.11 -0.11)">
       <use xlink:href="#ArialMT-34"/>
       <use xlink:href="#ArialMT-30" x="55.615234"/>
       <use xlink:href="#ArialMT-30" x="111.230469"/>
       <use xlink:href="#ArialMT-30" x="166.845703"/>
       <use xlink:href="#ArialMT-30" x="222.460938"/>
      </g>
     </g>
    </g>
    <g id="ytick_7">
     <g id="text_9">
      <!-- 60000 -->
      <g style="fill: #262626" transform="translate(30.944687 43.194342) scale(0.11 -0.11)">
       <use xlink:href="#ArialMT-36"/>
       <use xlink:href="#ArialMT-30" x="55.615234"/>
       <use xlink:href="#ArialMT-30" x="111.230469"/>
       <use xlink:href="#ArialMT-30" x="166.845703"/>
       <use xlink:href="#ArialMT-30" x="222.460938"/>
      </g>
     </g>
    </g>
    <g id="ytick_8">
     <g id="text_10">
      <!-- 80000 -->
      <g style="fill: #262626" transform="translate(30.944687 15.073594) scale(0.11 -0.11)">
       <defs>
        <path id="ArialMT-38" d="M 1131 2484 
Q 781 2613 612 2850 
Q 444 3088 444 3419 
Q 444 3919 803 4259 
Q 1163 4600 1759 4600 
Q 2359 4600 2725 4251 
Q 3091 3903 3091 3403 
Q 3091 3084 2923 2848 
Q 2756 2613 2416 2484 
Q 2838 2347 3058 2040 
Q 3278 1734 3278 1309 
Q 3278 722 2862 322 
Q 2447 -78 1769 -78 
Q 1091 -78 675 323 
Q 259 725 259 1325 
Q 259 1772 486 2073 
Q 713 2375 1131 2484 
z
M 1019 3438 
Q 1019 3113 1228 2906 
Q 1438 2700 1772 2700 
Q 2097 2700 2305 2904 
Q 2513 3109 2513 3406 
Q 2513 3716 2298 3927 
Q 2084 4138 1766 4138 
Q 1444 4138 1231 3931 
Q 1019 3725 1019 3438 
z
M 838 1322 
Q 838 1081 952 856 
Q 1066 631 1291 507 
Q 1516 384 1775 384 
Q 2178 384 2440 643 
Q 2703 903 2703 1303 
Q 2703 1709 2433 1975 
Q 2163 2241 1756 2241 
Q 1359 2241 1098 1978 
Q 838 1716 838 1322 
z
" transform="scale(0.015625)"/>
       </defs>
       <use xlink:href="#ArialMT-38"/>
       <use xlink:href="#ArialMT-30" x="55.615234"/>
       <use xlink:href="#ArialMT-30" x="111.230469"/>
       <use xlink:href="#ArialMT-30" x="166.845703"/>
       <use xlink:href="#ArialMT-30" x="222.460938"/>
      </g>
     </g>
    </g>
    <g id="text_11">
     <!-- WMV residuals [mm$^3$] -->
     <g style="fill: #262626" transform="translate(18.12 179.103554) rotate(-90) scale(0.12 -0.12)">
      <defs>
       <path id="ArialMT-57" d="M 1294 0 
L 78 4581 
L 700 4581 
L 1397 1578 
Q 1509 1106 1591 641 
Q 1766 1375 1797 1488 
L 2669 4581 
L 3400 4581 
L 4056 2263 
Q 4303 1400 4413 641 
Q 4500 1075 4641 1638 
L 5359 4581 
L 5969 4581 
L 4713 0 
L 4128 0 
L 3163 3491 
Q 3041 3928 3019 4028 
Q 2947 3713 2884 3491 
L 1913 0 
L 1294 0 
z
" transform="scale(0.015625)"/>
       <path id="ArialMT-4d" d="M 475 0 
L 475 4581 
L 1388 4581 
L 2472 1338 
Q 2622 884 2691 659 
Q 2769 909 2934 1394 
L 4031 4581 
L 4847 4581 
L 4847 0 
L 4263 0 
L 4263 3834 
L 2931 0 
L 2384 0 
L 1059 3900 
L 1059 0 
L 475 0 
z
" transform="scale(0.015625)"/>
       <path id="ArialMT-56" d="M 1803 0 
L 28 4581 
L 684 4581 
L 1875 1253 
Q 2019 853 2116 503 
Q 2222 878 2363 1253 
L 3600 4581 
L 4219 4581 
L 2425 0 
L 1803 0 
z
" transform="scale(0.015625)"/>
       <path id="ArialMT-20" transform="scale(0.015625)"/>
       <path id="ArialMT-73" d="M 197 991 
L 753 1078 
Q 800 744 1014 566 
Q 1228 388 1613 388 
Q 2000 388 2187 545 
Q 2375 703 2375 916 
Q 2375 1106 2209 1216 
Q 2094 1291 1634 1406 
Q 1016 1563 777 1677 
Q 538 1791 414 1992 
Q 291 2194 291 2438 
Q 291 2659 392 2848 
Q 494 3038 669 3163 
Q 800 3259 1026 3326 
Q 1253 3394 1513 3394 
Q 1903 3394 2198 3281 
Q 2494 3169 2634 2976 
Q 2775 2784 2828 2463 
L 2278 2388 
Q 2241 2644 2061 2787 
Q 1881 2931 1553 2931 
Q 1166 2931 1000 2803 
Q 834 2675 834 2503 
Q 834 2394 903 2306 
Q 972 2216 1119 2156 
Q 1203 2125 1616 2013 
Q 2213 1853 2448 1751 
Q 2684 1650 2818 1456 
Q 2953 1263 2953 975 
Q 2953 694 2789 445 
Q 2625 197 2315 61 
Q 2006 -75 1616 -75 
Q 969 -75 630 194 
Q 291 463 197 991 
z
" transform="scale(0.015625)"/>
       <path id="ArialMT-69" d="M 425 3934 
L 425 4581 
L 988 4581 
L 988 3934 
L 425 3934 
z
M 425 0 
L 425 3319 
L 988 3319 
L 988 0 
L 425 0 
z
" transform="scale(0.015625)"/>
       <path id="ArialMT-64" d="M 2575 0 
L 2575 419 
Q 2259 -75 1647 -75 
Q 1250 -75 917 144 
Q 584 363 401 755 
Q 219 1147 219 1656 
Q 219 2153 384 2558 
Q 550 2963 881 3178 
Q 1213 3394 1622 3394 
Q 1922 3394 2156 3267 
Q 2391 3141 2538 2938 
L 2538 4581 
L 3097 4581 
L 3097 0 
L 2575 0 
z
M 797 1656 
Q 797 1019 1065 703 
Q 1334 388 1700 388 
Q 2069 388 2326 689 
Q 2584 991 2584 1609 
Q 2584 2291 2321 2609 
Q 2059 2928 1675 2928 
Q 1300 2928 1048 2622 
Q 797 2316 797 1656 
z
" transform="scale(0.015625)"/>
       <path id="ArialMT-75" d="M 2597 0 
L 2597 488 
Q 2209 -75 1544 -75 
Q 1250 -75 995 37 
Q 741 150 617 320 
Q 494 491 444 738 
Q 409 903 409 1263 
L 409 3319 
L 972 3319 
L 972 1478 
Q 972 1038 1006 884 
Q 1059 663 1231 536 
Q 1403 409 1656 409 
Q 1909 409 2131 539 
Q 2353 669 2445 892 
Q 2538 1116 2538 1541 
L 2538 3319 
L 3100 3319 
L 3100 0 
L 2597 0 
z
" transform="scale(0.015625)"/>
       <path id="ArialMT-61" d="M 2588 409 
Q 2275 144 1986 34 
Q 1697 -75 1366 -75 
Q 819 -75 525 192 
Q 231 459 231 875 
Q 231 1119 342 1320 
Q 453 1522 633 1644 
Q 813 1766 1038 1828 
Q 1203 1872 1538 1913 
Q 2219 1994 2541 2106 
Q 2544 2222 2544 2253 
Q 2544 2597 2384 2738 
Q 2169 2928 1744 2928 
Q 1347 2928 1158 2789 
Q 969 2650 878 2297 
L 328 2372 
Q 403 2725 575 2942 
Q 747 3159 1072 3276 
Q 1397 3394 1825 3394 
Q 2250 3394 2515 3294 
Q 2781 3194 2906 3042 
Q 3031 2891 3081 2659 
Q 3109 2516 3109 2141 
L 3109 1391 
Q 3109 606 3145 398 
Q 3181 191 3288 0 
L 2700 0 
Q 2613 175 2588 409 
z
M 2541 1666 
Q 2234 1541 1622 1453 
Q 1275 1403 1131 1340 
Q 988 1278 909 1158 
Q 831 1038 831 891 
Q 831 666 1001 516 
Q 1172 366 1500 366 
Q 1825 366 2078 508 
Q 2331 650 2450 897 
Q 2541 1088 2541 1459 
L 2541 1666 
z
" transform="scale(0.015625)"/>
       <path id="ArialMT-6c" d="M 409 0 
L 409 4581 
L 972 4581 
L 972 0 
L 409 0 
z
" transform="scale(0.015625)"/>
       <path id="ArialMT-5b" d="M 434 -1272 
L 434 4581 
L 1675 4581 
L 1675 4116 
L 997 4116 
L 997 -806 
L 1675 -806 
L 1675 -1272 
L 434 -1272 
z
" transform="scale(0.015625)"/>
       <path id="DejaVuSans-33" d="M 2597 2516 
Q 3050 2419 3304 2112 
Q 3559 1806 3559 1356 
Q 3559 666 3084 287 
Q 2609 -91 1734 -91 
Q 1441 -91 1130 -33 
Q 819 25 488 141 
L 488 750 
Q 750 597 1062 519 
Q 1375 441 1716 441 
Q 2309 441 2620 675 
Q 2931 909 2931 1356 
Q 2931 1769 2642 2001 
Q 2353 2234 1838 2234 
L 1294 2234 
L 1294 2753 
L 1863 2753 
Q 2328 2753 2575 2939 
Q 2822 3125 2822 3475 
Q 2822 3834 2567 4026 
Q 2313 4219 1838 4219 
Q 1578 4219 1281 4162 
Q 984 4106 628 3988 
L 628 4550 
Q 988 4650 1302 4700 
Q 1616 4750 1894 4750 
Q 2613 4750 3031 4423 
Q 3450 4097 3450 3541 
Q 3450 3153 3228 2886 
Q 3006 2619 2597 2516 
z
" transform="scale(0.015625)"/>
       <path id="ArialMT-5d" d="M 1363 -1272 
L 122 -1272 
L 122 -806 
L 800 -806 
L 800 4116 
L 122 4116 
L 122 4581 
L 1363 4581 
L 1363 -1272 
z
" transform="scale(0.015625)"/>
      </defs>
      <use xlink:href="#ArialMT-57" transform="translate(0 0.765625)"/>
      <use xlink:href="#ArialMT-4d" transform="translate(94.384766 0.765625)"/>
      <use xlink:href="#ArialMT-56" transform="translate(177.685547 0.765625)"/>
      <use xlink:href="#ArialMT-20" transform="translate(244.384766 0.765625)"/>
      <use xlink:href="#ArialMT-72" transform="translate(272.167969 0.765625)"/>
      <use xlink:href="#ArialMT-65" transform="translate(305.46875 0.765625)"/>
      <use xlink:href="#ArialMT-73" transform="translate(361.083984 0.765625)"/>
      <use xlink:href="#ArialMT-69" transform="translate(411.083984 0.765625)"/>
      <use xlink:href="#ArialMT-64" transform="translate(433.300781 0.765625)"/>
      <use xlink:href="#ArialMT-75" transform="translate(488.916016 0.765625)"/>
      <use xlink:href="#ArialMT-61" transform="translate(544.53125 0.765625)"/>
      <use xlink:href="#ArialMT-6c" transform="translate(600.146484 0.765625)"/>
      <use xlink:href="#ArialMT-73" transform="translate(622.363281 0.765625)"/>
      <use xlink:href="#ArialMT-20" transform="translate(672.363281 0.765625)"/>
      <use xlink:href="#ArialMT-5b" transform="translate(700.146484 0.765625)"/>
      <use xlink:href="#ArialMT-6d" transform="translate(727.929688 0.765625)"/>
      <use xlink:href="#ArialMT-6d" transform="translate(811.230469 0.765625)"/>
      <use xlink:href="#DejaVuSans-33" transform="translate(895.488281 39.046875) scale(0.7)"/>
      <use xlink:href="#ArialMT-5d" transform="translate(942.758789 0.765625)"/>
     </g>
    </g>
   </g>
   <g id="PolyCollection_1">
    <defs>
     <path id="m8ca401d93d" d="M 112.498943 -57.465079 
L 112.41529 -57.465079 
L 112.381374 -59.293107 
L 112.325734 -61.121135 
L 112.238112 -62.949162 
L 112.105438 -64.77719 
L 111.912325 -66.605218 
L 111.642657 -68.433246 
L 111.282573 -70.261274 
L 110.824622 -72.089302 
L 110.272079 -73.91733 
L 109.641716 -75.745358 
L 108.963238 -77.573386 
L 108.274326 -79.401414 
L 107.6118 -81.229442 
L 107.000958 -83.05747 
L 106.446328 -84.885498 
L 105.92709 -86.713526 
L 105.399396 -88.541553 
L 104.805821 -90.369581 
L 104.089696 -92.197609 
L 103.209985 -94.025637 
L 102.151607 -95.853665 
L 100.927457 -97.681693 
L 99.571567 -99.509721 
L 98.126438 -101.337749 
L 96.629878 -103.165777 
L 95.106393 -104.993805 
L 93.56584 -106.821833 
L 92.008923 -108.649861 
L 90.436766 -110.477889 
L 88.860661 -112.305917 
L 87.307971 -114.133945 
L 85.821146 -115.961972 
L 84.448923 -117.79 
L 83.23223 -119.618028 
L 82.190749 -121.446056 
L 81.317261 -123.274084 
L 80.584149 -125.102112 
L 79.960315 -126.93014 
L 79.430575 -128.758168 
L 79.007317 -130.586196 
L 78.72789 -132.414224 
L 78.638935 -134.242252 
L 78.776133 -136.07028 
L 79.150088 -137.898308 
L 79.744967 -139.726336 
L 80.528936 -141.554363 
L 81.469162 -143.382391 
L 82.542719 -145.210419 
L 83.738432 -147.038447 
L 85.05052 -148.866475 
L 86.469245 -150.694503 
L 87.974538 -152.522531 
L 89.535985 -154.350559 
L 91.11858 -156.178587 
L 92.690573 -158.006615 
L 94.228945 -159.834643 
L 95.719829 -161.662671 
L 97.15429 -163.490699 
L 98.522544 -165.318727 
L 99.810363 -167.146754 
L 100.999878 -168.974782 
L 102.074289 -170.80281 
L 103.023931 -172.630838 
L 103.850662 -174.458866 
L 104.568646 -176.286894 
L 105.201301 -178.114922 
L 105.775661 -179.94295 
L 106.316161 -181.770978 
L 106.839968 -183.599006 
L 107.355288 -185.427034 
L 107.862848 -187.255062 
L 108.359295 -189.08309 
L 108.84047 -190.911118 
L 109.30288 -192.739145 
L 109.743111 -194.567173 
L 110.156374 -196.395201 
L 110.535896 -198.223229 
L 110.87409 -200.051257 
L 111.165053 -201.879285 
L 111.406919 -203.707313 
L 111.602672 -205.535341 
L 111.758931 -207.363369 
L 111.883448 -209.191397 
L 111.982662 -211.019425 
L 112.060496 -212.847453 
L 112.118779 -214.675481 
L 112.158817 -216.503509 
L 112.183101 -218.331537 
L 112.19618 -220.159564 
L 112.204255 -221.987592 
L 112.213725 -223.81562 
L 112.229411 -225.643648 
L 112.253298 -227.471676 
L 112.284325 -229.299704 
L 112.319214 -231.127732 
L 112.35387 -232.95576 
L 112.384745 -234.783788 
L 112.409674 -236.611816 
L 112.428049 -238.439844 
L 112.486184 -238.439844 
L 112.486184 -238.439844 
L 112.504559 -236.611816 
L 112.529488 -234.783788 
L 112.560363 -232.95576 
L 112.595019 -231.127732 
L 112.629908 -229.299704 
L 112.660935 -227.471676 
L 112.684822 -225.643648 
L 112.700507 -223.81562 
L 112.709978 -221.987592 
L 112.718053 -220.159564 
L 112.731132 -218.331537 
L 112.755416 -216.503509 
L 112.795454 -214.675481 
L 112.853737 -212.847453 
L 112.931571 -211.019425 
L 113.030785 -209.191397 
L 113.155302 -207.363369 
L 113.31156 -205.535341 
L 113.507314 -203.707313 
L 113.74918 -201.879285 
L 114.040143 -200.051257 
L 114.378337 -198.223229 
L 114.757859 -196.395201 
L 115.171122 -194.567173 
L 115.611353 -192.739145 
L 116.073763 -190.911118 
L 116.554938 -189.08309 
L 117.051385 -187.255062 
L 117.558945 -185.427034 
L 118.074265 -183.599006 
L 118.598072 -181.770978 
L 119.138572 -179.94295 
L 119.712932 -178.114922 
L 120.345587 -176.286894 
L 121.063571 -174.458866 
L 121.890302 -172.630838 
L 122.839944 -170.80281 
L 123.914355 -168.974782 
L 125.10387 -167.146754 
L 126.391689 -165.318727 
L 127.759942 -163.490699 
L 129.194404 -161.662671 
L 130.685288 -159.834643 
L 132.22366 -158.006615 
L 133.795653 -156.178587 
L 135.378248 -154.350559 
L 136.939695 -152.522531 
L 138.444988 -150.694503 
L 139.863713 -148.866475 
L 141.175801 -147.038447 
L 142.371514 -145.210419 
L 143.445071 -143.382391 
L 144.385297 -141.554363 
L 145.169266 -139.726336 
L 145.764145 -137.898308 
L 146.1381 -136.07028 
L 146.275298 -134.242252 
L 146.186343 -132.414224 
L 145.906916 -130.586196 
L 145.483658 -128.758168 
L 144.953918 -126.93014 
L 144.330084 -125.102112 
L 143.596972 -123.274084 
L 142.723484 -121.446056 
L 141.682003 -119.618028 
L 140.46531 -117.79 
L 139.093087 -115.961972 
L 137.606262 -114.133945 
L 136.053572 -112.305917 
L 134.477467 -110.477889 
L 132.90531 -108.649861 
L 131.348393 -106.821833 
L 129.80784 -104.993805 
L 128.284355 -103.165777 
L 126.787795 -101.337749 
L 125.342666 -99.509721 
L 123.986776 -97.681693 
L 122.762626 -95.853665 
L 121.704248 -94.025637 
L 120.824537 -92.197609 
L 120.108412 -90.369581 
L 119.514837 -88.541553 
L 118.987143 -86.713526 
L 118.467905 -84.885498 
L 117.913275 -83.05747 
L 117.302433 -81.229442 
L 116.639907 -79.401414 
L 115.950995 -77.573386 
L 115.272516 -75.745358 
L 114.642154 -73.91733 
L 114.089611 -72.089302 
L 113.63166 -70.261274 
L 113.271576 -68.433246 
L 113.001908 -66.605218 
L 112.808795 -64.77719 
L 112.676121 -62.949162 
L 112.588499 -61.121135 
L 112.532858 -59.293107 
L 112.498943 -57.465079 
z
" style="stroke: #4c4c4c; stroke-width: 0.5"/>
    </defs>
    <g clip-path="url(#p893e86033c)">
     <use xlink:href="#m8ca401d93d" x="0" y="258.483398" style="fill: #5573cd; stroke: #4c4c4c; stroke-width: 0.5"/>
    </g>
   </g>
   <g id="PolyCollection_2">
    <defs>
     <path id="m7a73043e27" d="M 197.085924 -36.839844 
L 196.919218 -36.839844 
L 196.873445 -38.824519 
L 196.809543 -40.809194 
L 196.723898 -42.793869 
L 196.613705 -44.778544 
L 196.477624 -46.76322 
L 196.316395 -48.747895 
L 196.133259 -50.73257 
L 195.934044 -52.717245 
L 195.72679 -54.70192 
L 195.520882 -56.686595 
L 195.32572 -58.671271 
L 195.149126 -60.655946 
L 194.995721 -62.640621 
L 194.865621 -64.625296 
L 194.753738 -66.609971 
L 194.649883 -68.594646 
L 194.53967 -70.579322 
L 194.40604 -72.563997 
L 194.231034 -74.548672 
L 193.997432 -76.533347 
L 193.689876 -78.518022 
L 193.295351 -80.502698 
L 192.803044 -82.487373 
L 192.20387 -84.472048 
L 191.490022 -86.456723 
L 190.654866 -88.441398 
L 189.693309 -90.426073 
L 188.60252 -92.410749 
L 187.382681 -94.395424 
L 186.037407 -96.380099 
L 184.573677 -98.364774 
L 183.001449 -100.349449 
L 181.333437 -102.334124 
L 179.585602 -104.3188 
L 177.778619 -106.303475 
L 175.93996 -108.28815 
L 174.105595 -110.272825 
L 172.319952 -112.2575 
L 170.633032 -114.242175 
L 169.094471 -116.226851 
L 167.745569 -118.211526 
L 166.611452 -120.196201 
L 165.695996 -122.180876 
L 164.981617 -124.165551 
L 164.434651 -126.150226 
L 164.015217 -128.134902 
L 163.688891 -130.119577 
L 163.43678 -132.104252 
L 163.261051 -134.088927 
L 163.184389 -136.073602 
L 163.243746 -138.058277 
L 163.480429 -140.042953 
L 163.929438 -142.027628 
L 164.610851 -144.012303 
L 165.52506 -145.996978 
L 166.652389 -147.981653 
L 167.956413 -149.966329 
L 169.389666 -151.951004 
L 170.90031 -153.935679 
L 172.438614 -155.920354 
L 173.962446 -157.905029 
L 175.441247 -159.889704 
L 176.858034 -161.87438 
L 178.209119 -163.859055 
L 179.501436 -165.84373 
L 180.747872 -167.828405 
L 181.961526 -169.81308 
L 183.150293 -171.797755 
L 184.313174 -173.782431 
L 185.439337 -175.767106 
L 186.510123 -177.751781 
L 187.503365 -179.736456 
L 188.398706 -181.721131 
L 189.182458 -183.705806 
L 189.85077 -185.690482 
L 190.410499 -187.675157 
L 190.87778 -189.659832 
L 191.274895 -191.644507 
L 191.626276 -193.629182 
L 191.954619 -195.613857 
L 192.277851 -197.598533 
L 192.607488 -199.583208 
L 192.94847 -201.567883 
L 193.300272 -203.552558 
L 193.658735 -205.537233 
L 194.018031 -207.521908 
L 194.372205 -209.506584 
L 194.716007 -211.491259 
L 195.045042 -213.475934 
L 195.355494 -215.460609 
L 195.643771 -217.445284 
L 195.906377 -219.429959 
L 196.140105 -221.414635 
L 196.34249 -223.39931 
L 196.512312 -225.383985 
L 196.649938 -227.36866 
L 196.757377 -229.353335 
L 196.838005 -231.338011 
L 196.896089 -233.322686 
L 197.109053 -233.322686 
L 197.109053 -233.322686 
L 197.167137 -231.338011 
L 197.247765 -229.353335 
L 197.355204 -227.36866 
L 197.49283 -225.383985 
L 197.662652 -223.39931 
L 197.865037 -221.414635 
L 198.098765 -219.429959 
L 198.361371 -217.445284 
L 198.649648 -215.460609 
L 198.9601 -213.475934 
L 199.289135 -211.491259 
L 199.632937 -209.506584 
L 199.987111 -207.521908 
L 200.346407 -205.537233 
L 200.70487 -203.552558 
L 201.056672 -201.567883 
L 201.397654 -199.583208 
L 201.727291 -197.598533 
L 202.050523 -195.613857 
L 202.378866 -193.629182 
L 202.730248 -191.644507 
L 203.127362 -189.659832 
L 203.594643 -187.675157 
L 204.154372 -185.690482 
L 204.822684 -183.705806 
L 205.606436 -181.721131 
L 206.501777 -179.736456 
L 207.495019 -177.751781 
L 208.565805 -175.767106 
L 209.691968 -173.782431 
L 210.854849 -171.797755 
L 212.043616 -169.81308 
L 213.25727 -167.828405 
L 214.503706 -165.84373 
L 215.796023 -163.859055 
L 217.147108 -161.87438 
L 218.563895 -159.889704 
L 220.042696 -157.905029 
L 221.566528 -155.920354 
L 223.104832 -153.935679 
L 224.615476 -151.951004 
L 226.048729 -149.966329 
L 227.352753 -147.981653 
L 228.480082 -145.996978 
L 229.394291 -144.012303 
L 230.075704 -142.027628 
L 230.524713 -140.042953 
L 230.761396 -138.058277 
L 230.820753 -136.073602 
L 230.744091 -134.088927 
L 230.568362 -132.104252 
L 230.316251 -130.119577 
L 229.989925 -128.134902 
L 229.570491 -126.150226 
L 229.023525 -124.165551 
L 228.309146 -122.180876 
L 227.39369 -120.196201 
L 226.259573 -118.211526 
L 224.910671 -116.226851 
L 223.37211 -114.242175 
L 221.68519 -112.2575 
L 219.899547 -110.272825 
L 218.065182 -108.28815 
L 216.226523 -106.303475 
L 214.41954 -104.3188 
L 212.671705 -102.334124 
L 211.003693 -100.349449 
L 209.431465 -98.364774 
L 207.967735 -96.380099 
L 206.622461 -94.395424 
L 205.402622 -92.410749 
L 204.311833 -90.426073 
L 203.350276 -88.441398 
L 202.51512 -86.456723 
L 201.801272 -84.472048 
L 201.202098 -82.487373 
L 200.709791 -80.502698 
L 200.315266 -78.518022 
L 200.007711 -76.533347 
L 199.774108 -74.548672 
L 199.599102 -72.563997 
L 199.465472 -70.579322 
L 199.355259 -68.594646 
L 199.251404 -66.609971 
L 199.139521 -64.625296 
L 199.009421 -62.640621 
L 198.856016 -60.655946 
L 198.679422 -58.671271 
L 198.484261 -56.686595 
L 198.278352 -54.70192 
L 198.071098 -52.717245 
L 197.871883 -50.73257 
L 197.688748 -48.747895 
L 197.527518 -46.76322 
L 197.391437 -44.778544 
L 197.281244 -42.793869 
L 197.195599 -40.809194 
L 197.131697 -38.824519 
L 197.085924 -36.839844 
z
" style="stroke: #4c4c4c; stroke-width: 0.5"/>
    </defs>
    <g clip-path="url(#p893e86033c)">
     <use xlink:href="#m7a73043e27" x="0" y="258.483398" style="fill: #df8920; stroke: #4c4c4c; stroke-width: 0.5"/>
    </g>
   </g>
   <g id="line2d_1">
    <path d="M 112.457116 187.039516 
L 112.457116 61.09562 
" clip-path="url(#p893e86033c)" style="fill: none; stroke: #4c4c4c; stroke-width: 0.75; stroke-linecap: round"/>
   </g>
   <g id="line2d_2">
    <path d="M 112.457116 140.647818 
L 112.457116 108.721174 
" clip-path="url(#p893e86033c)" style="fill: none; stroke: #4c4c4c; stroke-width: 2.25; stroke-linecap: round"/>
   </g>
   <g id="line2d_3">
    <path d="M 112.457116 124.589263 
" clip-path="url(#p893e86033c)" style="fill: none; stroke: #4c4c4c; stroke-width: 1.5; stroke-linecap: round"/>
    <defs>
     <path id="mc202a4c502" d="M 0.9375 0 
L -0.9375 -0 
" style="stroke: #ffffff; stroke-width: 0.45"/>
    </defs>
    <g clip-path="url(#p893e86033c)">
     <use xlink:href="#mc202a4c502" x="112.457116" y="124.589263" style="fill: #ffffff; stroke: #ffffff; stroke-width: 0.45"/>
    </g>
   </g>
   <g id="line2d_4">
    <path d="M 197.002571 182.469238 
L 197.002571 58.032413 
" clip-path="url(#p893e86033c)" style="fill: none; stroke: #4c4c4c; stroke-width: 0.75; stroke-linecap: round"/>
   </g>
   <g id="line2d_5">
    <path d="M 197.002571 138.833489 
L 197.002571 106.059926 
" clip-path="url(#p893e86033c)" style="fill: none; stroke: #4c4c4c; stroke-width: 2.25; stroke-linecap: round"/>
   </g>
   <g id="line2d_6">
    <path d="M 197.002571 121.053865 
" clip-path="url(#p893e86033c)" style="fill: none; stroke: #4c4c4c; stroke-width: 1.5; stroke-linecap: round"/>
    <g clip-path="url(#p893e86033c)">
     <use xlink:href="#mc202a4c502" x="197.002571" y="121.053865" style="fill: #ffffff; stroke: #ffffff; stroke-width: 0.45"/>
    </g>
   </g>
   <g id="line2d_7">
    <path d="M 112.457116 44.726813 
L 112.457116 40.291613 
L 197.002571 40.291613 
L 197.002571 44.726813 
" style="fill: none; stroke: #333333; stroke-width: 0.5; stroke-linecap: round"/>
   </g>
   <g id="patch_3">
    <path d="M 71.029844 231.723554 
L 71.029844 9.963554 
" style="fill: none; stroke: #262626; stroke-width: 1.25; stroke-linejoin: miter; stroke-linecap: square"/>
   </g>
   <g id="patch_4">
    <path d="M 71.029844 231.723554 
L 238.429844 231.723554 
" style="fill: none; stroke: #262626; stroke-width: 1.25; stroke-linejoin: miter; stroke-linecap: square"/>
   </g>
   <g id="text_12">
    <!-- ns -->
    <g style="fill: #262626" transform="translate(148.393281 36.906613) scale(0.12 -0.12)">
     <defs>
      <path id="ArialMT-6e" d="M 422 0 
L 422 3319 
L 928 3319 
L 928 2847 
Q 1294 3394 1984 3394 
Q 2284 3394 2536 3286 
Q 2788 3178 2913 3003 
Q 3038 2828 3088 2588 
Q 3119 2431 3119 2041 
L 3119 0 
L 2556 0 
L 2556 2019 
Q 2556 2363 2490 2533 
Q 2425 2703 2258 2804 
Q 2091 2906 1866 2906 
Q 1506 2906 1245 2678 
Q 984 2450 984 1813 
L 984 0 
L 422 0 
z
" transform="scale(0.015625)"/>
     </defs>
     <use xlink:href="#ArialMT-6e"/>
     <use xlink:href="#ArialMT-73" x="55.615234"/>
    </g>
   </g>
  </g>
 </g>
 <defs>
  <clipPath id="p893e86033c">
   <rect x="71.029844" y="9.963554" width="167.4" height="221.76"/>
  </clipPath>
 </defs>
</svg>
