<?xml version="1.0" encoding="utf-8" standalone="no"?>
<!DOCTYPE svg PUBLIC "-//W3C//DTD SVG 1.1//EN"
  "http://www.w3.org/Graphics/SVG/1.1/DTD/svg11.dtd">
<svg xmlns:xlink="http://www.w3.org/1999/xlink" width="239.512812pt" height="255.719844pt" viewBox="0 0 239.512812 255.719844" xmlns="http://www.w3.org/2000/svg" version="1.1">
 <metadata>
  <rdf:RDF xmlns:dc="http://purl.org/dc/elements/1.1/" xmlns:cc="http://creativecommons.org/ns#" xmlns:rdf="http://www.w3.org/1999/02/22-rdf-syntax-ns#">
   <cc:Work>
    <dc:type rdf:resource="http://purl.org/dc/dcmitype/StillImage"/>
    <dc:date>2025-06-10T10:56:51.967985</dc:date>
    <dc:format>image/svg+xml</dc:format>
    <dc:creator>
     <cc:Agent>
      <dc:title>Matplotlib v3.9.2, https://matplotlib.org/</dc:title>
     </cc:Agent>
    </dc:creator>
   </cc:Work>
  </rdf:RDF>
 </metadata>
 <defs>
  <style type="text/css">*{stroke-linejoin: round; stroke-linecap: butt}</style>
 </defs>
 <g id="figure_1">
  <g id="patch_1">
   <path d="M 0 255.719844 
L 239.512813 255.719844 
L 239.512813 0 
L 0 0 
z
" style="fill: #ffffff"/>
  </g>
  <g id="axes_1">
   <g id="patch_2">
    <path d="M 64.912813 228.96 
L 232.312813 228.96 
L 232.312813 7.2 
L 64.912813 7.2 
z
" style="fill: #ffffff"/>
   </g>
   <g id="matplotlib.axis_1">
    <g id="xtick_1">
     <g id="text_1">
      <!-- Term -->
      <g style="fill: #262626" transform="translate(94.121491 246.333594) scale(0.11 -0.11)">
       <defs>
        <path id="ArialMT-54" d="M 1659 0 
L 1659 4041 
L 150 4041 
L 150 4581 
L 3781 4581 
L 3781 4041 
L 2266 4041 
L 2266 0 
L 1659 0 
z
" transform="scale(0.015625)"/>
        <path id="ArialMT-65" d="M 2694 1069 
L 3275 997 
Q 3138 488 2766 206 
Q 2394 -75 1816 -75 
Q 1088 -75 661 373 
Q 234 822 234 1631 
Q 234 2469 665 2931 
Q 1097 3394 1784 3394 
Q 2450 3394 2872 2941 
Q 3294 2488 3294 1666 
Q 3294 1616 3291 1516 
L 816 1516 
Q 847 969 1125 678 
Q 1403 388 1819 388 
Q 2128 388 2347 550 
Q 2566 713 2694 1069 
z
M 847 1978 
L 2700 1978 
Q 2663 2397 2488 2606 
Q 2219 2931 1791 2931 
Q 1403 2931 1139 2672 
Q 875 2413 847 1978 
z
" transform="scale(0.015625)"/>
        <path id="ArialMT-72" d="M 416 0 
L 416 3319 
L 922 3319 
L 922 2816 
Q 1116 3169 1280 3281 
Q 1444 3394 1641 3394 
Q 1925 3394 2219 3213 
L 2025 2691 
Q 1819 2813 1613 2813 
Q 1428 2813 1281 2702 
Q 1134 2591 1072 2394 
Q 978 2094 978 1738 
L 978 0 
L 416 0 
z
" transform="scale(0.015625)"/>
        <path id="ArialMT-6d" d="M 422 0 
L 422 3319 
L 925 3319 
L 925 2853 
Q 1081 3097 1340 3245 
Q 1600 3394 1931 3394 
Q 2300 3394 2536 3241 
Q 2772 3088 2869 2813 
Q 3263 3394 3894 3394 
Q 4388 3394 4653 3120 
Q 4919 2847 4919 2278 
L 4919 0 
L 4359 0 
L 4359 2091 
Q 4359 2428 4304 2576 
Q 4250 2725 4106 2815 
Q 3963 2906 3769 2906 
Q 3419 2906 3187 2673 
Q 2956 2441 2956 1928 
L 2956 0 
L 2394 0 
L 2394 2156 
Q 2394 2531 2256 2718 
Q 2119 2906 1806 2906 
Q 1569 2906 1367 2781 
Q 1166 2656 1075 2415 
Q 984 2175 984 1722 
L 984 0 
L 422 0 
z
" transform="scale(0.015625)"/>
       </defs>
       <use xlink:href="#ArialMT-54"/>
       <use xlink:href="#ArialMT-65" x="49.958984"/>
       <use xlink:href="#ArialMT-72" x="105.574219"/>
       <use xlink:href="#ArialMT-6d" x="138.875"/>
      </g>
     </g>
    </g>
    <g id="xtick_2">
     <g id="text_2">
      <!-- Preterm -->
      <g style="fill: #262626" transform="translate(171.327884 246.333594) scale(0.11 -0.11)">
       <defs>
        <path id="ArialMT-50" d="M 494 0 
L 494 4581 
L 2222 4581 
Q 2678 4581 2919 4538 
Q 3256 4481 3484 4323 
Q 3713 4166 3852 3881 
Q 3991 3597 3991 3256 
Q 3991 2672 3619 2267 
Q 3247 1863 2275 1863 
L 1100 1863 
L 1100 0 
L 494 0 
z
M 1100 2403 
L 2284 2403 
Q 2872 2403 3119 2622 
Q 3366 2841 3366 3238 
Q 3366 3525 3220 3729 
Q 3075 3934 2838 4000 
Q 2684 4041 2272 4041 
L 1100 4041 
L 1100 2403 
z
" transform="scale(0.015625)"/>
        <path id="ArialMT-74" d="M 1650 503 
L 1731 6 
Q 1494 -44 1306 -44 
Q 1000 -44 831 53 
Q 663 150 594 308 
Q 525 466 525 972 
L 525 2881 
L 113 2881 
L 113 3319 
L 525 3319 
L 525 4141 
L 1084 4478 
L 1084 3319 
L 1650 3319 
L 1650 2881 
L 1084 2881 
L 1084 941 
Q 1084 700 1114 631 
Q 1144 563 1211 522 
Q 1278 481 1403 481 
Q 1497 481 1650 503 
z
" transform="scale(0.015625)"/>
       </defs>
       <use xlink:href="#ArialMT-50"/>
       <use xlink:href="#ArialMT-72" x="66.699219"/>
       <use xlink:href="#ArialMT-65" x="100"/>
       <use xlink:href="#ArialMT-74" x="155.615234"/>
       <use xlink:href="#ArialMT-65" x="183.398438"/>
       <use xlink:href="#ArialMT-72" x="239.013672"/>
       <use xlink:href="#ArialMT-6d" x="272.314453"/>
      </g>
     </g>
    </g>
   </g>
   <g id="matplotlib.axis_2">
    <g id="ytick_1">
     <g id="text_3">
      <!-- −4000 -->
      <g style="fill: #262626" transform="translate(24.52 211.9761) scale(0.11 -0.11)">
       <defs>
        <path id="ArialMT-2212" d="M 3381 1997 
L 356 1997 
L 356 2522 
L 3381 2522 
L 3381 1997 
z
" transform="scale(0.015625)"/>
        <path id="ArialMT-34" d="M 2069 0 
L 2069 1097 
L 81 1097 
L 81 1613 
L 2172 4581 
L 2631 4581 
L 2631 1613 
L 3250 1613 
L 3250 1097 
L 2631 1097 
L 2631 0 
L 2069 0 
z
M 2069 1613 
L 2069 3678 
L 634 1613 
L 2069 1613 
z
" transform="scale(0.015625)"/>
        <path id="ArialMT-30" d="M 266 2259 
Q 266 3072 433 3567 
Q 600 4063 929 4331 
Q 1259 4600 1759 4600 
Q 2128 4600 2406 4451 
Q 2684 4303 2865 4023 
Q 3047 3744 3150 3342 
Q 3253 2941 3253 2259 
Q 3253 1453 3087 958 
Q 2922 463 2592 192 
Q 2263 -78 1759 -78 
Q 1097 -78 719 397 
Q 266 969 266 2259 
z
M 844 2259 
Q 844 1131 1108 757 
Q 1372 384 1759 384 
Q 2147 384 2411 759 
Q 2675 1134 2675 2259 
Q 2675 3391 2411 3762 
Q 2147 4134 1753 4134 
Q 1366 4134 1134 3806 
Q 844 3388 844 2259 
z
" transform="scale(0.015625)"/>
       </defs>
       <use xlink:href="#ArialMT-2212"/>
       <use xlink:href="#ArialMT-34" x="58.398438"/>
       <use xlink:href="#ArialMT-30" x="114.013672"/>
       <use xlink:href="#ArialMT-30" x="169.628906"/>
       <use xlink:href="#ArialMT-30" x="225.244141"/>
      </g>
     </g>
    </g>
    <g id="ytick_2">
     <g id="text_4">
      <!-- −2000 -->
      <g style="fill: #262626" transform="translate(24.52 165.246601) scale(0.11 -0.11)">
       <defs>
        <path id="ArialMT-32" d="M 3222 541 
L 3222 0 
L 194 0 
Q 188 203 259 391 
Q 375 700 629 1000 
Q 884 1300 1366 1694 
Q 2113 2306 2375 2664 
Q 2638 3022 2638 3341 
Q 2638 3675 2398 3904 
Q 2159 4134 1775 4134 
Q 1369 4134 1125 3890 
Q 881 3647 878 3216 
L 300 3275 
Q 359 3922 746 4261 
Q 1134 4600 1788 4600 
Q 2447 4600 2831 4234 
Q 3216 3869 3216 3328 
Q 3216 3053 3103 2787 
Q 2991 2522 2730 2228 
Q 2469 1934 1863 1422 
Q 1356 997 1212 845 
Q 1069 694 975 541 
L 3222 541 
z
" transform="scale(0.015625)"/>
       </defs>
       <use xlink:href="#ArialMT-2212"/>
       <use xlink:href="#ArialMT-32" x="58.398438"/>
       <use xlink:href="#ArialMT-30" x="114.013672"/>
       <use xlink:href="#ArialMT-30" x="169.628906"/>
       <use xlink:href="#ArialMT-30" x="225.244141"/>
      </g>
     </g>
    </g>
    <g id="ytick_3">
     <g id="text_5">
      <!-- 0 -->
      <g style="fill: #262626" transform="translate(49.295781 118.517102) scale(0.11 -0.11)">
       <use xlink:href="#ArialMT-30"/>
      </g>
     </g>
    </g>
    <g id="ytick_4">
     <g id="text_6">
      <!-- 2000 -->
      <g style="fill: #262626" transform="translate(30.944688 71.787602) scale(0.11 -0.11)">
       <use xlink:href="#ArialMT-32"/>
       <use xlink:href="#ArialMT-30" x="55.615234"/>
       <use xlink:href="#ArialMT-30" x="111.230469"/>
       <use xlink:href="#ArialMT-30" x="166.845703"/>
      </g>
     </g>
    </g>
    <g id="ytick_5">
     <g id="text_7">
      <!-- 4000 -->
      <g style="fill: #262626" transform="translate(30.944688 25.058103) scale(0.11 -0.11)">
       <use xlink:href="#ArialMT-34"/>
       <use xlink:href="#ArialMT-30" x="55.615234"/>
       <use xlink:href="#ArialMT-30" x="111.230469"/>
       <use xlink:href="#ArialMT-30" x="166.845703"/>
      </g>
     </g>
    </g>
    <g id="text_8">
     <!-- sGMV residuals [mm$^3$] -->
     <g style="fill: #262626" transform="translate(18.12 178.32) rotate(-90) scale(0.12 -0.12)">
      <defs>
       <path id="ArialMT-73" d="M 197 991 
L 753 1078 
Q 800 744 1014 566 
Q 1228 388 1613 388 
Q 2000 388 2187 545 
Q 2375 703 2375 916 
Q 2375 1106 2209 1216 
Q 2094 1291 1634 1406 
Q 1016 1563 777 1677 
Q 538 1791 414 1992 
Q 291 2194 291 2438 
Q 291 2659 392 2848 
Q 494 3038 669 3163 
Q 800 3259 1026 3326 
Q 1253 3394 1513 3394 
Q 1903 3394 2198 3281 
Q 2494 3169 2634 2976 
Q 2775 2784 2828 2463 
L 2278 2388 
Q 2241 2644 2061 2787 
Q 1881 2931 1553 2931 
Q 1166 2931 1000 2803 
Q 834 2675 834 2503 
Q 834 2394 903 2306 
Q 972 2216 1119 2156 
Q 1203 2125 1616 2013 
Q 2213 1853 2448 1751 
Q 2684 1650 2818 1456 
Q 2953 1263 2953 975 
Q 2953 694 2789 445 
Q 2625 197 2315 61 
Q 2006 -75 1616 -75 
Q 969 -75 630 194 
Q 291 463 197 991 
z
" transform="scale(0.015625)"/>
       <path id="ArialMT-47" d="M 2638 1797 
L 2638 2334 
L 4578 2338 
L 4578 638 
Q 4131 281 3656 101 
Q 3181 -78 2681 -78 
Q 2006 -78 1454 211 
Q 903 500 622 1047 
Q 341 1594 341 2269 
Q 341 2938 620 3517 
Q 900 4097 1425 4378 
Q 1950 4659 2634 4659 
Q 3131 4659 3532 4498 
Q 3934 4338 4162 4050 
Q 4391 3763 4509 3300 
L 3963 3150 
Q 3859 3500 3706 3700 
Q 3553 3900 3268 4020 
Q 2984 4141 2638 4141 
Q 2222 4141 1919 4014 
Q 1616 3888 1430 3681 
Q 1244 3475 1141 3228 
Q 966 2803 966 2306 
Q 966 1694 1177 1281 
Q 1388 869 1791 669 
Q 2194 469 2647 469 
Q 3041 469 3416 620 
Q 3791 772 3984 944 
L 3984 1797 
L 2638 1797 
z
" transform="scale(0.015625)"/>
       <path id="ArialMT-4d" d="M 475 0 
L 475 4581 
L 1388 4581 
L 2472 1338 
Q 2622 884 2691 659 
Q 2769 909 2934 1394 
L 4031 4581 
L 4847 4581 
L 4847 0 
L 4263 0 
L 4263 3834 
L 2931 0 
L 2384 0 
L 1059 3900 
L 1059 0 
L 475 0 
z
" transform="scale(0.015625)"/>
       <path id="ArialMT-56" d="M 1803 0 
L 28 4581 
L 684 4581 
L 1875 1253 
Q 2019 853 2116 503 
Q 2222 878 2363 1253 
L 3600 4581 
L 4219 4581 
L 2425 0 
L 1803 0 
z
" transform="scale(0.015625)"/>
       <path id="ArialMT-20" transform="scale(0.015625)"/>
       <path id="ArialMT-69" d="M 425 3934 
L 425 4581 
L 988 4581 
L 988 3934 
L 425 3934 
z
M 425 0 
L 425 3319 
L 988 3319 
L 988 0 
L 425 0 
z
" transform="scale(0.015625)"/>
       <path id="ArialMT-64" d="M 2575 0 
L 2575 419 
Q 2259 -75 1647 -75 
Q 1250 -75 917 144 
Q 584 363 401 755 
Q 219 1147 219 1656 
Q 219 2153 384 2558 
Q 550 2963 881 3178 
Q 1213 3394 1622 3394 
Q 1922 3394 2156 3267 
Q 2391 3141 2538 2938 
L 2538 4581 
L 3097 4581 
L 3097 0 
L 2575 0 
z
M 797 1656 
Q 797 1019 1065 703 
Q 1334 388 1700 388 
Q 2069 388 2326 689 
Q 2584 991 2584 1609 
Q 2584 2291 2321 2609 
Q 2059 2928 1675 2928 
Q 1300 2928 1048 2622 
Q 797 2316 797 1656 
z
" transform="scale(0.015625)"/>
       <path id="ArialMT-75" d="M 2597 0 
L 2597 488 
Q 2209 -75 1544 -75 
Q 1250 -75 995 37 
Q 741 150 617 320 
Q 494 491 444 738 
Q 409 903 409 1263 
L 409 3319 
L 972 3319 
L 972 1478 
Q 972 1038 1006 884 
Q 1059 663 1231 536 
Q 1403 409 1656 409 
Q 1909 409 2131 539 
Q 2353 669 2445 892 
Q 2538 1116 2538 1541 
L 2538 3319 
L 3100 3319 
L 3100 0 
L 2597 0 
z
" transform="scale(0.015625)"/>
       <path id="ArialMT-61" d="M 2588 409 
Q 2275 144 1986 34 
Q 1697 -75 1366 -75 
Q 819 -75 525 192 
Q 231 459 231 875 
Q 231 1119 342 1320 
Q 453 1522 633 1644 
Q 813 1766 1038 1828 
Q 1203 1872 1538 1913 
Q 2219 1994 2541 2106 
Q 2544 2222 2544 2253 
Q 2544 2597 2384 2738 
Q 2169 2928 1744 2928 
Q 1347 2928 1158 2789 
Q 969 2650 878 2297 
L 328 2372 
Q 403 2725 575 2942 
Q 747 3159 1072 3276 
Q 1397 3394 1825 3394 
Q 2250 3394 2515 3294 
Q 2781 3194 2906 3042 
Q 3031 2891 3081 2659 
Q 3109 2516 3109 2141 
L 3109 1391 
Q 3109 606 3145 398 
Q 3181 191 3288 0 
L 2700 0 
Q 2613 175 2588 409 
z
M 2541 1666 
Q 2234 1541 1622 1453 
Q 1275 1403 1131 1340 
Q 988 1278 909 1158 
Q 831 1038 831 891 
Q 831 666 1001 516 
Q 1172 366 1500 366 
Q 1825 366 2078 508 
Q 2331 650 2450 897 
Q 2541 1088 2541 1459 
L 2541 1666 
z
" transform="scale(0.015625)"/>
       <path id="ArialMT-6c" d="M 409 0 
L 409 4581 
L 972 4581 
L 972 0 
L 409 0 
z
" transform="scale(0.015625)"/>
       <path id="ArialMT-5b" d="M 434 -1272 
L 434 4581 
L 1675 4581 
L 1675 4116 
L 997 4116 
L 997 -806 
L 1675 -806 
L 1675 -1272 
L 434 -1272 
z
" transform="scale(0.015625)"/>
       <path id="DejaVuSans-33" d="M 2597 2516 
Q 3050 2419 3304 2112 
Q 3559 1806 3559 1356 
Q 3559 666 3084 287 
Q 2609 -91 1734 -91 
Q 1441 -91 1130 -33 
Q 819 25 488 141 
L 488 750 
Q 750 597 1062 519 
Q 1375 441 1716 441 
Q 2309 441 2620 675 
Q 2931 909 2931 1356 
Q 2931 1769 2642 2001 
Q 2353 2234 1838 2234 
L 1294 2234 
L 1294 2753 
L 1863 2753 
Q 2328 2753 2575 2939 
Q 2822 3125 2822 3475 
Q 2822 3834 2567 4026 
Q 2313 4219 1838 4219 
Q 1578 4219 1281 4162 
Q 984 4106 628 3988 
L 628 4550 
Q 988 4650 1302 4700 
Q 1616 4750 1894 4750 
Q 2613 4750 3031 4423 
Q 3450 4097 3450 3541 
Q 3450 3153 3228 2886 
Q 3006 2619 2597 2516 
z
" transform="scale(0.015625)"/>
       <path id="ArialMT-5d" d="M 1363 -1272 
L 122 -1272 
L 122 -806 
L 800 -806 
L 800 4116 
L 122 4116 
L 122 4581 
L 1363 4581 
L 1363 -1272 
z
" transform="scale(0.015625)"/>
      </defs>
      <use xlink:href="#ArialMT-73" transform="translate(0 0.765625)"/>
      <use xlink:href="#ArialMT-47" transform="translate(50 0.765625)"/>
      <use xlink:href="#ArialMT-4d" transform="translate(127.783203 0.765625)"/>
      <use xlink:href="#ArialMT-56" transform="translate(211.083984 0.765625)"/>
      <use xlink:href="#ArialMT-20" transform="translate(277.783203 0.765625)"/>
      <use xlink:href="#ArialMT-72" transform="translate(305.566406 0.765625)"/>
      <use xlink:href="#ArialMT-65" transform="translate(338.867188 0.765625)"/>
      <use xlink:href="#ArialMT-73" transform="translate(394.482422 0.765625)"/>
      <use xlink:href="#ArialMT-69" transform="translate(444.482422 0.765625)"/>
      <use xlink:href="#ArialMT-64" transform="translate(466.699219 0.765625)"/>
      <use xlink:href="#ArialMT-75" transform="translate(522.314453 0.765625)"/>
      <use xlink:href="#ArialMT-61" transform="translate(577.929688 0.765625)"/>
      <use xlink:href="#ArialMT-6c" transform="translate(633.544922 0.765625)"/>
      <use xlink:href="#ArialMT-73" transform="translate(655.761719 0.765625)"/>
      <use xlink:href="#ArialMT-20" transform="translate(705.761719 0.765625)"/>
      <use xlink:href="#ArialMT-5b" transform="translate(733.544922 0.765625)"/>
      <use xlink:href="#ArialMT-6d" transform="translate(761.328125 0.765625)"/>
      <use xlink:href="#ArialMT-6d" transform="translate(844.628906 0.765625)"/>
      <use xlink:href="#DejaVuSans-33" transform="translate(928.886719 39.046875) scale(0.7)"/>
      <use xlink:href="#ArialMT-5d" transform="translate(976.157227 0.765625)"/>
     </g>
    </g>
   </g>
   <g id="PolyCollection_1">
    <defs>
     <path id="mcf91683464" d="M 106.369477 -49.237147 
L 106.310693 -49.237147 
L 106.292582 -51.060087 
L 106.267693 -52.883027 
L 106.235809 -54.705967 
L 106.197588 -56.528907 
L 106.154323 -58.351847 
L 106.107226 -60.174787 
L 106.056342 -61.997727 
L 105.999461 -63.820666 
L 105.931447 -65.643606 
L 105.844344 -67.466546 
L 105.728274 -69.289486 
L 105.5729 -71.112426 
L 105.369017 -72.935366 
L 105.109896 -74.758306 
L 104.792169 -76.581246 
L 104.416165 -78.404186 
L 103.985619 -80.227125 
L 103.506661 -82.050065 
L 102.98605 -83.873005 
L 102.428951 -85.695945 
L 101.836938 -87.518885 
L 101.207239 -89.341825 
L 100.533955 -91.164765 
L 99.811175 -92.987705 
L 99.036791 -94.810645 
L 98.215035 -96.633584 
L 97.356033 -98.456524 
L 96.472042 -100.279464 
L 95.571827 -102.102404 
L 94.655783 -103.925344 
L 93.714084 -105.748284 
L 92.728455 -107.571224 
L 91.676392 -109.394164 
L 90.535841 -111.217104 
L 89.289079 -113.040044 
L 87.925885 -114.862983 
L 86.446853 -116.685923 
L 84.86704 -118.508863 
L 83.218584 -120.331803 
L 81.549982 -122.154743 
L 79.920434 -123.977683 
L 78.389982 -125.800623 
L 77.008691 -127.623563 
L 75.80905 -129.446503 
L 74.804352 -131.269442 
L 73.992986 -133.092382 
L 73.365951 -134.915322 
L 72.914096 -136.738262 
L 72.63257 -138.561202 
L 72.521903 -140.384142 
L 72.586571 -142.207082 
L 72.832382 -144.030022 
L 73.263702 -145.852962 
L 73.880994 -147.675901 
L 74.678828 -149.498841 
L 75.644385 -151.321781 
L 76.756556 -153.144721 
L 77.985842 -154.967661 
L 79.295542 -156.790601 
L 80.644768 -158.613541 
L 81.993595 -160.436481 
L 83.309724 -162.259421 
L 84.57497 -164.082361 
L 85.789018 -165.9053 
L 86.968223 -167.72824 
L 88.138708 -169.55118 
L 89.325359 -171.37412 
L 90.540344 -173.19706 
L 91.77556 -175.02 
L 93.002281 -176.84294 
L 94.178674 -178.66588 
L 95.262785 -180.48882 
L 96.226348 -182.311759 
L 97.064328 -184.134699 
L 97.796638 -185.957639 
L 98.46141 -187.780579 
L 99.102325 -189.603519 
L 99.754639 -191.426459 
L 100.434804 -193.249399 
L 101.136954 -195.072339 
L 101.836775 -196.895279 
L 102.500639 -198.718218 
L 103.096378 -200.541158 
L 103.602123 -202.364098 
L 104.01094 -204.187038 
L 104.33074 -206.009978 
L 104.580394 -207.832918 
L 104.783798 -209.655858 
L 104.963745 -211.478798 
L 105.137144 -213.301738 
L 105.312547 -215.124678 
L 105.490224 -216.947617 
L 105.664345 -218.770557 
L 105.826292 -220.593497 
L 105.967954 -222.416437 
L 106.084063 -224.239377 
L 106.173116 -226.062317 
L 106.237025 -227.885257 
L 106.27995 -229.708197 
L 106.400221 -229.708197 
L 106.400221 -229.708197 
L 106.443146 -227.885257 
L 106.507054 -226.062317 
L 106.596108 -224.239377 
L 106.712216 -222.416437 
L 106.853879 -220.593497 
L 107.015825 -218.770557 
L 107.189946 -216.947617 
L 107.367624 -215.124678 
L 107.543027 -213.301738 
L 107.716426 -211.478798 
L 107.896372 -209.655858 
L 108.099776 -207.832918 
L 108.349431 -206.009978 
L 108.669231 -204.187038 
L 109.078048 -202.364098 
L 109.583792 -200.541158 
L 110.179532 -198.718218 
L 110.843396 -196.895279 
L 111.543217 -195.072339 
L 112.245367 -193.249399 
L 112.925532 -191.426459 
L 113.577845 -189.603519 
L 114.21876 -187.780579 
L 114.883532 -185.957639 
L 115.615842 -184.134699 
L 116.453822 -182.311759 
L 117.417386 -180.48882 
L 118.501497 -178.66588 
L 119.67789 -176.84294 
L 120.90461 -175.02 
L 122.139826 -173.19706 
L 123.354811 -171.37412 
L 124.541462 -169.55118 
L 125.711948 -167.72824 
L 126.891152 -165.9053 
L 128.1052 -164.082361 
L 129.370446 -162.259421 
L 130.686576 -160.436481 
L 132.035402 -158.613541 
L 133.384629 -156.790601 
L 134.694328 -154.967661 
L 135.923615 -153.144721 
L 137.035785 -151.321781 
L 138.001343 -149.498841 
L 138.799177 -147.675901 
L 139.416469 -145.852962 
L 139.847788 -144.030022 
L 140.093599 -142.207082 
L 140.158267 -140.384142 
L 140.0476 -138.561202 
L 139.766074 -136.738262 
L 139.314219 -134.915322 
L 138.687185 -133.092382 
L 137.875819 -131.269442 
L 136.871121 -129.446503 
L 135.67148 -127.623563 
L 134.290189 -125.800623 
L 132.759736 -123.977683 
L 131.130189 -122.154743 
L 129.461587 -120.331803 
L 127.81313 -118.508863 
L 126.233317 -116.685923 
L 124.754286 -114.862983 
L 123.391091 -113.040044 
L 122.144329 -111.217104 
L 121.003779 -109.394164 
L 119.951715 -107.571224 
L 118.966086 -105.748284 
L 118.024387 -103.925344 
L 117.108344 -102.102404 
L 116.208128 -100.279464 
L 115.324137 -98.456524 
L 114.465136 -96.633584 
L 113.643379 -94.810645 
L 112.868996 -92.987705 
L 112.146216 -91.164765 
L 111.472931 -89.341825 
L 110.843233 -87.518885 
L 110.25122 -85.695945 
L 109.69412 -83.873005 
L 109.17351 -82.050065 
L 108.694551 -80.227125 
L 108.264005 -78.404186 
L 107.888001 -76.581246 
L 107.570275 -74.758306 
L 107.311154 -72.935366 
L 107.107271 -71.112426 
L 106.951897 -69.289486 
L 106.835826 -67.466546 
L 106.748723 -65.643606 
L 106.68071 -63.820666 
L 106.623828 -61.997727 
L 106.572945 -60.174787 
L 106.525847 -58.351847 
L 106.482583 -56.528907 
L 106.444361 -54.705967 
L 106.412478 -52.883027 
L 106.387589 -51.060087 
L 106.369477 -49.237147 
z
" style="stroke: #4c4c4c; stroke-width: 0.5"/>
    </defs>
    <g clip-path="url(#p7e03560bb5)">
     <use xlink:href="#mcf91683464" x="0" y="255.719844" style="fill: #5573cd; stroke: #4c4c4c; stroke-width: 0.5"/>
    </g>
   </g>
   <g id="PolyCollection_2">
    <defs>
     <path id="m326611d5b0" d="M 191.013928 -36.539313 
L 190.757151 -36.539313 
L 190.692695 -38.514963 
L 190.604687 -40.490613 
L 190.488586 -42.466264 
L 190.340443 -44.441914 
L 190.157345 -46.417564 
L 189.937742 -48.393214 
L 189.681551 -50.368865 
L 189.39003 -52.344515 
L 189.065457 -54.320165 
L 188.710734 -56.295815 
L 188.329092 -58.271466 
L 187.924048 -60.247116 
L 187.499695 -62.222766 
L 187.06126 -64.198417 
L 186.615748 -66.174067 
L 186.17236 -68.149717 
L 185.742403 -70.125367 
L 185.338436 -72.101018 
L 184.972644 -74.076668 
L 184.654584 -76.052318 
L 184.388706 -78.027969 
L 184.172152 -80.003619 
L 183.993335 -81.979269 
L 183.83171 -83.954919 
L 183.658897 -85.93057 
L 183.441062 -87.90622 
L 183.14223 -89.88187 
L 182.728044 -91.857521 
L 182.169454 -93.833171 
L 181.445919 -95.808821 
L 180.547824 -97.784471 
L 179.478 -99.760122 
L 178.252271 -101.735772 
L 176.899003 -103.711422 
L 175.457541 -105.687073 
L 173.975445 -107.662723 
L 172.504485 -109.638373 
L 171.095564 -111.614023 
L 169.793024 -113.589674 
L 168.629097 -115.565324 
L 167.619419 -117.540974 
L 166.760525 -119.516625 
L 166.029967 -121.492275 
L 165.389311 -123.467925 
L 164.789757 -125.443575 
L 164.179704 -127.419226 
L 163.513291 -129.394876 
L 162.758735 -131.370526 
L 161.905299 -133.346177 
L 160.967759 -135.321827 
L 159.987446 -137.297477 
L 159.029293 -139.273127 
L 158.174824 -141.248778 
L 157.511757 -143.224428 
L 157.121613 -145.200078 
L 157.067358 -147.175729 
L 157.38333 -149.151379 
L 158.069459 -151.127029 
L 159.090973 -153.102679 
L 160.38368 -155.07833 
L 161.8637 -157.05398 
L 163.439662 -159.02963 
L 165.024992 -161.00528 
L 166.548143 -162.980931 
L 167.959323 -164.956581 
L 169.233168 -166.932231 
L 170.367642 -168.907882 
L 171.380065 -170.883532 
L 172.301365 -172.859182 
L 173.16967 -174.834832 
L 174.024108 -176.810483 
L 174.899466 -178.786133 
L 175.822129 -180.761783 
L 176.80753 -182.737434 
L 177.859208 -184.713084 
L 178.96939 -186.688734 
L 180.120857 -188.664384 
L 181.289717 -190.640035 
L 182.448624 -192.615685 
L 183.569974 -194.591335 
L 184.628703 -196.566986 
L 185.604409 -198.542636 
L 186.482695 -200.518286 
L 187.255689 -202.493936 
L 187.921851 -204.469587 
L 188.485153 -206.445237 
L 188.953838 -208.420887 
L 189.338928 -210.396538 
L 189.6527 -212.372188 
L 189.907331 -214.347838 
L 190.11388 -216.323488 
L 190.281674 -218.299139 
L 190.418124 -220.274789 
L 190.528874 -222.250439 
L 190.618163 -224.22609 
L 190.689261 -226.20174 
L 190.744857 -228.17739 
L 190.787334 -230.15304 
L 190.81891 -232.128691 
L 190.952169 -232.128691 
L 190.952169 -232.128691 
L 190.983746 -230.15304 
L 191.026222 -228.17739 
L 191.081818 -226.20174 
L 191.152917 -224.22609 
L 191.242206 -222.250439 
L 191.352956 -220.274789 
L 191.489406 -218.299139 
L 191.6572 -216.323488 
L 191.863748 -214.347838 
L 192.11838 -212.372188 
L 192.432151 -210.396538 
L 192.817241 -208.420887 
L 193.285927 -206.445237 
L 193.849229 -204.469587 
L 194.51539 -202.493936 
L 195.288385 -200.518286 
L 196.16667 -198.542636 
L 197.142377 -196.566986 
L 198.201105 -194.591335 
L 199.322456 -192.615685 
L 200.481362 -190.640035 
L 201.650223 -188.664384 
L 202.801689 -186.688734 
L 203.911871 -184.713084 
L 204.963549 -182.737434 
L 205.94895 -180.761783 
L 206.871613 -178.786133 
L 207.746972 -176.810483 
L 208.60141 -174.834832 
L 209.469715 -172.859182 
L 210.391015 -170.883532 
L 211.403438 -168.907882 
L 212.537912 -166.932231 
L 213.811757 -164.956581 
L 215.222937 -162.980931 
L 216.746088 -161.00528 
L 218.331417 -159.02963 
L 219.90738 -157.05398 
L 221.3874 -155.07833 
L 222.680107 -153.102679 
L 223.701621 -151.127029 
L 224.387749 -149.151379 
L 224.703722 -147.175729 
L 224.649466 -145.200078 
L 224.259323 -143.224428 
L 223.596255 -141.248778 
L 222.741786 -139.273127 
L 221.783633 -137.297477 
L 220.803321 -135.321827 
L 219.86578 -133.346177 
L 219.012344 -131.370526 
L 218.257789 -129.394876 
L 217.591376 -127.419226 
L 216.981323 -125.443575 
L 216.381768 -123.467925 
L 215.741113 -121.492275 
L 215.010555 -119.516625 
L 214.15166 -117.540974 
L 213.141982 -115.565324 
L 211.978055 -113.589674 
L 210.675515 -111.614023 
L 209.266594 -109.638373 
L 207.795634 -107.662723 
L 206.313538 -105.687073 
L 204.872076 -103.711422 
L 203.518808 -101.735772 
L 202.29308 -99.760122 
L 201.223255 -97.784471 
L 200.32516 -95.808821 
L 199.601625 -93.833171 
L 199.043036 -91.857521 
L 198.62885 -89.88187 
L 198.330017 -87.90622 
L 198.112182 -85.93057 
L 197.939369 -83.954919 
L 197.777745 -81.979269 
L 197.598928 -80.003619 
L 197.382374 -78.027969 
L 197.116496 -76.052318 
L 196.798435 -74.076668 
L 196.432643 -72.101018 
L 196.028677 -70.125367 
L 195.598719 -68.149717 
L 195.155332 -66.174067 
L 194.709819 -64.198417 
L 194.271385 -62.222766 
L 193.847032 -60.247116 
L 193.441988 -58.271466 
L 193.060346 -56.295815 
L 192.705623 -54.320165 
L 192.38105 -52.344515 
L 192.089529 -50.368865 
L 191.833337 -48.393214 
L 191.613734 -46.417564 
L 191.430637 -44.441914 
L 191.282493 -42.466264 
L 191.166392 -40.490613 
L 191.078385 -38.514963 
L 191.013928 -36.539313 
z
" style="stroke: #4c4c4c; stroke-width: 0.5"/>
    </defs>
    <g clip-path="url(#p7e03560bb5)">
     <use xlink:href="#m326611d5b0" x="0" y="255.719844" style="fill: #df8920; stroke: #4c4c4c; stroke-width: 0.5"/>
    </g>
   </g>
   <g id="line2d_1">
    <path d="M 106.340085 177.918203 
L 106.340085 48.346598 
" clip-path="url(#p7e03560bb5)" style="fill: none; stroke: #4c4c4c; stroke-width: 0.75; stroke-linecap: round"/>
   </g>
   <g id="line2d_2">
    <path d="M 106.340085 130.096317 
L 106.340085 97.341478 
" clip-path="url(#p7e03560bb5)" style="fill: none; stroke: #4c4c4c; stroke-width: 2.25; stroke-linecap: round"/>
   </g>
   <g id="line2d_3">
    <path d="M 106.340085 114.028978 
" clip-path="url(#p7e03560bb5)" style="fill: none; stroke: #4c4c4c; stroke-width: 1.5; stroke-linecap: round"/>
    <defs>
     <path id="mfe2e4456dd" d="M 0.9375 0 
L -0.9375 -0 
" style="stroke: #ffffff; stroke-width: 0.45"/>
    </defs>
    <g clip-path="url(#p7e03560bb5)">
     <use xlink:href="#mfe2e4456dd" x="106.340085" y="114.028978" style="fill: #ffffff; stroke: #ffffff; stroke-width: 0.45"/>
    </g>
   </g>
   <g id="line2d_4">
    <path d="M 190.88554 196.437748 
L 190.88554 44.389284 
" clip-path="url(#p7e03560bb5)" style="fill: none; stroke: #4c4c4c; stroke-width: 0.75; stroke-linecap: round"/>
   </g>
   <g id="line2d_5">
    <path d="M 190.88554 137.571819 
L 190.88554 97.591583 
" clip-path="url(#p7e03560bb5)" style="fill: none; stroke: #4c4c4c; stroke-width: 2.25; stroke-linecap: round"/>
   </g>
   <g id="line2d_6">
    <path d="M 190.88554 113.2454 
" clip-path="url(#p7e03560bb5)" style="fill: none; stroke: #4c4c4c; stroke-width: 1.5; stroke-linecap: round"/>
    <g clip-path="url(#p7e03560bb5)">
     <use xlink:href="#mfe2e4456dd" x="190.88554" y="113.2454" style="fill: #ffffff; stroke: #ffffff; stroke-width: 0.45"/>
    </g>
   </g>
   <g id="line2d_7">
    <path d="M 106.340085 31.480385 
L 106.340085 27.177419 
L 190.88554 27.177419 
L 190.88554 31.480385 
" style="fill: none; stroke: #333333; stroke-width: 0.5; stroke-linecap: round"/>
   </g>
   <g id="patch_3">
    <path d="M 64.912813 228.96 
L 64.912813 7.2 
" style="fill: none; stroke: #262626; stroke-width: 1.25; stroke-linejoin: miter; stroke-linecap: square"/>
   </g>
   <g id="patch_4">
    <path d="M 64.912813 228.96 
L 232.312813 228.96 
" style="fill: none; stroke: #262626; stroke-width: 1.25; stroke-linejoin: miter; stroke-linecap: square"/>
   </g>
   <g id="text_9">
    <!-- ns -->
    <g style="fill: #262626" transform="translate(142.27625 23.792419) scale(0.12 -0.12)">
     <defs>
      <path id="ArialMT-6e" d="M 422 0 
L 422 3319 
L 928 3319 
L 928 2847 
Q 1294 3394 1984 3394 
Q 2284 3394 2536 3286 
Q 2788 3178 2913 3003 
Q 3038 2828 3088 2588 
Q 3119 2431 3119 2041 
L 3119 0 
L 2556 0 
L 2556 2019 
Q 2556 2363 2490 2533 
Q 2425 2703 2258 2804 
Q 2091 2906 1866 2906 
Q 1506 2906 1245 2678 
Q 984 2450 984 1813 
L 984 0 
L 422 0 
z
" transform="scale(0.015625)"/>
     </defs>
     <use xlink:href="#ArialMT-6e"/>
     <use xlink:href="#ArialMT-73" x="55.615234"/>
    </g>
   </g>
  </g>
 </g>
 <defs>
  <clipPath id="p7e03560bb5">
   <rect x="64.912813" y="7.2" width="167.4" height="221.76"/>
  </clipPath>
 </defs>
</svg>
