<?xml version="1.0" encoding="utf-8" standalone="no"?>
<!DOCTYPE svg PUBLIC "-//W3C//DTD SVG 1.1//EN"
  "http://www.w3.org/Graphics/SVG/1.1/DTD/svg11.dtd">
<svg xmlns:xlink="http://www.w3.org/1999/xlink" width="236.451719pt" height="255.719844pt" viewBox="0 0 236.451719 255.719844" xmlns="http://www.w3.org/2000/svg" version="1.1">
 <metadata>
  <rdf:RDF xmlns:dc="http://purl.org/dc/elements/1.1/" xmlns:cc="http://creativecommons.org/ns#" xmlns:rdf="http://www.w3.org/1999/02/22-rdf-syntax-ns#">
   <cc:Work>
    <dc:type rdf:resource="http://purl.org/dc/dcmitype/StillImage"/>
    <dc:date>2025-06-10T14:19:35.945941</dc:date>
    <dc:format>image/svg+xml</dc:format>
    <dc:creator>
     <cc:Agent>
      <dc:title>Matplotlib v3.9.2, https://matplotlib.org/</dc:title>
     </cc:Agent>
    </dc:creator>
   </cc:Work>
  </rdf:RDF>
 </metadata>
 <defs>
  <style type="text/css">*{stroke-linejoin: round; stroke-linecap: butt}</style>
 </defs>
 <g id="figure_1">
  <g id="patch_1">
   <path d="M 0 255.719844 
L 236.451719 255.719844 
L 236.451719 0 
L 0 0 
z
" style="fill: #ffffff"/>
  </g>
  <g id="axes_1">
   <g id="patch_2">
    <path d="M 61.851719 228.96 
L 229.251719 228.96 
L 229.251719 7.2 
L 61.851719 7.2 
z
" style="fill: #ffffff"/>
   </g>
   <g id="matplotlib.axis_1">
    <g id="xtick_1">
     <g id="text_1">
      <!-- Term -->
      <g style="fill: #262626" transform="translate(91.060398 246.333594) scale(0.11 -0.11)">
       <defs>
        <path id="ArialMT-54" d="M 1659 0 
L 1659 4041 
L 150 4041 
L 150 4581 
L 3781 4581 
L 3781 4041 
L 2266 4041 
L 2266 0 
L 1659 0 
z
" transform="scale(0.015625)"/>
        <path id="ArialMT-65" d="M 2694 1069 
L 3275 997 
Q 3138 488 2766 206 
Q 2394 -75 1816 -75 
Q 1088 -75 661 373 
Q 234 822 234 1631 
Q 234 2469 665 2931 
Q 1097 3394 1784 3394 
Q 2450 3394 2872 2941 
Q 3294 2488 3294 1666 
Q 3294 1616 3291 1516 
L 816 1516 
Q 847 969 1125 678 
Q 1403 388 1819 388 
Q 2128 388 2347 550 
Q 2566 713 2694 1069 
z
M 847 1978 
L 2700 1978 
Q 2663 2397 2488 2606 
Q 2219 2931 1791 2931 
Q 1403 2931 1139 2672 
Q 875 2413 847 1978 
z
" transform="scale(0.015625)"/>
        <path id="ArialMT-72" d="M 416 0 
L 416 3319 
L 922 3319 
L 922 2816 
Q 1116 3169 1280 3281 
Q 1444 3394 1641 3394 
Q 1925 3394 2219 3213 
L 2025 2691 
Q 1819 2813 1613 2813 
Q 1428 2813 1281 2702 
Q 1134 2591 1072 2394 
Q 978 2094 978 1738 
L 978 0 
L 416 0 
z
" transform="scale(0.015625)"/>
        <path id="ArialMT-6d" d="M 422 0 
L 422 3319 
L 925 3319 
L 925 2853 
Q 1081 3097 1340 3245 
Q 1600 3394 1931 3394 
Q 2300 3394 2536 3241 
Q 2772 3088 2869 2813 
Q 3263 3394 3894 3394 
Q 4388 3394 4653 3120 
Q 4919 2847 4919 2278 
L 4919 0 
L 4359 0 
L 4359 2091 
Q 4359 2428 4304 2576 
Q 4250 2725 4106 2815 
Q 3963 2906 3769 2906 
Q 3419 2906 3187 2673 
Q 2956 2441 2956 1928 
L 2956 0 
L 2394 0 
L 2394 2156 
Q 2394 2531 2256 2718 
Q 2119 2906 1806 2906 
Q 1569 2906 1367 2781 
Q 1166 2656 1075 2415 
Q 984 2175 984 1722 
L 984 0 
L 422 0 
z
" transform="scale(0.015625)"/>
       </defs>
       <use xlink:href="#ArialMT-54"/>
       <use xlink:href="#ArialMT-65" x="49.958984"/>
       <use xlink:href="#ArialMT-72" x="105.574219"/>
       <use xlink:href="#ArialMT-6d" x="138.875"/>
      </g>
     </g>
    </g>
    <g id="xtick_2">
     <g id="text_2">
      <!-- Preterm -->
      <g style="fill: #262626" transform="translate(168.26679 246.333594) scale(0.11 -0.11)">
       <defs>
        <path id="ArialMT-50" d="M 494 0 
L 494 4581 
L 2222 4581 
Q 2678 4581 2919 4538 
Q 3256 4481 3484 4323 
Q 3713 4166 3852 3881 
Q 3991 3597 3991 3256 
Q 3991 2672 3619 2267 
Q 3247 1863 2275 1863 
L 1100 1863 
L 1100 0 
L 494 0 
z
M 1100 2403 
L 2284 2403 
Q 2872 2403 3119 2622 
Q 3366 2841 3366 3238 
Q 3366 3525 3220 3729 
Q 3075 3934 2838 4000 
Q 2684 4041 2272 4041 
L 1100 4041 
L 1100 2403 
z
" transform="scale(0.015625)"/>
        <path id="ArialMT-74" d="M 1650 503 
L 1731 6 
Q 1494 -44 1306 -44 
Q 1000 -44 831 53 
Q 663 150 594 308 
Q 525 466 525 972 
L 525 2881 
L 113 2881 
L 113 3319 
L 525 3319 
L 525 4141 
L 1084 4478 
L 1084 3319 
L 1650 3319 
L 1650 2881 
L 1084 2881 
L 1084 941 
Q 1084 700 1114 631 
Q 1144 563 1211 522 
Q 1278 481 1403 481 
Q 1497 481 1650 503 
z
" transform="scale(0.015625)"/>
       </defs>
       <use xlink:href="#ArialMT-50"/>
       <use xlink:href="#ArialMT-72" x="66.699219"/>
       <use xlink:href="#ArialMT-65" x="100"/>
       <use xlink:href="#ArialMT-74" x="155.615234"/>
       <use xlink:href="#ArialMT-65" x="183.398438"/>
       <use xlink:href="#ArialMT-72" x="239.013672"/>
       <use xlink:href="#ArialMT-6d" x="272.314453"/>
      </g>
     </g>
    </g>
   </g>
   <g id="matplotlib.axis_2">
    <g id="ytick_1">
     <g id="text_3">
      <!-- −0.10 -->
      <g style="fill: #262626" transform="translate(24.52 214.020444) scale(0.11 -0.11)">
       <defs>
        <path id="ArialMT-2212" d="M 3381 1997 
L 356 1997 
L 356 2522 
L 3381 2522 
L 3381 1997 
z
" transform="scale(0.015625)"/>
        <path id="ArialMT-30" d="M 266 2259 
Q 266 3072 433 3567 
Q 600 4063 929 4331 
Q 1259 4600 1759 4600 
Q 2128 4600 2406 4451 
Q 2684 4303 2865 4023 
Q 3047 3744 3150 3342 
Q 3253 2941 3253 2259 
Q 3253 1453 3087 958 
Q 2922 463 2592 192 
Q 2263 -78 1759 -78 
Q 1097 -78 719 397 
Q 266 969 266 2259 
z
M 844 2259 
Q 844 1131 1108 757 
Q 1372 384 1759 384 
Q 2147 384 2411 759 
Q 2675 1134 2675 2259 
Q 2675 3391 2411 3762 
Q 2147 4134 1753 4134 
Q 1366 4134 1134 3806 
Q 844 3388 844 2259 
z
" transform="scale(0.015625)"/>
        <path id="ArialMT-2e" d="M 581 0 
L 581 641 
L 1222 641 
L 1222 0 
L 581 0 
z
" transform="scale(0.015625)"/>
        <path id="ArialMT-31" d="M 2384 0 
L 1822 0 
L 1822 3584 
Q 1619 3391 1289 3197 
Q 959 3003 697 2906 
L 697 3450 
Q 1169 3672 1522 3987 
Q 1875 4303 2022 4600 
L 2384 4600 
L 2384 0 
z
" transform="scale(0.015625)"/>
       </defs>
       <use xlink:href="#ArialMT-2212"/>
       <use xlink:href="#ArialMT-30" x="58.398438"/>
       <use xlink:href="#ArialMT-2e" x="114.013672"/>
       <use xlink:href="#ArialMT-31" x="141.796875"/>
       <use xlink:href="#ArialMT-30" x="197.412109"/>
      </g>
     </g>
    </g>
    <g id="ytick_2">
     <g id="text_4">
      <!-- −0.05 -->
      <g style="fill: #262626" transform="translate(24.52 186.569759) scale(0.11 -0.11)">
       <defs>
        <path id="ArialMT-35" d="M 266 1200 
L 856 1250 
Q 922 819 1161 601 
Q 1400 384 1738 384 
Q 2144 384 2425 690 
Q 2706 997 2706 1503 
Q 2706 1984 2436 2262 
Q 2166 2541 1728 2541 
Q 1456 2541 1237 2417 
Q 1019 2294 894 2097 
L 366 2166 
L 809 4519 
L 3088 4519 
L 3088 3981 
L 1259 3981 
L 1013 2750 
Q 1425 3038 1878 3038 
Q 2478 3038 2890 2622 
Q 3303 2206 3303 1553 
Q 3303 931 2941 478 
Q 2500 -78 1738 -78 
Q 1113 -78 717 272 
Q 322 622 266 1200 
z
" transform="scale(0.015625)"/>
       </defs>
       <use xlink:href="#ArialMT-2212"/>
       <use xlink:href="#ArialMT-30" x="58.398438"/>
       <use xlink:href="#ArialMT-2e" x="114.013672"/>
       <use xlink:href="#ArialMT-30" x="141.796875"/>
       <use xlink:href="#ArialMT-35" x="197.412109"/>
      </g>
     </g>
    </g>
    <g id="ytick_3">
     <g id="text_5">
      <!-- 0.00 -->
      <g style="fill: #262626" transform="translate(30.944688 159.119074) scale(0.11 -0.11)">
       <use xlink:href="#ArialMT-30"/>
       <use xlink:href="#ArialMT-2e" x="55.615234"/>
       <use xlink:href="#ArialMT-30" x="83.398438"/>
       <use xlink:href="#ArialMT-30" x="139.013672"/>
      </g>
     </g>
    </g>
    <g id="ytick_4">
     <g id="text_6">
      <!-- 0.05 -->
      <g style="fill: #262626" transform="translate(30.944688 131.668389) scale(0.11 -0.11)">
       <use xlink:href="#ArialMT-30"/>
       <use xlink:href="#ArialMT-2e" x="55.615234"/>
       <use xlink:href="#ArialMT-30" x="83.398438"/>
       <use xlink:href="#ArialMT-35" x="139.013672"/>
      </g>
     </g>
    </g>
    <g id="ytick_5">
     <g id="text_7">
      <!-- 0.10 -->
      <g style="fill: #262626" transform="translate(30.944688 104.217704) scale(0.11 -0.11)">
       <use xlink:href="#ArialMT-30"/>
       <use xlink:href="#ArialMT-2e" x="55.615234"/>
       <use xlink:href="#ArialMT-31" x="83.398438"/>
       <use xlink:href="#ArialMT-30" x="139.013672"/>
      </g>
     </g>
    </g>
    <g id="ytick_6">
     <g id="text_8">
      <!-- 0.15 -->
      <g style="fill: #262626" transform="translate(30.944688 76.767019) scale(0.11 -0.11)">
       <use xlink:href="#ArialMT-30"/>
       <use xlink:href="#ArialMT-2e" x="55.615234"/>
       <use xlink:href="#ArialMT-31" x="83.398438"/>
       <use xlink:href="#ArialMT-35" x="139.013672"/>
      </g>
     </g>
    </g>
    <g id="ytick_7">
     <g id="text_9">
      <!-- 0.20 -->
      <g style="fill: #262626" transform="translate(30.944688 49.316334) scale(0.11 -0.11)">
       <defs>
        <path id="ArialMT-32" d="M 3222 541 
L 3222 0 
L 194 0 
Q 188 203 259 391 
Q 375 700 629 1000 
Q 884 1300 1366 1694 
Q 2113 2306 2375 2664 
Q 2638 3022 2638 3341 
Q 2638 3675 2398 3904 
Q 2159 4134 1775 4134 
Q 1369 4134 1125 3890 
Q 881 3647 878 3216 
L 300 3275 
Q 359 3922 746 4261 
Q 1134 4600 1788 4600 
Q 2447 4600 2831 4234 
Q 3216 3869 3216 3328 
Q 3216 3053 3103 2787 
Q 2991 2522 2730 2228 
Q 2469 1934 1863 1422 
Q 1356 997 1212 845 
Q 1069 694 975 541 
L 3222 541 
z
" transform="scale(0.015625)"/>
       </defs>
       <use xlink:href="#ArialMT-30"/>
       <use xlink:href="#ArialMT-2e" x="55.615234"/>
       <use xlink:href="#ArialMT-32" x="83.398438"/>
       <use xlink:href="#ArialMT-30" x="139.013672"/>
      </g>
     </g>
    </g>
    <g id="ytick_8">
     <g id="text_10">
      <!-- 0.25 -->
      <g style="fill: #262626" transform="translate(30.944688 21.865649) scale(0.11 -0.11)">
       <use xlink:href="#ArialMT-30"/>
       <use xlink:href="#ArialMT-2e" x="55.615234"/>
       <use xlink:href="#ArialMT-32" x="83.398438"/>
       <use xlink:href="#ArialMT-35" x="139.013672"/>
      </g>
     </g>
    </g>
    <g id="text_11">
     <!-- meanCT2 residuals [mm$^3$] -->
     <g style="fill: #262626" transform="translate(18.12 188.04) rotate(-90) scale(0.12 -0.12)">
      <defs>
       <path id="ArialMT-61" d="M 2588 409 
Q 2275 144 1986 34 
Q 1697 -75 1366 -75 
Q 819 -75 525 192 
Q 231 459 231 875 
Q 231 1119 342 1320 
Q 453 1522 633 1644 
Q 813 1766 1038 1828 
Q 1203 1872 1538 1913 
Q 2219 1994 2541 2106 
Q 2544 2222 2544 2253 
Q 2544 2597 2384 2738 
Q 2169 2928 1744 2928 
Q 1347 2928 1158 2789 
Q 969 2650 878 2297 
L 328 2372 
Q 403 2725 575 2942 
Q 747 3159 1072 3276 
Q 1397 3394 1825 3394 
Q 2250 3394 2515 3294 
Q 2781 3194 2906 3042 
Q 3031 2891 3081 2659 
Q 3109 2516 3109 2141 
L 3109 1391 
Q 3109 606 3145 398 
Q 3181 191 3288 0 
L 2700 0 
Q 2613 175 2588 409 
z
M 2541 1666 
Q 2234 1541 1622 1453 
Q 1275 1403 1131 1340 
Q 988 1278 909 1158 
Q 831 1038 831 891 
Q 831 666 1001 516 
Q 1172 366 1500 366 
Q 1825 366 2078 508 
Q 2331 650 2450 897 
Q 2541 1088 2541 1459 
L 2541 1666 
z
" transform="scale(0.015625)"/>
       <path id="ArialMT-6e" d="M 422 0 
L 422 3319 
L 928 3319 
L 928 2847 
Q 1294 3394 1984 3394 
Q 2284 3394 2536 3286 
Q 2788 3178 2913 3003 
Q 3038 2828 3088 2588 
Q 3119 2431 3119 2041 
L 3119 0 
L 2556 0 
L 2556 2019 
Q 2556 2363 2490 2533 
Q 2425 2703 2258 2804 
Q 2091 2906 1866 2906 
Q 1506 2906 1245 2678 
Q 984 2450 984 1813 
L 984 0 
L 422 0 
z
" transform="scale(0.015625)"/>
       <path id="ArialMT-43" d="M 3763 1606 
L 4369 1453 
Q 4178 706 3683 314 
Q 3188 -78 2472 -78 
Q 1731 -78 1267 223 
Q 803 525 561 1097 
Q 319 1669 319 2325 
Q 319 3041 592 3573 
Q 866 4106 1370 4382 
Q 1875 4659 2481 4659 
Q 3169 4659 3637 4309 
Q 4106 3959 4291 3325 
L 3694 3184 
Q 3534 3684 3231 3912 
Q 2928 4141 2469 4141 
Q 1941 4141 1586 3887 
Q 1231 3634 1087 3207 
Q 944 2781 944 2328 
Q 944 1744 1114 1308 
Q 1284 872 1643 656 
Q 2003 441 2422 441 
Q 2931 441 3284 734 
Q 3638 1028 3763 1606 
z
" transform="scale(0.015625)"/>
       <path id="ArialMT-20" transform="scale(0.015625)"/>
       <path id="ArialMT-73" d="M 197 991 
L 753 1078 
Q 800 744 1014 566 
Q 1228 388 1613 388 
Q 2000 388 2187 545 
Q 2375 703 2375 916 
Q 2375 1106 2209 1216 
Q 2094 1291 1634 1406 
Q 1016 1563 777 1677 
Q 538 1791 414 1992 
Q 291 2194 291 2438 
Q 291 2659 392 2848 
Q 494 3038 669 3163 
Q 800 3259 1026 3326 
Q 1253 3394 1513 3394 
Q 1903 3394 2198 3281 
Q 2494 3169 2634 2976 
Q 2775 2784 2828 2463 
L 2278 2388 
Q 2241 2644 2061 2787 
Q 1881 2931 1553 2931 
Q 1166 2931 1000 2803 
Q 834 2675 834 2503 
Q 834 2394 903 2306 
Q 972 2216 1119 2156 
Q 1203 2125 1616 2013 
Q 2213 1853 2448 1751 
Q 2684 1650 2818 1456 
Q 2953 1263 2953 975 
Q 2953 694 2789 445 
Q 2625 197 2315 61 
Q 2006 -75 1616 -75 
Q 969 -75 630 194 
Q 291 463 197 991 
z
" transform="scale(0.015625)"/>
       <path id="ArialMT-69" d="M 425 3934 
L 425 4581 
L 988 4581 
L 988 3934 
L 425 3934 
z
M 425 0 
L 425 3319 
L 988 3319 
L 988 0 
L 425 0 
z
" transform="scale(0.015625)"/>
       <path id="ArialMT-64" d="M 2575 0 
L 2575 419 
Q 2259 -75 1647 -75 
Q 1250 -75 917 144 
Q 584 363 401 755 
Q 219 1147 219 1656 
Q 219 2153 384 2558 
Q 550 2963 881 3178 
Q 1213 3394 1622 3394 
Q 1922 3394 2156 3267 
Q 2391 3141 2538 2938 
L 2538 4581 
L 3097 4581 
L 3097 0 
L 2575 0 
z
M 797 1656 
Q 797 1019 1065 703 
Q 1334 388 1700 388 
Q 2069 388 2326 689 
Q 2584 991 2584 1609 
Q 2584 2291 2321 2609 
Q 2059 2928 1675 2928 
Q 1300 2928 1048 2622 
Q 797 2316 797 1656 
z
" transform="scale(0.015625)"/>
       <path id="ArialMT-75" d="M 2597 0 
L 2597 488 
Q 2209 -75 1544 -75 
Q 1250 -75 995 37 
Q 741 150 617 320 
Q 494 491 444 738 
Q 409 903 409 1263 
L 409 3319 
L 972 3319 
L 972 1478 
Q 972 1038 1006 884 
Q 1059 663 1231 536 
Q 1403 409 1656 409 
Q 1909 409 2131 539 
Q 2353 669 2445 892 
Q 2538 1116 2538 1541 
L 2538 3319 
L 3100 3319 
L 3100 0 
L 2597 0 
z
" transform="scale(0.015625)"/>
       <path id="ArialMT-6c" d="M 409 0 
L 409 4581 
L 972 4581 
L 972 0 
L 409 0 
z
" transform="scale(0.015625)"/>
       <path id="ArialMT-5b" d="M 434 -1272 
L 434 4581 
L 1675 4581 
L 1675 4116 
L 997 4116 
L 997 -806 
L 1675 -806 
L 1675 -1272 
L 434 -1272 
z
" transform="scale(0.015625)"/>
       <path id="DejaVuSans-33" d="M 2597 2516 
Q 3050 2419 3304 2112 
Q 3559 1806 3559 1356 
Q 3559 666 3084 287 
Q 2609 -91 1734 -91 
Q 1441 -91 1130 -33 
Q 819 25 488 141 
L 488 750 
Q 750 597 1062 519 
Q 1375 441 1716 441 
Q 2309 441 2620 675 
Q 2931 909 2931 1356 
Q 2931 1769 2642 2001 
Q 2353 2234 1838 2234 
L 1294 2234 
L 1294 2753 
L 1863 2753 
Q 2328 2753 2575 2939 
Q 2822 3125 2822 3475 
Q 2822 3834 2567 4026 
Q 2313 4219 1838 4219 
Q 1578 4219 1281 4162 
Q 984 4106 628 3988 
L 628 4550 
Q 988 4650 1302 4700 
Q 1616 4750 1894 4750 
Q 2613 4750 3031 4423 
Q 3450 4097 3450 3541 
Q 3450 3153 3228 2886 
Q 3006 2619 2597 2516 
z
" transform="scale(0.015625)"/>
       <path id="ArialMT-5d" d="M 1363 -1272 
L 122 -1272 
L 122 -806 
L 800 -806 
L 800 4116 
L 122 4116 
L 122 4581 
L 1363 4581 
L 1363 -1272 
z
" transform="scale(0.015625)"/>
      </defs>
      <use xlink:href="#ArialMT-6d" transform="translate(0 0.765625)"/>
      <use xlink:href="#ArialMT-65" transform="translate(83.300781 0.765625)"/>
      <use xlink:href="#ArialMT-61" transform="translate(138.916016 0.765625)"/>
      <use xlink:href="#ArialMT-6e" transform="translate(194.53125 0.765625)"/>
      <use xlink:href="#ArialMT-43" transform="translate(250.146484 0.765625)"/>
      <use xlink:href="#ArialMT-54" transform="translate(322.363281 0.765625)"/>
      <use xlink:href="#ArialMT-32" transform="translate(383.447266 0.765625)"/>
      <use xlink:href="#ArialMT-20" transform="translate(439.0625 0.765625)"/>
      <use xlink:href="#ArialMT-72" transform="translate(466.845703 0.765625)"/>
      <use xlink:href="#ArialMT-65" transform="translate(500.146484 0.765625)"/>
      <use xlink:href="#ArialMT-73" transform="translate(555.761719 0.765625)"/>
      <use xlink:href="#ArialMT-69" transform="translate(605.761719 0.765625)"/>
      <use xlink:href="#ArialMT-64" transform="translate(627.978516 0.765625)"/>
      <use xlink:href="#ArialMT-75" transform="translate(683.59375 0.765625)"/>
      <use xlink:href="#ArialMT-61" transform="translate(739.208984 0.765625)"/>
      <use xlink:href="#ArialMT-6c" transform="translate(794.824219 0.765625)"/>
      <use xlink:href="#ArialMT-73" transform="translate(817.041016 0.765625)"/>
      <use xlink:href="#ArialMT-20" transform="translate(867.041016 0.765625)"/>
      <use xlink:href="#ArialMT-5b" transform="translate(894.824219 0.765625)"/>
      <use xlink:href="#ArialMT-6d" transform="translate(922.607422 0.765625)"/>
      <use xlink:href="#ArialMT-6d" transform="translate(1005.908203 0.765625)"/>
      <use xlink:href="#DejaVuSans-33" transform="translate(1090.166016 39.046875) scale(0.7)"/>
      <use xlink:href="#ArialMT-5d" transform="translate(1137.436523 0.765625)"/>
     </g>
    </g>
   </g>
   <g id="PolyCollection_1">
    <defs>
     <path id="mbd0704163d" d="M 103.325623 -36.839844 
L 103.23236 -36.839844 
L 103.194395 -38.477055 
L 103.134066 -40.114266 
L 103.043596 -41.751477 
L 102.914821 -43.388688 
L 102.739748 -45.025899 
L 102.511053 -46.66311 
L 102.222701 -48.300321 
L 101.870976 -49.937532 
L 101.455919 -51.574743 
L 100.982568 -53.211954 
L 100.460823 -54.849165 
L 99.902829 -56.486376 
L 99.317818 -58.123587 
L 98.705939 -59.760798 
L 98.053721 -61.398009 
L 97.333553 -63.03522 
L 96.507878 -64.672431 
L 95.536488 -66.309642 
L 94.383919 -67.946853 
L 93.024328 -69.584064 
L 91.443356 -71.221275 
L 89.638867 -72.858486 
L 87.623346 -74.495697 
L 85.429055 -76.132908 
L 83.11366 -77.770119 
L 80.761325 -79.40733 
L 78.474819 -81.044541 
L 76.358486 -82.681752 
L 74.497567 -84.318964 
L 72.942492 -85.956175 
L 71.704959 -87.593386 
L 70.766798 -89.230597 
L 70.096515 -90.867808 
L 69.665873 -92.505019 
L 69.46081 -94.14223 
L 69.485262 -95.779441 
L 69.759493 -97.416652 
L 70.314615 -99.053863 
L 71.183388 -100.691074 
L 72.387093 -102.328285 
L 73.920857 -103.965496 
L 75.743432 -105.602707 
L 77.778082 -107.239918 
L 79.926748 -108.877129 
L 82.092088 -110.51434 
L 84.196863 -112.151551 
L 86.19164 -113.788762 
L 88.049227 -115.425973 
L 89.752365 -117.063184 
L 91.284286 -118.700395 
L 92.628192 -120.337606 
L 93.774699 -121.974817 
L 94.730809 -123.612028 
L 95.523405 -125.249239 
L 96.194088 -126.88645 
L 96.787473 -128.523661 
L 97.338496 -130.160872 
L 97.864297 -131.798083 
L 98.36346 -133.435294 
L 98.821662 -135.072505 
L 99.220359 -136.709716 
L 99.544712 -138.346927 
L 99.788461 -139.984138 
L 99.955485 -141.621349 
L 100.05916 -143.25856 
L 100.120722 -144.895771 
L 100.166961 -146.532983 
L 100.226764 -148.170194 
L 100.326181 -149.807405 
L 100.482762 -151.444616 
L 100.701073 -153.081827 
L 100.971383 -154.719038 
L 101.272325 -156.356249 
L 101.576546 -157.99346 
L 101.857246 -159.630671 
L 102.093537 -161.267882 
L 102.273547 -162.905093 
L 102.39513 -164.542304 
L 102.464616 -166.179515 
L 102.494088 -167.816726 
L 102.497791 -169.453937 
L 102.488567 -171.091148 
L 102.475465 -172.728359 
L 102.46336 -174.36557 
L 102.454563 -176.002781 
L 102.45129 -177.639992 
L 102.457411 -179.277203 
L 102.47836 -180.914414 
L 102.519305 -182.551625 
L 102.5827 -184.188836 
L 102.666646 -185.826047 
L 102.764915 -187.463258 
L 102.868545 -189.100469 
L 102.968193 -190.73768 
L 103.056277 -192.374891 
L 103.128246 -194.012102 
L 103.182785 -195.649313 
L 103.221198 -197.286524 
L 103.246367 -198.923735 
L 103.311616 -198.923735 
L 103.311616 -198.923735 
L 103.336785 -197.286524 
L 103.375198 -195.649313 
L 103.429737 -194.012102 
L 103.501706 -192.374891 
L 103.58979 -190.73768 
L 103.689438 -189.100469 
L 103.793068 -187.463258 
L 103.891337 -185.826047 
L 103.975283 -184.188836 
L 104.038678 -182.551625 
L 104.079623 -180.914414 
L 104.100572 -179.277203 
L 104.106693 -177.639992 
L 104.10342 -176.002781 
L 104.094623 -174.36557 
L 104.082518 -172.728359 
L 104.069416 -171.091148 
L 104.060192 -169.453937 
L 104.063895 -167.816726 
L 104.093367 -166.179515 
L 104.162853 -164.542304 
L 104.284436 -162.905093 
L 104.464446 -161.267882 
L 104.700737 -159.630671 
L 104.981437 -157.99346 
L 105.285658 -156.356249 
L 105.5866 -154.719038 
L 105.85691 -153.081827 
L 106.075221 -151.444616 
L 106.231802 -149.807405 
L 106.331219 -148.170194 
L 106.391022 -146.532983 
L 106.437261 -144.895771 
L 106.498823 -143.25856 
L 106.602498 -141.621349 
L 106.769522 -139.984138 
L 107.013271 -138.346927 
L 107.337624 -136.709716 
L 107.736321 -135.072505 
L 108.194523 -133.435294 
L 108.693685 -131.798083 
L 109.219487 -130.160872 
L 109.77051 -128.523661 
L 110.363895 -126.88645 
L 111.034578 -125.249239 
L 111.827174 -123.612028 
L 112.783284 -121.974817 
L 113.929791 -120.337606 
L 115.273697 -118.700395 
L 116.805617 -117.063184 
L 118.508756 -115.425973 
L 120.366343 -113.788762 
L 122.36112 -112.151551 
L 124.465895 -110.51434 
L 126.631235 -108.877129 
L 128.779901 -107.239918 
L 130.814551 -105.602707 
L 132.637126 -103.965496 
L 134.17089 -102.328285 
L 135.374595 -100.691074 
L 136.243368 -99.053863 
L 136.79849 -97.416652 
L 137.072721 -95.779441 
L 137.097173 -94.14223 
L 136.89211 -92.505019 
L 136.461468 -90.867808 
L 135.791185 -89.230597 
L 134.853024 -87.593386 
L 133.615491 -85.956175 
L 132.060416 -84.318964 
L 130.199497 -82.681752 
L 128.083164 -81.044541 
L 125.796658 -79.40733 
L 123.444323 -77.770119 
L 121.128928 -76.132908 
L 118.934637 -74.495697 
L 116.919116 -72.858486 
L 115.114627 -71.221275 
L 113.533655 -69.584064 
L 112.174064 -67.946853 
L 111.021495 -66.309642 
L 110.050105 -64.672431 
L 109.22443 -63.03522 
L 108.504262 -61.398009 
L 107.852044 -59.760798 
L 107.240165 -58.123587 
L 106.655154 -56.486376 
L 106.09716 -54.849165 
L 105.575415 -53.211954 
L 105.102064 -51.574743 
L 104.687007 -49.937532 
L 104.335282 -48.300321 
L 104.04693 -46.66311 
L 103.818235 -45.025899 
L 103.643162 -43.388688 
L 103.514387 -41.751477 
L 103.423917 -40.114266 
L 103.363588 -38.477055 
L 103.325623 -36.839844 
z
" style="stroke: #4c4c4c; stroke-width: 0.5"/>
    </defs>
    <g clip-path="url(#p7233ab72f7)">
     <use xlink:href="#mbd0704163d" x="0" y="255.719844" style="fill: #5573cd; stroke: #4c4c4c; stroke-width: 0.5"/>
    </g>
   </g>
   <g id="PolyCollection_2">
    <defs>
     <path id="m5d4ed761c2" d="M 187.977681 -49.604999 
L 187.671211 -49.604999 
L 187.572799 -51.512422 
L 187.431052 -53.419844 
L 187.237825 -55.327267 
L 186.987662 -57.23469 
L 186.678207 -59.142112 
L 186.30888 -61.049535 
L 185.877533 -62.956958 
L 185.375717 -64.86438 
L 184.784105 -66.771803 
L 184.070184 -68.679226 
L 183.189911 -70.586648 
L 182.093863 -72.494071 
L 180.736668 -74.401494 
L 179.087264 -76.308916 
L 177.137177 -78.216339 
L 174.904889 -80.123762 
L 172.435906 -82.031184 
L 169.7995 -83.938607 
L 167.083652 -85.84603 
L 164.389333 -87.753452 
L 161.824285 -89.660875 
L 159.495809 -91.568298 
L 157.502095 -93.47572 
L 155.922467 -95.383143 
L 154.808157 -97.290566 
L 154.175883 -99.197989 
L 154.006264 -101.105411 
L 154.247748 -103.012834 
L 154.824973 -104.920257 
L 155.64935 -106.827679 
L 156.629657 -108.735102 
L 157.681555 -110.642525 
L 158.736044 -112.549947 
L 159.747157 -114.45737 
L 160.698192 -116.364793 
L 161.604519 -118.272215 
L 162.510556 -120.179638 
L 163.479788 -122.087061 
L 164.579161 -123.994483 
L 165.861634 -125.901906 
L 167.351611 -127.809329 
L 169.037079 -129.716751 
L 170.870005 -131.624174 
L 172.774124 -133.531597 
L 174.657704 -135.439019 
L 176.428392 -137.346442 
L 178.007569 -139.253865 
L 179.342124 -141.161287 
L 180.411962 -143.06871 
L 181.231843 -144.976133 
L 181.846867 -146.883555 
L 182.322124 -148.790978 
L 182.728591 -150.698401 
L 183.128603 -152.605823 
L 183.56454 -154.513246 
L 184.053408 -156.420669 
L 184.588095 -158.328091 
L 185.144043 -160.235514 
L 185.688667 -162.142937 
L 186.190535 -164.050359 
L 186.626053 -165.957782 
L 186.982639 -167.865205 
L 187.258608 -169.772627 
L 187.460785 -171.68005 
L 187.601147 -173.587473 
L 187.693553 -175.494895 
L 187.75126 -177.402318 
L 187.785446 -179.309741 
L 187.804654 -181.217164 
L 187.814886 -183.124586 
L 187.820046 -185.032009 
L 187.822494 -186.939432 
L 187.823547 -188.846854 
L 187.823856 -190.754277 
L 187.823639 -192.6617 
L 187.822786 -194.569122 
L 187.820848 -196.476545 
L 187.816941 -198.383968 
L 187.80961 -200.29139 
L 187.796716 -202.198813 
L 187.775458 -204.106236 
L 187.742651 -206.013658 
L 187.695369 -207.921081 
L 187.631935 -209.828504 
L 187.553084 -211.735926 
L 187.46293 -213.643349 
L 187.369257 -215.550772 
L 187.282766 -217.458194 
L 187.21522 -219.365617 
L 187.176855 -221.27304 
L 187.173854 -223.180462 
L 187.206711 -225.087885 
L 187.270098 -226.995308 
L 187.354284 -228.90273 
L 187.44757 -230.810153 
L 187.538926 -232.717576 
L 187.620009 -234.624998 
L 187.6861 -236.532421 
L 187.735963 -238.439844 
L 187.91293 -238.439844 
L 187.91293 -238.439844 
L 187.962792 -236.532421 
L 188.028883 -234.624998 
L 188.109966 -232.717576 
L 188.201322 -230.810153 
L 188.294608 -228.90273 
L 188.378794 -226.995308 
L 188.442182 -225.087885 
L 188.475038 -223.180462 
L 188.472037 -221.27304 
L 188.433672 -219.365617 
L 188.366126 -217.458194 
L 188.279635 -215.550772 
L 188.185962 -213.643349 
L 188.095808 -211.735926 
L 188.016957 -209.828504 
L 187.953523 -207.921081 
L 187.906241 -206.013658 
L 187.873434 -204.106236 
L 187.852176 -202.198813 
L 187.839282 -200.29139 
L 187.831951 -198.383968 
L 187.828044 -196.476545 
L 187.826106 -194.569122 
L 187.825253 -192.6617 
L 187.825036 -190.754277 
L 187.825345 -188.846854 
L 187.826398 -186.939432 
L 187.828846 -185.032009 
L 187.834006 -183.124586 
L 187.844238 -181.217164 
L 187.863446 -179.309741 
L 187.897632 -177.402318 
L 187.955339 -175.494895 
L 188.047745 -173.587473 
L 188.188107 -171.68005 
L 188.390284 -169.772627 
L 188.666253 -167.865205 
L 189.022839 -165.957782 
L 189.458357 -164.050359 
L 189.960225 -162.142937 
L 190.504849 -160.235514 
L 191.060797 -158.328091 
L 191.595484 -156.420669 
L 192.084352 -154.513246 
L 192.520289 -152.605823 
L 192.920301 -150.698401 
L 193.326768 -148.790978 
L 193.802025 -146.883555 
L 194.417049 -144.976133 
L 195.23693 -143.06871 
L 196.306768 -141.161287 
L 197.641323 -139.253865 
L 199.2205 -137.346442 
L 200.991188 -135.439019 
L 202.874768 -133.531597 
L 204.778887 -131.624174 
L 206.611813 -129.716751 
L 208.297281 -127.809329 
L 209.787258 -125.901906 
L 211.069731 -123.994483 
L 212.169104 -122.087061 
L 213.138336 -120.179638 
L 214.044373 -118.272215 
L 214.9507 -116.364793 
L 215.901735 -114.45737 
L 216.912848 -112.549947 
L 217.967337 -110.642525 
L 219.019235 -108.735102 
L 219.999542 -106.827679 
L 220.823919 -104.920257 
L 221.401145 -103.012834 
L 221.642628 -101.105411 
L 221.473009 -99.197989 
L 220.840735 -97.290566 
L 219.726425 -95.383143 
L 218.146798 -93.47572 
L 216.153083 -91.568298 
L 213.824607 -89.660875 
L 211.259559 -87.753452 
L 208.56524 -85.84603 
L 205.849392 -83.938607 
L 203.212986 -82.031184 
L 200.744003 -80.123762 
L 198.511715 -78.216339 
L 196.561628 -76.308916 
L 194.912224 -74.401494 
L 193.555029 -72.494071 
L 192.458981 -70.586648 
L 191.578708 -68.679226 
L 190.864787 -66.771803 
L 190.273175 -64.86438 
L 189.771359 -62.956958 
L 189.340012 -61.049535 
L 188.970685 -59.142112 
L 188.66123 -57.23469 
L 188.411067 -55.327267 
L 188.21784 -53.419844 
L 188.076093 -51.512422 
L 187.977681 -49.604999 
z
" style="stroke: #4c4c4c; stroke-width: 0.5"/>
    </defs>
    <g clip-path="url(#p7233ab72f7)">
     <use xlink:href="#m5d4ed761c2" x="0" y="255.719844" style="fill: #df8920; stroke: #4c4c4c; stroke-width: 0.5"/>
    </g>
   </g>
   <g id="line2d_1">
    <path d="M 103.278991 202.575409 
L 103.278991 115.302107 
" clip-path="url(#p7233ab72f7)" style="fill: none; stroke: #4c4c4c; stroke-width: 0.75; stroke-linecap: round"/>
   </g>
   <g id="line2d_2">
    <path d="M 103.278991 171.075346 
L 103.278991 148.51778 
" clip-path="url(#p7233ab72f7)" style="fill: none; stroke: #4c4c4c; stroke-width: 2.25; stroke-linecap: round"/>
   </g>
   <g id="line2d_3">
    <path d="M 103.278991 159.537986 
" clip-path="url(#p7233ab72f7)" style="fill: none; stroke: #4c4c4c; stroke-width: 1.5; stroke-linecap: round"/>
    <defs>
     <path id="m29333d80ba" d="M 0.9375 0 
L -0.9375 -0 
" style="stroke: #ffffff; stroke-width: 0.45"/>
    </defs>
    <g clip-path="url(#p7233ab72f7)">
     <use xlink:href="#m29333d80ba" x="103.278991" y="159.537986" style="fill: #ffffff; stroke: #ffffff; stroke-width: 0.45"/>
    </g>
   </g>
   <g id="line2d_4">
    <path d="M 187.824446 190.057989 
L 187.824446 96.663764 
" clip-path="url(#p7233ab72f7)" style="fill: none; stroke: #4c4c4c; stroke-width: 0.75; stroke-linecap: round"/>
   </g>
   <g id="line2d_5">
    <path d="M 187.824446 160.010085 
L 187.824446 133.783951 
" clip-path="url(#p7233ab72f7)" style="fill: none; stroke: #4c4c4c; stroke-width: 2.25; stroke-linecap: round"/>
   </g>
   <g id="line2d_6">
    <path d="M 187.824446 149.205032 
" clip-path="url(#p7233ab72f7)" style="fill: none; stroke: #4c4c4c; stroke-width: 1.5; stroke-linecap: round"/>
    <g clip-path="url(#p7233ab72f7)">
     <use xlink:href="#m29333d80ba" x="187.824446" y="149.205032" style="fill: #ffffff; stroke: #ffffff; stroke-width: 0.45"/>
    </g>
   </g>
   <g id="line2d_7">
    <path d="M 103.278991 83.358164 
L 103.278991 78.922964 
L 187.824446 78.922964 
L 187.824446 83.358164 
" style="fill: none; stroke: #333333; stroke-width: 0.5; stroke-linecap: round"/>
   </g>
   <g id="patch_3">
    <path d="M 61.851719 228.96 
L 61.851719 7.2 
" style="fill: none; stroke: #262626; stroke-width: 1.25; stroke-linejoin: miter; stroke-linecap: square"/>
   </g>
   <g id="patch_4">
    <path d="M 61.851719 228.96 
L 229.251719 228.96 
" style="fill: none; stroke: #262626; stroke-width: 1.25; stroke-linejoin: miter; stroke-linecap: square"/>
   </g>
   <g id="text_12">
    <!-- **** -->
    <g style="fill: #262626" transform="translate(136.210469 75.537964) scale(0.12 -0.12)">
     <defs>
      <path id="ArialMT-2a" d="M 200 3741 
L 344 4184 
Q 841 4009 1066 3881 
Q 1006 4447 1003 4659 
L 1456 4659 
Q 1447 4350 1384 3884 
Q 1706 4047 2122 4184 
L 2266 3741 
Q 1869 3609 1488 3566 
Q 1678 3400 2025 2975 
L 1650 2709 
Q 1469 2956 1222 3381 
Q 991 2941 816 2709 
L 447 2975 
Q 809 3422 966 3566 
Q 563 3644 200 3741 
z
" transform="scale(0.015625)"/>
     </defs>
     <use xlink:href="#ArialMT-2a"/>
     <use xlink:href="#ArialMT-2a" x="38.916016"/>
     <use xlink:href="#ArialMT-2a" x="77.832031"/>
     <use xlink:href="#ArialMT-2a" x="116.748047"/>
    </g>
   </g>
  </g>
 </g>
 <defs>
  <clipPath id="p7233ab72f7">
   <rect x="61.851719" y="7.2" width="167.4" height="221.76"/>
  </clipPath>
 </defs>
</svg>
