<?xml version="1.0" encoding="utf-8" standalone="no"?>
<!DOCTYPE svg PUBLIC "-//W3C//DTD SVG 1.1//EN"
  "http://www.w3.org/Graphics/SVG/1.1/DTD/svg11.dtd">
<svg xmlns:xlink="http://www.w3.org/1999/xlink" width="245.322187pt" height="255.719844pt" viewBox="0 0 245.322187 255.719844" xmlns="http://www.w3.org/2000/svg" version="1.1">
 <metadata>
  <rdf:RDF xmlns:dc="http://purl.org/dc/elements/1.1/" xmlns:cc="http://creativecommons.org/ns#" xmlns:rdf="http://www.w3.org/1999/02/22-rdf-syntax-ns#">
   <cc:Work>
    <dc:type rdf:resource="http://purl.org/dc/dcmitype/StillImage"/>
    <dc:date>2025-05-20T11:32:35.424132</dc:date>
    <dc:format>image/svg+xml</dc:format>
    <dc:creator>
     <cc:Agent>
      <dc:title>Matplotlib v3.9.2, https://matplotlib.org/</dc:title>
     </cc:Agent>
    </dc:creator>
   </cc:Work>
  </rdf:RDF>
 </metadata>
 <defs>
  <style type="text/css">*{stroke-linejoin: round; stroke-linecap: butt}</style>
 </defs>
 <g id="figure_1">
  <g id="patch_1">
   <path d="M -0 255.719844 
L 245.322188 255.719844 
L 245.322188 0 
L -0 0 
z
" style="fill: #ffffff"/>
  </g>
  <g id="axes_1">
   <g id="patch_2">
    <path d="M 70.722188 228.96 
L 238.122188 228.96 
L 238.122188 7.2 
L 70.722188 7.2 
z
" style="fill: #ffffff"/>
   </g>
   <g id="matplotlib.axis_1">
    <g id="xtick_1">
     <g id="text_1">
      <!-- Term -->
      <g style="fill: #262626" transform="translate(99.930866 246.333594) scale(0.11 -0.11)">
       <defs>
        <path id="ArialMT-54" d="M 1659 0 
L 1659 4041 
L 150 4041 
L 150 4581 
L 3781 4581 
L 3781 4041 
L 2266 4041 
L 2266 0 
L 1659 0 
z
" transform="scale(0.015625)"/>
        <path id="ArialMT-65" d="M 2694 1069 
L 3275 997 
Q 3138 488 2766 206 
Q 2394 -75 1816 -75 
Q 1088 -75 661 373 
Q 234 822 234 1631 
Q 234 2469 665 2931 
Q 1097 3394 1784 3394 
Q 2450 3394 2872 2941 
Q 3294 2488 3294 1666 
Q 3294 1616 3291 1516 
L 816 1516 
Q 847 969 1125 678 
Q 1403 388 1819 388 
Q 2128 388 2347 550 
Q 2566 713 2694 1069 
z
M 847 1978 
L 2700 1978 
Q 2663 2397 2488 2606 
Q 2219 2931 1791 2931 
Q 1403 2931 1139 2672 
Q 875 2413 847 1978 
z
" transform="scale(0.015625)"/>
        <path id="ArialMT-72" d="M 416 0 
L 416 3319 
L 922 3319 
L 922 2816 
Q 1116 3169 1280 3281 
Q 1444 3394 1641 3394 
Q 1925 3394 2219 3213 
L 2025 2691 
Q 1819 2813 1613 2813 
Q 1428 2813 1281 2702 
Q 1134 2591 1072 2394 
Q 978 2094 978 1738 
L 978 0 
L 416 0 
z
" transform="scale(0.015625)"/>
        <path id="ArialMT-6d" d="M 422 0 
L 422 3319 
L 925 3319 
L 925 2853 
Q 1081 3097 1340 3245 
Q 1600 3394 1931 3394 
Q 2300 3394 2536 3241 
Q 2772 3088 2869 2813 
Q 3263 3394 3894 3394 
Q 4388 3394 4653 3120 
Q 4919 2847 4919 2278 
L 4919 0 
L 4359 0 
L 4359 2091 
Q 4359 2428 4304 2576 
Q 4250 2725 4106 2815 
Q 3963 2906 3769 2906 
Q 3419 2906 3187 2673 
Q 2956 2441 2956 1928 
L 2956 0 
L 2394 0 
L 2394 2156 
Q 2394 2531 2256 2718 
Q 2119 2906 1806 2906 
Q 1569 2906 1367 2781 
Q 1166 2656 1075 2415 
Q 984 2175 984 1722 
L 984 0 
L 422 0 
z
" transform="scale(0.015625)"/>
       </defs>
       <use xlink:href="#ArialMT-54"/>
       <use xlink:href="#ArialMT-65" x="49.958984"/>
       <use xlink:href="#ArialMT-72" x="105.574219"/>
       <use xlink:href="#ArialMT-6d" x="138.875"/>
      </g>
     </g>
    </g>
    <g id="xtick_2">
     <g id="text_2">
      <!-- Preterm -->
      <g style="fill: #262626" transform="translate(177.137259 246.333594) scale(0.11 -0.11)">
       <defs>
        <path id="ArialMT-50" d="M 494 0 
L 494 4581 
L 2222 4581 
Q 2678 4581 2919 4538 
Q 3256 4481 3484 4323 
Q 3713 4166 3852 3881 
Q 3991 3597 3991 3256 
Q 3991 2672 3619 2267 
Q 3247 1863 2275 1863 
L 1100 1863 
L 1100 0 
L 494 0 
z
M 1100 2403 
L 2284 2403 
Q 2872 2403 3119 2622 
Q 3366 2841 3366 3238 
Q 3366 3525 3220 3729 
Q 3075 3934 2838 4000 
Q 2684 4041 2272 4041 
L 1100 4041 
L 1100 2403 
z
" transform="scale(0.015625)"/>
        <path id="ArialMT-74" d="M 1650 503 
L 1731 6 
Q 1494 -44 1306 -44 
Q 1000 -44 831 53 
Q 663 150 594 308 
Q 525 466 525 972 
L 525 2881 
L 113 2881 
L 113 3319 
L 525 3319 
L 525 4141 
L 1084 4478 
L 1084 3319 
L 1650 3319 
L 1650 2881 
L 1084 2881 
L 1084 941 
Q 1084 700 1114 631 
Q 1144 563 1211 522 
Q 1278 481 1403 481 
Q 1497 481 1650 503 
z
" transform="scale(0.015625)"/>
       </defs>
       <use xlink:href="#ArialMT-50"/>
       <use xlink:href="#ArialMT-72" x="66.699219"/>
       <use xlink:href="#ArialMT-65" x="100"/>
       <use xlink:href="#ArialMT-74" x="155.615234"/>
       <use xlink:href="#ArialMT-65" x="183.398438"/>
       <use xlink:href="#ArialMT-72" x="239.013672"/>
       <use xlink:href="#ArialMT-6d" x="272.314453"/>
      </g>
     </g>
    </g>
   </g>
   <g id="matplotlib.axis_2">
    <g id="ytick_1">
     <g id="text_3">
      <!-- 100000 -->
      <g style="fill: #262626" transform="translate(24.52 217.09894) scale(0.11 -0.11)">
       <defs>
        <path id="ArialMT-31" d="M 2384 0 
L 1822 0 
L 1822 3584 
Q 1619 3391 1289 3197 
Q 959 3003 697 2906 
L 697 3450 
Q 1169 3672 1522 3987 
Q 1875 4303 2022 4600 
L 2384 4600 
L 2384 0 
z
" transform="scale(0.015625)"/>
        <path id="ArialMT-30" d="M 266 2259 
Q 266 3072 433 3567 
Q 600 4063 929 4331 
Q 1259 4600 1759 4600 
Q 2128 4600 2406 4451 
Q 2684 4303 2865 4023 
Q 3047 3744 3150 3342 
Q 3253 2941 3253 2259 
Q 3253 1453 3087 958 
Q 2922 463 2592 192 
Q 2263 -78 1759 -78 
Q 1097 -78 719 397 
Q 266 969 266 2259 
z
M 844 2259 
Q 844 1131 1108 757 
Q 1372 384 1759 384 
Q 2147 384 2411 759 
Q 2675 1134 2675 2259 
Q 2675 3391 2411 3762 
Q 2147 4134 1753 4134 
Q 1366 4134 1134 3806 
Q 844 3388 844 2259 
z
" transform="scale(0.015625)"/>
       </defs>
       <use xlink:href="#ArialMT-31"/>
       <use xlink:href="#ArialMT-30" x="55.615234"/>
       <use xlink:href="#ArialMT-30" x="111.230469"/>
       <use xlink:href="#ArialMT-30" x="166.845703"/>
       <use xlink:href="#ArialMT-30" x="222.460938"/>
       <use xlink:href="#ArialMT-30" x="278.076172"/>
      </g>
     </g>
    </g>
    <g id="ytick_2">
     <g id="text_4">
      <!-- 120000 -->
      <g style="fill: #262626" transform="translate(24.52 189.973278) scale(0.11 -0.11)">
       <defs>
        <path id="ArialMT-32" d="M 3222 541 
L 3222 0 
L 194 0 
Q 188 203 259 391 
Q 375 700 629 1000 
Q 884 1300 1366 1694 
Q 2113 2306 2375 2664 
Q 2638 3022 2638 3341 
Q 2638 3675 2398 3904 
Q 2159 4134 1775 4134 
Q 1369 4134 1125 3890 
Q 881 3647 878 3216 
L 300 3275 
Q 359 3922 746 4261 
Q 1134 4600 1788 4600 
Q 2447 4600 2831 4234 
Q 3216 3869 3216 3328 
Q 3216 3053 3103 2787 
Q 2991 2522 2730 2228 
Q 2469 1934 1863 1422 
Q 1356 997 1212 845 
Q 1069 694 975 541 
L 3222 541 
z
" transform="scale(0.015625)"/>
       </defs>
       <use xlink:href="#ArialMT-31"/>
       <use xlink:href="#ArialMT-32" x="55.615234"/>
       <use xlink:href="#ArialMT-30" x="111.230469"/>
       <use xlink:href="#ArialMT-30" x="166.845703"/>
       <use xlink:href="#ArialMT-30" x="222.460938"/>
       <use xlink:href="#ArialMT-30" x="278.076172"/>
      </g>
     </g>
    </g>
    <g id="ytick_3">
     <g id="text_5">
      <!-- 140000 -->
      <g style="fill: #262626" transform="translate(24.52 162.847617) scale(0.11 -0.11)">
       <defs>
        <path id="ArialMT-34" d="M 2069 0 
L 2069 1097 
L 81 1097 
L 81 1613 
L 2172 4581 
L 2631 4581 
L 2631 1613 
L 3250 1613 
L 3250 1097 
L 2631 1097 
L 2631 0 
L 2069 0 
z
M 2069 1613 
L 2069 3678 
L 634 1613 
L 2069 1613 
z
" transform="scale(0.015625)"/>
       </defs>
       <use xlink:href="#ArialMT-31"/>
       <use xlink:href="#ArialMT-34" x="55.615234"/>
       <use xlink:href="#ArialMT-30" x="111.230469"/>
       <use xlink:href="#ArialMT-30" x="166.845703"/>
       <use xlink:href="#ArialMT-30" x="222.460938"/>
       <use xlink:href="#ArialMT-30" x="278.076172"/>
      </g>
     </g>
    </g>
    <g id="ytick_4">
     <g id="text_6">
      <!-- 160000 -->
      <g style="fill: #262626" transform="translate(24.52 135.721956) scale(0.11 -0.11)">
       <defs>
        <path id="ArialMT-36" d="M 3184 3459 
L 2625 3416 
Q 2550 3747 2413 3897 
Q 2184 4138 1850 4138 
Q 1581 4138 1378 3988 
Q 1113 3794 959 3422 
Q 806 3050 800 2363 
Q 1003 2672 1297 2822 
Q 1591 2972 1913 2972 
Q 2475 2972 2870 2558 
Q 3266 2144 3266 1488 
Q 3266 1056 3080 686 
Q 2894 316 2569 119 
Q 2244 -78 1831 -78 
Q 1128 -78 684 439 
Q 241 956 241 2144 
Q 241 3472 731 4075 
Q 1159 4600 1884 4600 
Q 2425 4600 2770 4297 
Q 3116 3994 3184 3459 
z
M 888 1484 
Q 888 1194 1011 928 
Q 1134 663 1356 523 
Q 1578 384 1822 384 
Q 2178 384 2434 671 
Q 2691 959 2691 1453 
Q 2691 1928 2437 2201 
Q 2184 2475 1800 2475 
Q 1419 2475 1153 2201 
Q 888 1928 888 1484 
z
" transform="scale(0.015625)"/>
       </defs>
       <use xlink:href="#ArialMT-31"/>
       <use xlink:href="#ArialMT-36" x="55.615234"/>
       <use xlink:href="#ArialMT-30" x="111.230469"/>
       <use xlink:href="#ArialMT-30" x="166.845703"/>
       <use xlink:href="#ArialMT-30" x="222.460938"/>
       <use xlink:href="#ArialMT-30" x="278.076172"/>
      </g>
     </g>
    </g>
    <g id="ytick_5">
     <g id="text_7">
      <!-- 180000 -->
      <g style="fill: #262626" transform="translate(24.52 108.596295) scale(0.11 -0.11)">
       <defs>
        <path id="ArialMT-38" d="M 1131 2484 
Q 781 2613 612 2850 
Q 444 3088 444 3419 
Q 444 3919 803 4259 
Q 1163 4600 1759 4600 
Q 2359 4600 2725 4251 
Q 3091 3903 3091 3403 
Q 3091 3084 2923 2848 
Q 2756 2613 2416 2484 
Q 2838 2347 3058 2040 
Q 3278 1734 3278 1309 
Q 3278 722 2862 322 
Q 2447 -78 1769 -78 
Q 1091 -78 675 323 
Q 259 725 259 1325 
Q 259 1772 486 2073 
Q 713 2375 1131 2484 
z
M 1019 3438 
Q 1019 3113 1228 2906 
Q 1438 2700 1772 2700 
Q 2097 2700 2305 2904 
Q 2513 3109 2513 3406 
Q 2513 3716 2298 3927 
Q 2084 4138 1766 4138 
Q 1444 4138 1231 3931 
Q 1019 3725 1019 3438 
z
M 838 1322 
Q 838 1081 952 856 
Q 1066 631 1291 507 
Q 1516 384 1775 384 
Q 2178 384 2440 643 
Q 2703 903 2703 1303 
Q 2703 1709 2433 1975 
Q 2163 2241 1756 2241 
Q 1359 2241 1098 1978 
Q 838 1716 838 1322 
z
" transform="scale(0.015625)"/>
       </defs>
       <use xlink:href="#ArialMT-31"/>
       <use xlink:href="#ArialMT-38" x="55.615234"/>
       <use xlink:href="#ArialMT-30" x="111.230469"/>
       <use xlink:href="#ArialMT-30" x="166.845703"/>
       <use xlink:href="#ArialMT-30" x="222.460938"/>
       <use xlink:href="#ArialMT-30" x="278.076172"/>
      </g>
     </g>
    </g>
    <g id="ytick_6">
     <g id="text_8">
      <!-- 200000 -->
      <g style="fill: #262626" transform="translate(24.52 81.470634) scale(0.11 -0.11)">
       <use xlink:href="#ArialMT-32"/>
       <use xlink:href="#ArialMT-30" x="55.615234"/>
       <use xlink:href="#ArialMT-30" x="111.230469"/>
       <use xlink:href="#ArialMT-30" x="166.845703"/>
       <use xlink:href="#ArialMT-30" x="222.460938"/>
       <use xlink:href="#ArialMT-30" x="278.076172"/>
      </g>
     </g>
    </g>
    <g id="ytick_7">
     <g id="text_9">
      <!-- 220000 -->
      <g style="fill: #262626" transform="translate(24.52 54.344973) scale(0.11 -0.11)">
       <use xlink:href="#ArialMT-32"/>
       <use xlink:href="#ArialMT-32" x="55.615234"/>
       <use xlink:href="#ArialMT-30" x="111.230469"/>
       <use xlink:href="#ArialMT-30" x="166.845703"/>
       <use xlink:href="#ArialMT-30" x="222.460938"/>
       <use xlink:href="#ArialMT-30" x="278.076172"/>
      </g>
     </g>
    </g>
    <g id="ytick_8">
     <g id="text_10">
      <!-- 240000 -->
      <g style="fill: #262626" transform="translate(24.52 27.219311) scale(0.11 -0.11)">
       <use xlink:href="#ArialMT-32"/>
       <use xlink:href="#ArialMT-34" x="55.615234"/>
       <use xlink:href="#ArialMT-30" x="111.230469"/>
       <use xlink:href="#ArialMT-30" x="166.845703"/>
       <use xlink:href="#ArialMT-30" x="222.460938"/>
       <use xlink:href="#ArialMT-30" x="278.076172"/>
      </g>
     </g>
    </g>
    <g id="text_11">
     <!-- WMV [mm$^3$] -->
     <g style="fill: #262626" transform="translate(18.12 150.66) rotate(-90) scale(0.12 -0.12)">
      <defs>
       <path id="ArialMT-57" d="M 1294 0 
L 78 4581 
L 700 4581 
L 1397 1578 
Q 1509 1106 1591 641 
Q 1766 1375 1797 1488 
L 2669 4581 
L 3400 4581 
L 4056 2263 
Q 4303 1400 4413 641 
Q 4500 1075 4641 1638 
L 5359 4581 
L 5969 4581 
L 4713 0 
L 4128 0 
L 3163 3491 
Q 3041 3928 3019 4028 
Q 2947 3713 2884 3491 
L 1913 0 
L 1294 0 
z
" transform="scale(0.015625)"/>
       <path id="ArialMT-4d" d="M 475 0 
L 475 4581 
L 1388 4581 
L 2472 1338 
Q 2622 884 2691 659 
Q 2769 909 2934 1394 
L 4031 4581 
L 4847 4581 
L 4847 0 
L 4263 0 
L 4263 3834 
L 2931 0 
L 2384 0 
L 1059 3900 
L 1059 0 
L 475 0 
z
" transform="scale(0.015625)"/>
       <path id="ArialMT-56" d="M 1803 0 
L 28 4581 
L 684 4581 
L 1875 1253 
Q 2019 853 2116 503 
Q 2222 878 2363 1253 
L 3600 4581 
L 4219 4581 
L 2425 0 
L 1803 0 
z
" transform="scale(0.015625)"/>
       <path id="ArialMT-20" transform="scale(0.015625)"/>
       <path id="ArialMT-5b" d="M 434 -1272 
L 434 4581 
L 1675 4581 
L 1675 4116 
L 997 4116 
L 997 -806 
L 1675 -806 
L 1675 -1272 
L 434 -1272 
z
" transform="scale(0.015625)"/>
       <path id="DejaVuSans-33" d="M 2597 2516 
Q 3050 2419 3304 2112 
Q 3559 1806 3559 1356 
Q 3559 666 3084 287 
Q 2609 -91 1734 -91 
Q 1441 -91 1130 -33 
Q 819 25 488 141 
L 488 750 
Q 750 597 1062 519 
Q 1375 441 1716 441 
Q 2309 441 2620 675 
Q 2931 909 2931 1356 
Q 2931 1769 2642 2001 
Q 2353 2234 1838 2234 
L 1294 2234 
L 1294 2753 
L 1863 2753 
Q 2328 2753 2575 2939 
Q 2822 3125 2822 3475 
Q 2822 3834 2567 4026 
Q 2313 4219 1838 4219 
Q 1578 4219 1281 4162 
Q 984 4106 628 3988 
L 628 4550 
Q 988 4650 1302 4700 
Q 1616 4750 1894 4750 
Q 2613 4750 3031 4423 
Q 3450 4097 3450 3541 
Q 3450 3153 3228 2886 
Q 3006 2619 2597 2516 
z
" transform="scale(0.015625)"/>
       <path id="ArialMT-5d" d="M 1363 -1272 
L 122 -1272 
L 122 -806 
L 800 -806 
L 800 4116 
L 122 4116 
L 122 4581 
L 1363 4581 
L 1363 -1272 
z
" transform="scale(0.015625)"/>
      </defs>
      <use xlink:href="#ArialMT-57" transform="translate(0 0.765625)"/>
      <use xlink:href="#ArialMT-4d" transform="translate(94.384766 0.765625)"/>
      <use xlink:href="#ArialMT-56" transform="translate(177.685547 0.765625)"/>
      <use xlink:href="#ArialMT-20" transform="translate(244.384766 0.765625)"/>
      <use xlink:href="#ArialMT-5b" transform="translate(272.167969 0.765625)"/>
      <use xlink:href="#ArialMT-6d" transform="translate(299.951172 0.765625)"/>
      <use xlink:href="#ArialMT-6d" transform="translate(383.251953 0.765625)"/>
      <use xlink:href="#DejaVuSans-33" transform="translate(467.509766 39.046875) scale(0.7)"/>
      <use xlink:href="#ArialMT-5d" transform="translate(514.780273 0.765625)"/>
     </g>
    </g>
   </g>
   <g id="PolyCollection_1">
    <defs>
     <path id="mf32284fedc" d="M 112.194617 -36.742366 
L 112.104304 -36.742366 
L 112.079259 -38.759037 
L 112.045898 -40.775708 
L 112.004347 -42.792379 
L 111.956037 -44.80905 
L 111.903653 -46.825721 
L 111.850607 -48.842392 
L 111.800082 -50.859063 
L 111.75391 -52.875734 
L 111.711683 -54.892405 
L 111.670474 -56.909076 
L 111.625328 -58.925747 
L 111.570319 -60.942418 
L 111.499634 -62.959089 
L 111.408104 -64.97576 
L 111.290762 -66.992432 
L 111.141562 -69.009103 
L 110.951863 -71.025774 
L 110.709593 -73.042445 
L 110.399867 -75.059116 
L 110.007253 -77.075787 
L 109.519144 -79.092458 
L 108.929073 -81.109129 
L 108.238609 -83.1258 
L 107.456899 -85.142471 
L 106.597682 -87.159142 
L 105.674562 -89.175813 
L 104.696038 -91.192484 
L 103.662004 -93.209155 
L 102.563085 -95.225827 
L 101.383411 -97.242498 
L 100.106348 -99.259169 
L 98.721776 -101.27584 
L 97.232842 -103.292511 
L 95.660042 -105.309182 
L 94.040991 -107.325853 
L 92.425384 -109.342524 
L 90.865989 -111.359195 
L 89.407849 -113.375866 
L 88.078638 -115.392537 
L 86.883023 -117.409208 
L 85.802944 -119.425879 
L 84.804018 -121.44255 
L 83.846541 -123.459221 
L 82.898186 -125.475893 
L 81.945207 -127.492564 
L 80.999471 -129.509235 
L 80.099929 -131.525906 
L 79.308382 -133.542577 
L 78.700414 -135.559248 
L 78.353058 -137.575919 
L 78.331278 -139.59259 
L 78.675741 -141.609261 
L 79.394565 -143.625932 
L 80.461188 -145.642603 
L 81.819197 -147.659274 
L 83.393045 -149.675945 
L 85.101772 -151.692616 
L 86.871966 -153.709287 
L 88.646637 -155.725959 
L 90.38825 -157.74263 
L 92.076231 -159.759301 
L 93.700895 -161.775972 
L 95.256502 -163.792643 
L 96.735833 -165.809314 
L 98.127709 -167.825985 
L 99.417677 -169.842656 
L 100.591049 -171.859327 
L 101.636941 -173.875998 
L 102.551794 -175.892669 
L 103.341211 -177.90934 
L 104.019539 -179.926011 
L 104.607366 -181.942682 
L 105.127694 -183.959354 
L 105.601899 -185.976025 
L 106.046505 -187.992696 
L 106.471473 -190.009367 
L 106.880205 -192.026038 
L 107.27103 -194.042709 
L 107.639614 -196.05938 
L 107.981626 -198.076051 
L 108.294994 -200.092722 
L 108.581237 -202.109393 
L 108.845614 -204.126064 
L 109.096117 -206.142735 
L 109.341677 -208.159406 
L 109.590109 -210.176077 
L 109.846386 -212.192748 
L 110.111637 -214.20942 
L 110.38304 -216.226091 
L 110.654525 -218.242762 
L 110.918015 -220.259433 
L 111.164902 -222.276104 
L 111.387465 -224.292775 
L 111.579993 -226.309446 
L 111.739466 -228.326117 
L 111.86571 -230.342788 
L 111.961058 -232.359459 
L 112.029664 -234.37613 
L 112.076628 -236.392801 
L 112.222293 -236.392801 
L 112.222293 -236.392801 
L 112.269257 -234.37613 
L 112.337862 -232.359459 
L 112.433211 -230.342788 
L 112.559454 -228.326117 
L 112.718927 -226.309446 
L 112.911456 -224.292775 
L 113.134018 -222.276104 
L 113.380906 -220.259433 
L 113.644396 -218.242762 
L 113.915881 -216.226091 
L 114.187284 -214.20942 
L 114.452534 -212.192748 
L 114.708812 -210.176077 
L 114.957244 -208.159406 
L 115.202803 -206.142735 
L 115.453306 -204.126064 
L 115.717683 -202.109393 
L 116.003927 -200.092722 
L 116.317294 -198.076051 
L 116.659306 -196.05938 
L 117.02789 -194.042709 
L 117.418715 -192.026038 
L 117.827447 -190.009367 
L 118.252415 -187.992696 
L 118.697021 -185.976025 
L 119.171227 -183.959354 
L 119.691555 -181.942682 
L 120.279381 -179.926011 
L 120.957709 -177.90934 
L 121.747126 -175.892669 
L 122.661979 -173.875998 
L 123.707872 -171.859327 
L 124.881244 -169.842656 
L 126.171211 -167.825985 
L 127.563088 -165.809314 
L 129.042418 -163.792643 
L 130.598025 -161.775972 
L 132.22269 -159.759301 
L 133.91067 -157.74263 
L 135.652284 -155.725959 
L 137.426955 -153.709287 
L 139.197149 -151.692616 
L 140.905875 -149.675945 
L 142.479723 -147.659274 
L 143.837732 -145.642603 
L 144.904355 -143.625932 
L 145.623179 -141.609261 
L 145.967642 -139.59259 
L 145.945862 -137.575919 
L 145.598507 -135.559248 
L 144.990538 -133.542577 
L 144.198991 -131.525906 
L 143.29945 -129.509235 
L 142.353713 -127.492564 
L 141.400734 -125.475893 
L 140.45238 -123.459221 
L 139.494902 -121.44255 
L 138.495977 -119.425879 
L 137.415897 -117.409208 
L 136.220283 -115.392537 
L 134.891072 -113.375866 
L 133.432932 -111.359195 
L 131.873536 -109.342524 
L 130.257929 -107.325853 
L 128.638879 -105.309182 
L 127.066078 -103.292511 
L 125.577145 -101.27584 
L 124.192572 -99.259169 
L 122.915509 -97.242498 
L 121.735835 -95.225827 
L 120.636917 -93.209155 
L 119.602882 -91.192484 
L 118.624359 -89.175813 
L 117.701239 -87.159142 
L 116.842021 -85.142471 
L 116.060311 -83.1258 
L 115.369847 -81.109129 
L 114.779776 -79.092458 
L 114.291668 -77.075787 
L 113.899054 -75.059116 
L 113.589328 -73.042445 
L 113.347058 -71.025774 
L 113.157358 -69.009103 
L 113.008159 -66.992432 
L 112.890817 -64.97576 
L 112.799286 -62.959089 
L 112.728602 -60.942418 
L 112.673592 -58.925747 
L 112.628447 -56.909076 
L 112.587237 -54.892405 
L 112.54501 -52.875734 
L 112.498839 -50.859063 
L 112.448314 -48.842392 
L 112.395267 -46.825721 
L 112.342884 -44.80905 
L 112.294573 -42.792379 
L 112.253022 -40.775708 
L 112.219661 -38.759037 
L 112.194617 -36.742366 
z
" style="stroke: #4c4c4c; stroke-width: 0.5"/>
    </defs>
    <g clip-path="url(#p4bba91ebc6)">
     <use xlink:href="#mf32284fedc" x="0" y="255.719844" style="fill: #5573cd; stroke: #4c4c4c; stroke-width: 0.5"/>
    </g>
   </g>
   <g id="PolyCollection_2">
    <defs>
     <path id="m2f5dfb4f7c" d="M 196.964201 -59.771622 
L 196.425628 -59.771622 
L 196.327775 -61.527693 
L 196.205251 -63.283763 
L 196.055804 -65.039834 
L 195.878198 -66.795905 
L 195.672463 -68.551976 
L 195.439996 -70.308046 
L 195.183451 -72.064117 
L 194.906382 -73.820188 
L 194.612639 -75.576259 
L 194.305566 -77.332329 
L 193.987089 -79.0884 
L 193.656842 -80.844471 
L 193.311456 -82.600542 
L 192.944185 -84.356612 
L 192.544952 -86.112683 
L 192.100893 -87.868754 
L 191.597358 -89.624825 
L 191.019311 -91.380895 
L 190.352944 -93.136966 
L 189.587319 -94.893037 
L 188.715815 -96.649108 
L 187.737154 -98.405178 
L 186.655828 -100.161249 
L 185.481837 -101.91732 
L 184.229709 -103.673391 
L 182.916919 -105.429461 
L 181.561917 -107.185532 
L 180.182083 -108.941603 
L 178.791951 -110.697674 
L 177.402065 -112.453744 
L 176.018723 -114.209815 
L 174.644733 -115.965886 
L 173.281109 -117.721957 
L 171.929439 -119.478027 
L 170.594489 -121.234098 
L 169.286517 -122.990169 
L 168.022771 -124.74624 
L 166.827786 -126.50231 
L 165.732262 -128.258381 
L 164.770599 -130.014452 
L 163.977422 -131.770523 
L 163.38361 -133.526593 
L 163.012476 -135.282664 
L 162.876733 -137.038735 
L 162.976714 -138.794806 
L 163.300146 -140.550876 
L 163.823458 -142.306947 
L 164.514383 -144.063018 
L 165.335414 -145.819089 
L 166.247548 -147.575159 
L 167.21379 -149.33123 
L 168.201944 -151.087301 
L 169.186433 -152.843372 
L 170.149024 -154.599442 
L 171.078589 -156.355513 
L 171.970117 -158.111584 
L 172.823322 -159.867655 
L 173.641172 -161.623725 
L 174.428626 -163.379796 
L 175.191752 -165.135867 
L 175.937265 -166.891938 
L 176.672413 -168.648008 
L 177.405035 -170.404079 
L 178.143573 -172.16015 
L 178.896863 -173.916221 
L 179.673585 -175.672291 
L 180.48136 -177.428362 
L 181.325613 -179.184433 
L 182.208408 -180.940504 
L 183.127494 -182.696574 
L 184.075801 -184.452645 
L 185.041555 -186.208716 
L 186.009066 -187.964787 
L 186.960116 -189.720857 
L 187.875775 -191.476928 
L 188.738377 -193.232999 
L 189.533382 -194.98907 
L 190.250834 -196.74514 
L 190.886245 -198.501211 
L 191.440767 -200.257282 
L 191.92069 -202.013353 
L 192.336335 -203.769423 
L 192.700558 -205.525494 
L 193.027067 -207.281565 
L 193.328801 -209.037636 
L 193.616587 -210.793706 
L 193.898222 -212.549777 
L 194.178052 -214.305848 
L 194.457066 -216.061919 
L 194.733404 -217.817989 
L 195.003168 -219.57406 
L 195.261367 -221.330131 
L 195.502853 -223.086202 
L 195.723101 -224.842272 
L 195.918774 -226.598343 
L 196.088015 -228.354414 
L 196.230492 -230.110485 
L 196.347239 -231.866555 
L 196.440362 -233.622626 
L 196.949468 -233.622626 
L 196.949468 -233.622626 
L 197.042591 -231.866555 
L 197.159338 -230.110485 
L 197.301814 -228.354414 
L 197.471055 -226.598343 
L 197.666728 -224.842272 
L 197.886977 -223.086202 
L 198.128462 -221.330131 
L 198.386662 -219.57406 
L 198.656426 -217.817989 
L 198.932764 -216.061919 
L 199.211778 -214.305848 
L 199.491608 -212.549777 
L 199.773242 -210.793706 
L 200.061029 -209.037636 
L 200.362763 -207.281565 
L 200.689271 -205.525494 
L 201.053495 -203.769423 
L 201.46914 -202.013353 
L 201.949062 -200.257282 
L 202.503585 -198.501211 
L 203.138995 -196.74514 
L 203.856448 -194.98907 
L 204.651452 -193.232999 
L 205.514055 -191.476928 
L 206.429713 -189.720857 
L 207.380763 -187.964787 
L 208.348274 -186.208716 
L 209.314029 -184.452645 
L 210.262336 -182.696574 
L 211.181421 -180.940504 
L 212.064217 -179.184433 
L 212.90847 -177.428362 
L 213.716244 -175.672291 
L 214.492966 -173.916221 
L 215.246257 -172.16015 
L 215.984794 -170.404079 
L 216.717416 -168.648008 
L 217.452565 -166.891938 
L 218.198078 -165.135867 
L 218.961204 -163.379796 
L 219.748658 -161.623725 
L 220.566507 -159.867655 
L 221.419712 -158.111584 
L 222.311241 -156.355513 
L 223.240806 -154.599442 
L 224.203397 -152.843372 
L 225.187885 -151.087301 
L 226.17604 -149.33123 
L 227.142281 -147.575159 
L 228.054416 -145.819089 
L 228.875446 -144.063018 
L 229.566372 -142.306947 
L 230.089683 -140.550876 
L 230.413115 -138.794806 
L 230.513097 -137.038735 
L 230.377353 -135.282664 
L 230.00622 -133.526593 
L 229.412407 -131.770523 
L 228.619231 -130.014452 
L 227.657568 -128.258381 
L 226.562043 -126.50231 
L 225.367058 -124.74624 
L 224.103313 -122.990169 
L 222.79534 -121.234098 
L 221.460391 -119.478027 
L 220.108721 -117.721957 
L 218.745097 -115.965886 
L 217.371107 -114.209815 
L 215.987764 -112.453744 
L 214.597878 -110.697674 
L 213.207746 -108.941603 
L 211.827913 -107.185532 
L 210.472911 -105.429461 
L 209.16012 -103.673391 
L 207.907992 -101.91732 
L 206.734001 -100.161249 
L 205.652676 -98.405178 
L 204.674014 -96.649108 
L 203.802511 -94.893037 
L 203.036886 -93.136966 
L 202.370518 -91.380895 
L 201.792471 -89.624825 
L 201.288937 -87.868754 
L 200.844877 -86.112683 
L 200.445645 -84.356612 
L 200.078374 -82.600542 
L 199.732988 -80.844471 
L 199.40274 -79.0884 
L 199.084264 -77.332329 
L 198.77719 -75.576259 
L 198.483447 -73.820188 
L 198.206378 -72.064117 
L 197.949833 -70.308046 
L 197.717366 -68.551976 
L 197.511632 -66.795905 
L 197.334025 -65.039834 
L 197.184578 -63.283763 
L 197.062055 -61.527693 
L 196.964201 -59.771622 
z
" style="stroke: #4c4c4c; stroke-width: 0.5"/>
    </defs>
    <g clip-path="url(#p4bba91ebc6)">
     <use xlink:href="#m2f5dfb4f7c" x="0" y="255.719844" style="fill: #df8920; stroke: #4c4c4c; stroke-width: 0.5"/>
    </g>
   </g>
   <g id="line2d_1">
    <path d="M 112.14946 185.60301 
L 112.14946 52.671019 
" clip-path="url(#p4bba91ebc6)" style="fill: none; stroke: #4c4c4c; stroke-width: 0.75; stroke-linecap: round"/>
   </g>
   <g id="line2d_2">
    <path d="M 112.14946 136.942604 
L 112.14946 102.767494 
" clip-path="url(#p4bba91ebc6)" style="fill: none; stroke: #4c4c4c; stroke-width: 2.25; stroke-linecap: round"/>
   </g>
   <g id="line2d_3">
    <path d="M 112.14946 117.62818 
" clip-path="url(#p4bba91ebc6)" style="fill: none; stroke: #4c4c4c; stroke-width: 1.5; stroke-linecap: round"/>
    <defs>
     <path id="md746d5e526" d="M 0.9375 0 
L -0.9375 -0 
" style="stroke: #ffffff; stroke-width: 0.45"/>
    </defs>
    <g clip-path="url(#p4bba91ebc6)">
     <use xlink:href="#md746d5e526" x="112.14946" y="117.62818" style="fill: #ffffff; stroke: #ffffff; stroke-width: 0.45"/>
    </g>
   </g>
   <g id="line2d_4">
    <path d="M 196.694915 173.061082 
L 196.694915 44.984358 
" clip-path="url(#p4bba91ebc6)" style="fill: none; stroke: #4c4c4c; stroke-width: 0.75; stroke-linecap: round"/>
   </g>
   <g id="line2d_5">
    <path d="M 196.694915 128.809565 
L 196.694915 94.091872 
" clip-path="url(#p4bba91ebc6)" style="fill: none; stroke: #4c4c4c; stroke-width: 2.25; stroke-linecap: round"/>
   </g>
   <g id="line2d_6">
    <path d="M 196.694915 115.324519 
" clip-path="url(#p4bba91ebc6)" style="fill: none; stroke: #4c4c4c; stroke-width: 1.5; stroke-linecap: round"/>
    <g clip-path="url(#p4bba91ebc6)">
     <use xlink:href="#md746d5e526" x="196.694915" y="115.324519" style="fill: #ffffff; stroke: #ffffff; stroke-width: 0.45"/>
    </g>
   </g>
   <g id="line2d_7">
    <path d="M 112.14946 31.807429 
L 112.14946 27.415119 
L 196.694915 27.415119 
L 196.694915 31.807429 
" style="fill: none; stroke: #333333; stroke-width: 0.5; stroke-linecap: round"/>
   </g>
   <g id="patch_3">
    <path d="M 70.722188 228.96 
L 70.722188 7.2 
" style="fill: none; stroke: #262626; stroke-width: 1.25; stroke-linejoin: miter; stroke-linecap: square"/>
   </g>
   <g id="patch_4">
    <path d="M 70.722187 228.96 
L 238.122188 228.96 
" style="fill: none; stroke: #262626; stroke-width: 1.25; stroke-linejoin: miter; stroke-linecap: square"/>
   </g>
   <g id="text_12">
    <!-- ns -->
    <g style="fill: #262626" transform="translate(148.085625 24.030119) scale(0.12 -0.12)">
     <defs>
      <path id="ArialMT-6e" d="M 422 0 
L 422 3319 
L 928 3319 
L 928 2847 
Q 1294 3394 1984 3394 
Q 2284 3394 2536 3286 
Q 2788 3178 2913 3003 
Q 3038 2828 3088 2588 
Q 3119 2431 3119 2041 
L 3119 0 
L 2556 0 
L 2556 2019 
Q 2556 2363 2490 2533 
Q 2425 2703 2258 2804 
Q 2091 2906 1866 2906 
Q 1506 2906 1245 2678 
Q 984 2450 984 1813 
L 984 0 
L 422 0 
z
" transform="scale(0.015625)"/>
      <path id="ArialMT-73" d="M 197 991 
L 753 1078 
Q 800 744 1014 566 
Q 1228 388 1613 388 
Q 2000 388 2187 545 
Q 2375 703 2375 916 
Q 2375 1106 2209 1216 
Q 2094 1291 1634 1406 
Q 1016 1563 777 1677 
Q 538 1791 414 1992 
Q 291 2194 291 2438 
Q 291 2659 392 2848 
Q 494 3038 669 3163 
Q 800 3259 1026 3326 
Q 1253 3394 1513 3394 
Q 1903 3394 2198 3281 
Q 2494 3169 2634 2976 
Q 2775 2784 2828 2463 
L 2278 2388 
Q 2241 2644 2061 2787 
Q 1881 2931 1553 2931 
Q 1166 2931 1000 2803 
Q 834 2675 834 2503 
Q 834 2394 903 2306 
Q 972 2216 1119 2156 
Q 1203 2125 1616 2013 
Q 2213 1853 2448 1751 
Q 2684 1650 2818 1456 
Q 2953 1263 2953 975 
Q 2953 694 2789 445 
Q 2625 197 2315 61 
Q 2006 -75 1616 -75 
Q 969 -75 630 194 
Q 291 463 197 991 
z
" transform="scale(0.015625)"/>
     </defs>
     <use xlink:href="#ArialMT-6e"/>
     <use xlink:href="#ArialMT-73" x="55.615234"/>
    </g>
   </g>
  </g>
 </g>
 <defs>
  <clipPath id="p4bba91ebc6">
   <rect x="70.722188" y="7.2" width="167.4" height="221.76"/>
  </clipPath>
 </defs>
</svg>
