<?xml version="1.0" encoding="utf-8" standalone="no"?>
<!DOCTYPE svg PUBLIC "-//W3C//DTD SVG 1.1//EN"
  "http://www.w3.org/Graphics/SVG/1.1/DTD/svg11.dtd">
<svg xmlns:xlink="http://www.w3.org/1999/xlink" width="245.322187pt" height="255.719844pt" viewBox="0 0 245.322187 255.719844" xmlns="http://www.w3.org/2000/svg" version="1.1">
 <metadata>
  <rdf:RDF xmlns:dc="http://purl.org/dc/elements/1.1/" xmlns:cc="http://creativecommons.org/ns#" xmlns:rdf="http://www.w3.org/1999/02/22-rdf-syntax-ns#">
   <cc:Work>
    <dc:type rdf:resource="http://purl.org/dc/dcmitype/StillImage"/>
    <dc:date>2024-12-02T07:58:08.815450</dc:date>
    <dc:format>image/svg+xml</dc:format>
    <dc:creator>
     <cc:Agent>
      <dc:title>Matplotlib v3.9.2, https://matplotlib.org/</dc:title>
     </cc:Agent>
    </dc:creator>
   </cc:Work>
  </rdf:RDF>
 </metadata>
 <defs>
  <style type="text/css">*{stroke-linejoin: round; stroke-linecap: butt}</style>
 </defs>
 <g id="figure_1">
  <g id="patch_1">
   <path d="M -0 255.719844 
L 245.322188 255.719844 
L 245.322188 0 
L -0 0 
z
" style="fill: #ffffff"/>
  </g>
  <g id="axes_1">
   <g id="patch_2">
    <path d="M 70.722188 228.96 
L 238.122188 228.96 
L 238.122188 7.2 
L 70.722188 7.2 
z
" style="fill: #ffffff"/>
   </g>
   <g id="matplotlib.axis_1">
    <g id="xtick_1">
     <g id="text_1">
      <!-- Term -->
      <g style="fill: #262626" transform="translate(99.930866 246.333594) scale(0.11 -0.11)">
       <defs>
        <path id="ArialMT-54" d="M 1659 0 
L 1659 4041 
L 150 4041 
L 150 4581 
L 3781 4581 
L 3781 4041 
L 2266 4041 
L 2266 0 
L 1659 0 
z
" transform="scale(0.015625)"/>
        <path id="ArialMT-65" d="M 2694 1069 
L 3275 997 
Q 3138 488 2766 206 
Q 2394 -75 1816 -75 
Q 1088 -75 661 373 
Q 234 822 234 1631 
Q 234 2469 665 2931 
Q 1097 3394 1784 3394 
Q 2450 3394 2872 2941 
Q 3294 2488 3294 1666 
Q 3294 1616 3291 1516 
L 816 1516 
Q 847 969 1125 678 
Q 1403 388 1819 388 
Q 2128 388 2347 550 
Q 2566 713 2694 1069 
z
M 847 1978 
L 2700 1978 
Q 2663 2397 2488 2606 
Q 2219 2931 1791 2931 
Q 1403 2931 1139 2672 
Q 875 2413 847 1978 
z
" transform="scale(0.015625)"/>
        <path id="ArialMT-72" d="M 416 0 
L 416 3319 
L 922 3319 
L 922 2816 
Q 1116 3169 1280 3281 
Q 1444 3394 1641 3394 
Q 1925 3394 2219 3213 
L 2025 2691 
Q 1819 2813 1613 2813 
Q 1428 2813 1281 2702 
Q 1134 2591 1072 2394 
Q 978 2094 978 1738 
L 978 0 
L 416 0 
z
" transform="scale(0.015625)"/>
        <path id="ArialMT-6d" d="M 422 0 
L 422 3319 
L 925 3319 
L 925 2853 
Q 1081 3097 1340 3245 
Q 1600 3394 1931 3394 
Q 2300 3394 2536 3241 
Q 2772 3088 2869 2813 
Q 3263 3394 3894 3394 
Q 4388 3394 4653 3120 
Q 4919 2847 4919 2278 
L 4919 0 
L 4359 0 
L 4359 2091 
Q 4359 2428 4304 2576 
Q 4250 2725 4106 2815 
Q 3963 2906 3769 2906 
Q 3419 2906 3187 2673 
Q 2956 2441 2956 1928 
L 2956 0 
L 2394 0 
L 2394 2156 
Q 2394 2531 2256 2718 
Q 2119 2906 1806 2906 
Q 1569 2906 1367 2781 
Q 1166 2656 1075 2415 
Q 984 2175 984 1722 
L 984 0 
L 422 0 
z
" transform="scale(0.015625)"/>
       </defs>
       <use xlink:href="#ArialMT-54"/>
       <use xlink:href="#ArialMT-65" x="49.958984"/>
       <use xlink:href="#ArialMT-72" x="105.574219"/>
       <use xlink:href="#ArialMT-6d" x="138.875"/>
      </g>
     </g>
    </g>
    <g id="xtick_2">
     <g id="text_2">
      <!-- Preterm -->
      <g style="fill: #262626" transform="translate(177.137259 246.333594) scale(0.11 -0.11)">
       <defs>
        <path id="ArialMT-50" d="M 494 0 
L 494 4581 
L 2222 4581 
Q 2678 4581 2919 4538 
Q 3256 4481 3484 4323 
Q 3713 4166 3852 3881 
Q 3991 3597 3991 3256 
Q 3991 2672 3619 2267 
Q 3247 1863 2275 1863 
L 1100 1863 
L 1100 0 
L 494 0 
z
M 1100 2403 
L 2284 2403 
Q 2872 2403 3119 2622 
Q 3366 2841 3366 3238 
Q 3366 3525 3220 3729 
Q 3075 3934 2838 4000 
Q 2684 4041 2272 4041 
L 1100 4041 
L 1100 2403 
z
" transform="scale(0.015625)"/>
        <path id="ArialMT-74" d="M 1650 503 
L 1731 6 
Q 1494 -44 1306 -44 
Q 1000 -44 831 53 
Q 663 150 594 308 
Q 525 466 525 972 
L 525 2881 
L 113 2881 
L 113 3319 
L 525 3319 
L 525 4141 
L 1084 4478 
L 1084 3319 
L 1650 3319 
L 1650 2881 
L 1084 2881 
L 1084 941 
Q 1084 700 1114 631 
Q 1144 563 1211 522 
Q 1278 481 1403 481 
Q 1497 481 1650 503 
z
" transform="scale(0.015625)"/>
       </defs>
       <use xlink:href="#ArialMT-50"/>
       <use xlink:href="#ArialMT-72" x="66.699219"/>
       <use xlink:href="#ArialMT-65" x="100"/>
       <use xlink:href="#ArialMT-74" x="155.615234"/>
       <use xlink:href="#ArialMT-65" x="183.398438"/>
       <use xlink:href="#ArialMT-72" x="239.013672"/>
       <use xlink:href="#ArialMT-6d" x="272.314453"/>
      </g>
     </g>
    </g>
   </g>
   <g id="matplotlib.axis_2">
    <g id="ytick_1">
     <g id="text_3">
      <!-- 40000 -->
      <g style="fill: #262626" transform="translate(30.637031 232.142975) scale(0.11 -0.11)">
       <defs>
        <path id="ArialMT-34" d="M 2069 0 
L 2069 1097 
L 81 1097 
L 81 1613 
L 2172 4581 
L 2631 4581 
L 2631 1613 
L 3250 1613 
L 3250 1097 
L 2631 1097 
L 2631 0 
L 2069 0 
z
M 2069 1613 
L 2069 3678 
L 634 1613 
L 2069 1613 
z
" transform="scale(0.015625)"/>
        <path id="ArialMT-30" d="M 266 2259 
Q 266 3072 433 3567 
Q 600 4063 929 4331 
Q 1259 4600 1759 4600 
Q 2128 4600 2406 4451 
Q 2684 4303 2865 4023 
Q 3047 3744 3150 3342 
Q 3253 2941 3253 2259 
Q 3253 1453 3087 958 
Q 2922 463 2592 192 
Q 2263 -78 1759 -78 
Q 1097 -78 719 397 
Q 266 969 266 2259 
z
M 844 2259 
Q 844 1131 1108 757 
Q 1372 384 1759 384 
Q 2147 384 2411 759 
Q 2675 1134 2675 2259 
Q 2675 3391 2411 3762 
Q 2147 4134 1753 4134 
Q 1366 4134 1134 3806 
Q 844 3388 844 2259 
z
" transform="scale(0.015625)"/>
       </defs>
       <use xlink:href="#ArialMT-34"/>
       <use xlink:href="#ArialMT-30" x="55.615234"/>
       <use xlink:href="#ArialMT-30" x="111.230469"/>
       <use xlink:href="#ArialMT-30" x="166.845703"/>
       <use xlink:href="#ArialMT-30" x="222.460938"/>
      </g>
     </g>
    </g>
    <g id="ytick_2">
     <g id="text_4">
      <!-- 60000 -->
      <g style="fill: #262626" transform="translate(30.637031 198.926279) scale(0.11 -0.11)">
       <defs>
        <path id="ArialMT-36" d="M 3184 3459 
L 2625 3416 
Q 2550 3747 2413 3897 
Q 2184 4138 1850 4138 
Q 1581 4138 1378 3988 
Q 1113 3794 959 3422 
Q 806 3050 800 2363 
Q 1003 2672 1297 2822 
Q 1591 2972 1913 2972 
Q 2475 2972 2870 2558 
Q 3266 2144 3266 1488 
Q 3266 1056 3080 686 
Q 2894 316 2569 119 
Q 2244 -78 1831 -78 
Q 1128 -78 684 439 
Q 241 956 241 2144 
Q 241 3472 731 4075 
Q 1159 4600 1884 4600 
Q 2425 4600 2770 4297 
Q 3116 3994 3184 3459 
z
M 888 1484 
Q 888 1194 1011 928 
Q 1134 663 1356 523 
Q 1578 384 1822 384 
Q 2178 384 2434 671 
Q 2691 959 2691 1453 
Q 2691 1928 2437 2201 
Q 2184 2475 1800 2475 
Q 1419 2475 1153 2201 
Q 888 1928 888 1484 
z
" transform="scale(0.015625)"/>
       </defs>
       <use xlink:href="#ArialMT-36"/>
       <use xlink:href="#ArialMT-30" x="55.615234"/>
       <use xlink:href="#ArialMT-30" x="111.230469"/>
       <use xlink:href="#ArialMT-30" x="166.845703"/>
       <use xlink:href="#ArialMT-30" x="222.460938"/>
      </g>
     </g>
    </g>
    <g id="ytick_3">
     <g id="text_5">
      <!-- 80000 -->
      <g style="fill: #262626" transform="translate(30.637031 165.709583) scale(0.11 -0.11)">
       <defs>
        <path id="ArialMT-38" d="M 1131 2484 
Q 781 2613 612 2850 
Q 444 3088 444 3419 
Q 444 3919 803 4259 
Q 1163 4600 1759 4600 
Q 2359 4600 2725 4251 
Q 3091 3903 3091 3403 
Q 3091 3084 2923 2848 
Q 2756 2613 2416 2484 
Q 2838 2347 3058 2040 
Q 3278 1734 3278 1309 
Q 3278 722 2862 322 
Q 2447 -78 1769 -78 
Q 1091 -78 675 323 
Q 259 725 259 1325 
Q 259 1772 486 2073 
Q 713 2375 1131 2484 
z
M 1019 3438 
Q 1019 3113 1228 2906 
Q 1438 2700 1772 2700 
Q 2097 2700 2305 2904 
Q 2513 3109 2513 3406 
Q 2513 3716 2298 3927 
Q 2084 4138 1766 4138 
Q 1444 4138 1231 3931 
Q 1019 3725 1019 3438 
z
M 838 1322 
Q 838 1081 952 856 
Q 1066 631 1291 507 
Q 1516 384 1775 384 
Q 2178 384 2440 643 
Q 2703 903 2703 1303 
Q 2703 1709 2433 1975 
Q 2163 2241 1756 2241 
Q 1359 2241 1098 1978 
Q 838 1716 838 1322 
z
" transform="scale(0.015625)"/>
       </defs>
       <use xlink:href="#ArialMT-38"/>
       <use xlink:href="#ArialMT-30" x="55.615234"/>
       <use xlink:href="#ArialMT-30" x="111.230469"/>
       <use xlink:href="#ArialMT-30" x="166.845703"/>
       <use xlink:href="#ArialMT-30" x="222.460938"/>
      </g>
     </g>
    </g>
    <g id="ytick_4">
     <g id="text_6">
      <!-- 100000 -->
      <g style="fill: #262626" transform="translate(24.52 132.492887) scale(0.11 -0.11)">
       <defs>
        <path id="ArialMT-31" d="M 2384 0 
L 1822 0 
L 1822 3584 
Q 1619 3391 1289 3197 
Q 959 3003 697 2906 
L 697 3450 
Q 1169 3672 1522 3987 
Q 1875 4303 2022 4600 
L 2384 4600 
L 2384 0 
z
" transform="scale(0.015625)"/>
       </defs>
       <use xlink:href="#ArialMT-31"/>
       <use xlink:href="#ArialMT-30" x="55.615234"/>
       <use xlink:href="#ArialMT-30" x="111.230469"/>
       <use xlink:href="#ArialMT-30" x="166.845703"/>
       <use xlink:href="#ArialMT-30" x="222.460938"/>
       <use xlink:href="#ArialMT-30" x="278.076172"/>
      </g>
     </g>
    </g>
    <g id="ytick_5">
     <g id="text_7">
      <!-- 120000 -->
      <g style="fill: #262626" transform="translate(24.52 99.276191) scale(0.11 -0.11)">
       <defs>
        <path id="ArialMT-32" d="M 3222 541 
L 3222 0 
L 194 0 
Q 188 203 259 391 
Q 375 700 629 1000 
Q 884 1300 1366 1694 
Q 2113 2306 2375 2664 
Q 2638 3022 2638 3341 
Q 2638 3675 2398 3904 
Q 2159 4134 1775 4134 
Q 1369 4134 1125 3890 
Q 881 3647 878 3216 
L 300 3275 
Q 359 3922 746 4261 
Q 1134 4600 1788 4600 
Q 2447 4600 2831 4234 
Q 3216 3869 3216 3328 
Q 3216 3053 3103 2787 
Q 2991 2522 2730 2228 
Q 2469 1934 1863 1422 
Q 1356 997 1212 845 
Q 1069 694 975 541 
L 3222 541 
z
" transform="scale(0.015625)"/>
       </defs>
       <use xlink:href="#ArialMT-31"/>
       <use xlink:href="#ArialMT-32" x="55.615234"/>
       <use xlink:href="#ArialMT-30" x="111.230469"/>
       <use xlink:href="#ArialMT-30" x="166.845703"/>
       <use xlink:href="#ArialMT-30" x="222.460938"/>
       <use xlink:href="#ArialMT-30" x="278.076172"/>
      </g>
     </g>
    </g>
    <g id="ytick_6">
     <g id="text_8">
      <!-- 140000 -->
      <g style="fill: #262626" transform="translate(24.52 66.059494) scale(0.11 -0.11)">
       <use xlink:href="#ArialMT-31"/>
       <use xlink:href="#ArialMT-34" x="55.615234"/>
       <use xlink:href="#ArialMT-30" x="111.230469"/>
       <use xlink:href="#ArialMT-30" x="166.845703"/>
       <use xlink:href="#ArialMT-30" x="222.460938"/>
       <use xlink:href="#ArialMT-30" x="278.076172"/>
      </g>
     </g>
    </g>
    <g id="ytick_7">
     <g id="text_9">
      <!-- 160000 -->
      <g style="fill: #262626" transform="translate(24.52 32.842798) scale(0.11 -0.11)">
       <use xlink:href="#ArialMT-31"/>
       <use xlink:href="#ArialMT-36" x="55.615234"/>
       <use xlink:href="#ArialMT-30" x="111.230469"/>
       <use xlink:href="#ArialMT-30" x="166.845703"/>
       <use xlink:href="#ArialMT-30" x="222.460938"/>
       <use xlink:href="#ArialMT-30" x="278.076172"/>
      </g>
     </g>
    </g>
    <g id="text_10">
     <!-- GMV [mm$^3$] -->
     <g style="fill: #262626" transform="translate(18.12 149.64) rotate(-90) scale(0.12 -0.12)">
      <defs>
       <path id="ArialMT-47" d="M 2638 1797 
L 2638 2334 
L 4578 2338 
L 4578 638 
Q 4131 281 3656 101 
Q 3181 -78 2681 -78 
Q 2006 -78 1454 211 
Q 903 500 622 1047 
Q 341 1594 341 2269 
Q 341 2938 620 3517 
Q 900 4097 1425 4378 
Q 1950 4659 2634 4659 
Q 3131 4659 3532 4498 
Q 3934 4338 4162 4050 
Q 4391 3763 4509 3300 
L 3963 3150 
Q 3859 3500 3706 3700 
Q 3553 3900 3268 4020 
Q 2984 4141 2638 4141 
Q 2222 4141 1919 4014 
Q 1616 3888 1430 3681 
Q 1244 3475 1141 3228 
Q 966 2803 966 2306 
Q 966 1694 1177 1281 
Q 1388 869 1791 669 
Q 2194 469 2647 469 
Q 3041 469 3416 620 
Q 3791 772 3984 944 
L 3984 1797 
L 2638 1797 
z
" transform="scale(0.015625)"/>
       <path id="ArialMT-4d" d="M 475 0 
L 475 4581 
L 1388 4581 
L 2472 1338 
Q 2622 884 2691 659 
Q 2769 909 2934 1394 
L 4031 4581 
L 4847 4581 
L 4847 0 
L 4263 0 
L 4263 3834 
L 2931 0 
L 2384 0 
L 1059 3900 
L 1059 0 
L 475 0 
z
" transform="scale(0.015625)"/>
       <path id="ArialMT-56" d="M 1803 0 
L 28 4581 
L 684 4581 
L 1875 1253 
Q 2019 853 2116 503 
Q 2222 878 2363 1253 
L 3600 4581 
L 4219 4581 
L 2425 0 
L 1803 0 
z
" transform="scale(0.015625)"/>
       <path id="ArialMT-20" transform="scale(0.015625)"/>
       <path id="ArialMT-5b" d="M 434 -1272 
L 434 4581 
L 1675 4581 
L 1675 4116 
L 997 4116 
L 997 -806 
L 1675 -806 
L 1675 -1272 
L 434 -1272 
z
" transform="scale(0.015625)"/>
       <path id="DejaVuSans-33" d="M 2597 2516 
Q 3050 2419 3304 2112 
Q 3559 1806 3559 1356 
Q 3559 666 3084 287 
Q 2609 -91 1734 -91 
Q 1441 -91 1130 -33 
Q 819 25 488 141 
L 488 750 
Q 750 597 1062 519 
Q 1375 441 1716 441 
Q 2309 441 2620 675 
Q 2931 909 2931 1356 
Q 2931 1769 2642 2001 
Q 2353 2234 1838 2234 
L 1294 2234 
L 1294 2753 
L 1863 2753 
Q 2328 2753 2575 2939 
Q 2822 3125 2822 3475 
Q 2822 3834 2567 4026 
Q 2313 4219 1838 4219 
Q 1578 4219 1281 4162 
Q 984 4106 628 3988 
L 628 4550 
Q 988 4650 1302 4700 
Q 1616 4750 1894 4750 
Q 2613 4750 3031 4423 
Q 3450 4097 3450 3541 
Q 3450 3153 3228 2886 
Q 3006 2619 2597 2516 
z
" transform="scale(0.015625)"/>
       <path id="ArialMT-5d" d="M 1363 -1272 
L 122 -1272 
L 122 -806 
L 800 -806 
L 800 4116 
L 122 4116 
L 122 4581 
L 1363 4581 
L 1363 -1272 
z
" transform="scale(0.015625)"/>
      </defs>
      <use xlink:href="#ArialMT-47" transform="translate(0 0.765625)"/>
      <use xlink:href="#ArialMT-4d" transform="translate(77.783203 0.765625)"/>
      <use xlink:href="#ArialMT-56" transform="translate(161.083984 0.765625)"/>
      <use xlink:href="#ArialMT-20" transform="translate(227.783203 0.765625)"/>
      <use xlink:href="#ArialMT-5b" transform="translate(255.566406 0.765625)"/>
      <use xlink:href="#ArialMT-6d" transform="translate(283.349609 0.765625)"/>
      <use xlink:href="#ArialMT-6d" transform="translate(366.650391 0.765625)"/>
      <use xlink:href="#DejaVuSans-33" transform="translate(450.908203 39.046875) scale(0.7)"/>
      <use xlink:href="#ArialMT-5d" transform="translate(498.178711 0.765625)"/>
     </g>
    </g>
   </g>
   <g id="PolyCollection_1">
    <defs>
     <path id="m2e2fcb0f98" d="M 112.200077 -36.839844 
L 112.098844 -36.839844 
L 112.069388 -38.876207 
L 112.027799 -40.912571 
L 111.971491 -42.948935 
L 111.898029 -44.985298 
L 111.80504 -47.021662 
L 111.689819 -49.058026 
L 111.548667 -51.094389 
L 111.376152 -53.130753 
L 111.164631 -55.167116 
L 110.904466 -57.20348 
L 110.585135 -59.239844 
L 110.1972 -61.276207 
L 109.734572 -63.312571 
L 109.19626 -65.348935 
L 108.586712 -67.385298 
L 107.914253 -69.421662 
L 107.187788 -71.458026 
L 106.412712 -73.494389 
L 105.587411 -75.530753 
L 104.70173 -77.567116 
L 103.738189 -79.60348 
L 102.675772 -81.639844 
L 101.4952 -83.676207 
L 100.184019 -85.712571 
L 98.739937 -87.748935 
L 97.171459 -89.785298 
L 95.495935 -91.821662 
L 93.73612 -93.858026 
L 91.916909 -95.894389 
L 90.063827 -97.930753 
L 88.203989 -99.967116 
L 86.369085 -102.00348 
L 84.598808 -104.039844 
L 82.942669 -106.076207 
L 81.458508 -108.112571 
L 80.207209 -110.148935 
L 79.244552 -112.185298 
L 78.612336 -114.221662 
L 78.331278 -116.258026 
L 78.397718 -118.294389 
L 78.78496 -120.330753 
L 79.448722 -122.367116 
L 80.33503 -124.40348 
L 81.388379 -126.439844 
L 82.5582 -128.476207 
L 83.802446 -130.512571 
L 85.088193 -132.548935 
L 86.390061 -134.585298 
L 87.687709 -136.621662 
L 88.963573 -138.658026 
L 90.20151 -140.694389 
L 91.386424 -142.730753 
L 92.504645 -144.767116 
L 93.544731 -146.80348 
L 94.498527 -148.839844 
L 95.362392 -150.876207 
L 96.138377 -152.912571 
L 96.834945 -154.948935 
L 97.466672 -156.985298 
L 98.05251 -159.021662 
L 98.612677 -161.058026 
L 99.164857 -163.094389 
L 99.720835 -165.130753 
L 100.28471 -167.167116 
L 100.853324 -169.20348 
L 101.418706 -171.239844 
L 101.971576 -173.276207 
L 102.504621 -175.312571 
L 103.014463 -177.348935 
L 103.501976 -179.385298 
L 103.971302 -181.421662 
L 104.428376 -183.458026 
L 104.879707 -185.494389 
L 105.331682 -187.530753 
L 105.790186 -189.567116 
L 106.260046 -191.60348 
L 106.744029 -193.639844 
L 107.241531 -195.676207 
L 107.747521 -197.712571 
L 108.25243 -199.748935 
L 108.743351 -201.785298 
L 109.206378 -203.821662 
L 109.629413 -205.858026 
L 110.004533 -207.894389 
L 110.329202 -209.930753 
L 110.606039 -211.967116 
L 110.841381 -214.00348 
L 111.043237 -216.039844 
L 111.219297 -218.076207 
L 111.375531 -220.112571 
L 111.515599 -222.148935 
L 111.641016 -224.185298 
L 111.751817 -226.221662 
L 111.847407 -228.258026 
L 111.927313 -230.294389 
L 111.991687 -232.330753 
L 112.041482 -234.367116 
L 112.078377 -236.40348 
L 112.104514 -238.439844 
L 112.194406 -238.439844 
L 112.194406 -238.439844 
L 112.220544 -236.40348 
L 112.257438 -234.367116 
L 112.307234 -232.330753 
L 112.371607 -230.294389 
L 112.451514 -228.258026 
L 112.547103 -226.221662 
L 112.657904 -224.185298 
L 112.783321 -222.148935 
L 112.923389 -220.112571 
L 113.079623 -218.076207 
L 113.255683 -216.039844 
L 113.457539 -214.00348 
L 113.692881 -211.967116 
L 113.969718 -209.930753 
L 114.294387 -207.894389 
L 114.669508 -205.858026 
L 115.092542 -203.821662 
L 115.55557 -201.785298 
L 116.046491 -199.748935 
L 116.5514 -197.712571 
L 117.057389 -195.676207 
L 117.554891 -193.639844 
L 118.038875 -191.60348 
L 118.508735 -189.567116 
L 118.967238 -187.530753 
L 119.419214 -185.494389 
L 119.870545 -183.458026 
L 120.327619 -181.421662 
L 120.796945 -179.385298 
L 121.284458 -177.348935 
L 121.7943 -175.312571 
L 122.327344 -173.276207 
L 122.880215 -171.239844 
L 123.445596 -169.20348 
L 124.01421 -167.167116 
L 124.578086 -165.130753 
L 125.134064 -163.094389 
L 125.686244 -161.058026 
L 126.246411 -159.021662 
L 126.832248 -156.985298 
L 127.463975 -154.948935 
L 128.160543 -152.912571 
L 128.936528 -150.876207 
L 129.800393 -148.839844 
L 130.754189 -146.80348 
L 131.794275 -144.767116 
L 132.912497 -142.730753 
L 134.097411 -140.694389 
L 135.335347 -138.658026 
L 136.611212 -136.621662 
L 137.90886 -134.585298 
L 139.210727 -132.548935 
L 140.496474 -130.512571 
L 141.74072 -128.476207 
L 142.910541 -126.439844 
L 143.963891 -124.40348 
L 144.850199 -122.367116 
L 145.513961 -120.330753 
L 145.901202 -118.294389 
L 145.967642 -116.258026 
L 145.686584 -114.221662 
L 145.054368 -112.185298 
L 144.091711 -110.148935 
L 142.840412 -108.112571 
L 141.356251 -106.076207 
L 139.700112 -104.039844 
L 137.929836 -102.00348 
L 136.094932 -99.967116 
L 134.235094 -97.930753 
L 132.382012 -95.894389 
L 130.562801 -93.858026 
L 128.802985 -91.821662 
L 127.127462 -89.785298 
L 125.558984 -87.748935 
L 124.114902 -85.712571 
L 122.803721 -83.676207 
L 121.623148 -81.639844 
L 120.560732 -79.60348 
L 119.597191 -77.567116 
L 118.71151 -75.530753 
L 117.886208 -73.494389 
L 117.111133 -71.458026 
L 116.384668 -69.421662 
L 115.712208 -67.385298 
L 115.102661 -65.348935 
L 114.564349 -63.312571 
L 114.101721 -61.276207 
L 113.713785 -59.239844 
L 113.394455 -57.20348 
L 113.134289 -55.167116 
L 112.922769 -53.130753 
L 112.750253 -51.094389 
L 112.609102 -49.058026 
L 112.493881 -47.021662 
L 112.400891 -44.985298 
L 112.32743 -42.948935 
L 112.271122 -40.912571 
L 112.229532 -38.876207 
L 112.200077 -36.839844 
z
" style="stroke: #4c4c4c; stroke-width: 1.25"/>
    </defs>
    <g clip-path="url(#pe8095df6e5)">
     <use xlink:href="#m2e2fcb0f98" x="0" y="255.719844" style="fill: #5573cd; stroke: #4c4c4c; stroke-width: 1.25"/>
    </g>
   </g>
   <g id="PolyCollection_2">
    <defs>
     <path id="mde7d730fd5" d="M 197.145056 -42.966341 
L 196.244773 -42.966341 
L 196.064449 -44.853889 
L 195.829401 -46.741437 
L 195.530051 -48.628985 
L 195.157607 -50.516533 
L 194.704992 -52.404081 
L 194.167825 -54.291629 
L 193.545359 -56.179177 
L 192.8412 -58.066724 
L 192.063677 -59.954272 
L 191.225728 -61.84182 
L 190.344206 -63.729368 
L 189.438618 -65.616916 
L 188.529356 -67.504464 
L 187.635608 -69.392012 
L 186.773195 -71.27956 
L 185.952625 -73.167108 
L 185.177638 -75.054656 
L 184.444486 -76.942204 
L 183.742046 -78.829751 
L 183.052779 -80.717299 
L 182.354409 -82.604847 
L 181.622094 -84.492395 
L 180.830826 -86.379943 
L 179.957816 -88.267491 
L 178.984674 -90.155039 
L 177.899255 -92.042587 
L 176.697156 -93.930135 
L 175.382853 -95.817683 
L 173.970458 -97.70523 
L 172.484057 -99.592778 
L 170.957455 -101.480326 
L 169.433166 -103.367874 
L 167.960433 -105.255422 
L 166.592186 -107.14297 
L 165.380989 -109.030518 
L 164.374264 -110.918066 
L 163.609287 -112.805614 
L 163.108622 -114.693162 
L 162.876733 -116.58071 
L 162.898394 -118.468257 
L 163.139312 -120.355805 
L 163.54906 -122.243353 
L 164.066017 -124.130901 
L 164.623729 -126.018449 
L 165.157841 -127.905997 
L 165.612691 -129.793545 
L 165.946726 -131.681093 
L 166.136118 -133.568641 
L 166.176232 -135.456189 
L 166.080947 -137.343737 
L 165.880101 -139.231284 
L 165.615537 -141.118832 
L 165.33637 -143.00638 
L 165.094062 -144.893928 
L 164.937866 -146.781476 
L 164.911039 -148.669024 
L 165.04808 -150.556572 
L 165.373096 -152.44412 
L 165.899247 -154.331668 
L 166.629126 -156.219216 
L 167.555867 -158.106764 
L 168.664721 -159.994311 
L 169.93486 -161.881859 
L 171.341196 -163.769407 
L 172.85604 -165.656955 
L 174.450492 -167.544503 
L 176.095526 -169.432051 
L 177.762788 -171.319599 
L 179.425152 -173.207147 
L 181.057148 -175.094695 
L 182.635336 -176.982243 
L 184.138714 -178.86979 
L 185.549182 -180.757338 
L 186.85208 -182.644886 
L 188.03672 -184.532434 
L 189.096842 -186.419982 
L 190.030894 -188.30753 
L 190.842024 -190.195078 
L 191.537756 -192.082626 
L 192.129296 -193.970174 
L 192.630552 -195.857722 
L 193.056935 -197.74527 
L 193.424089 -199.632817 
L 193.746678 -201.520365 
L 194.037396 -203.407913 
L 194.306264 -205.295461 
L 194.560304 -207.183009 
L 194.803573 -209.070557 
L 195.037507 -210.958105 
L 195.261499 -212.845653 
L 195.473601 -214.733201 
L 195.671229 -216.620749 
L 195.851806 -218.508297 
L 196.013244 -220.395844 
L 196.154264 -222.283392 
L 196.274524 -224.17094 
L 196.374598 -226.058488 
L 196.455844 -227.946036 
L 196.520188 -229.833584 
L 196.869642 -229.833584 
L 196.869642 -229.833584 
L 196.933986 -227.946036 
L 197.015231 -226.058488 
L 197.115306 -224.17094 
L 197.235565 -222.283392 
L 197.376585 -220.395844 
L 197.538024 -218.508297 
L 197.7186 -216.620749 
L 197.916229 -214.733201 
L 198.12833 -212.845653 
L 198.352323 -210.958105 
L 198.586256 -209.070557 
L 198.829525 -207.183009 
L 199.083566 -205.295461 
L 199.352434 -203.407913 
L 199.643151 -201.520365 
L 199.965741 -199.632817 
L 200.332894 -197.74527 
L 200.759278 -195.857722 
L 201.260534 -193.970174 
L 201.852074 -192.082626 
L 202.547805 -190.195078 
L 203.358936 -188.30753 
L 204.292987 -186.419982 
L 205.35311 -184.532434 
L 206.537749 -182.644886 
L 207.840647 -180.757338 
L 209.251116 -178.86979 
L 210.754493 -176.982243 
L 212.332682 -175.094695 
L 213.964678 -173.207147 
L 215.627042 -171.319599 
L 217.294303 -169.432051 
L 218.939338 -167.544503 
L 220.533789 -165.656955 
L 222.048633 -163.769407 
L 223.45497 -161.881859 
L 224.725109 -159.994311 
L 225.833963 -158.106764 
L 226.760704 -156.219216 
L 227.490583 -154.331668 
L 228.016734 -152.44412 
L 228.34175 -150.556572 
L 228.478791 -148.669024 
L 228.451963 -146.781476 
L 228.295767 -144.893928 
L 228.053459 -143.00638 
L 227.774292 -141.118832 
L 227.509729 -139.231284 
L 227.308882 -137.343737 
L 227.213597 -135.456189 
L 227.253711 -133.568641 
L 227.443103 -131.681093 
L 227.777139 -129.793545 
L 228.231988 -127.905997 
L 228.7661 -126.018449 
L 229.323812 -124.130901 
L 229.840769 -122.243353 
L 230.250517 -120.355805 
L 230.491436 -118.468257 
L 230.513097 -116.58071 
L 230.281208 -114.693162 
L 229.780543 -112.805614 
L 229.015565 -110.918066 
L 228.008841 -109.030518 
L 226.797644 -107.14297 
L 225.429396 -105.255422 
L 223.956663 -103.367874 
L 222.432374 -101.480326 
L 220.905773 -99.592778 
L 219.419371 -97.70523 
L 218.006977 -95.817683 
L 216.692673 -93.930135 
L 215.490575 -92.042587 
L 214.405156 -90.155039 
L 213.432014 -88.267491 
L 212.559004 -86.379943 
L 211.767735 -84.492395 
L 211.03542 -82.604847 
L 210.337051 -80.717299 
L 209.647784 -78.829751 
L 208.945343 -76.942204 
L 208.212191 -75.054656 
L 207.437205 -73.167108 
L 206.616634 -71.27956 
L 205.754222 -69.392012 
L 204.860474 -67.504464 
L 203.951212 -65.616916 
L 203.045624 -63.729368 
L 202.164102 -61.84182 
L 201.326152 -59.954272 
L 200.548629 -58.066724 
L 199.84447 -56.179177 
L 199.222004 -54.291629 
L 198.684838 -52.404081 
L 198.232222 -50.516533 
L 197.859779 -48.628985 
L 197.560429 -46.741437 
L 197.32538 -44.853889 
L 197.145056 -42.966341 
z
" style="stroke: #4c4c4c; stroke-width: 1.25"/>
    </defs>
    <g clip-path="url(#pe8095df6e5)">
     <use xlink:href="#mde7d730fd5" x="0" y="255.719844" style="fill: #df8920; stroke: #4c4c4c; stroke-width: 1.25"/>
    </g>
   </g>
   <g id="line2d_1">
    <path d="M 112.14946 200.389035 
L 112.14946 55.808807 
" clip-path="url(#pe8095df6e5)" style="fill: none; stroke: #4c4c4c; stroke-width: 1.875; stroke-linecap: round"/>
   </g>
   <g id="line2d_2">
    <path d="M 112.14946 147.33799 
L 112.14946 109.687613 
" clip-path="url(#pe8095df6e5)" style="fill: none; stroke: #4c4c4c; stroke-width: 5.625; stroke-linecap: round"/>
   </g>
   <g id="line2d_3">
    <path d="M 112.14946 132.804056 
" clip-path="url(#pe8095df6e5)" style="fill: none; stroke: #4c4c4c; stroke-width: 1.5; stroke-linecap: round"/>
    <defs>
     <path id="md6dca9be6b" d="M 2.34375 0 
L -2.34375 -0 
" style="stroke: #ffffff; stroke-width: 1.125"/>
    </defs>
    <g clip-path="url(#pe8095df6e5)">
     <use xlink:href="#md6dca9be6b" x="112.14946" y="132.804056" style="fill: #ffffff; stroke: #ffffff; stroke-width: 1.125"/>
    </g>
   </g>
   <g id="line2d_4">
    <path d="M 196.694915 187.972173 
L 196.694915 50.66759 
" clip-path="url(#pe8095df6e5)" style="fill: none; stroke: #4c4c4c; stroke-width: 1.875; stroke-linecap: round"/>
   </g>
   <g id="line2d_5">
    <path d="M 196.694915 144.691557 
L 196.694915 102.052645 
" clip-path="url(#pe8095df6e5)" style="fill: none; stroke: #4c4c4c; stroke-width: 5.625; stroke-linecap: round"/>
   </g>
   <g id="line2d_6">
    <path d="M 196.694915 127.407506 
" clip-path="url(#pe8095df6e5)" style="fill: none; stroke: #4c4c4c; stroke-width: 1.5; stroke-linecap: round"/>
    <g clip-path="url(#pe8095df6e5)">
     <use xlink:href="#md6dca9be6b" x="196.694915" y="127.407506" style="fill: #ffffff; stroke: #ffffff; stroke-width: 1.125"/>
    </g>
   </g>
   <g id="line2d_7">
    <path d="M 112.14946 37.36199 
L 112.14946 32.92679 
L 196.694915 32.92679 
L 196.694915 37.36199 
" style="fill: none; stroke: #333333; stroke-width: 1.5; stroke-linecap: round"/>
   </g>
   <g id="patch_3">
    <path d="M 70.722188 228.96 
L 70.722188 7.2 
" style="fill: none; stroke: #262626; stroke-width: 1.25; stroke-linejoin: miter; stroke-linecap: square"/>
   </g>
   <g id="patch_4">
    <path d="M 70.722187 228.96 
L 238.122188 228.96 
" style="fill: none; stroke: #262626; stroke-width: 1.25; stroke-linejoin: miter; stroke-linecap: square"/>
   </g>
   <g id="text_11">
    <!-- ns -->
    <g style="fill: #262626" transform="translate(148.085625 29.54179) scale(0.12 -0.12)">
     <defs>
      <path id="ArialMT-6e" d="M 422 0 
L 422 3319 
L 928 3319 
L 928 2847 
Q 1294 3394 1984 3394 
Q 2284 3394 2536 3286 
Q 2788 3178 2913 3003 
Q 3038 2828 3088 2588 
Q 3119 2431 3119 2041 
L 3119 0 
L 2556 0 
L 2556 2019 
Q 2556 2363 2490 2533 
Q 2425 2703 2258 2804 
Q 2091 2906 1866 2906 
Q 1506 2906 1245 2678 
Q 984 2450 984 1813 
L 984 0 
L 422 0 
z
" transform="scale(0.015625)"/>
      <path id="ArialMT-73" d="M 197 991 
L 753 1078 
Q 800 744 1014 566 
Q 1228 388 1613 388 
Q 2000 388 2187 545 
Q 2375 703 2375 916 
Q 2375 1106 2209 1216 
Q 2094 1291 1634 1406 
Q 1016 1563 777 1677 
Q 538 1791 414 1992 
Q 291 2194 291 2438 
Q 291 2659 392 2848 
Q 494 3038 669 3163 
Q 800 3259 1026 3326 
Q 1253 3394 1513 3394 
Q 1903 3394 2198 3281 
Q 2494 3169 2634 2976 
Q 2775 2784 2828 2463 
L 2278 2388 
Q 2241 2644 2061 2787 
Q 1881 2931 1553 2931 
Q 1166 2931 1000 2803 
Q 834 2675 834 2503 
Q 834 2394 903 2306 
Q 972 2216 1119 2156 
Q 1203 2125 1616 2013 
Q 2213 1853 2448 1751 
Q 2684 1650 2818 1456 
Q 2953 1263 2953 975 
Q 2953 694 2789 445 
Q 2625 197 2315 61 
Q 2006 -75 1616 -75 
Q 969 -75 630 194 
Q 291 463 197 991 
z
" transform="scale(0.015625)"/>
     </defs>
     <use xlink:href="#ArialMT-6e"/>
     <use xlink:href="#ArialMT-73" x="55.615234"/>
    </g>
   </g>
  </g>
 </g>
 <defs>
  <clipPath id="pe8095df6e5">
   <rect x="70.722188" y="7.2" width="167.4" height="221.76"/>
  </clipPath>
 </defs>
</svg>
