<?xml version="1.0" encoding="utf-8" standalone="no"?>
<!DOCTYPE svg PUBLIC "-//W3C//DTD SVG 1.1//EN"
  "http://www.w3.org/Graphics/SVG/1.1/DTD/svg11.dtd">
<svg xmlns:xlink="http://www.w3.org/1999/xlink" width="260.163437pt" height="258.463437pt" viewBox="0 0 260.163437 258.463437" xmlns="http://www.w3.org/2000/svg" version="1.1">
 <metadata>
  <rdf:RDF xmlns:dc="http://purl.org/dc/elements/1.1/" xmlns:cc="http://creativecommons.org/ns#" xmlns:rdf="http://www.w3.org/1999/02/22-rdf-syntax-ns#">
   <cc:Work>
    <dc:type rdf:resource="http://purl.org/dc/dcmitype/StillImage"/>
    <dc:date>2025-08-13T14:41:56.960987</dc:date>
    <dc:format>image/svg+xml</dc:format>
    <dc:creator>
     <cc:Agent>
      <dc:title>Matplotlib v3.9.2, https://matplotlib.org/</dc:title>
     </cc:Agent>
    </dc:creator>
   </cc:Work>
  </rdf:RDF>
 </metadata>
 <defs>
  <style type="text/css">*{stroke-linejoin: round; stroke-linecap: butt}</style>
 </defs>
 <g id="figure_1">
  <g id="patch_1">
   <path d="M 0 258.463437 
L 260.163437 258.463437 
L 260.163437 0 
L 0 0 
z
" style="fill: #ffffff"/>
  </g>
  <g id="axes_1">
   <g id="patch_2">
    <path d="M 85.563438 228.96 
L 252.963437 228.96 
L 252.963437 7.2 
L 85.563438 7.2 
z
" style="fill: #ffffff"/>
   </g>
   <g id="matplotlib.axis_1">
    <g id="xtick_1">
     <g id="text_1">
      <!-- Full-term -->
      <g style="fill: #262626" transform="translate(99.382273 248.480937) scale(0.14 -0.14)">
       <defs>
        <path id="ArialMT-46" d="M 525 0 
L 525 4581 
L 3616 4581 
L 3616 4041 
L 1131 4041 
L 1131 2622 
L 3281 2622 
L 3281 2081 
L 1131 2081 
L 1131 0 
L 525 0 
z
" transform="scale(0.015625)"/>
        <path id="ArialMT-75" d="M 2597 0 
L 2597 488 
Q 2209 -75 1544 -75 
Q 1250 -75 995 37 
Q 741 150 617 320 
Q 494 491 444 738 
Q 409 903 409 1263 
L 409 3319 
L 972 3319 
L 972 1478 
Q 972 1038 1006 884 
Q 1059 663 1231 536 
Q 1403 409 1656 409 
Q 1909 409 2131 539 
Q 2353 669 2445 892 
Q 2538 1116 2538 1541 
L 2538 3319 
L 3100 3319 
L 3100 0 
L 2597 0 
z
" transform="scale(0.015625)"/>
        <path id="ArialMT-6c" d="M 409 0 
L 409 4581 
L 972 4581 
L 972 0 
L 409 0 
z
" transform="scale(0.015625)"/>
        <path id="ArialMT-2d" d="M 203 1375 
L 203 1941 
L 1931 1941 
L 1931 1375 
L 203 1375 
z
" transform="scale(0.015625)"/>
        <path id="ArialMT-74" d="M 1650 503 
L 1731 6 
Q 1494 -44 1306 -44 
Q 1000 -44 831 53 
Q 663 150 594 308 
Q 525 466 525 972 
L 525 2881 
L 113 2881 
L 113 3319 
L 525 3319 
L 525 4141 
L 1084 4478 
L 1084 3319 
L 1650 3319 
L 1650 2881 
L 1084 2881 
L 1084 941 
Q 1084 700 1114 631 
Q 1144 563 1211 522 
Q 1278 481 1403 481 
Q 1497 481 1650 503 
z
" transform="scale(0.015625)"/>
        <path id="ArialMT-65" d="M 2694 1069 
L 3275 997 
Q 3138 488 2766 206 
Q 2394 -75 1816 -75 
Q 1088 -75 661 373 
Q 234 822 234 1631 
Q 234 2469 665 2931 
Q 1097 3394 1784 3394 
Q 2450 3394 2872 2941 
Q 3294 2488 3294 1666 
Q 3294 1616 3291 1516 
L 816 1516 
Q 847 969 1125 678 
Q 1403 388 1819 388 
Q 2128 388 2347 550 
Q 2566 713 2694 1069 
z
M 847 1978 
L 2700 1978 
Q 2663 2397 2488 2606 
Q 2219 2931 1791 2931 
Q 1403 2931 1139 2672 
Q 875 2413 847 1978 
z
" transform="scale(0.015625)"/>
        <path id="ArialMT-72" d="M 416 0 
L 416 3319 
L 922 3319 
L 922 2816 
Q 1116 3169 1280 3281 
Q 1444 3394 1641 3394 
Q 1925 3394 2219 3213 
L 2025 2691 
Q 1819 2813 1613 2813 
Q 1428 2813 1281 2702 
Q 1134 2591 1072 2394 
Q 978 2094 978 1738 
L 978 0 
L 416 0 
z
" transform="scale(0.015625)"/>
        <path id="ArialMT-6d" d="M 422 0 
L 422 3319 
L 925 3319 
L 925 2853 
Q 1081 3097 1340 3245 
Q 1600 3394 1931 3394 
Q 2300 3394 2536 3241 
Q 2772 3088 2869 2813 
Q 3263 3394 3894 3394 
Q 4388 3394 4653 3120 
Q 4919 2847 4919 2278 
L 4919 0 
L 4359 0 
L 4359 2091 
Q 4359 2428 4304 2576 
Q 4250 2725 4106 2815 
Q 3963 2906 3769 2906 
Q 3419 2906 3187 2673 
Q 2956 2441 2956 1928 
L 2956 0 
L 2394 0 
L 2394 2156 
Q 2394 2531 2256 2718 
Q 2119 2906 1806 2906 
Q 1569 2906 1367 2781 
Q 1166 2656 1075 2415 
Q 984 2175 984 1722 
L 984 0 
L 422 0 
z
" transform="scale(0.015625)"/>
       </defs>
       <use xlink:href="#ArialMT-46"/>
       <use xlink:href="#ArialMT-75" x="61.083984"/>
       <use xlink:href="#ArialMT-6c" x="116.699219"/>
       <use xlink:href="#ArialMT-6c" x="138.916016"/>
       <use xlink:href="#ArialMT-2d" x="161.132812"/>
       <use xlink:href="#ArialMT-74" x="194.433594"/>
       <use xlink:href="#ArialMT-65" x="222.216797"/>
       <use xlink:href="#ArialMT-72" x="277.832031"/>
       <use xlink:href="#ArialMT-6d" x="311.132812"/>
      </g>
     </g>
    </g>
    <g id="xtick_2">
     <g id="text_2">
      <!-- Preterm -->
      <g style="fill: #262626" transform="translate(186.644602 248.480937) scale(0.14 -0.14)">
       <defs>
        <path id="ArialMT-50" d="M 494 0 
L 494 4581 
L 2222 4581 
Q 2678 4581 2919 4538 
Q 3256 4481 3484 4323 
Q 3713 4166 3852 3881 
Q 3991 3597 3991 3256 
Q 3991 2672 3619 2267 
Q 3247 1863 2275 1863 
L 1100 1863 
L 1100 0 
L 494 0 
z
M 1100 2403 
L 2284 2403 
Q 2872 2403 3119 2622 
Q 3366 2841 3366 3238 
Q 3366 3525 3220 3729 
Q 3075 3934 2838 4000 
Q 2684 4041 2272 4041 
L 1100 4041 
L 1100 2403 
z
" transform="scale(0.015625)"/>
       </defs>
       <use xlink:href="#ArialMT-50"/>
       <use xlink:href="#ArialMT-72" x="66.699219"/>
       <use xlink:href="#ArialMT-65" x="100"/>
       <use xlink:href="#ArialMT-74" x="155.615234"/>
       <use xlink:href="#ArialMT-65" x="183.398438"/>
       <use xlink:href="#ArialMT-72" x="239.013672"/>
       <use xlink:href="#ArialMT-6d" x="272.314453"/>
      </g>
     </g>
    </g>
   </g>
   <g id="matplotlib.axis_2">
    <g id="ytick_1">
     <g id="text_3">
      <!-- −40000 -->
      <g style="fill: #262626" transform="translate(28.96 199.589489) scale(0.14 -0.14)">
       <defs>
        <path id="ArialMT-2212" d="M 3381 1997 
L 356 1997 
L 356 2522 
L 3381 2522 
L 3381 1997 
z
" transform="scale(0.015625)"/>
        <path id="ArialMT-34" d="M 2069 0 
L 2069 1097 
L 81 1097 
L 81 1613 
L 2172 4581 
L 2631 4581 
L 2631 1613 
L 3250 1613 
L 3250 1097 
L 2631 1097 
L 2631 0 
L 2069 0 
z
M 2069 1613 
L 2069 3678 
L 634 1613 
L 2069 1613 
z
" transform="scale(0.015625)"/>
        <path id="ArialMT-30" d="M 266 2259 
Q 266 3072 433 3567 
Q 600 4063 929 4331 
Q 1259 4600 1759 4600 
Q 2128 4600 2406 4451 
Q 2684 4303 2865 4023 
Q 3047 3744 3150 3342 
Q 3253 2941 3253 2259 
Q 3253 1453 3087 958 
Q 2922 463 2592 192 
Q 2263 -78 1759 -78 
Q 1097 -78 719 397 
Q 266 969 266 2259 
z
M 844 2259 
Q 844 1131 1108 757 
Q 1372 384 1759 384 
Q 2147 384 2411 759 
Q 2675 1134 2675 2259 
Q 2675 3391 2411 3762 
Q 2147 4134 1753 4134 
Q 1366 4134 1134 3806 
Q 844 3388 844 2259 
z
" transform="scale(0.015625)"/>
       </defs>
       <use xlink:href="#ArialMT-2212"/>
       <use xlink:href="#ArialMT-34" x="58.398438"/>
       <use xlink:href="#ArialMT-30" x="114.013672"/>
       <use xlink:href="#ArialMT-30" x="169.628906"/>
       <use xlink:href="#ArialMT-30" x="225.244141"/>
       <use xlink:href="#ArialMT-30" x="280.859375"/>
      </g>
     </g>
    </g>
    <g id="ytick_2">
     <g id="text_4">
      <!-- −20000 -->
      <g style="fill: #262626" transform="translate(28.96 154.230901) scale(0.14 -0.14)">
       <defs>
        <path id="ArialMT-32" d="M 3222 541 
L 3222 0 
L 194 0 
Q 188 203 259 391 
Q 375 700 629 1000 
Q 884 1300 1366 1694 
Q 2113 2306 2375 2664 
Q 2638 3022 2638 3341 
Q 2638 3675 2398 3904 
Q 2159 4134 1775 4134 
Q 1369 4134 1125 3890 
Q 881 3647 878 3216 
L 300 3275 
Q 359 3922 746 4261 
Q 1134 4600 1788 4600 
Q 2447 4600 2831 4234 
Q 3216 3869 3216 3328 
Q 3216 3053 3103 2787 
Q 2991 2522 2730 2228 
Q 2469 1934 1863 1422 
Q 1356 997 1212 845 
Q 1069 694 975 541 
L 3222 541 
z
" transform="scale(0.015625)"/>
       </defs>
       <use xlink:href="#ArialMT-2212"/>
       <use xlink:href="#ArialMT-32" x="58.398438"/>
       <use xlink:href="#ArialMT-30" x="114.013672"/>
       <use xlink:href="#ArialMT-30" x="169.628906"/>
       <use xlink:href="#ArialMT-30" x="225.244141"/>
       <use xlink:href="#ArialMT-30" x="280.859375"/>
      </g>
     </g>
    </g>
    <g id="ytick_3">
     <g id="text_5">
      <!-- 0 -->
      <g style="fill: #262626" transform="translate(68.278125 108.872313) scale(0.14 -0.14)">
       <use xlink:href="#ArialMT-30"/>
      </g>
     </g>
    </g>
    <g id="ytick_4">
     <g id="text_6">
      <!-- 20000 -->
      <g style="fill: #262626" transform="translate(37.136875 63.513725) scale(0.14 -0.14)">
       <use xlink:href="#ArialMT-32"/>
       <use xlink:href="#ArialMT-30" x="55.615234"/>
       <use xlink:href="#ArialMT-30" x="111.230469"/>
       <use xlink:href="#ArialMT-30" x="166.845703"/>
       <use xlink:href="#ArialMT-30" x="222.460938"/>
      </g>
     </g>
    </g>
    <g id="ytick_5">
     <g id="text_7">
      <!-- 40000 -->
      <g style="fill: #262626" transform="translate(37.136875 18.155137) scale(0.14 -0.14)">
       <use xlink:href="#ArialMT-34"/>
       <use xlink:href="#ArialMT-30" x="55.615234"/>
       <use xlink:href="#ArialMT-30" x="111.230469"/>
       <use xlink:href="#ArialMT-30" x="166.845703"/>
       <use xlink:href="#ArialMT-30" x="222.460938"/>
      </g>
     </g>
    </g>
    <g id="text_8">
     <!-- GMV residuals [mm$^3$] -->
     <g style="fill: #262626" transform="translate(21.76 194.4) rotate(-90) scale(0.16 -0.16)">
      <defs>
       <path id="ArialMT-47" d="M 2638 1797 
L 2638 2334 
L 4578 2338 
L 4578 638 
Q 4131 281 3656 101 
Q 3181 -78 2681 -78 
Q 2006 -78 1454 211 
Q 903 500 622 1047 
Q 341 1594 341 2269 
Q 341 2938 620 3517 
Q 900 4097 1425 4378 
Q 1950 4659 2634 4659 
Q 3131 4659 3532 4498 
Q 3934 4338 4162 4050 
Q 4391 3763 4509 3300 
L 3963 3150 
Q 3859 3500 3706 3700 
Q 3553 3900 3268 4020 
Q 2984 4141 2638 4141 
Q 2222 4141 1919 4014 
Q 1616 3888 1430 3681 
Q 1244 3475 1141 3228 
Q 966 2803 966 2306 
Q 966 1694 1177 1281 
Q 1388 869 1791 669 
Q 2194 469 2647 469 
Q 3041 469 3416 620 
Q 3791 772 3984 944 
L 3984 1797 
L 2638 1797 
z
" transform="scale(0.015625)"/>
       <path id="ArialMT-4d" d="M 475 0 
L 475 4581 
L 1388 4581 
L 2472 1338 
Q 2622 884 2691 659 
Q 2769 909 2934 1394 
L 4031 4581 
L 4847 4581 
L 4847 0 
L 4263 0 
L 4263 3834 
L 2931 0 
L 2384 0 
L 1059 3900 
L 1059 0 
L 475 0 
z
" transform="scale(0.015625)"/>
       <path id="ArialMT-56" d="M 1803 0 
L 28 4581 
L 684 4581 
L 1875 1253 
Q 2019 853 2116 503 
Q 2222 878 2363 1253 
L 3600 4581 
L 4219 4581 
L 2425 0 
L 1803 0 
z
" transform="scale(0.015625)"/>
       <path id="ArialMT-20" transform="scale(0.015625)"/>
       <path id="ArialMT-73" d="M 197 991 
L 753 1078 
Q 800 744 1014 566 
Q 1228 388 1613 388 
Q 2000 388 2187 545 
Q 2375 703 2375 916 
Q 2375 1106 2209 1216 
Q 2094 1291 1634 1406 
Q 1016 1563 777 1677 
Q 538 1791 414 1992 
Q 291 2194 291 2438 
Q 291 2659 392 2848 
Q 494 3038 669 3163 
Q 800 3259 1026 3326 
Q 1253 3394 1513 3394 
Q 1903 3394 2198 3281 
Q 2494 3169 2634 2976 
Q 2775 2784 2828 2463 
L 2278 2388 
Q 2241 2644 2061 2787 
Q 1881 2931 1553 2931 
Q 1166 2931 1000 2803 
Q 834 2675 834 2503 
Q 834 2394 903 2306 
Q 972 2216 1119 2156 
Q 1203 2125 1616 2013 
Q 2213 1853 2448 1751 
Q 2684 1650 2818 1456 
Q 2953 1263 2953 975 
Q 2953 694 2789 445 
Q 2625 197 2315 61 
Q 2006 -75 1616 -75 
Q 969 -75 630 194 
Q 291 463 197 991 
z
" transform="scale(0.015625)"/>
       <path id="ArialMT-69" d="M 425 3934 
L 425 4581 
L 988 4581 
L 988 3934 
L 425 3934 
z
M 425 0 
L 425 3319 
L 988 3319 
L 988 0 
L 425 0 
z
" transform="scale(0.015625)"/>
       <path id="ArialMT-64" d="M 2575 0 
L 2575 419 
Q 2259 -75 1647 -75 
Q 1250 -75 917 144 
Q 584 363 401 755 
Q 219 1147 219 1656 
Q 219 2153 384 2558 
Q 550 2963 881 3178 
Q 1213 3394 1622 3394 
Q 1922 3394 2156 3267 
Q 2391 3141 2538 2938 
L 2538 4581 
L 3097 4581 
L 3097 0 
L 2575 0 
z
M 797 1656 
Q 797 1019 1065 703 
Q 1334 388 1700 388 
Q 2069 388 2326 689 
Q 2584 991 2584 1609 
Q 2584 2291 2321 2609 
Q 2059 2928 1675 2928 
Q 1300 2928 1048 2622 
Q 797 2316 797 1656 
z
" transform="scale(0.015625)"/>
       <path id="ArialMT-61" d="M 2588 409 
Q 2275 144 1986 34 
Q 1697 -75 1366 -75 
Q 819 -75 525 192 
Q 231 459 231 875 
Q 231 1119 342 1320 
Q 453 1522 633 1644 
Q 813 1766 1038 1828 
Q 1203 1872 1538 1913 
Q 2219 1994 2541 2106 
Q 2544 2222 2544 2253 
Q 2544 2597 2384 2738 
Q 2169 2928 1744 2928 
Q 1347 2928 1158 2789 
Q 969 2650 878 2297 
L 328 2372 
Q 403 2725 575 2942 
Q 747 3159 1072 3276 
Q 1397 3394 1825 3394 
Q 2250 3394 2515 3294 
Q 2781 3194 2906 3042 
Q 3031 2891 3081 2659 
Q 3109 2516 3109 2141 
L 3109 1391 
Q 3109 606 3145 398 
Q 3181 191 3288 0 
L 2700 0 
Q 2613 175 2588 409 
z
M 2541 1666 
Q 2234 1541 1622 1453 
Q 1275 1403 1131 1340 
Q 988 1278 909 1158 
Q 831 1038 831 891 
Q 831 666 1001 516 
Q 1172 366 1500 366 
Q 1825 366 2078 508 
Q 2331 650 2450 897 
Q 2541 1088 2541 1459 
L 2541 1666 
z
" transform="scale(0.015625)"/>
       <path id="ArialMT-5b" d="M 434 -1272 
L 434 4581 
L 1675 4581 
L 1675 4116 
L 997 4116 
L 997 -806 
L 1675 -806 
L 1675 -1272 
L 434 -1272 
z
" transform="scale(0.015625)"/>
       <path id="DejaVuSans-33" d="M 2597 2516 
Q 3050 2419 3304 2112 
Q 3559 1806 3559 1356 
Q 3559 666 3084 287 
Q 2609 -91 1734 -91 
Q 1441 -91 1130 -33 
Q 819 25 488 141 
L 488 750 
Q 750 597 1062 519 
Q 1375 441 1716 441 
Q 2309 441 2620 675 
Q 2931 909 2931 1356 
Q 2931 1769 2642 2001 
Q 2353 2234 1838 2234 
L 1294 2234 
L 1294 2753 
L 1863 2753 
Q 2328 2753 2575 2939 
Q 2822 3125 2822 3475 
Q 2822 3834 2567 4026 
Q 2313 4219 1838 4219 
Q 1578 4219 1281 4162 
Q 984 4106 628 3988 
L 628 4550 
Q 988 4650 1302 4700 
Q 1616 4750 1894 4750 
Q 2613 4750 3031 4423 
Q 3450 4097 3450 3541 
Q 3450 3153 3228 2886 
Q 3006 2619 2597 2516 
z
" transform="scale(0.015625)"/>
       <path id="ArialMT-5d" d="M 1363 -1272 
L 122 -1272 
L 122 -806 
L 800 -806 
L 800 4116 
L 122 4116 
L 122 4581 
L 1363 4581 
L 1363 -1272 
z
" transform="scale(0.015625)"/>
      </defs>
      <use xlink:href="#ArialMT-47" transform="translate(0 0.765625)"/>
      <use xlink:href="#ArialMT-4d" transform="translate(77.783203 0.765625)"/>
      <use xlink:href="#ArialMT-56" transform="translate(161.083984 0.765625)"/>
      <use xlink:href="#ArialMT-20" transform="translate(227.783203 0.765625)"/>
      <use xlink:href="#ArialMT-72" transform="translate(255.566406 0.765625)"/>
      <use xlink:href="#ArialMT-65" transform="translate(288.867188 0.765625)"/>
      <use xlink:href="#ArialMT-73" transform="translate(344.482422 0.765625)"/>
      <use xlink:href="#ArialMT-69" transform="translate(394.482422 0.765625)"/>
      <use xlink:href="#ArialMT-64" transform="translate(416.699219 0.765625)"/>
      <use xlink:href="#ArialMT-75" transform="translate(472.314453 0.765625)"/>
      <use xlink:href="#ArialMT-61" transform="translate(527.929688 0.765625)"/>
      <use xlink:href="#ArialMT-6c" transform="translate(583.544922 0.765625)"/>
      <use xlink:href="#ArialMT-73" transform="translate(605.761719 0.765625)"/>
      <use xlink:href="#ArialMT-20" transform="translate(655.761719 0.765625)"/>
      <use xlink:href="#ArialMT-5b" transform="translate(683.544922 0.765625)"/>
      <use xlink:href="#ArialMT-6d" transform="translate(711.328125 0.765625)"/>
      <use xlink:href="#ArialMT-6d" transform="translate(794.628906 0.765625)"/>
      <use xlink:href="#DejaVuSans-33" transform="translate(878.886719 39.046875) scale(0.7)"/>
      <use xlink:href="#ArialMT-5d" transform="translate(926.157227 0.765625)"/>
     </g>
    </g>
   </g>
   <g id="PolyCollection_1">
    <defs>
     <path id="m69c230be1f" d="M 127.041282 -79.31556 
L 126.940139 -79.31556 
L 126.903108 -80.944847 
L 126.84813 -82.574135 
L 126.772194 -84.203422 
L 126.674461 -85.83271 
L 126.556883 -87.461998 
L 126.423905 -89.091285 
L 126.281078 -90.720573 
L 126.132967 -92.34986 
L 125.981111 -93.979148 
L 125.822911 -95.608435 
L 125.652005 -97.237723 
L 125.459985 -98.867011 
L 125.238735 -100.496298 
L 124.982224 -102.125586 
L 124.686777 -103.754873 
L 124.349399 -105.384161 
L 123.964704 -107.013448 
L 123.521874 -108.642736 
L 123.003443 -110.272024 
L 122.387313 -111.901311 
L 121.65216 -113.530599 
L 120.784812 -115.159886 
L 119.78684 -116.789174 
L 118.67734 -118.418461 
L 117.489872 -120.047749 
L 116.263668 -121.677037 
L 115.031591 -123.306324 
L 113.808922 -124.935612 
L 112.587094 -126.564899 
L 111.335045 -128.194187 
L 110.008422 -129.823474 
L 108.564524 -131.452762 
L 106.978907 -133.08205 
L 105.258523 -134.711337 
L 103.446421 -136.340625 
L 101.615159 -137.969912 
L 99.850171 -139.5992 
L 98.229154 -141.228487 
L 96.806221 -142.857775 
L 95.607726 -144.487062 
L 94.640541 -146.11635 
L 93.906423 -147.745638 
L 93.41273 -149.374925 
L 93.172528 -151.004213 
L 93.19434 -152.6335 
L 93.468669 -154.262788 
L 93.960521 -155.892075 
L 94.613406 -157.521363 
L 95.363608 -159.150651 
L 96.158084 -160.779938 
L 96.968183 -162.409226 
L 97.794159 -164.038513 
L 98.659913 -165.667801 
L 99.600918 -167.297088 
L 100.649783 -168.926376 
L 101.823816 -170.555664 
L 103.117932 -172.184951 
L 104.504835 -173.814239 
L 105.942358 -175.443526 
L 107.385431 -177.072814 
L 108.798161 -178.702101 
L 110.16124 -180.331389 
L 111.471893 -181.960677 
L 112.737108 -183.589964 
L 113.964092 -185.219252 
L 115.152935 -186.848539 
L 116.29478 -188.477827 
L 117.375551 -190.107114 
L 118.382468 -191.736402 
L 119.309652 -193.365689 
L 120.160209 -194.994977 
L 120.944239 -196.624265 
L 121.673997 -198.253552 
L 122.35835 -199.88284 
L 122.998691 -201.512127 
L 123.587869 -203.141415 
L 124.112733 -204.770702 
L 124.559563 -206.39999 
L 124.920463 -208.029278 
L 125.198105 -209.658565 
L 125.406673 -211.287853 
L 125.568397 -212.91714 
L 125.707031 -214.546428 
L 125.841044 -216.175715 
L 125.979304 -217.805003 
L 126.1208 -219.434291 
L 126.258005 -221.063578 
L 126.381958 -222.692866 
L 126.486693 -224.322153 
L 126.571314 -225.951441 
L 126.639388 -227.580728 
L 126.69655 -229.210016 
L 126.747824 -230.839304 
L 126.795912 -232.468591 
L 126.840954 -234.097879 
L 126.881443 -235.727166 
L 126.915558 -237.356454 
L 126.942202 -238.985741 
L 126.961408 -240.615029 
L 127.020012 -240.615029 
L 127.020012 -240.615029 
L 127.039218 -238.985741 
L 127.065863 -237.356454 
L 127.099978 -235.727166 
L 127.140467 -234.097879 
L 127.185508 -232.468591 
L 127.233596 -230.839304 
L 127.28487 -229.210016 
L 127.342033 -227.580728 
L 127.410106 -225.951441 
L 127.494727 -224.322153 
L 127.599462 -222.692866 
L 127.723416 -221.063578 
L 127.86062 -219.434291 
L 128.002116 -217.805003 
L 128.140376 -216.175715 
L 128.274389 -214.546428 
L 128.413024 -212.91714 
L 128.574747 -211.287853 
L 128.783316 -209.658565 
L 129.060958 -208.029278 
L 129.421858 -206.39999 
L 129.868687 -204.770702 
L 130.393551 -203.141415 
L 130.98273 -201.512127 
L 131.623071 -199.88284 
L 132.307424 -198.253552 
L 133.037181 -196.624265 
L 133.821211 -194.994977 
L 134.671768 -193.365689 
L 135.598952 -191.736402 
L 136.605869 -190.107114 
L 137.686641 -188.477827 
L 138.828486 -186.848539 
L 140.017329 -185.219252 
L 141.244313 -183.589964 
L 142.509528 -181.960677 
L 143.820181 -180.331389 
L 145.18326 -178.702101 
L 146.59599 -177.072814 
L 148.039063 -175.443526 
L 149.476586 -173.814239 
L 150.863488 -172.184951 
L 152.157604 -170.555664 
L 153.331638 -168.926376 
L 154.380503 -167.297088 
L 155.321507 -165.667801 
L 156.187262 -164.038513 
L 157.013237 -162.409226 
L 157.823336 -160.779938 
L 158.617813 -159.150651 
L 159.368015 -157.521363 
L 160.0209 -155.892075 
L 160.512751 -154.262788 
L 160.78708 -152.6335 
L 160.808892 -151.004213 
L 160.56869 -149.374925 
L 160.074997 -147.745638 
L 159.340879 -146.11635 
L 158.373695 -144.487062 
L 157.175199 -142.857775 
L 155.752266 -141.228487 
L 154.13125 -139.5992 
L 152.366261 -137.969912 
L 150.534999 -136.340625 
L 148.722898 -134.711337 
L 147.002514 -133.08205 
L 145.416897 -131.452762 
L 143.972998 -129.823474 
L 142.646375 -128.194187 
L 141.394326 -126.564899 
L 140.172499 -124.935612 
L 138.949829 -123.306324 
L 137.717753 -121.677037 
L 136.491549 -120.047749 
L 135.30408 -118.418461 
L 134.19458 -116.789174 
L 133.196609 -115.159886 
L 132.329261 -113.530599 
L 131.594108 -111.901311 
L 130.977977 -110.272024 
L 130.459546 -108.642736 
L 130.016716 -107.013448 
L 129.632022 -105.384161 
L 129.294643 -103.754873 
L 128.999196 -102.125586 
L 128.742686 -100.496298 
L 128.521435 -98.867011 
L 128.329416 -97.237723 
L 128.158509 -95.608435 
L 128.00031 -93.979148 
L 127.848453 -92.34986 
L 127.700343 -90.720573 
L 127.557516 -89.091285 
L 127.424537 -87.461998 
L 127.30696 -85.83271 
L 127.209226 -84.203422 
L 127.13329 -82.574135 
L 127.078312 -80.944847 
L 127.041282 -79.31556 
z
" style="stroke: #4c4c4c; stroke-width: 0.5"/>
    </defs>
    <g clip-path="url(#peae41a7d07)">
     <use xlink:href="#m69c230be1f" x="0" y="258.463437" style="fill: #5573cd; stroke: #4c4c4c; stroke-width: 0.5"/>
    </g>
   </g>
   <g id="PolyCollection_2">
    <defs>
     <path id="m679e7fe6eb" d="M 211.633714 -39.55637 
L 211.438616 -39.55637 
L 211.395353 -41.462095 
L 211.338611 -43.367819 
L 211.266587 -45.273543 
L 211.178068 -47.179267 
L 211.072661 -49.084992 
L 210.950948 -50.990716 
L 210.814543 -52.89644 
L 210.666011 -54.802164 
L 210.508704 -56.707889 
L 210.34653 -58.613613 
L 210.183717 -60.519337 
L 210.024617 -62.425061 
L 209.873558 -64.330785 
L 209.734725 -66.23651 
L 209.612004 -68.142234 
L 209.508747 -70.047958 
L 209.42738 -71.953682 
L 209.368891 -73.859407 
L 209.332246 -75.765131 
L 209.313847 -77.670855 
L 209.307181 -79.576579 
L 209.302792 -81.482304 
L 209.288629 -83.388028 
L 209.250801 -85.293752 
L 209.174649 -87.199476 
L 209.046038 -89.105201 
L 208.85269 -91.010925 
L 208.585437 -92.916649 
L 208.239217 -94.822373 
L 207.813669 -96.728097 
L 207.313208 -98.633822 
L 206.746455 -100.539546 
L 206.124999 -102.44527 
L 205.461546 -104.350994 
L 204.767675 -106.256719 
L 204.051531 -108.162443 
L 203.315909 -110.068167 
L 202.557131 -111.973891 
L 201.765022 -113.879616 
L 200.924033 -115.78534 
L 200.015339 -117.691064 
L 199.019469 -119.596788 
L 197.918994 -121.502513 
L 196.700817 -123.408237 
L 195.357825 -125.313961 
L 193.889933 -127.219685 
L 192.304725 -129.125409 
L 190.618013 -131.031134 
L 188.854514 -132.936858 
L 187.048611 -134.842582 
L 185.244897 -136.748306 
L 183.49792 -138.654031 
L 181.870531 -140.559755 
L 180.430346 -142.465479 
L 179.244257 -144.371203 
L 178.371389 -146.276928 
L 177.855476 -148.182652 
L 177.717983 -150.088376 
L 177.953413 -151.9941 
L 178.528046 -153.899824 
L 179.382778 -155.805549 
L 180.439973 -157.711273 
L 181.613391 -159.616997 
L 182.819583 -161.522721 
L 183.988757 -163.428446 
L 185.073154 -165.33417 
L 186.051466 -167.239894 
L 186.928591 -169.145618 
L 187.730966 -171.051343 
L 188.498572 -172.957067 
L 189.275326 -174.862791 
L 190.099777 -176.768515 
L 190.99787 -178.67424 
L 191.978971 -180.579964 
L 193.03565 -182.485688 
L 194.146858 -184.391412 
L 195.283527 -186.297136 
L 196.415166 -188.202861 
L 197.515961 -190.108585 
L 198.569129 -192.014309 
L 199.568776 -193.920033 
L 200.519107 -195.825758 
L 201.431473 -197.731482 
L 202.320137 -199.637206 
L 203.197853 -201.54293 
L 204.072269 -203.448655 
L 204.943848 -205.354379 
L 205.805593 -207.260103 
L 206.64441 -209.165827 
L 207.443612 -211.071552 
L 208.185903 -212.977276 
L 208.856171 -214.883 
L 209.44359 -216.788724 
L 209.942749 -218.694448 
L 210.353788 -220.600173 
L 210.681702 -222.505897 
L 210.935109 -224.411621 
L 211.124802 -226.317345 
L 211.262352 -228.22307 
L 211.809978 -228.22307 
L 211.809978 -228.22307 
L 211.947528 -226.317345 
L 212.137221 -224.411621 
L 212.390628 -222.505897 
L 212.718541 -220.600173 
L 213.12958 -218.694448 
L 213.628739 -216.788724 
L 214.216158 -214.883 
L 214.886426 -212.977276 
L 215.628717 -211.071552 
L 216.42792 -209.165827 
L 217.266736 -207.260103 
L 218.128482 -205.354379 
L 219.00006 -203.448655 
L 219.874476 -201.54293 
L 220.752193 -199.637206 
L 221.640856 -197.731482 
L 222.553222 -195.825758 
L 223.503553 -193.920033 
L 224.5032 -192.014309 
L 225.556369 -190.108585 
L 226.657163 -188.202861 
L 227.788802 -186.297136 
L 228.925471 -184.391412 
L 230.036679 -182.485688 
L 231.093358 -180.579964 
L 232.07446 -178.67424 
L 232.972552 -176.768515 
L 233.797004 -174.862791 
L 234.573758 -172.957067 
L 235.341364 -171.051343 
L 236.143739 -169.145618 
L 237.020864 -167.239894 
L 237.999176 -165.33417 
L 239.083573 -163.428446 
L 240.252746 -161.522721 
L 241.458939 -159.616997 
L 242.632356 -157.711273 
L 243.689551 -155.805549 
L 244.544284 -153.899824 
L 245.118917 -151.9941 
L 245.354347 -150.088376 
L 245.216853 -148.182652 
L 244.700941 -146.276928 
L 243.828072 -144.371203 
L 242.641983 -142.465479 
L 241.201799 -140.559755 
L 239.574409 -138.654031 
L 237.827433 -136.748306 
L 236.023718 -134.842582 
L 234.217816 -132.936858 
L 232.454316 -131.031134 
L 230.767605 -129.125409 
L 229.182397 -127.219685 
L 227.714504 -125.313961 
L 226.371513 -123.408237 
L 225.153335 -121.502513 
L 224.052861 -119.596788 
L 223.056991 -117.691064 
L 222.148296 -115.78534 
L 221.307308 -113.879616 
L 220.515198 -111.973891 
L 219.756421 -110.068167 
L 219.020799 -108.162443 
L 218.304655 -106.256719 
L 217.610783 -104.350994 
L 216.947331 -102.44527 
L 216.325875 -100.539546 
L 215.759122 -98.633822 
L 215.25866 -96.728097 
L 214.833112 -94.822373 
L 214.486892 -92.916649 
L 214.21964 -91.010925 
L 214.026292 -89.105201 
L 213.89768 -87.199476 
L 213.821529 -85.293752 
L 213.783701 -83.388028 
L 213.769538 -81.482304 
L 213.765149 -79.576579 
L 213.758483 -77.670855 
L 213.740083 -75.765131 
L 213.703438 -73.859407 
L 213.64495 -71.953682 
L 213.563583 -70.047958 
L 213.460325 -68.142234 
L 213.337605 -66.23651 
L 213.198771 -64.330785 
L 213.047713 -62.425061 
L 212.888613 -60.519337 
L 212.7258 -58.613613 
L 212.563626 -56.707889 
L 212.406319 -54.802164 
L 212.257787 -52.89644 
L 212.121381 -50.990716 
L 211.999669 -49.084992 
L 211.894261 -47.179267 
L 211.805742 -45.273543 
L 211.733718 -43.367819 
L 211.676976 -41.462095 
L 211.633714 -39.55637 
z
" style="stroke: #4c4c4c; stroke-width: 0.5"/>
    </defs>
    <g clip-path="url(#peae41a7d07)">
     <use xlink:href="#m679e7fe6eb" x="0" y="258.463437" style="fill: #df8920; stroke: #4c4c4c; stroke-width: 0.5"/>
    </g>
   </g>
   <g id="line2d_1">
    <path d="M 126.99071 158.778352 
L 126.99071 47.344907 
" clip-path="url(#peae41a7d07)" style="fill: none; stroke: #4c4c4c; stroke-width: 0.75; stroke-linecap: round"/>
   </g>
   <g id="line2d_2">
    <path d="M 126.99071 117.552187 
L 126.99071 88.941491 
" clip-path="url(#peae41a7d07)" style="fill: none; stroke: #4c4c4c; stroke-width: 2.25; stroke-linecap: round"/>
   </g>
   <g id="line2d_3">
    <path d="M 126.99071 104.423033 
" clip-path="url(#peae41a7d07)" style="fill: none; stroke: #4c4c4c; stroke-width: 1.5; stroke-linecap: round"/>
    <defs>
     <path id="m45e65f1d8b" d="M 0.9375 0 
L -0.9375 -0 
" style="stroke: #ffffff; stroke-width: 0.45"/>
    </defs>
    <g clip-path="url(#peae41a7d07)">
     <use xlink:href="#m45e65f1d8b" x="126.99071" y="104.423033" style="fill: #ffffff; stroke: #ffffff; stroke-width: 0.45"/>
    </g>
   </g>
   <g id="line2d_4">
    <path d="M 211.536165 165.130052 
L 211.536165 51.366505 
" clip-path="url(#peae41a7d07)" style="fill: none; stroke: #4c4c4c; stroke-width: 0.75; stroke-linecap: round"/>
   </g>
   <g id="line2d_5">
    <path d="M 211.536165 120.607903 
L 211.536165 85.520446 
" clip-path="url(#peae41a7d07)" style="fill: none; stroke: #4c4c4c; stroke-width: 2.25; stroke-linecap: round"/>
   </g>
   <g id="line2d_6">
    <path d="M 211.536165 106.229516 
" clip-path="url(#peae41a7d07)" style="fill: none; stroke: #4c4c4c; stroke-width: 1.5; stroke-linecap: round"/>
    <g clip-path="url(#peae41a7d07)">
     <use xlink:href="#m45e65f1d8b" x="211.536165" y="106.229516" style="fill: #ffffff; stroke: #ffffff; stroke-width: 0.45"/>
    </g>
   </g>
   <g id="line2d_7">
    <path d="M 126.99071 34.075036 
L 126.99071 29.651745 
L 211.536165 29.651745 
L 211.536165 34.075036 
" style="fill: none; stroke: #333333; stroke-width: 0.5; stroke-linecap: round"/>
   </g>
   <g id="patch_3">
    <path d="M 85.563438 228.96 
L 85.563438 7.2 
" style="fill: none; stroke: #262626; stroke-width: 1.25; stroke-linejoin: miter; stroke-linecap: square"/>
   </g>
   <g id="patch_4">
    <path d="M 85.563438 228.96 
L 252.963437 228.96 
" style="fill: none; stroke: #262626; stroke-width: 1.25; stroke-linejoin: miter; stroke-linecap: square"/>
   </g>
   <g id="text_9">
    <!-- ns -->
    <g style="fill: #262626" transform="translate(161.870781 25.869245) scale(0.14 -0.14)">
     <defs>
      <path id="ArialMT-6e" d="M 422 0 
L 422 3319 
L 928 3319 
L 928 2847 
Q 1294 3394 1984 3394 
Q 2284 3394 2536 3286 
Q 2788 3178 2913 3003 
Q 3038 2828 3088 2588 
Q 3119 2431 3119 2041 
L 3119 0 
L 2556 0 
L 2556 2019 
Q 2556 2363 2490 2533 
Q 2425 2703 2258 2804 
Q 2091 2906 1866 2906 
Q 1506 2906 1245 2678 
Q 984 2450 984 1813 
L 984 0 
L 422 0 
z
" transform="scale(0.015625)"/>
     </defs>
     <use xlink:href="#ArialMT-6e"/>
     <use xlink:href="#ArialMT-73" x="55.615234"/>
    </g>
   </g>
  </g>
 </g>
 <defs>
  <clipPath id="peae41a7d07">
   <rect x="85.563438" y="7.2" width="167.4" height="221.76"/>
  </clipPath>
 </defs>
</svg>
