<?xml version="1.0" encoding="utf-8" standalone="no"?>
<!DOCTYPE svg PUBLIC "-//W3C//DTD SVG 1.1//EN"
  "http://www.w3.org/Graphics/SVG/1.1/DTD/svg11.dtd">
<svg xmlns:xlink="http://www.w3.org/1999/xlink" width="155.905512pt" height="113.385827pt" viewBox="0 0 155.905512 113.385827" xmlns="http://www.w3.org/2000/svg" version="1.1">
 <metadata>
  <rdf:RDF xmlns:dc="http://purl.org/dc/elements/1.1/" xmlns:cc="http://creativecommons.org/ns#" xmlns:rdf="http://www.w3.org/1999/02/22-rdf-syntax-ns#">
   <cc:Work>
    <dc:type rdf:resource="http://purl.org/dc/dcmitype/StillImage"/>
    <dc:date>2025-06-06T11:00:03.946297</dc:date>
    <dc:format>image/svg+xml</dc:format>
    <dc:creator>
     <cc:Agent>
      <dc:title>Matplotlib v3.9.2, https://matplotlib.org/</dc:title>
     </cc:Agent>
    </dc:creator>
   </cc:Work>
  </rdf:RDF>
 </metadata>
 <defs>
  <style type="text/css">*{stroke-linejoin: round; stroke-linecap: butt}</style>
 </defs>
 <g id="figure_1">
  <g id="patch_1">
   <path d="M 0 113.385827 
L 155.905512 113.385827 
L 155.905512 0 
L 0 0 
z
" style="fill: #ffffff"/>
  </g>
  <g id="axes_1">
   <g id="patch_2">
    <path d="M 25.4275 89.218327 
L 150.505512 89.218327 
L 150.505512 5.4 
L 25.4275 5.4 
z
" style="fill: #ffffff"/>
   </g>
   <g id="PathCollection_1">
    <defs>
     <path id="C0_0_bb77f76d03" d="M 0 0.866025 
C 0.229673 0.866025 0.449969 0.774776 0.612372 0.612372 
C 0.774776 0.449969 0.866025 0.229673 0.866025 -0 
C 0.866025 -0.229673 0.774776 -0.449969 0.612372 -0.612372 
C 0.449969 -0.774776 0.229673 -0.866025 0 -0.866025 
C -0.229673 -0.866025 -0.449969 -0.774776 -0.612372 -0.612372 
C -0.774776 -0.449969 -0.866025 -0.229673 -0.866025 0 
C -0.866025 0.229673 -0.774776 0.449969 -0.612372 0.612372 
C -0.449969 0.774776 -0.229673 0.866025 0 0.866025 
z
"/>
    </defs>
    <g clip-path="url(#p2219e06604)">
     <use xlink:href="#C0_0_bb77f76d03" x="92.02748" y="81.41837" style="fill: #ff8c00; fill-opacity: 0.8"/>
    </g>
    <g clip-path="url(#p2219e06604)">
     <use xlink:href="#C0_0_bb77f76d03" x="132.637224" y="84.700573" style="fill: #ff8c00; fill-opacity: 0.8"/>
    </g>
    <g clip-path="url(#p2219e06604)">
     <use xlink:href="#C0_0_bb77f76d03" x="128.57625" y="84.700573" style="fill: #ff8c00; fill-opacity: 0.8"/>
    </g>
    <g clip-path="url(#p2219e06604)">
     <use xlink:href="#C0_0_bb77f76d03" x="71.722608" y="84.700573" style="fill: #ff8c00; fill-opacity: 0.8"/>
    </g>
    <g clip-path="url(#p2219e06604)">
     <use xlink:href="#C0_0_bb77f76d03" x="104.210404" y="81.41837" style="fill: #ff8c00; fill-opacity: 0.8"/>
    </g>
    <g clip-path="url(#p2219e06604)">
     <use xlink:href="#C0_0_bb77f76d03" x="116.393327" y="84.700573" style="fill: #ff8c00; fill-opacity: 0.8"/>
    </g>
    <g clip-path="url(#p2219e06604)">
     <use xlink:href="#C0_0_bb77f76d03" x="108.271378" y="74.853966" style="fill: #ff8c00; fill-opacity: 0.8"/>
    </g>
    <g clip-path="url(#p2219e06604)">
     <use xlink:href="#C0_0_bb77f76d03" x="96.088455" y="84.700573" style="fill: #ff8c00; fill-opacity: 0.8"/>
    </g>
    <g clip-path="url(#p2219e06604)">
     <use xlink:href="#C0_0_bb77f76d03" x="100.149429" y="68.289562" style="fill: #ff8c00; fill-opacity: 0.8"/>
    </g>
    <g clip-path="url(#p2219e06604)">
     <use xlink:href="#C0_0_bb77f76d03" x="75.783583" y="38.749743" style="fill: #ff8c00; fill-opacity: 0.8"/>
    </g>
    <g clip-path="url(#p2219e06604)">
     <use xlink:href="#C0_0_bb77f76d03" x="96.088455" y="65.00736" style="fill: #ff8c00; fill-opacity: 0.8"/>
    </g>
    <g clip-path="url(#p2219e06604)">
     <use xlink:href="#C0_0_bb77f76d03" x="120.454301" y="81.41837" style="fill: #ff8c00; fill-opacity: 0.8"/>
    </g>
    <g clip-path="url(#p2219e06604)">
     <use xlink:href="#C0_0_bb77f76d03" x="112.332352" y="71.571764" style="fill: #ff8c00; fill-opacity: 0.8"/>
    </g>
    <g clip-path="url(#p2219e06604)">
     <use xlink:href="#C0_0_bb77f76d03" x="132.637224" y="78.136168" style="fill: #ff8c00; fill-opacity: 0.8"/>
    </g>
    <g clip-path="url(#p2219e06604)">
     <use xlink:href="#C0_0_bb77f76d03" x="124.515276" y="74.853966" style="fill: #ff8c00; fill-opacity: 0.8"/>
    </g>
    <g clip-path="url(#p2219e06604)">
     <use xlink:href="#C0_0_bb77f76d03" x="128.57625" y="84.700573" style="fill: #ff8c00; fill-opacity: 0.8"/>
    </g>
    <g clip-path="url(#p2219e06604)">
     <use xlink:href="#C0_0_bb77f76d03" x="63.600659" y="84.700573" style="fill: #ff8c00; fill-opacity: 0.8"/>
    </g>
    <g clip-path="url(#p2219e06604)">
     <use xlink:href="#C0_0_bb77f76d03" x="47.356762" y="78.136168" style="fill: #ff8c00; fill-opacity: 0.8"/>
    </g>
    <g clip-path="url(#p2219e06604)">
     <use xlink:href="#C0_0_bb77f76d03" x="108.271378" y="74.853966" style="fill: #ff8c00; fill-opacity: 0.8"/>
    </g>
    <g clip-path="url(#p2219e06604)">
     <use xlink:href="#C0_0_bb77f76d03" x="92.02748" y="84.700573" style="fill: #ff8c00; fill-opacity: 0.8"/>
    </g>
    <g clip-path="url(#p2219e06604)">
     <use xlink:href="#C0_0_bb77f76d03" x="120.454301" y="81.41837" style="fill: #ff8c00; fill-opacity: 0.8"/>
    </g>
    <g clip-path="url(#p2219e06604)">
     <use xlink:href="#C0_0_bb77f76d03" x="108.271378" y="84.700573" style="fill: #ff8c00; fill-opacity: 0.8"/>
    </g>
    <g clip-path="url(#p2219e06604)">
     <use xlink:href="#C0_0_bb77f76d03" x="100.149429" y="81.41837" style="fill: #ff8c00; fill-opacity: 0.8"/>
    </g>
    <g clip-path="url(#p2219e06604)">
     <use xlink:href="#C0_0_bb77f76d03" x="128.57625" y="84.700573" style="fill: #ff8c00; fill-opacity: 0.8"/>
    </g>
    <g clip-path="url(#p2219e06604)">
     <use xlink:href="#C0_0_bb77f76d03" x="128.57625" y="84.700573" style="fill: #ff8c00; fill-opacity: 0.8"/>
    </g>
    <g clip-path="url(#p2219e06604)">
     <use xlink:href="#C0_0_bb77f76d03" x="124.515276" y="84.700573" style="fill: #ff8c00; fill-opacity: 0.8"/>
    </g>
    <g clip-path="url(#p2219e06604)">
     <use xlink:href="#C0_0_bb77f76d03" x="108.271378" y="81.41837" style="fill: #ff8c00; fill-opacity: 0.8"/>
    </g>
    <g clip-path="url(#p2219e06604)">
     <use xlink:href="#C0_0_bb77f76d03" x="132.637224" y="84.700573" style="fill: #ff8c00; fill-opacity: 0.8"/>
    </g>
    <g clip-path="url(#p2219e06604)">
     <use xlink:href="#C0_0_bb77f76d03" x="108.271378" y="51.878551" style="fill: #ff8c00; fill-opacity: 0.8"/>
    </g>
    <g clip-path="url(#p2219e06604)">
     <use xlink:href="#C0_0_bb77f76d03" x="112.332352" y="84.700573" style="fill: #ff8c00; fill-opacity: 0.8"/>
    </g>
    <g clip-path="url(#p2219e06604)">
     <use xlink:href="#C0_0_bb77f76d03" x="120.454301" y="84.700573" style="fill: #ff8c00; fill-opacity: 0.8"/>
    </g>
    <g clip-path="url(#p2219e06604)">
     <use xlink:href="#C0_0_bb77f76d03" x="75.783583" y="81.41837" style="fill: #ff8c00; fill-opacity: 0.8"/>
    </g>
    <g clip-path="url(#p2219e06604)">
     <use xlink:href="#C0_0_bb77f76d03" x="124.515276" y="61.725158" style="fill: #ff8c00; fill-opacity: 0.8"/>
    </g>
    <g clip-path="url(#p2219e06604)">
     <use xlink:href="#C0_0_bb77f76d03" x="96.088455" y="84.700573" style="fill: #ff8c00; fill-opacity: 0.8"/>
    </g>
    <g clip-path="url(#p2219e06604)">
     <use xlink:href="#C0_0_bb77f76d03" x="31.112864" y="74.853966" style="fill: #ff8c00; fill-opacity: 0.8"/>
    </g>
    <g clip-path="url(#p2219e06604)">
     <use xlink:href="#C0_0_bb77f76d03" x="100.149429" y="81.41837" style="fill: #ff8c00; fill-opacity: 0.8"/>
    </g>
    <g clip-path="url(#p2219e06604)">
     <use xlink:href="#C0_0_bb77f76d03" x="83.905531" y="84.700573" style="fill: #ff8c00; fill-opacity: 0.8"/>
    </g>
    <g clip-path="url(#p2219e06604)">
     <use xlink:href="#C0_0_bb77f76d03" x="104.210404" y="81.41837" style="fill: #ff8c00; fill-opacity: 0.8"/>
    </g>
    <g clip-path="url(#p2219e06604)">
     <use xlink:href="#C0_0_bb77f76d03" x="120.454301" y="84.700573" style="fill: #ff8c00; fill-opacity: 0.8"/>
    </g>
    <g clip-path="url(#p2219e06604)">
     <use xlink:href="#C0_0_bb77f76d03" x="79.844557" y="78.136168" style="fill: #ff8c00; fill-opacity: 0.8"/>
    </g>
    <g clip-path="url(#p2219e06604)">
     <use xlink:href="#C0_0_bb77f76d03" x="87.966506" y="84.700573" style="fill: #ff8c00; fill-opacity: 0.8"/>
    </g>
    <g clip-path="url(#p2219e06604)">
     <use xlink:href="#C0_0_bb77f76d03" x="136.698199" y="84.700573" style="fill: #ff8c00; fill-opacity: 0.8"/>
    </g>
    <g clip-path="url(#p2219e06604)">
     <use xlink:href="#C0_0_bb77f76d03" x="108.271378" y="84.700573" style="fill: #ff8c00; fill-opacity: 0.8"/>
    </g>
    <g clip-path="url(#p2219e06604)">
     <use xlink:href="#C0_0_bb77f76d03" x="136.698199" y="81.41837" style="fill: #ff8c00; fill-opacity: 0.8"/>
    </g>
    <g clip-path="url(#p2219e06604)">
     <use xlink:href="#C0_0_bb77f76d03" x="120.454301" y="84.700573" style="fill: #ff8c00; fill-opacity: 0.8"/>
    </g>
    <g clip-path="url(#p2219e06604)">
     <use xlink:href="#C0_0_bb77f76d03" x="108.271378" y="78.136168" style="fill: #ff8c00; fill-opacity: 0.8"/>
    </g>
    <g clip-path="url(#p2219e06604)">
     <use xlink:href="#C0_0_bb77f76d03" x="116.393327" y="84.700573" style="fill: #ff8c00; fill-opacity: 0.8"/>
    </g>
    <g clip-path="url(#p2219e06604)">
     <use xlink:href="#C0_0_bb77f76d03" x="59.539685" y="84.700573" style="fill: #ff8c00; fill-opacity: 0.8"/>
    </g>
    <g clip-path="url(#p2219e06604)">
     <use xlink:href="#C0_0_bb77f76d03" x="132.637224" y="61.725158" style="fill: #ff8c00; fill-opacity: 0.8"/>
    </g>
    <g clip-path="url(#p2219e06604)">
     <use xlink:href="#C0_0_bb77f76d03" x="124.515276" y="74.853966" style="fill: #ff8c00; fill-opacity: 0.8"/>
    </g>
    <g clip-path="url(#p2219e06604)">
     <use xlink:href="#C0_0_bb77f76d03" x="104.210404" y="84.700573" style="fill: #ff8c00; fill-opacity: 0.8"/>
    </g>
    <g clip-path="url(#p2219e06604)">
     <use xlink:href="#C0_0_bb77f76d03" x="104.210404" y="81.41837" style="fill: #ff8c00; fill-opacity: 0.8"/>
    </g>
    <g clip-path="url(#p2219e06604)">
     <use xlink:href="#C0_0_bb77f76d03" x="120.454301" y="84.700573" style="fill: #ff8c00; fill-opacity: 0.8"/>
    </g>
    <g clip-path="url(#p2219e06604)">
     <use xlink:href="#C0_0_bb77f76d03" x="120.454301" y="68.289562" style="fill: #ff8c00; fill-opacity: 0.8"/>
    </g>
    <g clip-path="url(#p2219e06604)">
     <use xlink:href="#C0_0_bb77f76d03" x="120.454301" y="78.136168" style="fill: #ff8c00; fill-opacity: 0.8"/>
    </g>
    <g clip-path="url(#p2219e06604)">
     <use xlink:href="#C0_0_bb77f76d03" x="79.844557" y="81.41837" style="fill: #ff8c00; fill-opacity: 0.8"/>
    </g>
    <g clip-path="url(#p2219e06604)">
     <use xlink:href="#C0_0_bb77f76d03" x="87.966506" y="84.700573" style="fill: #ff8c00; fill-opacity: 0.8"/>
    </g>
    <g clip-path="url(#p2219e06604)">
     <use xlink:href="#C0_0_bb77f76d03" x="112.332352" y="84.700573" style="fill: #ff8c00; fill-opacity: 0.8"/>
    </g>
    <g clip-path="url(#p2219e06604)">
     <use xlink:href="#C0_0_bb77f76d03" x="96.088455" y="84.700573" style="fill: #ff8c00; fill-opacity: 0.8"/>
    </g>
    <g clip-path="url(#p2219e06604)">
     <use xlink:href="#C0_0_bb77f76d03" x="104.210404" y="84.700573" style="fill: #ff8c00; fill-opacity: 0.8"/>
    </g>
    <g clip-path="url(#p2219e06604)">
     <use xlink:href="#C0_0_bb77f76d03" x="104.210404" y="84.700573" style="fill: #ff8c00; fill-opacity: 0.8"/>
    </g>
    <g clip-path="url(#p2219e06604)">
     <use xlink:href="#C0_0_bb77f76d03" x="96.088455" y="84.700573" style="fill: #ff8c00; fill-opacity: 0.8"/>
    </g>
    <g clip-path="url(#p2219e06604)">
     <use xlink:href="#C0_0_bb77f76d03" x="120.454301" y="61.725158" style="fill: #ff8c00; fill-opacity: 0.8"/>
    </g>
    <g clip-path="url(#p2219e06604)">
     <use xlink:href="#C0_0_bb77f76d03" x="124.515276" y="84.700573" style="fill: #ff8c00; fill-opacity: 0.8"/>
    </g>
    <g clip-path="url(#p2219e06604)">
     <use xlink:href="#C0_0_bb77f76d03" x="120.454301" y="78.136168" style="fill: #ff8c00; fill-opacity: 0.8"/>
    </g>
    <g clip-path="url(#p2219e06604)">
     <use xlink:href="#C0_0_bb77f76d03" x="104.210404" y="84.700573" style="fill: #ff8c00; fill-opacity: 0.8"/>
    </g>
    <g clip-path="url(#p2219e06604)">
     <use xlink:href="#C0_0_bb77f76d03" x="79.844557" y="81.41837" style="fill: #ff8c00; fill-opacity: 0.8"/>
    </g>
    <g clip-path="url(#p2219e06604)">
     <use xlink:href="#C0_0_bb77f76d03" x="144.820148" y="81.41837" style="fill: #ff8c00; fill-opacity: 0.8"/>
    </g>
    <g clip-path="url(#p2219e06604)">
     <use xlink:href="#C0_0_bb77f76d03" x="124.515276" y="84.700573" style="fill: #ff8c00; fill-opacity: 0.8"/>
    </g>
    <g clip-path="url(#p2219e06604)">
     <use xlink:href="#C0_0_bb77f76d03" x="112.332352" y="84.700573" style="fill: #ff8c00; fill-opacity: 0.8"/>
    </g>
    <g clip-path="url(#p2219e06604)">
     <use xlink:href="#C0_0_bb77f76d03" x="120.454301" y="84.700573" style="fill: #ff8c00; fill-opacity: 0.8"/>
    </g>
    <g clip-path="url(#p2219e06604)">
     <use xlink:href="#C0_0_bb77f76d03" x="100.149429" y="65.00736" style="fill: #ff8c00; fill-opacity: 0.8"/>
    </g>
    <g clip-path="url(#p2219e06604)">
     <use xlink:href="#C0_0_bb77f76d03" x="100.149429" y="81.41837" style="fill: #ff8c00; fill-opacity: 0.8"/>
    </g>
    <g clip-path="url(#p2219e06604)">
     <use xlink:href="#C0_0_bb77f76d03" x="92.02748" y="84.700573" style="fill: #ff8c00; fill-opacity: 0.8"/>
    </g>
    <g clip-path="url(#p2219e06604)">
     <use xlink:href="#C0_0_bb77f76d03" x="116.393327" y="74.853966" style="fill: #ff8c00; fill-opacity: 0.8"/>
    </g>
    <g clip-path="url(#p2219e06604)">
     <use xlink:href="#C0_0_bb77f76d03" x="71.722608" y="84.700573" style="fill: #ff8c00; fill-opacity: 0.8"/>
    </g>
    <g clip-path="url(#p2219e06604)">
     <use xlink:href="#C0_0_bb77f76d03" x="100.149429" y="84.700573" style="fill: #ff8c00; fill-opacity: 0.8"/>
    </g>
    <g clip-path="url(#p2219e06604)">
     <use xlink:href="#C0_0_bb77f76d03" x="100.149429" y="84.700573" style="fill: #ff8c00; fill-opacity: 0.8"/>
    </g>
    <g clip-path="url(#p2219e06604)">
     <use xlink:href="#C0_0_bb77f76d03" x="96.088455" y="84.700573" style="fill: #ff8c00; fill-opacity: 0.8"/>
    </g>
    <g clip-path="url(#p2219e06604)">
     <use xlink:href="#C0_0_bb77f76d03" x="96.088455" y="71.571764" style="fill: #ff8c00; fill-opacity: 0.8"/>
    </g>
    <g clip-path="url(#p2219e06604)">
     <use xlink:href="#C0_0_bb77f76d03" x="75.783583" y="84.700573" style="fill: #ff8c00; fill-opacity: 0.8"/>
    </g>
    <g clip-path="url(#p2219e06604)">
     <use xlink:href="#C0_0_bb77f76d03" x="124.515276" y="78.136168" style="fill: #ff8c00; fill-opacity: 0.8"/>
    </g>
    <g clip-path="url(#p2219e06604)">
     <use xlink:href="#C0_0_bb77f76d03" x="124.515276" y="81.41837" style="fill: #ff8c00; fill-opacity: 0.8"/>
    </g>
    <g clip-path="url(#p2219e06604)">
     <use xlink:href="#C0_0_bb77f76d03" x="104.210404" y="28.903137" style="fill: #ff8c00; fill-opacity: 0.8"/>
    </g>
    <g clip-path="url(#p2219e06604)">
     <use xlink:href="#C0_0_bb77f76d03" x="96.088455" y="84.700573" style="fill: #ff8c00; fill-opacity: 0.8"/>
    </g>
    <g clip-path="url(#p2219e06604)">
     <use xlink:href="#C0_0_bb77f76d03" x="132.637224" y="71.571764" style="fill: #ff8c00; fill-opacity: 0.8"/>
    </g>
    <g clip-path="url(#p2219e06604)">
     <use xlink:href="#C0_0_bb77f76d03" x="79.844557" y="58.442956" style="fill: #ff8c00; fill-opacity: 0.8"/>
    </g>
    <g clip-path="url(#p2219e06604)">
     <use xlink:href="#C0_0_bb77f76d03" x="104.210404" y="84.700573" style="fill: #ff8c00; fill-opacity: 0.8"/>
    </g>
    <g clip-path="url(#p2219e06604)">
     <use xlink:href="#C0_0_bb77f76d03" x="104.210404" y="84.700573" style="fill: #ff8c00; fill-opacity: 0.8"/>
    </g>
    <g clip-path="url(#p2219e06604)">
     <use xlink:href="#C0_0_bb77f76d03" x="100.149429" y="71.571764" style="fill: #ff8c00; fill-opacity: 0.8"/>
    </g>
    <g clip-path="url(#p2219e06604)">
     <use xlink:href="#C0_0_bb77f76d03" x="100.149429" y="84.700573" style="fill: #ff8c00; fill-opacity: 0.8"/>
    </g>
    <g clip-path="url(#p2219e06604)">
     <use xlink:href="#C0_0_bb77f76d03" x="100.149429" y="68.289562" style="fill: #ff8c00; fill-opacity: 0.8"/>
    </g>
    <g clip-path="url(#p2219e06604)">
     <use xlink:href="#C0_0_bb77f76d03" x="120.454301" y="45.314147" style="fill: #ff8c00; fill-opacity: 0.8"/>
    </g>
    <g clip-path="url(#p2219e06604)">
     <use xlink:href="#C0_0_bb77f76d03" x="96.088455" y="84.700573" style="fill: #ff8c00; fill-opacity: 0.8"/>
    </g>
    <g clip-path="url(#p2219e06604)">
     <use xlink:href="#C0_0_bb77f76d03" x="96.088455" y="74.853966" style="fill: #ff8c00; fill-opacity: 0.8"/>
    </g>
    <g clip-path="url(#p2219e06604)">
     <use xlink:href="#C0_0_bb77f76d03" x="47.356762" y="78.136168" style="fill: #ff8c00; fill-opacity: 0.8"/>
    </g>
    <g clip-path="url(#p2219e06604)">
     <use xlink:href="#C0_0_bb77f76d03" x="108.271378" y="81.41837" style="fill: #ff8c00; fill-opacity: 0.8"/>
    </g>
    <g clip-path="url(#p2219e06604)">
     <use xlink:href="#C0_0_bb77f76d03" x="104.210404" y="78.136168" style="fill: #ff8c00; fill-opacity: 0.8"/>
    </g>
    <g clip-path="url(#p2219e06604)">
     <use xlink:href="#C0_0_bb77f76d03" x="120.454301" y="84.700573" style="fill: #ff8c00; fill-opacity: 0.8"/>
    </g>
    <g clip-path="url(#p2219e06604)">
     <use xlink:href="#C0_0_bb77f76d03" x="136.698199" y="84.700573" style="fill: #ff8c00; fill-opacity: 0.8"/>
    </g>
    <g clip-path="url(#p2219e06604)">
     <use xlink:href="#C0_0_bb77f76d03" x="120.454301" y="81.41837" style="fill: #ff8c00; fill-opacity: 0.8"/>
    </g>
    <g clip-path="url(#p2219e06604)">
     <use xlink:href="#C0_0_bb77f76d03" x="39.234813" y="81.41837" style="fill: #ff8c00; fill-opacity: 0.8"/>
    </g>
    <g clip-path="url(#p2219e06604)">
     <use xlink:href="#C0_0_bb77f76d03" x="92.02748" y="81.41837" style="fill: #ff8c00; fill-opacity: 0.8"/>
    </g>
    <g clip-path="url(#p2219e06604)">
     <use xlink:href="#C0_0_bb77f76d03" x="112.332352" y="71.571764" style="fill: #ff8c00; fill-opacity: 0.8"/>
    </g>
    <g clip-path="url(#p2219e06604)">
     <use xlink:href="#C0_0_bb77f76d03" x="132.637224" y="81.41837" style="fill: #ff8c00; fill-opacity: 0.8"/>
    </g>
    <g clip-path="url(#p2219e06604)">
     <use xlink:href="#C0_0_bb77f76d03" x="108.271378" y="84.700573" style="fill: #ff8c00; fill-opacity: 0.8"/>
    </g>
    <g clip-path="url(#p2219e06604)">
     <use xlink:href="#C0_0_bb77f76d03" x="79.844557" y="58.442956" style="fill: #ff8c00; fill-opacity: 0.8"/>
    </g>
    <g clip-path="url(#p2219e06604)">
     <use xlink:href="#C0_0_bb77f76d03" x="128.57625" y="84.700573" style="fill: #ff8c00; fill-opacity: 0.8"/>
    </g>
    <g clip-path="url(#p2219e06604)">
     <use xlink:href="#C0_0_bb77f76d03" x="79.844557" y="84.700573" style="fill: #ff8c00; fill-opacity: 0.8"/>
    </g>
    <g clip-path="url(#p2219e06604)">
     <use xlink:href="#C0_0_bb77f76d03" x="128.57625" y="51.878551" style="fill: #ff8c00; fill-opacity: 0.8"/>
    </g>
    <g clip-path="url(#p2219e06604)">
     <use xlink:href="#C0_0_bb77f76d03" x="79.844557" y="84.700573" style="fill: #ff8c00; fill-opacity: 0.8"/>
    </g>
    <g clip-path="url(#p2219e06604)">
     <use xlink:href="#C0_0_bb77f76d03" x="71.722608" y="84.700573" style="fill: #ff8c00; fill-opacity: 0.8"/>
    </g>
    <g clip-path="url(#p2219e06604)">
     <use xlink:href="#C0_0_bb77f76d03" x="120.454301" y="74.853966" style="fill: #ff8c00; fill-opacity: 0.8"/>
    </g>
    <g clip-path="url(#p2219e06604)">
     <use xlink:href="#C0_0_bb77f76d03" x="124.515276" y="84.700573" style="fill: #ff8c00; fill-opacity: 0.8"/>
    </g>
    <g clip-path="url(#p2219e06604)">
     <use xlink:href="#C0_0_bb77f76d03" x="39.234813" y="35.467541" style="fill: #ff8c00; fill-opacity: 0.8"/>
    </g>
    <g clip-path="url(#p2219e06604)">
     <use xlink:href="#C0_0_bb77f76d03" x="120.454301" y="81.41837" style="fill: #ff8c00; fill-opacity: 0.8"/>
    </g>
    <g clip-path="url(#p2219e06604)">
     <use xlink:href="#C0_0_bb77f76d03" x="96.088455" y="78.136168" style="fill: #ff8c00; fill-opacity: 0.8"/>
    </g>
    <g clip-path="url(#p2219e06604)">
     <use xlink:href="#C0_0_bb77f76d03" x="104.210404" y="78.136168" style="fill: #ff8c00; fill-opacity: 0.8"/>
    </g>
    <g clip-path="url(#p2219e06604)">
     <use xlink:href="#C0_0_bb77f76d03" x="108.271378" y="84.700573" style="fill: #ff8c00; fill-opacity: 0.8"/>
    </g>
    <g clip-path="url(#p2219e06604)">
     <use xlink:href="#C0_0_bb77f76d03" x="108.271378" y="81.41837" style="fill: #ff8c00; fill-opacity: 0.8"/>
    </g>
    <g clip-path="url(#p2219e06604)">
     <use xlink:href="#C0_0_bb77f76d03" x="128.57625" y="84.700573" style="fill: #ff8c00; fill-opacity: 0.8"/>
    </g>
    <g clip-path="url(#p2219e06604)">
     <use xlink:href="#C0_0_bb77f76d03" x="96.088455" y="84.700573" style="fill: #ff8c00; fill-opacity: 0.8"/>
    </g>
    <g clip-path="url(#p2219e06604)">
     <use xlink:href="#C0_0_bb77f76d03" x="96.088455" y="84.700573" style="fill: #ff8c00; fill-opacity: 0.8"/>
    </g>
    <g clip-path="url(#p2219e06604)">
     <use xlink:href="#C0_0_bb77f76d03" x="108.271378" y="84.700573" style="fill: #ff8c00; fill-opacity: 0.8"/>
    </g>
    <g clip-path="url(#p2219e06604)">
     <use xlink:href="#C0_0_bb77f76d03" x="63.600659" y="74.853966" style="fill: #ff8c00; fill-opacity: 0.8"/>
    </g>
    <g clip-path="url(#p2219e06604)">
     <use xlink:href="#C0_0_bb77f76d03" x="120.454301" y="84.700573" style="fill: #ff8c00; fill-opacity: 0.8"/>
    </g>
    <g clip-path="url(#p2219e06604)">
     <use xlink:href="#C0_0_bb77f76d03" x="116.393327" y="71.571764" style="fill: #ff8c00; fill-opacity: 0.8"/>
    </g>
    <g clip-path="url(#p2219e06604)">
     <use xlink:href="#C0_0_bb77f76d03" x="79.844557" y="74.853966" style="fill: #ff8c00; fill-opacity: 0.8"/>
    </g>
    <g clip-path="url(#p2219e06604)">
     <use xlink:href="#C0_0_bb77f76d03" x="120.454301" y="84.700573" style="fill: #ff8c00; fill-opacity: 0.8"/>
    </g>
    <g clip-path="url(#p2219e06604)">
     <use xlink:href="#C0_0_bb77f76d03" x="112.332352" y="68.289562" style="fill: #ff8c00; fill-opacity: 0.8"/>
    </g>
    <g clip-path="url(#p2219e06604)">
     <use xlink:href="#C0_0_bb77f76d03" x="128.57625" y="84.700573" style="fill: #ff8c00; fill-opacity: 0.8"/>
    </g>
    <g clip-path="url(#p2219e06604)">
     <use xlink:href="#C0_0_bb77f76d03" x="112.332352" y="71.571764" style="fill: #ff8c00; fill-opacity: 0.8"/>
    </g>
    <g clip-path="url(#p2219e06604)">
     <use xlink:href="#C0_0_bb77f76d03" x="128.57625" y="61.725158" style="fill: #ff8c00; fill-opacity: 0.8"/>
    </g>
    <g clip-path="url(#p2219e06604)">
     <use xlink:href="#C0_0_bb77f76d03" x="63.600659" y="84.700573" style="fill: #ff8c00; fill-opacity: 0.8"/>
    </g>
    <g clip-path="url(#p2219e06604)">
     <use xlink:href="#C0_0_bb77f76d03" x="92.02748" y="84.700573" style="fill: #ff8c00; fill-opacity: 0.8"/>
    </g>
    <g clip-path="url(#p2219e06604)">
     <use xlink:href="#C0_0_bb77f76d03" x="100.149429" y="74.853966" style="fill: #ff8c00; fill-opacity: 0.8"/>
    </g>
    <g clip-path="url(#p2219e06604)">
     <use xlink:href="#C0_0_bb77f76d03" x="83.905531" y="84.700573" style="fill: #ff8c00; fill-opacity: 0.8"/>
    </g>
    <g clip-path="url(#p2219e06604)">
     <use xlink:href="#C0_0_bb77f76d03" x="112.332352" y="81.41837" style="fill: #ff8c00; fill-opacity: 0.8"/>
    </g>
    <g clip-path="url(#p2219e06604)">
     <use xlink:href="#C0_0_bb77f76d03" x="100.149429" y="65.00736" style="fill: #ff8c00; fill-opacity: 0.8"/>
    </g>
    <g clip-path="url(#p2219e06604)">
     <use xlink:href="#C0_0_bb77f76d03" x="79.844557" y="78.136168" style="fill: #ff8c00; fill-opacity: 0.8"/>
    </g>
    <g clip-path="url(#p2219e06604)">
     <use xlink:href="#C0_0_bb77f76d03" x="124.515276" y="78.136168" style="fill: #ff8c00; fill-opacity: 0.8"/>
    </g>
    <g clip-path="url(#p2219e06604)">
     <use xlink:href="#C0_0_bb77f76d03" x="96.088455" y="74.853966" style="fill: #ff8c00; fill-opacity: 0.8"/>
    </g>
    <g clip-path="url(#p2219e06604)">
     <use xlink:href="#C0_0_bb77f76d03" x="100.149429" y="81.41837" style="fill: #ff8c00; fill-opacity: 0.8"/>
    </g>
    <g clip-path="url(#p2219e06604)">
     <use xlink:href="#C0_0_bb77f76d03" x="108.271378" y="81.41837" style="fill: #ff8c00; fill-opacity: 0.8"/>
    </g>
    <g clip-path="url(#p2219e06604)">
     <use xlink:href="#C0_0_bb77f76d03" x="87.966506" y="84.700573" style="fill: #ff8c00; fill-opacity: 0.8"/>
    </g>
    <g clip-path="url(#p2219e06604)">
     <use xlink:href="#C0_0_bb77f76d03" x="120.454301" y="81.41837" style="fill: #ff8c00; fill-opacity: 0.8"/>
    </g>
    <g clip-path="url(#p2219e06604)">
     <use xlink:href="#C0_0_bb77f76d03" x="79.844557" y="84.700573" style="fill: #ff8c00; fill-opacity: 0.8"/>
    </g>
    <g clip-path="url(#p2219e06604)">
     <use xlink:href="#C0_0_bb77f76d03" x="120.454301" y="81.41837" style="fill: #ff8c00; fill-opacity: 0.8"/>
    </g>
    <g clip-path="url(#p2219e06604)">
     <use xlink:href="#C0_0_bb77f76d03" x="87.966506" y="84.700573" style="fill: #ff8c00; fill-opacity: 0.8"/>
    </g>
    <g clip-path="url(#p2219e06604)">
     <use xlink:href="#C0_0_bb77f76d03" x="96.088455" y="81.41837" style="fill: #ff8c00; fill-opacity: 0.8"/>
    </g>
    <g clip-path="url(#p2219e06604)">
     <use xlink:href="#C0_0_bb77f76d03" x="104.210404" y="84.700573" style="fill: #ff8c00; fill-opacity: 0.8"/>
    </g>
    <g clip-path="url(#p2219e06604)">
     <use xlink:href="#C0_0_bb77f76d03" x="128.57625" y="78.136168" style="fill: #ff8c00; fill-opacity: 0.8"/>
    </g>
    <g clip-path="url(#p2219e06604)">
     <use xlink:href="#C0_0_bb77f76d03" x="92.02748" y="84.700573" style="fill: #ff8c00; fill-opacity: 0.8"/>
    </g>
    <g clip-path="url(#p2219e06604)">
     <use xlink:href="#C0_0_bb77f76d03" x="104.210404" y="84.700573" style="fill: #ff8c00; fill-opacity: 0.8"/>
    </g>
    <g clip-path="url(#p2219e06604)">
     <use xlink:href="#C0_0_bb77f76d03" x="112.332352" y="84.700573" style="fill: #ff8c00; fill-opacity: 0.8"/>
    </g>
    <g clip-path="url(#p2219e06604)">
     <use xlink:href="#C0_0_bb77f76d03" x="100.149429" y="84.700573" style="fill: #ff8c00; fill-opacity: 0.8"/>
    </g>
    <g clip-path="url(#p2219e06604)">
     <use xlink:href="#C0_0_bb77f76d03" x="128.57625" y="71.571764" style="fill: #ff8c00; fill-opacity: 0.8"/>
    </g>
    <g clip-path="url(#p2219e06604)">
     <use xlink:href="#C0_0_bb77f76d03" x="92.02748" y="84.700573" style="fill: #ff8c00; fill-opacity: 0.8"/>
    </g>
    <g clip-path="url(#p2219e06604)">
     <use xlink:href="#C0_0_bb77f76d03" x="124.515276" y="84.700573" style="fill: #ff8c00; fill-opacity: 0.8"/>
    </g>
    <g clip-path="url(#p2219e06604)">
     <use xlink:href="#C0_0_bb77f76d03" x="96.088455" y="78.136168" style="fill: #ff8c00; fill-opacity: 0.8"/>
    </g>
    <g clip-path="url(#p2219e06604)">
     <use xlink:href="#C0_0_bb77f76d03" x="104.210404" y="84.700573" style="fill: #ff8c00; fill-opacity: 0.8"/>
    </g>
    <g clip-path="url(#p2219e06604)">
     <use xlink:href="#C0_0_bb77f76d03" x="104.210404" y="81.41837" style="fill: #ff8c00; fill-opacity: 0.8"/>
    </g>
    <g clip-path="url(#p2219e06604)">
     <use xlink:href="#C0_0_bb77f76d03" x="87.966506" y="61.725158" style="fill: #ff8c00; fill-opacity: 0.8"/>
    </g>
    <g clip-path="url(#p2219e06604)">
     <use xlink:href="#C0_0_bb77f76d03" x="92.02748" y="81.41837" style="fill: #ff8c00; fill-opacity: 0.8"/>
    </g>
    <g clip-path="url(#p2219e06604)">
     <use xlink:href="#C0_0_bb77f76d03" x="104.210404" y="84.700573" style="fill: #ff8c00; fill-opacity: 0.8"/>
    </g>
    <g clip-path="url(#p2219e06604)">
     <use xlink:href="#C0_0_bb77f76d03" x="100.149429" y="84.700573" style="fill: #ff8c00; fill-opacity: 0.8"/>
    </g>
    <g clip-path="url(#p2219e06604)">
     <use xlink:href="#C0_0_bb77f76d03" x="120.454301" y="84.700573" style="fill: #ff8c00; fill-opacity: 0.8"/>
    </g>
    <g clip-path="url(#p2219e06604)">
     <use xlink:href="#C0_0_bb77f76d03" x="96.088455" y="78.136168" style="fill: #ff8c00; fill-opacity: 0.8"/>
    </g>
    <g clip-path="url(#p2219e06604)">
     <use xlink:href="#C0_0_bb77f76d03" x="112.332352" y="81.41837" style="fill: #ff8c00; fill-opacity: 0.8"/>
    </g>
    <g clip-path="url(#p2219e06604)">
     <use xlink:href="#C0_0_bb77f76d03" x="120.454301" y="81.41837" style="fill: #ff8c00; fill-opacity: 0.8"/>
    </g>
    <g clip-path="url(#p2219e06604)">
     <use xlink:href="#C0_0_bb77f76d03" x="79.844557" y="81.41837" style="fill: #ff8c00; fill-opacity: 0.8"/>
    </g>
    <g clip-path="url(#p2219e06604)">
     <use xlink:href="#C0_0_bb77f76d03" x="128.57625" y="84.700573" style="fill: #ff8c00; fill-opacity: 0.8"/>
    </g>
    <g clip-path="url(#p2219e06604)">
     <use xlink:href="#C0_0_bb77f76d03" x="120.454301" y="84.700573" style="fill: #ff8c00; fill-opacity: 0.8"/>
    </g>
    <g clip-path="url(#p2219e06604)">
     <use xlink:href="#C0_0_bb77f76d03" x="108.271378" y="84.700573" style="fill: #ff8c00; fill-opacity: 0.8"/>
    </g>
    <g clip-path="url(#p2219e06604)">
     <use xlink:href="#C0_0_bb77f76d03" x="79.844557" y="9.209924" style="fill: #ff8c00; fill-opacity: 0.8"/>
    </g>
    <g clip-path="url(#p2219e06604)">
     <use xlink:href="#C0_0_bb77f76d03" x="112.332352" y="84.700573" style="fill: #ff8c00; fill-opacity: 0.8"/>
    </g>
    <g clip-path="url(#p2219e06604)">
     <use xlink:href="#C0_0_bb77f76d03" x="124.515276" y="84.700573" style="fill: #ff8c00; fill-opacity: 0.8"/>
    </g>
    <g clip-path="url(#p2219e06604)">
     <use xlink:href="#C0_0_bb77f76d03" x="128.57625" y="84.700573" style="fill: #ff8c00; fill-opacity: 0.8"/>
    </g>
    <g clip-path="url(#p2219e06604)">
     <use xlink:href="#C0_0_bb77f76d03" x="47.356762" y="61.725158" style="fill: #ff8c00; fill-opacity: 0.8"/>
    </g>
    <g clip-path="url(#p2219e06604)">
     <use xlink:href="#C0_0_bb77f76d03" x="112.332352" y="81.41837" style="fill: #ff8c00; fill-opacity: 0.8"/>
    </g>
    <g clip-path="url(#p2219e06604)">
     <use xlink:href="#C0_0_bb77f76d03" x="100.149429" y="81.41837" style="fill: #ff8c00; fill-opacity: 0.8"/>
    </g>
    <g clip-path="url(#p2219e06604)">
     <use xlink:href="#C0_0_bb77f76d03" x="112.332352" y="71.571764" style="fill: #ff8c00; fill-opacity: 0.8"/>
    </g>
    <g clip-path="url(#p2219e06604)">
     <use xlink:href="#C0_0_bb77f76d03" x="124.515276" y="84.700573" style="fill: #ff8c00; fill-opacity: 0.8"/>
    </g>
    <g clip-path="url(#p2219e06604)">
     <use xlink:href="#C0_0_bb77f76d03" x="108.271378" y="84.700573" style="fill: #ff8c00; fill-opacity: 0.8"/>
    </g>
    <g clip-path="url(#p2219e06604)">
     <use xlink:href="#C0_0_bb77f76d03" x="112.332352" y="84.700573" style="fill: #ff8c00; fill-opacity: 0.8"/>
    </g>
    <g clip-path="url(#p2219e06604)">
     <use xlink:href="#C0_0_bb77f76d03" x="132.637224" y="84.700573" style="fill: #ff8c00; fill-opacity: 0.8"/>
    </g>
    <g clip-path="url(#p2219e06604)">
     <use xlink:href="#C0_0_bb77f76d03" x="63.600659" y="68.289562" style="fill: #ff8c00; fill-opacity: 0.8"/>
    </g>
   </g>
   <g id="PolyCollection_1">
    <path d="M 31.112864 64.771334 
L 31.112864 79.850248 
L 32.261423 79.849254 
L 33.409981 79.845288 
L 34.558539 79.841207 
L 35.707098 79.842745 
L 36.855656 79.833225 
L 38.004215 79.829164 
L 39.152773 79.825699 
L 40.301332 79.821963 
L 41.44989 79.817344 
L 42.598448 79.81638 
L 43.747007 79.809144 
L 44.895565 79.805302 
L 46.044124 79.801224 
L 47.192682 79.797242 
L 48.34124 79.789066 
L 49.489799 79.781612 
L 50.638357 79.775128 
L 51.786916 79.771086 
L 52.935474 79.764734 
L 54.084033 79.7611 
L 55.232591 79.759604 
L 56.381149 79.753675 
L 57.529708 79.748704 
L 58.678266 79.744377 
L 59.826825 79.733399 
L 60.975383 79.723904 
L 62.123941 79.713346 
L 63.2725 79.708537 
L 64.421058 79.69375 
L 65.569617 79.697153 
L 66.718175 79.692878 
L 67.866734 79.691577 
L 69.015292 79.688686 
L 70.16385 79.686777 
L 71.312409 79.691229 
L 72.460967 79.693938 
L 73.609526 79.69415 
L 74.758084 79.687814 
L 75.906643 79.681912 
L 77.055201 79.688222 
L 78.203759 79.695333 
L 79.352318 79.702661 
L 80.500876 79.696928 
L 81.649435 79.700492 
L 82.797993 79.696874 
L 83.946551 79.701941 
L 85.09511 79.709004 
L 86.243668 79.721753 
L 87.392227 79.732937 
L 88.540785 79.737253 
L 89.689344 79.738007 
L 90.837902 79.762484 
L 91.98646 79.786022 
L 93.135019 79.793845 
L 94.283577 79.819464 
L 95.432136 79.846805 
L 96.580694 79.873311 
L 97.729252 79.900667 
L 98.877811 79.924841 
L 100.026369 79.954929 
L 101.174928 79.98236 
L 102.323486 80.025289 
L 103.472045 80.066715 
L 104.620603 80.116178 
L 105.769161 80.176605 
L 106.91772 80.247833 
L 108.066278 80.319539 
L 109.214837 80.392772 
L 110.363395 80.476082 
L 111.511953 80.574786 
L 112.660512 80.679125 
L 113.80907 80.780102 
L 114.957629 80.890435 
L 116.106187 81.012039 
L 117.254746 81.146772 
L 118.403304 81.279278 
L 119.551862 81.427224 
L 120.700421 81.574543 
L 121.848979 81.739073 
L 122.997538 81.892031 
L 124.146096 82.054913 
L 125.294655 82.223873 
L 126.443213 82.407098 
L 127.591771 82.598165 
L 128.74033 82.780004 
L 129.888888 82.9626 
L 131.037447 83.145912 
L 132.186005 83.328362 
L 133.334563 83.517026 
L 134.483122 83.710768 
L 135.63168 83.887072 
L 136.780239 84.073571 
L 137.928797 84.273319 
L 139.077356 84.462497 
L 140.225914 84.653975 
L 141.374472 84.841396 
L 142.523031 85.031479 
L 143.671589 85.222418 
L 144.820148 85.408403 
L 144.820148 78.586302 
L 144.820148 78.586302 
L 143.671589 78.587731 
L 142.523031 78.583043 
L 141.374472 78.578155 
L 140.225914 78.579363 
L 139.077356 78.594166 
L 137.928797 78.597092 
L 136.780239 78.583043 
L 135.63168 78.574769 
L 134.483122 78.555718 
L 133.334563 78.550804 
L 132.186005 78.533059 
L 131.037447 78.522581 
L 129.888888 78.513469 
L 128.74033 78.49877 
L 127.591771 78.48302 
L 126.443213 78.455636 
L 125.294655 78.432527 
L 124.146096 78.412456 
L 122.997538 78.388267 
L 121.848979 78.367876 
L 120.700421 78.323003 
L 119.551862 78.287035 
L 118.403304 78.246747 
L 117.254746 78.185252 
L 116.106187 78.125958 
L 114.957629 78.069903 
L 113.80907 77.99406 
L 112.660512 77.910671 
L 111.511953 77.81595 
L 110.363395 77.729061 
L 109.214837 77.626999 
L 108.066278 77.523425 
L 106.91772 77.396228 
L 105.769161 77.271473 
L 104.620603 77.137739 
L 103.472045 77.000743 
L 102.323486 76.867828 
L 101.174928 76.718358 
L 100.026369 76.557139 
L 98.877811 76.381019 
L 97.729252 76.211086 
L 96.580694 76.032101 
L 95.432136 75.855035 
L 94.283577 75.675167 
L 93.135019 75.492506 
L 91.98646 75.294283 
L 90.837902 75.10177 
L 89.689344 74.916083 
L 88.540785 74.726895 
L 87.392227 74.544362 
L 86.243668 74.364417 
L 85.09511 74.188297 
L 83.946551 73.993971 
L 82.797993 73.782338 
L 81.649435 73.587142 
L 80.500876 73.38114 
L 79.352318 73.195968 
L 78.203759 73.010524 
L 77.055201 72.803547 
L 75.906643 72.611801 
L 74.758084 72.413639 
L 73.609526 72.215856 
L 72.460967 72.020249 
L 71.312409 71.814061 
L 70.16385 71.620274 
L 69.015292 71.431209 
L 67.866734 71.236159 
L 66.718175 71.043874 
L 65.569617 70.842557 
L 64.421058 70.638383 
L 63.2725 70.44447 
L 62.123941 70.246776 
L 60.975383 70.051329 
L 59.826825 69.837589 
L 58.678266 69.620884 
L 57.529708 69.414224 
L 56.381149 69.222164 
L 55.232591 69.020163 
L 54.084033 68.812897 
L 52.935474 68.622147 
L 51.786916 68.433667 
L 50.638357 68.240409 
L 49.489799 68.047732 
L 48.34124 67.833801 
L 47.192682 67.64005 
L 46.044124 67.438905 
L 44.895565 67.234868 
L 43.747007 67.032199 
L 42.598448 66.831238 
L 41.44989 66.628367 
L 40.301332 66.424946 
L 39.152773 66.214682 
L 38.004215 66.008578 
L 36.855656 65.800393 
L 35.707098 65.592763 
L 34.558539 65.389735 
L 33.409981 65.194686 
L 32.261423 64.977576 
L 31.112864 64.771334 
z
" clip-path="url(#p2219e06604)" style="fill: #ff8c00; fill-opacity: 0.15"/>
   </g>
   <g id="matplotlib.axis_1">
    <g id="xtick_1">
     <g id="line2d_1">
      <defs>
       <path id="m6f396cd8cb" d="M 0 0 
L 0 3.5 
" style="stroke: #000000; stroke-width: 0.25"/>
      </defs>
      <g>
       <use xlink:href="#m6f396cd8cb" x="39.234813" y="89.218327" style="stroke: #000000; stroke-width: 0.25"/>
      </g>
     </g>
     <g id="text_1">
      <!-- 8 -->
      <g transform="translate(37.844579 97.297233) scale(0.05 -0.05)">
       <defs>
        <path id="ArialMT-38" d="M 1131 2484 
Q 781 2613 612 2850 
Q 444 3088 444 3419 
Q 444 3919 803 4259 
Q 1163 4600 1759 4600 
Q 2359 4600 2725 4251 
Q 3091 3903 3091 3403 
Q 3091 3084 2923 2848 
Q 2756 2613 2416 2484 
Q 2838 2347 3058 2040 
Q 3278 1734 3278 1309 
Q 3278 722 2862 322 
Q 2447 -78 1769 -78 
Q 1091 -78 675 323 
Q 259 725 259 1325 
Q 259 1772 486 2073 
Q 713 2375 1131 2484 
z
M 1019 3438 
Q 1019 3113 1228 2906 
Q 1438 2700 1772 2700 
Q 2097 2700 2305 2904 
Q 2513 3109 2513 3406 
Q 2513 3716 2298 3927 
Q 2084 4138 1766 4138 
Q 1444 4138 1231 3931 
Q 1019 3725 1019 3438 
z
M 838 1322 
Q 838 1081 952 856 
Q 1066 631 1291 507 
Q 1516 384 1775 384 
Q 2178 384 2440 643 
Q 2703 903 2703 1303 
Q 2703 1709 2433 1975 
Q 2163 2241 1756 2241 
Q 1359 2241 1098 1978 
Q 838 1716 838 1322 
z
" transform="scale(0.015625)"/>
       </defs>
       <use xlink:href="#ArialMT-38"/>
      </g>
     </g>
    </g>
    <g id="xtick_2">
     <g id="line2d_2">
      <g>
       <use xlink:href="#m6f396cd8cb" x="55.478711" y="89.218327" style="stroke: #000000; stroke-width: 0.25"/>
      </g>
     </g>
     <g id="text_2">
      <!-- 10 -->
      <g transform="translate(52.698242 97.297233) scale(0.05 -0.05)">
       <defs>
        <path id="ArialMT-31" d="M 2384 0 
L 1822 0 
L 1822 3584 
Q 1619 3391 1289 3197 
Q 959 3003 697 2906 
L 697 3450 
Q 1169 3672 1522 3987 
Q 1875 4303 2022 4600 
L 2384 4600 
L 2384 0 
z
" transform="scale(0.015625)"/>
        <path id="ArialMT-30" d="M 266 2259 
Q 266 3072 433 3567 
Q 600 4063 929 4331 
Q 1259 4600 1759 4600 
Q 2128 4600 2406 4451 
Q 2684 4303 2865 4023 
Q 3047 3744 3150 3342 
Q 3253 2941 3253 2259 
Q 3253 1453 3087 958 
Q 2922 463 2592 192 
Q 2263 -78 1759 -78 
Q 1097 -78 719 397 
Q 266 969 266 2259 
z
M 844 2259 
Q 844 1131 1108 757 
Q 1372 384 1759 384 
Q 2147 384 2411 759 
Q 2675 1134 2675 2259 
Q 2675 3391 2411 3762 
Q 2147 4134 1753 4134 
Q 1366 4134 1134 3806 
Q 844 3388 844 2259 
z
" transform="scale(0.015625)"/>
       </defs>
       <use xlink:href="#ArialMT-31"/>
       <use xlink:href="#ArialMT-30" x="55.615234"/>
      </g>
     </g>
    </g>
    <g id="xtick_3">
     <g id="line2d_3">
      <g>
       <use xlink:href="#m6f396cd8cb" x="71.722608" y="89.218327" style="stroke: #000000; stroke-width: 0.25"/>
      </g>
     </g>
     <g id="text_3">
      <!-- 12 -->
      <g transform="translate(68.94214 97.297233) scale(0.05 -0.05)">
       <defs>
        <path id="ArialMT-32" d="M 3222 541 
L 3222 0 
L 194 0 
Q 188 203 259 391 
Q 375 700 629 1000 
Q 884 1300 1366 1694 
Q 2113 2306 2375 2664 
Q 2638 3022 2638 3341 
Q 2638 3675 2398 3904 
Q 2159 4134 1775 4134 
Q 1369 4134 1125 3890 
Q 881 3647 878 3216 
L 300 3275 
Q 359 3922 746 4261 
Q 1134 4600 1788 4600 
Q 2447 4600 2831 4234 
Q 3216 3869 3216 3328 
Q 3216 3053 3103 2787 
Q 2991 2522 2730 2228 
Q 2469 1934 1863 1422 
Q 1356 997 1212 845 
Q 1069 694 975 541 
L 3222 541 
z
" transform="scale(0.015625)"/>
       </defs>
       <use xlink:href="#ArialMT-31"/>
       <use xlink:href="#ArialMT-32" x="55.615234"/>
      </g>
     </g>
    </g>
    <g id="xtick_4">
     <g id="line2d_4">
      <g>
       <use xlink:href="#m6f396cd8cb" x="87.966506" y="89.218327" style="stroke: #000000; stroke-width: 0.25"/>
      </g>
     </g>
     <g id="text_4">
      <!-- 14 -->
      <g transform="translate(85.186037 97.297233) scale(0.05 -0.05)">
       <defs>
        <path id="ArialMT-34" d="M 2069 0 
L 2069 1097 
L 81 1097 
L 81 1613 
L 2172 4581 
L 2631 4581 
L 2631 1613 
L 3250 1613 
L 3250 1097 
L 2631 1097 
L 2631 0 
L 2069 0 
z
M 2069 1613 
L 2069 3678 
L 634 1613 
L 2069 1613 
z
" transform="scale(0.015625)"/>
       </defs>
       <use xlink:href="#ArialMT-31"/>
       <use xlink:href="#ArialMT-34" x="55.615234"/>
      </g>
     </g>
    </g>
    <g id="xtick_5">
     <g id="line2d_5">
      <g>
       <use xlink:href="#m6f396cd8cb" x="104.210404" y="89.218327" style="stroke: #000000; stroke-width: 0.25"/>
      </g>
     </g>
     <g id="text_5">
      <!-- 16 -->
      <g transform="translate(101.429935 97.297233) scale(0.05 -0.05)">
       <defs>
        <path id="ArialMT-36" d="M 3184 3459 
L 2625 3416 
Q 2550 3747 2413 3897 
Q 2184 4138 1850 4138 
Q 1581 4138 1378 3988 
Q 1113 3794 959 3422 
Q 806 3050 800 2363 
Q 1003 2672 1297 2822 
Q 1591 2972 1913 2972 
Q 2475 2972 2870 2558 
Q 3266 2144 3266 1488 
Q 3266 1056 3080 686 
Q 2894 316 2569 119 
Q 2244 -78 1831 -78 
Q 1128 -78 684 439 
Q 241 956 241 2144 
Q 241 3472 731 4075 
Q 1159 4600 1884 4600 
Q 2425 4600 2770 4297 
Q 3116 3994 3184 3459 
z
M 888 1484 
Q 888 1194 1011 928 
Q 1134 663 1356 523 
Q 1578 384 1822 384 
Q 2178 384 2434 671 
Q 2691 959 2691 1453 
Q 2691 1928 2437 2201 
Q 2184 2475 1800 2475 
Q 1419 2475 1153 2201 
Q 888 1928 888 1484 
z
" transform="scale(0.015625)"/>
       </defs>
       <use xlink:href="#ArialMT-31"/>
       <use xlink:href="#ArialMT-36" x="55.615234"/>
      </g>
     </g>
    </g>
    <g id="xtick_6">
     <g id="line2d_6">
      <g>
       <use xlink:href="#m6f396cd8cb" x="120.454301" y="89.218327" style="stroke: #000000; stroke-width: 0.25"/>
      </g>
     </g>
     <g id="text_6">
      <!-- 18 -->
      <g transform="translate(117.673832 97.297233) scale(0.05 -0.05)">
       <use xlink:href="#ArialMT-31"/>
       <use xlink:href="#ArialMT-38" x="55.615234"/>
      </g>
     </g>
    </g>
    <g id="xtick_7">
     <g id="line2d_7">
      <g>
       <use xlink:href="#m6f396cd8cb" x="136.698199" y="89.218327" style="stroke: #000000; stroke-width: 0.25"/>
      </g>
     </g>
     <g id="text_7">
      <!-- 20 -->
      <g transform="translate(133.91773 97.297233) scale(0.05 -0.05)">
       <use xlink:href="#ArialMT-32"/>
       <use xlink:href="#ArialMT-30" x="55.615234"/>
      </g>
     </g>
    </g>
    <g id="text_8">
     <!-- Parental education [a.u.] -->
     <g transform="translate(55.446506 106.585671) scale(0.06 -0.06)">
      <defs>
       <path id="ArialMT-50" d="M 494 0 
L 494 4581 
L 2222 4581 
Q 2678 4581 2919 4538 
Q 3256 4481 3484 4323 
Q 3713 4166 3852 3881 
Q 3991 3597 3991 3256 
Q 3991 2672 3619 2267 
Q 3247 1863 2275 1863 
L 1100 1863 
L 1100 0 
L 494 0 
z
M 1100 2403 
L 2284 2403 
Q 2872 2403 3119 2622 
Q 3366 2841 3366 3238 
Q 3366 3525 3220 3729 
Q 3075 3934 2838 4000 
Q 2684 4041 2272 4041 
L 1100 4041 
L 1100 2403 
z
" transform="scale(0.015625)"/>
       <path id="ArialMT-61" d="M 2588 409 
Q 2275 144 1986 34 
Q 1697 -75 1366 -75 
Q 819 -75 525 192 
Q 231 459 231 875 
Q 231 1119 342 1320 
Q 453 1522 633 1644 
Q 813 1766 1038 1828 
Q 1203 1872 1538 1913 
Q 2219 1994 2541 2106 
Q 2544 2222 2544 2253 
Q 2544 2597 2384 2738 
Q 2169 2928 1744 2928 
Q 1347 2928 1158 2789 
Q 969 2650 878 2297 
L 328 2372 
Q 403 2725 575 2942 
Q 747 3159 1072 3276 
Q 1397 3394 1825 3394 
Q 2250 3394 2515 3294 
Q 2781 3194 2906 3042 
Q 3031 2891 3081 2659 
Q 3109 2516 3109 2141 
L 3109 1391 
Q 3109 606 3145 398 
Q 3181 191 3288 0 
L 2700 0 
Q 2613 175 2588 409 
z
M 2541 1666 
Q 2234 1541 1622 1453 
Q 1275 1403 1131 1340 
Q 988 1278 909 1158 
Q 831 1038 831 891 
Q 831 666 1001 516 
Q 1172 366 1500 366 
Q 1825 366 2078 508 
Q 2331 650 2450 897 
Q 2541 1088 2541 1459 
L 2541 1666 
z
" transform="scale(0.015625)"/>
       <path id="ArialMT-72" d="M 416 0 
L 416 3319 
L 922 3319 
L 922 2816 
Q 1116 3169 1280 3281 
Q 1444 3394 1641 3394 
Q 1925 3394 2219 3213 
L 2025 2691 
Q 1819 2813 1613 2813 
Q 1428 2813 1281 2702 
Q 1134 2591 1072 2394 
Q 978 2094 978 1738 
L 978 0 
L 416 0 
z
" transform="scale(0.015625)"/>
       <path id="ArialMT-65" d="M 2694 1069 
L 3275 997 
Q 3138 488 2766 206 
Q 2394 -75 1816 -75 
Q 1088 -75 661 373 
Q 234 822 234 1631 
Q 234 2469 665 2931 
Q 1097 3394 1784 3394 
Q 2450 3394 2872 2941 
Q 3294 2488 3294 1666 
Q 3294 1616 3291 1516 
L 816 1516 
Q 847 969 1125 678 
Q 1403 388 1819 388 
Q 2128 388 2347 550 
Q 2566 713 2694 1069 
z
M 847 1978 
L 2700 1978 
Q 2663 2397 2488 2606 
Q 2219 2931 1791 2931 
Q 1403 2931 1139 2672 
Q 875 2413 847 1978 
z
" transform="scale(0.015625)"/>
       <path id="ArialMT-6e" d="M 422 0 
L 422 3319 
L 928 3319 
L 928 2847 
Q 1294 3394 1984 3394 
Q 2284 3394 2536 3286 
Q 2788 3178 2913 3003 
Q 3038 2828 3088 2588 
Q 3119 2431 3119 2041 
L 3119 0 
L 2556 0 
L 2556 2019 
Q 2556 2363 2490 2533 
Q 2425 2703 2258 2804 
Q 2091 2906 1866 2906 
Q 1506 2906 1245 2678 
Q 984 2450 984 1813 
L 984 0 
L 422 0 
z
" transform="scale(0.015625)"/>
       <path id="ArialMT-74" d="M 1650 503 
L 1731 6 
Q 1494 -44 1306 -44 
Q 1000 -44 831 53 
Q 663 150 594 308 
Q 525 466 525 972 
L 525 2881 
L 113 2881 
L 113 3319 
L 525 3319 
L 525 4141 
L 1084 4478 
L 1084 3319 
L 1650 3319 
L 1650 2881 
L 1084 2881 
L 1084 941 
Q 1084 700 1114 631 
Q 1144 563 1211 522 
Q 1278 481 1403 481 
Q 1497 481 1650 503 
z
" transform="scale(0.015625)"/>
       <path id="ArialMT-6c" d="M 409 0 
L 409 4581 
L 972 4581 
L 972 0 
L 409 0 
z
" transform="scale(0.015625)"/>
       <path id="ArialMT-20" transform="scale(0.015625)"/>
       <path id="ArialMT-64" d="M 2575 0 
L 2575 419 
Q 2259 -75 1647 -75 
Q 1250 -75 917 144 
Q 584 363 401 755 
Q 219 1147 219 1656 
Q 219 2153 384 2558 
Q 550 2963 881 3178 
Q 1213 3394 1622 3394 
Q 1922 3394 2156 3267 
Q 2391 3141 2538 2938 
L 2538 4581 
L 3097 4581 
L 3097 0 
L 2575 0 
z
M 797 1656 
Q 797 1019 1065 703 
Q 1334 388 1700 388 
Q 2069 388 2326 689 
Q 2584 991 2584 1609 
Q 2584 2291 2321 2609 
Q 2059 2928 1675 2928 
Q 1300 2928 1048 2622 
Q 797 2316 797 1656 
z
" transform="scale(0.015625)"/>
       <path id="ArialMT-75" d="M 2597 0 
L 2597 488 
Q 2209 -75 1544 -75 
Q 1250 -75 995 37 
Q 741 150 617 320 
Q 494 491 444 738 
Q 409 903 409 1263 
L 409 3319 
L 972 3319 
L 972 1478 
Q 972 1038 1006 884 
Q 1059 663 1231 536 
Q 1403 409 1656 409 
Q 1909 409 2131 539 
Q 2353 669 2445 892 
Q 2538 1116 2538 1541 
L 2538 3319 
L 3100 3319 
L 3100 0 
L 2597 0 
z
" transform="scale(0.015625)"/>
       <path id="ArialMT-63" d="M 2588 1216 
L 3141 1144 
Q 3050 572 2676 248 
Q 2303 -75 1759 -75 
Q 1078 -75 664 370 
Q 250 816 250 1647 
Q 250 2184 428 2587 
Q 606 2991 970 3192 
Q 1334 3394 1763 3394 
Q 2303 3394 2647 3120 
Q 2991 2847 3088 2344 
L 2541 2259 
Q 2463 2594 2264 2762 
Q 2066 2931 1784 2931 
Q 1359 2931 1093 2626 
Q 828 2322 828 1663 
Q 828 994 1084 691 
Q 1341 388 1753 388 
Q 2084 388 2306 591 
Q 2528 794 2588 1216 
z
" transform="scale(0.015625)"/>
       <path id="ArialMT-69" d="M 425 3934 
L 425 4581 
L 988 4581 
L 988 3934 
L 425 3934 
z
M 425 0 
L 425 3319 
L 988 3319 
L 988 0 
L 425 0 
z
" transform="scale(0.015625)"/>
       <path id="ArialMT-6f" d="M 213 1659 
Q 213 2581 725 3025 
Q 1153 3394 1769 3394 
Q 2453 3394 2887 2945 
Q 3322 2497 3322 1706 
Q 3322 1066 3130 698 
Q 2938 331 2570 128 
Q 2203 -75 1769 -75 
Q 1072 -75 642 372 
Q 213 819 213 1659 
z
M 791 1659 
Q 791 1022 1069 705 
Q 1347 388 1769 388 
Q 2188 388 2466 706 
Q 2744 1025 2744 1678 
Q 2744 2294 2464 2611 
Q 2184 2928 1769 2928 
Q 1347 2928 1069 2612 
Q 791 2297 791 1659 
z
" transform="scale(0.015625)"/>
       <path id="ArialMT-5b" d="M 434 -1272 
L 434 4581 
L 1675 4581 
L 1675 4116 
L 997 4116 
L 997 -806 
L 1675 -806 
L 1675 -1272 
L 434 -1272 
z
" transform="scale(0.015625)"/>
       <path id="ArialMT-2e" d="M 581 0 
L 581 641 
L 1222 641 
L 1222 0 
L 581 0 
z
" transform="scale(0.015625)"/>
       <path id="ArialMT-5d" d="M 1363 -1272 
L 122 -1272 
L 122 -806 
L 800 -806 
L 800 4116 
L 122 4116 
L 122 4581 
L 1363 4581 
L 1363 -1272 
z
" transform="scale(0.015625)"/>
      </defs>
      <use xlink:href="#ArialMT-50"/>
      <use xlink:href="#ArialMT-61" x="66.699219"/>
      <use xlink:href="#ArialMT-72" x="122.314453"/>
      <use xlink:href="#ArialMT-65" x="155.615234"/>
      <use xlink:href="#ArialMT-6e" x="211.230469"/>
      <use xlink:href="#ArialMT-74" x="266.845703"/>
      <use xlink:href="#ArialMT-61" x="294.628906"/>
      <use xlink:href="#ArialMT-6c" x="350.244141"/>
      <use xlink:href="#ArialMT-20" x="372.460938"/>
      <use xlink:href="#ArialMT-65" x="400.244141"/>
      <use xlink:href="#ArialMT-64" x="455.859375"/>
      <use xlink:href="#ArialMT-75" x="511.474609"/>
      <use xlink:href="#ArialMT-63" x="567.089844"/>
      <use xlink:href="#ArialMT-61" x="617.089844"/>
      <use xlink:href="#ArialMT-74" x="672.705078"/>
      <use xlink:href="#ArialMT-69" x="700.488281"/>
      <use xlink:href="#ArialMT-6f" x="722.705078"/>
      <use xlink:href="#ArialMT-6e" x="778.320312"/>
      <use xlink:href="#ArialMT-20" x="833.935547"/>
      <use xlink:href="#ArialMT-5b" x="861.71875"/>
      <use xlink:href="#ArialMT-61" x="889.501953"/>
      <use xlink:href="#ArialMT-2e" x="945.117188"/>
      <use xlink:href="#ArialMT-75" x="972.900391"/>
      <use xlink:href="#ArialMT-2e" x="1028.515625"/>
      <use xlink:href="#ArialMT-5d" x="1056.298828"/>
     </g>
    </g>
   </g>
   <g id="matplotlib.axis_2">
    <g id="ytick_1">
     <g id="line2d_8">
      <defs>
       <path id="m88bca8ebf0" d="M 0 0 
L -3.5 0 
" style="stroke: #000000; stroke-width: 0.25"/>
      </defs>
      <g>
       <use xlink:href="#m88bca8ebf0" x="25.4275" y="84.700573" style="stroke: #000000; stroke-width: 0.25"/>
      </g>
     </g>
     <g id="text_9">
      <!-- 0 -->
      <g transform="translate(18.147031 86.490026) scale(0.05 -0.05)">
       <use xlink:href="#ArialMT-30"/>
      </g>
     </g>
    </g>
    <g id="ytick_2">
     <g id="line2d_9">
      <g>
       <use xlink:href="#m88bca8ebf0" x="25.4275" y="68.289562" style="stroke: #000000; stroke-width: 0.25"/>
      </g>
     </g>
     <g id="text_10">
      <!-- 5 -->
      <g transform="translate(18.147031 70.079015) scale(0.05 -0.05)">
       <defs>
        <path id="ArialMT-35" d="M 266 1200 
L 856 1250 
Q 922 819 1161 601 
Q 1400 384 1738 384 
Q 2144 384 2425 690 
Q 2706 997 2706 1503 
Q 2706 1984 2436 2262 
Q 2166 2541 1728 2541 
Q 1456 2541 1237 2417 
Q 1019 2294 894 2097 
L 366 2166 
L 809 4519 
L 3088 4519 
L 3088 3981 
L 1259 3981 
L 1013 2750 
Q 1425 3038 1878 3038 
Q 2478 3038 2890 2622 
Q 3303 2206 3303 1553 
Q 3303 931 2941 478 
Q 2500 -78 1738 -78 
Q 1113 -78 717 272 
Q 322 622 266 1200 
z
" transform="scale(0.015625)"/>
       </defs>
       <use xlink:href="#ArialMT-35"/>
      </g>
     </g>
    </g>
    <g id="ytick_3">
     <g id="line2d_10">
      <g>
       <use xlink:href="#m88bca8ebf0" x="25.4275" y="51.878551" style="stroke: #000000; stroke-width: 0.25"/>
      </g>
     </g>
     <g id="text_11">
      <!-- 10 -->
      <g transform="translate(15.366562 53.668005) scale(0.05 -0.05)">
       <use xlink:href="#ArialMT-31"/>
       <use xlink:href="#ArialMT-30" x="55.615234"/>
      </g>
     </g>
    </g>
    <g id="ytick_4">
     <g id="line2d_11">
      <g>
       <use xlink:href="#m88bca8ebf0" x="25.4275" y="35.467541" style="stroke: #000000; stroke-width: 0.25"/>
      </g>
     </g>
     <g id="text_12">
      <!-- 15 -->
      <g transform="translate(15.366562 37.256994) scale(0.05 -0.05)">
       <use xlink:href="#ArialMT-31"/>
       <use xlink:href="#ArialMT-35" x="55.615234"/>
      </g>
     </g>
    </g>
    <g id="ytick_5">
     <g id="line2d_12">
      <g>
       <use xlink:href="#m88bca8ebf0" x="25.4275" y="19.05653" style="stroke: #000000; stroke-width: 0.25"/>
      </g>
     </g>
     <g id="text_13">
      <!-- 20 -->
      <g transform="translate(15.366562 20.845983) scale(0.05 -0.05)">
       <use xlink:href="#ArialMT-32"/>
       <use xlink:href="#ArialMT-30" x="55.615234"/>
      </g>
     </g>
    </g>
    <g id="text_14">
     <!-- Number infranormal deviations [a.u.] -->
     <g transform="translate(10.174062 95.661663) rotate(-90) scale(0.06 -0.06)">
      <defs>
       <path id="ArialMT-4e" d="M 488 0 
L 488 4581 
L 1109 4581 
L 3516 984 
L 3516 4581 
L 4097 4581 
L 4097 0 
L 3475 0 
L 1069 3600 
L 1069 0 
L 488 0 
z
" transform="scale(0.015625)"/>
       <path id="ArialMT-6d" d="M 422 0 
L 422 3319 
L 925 3319 
L 925 2853 
Q 1081 3097 1340 3245 
Q 1600 3394 1931 3394 
Q 2300 3394 2536 3241 
Q 2772 3088 2869 2813 
Q 3263 3394 3894 3394 
Q 4388 3394 4653 3120 
Q 4919 2847 4919 2278 
L 4919 0 
L 4359 0 
L 4359 2091 
Q 4359 2428 4304 2576 
Q 4250 2725 4106 2815 
Q 3963 2906 3769 2906 
Q 3419 2906 3187 2673 
Q 2956 2441 2956 1928 
L 2956 0 
L 2394 0 
L 2394 2156 
Q 2394 2531 2256 2718 
Q 2119 2906 1806 2906 
Q 1569 2906 1367 2781 
Q 1166 2656 1075 2415 
Q 984 2175 984 1722 
L 984 0 
L 422 0 
z
" transform="scale(0.015625)"/>
       <path id="ArialMT-62" d="M 941 0 
L 419 0 
L 419 4581 
L 981 4581 
L 981 2947 
Q 1338 3394 1891 3394 
Q 2197 3394 2470 3270 
Q 2744 3147 2920 2923 
Q 3097 2700 3197 2384 
Q 3297 2069 3297 1709 
Q 3297 856 2875 390 
Q 2453 -75 1863 -75 
Q 1275 -75 941 416 
L 941 0 
z
M 934 1684 
Q 934 1088 1097 822 
Q 1363 388 1816 388 
Q 2184 388 2453 708 
Q 2722 1028 2722 1663 
Q 2722 2313 2464 2622 
Q 2206 2931 1841 2931 
Q 1472 2931 1203 2611 
Q 934 2291 934 1684 
z
" transform="scale(0.015625)"/>
       <path id="ArialMT-66" d="M 556 0 
L 556 2881 
L 59 2881 
L 59 3319 
L 556 3319 
L 556 3672 
Q 556 4006 616 4169 
Q 697 4388 901 4523 
Q 1106 4659 1475 4659 
Q 1713 4659 2000 4603 
L 1916 4113 
Q 1741 4144 1584 4144 
Q 1328 4144 1222 4034 
Q 1116 3925 1116 3625 
L 1116 3319 
L 1763 3319 
L 1763 2881 
L 1116 2881 
L 1116 0 
L 556 0 
z
" transform="scale(0.015625)"/>
       <path id="ArialMT-76" d="M 1344 0 
L 81 3319 
L 675 3319 
L 1388 1331 
Q 1503 1009 1600 663 
Q 1675 925 1809 1294 
L 2547 3319 
L 3125 3319 
L 1869 0 
L 1344 0 
z
" transform="scale(0.015625)"/>
       <path id="ArialMT-73" d="M 197 991 
L 753 1078 
Q 800 744 1014 566 
Q 1228 388 1613 388 
Q 2000 388 2187 545 
Q 2375 703 2375 916 
Q 2375 1106 2209 1216 
Q 2094 1291 1634 1406 
Q 1016 1563 777 1677 
Q 538 1791 414 1992 
Q 291 2194 291 2438 
Q 291 2659 392 2848 
Q 494 3038 669 3163 
Q 800 3259 1026 3326 
Q 1253 3394 1513 3394 
Q 1903 3394 2198 3281 
Q 2494 3169 2634 2976 
Q 2775 2784 2828 2463 
L 2278 2388 
Q 2241 2644 2061 2787 
Q 1881 2931 1553 2931 
Q 1166 2931 1000 2803 
Q 834 2675 834 2503 
Q 834 2394 903 2306 
Q 972 2216 1119 2156 
Q 1203 2125 1616 2013 
Q 2213 1853 2448 1751 
Q 2684 1650 2818 1456 
Q 2953 1263 2953 975 
Q 2953 694 2789 445 
Q 2625 197 2315 61 
Q 2006 -75 1616 -75 
Q 969 -75 630 194 
Q 291 463 197 991 
z
" transform="scale(0.015625)"/>
      </defs>
      <use xlink:href="#ArialMT-4e"/>
      <use xlink:href="#ArialMT-75" x="72.216797"/>
      <use xlink:href="#ArialMT-6d" x="127.832031"/>
      <use xlink:href="#ArialMT-62" x="211.132812"/>
      <use xlink:href="#ArialMT-65" x="266.748047"/>
      <use xlink:href="#ArialMT-72" x="322.363281"/>
      <use xlink:href="#ArialMT-20" x="355.664062"/>
      <use xlink:href="#ArialMT-69" x="383.447266"/>
      <use xlink:href="#ArialMT-6e" x="405.664062"/>
      <use xlink:href="#ArialMT-66" x="461.279297"/>
      <use xlink:href="#ArialMT-72" x="489.0625"/>
      <use xlink:href="#ArialMT-61" x="522.363281"/>
      <use xlink:href="#ArialMT-6e" x="577.978516"/>
      <use xlink:href="#ArialMT-6f" x="633.59375"/>
      <use xlink:href="#ArialMT-72" x="689.208984"/>
      <use xlink:href="#ArialMT-6d" x="722.509766"/>
      <use xlink:href="#ArialMT-61" x="805.810547"/>
      <use xlink:href="#ArialMT-6c" x="861.425781"/>
      <use xlink:href="#ArialMT-20" x="883.642578"/>
      <use xlink:href="#ArialMT-64" x="911.425781"/>
      <use xlink:href="#ArialMT-65" x="967.041016"/>
      <use xlink:href="#ArialMT-76" x="1022.65625"/>
      <use xlink:href="#ArialMT-69" x="1072.65625"/>
      <use xlink:href="#ArialMT-61" x="1094.873047"/>
      <use xlink:href="#ArialMT-74" x="1150.488281"/>
      <use xlink:href="#ArialMT-69" x="1178.271484"/>
      <use xlink:href="#ArialMT-6f" x="1200.488281"/>
      <use xlink:href="#ArialMT-6e" x="1256.103516"/>
      <use xlink:href="#ArialMT-73" x="1311.71875"/>
      <use xlink:href="#ArialMT-20" x="1361.71875"/>
      <use xlink:href="#ArialMT-5b" x="1389.501953"/>
      <use xlink:href="#ArialMT-61" x="1417.285156"/>
      <use xlink:href="#ArialMT-2e" x="1472.900391"/>
      <use xlink:href="#ArialMT-75" x="1500.683594"/>
      <use xlink:href="#ArialMT-2e" x="1556.298828"/>
      <use xlink:href="#ArialMT-5d" x="1584.082031"/>
     </g>
    </g>
   </g>
   <g id="line2d_13">
    <path d="M 31.112864 72.786107 
L 32.261423 72.878749 
L 33.409981 72.97139 
L 34.558539 73.064031 
L 35.707098 73.156673 
L 36.855656 73.249314 
L 38.004215 73.341955 
L 39.152773 73.434596 
L 40.301332 73.527238 
L 41.44989 73.619879 
L 42.598448 73.71252 
L 43.747007 73.805162 
L 44.895565 73.897803 
L 46.044124 73.990444 
L 47.192682 74.083085 
L 48.34124 74.175727 
L 49.489799 74.268368 
L 50.638357 74.361009 
L 51.786916 74.453651 
L 52.935474 74.546292 
L 54.084033 74.638933 
L 55.232591 74.731575 
L 56.381149 74.824216 
L 57.529708 74.916857 
L 58.678266 75.009498 
L 59.826825 75.10214 
L 60.975383 75.194781 
L 62.123941 75.287422 
L 63.2725 75.380064 
L 64.421058 75.472705 
L 65.569617 75.565346 
L 66.718175 75.657987 
L 67.866734 75.750629 
L 69.015292 75.84327 
L 70.16385 75.935911 
L 71.312409 76.028553 
L 72.460967 76.121194 
L 73.609526 76.213835 
L 74.758084 76.306477 
L 75.906643 76.399118 
L 77.055201 76.491759 
L 78.203759 76.5844 
L 79.352318 76.677042 
L 80.500876 76.769683 
L 81.649435 76.862324 
L 82.797993 76.954966 
L 83.946551 77.047607 
L 85.09511 77.140248 
L 86.243668 77.232889 
L 87.392227 77.325531 
L 88.540785 77.418172 
L 89.689344 77.510813 
L 90.837902 77.603455 
L 91.98646 77.696096 
L 93.135019 77.788737 
L 94.283577 77.881379 
L 95.432136 77.97402 
L 96.580694 78.066661 
L 97.729252 78.159302 
L 98.877811 78.251944 
L 100.026369 78.344585 
L 101.174928 78.437226 
L 102.323486 78.529868 
L 103.472045 78.622509 
L 104.620603 78.71515 
L 105.769161 78.807791 
L 106.91772 78.900433 
L 108.066278 78.993074 
L 109.214837 79.085715 
L 110.363395 79.178357 
L 111.511953 79.270998 
L 112.660512 79.363639 
L 113.80907 79.45628 
L 114.957629 79.548922 
L 116.106187 79.641563 
L 117.254746 79.734204 
L 118.403304 79.826846 
L 119.551862 79.919487 
L 120.700421 80.012128 
L 121.848979 80.10477 
L 122.997538 80.197411 
L 124.146096 80.290052 
L 125.294655 80.382693 
L 126.443213 80.475335 
L 127.591771 80.567976 
L 128.74033 80.660617 
L 129.888888 80.753259 
L 131.037447 80.8459 
L 132.186005 80.938541 
L 133.334563 81.031182 
L 134.483122 81.123824 
L 135.63168 81.216465 
L 136.780239 81.309106 
L 137.928797 81.401748 
L 139.077356 81.494389 
L 140.225914 81.58703 
L 141.374472 81.679672 
L 142.523031 81.772313 
L 143.671589 81.864954 
L 144.820148 81.957595 
" clip-path="url(#p2219e06604)" style="fill: none; stroke: #ff8c00; stroke-width: 0.75; stroke-linecap: square"/>
   </g>
   <g id="patch_3">
    <path d="M 25.4275 89.218327 
L 25.4275 5.4 
" style="fill: none; stroke: #000000; stroke-width: 0.25; stroke-linejoin: miter; stroke-linecap: square"/>
   </g>
   <g id="patch_4">
    <path d="M 25.4275 89.218327 
L 150.505512 89.218327 
" style="fill: none; stroke: #000000; stroke-width: 0.25; stroke-linejoin: miter; stroke-linecap: square"/>
   </g>
   <g id="text_15">
    <g id="patch_5">
     <path d="M 29.17984 18.699023 
L 57.82984 18.699023 
Q 59.32984 18.699023 59.32984 17.199023 
L 59.32984 7.132617 
Q 59.32984 5.632617 57.82984 5.632617 
L 29.17984 5.632617 
Q 27.67984 5.632617 27.67984 7.132617 
L 27.67984 17.199023 
Q 27.67984 18.699023 29.17984 18.699023 
z
" style="fill: #c0c0c0; opacity: 0.4; stroke: #c0c0c0; stroke-linejoin: miter"/>
    </g>
    <!-- $r=-0.068$ -->
    <g transform="translate(29.17984 10.655273) scale(0.05 -0.05)">
     <defs>
      <path id="DejaVuSans-Oblique-72" d="M 2853 2969 
Q 2766 3016 2653 3041 
Q 2541 3066 2413 3066 
Q 1953 3066 1609 2717 
Q 1266 2369 1153 1784 
L 800 0 
L 225 0 
L 909 3500 
L 1484 3500 
L 1375 2956 
Q 1603 3259 1920 3421 
Q 2238 3584 2597 3584 
Q 2691 3584 2781 3573 
Q 2872 3563 2963 3538 
L 2853 2969 
z
" transform="scale(0.015625)"/>
      <path id="DejaVuSans-3d" d="M 678 2906 
L 4684 2906 
L 4684 2381 
L 678 2381 
L 678 2906 
z
M 678 1631 
L 4684 1631 
L 4684 1100 
L 678 1100 
L 678 1631 
z
" transform="scale(0.015625)"/>
      <path id="DejaVuSans-2212" d="M 678 2272 
L 4684 2272 
L 4684 1741 
L 678 1741 
L 678 2272 
z
" transform="scale(0.015625)"/>
      <path id="DejaVuSans-30" d="M 2034 4250 
Q 1547 4250 1301 3770 
Q 1056 3291 1056 2328 
Q 1056 1369 1301 889 
Q 1547 409 2034 409 
Q 2525 409 2770 889 
Q 3016 1369 3016 2328 
Q 3016 3291 2770 3770 
Q 2525 4250 2034 4250 
z
M 2034 4750 
Q 2819 4750 3233 4129 
Q 3647 3509 3647 2328 
Q 3647 1150 3233 529 
Q 2819 -91 2034 -91 
Q 1250 -91 836 529 
Q 422 1150 422 2328 
Q 422 3509 836 4129 
Q 1250 4750 2034 4750 
z
" transform="scale(0.015625)"/>
      <path id="DejaVuSans-2e" d="M 684 794 
L 1344 794 
L 1344 0 
L 684 0 
L 684 794 
z
" transform="scale(0.015625)"/>
      <path id="DejaVuSans-36" d="M 2113 2584 
Q 1688 2584 1439 2293 
Q 1191 2003 1191 1497 
Q 1191 994 1439 701 
Q 1688 409 2113 409 
Q 2538 409 2786 701 
Q 3034 994 3034 1497 
Q 3034 2003 2786 2293 
Q 2538 2584 2113 2584 
z
M 3366 4563 
L 3366 3988 
Q 3128 4100 2886 4159 
Q 2644 4219 2406 4219 
Q 1781 4219 1451 3797 
Q 1122 3375 1075 2522 
Q 1259 2794 1537 2939 
Q 1816 3084 2150 3084 
Q 2853 3084 3261 2657 
Q 3669 2231 3669 1497 
Q 3669 778 3244 343 
Q 2819 -91 2113 -91 
Q 1303 -91 875 529 
Q 447 1150 447 2328 
Q 447 3434 972 4092 
Q 1497 4750 2381 4750 
Q 2619 4750 2861 4703 
Q 3103 4656 3366 4563 
z
" transform="scale(0.015625)"/>
      <path id="DejaVuSans-38" d="M 2034 2216 
Q 1584 2216 1326 1975 
Q 1069 1734 1069 1313 
Q 1069 891 1326 650 
Q 1584 409 2034 409 
Q 2484 409 2743 651 
Q 3003 894 3003 1313 
Q 3003 1734 2745 1975 
Q 2488 2216 2034 2216 
z
M 1403 2484 
Q 997 2584 770 2862 
Q 544 3141 544 3541 
Q 544 4100 942 4425 
Q 1341 4750 2034 4750 
Q 2731 4750 3128 4425 
Q 3525 4100 3525 3541 
Q 3525 3141 3298 2862 
Q 3072 2584 2669 2484 
Q 3125 2378 3379 2068 
Q 3634 1759 3634 1313 
Q 3634 634 3220 271 
Q 2806 -91 2034 -91 
Q 1263 -91 848 271 
Q 434 634 434 1313 
Q 434 1759 690 2068 
Q 947 2378 1403 2484 
z
M 1172 3481 
Q 1172 3119 1398 2916 
Q 1625 2713 2034 2713 
Q 2441 2713 2670 2916 
Q 2900 3119 2900 3481 
Q 2900 3844 2670 4047 
Q 2441 4250 2034 4250 
Q 1625 4250 1398 4047 
Q 1172 3844 1172 3481 
z
" transform="scale(0.015625)"/>
     </defs>
     <use xlink:href="#DejaVuSans-Oblique-72" transform="translate(0 0.78125)"/>
     <use xlink:href="#DejaVuSans-3d" transform="translate(60.595703 0.78125)"/>
     <use xlink:href="#DejaVuSans-2212" transform="translate(183.349609 0.78125)"/>
     <use xlink:href="#DejaVuSans-30" transform="translate(286.621094 0.78125)"/>
     <use xlink:href="#DejaVuSans-2e" transform="translate(350.244141 0.78125)"/>
     <use xlink:href="#DejaVuSans-30" transform="translate(382.03125 0.78125)"/>
     <use xlink:href="#DejaVuSans-36" transform="translate(445.654297 0.78125)"/>
     <use xlink:href="#DejaVuSans-38" transform="translate(509.277344 0.78125)"/>
    </g>
    <!-- $p=0.358$ -->
    <g transform="translate(29.17984 16.149023) scale(0.05 -0.05)">
     <defs>
      <path id="DejaVuSans-Oblique-70" d="M 3175 2156 
Q 3175 2616 2975 2859 
Q 2775 3103 2400 3103 
Q 2144 3103 1911 2972 
Q 1678 2841 1497 2591 
Q 1319 2344 1212 1994 
Q 1106 1644 1106 1300 
Q 1106 863 1306 627 
Q 1506 391 1875 391 
Q 2147 391 2380 519 
Q 2613 647 2778 891 
Q 2956 1147 3065 1494 
Q 3175 1841 3175 2156 
z
M 1394 2969 
Q 1625 3272 1939 3428 
Q 2253 3584 2638 3584 
Q 3175 3584 3472 3232 
Q 3769 2881 3769 2247 
Q 3769 1728 3584 1258 
Q 3400 788 3053 416 
Q 2822 169 2531 39 
Q 2241 -91 1919 -91 
Q 1547 -91 1294 64 
Q 1041 219 916 525 
L 556 -1331 
L -19 -1331 
L 922 3500 
L 1497 3500 
L 1394 2969 
z
" transform="scale(0.015625)"/>
      <path id="DejaVuSans-33" d="M 2597 2516 
Q 3050 2419 3304 2112 
Q 3559 1806 3559 1356 
Q 3559 666 3084 287 
Q 2609 -91 1734 -91 
Q 1441 -91 1130 -33 
Q 819 25 488 141 
L 488 750 
Q 750 597 1062 519 
Q 1375 441 1716 441 
Q 2309 441 2620 675 
Q 2931 909 2931 1356 
Q 2931 1769 2642 2001 
Q 2353 2234 1838 2234 
L 1294 2234 
L 1294 2753 
L 1863 2753 
Q 2328 2753 2575 2939 
Q 2822 3125 2822 3475 
Q 2822 3834 2567 4026 
Q 2313 4219 1838 4219 
Q 1578 4219 1281 4162 
Q 984 4106 628 3988 
L 628 4550 
Q 988 4650 1302 4700 
Q 1616 4750 1894 4750 
Q 2613 4750 3031 4423 
Q 3450 4097 3450 3541 
Q 3450 3153 3228 2886 
Q 3006 2619 2597 2516 
z
" transform="scale(0.015625)"/>
      <path id="DejaVuSans-35" d="M 691 4666 
L 3169 4666 
L 3169 4134 
L 1269 4134 
L 1269 2991 
Q 1406 3038 1543 3061 
Q 1681 3084 1819 3084 
Q 2600 3084 3056 2656 
Q 3513 2228 3513 1497 
Q 3513 744 3044 326 
Q 2575 -91 1722 -91 
Q 1428 -91 1123 -41 
Q 819 9 494 109 
L 494 744 
Q 775 591 1075 516 
Q 1375 441 1709 441 
Q 2250 441 2565 725 
Q 2881 1009 2881 1497 
Q 2881 1984 2565 2268 
Q 2250 2553 1709 2553 
Q 1456 2553 1204 2497 
Q 953 2441 691 2322 
L 691 4666 
z
" transform="scale(0.015625)"/>
     </defs>
     <use xlink:href="#DejaVuSans-Oblique-70" transform="translate(0 0.78125)"/>
     <use xlink:href="#DejaVuSans-3d" transform="translate(82.958984 0.78125)"/>
     <use xlink:href="#DejaVuSans-30" transform="translate(186.230469 0.78125)"/>
     <use xlink:href="#DejaVuSans-2e" transform="translate(249.853516 0.78125)"/>
     <use xlink:href="#DejaVuSans-33" transform="translate(281.640625 0.78125)"/>
     <use xlink:href="#DejaVuSans-35" transform="translate(345.263672 0.78125)"/>
     <use xlink:href="#DejaVuSans-38" transform="translate(408.886719 0.78125)"/>
    </g>
   </g>
  </g>
 </g>
 <defs>
  <clipPath id="p2219e06604">
   <rect x="25.4275" y="5.4" width="125.078012" height="83.818327"/>
  </clipPath>
 </defs>
</svg>
