<?xml version="1.0" encoding="utf-8" standalone="no"?>
<!DOCTYPE svg PUBLIC "-//W3C//DTD SVG 1.1//EN"
  "http://www.w3.org/Graphics/SVG/1.1/DTD/svg11.dtd">
<svg xmlns:xlink="http://www.w3.org/1999/xlink" width="155.905512pt" height="113.385827pt" viewBox="0 0 155.905512 113.385827" xmlns="http://www.w3.org/2000/svg" version="1.1">
 <metadata>
  <rdf:RDF xmlns:dc="http://purl.org/dc/elements/1.1/" xmlns:cc="http://creativecommons.org/ns#" xmlns:rdf="http://www.w3.org/1999/02/22-rdf-syntax-ns#">
   <cc:Work>
    <dc:type rdf:resource="http://purl.org/dc/dcmitype/StillImage"/>
    <dc:date>2025-07-21T13:51:12.353377</dc:date>
    <dc:format>image/svg+xml</dc:format>
    <dc:creator>
     <cc:Agent>
      <dc:title>Matplotlib v3.9.2, https://matplotlib.org/</dc:title>
     </cc:Agent>
    </dc:creator>
   </cc:Work>
  </rdf:RDF>
 </metadata>
 <defs>
  <style type="text/css">*{stroke-linejoin: round; stroke-linecap: butt}</style>
 </defs>
 <g id="figure_1">
  <g id="patch_1">
   <path d="M 0 113.385827 
L 155.905512 113.385827 
L 155.905512 0 
L 0 0 
z
" style="fill: #ffffff"/>
  </g>
  <g id="axes_1">
   <g id="patch_2">
    <path d="M 25.36 89.218327 
L 150.505512 89.218327 
L 150.505512 5.4 
L 25.36 5.4 
z
" style="fill: #ffffff"/>
   </g>
   <g id="matplotlib.axis_1">
    <g id="xtick_1">
     <g id="text_1">
      <!-- 8 -->
      <g style="fill: #262626" transform="translate(37.78453 97.297233) scale(0.05 -0.05)">
       <defs>
        <path id="ArialMT-38" d="M 1131 2484 
Q 781 2613 612 2850 
Q 444 3088 444 3419 
Q 444 3919 803 4259 
Q 1163 4600 1759 4600 
Q 2359 4600 2725 4251 
Q 3091 3903 3091 3403 
Q 3091 3084 2923 2848 
Q 2756 2613 2416 2484 
Q 2838 2347 3058 2040 
Q 3278 1734 3278 1309 
Q 3278 722 2862 322 
Q 2447 -78 1769 -78 
Q 1091 -78 675 323 
Q 259 725 259 1325 
Q 259 1772 486 2073 
Q 713 2375 1131 2484 
z
M 1019 3438 
Q 1019 3113 1228 2906 
Q 1438 2700 1772 2700 
Q 2097 2700 2305 2904 
Q 2513 3109 2513 3406 
Q 2513 3716 2298 3927 
Q 2084 4138 1766 4138 
Q 1444 4138 1231 3931 
Q 1019 3725 1019 3438 
z
M 838 1322 
Q 838 1081 952 856 
Q 1066 631 1291 507 
Q 1516 384 1775 384 
Q 2178 384 2440 643 
Q 2703 903 2703 1303 
Q 2703 1709 2433 1975 
Q 2163 2241 1756 2241 
Q 1359 2241 1098 1978 
Q 838 1716 838 1322 
z
" transform="scale(0.015625)"/>
       </defs>
       <use xlink:href="#ArialMT-38"/>
      </g>
     </g>
    </g>
    <g id="xtick_2">
     <g id="text_2">
      <!-- 10 -->
      <g style="fill: #262626" transform="translate(52.646959 97.297233) scale(0.05 -0.05)">
       <defs>
        <path id="ArialMT-31" d="M 2384 0 
L 1822 0 
L 1822 3584 
Q 1619 3391 1289 3197 
Q 959 3003 697 2906 
L 697 3450 
Q 1169 3672 1522 3987 
Q 1875 4303 2022 4600 
L 2384 4600 
L 2384 0 
z
" transform="scale(0.015625)"/>
        <path id="ArialMT-30" d="M 266 2259 
Q 266 3072 433 3567 
Q 600 4063 929 4331 
Q 1259 4600 1759 4600 
Q 2128 4600 2406 4451 
Q 2684 4303 2865 4023 
Q 3047 3744 3150 3342 
Q 3253 2941 3253 2259 
Q 3253 1453 3087 958 
Q 2922 463 2592 192 
Q 2263 -78 1759 -78 
Q 1097 -78 719 397 
Q 266 969 266 2259 
z
M 844 2259 
Q 844 1131 1108 757 
Q 1372 384 1759 384 
Q 2147 384 2411 759 
Q 2675 1134 2675 2259 
Q 2675 3391 2411 3762 
Q 2147 4134 1753 4134 
Q 1366 4134 1134 3806 
Q 844 3388 844 2259 
z
" transform="scale(0.015625)"/>
       </defs>
       <use xlink:href="#ArialMT-31"/>
       <use xlink:href="#ArialMT-30" x="55.615234"/>
      </g>
     </g>
    </g>
    <g id="xtick_3">
     <g id="text_3">
      <!-- 12 -->
      <g style="fill: #262626" transform="translate(68.899623 97.297233) scale(0.05 -0.05)">
       <defs>
        <path id="ArialMT-32" d="M 3222 541 
L 3222 0 
L 194 0 
Q 188 203 259 391 
Q 375 700 629 1000 
Q 884 1300 1366 1694 
Q 2113 2306 2375 2664 
Q 2638 3022 2638 3341 
Q 2638 3675 2398 3904 
Q 2159 4134 1775 4134 
Q 1369 4134 1125 3890 
Q 881 3647 878 3216 
L 300 3275 
Q 359 3922 746 4261 
Q 1134 4600 1788 4600 
Q 2447 4600 2831 4234 
Q 3216 3869 3216 3328 
Q 3216 3053 3103 2787 
Q 2991 2522 2730 2228 
Q 2469 1934 1863 1422 
Q 1356 997 1212 845 
Q 1069 694 975 541 
L 3222 541 
z
" transform="scale(0.015625)"/>
       </defs>
       <use xlink:href="#ArialMT-31"/>
       <use xlink:href="#ArialMT-32" x="55.615234"/>
      </g>
     </g>
    </g>
    <g id="xtick_4">
     <g id="text_4">
      <!-- 14 -->
      <g style="fill: #262626" transform="translate(85.152287 97.297233) scale(0.05 -0.05)">
       <defs>
        <path id="ArialMT-34" d="M 2069 0 
L 2069 1097 
L 81 1097 
L 81 1613 
L 2172 4581 
L 2631 4581 
L 2631 1613 
L 3250 1613 
L 3250 1097 
L 2631 1097 
L 2631 0 
L 2069 0 
z
M 2069 1613 
L 2069 3678 
L 634 1613 
L 2069 1613 
z
" transform="scale(0.015625)"/>
       </defs>
       <use xlink:href="#ArialMT-31"/>
       <use xlink:href="#ArialMT-34" x="55.615234"/>
      </g>
     </g>
    </g>
    <g id="xtick_5">
     <g id="text_5">
      <!-- 16 -->
      <g style="fill: #262626" transform="translate(101.404951 97.297233) scale(0.05 -0.05)">
       <defs>
        <path id="ArialMT-36" d="M 3184 3459 
L 2625 3416 
Q 2550 3747 2413 3897 
Q 2184 4138 1850 4138 
Q 1581 4138 1378 3988 
Q 1113 3794 959 3422 
Q 806 3050 800 2363 
Q 1003 2672 1297 2822 
Q 1591 2972 1913 2972 
Q 2475 2972 2870 2558 
Q 3266 2144 3266 1488 
Q 3266 1056 3080 686 
Q 2894 316 2569 119 
Q 2244 -78 1831 -78 
Q 1128 -78 684 439 
Q 241 956 241 2144 
Q 241 3472 731 4075 
Q 1159 4600 1884 4600 
Q 2425 4600 2770 4297 
Q 3116 3994 3184 3459 
z
M 888 1484 
Q 888 1194 1011 928 
Q 1134 663 1356 523 
Q 1578 384 1822 384 
Q 2178 384 2434 671 
Q 2691 959 2691 1453 
Q 2691 1928 2437 2201 
Q 2184 2475 1800 2475 
Q 1419 2475 1153 2201 
Q 888 1928 888 1484 
z
" transform="scale(0.015625)"/>
       </defs>
       <use xlink:href="#ArialMT-31"/>
       <use xlink:href="#ArialMT-36" x="55.615234"/>
      </g>
     </g>
    </g>
    <g id="xtick_6">
     <g id="text_6">
      <!-- 18 -->
      <g style="fill: #262626" transform="translate(117.657615 97.297233) scale(0.05 -0.05)">
       <use xlink:href="#ArialMT-31"/>
       <use xlink:href="#ArialMT-38" x="55.615234"/>
      </g>
     </g>
    </g>
    <g id="xtick_7">
     <g id="text_7">
      <!-- 20 -->
      <g style="fill: #262626" transform="translate(133.910279 97.297233) scale(0.05 -0.05)">
       <use xlink:href="#ArialMT-32"/>
       <use xlink:href="#ArialMT-30" x="55.615234"/>
      </g>
     </g>
    </g>
    <g id="text_8">
     <!-- Parental education [a.u.] -->
     <g style="fill: #262626" transform="translate(55.412756 106.585671) scale(0.06 -0.06)">
      <defs>
       <path id="ArialMT-50" d="M 494 0 
L 494 4581 
L 2222 4581 
Q 2678 4581 2919 4538 
Q 3256 4481 3484 4323 
Q 3713 4166 3852 3881 
Q 3991 3597 3991 3256 
Q 3991 2672 3619 2267 
Q 3247 1863 2275 1863 
L 1100 1863 
L 1100 0 
L 494 0 
z
M 1100 2403 
L 2284 2403 
Q 2872 2403 3119 2622 
Q 3366 2841 3366 3238 
Q 3366 3525 3220 3729 
Q 3075 3934 2838 4000 
Q 2684 4041 2272 4041 
L 1100 4041 
L 1100 2403 
z
" transform="scale(0.015625)"/>
       <path id="ArialMT-61" d="M 2588 409 
Q 2275 144 1986 34 
Q 1697 -75 1366 -75 
Q 819 -75 525 192 
Q 231 459 231 875 
Q 231 1119 342 1320 
Q 453 1522 633 1644 
Q 813 1766 1038 1828 
Q 1203 1872 1538 1913 
Q 2219 1994 2541 2106 
Q 2544 2222 2544 2253 
Q 2544 2597 2384 2738 
Q 2169 2928 1744 2928 
Q 1347 2928 1158 2789 
Q 969 2650 878 2297 
L 328 2372 
Q 403 2725 575 2942 
Q 747 3159 1072 3276 
Q 1397 3394 1825 3394 
Q 2250 3394 2515 3294 
Q 2781 3194 2906 3042 
Q 3031 2891 3081 2659 
Q 3109 2516 3109 2141 
L 3109 1391 
Q 3109 606 3145 398 
Q 3181 191 3288 0 
L 2700 0 
Q 2613 175 2588 409 
z
M 2541 1666 
Q 2234 1541 1622 1453 
Q 1275 1403 1131 1340 
Q 988 1278 909 1158 
Q 831 1038 831 891 
Q 831 666 1001 516 
Q 1172 366 1500 366 
Q 1825 366 2078 508 
Q 2331 650 2450 897 
Q 2541 1088 2541 1459 
L 2541 1666 
z
" transform="scale(0.015625)"/>
       <path id="ArialMT-72" d="M 416 0 
L 416 3319 
L 922 3319 
L 922 2816 
Q 1116 3169 1280 3281 
Q 1444 3394 1641 3394 
Q 1925 3394 2219 3213 
L 2025 2691 
Q 1819 2813 1613 2813 
Q 1428 2813 1281 2702 
Q 1134 2591 1072 2394 
Q 978 2094 978 1738 
L 978 0 
L 416 0 
z
" transform="scale(0.015625)"/>
       <path id="ArialMT-65" d="M 2694 1069 
L 3275 997 
Q 3138 488 2766 206 
Q 2394 -75 1816 -75 
Q 1088 -75 661 373 
Q 234 822 234 1631 
Q 234 2469 665 2931 
Q 1097 3394 1784 3394 
Q 2450 3394 2872 2941 
Q 3294 2488 3294 1666 
Q 3294 1616 3291 1516 
L 816 1516 
Q 847 969 1125 678 
Q 1403 388 1819 388 
Q 2128 388 2347 550 
Q 2566 713 2694 1069 
z
M 847 1978 
L 2700 1978 
Q 2663 2397 2488 2606 
Q 2219 2931 1791 2931 
Q 1403 2931 1139 2672 
Q 875 2413 847 1978 
z
" transform="scale(0.015625)"/>
       <path id="ArialMT-6e" d="M 422 0 
L 422 3319 
L 928 3319 
L 928 2847 
Q 1294 3394 1984 3394 
Q 2284 3394 2536 3286 
Q 2788 3178 2913 3003 
Q 3038 2828 3088 2588 
Q 3119 2431 3119 2041 
L 3119 0 
L 2556 0 
L 2556 2019 
Q 2556 2363 2490 2533 
Q 2425 2703 2258 2804 
Q 2091 2906 1866 2906 
Q 1506 2906 1245 2678 
Q 984 2450 984 1813 
L 984 0 
L 422 0 
z
" transform="scale(0.015625)"/>
       <path id="ArialMT-74" d="M 1650 503 
L 1731 6 
Q 1494 -44 1306 -44 
Q 1000 -44 831 53 
Q 663 150 594 308 
Q 525 466 525 972 
L 525 2881 
L 113 2881 
L 113 3319 
L 525 3319 
L 525 4141 
L 1084 4478 
L 1084 3319 
L 1650 3319 
L 1650 2881 
L 1084 2881 
L 1084 941 
Q 1084 700 1114 631 
Q 1144 563 1211 522 
Q 1278 481 1403 481 
Q 1497 481 1650 503 
z
" transform="scale(0.015625)"/>
       <path id="ArialMT-6c" d="M 409 0 
L 409 4581 
L 972 4581 
L 972 0 
L 409 0 
z
" transform="scale(0.015625)"/>
       <path id="ArialMT-20" transform="scale(0.015625)"/>
       <path id="ArialMT-64" d="M 2575 0 
L 2575 419 
Q 2259 -75 1647 -75 
Q 1250 -75 917 144 
Q 584 363 401 755 
Q 219 1147 219 1656 
Q 219 2153 384 2558 
Q 550 2963 881 3178 
Q 1213 3394 1622 3394 
Q 1922 3394 2156 3267 
Q 2391 3141 2538 2938 
L 2538 4581 
L 3097 4581 
L 3097 0 
L 2575 0 
z
M 797 1656 
Q 797 1019 1065 703 
Q 1334 388 1700 388 
Q 2069 388 2326 689 
Q 2584 991 2584 1609 
Q 2584 2291 2321 2609 
Q 2059 2928 1675 2928 
Q 1300 2928 1048 2622 
Q 797 2316 797 1656 
z
" transform="scale(0.015625)"/>
       <path id="ArialMT-75" d="M 2597 0 
L 2597 488 
Q 2209 -75 1544 -75 
Q 1250 -75 995 37 
Q 741 150 617 320 
Q 494 491 444 738 
Q 409 903 409 1263 
L 409 3319 
L 972 3319 
L 972 1478 
Q 972 1038 1006 884 
Q 1059 663 1231 536 
Q 1403 409 1656 409 
Q 1909 409 2131 539 
Q 2353 669 2445 892 
Q 2538 1116 2538 1541 
L 2538 3319 
L 3100 3319 
L 3100 0 
L 2597 0 
z
" transform="scale(0.015625)"/>
       <path id="ArialMT-63" d="M 2588 1216 
L 3141 1144 
Q 3050 572 2676 248 
Q 2303 -75 1759 -75 
Q 1078 -75 664 370 
Q 250 816 250 1647 
Q 250 2184 428 2587 
Q 606 2991 970 3192 
Q 1334 3394 1763 3394 
Q 2303 3394 2647 3120 
Q 2991 2847 3088 2344 
L 2541 2259 
Q 2463 2594 2264 2762 
Q 2066 2931 1784 2931 
Q 1359 2931 1093 2626 
Q 828 2322 828 1663 
Q 828 994 1084 691 
Q 1341 388 1753 388 
Q 2084 388 2306 591 
Q 2528 794 2588 1216 
z
" transform="scale(0.015625)"/>
       <path id="ArialMT-69" d="M 425 3934 
L 425 4581 
L 988 4581 
L 988 3934 
L 425 3934 
z
M 425 0 
L 425 3319 
L 988 3319 
L 988 0 
L 425 0 
z
" transform="scale(0.015625)"/>
       <path id="ArialMT-6f" d="M 213 1659 
Q 213 2581 725 3025 
Q 1153 3394 1769 3394 
Q 2453 3394 2887 2945 
Q 3322 2497 3322 1706 
Q 3322 1066 3130 698 
Q 2938 331 2570 128 
Q 2203 -75 1769 -75 
Q 1072 -75 642 372 
Q 213 819 213 1659 
z
M 791 1659 
Q 791 1022 1069 705 
Q 1347 388 1769 388 
Q 2188 388 2466 706 
Q 2744 1025 2744 1678 
Q 2744 2294 2464 2611 
Q 2184 2928 1769 2928 
Q 1347 2928 1069 2612 
Q 791 2297 791 1659 
z
" transform="scale(0.015625)"/>
       <path id="ArialMT-5b" d="M 434 -1272 
L 434 4581 
L 1675 4581 
L 1675 4116 
L 997 4116 
L 997 -806 
L 1675 -806 
L 1675 -1272 
L 434 -1272 
z
" transform="scale(0.015625)"/>
       <path id="ArialMT-2e" d="M 581 0 
L 581 641 
L 1222 641 
L 1222 0 
L 581 0 
z
" transform="scale(0.015625)"/>
       <path id="ArialMT-5d" d="M 1363 -1272 
L 122 -1272 
L 122 -806 
L 800 -806 
L 800 4116 
L 122 4116 
L 122 4581 
L 1363 4581 
L 1363 -1272 
z
" transform="scale(0.015625)"/>
      </defs>
      <use xlink:href="#ArialMT-50"/>
      <use xlink:href="#ArialMT-61" x="66.699219"/>
      <use xlink:href="#ArialMT-72" x="122.314453"/>
      <use xlink:href="#ArialMT-65" x="155.615234"/>
      <use xlink:href="#ArialMT-6e" x="211.230469"/>
      <use xlink:href="#ArialMT-74" x="266.845703"/>
      <use xlink:href="#ArialMT-61" x="294.628906"/>
      <use xlink:href="#ArialMT-6c" x="350.244141"/>
      <use xlink:href="#ArialMT-20" x="372.460938"/>
      <use xlink:href="#ArialMT-65" x="400.244141"/>
      <use xlink:href="#ArialMT-64" x="455.859375"/>
      <use xlink:href="#ArialMT-75" x="511.474609"/>
      <use xlink:href="#ArialMT-63" x="567.089844"/>
      <use xlink:href="#ArialMT-61" x="617.089844"/>
      <use xlink:href="#ArialMT-74" x="672.705078"/>
      <use xlink:href="#ArialMT-69" x="700.488281"/>
      <use xlink:href="#ArialMT-6f" x="722.705078"/>
      <use xlink:href="#ArialMT-6e" x="778.320312"/>
      <use xlink:href="#ArialMT-20" x="833.935547"/>
      <use xlink:href="#ArialMT-5b" x="861.71875"/>
      <use xlink:href="#ArialMT-61" x="889.501953"/>
      <use xlink:href="#ArialMT-2e" x="945.117188"/>
      <use xlink:href="#ArialMT-75" x="972.900391"/>
      <use xlink:href="#ArialMT-2e" x="1028.515625"/>
      <use xlink:href="#ArialMT-5d" x="1056.298828"/>
     </g>
    </g>
   </g>
   <g id="matplotlib.axis_2">
    <g id="ytick_1">
     <g id="text_9">
      <!-- −2 -->
      <g style="fill: #262626" transform="translate(15.159219 80.852754) scale(0.05 -0.05)">
       <defs>
        <path id="ArialMT-2212" d="M 3381 1997 
L 356 1997 
L 356 2522 
L 3381 2522 
L 3381 1997 
z
" transform="scale(0.015625)"/>
       </defs>
       <use xlink:href="#ArialMT-2212"/>
       <use xlink:href="#ArialMT-32" x="58.398438"/>
      </g>
     </g>
    </g>
    <g id="ytick_2">
     <g id="text_10">
      <!-- −1 -->
      <g style="fill: #262626" transform="translate(15.159219 65.080171) scale(0.05 -0.05)">
       <use xlink:href="#ArialMT-2212"/>
       <use xlink:href="#ArialMT-31" x="58.398438"/>
      </g>
     </g>
    </g>
    <g id="ytick_3">
     <g id="text_11">
      <!-- 0 -->
      <g style="fill: #262626" transform="translate(18.079531 49.307588) scale(0.05 -0.05)">
       <use xlink:href="#ArialMT-30"/>
      </g>
     </g>
    </g>
    <g id="ytick_4">
     <g id="text_12">
      <!-- 1 -->
      <g style="fill: #262626" transform="translate(18.079531 33.535005) scale(0.05 -0.05)">
       <use xlink:href="#ArialMT-31"/>
      </g>
     </g>
    </g>
    <g id="ytick_5">
     <g id="text_13">
      <!-- 2 -->
      <g style="fill: #262626" transform="translate(18.079531 17.762423) scale(0.05 -0.05)">
       <use xlink:href="#ArialMT-32"/>
      </g>
     </g>
    </g>
    <g id="text_14">
     <!-- CTh PC1 [a.u.] -->
     <g style="fill: #262626" transform="translate(9.966719 67.149476) rotate(-90) scale(0.06 -0.06)">
      <defs>
       <path id="ArialMT-43" d="M 3763 1606 
L 4369 1453 
Q 4178 706 3683 314 
Q 3188 -78 2472 -78 
Q 1731 -78 1267 223 
Q 803 525 561 1097 
Q 319 1669 319 2325 
Q 319 3041 592 3573 
Q 866 4106 1370 4382 
Q 1875 4659 2481 4659 
Q 3169 4659 3637 4309 
Q 4106 3959 4291 3325 
L 3694 3184 
Q 3534 3684 3231 3912 
Q 2928 4141 2469 4141 
Q 1941 4141 1586 3887 
Q 1231 3634 1087 3207 
Q 944 2781 944 2328 
Q 944 1744 1114 1308 
Q 1284 872 1643 656 
Q 2003 441 2422 441 
Q 2931 441 3284 734 
Q 3638 1028 3763 1606 
z
" transform="scale(0.015625)"/>
       <path id="ArialMT-54" d="M 1659 0 
L 1659 4041 
L 150 4041 
L 150 4581 
L 3781 4581 
L 3781 4041 
L 2266 4041 
L 2266 0 
L 1659 0 
z
" transform="scale(0.015625)"/>
       <path id="ArialMT-68" d="M 422 0 
L 422 4581 
L 984 4581 
L 984 2938 
Q 1378 3394 1978 3394 
Q 2347 3394 2619 3248 
Q 2891 3103 3008 2847 
Q 3125 2591 3125 2103 
L 3125 0 
L 2563 0 
L 2563 2103 
Q 2563 2525 2380 2717 
Q 2197 2909 1863 2909 
Q 1613 2909 1392 2779 
Q 1172 2650 1078 2428 
Q 984 2206 984 1816 
L 984 0 
L 422 0 
z
" transform="scale(0.015625)"/>
      </defs>
      <use xlink:href="#ArialMT-43"/>
      <use xlink:href="#ArialMT-54" x="72.216797"/>
      <use xlink:href="#ArialMT-68" x="133.300781"/>
      <use xlink:href="#ArialMT-20" x="188.916016"/>
      <use xlink:href="#ArialMT-50" x="216.699219"/>
      <use xlink:href="#ArialMT-43" x="283.398438"/>
      <use xlink:href="#ArialMT-31" x="355.615234"/>
      <use xlink:href="#ArialMT-20" x="411.230469"/>
      <use xlink:href="#ArialMT-5b" x="439.013672"/>
      <use xlink:href="#ArialMT-61" x="466.796875"/>
      <use xlink:href="#ArialMT-2e" x="522.412109"/>
      <use xlink:href="#ArialMT-75" x="550.195312"/>
      <use xlink:href="#ArialMT-2e" x="605.810547"/>
      <use xlink:href="#ArialMT-5d" x="633.59375"/>
     </g>
    </g>
   </g>
   <g id="PathCollection_1">
    <defs>
     <path id="C0_0_e9049807c2" d="M 0 0.866025 
C 0.229673 0.866025 0.449969 0.774776 0.612372 0.612372 
C 0.774776 0.449969 0.866025 0.229673 0.866025 -0 
C 0.866025 -0.229673 0.774776 -0.449969 0.612372 -0.612372 
C 0.449969 -0.774776 0.229673 -0.866025 0 -0.866025 
C -0.229673 -0.866025 -0.449969 -0.774776 -0.612372 -0.612372 
C -0.774776 -0.449969 -0.866025 -0.229673 -0.866025 0 
C -0.866025 0.229673 -0.774776 0.449969 -0.612372 0.612372 
C -0.449969 0.774776 -0.229673 0.866025 0 0.866025 
z
"/>
    </defs>
    <g clip-path="url(#p4ac8e6bff6)">
     <use xlink:href="#C0_0_e9049807c2" x="91.995922" y="27.431979" style="fill: #ff8c00; fill-opacity: 0.8"/>
    </g>
    <g clip-path="url(#p4ac8e6bff6)">
     <use xlink:href="#C0_0_e9049807c2" x="132.627582" y="29.488628" style="fill: #ff8c00; fill-opacity: 0.8"/>
    </g>
    <g clip-path="url(#p4ac8e6bff6)">
     <use xlink:href="#C0_0_e9049807c2" x="128.564416" y="46.084064" style="fill: #ff8c00; fill-opacity: 0.8"/>
    </g>
    <g clip-path="url(#p4ac8e6bff6)">
     <use xlink:href="#C0_0_e9049807c2" x="71.680092" y="44.66765" style="fill: #ff8c00; fill-opacity: 0.8"/>
    </g>
    <g clip-path="url(#p4ac8e6bff6)">
     <use xlink:href="#C0_0_e9049807c2" x="104.18542" y="61.503374" style="fill: #ff8c00; fill-opacity: 0.8"/>
    </g>
    <g clip-path="url(#p4ac8e6bff6)">
     <use xlink:href="#C0_0_e9049807c2" x="116.374918" y="34.646222" style="fill: #ff8c00; fill-opacity: 0.8"/>
    </g>
    <g clip-path="url(#p4ac8e6bff6)">
     <use xlink:href="#C0_0_e9049807c2" x="108.248586" y="58.046995" style="fill: #ff8c00; fill-opacity: 0.8"/>
    </g>
    <g clip-path="url(#p4ac8e6bff6)">
     <use xlink:href="#C0_0_e9049807c2" x="96.059088" y="25.76621" style="fill: #ff8c00; fill-opacity: 0.8"/>
    </g>
    <g clip-path="url(#p4ac8e6bff6)">
     <use xlink:href="#C0_0_e9049807c2" x="100.122254" y="70.978383" style="fill: #ff8c00; fill-opacity: 0.8"/>
    </g>
    <g clip-path="url(#p4ac8e6bff6)">
     <use xlink:href="#C0_0_e9049807c2" x="75.743258" y="81.045791" style="fill: #ff8c00; fill-opacity: 0.8"/>
    </g>
    <g clip-path="url(#p4ac8e6bff6)">
     <use xlink:href="#C0_0_e9049807c2" x="96.059088" y="72.04998" style="fill: #ff8c00; fill-opacity: 0.8"/>
    </g>
    <g clip-path="url(#p4ac8e6bff6)">
     <use xlink:href="#C0_0_e9049807c2" x="120.438084" y="59.25878" style="fill: #ff8c00; fill-opacity: 0.8"/>
    </g>
    <g clip-path="url(#p4ac8e6bff6)">
     <use xlink:href="#C0_0_e9049807c2" x="112.311752" y="72.998286" style="fill: #ff8c00; fill-opacity: 0.8"/>
    </g>
    <g clip-path="url(#p4ac8e6bff6)">
     <use xlink:href="#C0_0_e9049807c2" x="132.627582" y="66.765329" style="fill: #ff8c00; fill-opacity: 0.8"/>
    </g>
    <g clip-path="url(#p4ac8e6bff6)">
     <use xlink:href="#C0_0_e9049807c2" x="124.50125" y="61.97572" style="fill: #ff8c00; fill-opacity: 0.8"/>
    </g>
    <g clip-path="url(#p4ac8e6bff6)">
     <use xlink:href="#C0_0_e9049807c2" x="128.564416" y="48.547579" style="fill: #ff8c00; fill-opacity: 0.8"/>
    </g>
    <g clip-path="url(#p4ac8e6bff6)">
     <use xlink:href="#C0_0_e9049807c2" x="63.55376" y="45.543441" style="fill: #ff8c00; fill-opacity: 0.8"/>
    </g>
    <g clip-path="url(#p4ac8e6bff6)">
     <use xlink:href="#C0_0_e9049807c2" x="47.301096" y="61.688084" style="fill: #ff8c00; fill-opacity: 0.8"/>
    </g>
    <g clip-path="url(#p4ac8e6bff6)">
     <use xlink:href="#C0_0_e9049807c2" x="108.248586" y="63.341516" style="fill: #ff8c00; fill-opacity: 0.8"/>
    </g>
    <g clip-path="url(#p4ac8e6bff6)">
     <use xlink:href="#C0_0_e9049807c2" x="91.995922" y="41.392506" style="fill: #ff8c00; fill-opacity: 0.8"/>
    </g>
    <g clip-path="url(#p4ac8e6bff6)">
     <use xlink:href="#C0_0_e9049807c2" x="120.438084" y="36.370949" style="fill: #ff8c00; fill-opacity: 0.8"/>
    </g>
    <g clip-path="url(#p4ac8e6bff6)">
     <use xlink:href="#C0_0_e9049807c2" x="108.248586" y="37.819383" style="fill: #ff8c00; fill-opacity: 0.8"/>
    </g>
    <g clip-path="url(#p4ac8e6bff6)">
     <use xlink:href="#C0_0_e9049807c2" x="100.122254" y="54.657649" style="fill: #ff8c00; fill-opacity: 0.8"/>
    </g>
    <g clip-path="url(#p4ac8e6bff6)">
     <use xlink:href="#C0_0_e9049807c2" x="128.564416" y="29.486295" style="fill: #ff8c00; fill-opacity: 0.8"/>
    </g>
    <g clip-path="url(#p4ac8e6bff6)">
     <use xlink:href="#C0_0_e9049807c2" x="128.564416" y="29.306155" style="fill: #ff8c00; fill-opacity: 0.8"/>
    </g>
    <g clip-path="url(#p4ac8e6bff6)">
     <use xlink:href="#C0_0_e9049807c2" x="124.50125" y="31.705407" style="fill: #ff8c00; fill-opacity: 0.8"/>
    </g>
    <g clip-path="url(#p4ac8e6bff6)">
     <use xlink:href="#C0_0_e9049807c2" x="108.248586" y="41.978993" style="fill: #ff8c00; fill-opacity: 0.8"/>
    </g>
    <g clip-path="url(#p4ac8e6bff6)">
     <use xlink:href="#C0_0_e9049807c2" x="132.627582" y="53.652303" style="fill: #ff8c00; fill-opacity: 0.8"/>
    </g>
    <g clip-path="url(#p4ac8e6bff6)">
     <use xlink:href="#C0_0_e9049807c2" x="108.248586" y="73.268805" style="fill: #ff8c00; fill-opacity: 0.8"/>
    </g>
    <g clip-path="url(#p4ac8e6bff6)">
     <use xlink:href="#C0_0_e9049807c2" x="112.311752" y="36.115091" style="fill: #ff8c00; fill-opacity: 0.8"/>
    </g>
    <g clip-path="url(#p4ac8e6bff6)">
     <use xlink:href="#C0_0_e9049807c2" x="120.438084" y="38.832294" style="fill: #ff8c00; fill-opacity: 0.8"/>
    </g>
    <g clip-path="url(#p4ac8e6bff6)">
     <use xlink:href="#C0_0_e9049807c2" x="75.743258" y="47.091664" style="fill: #ff8c00; fill-opacity: 0.8"/>
    </g>
    <g clip-path="url(#p4ac8e6bff6)">
     <use xlink:href="#C0_0_e9049807c2" x="124.50125" y="60.233374" style="fill: #ff8c00; fill-opacity: 0.8"/>
    </g>
    <g clip-path="url(#p4ac8e6bff6)">
     <use xlink:href="#C0_0_e9049807c2" x="96.059088" y="38.079543" style="fill: #ff8c00; fill-opacity: 0.8"/>
    </g>
    <g clip-path="url(#p4ac8e6bff6)">
     <use xlink:href="#C0_0_e9049807c2" x="31.048432" y="64.736862" style="fill: #ff8c00; fill-opacity: 0.8"/>
    </g>
    <g clip-path="url(#p4ac8e6bff6)">
     <use xlink:href="#C0_0_e9049807c2" x="100.122254" y="54.535338" style="fill: #ff8c00; fill-opacity: 0.8"/>
    </g>
    <g clip-path="url(#p4ac8e6bff6)">
     <use xlink:href="#C0_0_e9049807c2" x="83.86959" y="20.423566" style="fill: #ff8c00; fill-opacity: 0.8"/>
    </g>
    <g clip-path="url(#p4ac8e6bff6)">
     <use xlink:href="#C0_0_e9049807c2" x="104.18542" y="37.854402" style="fill: #ff8c00; fill-opacity: 0.8"/>
    </g>
    <g clip-path="url(#p4ac8e6bff6)">
     <use xlink:href="#C0_0_e9049807c2" x="120.438084" y="12.060646" style="fill: #ff8c00; fill-opacity: 0.8"/>
    </g>
    <g clip-path="url(#p4ac8e6bff6)">
     <use xlink:href="#C0_0_e9049807c2" x="79.806424" y="55.299014" style="fill: #ff8c00; fill-opacity: 0.8"/>
    </g>
    <g clip-path="url(#p4ac8e6bff6)">
     <use xlink:href="#C0_0_e9049807c2" x="87.932756" y="48.24955" style="fill: #ff8c00; fill-opacity: 0.8"/>
    </g>
    <g clip-path="url(#p4ac8e6bff6)">
     <use xlink:href="#C0_0_e9049807c2" x="136.690748" y="39.431313" style="fill: #ff8c00; fill-opacity: 0.8"/>
    </g>
    <g clip-path="url(#p4ac8e6bff6)">
     <use xlink:href="#C0_0_e9049807c2" x="108.248586" y="50.61667" style="fill: #ff8c00; fill-opacity: 0.8"/>
    </g>
    <g clip-path="url(#p4ac8e6bff6)">
     <use xlink:href="#C0_0_e9049807c2" x="136.690748" y="36.286269" style="fill: #ff8c00; fill-opacity: 0.8"/>
    </g>
    <g clip-path="url(#p4ac8e6bff6)">
     <use xlink:href="#C0_0_e9049807c2" x="120.438084" y="35.780717" style="fill: #ff8c00; fill-opacity: 0.8"/>
    </g>
    <g clip-path="url(#p4ac8e6bff6)">
     <use xlink:href="#C0_0_e9049807c2" x="108.248586" y="31.25647" style="fill: #ff8c00; fill-opacity: 0.8"/>
    </g>
    <g clip-path="url(#p4ac8e6bff6)">
     <use xlink:href="#C0_0_e9049807c2" x="116.374918" y="37.616235" style="fill: #ff8c00; fill-opacity: 0.8"/>
    </g>
    <g clip-path="url(#p4ac8e6bff6)">
     <use xlink:href="#C0_0_e9049807c2" x="59.490594" y="35.276816" style="fill: #ff8c00; fill-opacity: 0.8"/>
    </g>
    <g clip-path="url(#p4ac8e6bff6)">
     <use xlink:href="#C0_0_e9049807c2" x="132.627582" y="62.75276" style="fill: #ff8c00; fill-opacity: 0.8"/>
    </g>
    <g clip-path="url(#p4ac8e6bff6)">
     <use xlink:href="#C0_0_e9049807c2" x="124.50125" y="66.121283" style="fill: #ff8c00; fill-opacity: 0.8"/>
    </g>
    <g clip-path="url(#p4ac8e6bff6)">
     <use xlink:href="#C0_0_e9049807c2" x="104.18542" y="17.222471" style="fill: #ff8c00; fill-opacity: 0.8"/>
    </g>
    <g clip-path="url(#p4ac8e6bff6)">
     <use xlink:href="#C0_0_e9049807c2" x="104.18542" y="46.541263" style="fill: #ff8c00; fill-opacity: 0.8"/>
    </g>
    <g clip-path="url(#p4ac8e6bff6)">
     <use xlink:href="#C0_0_e9049807c2" x="120.438084" y="22.936292" style="fill: #ff8c00; fill-opacity: 0.8"/>
    </g>
    <g clip-path="url(#p4ac8e6bff6)">
     <use xlink:href="#C0_0_e9049807c2" x="120.438084" y="68.444328" style="fill: #ff8c00; fill-opacity: 0.8"/>
    </g>
    <g clip-path="url(#p4ac8e6bff6)">
     <use xlink:href="#C0_0_e9049807c2" x="120.438084" y="45.49189" style="fill: #ff8c00; fill-opacity: 0.8"/>
    </g>
    <g clip-path="url(#p4ac8e6bff6)">
     <use xlink:href="#C0_0_e9049807c2" x="79.806424" y="23.722473" style="fill: #ff8c00; fill-opacity: 0.8"/>
    </g>
    <g clip-path="url(#p4ac8e6bff6)">
     <use xlink:href="#C0_0_e9049807c2" x="87.932756" y="29.809356" style="fill: #ff8c00; fill-opacity: 0.8"/>
    </g>
    <g clip-path="url(#p4ac8e6bff6)">
     <use xlink:href="#C0_0_e9049807c2" x="112.311752" y="39.711422" style="fill: #ff8c00; fill-opacity: 0.8"/>
    </g>
    <g clip-path="url(#p4ac8e6bff6)">
     <use xlink:href="#C0_0_e9049807c2" x="96.059088" y="38.431365" style="fill: #ff8c00; fill-opacity: 0.8"/>
    </g>
    <g clip-path="url(#p4ac8e6bff6)">
     <use xlink:href="#C0_0_e9049807c2" x="104.18542" y="47.29521" style="fill: #ff8c00; fill-opacity: 0.8"/>
    </g>
    <g clip-path="url(#p4ac8e6bff6)">
     <use xlink:href="#C0_0_e9049807c2" x="104.18542" y="12.63239" style="fill: #ff8c00; fill-opacity: 0.8"/>
    </g>
    <g clip-path="url(#p4ac8e6bff6)">
     <use xlink:href="#C0_0_e9049807c2" x="96.059088" y="9.209924" style="fill: #ff8c00; fill-opacity: 0.8"/>
    </g>
    <g clip-path="url(#p4ac8e6bff6)">
     <use xlink:href="#C0_0_e9049807c2" x="120.438084" y="69.437408" style="fill: #ff8c00; fill-opacity: 0.8"/>
    </g>
    <g clip-path="url(#p4ac8e6bff6)">
     <use xlink:href="#C0_0_e9049807c2" x="124.50125" y="42.879244" style="fill: #ff8c00; fill-opacity: 0.8"/>
    </g>
    <g clip-path="url(#p4ac8e6bff6)">
     <use xlink:href="#C0_0_e9049807c2" x="120.438084" y="52.331341" style="fill: #ff8c00; fill-opacity: 0.8"/>
    </g>
    <g clip-path="url(#p4ac8e6bff6)">
     <use xlink:href="#C0_0_e9049807c2" x="104.18542" y="52.037729" style="fill: #ff8c00; fill-opacity: 0.8"/>
    </g>
    <g clip-path="url(#p4ac8e6bff6)">
     <use xlink:href="#C0_0_e9049807c2" x="79.806424" y="51.739807" style="fill: #ff8c00; fill-opacity: 0.8"/>
    </g>
    <g clip-path="url(#p4ac8e6bff6)">
     <use xlink:href="#C0_0_e9049807c2" x="144.817079" y="54.902496" style="fill: #ff8c00; fill-opacity: 0.8"/>
    </g>
    <g clip-path="url(#p4ac8e6bff6)">
     <use xlink:href="#C0_0_e9049807c2" x="124.50125" y="55.560649" style="fill: #ff8c00; fill-opacity: 0.8"/>
    </g>
    <g clip-path="url(#p4ac8e6bff6)">
     <use xlink:href="#C0_0_e9049807c2" x="112.311752" y="41.310901" style="fill: #ff8c00; fill-opacity: 0.8"/>
    </g>
    <g clip-path="url(#p4ac8e6bff6)">
     <use xlink:href="#C0_0_e9049807c2" x="120.438084" y="32.322564" style="fill: #ff8c00; fill-opacity: 0.8"/>
    </g>
    <g clip-path="url(#p4ac8e6bff6)">
     <use xlink:href="#C0_0_e9049807c2" x="100.122254" y="69.027455" style="fill: #ff8c00; fill-opacity: 0.8"/>
    </g>
    <g clip-path="url(#p4ac8e6bff6)">
     <use xlink:href="#C0_0_e9049807c2" x="100.122254" y="53.537702" style="fill: #ff8c00; fill-opacity: 0.8"/>
    </g>
    <g clip-path="url(#p4ac8e6bff6)">
     <use xlink:href="#C0_0_e9049807c2" x="91.995922" y="32.90912" style="fill: #ff8c00; fill-opacity: 0.8"/>
    </g>
    <g clip-path="url(#p4ac8e6bff6)">
     <use xlink:href="#C0_0_e9049807c2" x="116.374918" y="57.990716" style="fill: #ff8c00; fill-opacity: 0.8"/>
    </g>
    <g clip-path="url(#p4ac8e6bff6)">
     <use xlink:href="#C0_0_e9049807c2" x="71.680092" y="19.760225" style="fill: #ff8c00; fill-opacity: 0.8"/>
    </g>
    <g clip-path="url(#p4ac8e6bff6)">
     <use xlink:href="#C0_0_e9049807c2" x="100.122254" y="36.020095" style="fill: #ff8c00; fill-opacity: 0.8"/>
    </g>
    <g clip-path="url(#p4ac8e6bff6)">
     <use xlink:href="#C0_0_e9049807c2" x="100.122254" y="35.115557" style="fill: #ff8c00; fill-opacity: 0.8"/>
    </g>
    <g clip-path="url(#p4ac8e6bff6)">
     <use xlink:href="#C0_0_e9049807c2" x="96.059088" y="27.841829" style="fill: #ff8c00; fill-opacity: 0.8"/>
    </g>
    <g clip-path="url(#p4ac8e6bff6)">
     <use xlink:href="#C0_0_e9049807c2" x="96.059088" y="62.833321" style="fill: #ff8c00; fill-opacity: 0.8"/>
    </g>
    <g clip-path="url(#p4ac8e6bff6)">
     <use xlink:href="#C0_0_e9049807c2" x="75.743258" y="53.193365" style="fill: #ff8c00; fill-opacity: 0.8"/>
    </g>
    <g clip-path="url(#p4ac8e6bff6)">
     <use xlink:href="#C0_0_e9049807c2" x="124.50125" y="68.1853" style="fill: #ff8c00; fill-opacity: 0.8"/>
    </g>
    <g clip-path="url(#p4ac8e6bff6)">
     <use xlink:href="#C0_0_e9049807c2" x="124.50125" y="60.813759" style="fill: #ff8c00; fill-opacity: 0.8"/>
    </g>
    <g clip-path="url(#p4ac8e6bff6)">
     <use xlink:href="#C0_0_e9049807c2" x="104.18542" y="83.927596" style="fill: #ff8c00; fill-opacity: 0.8"/>
    </g>
    <g clip-path="url(#p4ac8e6bff6)">
     <use xlink:href="#C0_0_e9049807c2" x="96.059088" y="35.070337" style="fill: #ff8c00; fill-opacity: 0.8"/>
    </g>
    <g clip-path="url(#p4ac8e6bff6)">
     <use xlink:href="#C0_0_e9049807c2" x="132.627582" y="61.169147" style="fill: #ff8c00; fill-opacity: 0.8"/>
    </g>
    <g clip-path="url(#p4ac8e6bff6)">
     <use xlink:href="#C0_0_e9049807c2" x="79.806424" y="71.769827" style="fill: #ff8c00; fill-opacity: 0.8"/>
    </g>
    <g clip-path="url(#p4ac8e6bff6)">
     <use xlink:href="#C0_0_e9049807c2" x="104.18542" y="29.842239" style="fill: #ff8c00; fill-opacity: 0.8"/>
    </g>
    <g clip-path="url(#p4ac8e6bff6)">
     <use xlink:href="#C0_0_e9049807c2" x="104.18542" y="25.571761" style="fill: #ff8c00; fill-opacity: 0.8"/>
    </g>
    <g clip-path="url(#p4ac8e6bff6)">
     <use xlink:href="#C0_0_e9049807c2" x="100.122254" y="59.723326" style="fill: #ff8c00; fill-opacity: 0.8"/>
    </g>
    <g clip-path="url(#p4ac8e6bff6)">
     <use xlink:href="#C0_0_e9049807c2" x="100.122254" y="21.425447" style="fill: #ff8c00; fill-opacity: 0.8"/>
    </g>
    <g clip-path="url(#p4ac8e6bff6)">
     <use xlink:href="#C0_0_e9049807c2" x="100.122254" y="59.576699" style="fill: #ff8c00; fill-opacity: 0.8"/>
    </g>
    <g clip-path="url(#p4ac8e6bff6)">
     <use xlink:href="#C0_0_e9049807c2" x="120.438084" y="79.443138" style="fill: #ff8c00; fill-opacity: 0.8"/>
    </g>
    <g clip-path="url(#p4ac8e6bff6)">
     <use xlink:href="#C0_0_e9049807c2" x="96.059088" y="41.259796" style="fill: #ff8c00; fill-opacity: 0.8"/>
    </g>
    <g clip-path="url(#p4ac8e6bff6)">
     <use xlink:href="#C0_0_e9049807c2" x="96.059088" y="62.243616" style="fill: #ff8c00; fill-opacity: 0.8"/>
    </g>
    <g clip-path="url(#p4ac8e6bff6)">
     <use xlink:href="#C0_0_e9049807c2" x="47.301096" y="61.508243" style="fill: #ff8c00; fill-opacity: 0.8"/>
    </g>
    <g clip-path="url(#p4ac8e6bff6)">
     <use xlink:href="#C0_0_e9049807c2" x="108.248586" y="44.515373" style="fill: #ff8c00; fill-opacity: 0.8"/>
    </g>
    <g clip-path="url(#p4ac8e6bff6)">
     <use xlink:href="#C0_0_e9049807c2" x="104.18542" y="45.251176" style="fill: #ff8c00; fill-opacity: 0.8"/>
    </g>
    <g clip-path="url(#p4ac8e6bff6)">
     <use xlink:href="#C0_0_e9049807c2" x="120.438084" y="49.337715" style="fill: #ff8c00; fill-opacity: 0.8"/>
    </g>
    <g clip-path="url(#p4ac8e6bff6)">
     <use xlink:href="#C0_0_e9049807c2" x="136.690748" y="32.015918" style="fill: #ff8c00; fill-opacity: 0.8"/>
    </g>
    <g clip-path="url(#p4ac8e6bff6)">
     <use xlink:href="#C0_0_e9049807c2" x="120.438084" y="48.56918" style="fill: #ff8c00; fill-opacity: 0.8"/>
    </g>
    <g clip-path="url(#p4ac8e6bff6)">
     <use xlink:href="#C0_0_e9049807c2" x="39.174764" y="54.872477" style="fill: #ff8c00; fill-opacity: 0.8"/>
    </g>
    <g clip-path="url(#p4ac8e6bff6)">
     <use xlink:href="#C0_0_e9049807c2" x="91.995922" y="58.355942" style="fill: #ff8c00; fill-opacity: 0.8"/>
    </g>
    <g clip-path="url(#p4ac8e6bff6)">
     <use xlink:href="#C0_0_e9049807c2" x="112.311752" y="54.828702" style="fill: #ff8c00; fill-opacity: 0.8"/>
    </g>
    <g clip-path="url(#p4ac8e6bff6)">
     <use xlink:href="#C0_0_e9049807c2" x="132.627582" y="65.711699" style="fill: #ff8c00; fill-opacity: 0.8"/>
    </g>
    <g clip-path="url(#p4ac8e6bff6)">
     <use xlink:href="#C0_0_e9049807c2" x="108.248586" y="24.278165" style="fill: #ff8c00; fill-opacity: 0.8"/>
    </g>
    <g clip-path="url(#p4ac8e6bff6)">
     <use xlink:href="#C0_0_e9049807c2" x="79.806424" y="81.276003" style="fill: #ff8c00; fill-opacity: 0.8"/>
    </g>
    <g clip-path="url(#p4ac8e6bff6)">
     <use xlink:href="#C0_0_e9049807c2" x="128.564416" y="32.21436" style="fill: #ff8c00; fill-opacity: 0.8"/>
    </g>
    <g clip-path="url(#p4ac8e6bff6)">
     <use xlink:href="#C0_0_e9049807c2" x="79.806424" y="23.635844" style="fill: #ff8c00; fill-opacity: 0.8"/>
    </g>
    <g clip-path="url(#p4ac8e6bff6)">
     <use xlink:href="#C0_0_e9049807c2" x="128.564416" y="80.787068" style="fill: #ff8c00; fill-opacity: 0.8"/>
    </g>
    <g clip-path="url(#p4ac8e6bff6)">
     <use xlink:href="#C0_0_e9049807c2" x="79.806424" y="14.013022" style="fill: #ff8c00; fill-opacity: 0.8"/>
    </g>
    <g clip-path="url(#p4ac8e6bff6)">
     <use xlink:href="#C0_0_e9049807c2" x="71.680092" y="17.937462" style="fill: #ff8c00; fill-opacity: 0.8"/>
    </g>
    <g clip-path="url(#p4ac8e6bff6)">
     <use xlink:href="#C0_0_e9049807c2" x="120.438084" y="62.263377" style="fill: #ff8c00; fill-opacity: 0.8"/>
    </g>
    <g clip-path="url(#p4ac8e6bff6)">
     <use xlink:href="#C0_0_e9049807c2" x="124.50125" y="54.484676" style="fill: #ff8c00; fill-opacity: 0.8"/>
    </g>
    <g clip-path="url(#p4ac8e6bff6)">
     <use xlink:href="#C0_0_e9049807c2" x="39.174764" y="78.733757" style="fill: #ff8c00; fill-opacity: 0.8"/>
    </g>
    <g clip-path="url(#p4ac8e6bff6)">
     <use xlink:href="#C0_0_e9049807c2" x="120.438084" y="52.056259" style="fill: #ff8c00; fill-opacity: 0.8"/>
    </g>
    <g clip-path="url(#p4ac8e6bff6)">
     <use xlink:href="#C0_0_e9049807c2" x="96.059088" y="34.187768" style="fill: #ff8c00; fill-opacity: 0.8"/>
    </g>
    <g clip-path="url(#p4ac8e6bff6)">
     <use xlink:href="#C0_0_e9049807c2" x="104.18542" y="61.503577" style="fill: #ff8c00; fill-opacity: 0.8"/>
    </g>
    <g clip-path="url(#p4ac8e6bff6)">
     <use xlink:href="#C0_0_e9049807c2" x="108.248586" y="49.187968" style="fill: #ff8c00; fill-opacity: 0.8"/>
    </g>
    <g clip-path="url(#p4ac8e6bff6)">
     <use xlink:href="#C0_0_e9049807c2" x="108.248586" y="61.261279" style="fill: #ff8c00; fill-opacity: 0.8"/>
    </g>
    <g clip-path="url(#p4ac8e6bff6)">
     <use xlink:href="#C0_0_e9049807c2" x="128.564416" y="33.499082" style="fill: #ff8c00; fill-opacity: 0.8"/>
    </g>
    <g clip-path="url(#p4ac8e6bff6)">
     <use xlink:href="#C0_0_e9049807c2" x="96.059088" y="27.408915" style="fill: #ff8c00; fill-opacity: 0.8"/>
    </g>
    <g clip-path="url(#p4ac8e6bff6)">
     <use xlink:href="#C0_0_e9049807c2" x="96.059088" y="44.975469" style="fill: #ff8c00; fill-opacity: 0.8"/>
    </g>
    <g clip-path="url(#p4ac8e6bff6)">
     <use xlink:href="#C0_0_e9049807c2" x="108.248586" y="41.511133" style="fill: #ff8c00; fill-opacity: 0.8"/>
    </g>
    <g clip-path="url(#p4ac8e6bff6)">
     <use xlink:href="#C0_0_e9049807c2" x="63.55376" y="67.702694" style="fill: #ff8c00; fill-opacity: 0.8"/>
    </g>
    <g clip-path="url(#p4ac8e6bff6)">
     <use xlink:href="#C0_0_e9049807c2" x="120.438084" y="32.526061" style="fill: #ff8c00; fill-opacity: 0.8"/>
    </g>
    <g clip-path="url(#p4ac8e6bff6)">
     <use xlink:href="#C0_0_e9049807c2" x="116.374918" y="67.984722" style="fill: #ff8c00; fill-opacity: 0.8"/>
    </g>
    <g clip-path="url(#p4ac8e6bff6)">
     <use xlink:href="#C0_0_e9049807c2" x="79.806424" y="65.375107" style="fill: #ff8c00; fill-opacity: 0.8"/>
    </g>
    <g clip-path="url(#p4ac8e6bff6)">
     <use xlink:href="#C0_0_e9049807c2" x="120.438084" y="37.679527" style="fill: #ff8c00; fill-opacity: 0.8"/>
    </g>
    <g clip-path="url(#p4ac8e6bff6)">
     <use xlink:href="#C0_0_e9049807c2" x="112.311752" y="65.920675" style="fill: #ff8c00; fill-opacity: 0.8"/>
    </g>
    <g clip-path="url(#p4ac8e6bff6)">
     <use xlink:href="#C0_0_e9049807c2" x="128.564416" y="37.761635" style="fill: #ff8c00; fill-opacity: 0.8"/>
    </g>
    <g clip-path="url(#p4ac8e6bff6)">
     <use xlink:href="#C0_0_e9049807c2" x="112.311752" y="72.174896" style="fill: #ff8c00; fill-opacity: 0.8"/>
    </g>
    <g clip-path="url(#p4ac8e6bff6)">
     <use xlink:href="#C0_0_e9049807c2" x="128.564416" y="73.805188" style="fill: #ff8c00; fill-opacity: 0.8"/>
    </g>
    <g clip-path="url(#p4ac8e6bff6)">
     <use xlink:href="#C0_0_e9049807c2" x="63.55376" y="30.661635" style="fill: #ff8c00; fill-opacity: 0.8"/>
    </g>
    <g clip-path="url(#p4ac8e6bff6)">
     <use xlink:href="#C0_0_e9049807c2" x="91.995922" y="38.684082" style="fill: #ff8c00; fill-opacity: 0.8"/>
    </g>
    <g clip-path="url(#p4ac8e6bff6)">
     <use xlink:href="#C0_0_e9049807c2" x="100.122254" y="63.294758" style="fill: #ff8c00; fill-opacity: 0.8"/>
    </g>
    <g clip-path="url(#p4ac8e6bff6)">
     <use xlink:href="#C0_0_e9049807c2" x="83.86959" y="18.897743" style="fill: #ff8c00; fill-opacity: 0.8"/>
    </g>
    <g clip-path="url(#p4ac8e6bff6)">
     <use xlink:href="#C0_0_e9049807c2" x="112.311752" y="40.268253" style="fill: #ff8c00; fill-opacity: 0.8"/>
    </g>
    <g clip-path="url(#p4ac8e6bff6)">
     <use xlink:href="#C0_0_e9049807c2" x="100.122254" y="71.76422" style="fill: #ff8c00; fill-opacity: 0.8"/>
    </g>
    <g clip-path="url(#p4ac8e6bff6)">
     <use xlink:href="#C0_0_e9049807c2" x="79.806424" y="53.499056" style="fill: #ff8c00; fill-opacity: 0.8"/>
    </g>
    <g clip-path="url(#p4ac8e6bff6)">
     <use xlink:href="#C0_0_e9049807c2" x="124.50125" y="59.20767" style="fill: #ff8c00; fill-opacity: 0.8"/>
    </g>
    <g clip-path="url(#p4ac8e6bff6)">
     <use xlink:href="#C0_0_e9049807c2" x="96.059088" y="56.958847" style="fill: #ff8c00; fill-opacity: 0.8"/>
    </g>
    <g clip-path="url(#p4ac8e6bff6)">
     <use xlink:href="#C0_0_e9049807c2" x="100.122254" y="49.162741" style="fill: #ff8c00; fill-opacity: 0.8"/>
    </g>
    <g clip-path="url(#p4ac8e6bff6)">
     <use xlink:href="#C0_0_e9049807c2" x="108.248586" y="49.6301" style="fill: #ff8c00; fill-opacity: 0.8"/>
    </g>
    <g clip-path="url(#p4ac8e6bff6)">
     <use xlink:href="#C0_0_e9049807c2" x="87.932756" y="44.340331" style="fill: #ff8c00; fill-opacity: 0.8"/>
    </g>
    <g clip-path="url(#p4ac8e6bff6)">
     <use xlink:href="#C0_0_e9049807c2" x="120.438084" y="44.178103" style="fill: #ff8c00; fill-opacity: 0.8"/>
    </g>
    <g clip-path="url(#p4ac8e6bff6)">
     <use xlink:href="#C0_0_e9049807c2" x="79.806424" y="49.948659" style="fill: #ff8c00; fill-opacity: 0.8"/>
    </g>
    <g clip-path="url(#p4ac8e6bff6)">
     <use xlink:href="#C0_0_e9049807c2" x="120.438084" y="32.133865" style="fill: #ff8c00; fill-opacity: 0.8"/>
    </g>
    <g clip-path="url(#p4ac8e6bff6)">
     <use xlink:href="#C0_0_e9049807c2" x="87.932756" y="19.09069" style="fill: #ff8c00; fill-opacity: 0.8"/>
    </g>
    <g clip-path="url(#p4ac8e6bff6)">
     <use xlink:href="#C0_0_e9049807c2" x="96.059088" y="65.414415" style="fill: #ff8c00; fill-opacity: 0.8"/>
    </g>
    <g clip-path="url(#p4ac8e6bff6)">
     <use xlink:href="#C0_0_e9049807c2" x="104.18542" y="10.37171" style="fill: #ff8c00; fill-opacity: 0.8"/>
    </g>
    <g clip-path="url(#p4ac8e6bff6)">
     <use xlink:href="#C0_0_e9049807c2" x="128.564416" y="51.160309" style="fill: #ff8c00; fill-opacity: 0.8"/>
    </g>
    <g clip-path="url(#p4ac8e6bff6)">
     <use xlink:href="#C0_0_e9049807c2" x="91.995922" y="31.676942" style="fill: #ff8c00; fill-opacity: 0.8"/>
    </g>
    <g clip-path="url(#p4ac8e6bff6)">
     <use xlink:href="#C0_0_e9049807c2" x="104.18542" y="50.530457" style="fill: #ff8c00; fill-opacity: 0.8"/>
    </g>
    <g clip-path="url(#p4ac8e6bff6)">
     <use xlink:href="#C0_0_e9049807c2" x="112.311752" y="28.946841" style="fill: #ff8c00; fill-opacity: 0.8"/>
    </g>
    <g clip-path="url(#p4ac8e6bff6)">
     <use xlink:href="#C0_0_e9049807c2" x="100.122254" y="60.935015" style="fill: #ff8c00; fill-opacity: 0.8"/>
    </g>
    <g clip-path="url(#p4ac8e6bff6)">
     <use xlink:href="#C0_0_e9049807c2" x="128.564416" y="72.932615" style="fill: #ff8c00; fill-opacity: 0.8"/>
    </g>
    <g clip-path="url(#p4ac8e6bff6)">
     <use xlink:href="#C0_0_e9049807c2" x="91.995922" y="22.699409" style="fill: #ff8c00; fill-opacity: 0.8"/>
    </g>
    <g clip-path="url(#p4ac8e6bff6)">
     <use xlink:href="#C0_0_e9049807c2" x="124.50125" y="36.296411" style="fill: #ff8c00; fill-opacity: 0.8"/>
    </g>
    <g clip-path="url(#p4ac8e6bff6)">
     <use xlink:href="#C0_0_e9049807c2" x="96.059088" y="41.488825" style="fill: #ff8c00; fill-opacity: 0.8"/>
    </g>
    <g clip-path="url(#p4ac8e6bff6)">
     <use xlink:href="#C0_0_e9049807c2" x="104.18542" y="39.526051" style="fill: #ff8c00; fill-opacity: 0.8"/>
    </g>
    <g clip-path="url(#p4ac8e6bff6)">
     <use xlink:href="#C0_0_e9049807c2" x="104.18542" y="36.058615" style="fill: #ff8c00; fill-opacity: 0.8"/>
    </g>
    <g clip-path="url(#p4ac8e6bff6)">
     <use xlink:href="#C0_0_e9049807c2" x="87.932756" y="73.531542" style="fill: #ff8c00; fill-opacity: 0.8"/>
    </g>
    <g clip-path="url(#p4ac8e6bff6)">
     <use xlink:href="#C0_0_e9049807c2" x="91.995922" y="60.565013" style="fill: #ff8c00; fill-opacity: 0.8"/>
    </g>
    <g clip-path="url(#p4ac8e6bff6)">
     <use xlink:href="#C0_0_e9049807c2" x="104.18542" y="16.471283" style="fill: #ff8c00; fill-opacity: 0.8"/>
    </g>
    <g clip-path="url(#p4ac8e6bff6)">
     <use xlink:href="#C0_0_e9049807c2" x="100.122254" y="35.452144" style="fill: #ff8c00; fill-opacity: 0.8"/>
    </g>
    <g clip-path="url(#p4ac8e6bff6)">
     <use xlink:href="#C0_0_e9049807c2" x="120.438084" y="49.478514" style="fill: #ff8c00; fill-opacity: 0.8"/>
    </g>
    <g clip-path="url(#p4ac8e6bff6)">
     <use xlink:href="#C0_0_e9049807c2" x="96.059088" y="60.265345" style="fill: #ff8c00; fill-opacity: 0.8"/>
    </g>
    <g clip-path="url(#p4ac8e6bff6)">
     <use xlink:href="#C0_0_e9049807c2" x="112.311752" y="51.227906" style="fill: #ff8c00; fill-opacity: 0.8"/>
    </g>
    <g clip-path="url(#p4ac8e6bff6)">
     <use xlink:href="#C0_0_e9049807c2" x="120.438084" y="52.270202" style="fill: #ff8c00; fill-opacity: 0.8"/>
    </g>
    <g clip-path="url(#p4ac8e6bff6)">
     <use xlink:href="#C0_0_e9049807c2" x="79.806424" y="61.274538" style="fill: #ff8c00; fill-opacity: 0.8"/>
    </g>
    <g clip-path="url(#p4ac8e6bff6)">
     <use xlink:href="#C0_0_e9049807c2" x="128.564416" y="36.081802" style="fill: #ff8c00; fill-opacity: 0.8"/>
    </g>
    <g clip-path="url(#p4ac8e6bff6)">
     <use xlink:href="#C0_0_e9049807c2" x="120.438084" y="43.124808" style="fill: #ff8c00; fill-opacity: 0.8"/>
    </g>
    <g clip-path="url(#p4ac8e6bff6)">
     <use xlink:href="#C0_0_e9049807c2" x="108.248586" y="27.640273" style="fill: #ff8c00; fill-opacity: 0.8"/>
    </g>
    <g clip-path="url(#p4ac8e6bff6)">
     <use xlink:href="#C0_0_e9049807c2" x="79.806424" y="85.408403" style="fill: #ff8c00; fill-opacity: 0.8"/>
    </g>
    <g clip-path="url(#p4ac8e6bff6)">
     <use xlink:href="#C0_0_e9049807c2" x="112.311752" y="23.814944" style="fill: #ff8c00; fill-opacity: 0.8"/>
    </g>
    <g clip-path="url(#p4ac8e6bff6)">
     <use xlink:href="#C0_0_e9049807c2" x="124.50125" y="42.424849" style="fill: #ff8c00; fill-opacity: 0.8"/>
    </g>
    <g clip-path="url(#p4ac8e6bff6)">
     <use xlink:href="#C0_0_e9049807c2" x="128.564416" y="47.035998" style="fill: #ff8c00; fill-opacity: 0.8"/>
    </g>
    <g clip-path="url(#p4ac8e6bff6)">
     <use xlink:href="#C0_0_e9049807c2" x="47.301096" y="60.159052" style="fill: #ff8c00; fill-opacity: 0.8"/>
    </g>
    <g clip-path="url(#p4ac8e6bff6)">
     <use xlink:href="#C0_0_e9049807c2" x="112.311752" y="27.456073" style="fill: #ff8c00; fill-opacity: 0.8"/>
    </g>
    <g clip-path="url(#p4ac8e6bff6)">
     <use xlink:href="#C0_0_e9049807c2" x="100.122254" y="27.473463" style="fill: #ff8c00; fill-opacity: 0.8"/>
    </g>
    <g clip-path="url(#p4ac8e6bff6)">
     <use xlink:href="#C0_0_e9049807c2" x="112.311752" y="60.014789" style="fill: #ff8c00; fill-opacity: 0.8"/>
    </g>
    <g clip-path="url(#p4ac8e6bff6)">
     <use xlink:href="#C0_0_e9049807c2" x="124.50125" y="41.696758" style="fill: #ff8c00; fill-opacity: 0.8"/>
    </g>
    <g clip-path="url(#p4ac8e6bff6)">
     <use xlink:href="#C0_0_e9049807c2" x="108.248586" y="55.876282" style="fill: #ff8c00; fill-opacity: 0.8"/>
    </g>
    <g clip-path="url(#p4ac8e6bff6)">
     <use xlink:href="#C0_0_e9049807c2" x="112.311752" y="27.027981" style="fill: #ff8c00; fill-opacity: 0.8"/>
    </g>
    <g clip-path="url(#p4ac8e6bff6)">
     <use xlink:href="#C0_0_e9049807c2" x="132.627582" y="27.944431" style="fill: #ff8c00; fill-opacity: 0.8"/>
    </g>
    <g clip-path="url(#p4ac8e6bff6)">
     <use xlink:href="#C0_0_e9049807c2" x="63.55376" y="75.364818" style="fill: #ff8c00; fill-opacity: 0.8"/>
    </g>
   </g>
   <g id="PolyCollection_1">
    <defs>
     <path id="m9ed9ce94b0" d="M 31.048432 -73.216828 
L 31.048432 -54.05743 
L 32.197611 -54.245839 
L 33.346789 -54.43437 
L 34.495967 -54.615482 
L 35.645145 -54.7987 
L 36.794324 -54.979699 
L 37.943502 -55.157013 
L 39.09268 -55.31916 
L 40.241858 -55.491197 
L 41.391037 -55.682345 
L 42.540215 -55.860829 
L 43.689393 -56.036829 
L 44.838571 -56.197609 
L 45.98775 -56.360156 
L 47.136928 -56.526338 
L 48.286106 -56.704408 
L 49.435284 -56.857474 
L 50.584463 -57.027354 
L 51.733641 -57.208619 
L 52.882819 -57.374687 
L 54.031997 -57.528445 
L 55.181176 -57.70486 
L 56.330354 -57.873891 
L 57.479532 -58.059554 
L 58.62871 -58.22829 
L 59.777889 -58.396688 
L 60.927067 -58.566072 
L 62.076245 -58.721469 
L 63.225423 -58.878717 
L 64.374602 -59.045661 
L 65.52378 -59.225694 
L 66.672958 -59.408276 
L 67.822136 -59.583851 
L 68.971315 -59.752678 
L 70.120493 -59.907669 
L 71.269671 -60.07628 
L 72.418849 -60.251052 
L 73.568028 -60.407829 
L 74.717206 -60.565407 
L 75.866384 -60.743996 
L 77.015562 -60.901907 
L 78.164741 -61.054049 
L 79.313919 -61.199485 
L 80.463097 -61.364612 
L 81.612276 -61.531659 
L 82.761454 -61.683303 
L 83.910632 -61.84494 
L 85.05981 -61.985149 
L 86.208989 -62.130507 
L 87.358167 -62.281825 
L 88.507345 -62.425766 
L 89.656523 -62.565819 
L 90.805702 -62.702985 
L 91.95488 -62.845603 
L 93.104058 -62.969092 
L 94.253236 -63.096291 
L 95.402415 -63.21484 
L 96.551593 -63.324196 
L 97.700771 -63.434964 
L 98.849949 -63.528675 
L 99.999128 -63.635318 
L 101.148306 -63.738352 
L 102.297484 -63.811424 
L 103.446662 -63.89654 
L 104.595841 -63.984845 
L 105.745019 -64.069826 
L 106.894197 -64.127764 
L 108.043375 -64.208236 
L 109.192554 -64.256107 
L 110.341732 -64.30806 
L 111.49091 -64.358367 
L 112.640088 -64.389568 
L 113.789267 -64.409153 
L 114.938445 -64.417528 
L 116.087623 -64.422719 
L 117.236801 -64.433672 
L 118.38598 -64.44253 
L 119.535158 -64.443289 
L 120.684336 -64.406975 
L 121.833514 -64.395418 
L 122.982693 -64.357001 
L 124.131871 -64.325876 
L 125.281049 -64.291728 
L 126.430227 -64.26019 
L 127.579406 -64.219126 
L 128.728584 -64.163552 
L 129.877762 -64.102951 
L 131.02694 -64.051108 
L 132.176119 -63.988682 
L 133.325297 -63.945371 
L 134.474475 -63.879199 
L 135.623653 -63.818914 
L 136.772832 -63.759209 
L 137.92201 -63.671831 
L 139.071188 -63.600199 
L 140.220366 -63.515483 
L 141.369545 -63.420642 
L 142.518723 -63.340873 
L 143.667901 -63.264128 
L 144.817079 -63.1808 
L 144.817079 -73.305955 
L 144.817079 -73.305955 
L 143.667901 -73.124545 
L 142.518723 -72.977056 
L 141.369545 -72.809887 
L 140.220366 -72.639896 
L 139.071188 -72.478364 
L 137.92201 -72.312536 
L 136.772832 -72.146423 
L 135.623653 -71.970488 
L 134.474475 -71.810478 
L 133.325297 -71.642703 
L 132.176119 -71.485754 
L 131.02694 -71.346604 
L 129.877762 -71.193746 
L 128.728584 -71.054303 
L 127.579406 -70.913928 
L 126.430227 -70.774394 
L 125.281049 -70.640992 
L 124.131871 -70.497012 
L 122.982693 -70.354388 
L 121.833514 -70.220114 
L 120.684336 -70.093162 
L 119.535158 -69.970736 
L 118.38598 -69.835892 
L 117.236801 -69.735195 
L 116.087623 -69.625324 
L 114.938445 -69.510014 
L 113.789267 -69.413292 
L 112.640088 -69.320341 
L 111.49091 -69.233771 
L 110.341732 -69.154309 
L 109.192554 -69.079313 
L 108.043375 -69.020368 
L 106.894197 -68.96067 
L 105.745019 -68.915187 
L 104.595841 -68.883746 
L 103.446662 -68.826708 
L 102.297484 -68.79346 
L 101.148306 -68.788288 
L 99.999128 -68.782583 
L 98.849949 -68.789208 
L 97.700771 -68.807458 
L 96.551593 -68.826413 
L 95.402415 -68.861085 
L 94.253236 -68.899561 
L 93.104058 -68.950464 
L 91.95488 -69.008991 
L 90.805702 -69.061017 
L 89.656523 -69.11883 
L 88.507345 -69.172091 
L 87.358167 -69.233273 
L 86.208989 -69.310308 
L 85.05981 -69.386889 
L 83.910632 -69.458237 
L 82.761454 -69.531122 
L 81.612276 -69.601288 
L 80.463097 -69.668422 
L 79.313919 -69.748008 
L 78.164741 -69.808773 
L 77.015562 -69.87376 
L 75.866384 -69.960492 
L 74.717206 -70.045247 
L 73.568028 -70.11085 
L 72.418849 -70.200613 
L 71.269671 -70.278932 
L 70.120493 -70.347955 
L 68.971315 -70.422621 
L 67.822136 -70.503167 
L 66.672958 -70.563866 
L 65.52378 -70.639169 
L 64.374602 -70.70717 
L 63.225423 -70.797639 
L 62.076245 -70.885724 
L 60.927067 -70.975943 
L 59.777889 -71.044461 
L 58.62871 -71.142623 
L 57.479532 -71.227479 
L 56.330354 -71.319794 
L 55.181176 -71.387898 
L 54.031997 -71.479935 
L 52.882819 -71.554095 
L 51.733641 -71.645165 
L 50.584463 -71.736318 
L 49.435284 -71.823969 
L 48.286106 -71.907709 
L 47.136928 -71.978085 
L 45.98775 -72.067221 
L 44.838571 -72.156478 
L 43.689393 -72.245492 
L 42.540215 -72.334668 
L 41.391037 -72.422132 
L 40.241858 -72.505806 
L 39.09268 -72.595473 
L 37.943502 -72.683625 
L 36.794324 -72.767917 
L 35.645145 -72.852948 
L 34.495967 -72.939544 
L 33.346789 -73.029492 
L 32.197611 -73.122361 
L 31.048432 -73.216828 
z
" style="stroke: #ffffff; stroke-opacity: 0.15"/>
    </defs>
    <g clip-path="url(#p4ac8e6bff6)">
     <use xlink:href="#m9ed9ce94b0" x="0" y="113.385827" style="fill: #ff8c00; fill-opacity: 0.15; stroke: #ffffff; stroke-opacity: 0.15"/>
    </g>
   </g>
   <g id="line2d_1">
    <path d="M 31.048432 50.69393 
L 32.197611 50.635481 
L 33.346789 50.577031 
L 34.495967 50.518582 
L 35.645145 50.460133 
L 36.794324 50.401684 
L 37.943502 50.343235 
L 39.09268 50.284786 
L 40.241858 50.226337 
L 41.391037 50.167888 
L 42.540215 50.109439 
L 43.689393 50.05099 
L 44.838571 49.992541 
L 45.98775 49.934092 
L 47.136928 49.875643 
L 48.286106 49.817193 
L 49.435284 49.758744 
L 50.584463 49.700295 
L 51.733641 49.641846 
L 52.882819 49.583397 
L 54.031997 49.524948 
L 55.181176 49.466499 
L 56.330354 49.40805 
L 57.479532 49.349601 
L 58.62871 49.291152 
L 59.777889 49.232703 
L 60.927067 49.174254 
L 62.076245 49.115805 
L 63.225423 49.057355 
L 64.374602 48.998906 
L 65.52378 48.940457 
L 66.672958 48.882008 
L 67.822136 48.823559 
L 68.971315 48.76511 
L 70.120493 48.706661 
L 71.269671 48.648212 
L 72.418849 48.589763 
L 73.568028 48.531314 
L 74.717206 48.472865 
L 75.866384 48.414416 
L 77.015562 48.355967 
L 78.164741 48.297517 
L 79.313919 48.239068 
L 80.463097 48.180619 
L 81.612276 48.12217 
L 82.761454 48.063721 
L 83.910632 48.005272 
L 85.05981 47.946823 
L 86.208989 47.888374 
L 87.358167 47.829925 
L 88.507345 47.771476 
L 89.656523 47.713027 
L 90.805702 47.654578 
L 91.95488 47.596129 
L 93.104058 47.537679 
L 94.253236 47.47923 
L 95.402415 47.420781 
L 96.551593 47.362332 
L 97.700771 47.303883 
L 98.849949 47.245434 
L 99.999128 47.186985 
L 101.148306 47.128536 
L 102.297484 47.070087 
L 103.446662 47.011638 
L 104.595841 46.953189 
L 105.745019 46.89474 
L 106.894197 46.836291 
L 108.043375 46.777841 
L 109.192554 46.719392 
L 110.341732 46.660943 
L 111.49091 46.602494 
L 112.640088 46.544045 
L 113.789267 46.485596 
L 114.938445 46.427147 
L 116.087623 46.368698 
L 117.236801 46.310249 
L 118.38598 46.2518 
L 119.535158 46.193351 
L 120.684336 46.134902 
L 121.833514 46.076453 
L 122.982693 46.018003 
L 124.131871 45.959554 
L 125.281049 45.901105 
L 126.430227 45.842656 
L 127.579406 45.784207 
L 128.728584 45.725758 
L 129.877762 45.667309 
L 131.02694 45.60886 
L 132.176119 45.550411 
L 133.325297 45.491962 
L 134.474475 45.433513 
L 135.623653 45.375064 
L 136.772832 45.316615 
L 137.92201 45.258165 
L 139.071188 45.199716 
L 140.220366 45.141267 
L 141.369545 45.082818 
L 142.518723 45.024369 
L 143.667901 44.96592 
L 144.817079 44.907471 
" clip-path="url(#p4ac8e6bff6)" style="fill: none; stroke: #ff8c00; stroke-width: 0.75; stroke-linecap: round"/>
   </g>
   <g id="patch_3">
    <path d="M 25.36 89.218327 
L 25.36 5.4 
" style="fill: none; stroke: #262626; stroke-width: 0.25; stroke-linejoin: miter; stroke-linecap: square"/>
   </g>
   <g id="patch_4">
    <path d="M 25.36 89.218327 
L 150.505512 89.218327 
" style="fill: none; stroke: #262626; stroke-width: 0.25; stroke-linejoin: miter; stroke-linecap: square"/>
   </g>
   <g id="text_15">
    <g id="patch_5">
     <path d="M 29.114365 18.699023 
L 57.764365 18.699023 
Q 59.264365 18.699023 59.264365 17.199023 
L 59.264365 7.132617 
Q 59.264365 5.632617 57.764365 5.632617 
L 29.114365 5.632617 
Q 27.614365 5.632617 27.614365 7.132617 
L 27.614365 17.199023 
Q 27.614365 18.699023 29.114365 18.699023 
z
" style="fill: #c0c0c0; opacity: 0.4; stroke: #c0c0c0; stroke-linejoin: miter"/>
    </g>
    <!-- $r=-0.002$ -->
    <g style="fill: #262626" transform="translate(29.114365 10.655273) scale(0.05 -0.05)">
     <defs>
      <path id="DejaVuSans-Oblique-72" d="M 2853 2969 
Q 2766 3016 2653 3041 
Q 2541 3066 2413 3066 
Q 1953 3066 1609 2717 
Q 1266 2369 1153 1784 
L 800 0 
L 225 0 
L 909 3500 
L 1484 3500 
L 1375 2956 
Q 1603 3259 1920 3421 
Q 2238 3584 2597 3584 
Q 2691 3584 2781 3573 
Q 2872 3563 2963 3538 
L 2853 2969 
z
" transform="scale(0.015625)"/>
      <path id="DejaVuSans-3d" d="M 678 2906 
L 4684 2906 
L 4684 2381 
L 678 2381 
L 678 2906 
z
M 678 1631 
L 4684 1631 
L 4684 1100 
L 678 1100 
L 678 1631 
z
" transform="scale(0.015625)"/>
      <path id="DejaVuSans-2212" d="M 678 2272 
L 4684 2272 
L 4684 1741 
L 678 1741 
L 678 2272 
z
" transform="scale(0.015625)"/>
      <path id="DejaVuSans-30" d="M 2034 4250 
Q 1547 4250 1301 3770 
Q 1056 3291 1056 2328 
Q 1056 1369 1301 889 
Q 1547 409 2034 409 
Q 2525 409 2770 889 
Q 3016 1369 3016 2328 
Q 3016 3291 2770 3770 
Q 2525 4250 2034 4250 
z
M 2034 4750 
Q 2819 4750 3233 4129 
Q 3647 3509 3647 2328 
Q 3647 1150 3233 529 
Q 2819 -91 2034 -91 
Q 1250 -91 836 529 
Q 422 1150 422 2328 
Q 422 3509 836 4129 
Q 1250 4750 2034 4750 
z
" transform="scale(0.015625)"/>
      <path id="DejaVuSans-2e" d="M 684 794 
L 1344 794 
L 1344 0 
L 684 0 
L 684 794 
z
" transform="scale(0.015625)"/>
      <path id="DejaVuSans-32" d="M 1228 531 
L 3431 531 
L 3431 0 
L 469 0 
L 469 531 
Q 828 903 1448 1529 
Q 2069 2156 2228 2338 
Q 2531 2678 2651 2914 
Q 2772 3150 2772 3378 
Q 2772 3750 2511 3984 
Q 2250 4219 1831 4219 
Q 1534 4219 1204 4116 
Q 875 4013 500 3803 
L 500 4441 
Q 881 4594 1212 4672 
Q 1544 4750 1819 4750 
Q 2544 4750 2975 4387 
Q 3406 4025 3406 3419 
Q 3406 3131 3298 2873 
Q 3191 2616 2906 2266 
Q 2828 2175 2409 1742 
Q 1991 1309 1228 531 
z
" transform="scale(0.015625)"/>
     </defs>
     <use xlink:href="#DejaVuSans-Oblique-72" transform="translate(0 0.78125)"/>
     <use xlink:href="#DejaVuSans-3d" transform="translate(60.595703 0.78125)"/>
     <use xlink:href="#DejaVuSans-2212" transform="translate(183.349609 0.78125)"/>
     <use xlink:href="#DejaVuSans-30" transform="translate(286.621094 0.78125)"/>
     <use xlink:href="#DejaVuSans-2e" transform="translate(350.244141 0.78125)"/>
     <use xlink:href="#DejaVuSans-30" transform="translate(382.03125 0.78125)"/>
     <use xlink:href="#DejaVuSans-30" transform="translate(445.654297 0.78125)"/>
     <use xlink:href="#DejaVuSans-32" transform="translate(509.277344 0.78125)"/>
    </g>
    <!-- $p=0.977$ -->
    <g style="fill: #262626" transform="translate(29.114365 16.149023) scale(0.05 -0.05)">
     <defs>
      <path id="DejaVuSans-Oblique-70" d="M 3175 2156 
Q 3175 2616 2975 2859 
Q 2775 3103 2400 3103 
Q 2144 3103 1911 2972 
Q 1678 2841 1497 2591 
Q 1319 2344 1212 1994 
Q 1106 1644 1106 1300 
Q 1106 863 1306 627 
Q 1506 391 1875 391 
Q 2147 391 2380 519 
Q 2613 647 2778 891 
Q 2956 1147 3065 1494 
Q 3175 1841 3175 2156 
z
M 1394 2969 
Q 1625 3272 1939 3428 
Q 2253 3584 2638 3584 
Q 3175 3584 3472 3232 
Q 3769 2881 3769 2247 
Q 3769 1728 3584 1258 
Q 3400 788 3053 416 
Q 2822 169 2531 39 
Q 2241 -91 1919 -91 
Q 1547 -91 1294 64 
Q 1041 219 916 525 
L 556 -1331 
L -19 -1331 
L 922 3500 
L 1497 3500 
L 1394 2969 
z
" transform="scale(0.015625)"/>
      <path id="DejaVuSans-39" d="M 703 97 
L 703 672 
Q 941 559 1184 500 
Q 1428 441 1663 441 
Q 2288 441 2617 861 
Q 2947 1281 2994 2138 
Q 2813 1869 2534 1725 
Q 2256 1581 1919 1581 
Q 1219 1581 811 2004 
Q 403 2428 403 3163 
Q 403 3881 828 4315 
Q 1253 4750 1959 4750 
Q 2769 4750 3195 4129 
Q 3622 3509 3622 2328 
Q 3622 1225 3098 567 
Q 2575 -91 1691 -91 
Q 1453 -91 1209 -44 
Q 966 3 703 97 
z
M 1959 2075 
Q 2384 2075 2632 2365 
Q 2881 2656 2881 3163 
Q 2881 3666 2632 3958 
Q 2384 4250 1959 4250 
Q 1534 4250 1286 3958 
Q 1038 3666 1038 3163 
Q 1038 2656 1286 2365 
Q 1534 2075 1959 2075 
z
" transform="scale(0.015625)"/>
      <path id="DejaVuSans-37" d="M 525 4666 
L 3525 4666 
L 3525 4397 
L 1831 0 
L 1172 0 
L 2766 4134 
L 525 4134 
L 525 4666 
z
" transform="scale(0.015625)"/>
     </defs>
     <use xlink:href="#DejaVuSans-Oblique-70" transform="translate(0 0.78125)"/>
     <use xlink:href="#DejaVuSans-3d" transform="translate(82.958984 0.78125)"/>
     <use xlink:href="#DejaVuSans-30" transform="translate(186.230469 0.78125)"/>
     <use xlink:href="#DejaVuSans-2e" transform="translate(249.853516 0.78125)"/>
     <use xlink:href="#DejaVuSans-39" transform="translate(281.640625 0.78125)"/>
     <use xlink:href="#DejaVuSans-37" transform="translate(345.263672 0.78125)"/>
     <use xlink:href="#DejaVuSans-37" transform="translate(407.136719 0.78125)"/>
    </g>
   </g>
  </g>
 </g>
 <defs>
  <clipPath id="p4ac8e6bff6">
   <rect x="25.36" y="5.4" width="125.145512" height="83.818327"/>
  </clipPath>
 </defs>
</svg>
