<?xml version="1.0" encoding="utf-8" standalone="no"?>
<!DOCTYPE svg PUBLIC "-//W3C//DTD SVG 1.1//EN"
  "http://www.w3.org/Graphics/SVG/1.1/DTD/svg11.dtd">
<svg xmlns:xlink="http://www.w3.org/1999/xlink" width="260.163437pt" height="258.463437pt" viewBox="0 0 260.163437 258.463437" xmlns="http://www.w3.org/2000/svg" version="1.1">
 <metadata>
  <rdf:RDF xmlns:dc="http://purl.org/dc/elements/1.1/" xmlns:cc="http://creativecommons.org/ns#" xmlns:rdf="http://www.w3.org/1999/02/22-rdf-syntax-ns#">
   <cc:Work>
    <dc:type rdf:resource="http://purl.org/dc/dcmitype/StillImage"/>
    <dc:date>2025-08-14T15:30:03.132048</dc:date>
    <dc:format>image/svg+xml</dc:format>
    <dc:creator>
     <cc:Agent>
      <dc:title>Matplotlib v3.9.2, https://matplotlib.org/</dc:title>
     </cc:Agent>
    </dc:creator>
   </cc:Work>
  </rdf:RDF>
 </metadata>
 <defs>
  <style type="text/css">*{stroke-linejoin: round; stroke-linecap: butt}</style>
 </defs>
 <g id="figure_1">
  <g id="patch_1">
   <path d="M 0 258.463437 
L 260.163437 258.463437 
L 260.163437 0 
L 0 0 
z
" style="fill: #ffffff"/>
  </g>
  <g id="axes_1">
   <g id="patch_2">
    <path d="M 85.563438 228.96 
L 252.963437 228.96 
L 252.963437 7.2 
L 85.563438 7.2 
z
" style="fill: #ffffff"/>
   </g>
   <g id="matplotlib.axis_1">
    <g id="xtick_1">
     <g id="text_1">
      <!-- Full-term -->
      <g style="fill: #262626" transform="translate(99.382273 248.480937) scale(0.14 -0.14)">
       <defs>
        <path id="ArialMT-46" d="M 525 0 
L 525 4581 
L 3616 4581 
L 3616 4041 
L 1131 4041 
L 1131 2622 
L 3281 2622 
L 3281 2081 
L 1131 2081 
L 1131 0 
L 525 0 
z
" transform="scale(0.015625)"/>
        <path id="ArialMT-75" d="M 2597 0 
L 2597 488 
Q 2209 -75 1544 -75 
Q 1250 -75 995 37 
Q 741 150 617 320 
Q 494 491 444 738 
Q 409 903 409 1263 
L 409 3319 
L 972 3319 
L 972 1478 
Q 972 1038 1006 884 
Q 1059 663 1231 536 
Q 1403 409 1656 409 
Q 1909 409 2131 539 
Q 2353 669 2445 892 
Q 2538 1116 2538 1541 
L 2538 3319 
L 3100 3319 
L 3100 0 
L 2597 0 
z
" transform="scale(0.015625)"/>
        <path id="ArialMT-6c" d="M 409 0 
L 409 4581 
L 972 4581 
L 972 0 
L 409 0 
z
" transform="scale(0.015625)"/>
        <path id="ArialMT-2d" d="M 203 1375 
L 203 1941 
L 1931 1941 
L 1931 1375 
L 203 1375 
z
" transform="scale(0.015625)"/>
        <path id="ArialMT-74" d="M 1650 503 
L 1731 6 
Q 1494 -44 1306 -44 
Q 1000 -44 831 53 
Q 663 150 594 308 
Q 525 466 525 972 
L 525 2881 
L 113 2881 
L 113 3319 
L 525 3319 
L 525 4141 
L 1084 4478 
L 1084 3319 
L 1650 3319 
L 1650 2881 
L 1084 2881 
L 1084 941 
Q 1084 700 1114 631 
Q 1144 563 1211 522 
Q 1278 481 1403 481 
Q 1497 481 1650 503 
z
" transform="scale(0.015625)"/>
        <path id="ArialMT-65" d="M 2694 1069 
L 3275 997 
Q 3138 488 2766 206 
Q 2394 -75 1816 -75 
Q 1088 -75 661 373 
Q 234 822 234 1631 
Q 234 2469 665 2931 
Q 1097 3394 1784 3394 
Q 2450 3394 2872 2941 
Q 3294 2488 3294 1666 
Q 3294 1616 3291 1516 
L 816 1516 
Q 847 969 1125 678 
Q 1403 388 1819 388 
Q 2128 388 2347 550 
Q 2566 713 2694 1069 
z
M 847 1978 
L 2700 1978 
Q 2663 2397 2488 2606 
Q 2219 2931 1791 2931 
Q 1403 2931 1139 2672 
Q 875 2413 847 1978 
z
" transform="scale(0.015625)"/>
        <path id="ArialMT-72" d="M 416 0 
L 416 3319 
L 922 3319 
L 922 2816 
Q 1116 3169 1280 3281 
Q 1444 3394 1641 3394 
Q 1925 3394 2219 3213 
L 2025 2691 
Q 1819 2813 1613 2813 
Q 1428 2813 1281 2702 
Q 1134 2591 1072 2394 
Q 978 2094 978 1738 
L 978 0 
L 416 0 
z
" transform="scale(0.015625)"/>
        <path id="ArialMT-6d" d="M 422 0 
L 422 3319 
L 925 3319 
L 925 2853 
Q 1081 3097 1340 3245 
Q 1600 3394 1931 3394 
Q 2300 3394 2536 3241 
Q 2772 3088 2869 2813 
Q 3263 3394 3894 3394 
Q 4388 3394 4653 3120 
Q 4919 2847 4919 2278 
L 4919 0 
L 4359 0 
L 4359 2091 
Q 4359 2428 4304 2576 
Q 4250 2725 4106 2815 
Q 3963 2906 3769 2906 
Q 3419 2906 3187 2673 
Q 2956 2441 2956 1928 
L 2956 0 
L 2394 0 
L 2394 2156 
Q 2394 2531 2256 2718 
Q 2119 2906 1806 2906 
Q 1569 2906 1367 2781 
Q 1166 2656 1075 2415 
Q 984 2175 984 1722 
L 984 0 
L 422 0 
z
" transform="scale(0.015625)"/>
       </defs>
       <use xlink:href="#ArialMT-46"/>
       <use xlink:href="#ArialMT-75" x="61.083984"/>
       <use xlink:href="#ArialMT-6c" x="116.699219"/>
       <use xlink:href="#ArialMT-6c" x="138.916016"/>
       <use xlink:href="#ArialMT-2d" x="161.132812"/>
       <use xlink:href="#ArialMT-74" x="194.433594"/>
       <use xlink:href="#ArialMT-65" x="222.216797"/>
       <use xlink:href="#ArialMT-72" x="277.832031"/>
       <use xlink:href="#ArialMT-6d" x="311.132812"/>
      </g>
     </g>
    </g>
    <g id="xtick_2">
     <g id="text_2">
      <!-- Preterm -->
      <g style="fill: #262626" transform="translate(186.644602 248.480937) scale(0.14 -0.14)">
       <defs>
        <path id="ArialMT-50" d="M 494 0 
L 494 4581 
L 2222 4581 
Q 2678 4581 2919 4538 
Q 3256 4481 3484 4323 
Q 3713 4166 3852 3881 
Q 3991 3597 3991 3256 
Q 3991 2672 3619 2267 
Q 3247 1863 2275 1863 
L 1100 1863 
L 1100 0 
L 494 0 
z
M 1100 2403 
L 2284 2403 
Q 2872 2403 3119 2622 
Q 3366 2841 3366 3238 
Q 3366 3525 3220 3729 
Q 3075 3934 2838 4000 
Q 2684 4041 2272 4041 
L 1100 4041 
L 1100 2403 
z
" transform="scale(0.015625)"/>
       </defs>
       <use xlink:href="#ArialMT-50"/>
       <use xlink:href="#ArialMT-72" x="66.699219"/>
       <use xlink:href="#ArialMT-65" x="100"/>
       <use xlink:href="#ArialMT-74" x="155.615234"/>
       <use xlink:href="#ArialMT-65" x="183.398438"/>
       <use xlink:href="#ArialMT-72" x="239.013672"/>
       <use xlink:href="#ArialMT-6d" x="272.314453"/>
      </g>
     </g>
    </g>
   </g>
   <g id="matplotlib.axis_2">
    <g id="ytick_1">
     <g id="text_3">
      <!-- −15000 -->
      <g style="fill: #262626" transform="translate(28.96 208.664813) scale(0.14 -0.14)">
       <defs>
        <path id="ArialMT-2212" d="M 3381 1997 
L 356 1997 
L 356 2522 
L 3381 2522 
L 3381 1997 
z
" transform="scale(0.015625)"/>
        <path id="ArialMT-31" d="M 2384 0 
L 1822 0 
L 1822 3584 
Q 1619 3391 1289 3197 
Q 959 3003 697 2906 
L 697 3450 
Q 1169 3672 1522 3987 
Q 1875 4303 2022 4600 
L 2384 4600 
L 2384 0 
z
" transform="scale(0.015625)"/>
        <path id="ArialMT-35" d="M 266 1200 
L 856 1250 
Q 922 819 1161 601 
Q 1400 384 1738 384 
Q 2144 384 2425 690 
Q 2706 997 2706 1503 
Q 2706 1984 2436 2262 
Q 2166 2541 1728 2541 
Q 1456 2541 1237 2417 
Q 1019 2294 894 2097 
L 366 2166 
L 809 4519 
L 3088 4519 
L 3088 3981 
L 1259 3981 
L 1013 2750 
Q 1425 3038 1878 3038 
Q 2478 3038 2890 2622 
Q 3303 2206 3303 1553 
Q 3303 931 2941 478 
Q 2500 -78 1738 -78 
Q 1113 -78 717 272 
Q 322 622 266 1200 
z
" transform="scale(0.015625)"/>
        <path id="ArialMT-30" d="M 266 2259 
Q 266 3072 433 3567 
Q 600 4063 929 4331 
Q 1259 4600 1759 4600 
Q 2128 4600 2406 4451 
Q 2684 4303 2865 4023 
Q 3047 3744 3150 3342 
Q 3253 2941 3253 2259 
Q 3253 1453 3087 958 
Q 2922 463 2592 192 
Q 2263 -78 1759 -78 
Q 1097 -78 719 397 
Q 266 969 266 2259 
z
M 844 2259 
Q 844 1131 1108 757 
Q 1372 384 1759 384 
Q 2147 384 2411 759 
Q 2675 1134 2675 2259 
Q 2675 3391 2411 3762 
Q 2147 4134 1753 4134 
Q 1366 4134 1134 3806 
Q 844 3388 844 2259 
z
" transform="scale(0.015625)"/>
       </defs>
       <use xlink:href="#ArialMT-2212"/>
       <use xlink:href="#ArialMT-31" x="58.398438"/>
       <use xlink:href="#ArialMT-35" x="114.013672"/>
       <use xlink:href="#ArialMT-30" x="169.628906"/>
       <use xlink:href="#ArialMT-30" x="225.244141"/>
       <use xlink:href="#ArialMT-30" x="280.859375"/>
      </g>
     </g>
    </g>
    <g id="ytick_2">
     <g id="text_4">
      <!-- −10000 -->
      <g style="fill: #262626" transform="translate(28.96 180.01416) scale(0.14 -0.14)">
       <use xlink:href="#ArialMT-2212"/>
       <use xlink:href="#ArialMT-31" x="58.398438"/>
       <use xlink:href="#ArialMT-30" x="114.013672"/>
       <use xlink:href="#ArialMT-30" x="169.628906"/>
       <use xlink:href="#ArialMT-30" x="225.244141"/>
       <use xlink:href="#ArialMT-30" x="280.859375"/>
      </g>
     </g>
    </g>
    <g id="ytick_3">
     <g id="text_5">
      <!-- −5000 -->
      <g style="fill: #262626" transform="translate(36.745313 151.363506) scale(0.14 -0.14)">
       <use xlink:href="#ArialMT-2212"/>
       <use xlink:href="#ArialMT-35" x="58.398438"/>
       <use xlink:href="#ArialMT-30" x="114.013672"/>
       <use xlink:href="#ArialMT-30" x="169.628906"/>
       <use xlink:href="#ArialMT-30" x="225.244141"/>
      </g>
     </g>
    </g>
    <g id="ytick_4">
     <g id="text_6">
      <!-- 0 -->
      <g style="fill: #262626" transform="translate(68.278125 122.712853) scale(0.14 -0.14)">
       <use xlink:href="#ArialMT-30"/>
      </g>
     </g>
    </g>
    <g id="ytick_5">
     <g id="text_7">
      <!-- 5000 -->
      <g style="fill: #262626" transform="translate(44.922188 94.0622) scale(0.14 -0.14)">
       <use xlink:href="#ArialMT-35"/>
       <use xlink:href="#ArialMT-30" x="55.615234"/>
       <use xlink:href="#ArialMT-30" x="111.230469"/>
       <use xlink:href="#ArialMT-30" x="166.845703"/>
      </g>
     </g>
    </g>
    <g id="ytick_6">
     <g id="text_8">
      <!-- 10000 -->
      <g style="fill: #262626" transform="translate(37.136875 65.411546) scale(0.14 -0.14)">
       <use xlink:href="#ArialMT-31"/>
       <use xlink:href="#ArialMT-30" x="55.615234"/>
       <use xlink:href="#ArialMT-30" x="111.230469"/>
       <use xlink:href="#ArialMT-30" x="166.845703"/>
       <use xlink:href="#ArialMT-30" x="222.460938"/>
      </g>
     </g>
    </g>
    <g id="ytick_7">
     <g id="text_9">
      <!-- 15000 -->
      <g style="fill: #262626" transform="translate(37.136875 36.760893) scale(0.14 -0.14)">
       <use xlink:href="#ArialMT-31"/>
       <use xlink:href="#ArialMT-35" x="55.615234"/>
       <use xlink:href="#ArialMT-30" x="111.230469"/>
       <use xlink:href="#ArialMT-30" x="166.845703"/>
       <use xlink:href="#ArialMT-30" x="222.460938"/>
      </g>
     </g>
    </g>
    <g id="text_10">
     <!-- sGMV residuals [mm$^3$] -->
     <g style="fill: #262626" transform="translate(21.76 198.4) rotate(-90) scale(0.16 -0.16)">
      <defs>
       <path id="ArialMT-73" d="M 197 991 
L 753 1078 
Q 800 744 1014 566 
Q 1228 388 1613 388 
Q 2000 388 2187 545 
Q 2375 703 2375 916 
Q 2375 1106 2209 1216 
Q 2094 1291 1634 1406 
Q 1016 1563 777 1677 
Q 538 1791 414 1992 
Q 291 2194 291 2438 
Q 291 2659 392 2848 
Q 494 3038 669 3163 
Q 800 3259 1026 3326 
Q 1253 3394 1513 3394 
Q 1903 3394 2198 3281 
Q 2494 3169 2634 2976 
Q 2775 2784 2828 2463 
L 2278 2388 
Q 2241 2644 2061 2787 
Q 1881 2931 1553 2931 
Q 1166 2931 1000 2803 
Q 834 2675 834 2503 
Q 834 2394 903 2306 
Q 972 2216 1119 2156 
Q 1203 2125 1616 2013 
Q 2213 1853 2448 1751 
Q 2684 1650 2818 1456 
Q 2953 1263 2953 975 
Q 2953 694 2789 445 
Q 2625 197 2315 61 
Q 2006 -75 1616 -75 
Q 969 -75 630 194 
Q 291 463 197 991 
z
" transform="scale(0.015625)"/>
       <path id="ArialMT-47" d="M 2638 1797 
L 2638 2334 
L 4578 2338 
L 4578 638 
Q 4131 281 3656 101 
Q 3181 -78 2681 -78 
Q 2006 -78 1454 211 
Q 903 500 622 1047 
Q 341 1594 341 2269 
Q 341 2938 620 3517 
Q 900 4097 1425 4378 
Q 1950 4659 2634 4659 
Q 3131 4659 3532 4498 
Q 3934 4338 4162 4050 
Q 4391 3763 4509 3300 
L 3963 3150 
Q 3859 3500 3706 3700 
Q 3553 3900 3268 4020 
Q 2984 4141 2638 4141 
Q 2222 4141 1919 4014 
Q 1616 3888 1430 3681 
Q 1244 3475 1141 3228 
Q 966 2803 966 2306 
Q 966 1694 1177 1281 
Q 1388 869 1791 669 
Q 2194 469 2647 469 
Q 3041 469 3416 620 
Q 3791 772 3984 944 
L 3984 1797 
L 2638 1797 
z
" transform="scale(0.015625)"/>
       <path id="ArialMT-4d" d="M 475 0 
L 475 4581 
L 1388 4581 
L 2472 1338 
Q 2622 884 2691 659 
Q 2769 909 2934 1394 
L 4031 4581 
L 4847 4581 
L 4847 0 
L 4263 0 
L 4263 3834 
L 2931 0 
L 2384 0 
L 1059 3900 
L 1059 0 
L 475 0 
z
" transform="scale(0.015625)"/>
       <path id="ArialMT-56" d="M 1803 0 
L 28 4581 
L 684 4581 
L 1875 1253 
Q 2019 853 2116 503 
Q 2222 878 2363 1253 
L 3600 4581 
L 4219 4581 
L 2425 0 
L 1803 0 
z
" transform="scale(0.015625)"/>
       <path id="ArialMT-20" transform="scale(0.015625)"/>
       <path id="ArialMT-69" d="M 425 3934 
L 425 4581 
L 988 4581 
L 988 3934 
L 425 3934 
z
M 425 0 
L 425 3319 
L 988 3319 
L 988 0 
L 425 0 
z
" transform="scale(0.015625)"/>
       <path id="ArialMT-64" d="M 2575 0 
L 2575 419 
Q 2259 -75 1647 -75 
Q 1250 -75 917 144 
Q 584 363 401 755 
Q 219 1147 219 1656 
Q 219 2153 384 2558 
Q 550 2963 881 3178 
Q 1213 3394 1622 3394 
Q 1922 3394 2156 3267 
Q 2391 3141 2538 2938 
L 2538 4581 
L 3097 4581 
L 3097 0 
L 2575 0 
z
M 797 1656 
Q 797 1019 1065 703 
Q 1334 388 1700 388 
Q 2069 388 2326 689 
Q 2584 991 2584 1609 
Q 2584 2291 2321 2609 
Q 2059 2928 1675 2928 
Q 1300 2928 1048 2622 
Q 797 2316 797 1656 
z
" transform="scale(0.015625)"/>
       <path id="ArialMT-61" d="M 2588 409 
Q 2275 144 1986 34 
Q 1697 -75 1366 -75 
Q 819 -75 525 192 
Q 231 459 231 875 
Q 231 1119 342 1320 
Q 453 1522 633 1644 
Q 813 1766 1038 1828 
Q 1203 1872 1538 1913 
Q 2219 1994 2541 2106 
Q 2544 2222 2544 2253 
Q 2544 2597 2384 2738 
Q 2169 2928 1744 2928 
Q 1347 2928 1158 2789 
Q 969 2650 878 2297 
L 328 2372 
Q 403 2725 575 2942 
Q 747 3159 1072 3276 
Q 1397 3394 1825 3394 
Q 2250 3394 2515 3294 
Q 2781 3194 2906 3042 
Q 3031 2891 3081 2659 
Q 3109 2516 3109 2141 
L 3109 1391 
Q 3109 606 3145 398 
Q 3181 191 3288 0 
L 2700 0 
Q 2613 175 2588 409 
z
M 2541 1666 
Q 2234 1541 1622 1453 
Q 1275 1403 1131 1340 
Q 988 1278 909 1158 
Q 831 1038 831 891 
Q 831 666 1001 516 
Q 1172 366 1500 366 
Q 1825 366 2078 508 
Q 2331 650 2450 897 
Q 2541 1088 2541 1459 
L 2541 1666 
z
" transform="scale(0.015625)"/>
       <path id="ArialMT-5b" d="M 434 -1272 
L 434 4581 
L 1675 4581 
L 1675 4116 
L 997 4116 
L 997 -806 
L 1675 -806 
L 1675 -1272 
L 434 -1272 
z
" transform="scale(0.015625)"/>
       <path id="DejaVuSans-33" d="M 2597 2516 
Q 3050 2419 3304 2112 
Q 3559 1806 3559 1356 
Q 3559 666 3084 287 
Q 2609 -91 1734 -91 
Q 1441 -91 1130 -33 
Q 819 25 488 141 
L 488 750 
Q 750 597 1062 519 
Q 1375 441 1716 441 
Q 2309 441 2620 675 
Q 2931 909 2931 1356 
Q 2931 1769 2642 2001 
Q 2353 2234 1838 2234 
L 1294 2234 
L 1294 2753 
L 1863 2753 
Q 2328 2753 2575 2939 
Q 2822 3125 2822 3475 
Q 2822 3834 2567 4026 
Q 2313 4219 1838 4219 
Q 1578 4219 1281 4162 
Q 984 4106 628 3988 
L 628 4550 
Q 988 4650 1302 4700 
Q 1616 4750 1894 4750 
Q 2613 4750 3031 4423 
Q 3450 4097 3450 3541 
Q 3450 3153 3228 2886 
Q 3006 2619 2597 2516 
z
" transform="scale(0.015625)"/>
       <path id="ArialMT-5d" d="M 1363 -1272 
L 122 -1272 
L 122 -806 
L 800 -806 
L 800 4116 
L 122 4116 
L 122 4581 
L 1363 4581 
L 1363 -1272 
z
" transform="scale(0.015625)"/>
      </defs>
      <use xlink:href="#ArialMT-73" transform="translate(0 0.765625)"/>
      <use xlink:href="#ArialMT-47" transform="translate(50 0.765625)"/>
      <use xlink:href="#ArialMT-4d" transform="translate(127.783203 0.765625)"/>
      <use xlink:href="#ArialMT-56" transform="translate(211.083984 0.765625)"/>
      <use xlink:href="#ArialMT-20" transform="translate(277.783203 0.765625)"/>
      <use xlink:href="#ArialMT-72" transform="translate(305.566406 0.765625)"/>
      <use xlink:href="#ArialMT-65" transform="translate(338.867188 0.765625)"/>
      <use xlink:href="#ArialMT-73" transform="translate(394.482422 0.765625)"/>
      <use xlink:href="#ArialMT-69" transform="translate(444.482422 0.765625)"/>
      <use xlink:href="#ArialMT-64" transform="translate(466.699219 0.765625)"/>
      <use xlink:href="#ArialMT-75" transform="translate(522.314453 0.765625)"/>
      <use xlink:href="#ArialMT-61" transform="translate(577.929688 0.765625)"/>
      <use xlink:href="#ArialMT-6c" transform="translate(633.544922 0.765625)"/>
      <use xlink:href="#ArialMT-73" transform="translate(655.761719 0.765625)"/>
      <use xlink:href="#ArialMT-20" transform="translate(705.761719 0.765625)"/>
      <use xlink:href="#ArialMT-5b" transform="translate(733.544922 0.765625)"/>
      <use xlink:href="#ArialMT-6d" transform="translate(761.328125 0.765625)"/>
      <use xlink:href="#ArialMT-6d" transform="translate(844.628906 0.765625)"/>
      <use xlink:href="#DejaVuSans-33" transform="translate(928.886719 39.046875) scale(0.7)"/>
      <use xlink:href="#ArialMT-5d" transform="translate(976.157227 0.765625)"/>
     </g>
    </g>
   </g>
   <g id="PolyCollection_1">
    <defs>
     <path id="m24a7703780" d="M 127.104689 -56.696478 
L 126.876731 -56.696478 
L 126.827617 -58.454111 
L 126.76533 -60.211744 
L 126.689872 -61.969377 
L 126.602739 -63.72701 
L 126.507119 -65.484643 
L 126.407787 -67.242276 
L 126.310634 -68.999909 
L 126.221865 -70.757542 
L 126.146956 -72.515175 
L 126.089615 -74.272808 
L 126.050961 -76.030441 
L 126.02917 -77.788074 
L 126.019693 -79.545707 
L 126.016037 -81.30334 
L 126.010913 -83.060973 
L 125.997472 -84.818606 
L 125.970281 -86.576239 
L 125.925784 -88.333872 
L 125.862102 -90.091505 
L 125.778227 -91.849138 
L 125.67282 -93.606771 
L 125.542944 -95.364404 
L 125.383068 -97.122037 
L 125.184613 -98.879669 
L 124.93619 -100.637302 
L 124.62449 -102.394935 
L 124.23568 -104.152568 
L 123.757029 -105.910201 
L 123.178492 -107.667834 
L 122.493978 -109.425467 
L 121.702116 -111.1831 
L 120.80643 -112.940733 
L 119.814932 -114.698366 
L 118.73922 -116.455999 
L 117.593221 -118.213632 
L 116.391726 -119.971265 
L 115.148847 -121.728898 
L 113.876527 -123.486531 
L 112.583235 -125.244164 
L 111.273048 -127.001797 
L 109.945356 -128.75943 
L 108.595458 -130.517063 
L 107.216216 -132.274696 
L 105.800764 -134.032329 
L 104.345934 -135.789962 
L 102.855856 -137.547595 
L 101.344929 -139.305228 
L 99.839445 -141.062861 
L 98.377287 -142.820494 
L 97.005534 -144.578127 
L 95.776162 -146.33576 
L 94.74043 -148.093393 
L 93.942774 -149.851026 
L 93.415121 -151.608659 
L 93.172528 -153.366292 
L 93.21089 -155.123925 
L 93.507146 -156.881558 
L 94.022078 -158.639191 
L 94.70533 -160.396824 
L 95.501851 -162.154457 
L 96.358715 -163.91209 
L 97.231173 -165.669723 
L 98.086974 -167.427356 
L 98.908422 -169.184989 
L 99.692068 -170.942622 
L 100.446442 -172.700255 
L 101.188507 -174.457888 
L 101.93965 -176.215521 
L 102.721951 -177.973154 
L 103.555246 -179.730787 
L 104.455252 -181.48842 
L 105.432736 -183.246053 
L 106.493489 -185.003686 
L 107.638726 -186.761319 
L 108.865518 -188.518952 
L 110.166966 -190.276585 
L 111.531993 -192.034218 
L 112.944921 -193.791851 
L 114.385163 -195.549484 
L 115.827459 -197.307117 
L 117.243007 -199.06475 
L 118.601572 -200.822383 
L 119.87435 -202.580016 
L 121.037042 -204.337649 
L 122.072495 -206.095282 
L 122.972273 -207.852915 
L 123.736839 -209.610548 
L 124.374359 -211.368181 
L 124.898476 -213.125814 
L 125.325648 -214.883447 
L 125.672646 -216.64108 
L 125.954664 -218.398713 
L 126.184284 -220.156346 
L 126.371236 -221.913979 
L 126.522774 -223.671612 
L 126.644335 -225.429245 
L 126.740244 -227.186878 
L 126.81425 -228.944511 
L 126.869845 -230.702144 
L 127.111576 -230.702144 
L 127.111576 -230.702144 
L 127.16717 -228.944511 
L 127.241176 -227.186878 
L 127.337085 -225.429245 
L 127.458647 -223.671612 
L 127.610185 -221.913979 
L 127.797137 -220.156346 
L 128.026756 -218.398713 
L 128.308775 -216.64108 
L 128.655773 -214.883447 
L 129.082945 -213.125814 
L 129.607061 -211.368181 
L 130.244581 -209.610548 
L 131.009148 -207.852915 
L 131.908925 -206.095282 
L 132.944378 -204.337649 
L 134.107071 -202.580016 
L 135.379848 -200.822383 
L 136.738414 -199.06475 
L 138.153961 -197.307117 
L 139.596258 -195.549484 
L 141.036499 -193.791851 
L 142.449428 -192.034218 
L 143.814455 -190.276585 
L 145.115902 -188.518952 
L 146.342695 -186.761319 
L 147.487931 -185.003686 
L 148.548685 -183.246053 
L 149.526169 -181.48842 
L 150.426175 -179.730787 
L 151.259469 -177.973154 
L 152.04177 -176.215521 
L 152.792914 -174.457888 
L 153.534978 -172.700255 
L 154.289352 -170.942622 
L 155.072998 -169.184989 
L 155.894446 -167.427356 
L 156.750248 -165.669723 
L 157.622705 -163.91209 
L 158.47957 -162.154457 
L 159.27609 -160.396824 
L 159.959342 -158.639191 
L 160.474274 -156.881558 
L 160.77053 -155.123925 
L 160.808892 -153.366292 
L 160.5663 -151.608659 
L 160.038646 -149.851026 
L 159.24099 -148.093393 
L 158.205259 -146.33576 
L 156.975886 -144.578127 
L 155.604133 -142.820494 
L 154.141976 -141.062861 
L 152.636491 -139.305228 
L 151.125564 -137.547595 
L 149.635486 -135.789962 
L 148.180657 -134.032329 
L 146.765204 -132.274696 
L 145.385963 -130.517063 
L 144.036064 -128.75943 
L 142.708372 -127.001797 
L 141.398185 -125.244164 
L 140.104894 -123.486531 
L 138.832573 -121.728898 
L 137.589695 -119.971265 
L 136.3882 -118.213632 
L 135.242201 -116.455999 
L 134.166488 -114.698366 
L 133.174991 -112.940733 
L 132.279305 -111.1831 
L 131.487443 -109.425467 
L 130.802929 -107.667834 
L 130.224392 -105.910201 
L 129.74574 -104.152568 
L 129.35693 -102.394935 
L 129.045231 -100.637302 
L 128.796808 -98.879669 
L 128.598353 -97.122037 
L 128.438476 -95.364404 
L 128.308601 -93.606771 
L 128.203194 -91.849138 
L 128.119319 -90.091505 
L 128.055637 -88.333872 
L 128.01114 -86.576239 
L 127.983949 -84.818606 
L 127.970507 -83.060973 
L 127.965384 -81.30334 
L 127.961728 -79.545707 
L 127.952251 -77.788074 
L 127.930459 -76.030441 
L 127.891805 -74.272808 
L 127.834464 -72.515175 
L 127.759556 -70.757542 
L 127.670786 -68.999909 
L 127.573634 -67.242276 
L 127.474301 -65.484643 
L 127.378681 -63.72701 
L 127.291548 -61.969377 
L 127.21609 -60.211744 
L 127.153804 -58.454111 
L 127.104689 -56.696478 
z
" style="stroke: #4c4c4c; stroke-width: 0.5"/>
    </defs>
    <g clip-path="url(#pa01e3cf8fe)">
     <use xlink:href="#m24a7703780" x="0" y="258.463437" style="fill: #5573cd; stroke: #4c4c4c; stroke-width: 0.5"/>
    </g>
   </g>
   <g id="PolyCollection_2">
    <defs>
     <path id="me464a663e9" d="M 211.85215 -39.287374 
L 211.22018 -39.287374 
L 211.085726 -41.263927 
L 210.909054 -43.24048 
L 210.682874 -45.217033 
L 210.400488 -47.193586 
L 210.056235 -49.170139 
L 209.64579 -51.146692 
L 209.166226 -53.123245 
L 208.615778 -55.099797 
L 207.993331 -57.07635 
L 207.297712 -59.052903 
L 206.526954 -61.029456 
L 205.677721 -63.006009 
L 204.745117 -64.982562 
L 203.723031 -66.959115 
L 202.605097 -68.935668 
L 201.386229 -70.91222 
L 200.064572 -72.888773 
L 198.643597 -74.865326 
L 197.134006 -76.841879 
L 195.555073 -78.818432 
L 193.935071 -80.794985 
L 192.310516 -82.771538 
L 190.724082 -84.748091 
L 189.221212 -86.724644 
L 187.845705 -88.701196 
L 186.634733 -90.677749 
L 185.613986 -92.654302 
L 184.793721 -94.630855 
L 184.166488 -96.607408 
L 183.707111 -98.583961 
L 183.375199 -100.560514 
L 183.120007 -102.537067 
L 182.887053 -104.51362 
L 182.625515 -106.490172 
L 182.295255 -108.466725 
L 181.872331 -110.443278 
L 181.352121 -112.419831 
L 180.749615 -114.396384 
L 180.096906 -116.372937 
L 179.438442 -118.34949 
L 178.82491 -120.326043 
L 178.306823 -122.302596 
L 177.928784 -124.279148 
L 177.725221 -126.255701 
L 177.717983 -128.232254 
L 177.915836 -130.208807 
L 178.315582 -132.18536 
L 178.904308 -134.161913 
L 179.662225 -136.138466 
L 180.565604 -138.115019 
L 181.589454 -140.091572 
L 182.709727 -142.068124 
L 183.904954 -144.044677 
L 185.157275 -146.02123 
L 186.452865 -147.997783 
L 187.78176 -149.974336 
L 189.13711 -151.950889 
L 190.513964 -153.927442 
L 191.907762 -155.903995 
L 193.312796 -157.880548 
L 194.720967 -159.8571 
L 196.121089 -161.833653 
L 197.498958 -163.810206 
L 198.838168 -165.786759 
L 200.121528 -167.763312 
L 201.332778 -169.739865 
L 202.458217 -171.716418 
L 203.487934 -173.692971 
L 204.416399 -175.669524 
L 205.242383 -177.646076 
L 205.968302 -179.622629 
L 206.599231 -181.599182 
L 207.141844 -183.575735 
L 207.60354 -185.552288 
L 207.991885 -187.528841 
L 208.314412 -189.505394 
L 208.578712 -191.481947 
L 208.792659 -193.4585 
L 208.964625 -195.435052 
L 209.103543 -197.411605 
L 209.218755 -199.388158 
L 209.31963 -201.364711 
L 209.415027 -203.341264 
L 209.512677 -205.317817 
L 209.618627 -207.29437 
L 209.736811 -209.270923 
L 209.868858 -211.247476 
L 210.01413 -213.224028 
L 210.170013 -215.200581 
L 210.332403 -217.177134 
L 210.496308 -219.153687 
L 210.656493 -221.13024 
L 210.808079 -223.106793 
L 210.94702 -225.083346 
L 211.070415 -227.059899 
L 211.176641 -229.036452 
L 211.265312 -231.013004 
L 211.337103 -232.989557 
L 211.393496 -234.96611 
L 211.678834 -234.96611 
L 211.678834 -234.96611 
L 211.735227 -232.989557 
L 211.807018 -231.013004 
L 211.895688 -229.036452 
L 212.001914 -227.059899 
L 212.12531 -225.083346 
L 212.264251 -223.106793 
L 212.415837 -221.13024 
L 212.576022 -219.153687 
L 212.739926 -217.177134 
L 212.902316 -215.200581 
L 213.0582 -213.224028 
L 213.203471 -211.247476 
L 213.335518 -209.270923 
L 213.453703 -207.29437 
L 213.559652 -205.317817 
L 213.657303 -203.341264 
L 213.752699 -201.364711 
L 213.853575 -199.388158 
L 213.968787 -197.411605 
L 214.107705 -195.435052 
L 214.279671 -193.4585 
L 214.493618 -191.481947 
L 214.757918 -189.505394 
L 215.080445 -187.528841 
L 215.468789 -185.552288 
L 215.930485 -183.575735 
L 216.473099 -181.599182 
L 217.104027 -179.622629 
L 217.829947 -177.646076 
L 218.655931 -175.669524 
L 219.584396 -173.692971 
L 220.614113 -171.716418 
L 221.739552 -169.739865 
L 222.950801 -167.763312 
L 224.234162 -165.786759 
L 225.573371 -163.810206 
L 226.95124 -161.833653 
L 228.351363 -159.8571 
L 229.759533 -157.880548 
L 231.164568 -155.903995 
L 232.558365 -153.927442 
L 233.935219 -151.950889 
L 235.29057 -149.974336 
L 236.619465 -147.997783 
L 237.915055 -146.02123 
L 239.167375 -144.044677 
L 240.362602 -142.068124 
L 241.482876 -140.091572 
L 242.506726 -138.115019 
L 243.410105 -136.138466 
L 244.168022 -134.161913 
L 244.756748 -132.18536 
L 245.156494 -130.208807 
L 245.354347 -128.232254 
L 245.347108 -126.255701 
L 245.143546 -124.279148 
L 244.765507 -122.302596 
L 244.247419 -120.326043 
L 243.633888 -118.34949 
L 242.975423 -116.372937 
L 242.322714 -114.396384 
L 241.720208 -112.419831 
L 241.199999 -110.443278 
L 240.777074 -108.466725 
L 240.446814 -106.490172 
L 240.185277 -104.51362 
L 239.952322 -102.537067 
L 239.69713 -100.560514 
L 239.365219 -98.583961 
L 238.905842 -96.607408 
L 238.278609 -94.630855 
L 237.458344 -92.654302 
L 236.437597 -90.677749 
L 235.226624 -88.701196 
L 233.851117 -86.724644 
L 232.348248 -84.748091 
L 230.761813 -82.771538 
L 229.137259 -80.794985 
L 227.517257 -78.818432 
L 225.938324 -76.841879 
L 224.428733 -74.865326 
L 223.007758 -72.888773 
L 221.686101 -70.91222 
L 220.467233 -68.935668 
L 219.349299 -66.959115 
L 218.327212 -64.982562 
L 217.394608 -63.006009 
L 216.545376 -61.029456 
L 215.774617 -59.052903 
L 215.078999 -57.07635 
L 214.456552 -55.099797 
L 213.906103 -53.123245 
L 213.426539 -51.146692 
L 213.016095 -49.170139 
L 212.671841 -47.193586 
L 212.389455 -45.217033 
L 212.163275 -43.24048 
L 211.986604 -41.263927 
L 211.85215 -39.287374 
z
" style="stroke: #4c4c4c; stroke-width: 0.5"/>
    </defs>
    <g clip-path="url(#pa01e3cf8fe)">
     <use xlink:href="#me464a663e9" x="0" y="258.463437" style="fill: #df8920; stroke: #4c4c4c; stroke-width: 0.5"/>
    </g>
   </g>
   <g id="line2d_1">
    <path d="M 126.99071 150.094329 
L 126.99071 46.498935 
" clip-path="url(#pa01e3cf8fe)" style="fill: none; stroke: #4c4c4c; stroke-width: 0.75; stroke-linecap: round"/>
   </g>
   <g id="line2d_2">
    <path d="M 126.99071 115.364193 
L 126.99071 83.867306 
" clip-path="url(#pa01e3cf8fe)" style="fill: none; stroke: #4c4c4c; stroke-width: 2.25; stroke-linecap: round"/>
   </g>
   <g id="line2d_3">
    <path d="M 126.99071 102.061176 
" clip-path="url(#pa01e3cf8fe)" style="fill: none; stroke: #4c4c4c; stroke-width: 1.5; stroke-linecap: round"/>
    <defs>
     <path id="mf82e2df1e2" d="M 0.9375 0 
L -0.9375 -0 
" style="stroke: #ffffff; stroke-width: 0.45"/>
    </defs>
    <g clip-path="url(#pa01e3cf8fe)">
     <use xlink:href="#mf82e2df1e2" x="126.99071" y="102.061176" style="fill: #ffffff; stroke: #ffffff; stroke-width: 0.45"/>
    </g>
   </g>
   <g id="line2d_4">
    <path d="M 211.536165 195.353337 
L 211.536165 58.701281 
" clip-path="url(#pa01e3cf8fe)" style="fill: none; stroke: #4c4c4c; stroke-width: 0.75; stroke-linecap: round"/>
   </g>
   <g id="line2d_5">
    <path d="M 211.536165 160.732559 
L 211.536165 116.640827 
" clip-path="url(#pa01e3cf8fe)" style="fill: none; stroke: #4c4c4c; stroke-width: 2.25; stroke-linecap: round"/>
   </g>
   <g id="line2d_6">
    <path d="M 211.536165 135.048889 
" clip-path="url(#pa01e3cf8fe)" style="fill: none; stroke: #4c4c4c; stroke-width: 1.5; stroke-linecap: round"/>
    <g clip-path="url(#pa01e3cf8fe)">
     <use xlink:href="#mf82e2df1e2" x="211.536165" y="135.048889" style="fill: #ffffff; stroke: #ffffff; stroke-width: 0.45"/>
    </g>
   </g>
   <g id="line2d_7">
    <path d="M 126.99071 33.584139 
L 126.99071 29.279207 
L 211.536165 29.279207 
L 211.536165 33.584139 
" style="fill: none; stroke: #333333; stroke-width: 0.5; stroke-linecap: round"/>
   </g>
   <g id="patch_3">
    <path d="M 85.563438 228.96 
L 85.563438 7.2 
" style="fill: none; stroke: #262626; stroke-width: 1.25; stroke-linejoin: miter; stroke-linecap: square"/>
   </g>
   <g id="patch_4">
    <path d="M 85.563438 228.96 
L 252.963437 228.96 
" style="fill: none; stroke: #262626; stroke-width: 1.25; stroke-linejoin: miter; stroke-linecap: square"/>
   </g>
   <g id="text_11">
    <!-- **** -->
    <g style="fill: #262626" transform="translate(158.365313 25.496707) scale(0.14 -0.14)">
     <defs>
      <path id="ArialMT-2a" d="M 200 3741 
L 344 4184 
Q 841 4009 1066 3881 
Q 1006 4447 1003 4659 
L 1456 4659 
Q 1447 4350 1384 3884 
Q 1706 4047 2122 4184 
L 2266 3741 
Q 1869 3609 1488 3566 
Q 1678 3400 2025 2975 
L 1650 2709 
Q 1469 2956 1222 3381 
Q 991 2941 816 2709 
L 447 2975 
Q 809 3422 966 3566 
Q 563 3644 200 3741 
z
" transform="scale(0.015625)"/>
     </defs>
     <use xlink:href="#ArialMT-2a"/>
     <use xlink:href="#ArialMT-2a" x="38.916016"/>
     <use xlink:href="#ArialMT-2a" x="77.832031"/>
     <use xlink:href="#ArialMT-2a" x="116.748047"/>
    </g>
   </g>
  </g>
 </g>
 <defs>
  <clipPath id="pa01e3cf8fe">
   <rect x="85.563438" y="7.2" width="167.4" height="221.76"/>
  </clipPath>
 </defs>
</svg>
