<?xml version="1.0" encoding="utf-8" standalone="no"?>
<!DOCTYPE svg PUBLIC "-//W3C//DTD SVG 1.1//EN"
  "http://www.w3.org/Graphics/SVG/1.1/DTD/svg11.dtd">
<svg xmlns:xlink="http://www.w3.org/1999/xlink" width="230.334688pt" height="255.719844pt" viewBox="0 0 230.334688 255.719844" xmlns="http://www.w3.org/2000/svg" version="1.1">
 <metadata>
  <rdf:RDF xmlns:dc="http://purl.org/dc/elements/1.1/" xmlns:cc="http://creativecommons.org/ns#" xmlns:rdf="http://www.w3.org/1999/02/22-rdf-syntax-ns#">
   <cc:Work>
    <dc:type rdf:resource="http://purl.org/dc/dcmitype/StillImage"/>
    <dc:date>2025-08-06T13:48:08.902476</dc:date>
    <dc:format>image/svg+xml</dc:format>
    <dc:creator>
     <cc:Agent>
      <dc:title>Matplotlib v3.9.2, https://matplotlib.org/</dc:title>
     </cc:Agent>
    </dc:creator>
   </cc:Work>
  </rdf:RDF>
 </metadata>
 <defs>
  <style type="text/css">*{stroke-linejoin: round; stroke-linecap: butt}</style>
 </defs>
 <g id="figure_1">
  <g id="patch_1">
   <path d="M 0 255.719844 
L 230.334688 255.719844 
L 230.334688 0 
L 0 0 
z
" style="fill: #ffffff"/>
  </g>
  <g id="axes_1">
   <g id="patch_2">
    <path d="M 55.734688 228.96 
L 223.134688 228.96 
L 223.134688 7.2 
L 55.734688 7.2 
z
" style="fill: #ffffff"/>
   </g>
   <g id="matplotlib.axis_1">
    <g id="xtick_1">
     <g id="text_1">
      <!-- Term -->
      <g style="fill: #262626" transform="translate(84.943366 246.333594) scale(0.11 -0.11)">
       <defs>
        <path id="ArialMT-54" d="M 1659 0 
L 1659 4041 
L 150 4041 
L 150 4581 
L 3781 4581 
L 3781 4041 
L 2266 4041 
L 2266 0 
L 1659 0 
z
" transform="scale(0.015625)"/>
        <path id="ArialMT-65" d="M 2694 1069 
L 3275 997 
Q 3138 488 2766 206 
Q 2394 -75 1816 -75 
Q 1088 -75 661 373 
Q 234 822 234 1631 
Q 234 2469 665 2931 
Q 1097 3394 1784 3394 
Q 2450 3394 2872 2941 
Q 3294 2488 3294 1666 
Q 3294 1616 3291 1516 
L 816 1516 
Q 847 969 1125 678 
Q 1403 388 1819 388 
Q 2128 388 2347 550 
Q 2566 713 2694 1069 
z
M 847 1978 
L 2700 1978 
Q 2663 2397 2488 2606 
Q 2219 2931 1791 2931 
Q 1403 2931 1139 2672 
Q 875 2413 847 1978 
z
" transform="scale(0.015625)"/>
        <path id="ArialMT-72" d="M 416 0 
L 416 3319 
L 922 3319 
L 922 2816 
Q 1116 3169 1280 3281 
Q 1444 3394 1641 3394 
Q 1925 3394 2219 3213 
L 2025 2691 
Q 1819 2813 1613 2813 
Q 1428 2813 1281 2702 
Q 1134 2591 1072 2394 
Q 978 2094 978 1738 
L 978 0 
L 416 0 
z
" transform="scale(0.015625)"/>
        <path id="ArialMT-6d" d="M 422 0 
L 422 3319 
L 925 3319 
L 925 2853 
Q 1081 3097 1340 3245 
Q 1600 3394 1931 3394 
Q 2300 3394 2536 3241 
Q 2772 3088 2869 2813 
Q 3263 3394 3894 3394 
Q 4388 3394 4653 3120 
Q 4919 2847 4919 2278 
L 4919 0 
L 4359 0 
L 4359 2091 
Q 4359 2428 4304 2576 
Q 4250 2725 4106 2815 
Q 3963 2906 3769 2906 
Q 3419 2906 3187 2673 
Q 2956 2441 2956 1928 
L 2956 0 
L 2394 0 
L 2394 2156 
Q 2394 2531 2256 2718 
Q 2119 2906 1806 2906 
Q 1569 2906 1367 2781 
Q 1166 2656 1075 2415 
Q 984 2175 984 1722 
L 984 0 
L 422 0 
z
" transform="scale(0.015625)"/>
       </defs>
       <use xlink:href="#ArialMT-54"/>
       <use xlink:href="#ArialMT-65" x="49.958984"/>
       <use xlink:href="#ArialMT-72" x="105.574219"/>
       <use xlink:href="#ArialMT-6d" x="138.875"/>
      </g>
     </g>
    </g>
    <g id="xtick_2">
     <g id="text_2">
      <!-- Preterm -->
      <g style="fill: #262626" transform="translate(162.149759 246.333594) scale(0.11 -0.11)">
       <defs>
        <path id="ArialMT-50" d="M 494 0 
L 494 4581 
L 2222 4581 
Q 2678 4581 2919 4538 
Q 3256 4481 3484 4323 
Q 3713 4166 3852 3881 
Q 3991 3597 3991 3256 
Q 3991 2672 3619 2267 
Q 3247 1863 2275 1863 
L 1100 1863 
L 1100 0 
L 494 0 
z
M 1100 2403 
L 2284 2403 
Q 2872 2403 3119 2622 
Q 3366 2841 3366 3238 
Q 3366 3525 3220 3729 
Q 3075 3934 2838 4000 
Q 2684 4041 2272 4041 
L 1100 4041 
L 1100 2403 
z
" transform="scale(0.015625)"/>
        <path id="ArialMT-74" d="M 1650 503 
L 1731 6 
Q 1494 -44 1306 -44 
Q 1000 -44 831 53 
Q 663 150 594 308 
Q 525 466 525 972 
L 525 2881 
L 113 2881 
L 113 3319 
L 525 3319 
L 525 4141 
L 1084 4478 
L 1084 3319 
L 1650 3319 
L 1650 2881 
L 1084 2881 
L 1084 941 
Q 1084 700 1114 631 
Q 1144 563 1211 522 
Q 1278 481 1403 481 
Q 1497 481 1650 503 
z
" transform="scale(0.015625)"/>
       </defs>
       <use xlink:href="#ArialMT-50"/>
       <use xlink:href="#ArialMT-72" x="66.699219"/>
       <use xlink:href="#ArialMT-65" x="100"/>
       <use xlink:href="#ArialMT-74" x="155.615234"/>
       <use xlink:href="#ArialMT-65" x="183.398438"/>
       <use xlink:href="#ArialMT-72" x="239.013672"/>
       <use xlink:href="#ArialMT-6d" x="272.314453"/>
      </g>
     </g>
    </g>
   </g>
   <g id="matplotlib.axis_2">
    <g id="ytick_1">
     <g id="text_3">
      <!-- −0.3 -->
      <g style="fill: #262626" transform="translate(24.52 216.133587) scale(0.11 -0.11)">
       <defs>
        <path id="ArialMT-2212" d="M 3381 1997 
L 356 1997 
L 356 2522 
L 3381 2522 
L 3381 1997 
z
" transform="scale(0.015625)"/>
        <path id="ArialMT-30" d="M 266 2259 
Q 266 3072 433 3567 
Q 600 4063 929 4331 
Q 1259 4600 1759 4600 
Q 2128 4600 2406 4451 
Q 2684 4303 2865 4023 
Q 3047 3744 3150 3342 
Q 3253 2941 3253 2259 
Q 3253 1453 3087 958 
Q 2922 463 2592 192 
Q 2263 -78 1759 -78 
Q 1097 -78 719 397 
Q 266 969 266 2259 
z
M 844 2259 
Q 844 1131 1108 757 
Q 1372 384 1759 384 
Q 2147 384 2411 759 
Q 2675 1134 2675 2259 
Q 2675 3391 2411 3762 
Q 2147 4134 1753 4134 
Q 1366 4134 1134 3806 
Q 844 3388 844 2259 
z
" transform="scale(0.015625)"/>
        <path id="ArialMT-2e" d="M 581 0 
L 581 641 
L 1222 641 
L 1222 0 
L 581 0 
z
" transform="scale(0.015625)"/>
        <path id="ArialMT-33" d="M 269 1209 
L 831 1284 
Q 928 806 1161 595 
Q 1394 384 1728 384 
Q 2125 384 2398 659 
Q 2672 934 2672 1341 
Q 2672 1728 2419 1979 
Q 2166 2231 1775 2231 
Q 1616 2231 1378 2169 
L 1441 2663 
Q 1497 2656 1531 2656 
Q 1891 2656 2178 2843 
Q 2466 3031 2466 3422 
Q 2466 3731 2256 3934 
Q 2047 4138 1716 4138 
Q 1388 4138 1169 3931 
Q 950 3725 888 3313 
L 325 3413 
Q 428 3978 793 4289 
Q 1159 4600 1703 4600 
Q 2078 4600 2393 4439 
Q 2709 4278 2876 4000 
Q 3044 3722 3044 3409 
Q 3044 3113 2884 2869 
Q 2725 2625 2413 2481 
Q 2819 2388 3044 2092 
Q 3269 1797 3269 1353 
Q 3269 753 2831 336 
Q 2394 -81 1725 -81 
Q 1122 -81 723 278 
Q 325 638 269 1209 
z
" transform="scale(0.015625)"/>
       </defs>
       <use xlink:href="#ArialMT-2212"/>
       <use xlink:href="#ArialMT-30" x="58.398438"/>
       <use xlink:href="#ArialMT-2e" x="114.013672"/>
       <use xlink:href="#ArialMT-33" x="141.796875"/>
      </g>
     </g>
    </g>
    <g id="ytick_2">
     <g id="text_4">
      <!-- −0.2 -->
      <g style="fill: #262626" transform="translate(24.52 183.355653) scale(0.11 -0.11)">
       <defs>
        <path id="ArialMT-32" d="M 3222 541 
L 3222 0 
L 194 0 
Q 188 203 259 391 
Q 375 700 629 1000 
Q 884 1300 1366 1694 
Q 2113 2306 2375 2664 
Q 2638 3022 2638 3341 
Q 2638 3675 2398 3904 
Q 2159 4134 1775 4134 
Q 1369 4134 1125 3890 
Q 881 3647 878 3216 
L 300 3275 
Q 359 3922 746 4261 
Q 1134 4600 1788 4600 
Q 2447 4600 2831 4234 
Q 3216 3869 3216 3328 
Q 3216 3053 3103 2787 
Q 2991 2522 2730 2228 
Q 2469 1934 1863 1422 
Q 1356 997 1212 845 
Q 1069 694 975 541 
L 3222 541 
z
" transform="scale(0.015625)"/>
       </defs>
       <use xlink:href="#ArialMT-2212"/>
       <use xlink:href="#ArialMT-30" x="58.398438"/>
       <use xlink:href="#ArialMT-2e" x="114.013672"/>
       <use xlink:href="#ArialMT-32" x="141.796875"/>
      </g>
     </g>
    </g>
    <g id="ytick_3">
     <g id="text_5">
      <!-- −0.1 -->
      <g style="fill: #262626" transform="translate(24.52 150.57772) scale(0.11 -0.11)">
       <defs>
        <path id="ArialMT-31" d="M 2384 0 
L 1822 0 
L 1822 3584 
Q 1619 3391 1289 3197 
Q 959 3003 697 2906 
L 697 3450 
Q 1169 3672 1522 3987 
Q 1875 4303 2022 4600 
L 2384 4600 
L 2384 0 
z
" transform="scale(0.015625)"/>
       </defs>
       <use xlink:href="#ArialMT-2212"/>
       <use xlink:href="#ArialMT-30" x="58.398438"/>
       <use xlink:href="#ArialMT-2e" x="114.013672"/>
       <use xlink:href="#ArialMT-31" x="141.796875"/>
      </g>
     </g>
    </g>
    <g id="ytick_4">
     <g id="text_6">
      <!-- 0.0 -->
      <g style="fill: #262626" transform="translate(30.944688 117.799786) scale(0.11 -0.11)">
       <use xlink:href="#ArialMT-30"/>
       <use xlink:href="#ArialMT-2e" x="55.615234"/>
       <use xlink:href="#ArialMT-30" x="83.398438"/>
      </g>
     </g>
    </g>
    <g id="ytick_5">
     <g id="text_7">
      <!-- 0.1 -->
      <g style="fill: #262626" transform="translate(30.944688 85.021853) scale(0.11 -0.11)">
       <use xlink:href="#ArialMT-30"/>
       <use xlink:href="#ArialMT-2e" x="55.615234"/>
       <use xlink:href="#ArialMT-31" x="83.398438"/>
      </g>
     </g>
    </g>
    <g id="ytick_6">
     <g id="text_8">
      <!-- 0.2 -->
      <g style="fill: #262626" transform="translate(30.944688 52.243919) scale(0.11 -0.11)">
       <use xlink:href="#ArialMT-30"/>
       <use xlink:href="#ArialMT-2e" x="55.615234"/>
       <use xlink:href="#ArialMT-32" x="83.398438"/>
      </g>
     </g>
    </g>
    <g id="ytick_7">
     <g id="text_9">
      <!-- 0.3 -->
      <g style="fill: #262626" transform="translate(30.944688 19.465986) scale(0.11 -0.11)">
       <use xlink:href="#ArialMT-30"/>
       <use xlink:href="#ArialMT-2e" x="55.615234"/>
       <use xlink:href="#ArialMT-33" x="83.398438"/>
      </g>
     </g>
    </g>
    <g id="text_10">
     <!-- meanCT2 residuals [mm$^3$] -->
     <g style="fill: #262626" transform="translate(18.12 188.04) rotate(-90) scale(0.12 -0.12)">
      <defs>
       <path id="ArialMT-61" d="M 2588 409 
Q 2275 144 1986 34 
Q 1697 -75 1366 -75 
Q 819 -75 525 192 
Q 231 459 231 875 
Q 231 1119 342 1320 
Q 453 1522 633 1644 
Q 813 1766 1038 1828 
Q 1203 1872 1538 1913 
Q 2219 1994 2541 2106 
Q 2544 2222 2544 2253 
Q 2544 2597 2384 2738 
Q 2169 2928 1744 2928 
Q 1347 2928 1158 2789 
Q 969 2650 878 2297 
L 328 2372 
Q 403 2725 575 2942 
Q 747 3159 1072 3276 
Q 1397 3394 1825 3394 
Q 2250 3394 2515 3294 
Q 2781 3194 2906 3042 
Q 3031 2891 3081 2659 
Q 3109 2516 3109 2141 
L 3109 1391 
Q 3109 606 3145 398 
Q 3181 191 3288 0 
L 2700 0 
Q 2613 175 2588 409 
z
M 2541 1666 
Q 2234 1541 1622 1453 
Q 1275 1403 1131 1340 
Q 988 1278 909 1158 
Q 831 1038 831 891 
Q 831 666 1001 516 
Q 1172 366 1500 366 
Q 1825 366 2078 508 
Q 2331 650 2450 897 
Q 2541 1088 2541 1459 
L 2541 1666 
z
" transform="scale(0.015625)"/>
       <path id="ArialMT-6e" d="M 422 0 
L 422 3319 
L 928 3319 
L 928 2847 
Q 1294 3394 1984 3394 
Q 2284 3394 2536 3286 
Q 2788 3178 2913 3003 
Q 3038 2828 3088 2588 
Q 3119 2431 3119 2041 
L 3119 0 
L 2556 0 
L 2556 2019 
Q 2556 2363 2490 2533 
Q 2425 2703 2258 2804 
Q 2091 2906 1866 2906 
Q 1506 2906 1245 2678 
Q 984 2450 984 1813 
L 984 0 
L 422 0 
z
" transform="scale(0.015625)"/>
       <path id="ArialMT-43" d="M 3763 1606 
L 4369 1453 
Q 4178 706 3683 314 
Q 3188 -78 2472 -78 
Q 1731 -78 1267 223 
Q 803 525 561 1097 
Q 319 1669 319 2325 
Q 319 3041 592 3573 
Q 866 4106 1370 4382 
Q 1875 4659 2481 4659 
Q 3169 4659 3637 4309 
Q 4106 3959 4291 3325 
L 3694 3184 
Q 3534 3684 3231 3912 
Q 2928 4141 2469 4141 
Q 1941 4141 1586 3887 
Q 1231 3634 1087 3207 
Q 944 2781 944 2328 
Q 944 1744 1114 1308 
Q 1284 872 1643 656 
Q 2003 441 2422 441 
Q 2931 441 3284 734 
Q 3638 1028 3763 1606 
z
" transform="scale(0.015625)"/>
       <path id="ArialMT-20" transform="scale(0.015625)"/>
       <path id="ArialMT-73" d="M 197 991 
L 753 1078 
Q 800 744 1014 566 
Q 1228 388 1613 388 
Q 2000 388 2187 545 
Q 2375 703 2375 916 
Q 2375 1106 2209 1216 
Q 2094 1291 1634 1406 
Q 1016 1563 777 1677 
Q 538 1791 414 1992 
Q 291 2194 291 2438 
Q 291 2659 392 2848 
Q 494 3038 669 3163 
Q 800 3259 1026 3326 
Q 1253 3394 1513 3394 
Q 1903 3394 2198 3281 
Q 2494 3169 2634 2976 
Q 2775 2784 2828 2463 
L 2278 2388 
Q 2241 2644 2061 2787 
Q 1881 2931 1553 2931 
Q 1166 2931 1000 2803 
Q 834 2675 834 2503 
Q 834 2394 903 2306 
Q 972 2216 1119 2156 
Q 1203 2125 1616 2013 
Q 2213 1853 2448 1751 
Q 2684 1650 2818 1456 
Q 2953 1263 2953 975 
Q 2953 694 2789 445 
Q 2625 197 2315 61 
Q 2006 -75 1616 -75 
Q 969 -75 630 194 
Q 291 463 197 991 
z
" transform="scale(0.015625)"/>
       <path id="ArialMT-69" d="M 425 3934 
L 425 4581 
L 988 4581 
L 988 3934 
L 425 3934 
z
M 425 0 
L 425 3319 
L 988 3319 
L 988 0 
L 425 0 
z
" transform="scale(0.015625)"/>
       <path id="ArialMT-64" d="M 2575 0 
L 2575 419 
Q 2259 -75 1647 -75 
Q 1250 -75 917 144 
Q 584 363 401 755 
Q 219 1147 219 1656 
Q 219 2153 384 2558 
Q 550 2963 881 3178 
Q 1213 3394 1622 3394 
Q 1922 3394 2156 3267 
Q 2391 3141 2538 2938 
L 2538 4581 
L 3097 4581 
L 3097 0 
L 2575 0 
z
M 797 1656 
Q 797 1019 1065 703 
Q 1334 388 1700 388 
Q 2069 388 2326 689 
Q 2584 991 2584 1609 
Q 2584 2291 2321 2609 
Q 2059 2928 1675 2928 
Q 1300 2928 1048 2622 
Q 797 2316 797 1656 
z
" transform="scale(0.015625)"/>
       <path id="ArialMT-75" d="M 2597 0 
L 2597 488 
Q 2209 -75 1544 -75 
Q 1250 -75 995 37 
Q 741 150 617 320 
Q 494 491 444 738 
Q 409 903 409 1263 
L 409 3319 
L 972 3319 
L 972 1478 
Q 972 1038 1006 884 
Q 1059 663 1231 536 
Q 1403 409 1656 409 
Q 1909 409 2131 539 
Q 2353 669 2445 892 
Q 2538 1116 2538 1541 
L 2538 3319 
L 3100 3319 
L 3100 0 
L 2597 0 
z
" transform="scale(0.015625)"/>
       <path id="ArialMT-6c" d="M 409 0 
L 409 4581 
L 972 4581 
L 972 0 
L 409 0 
z
" transform="scale(0.015625)"/>
       <path id="ArialMT-5b" d="M 434 -1272 
L 434 4581 
L 1675 4581 
L 1675 4116 
L 997 4116 
L 997 -806 
L 1675 -806 
L 1675 -1272 
L 434 -1272 
z
" transform="scale(0.015625)"/>
       <path id="DejaVuSans-33" d="M 2597 2516 
Q 3050 2419 3304 2112 
Q 3559 1806 3559 1356 
Q 3559 666 3084 287 
Q 2609 -91 1734 -91 
Q 1441 -91 1130 -33 
Q 819 25 488 141 
L 488 750 
Q 750 597 1062 519 
Q 1375 441 1716 441 
Q 2309 441 2620 675 
Q 2931 909 2931 1356 
Q 2931 1769 2642 2001 
Q 2353 2234 1838 2234 
L 1294 2234 
L 1294 2753 
L 1863 2753 
Q 2328 2753 2575 2939 
Q 2822 3125 2822 3475 
Q 2822 3834 2567 4026 
Q 2313 4219 1838 4219 
Q 1578 4219 1281 4162 
Q 984 4106 628 3988 
L 628 4550 
Q 988 4650 1302 4700 
Q 1616 4750 1894 4750 
Q 2613 4750 3031 4423 
Q 3450 4097 3450 3541 
Q 3450 3153 3228 2886 
Q 3006 2619 2597 2516 
z
" transform="scale(0.015625)"/>
       <path id="ArialMT-5d" d="M 1363 -1272 
L 122 -1272 
L 122 -806 
L 800 -806 
L 800 4116 
L 122 4116 
L 122 4581 
L 1363 4581 
L 1363 -1272 
z
" transform="scale(0.015625)"/>
      </defs>
      <use xlink:href="#ArialMT-6d" transform="translate(0 0.765625)"/>
      <use xlink:href="#ArialMT-65" transform="translate(83.300781 0.765625)"/>
      <use xlink:href="#ArialMT-61" transform="translate(138.916016 0.765625)"/>
      <use xlink:href="#ArialMT-6e" transform="translate(194.53125 0.765625)"/>
      <use xlink:href="#ArialMT-43" transform="translate(250.146484 0.765625)"/>
      <use xlink:href="#ArialMT-54" transform="translate(322.363281 0.765625)"/>
      <use xlink:href="#ArialMT-32" transform="translate(383.447266 0.765625)"/>
      <use xlink:href="#ArialMT-20" transform="translate(439.0625 0.765625)"/>
      <use xlink:href="#ArialMT-72" transform="translate(466.845703 0.765625)"/>
      <use xlink:href="#ArialMT-65" transform="translate(500.146484 0.765625)"/>
      <use xlink:href="#ArialMT-73" transform="translate(555.761719 0.765625)"/>
      <use xlink:href="#ArialMT-69" transform="translate(605.761719 0.765625)"/>
      <use xlink:href="#ArialMT-64" transform="translate(627.978516 0.765625)"/>
      <use xlink:href="#ArialMT-75" transform="translate(683.59375 0.765625)"/>
      <use xlink:href="#ArialMT-61" transform="translate(739.208984 0.765625)"/>
      <use xlink:href="#ArialMT-6c" transform="translate(794.824219 0.765625)"/>
      <use xlink:href="#ArialMT-73" transform="translate(817.041016 0.765625)"/>
      <use xlink:href="#ArialMT-20" transform="translate(867.041016 0.765625)"/>
      <use xlink:href="#ArialMT-5b" transform="translate(894.824219 0.765625)"/>
      <use xlink:href="#ArialMT-6d" transform="translate(922.607422 0.765625)"/>
      <use xlink:href="#ArialMT-6d" transform="translate(1005.908203 0.765625)"/>
      <use xlink:href="#DejaVuSans-33" transform="translate(1090.166016 39.046875) scale(0.7)"/>
      <use xlink:href="#ArialMT-5d" transform="translate(1137.436523 0.765625)"/>
     </g>
    </g>
   </g>
   <g id="PolyCollection_1">
    <defs>
     <path id="md51105b032" d="M 97.358977 -66.405258 
L 96.964944 -66.405258 
L 96.87583 -68.142981 
L 96.756192 -69.880704 
L 96.599784 -71.618427 
L 96.40057 -73.35615 
L 96.153227 -75.093873 
L 95.85365 -76.831596 
L 95.499383 -78.569319 
L 95.089915 -80.307043 
L 94.626771 -82.044766 
L 94.113405 -83.782489 
L 93.554909 -85.520212 
L 92.957622 -87.257935 
L 92.328722 -88.995658 
L 91.675883 -90.733381 
L 91.007065 -92.471104 
L 90.3304 -94.208827 
L 89.654136 -95.94655 
L 88.986492 -97.684273 
L 88.335346 -99.421997 
L 87.707621 -101.15972 
L 87.108399 -102.897443 
L 86.539811 -104.635166 
L 85.999897 -106.372889 
L 85.481624 -108.110612 
L 84.972326 -109.848335 
L 84.453717 -111.586058 
L 83.902603 -113.323781 
L 83.292306 -115.061504 
L 82.594716 -116.799227 
L 81.782857 -118.536951 
L 80.833783 -120.274674 
L 79.731588 -122.012397 
L 78.470275 -123.75012 
L 77.056165 -125.487843 
L 75.509475 -127.225566 
L 73.864672 -128.963289 
L 72.169261 -130.701012 
L 70.480836 -132.438735 
L 68.862474 -134.176458 
L 67.376897 -135.914181 
L 66.080157 -137.651905 
L 65.015806 -139.389628 
L 64.210593 -141.127351 
L 63.672515 -142.865074 
L 63.391659 -144.602797 
L 63.343778 -146.34052 
L 63.495924 -148.078243 
L 63.813088 -149.815966 
L 64.264557 -151.553689 
L 64.828741 -153.291412 
L 65.495608 -155.029135 
L 66.266352 -156.766859 
L 67.15054 -158.504582 
L 68.161488 -160.242305 
L 69.310972 -161.980028 
L 70.604424 -163.717751 
L 72.037568 -165.455474 
L 73.595064 -167.193197 
L 75.251229 -168.93092 
L 76.972456 -170.668643 
L 78.720653 -172.406366 
L 80.456919 -174.144089 
L 82.144753 -175.881812 
L 83.752374 -177.619536 
L 85.253964 -179.357259 
L 86.62997 -181.094982 
L 87.866747 -182.832705 
L 88.955901 -184.570428 
L 89.893645 -186.308151 
L 90.680356 -188.045874 
L 91.320404 -189.783597 
L 91.822173 -191.52132 
L 92.19812 -193.259043 
L 92.464689 -194.996766 
L 92.641895 -196.73449 
L 92.752499 -198.472213 
L 92.820741 -200.209936 
L 92.870745 -201.947659 
L 92.924757 -203.685382 
L 93.001488 -205.423105 
L 93.114773 -207.160828 
L 93.27277 -208.898551 
L 93.477805 -210.636274 
L 93.726848 -212.373997 
L 94.012533 -214.11172 
L 94.324502 -215.849444 
L 94.65088 -217.587167 
L 94.979653 -219.32489 
L 95.299796 -221.062613 
L 95.60207 -222.800336 
L 95.87946 -224.538059 
L 96.127312 -226.275782 
L 96.34321 -228.013505 
L 96.526706 -229.751228 
L 96.678943 -231.488951 
L 96.80225 -233.226674 
L 96.899747 -234.964398 
L 96.974981 -236.702121 
L 97.031615 -238.439844 
L 97.292306 -238.439844 
L 97.292306 -238.439844 
L 97.348939 -236.702121 
L 97.424173 -234.964398 
L 97.521671 -233.226674 
L 97.644978 -231.488951 
L 97.797214 -229.751228 
L 97.98071 -228.013505 
L 98.196609 -226.275782 
L 98.44446 -224.538059 
L 98.721851 -222.800336 
L 99.024124 -221.062613 
L 99.344268 -219.32489 
L 99.673041 -217.587167 
L 99.999419 -215.849444 
L 100.311388 -214.11172 
L 100.597072 -212.373997 
L 100.846116 -210.636274 
L 101.05115 -208.898551 
L 101.209148 -207.160828 
L 101.322432 -205.423105 
L 101.399163 -203.685382 
L 101.453176 -201.947659 
L 101.503179 -200.209936 
L 101.571422 -198.472213 
L 101.682026 -196.73449 
L 101.859232 -194.996766 
L 102.1258 -193.259043 
L 102.501748 -191.52132 
L 103.003516 -189.783597 
L 103.643564 -188.045874 
L 104.430275 -186.308151 
L 105.368019 -184.570428 
L 106.457174 -182.832705 
L 107.693951 -181.094982 
L 109.069957 -179.357259 
L 110.571547 -177.619536 
L 112.179168 -175.881812 
L 113.867002 -174.144089 
L 115.603267 -172.406366 
L 117.351465 -170.668643 
L 119.072692 -168.93092 
L 120.728857 -167.193197 
L 122.286352 -165.455474 
L 123.719496 -163.717751 
L 125.012948 -161.980028 
L 126.162432 -160.242305 
L 127.17338 -158.504582 
L 128.057568 -156.766859 
L 128.828313 -155.029135 
L 129.49518 -153.291412 
L 130.059363 -151.553689 
L 130.510832 -149.815966 
L 130.827997 -148.078243 
L 130.980142 -146.34052 
L 130.932261 -144.602797 
L 130.651406 -142.865074 
L 130.113327 -141.127351 
L 129.308115 -139.389628 
L 128.243764 -137.651905 
L 126.947023 -135.914181 
L 125.461447 -134.176458 
L 123.843085 -132.438735 
L 122.15466 -130.701012 
L 120.459249 -128.963289 
L 118.814445 -127.225566 
L 117.267755 -125.487843 
L 115.853645 -123.75012 
L 114.592332 -122.012397 
L 113.490138 -120.274674 
L 112.541064 -118.536951 
L 111.729205 -116.799227 
L 111.031614 -115.061504 
L 110.421317 -113.323781 
L 109.870204 -111.586058 
L 109.351594 -109.848335 
L 108.842296 -108.110612 
L 108.324024 -106.372889 
L 107.784109 -104.635166 
L 107.215522 -102.897443 
L 106.616299 -101.15972 
L 105.988574 -99.421997 
L 105.337428 -97.684273 
L 104.669785 -95.94655 
L 103.99352 -94.208827 
L 103.316856 -92.471104 
L 102.648037 -90.733381 
L 101.995199 -88.995658 
L 101.366298 -87.257935 
L 100.769012 -85.520212 
L 100.210516 -83.782489 
L 99.69715 -82.044766 
L 99.234006 -80.307043 
L 98.824537 -78.569319 
L 98.470271 -76.831596 
L 98.170694 -75.093873 
L 97.923351 -73.35615 
L 97.724137 -71.618427 
L 97.567729 -69.880704 
L 97.448091 -68.142981 
L 97.358977 -66.405258 
z
" style="stroke: #4c4c4c; stroke-width: 0.5"/>
    </defs>
    <g clip-path="url(#pbd9c884ec7)">
     <use xlink:href="#md51105b032" x="0" y="255.719844" style="fill: #5573cd; stroke: #4c4c4c; stroke-width: 0.5"/>
    </g>
   </g>
   <g id="PolyCollection_2">
    <defs>
     <path id="mb5caf0081d" d="M 181.843163 -36.839844 
L 181.571666 -36.839844 
L 181.517052 -38.749232 
L 181.447102 -40.658621 
L 181.360038 -42.56801 
L 181.254643 -44.477399 
L 181.1304 -46.386787 
L 180.987553 -48.296176 
L 180.827037 -50.205565 
L 180.650306 -52.114953 
L 180.459059 -54.024342 
L 180.254941 -55.933731 
L 180.039258 -57.84312 
L 179.812774 -59.752508 
L 179.575606 -61.661897 
L 179.32722 -63.571286 
L 179.066485 -65.480674 
L 178.791741 -67.390063 
L 178.500812 -69.299452 
L 178.190949 -71.20884 
L 177.858685 -73.118229 
L 177.499633 -75.027618 
L 177.10828 -76.937007 
L 176.67783 -78.846395 
L 176.200153 -80.755784 
L 175.665872 -82.665173 
L 175.064648 -84.574561 
L 174.385669 -86.48395 
L 173.618375 -88.393339 
L 172.753405 -90.302728 
L 171.783725 -92.212116 
L 170.705823 -94.121505 
L 169.520805 -96.030894 
L 168.235153 -97.940282 
L 166.860949 -99.849671 
L 165.415397 -101.75906 
L 163.919626 -103.668448 
L 162.396928 -105.577837 
L 160.870759 -107.487226 
L 159.362918 -109.396615 
L 157.89232 -111.306003 
L 156.474648 -113.215392 
L 155.122911 -115.124781 
L 153.848681 -117.034169 
L 152.663547 -118.943558 
L 151.580237 -120.852947 
L 150.612924 -122.762336 
L 149.776496 -124.671724 
L 149.084855 -126.581113 
L 148.54866 -128.490502 
L 148.173101 -130.39989 
L 147.956364 -132.309279 
L 147.889233 -134.218668 
L 147.956081 -136.128056 
L 148.137086 -138.037445 
L 148.411301 -139.946834 
L 148.759967 -141.856223 
L 149.169464 -143.765611 
L 149.63335 -145.675 
L 150.153112 -147.584389 
L 150.737484 -149.493777 
L 151.400414 -151.403166 
L 152.157985 -153.312555 
L 153.024781 -155.221943 
L 154.01031 -157.131332 
L 155.116144 -159.040721 
L 156.334319 -160.95011 
L 157.647357 -162.859498 
L 159.029951 -164.768887 
L 160.452008 -166.678276 
L 161.882455 -168.587664 
L 163.293036 -170.497053 
L 164.661334 -172.406442 
L 165.972454 -174.315831 
L 167.219131 -176.225219 
L 168.400399 -178.134608 
L 169.519284 -180.043997 
L 170.580181 -181.953385 
L 171.586574 -183.862774 
L 172.539603 -185.772163 
L 173.437722 -187.681551 
L 174.277385 -189.59094 
L 175.054422 -191.500329 
L 175.765658 -193.409718 
L 176.410283 -195.319106 
L 176.990603 -197.228495 
L 177.512013 -199.137884 
L 177.982227 -201.047272 
L 178.410012 -202.956661 
L 178.803753 -204.86605 
L 179.170204 -206.775439 
L 179.513684 -208.684827 
L 179.835868 -210.594216 
L 180.136117 -212.503605 
L 180.412235 -214.412993 
L 180.661406 -216.322382 
L 180.88111 -218.231771 
L 181.069816 -220.141159 
L 181.227373 -222.050548 
L 181.35508 -223.959937 
L 181.455485 -225.869326 
L 181.959345 -225.869326 
L 181.959345 -225.869326 
L 182.05975 -223.959937 
L 182.187457 -222.050548 
L 182.345014 -220.141159 
L 182.533719 -218.231771 
L 182.753423 -216.322382 
L 183.002595 -214.412993 
L 183.278712 -212.503605 
L 183.578961 -210.594216 
L 183.901145 -208.684827 
L 184.244626 -206.775439 
L 184.611076 -204.86605 
L 185.004817 -202.956661 
L 185.432603 -201.047272 
L 185.902817 -199.137884 
L 186.424226 -197.228495 
L 187.004546 -195.319106 
L 187.649171 -193.409718 
L 188.360408 -191.500329 
L 189.137445 -189.59094 
L 189.977107 -187.681551 
L 190.875227 -185.772163 
L 191.828255 -183.862774 
L 192.834648 -181.953385 
L 193.895546 -180.043997 
L 195.014431 -178.134608 
L 196.195698 -176.225219 
L 197.442376 -174.315831 
L 198.753496 -172.406442 
L 200.121793 -170.497053 
L 201.532375 -168.587664 
L 202.962822 -166.678276 
L 204.384879 -164.768887 
L 205.767473 -162.859498 
L 207.080511 -160.95011 
L 208.298686 -159.040721 
L 209.40452 -157.131332 
L 210.390049 -155.221943 
L 211.256844 -153.312555 
L 212.014416 -151.403166 
L 212.677346 -149.493777 
L 213.261718 -147.584389 
L 213.781479 -145.675 
L 214.245365 -143.765611 
L 214.654863 -141.856223 
L 215.003528 -139.946834 
L 215.277743 -138.037445 
L 215.458749 -136.128056 
L 215.525597 -134.218668 
L 215.458466 -132.309279 
L 215.241728 -130.39989 
L 214.86617 -128.490502 
L 214.329974 -126.581113 
L 213.638333 -124.671724 
L 212.801905 -122.762336 
L 211.834593 -120.852947 
L 210.751282 -118.943558 
L 209.566149 -117.034169 
L 208.291919 -115.124781 
L 206.940182 -113.215392 
L 205.52251 -111.306003 
L 204.051912 -109.396615 
L 202.54407 -107.487226 
L 201.017902 -105.577837 
L 199.495204 -103.668448 
L 197.999433 -101.75906 
L 196.553881 -99.849671 
L 195.179677 -97.940282 
L 193.894025 -96.030894 
L 192.709006 -94.121505 
L 191.631105 -92.212116 
L 190.661425 -90.302728 
L 189.796454 -88.393339 
L 189.02916 -86.48395 
L 188.350182 -84.574561 
L 187.748958 -82.665173 
L 187.214677 -80.755784 
L 186.736999 -78.846395 
L 186.30655 -76.937007 
L 185.915197 -75.027618 
L 185.556144 -73.118229 
L 185.22388 -71.20884 
L 184.914018 -69.299452 
L 184.623089 -67.390063 
L 184.348344 -65.480674 
L 184.08761 -63.571286 
L 183.839223 -61.661897 
L 183.602055 -59.752508 
L 183.375571 -57.84312 
L 183.159888 -55.933731 
L 182.95577 -54.024342 
L 182.764523 -52.114953 
L 182.587792 -50.205565 
L 182.427277 -48.296176 
L 182.284429 -46.386787 
L 182.160187 -44.477399 
L 182.054791 -42.56801 
L 181.967728 -40.658621 
L 181.897778 -38.749232 
L 181.843163 -36.839844 
z
" style="stroke: #4c4c4c; stroke-width: 0.5"/>
    </defs>
    <g clip-path="url(#pbd9c884ec7)">
     <use xlink:href="#mb5caf0081d" x="0" y="255.719844" style="fill: #df8920; stroke: #4c4c4c; stroke-width: 0.5"/>
    </g>
   </g>
   <g id="line2d_1">
    <path d="M 97.16196 164.933288 
L 97.16196 50.357249 
" clip-path="url(#pbd9c884ec7)" style="fill: none; stroke: #4c4c4c; stroke-width: 0.75; stroke-linecap: round"/>
   </g>
   <g id="line2d_2">
    <path d="M 97.16196 122.374723 
L 97.16196 93.22063 
" clip-path="url(#pbd9c884ec7)" style="fill: none; stroke: #4c4c4c; stroke-width: 2.25; stroke-linecap: round"/>
   </g>
   <g id="line2d_3">
    <path d="M 97.16196 110.564407 
" clip-path="url(#pbd9c884ec7)" style="fill: none; stroke: #4c4c4c; stroke-width: 1.5; stroke-linecap: round"/>
    <defs>
     <path id="m88aa4cc203" d="M 0.9375 0 
L -0.9375 -0 
" style="stroke: #ffffff; stroke-width: 0.45"/>
    </defs>
    <g clip-path="url(#pbd9c884ec7)">
     <use xlink:href="#m88aa4cc203" x="97.16196" y="110.564407" style="fill: #ffffff; stroke: #ffffff; stroke-width: 0.45"/>
    </g>
   </g>
   <g id="line2d_4">
    <path d="M 181.707415 196.275652 
L 181.707415 52.454866 
" clip-path="url(#pbd9c884ec7)" style="fill: none; stroke: #4c4c4c; stroke-width: 0.75; stroke-linecap: round"/>
   </g>
   <g id="line2d_5">
    <path d="M 181.707415 138.748405 
L 181.707415 98.505365 
" clip-path="url(#pbd9c884ec7)" style="fill: none; stroke: #4c4c4c; stroke-width: 2.25; stroke-linecap: round"/>
   </g>
   <g id="line2d_6">
    <path d="M 181.707415 121.247204 
" clip-path="url(#pbd9c884ec7)" style="fill: none; stroke: #4c4c4c; stroke-width: 1.5; stroke-linecap: round"/>
    <g clip-path="url(#pbd9c884ec7)">
     <use xlink:href="#m88aa4cc203" x="181.707415" y="121.247204" style="fill: #ffffff; stroke: #ffffff; stroke-width: 0.45"/>
    </g>
   </g>
   <g id="line2d_7">
    <path d="M 97.16196 37.051649 
L 97.16196 32.616449 
L 181.707415 32.616449 
L 181.707415 37.051649 
" style="fill: none; stroke: #333333; stroke-width: 0.5; stroke-linecap: round"/>
   </g>
   <g id="patch_3">
    <path d="M 55.734688 228.96 
L 55.734688 7.2 
" style="fill: none; stroke: #262626; stroke-width: 1.25; stroke-linejoin: miter; stroke-linecap: square"/>
   </g>
   <g id="patch_4">
    <path d="M 55.734688 228.96 
L 223.134688 228.96 
" style="fill: none; stroke: #262626; stroke-width: 1.25; stroke-linejoin: miter; stroke-linecap: square"/>
   </g>
   <g id="text_11">
    <!-- * -->
    <g style="fill: #262626" transform="translate(137.099375 29.231449) scale(0.12 -0.12)">
     <defs>
      <path id="ArialMT-2a" d="M 200 3741 
L 344 4184 
Q 841 4009 1066 3881 
Q 1006 4447 1003 4659 
L 1456 4659 
Q 1447 4350 1384 3884 
Q 1706 4047 2122 4184 
L 2266 3741 
Q 1869 3609 1488 3566 
Q 1678 3400 2025 2975 
L 1650 2709 
Q 1469 2956 1222 3381 
Q 991 2941 816 2709 
L 447 2975 
Q 809 3422 966 3566 
Q 563 3644 200 3741 
z
" transform="scale(0.015625)"/>
     </defs>
     <use xlink:href="#ArialMT-2a"/>
    </g>
   </g>
  </g>
 </g>
 <defs>
  <clipPath id="pbd9c884ec7">
   <rect x="55.734688" y="7.2" width="167.4" height="221.76"/>
  </clipPath>
 </defs>
</svg>
