<?xml version="1.0" encoding="utf-8" standalone="no"?>
<!DOCTYPE svg PUBLIC "-//W3C//DTD SVG 1.1//EN"
  "http://www.w3.org/Graphics/SVG/1.1/DTD/svg11.dtd">
<svg xmlns:xlink="http://www.w3.org/1999/xlink" width="245.322187pt" height="259.45288pt" viewBox="0 0 245.322187 259.45288" xmlns="http://www.w3.org/2000/svg" version="1.1">
 <metadata>
  <rdf:RDF xmlns:dc="http://purl.org/dc/elements/1.1/" xmlns:cc="http://creativecommons.org/ns#" xmlns:rdf="http://www.w3.org/1999/02/22-rdf-syntax-ns#">
   <cc:Work>
    <dc:type rdf:resource="http://purl.org/dc/dcmitype/StillImage"/>
    <dc:date>2025-05-05T08:55:59.064452</dc:date>
    <dc:format>image/svg+xml</dc:format>
    <dc:creator>
     <cc:Agent>
      <dc:title>Matplotlib v3.9.2, https://matplotlib.org/</dc:title>
     </cc:Agent>
    </dc:creator>
   </cc:Work>
  </rdf:RDF>
 </metadata>
 <defs>
  <style type="text/css">*{stroke-linejoin: round; stroke-linecap: butt}</style>
 </defs>
 <g id="figure_1">
  <g id="patch_1">
   <path d="M -0 259.45288 
L 245.322188 259.45288 
L 245.322188 0 
L -0 0 
z
" style="fill: #ffffff"/>
  </g>
  <g id="axes_1">
   <g id="patch_2">
    <path d="M 70.722188 232.693037 
L 238.122188 232.693037 
L 238.122188 10.933037 
L 70.722188 10.933037 
z
" style="fill: #ffffff"/>
   </g>
   <g id="matplotlib.axis_1">
    <g id="xtick_1">
     <g id="text_1">
      <!-- Term -->
      <g style="fill: #262626" transform="translate(99.930866 250.06663) scale(0.11 -0.11)">
       <defs>
        <path id="ArialMT-54" d="M 1659 0 
L 1659 4041 
L 150 4041 
L 150 4581 
L 3781 4581 
L 3781 4041 
L 2266 4041 
L 2266 0 
L 1659 0 
z
" transform="scale(0.015625)"/>
        <path id="ArialMT-65" d="M 2694 1069 
L 3275 997 
Q 3138 488 2766 206 
Q 2394 -75 1816 -75 
Q 1088 -75 661 373 
Q 234 822 234 1631 
Q 234 2469 665 2931 
Q 1097 3394 1784 3394 
Q 2450 3394 2872 2941 
Q 3294 2488 3294 1666 
Q 3294 1616 3291 1516 
L 816 1516 
Q 847 969 1125 678 
Q 1403 388 1819 388 
Q 2128 388 2347 550 
Q 2566 713 2694 1069 
z
M 847 1978 
L 2700 1978 
Q 2663 2397 2488 2606 
Q 2219 2931 1791 2931 
Q 1403 2931 1139 2672 
Q 875 2413 847 1978 
z
" transform="scale(0.015625)"/>
        <path id="ArialMT-72" d="M 416 0 
L 416 3319 
L 922 3319 
L 922 2816 
Q 1116 3169 1280 3281 
Q 1444 3394 1641 3394 
Q 1925 3394 2219 3213 
L 2025 2691 
Q 1819 2813 1613 2813 
Q 1428 2813 1281 2702 
Q 1134 2591 1072 2394 
Q 978 2094 978 1738 
L 978 0 
L 416 0 
z
" transform="scale(0.015625)"/>
        <path id="ArialMT-6d" d="M 422 0 
L 422 3319 
L 925 3319 
L 925 2853 
Q 1081 3097 1340 3245 
Q 1600 3394 1931 3394 
Q 2300 3394 2536 3241 
Q 2772 3088 2869 2813 
Q 3263 3394 3894 3394 
Q 4388 3394 4653 3120 
Q 4919 2847 4919 2278 
L 4919 0 
L 4359 0 
L 4359 2091 
Q 4359 2428 4304 2576 
Q 4250 2725 4106 2815 
Q 3963 2906 3769 2906 
Q 3419 2906 3187 2673 
Q 2956 2441 2956 1928 
L 2956 0 
L 2394 0 
L 2394 2156 
Q 2394 2531 2256 2718 
Q 2119 2906 1806 2906 
Q 1569 2906 1367 2781 
Q 1166 2656 1075 2415 
Q 984 2175 984 1722 
L 984 0 
L 422 0 
z
" transform="scale(0.015625)"/>
       </defs>
       <use xlink:href="#ArialMT-54"/>
       <use xlink:href="#ArialMT-65" x="49.958984"/>
       <use xlink:href="#ArialMT-72" x="105.574219"/>
       <use xlink:href="#ArialMT-6d" x="138.875"/>
      </g>
     </g>
    </g>
    <g id="xtick_2">
     <g id="text_2">
      <!-- Preterm -->
      <g style="fill: #262626" transform="translate(177.137259 250.06663) scale(0.11 -0.11)">
       <defs>
        <path id="ArialMT-50" d="M 494 0 
L 494 4581 
L 2222 4581 
Q 2678 4581 2919 4538 
Q 3256 4481 3484 4323 
Q 3713 4166 3852 3881 
Q 3991 3597 3991 3256 
Q 3991 2672 3619 2267 
Q 3247 1863 2275 1863 
L 1100 1863 
L 1100 0 
L 494 0 
z
M 1100 2403 
L 2284 2403 
Q 2872 2403 3119 2622 
Q 3366 2841 3366 3238 
Q 3366 3525 3220 3729 
Q 3075 3934 2838 4000 
Q 2684 4041 2272 4041 
L 1100 4041 
L 1100 2403 
z
" transform="scale(0.015625)"/>
        <path id="ArialMT-74" d="M 1650 503 
L 1731 6 
Q 1494 -44 1306 -44 
Q 1000 -44 831 53 
Q 663 150 594 308 
Q 525 466 525 972 
L 525 2881 
L 113 2881 
L 113 3319 
L 525 3319 
L 525 4141 
L 1084 4478 
L 1084 3319 
L 1650 3319 
L 1650 2881 
L 1084 2881 
L 1084 941 
Q 1084 700 1114 631 
Q 1144 563 1211 522 
Q 1278 481 1403 481 
Q 1497 481 1650 503 
z
" transform="scale(0.015625)"/>
       </defs>
       <use xlink:href="#ArialMT-50"/>
       <use xlink:href="#ArialMT-72" x="66.699219"/>
       <use xlink:href="#ArialMT-65" x="100"/>
       <use xlink:href="#ArialMT-74" x="155.615234"/>
       <use xlink:href="#ArialMT-65" x="183.398438"/>
       <use xlink:href="#ArialMT-72" x="239.013672"/>
       <use xlink:href="#ArialMT-6d" x="272.314453"/>
      </g>
     </g>
    </g>
   </g>
   <g id="matplotlib.axis_2">
    <g id="ytick_1">
     <g id="text_3">
      <!-- 500000 -->
      <g style="fill: #262626" transform="translate(24.52 204.064652) scale(0.11 -0.11)">
       <defs>
        <path id="ArialMT-35" d="M 266 1200 
L 856 1250 
Q 922 819 1161 601 
Q 1400 384 1738 384 
Q 2144 384 2425 690 
Q 2706 997 2706 1503 
Q 2706 1984 2436 2262 
Q 2166 2541 1728 2541 
Q 1456 2541 1237 2417 
Q 1019 2294 894 2097 
L 366 2166 
L 809 4519 
L 3088 4519 
L 3088 3981 
L 1259 3981 
L 1013 2750 
Q 1425 3038 1878 3038 
Q 2478 3038 2890 2622 
Q 3303 2206 3303 1553 
Q 3303 931 2941 478 
Q 2500 -78 1738 -78 
Q 1113 -78 717 272 
Q 322 622 266 1200 
z
" transform="scale(0.015625)"/>
        <path id="ArialMT-30" d="M 266 2259 
Q 266 3072 433 3567 
Q 600 4063 929 4331 
Q 1259 4600 1759 4600 
Q 2128 4600 2406 4451 
Q 2684 4303 2865 4023 
Q 3047 3744 3150 3342 
Q 3253 2941 3253 2259 
Q 3253 1453 3087 958 
Q 2922 463 2592 192 
Q 2263 -78 1759 -78 
Q 1097 -78 719 397 
Q 266 969 266 2259 
z
M 844 2259 
Q 844 1131 1108 757 
Q 1372 384 1759 384 
Q 2147 384 2411 759 
Q 2675 1134 2675 2259 
Q 2675 3391 2411 3762 
Q 2147 4134 1753 4134 
Q 1366 4134 1134 3806 
Q 844 3388 844 2259 
z
" transform="scale(0.015625)"/>
       </defs>
       <use xlink:href="#ArialMT-35"/>
       <use xlink:href="#ArialMT-30" x="55.615234"/>
       <use xlink:href="#ArialMT-30" x="111.230469"/>
       <use xlink:href="#ArialMT-30" x="166.845703"/>
       <use xlink:href="#ArialMT-30" x="222.460938"/>
       <use xlink:href="#ArialMT-30" x="278.076172"/>
      </g>
     </g>
    </g>
    <g id="ytick_2">
     <g id="text_4">
      <!-- 600000 -->
      <g style="fill: #262626" transform="translate(24.52 156.816888) scale(0.11 -0.11)">
       <defs>
        <path id="ArialMT-36" d="M 3184 3459 
L 2625 3416 
Q 2550 3747 2413 3897 
Q 2184 4138 1850 4138 
Q 1581 4138 1378 3988 
Q 1113 3794 959 3422 
Q 806 3050 800 2363 
Q 1003 2672 1297 2822 
Q 1591 2972 1913 2972 
Q 2475 2972 2870 2558 
Q 3266 2144 3266 1488 
Q 3266 1056 3080 686 
Q 2894 316 2569 119 
Q 2244 -78 1831 -78 
Q 1128 -78 684 439 
Q 241 956 241 2144 
Q 241 3472 731 4075 
Q 1159 4600 1884 4600 
Q 2425 4600 2770 4297 
Q 3116 3994 3184 3459 
z
M 888 1484 
Q 888 1194 1011 928 
Q 1134 663 1356 523 
Q 1578 384 1822 384 
Q 2178 384 2434 671 
Q 2691 959 2691 1453 
Q 2691 1928 2437 2201 
Q 2184 2475 1800 2475 
Q 1419 2475 1153 2201 
Q 888 1928 888 1484 
z
" transform="scale(0.015625)"/>
       </defs>
       <use xlink:href="#ArialMT-36"/>
       <use xlink:href="#ArialMT-30" x="55.615234"/>
       <use xlink:href="#ArialMT-30" x="111.230469"/>
       <use xlink:href="#ArialMT-30" x="166.845703"/>
       <use xlink:href="#ArialMT-30" x="222.460938"/>
       <use xlink:href="#ArialMT-30" x="278.076172"/>
      </g>
     </g>
    </g>
    <g id="ytick_3">
     <g id="text_5">
      <!-- 700000 -->
      <g style="fill: #262626" transform="translate(24.52 109.569123) scale(0.11 -0.11)">
       <defs>
        <path id="ArialMT-37" d="M 303 3981 
L 303 4522 
L 3269 4522 
L 3269 4084 
Q 2831 3619 2401 2847 
Q 1972 2075 1738 1259 
Q 1569 684 1522 0 
L 944 0 
Q 953 541 1156 1306 
Q 1359 2072 1739 2783 
Q 2119 3494 2547 3981 
L 303 3981 
z
" transform="scale(0.015625)"/>
       </defs>
       <use xlink:href="#ArialMT-37"/>
       <use xlink:href="#ArialMT-30" x="55.615234"/>
       <use xlink:href="#ArialMT-30" x="111.230469"/>
       <use xlink:href="#ArialMT-30" x="166.845703"/>
       <use xlink:href="#ArialMT-30" x="222.460938"/>
       <use xlink:href="#ArialMT-30" x="278.076172"/>
      </g>
     </g>
    </g>
    <g id="ytick_4">
     <g id="text_6">
      <!-- 800000 -->
      <g style="fill: #262626" transform="translate(24.52 62.321358) scale(0.11 -0.11)">
       <defs>
        <path id="ArialMT-38" d="M 1131 2484 
Q 781 2613 612 2850 
Q 444 3088 444 3419 
Q 444 3919 803 4259 
Q 1163 4600 1759 4600 
Q 2359 4600 2725 4251 
Q 3091 3903 3091 3403 
Q 3091 3084 2923 2848 
Q 2756 2613 2416 2484 
Q 2838 2347 3058 2040 
Q 3278 1734 3278 1309 
Q 3278 722 2862 322 
Q 2447 -78 1769 -78 
Q 1091 -78 675 323 
Q 259 725 259 1325 
Q 259 1772 486 2073 
Q 713 2375 1131 2484 
z
M 1019 3438 
Q 1019 3113 1228 2906 
Q 1438 2700 1772 2700 
Q 2097 2700 2305 2904 
Q 2513 3109 2513 3406 
Q 2513 3716 2298 3927 
Q 2084 4138 1766 4138 
Q 1444 4138 1231 3931 
Q 1019 3725 1019 3438 
z
M 838 1322 
Q 838 1081 952 856 
Q 1066 631 1291 507 
Q 1516 384 1775 384 
Q 2178 384 2440 643 
Q 2703 903 2703 1303 
Q 2703 1709 2433 1975 
Q 2163 2241 1756 2241 
Q 1359 2241 1098 1978 
Q 838 1716 838 1322 
z
" transform="scale(0.015625)"/>
       </defs>
       <use xlink:href="#ArialMT-38"/>
       <use xlink:href="#ArialMT-30" x="55.615234"/>
       <use xlink:href="#ArialMT-30" x="111.230469"/>
       <use xlink:href="#ArialMT-30" x="166.845703"/>
       <use xlink:href="#ArialMT-30" x="222.460938"/>
       <use xlink:href="#ArialMT-30" x="278.076172"/>
      </g>
     </g>
    </g>
    <g id="ytick_5">
     <g id="text_7">
      <!-- 900000 -->
      <g style="fill: #262626" transform="translate(24.52 15.073594) scale(0.11 -0.11)">
       <defs>
        <path id="ArialMT-39" d="M 350 1059 
L 891 1109 
Q 959 728 1153 556 
Q 1347 384 1650 384 
Q 1909 384 2104 503 
Q 2300 622 2425 820 
Q 2550 1019 2634 1356 
Q 2719 1694 2719 2044 
Q 2719 2081 2716 2156 
Q 2547 1888 2255 1720 
Q 1963 1553 1622 1553 
Q 1053 1553 659 1965 
Q 266 2378 266 3053 
Q 266 3750 677 4175 
Q 1088 4600 1706 4600 
Q 2153 4600 2523 4359 
Q 2894 4119 3086 3673 
Q 3278 3228 3278 2384 
Q 3278 1506 3087 986 
Q 2897 466 2520 194 
Q 2144 -78 1638 -78 
Q 1100 -78 759 220 
Q 419 519 350 1059 
z
M 2653 3081 
Q 2653 3566 2395 3850 
Q 2138 4134 1775 4134 
Q 1400 4134 1122 3828 
Q 844 3522 844 3034 
Q 844 2597 1108 2323 
Q 1372 2050 1759 2050 
Q 2150 2050 2401 2323 
Q 2653 2597 2653 3081 
z
" transform="scale(0.015625)"/>
       </defs>
       <use xlink:href="#ArialMT-39"/>
       <use xlink:href="#ArialMT-30" x="55.615234"/>
       <use xlink:href="#ArialMT-30" x="111.230469"/>
       <use xlink:href="#ArialMT-30" x="166.845703"/>
       <use xlink:href="#ArialMT-30" x="222.460938"/>
       <use xlink:href="#ArialMT-30" x="278.076172"/>
      </g>
     </g>
    </g>
    <g id="text_8">
     <!-- GMV [mm$^3$] -->
     <g style="fill: #262626" transform="translate(18.12 153.373037) rotate(-90) scale(0.12 -0.12)">
      <defs>
       <path id="ArialMT-47" d="M 2638 1797 
L 2638 2334 
L 4578 2338 
L 4578 638 
Q 4131 281 3656 101 
Q 3181 -78 2681 -78 
Q 2006 -78 1454 211 
Q 903 500 622 1047 
Q 341 1594 341 2269 
Q 341 2938 620 3517 
Q 900 4097 1425 4378 
Q 1950 4659 2634 4659 
Q 3131 4659 3532 4498 
Q 3934 4338 4162 4050 
Q 4391 3763 4509 3300 
L 3963 3150 
Q 3859 3500 3706 3700 
Q 3553 3900 3268 4020 
Q 2984 4141 2638 4141 
Q 2222 4141 1919 4014 
Q 1616 3888 1430 3681 
Q 1244 3475 1141 3228 
Q 966 2803 966 2306 
Q 966 1694 1177 1281 
Q 1388 869 1791 669 
Q 2194 469 2647 469 
Q 3041 469 3416 620 
Q 3791 772 3984 944 
L 3984 1797 
L 2638 1797 
z
" transform="scale(0.015625)"/>
       <path id="ArialMT-4d" d="M 475 0 
L 475 4581 
L 1388 4581 
L 2472 1338 
Q 2622 884 2691 659 
Q 2769 909 2934 1394 
L 4031 4581 
L 4847 4581 
L 4847 0 
L 4263 0 
L 4263 3834 
L 2931 0 
L 2384 0 
L 1059 3900 
L 1059 0 
L 475 0 
z
" transform="scale(0.015625)"/>
       <path id="ArialMT-56" d="M 1803 0 
L 28 4581 
L 684 4581 
L 1875 1253 
Q 2019 853 2116 503 
Q 2222 878 2363 1253 
L 3600 4581 
L 4219 4581 
L 2425 0 
L 1803 0 
z
" transform="scale(0.015625)"/>
       <path id="ArialMT-20" transform="scale(0.015625)"/>
       <path id="ArialMT-5b" d="M 434 -1272 
L 434 4581 
L 1675 4581 
L 1675 4116 
L 997 4116 
L 997 -806 
L 1675 -806 
L 1675 -1272 
L 434 -1272 
z
" transform="scale(0.015625)"/>
       <path id="DejaVuSans-33" d="M 2597 2516 
Q 3050 2419 3304 2112 
Q 3559 1806 3559 1356 
Q 3559 666 3084 287 
Q 2609 -91 1734 -91 
Q 1441 -91 1130 -33 
Q 819 25 488 141 
L 488 750 
Q 750 597 1062 519 
Q 1375 441 1716 441 
Q 2309 441 2620 675 
Q 2931 909 2931 1356 
Q 2931 1769 2642 2001 
Q 2353 2234 1838 2234 
L 1294 2234 
L 1294 2753 
L 1863 2753 
Q 2328 2753 2575 2939 
Q 2822 3125 2822 3475 
Q 2822 3834 2567 4026 
Q 2313 4219 1838 4219 
Q 1578 4219 1281 4162 
Q 984 4106 628 3988 
L 628 4550 
Q 988 4650 1302 4700 
Q 1616 4750 1894 4750 
Q 2613 4750 3031 4423 
Q 3450 4097 3450 3541 
Q 3450 3153 3228 2886 
Q 3006 2619 2597 2516 
z
" transform="scale(0.015625)"/>
       <path id="ArialMT-5d" d="M 1363 -1272 
L 122 -1272 
L 122 -806 
L 800 -806 
L 800 4116 
L 122 4116 
L 122 4581 
L 1363 4581 
L 1363 -1272 
z
" transform="scale(0.015625)"/>
      </defs>
      <use xlink:href="#ArialMT-47" transform="translate(0 0.765625)"/>
      <use xlink:href="#ArialMT-4d" transform="translate(77.783203 0.765625)"/>
      <use xlink:href="#ArialMT-56" transform="translate(161.083984 0.765625)"/>
      <use xlink:href="#ArialMT-20" transform="translate(227.783203 0.765625)"/>
      <use xlink:href="#ArialMT-5b" transform="translate(255.566406 0.765625)"/>
      <use xlink:href="#ArialMT-6d" transform="translate(283.349609 0.765625)"/>
      <use xlink:href="#ArialMT-6d" transform="translate(366.650391 0.765625)"/>
      <use xlink:href="#DejaVuSans-33" transform="translate(450.908203 39.046875) scale(0.7)"/>
      <use xlink:href="#ArialMT-5d" transform="translate(498.178711 0.765625)"/>
     </g>
    </g>
   </g>
   <g id="PolyCollection_1">
    <defs>
     <path id="m52bf0c1397" d="M 112.532483 -54.426298 
L 111.766437 -54.426298 
L 111.61838 -56.285021 
L 111.429748 -58.143743 
L 111.195739 -60.002466 
L 110.912968 -61.861189 
L 110.579953 -63.719911 
L 110.197406 -65.578634 
L 109.768242 -67.437357 
L 109.297253 -69.296079 
L 108.790457 -71.154802 
L 108.254225 -73.013525 
L 107.694322 -74.872247 
L 107.115088 -76.73097 
L 106.518935 -78.589693 
L 105.906313 -80.448415 
L 105.276189 -82.307138 
L 104.626945 -84.165861 
L 103.957519 -86.024584 
L 103.268482 -87.883306 
L 102.562772 -89.742029 
L 101.84581 -91.600752 
L 101.124888 -93.459474 
L 100.407845 -95.318197 
L 99.701242 -97.17692 
L 99.008362 -99.035642 
L 98.327474 -100.894365 
L 97.650753 -102.753088 
L 96.964202 -104.61181 
L 96.248733 -106.470533 
L 95.482379 -108.329256 
L 94.643382 -110.187978 
L 93.713727 -112.046701 
L 92.682565 -113.905424 
L 91.548932 -115.764146 
L 90.323252 -117.622869 
L 89.027271 -119.481592 
L 87.692332 -121.340315 
L 86.356183 -123.199037 
L 85.058781 -125.05776 
L 83.83776 -126.916483 
L 82.724306 -128.775205 
L 81.740144 -130.633928 
L 80.896121 -132.492651 
L 80.192608 -134.351373 
L 79.621586 -136.210096 
L 79.169987 -138.068819 
L 78.823639 -139.927541 
L 78.571061 -141.786264 
L 78.40644 -143.644987 
L 78.331278 -145.503709 
L 78.354467 -147.362432 
L 78.490841 -149.221155 
L 78.758522 -151.079878 
L 79.17553 -152.9386 
L 79.756247 -154.797323 
L 80.508273 -156.656046 
L 81.430137 -158.514768 
L 82.510155 -160.373491 
L 83.726549 -162.232214 
L 85.048792 -164.090936 
L 86.439968 -165.949659 
L 87.859875 -167.808382 
L 89.268493 -169.667104 
L 90.62944 -171.525827 
L 91.913053 -173.38455 
L 93.098753 -175.243272 
L 94.176454 -177.101995 
L 95.14685 -178.960718 
L 96.020559 -180.81944 
L 96.81623 -182.678163 
L 97.557826 -184.536886 
L 98.271434 -186.395609 
L 98.981993 -188.254331 
L 99.710337 -190.113054 
L 100.470926 -191.971777 
L 101.270514 -193.830499 
L 102.107874 -195.689222 
L 102.974538 -197.547945 
L 103.856383 -199.406667 
L 104.73578 -201.26539 
L 105.593941 -203.124113 
L 106.413146 -204.982835 
L 107.178551 -206.841558 
L 107.879379 -208.700281 
L 108.509425 -210.559003 
L 109.066917 -212.417726 
L 109.553857 -214.276449 
L 109.975034 -216.135172 
L 110.336933 -217.993894 
L 110.646704 -219.852617 
L 110.91134 -221.71134 
L 111.137138 -223.570062 
L 111.329435 -225.428785 
L 111.492588 -227.287508 
L 111.630119 -229.14623 
L 111.744934 -231.004953 
L 111.839556 -232.863676 
L 111.916306 -234.722398 
L 111.977419 -236.581121 
L 112.02509 -238.439844 
L 112.27383 -238.439844 
L 112.27383 -238.439844 
L 112.321501 -236.581121 
L 112.382615 -234.722398 
L 112.459364 -232.863676 
L 112.553986 -231.004953 
L 112.668801 -229.14623 
L 112.806332 -227.287508 
L 112.969485 -225.428785 
L 113.161782 -223.570062 
L 113.38758 -221.71134 
L 113.652217 -219.852617 
L 113.961987 -217.993894 
L 114.323887 -216.135172 
L 114.745064 -214.276449 
L 115.232003 -212.417726 
L 115.789496 -210.559003 
L 116.419542 -208.700281 
L 117.120369 -206.841558 
L 117.885774 -204.982835 
L 118.70498 -203.124113 
L 119.56314 -201.26539 
L 120.442537 -199.406667 
L 121.324383 -197.547945 
L 122.191046 -195.689222 
L 123.028406 -193.830499 
L 123.827995 -191.971777 
L 124.588584 -190.113054 
L 125.316927 -188.254331 
L 126.027486 -186.395609 
L 126.741095 -184.536886 
L 127.48269 -182.678163 
L 128.278361 -180.81944 
L 129.152071 -178.960718 
L 130.122466 -177.101995 
L 131.200167 -175.243272 
L 132.385868 -173.38455 
L 133.669481 -171.525827 
L 135.030428 -169.667104 
L 136.439045 -167.808382 
L 137.858953 -165.949659 
L 139.250129 -164.090936 
L 140.572371 -162.232214 
L 141.788765 -160.373491 
L 142.868783 -158.514768 
L 143.790648 -156.656046 
L 144.542673 -154.797323 
L 145.12339 -152.9386 
L 145.540398 -151.079878 
L 145.808079 -149.221155 
L 145.944454 -147.362432 
L 145.967642 -145.503709 
L 145.89248 -143.644987 
L 145.727859 -141.786264 
L 145.475281 -139.927541 
L 145.128933 -138.068819 
L 144.677335 -136.210096 
L 144.106313 -134.351373 
L 143.402799 -132.492651 
L 142.558776 -130.633928 
L 141.574614 -128.775205 
L 140.461161 -126.916483 
L 139.240139 -125.05776 
L 137.942737 -123.199037 
L 136.606588 -121.340315 
L 135.271649 -119.481592 
L 133.975668 -117.622869 
L 132.749988 -115.764146 
L 131.616356 -113.905424 
L 130.585193 -112.046701 
L 129.655538 -110.187978 
L 128.816541 -108.329256 
L 128.050187 -106.470533 
L 127.334719 -104.61181 
L 126.648167 -102.753088 
L 125.971446 -100.894365 
L 125.290558 -99.035642 
L 124.597678 -97.17692 
L 123.891075 -95.318197 
L 123.174032 -93.459474 
L 122.45311 -91.600752 
L 121.736148 -89.742029 
L 121.030438 -87.883306 
L 120.341402 -86.024584 
L 119.671975 -84.165861 
L 119.022731 -82.307138 
L 118.392607 -80.448415 
L 117.779986 -78.589693 
L 117.183833 -76.73097 
L 116.604598 -74.872247 
L 116.044695 -73.013525 
L 115.508463 -71.154802 
L 115.001668 -69.296079 
L 114.530678 -67.437357 
L 114.101514 -65.578634 
L 113.718967 -63.719911 
L 113.385952 -61.861189 
L 113.103182 -60.002466 
L 112.869173 -58.143743 
L 112.68054 -56.285021 
L 112.532483 -54.426298 
z
" style="stroke: #4c4c4c; stroke-width: 0.5"/>
    </defs>
    <g clip-path="url(#p08ad638f5c)">
     <use xlink:href="#m52bf0c1397" x="0" y="259.45288" style="fill: #5573cd; stroke: #4c4c4c; stroke-width: 0.5"/>
    </g>
   </g>
   <g id="PolyCollection_2">
    <defs>
     <path id="m1c4c044b42" d="M 196.835109 -36.839844 
L 196.554721 -36.839844 
L 196.501501 -38.655769 
L 196.433101 -40.471695 
L 196.34674 -42.28762 
L 196.239351 -44.103546 
L 196.107448 -45.919471 
L 195.946909 -47.735397 
L 195.752693 -49.551322 
L 195.518523 -51.367248 
L 195.23661 -53.183173 
L 194.897524 -54.999099 
L 194.490305 -56.815024 
L 194.002921 -58.63095 
L 193.423116 -60.446875 
L 192.739638 -62.262801 
L 191.943752 -64.078726 
L 191.030857 -65.894652 
L 190.00199 -67.710577 
L 188.864929 -69.526503 
L 187.634705 -71.342428 
L 186.333333 -73.158354 
L 184.988745 -74.974279 
L 183.632989 -76.790205 
L 182.299892 -78.60613 
L 181.022471 -80.422056 
L 179.830363 -82.237981 
L 178.747568 -84.053907 
L 177.790685 -85.869832 
L 176.967772 -87.685758 
L 176.277825 -89.501683 
L 175.710877 -91.317609 
L 175.248613 -93.133534 
L 174.865489 -94.94946 
L 174.53028 -96.765385 
L 174.208085 -98.581311 
L 173.862733 -100.397236 
L 173.459562 -102.213162 
L 172.968421 -104.029087 
L 172.366664 -105.845013 
L 171.641853 -107.660938 
L 170.793802 -109.476864 
L 169.835645 -111.292789 
L 168.793681 -113.108715 
L 167.705903 -114.92464 
L 166.619287 -116.740566 
L 165.586075 -118.556492 
L 164.659457 -120.372417 
L 163.88908 -122.188343 
L 163.31689 -124.004268 
L 162.973686 -125.820194 
L 162.876733 -127.636119 
L 163.02861 -129.452045 
L 163.417359 -131.26797 
L 164.017877 -133.083896 
L 164.794382 -134.899821 
L 165.703698 -136.715747 
L 166.699048 -138.531672 
L 167.733996 -140.347598 
L 168.766196 -142.163523 
L 169.760606 -143.979449 
L 170.691896 -145.795374 
L 171.545875 -147.6113 
L 172.31983 -149.427225 
L 173.021809 -151.243151 
L 173.668949 -153.059076 
L 174.285068 -154.875002 
L 174.897755 -156.690927 
L 175.535276 -158.506853 
L 176.223583 -160.322778 
L 176.983721 -162.138704 
L 177.829858 -163.954629 
L 178.768101 -165.770555 
L 179.796182 -167.58648 
L 180.903973 -169.402406 
L 182.074726 -171.218331 
L 183.286841 -173.034257 
L 184.515931 -174.850182 
L 185.736943 -176.666108 
L 186.92611 -178.482033 
L 188.062552 -180.297959 
L 189.129434 -182.113884 
L 190.114611 -183.92981 
L 191.010779 -185.745735 
L 191.815194 -187.561661 
L 192.52906 -189.377586 
L 193.156672 -191.193512 
L 193.704479 -193.009437 
L 194.180136 -194.825363 
L 194.591676 -196.641288 
L 194.946862 -198.457214 
L 195.252742 -200.273139 
L 195.515436 -202.089065 
L 195.740104 -203.90499 
L 195.931059 -205.720916 
L 196.091956 -207.536841 
L 196.226002 -209.352767 
L 196.336143 -211.168692 
L 196.425188 -212.984618 
L 196.495881 -214.800543 
L 196.550898 -216.616469 
L 196.838931 -216.616469 
L 196.838931 -216.616469 
L 196.893949 -214.800543 
L 196.964642 -212.984618 
L 197.053687 -211.168692 
L 197.163827 -209.352767 
L 197.297873 -207.536841 
L 197.45877 -205.720916 
L 197.649726 -203.90499 
L 197.874394 -202.089065 
L 198.137088 -200.273139 
L 198.442968 -198.457214 
L 198.798153 -196.641288 
L 199.209694 -194.825363 
L 199.685351 -193.009437 
L 200.233157 -191.193512 
L 200.86077 -189.377586 
L 201.574635 -187.561661 
L 202.379051 -185.745735 
L 203.275218 -183.92981 
L 204.260395 -182.113884 
L 205.327278 -180.297959 
L 206.46372 -178.482033 
L 207.652886 -176.666108 
L 208.873899 -174.850182 
L 210.102989 -173.034257 
L 211.315103 -171.218331 
L 212.485856 -169.402406 
L 213.593648 -167.58648 
L 214.621729 -165.770555 
L 215.559972 -163.954629 
L 216.406108 -162.138704 
L 217.166246 -160.322778 
L 217.854554 -158.506853 
L 218.492074 -156.690927 
L 219.104761 -154.875002 
L 219.72088 -153.059076 
L 220.368021 -151.243151 
L 221.069999 -149.427225 
L 221.843955 -147.6113 
L 222.697934 -145.795374 
L 223.629224 -143.979449 
L 224.623633 -142.163523 
L 225.655834 -140.347598 
L 226.690782 -138.531672 
L 227.686131 -136.715747 
L 228.595448 -134.899821 
L 229.371953 -133.083896 
L 229.972471 -131.26797 
L 230.36122 -129.452045 
L 230.513097 -127.636119 
L 230.416144 -125.820194 
L 230.07294 -124.004268 
L 229.500749 -122.188343 
L 228.730373 -120.372417 
L 227.803754 -118.556492 
L 226.770543 -116.740566 
L 225.683927 -114.92464 
L 224.596149 -113.108715 
L 223.554184 -111.292789 
L 222.596027 -109.476864 
L 221.747977 -107.660938 
L 221.023166 -105.845013 
L 220.421409 -104.029087 
L 219.930267 -102.213162 
L 219.527097 -100.397236 
L 219.181745 -98.581311 
L 218.859549 -96.765385 
L 218.524341 -94.94946 
L 218.141216 -93.133534 
L 217.678953 -91.317609 
L 217.112004 -89.501683 
L 216.422058 -87.685758 
L 215.599144 -85.869832 
L 214.642262 -84.053907 
L 213.559466 -82.237981 
L 212.367358 -80.422056 
L 211.089937 -78.60613 
L 209.756841 -76.790205 
L 208.401084 -74.974279 
L 207.056497 -73.158354 
L 205.755125 -71.342428 
L 204.524901 -69.526503 
L 203.38784 -67.710577 
L 202.358972 -65.894652 
L 201.446078 -64.078726 
L 200.650191 -62.262801 
L 199.966713 -60.446875 
L 199.386908 -58.63095 
L 198.899525 -56.815024 
L 198.492306 -54.999099 
L 198.153219 -53.183173 
L 197.871307 -51.367248 
L 197.637136 -49.551322 
L 197.442921 -47.735397 
L 197.282382 -45.919471 
L 197.150478 -44.103546 
L 197.043089 -42.28762 
L 196.956729 -40.471695 
L 196.888329 -38.655769 
L 196.835109 -36.839844 
z
" style="stroke: #4c4c4c; stroke-width: 0.5"/>
    </defs>
    <g clip-path="url(#p08ad638f5c)">
     <use xlink:href="#m1c4c044b42" x="0" y="259.45288" style="fill: #df8920; stroke: #4c4c4c; stroke-width: 0.5"/>
    </g>
   </g>
   <g id="line2d_1">
    <path d="M 112.14946 181.632443 
L 112.14946 59.468834 
" clip-path="url(#p08ad638f5c)" style="fill: none; stroke: #4c4c4c; stroke-width: 0.75; stroke-linecap: round"/>
   </g>
   <g id="line2d_2">
    <path d="M 112.14946 133.403369 
L 112.14946 97.978938 
" clip-path="url(#p08ad638f5c)" style="fill: none; stroke: #4c4c4c; stroke-width: 2.25; stroke-linecap: round"/>
   </g>
   <g id="line2d_3">
    <path d="M 112.14946 114.432579 
" clip-path="url(#p08ad638f5c)" style="fill: none; stroke: #4c4c4c; stroke-width: 1.5; stroke-linecap: round"/>
    <defs>
     <path id="m8a71a8c4f4" d="M 0.9375 0 
L -0.9375 -0 
" style="stroke: #ffffff; stroke-width: 0.45"/>
    </defs>
    <g clip-path="url(#p08ad638f5c)">
     <use xlink:href="#m8a71a8c4f4" x="112.14946" y="114.432579" style="fill: #ffffff; stroke: #ffffff; stroke-width: 0.45"/>
    </g>
   </g>
   <g id="line2d_4">
    <path d="M 196.694915 199.392013 
L 196.694915 66.057436 
" clip-path="url(#p08ad638f5c)" style="fill: none; stroke: #4c4c4c; stroke-width: 0.75; stroke-linecap: round"/>
   </g>
   <g id="line2d_5">
    <path d="M 196.694915 156.39673 
L 196.694915 112.376097 
" clip-path="url(#p08ad638f5c)" style="fill: none; stroke: #4c4c4c; stroke-width: 2.25; stroke-linecap: round"/>
   </g>
   <g id="line2d_6">
    <path d="M 196.694915 134.258854 
" clip-path="url(#p08ad638f5c)" style="fill: none; stroke: #4c4c4c; stroke-width: 1.5; stroke-linecap: round"/>
    <g clip-path="url(#p08ad638f5c)">
     <use xlink:href="#m8a71a8c4f4" x="196.694915" y="134.258854" style="fill: #ffffff; stroke: #ffffff; stroke-width: 0.45"/>
    </g>
   </g>
   <g id="line2d_7">
    <path d="M 112.14946 46.163234 
L 112.14946 41.728034 
L 196.694915 41.728034 
L 196.694915 46.163234 
" style="fill: none; stroke: #333333; stroke-width: 0.5; stroke-linecap: round"/>
   </g>
   <g id="patch_3">
    <path d="M 70.722188 232.693037 
L 70.722188 10.933037 
" style="fill: none; stroke: #262626; stroke-width: 1.25; stroke-linejoin: miter; stroke-linecap: square"/>
   </g>
   <g id="patch_4">
    <path d="M 70.722187 232.693037 
L 238.122188 232.693037 
" style="fill: none; stroke: #262626; stroke-width: 1.25; stroke-linejoin: miter; stroke-linecap: square"/>
   </g>
   <g id="text_9">
    <!-- **** -->
    <g style="fill: #262626" transform="translate(145.080938 38.343034) scale(0.12 -0.12)">
     <defs>
      <path id="ArialMT-2a" d="M 200 3741 
L 344 4184 
Q 841 4009 1066 3881 
Q 1006 4447 1003 4659 
L 1456 4659 
Q 1447 4350 1384 3884 
Q 1706 4047 2122 4184 
L 2266 3741 
Q 1869 3609 1488 3566 
Q 1678 3400 2025 2975 
L 1650 2709 
Q 1469 2956 1222 3381 
Q 991 2941 816 2709 
L 447 2975 
Q 809 3422 966 3566 
Q 563 3644 200 3741 
z
" transform="scale(0.015625)"/>
     </defs>
     <use xlink:href="#ArialMT-2a"/>
     <use xlink:href="#ArialMT-2a" x="38.916016"/>
     <use xlink:href="#ArialMT-2a" x="77.832031"/>
     <use xlink:href="#ArialMT-2a" x="116.748047"/>
    </g>
   </g>
  </g>
 </g>
 <defs>
  <clipPath id="p08ad638f5c">
   <rect x="70.722188" y="10.933037" width="167.4" height="221.76"/>
  </clipPath>
 </defs>
</svg>
