<?xml version="1.0" encoding="utf-8" standalone="no"?>
<!DOCTYPE svg PUBLIC "-//W3C//DTD SVG 1.1//EN"
  "http://www.w3.org/Graphics/SVG/1.1/DTD/svg11.dtd">
<svg xmlns:xlink="http://www.w3.org/1999/xlink" width="251.746875pt" height="255.719844pt" viewBox="0 0 251.746875 255.719844" xmlns="http://www.w3.org/2000/svg" version="1.1">
 <metadata>
  <rdf:RDF xmlns:dc="http://purl.org/dc/elements/1.1/" xmlns:cc="http://creativecommons.org/ns#" xmlns:rdf="http://www.w3.org/1999/02/22-rdf-syntax-ns#">
   <cc:Work>
    <dc:type rdf:resource="http://purl.org/dc/dcmitype/StillImage"/>
    <dc:date>2025-08-05T11:07:36.977673</dc:date>
    <dc:format>image/svg+xml</dc:format>
    <dc:creator>
     <cc:Agent>
      <dc:title>Matplotlib v3.9.2, https://matplotlib.org/</dc:title>
     </cc:Agent>
    </dc:creator>
   </cc:Work>
  </rdf:RDF>
 </metadata>
 <defs>
  <style type="text/css">*{stroke-linejoin: round; stroke-linecap: butt}</style>
 </defs>
 <g id="figure_1">
  <g id="patch_1">
   <path d="M -0 255.719844 
L 251.746875 255.719844 
L 251.746875 0 
L -0 0 
z
" style="fill: #ffffff"/>
  </g>
  <g id="axes_1">
   <g id="patch_2">
    <path d="M 77.146875 228.96 
L 244.546875 228.96 
L 244.546875 7.2 
L 77.146875 7.2 
z
" style="fill: #ffffff"/>
   </g>
   <g id="matplotlib.axis_1">
    <g id="xtick_1">
     <g id="text_1">
      <!-- Term -->
      <g style="fill: #262626" transform="translate(106.355554 246.333594) scale(0.11 -0.11)">
       <defs>
        <path id="ArialMT-54" d="M 1659 0 
L 1659 4041 
L 150 4041 
L 150 4581 
L 3781 4581 
L 3781 4041 
L 2266 4041 
L 2266 0 
L 1659 0 
z
" transform="scale(0.015625)"/>
        <path id="ArialMT-65" d="M 2694 1069 
L 3275 997 
Q 3138 488 2766 206 
Q 2394 -75 1816 -75 
Q 1088 -75 661 373 
Q 234 822 234 1631 
Q 234 2469 665 2931 
Q 1097 3394 1784 3394 
Q 2450 3394 2872 2941 
Q 3294 2488 3294 1666 
Q 3294 1616 3291 1516 
L 816 1516 
Q 847 969 1125 678 
Q 1403 388 1819 388 
Q 2128 388 2347 550 
Q 2566 713 2694 1069 
z
M 847 1978 
L 2700 1978 
Q 2663 2397 2488 2606 
Q 2219 2931 1791 2931 
Q 1403 2931 1139 2672 
Q 875 2413 847 1978 
z
" transform="scale(0.015625)"/>
        <path id="ArialMT-72" d="M 416 0 
L 416 3319 
L 922 3319 
L 922 2816 
Q 1116 3169 1280 3281 
Q 1444 3394 1641 3394 
Q 1925 3394 2219 3213 
L 2025 2691 
Q 1819 2813 1613 2813 
Q 1428 2813 1281 2702 
Q 1134 2591 1072 2394 
Q 978 2094 978 1738 
L 978 0 
L 416 0 
z
" transform="scale(0.015625)"/>
        <path id="ArialMT-6d" d="M 422 0 
L 422 3319 
L 925 3319 
L 925 2853 
Q 1081 3097 1340 3245 
Q 1600 3394 1931 3394 
Q 2300 3394 2536 3241 
Q 2772 3088 2869 2813 
Q 3263 3394 3894 3394 
Q 4388 3394 4653 3120 
Q 4919 2847 4919 2278 
L 4919 0 
L 4359 0 
L 4359 2091 
Q 4359 2428 4304 2576 
Q 4250 2725 4106 2815 
Q 3963 2906 3769 2906 
Q 3419 2906 3187 2673 
Q 2956 2441 2956 1928 
L 2956 0 
L 2394 0 
L 2394 2156 
Q 2394 2531 2256 2718 
Q 2119 2906 1806 2906 
Q 1569 2906 1367 2781 
Q 1166 2656 1075 2415 
Q 984 2175 984 1722 
L 984 0 
L 422 0 
z
" transform="scale(0.015625)"/>
       </defs>
       <use xlink:href="#ArialMT-54"/>
       <use xlink:href="#ArialMT-65" x="49.958984"/>
       <use xlink:href="#ArialMT-72" x="105.574219"/>
       <use xlink:href="#ArialMT-6d" x="138.875"/>
      </g>
     </g>
    </g>
    <g id="xtick_2">
     <g id="text_2">
      <!-- Preterm -->
      <g style="fill: #262626" transform="translate(183.561946 246.333594) scale(0.11 -0.11)">
       <defs>
        <path id="ArialMT-50" d="M 494 0 
L 494 4581 
L 2222 4581 
Q 2678 4581 2919 4538 
Q 3256 4481 3484 4323 
Q 3713 4166 3852 3881 
Q 3991 3597 3991 3256 
Q 3991 2672 3619 2267 
Q 3247 1863 2275 1863 
L 1100 1863 
L 1100 0 
L 494 0 
z
M 1100 2403 
L 2284 2403 
Q 2872 2403 3119 2622 
Q 3366 2841 3366 3238 
Q 3366 3525 3220 3729 
Q 3075 3934 2838 4000 
Q 2684 4041 2272 4041 
L 1100 4041 
L 1100 2403 
z
" transform="scale(0.015625)"/>
        <path id="ArialMT-74" d="M 1650 503 
L 1731 6 
Q 1494 -44 1306 -44 
Q 1000 -44 831 53 
Q 663 150 594 308 
Q 525 466 525 972 
L 525 2881 
L 113 2881 
L 113 3319 
L 525 3319 
L 525 4141 
L 1084 4478 
L 1084 3319 
L 1650 3319 
L 1650 2881 
L 1084 2881 
L 1084 941 
Q 1084 700 1114 631 
Q 1144 563 1211 522 
Q 1278 481 1403 481 
Q 1497 481 1650 503 
z
" transform="scale(0.015625)"/>
       </defs>
       <use xlink:href="#ArialMT-50"/>
       <use xlink:href="#ArialMT-72" x="66.699219"/>
       <use xlink:href="#ArialMT-65" x="100"/>
       <use xlink:href="#ArialMT-74" x="155.615234"/>
       <use xlink:href="#ArialMT-65" x="183.398438"/>
       <use xlink:href="#ArialMT-72" x="239.013672"/>
       <use xlink:href="#ArialMT-6d" x="272.314453"/>
      </g>
     </g>
    </g>
   </g>
   <g id="matplotlib.axis_2">
    <g id="ytick_1">
     <g id="text_3">
      <!-- −150000 -->
      <g style="fill: #262626" transform="translate(24.52 216.80358) scale(0.11 -0.11)">
       <defs>
        <path id="ArialMT-2212" d="M 3381 1997 
L 356 1997 
L 356 2522 
L 3381 2522 
L 3381 1997 
z
" transform="scale(0.015625)"/>
        <path id="ArialMT-31" d="M 2384 0 
L 1822 0 
L 1822 3584 
Q 1619 3391 1289 3197 
Q 959 3003 697 2906 
L 697 3450 
Q 1169 3672 1522 3987 
Q 1875 4303 2022 4600 
L 2384 4600 
L 2384 0 
z
" transform="scale(0.015625)"/>
        <path id="ArialMT-35" d="M 266 1200 
L 856 1250 
Q 922 819 1161 601 
Q 1400 384 1738 384 
Q 2144 384 2425 690 
Q 2706 997 2706 1503 
Q 2706 1984 2436 2262 
Q 2166 2541 1728 2541 
Q 1456 2541 1237 2417 
Q 1019 2294 894 2097 
L 366 2166 
L 809 4519 
L 3088 4519 
L 3088 3981 
L 1259 3981 
L 1013 2750 
Q 1425 3038 1878 3038 
Q 2478 3038 2890 2622 
Q 3303 2206 3303 1553 
Q 3303 931 2941 478 
Q 2500 -78 1738 -78 
Q 1113 -78 717 272 
Q 322 622 266 1200 
z
" transform="scale(0.015625)"/>
        <path id="ArialMT-30" d="M 266 2259 
Q 266 3072 433 3567 
Q 600 4063 929 4331 
Q 1259 4600 1759 4600 
Q 2128 4600 2406 4451 
Q 2684 4303 2865 4023 
Q 3047 3744 3150 3342 
Q 3253 2941 3253 2259 
Q 3253 1453 3087 958 
Q 2922 463 2592 192 
Q 2263 -78 1759 -78 
Q 1097 -78 719 397 
Q 266 969 266 2259 
z
M 844 2259 
Q 844 1131 1108 757 
Q 1372 384 1759 384 
Q 2147 384 2411 759 
Q 2675 1134 2675 2259 
Q 2675 3391 2411 3762 
Q 2147 4134 1753 4134 
Q 1366 4134 1134 3806 
Q 844 3388 844 2259 
z
" transform="scale(0.015625)"/>
       </defs>
       <use xlink:href="#ArialMT-2212"/>
       <use xlink:href="#ArialMT-31" x="58.398438"/>
       <use xlink:href="#ArialMT-35" x="114.013672"/>
       <use xlink:href="#ArialMT-30" x="169.628906"/>
       <use xlink:href="#ArialMT-30" x="225.244141"/>
       <use xlink:href="#ArialMT-30" x="280.859375"/>
       <use xlink:href="#ArialMT-30" x="336.474609"/>
      </g>
     </g>
    </g>
    <g id="ytick_2">
     <g id="text_4">
      <!-- −100000 -->
      <g style="fill: #262626" transform="translate(24.52 189.063552) scale(0.11 -0.11)">
       <use xlink:href="#ArialMT-2212"/>
       <use xlink:href="#ArialMT-31" x="58.398438"/>
       <use xlink:href="#ArialMT-30" x="114.013672"/>
       <use xlink:href="#ArialMT-30" x="169.628906"/>
       <use xlink:href="#ArialMT-30" x="225.244141"/>
       <use xlink:href="#ArialMT-30" x="280.859375"/>
       <use xlink:href="#ArialMT-30" x="336.474609"/>
      </g>
     </g>
    </g>
    <g id="ytick_3">
     <g id="text_5">
      <!-- −50000 -->
      <g style="fill: #262626" transform="translate(30.637031 161.323524) scale(0.11 -0.11)">
       <use xlink:href="#ArialMT-2212"/>
       <use xlink:href="#ArialMT-35" x="58.398438"/>
       <use xlink:href="#ArialMT-30" x="114.013672"/>
       <use xlink:href="#ArialMT-30" x="169.628906"/>
       <use xlink:href="#ArialMT-30" x="225.244141"/>
       <use xlink:href="#ArialMT-30" x="280.859375"/>
      </g>
     </g>
    </g>
    <g id="ytick_4">
     <g id="text_6">
      <!-- 0 -->
      <g style="fill: #262626" transform="translate(61.529844 133.583496) scale(0.11 -0.11)">
       <use xlink:href="#ArialMT-30"/>
      </g>
     </g>
    </g>
    <g id="ytick_5">
     <g id="text_7">
      <!-- 50000 -->
      <g style="fill: #262626" transform="translate(37.061719 105.843467) scale(0.11 -0.11)">
       <use xlink:href="#ArialMT-35"/>
       <use xlink:href="#ArialMT-30" x="55.615234"/>
       <use xlink:href="#ArialMT-30" x="111.230469"/>
       <use xlink:href="#ArialMT-30" x="166.845703"/>
       <use xlink:href="#ArialMT-30" x="222.460938"/>
      </g>
     </g>
    </g>
    <g id="ytick_6">
     <g id="text_8">
      <!-- 100000 -->
      <g style="fill: #262626" transform="translate(30.944688 78.103439) scale(0.11 -0.11)">
       <use xlink:href="#ArialMT-31"/>
       <use xlink:href="#ArialMT-30" x="55.615234"/>
       <use xlink:href="#ArialMT-30" x="111.230469"/>
       <use xlink:href="#ArialMT-30" x="166.845703"/>
       <use xlink:href="#ArialMT-30" x="222.460938"/>
       <use xlink:href="#ArialMT-30" x="278.076172"/>
      </g>
     </g>
    </g>
    <g id="ytick_7">
     <g id="text_9">
      <!-- 150000 -->
      <g style="fill: #262626" transform="translate(30.944688 50.363411) scale(0.11 -0.11)">
       <use xlink:href="#ArialMT-31"/>
       <use xlink:href="#ArialMT-35" x="55.615234"/>
       <use xlink:href="#ArialMT-30" x="111.230469"/>
       <use xlink:href="#ArialMT-30" x="166.845703"/>
       <use xlink:href="#ArialMT-30" x="222.460938"/>
       <use xlink:href="#ArialMT-30" x="278.076172"/>
      </g>
     </g>
    </g>
    <g id="ytick_8">
     <g id="text_10">
      <!-- 200000 -->
      <g style="fill: #262626" transform="translate(30.944688 22.623383) scale(0.11 -0.11)">
       <defs>
        <path id="ArialMT-32" d="M 3222 541 
L 3222 0 
L 194 0 
Q 188 203 259 391 
Q 375 700 629 1000 
Q 884 1300 1366 1694 
Q 2113 2306 2375 2664 
Q 2638 3022 2638 3341 
Q 2638 3675 2398 3904 
Q 2159 4134 1775 4134 
Q 1369 4134 1125 3890 
Q 881 3647 878 3216 
L 300 3275 
Q 359 3922 746 4261 
Q 1134 4600 1788 4600 
Q 2447 4600 2831 4234 
Q 3216 3869 3216 3328 
Q 3216 3053 3103 2787 
Q 2991 2522 2730 2228 
Q 2469 1934 1863 1422 
Q 1356 997 1212 845 
Q 1069 694 975 541 
L 3222 541 
z
" transform="scale(0.015625)"/>
       </defs>
       <use xlink:href="#ArialMT-32"/>
       <use xlink:href="#ArialMT-30" x="55.615234"/>
       <use xlink:href="#ArialMT-30" x="111.230469"/>
       <use xlink:href="#ArialMT-30" x="166.845703"/>
       <use xlink:href="#ArialMT-30" x="222.460938"/>
       <use xlink:href="#ArialMT-30" x="278.076172"/>
      </g>
     </g>
    </g>
    <g id="text_11">
     <!-- WMV residuals [mm$^3$] -->
     <g style="fill: #262626" transform="translate(18.12 176.34) rotate(-90) scale(0.12 -0.12)">
      <defs>
       <path id="ArialMT-57" d="M 1294 0 
L 78 4581 
L 700 4581 
L 1397 1578 
Q 1509 1106 1591 641 
Q 1766 1375 1797 1488 
L 2669 4581 
L 3400 4581 
L 4056 2263 
Q 4303 1400 4413 641 
Q 4500 1075 4641 1638 
L 5359 4581 
L 5969 4581 
L 4713 0 
L 4128 0 
L 3163 3491 
Q 3041 3928 3019 4028 
Q 2947 3713 2884 3491 
L 1913 0 
L 1294 0 
z
" transform="scale(0.015625)"/>
       <path id="ArialMT-4d" d="M 475 0 
L 475 4581 
L 1388 4581 
L 2472 1338 
Q 2622 884 2691 659 
Q 2769 909 2934 1394 
L 4031 4581 
L 4847 4581 
L 4847 0 
L 4263 0 
L 4263 3834 
L 2931 0 
L 2384 0 
L 1059 3900 
L 1059 0 
L 475 0 
z
" transform="scale(0.015625)"/>
       <path id="ArialMT-56" d="M 1803 0 
L 28 4581 
L 684 4581 
L 1875 1253 
Q 2019 853 2116 503 
Q 2222 878 2363 1253 
L 3600 4581 
L 4219 4581 
L 2425 0 
L 1803 0 
z
" transform="scale(0.015625)"/>
       <path id="ArialMT-20" transform="scale(0.015625)"/>
       <path id="ArialMT-73" d="M 197 991 
L 753 1078 
Q 800 744 1014 566 
Q 1228 388 1613 388 
Q 2000 388 2187 545 
Q 2375 703 2375 916 
Q 2375 1106 2209 1216 
Q 2094 1291 1634 1406 
Q 1016 1563 777 1677 
Q 538 1791 414 1992 
Q 291 2194 291 2438 
Q 291 2659 392 2848 
Q 494 3038 669 3163 
Q 800 3259 1026 3326 
Q 1253 3394 1513 3394 
Q 1903 3394 2198 3281 
Q 2494 3169 2634 2976 
Q 2775 2784 2828 2463 
L 2278 2388 
Q 2241 2644 2061 2787 
Q 1881 2931 1553 2931 
Q 1166 2931 1000 2803 
Q 834 2675 834 2503 
Q 834 2394 903 2306 
Q 972 2216 1119 2156 
Q 1203 2125 1616 2013 
Q 2213 1853 2448 1751 
Q 2684 1650 2818 1456 
Q 2953 1263 2953 975 
Q 2953 694 2789 445 
Q 2625 197 2315 61 
Q 2006 -75 1616 -75 
Q 969 -75 630 194 
Q 291 463 197 991 
z
" transform="scale(0.015625)"/>
       <path id="ArialMT-69" d="M 425 3934 
L 425 4581 
L 988 4581 
L 988 3934 
L 425 3934 
z
M 425 0 
L 425 3319 
L 988 3319 
L 988 0 
L 425 0 
z
" transform="scale(0.015625)"/>
       <path id="ArialMT-64" d="M 2575 0 
L 2575 419 
Q 2259 -75 1647 -75 
Q 1250 -75 917 144 
Q 584 363 401 755 
Q 219 1147 219 1656 
Q 219 2153 384 2558 
Q 550 2963 881 3178 
Q 1213 3394 1622 3394 
Q 1922 3394 2156 3267 
Q 2391 3141 2538 2938 
L 2538 4581 
L 3097 4581 
L 3097 0 
L 2575 0 
z
M 797 1656 
Q 797 1019 1065 703 
Q 1334 388 1700 388 
Q 2069 388 2326 689 
Q 2584 991 2584 1609 
Q 2584 2291 2321 2609 
Q 2059 2928 1675 2928 
Q 1300 2928 1048 2622 
Q 797 2316 797 1656 
z
" transform="scale(0.015625)"/>
       <path id="ArialMT-75" d="M 2597 0 
L 2597 488 
Q 2209 -75 1544 -75 
Q 1250 -75 995 37 
Q 741 150 617 320 
Q 494 491 444 738 
Q 409 903 409 1263 
L 409 3319 
L 972 3319 
L 972 1478 
Q 972 1038 1006 884 
Q 1059 663 1231 536 
Q 1403 409 1656 409 
Q 1909 409 2131 539 
Q 2353 669 2445 892 
Q 2538 1116 2538 1541 
L 2538 3319 
L 3100 3319 
L 3100 0 
L 2597 0 
z
" transform="scale(0.015625)"/>
       <path id="ArialMT-61" d="M 2588 409 
Q 2275 144 1986 34 
Q 1697 -75 1366 -75 
Q 819 -75 525 192 
Q 231 459 231 875 
Q 231 1119 342 1320 
Q 453 1522 633 1644 
Q 813 1766 1038 1828 
Q 1203 1872 1538 1913 
Q 2219 1994 2541 2106 
Q 2544 2222 2544 2253 
Q 2544 2597 2384 2738 
Q 2169 2928 1744 2928 
Q 1347 2928 1158 2789 
Q 969 2650 878 2297 
L 328 2372 
Q 403 2725 575 2942 
Q 747 3159 1072 3276 
Q 1397 3394 1825 3394 
Q 2250 3394 2515 3294 
Q 2781 3194 2906 3042 
Q 3031 2891 3081 2659 
Q 3109 2516 3109 2141 
L 3109 1391 
Q 3109 606 3145 398 
Q 3181 191 3288 0 
L 2700 0 
Q 2613 175 2588 409 
z
M 2541 1666 
Q 2234 1541 1622 1453 
Q 1275 1403 1131 1340 
Q 988 1278 909 1158 
Q 831 1038 831 891 
Q 831 666 1001 516 
Q 1172 366 1500 366 
Q 1825 366 2078 508 
Q 2331 650 2450 897 
Q 2541 1088 2541 1459 
L 2541 1666 
z
" transform="scale(0.015625)"/>
       <path id="ArialMT-6c" d="M 409 0 
L 409 4581 
L 972 4581 
L 972 0 
L 409 0 
z
" transform="scale(0.015625)"/>
       <path id="ArialMT-5b" d="M 434 -1272 
L 434 4581 
L 1675 4581 
L 1675 4116 
L 997 4116 
L 997 -806 
L 1675 -806 
L 1675 -1272 
L 434 -1272 
z
" transform="scale(0.015625)"/>
       <path id="DejaVuSans-33" d="M 2597 2516 
Q 3050 2419 3304 2112 
Q 3559 1806 3559 1356 
Q 3559 666 3084 287 
Q 2609 -91 1734 -91 
Q 1441 -91 1130 -33 
Q 819 25 488 141 
L 488 750 
Q 750 597 1062 519 
Q 1375 441 1716 441 
Q 2309 441 2620 675 
Q 2931 909 2931 1356 
Q 2931 1769 2642 2001 
Q 2353 2234 1838 2234 
L 1294 2234 
L 1294 2753 
L 1863 2753 
Q 2328 2753 2575 2939 
Q 2822 3125 2822 3475 
Q 2822 3834 2567 4026 
Q 2313 4219 1838 4219 
Q 1578 4219 1281 4162 
Q 984 4106 628 3988 
L 628 4550 
Q 988 4650 1302 4700 
Q 1616 4750 1894 4750 
Q 2613 4750 3031 4423 
Q 3450 4097 3450 3541 
Q 3450 3153 3228 2886 
Q 3006 2619 2597 2516 
z
" transform="scale(0.015625)"/>
       <path id="ArialMT-5d" d="M 1363 -1272 
L 122 -1272 
L 122 -806 
L 800 -806 
L 800 4116 
L 122 4116 
L 122 4581 
L 1363 4581 
L 1363 -1272 
z
" transform="scale(0.015625)"/>
      </defs>
      <use xlink:href="#ArialMT-57" transform="translate(0 0.765625)"/>
      <use xlink:href="#ArialMT-4d" transform="translate(94.384766 0.765625)"/>
      <use xlink:href="#ArialMT-56" transform="translate(177.685547 0.765625)"/>
      <use xlink:href="#ArialMT-20" transform="translate(244.384766 0.765625)"/>
      <use xlink:href="#ArialMT-72" transform="translate(272.167969 0.765625)"/>
      <use xlink:href="#ArialMT-65" transform="translate(305.46875 0.765625)"/>
      <use xlink:href="#ArialMT-73" transform="translate(361.083984 0.765625)"/>
      <use xlink:href="#ArialMT-69" transform="translate(411.083984 0.765625)"/>
      <use xlink:href="#ArialMT-64" transform="translate(433.300781 0.765625)"/>
      <use xlink:href="#ArialMT-75" transform="translate(488.916016 0.765625)"/>
      <use xlink:href="#ArialMT-61" transform="translate(544.53125 0.765625)"/>
      <use xlink:href="#ArialMT-6c" transform="translate(600.146484 0.765625)"/>
      <use xlink:href="#ArialMT-73" transform="translate(622.363281 0.765625)"/>
      <use xlink:href="#ArialMT-20" transform="translate(672.363281 0.765625)"/>
      <use xlink:href="#ArialMT-5b" transform="translate(700.146484 0.765625)"/>
      <use xlink:href="#ArialMT-6d" transform="translate(727.929688 0.765625)"/>
      <use xlink:href="#ArialMT-6d" transform="translate(811.230469 0.765625)"/>
      <use xlink:href="#DejaVuSans-33" transform="translate(895.488281 39.046875) scale(0.7)"/>
      <use xlink:href="#ArialMT-5d" transform="translate(942.758789 0.765625)"/>
     </g>
    </g>
   </g>
   <g id="PolyCollection_1">
    <defs>
     <path id="m17a67fd86f" d="M 118.687385 -36.839844 
L 118.46091 -36.839844 
L 118.413776 -38.876207 
L 118.352469 -40.912571 
L 118.274732 -42.948935 
L 118.178448 -44.985298 
L 118.061663 -47.021662 
L 117.922527 -49.058026 
L 117.759139 -51.094389 
L 117.569337 -53.130753 
L 117.350465 -55.167116 
L 117.099216 -57.20348 
L 116.811622 -59.239844 
L 116.483259 -61.276207 
L 116.109672 -63.312571 
L 115.687007 -65.348935 
L 115.212716 -67.385298 
L 114.686206 -69.421662 
L 114.109253 -71.458026 
L 113.486038 -73.494389 
L 112.822718 -75.530753 
L 112.126518 -77.567116 
L 111.404471 -79.60348 
L 110.661956 -81.639844 
L 109.901328 -83.676207 
L 109.120863 -85.712571 
L 108.314282 -87.748935 
L 107.470988 -89.785298 
L 106.57705 -91.821662 
L 105.616833 -93.858026 
L 104.575089 -95.894389 
L 103.439198 -97.930753 
L 102.201263 -99.967116 
L 100.859792 -102.00348 
L 99.420751 -104.039844 
L 97.897928 -106.076207 
L 96.312632 -108.112571 
L 94.692861 -110.148935 
L 93.072118 -112.185298 
L 91.488045 -114.221662 
L 89.98099 -116.258026 
L 88.592527 -118.294389 
L 87.363884 -120.330753 
L 86.334186 -122.367116 
L 85.538484 -124.40348 
L 85.005599 -126.439844 
L 84.755966 -128.476207 
L 84.79976 -130.512571 
L 85.135606 -132.548935 
L 85.750139 -134.585298 
L 86.618538 -136.621662 
L 87.705974 -138.658026 
L 88.969769 -140.694389 
L 90.361985 -142.730753 
L 91.832151 -144.767116 
L 93.329925 -146.80348 
L 94.807596 -148.839844 
L 96.222383 -150.876207 
L 97.538552 -152.912571 
L 98.729273 -154.948935 
L 99.778126 -156.985298 
L 100.680024 -159.021662 
L 101.441374 -161.058026 
L 102.079277 -163.094389 
L 102.619725 -165.130753 
L 103.094883 -167.167116 
L 103.539704 -169.20348 
L 103.988241 -171.239844 
L 104.470104 -173.276207 
L 105.007496 -175.312571 
L 105.613211 -177.348935 
L 106.289839 -179.385298 
L 107.030282 -181.421662 
L 107.819448 -183.458026 
L 108.636855 -185.494389 
L 109.459719 -187.530753 
L 110.266018 -189.567116 
L 111.037086 -191.60348 
L 111.759369 -193.639844 
L 112.425176 -195.676207 
L 113.032437 -197.712571 
L 113.583691 -199.748935 
L 114.084587 -201.785298 
L 114.542281 -203.821662 
L 114.963993 -205.858026 
L 115.355955 -207.894389 
L 115.722807 -209.930753 
L 116.067415 -211.967116 
L 116.391027 -214.00348 
L 116.693617 -216.039844 
L 116.974322 -218.076207 
L 117.231876 -220.112571 
L 117.464989 -222.148935 
L 117.672657 -224.185298 
L 117.854383 -226.221662 
L 118.010315 -228.258026 
L 118.141302 -230.294389 
L 118.248864 -232.330753 
L 118.335093 -234.367116 
L 118.402502 -236.40348 
L 118.453837 -238.439844 
L 118.694458 -238.439844 
L 118.694458 -238.439844 
L 118.745793 -236.40348 
L 118.813202 -234.367116 
L 118.899432 -232.330753 
L 119.006993 -230.294389 
L 119.13798 -228.258026 
L 119.293912 -226.221662 
L 119.475638 -224.185298 
L 119.683306 -222.148935 
L 119.91642 -220.112571 
L 120.173973 -218.076207 
L 120.454679 -216.039844 
L 120.757269 -214.00348 
L 121.08088 -211.967116 
L 121.425489 -209.930753 
L 121.79234 -207.894389 
L 122.184302 -205.858026 
L 122.606014 -203.821662 
L 123.063708 -201.785298 
L 123.564605 -199.748935 
L 124.115858 -197.712571 
L 124.72312 -195.676207 
L 125.388926 -193.639844 
L 126.11121 -191.60348 
L 126.882278 -189.567116 
L 127.688577 -187.530753 
L 128.51144 -185.494389 
L 129.328848 -183.458026 
L 130.118013 -181.421662 
L 130.858456 -179.385298 
L 131.535085 -177.348935 
L 132.140799 -175.312571 
L 132.678191 -173.276207 
L 133.160055 -171.239844 
L 133.608592 -169.20348 
L 134.053412 -167.167116 
L 134.52857 -165.130753 
L 135.069018 -163.094389 
L 135.706921 -161.058026 
L 136.468271 -159.021662 
L 137.37017 -156.985298 
L 138.419022 -154.948935 
L 139.609744 -152.912571 
L 140.925912 -150.876207 
L 142.3407 -148.839844 
L 143.81837 -146.80348 
L 145.316145 -144.767116 
L 146.786311 -142.730753 
L 148.178527 -140.694389 
L 149.442321 -138.658026 
L 150.529757 -136.621662 
L 151.398156 -134.585298 
L 152.01269 -132.548935 
L 152.348535 -130.512571 
L 152.39233 -128.476207 
L 152.142697 -126.439844 
L 151.609811 -124.40348 
L 150.814109 -122.367116 
L 149.784412 -120.330753 
L 148.555768 -118.294389 
L 147.167306 -116.258026 
L 145.660251 -114.221662 
L 144.076178 -112.185298 
L 142.455434 -110.148935 
L 140.835664 -108.112571 
L 139.250368 -106.076207 
L 137.727545 -104.039844 
L 136.288503 -102.00348 
L 134.947032 -99.967116 
L 133.709098 -97.930753 
L 132.573206 -95.894389 
L 131.531463 -93.858026 
L 130.571246 -91.821662 
L 129.677307 -89.785298 
L 128.834014 -87.748935 
L 128.027433 -85.712571 
L 127.246967 -83.676207 
L 126.486339 -81.639844 
L 125.743825 -79.60348 
L 125.021777 -77.567116 
L 124.325578 -75.530753 
L 123.662257 -73.494389 
L 123.039043 -71.458026 
L 122.46209 -69.421662 
L 121.93558 -67.385298 
L 121.461289 -65.348935 
L 121.038624 -63.312571 
L 120.665037 -61.276207 
L 120.336673 -59.239844 
L 120.04908 -57.20348 
L 119.797831 -55.167116 
L 119.578958 -53.130753 
L 119.389156 -51.094389 
L 119.225769 -49.058026 
L 119.086633 -47.021662 
L 118.969848 -44.985298 
L 118.873564 -42.948935 
L 118.795827 -40.912571 
L 118.73452 -38.876207 
L 118.687385 -36.839844 
z
" style="stroke: #4c4c4c; stroke-width: 0.5"/>
    </defs>
    <g clip-path="url(#pf170c6b681)">
     <use xlink:href="#m17a67fd86f" x="0" y="255.719844" style="fill: #5573cd; stroke: #4c4c4c; stroke-width: 0.5"/>
    </g>
   </g>
   <g id="PolyCollection_2">
    <defs>
     <path id="m6007ef7f9d" d="M 203.392625 -47.694945 
L 202.84658 -47.694945 
L 202.728401 -49.283991 
L 202.570586 -50.873037 
L 202.364602 -52.462083 
L 202.10171 -54.051129 
L 201.773463 -55.640175 
L 201.372263 -57.229221 
L 200.891914 -58.818266 
L 200.328103 -60.407312 
L 199.678757 -61.996358 
L 198.94422 -63.585404 
L 198.12724 -65.17445 
L 197.232776 -66.763496 
L 196.267658 -68.352542 
L 195.240144 -69.941587 
L 194.15942 -71.530633 
L 193.035092 -73.119679 
L 191.876677 -74.708725 
L 190.693116 -76.297771 
L 189.492323 -77.886817 
L 188.280801 -79.475863 
L 187.063365 -81.064909 
L 185.84304 -82.653954 
L 184.621189 -84.243 
L 183.397935 -85.832046 
L 182.172839 -87.421092 
L 180.945818 -89.010138 
L 179.718158 -90.599184 
L 178.493498 -92.18823 
L 177.27863 -93.777275 
L 176.083988 -95.366321 
L 174.923769 -96.955367 
L 173.815647 -98.544413 
L 172.780126 -100.133459 
L 171.839561 -101.722505 
L 171.016916 -103.311551 
L 170.334307 -104.900596 
L 169.811401 -106.489642 
L 169.46378 -108.078688 
L 169.30142 -109.667734 
L 169.327501 -111.25678 
L 169.537764 -112.845826 
L 169.920632 -114.434872 
L 170.45816 -116.023917 
L 171.127766 -117.612963 
L 171.904496 -119.202009 
L 172.763423 -120.791055 
L 173.681722 -122.380101 
L 174.640036 -123.969147 
L 175.622865 -125.558193 
L 176.617995 -127.147238 
L 177.615215 -128.736284 
L 178.604758 -130.32533 
L 179.576007 -131.914376 
L 180.516916 -133.503422 
L 181.41443 -135.092468 
L 182.255903 -136.681514 
L 183.031245 -138.270559 
L 183.735316 -139.859605 
L 184.369973 -141.448651 
L 184.945242 -143.037697 
L 185.479218 -144.626743 
L 185.996584 -146.215789 
L 186.525898 -147.804835 
L 187.096059 -149.393881 
L 187.732499 -150.982926 
L 188.453736 -152.571972 
L 189.268801 -154.161018 
L 190.175936 -155.750064 
L 191.162703 -157.33911 
L 192.207423 -158.928156 
L 193.281677 -160.517202 
L 194.353461 -162.106247 
L 195.390531 -163.695293 
L 196.363529 -165.284339 
L 197.248526 -166.873385 
L 198.028781 -168.462431 
L 198.695599 -170.051477 
L 199.248323 -171.640523 
L 199.693554 -173.229568 
L 200.04377 -174.818614 
L 200.315546 -176.40766 
L 200.527596 -177.996706 
L 200.698833 -179.585752 
L 200.846655 -181.174798 
L 200.985586 -182.763844 
L 201.126403 -184.352889 
L 201.275762 -185.941935 
L 201.436322 -187.530981 
L 201.607292 -189.120027 
L 201.78526 -190.709073 
L 201.965186 -192.298119 
L 202.141387 -193.887165 
L 202.308411 -195.47621 
L 202.461692 -197.065256 
L 202.597963 -198.654302 
L 202.715409 -200.243348 
L 202.813609 -201.832394 
L 202.893318 -203.42144 
L 202.956166 -205.010486 
L 203.283039 -205.010486 
L 203.283039 -205.010486 
L 203.345887 -203.42144 
L 203.425596 -201.832394 
L 203.523795 -200.243348 
L 203.641241 -198.654302 
L 203.777513 -197.065256 
L 203.930794 -195.47621 
L 204.097817 -193.887165 
L 204.274018 -192.298119 
L 204.453944 -190.709073 
L 204.631913 -189.120027 
L 204.802882 -187.530981 
L 204.963443 -185.941935 
L 205.112801 -184.352889 
L 205.253618 -182.763844 
L 205.39255 -181.174798 
L 205.540371 -179.585752 
L 205.711608 -177.996706 
L 205.923658 -176.40766 
L 206.195435 -174.818614 
L 206.54565 -173.229568 
L 206.990881 -171.640523 
L 207.543606 -170.051477 
L 208.210424 -168.462431 
L 208.990678 -166.873385 
L 209.875676 -165.284339 
L 210.848674 -163.695293 
L 211.885744 -162.106247 
L 212.957527 -160.517202 
L 214.031782 -158.928156 
L 215.076501 -157.33911 
L 216.063268 -155.750064 
L 216.970404 -154.161018 
L 217.785469 -152.571972 
L 218.506705 -150.982926 
L 219.143146 -149.393881 
L 219.713306 -147.804835 
L 220.242621 -146.215789 
L 220.759987 -144.626743 
L 221.293963 -143.037697 
L 221.869232 -141.448651 
L 222.503889 -139.859605 
L 223.207959 -138.270559 
L 223.983302 -136.681514 
L 224.824775 -135.092468 
L 225.722289 -133.503422 
L 226.663198 -131.914376 
L 227.634446 -130.32533 
L 228.623989 -128.736284 
L 229.621209 -127.147238 
L 230.61634 -125.558193 
L 231.599169 -123.969147 
L 232.557483 -122.380101 
L 233.475782 -120.791055 
L 234.334708 -119.202009 
L 235.111439 -117.612963 
L 235.781045 -116.023917 
L 236.318572 -114.434872 
L 236.70144 -112.845826 
L 236.911704 -111.25678 
L 236.937784 -109.667734 
L 236.775424 -108.078688 
L 236.427803 -106.489642 
L 235.904897 -104.900596 
L 235.222288 -103.311551 
L 234.399643 -101.722505 
L 233.459078 -100.133459 
L 232.423557 -98.544413 
L 231.315436 -96.955367 
L 230.155216 -95.366321 
L 228.960575 -93.777275 
L 227.745706 -92.18823 
L 226.521047 -90.599184 
L 225.293386 -89.010138 
L 224.066365 -87.421092 
L 222.84127 -85.832046 
L 221.618015 -84.243 
L 220.396165 -82.653954 
L 219.175839 -81.064909 
L 217.958404 -79.475863 
L 216.746882 -77.886817 
L 215.546089 -76.297771 
L 214.362527 -74.708725 
L 213.204112 -73.119679 
L 212.079785 -71.530633 
L 210.999061 -69.941587 
L 209.971546 -68.352542 
L 209.006429 -66.763496 
L 208.111965 -65.17445 
L 207.294984 -63.585404 
L 206.560447 -61.996358 
L 205.911101 -60.407312 
L 205.347291 -58.818266 
L 204.866941 -57.229221 
L 204.465741 -55.640175 
L 204.137494 -54.051129 
L 203.874602 -52.462083 
L 203.668619 -50.873037 
L 203.510804 -49.283991 
L 203.392625 -47.694945 
z
" style="stroke: #4c4c4c; stroke-width: 0.5"/>
    </defs>
    <g clip-path="url(#pf170c6b681)">
     <use xlink:href="#m6007ef7f9d" x="0" y="255.719844" style="fill: #df8920; stroke: #4c4c4c; stroke-width: 0.5"/>
    </g>
   </g>
   <g id="line2d_1">
    <path d="M 118.574148 180.46312 
L 118.574148 52.494355 
" clip-path="url(#pf170c6b681)" style="fill: none; stroke: #4c4c4c; stroke-width: 0.75; stroke-linecap: round"/>
   </g>
   <g id="line2d_2">
    <path d="M 118.574148 139.825124 
L 118.574148 103.928679 
" clip-path="url(#pf170c6b681)" style="fill: none; stroke: #4c4c4c; stroke-width: 2.25; stroke-linecap: round"/>
   </g>
   <g id="line2d_3">
    <path d="M 118.574148 123.652396 
" clip-path="url(#pf170c6b681)" style="fill: none; stroke: #4c4c4c; stroke-width: 1.5; stroke-linecap: round"/>
    <defs>
     <path id="m2458b77422" d="M 0.9375 0 
L -0.9375 -0 
" style="stroke: #ffffff; stroke-width: 0.45"/>
    </defs>
    <g clip-path="url(#pf170c6b681)">
     <use xlink:href="#m2458b77422" x="118.574148" y="123.652396" style="fill: #ffffff; stroke: #ffffff; stroke-width: 0.45"/>
    </g>
   </g>
   <g id="line2d_4">
    <path d="M 203.119602 187.98717 
L 203.119602 76.013217 
" clip-path="url(#pf170c6b681)" style="fill: none; stroke: #4c4c4c; stroke-width: 0.75; stroke-linecap: round"/>
   </g>
   <g id="line2d_5">
    <path d="M 203.119602 157.138096 
L 203.119602 123.62654 
" clip-path="url(#pf170c6b681)" style="fill: none; stroke: #4c4c4c; stroke-width: 2.25; stroke-linecap: round"/>
   </g>
   <g id="line2d_6">
    <path d="M 203.119602 141.636626 
" clip-path="url(#pf170c6b681)" style="fill: none; stroke: #4c4c4c; stroke-width: 1.5; stroke-linecap: round"/>
    <g clip-path="url(#pf170c6b681)">
     <use xlink:href="#m2458b77422" x="203.119602" y="141.636626" style="fill: #ffffff; stroke: #ffffff; stroke-width: 0.45"/>
    </g>
   </g>
   <g id="line2d_7">
    <path d="M 118.574148 39.188755 
L 118.574148 34.753555 
L 203.119602 34.753555 
L 203.119602 39.188755 
" style="fill: none; stroke: #333333; stroke-width: 0.5; stroke-linecap: round"/>
   </g>
   <g id="patch_3">
    <path d="M 77.146875 228.96 
L 77.146875 7.2 
" style="fill: none; stroke: #262626; stroke-width: 1.25; stroke-linejoin: miter; stroke-linecap: square"/>
   </g>
   <g id="patch_4">
    <path d="M 77.146875 228.96 
L 244.546875 228.96 
" style="fill: none; stroke: #262626; stroke-width: 1.25; stroke-linejoin: miter; stroke-linecap: square"/>
   </g>
   <g id="text_12">
    <!-- **** -->
    <g style="fill: #262626" transform="translate(151.505625 31.368555) scale(0.12 -0.12)">
     <defs>
      <path id="ArialMT-2a" d="M 200 3741 
L 344 4184 
Q 841 4009 1066 3881 
Q 1006 4447 1003 4659 
L 1456 4659 
Q 1447 4350 1384 3884 
Q 1706 4047 2122 4184 
L 2266 3741 
Q 1869 3609 1488 3566 
Q 1678 3400 2025 2975 
L 1650 2709 
Q 1469 2956 1222 3381 
Q 991 2941 816 2709 
L 447 2975 
Q 809 3422 966 3566 
Q 563 3644 200 3741 
z
" transform="scale(0.015625)"/>
     </defs>
     <use xlink:href="#ArialMT-2a"/>
     <use xlink:href="#ArialMT-2a" x="38.916016"/>
     <use xlink:href="#ArialMT-2a" x="77.832031"/>
     <use xlink:href="#ArialMT-2a" x="116.748047"/>
    </g>
   </g>
  </g>
 </g>
 <defs>
  <clipPath id="pf170c6b681">
   <rect x="77.146875" y="7.2" width="167.4" height="221.76"/>
  </clipPath>
 </defs>
</svg>
