<?xml version="1.0" encoding="utf-8" standalone="no"?>
<!DOCTYPE svg PUBLIC "-//W3C//DTD SVG 1.1//EN"
  "http://www.w3.org/Graphics/SVG/1.1/DTD/svg11.dtd">
<svg xmlns:xlink="http://www.w3.org/1999/xlink" width="245.322187pt" height="255.719844pt" viewBox="0 0 245.322187 255.719844" xmlns="http://www.w3.org/2000/svg" version="1.1">
 <metadata>
  <rdf:RDF xmlns:dc="http://purl.org/dc/elements/1.1/" xmlns:cc="http://creativecommons.org/ns#" xmlns:rdf="http://www.w3.org/1999/02/22-rdf-syntax-ns#">
   <cc:Work>
    <dc:type rdf:resource="http://purl.org/dc/dcmitype/StillImage"/>
    <dc:date>2025-05-28T17:17:02.542856</dc:date>
    <dc:format>image/svg+xml</dc:format>
    <dc:creator>
     <cc:Agent>
      <dc:title>Matplotlib v3.9.2, https://matplotlib.org/</dc:title>
     </cc:Agent>
    </dc:creator>
   </cc:Work>
  </rdf:RDF>
 </metadata>
 <defs>
  <style type="text/css">*{stroke-linejoin: round; stroke-linecap: butt}</style>
 </defs>
 <g id="figure_1">
  <g id="patch_1">
   <path d="M -0 255.719844 
L 245.322188 255.719844 
L 245.322188 0 
L -0 0 
z
" style="fill: #ffffff"/>
  </g>
  <g id="axes_1">
   <g id="patch_2">
    <path d="M 70.722188 228.96 
L 238.122188 228.96 
L 238.122188 7.2 
L 70.722188 7.2 
z
" style="fill: #ffffff"/>
   </g>
   <g id="matplotlib.axis_1">
    <g id="xtick_1">
     <g id="text_1">
      <!-- Term -->
      <g style="fill: #262626" transform="translate(99.930866 246.333594) scale(0.11 -0.11)">
       <defs>
        <path id="ArialMT-54" d="M 1659 0 
L 1659 4041 
L 150 4041 
L 150 4581 
L 3781 4581 
L 3781 4041 
L 2266 4041 
L 2266 0 
L 1659 0 
z
" transform="scale(0.015625)"/>
        <path id="ArialMT-65" d="M 2694 1069 
L 3275 997 
Q 3138 488 2766 206 
Q 2394 -75 1816 -75 
Q 1088 -75 661 373 
Q 234 822 234 1631 
Q 234 2469 665 2931 
Q 1097 3394 1784 3394 
Q 2450 3394 2872 2941 
Q 3294 2488 3294 1666 
Q 3294 1616 3291 1516 
L 816 1516 
Q 847 969 1125 678 
Q 1403 388 1819 388 
Q 2128 388 2347 550 
Q 2566 713 2694 1069 
z
M 847 1978 
L 2700 1978 
Q 2663 2397 2488 2606 
Q 2219 2931 1791 2931 
Q 1403 2931 1139 2672 
Q 875 2413 847 1978 
z
" transform="scale(0.015625)"/>
        <path id="ArialMT-72" d="M 416 0 
L 416 3319 
L 922 3319 
L 922 2816 
Q 1116 3169 1280 3281 
Q 1444 3394 1641 3394 
Q 1925 3394 2219 3213 
L 2025 2691 
Q 1819 2813 1613 2813 
Q 1428 2813 1281 2702 
Q 1134 2591 1072 2394 
Q 978 2094 978 1738 
L 978 0 
L 416 0 
z
" transform="scale(0.015625)"/>
        <path id="ArialMT-6d" d="M 422 0 
L 422 3319 
L 925 3319 
L 925 2853 
Q 1081 3097 1340 3245 
Q 1600 3394 1931 3394 
Q 2300 3394 2536 3241 
Q 2772 3088 2869 2813 
Q 3263 3394 3894 3394 
Q 4388 3394 4653 3120 
Q 4919 2847 4919 2278 
L 4919 0 
L 4359 0 
L 4359 2091 
Q 4359 2428 4304 2576 
Q 4250 2725 4106 2815 
Q 3963 2906 3769 2906 
Q 3419 2906 3187 2673 
Q 2956 2441 2956 1928 
L 2956 0 
L 2394 0 
L 2394 2156 
Q 2394 2531 2256 2718 
Q 2119 2906 1806 2906 
Q 1569 2906 1367 2781 
Q 1166 2656 1075 2415 
Q 984 2175 984 1722 
L 984 0 
L 422 0 
z
" transform="scale(0.015625)"/>
       </defs>
       <use xlink:href="#ArialMT-54"/>
       <use xlink:href="#ArialMT-65" x="49.958984"/>
       <use xlink:href="#ArialMT-72" x="105.574219"/>
       <use xlink:href="#ArialMT-6d" x="138.875"/>
      </g>
     </g>
    </g>
    <g id="xtick_2">
     <g id="text_2">
      <!-- Preterm -->
      <g style="fill: #262626" transform="translate(177.137259 246.333594) scale(0.11 -0.11)">
       <defs>
        <path id="ArialMT-50" d="M 494 0 
L 494 4581 
L 2222 4581 
Q 2678 4581 2919 4538 
Q 3256 4481 3484 4323 
Q 3713 4166 3852 3881 
Q 3991 3597 3991 3256 
Q 3991 2672 3619 2267 
Q 3247 1863 2275 1863 
L 1100 1863 
L 1100 0 
L 494 0 
z
M 1100 2403 
L 2284 2403 
Q 2872 2403 3119 2622 
Q 3366 2841 3366 3238 
Q 3366 3525 3220 3729 
Q 3075 3934 2838 4000 
Q 2684 4041 2272 4041 
L 1100 4041 
L 1100 2403 
z
" transform="scale(0.015625)"/>
        <path id="ArialMT-74" d="M 1650 503 
L 1731 6 
Q 1494 -44 1306 -44 
Q 1000 -44 831 53 
Q 663 150 594 308 
Q 525 466 525 972 
L 525 2881 
L 113 2881 
L 113 3319 
L 525 3319 
L 525 4141 
L 1084 4478 
L 1084 3319 
L 1650 3319 
L 1650 2881 
L 1084 2881 
L 1084 941 
Q 1084 700 1114 631 
Q 1144 563 1211 522 
Q 1278 481 1403 481 
Q 1497 481 1650 503 
z
" transform="scale(0.015625)"/>
       </defs>
       <use xlink:href="#ArialMT-50"/>
       <use xlink:href="#ArialMT-72" x="66.699219"/>
       <use xlink:href="#ArialMT-65" x="100"/>
       <use xlink:href="#ArialMT-74" x="155.615234"/>
       <use xlink:href="#ArialMT-65" x="183.398438"/>
       <use xlink:href="#ArialMT-72" x="239.013672"/>
       <use xlink:href="#ArialMT-6d" x="272.314453"/>
      </g>
     </g>
    </g>
   </g>
   <g id="matplotlib.axis_2">
    <g id="ytick_1">
     <g id="text_3">
      <!-- 300000 -->
      <g style="fill: #262626" transform="translate(24.52 213.758212) scale(0.11 -0.11)">
       <defs>
        <path id="ArialMT-33" d="M 269 1209 
L 831 1284 
Q 928 806 1161 595 
Q 1394 384 1728 384 
Q 2125 384 2398 659 
Q 2672 934 2672 1341 
Q 2672 1728 2419 1979 
Q 2166 2231 1775 2231 
Q 1616 2231 1378 2169 
L 1441 2663 
Q 1497 2656 1531 2656 
Q 1891 2656 2178 2843 
Q 2466 3031 2466 3422 
Q 2466 3731 2256 3934 
Q 2047 4138 1716 4138 
Q 1388 4138 1169 3931 
Q 950 3725 888 3313 
L 325 3413 
Q 428 3978 793 4289 
Q 1159 4600 1703 4600 
Q 2078 4600 2393 4439 
Q 2709 4278 2876 4000 
Q 3044 3722 3044 3409 
Q 3044 3113 2884 2869 
Q 2725 2625 2413 2481 
Q 2819 2388 3044 2092 
Q 3269 1797 3269 1353 
Q 3269 753 2831 336 
Q 2394 -81 1725 -81 
Q 1122 -81 723 278 
Q 325 638 269 1209 
z
" transform="scale(0.015625)"/>
        <path id="ArialMT-30" d="M 266 2259 
Q 266 3072 433 3567 
Q 600 4063 929 4331 
Q 1259 4600 1759 4600 
Q 2128 4600 2406 4451 
Q 2684 4303 2865 4023 
Q 3047 3744 3150 3342 
Q 3253 2941 3253 2259 
Q 3253 1453 3087 958 
Q 2922 463 2592 192 
Q 2263 -78 1759 -78 
Q 1097 -78 719 397 
Q 266 969 266 2259 
z
M 844 2259 
Q 844 1131 1108 757 
Q 1372 384 1759 384 
Q 2147 384 2411 759 
Q 2675 1134 2675 2259 
Q 2675 3391 2411 3762 
Q 2147 4134 1753 4134 
Q 1366 4134 1134 3806 
Q 844 3388 844 2259 
z
" transform="scale(0.015625)"/>
       </defs>
       <use xlink:href="#ArialMT-33"/>
       <use xlink:href="#ArialMT-30" x="55.615234"/>
       <use xlink:href="#ArialMT-30" x="111.230469"/>
       <use xlink:href="#ArialMT-30" x="166.845703"/>
       <use xlink:href="#ArialMT-30" x="222.460938"/>
       <use xlink:href="#ArialMT-30" x="278.076172"/>
      </g>
     </g>
    </g>
    <g id="ytick_2">
     <g id="text_4">
      <!-- 400000 -->
      <g style="fill: #262626" transform="translate(24.52 167.981468) scale(0.11 -0.11)">
       <defs>
        <path id="ArialMT-34" d="M 2069 0 
L 2069 1097 
L 81 1097 
L 81 1613 
L 2172 4581 
L 2631 4581 
L 2631 1613 
L 3250 1613 
L 3250 1097 
L 2631 1097 
L 2631 0 
L 2069 0 
z
M 2069 1613 
L 2069 3678 
L 634 1613 
L 2069 1613 
z
" transform="scale(0.015625)"/>
       </defs>
       <use xlink:href="#ArialMT-34"/>
       <use xlink:href="#ArialMT-30" x="55.615234"/>
       <use xlink:href="#ArialMT-30" x="111.230469"/>
       <use xlink:href="#ArialMT-30" x="166.845703"/>
       <use xlink:href="#ArialMT-30" x="222.460938"/>
       <use xlink:href="#ArialMT-30" x="278.076172"/>
      </g>
     </g>
    </g>
    <g id="ytick_3">
     <g id="text_5">
      <!-- 500000 -->
      <g style="fill: #262626" transform="translate(24.52 122.204723) scale(0.11 -0.11)">
       <defs>
        <path id="ArialMT-35" d="M 266 1200 
L 856 1250 
Q 922 819 1161 601 
Q 1400 384 1738 384 
Q 2144 384 2425 690 
Q 2706 997 2706 1503 
Q 2706 1984 2436 2262 
Q 2166 2541 1728 2541 
Q 1456 2541 1237 2417 
Q 1019 2294 894 2097 
L 366 2166 
L 809 4519 
L 3088 4519 
L 3088 3981 
L 1259 3981 
L 1013 2750 
Q 1425 3038 1878 3038 
Q 2478 3038 2890 2622 
Q 3303 2206 3303 1553 
Q 3303 931 2941 478 
Q 2500 -78 1738 -78 
Q 1113 -78 717 272 
Q 322 622 266 1200 
z
" transform="scale(0.015625)"/>
       </defs>
       <use xlink:href="#ArialMT-35"/>
       <use xlink:href="#ArialMT-30" x="55.615234"/>
       <use xlink:href="#ArialMT-30" x="111.230469"/>
       <use xlink:href="#ArialMT-30" x="166.845703"/>
       <use xlink:href="#ArialMT-30" x="222.460938"/>
       <use xlink:href="#ArialMT-30" x="278.076172"/>
      </g>
     </g>
    </g>
    <g id="ytick_4">
     <g id="text_6">
      <!-- 600000 -->
      <g style="fill: #262626" transform="translate(24.52 76.427979) scale(0.11 -0.11)">
       <defs>
        <path id="ArialMT-36" d="M 3184 3459 
L 2625 3416 
Q 2550 3747 2413 3897 
Q 2184 4138 1850 4138 
Q 1581 4138 1378 3988 
Q 1113 3794 959 3422 
Q 806 3050 800 2363 
Q 1003 2672 1297 2822 
Q 1591 2972 1913 2972 
Q 2475 2972 2870 2558 
Q 3266 2144 3266 1488 
Q 3266 1056 3080 686 
Q 2894 316 2569 119 
Q 2244 -78 1831 -78 
Q 1128 -78 684 439 
Q 241 956 241 2144 
Q 241 3472 731 4075 
Q 1159 4600 1884 4600 
Q 2425 4600 2770 4297 
Q 3116 3994 3184 3459 
z
M 888 1484 
Q 888 1194 1011 928 
Q 1134 663 1356 523 
Q 1578 384 1822 384 
Q 2178 384 2434 671 
Q 2691 959 2691 1453 
Q 2691 1928 2437 2201 
Q 2184 2475 1800 2475 
Q 1419 2475 1153 2201 
Q 888 1928 888 1484 
z
" transform="scale(0.015625)"/>
       </defs>
       <use xlink:href="#ArialMT-36"/>
       <use xlink:href="#ArialMT-30" x="55.615234"/>
       <use xlink:href="#ArialMT-30" x="111.230469"/>
       <use xlink:href="#ArialMT-30" x="166.845703"/>
       <use xlink:href="#ArialMT-30" x="222.460938"/>
       <use xlink:href="#ArialMT-30" x="278.076172"/>
      </g>
     </g>
    </g>
    <g id="ytick_5">
     <g id="text_7">
      <!-- 700000 -->
      <g style="fill: #262626" transform="translate(24.52 30.651235) scale(0.11 -0.11)">
       <defs>
        <path id="ArialMT-37" d="M 303 3981 
L 303 4522 
L 3269 4522 
L 3269 4084 
Q 2831 3619 2401 2847 
Q 1972 2075 1738 1259 
Q 1569 684 1522 0 
L 944 0 
Q 953 541 1156 1306 
Q 1359 2072 1739 2783 
Q 2119 3494 2547 3981 
L 303 3981 
z
" transform="scale(0.015625)"/>
       </defs>
       <use xlink:href="#ArialMT-37"/>
       <use xlink:href="#ArialMT-30" x="55.615234"/>
       <use xlink:href="#ArialMT-30" x="111.230469"/>
       <use xlink:href="#ArialMT-30" x="166.845703"/>
       <use xlink:href="#ArialMT-30" x="222.460938"/>
       <use xlink:href="#ArialMT-30" x="278.076172"/>
      </g>
     </g>
    </g>
    <g id="text_8">
     <!-- WMV [mm$^3$] -->
     <g style="fill: #262626" transform="translate(18.12 150.66) rotate(-90) scale(0.12 -0.12)">
      <defs>
       <path id="ArialMT-57" d="M 1294 0 
L 78 4581 
L 700 4581 
L 1397 1578 
Q 1509 1106 1591 641 
Q 1766 1375 1797 1488 
L 2669 4581 
L 3400 4581 
L 4056 2263 
Q 4303 1400 4413 641 
Q 4500 1075 4641 1638 
L 5359 4581 
L 5969 4581 
L 4713 0 
L 4128 0 
L 3163 3491 
Q 3041 3928 3019 4028 
Q 2947 3713 2884 3491 
L 1913 0 
L 1294 0 
z
" transform="scale(0.015625)"/>
       <path id="ArialMT-4d" d="M 475 0 
L 475 4581 
L 1388 4581 
L 2472 1338 
Q 2622 884 2691 659 
Q 2769 909 2934 1394 
L 4031 4581 
L 4847 4581 
L 4847 0 
L 4263 0 
L 4263 3834 
L 2931 0 
L 2384 0 
L 1059 3900 
L 1059 0 
L 475 0 
z
" transform="scale(0.015625)"/>
       <path id="ArialMT-56" d="M 1803 0 
L 28 4581 
L 684 4581 
L 1875 1253 
Q 2019 853 2116 503 
Q 2222 878 2363 1253 
L 3600 4581 
L 4219 4581 
L 2425 0 
L 1803 0 
z
" transform="scale(0.015625)"/>
       <path id="ArialMT-20" transform="scale(0.015625)"/>
       <path id="ArialMT-5b" d="M 434 -1272 
L 434 4581 
L 1675 4581 
L 1675 4116 
L 997 4116 
L 997 -806 
L 1675 -806 
L 1675 -1272 
L 434 -1272 
z
" transform="scale(0.015625)"/>
       <path id="DejaVuSans-33" d="M 2597 2516 
Q 3050 2419 3304 2112 
Q 3559 1806 3559 1356 
Q 3559 666 3084 287 
Q 2609 -91 1734 -91 
Q 1441 -91 1130 -33 
Q 819 25 488 141 
L 488 750 
Q 750 597 1062 519 
Q 1375 441 1716 441 
Q 2309 441 2620 675 
Q 2931 909 2931 1356 
Q 2931 1769 2642 2001 
Q 2353 2234 1838 2234 
L 1294 2234 
L 1294 2753 
L 1863 2753 
Q 2328 2753 2575 2939 
Q 2822 3125 2822 3475 
Q 2822 3834 2567 4026 
Q 2313 4219 1838 4219 
Q 1578 4219 1281 4162 
Q 984 4106 628 3988 
L 628 4550 
Q 988 4650 1302 4700 
Q 1616 4750 1894 4750 
Q 2613 4750 3031 4423 
Q 3450 4097 3450 3541 
Q 3450 3153 3228 2886 
Q 3006 2619 2597 2516 
z
" transform="scale(0.015625)"/>
       <path id="ArialMT-5d" d="M 1363 -1272 
L 122 -1272 
L 122 -806 
L 800 -806 
L 800 4116 
L 122 4116 
L 122 4581 
L 1363 4581 
L 1363 -1272 
z
" transform="scale(0.015625)"/>
      </defs>
      <use xlink:href="#ArialMT-57" transform="translate(0 0.765625)"/>
      <use xlink:href="#ArialMT-4d" transform="translate(94.384766 0.765625)"/>
      <use xlink:href="#ArialMT-56" transform="translate(177.685547 0.765625)"/>
      <use xlink:href="#ArialMT-20" transform="translate(244.384766 0.765625)"/>
      <use xlink:href="#ArialMT-5b" transform="translate(272.167969 0.765625)"/>
      <use xlink:href="#ArialMT-6d" transform="translate(299.951172 0.765625)"/>
      <use xlink:href="#ArialMT-6d" transform="translate(383.251953 0.765625)"/>
      <use xlink:href="#DejaVuSans-33" transform="translate(467.509766 39.046875) scale(0.7)"/>
      <use xlink:href="#ArialMT-5d" transform="translate(514.780273 0.765625)"/>
     </g>
    </g>
   </g>
   <g id="PolyCollection_1">
    <defs>
     <path id="m090c5fafab" d="M 112.274581 -36.839844 
L 112.024339 -36.839844 
L 111.972992 -38.876207 
L 111.907341 -40.912571 
L 111.826103 -42.948935 
L 111.728779 -44.985298 
L 111.615833 -47.021662 
L 111.48873 -49.058026 
L 111.349801 -51.094389 
L 111.201916 -53.130753 
L 111.047971 -55.167116 
L 110.89026 -57.20348 
L 110.729771 -59.239844 
L 110.565493 -61.276207 
L 110.393777 -63.312571 
L 110.207785 -65.348935 
L 109.997071 -67.385298 
L 109.747297 -69.421662 
L 109.440187 -71.458026 
L 109.053784 -73.494389 
L 108.563174 -75.530753 
L 107.941779 -77.567116 
L 107.1633 -79.60348 
L 106.204241 -81.639844 
L 105.046822 -83.676207 
L 103.681923 -85.712571 
L 102.111598 -87.748935 
L 100.350711 -89.785298 
L 98.42731 -91.821662 
L 96.381591 -93.858026 
L 94.263496 -95.894389 
L 92.129224 -97.930753 
L 90.037112 -99.967116 
L 88.043343 -102.00348 
L 86.197945 -104.039844 
L 84.54141 -106.076207 
L 83.102167 -108.112571 
L 81.895045 -110.148935 
L 80.920817 -112.185298 
L 80.166888 -114.221662 
L 79.609134 -116.258026 
L 79.214828 -118.294389 
L 78.94646 -120.330753 
L 78.766102 -122.367116 
L 78.639862 -124.40348 
L 78.541895 -126.439844 
L 78.457488 -128.476207 
L 78.38481 -130.512571 
L 78.335108 -132.548935 
L 78.331278 -134.585298 
L 78.404939 -136.621662 
L 78.592279 -138.658026 
L 78.92913 -140.694389 
L 79.445814 -142.730753 
L 80.162455 -144.767116 
L 81.085407 -146.80348 
L 82.205375 -148.839844 
L 83.49758 -150.876207 
L 84.923972 -152.912571 
L 86.43716 -154.948935 
L 87.98541 -156.985298 
L 89.517915 -159.021662 
L 90.989533 -161.058026 
L 92.364391 -163.094389 
L 93.618031 -165.130753 
L 94.738079 -167.167116 
L 95.723672 -169.20348 
L 96.583984 -171.239844 
L 97.336208 -173.276207 
L 98.003256 -175.312571 
L 98.611312 -177.348935 
L 99.187339 -179.385298 
L 99.756593 -181.421662 
L 100.340281 -183.458026 
L 100.953572 -185.494389 
L 101.604251 -187.530753 
L 102.292242 -189.567116 
L 103.010181 -191.60348 
L 103.744975 -193.639844 
L 104.480143 -195.676207 
L 105.198497 -197.712571 
L 105.88472 -199.748935 
L 106.527343 -201.785298 
L 107.119854 -203.821662 
L 107.660785 -205.858026 
L 108.15292 -207.894389 
L 108.601866 -209.930753 
L 109.014386 -211.967116 
L 109.396839 -214.00348 
L 109.754024 -216.039844 
L 110.088591 -218.076207 
L 110.401018 -220.112571 
L 110.690065 -222.148935 
L 110.953511 -224.185298 
L 111.188972 -226.221662 
L 111.394626 -228.258026 
L 111.56971 -230.294389 
L 111.714746 -232.330753 
L 111.831507 -234.367116 
L 111.922784 -236.40348 
L 111.992038 -238.439844 
L 112.306883 -238.439844 
L 112.306883 -238.439844 
L 112.376136 -236.40348 
L 112.467414 -234.367116 
L 112.584175 -232.330753 
L 112.729211 -230.294389 
L 112.904294 -228.258026 
L 113.109948 -226.221662 
L 113.34541 -224.185298 
L 113.608855 -222.148935 
L 113.897902 -220.112571 
L 114.21033 -218.076207 
L 114.544896 -216.039844 
L 114.902082 -214.00348 
L 115.284535 -211.967116 
L 115.697055 -209.930753 
L 116.146001 -207.894389 
L 116.638135 -205.858026 
L 117.179067 -203.821662 
L 117.771577 -201.785298 
L 118.414201 -199.748935 
L 119.100423 -197.712571 
L 119.818778 -195.676207 
L 120.553945 -193.639844 
L 121.28874 -191.60348 
L 122.006678 -189.567116 
L 122.694669 -187.530753 
L 123.345348 -185.494389 
L 123.95864 -183.458026 
L 124.542327 -181.421662 
L 125.111582 -179.385298 
L 125.687609 -177.348935 
L 126.295664 -175.312571 
L 126.962712 -173.276207 
L 127.714937 -171.239844 
L 128.575248 -169.20348 
L 129.560841 -167.167116 
L 130.680889 -165.130753 
L 131.934529 -163.094389 
L 133.309387 -161.058026 
L 134.781005 -159.021662 
L 136.31351 -156.985298 
L 137.861761 -154.948935 
L 139.374948 -152.912571 
L 140.80134 -150.876207 
L 142.093545 -148.839844 
L 143.213513 -146.80348 
L 144.136465 -144.767116 
L 144.853107 -142.730753 
L 145.369791 -140.694389 
L 145.706641 -138.658026 
L 145.893982 -136.621662 
L 145.967642 -134.585298 
L 145.963812 -132.548935 
L 145.91411 -130.512571 
L 145.841432 -128.476207 
L 145.757025 -126.439844 
L 145.659059 -124.40348 
L 145.532818 -122.367116 
L 145.35246 -120.330753 
L 145.084092 -118.294389 
L 144.689786 -116.258026 
L 144.132032 -114.221662 
L 143.378104 -112.185298 
L 142.403876 -110.148935 
L 141.196754 -108.112571 
L 139.757511 -106.076207 
L 138.100976 -104.039844 
L 136.255578 -102.00348 
L 134.261809 -99.967116 
L 132.169696 -97.930753 
L 130.035425 -95.894389 
L 127.917329 -93.858026 
L 125.871611 -91.821662 
L 123.94821 -89.785298 
L 122.187322 -87.748935 
L 120.616998 -85.712571 
L 119.252099 -83.676207 
L 118.09468 -81.639844 
L 117.13562 -79.60348 
L 116.357141 -77.567116 
L 115.735746 -75.530753 
L 115.245136 -73.494389 
L 114.858733 -71.458026 
L 114.551623 -69.421662 
L 114.30185 -67.385298 
L 114.091135 -65.348935 
L 113.905144 -63.312571 
L 113.733427 -61.276207 
L 113.569149 -59.239844 
L 113.408661 -57.20348 
L 113.250949 -55.167116 
L 113.097005 -53.130753 
L 112.949119 -51.094389 
L 112.810191 -49.058026 
L 112.683088 -47.021662 
L 112.570142 -44.985298 
L 112.472818 -42.948935 
L 112.391579 -40.912571 
L 112.325928 -38.876207 
L 112.274581 -36.839844 
z
" style="stroke: #4c4c4c; stroke-width: 0.5"/>
    </defs>
    <g clip-path="url(#pd8882fe0dd)">
     <use xlink:href="#m090c5fafab" x="0" y="255.719844" style="fill: #5573cd; stroke: #4c4c4c; stroke-width: 0.5"/>
    </g>
   </g>
   <g id="PolyCollection_2">
    <defs>
     <path id="mfc092a1b0d" d="M 197.147545 -49.339092 
L 196.242284 -49.339092 
L 196.052686 -50.943731 
L 195.804157 -52.54837 
L 195.486899 -54.15301 
L 195.092539 -55.757649 
L 194.615262 -57.362289 
L 194.052914 -58.966928 
L 193.4079 -60.571567 
L 192.687697 -62.176207 
L 191.904807 -63.780846 
L 191.076074 -65.385485 
L 190.221371 -66.990125 
L 189.361779 -68.594764 
L 188.517498 -70.199403 
L 187.705804 -71.804043 
L 186.939381 -73.408682 
L 186.225316 -75.013321 
L 185.564933 -76.617961 
L 184.954486 -78.2226 
L 184.386538 -79.827239 
L 183.851735 -81.431879 
L 183.34057 -83.036518 
L 182.844746 -84.641157 
L 182.357849 -86.245797 
L 181.875197 -87.850436 
L 181.392969 -89.455075 
L 180.906895 -91.059715 
L 180.410934 -92.664354 
L 179.896392 -94.268994 
L 179.351828 -95.873633 
L 178.763906 -97.478272 
L 178.119093 -99.082912 
L 177.405853 -100.687551 
L 176.616829 -102.29219 
L 175.750465 -103.89683 
L 174.811643 -105.501469 
L 173.811149 -107.106108 
L 172.764101 -108.710748 
L 171.687771 -110.315387 
L 170.599412 -111.920026 
L 169.514753 -113.524666 
L 168.447655 -115.129305 
L 167.411091 -116.733944 
L 166.419268 -118.338584 
L 165.490278 -119.943223 
L 164.648482 -121.547862 
L 163.925746 -123.152502 
L 163.360873 -124.757141 
L 162.996937 -126.361781 
L 162.876733 -127.96642 
L 163.037013 -129.571059 
L 163.502541 -131.175699 
L 164.281117 -132.780338 
L 165.360581 -134.384977 
L 166.708467 -135.989617 
L 168.274477 -137.594256 
L 169.995401 -139.198895 
L 171.801702 -140.803535 
L 173.6247 -142.408174 
L 175.403258 -144.012813 
L 177.089023 -145.617453 
L 178.649601 -147.222092 
L 180.069433 -148.826731 
L 181.348497 -150.431371 
L 182.499297 -152.03601 
L 183.542772 -153.640649 
L 184.503817 -155.245289 
L 185.407072 -156.849928 
L 186.273502 -158.454567 
L 187.118072 -160.059207 
L 187.948671 -161.663846 
L 188.766213 -163.268486 
L 189.565702 -164.873125 
L 190.337956 -166.477764 
L 191.071641 -168.082404 
L 191.755292 -169.687043 
L 192.379031 -171.291682 
L 192.935829 -172.896322 
L 193.42222 -174.500961 
L 193.838476 -176.1056 
L 194.188327 -177.71024 
L 194.478352 -179.314879 
L 194.717143 -180.919518 
L 194.914394 -182.524158 
L 195.079996 -184.128797 
L 195.223231 -185.733436 
L 195.352118 -187.338076 
L 195.472959 -188.942715 
L 195.590106 -190.547354 
L 195.705952 -192.151994 
L 195.821122 -193.756633 
L 195.934827 -195.361273 
L 196.045323 -196.965912 
L 196.150394 -198.570551 
L 196.247809 -200.175191 
L 196.33568 -201.77983 
L 196.412712 -203.384469 
L 196.478301 -204.989109 
L 196.532535 -206.593748 
L 196.576084 -208.198387 
L 196.813745 -208.198387 
L 196.813745 -208.198387 
L 196.857294 -206.593748 
L 196.911528 -204.989109 
L 196.977118 -203.384469 
L 197.054149 -201.77983 
L 197.142021 -200.175191 
L 197.239435 -198.570551 
L 197.344506 -196.965912 
L 197.455002 -195.361273 
L 197.568707 -193.756633 
L 197.683877 -192.151994 
L 197.799723 -190.547354 
L 197.916871 -188.942715 
L 198.037712 -187.338076 
L 198.166599 -185.733436 
L 198.309834 -184.128797 
L 198.475436 -182.524158 
L 198.672686 -180.919518 
L 198.911477 -179.314879 
L 199.201502 -177.71024 
L 199.551354 -176.1056 
L 199.967609 -174.500961 
L 200.454 -172.896322 
L 201.010799 -171.291682 
L 201.634538 -169.687043 
L 202.318188 -168.082404 
L 203.051874 -166.477764 
L 203.824128 -164.873125 
L 204.623617 -163.268486 
L 205.441159 -161.663846 
L 206.271758 -160.059207 
L 207.116327 -158.454567 
L 207.982757 -156.849928 
L 208.886013 -155.245289 
L 209.847057 -153.640649 
L 210.890532 -152.03601 
L 212.041333 -150.431371 
L 213.320396 -148.826731 
L 214.740228 -147.222092 
L 216.300807 -145.617453 
L 217.986571 -144.012813 
L 219.765129 -142.408174 
L 221.588128 -140.803535 
L 223.394429 -139.198895 
L 225.115353 -137.594256 
L 226.681363 -135.989617 
L 228.029249 -134.384977 
L 229.108712 -132.780338 
L 229.887288 -131.175699 
L 230.352817 -129.571059 
L 230.513097 -127.96642 
L 230.392893 -126.361781 
L 230.028957 -124.757141 
L 229.464083 -123.152502 
L 228.741347 -121.547862 
L 227.899552 -119.943223 
L 226.970562 -118.338584 
L 225.978738 -116.733944 
L 224.942174 -115.129305 
L 223.875076 -113.524666 
L 222.790418 -111.920026 
L 221.702059 -110.315387 
L 220.625728 -108.710748 
L 219.578681 -107.106108 
L 218.578186 -105.501469 
L 217.639364 -103.89683 
L 216.773001 -102.29219 
L 215.983976 -100.687551 
L 215.270736 -99.082912 
L 214.625923 -97.478272 
L 214.038002 -95.873633 
L 213.493438 -94.268994 
L 212.978896 -92.664354 
L 212.482935 -91.059715 
L 211.996861 -89.455075 
L 211.514633 -87.850436 
L 211.031981 -86.245797 
L 210.545084 -84.641157 
L 210.04926 -83.036518 
L 209.538094 -81.431879 
L 209.003291 -79.827239 
L 208.435343 -78.2226 
L 207.824896 -76.617961 
L 207.164514 -75.013321 
L 206.450448 -73.408682 
L 205.684025 -71.804043 
L 204.872331 -70.199403 
L 204.028051 -68.594764 
L 203.168458 -66.990125 
L 202.313755 -65.385485 
L 201.485023 -63.780846 
L 200.702133 -62.176207 
L 199.98193 -60.571567 
L 199.336916 -58.966928 
L 198.774567 -57.362289 
L 198.29729 -55.757649 
L 197.902931 -54.15301 
L 197.585673 -52.54837 
L 197.337143 -50.943731 
L 197.147545 -49.339092 
z
" style="stroke: #4c4c4c; stroke-width: 0.5"/>
    </defs>
    <g clip-path="url(#pd8882fe0dd)">
     <use xlink:href="#mfc092a1b0d" x="0" y="255.719844" style="fill: #df8920; stroke: #4c4c4c; stroke-width: 0.5"/>
    </g>
   </g>
   <g id="line2d_1">
    <path d="M 112.14946 195.446976 
L 112.14946 47.602242 
" clip-path="url(#pd8882fe0dd)" style="fill: none; stroke: #4c4c4c; stroke-width: 0.75; stroke-linecap: round"/>
   </g>
   <g id="line2d_2">
    <path d="M 112.14946 141.79253 
L 112.14946 103.114698 
" clip-path="url(#pd8882fe0dd)" style="fill: none; stroke: #4c4c4c; stroke-width: 2.25; stroke-linecap: round"/>
   </g>
   <g id="line2d_3">
    <path d="M 112.14946 122.777025 
" clip-path="url(#pd8882fe0dd)" style="fill: none; stroke: #4c4c4c; stroke-width: 1.5; stroke-linecap: round"/>
    <defs>
     <path id="m363577d4b6" d="M 0.9375 0 
L -0.9375 -0 
" style="stroke: #ffffff; stroke-width: 0.45"/>
    </defs>
    <g clip-path="url(#pd8882fe0dd)">
     <use xlink:href="#m363577d4b6" x="112.14946" y="122.777025" style="fill: #ffffff; stroke: #ffffff; stroke-width: 0.45"/>
    </g>
   </g>
   <g id="line2d_4">
    <path d="M 196.694915 186.288748 
L 196.694915 81.930451 
" clip-path="url(#pd8882fe0dd)" style="fill: none; stroke: #4c4c4c; stroke-width: 0.75; stroke-linecap: round"/>
   </g>
   <g id="line2d_5">
    <path d="M 196.694915 152.002682 
L 196.694915 122.409018 
" clip-path="url(#pd8882fe0dd)" style="fill: none; stroke: #4c4c4c; stroke-width: 2.25; stroke-linecap: round"/>
   </g>
   <g id="line2d_6">
    <path d="M 196.694915 133.048571 
" clip-path="url(#pd8882fe0dd)" style="fill: none; stroke: #4c4c4c; stroke-width: 1.5; stroke-linecap: round"/>
    <g clip-path="url(#pd8882fe0dd)">
     <use xlink:href="#m363577d4b6" x="196.694915" y="133.048571" style="fill: #ffffff; stroke: #ffffff; stroke-width: 0.45"/>
    </g>
   </g>
   <g id="line2d_7">
    <path d="M 112.14946 34.296642 
L 112.14946 29.861442 
L 196.694915 29.861442 
L 196.694915 34.296642 
" style="fill: none; stroke: #333333; stroke-width: 0.5; stroke-linecap: round"/>
   </g>
   <g id="patch_3">
    <path d="M 70.722188 228.96 
L 70.722188 7.2 
" style="fill: none; stroke: #262626; stroke-width: 1.25; stroke-linejoin: miter; stroke-linecap: square"/>
   </g>
   <g id="patch_4">
    <path d="M 70.722187 228.96 
L 238.122188 228.96 
" style="fill: none; stroke: #262626; stroke-width: 1.25; stroke-linejoin: miter; stroke-linecap: square"/>
   </g>
   <g id="text_9">
    <!-- **** -->
    <g style="fill: #262626" transform="translate(145.080938 26.476442) scale(0.12 -0.12)">
     <defs>
      <path id="ArialMT-2a" d="M 200 3741 
L 344 4184 
Q 841 4009 1066 3881 
Q 1006 4447 1003 4659 
L 1456 4659 
Q 1447 4350 1384 3884 
Q 1706 4047 2122 4184 
L 2266 3741 
Q 1869 3609 1488 3566 
Q 1678 3400 2025 2975 
L 1650 2709 
Q 1469 2956 1222 3381 
Q 991 2941 816 2709 
L 447 2975 
Q 809 3422 966 3566 
Q 563 3644 200 3741 
z
" transform="scale(0.015625)"/>
     </defs>
     <use xlink:href="#ArialMT-2a"/>
     <use xlink:href="#ArialMT-2a" x="38.916016"/>
     <use xlink:href="#ArialMT-2a" x="77.832031"/>
     <use xlink:href="#ArialMT-2a" x="116.748047"/>
    </g>
   </g>
  </g>
 </g>
 <defs>
  <clipPath id="pd8882fe0dd">
   <rect x="70.722188" y="7.2" width="167.4" height="221.76"/>
  </clipPath>
 </defs>
</svg>
