<?xml version="1.0" encoding="utf-8" standalone="no"?>
<!DOCTYPE svg PUBLIC "-//W3C//DTD SVG 1.1//EN"
  "http://www.w3.org/Graphics/SVG/1.1/DTD/svg11.dtd">
<svg xmlns:xlink="http://www.w3.org/1999/xlink" width="267.94875pt" height="258.463437pt" viewBox="0 0 267.94875 258.463437" xmlns="http://www.w3.org/2000/svg" version="1.1">
 <metadata>
  <rdf:RDF xmlns:dc="http://purl.org/dc/elements/1.1/" xmlns:cc="http://creativecommons.org/ns#" xmlns:rdf="http://www.w3.org/1999/02/22-rdf-syntax-ns#">
   <cc:Work>
    <dc:type rdf:resource="http://purl.org/dc/dcmitype/StillImage"/>
    <dc:date>2025-08-14T15:30:02.913559</dc:date>
    <dc:format>image/svg+xml</dc:format>
    <dc:creator>
     <cc:Agent>
      <dc:title>Matplotlib v3.9.2, https://matplotlib.org/</dc:title>
     </cc:Agent>
    </dc:creator>
   </cc:Work>
  </rdf:RDF>
 </metadata>
 <defs>
  <style type="text/css">*{stroke-linejoin: round; stroke-linecap: butt}</style>
 </defs>
 <g id="figure_1">
  <g id="patch_1">
   <path d="M 0 258.463437 
L 267.94875 258.463437 
L 267.94875 0 
L 0 0 
z
" style="fill: #ffffff"/>
  </g>
  <g id="axes_1">
   <g id="patch_2">
    <path d="M 93.34875 228.96 
L 260.74875 228.96 
L 260.74875 7.2 
L 93.34875 7.2 
z
" style="fill: #ffffff"/>
   </g>
   <g id="matplotlib.axis_1">
    <g id="xtick_1">
     <g id="text_1">
      <!-- Full-term -->
      <g style="fill: #262626" transform="translate(107.167585 248.480937) scale(0.14 -0.14)">
       <defs>
        <path id="ArialMT-46" d="M 525 0 
L 525 4581 
L 3616 4581 
L 3616 4041 
L 1131 4041 
L 1131 2622 
L 3281 2622 
L 3281 2081 
L 1131 2081 
L 1131 0 
L 525 0 
z
" transform="scale(0.015625)"/>
        <path id="ArialMT-75" d="M 2597 0 
L 2597 488 
Q 2209 -75 1544 -75 
Q 1250 -75 995 37 
Q 741 150 617 320 
Q 494 491 444 738 
Q 409 903 409 1263 
L 409 3319 
L 972 3319 
L 972 1478 
Q 972 1038 1006 884 
Q 1059 663 1231 536 
Q 1403 409 1656 409 
Q 1909 409 2131 539 
Q 2353 669 2445 892 
Q 2538 1116 2538 1541 
L 2538 3319 
L 3100 3319 
L 3100 0 
L 2597 0 
z
" transform="scale(0.015625)"/>
        <path id="ArialMT-6c" d="M 409 0 
L 409 4581 
L 972 4581 
L 972 0 
L 409 0 
z
" transform="scale(0.015625)"/>
        <path id="ArialMT-2d" d="M 203 1375 
L 203 1941 
L 1931 1941 
L 1931 1375 
L 203 1375 
z
" transform="scale(0.015625)"/>
        <path id="ArialMT-74" d="M 1650 503 
L 1731 6 
Q 1494 -44 1306 -44 
Q 1000 -44 831 53 
Q 663 150 594 308 
Q 525 466 525 972 
L 525 2881 
L 113 2881 
L 113 3319 
L 525 3319 
L 525 4141 
L 1084 4478 
L 1084 3319 
L 1650 3319 
L 1650 2881 
L 1084 2881 
L 1084 941 
Q 1084 700 1114 631 
Q 1144 563 1211 522 
Q 1278 481 1403 481 
Q 1497 481 1650 503 
z
" transform="scale(0.015625)"/>
        <path id="ArialMT-65" d="M 2694 1069 
L 3275 997 
Q 3138 488 2766 206 
Q 2394 -75 1816 -75 
Q 1088 -75 661 373 
Q 234 822 234 1631 
Q 234 2469 665 2931 
Q 1097 3394 1784 3394 
Q 2450 3394 2872 2941 
Q 3294 2488 3294 1666 
Q 3294 1616 3291 1516 
L 816 1516 
Q 847 969 1125 678 
Q 1403 388 1819 388 
Q 2128 388 2347 550 
Q 2566 713 2694 1069 
z
M 847 1978 
L 2700 1978 
Q 2663 2397 2488 2606 
Q 2219 2931 1791 2931 
Q 1403 2931 1139 2672 
Q 875 2413 847 1978 
z
" transform="scale(0.015625)"/>
        <path id="ArialMT-72" d="M 416 0 
L 416 3319 
L 922 3319 
L 922 2816 
Q 1116 3169 1280 3281 
Q 1444 3394 1641 3394 
Q 1925 3394 2219 3213 
L 2025 2691 
Q 1819 2813 1613 2813 
Q 1428 2813 1281 2702 
Q 1134 2591 1072 2394 
Q 978 2094 978 1738 
L 978 0 
L 416 0 
z
" transform="scale(0.015625)"/>
        <path id="ArialMT-6d" d="M 422 0 
L 422 3319 
L 925 3319 
L 925 2853 
Q 1081 3097 1340 3245 
Q 1600 3394 1931 3394 
Q 2300 3394 2536 3241 
Q 2772 3088 2869 2813 
Q 3263 3394 3894 3394 
Q 4388 3394 4653 3120 
Q 4919 2847 4919 2278 
L 4919 0 
L 4359 0 
L 4359 2091 
Q 4359 2428 4304 2576 
Q 4250 2725 4106 2815 
Q 3963 2906 3769 2906 
Q 3419 2906 3187 2673 
Q 2956 2441 2956 1928 
L 2956 0 
L 2394 0 
L 2394 2156 
Q 2394 2531 2256 2718 
Q 2119 2906 1806 2906 
Q 1569 2906 1367 2781 
Q 1166 2656 1075 2415 
Q 984 2175 984 1722 
L 984 0 
L 422 0 
z
" transform="scale(0.015625)"/>
       </defs>
       <use xlink:href="#ArialMT-46"/>
       <use xlink:href="#ArialMT-75" x="61.083984"/>
       <use xlink:href="#ArialMT-6c" x="116.699219"/>
       <use xlink:href="#ArialMT-6c" x="138.916016"/>
       <use xlink:href="#ArialMT-2d" x="161.132812"/>
       <use xlink:href="#ArialMT-74" x="194.433594"/>
       <use xlink:href="#ArialMT-65" x="222.216797"/>
       <use xlink:href="#ArialMT-72" x="277.832031"/>
       <use xlink:href="#ArialMT-6d" x="311.132812"/>
      </g>
     </g>
    </g>
    <g id="xtick_2">
     <g id="text_2">
      <!-- Preterm -->
      <g style="fill: #262626" transform="translate(194.429915 248.480937) scale(0.14 -0.14)">
       <defs>
        <path id="ArialMT-50" d="M 494 0 
L 494 4581 
L 2222 4581 
Q 2678 4581 2919 4538 
Q 3256 4481 3484 4323 
Q 3713 4166 3852 3881 
Q 3991 3597 3991 3256 
Q 3991 2672 3619 2267 
Q 3247 1863 2275 1863 
L 1100 1863 
L 1100 0 
L 494 0 
z
M 1100 2403 
L 2284 2403 
Q 2872 2403 3119 2622 
Q 3366 2841 3366 3238 
Q 3366 3525 3220 3729 
Q 3075 3934 2838 4000 
Q 2684 4041 2272 4041 
L 1100 4041 
L 1100 2403 
z
" transform="scale(0.015625)"/>
       </defs>
       <use xlink:href="#ArialMT-50"/>
       <use xlink:href="#ArialMT-72" x="66.699219"/>
       <use xlink:href="#ArialMT-65" x="100"/>
       <use xlink:href="#ArialMT-74" x="155.615234"/>
       <use xlink:href="#ArialMT-65" x="183.398438"/>
       <use xlink:href="#ArialMT-72" x="239.013672"/>
       <use xlink:href="#ArialMT-6d" x="272.314453"/>
      </g>
     </g>
    </g>
   </g>
   <g id="matplotlib.axis_2">
    <g id="ytick_1">
     <g id="text_3">
      <!-- −150000 -->
      <g style="fill: #262626" transform="translate(28.96 212.645586) scale(0.14 -0.14)">
       <defs>
        <path id="ArialMT-2212" d="M 3381 1997 
L 356 1997 
L 356 2522 
L 3381 2522 
L 3381 1997 
z
" transform="scale(0.015625)"/>
        <path id="ArialMT-31" d="M 2384 0 
L 1822 0 
L 1822 3584 
Q 1619 3391 1289 3197 
Q 959 3003 697 2906 
L 697 3450 
Q 1169 3672 1522 3987 
Q 1875 4303 2022 4600 
L 2384 4600 
L 2384 0 
z
" transform="scale(0.015625)"/>
        <path id="ArialMT-35" d="M 266 1200 
L 856 1250 
Q 922 819 1161 601 
Q 1400 384 1738 384 
Q 2144 384 2425 690 
Q 2706 997 2706 1503 
Q 2706 1984 2436 2262 
Q 2166 2541 1728 2541 
Q 1456 2541 1237 2417 
Q 1019 2294 894 2097 
L 366 2166 
L 809 4519 
L 3088 4519 
L 3088 3981 
L 1259 3981 
L 1013 2750 
Q 1425 3038 1878 3038 
Q 2478 3038 2890 2622 
Q 3303 2206 3303 1553 
Q 3303 931 2941 478 
Q 2500 -78 1738 -78 
Q 1113 -78 717 272 
Q 322 622 266 1200 
z
" transform="scale(0.015625)"/>
        <path id="ArialMT-30" d="M 266 2259 
Q 266 3072 433 3567 
Q 600 4063 929 4331 
Q 1259 4600 1759 4600 
Q 2128 4600 2406 4451 
Q 2684 4303 2865 4023 
Q 3047 3744 3150 3342 
Q 3253 2941 3253 2259 
Q 3253 1453 3087 958 
Q 2922 463 2592 192 
Q 2263 -78 1759 -78 
Q 1097 -78 719 397 
Q 266 969 266 2259 
z
M 844 2259 
Q 844 1131 1108 757 
Q 1372 384 1759 384 
Q 2147 384 2411 759 
Q 2675 1134 2675 2259 
Q 2675 3391 2411 3762 
Q 2147 4134 1753 4134 
Q 1366 4134 1134 3806 
Q 844 3388 844 2259 
z
" transform="scale(0.015625)"/>
       </defs>
       <use xlink:href="#ArialMT-2212"/>
       <use xlink:href="#ArialMT-31" x="58.398438"/>
       <use xlink:href="#ArialMT-35" x="114.013672"/>
       <use xlink:href="#ArialMT-30" x="169.628906"/>
       <use xlink:href="#ArialMT-30" x="225.244141"/>
       <use xlink:href="#ArialMT-30" x="280.859375"/>
       <use xlink:href="#ArialMT-30" x="336.474609"/>
      </g>
     </g>
    </g>
    <g id="ytick_2">
     <g id="text_4">
      <!-- −100000 -->
      <g style="fill: #262626" transform="translate(28.96 182.624186) scale(0.14 -0.14)">
       <use xlink:href="#ArialMT-2212"/>
       <use xlink:href="#ArialMT-31" x="58.398438"/>
       <use xlink:href="#ArialMT-30" x="114.013672"/>
       <use xlink:href="#ArialMT-30" x="169.628906"/>
       <use xlink:href="#ArialMT-30" x="225.244141"/>
       <use xlink:href="#ArialMT-30" x="280.859375"/>
       <use xlink:href="#ArialMT-30" x="336.474609"/>
      </g>
     </g>
    </g>
    <g id="ytick_3">
     <g id="text_5">
      <!-- −50000 -->
      <g style="fill: #262626" transform="translate(36.745312 152.602786) scale(0.14 -0.14)">
       <use xlink:href="#ArialMT-2212"/>
       <use xlink:href="#ArialMT-35" x="58.398438"/>
       <use xlink:href="#ArialMT-30" x="114.013672"/>
       <use xlink:href="#ArialMT-30" x="169.628906"/>
       <use xlink:href="#ArialMT-30" x="225.244141"/>
       <use xlink:href="#ArialMT-30" x="280.859375"/>
      </g>
     </g>
    </g>
    <g id="ytick_4">
     <g id="text_6">
      <!-- 0 -->
      <g style="fill: #262626" transform="translate(76.063437 122.581386) scale(0.14 -0.14)">
       <use xlink:href="#ArialMT-30"/>
      </g>
     </g>
    </g>
    <g id="ytick_5">
     <g id="text_7">
      <!-- 50000 -->
      <g style="fill: #262626" transform="translate(44.922187 92.559986) scale(0.14 -0.14)">
       <use xlink:href="#ArialMT-35"/>
       <use xlink:href="#ArialMT-30" x="55.615234"/>
       <use xlink:href="#ArialMT-30" x="111.230469"/>
       <use xlink:href="#ArialMT-30" x="166.845703"/>
       <use xlink:href="#ArialMT-30" x="222.460938"/>
      </g>
     </g>
    </g>
    <g id="ytick_6">
     <g id="text_8">
      <!-- 100000 -->
      <g style="fill: #262626" transform="translate(37.136875 62.538586) scale(0.14 -0.14)">
       <use xlink:href="#ArialMT-31"/>
       <use xlink:href="#ArialMT-30" x="55.615234"/>
       <use xlink:href="#ArialMT-30" x="111.230469"/>
       <use xlink:href="#ArialMT-30" x="166.845703"/>
       <use xlink:href="#ArialMT-30" x="222.460938"/>
       <use xlink:href="#ArialMT-30" x="278.076172"/>
      </g>
     </g>
    </g>
    <g id="ytick_7">
     <g id="text_9">
      <!-- 150000 -->
      <g style="fill: #262626" transform="translate(37.136875 32.517186) scale(0.14 -0.14)">
       <use xlink:href="#ArialMT-31"/>
       <use xlink:href="#ArialMT-35" x="55.615234"/>
       <use xlink:href="#ArialMT-30" x="111.230469"/>
       <use xlink:href="#ArialMT-30" x="166.845703"/>
       <use xlink:href="#ArialMT-30" x="222.460938"/>
       <use xlink:href="#ArialMT-30" x="278.076172"/>
      </g>
     </g>
    </g>
    <g id="text_10">
     <!-- GMV residuals [mm$^3$] -->
     <g style="fill: #262626" transform="translate(21.76 194.4) rotate(-90) scale(0.16 -0.16)">
      <defs>
       <path id="ArialMT-47" d="M 2638 1797 
L 2638 2334 
L 4578 2338 
L 4578 638 
Q 4131 281 3656 101 
Q 3181 -78 2681 -78 
Q 2006 -78 1454 211 
Q 903 500 622 1047 
Q 341 1594 341 2269 
Q 341 2938 620 3517 
Q 900 4097 1425 4378 
Q 1950 4659 2634 4659 
Q 3131 4659 3532 4498 
Q 3934 4338 4162 4050 
Q 4391 3763 4509 3300 
L 3963 3150 
Q 3859 3500 3706 3700 
Q 3553 3900 3268 4020 
Q 2984 4141 2638 4141 
Q 2222 4141 1919 4014 
Q 1616 3888 1430 3681 
Q 1244 3475 1141 3228 
Q 966 2803 966 2306 
Q 966 1694 1177 1281 
Q 1388 869 1791 669 
Q 2194 469 2647 469 
Q 3041 469 3416 620 
Q 3791 772 3984 944 
L 3984 1797 
L 2638 1797 
z
" transform="scale(0.015625)"/>
       <path id="ArialMT-4d" d="M 475 0 
L 475 4581 
L 1388 4581 
L 2472 1338 
Q 2622 884 2691 659 
Q 2769 909 2934 1394 
L 4031 4581 
L 4847 4581 
L 4847 0 
L 4263 0 
L 4263 3834 
L 2931 0 
L 2384 0 
L 1059 3900 
L 1059 0 
L 475 0 
z
" transform="scale(0.015625)"/>
       <path id="ArialMT-56" d="M 1803 0 
L 28 4581 
L 684 4581 
L 1875 1253 
Q 2019 853 2116 503 
Q 2222 878 2363 1253 
L 3600 4581 
L 4219 4581 
L 2425 0 
L 1803 0 
z
" transform="scale(0.015625)"/>
       <path id="ArialMT-20" transform="scale(0.015625)"/>
       <path id="ArialMT-73" d="M 197 991 
L 753 1078 
Q 800 744 1014 566 
Q 1228 388 1613 388 
Q 2000 388 2187 545 
Q 2375 703 2375 916 
Q 2375 1106 2209 1216 
Q 2094 1291 1634 1406 
Q 1016 1563 777 1677 
Q 538 1791 414 1992 
Q 291 2194 291 2438 
Q 291 2659 392 2848 
Q 494 3038 669 3163 
Q 800 3259 1026 3326 
Q 1253 3394 1513 3394 
Q 1903 3394 2198 3281 
Q 2494 3169 2634 2976 
Q 2775 2784 2828 2463 
L 2278 2388 
Q 2241 2644 2061 2787 
Q 1881 2931 1553 2931 
Q 1166 2931 1000 2803 
Q 834 2675 834 2503 
Q 834 2394 903 2306 
Q 972 2216 1119 2156 
Q 1203 2125 1616 2013 
Q 2213 1853 2448 1751 
Q 2684 1650 2818 1456 
Q 2953 1263 2953 975 
Q 2953 694 2789 445 
Q 2625 197 2315 61 
Q 2006 -75 1616 -75 
Q 969 -75 630 194 
Q 291 463 197 991 
z
" transform="scale(0.015625)"/>
       <path id="ArialMT-69" d="M 425 3934 
L 425 4581 
L 988 4581 
L 988 3934 
L 425 3934 
z
M 425 0 
L 425 3319 
L 988 3319 
L 988 0 
L 425 0 
z
" transform="scale(0.015625)"/>
       <path id="ArialMT-64" d="M 2575 0 
L 2575 419 
Q 2259 -75 1647 -75 
Q 1250 -75 917 144 
Q 584 363 401 755 
Q 219 1147 219 1656 
Q 219 2153 384 2558 
Q 550 2963 881 3178 
Q 1213 3394 1622 3394 
Q 1922 3394 2156 3267 
Q 2391 3141 2538 2938 
L 2538 4581 
L 3097 4581 
L 3097 0 
L 2575 0 
z
M 797 1656 
Q 797 1019 1065 703 
Q 1334 388 1700 388 
Q 2069 388 2326 689 
Q 2584 991 2584 1609 
Q 2584 2291 2321 2609 
Q 2059 2928 1675 2928 
Q 1300 2928 1048 2622 
Q 797 2316 797 1656 
z
" transform="scale(0.015625)"/>
       <path id="ArialMT-61" d="M 2588 409 
Q 2275 144 1986 34 
Q 1697 -75 1366 -75 
Q 819 -75 525 192 
Q 231 459 231 875 
Q 231 1119 342 1320 
Q 453 1522 633 1644 
Q 813 1766 1038 1828 
Q 1203 1872 1538 1913 
Q 2219 1994 2541 2106 
Q 2544 2222 2544 2253 
Q 2544 2597 2384 2738 
Q 2169 2928 1744 2928 
Q 1347 2928 1158 2789 
Q 969 2650 878 2297 
L 328 2372 
Q 403 2725 575 2942 
Q 747 3159 1072 3276 
Q 1397 3394 1825 3394 
Q 2250 3394 2515 3294 
Q 2781 3194 2906 3042 
Q 3031 2891 3081 2659 
Q 3109 2516 3109 2141 
L 3109 1391 
Q 3109 606 3145 398 
Q 3181 191 3288 0 
L 2700 0 
Q 2613 175 2588 409 
z
M 2541 1666 
Q 2234 1541 1622 1453 
Q 1275 1403 1131 1340 
Q 988 1278 909 1158 
Q 831 1038 831 891 
Q 831 666 1001 516 
Q 1172 366 1500 366 
Q 1825 366 2078 508 
Q 2331 650 2450 897 
Q 2541 1088 2541 1459 
L 2541 1666 
z
" transform="scale(0.015625)"/>
       <path id="ArialMT-5b" d="M 434 -1272 
L 434 4581 
L 1675 4581 
L 1675 4116 
L 997 4116 
L 997 -806 
L 1675 -806 
L 1675 -1272 
L 434 -1272 
z
" transform="scale(0.015625)"/>
       <path id="DejaVuSans-33" d="M 2597 2516 
Q 3050 2419 3304 2112 
Q 3559 1806 3559 1356 
Q 3559 666 3084 287 
Q 2609 -91 1734 -91 
Q 1441 -91 1130 -33 
Q 819 25 488 141 
L 488 750 
Q 750 597 1062 519 
Q 1375 441 1716 441 
Q 2309 441 2620 675 
Q 2931 909 2931 1356 
Q 2931 1769 2642 2001 
Q 2353 2234 1838 2234 
L 1294 2234 
L 1294 2753 
L 1863 2753 
Q 2328 2753 2575 2939 
Q 2822 3125 2822 3475 
Q 2822 3834 2567 4026 
Q 2313 4219 1838 4219 
Q 1578 4219 1281 4162 
Q 984 4106 628 3988 
L 628 4550 
Q 988 4650 1302 4700 
Q 1616 4750 1894 4750 
Q 2613 4750 3031 4423 
Q 3450 4097 3450 3541 
Q 3450 3153 3228 2886 
Q 3006 2619 2597 2516 
z
" transform="scale(0.015625)"/>
       <path id="ArialMT-5d" d="M 1363 -1272 
L 122 -1272 
L 122 -806 
L 800 -806 
L 800 4116 
L 122 4116 
L 122 4581 
L 1363 4581 
L 1363 -1272 
z
" transform="scale(0.015625)"/>
      </defs>
      <use xlink:href="#ArialMT-47" transform="translate(0 0.765625)"/>
      <use xlink:href="#ArialMT-4d" transform="translate(77.783203 0.765625)"/>
      <use xlink:href="#ArialMT-56" transform="translate(161.083984 0.765625)"/>
      <use xlink:href="#ArialMT-20" transform="translate(227.783203 0.765625)"/>
      <use xlink:href="#ArialMT-72" transform="translate(255.566406 0.765625)"/>
      <use xlink:href="#ArialMT-65" transform="translate(288.867188 0.765625)"/>
      <use xlink:href="#ArialMT-73" transform="translate(344.482422 0.765625)"/>
      <use xlink:href="#ArialMT-69" transform="translate(394.482422 0.765625)"/>
      <use xlink:href="#ArialMT-64" transform="translate(416.699219 0.765625)"/>
      <use xlink:href="#ArialMT-75" transform="translate(472.314453 0.765625)"/>
      <use xlink:href="#ArialMT-61" transform="translate(527.929688 0.765625)"/>
      <use xlink:href="#ArialMT-6c" transform="translate(583.544922 0.765625)"/>
      <use xlink:href="#ArialMT-73" transform="translate(605.761719 0.765625)"/>
      <use xlink:href="#ArialMT-20" transform="translate(655.761719 0.765625)"/>
      <use xlink:href="#ArialMT-5b" transform="translate(683.544922 0.765625)"/>
      <use xlink:href="#ArialMT-6d" transform="translate(711.328125 0.765625)"/>
      <use xlink:href="#ArialMT-6d" transform="translate(794.628906 0.765625)"/>
      <use xlink:href="#DejaVuSans-33" transform="translate(878.886719 39.046875) scale(0.7)"/>
      <use xlink:href="#ArialMT-5d" transform="translate(926.157227 0.765625)"/>
     </g>
    </g>
   </g>
   <g id="PolyCollection_1">
    <defs>
     <path id="mf08f6d4886" d="M 134.893497 -53.916169 
L 134.658548 -53.916169 
L 134.610426 -55.807758 
L 134.549693 -57.699346 
L 134.475955 -59.590935 
L 134.389847 -61.482523 
L 134.293099 -63.374112 
L 134.188345 -65.2657 
L 134.078623 -67.157289 
L 133.966567 -69.048878 
L 133.853391 -70.940466 
L 133.73784 -72.832055 
L 133.615328 -74.723643 
L 133.477532 -76.615232 
L 133.312613 -78.50682 
L 133.106175 -80.398409 
L 132.84289 -82.289998 
L 132.508576 -84.181586 
L 132.09239 -86.073175 
L 131.588709 -87.964763 
L 130.998308 -89.856352 
L 130.328543 -91.74794 
L 129.592417 -93.639529 
L 128.806611 -95.531118 
L 127.988805 -97.422706 
L 127.154709 -99.314295 
L 126.315367 -101.205883 
L 125.475209 -103.097472 
L 124.631235 -104.98906 
L 123.773476 -106.880649 
L 122.886671 -108.772238 
L 121.952843 -110.663826 
L 120.954345 -112.555415 
L 119.876831 -114.447003 
L 118.711733 -116.338592 
L 117.457889 -118.23018 
L 116.12221 -120.121769 
L 114.7194 -122.013358 
L 113.270916 -123.904946 
L 111.803353 -125.796535 
L 110.346488 -127.688123 
L 108.931126 -129.579712 
L 107.586894 -131.4713 
L 106.340113 -133.362889 
L 105.211926 -135.254478 
L 104.216924 -137.146066 
L 103.362499 -139.037655 
L 102.649139 -140.929243 
L 102.071732 -142.820832 
L 101.621753 -144.71242 
L 101.290021 -146.604009 
L 101.069534 -148.495598 
L 100.957841 -150.387186 
L 100.958423 -152.278775 
L 101.080754 -154.170363 
L 101.338887 -156.061952 
L 101.748748 -157.95354 
L 102.324519 -159.845129 
L 103.074745 -161.736718 
L 103.998891 -163.628306 
L 105.085043 -165.519895 
L 106.309303 -167.411483 
L 107.637161 -169.303072 
L 109.026748 -171.19466 
L 110.43354 -173.086249 
L 111.815751 -174.977838 
L 113.139516 -176.869426 
L 114.382914 -178.761015 
L 115.538125 -180.652603 
L 116.611285 -182.544192 
L 117.620105 -184.43578 
L 118.58969 -186.327369 
L 119.547391 -188.218958 
L 120.517627 -190.110546 
L 121.517626 -192.002135 
L 122.554741 -193.893723 
L 123.625673 -195.785312 
L 124.717501 -197.6769 
L 125.810119 -199.568489 
L 126.879488 -201.460078 
L 127.901055 -203.351666 
L 128.852829 -205.243255 
L 129.717717 -207.134843 
L 130.484946 -209.026432 
L 131.150544 -210.91802 
L 131.716944 -212.809609 
L 132.191901 -214.701198 
L 132.586917 -216.592786 
L 132.915445 -218.484375 
L 133.191126 -220.375963 
L 133.426297 -222.267552 
L 133.630962 -224.15914 
L 133.812312 -226.050729 
L 133.974781 -227.942318 
L 134.120522 -229.833906 
L 134.250136 -231.725495 
L 134.363461 -233.617083 
L 134.460246 -235.508672 
L 134.540629 -237.40026 
L 134.605358 -239.291849 
L 134.655802 -241.183437 
L 134.896244 -241.183437 
L 134.896244 -241.183437 
L 134.946688 -239.291849 
L 135.011417 -237.40026 
L 135.091799 -235.508672 
L 135.188585 -233.617083 
L 135.301909 -231.725495 
L 135.431524 -229.833906 
L 135.577265 -227.942318 
L 135.739733 -226.050729 
L 135.921084 -224.15914 
L 136.125748 -222.267552 
L 136.360919 -220.375963 
L 136.6366 -218.484375 
L 136.965129 -216.592786 
L 137.360145 -214.701198 
L 137.835101 -212.809609 
L 138.401501 -210.91802 
L 139.067099 -209.026432 
L 139.834329 -207.134843 
L 140.699216 -205.243255 
L 141.650991 -203.351666 
L 142.672558 -201.460078 
L 143.741926 -199.568489 
L 144.834545 -197.6769 
L 145.926372 -195.785312 
L 146.997305 -193.893723 
L 148.03442 -192.002135 
L 149.034418 -190.110546 
L 150.004655 -188.218958 
L 150.962355 -186.327369 
L 151.931941 -184.43578 
L 152.94076 -182.544192 
L 154.01392 -180.652603 
L 155.169131 -178.761015 
L 156.41253 -176.869426 
L 157.736294 -174.977838 
L 159.118506 -173.086249 
L 160.525297 -171.19466 
L 161.914885 -169.303072 
L 163.242743 -167.411483 
L 164.467003 -165.519895 
L 165.553154 -163.628306 
L 166.477301 -161.736718 
L 167.227527 -159.845129 
L 167.803297 -157.95354 
L 168.213158 -156.061952 
L 168.471292 -154.170363 
L 168.593622 -152.278775 
L 168.594205 -150.387186 
L 168.482511 -148.495598 
L 168.262025 -146.604009 
L 167.930292 -144.71242 
L 167.480313 -142.820832 
L 166.902906 -140.929243 
L 166.189547 -139.037655 
L 165.335122 -137.146066 
L 164.34012 -135.254478 
L 163.211933 -133.362889 
L 161.965151 -131.4713 
L 160.620919 -129.579712 
L 159.205558 -127.688123 
L 157.748693 -125.796535 
L 156.28113 -123.904946 
L 154.832645 -122.013358 
L 153.429836 -120.121769 
L 152.094156 -118.23018 
L 150.840313 -116.338592 
L 149.675214 -114.447003 
L 148.5977 -112.555415 
L 147.599202 -110.663826 
L 146.665375 -108.772238 
L 145.778569 -106.880649 
L 144.92081 -104.98906 
L 144.076836 -103.097472 
L 143.236679 -101.205883 
L 142.397336 -99.314295 
L 141.56324 -97.422706 
L 140.745434 -95.531118 
L 139.959629 -93.639529 
L 139.223502 -91.74794 
L 138.553738 -89.856352 
L 137.963336 -87.964763 
L 137.459655 -86.073175 
L 137.04347 -84.181586 
L 136.709156 -82.289998 
L 136.44587 -80.398409 
L 136.239432 -78.50682 
L 136.074513 -76.615232 
L 135.936717 -74.723643 
L 135.814206 -72.832055 
L 135.698654 -70.940466 
L 135.585479 -69.048878 
L 135.473422 -67.157289 
L 135.3637 -65.2657 
L 135.258946 -63.374112 
L 135.162198 -61.482523 
L 135.07609 -59.590935 
L 135.002353 -57.699346 
L 134.941619 -55.807758 
L 134.893497 -53.916169 
z
" style="stroke: #4c4c4c; stroke-width: 0.5"/>
    </defs>
    <g clip-path="url(#pb37bd43ddc)">
     <use xlink:href="#mf08f6d4886" x="0" y="258.463437" style="fill: #5573cd; stroke: #4c4c4c; stroke-width: 0.5"/>
    </g>
   </g>
   <g id="PolyCollection_2">
    <defs>
     <path id="m9414b052ae" d="M 219.450866 -39.583438 
L 219.192088 -39.583438 
L 219.139097 -41.514706 
L 219.071512 -43.445974 
L 218.988194 -45.377243 
L 218.888928 -47.308511 
L 218.774637 -49.239779 
L 218.647459 -51.171048 
L 218.510616 -53.102316 
L 218.368054 -55.033584 
L 218.22385 -56.964853 
L 218.081405 -58.896121 
L 217.942486 -60.827389 
L 217.806172 -62.758658 
L 217.667789 -64.689926 
L 217.51791 -66.621194 
L 217.341537 -68.552463 
L 217.117607 -70.483731 
L 216.819006 -72.414999 
L 216.41331 -74.346268 
L 215.864429 -76.277536 
L 215.135276 -78.208804 
L 214.191395 -80.140073 
L 213.005279 -82.071341 
L 211.560872 -84.002609 
L 209.857565 -85.933878 
L 207.912938 -87.865146 
L 205.763565 -89.796414 
L 203.463499 -91.727683 
L 201.080399 -93.658951 
L 198.689749 -95.590219 
L 196.367986 -97.521488 
L 194.185594 -99.452756 
L 192.201262 -101.384024 
L 190.457955 -103.315293 
L 188.981384 -105.246561 
L 187.78084 -107.177829 
L 186.851939 -109.109098 
L 186.180482 -111.040366 
L 185.746558 -112.971634 
L 185.528093 -114.902903 
L 185.503295 -116.834171 
L 185.651815 -118.765439 
L 185.954708 -120.696708 
L 186.39358 -122.627976 
L 186.949384 -124.559244 
L 187.601381 -126.490513 
L 188.326663 -128.421781 
L 189.100493 -130.353049 
L 189.897484 -132.284318 
L 190.693477 -134.215586 
L 191.467769 -136.146854 
L 192.205283 -138.078123 
L 192.898242 -140.009391 
L 193.547006 -141.940659 
L 194.159906 -143.871928 
L 194.752083 -145.803196 
L 195.343547 -147.734464 
L 195.956759 -149.665733 
L 196.614133 -151.597001 
L 197.335757 -153.528269 
L 198.137576 -155.459538 
L 199.030132 -157.390806 
L 200.017834 -159.322074 
L 201.098683 -161.253343 
L 202.264334 -163.184611 
L 203.500426 -165.115879 
L 204.787147 -167.047148 
L 206.100094 -168.978416 
L 207.411471 -170.909684 
L 208.691673 -172.840953 
L 209.911223 -174.772221 
L 211.042942 -176.703489 
L 212.064106 -178.634758 
L 212.958319 -180.566026 
L 213.716802 -182.497294 
L 214.33888 -184.428563 
L 214.831588 -186.359831 
L 215.208486 -188.291099 
L 215.487877 -190.222368 
L 215.690775 -192.153636 
L 215.83892 -194.084904 
L 215.953105 -196.016173 
L 216.051944 -197.947441 
L 216.151097 -199.878709 
L 216.262853 -201.809978 
L 216.395957 -203.741246 
L 216.555572 -205.672514 
L 216.743338 -207.603783 
L 216.957553 -209.535051 
L 217.193532 -211.466319 
L 217.444194 -213.397588 
L 217.700878 -215.328856 
L 217.954331 -217.260124 
L 218.195724 -219.191393 
L 218.417561 -221.122661 
L 218.614342 -223.053929 
L 218.782887 -224.985198 
L 218.922324 -226.916466 
L 219.033781 -228.847734 
L 219.119888 -230.779003 
L 219.523066 -230.779003 
L 219.523066 -230.779003 
L 219.609173 -228.847734 
L 219.720631 -226.916466 
L 219.860068 -224.985198 
L 220.028613 -223.053929 
L 220.225393 -221.122661 
L 220.44723 -219.191393 
L 220.688623 -217.260124 
L 220.942076 -215.328856 
L 221.198761 -213.397588 
L 221.449422 -211.466319 
L 221.685402 -209.535051 
L 221.899617 -207.603783 
L 222.087383 -205.672514 
L 222.246997 -203.741246 
L 222.380101 -201.809978 
L 222.491857 -199.878709 
L 222.59101 -197.947441 
L 222.68985 -196.016173 
L 222.804034 -194.084904 
L 222.95218 -192.153636 
L 223.155078 -190.222368 
L 223.434469 -188.291099 
L 223.811366 -186.359831 
L 224.304075 -184.428563 
L 224.926152 -182.497294 
L 225.684635 -180.566026 
L 226.578849 -178.634758 
L 227.600013 -176.703489 
L 228.731731 -174.772221 
L 229.951281 -172.840953 
L 231.231483 -170.909684 
L 232.54286 -168.978416 
L 233.855808 -167.047148 
L 235.142529 -165.115879 
L 236.37862 -163.184611 
L 237.544272 -161.253343 
L 238.625121 -159.322074 
L 239.612823 -157.390806 
L 240.505378 -155.459538 
L 241.307198 -153.528269 
L 242.028821 -151.597001 
L 242.686195 -149.665733 
L 243.299408 -147.734464 
L 243.890871 -145.803196 
L 244.483049 -143.871928 
L 245.095948 -141.940659 
L 245.744712 -140.009391 
L 246.437671 -138.078123 
L 247.175186 -136.146854 
L 247.949478 -134.215586 
L 248.74547 -132.284318 
L 249.542461 -130.353049 
L 250.316291 -128.421781 
L 251.041574 -126.490513 
L 251.693571 -124.559244 
L 252.249375 -122.627976 
L 252.688247 -120.696708 
L 252.99114 -118.765439 
L 253.139659 -116.834171 
L 253.114861 -114.902903 
L 252.896396 -112.971634 
L 252.462473 -111.040366 
L 251.791016 -109.109098 
L 250.862114 -107.177829 
L 249.661571 -105.246561 
L 248.185 -103.315293 
L 246.441693 -101.384024 
L 244.45736 -99.452756 
L 242.274968 -97.521488 
L 239.953205 -95.590219 
L 237.562556 -93.658951 
L 235.179455 -91.727683 
L 232.879389 -89.796414 
L 230.730017 -87.865146 
L 228.785389 -85.933878 
L 227.082083 -84.002609 
L 225.637676 -82.071341 
L 224.45156 -80.140073 
L 223.507679 -78.208804 
L 222.778526 -76.277536 
L 222.229644 -74.346268 
L 221.823948 -72.414999 
L 221.525348 -70.483731 
L 221.301417 -68.552463 
L 221.125044 -66.621194 
L 220.975165 -64.689926 
L 220.836782 -62.758658 
L 220.700468 -60.827389 
L 220.561549 -58.896121 
L 220.419104 -56.964853 
L 220.2749 -55.033584 
L 220.132339 -53.102316 
L 219.995495 -51.171048 
L 219.868317 -49.239779 
L 219.754027 -47.308511 
L 219.654761 -45.377243 
L 219.571443 -43.445974 
L 219.503858 -41.514706 
L 219.450866 -39.583438 
z
" style="stroke: #4c4c4c; stroke-width: 0.5"/>
    </defs>
    <g clip-path="url(#pb37bd43ddc)">
     <use xlink:href="#m9414b052ae" x="0" y="258.463437" style="fill: #df8920; stroke: #4c4c4c; stroke-width: 0.5"/>
    </g>
   </g>
   <g id="line2d_1">
    <path d="M 134.776023 161.951819 
L 134.776023 53.943995 
" clip-path="url(#pb37bd43ddc)" style="fill: none; stroke: #4c4c4c; stroke-width: 0.75; stroke-linecap: round"/>
   </g>
   <g id="line2d_2">
    <path d="M 134.776023 124.482121 
L 134.776023 91.588651 
" clip-path="url(#pb37bd43ddc)" style="fill: none; stroke: #4c4c4c; stroke-width: 2.25; stroke-linecap: round"/>
   </g>
   <g id="line2d_3">
    <path d="M 134.776023 108.014746 
" clip-path="url(#pb37bd43ddc)" style="fill: none; stroke: #4c4c4c; stroke-width: 1.5; stroke-linecap: round"/>
    <defs>
     <path id="m28357cb395" d="M 0.9375 0 
L -0.9375 -0 
" style="stroke: #ffffff; stroke-width: 0.45"/>
    </defs>
    <g clip-path="url(#pb37bd43ddc)">
     <use xlink:href="#m28357cb395" x="134.776023" y="108.014746" style="fill: #ffffff; stroke: #ffffff; stroke-width: 0.45"/>
    </g>
   </g>
   <g id="line2d_4">
    <path d="M 219.321477 196.692498 
L 219.321477 49.871937 
" clip-path="url(#pb37bd43ddc)" style="fill: none; stroke: #4c4c4c; stroke-width: 0.75; stroke-linecap: round"/>
   </g>
   <g id="line2d_5">
    <path d="M 219.321477 149.374424 
L 219.321477 109.142945 
" clip-path="url(#pb37bd43ddc)" style="fill: none; stroke: #4c4c4c; stroke-width: 2.25; stroke-linecap: round"/>
   </g>
   <g id="line2d_6">
    <path d="M 219.321477 131.148286 
" clip-path="url(#pb37bd43ddc)" style="fill: none; stroke: #4c4c4c; stroke-width: 1.5; stroke-linecap: round"/>
    <g clip-path="url(#pb37bd43ddc)">
     <use xlink:href="#m28357cb395" x="219.321477" y="131.148286" style="fill: #ffffff; stroke: #ffffff; stroke-width: 0.45"/>
    </g>
   </g>
   <g id="line2d_7">
    <path d="M 134.776023 36.566337 
L 134.776023 32.131137 
L 219.321477 32.131137 
L 219.321477 36.566337 
" style="fill: none; stroke: #333333; stroke-width: 0.5; stroke-linecap: round"/>
   </g>
   <g id="patch_3">
    <path d="M 93.34875 228.96 
L 93.34875 7.2 
" style="fill: none; stroke: #262626; stroke-width: 1.25; stroke-linejoin: miter; stroke-linecap: square"/>
   </g>
   <g id="patch_4">
    <path d="M 93.34875 228.96 
L 260.74875 228.96 
" style="fill: none; stroke: #262626; stroke-width: 1.25; stroke-linejoin: miter; stroke-linecap: square"/>
   </g>
   <g id="text_11">
    <!-- **** -->
    <g style="fill: #262626" transform="translate(166.150625 28.348637) scale(0.14 -0.14)">
     <defs>
      <path id="ArialMT-2a" d="M 200 3741 
L 344 4184 
Q 841 4009 1066 3881 
Q 1006 4447 1003 4659 
L 1456 4659 
Q 1447 4350 1384 3884 
Q 1706 4047 2122 4184 
L 2266 3741 
Q 1869 3609 1488 3566 
Q 1678 3400 2025 2975 
L 1650 2709 
Q 1469 2956 1222 3381 
Q 991 2941 816 2709 
L 447 2975 
Q 809 3422 966 3566 
Q 563 3644 200 3741 
z
" transform="scale(0.015625)"/>
     </defs>
     <use xlink:href="#ArialMT-2a"/>
     <use xlink:href="#ArialMT-2a" x="38.916016"/>
     <use xlink:href="#ArialMT-2a" x="77.832031"/>
     <use xlink:href="#ArialMT-2a" x="116.748047"/>
    </g>
   </g>
  </g>
 </g>
 <defs>
  <clipPath id="pb37bd43ddc">
   <rect x="93.34875" y="7.2" width="167.4" height="221.76"/>
  </clipPath>
 </defs>
</svg>
