<?xml version="1.0" encoding="utf-8" standalone="no"?>
<!DOCTYPE svg PUBLIC "-//W3C//DTD SVG 1.1//EN"
  "http://www.w3.org/Graphics/SVG/1.1/DTD/svg11.dtd">
<svg xmlns:xlink="http://www.w3.org/1999/xlink" width="245.629844pt" height="255.719844pt" viewBox="0 0 245.629844 255.719844" xmlns="http://www.w3.org/2000/svg" version="1.1">
 <metadata>
  <rdf:RDF xmlns:dc="http://purl.org/dc/elements/1.1/" xmlns:cc="http://creativecommons.org/ns#" xmlns:rdf="http://www.w3.org/1999/02/22-rdf-syntax-ns#">
   <cc:Work>
    <dc:type rdf:resource="http://purl.org/dc/dcmitype/StillImage"/>
    <dc:date>2025-06-10T16:26:03.677717</dc:date>
    <dc:format>image/svg+xml</dc:format>
    <dc:creator>
     <cc:Agent>
      <dc:title>Matplotlib v3.9.2, https://matplotlib.org/</dc:title>
     </cc:Agent>
    </dc:creator>
   </cc:Work>
  </rdf:RDF>
 </metadata>
 <defs>
  <style type="text/css">*{stroke-linejoin: round; stroke-linecap: butt}</style>
 </defs>
 <g id="figure_1">
  <g id="patch_1">
   <path d="M 0 255.719844 
L 245.629844 255.719844 
L 245.629844 0 
L 0 0 
z
" style="fill: #ffffff"/>
  </g>
  <g id="axes_1">
   <g id="patch_2">
    <path d="M 71.029844 228.96 
L 238.429844 228.96 
L 238.429844 7.2 
L 71.029844 7.2 
z
" style="fill: #ffffff"/>
   </g>
   <g id="matplotlib.axis_1">
    <g id="xtick_1">
     <g id="text_1">
      <!-- Term -->
      <g style="fill: #262626" transform="translate(100.238523 246.333594) scale(0.11 -0.11)">
       <defs>
        <path id="ArialMT-54" d="M 1659 0 
L 1659 4041 
L 150 4041 
L 150 4581 
L 3781 4581 
L 3781 4041 
L 2266 4041 
L 2266 0 
L 1659 0 
z
" transform="scale(0.015625)"/>
        <path id="ArialMT-65" d="M 2694 1069 
L 3275 997 
Q 3138 488 2766 206 
Q 2394 -75 1816 -75 
Q 1088 -75 661 373 
Q 234 822 234 1631 
Q 234 2469 665 2931 
Q 1097 3394 1784 3394 
Q 2450 3394 2872 2941 
Q 3294 2488 3294 1666 
Q 3294 1616 3291 1516 
L 816 1516 
Q 847 969 1125 678 
Q 1403 388 1819 388 
Q 2128 388 2347 550 
Q 2566 713 2694 1069 
z
M 847 1978 
L 2700 1978 
Q 2663 2397 2488 2606 
Q 2219 2931 1791 2931 
Q 1403 2931 1139 2672 
Q 875 2413 847 1978 
z
" transform="scale(0.015625)"/>
        <path id="ArialMT-72" d="M 416 0 
L 416 3319 
L 922 3319 
L 922 2816 
Q 1116 3169 1280 3281 
Q 1444 3394 1641 3394 
Q 1925 3394 2219 3213 
L 2025 2691 
Q 1819 2813 1613 2813 
Q 1428 2813 1281 2702 
Q 1134 2591 1072 2394 
Q 978 2094 978 1738 
L 978 0 
L 416 0 
z
" transform="scale(0.015625)"/>
        <path id="ArialMT-6d" d="M 422 0 
L 422 3319 
L 925 3319 
L 925 2853 
Q 1081 3097 1340 3245 
Q 1600 3394 1931 3394 
Q 2300 3394 2536 3241 
Q 2772 3088 2869 2813 
Q 3263 3394 3894 3394 
Q 4388 3394 4653 3120 
Q 4919 2847 4919 2278 
L 4919 0 
L 4359 0 
L 4359 2091 
Q 4359 2428 4304 2576 
Q 4250 2725 4106 2815 
Q 3963 2906 3769 2906 
Q 3419 2906 3187 2673 
Q 2956 2441 2956 1928 
L 2956 0 
L 2394 0 
L 2394 2156 
Q 2394 2531 2256 2718 
Q 2119 2906 1806 2906 
Q 1569 2906 1367 2781 
Q 1166 2656 1075 2415 
Q 984 2175 984 1722 
L 984 0 
L 422 0 
z
" transform="scale(0.015625)"/>
       </defs>
       <use xlink:href="#ArialMT-54"/>
       <use xlink:href="#ArialMT-65" x="49.958984"/>
       <use xlink:href="#ArialMT-72" x="105.574219"/>
       <use xlink:href="#ArialMT-6d" x="138.875"/>
      </g>
     </g>
    </g>
    <g id="xtick_2">
     <g id="text_2">
      <!-- Preterm -->
      <g style="fill: #262626" transform="translate(177.444915 246.333594) scale(0.11 -0.11)">
       <defs>
        <path id="ArialMT-50" d="M 494 0 
L 494 4581 
L 2222 4581 
Q 2678 4581 2919 4538 
Q 3256 4481 3484 4323 
Q 3713 4166 3852 3881 
Q 3991 3597 3991 3256 
Q 3991 2672 3619 2267 
Q 3247 1863 2275 1863 
L 1100 1863 
L 1100 0 
L 494 0 
z
M 1100 2403 
L 2284 2403 
Q 2872 2403 3119 2622 
Q 3366 2841 3366 3238 
Q 3366 3525 3220 3729 
Q 3075 3934 2838 4000 
Q 2684 4041 2272 4041 
L 1100 4041 
L 1100 2403 
z
" transform="scale(0.015625)"/>
        <path id="ArialMT-74" d="M 1650 503 
L 1731 6 
Q 1494 -44 1306 -44 
Q 1000 -44 831 53 
Q 663 150 594 308 
Q 525 466 525 972 
L 525 2881 
L 113 2881 
L 113 3319 
L 525 3319 
L 525 4141 
L 1084 4478 
L 1084 3319 
L 1650 3319 
L 1650 2881 
L 1084 2881 
L 1084 941 
Q 1084 700 1114 631 
Q 1144 563 1211 522 
Q 1278 481 1403 481 
Q 1497 481 1650 503 
z
" transform="scale(0.015625)"/>
       </defs>
       <use xlink:href="#ArialMT-50"/>
       <use xlink:href="#ArialMT-72" x="66.699219"/>
       <use xlink:href="#ArialMT-65" x="100"/>
       <use xlink:href="#ArialMT-74" x="155.615234"/>
       <use xlink:href="#ArialMT-65" x="183.398438"/>
       <use xlink:href="#ArialMT-72" x="239.013672"/>
       <use xlink:href="#ArialMT-6d" x="272.314453"/>
      </g>
     </g>
    </g>
   </g>
   <g id="matplotlib.axis_2">
    <g id="ytick_1">
     <g id="text_3">
      <!-- −15000 -->
      <g style="fill: #262626" transform="translate(24.52 207.339857) scale(0.11 -0.11)">
       <defs>
        <path id="ArialMT-2212" d="M 3381 1997 
L 356 1997 
L 356 2522 
L 3381 2522 
L 3381 1997 
z
" transform="scale(0.015625)"/>
        <path id="ArialMT-31" d="M 2384 0 
L 1822 0 
L 1822 3584 
Q 1619 3391 1289 3197 
Q 959 3003 697 2906 
L 697 3450 
Q 1169 3672 1522 3987 
Q 1875 4303 2022 4600 
L 2384 4600 
L 2384 0 
z
" transform="scale(0.015625)"/>
        <path id="ArialMT-35" d="M 266 1200 
L 856 1250 
Q 922 819 1161 601 
Q 1400 384 1738 384 
Q 2144 384 2425 690 
Q 2706 997 2706 1503 
Q 2706 1984 2436 2262 
Q 2166 2541 1728 2541 
Q 1456 2541 1237 2417 
Q 1019 2294 894 2097 
L 366 2166 
L 809 4519 
L 3088 4519 
L 3088 3981 
L 1259 3981 
L 1013 2750 
Q 1425 3038 1878 3038 
Q 2478 3038 2890 2622 
Q 3303 2206 3303 1553 
Q 3303 931 2941 478 
Q 2500 -78 1738 -78 
Q 1113 -78 717 272 
Q 322 622 266 1200 
z
" transform="scale(0.015625)"/>
        <path id="ArialMT-30" d="M 266 2259 
Q 266 3072 433 3567 
Q 600 4063 929 4331 
Q 1259 4600 1759 4600 
Q 2128 4600 2406 4451 
Q 2684 4303 2865 4023 
Q 3047 3744 3150 3342 
Q 3253 2941 3253 2259 
Q 3253 1453 3087 958 
Q 2922 463 2592 192 
Q 2263 -78 1759 -78 
Q 1097 -78 719 397 
Q 266 969 266 2259 
z
M 844 2259 
Q 844 1131 1108 757 
Q 1372 384 1759 384 
Q 2147 384 2411 759 
Q 2675 1134 2675 2259 
Q 2675 3391 2411 3762 
Q 2147 4134 1753 4134 
Q 1366 4134 1134 3806 
Q 844 3388 844 2259 
z
" transform="scale(0.015625)"/>
       </defs>
       <use xlink:href="#ArialMT-2212"/>
       <use xlink:href="#ArialMT-31" x="58.398438"/>
       <use xlink:href="#ArialMT-35" x="114.013672"/>
       <use xlink:href="#ArialMT-30" x="169.628906"/>
       <use xlink:href="#ArialMT-30" x="225.244141"/>
       <use xlink:href="#ArialMT-30" x="280.859375"/>
      </g>
     </g>
    </g>
    <g id="ytick_2">
     <g id="text_4">
      <!-- −10000 -->
      <g style="fill: #262626" transform="translate(24.52 178.404703) scale(0.11 -0.11)">
       <use xlink:href="#ArialMT-2212"/>
       <use xlink:href="#ArialMT-31" x="58.398438"/>
       <use xlink:href="#ArialMT-30" x="114.013672"/>
       <use xlink:href="#ArialMT-30" x="169.628906"/>
       <use xlink:href="#ArialMT-30" x="225.244141"/>
       <use xlink:href="#ArialMT-30" x="280.859375"/>
      </g>
     </g>
    </g>
    <g id="ytick_3">
     <g id="text_5">
      <!-- −5000 -->
      <g style="fill: #262626" transform="translate(30.637031 149.469549) scale(0.11 -0.11)">
       <use xlink:href="#ArialMT-2212"/>
       <use xlink:href="#ArialMT-35" x="58.398438"/>
       <use xlink:href="#ArialMT-30" x="114.013672"/>
       <use xlink:href="#ArialMT-30" x="169.628906"/>
       <use xlink:href="#ArialMT-30" x="225.244141"/>
      </g>
     </g>
    </g>
    <g id="ytick_4">
     <g id="text_6">
      <!-- 0 -->
      <g style="fill: #262626" transform="translate(55.412813 120.534395) scale(0.11 -0.11)">
       <use xlink:href="#ArialMT-30"/>
      </g>
     </g>
    </g>
    <g id="ytick_5">
     <g id="text_7">
      <!-- 5000 -->
      <g style="fill: #262626" transform="translate(37.061719 91.599242) scale(0.11 -0.11)">
       <use xlink:href="#ArialMT-35"/>
       <use xlink:href="#ArialMT-30" x="55.615234"/>
       <use xlink:href="#ArialMT-30" x="111.230469"/>
       <use xlink:href="#ArialMT-30" x="166.845703"/>
      </g>
     </g>
    </g>
    <g id="ytick_6">
     <g id="text_8">
      <!-- 10000 -->
      <g style="fill: #262626" transform="translate(30.944687 62.664088) scale(0.11 -0.11)">
       <use xlink:href="#ArialMT-31"/>
       <use xlink:href="#ArialMT-30" x="55.615234"/>
       <use xlink:href="#ArialMT-30" x="111.230469"/>
       <use xlink:href="#ArialMT-30" x="166.845703"/>
       <use xlink:href="#ArialMT-30" x="222.460938"/>
      </g>
     </g>
    </g>
    <g id="ytick_7">
     <g id="text_9">
      <!-- 15000 -->
      <g style="fill: #262626" transform="translate(30.944687 33.728934) scale(0.11 -0.11)">
       <use xlink:href="#ArialMT-31"/>
       <use xlink:href="#ArialMT-35" x="55.615234"/>
       <use xlink:href="#ArialMT-30" x="111.230469"/>
       <use xlink:href="#ArialMT-30" x="166.845703"/>
       <use xlink:href="#ArialMT-30" x="222.460938"/>
      </g>
     </g>
    </g>
    <g id="text_10">
     <!-- sGMV residuals [mm$^3$] -->
     <g style="fill: #262626" transform="translate(18.12 178.32) rotate(-90) scale(0.12 -0.12)">
      <defs>
       <path id="ArialMT-73" d="M 197 991 
L 753 1078 
Q 800 744 1014 566 
Q 1228 388 1613 388 
Q 2000 388 2187 545 
Q 2375 703 2375 916 
Q 2375 1106 2209 1216 
Q 2094 1291 1634 1406 
Q 1016 1563 777 1677 
Q 538 1791 414 1992 
Q 291 2194 291 2438 
Q 291 2659 392 2848 
Q 494 3038 669 3163 
Q 800 3259 1026 3326 
Q 1253 3394 1513 3394 
Q 1903 3394 2198 3281 
Q 2494 3169 2634 2976 
Q 2775 2784 2828 2463 
L 2278 2388 
Q 2241 2644 2061 2787 
Q 1881 2931 1553 2931 
Q 1166 2931 1000 2803 
Q 834 2675 834 2503 
Q 834 2394 903 2306 
Q 972 2216 1119 2156 
Q 1203 2125 1616 2013 
Q 2213 1853 2448 1751 
Q 2684 1650 2818 1456 
Q 2953 1263 2953 975 
Q 2953 694 2789 445 
Q 2625 197 2315 61 
Q 2006 -75 1616 -75 
Q 969 -75 630 194 
Q 291 463 197 991 
z
" transform="scale(0.015625)"/>
       <path id="ArialMT-47" d="M 2638 1797 
L 2638 2334 
L 4578 2338 
L 4578 638 
Q 4131 281 3656 101 
Q 3181 -78 2681 -78 
Q 2006 -78 1454 211 
Q 903 500 622 1047 
Q 341 1594 341 2269 
Q 341 2938 620 3517 
Q 900 4097 1425 4378 
Q 1950 4659 2634 4659 
Q 3131 4659 3532 4498 
Q 3934 4338 4162 4050 
Q 4391 3763 4509 3300 
L 3963 3150 
Q 3859 3500 3706 3700 
Q 3553 3900 3268 4020 
Q 2984 4141 2638 4141 
Q 2222 4141 1919 4014 
Q 1616 3888 1430 3681 
Q 1244 3475 1141 3228 
Q 966 2803 966 2306 
Q 966 1694 1177 1281 
Q 1388 869 1791 669 
Q 2194 469 2647 469 
Q 3041 469 3416 620 
Q 3791 772 3984 944 
L 3984 1797 
L 2638 1797 
z
" transform="scale(0.015625)"/>
       <path id="ArialMT-4d" d="M 475 0 
L 475 4581 
L 1388 4581 
L 2472 1338 
Q 2622 884 2691 659 
Q 2769 909 2934 1394 
L 4031 4581 
L 4847 4581 
L 4847 0 
L 4263 0 
L 4263 3834 
L 2931 0 
L 2384 0 
L 1059 3900 
L 1059 0 
L 475 0 
z
" transform="scale(0.015625)"/>
       <path id="ArialMT-56" d="M 1803 0 
L 28 4581 
L 684 4581 
L 1875 1253 
Q 2019 853 2116 503 
Q 2222 878 2363 1253 
L 3600 4581 
L 4219 4581 
L 2425 0 
L 1803 0 
z
" transform="scale(0.015625)"/>
       <path id="ArialMT-20" transform="scale(0.015625)"/>
       <path id="ArialMT-69" d="M 425 3934 
L 425 4581 
L 988 4581 
L 988 3934 
L 425 3934 
z
M 425 0 
L 425 3319 
L 988 3319 
L 988 0 
L 425 0 
z
" transform="scale(0.015625)"/>
       <path id="ArialMT-64" d="M 2575 0 
L 2575 419 
Q 2259 -75 1647 -75 
Q 1250 -75 917 144 
Q 584 363 401 755 
Q 219 1147 219 1656 
Q 219 2153 384 2558 
Q 550 2963 881 3178 
Q 1213 3394 1622 3394 
Q 1922 3394 2156 3267 
Q 2391 3141 2538 2938 
L 2538 4581 
L 3097 4581 
L 3097 0 
L 2575 0 
z
M 797 1656 
Q 797 1019 1065 703 
Q 1334 388 1700 388 
Q 2069 388 2326 689 
Q 2584 991 2584 1609 
Q 2584 2291 2321 2609 
Q 2059 2928 1675 2928 
Q 1300 2928 1048 2622 
Q 797 2316 797 1656 
z
" transform="scale(0.015625)"/>
       <path id="ArialMT-75" d="M 2597 0 
L 2597 488 
Q 2209 -75 1544 -75 
Q 1250 -75 995 37 
Q 741 150 617 320 
Q 494 491 444 738 
Q 409 903 409 1263 
L 409 3319 
L 972 3319 
L 972 1478 
Q 972 1038 1006 884 
Q 1059 663 1231 536 
Q 1403 409 1656 409 
Q 1909 409 2131 539 
Q 2353 669 2445 892 
Q 2538 1116 2538 1541 
L 2538 3319 
L 3100 3319 
L 3100 0 
L 2597 0 
z
" transform="scale(0.015625)"/>
       <path id="ArialMT-61" d="M 2588 409 
Q 2275 144 1986 34 
Q 1697 -75 1366 -75 
Q 819 -75 525 192 
Q 231 459 231 875 
Q 231 1119 342 1320 
Q 453 1522 633 1644 
Q 813 1766 1038 1828 
Q 1203 1872 1538 1913 
Q 2219 1994 2541 2106 
Q 2544 2222 2544 2253 
Q 2544 2597 2384 2738 
Q 2169 2928 1744 2928 
Q 1347 2928 1158 2789 
Q 969 2650 878 2297 
L 328 2372 
Q 403 2725 575 2942 
Q 747 3159 1072 3276 
Q 1397 3394 1825 3394 
Q 2250 3394 2515 3294 
Q 2781 3194 2906 3042 
Q 3031 2891 3081 2659 
Q 3109 2516 3109 2141 
L 3109 1391 
Q 3109 606 3145 398 
Q 3181 191 3288 0 
L 2700 0 
Q 2613 175 2588 409 
z
M 2541 1666 
Q 2234 1541 1622 1453 
Q 1275 1403 1131 1340 
Q 988 1278 909 1158 
Q 831 1038 831 891 
Q 831 666 1001 516 
Q 1172 366 1500 366 
Q 1825 366 2078 508 
Q 2331 650 2450 897 
Q 2541 1088 2541 1459 
L 2541 1666 
z
" transform="scale(0.015625)"/>
       <path id="ArialMT-6c" d="M 409 0 
L 409 4581 
L 972 4581 
L 972 0 
L 409 0 
z
" transform="scale(0.015625)"/>
       <path id="ArialMT-5b" d="M 434 -1272 
L 434 4581 
L 1675 4581 
L 1675 4116 
L 997 4116 
L 997 -806 
L 1675 -806 
L 1675 -1272 
L 434 -1272 
z
" transform="scale(0.015625)"/>
       <path id="DejaVuSans-33" d="M 2597 2516 
Q 3050 2419 3304 2112 
Q 3559 1806 3559 1356 
Q 3559 666 3084 287 
Q 2609 -91 1734 -91 
Q 1441 -91 1130 -33 
Q 819 25 488 141 
L 488 750 
Q 750 597 1062 519 
Q 1375 441 1716 441 
Q 2309 441 2620 675 
Q 2931 909 2931 1356 
Q 2931 1769 2642 2001 
Q 2353 2234 1838 2234 
L 1294 2234 
L 1294 2753 
L 1863 2753 
Q 2328 2753 2575 2939 
Q 2822 3125 2822 3475 
Q 2822 3834 2567 4026 
Q 2313 4219 1838 4219 
Q 1578 4219 1281 4162 
Q 984 4106 628 3988 
L 628 4550 
Q 988 4650 1302 4700 
Q 1616 4750 1894 4750 
Q 2613 4750 3031 4423 
Q 3450 4097 3450 3541 
Q 3450 3153 3228 2886 
Q 3006 2619 2597 2516 
z
" transform="scale(0.015625)"/>
       <path id="ArialMT-5d" d="M 1363 -1272 
L 122 -1272 
L 122 -806 
L 800 -806 
L 800 4116 
L 122 4116 
L 122 4581 
L 1363 4581 
L 1363 -1272 
z
" transform="scale(0.015625)"/>
      </defs>
      <use xlink:href="#ArialMT-73" transform="translate(0 0.765625)"/>
      <use xlink:href="#ArialMT-47" transform="translate(50 0.765625)"/>
      <use xlink:href="#ArialMT-4d" transform="translate(127.783203 0.765625)"/>
      <use xlink:href="#ArialMT-56" transform="translate(211.083984 0.765625)"/>
      <use xlink:href="#ArialMT-20" transform="translate(277.783203 0.765625)"/>
      <use xlink:href="#ArialMT-72" transform="translate(305.566406 0.765625)"/>
      <use xlink:href="#ArialMT-65" transform="translate(338.867188 0.765625)"/>
      <use xlink:href="#ArialMT-73" transform="translate(394.482422 0.765625)"/>
      <use xlink:href="#ArialMT-69" transform="translate(444.482422 0.765625)"/>
      <use xlink:href="#ArialMT-64" transform="translate(466.699219 0.765625)"/>
      <use xlink:href="#ArialMT-75" transform="translate(522.314453 0.765625)"/>
      <use xlink:href="#ArialMT-61" transform="translate(577.929688 0.765625)"/>
      <use xlink:href="#ArialMT-6c" transform="translate(633.544922 0.765625)"/>
      <use xlink:href="#ArialMT-73" transform="translate(655.761719 0.765625)"/>
      <use xlink:href="#ArialMT-20" transform="translate(705.761719 0.765625)"/>
      <use xlink:href="#ArialMT-5b" transform="translate(733.544922 0.765625)"/>
      <use xlink:href="#ArialMT-6d" transform="translate(761.328125 0.765625)"/>
      <use xlink:href="#ArialMT-6d" transform="translate(844.628906 0.765625)"/>
      <use xlink:href="#DejaVuSans-33" transform="translate(928.886719 39.046875) scale(0.7)"/>
      <use xlink:href="#ArialMT-5d" transform="translate(976.157227 0.765625)"/>
     </g>
    </g>
   </g>
   <g id="PolyCollection_1">
    <defs>
     <path id="m3a7fb81a67" d="M 112.571095 -54.22291 
L 112.343138 -54.22291 
L 112.294023 -55.997996 
L 112.231736 -57.773083 
L 112.156278 -59.548169 
L 112.069145 -61.323255 
L 111.973526 -63.098341 
L 111.874193 -64.873428 
L 111.777041 -66.648514 
L 111.688271 -68.4236 
L 111.613363 -70.198686 
L 111.556021 -71.973773 
L 111.517368 -73.748859 
L 111.495576 -75.523945 
L 111.486099 -77.299031 
L 111.482443 -79.074118 
L 111.47732 -80.849204 
L 111.463878 -82.62429 
L 111.436687 -84.399376 
L 111.39219 -86.174463 
L 111.328508 -87.949549 
L 111.244633 -89.724635 
L 111.139226 -91.499721 
L 111.00935 -93.274808 
L 110.849474 -95.049894 
L 110.651019 -96.82498 
L 110.402596 -98.600066 
L 110.090897 -100.375153 
L 109.702086 -102.150239 
L 109.223435 -103.925325 
L 108.644898 -105.700411 
L 107.960384 -107.475498 
L 107.168522 -109.250584 
L 106.272836 -111.02567 
L 105.281338 -112.800756 
L 104.205626 -114.575843 
L 103.059627 -116.350929 
L 101.858132 -118.126015 
L 100.615253 -119.901101 
L 99.342933 -121.676188 
L 98.049642 -123.451274 
L 96.739455 -125.22636 
L 95.411763 -127.001446 
L 94.061864 -128.776533 
L 92.682623 -130.551619 
L 91.26717 -132.326705 
L 89.812341 -134.101791 
L 88.322262 -135.876878 
L 86.811335 -137.651964 
L 85.305851 -139.42705 
L 83.843694 -141.202136 
L 82.471941 -142.977223 
L 81.242568 -144.752309 
L 80.206836 -146.527395 
L 79.409181 -148.302481 
L 78.881527 -150.077568 
L 78.638935 -151.852654 
L 78.677297 -153.62774 
L 78.973552 -155.402826 
L 79.488485 -157.177913 
L 80.171736 -158.952999 
L 80.968257 -160.728085 
L 81.825122 -162.503171 
L 82.697579 -164.278258 
L 83.55338 -166.053344 
L 84.374828 -167.82843 
L 85.158475 -169.603516 
L 85.912849 -171.378603 
L 86.654913 -173.153689 
L 87.406056 -174.928775 
L 88.188357 -176.703861 
L 89.021652 -178.478948 
L 89.921658 -180.254034 
L 90.899142 -182.02912 
L 91.959895 -183.804206 
L 93.105132 -185.579293 
L 94.331924 -187.354379 
L 95.633372 -189.129465 
L 96.998399 -190.904551 
L 98.411327 -192.679638 
L 99.851569 -194.454724 
L 101.293865 -196.22981 
L 102.709413 -198.004896 
L 104.067979 -199.779982 
L 105.340756 -201.555069 
L 106.503449 -203.330155 
L 107.538901 -205.105241 
L 108.438679 -206.880327 
L 109.203246 -208.655414 
L 109.840765 -210.4305 
L 110.364882 -212.205586 
L 110.792054 -213.980672 
L 111.139052 -215.755759 
L 111.421071 -217.530845 
L 111.65069 -219.305931 
L 111.837642 -221.081017 
L 111.98918 -222.856104 
L 112.110742 -224.63119 
L 112.206651 -226.406276 
L 112.280657 -228.181362 
L 112.336251 -229.956449 
L 112.577982 -229.956449 
L 112.577982 -229.956449 
L 112.633576 -228.181362 
L 112.707582 -226.406276 
L 112.803491 -224.63119 
L 112.925053 -222.856104 
L 113.076591 -221.081017 
L 113.263543 -219.305931 
L 113.493162 -217.530845 
L 113.775181 -215.755759 
L 114.122179 -213.980672 
L 114.549351 -212.205586 
L 115.073468 -210.4305 
L 115.710987 -208.655414 
L 116.475554 -206.880327 
L 117.375332 -205.105241 
L 118.410784 -203.330155 
L 119.573477 -201.555069 
L 120.846254 -199.779982 
L 122.20482 -198.004896 
L 123.620368 -196.22981 
L 125.062664 -194.454724 
L 126.502906 -192.679638 
L 127.915834 -190.904551 
L 129.280861 -189.129465 
L 130.582309 -187.354379 
L 131.809101 -185.579293 
L 132.954338 -183.804206 
L 134.015091 -182.02912 
L 134.992575 -180.254034 
L 135.892581 -178.478948 
L 136.725876 -176.703861 
L 137.508177 -174.928775 
L 138.25932 -173.153689 
L 139.001384 -171.378603 
L 139.755758 -169.603516 
L 140.539405 -167.82843 
L 141.360853 -166.053344 
L 142.216654 -164.278258 
L 143.089111 -162.503171 
L 143.945976 -160.728085 
L 144.742497 -158.952999 
L 145.425748 -157.177913 
L 145.940681 -155.402826 
L 146.236936 -153.62774 
L 146.275298 -151.852654 
L 146.032706 -150.077568 
L 145.505052 -148.302481 
L 144.707397 -146.527395 
L 143.671665 -144.752309 
L 142.442292 -142.977223 
L 141.070539 -141.202136 
L 139.608382 -139.42705 
L 138.102898 -137.651964 
L 136.591971 -135.876878 
L 135.101892 -134.101791 
L 133.647063 -132.326705 
L 132.23161 -130.551619 
L 130.852369 -128.776533 
L 129.50247 -127.001446 
L 128.174778 -125.22636 
L 126.864591 -123.451274 
L 125.5713 -121.676188 
L 124.29898 -119.901101 
L 123.056101 -118.126015 
L 121.854606 -116.350929 
L 120.708607 -114.575843 
L 119.632895 -112.800756 
L 118.641397 -111.02567 
L 117.745711 -109.250584 
L 116.953849 -107.475498 
L 116.269335 -105.700411 
L 115.690798 -103.925325 
L 115.212147 -102.150239 
L 114.823336 -100.375153 
L 114.511637 -98.600066 
L 114.263214 -96.82498 
L 114.064759 -95.049894 
L 113.904883 -93.274808 
L 113.775007 -91.499721 
L 113.6696 -89.724635 
L 113.585725 -87.949549 
L 113.522043 -86.174463 
L 113.477546 -84.399376 
L 113.450355 -82.62429 
L 113.436913 -80.849204 
L 113.43179 -79.074118 
L 113.428134 -77.299031 
L 113.418657 -75.523945 
L 113.396865 -73.748859 
L 113.358211 -71.973773 
L 113.30087 -70.198686 
L 113.225962 -68.4236 
L 113.137192 -66.648514 
L 113.04004 -64.873428 
L 112.940707 -63.098341 
L 112.845088 -61.323255 
L 112.757955 -59.548169 
L 112.682497 -57.773083 
L 112.62021 -55.997996 
L 112.571095 -54.22291 
z
" style="stroke: #4c4c4c; stroke-width: 0.5"/>
    </defs>
    <g clip-path="url(#pefe05ca040)">
     <use xlink:href="#m3a7fb81a67" x="0" y="255.719844" style="fill: #5573cd; stroke: #4c4c4c; stroke-width: 0.5"/>
    </g>
   </g>
   <g id="PolyCollection_2">
    <defs>
     <path id="mc00f42df5d" d="M 197.318556 -36.640935 
L 196.686586 -36.640935 
L 196.552132 -38.637115 
L 196.37546 -40.633295 
L 196.149281 -42.629475 
L 195.866895 -44.625655 
L 195.522641 -46.621835 
L 195.112196 -48.618015 
L 194.632632 -50.614195 
L 194.082184 -52.610375 
L 193.459737 -54.606555 
L 192.764118 -56.602735 
L 191.99336 -58.598915 
L 191.144127 -60.595095 
L 190.211523 -62.591275 
L 189.189437 -64.587455 
L 188.071503 -66.583635 
L 186.852635 -68.579815 
L 185.530978 -70.575995 
L 184.110003 -72.572175 
L 182.600412 -74.568355 
L 181.021479 -76.564535 
L 179.401477 -78.560715 
L 177.776923 -80.556895 
L 176.190488 -82.553075 
L 174.687618 -84.549255 
L 173.312111 -86.545435 
L 172.101139 -88.541615 
L 171.080392 -90.537795 
L 170.260127 -92.533975 
L 169.632894 -94.530155 
L 169.173517 -96.526335 
L 168.841605 -98.522515 
L 168.586413 -100.518695 
L 168.353459 -102.514875 
L 168.091922 -104.511055 
L 167.761662 -106.507235 
L 167.338737 -108.503415 
L 166.818528 -110.499595 
L 166.216022 -112.495775 
L 165.563312 -114.491955 
L 164.904848 -116.488135 
L 164.291317 -118.484315 
L 163.773229 -120.480495 
L 163.39519 -122.476675 
L 163.191628 -124.472855 
L 163.184389 -126.469035 
L 163.382242 -128.465215 
L 163.781988 -130.461395 
L 164.370714 -132.457575 
L 165.128631 -134.453755 
L 166.03201 -136.449935 
L 167.05586 -138.446115 
L 168.176134 -140.442295 
L 169.37136 -142.438475 
L 170.623681 -144.434655 
L 171.919271 -146.430836 
L 173.248166 -148.427016 
L 174.603516 -150.423196 
L 175.980371 -152.419376 
L 177.374168 -154.415556 
L 178.779203 -156.411736 
L 180.187373 -158.407916 
L 181.587495 -160.404096 
L 182.965365 -162.400276 
L 184.304574 -164.396456 
L 185.587935 -166.392636 
L 186.799184 -168.388816 
L 187.924623 -170.384996 
L 188.95434 -172.381176 
L 189.882805 -174.377356 
L 190.708789 -176.373536 
L 191.434709 -178.369716 
L 192.065637 -180.365896 
L 192.60825 -182.362076 
L 193.069947 -184.358256 
L 193.458291 -186.354436 
L 193.780818 -188.350616 
L 194.045118 -190.346796 
L 194.259065 -192.342976 
L 194.431031 -194.339156 
L 194.569949 -196.335336 
L 194.685161 -198.331516 
L 194.786037 -200.327696 
L 194.881433 -202.323876 
L 194.979084 -204.320056 
L 195.085033 -206.316236 
L 195.203218 -208.312416 
L 195.335264 -210.308596 
L 195.480536 -212.304776 
L 195.63642 -214.300956 
L 195.79881 -216.297136 
L 195.962714 -218.293316 
L 196.122899 -220.289496 
L 196.274485 -222.285676 
L 196.413426 -224.281856 
L 196.536822 -226.278036 
L 196.643048 -228.274216 
L 196.731718 -230.270396 
L 196.803509 -232.266576 
L 196.859902 -234.262756 
L 197.14524 -234.262756 
L 197.14524 -234.262756 
L 197.201633 -232.266576 
L 197.273424 -230.270396 
L 197.362094 -228.274216 
L 197.468321 -226.278036 
L 197.591716 -224.281856 
L 197.730657 -222.285676 
L 197.882243 -220.289496 
L 198.042428 -218.293316 
L 198.206333 -216.297136 
L 198.368722 -214.300956 
L 198.524606 -212.304776 
L 198.669878 -210.308596 
L 198.801924 -208.312416 
L 198.920109 -206.316236 
L 199.026058 -204.320056 
L 199.123709 -202.323876 
L 199.219105 -200.327696 
L 199.319981 -198.331516 
L 199.435193 -196.335336 
L 199.574111 -194.339156 
L 199.746077 -192.342976 
L 199.960024 -190.346796 
L 200.224324 -188.350616 
L 200.546851 -186.354436 
L 200.935196 -184.358256 
L 201.396892 -182.362076 
L 201.939505 -180.365896 
L 202.570434 -178.369716 
L 203.296353 -176.373536 
L 204.122337 -174.377356 
L 205.050802 -172.381176 
L 206.080519 -170.384996 
L 207.205958 -168.388816 
L 208.417207 -166.392636 
L 209.700568 -164.396456 
L 211.039777 -162.400276 
L 212.417647 -160.404096 
L 213.817769 -158.407916 
L 215.225939 -156.411736 
L 216.630974 -154.415556 
L 218.024771 -152.419376 
L 219.401626 -150.423196 
L 220.756976 -148.427016 
L 222.085871 -146.430836 
L 223.381461 -144.434655 
L 224.633782 -142.438475 
L 225.829008 -140.442295 
L 226.949282 -138.446115 
L 227.973132 -136.449935 
L 228.876511 -134.453755 
L 229.634428 -132.457575 
L 230.223154 -130.461395 
L 230.6229 -128.465215 
L 230.820753 -126.469035 
L 230.813515 -124.472855 
L 230.609952 -122.476675 
L 230.231913 -120.480495 
L 229.713825 -118.484315 
L 229.100294 -116.488135 
L 228.44183 -114.491955 
L 227.789121 -112.495775 
L 227.186614 -110.499595 
L 226.666405 -108.503415 
L 226.24348 -106.507235 
L 225.913221 -104.511055 
L 225.651683 -102.514875 
L 225.418729 -100.518695 
L 225.163537 -98.522515 
L 224.831625 -96.526335 
L 224.372248 -94.530155 
L 223.745015 -92.533975 
L 222.92475 -90.537795 
L 221.904003 -88.541615 
L 220.693031 -86.545435 
L 219.317524 -84.549255 
L 217.814654 -82.553075 
L 216.228219 -80.556895 
L 214.603665 -78.560715 
L 212.983663 -76.564535 
L 211.40473 -74.568355 
L 209.895139 -72.572175 
L 208.474164 -70.575995 
L 207.152507 -68.579815 
L 205.933639 -66.583635 
L 204.815705 -64.587455 
L 203.793619 -62.591275 
L 202.861015 -60.595095 
L 202.011782 -58.598915 
L 201.241024 -56.602735 
L 200.545405 -54.606555 
L 199.922958 -52.610375 
L 199.37251 -50.614195 
L 198.892946 -48.618015 
L 198.482501 -46.621835 
L 198.138247 -44.625655 
L 197.855861 -42.629475 
L 197.629682 -40.633295 
L 197.45301 -38.637115 
L 197.318556 -36.640935 
z
" style="stroke: #4c4c4c; stroke-width: 0.5"/>
    </defs>
    <g clip-path="url(#pefe05ca040)">
     <use xlink:href="#mc00f42df5d" x="0" y="255.719844" style="fill: #df8920; stroke: #4c4c4c; stroke-width: 0.5"/>
    </g>
   </g>
   <g id="line2d_1">
    <path d="M 112.457116 149.311194 
L 112.457116 44.687101 
" clip-path="url(#pefe05ca040)" style="fill: none; stroke: #4c4c4c; stroke-width: 0.75; stroke-linecap: round"/>
   </g>
   <g id="line2d_2">
    <path d="M 112.457116 114.23619 
L 112.457116 82.426539 
" clip-path="url(#pefe05ca040)" style="fill: none; stroke: #4c4c4c; stroke-width: 2.25; stroke-linecap: round"/>
   </g>
   <g id="line2d_3">
    <path d="M 112.457116 100.801073 
" clip-path="url(#pefe05ca040)" style="fill: none; stroke: #4c4c4c; stroke-width: 1.5; stroke-linecap: round"/>
    <defs>
     <path id="m255cf0a49c" d="M 0.9375 0 
L -0.9375 -0 
" style="stroke: #ffffff; stroke-width: 0.45"/>
    </defs>
    <g clip-path="url(#pefe05ca040)">
     <use xlink:href="#m255cf0a49c" x="112.457116" y="100.801073" style="fill: #ffffff; stroke: #ffffff; stroke-width: 0.45"/>
    </g>
   </g>
   <g id="line2d_4">
    <path d="M 197.002571 195.019624 
L 197.002571 57.010616 
" clip-path="url(#pefe05ca040)" style="fill: none; stroke: #4c4c4c; stroke-width: 0.75; stroke-linecap: round"/>
   </g>
   <g id="line2d_5">
    <path d="M 197.002571 160.055062 
L 197.002571 115.5255 
" clip-path="url(#pefe05ca040)" style="fill: none; stroke: #4c4c4c; stroke-width: 2.25; stroke-linecap: round"/>
   </g>
   <g id="line2d_6">
    <path d="M 197.002571 134.116354 
" clip-path="url(#pefe05ca040)" style="fill: none; stroke: #4c4c4c; stroke-width: 1.5; stroke-linecap: round"/>
    <g clip-path="url(#pefe05ca040)">
     <use xlink:href="#m255cf0a49c" x="197.002571" y="134.116354" style="fill: #ffffff; stroke: #ffffff; stroke-width: 0.45"/>
    </g>
   </g>
   <g id="line2d_7">
    <path d="M 112.457116 31.644061 
L 112.457116 27.296381 
L 197.002571 27.296381 
L 197.002571 31.644061 
" style="fill: none; stroke: #333333; stroke-width: 0.5; stroke-linecap: round"/>
   </g>
   <g id="patch_3">
    <path d="M 71.029844 228.96 
L 71.029844 7.2 
" style="fill: none; stroke: #262626; stroke-width: 1.25; stroke-linejoin: miter; stroke-linecap: square"/>
   </g>
   <g id="patch_4">
    <path d="M 71.029844 228.96 
L 238.429844 228.96 
" style="fill: none; stroke: #262626; stroke-width: 1.25; stroke-linejoin: miter; stroke-linecap: square"/>
   </g>
   <g id="text_11">
    <!-- **** -->
    <g style="fill: #262626" transform="translate(145.388594 23.911381) scale(0.12 -0.12)">
     <defs>
      <path id="ArialMT-2a" d="M 200 3741 
L 344 4184 
Q 841 4009 1066 3881 
Q 1006 4447 1003 4659 
L 1456 4659 
Q 1447 4350 1384 3884 
Q 1706 4047 2122 4184 
L 2266 3741 
Q 1869 3609 1488 3566 
Q 1678 3400 2025 2975 
L 1650 2709 
Q 1469 2956 1222 3381 
Q 991 2941 816 2709 
L 447 2975 
Q 809 3422 966 3566 
Q 563 3644 200 3741 
z
" transform="scale(0.015625)"/>
     </defs>
     <use xlink:href="#ArialMT-2a"/>
     <use xlink:href="#ArialMT-2a" x="38.916016"/>
     <use xlink:href="#ArialMT-2a" x="77.832031"/>
     <use xlink:href="#ArialMT-2a" x="116.748047"/>
    </g>
   </g>
  </g>
 </g>
 <defs>
  <clipPath id="pefe05ca040">
   <rect x="71.029844" y="7.2" width="167.4" height="221.76"/>
  </clipPath>
 </defs>
</svg>
