<?xml version="1.0" encoding="utf-8" standalone="no"?>
<!DOCTYPE svg PUBLIC "-//W3C//DTD SVG 1.1//EN"
  "http://www.w3.org/Graphics/SVG/1.1/DTD/svg11.dtd">
<svg xmlns:xlink="http://www.w3.org/1999/xlink" width="239.205156pt" height="258.560083pt" viewBox="0 0 239.205156 258.560083" xmlns="http://www.w3.org/2000/svg" version="1.1">
 <metadata>
  <rdf:RDF xmlns:dc="http://purl.org/dc/elements/1.1/" xmlns:cc="http://creativecommons.org/ns#" xmlns:rdf="http://www.w3.org/1999/02/22-rdf-syntax-ns#">
   <cc:Work>
    <dc:type rdf:resource="http://purl.org/dc/dcmitype/StillImage"/>
    <dc:date>2025-05-29T11:58:25.500120</dc:date>
    <dc:format>image/svg+xml</dc:format>
    <dc:creator>
     <cc:Agent>
      <dc:title>Matplotlib v3.9.2, https://matplotlib.org/</dc:title>
     </cc:Agent>
    </dc:creator>
   </cc:Work>
  </rdf:RDF>
 </metadata>
 <defs>
  <style type="text/css">*{stroke-linejoin: round; stroke-linecap: butt}</style>
 </defs>
 <g id="figure_1">
  <g id="patch_1">
   <path d="M 0 258.560083 
L 239.205156 258.560083 
L 239.205156 0 
L 0 0 
z
" style="fill: #ffffff"/>
  </g>
  <g id="axes_1">
   <g id="patch_2">
    <path d="M 64.605156 231.800239 
L 232.005156 231.800239 
L 232.005156 10.040239 
L 64.605156 10.040239 
z
" style="fill: #ffffff"/>
   </g>
   <g id="matplotlib.axis_1">
    <g id="xtick_1">
     <g id="text_1">
      <!-- Term -->
      <g style="fill: #262626" transform="translate(93.813835 249.173833) scale(0.11 -0.11)">
       <defs>
        <path id="ArialMT-54" d="M 1659 0 
L 1659 4041 
L 150 4041 
L 150 4581 
L 3781 4581 
L 3781 4041 
L 2266 4041 
L 2266 0 
L 1659 0 
z
" transform="scale(0.015625)"/>
        <path id="ArialMT-65" d="M 2694 1069 
L 3275 997 
Q 3138 488 2766 206 
Q 2394 -75 1816 -75 
Q 1088 -75 661 373 
Q 234 822 234 1631 
Q 234 2469 665 2931 
Q 1097 3394 1784 3394 
Q 2450 3394 2872 2941 
Q 3294 2488 3294 1666 
Q 3294 1616 3291 1516 
L 816 1516 
Q 847 969 1125 678 
Q 1403 388 1819 388 
Q 2128 388 2347 550 
Q 2566 713 2694 1069 
z
M 847 1978 
L 2700 1978 
Q 2663 2397 2488 2606 
Q 2219 2931 1791 2931 
Q 1403 2931 1139 2672 
Q 875 2413 847 1978 
z
" transform="scale(0.015625)"/>
        <path id="ArialMT-72" d="M 416 0 
L 416 3319 
L 922 3319 
L 922 2816 
Q 1116 3169 1280 3281 
Q 1444 3394 1641 3394 
Q 1925 3394 2219 3213 
L 2025 2691 
Q 1819 2813 1613 2813 
Q 1428 2813 1281 2702 
Q 1134 2591 1072 2394 
Q 978 2094 978 1738 
L 978 0 
L 416 0 
z
" transform="scale(0.015625)"/>
        <path id="ArialMT-6d" d="M 422 0 
L 422 3319 
L 925 3319 
L 925 2853 
Q 1081 3097 1340 3245 
Q 1600 3394 1931 3394 
Q 2300 3394 2536 3241 
Q 2772 3088 2869 2813 
Q 3263 3394 3894 3394 
Q 4388 3394 4653 3120 
Q 4919 2847 4919 2278 
L 4919 0 
L 4359 0 
L 4359 2091 
Q 4359 2428 4304 2576 
Q 4250 2725 4106 2815 
Q 3963 2906 3769 2906 
Q 3419 2906 3187 2673 
Q 2956 2441 2956 1928 
L 2956 0 
L 2394 0 
L 2394 2156 
Q 2394 2531 2256 2718 
Q 2119 2906 1806 2906 
Q 1569 2906 1367 2781 
Q 1166 2656 1075 2415 
Q 984 2175 984 1722 
L 984 0 
L 422 0 
z
" transform="scale(0.015625)"/>
       </defs>
       <use xlink:href="#ArialMT-54"/>
       <use xlink:href="#ArialMT-65" x="49.958984"/>
       <use xlink:href="#ArialMT-72" x="105.574219"/>
       <use xlink:href="#ArialMT-6d" x="138.875"/>
      </g>
     </g>
    </g>
    <g id="xtick_2">
     <g id="text_2">
      <!-- Preterm -->
      <g style="fill: #262626" transform="translate(171.020227 249.173833) scale(0.11 -0.11)">
       <defs>
        <path id="ArialMT-50" d="M 494 0 
L 494 4581 
L 2222 4581 
Q 2678 4581 2919 4538 
Q 3256 4481 3484 4323 
Q 3713 4166 3852 3881 
Q 3991 3597 3991 3256 
Q 3991 2672 3619 2267 
Q 3247 1863 2275 1863 
L 1100 1863 
L 1100 0 
L 494 0 
z
M 1100 2403 
L 2284 2403 
Q 2872 2403 3119 2622 
Q 3366 2841 3366 3238 
Q 3366 3525 3220 3729 
Q 3075 3934 2838 4000 
Q 2684 4041 2272 4041 
L 1100 4041 
L 1100 2403 
z
" transform="scale(0.015625)"/>
        <path id="ArialMT-74" d="M 1650 503 
L 1731 6 
Q 1494 -44 1306 -44 
Q 1000 -44 831 53 
Q 663 150 594 308 
Q 525 466 525 972 
L 525 2881 
L 113 2881 
L 113 3319 
L 525 3319 
L 525 4141 
L 1084 4478 
L 1084 3319 
L 1650 3319 
L 1650 2881 
L 1084 2881 
L 1084 941 
Q 1084 700 1114 631 
Q 1144 563 1211 522 
Q 1278 481 1403 481 
Q 1497 481 1650 503 
z
" transform="scale(0.015625)"/>
       </defs>
       <use xlink:href="#ArialMT-50"/>
       <use xlink:href="#ArialMT-72" x="66.699219"/>
       <use xlink:href="#ArialMT-65" x="100"/>
       <use xlink:href="#ArialMT-74" x="155.615234"/>
       <use xlink:href="#ArialMT-65" x="183.398438"/>
       <use xlink:href="#ArialMT-72" x="239.013672"/>
       <use xlink:href="#ArialMT-6d" x="272.314453"/>
      </g>
     </g>
    </g>
   </g>
   <g id="matplotlib.axis_2">
    <g id="ytick_1">
     <g id="text_3">
      <!-- 40000 -->
      <g style="fill: #262626" transform="translate(24.52 201.156313) scale(0.11 -0.11)">
       <defs>
        <path id="ArialMT-34" d="M 2069 0 
L 2069 1097 
L 81 1097 
L 81 1613 
L 2172 4581 
L 2631 4581 
L 2631 1613 
L 3250 1613 
L 3250 1097 
L 2631 1097 
L 2631 0 
L 2069 0 
z
M 2069 1613 
L 2069 3678 
L 634 1613 
L 2069 1613 
z
" transform="scale(0.015625)"/>
        <path id="ArialMT-30" d="M 266 2259 
Q 266 3072 433 3567 
Q 600 4063 929 4331 
Q 1259 4600 1759 4600 
Q 2128 4600 2406 4451 
Q 2684 4303 2865 4023 
Q 3047 3744 3150 3342 
Q 3253 2941 3253 2259 
Q 3253 1453 3087 958 
Q 2922 463 2592 192 
Q 2263 -78 1759 -78 
Q 1097 -78 719 397 
Q 266 969 266 2259 
z
M 844 2259 
Q 844 1131 1108 757 
Q 1372 384 1759 384 
Q 2147 384 2411 759 
Q 2675 1134 2675 2259 
Q 2675 3391 2411 3762 
Q 2147 4134 1753 4134 
Q 1366 4134 1134 3806 
Q 844 3388 844 2259 
z
" transform="scale(0.015625)"/>
       </defs>
       <use xlink:href="#ArialMT-34"/>
       <use xlink:href="#ArialMT-30" x="55.615234"/>
       <use xlink:href="#ArialMT-30" x="111.230469"/>
       <use xlink:href="#ArialMT-30" x="166.845703"/>
       <use xlink:href="#ArialMT-30" x="222.460938"/>
      </g>
     </g>
    </g>
    <g id="ytick_2">
     <g id="text_4">
      <!-- 50000 -->
      <g style="fill: #262626" transform="translate(24.52 154.635633) scale(0.11 -0.11)">
       <defs>
        <path id="ArialMT-35" d="M 266 1200 
L 856 1250 
Q 922 819 1161 601 
Q 1400 384 1738 384 
Q 2144 384 2425 690 
Q 2706 997 2706 1503 
Q 2706 1984 2436 2262 
Q 2166 2541 1728 2541 
Q 1456 2541 1237 2417 
Q 1019 2294 894 2097 
L 366 2166 
L 809 4519 
L 3088 4519 
L 3088 3981 
L 1259 3981 
L 1013 2750 
Q 1425 3038 1878 3038 
Q 2478 3038 2890 2622 
Q 3303 2206 3303 1553 
Q 3303 931 2941 478 
Q 2500 -78 1738 -78 
Q 1113 -78 717 272 
Q 322 622 266 1200 
z
" transform="scale(0.015625)"/>
       </defs>
       <use xlink:href="#ArialMT-35"/>
       <use xlink:href="#ArialMT-30" x="55.615234"/>
       <use xlink:href="#ArialMT-30" x="111.230469"/>
       <use xlink:href="#ArialMT-30" x="166.845703"/>
       <use xlink:href="#ArialMT-30" x="222.460938"/>
      </g>
     </g>
    </g>
    <g id="ytick_3">
     <g id="text_5">
      <!-- 60000 -->
      <g style="fill: #262626" transform="translate(24.52 108.114953) scale(0.11 -0.11)">
       <defs>
        <path id="ArialMT-36" d="M 3184 3459 
L 2625 3416 
Q 2550 3747 2413 3897 
Q 2184 4138 1850 4138 
Q 1581 4138 1378 3988 
Q 1113 3794 959 3422 
Q 806 3050 800 2363 
Q 1003 2672 1297 2822 
Q 1591 2972 1913 2972 
Q 2475 2972 2870 2558 
Q 3266 2144 3266 1488 
Q 3266 1056 3080 686 
Q 2894 316 2569 119 
Q 2244 -78 1831 -78 
Q 1128 -78 684 439 
Q 241 956 241 2144 
Q 241 3472 731 4075 
Q 1159 4600 1884 4600 
Q 2425 4600 2770 4297 
Q 3116 3994 3184 3459 
z
M 888 1484 
Q 888 1194 1011 928 
Q 1134 663 1356 523 
Q 1578 384 1822 384 
Q 2178 384 2434 671 
Q 2691 959 2691 1453 
Q 2691 1928 2437 2201 
Q 2184 2475 1800 2475 
Q 1419 2475 1153 2201 
Q 888 1928 888 1484 
z
" transform="scale(0.015625)"/>
       </defs>
       <use xlink:href="#ArialMT-36"/>
       <use xlink:href="#ArialMT-30" x="55.615234"/>
       <use xlink:href="#ArialMT-30" x="111.230469"/>
       <use xlink:href="#ArialMT-30" x="166.845703"/>
       <use xlink:href="#ArialMT-30" x="222.460938"/>
      </g>
     </g>
    </g>
    <g id="ytick_4">
     <g id="text_6">
      <!-- 70000 -->
      <g style="fill: #262626" transform="translate(24.52 61.594273) scale(0.11 -0.11)">
       <defs>
        <path id="ArialMT-37" d="M 303 3981 
L 303 4522 
L 3269 4522 
L 3269 4084 
Q 2831 3619 2401 2847 
Q 1972 2075 1738 1259 
Q 1569 684 1522 0 
L 944 0 
Q 953 541 1156 1306 
Q 1359 2072 1739 2783 
Q 2119 3494 2547 3981 
L 303 3981 
z
" transform="scale(0.015625)"/>
       </defs>
       <use xlink:href="#ArialMT-37"/>
       <use xlink:href="#ArialMT-30" x="55.615234"/>
       <use xlink:href="#ArialMT-30" x="111.230469"/>
       <use xlink:href="#ArialMT-30" x="166.845703"/>
       <use xlink:href="#ArialMT-30" x="222.460938"/>
      </g>
     </g>
    </g>
    <g id="ytick_5">
     <g id="text_7">
      <!-- 80000 -->
      <g style="fill: #262626" transform="translate(24.52 15.073594) scale(0.11 -0.11)">
       <defs>
        <path id="ArialMT-38" d="M 1131 2484 
Q 781 2613 612 2850 
Q 444 3088 444 3419 
Q 444 3919 803 4259 
Q 1163 4600 1759 4600 
Q 2359 4600 2725 4251 
Q 3091 3903 3091 3403 
Q 3091 3084 2923 2848 
Q 2756 2613 2416 2484 
Q 2838 2347 3058 2040 
Q 3278 1734 3278 1309 
Q 3278 722 2862 322 
Q 2447 -78 1769 -78 
Q 1091 -78 675 323 
Q 259 725 259 1325 
Q 259 1772 486 2073 
Q 713 2375 1131 2484 
z
M 1019 3438 
Q 1019 3113 1228 2906 
Q 1438 2700 1772 2700 
Q 2097 2700 2305 2904 
Q 2513 3109 2513 3406 
Q 2513 3716 2298 3927 
Q 2084 4138 1766 4138 
Q 1444 4138 1231 3931 
Q 1019 3725 1019 3438 
z
M 838 1322 
Q 838 1081 952 856 
Q 1066 631 1291 507 
Q 1516 384 1775 384 
Q 2178 384 2440 643 
Q 2703 903 2703 1303 
Q 2703 1709 2433 1975 
Q 2163 2241 1756 2241 
Q 1359 2241 1098 1978 
Q 838 1716 838 1322 
z
" transform="scale(0.015625)"/>
       </defs>
       <use xlink:href="#ArialMT-38"/>
       <use xlink:href="#ArialMT-30" x="55.615234"/>
       <use xlink:href="#ArialMT-30" x="111.230469"/>
       <use xlink:href="#ArialMT-30" x="166.845703"/>
       <use xlink:href="#ArialMT-30" x="222.460938"/>
      </g>
     </g>
    </g>
    <g id="text_8">
     <!-- sGMV [mm$^3$] -->
     <g style="fill: #262626" transform="translate(18.12 155.480239) rotate(-90) scale(0.12 -0.12)">
      <defs>
       <path id="ArialMT-73" d="M 197 991 
L 753 1078 
Q 800 744 1014 566 
Q 1228 388 1613 388 
Q 2000 388 2187 545 
Q 2375 703 2375 916 
Q 2375 1106 2209 1216 
Q 2094 1291 1634 1406 
Q 1016 1563 777 1677 
Q 538 1791 414 1992 
Q 291 2194 291 2438 
Q 291 2659 392 2848 
Q 494 3038 669 3163 
Q 800 3259 1026 3326 
Q 1253 3394 1513 3394 
Q 1903 3394 2198 3281 
Q 2494 3169 2634 2976 
Q 2775 2784 2828 2463 
L 2278 2388 
Q 2241 2644 2061 2787 
Q 1881 2931 1553 2931 
Q 1166 2931 1000 2803 
Q 834 2675 834 2503 
Q 834 2394 903 2306 
Q 972 2216 1119 2156 
Q 1203 2125 1616 2013 
Q 2213 1853 2448 1751 
Q 2684 1650 2818 1456 
Q 2953 1263 2953 975 
Q 2953 694 2789 445 
Q 2625 197 2315 61 
Q 2006 -75 1616 -75 
Q 969 -75 630 194 
Q 291 463 197 991 
z
" transform="scale(0.015625)"/>
       <path id="ArialMT-47" d="M 2638 1797 
L 2638 2334 
L 4578 2338 
L 4578 638 
Q 4131 281 3656 101 
Q 3181 -78 2681 -78 
Q 2006 -78 1454 211 
Q 903 500 622 1047 
Q 341 1594 341 2269 
Q 341 2938 620 3517 
Q 900 4097 1425 4378 
Q 1950 4659 2634 4659 
Q 3131 4659 3532 4498 
Q 3934 4338 4162 4050 
Q 4391 3763 4509 3300 
L 3963 3150 
Q 3859 3500 3706 3700 
Q 3553 3900 3268 4020 
Q 2984 4141 2638 4141 
Q 2222 4141 1919 4014 
Q 1616 3888 1430 3681 
Q 1244 3475 1141 3228 
Q 966 2803 966 2306 
Q 966 1694 1177 1281 
Q 1388 869 1791 669 
Q 2194 469 2647 469 
Q 3041 469 3416 620 
Q 3791 772 3984 944 
L 3984 1797 
L 2638 1797 
z
" transform="scale(0.015625)"/>
       <path id="ArialMT-4d" d="M 475 0 
L 475 4581 
L 1388 4581 
L 2472 1338 
Q 2622 884 2691 659 
Q 2769 909 2934 1394 
L 4031 4581 
L 4847 4581 
L 4847 0 
L 4263 0 
L 4263 3834 
L 2931 0 
L 2384 0 
L 1059 3900 
L 1059 0 
L 475 0 
z
" transform="scale(0.015625)"/>
       <path id="ArialMT-56" d="M 1803 0 
L 28 4581 
L 684 4581 
L 1875 1253 
Q 2019 853 2116 503 
Q 2222 878 2363 1253 
L 3600 4581 
L 4219 4581 
L 2425 0 
L 1803 0 
z
" transform="scale(0.015625)"/>
       <path id="ArialMT-20" transform="scale(0.015625)"/>
       <path id="ArialMT-5b" d="M 434 -1272 
L 434 4581 
L 1675 4581 
L 1675 4116 
L 997 4116 
L 997 -806 
L 1675 -806 
L 1675 -1272 
L 434 -1272 
z
" transform="scale(0.015625)"/>
       <path id="DejaVuSans-33" d="M 2597 2516 
Q 3050 2419 3304 2112 
Q 3559 1806 3559 1356 
Q 3559 666 3084 287 
Q 2609 -91 1734 -91 
Q 1441 -91 1130 -33 
Q 819 25 488 141 
L 488 750 
Q 750 597 1062 519 
Q 1375 441 1716 441 
Q 2309 441 2620 675 
Q 2931 909 2931 1356 
Q 2931 1769 2642 2001 
Q 2353 2234 1838 2234 
L 1294 2234 
L 1294 2753 
L 1863 2753 
Q 2328 2753 2575 2939 
Q 2822 3125 2822 3475 
Q 2822 3834 2567 4026 
Q 2313 4219 1838 4219 
Q 1578 4219 1281 4162 
Q 984 4106 628 3988 
L 628 4550 
Q 988 4650 1302 4700 
Q 1616 4750 1894 4750 
Q 2613 4750 3031 4423 
Q 3450 4097 3450 3541 
Q 3450 3153 3228 2886 
Q 3006 2619 2597 2516 
z
" transform="scale(0.015625)"/>
       <path id="ArialMT-5d" d="M 1363 -1272 
L 122 -1272 
L 122 -806 
L 800 -806 
L 800 4116 
L 122 4116 
L 122 4581 
L 1363 4581 
L 1363 -1272 
z
" transform="scale(0.015625)"/>
      </defs>
      <use xlink:href="#ArialMT-73" transform="translate(0 0.765625)"/>
      <use xlink:href="#ArialMT-47" transform="translate(50 0.765625)"/>
      <use xlink:href="#ArialMT-4d" transform="translate(127.783203 0.765625)"/>
      <use xlink:href="#ArialMT-56" transform="translate(211.083984 0.765625)"/>
      <use xlink:href="#ArialMT-20" transform="translate(277.783203 0.765625)"/>
      <use xlink:href="#ArialMT-5b" transform="translate(305.566406 0.765625)"/>
      <use xlink:href="#ArialMT-6d" transform="translate(333.349609 0.765625)"/>
      <use xlink:href="#ArialMT-6d" transform="translate(416.650391 0.765625)"/>
      <use xlink:href="#DejaVuSans-33" transform="translate(500.908203 39.046875) scale(0.7)"/>
      <use xlink:href="#ArialMT-5d" transform="translate(548.178711 0.765625)"/>
     </g>
    </g>
   </g>
   <g id="PolyCollection_1">
    <defs>
     <path id="m9af787010e" d="M 106.202354 -72.140062 
L 105.862504 -72.140062 
L 105.790351 -73.740199 
L 105.695905 -75.340337 
L 105.57579 -76.940474 
L 105.427388 -78.540611 
L 105.249283 -80.140748 
L 105.041628 -81.740885 
L 104.806361 -83.341023 
L 104.547158 -84.94116 
L 104.269081 -86.541297 
L 103.977898 -88.141434 
L 103.679131 -89.741572 
L 103.376965 -91.341709 
L 103.073188 -92.941846 
L 102.766388 -94.541983 
L 102.451591 -96.14212 
L 102.12047 -97.742258 
L 101.762157 -99.342395 
L 101.364548 -100.942532 
L 100.915888 -102.542669 
L 100.406338 -104.142807 
L 99.829215 -105.742944 
L 99.181631 -107.343081 
L 98.464429 -108.943218 
L 97.681393 -110.543355 
L 96.837967 -112.143493 
L 95.939763 -113.74363 
L 94.991255 -115.343767 
L 93.995003 -116.943904 
L 92.951641 -118.544042 
L 91.860678 -120.144179 
L 90.721969 -121.744316 
L 89.537514 -123.344453 
L 88.313118 -124.94459 
L 87.059457 -126.544728 
L 85.792159 -128.144865 
L 84.530745 -129.745002 
L 83.296523 -131.345139 
L 82.109816 -132.945277 
L 80.987071 -134.545414 
L 79.938541 -136.145551 
L 78.967078 -137.745688 
L 78.068428 -139.345825 
L 77.233056 -140.945963 
L 76.449188 -142.5461 
L 75.706501 -144.146237 
L 74.99969 -145.746374 
L 74.331196 -147.346512 
L 73.712491 -148.946649 
L 73.163668 -150.546786 
L 72.71135 -152.146923 
L 72.385293 -153.74706 
L 72.214247 -155.347198 
L 72.221769 -156.947335 
L 72.42265 -158.547472 
L 72.820498 -160.147609 
L 73.406821 -161.747746 
L 74.161713 -163.347884 
L 75.056012 -164.948021 
L 76.054592 -166.548158 
L 77.120284 -168.148295 
L 78.217851 -169.748433 
L 79.317469 -171.34857 
L 80.397244 -172.948707 
L 81.444482 -174.548844 
L 82.455649 -176.148981 
L 83.435165 -177.749119 
L 84.393328 -179.349256 
L 85.343785 -180.949393 
L 86.300945 -182.54953 
L 87.277681 -184.149668 
L 88.283547 -185.749805 
L 89.32363 -187.349942 
L 90.398035 -188.950079 
L 91.501953 -190.550216 
L 92.626205 -192.150354 
L 93.758162 -193.750491 
L 94.882932 -195.350628 
L 95.984686 -196.950765 
L 97.048009 -198.550903 
L 98.059136 -200.15104 
L 99.006948 -201.751177 
L 99.883618 -203.351314 
L 100.684854 -204.951451 
L 101.409722 -206.551589 
L 102.060129 -208.151726 
L 102.640062 -209.751863 
L 103.154745 -211.352 
L 103.609841 -212.952138 
L 104.01083 -214.552275 
L 104.362618 -216.152412 
L 104.669399 -217.752549 
L 104.934715 -219.352686 
L 105.16166 -220.952824 
L 105.353125 -222.552961 
L 105.512023 -224.153098 
L 105.641439 -225.753235 
L 105.744668 -227.353373 
L 105.825176 -228.95351 
L 105.886482 -230.553647 
L 106.178376 -230.553647 
L 106.178376 -230.553647 
L 106.239682 -228.95351 
L 106.32019 -227.353373 
L 106.423419 -225.753235 
L 106.552834 -224.153098 
L 106.711733 -222.552961 
L 106.903198 -220.952824 
L 107.130143 -219.352686 
L 107.395459 -217.752549 
L 107.70224 -216.152412 
L 108.054028 -214.552275 
L 108.455017 -212.952138 
L 108.910113 -211.352 
L 109.424796 -209.751863 
L 110.004729 -208.151726 
L 110.655136 -206.551589 
L 111.380004 -204.951451 
L 112.18124 -203.351314 
L 113.05791 -201.751177 
L 114.005722 -200.15104 
L 115.016849 -198.550903 
L 116.080172 -196.950765 
L 117.181926 -195.350628 
L 118.306696 -193.750491 
L 119.438653 -192.150354 
L 120.562904 -190.550216 
L 121.666823 -188.950079 
L 122.741228 -187.349942 
L 123.781311 -185.749805 
L 124.787177 -184.149668 
L 125.763913 -182.54953 
L 126.721073 -180.949393 
L 127.67153 -179.349256 
L 128.629693 -177.749119 
L 129.609209 -176.148981 
L 130.620376 -174.548844 
L 131.667614 -172.948707 
L 132.747389 -171.34857 
L 133.847007 -169.748433 
L 134.944574 -168.148295 
L 136.010266 -166.548158 
L 137.008846 -164.948021 
L 137.903145 -163.347884 
L 138.658037 -161.747746 
L 139.24436 -160.147609 
L 139.642208 -158.547472 
L 139.843089 -156.947335 
L 139.850611 -155.347198 
L 139.679565 -153.74706 
L 139.353508 -152.146923 
L 138.90119 -150.546786 
L 138.352367 -148.946649 
L 137.733662 -147.346512 
L 137.065167 -145.746374 
L 136.358357 -144.146237 
L 135.61567 -142.5461 
L 134.831802 -140.945963 
L 133.99643 -139.345825 
L 133.09778 -137.745688 
L 132.126317 -136.145551 
L 131.077787 -134.545414 
L 129.955042 -132.945277 
L 128.768335 -131.345139 
L 127.534113 -129.745002 
L 126.272699 -128.144865 
L 125.005401 -126.544728 
L 123.75174 -124.94459 
L 122.527344 -123.344453 
L 121.342889 -121.744316 
L 120.20418 -120.144179 
L 119.113217 -118.544042 
L 118.069855 -116.943904 
L 117.073603 -115.343767 
L 116.125095 -113.74363 
L 115.226891 -112.143493 
L 114.383465 -110.543355 
L 113.600429 -108.943218 
L 112.883227 -107.343081 
L 112.235643 -105.742944 
L 111.65852 -104.142807 
L 111.14897 -102.542669 
L 110.70031 -100.942532 
L 110.302701 -99.342395 
L 109.944388 -97.742258 
L 109.613267 -96.14212 
L 109.29847 -94.541983 
L 108.99167 -92.941846 
L 108.687893 -91.341709 
L 108.385727 -89.741572 
L 108.08696 -88.141434 
L 107.795777 -86.541297 
L 107.5177 -84.94116 
L 107.258497 -83.341023 
L 107.02323 -81.740885 
L 106.815575 -80.140748 
L 106.63747 -78.540611 
L 106.489068 -76.940474 
L 106.368953 -75.340337 
L 106.274506 -73.740199 
L 106.202354 -72.140062 
z
" style="stroke: #4c4c4c; stroke-width: 0.5"/>
    </defs>
    <g clip-path="url(#p201d1bfedf)">
     <use xlink:href="#m9af787010e" x="0" y="258.560083" style="fill: #5573cd; stroke: #4c4c4c; stroke-width: 0.5"/>
    </g>
   </g>
   <g id="PolyCollection_2">
    <defs>
     <path id="me9b86ef186" d="M 190.783069 -36.553571 
L 190.372698 -36.553571 
L 190.281265 -38.532102 
L 190.161707 -40.510633 
L 190.010623 -42.489164 
L 189.825867 -44.467694 
L 189.606759 -46.446225 
L 189.353954 -48.424756 
L 189.068874 -50.403287 
L 188.752785 -52.381818 
L 188.405695 -54.360348 
L 188.025411 -56.338879 
L 187.607117 -58.31741 
L 187.143781 -60.295941 
L 186.627492 -62.274471 
L 186.051586 -64.253002 
L 185.413094 -66.231533 
L 184.714905 -68.210064 
L 183.966953 -70.188595 
L 183.185972 -72.167125 
L 182.393612 -74.145656 
L 181.613184 -76.124187 
L 180.865599 -78.102718 
L 180.165296 -80.081249 
L 179.516959 -82.059779 
L 178.91363 -84.03831 
L 178.33655 -86.016841 
L 177.756757 -87.995372 
L 177.138183 -89.973903 
L 176.441885 -91.952433 
L 175.630937 -93.930964 
L 174.675488 -95.909495 
L 173.55745 -97.888026 
L 172.274224 -99.866557 
L 170.840825 -101.845087 
L 169.289825 -103.823618 
L 167.668744 -105.802149 
L 166.034918 -107.78068 
L 164.448447 -109.759211 
L 162.96438 -111.737741 
L 161.625689 -113.716272 
L 160.458627 -115.694803 
L 159.47165 -117.673334 
L 158.658257 -119.651865 
L 158.003106 -121.630395 
L 157.489818 -123.608926 
L 157.108406 -125.587457 
L 156.860307 -127.565988 
L 156.759702 -129.544518 
L 156.83084 -131.523049 
L 157.102232 -133.50158 
L 157.599376 -135.480111 
L 158.337984 -137.458642 
L 159.319354 -139.437172 
L 160.528804 -141.415703 
L 161.937178 -143.394234 
L 163.504662 -145.372765 
L 165.185725 -147.351296 
L 166.934015 -149.329826 
L 168.706333 -151.308357 
L 170.465285 -153.286888 
L 172.180629 -155.265419 
L 173.82961 -157.24395 
L 175.396632 -159.22248 
L 176.872527 -161.201011 
L 178.253575 -163.179542 
L 179.540319 -165.158073 
L 180.736217 -167.136604 
L 181.846223 -169.115134 
L 182.875465 -171.093665 
L 183.828202 -173.072196 
L 184.707222 -175.050727 
L 185.513733 -177.029258 
L 186.247667 -179.007788 
L 186.908229 -180.986319 
L 187.494514 -182.96485 
L 188.006019 -184.943381 
L 188.442994 -186.921912 
L 188.806655 -188.900442 
L 189.099338 -190.878973 
L 189.324657 -192.857504 
L 189.487719 -194.836035 
L 189.595327 -196.814565 
L 189.656087 -198.793096 
L 189.6803 -200.771627 
L 189.679535 -202.750158 
L 189.665888 -204.728689 
L 189.650982 -206.707219 
L 189.644886 -208.68575 
L 189.655138 -210.664281 
L 189.686083 -212.642812 
L 189.738665 -214.621343 
L 189.8107 -216.599873 
L 189.897578 -218.578404 
L 189.993246 -220.556935 
L 190.091258 -222.535466 
L 190.185716 -224.513997 
L 190.271958 -226.492527 
L 190.346908 -228.471058 
L 190.409119 -230.449589 
L 190.458556 -232.42812 
L 190.697211 -232.42812 
L 190.697211 -232.42812 
L 190.746648 -230.449589 
L 190.808859 -228.471058 
L 190.883809 -226.492527 
L 190.970051 -224.513997 
L 191.064509 -222.535466 
L 191.162521 -220.556935 
L 191.258189 -218.578404 
L 191.345067 -216.599873 
L 191.417102 -214.621343 
L 191.469684 -212.642812 
L 191.50063 -210.664281 
L 191.510881 -208.68575 
L 191.504785 -206.707219 
L 191.489879 -204.728689 
L 191.476232 -202.750158 
L 191.475467 -200.771627 
L 191.49968 -198.793096 
L 191.56044 -196.814565 
L 191.668048 -194.836035 
L 191.83111 -192.857504 
L 192.056429 -190.878973 
L 192.349112 -188.900442 
L 192.712773 -186.921912 
L 193.149748 -184.943381 
L 193.661253 -182.96485 
L 194.247538 -180.986319 
L 194.9081 -179.007788 
L 195.642034 -177.029258 
L 196.448545 -175.050727 
L 197.327565 -173.072196 
L 198.280302 -171.093665 
L 199.309544 -169.115134 
L 200.41955 -167.136604 
L 201.615448 -165.158073 
L 202.902192 -163.179542 
L 204.28324 -161.201011 
L 205.759135 -159.22248 
L 207.326157 -157.24395 
L 208.975139 -155.265419 
L 210.690482 -153.286888 
L 212.449434 -151.308357 
L 214.221752 -149.329826 
L 215.970042 -147.351296 
L 217.651105 -145.372765 
L 219.218589 -143.394234 
L 220.626964 -141.415703 
L 221.836413 -139.437172 
L 222.817783 -137.458642 
L 223.556391 -135.480111 
L 224.053535 -133.50158 
L 224.324927 -131.523049 
L 224.396065 -129.544518 
L 224.29546 -127.565988 
L 224.047361 -125.587457 
L 223.665949 -123.608926 
L 223.152661 -121.630395 
L 222.49751 -119.651865 
L 221.684118 -117.673334 
L 220.69714 -115.694803 
L 219.530078 -113.716272 
L 218.191387 -111.737741 
L 216.70732 -109.759211 
L 215.120849 -107.78068 
L 213.487023 -105.802149 
L 211.865942 -103.823618 
L 210.314943 -101.845087 
L 208.881543 -99.866557 
L 207.598317 -97.888026 
L 206.480279 -95.909495 
L 205.52483 -93.930964 
L 204.713882 -91.952433 
L 204.017584 -89.973903 
L 203.39901 -87.995372 
L 202.819217 -86.016841 
L 202.242137 -84.03831 
L 201.638808 -82.059779 
L 200.990471 -80.081249 
L 200.290168 -78.102718 
L 199.542583 -76.124187 
L 198.762155 -74.145656 
L 197.969795 -72.167125 
L 197.188814 -70.188595 
L 196.440863 -68.210064 
L 195.742673 -66.231533 
L 195.104181 -64.253002 
L 194.528275 -62.274471 
L 194.011986 -60.295941 
L 193.54865 -58.31741 
L 193.130356 -56.338879 
L 192.750072 -54.360348 
L 192.402983 -52.381818 
L 192.086893 -50.403287 
L 191.801813 -48.424756 
L 191.549008 -46.446225 
L 191.3299 -44.467694 
L 191.145144 -42.489164 
L 190.99406 -40.510633 
L 190.874502 -38.532102 
L 190.783069 -36.553571 
z
" style="stroke: #4c4c4c; stroke-width: 0.5"/>
    </defs>
    <g clip-path="url(#p201d1bfedf)">
     <use xlink:href="#me9b86ef186" x="0" y="258.560083" style="fill: #df8920; stroke: #4c4c4c; stroke-width: 0.5"/>
    </g>
   </g>
   <g id="line2d_1">
    <path d="M 106.032429 167.155147 
L 106.032429 47.271309 
" clip-path="url(#p201d1bfedf)" style="fill: none; stroke: #4c4c4c; stroke-width: 0.75; stroke-linecap: round"/>
   </g>
   <g id="line2d_2">
    <path d="M 106.032429 121.561656 
L 106.032429 88.897876 
" clip-path="url(#p201d1bfedf)" style="fill: none; stroke: #4c4c4c; stroke-width: 2.25; stroke-linecap: round"/>
   </g>
   <g id="line2d_3">
    <path d="M 106.032429 103.709433 
" clip-path="url(#p201d1bfedf)" style="fill: none; stroke: #4c4c4c; stroke-width: 1.5; stroke-linecap: round"/>
    <defs>
     <path id="m3b2d07b7e1" d="M 0.9375 0 
L -0.9375 -0 
" style="stroke: #ffffff; stroke-width: 0.45"/>
    </defs>
    <g clip-path="url(#p201d1bfedf)">
     <use xlink:href="#m3b2d07b7e1" x="106.032429" y="103.709433" style="fill: #ffffff; stroke: #ffffff; stroke-width: 0.45"/>
    </g>
   </g>
   <g id="line2d_4">
    <path d="M 190.577884 183.47738 
L 190.577884 75.240874 
" clip-path="url(#p201d1bfedf)" style="fill: none; stroke: #4c4c4c; stroke-width: 0.75; stroke-linecap: round"/>
   </g>
   <g id="line2d_5">
    <path d="M 190.577884 148.131474 
L 190.577884 117.275218 
" clip-path="url(#p201d1bfedf)" style="fill: none; stroke: #4c4c4c; stroke-width: 2.25; stroke-linecap: round"/>
   </g>
   <g id="line2d_6">
    <path d="M 190.577884 130.258541 
" clip-path="url(#p201d1bfedf)" style="fill: none; stroke: #4c4c4c; stroke-width: 1.5; stroke-linecap: round"/>
    <g clip-path="url(#p201d1bfedf)">
     <use xlink:href="#m3b2d07b7e1" x="190.577884" y="130.258541" style="fill: #ffffff; stroke: #ffffff; stroke-width: 0.45"/>
    </g>
   </g>
   <g id="line2d_7">
    <path d="M 106.032429 34.343589 
L 106.032429 30.034349 
L 190.577884 30.034349 
L 190.577884 34.343589 
" style="fill: none; stroke: #333333; stroke-width: 0.5; stroke-linecap: round"/>
   </g>
   <g id="patch_3">
    <path d="M 64.605156 231.800239 
L 64.605156 10.040239 
" style="fill: none; stroke: #262626; stroke-width: 1.25; stroke-linejoin: miter; stroke-linecap: square"/>
   </g>
   <g id="patch_4">
    <path d="M 64.605156 231.800239 
L 232.005156 231.800239 
" style="fill: none; stroke: #262626; stroke-width: 1.25; stroke-linejoin: miter; stroke-linecap: square"/>
   </g>
   <g id="text_9">
    <!-- **** -->
    <g style="fill: #262626" transform="translate(138.963906 26.649349) scale(0.12 -0.12)">
     <defs>
      <path id="ArialMT-2a" d="M 200 3741 
L 344 4184 
Q 841 4009 1066 3881 
Q 1006 4447 1003 4659 
L 1456 4659 
Q 1447 4350 1384 3884 
Q 1706 4047 2122 4184 
L 2266 3741 
Q 1869 3609 1488 3566 
Q 1678 3400 2025 2975 
L 1650 2709 
Q 1469 2956 1222 3381 
Q 991 2941 816 2709 
L 447 2975 
Q 809 3422 966 3566 
Q 563 3644 200 3741 
z
" transform="scale(0.015625)"/>
     </defs>
     <use xlink:href="#ArialMT-2a"/>
     <use xlink:href="#ArialMT-2a" x="38.916016"/>
     <use xlink:href="#ArialMT-2a" x="77.832031"/>
     <use xlink:href="#ArialMT-2a" x="116.748047"/>
    </g>
   </g>
  </g>
 </g>
 <defs>
  <clipPath id="p201d1bfedf">
   <rect x="64.605156" y="10.040239" width="167.4" height="221.76"/>
  </clipPath>
 </defs>
</svg>
