<?xml version="1.0" encoding="utf-8" standalone="no"?>
<!DOCTYPE svg PUBLIC "-//W3C//DTD SVG 1.1//EN"
  "http://www.w3.org/Graphics/SVG/1.1/DTD/svg11.dtd">
<svg xmlns:xlink="http://www.w3.org/1999/xlink" width="245.322187pt" height="255.719844pt" viewBox="0 0 245.322187 255.719844" xmlns="http://www.w3.org/2000/svg" version="1.1">
 <metadata>
  <rdf:RDF xmlns:dc="http://purl.org/dc/elements/1.1/" xmlns:cc="http://creativecommons.org/ns#" xmlns:rdf="http://www.w3.org/1999/02/22-rdf-syntax-ns#">
   <cc:Work>
    <dc:type rdf:resource="http://purl.org/dc/dcmitype/StillImage"/>
    <dc:date>2025-05-27T11:17:06.540797</dc:date>
    <dc:format>image/svg+xml</dc:format>
    <dc:creator>
     <cc:Agent>
      <dc:title>Matplotlib v3.9.2, https://matplotlib.org/</dc:title>
     </cc:Agent>
    </dc:creator>
   </cc:Work>
  </rdf:RDF>
 </metadata>
 <defs>
  <style type="text/css">*{stroke-linejoin: round; stroke-linecap: butt}</style>
 </defs>
 <g id="figure_1">
  <g id="patch_1">
   <path d="M -0 255.719844 
L 245.322188 255.719844 
L 245.322188 0 
L -0 0 
z
" style="fill: #ffffff"/>
  </g>
  <g id="axes_1">
   <g id="patch_2">
    <path d="M 70.722188 228.96 
L 238.122188 228.96 
L 238.122188 7.2 
L 70.722188 7.2 
z
" style="fill: #ffffff"/>
   </g>
   <g id="matplotlib.axis_1">
    <g id="xtick_1">
     <g id="text_1">
      <!-- Term -->
      <g style="fill: #262626" transform="translate(99.930866 246.333594) scale(0.11 -0.11)">
       <defs>
        <path id="ArialMT-54" d="M 1659 0 
L 1659 4041 
L 150 4041 
L 150 4581 
L 3781 4581 
L 3781 4041 
L 2266 4041 
L 2266 0 
L 1659 0 
z
" transform="scale(0.015625)"/>
        <path id="ArialMT-65" d="M 2694 1069 
L 3275 997 
Q 3138 488 2766 206 
Q 2394 -75 1816 -75 
Q 1088 -75 661 373 
Q 234 822 234 1631 
Q 234 2469 665 2931 
Q 1097 3394 1784 3394 
Q 2450 3394 2872 2941 
Q 3294 2488 3294 1666 
Q 3294 1616 3291 1516 
L 816 1516 
Q 847 969 1125 678 
Q 1403 388 1819 388 
Q 2128 388 2347 550 
Q 2566 713 2694 1069 
z
M 847 1978 
L 2700 1978 
Q 2663 2397 2488 2606 
Q 2219 2931 1791 2931 
Q 1403 2931 1139 2672 
Q 875 2413 847 1978 
z
" transform="scale(0.015625)"/>
        <path id="ArialMT-72" d="M 416 0 
L 416 3319 
L 922 3319 
L 922 2816 
Q 1116 3169 1280 3281 
Q 1444 3394 1641 3394 
Q 1925 3394 2219 3213 
L 2025 2691 
Q 1819 2813 1613 2813 
Q 1428 2813 1281 2702 
Q 1134 2591 1072 2394 
Q 978 2094 978 1738 
L 978 0 
L 416 0 
z
" transform="scale(0.015625)"/>
        <path id="ArialMT-6d" d="M 422 0 
L 422 3319 
L 925 3319 
L 925 2853 
Q 1081 3097 1340 3245 
Q 1600 3394 1931 3394 
Q 2300 3394 2536 3241 
Q 2772 3088 2869 2813 
Q 3263 3394 3894 3394 
Q 4388 3394 4653 3120 
Q 4919 2847 4919 2278 
L 4919 0 
L 4359 0 
L 4359 2091 
Q 4359 2428 4304 2576 
Q 4250 2725 4106 2815 
Q 3963 2906 3769 2906 
Q 3419 2906 3187 2673 
Q 2956 2441 2956 1928 
L 2956 0 
L 2394 0 
L 2394 2156 
Q 2394 2531 2256 2718 
Q 2119 2906 1806 2906 
Q 1569 2906 1367 2781 
Q 1166 2656 1075 2415 
Q 984 2175 984 1722 
L 984 0 
L 422 0 
z
" transform="scale(0.015625)"/>
       </defs>
       <use xlink:href="#ArialMT-54"/>
       <use xlink:href="#ArialMT-65" x="49.958984"/>
       <use xlink:href="#ArialMT-72" x="105.574219"/>
       <use xlink:href="#ArialMT-6d" x="138.875"/>
      </g>
     </g>
    </g>
    <g id="xtick_2">
     <g id="text_2">
      <!-- Preterm -->
      <g style="fill: #262626" transform="translate(177.137259 246.333594) scale(0.11 -0.11)">
       <defs>
        <path id="ArialMT-50" d="M 494 0 
L 494 4581 
L 2222 4581 
Q 2678 4581 2919 4538 
Q 3256 4481 3484 4323 
Q 3713 4166 3852 3881 
Q 3991 3597 3991 3256 
Q 3991 2672 3619 2267 
Q 3247 1863 2275 1863 
L 1100 1863 
L 1100 0 
L 494 0 
z
M 1100 2403 
L 2284 2403 
Q 2872 2403 3119 2622 
Q 3366 2841 3366 3238 
Q 3366 3525 3220 3729 
Q 3075 3934 2838 4000 
Q 2684 4041 2272 4041 
L 1100 4041 
L 1100 2403 
z
" transform="scale(0.015625)"/>
        <path id="ArialMT-74" d="M 1650 503 
L 1731 6 
Q 1494 -44 1306 -44 
Q 1000 -44 831 53 
Q 663 150 594 308 
Q 525 466 525 972 
L 525 2881 
L 113 2881 
L 113 3319 
L 525 3319 
L 525 4141 
L 1084 4478 
L 1084 3319 
L 1650 3319 
L 1650 2881 
L 1084 2881 
L 1084 941 
Q 1084 700 1114 631 
Q 1144 563 1211 522 
Q 1278 481 1403 481 
Q 1497 481 1650 503 
z
" transform="scale(0.015625)"/>
       </defs>
       <use xlink:href="#ArialMT-50"/>
       <use xlink:href="#ArialMT-72" x="66.699219"/>
       <use xlink:href="#ArialMT-65" x="100"/>
       <use xlink:href="#ArialMT-74" x="155.615234"/>
       <use xlink:href="#ArialMT-65" x="183.398438"/>
       <use xlink:href="#ArialMT-72" x="239.013672"/>
       <use xlink:href="#ArialMT-6d" x="272.314453"/>
      </g>
     </g>
    </g>
   </g>
   <g id="matplotlib.axis_2">
    <g id="ytick_1">
     <g id="text_3">
      <!-- 100000 -->
      <g style="fill: #262626" transform="translate(24.52 223.378537) scale(0.11 -0.11)">
       <defs>
        <path id="ArialMT-31" d="M 2384 0 
L 1822 0 
L 1822 3584 
Q 1619 3391 1289 3197 
Q 959 3003 697 2906 
L 697 3450 
Q 1169 3672 1522 3987 
Q 1875 4303 2022 4600 
L 2384 4600 
L 2384 0 
z
" transform="scale(0.015625)"/>
        <path id="ArialMT-30" d="M 266 2259 
Q 266 3072 433 3567 
Q 600 4063 929 4331 
Q 1259 4600 1759 4600 
Q 2128 4600 2406 4451 
Q 2684 4303 2865 4023 
Q 3047 3744 3150 3342 
Q 3253 2941 3253 2259 
Q 3253 1453 3087 958 
Q 2922 463 2592 192 
Q 2263 -78 1759 -78 
Q 1097 -78 719 397 
Q 266 969 266 2259 
z
M 844 2259 
Q 844 1131 1108 757 
Q 1372 384 1759 384 
Q 2147 384 2411 759 
Q 2675 1134 2675 2259 
Q 2675 3391 2411 3762 
Q 2147 4134 1753 4134 
Q 1366 4134 1134 3806 
Q 844 3388 844 2259 
z
" transform="scale(0.015625)"/>
       </defs>
       <use xlink:href="#ArialMT-31"/>
       <use xlink:href="#ArialMT-30" x="55.615234"/>
       <use xlink:href="#ArialMT-30" x="111.230469"/>
       <use xlink:href="#ArialMT-30" x="166.845703"/>
       <use xlink:href="#ArialMT-30" x="222.460938"/>
       <use xlink:href="#ArialMT-30" x="278.076172"/>
      </g>
     </g>
    </g>
    <g id="ytick_2">
     <g id="text_4">
      <!-- 125000 -->
      <g style="fill: #262626" transform="translate(24.52 194.530624) scale(0.11 -0.11)">
       <defs>
        <path id="ArialMT-32" d="M 3222 541 
L 3222 0 
L 194 0 
Q 188 203 259 391 
Q 375 700 629 1000 
Q 884 1300 1366 1694 
Q 2113 2306 2375 2664 
Q 2638 3022 2638 3341 
Q 2638 3675 2398 3904 
Q 2159 4134 1775 4134 
Q 1369 4134 1125 3890 
Q 881 3647 878 3216 
L 300 3275 
Q 359 3922 746 4261 
Q 1134 4600 1788 4600 
Q 2447 4600 2831 4234 
Q 3216 3869 3216 3328 
Q 3216 3053 3103 2787 
Q 2991 2522 2730 2228 
Q 2469 1934 1863 1422 
Q 1356 997 1212 845 
Q 1069 694 975 541 
L 3222 541 
z
" transform="scale(0.015625)"/>
        <path id="ArialMT-35" d="M 266 1200 
L 856 1250 
Q 922 819 1161 601 
Q 1400 384 1738 384 
Q 2144 384 2425 690 
Q 2706 997 2706 1503 
Q 2706 1984 2436 2262 
Q 2166 2541 1728 2541 
Q 1456 2541 1237 2417 
Q 1019 2294 894 2097 
L 366 2166 
L 809 4519 
L 3088 4519 
L 3088 3981 
L 1259 3981 
L 1013 2750 
Q 1425 3038 1878 3038 
Q 2478 3038 2890 2622 
Q 3303 2206 3303 1553 
Q 3303 931 2941 478 
Q 2500 -78 1738 -78 
Q 1113 -78 717 272 
Q 322 622 266 1200 
z
" transform="scale(0.015625)"/>
       </defs>
       <use xlink:href="#ArialMT-31"/>
       <use xlink:href="#ArialMT-32" x="55.615234"/>
       <use xlink:href="#ArialMT-35" x="111.230469"/>
       <use xlink:href="#ArialMT-30" x="166.845703"/>
       <use xlink:href="#ArialMT-30" x="222.460938"/>
       <use xlink:href="#ArialMT-30" x="278.076172"/>
      </g>
     </g>
    </g>
    <g id="ytick_3">
     <g id="text_5">
      <!-- 150000 -->
      <g style="fill: #262626" transform="translate(24.52 165.682711) scale(0.11 -0.11)">
       <use xlink:href="#ArialMT-31"/>
       <use xlink:href="#ArialMT-35" x="55.615234"/>
       <use xlink:href="#ArialMT-30" x="111.230469"/>
       <use xlink:href="#ArialMT-30" x="166.845703"/>
       <use xlink:href="#ArialMT-30" x="222.460938"/>
       <use xlink:href="#ArialMT-30" x="278.076172"/>
      </g>
     </g>
    </g>
    <g id="ytick_4">
     <g id="text_6">
      <!-- 175000 -->
      <g style="fill: #262626" transform="translate(24.52 136.834797) scale(0.11 -0.11)">
       <defs>
        <path id="ArialMT-37" d="M 303 3981 
L 303 4522 
L 3269 4522 
L 3269 4084 
Q 2831 3619 2401 2847 
Q 1972 2075 1738 1259 
Q 1569 684 1522 0 
L 944 0 
Q 953 541 1156 1306 
Q 1359 2072 1739 2783 
Q 2119 3494 2547 3981 
L 303 3981 
z
" transform="scale(0.015625)"/>
       </defs>
       <use xlink:href="#ArialMT-31"/>
       <use xlink:href="#ArialMT-37" x="55.615234"/>
       <use xlink:href="#ArialMT-35" x="111.230469"/>
       <use xlink:href="#ArialMT-30" x="166.845703"/>
       <use xlink:href="#ArialMT-30" x="222.460938"/>
       <use xlink:href="#ArialMT-30" x="278.076172"/>
      </g>
     </g>
    </g>
    <g id="ytick_5">
     <g id="text_7">
      <!-- 200000 -->
      <g style="fill: #262626" transform="translate(24.52 107.986884) scale(0.11 -0.11)">
       <use xlink:href="#ArialMT-32"/>
       <use xlink:href="#ArialMT-30" x="55.615234"/>
       <use xlink:href="#ArialMT-30" x="111.230469"/>
       <use xlink:href="#ArialMT-30" x="166.845703"/>
       <use xlink:href="#ArialMT-30" x="222.460938"/>
       <use xlink:href="#ArialMT-30" x="278.076172"/>
      </g>
     </g>
    </g>
    <g id="ytick_6">
     <g id="text_8">
      <!-- 225000 -->
      <g style="fill: #262626" transform="translate(24.52 79.13897) scale(0.11 -0.11)">
       <use xlink:href="#ArialMT-32"/>
       <use xlink:href="#ArialMT-32" x="55.615234"/>
       <use xlink:href="#ArialMT-35" x="111.230469"/>
       <use xlink:href="#ArialMT-30" x="166.845703"/>
       <use xlink:href="#ArialMT-30" x="222.460938"/>
       <use xlink:href="#ArialMT-30" x="278.076172"/>
      </g>
     </g>
    </g>
    <g id="ytick_7">
     <g id="text_9">
      <!-- 250000 -->
      <g style="fill: #262626" transform="translate(24.52 50.291057) scale(0.11 -0.11)">
       <use xlink:href="#ArialMT-32"/>
       <use xlink:href="#ArialMT-35" x="55.615234"/>
       <use xlink:href="#ArialMT-30" x="111.230469"/>
       <use xlink:href="#ArialMT-30" x="166.845703"/>
       <use xlink:href="#ArialMT-30" x="222.460938"/>
       <use xlink:href="#ArialMT-30" x="278.076172"/>
      </g>
     </g>
    </g>
    <g id="ytick_8">
     <g id="text_10">
      <!-- 275000 -->
      <g style="fill: #262626" transform="translate(24.52 21.443143) scale(0.11 -0.11)">
       <use xlink:href="#ArialMT-32"/>
       <use xlink:href="#ArialMT-37" x="55.615234"/>
       <use xlink:href="#ArialMT-35" x="111.230469"/>
       <use xlink:href="#ArialMT-30" x="166.845703"/>
       <use xlink:href="#ArialMT-30" x="222.460938"/>
       <use xlink:href="#ArialMT-30" x="278.076172"/>
      </g>
     </g>
    </g>
    <g id="text_11">
     <!-- WMV [mm$^3$] -->
     <g style="fill: #262626" transform="translate(18.12 150.66) rotate(-90) scale(0.12 -0.12)">
      <defs>
       <path id="ArialMT-57" d="M 1294 0 
L 78 4581 
L 700 4581 
L 1397 1578 
Q 1509 1106 1591 641 
Q 1766 1375 1797 1488 
L 2669 4581 
L 3400 4581 
L 4056 2263 
Q 4303 1400 4413 641 
Q 4500 1075 4641 1638 
L 5359 4581 
L 5969 4581 
L 4713 0 
L 4128 0 
L 3163 3491 
Q 3041 3928 3019 4028 
Q 2947 3713 2884 3491 
L 1913 0 
L 1294 0 
z
" transform="scale(0.015625)"/>
       <path id="ArialMT-4d" d="M 475 0 
L 475 4581 
L 1388 4581 
L 2472 1338 
Q 2622 884 2691 659 
Q 2769 909 2934 1394 
L 4031 4581 
L 4847 4581 
L 4847 0 
L 4263 0 
L 4263 3834 
L 2931 0 
L 2384 0 
L 1059 3900 
L 1059 0 
L 475 0 
z
" transform="scale(0.015625)"/>
       <path id="ArialMT-56" d="M 1803 0 
L 28 4581 
L 684 4581 
L 1875 1253 
Q 2019 853 2116 503 
Q 2222 878 2363 1253 
L 3600 4581 
L 4219 4581 
L 2425 0 
L 1803 0 
z
" transform="scale(0.015625)"/>
       <path id="ArialMT-20" transform="scale(0.015625)"/>
       <path id="ArialMT-5b" d="M 434 -1272 
L 434 4581 
L 1675 4581 
L 1675 4116 
L 997 4116 
L 997 -806 
L 1675 -806 
L 1675 -1272 
L 434 -1272 
z
" transform="scale(0.015625)"/>
       <path id="DejaVuSans-33" d="M 2597 2516 
Q 3050 2419 3304 2112 
Q 3559 1806 3559 1356 
Q 3559 666 3084 287 
Q 2609 -91 1734 -91 
Q 1441 -91 1130 -33 
Q 819 25 488 141 
L 488 750 
Q 750 597 1062 519 
Q 1375 441 1716 441 
Q 2309 441 2620 675 
Q 2931 909 2931 1356 
Q 2931 1769 2642 2001 
Q 2353 2234 1838 2234 
L 1294 2234 
L 1294 2753 
L 1863 2753 
Q 2328 2753 2575 2939 
Q 2822 3125 2822 3475 
Q 2822 3834 2567 4026 
Q 2313 4219 1838 4219 
Q 1578 4219 1281 4162 
Q 984 4106 628 3988 
L 628 4550 
Q 988 4650 1302 4700 
Q 1616 4750 1894 4750 
Q 2613 4750 3031 4423 
Q 3450 4097 3450 3541 
Q 3450 3153 3228 2886 
Q 3006 2619 2597 2516 
z
" transform="scale(0.015625)"/>
       <path id="ArialMT-5d" d="M 1363 -1272 
L 122 -1272 
L 122 -806 
L 800 -806 
L 800 4116 
L 122 4116 
L 122 4581 
L 1363 4581 
L 1363 -1272 
z
" transform="scale(0.015625)"/>
      </defs>
      <use xlink:href="#ArialMT-57" transform="translate(0 0.765625)"/>
      <use xlink:href="#ArialMT-4d" transform="translate(94.384766 0.765625)"/>
      <use xlink:href="#ArialMT-56" transform="translate(177.685547 0.765625)"/>
      <use xlink:href="#ArialMT-20" transform="translate(244.384766 0.765625)"/>
      <use xlink:href="#ArialMT-5b" transform="translate(272.167969 0.765625)"/>
      <use xlink:href="#ArialMT-6d" transform="translate(299.951172 0.765625)"/>
      <use xlink:href="#ArialMT-6d" transform="translate(383.251953 0.765625)"/>
      <use xlink:href="#DejaVuSans-33" transform="translate(467.509766 39.046875) scale(0.7)"/>
      <use xlink:href="#ArialMT-5d" transform="translate(514.780273 0.765625)"/>
     </g>
    </g>
   </g>
   <g id="PolyCollection_1">
    <defs>
     <path id="m17af198668" d="M 112.178069 -38.939446 
L 112.120852 -38.939446 
L 112.102525 -40.87504 
L 112.077436 -42.810633 
L 112.045882 -44.746227 
L 112.009397 -46.681821 
L 111.970347 -48.617414 
L 111.930802 -50.553008 
L 111.890945 -52.488602 
L 111.847676 -54.424196 
L 111.794232 -56.359789 
L 111.721406 -58.295383 
L 111.620183 -60.230977 
L 111.48481 -62.166571 
L 111.314686 -64.102164 
L 111.113713 -66.037758 
L 110.88678 -67.973352 
L 110.634542 -69.908945 
L 110.348902 -71.844539 
L 110.011755 -73.780133 
L 109.598322 -75.715727 
L 109.084337 -77.65132 
L 108.454209 -79.586914 
L 107.706456 -81.522508 
L 106.853487 -83.458101 
L 105.91523 -85.393695 
L 104.909013 -87.329289 
L 103.840268 -89.264883 
L 102.698666 -91.200476 
L 101.46205 -93.13607 
L 100.106785 -95.071664 
L 98.620065 -97.007258 
L 97.008879 -98.942851 
L 95.30236 -100.878445 
L 93.547652 -102.814039 
L 91.801973 -104.749632 
L 90.123965 -106.685226 
L 88.565889 -108.62082 
L 87.166676 -110.556414 
L 85.945571 -112.492007 
L 84.897352 -114.427601 
L 83.991518 -116.363195 
L 83.178011 -118.298789 
L 82.400266 -120.234382 
L 81.613307 -122.169976 
L 80.801672 -124.10557 
L 79.990702 -126.041163 
L 79.246108 -127.976757 
L 78.660609 -129.912351 
L 78.331278 -131.847945 
L 78.334891 -133.783538 
L 78.709244 -135.719132 
L 79.445808 -137.654726 
L 80.49455 -139.590319 
L 81.777607 -141.525913 
L 83.206521 -143.461507 
L 84.69817 -145.397101 
L 86.186412 -147.332694 
L 87.62831 -149.268288 
L 89.004904 -151.203882 
L 90.316999 -153.139476 
L 91.577093 -155.075069 
L 92.79964 -157.010663 
L 93.99281 -158.946257 
L 95.154779 -160.88185 
L 96.275879 -162.817444 
L 97.345227 -164.753038 
L 98.3582 -166.688632 
L 99.32074 -168.624225 
L 100.248269 -170.559819 
L 101.159841 -172.495413 
L 102.070455 -174.431007 
L 102.985073 -176.3666 
L 103.896615 -178.302194 
L 104.788247 -180.237788 
L 105.638498 -182.173381 
L 106.427038 -184.108975 
L 107.139219 -186.044569 
L 107.768333 -187.980163 
L 108.315474 -189.915756 
L 108.787576 -191.85135 
L 109.194555 -193.786944 
L 109.546446 -195.722537 
L 109.851328 -197.658131 
L 110.11451 -199.593725 
L 110.339114 -201.529319 
L 110.527715 -203.464912 
L 110.6843 -205.400506 
L 110.815582 -207.3361 
L 110.930949 -209.271694 
L 111.040915 -211.207287 
L 111.154624 -213.142881 
L 111.277437 -215.078475 
L 111.409578 -217.014068 
L 111.546399 -218.949662 
L 111.680121 -220.885256 
L 111.802343 -222.82085 
L 111.906394 -224.756443 
L 111.988774 -226.692037 
L 112.049402 -228.627631 
L 112.090878 -230.563225 
L 112.208042 -230.563225 
L 112.208042 -230.563225 
L 112.249519 -228.627631 
L 112.310147 -226.692037 
L 112.392526 -224.756443 
L 112.496578 -222.82085 
L 112.6188 -220.885256 
L 112.752522 -218.949662 
L 112.889343 -217.014068 
L 113.021483 -215.078475 
L 113.144296 -213.142881 
L 113.258006 -211.207287 
L 113.367971 -209.271694 
L 113.483338 -207.3361 
L 113.61462 -205.400506 
L 113.771205 -203.464912 
L 113.959806 -201.529319 
L 114.18441 -199.593725 
L 114.447593 -197.658131 
L 114.752475 -195.722537 
L 115.104365 -193.786944 
L 115.511344 -191.85135 
L 115.983447 -189.915756 
L 116.530587 -187.980163 
L 117.159702 -186.044569 
L 117.871883 -184.108975 
L 118.660422 -182.173381 
L 119.510673 -180.237788 
L 120.402306 -178.302194 
L 121.313847 -176.3666 
L 122.228465 -174.431007 
L 123.13908 -172.495413 
L 124.050651 -170.559819 
L 124.978181 -168.624225 
L 125.94072 -166.688632 
L 126.953693 -164.753038 
L 128.023042 -162.817444 
L 129.144142 -160.88185 
L 130.30611 -158.946257 
L 131.499281 -157.010663 
L 132.721828 -155.075069 
L 133.981921 -153.139476 
L 135.294016 -151.203882 
L 136.67061 -149.268288 
L 138.112508 -147.332694 
L 139.60075 -145.397101 
L 141.0924 -143.461507 
L 142.521314 -141.525913 
L 143.80437 -139.590319 
L 144.853112 -137.654726 
L 145.589676 -135.719132 
L 145.964029 -133.783538 
L 145.967642 -131.847945 
L 145.638312 -129.912351 
L 145.052813 -127.976757 
L 144.308218 -126.041163 
L 143.497248 -124.10557 
L 142.685614 -122.169976 
L 141.898654 -120.234382 
L 141.12091 -118.298789 
L 140.307403 -116.363195 
L 139.401569 -114.427601 
L 138.35335 -112.492007 
L 137.132245 -110.556414 
L 135.733032 -108.62082 
L 134.174955 -106.685226 
L 132.496947 -104.749632 
L 130.751268 -102.814039 
L 128.99656 -100.878445 
L 127.290042 -98.942851 
L 125.678855 -97.007258 
L 124.192135 -95.071664 
L 122.83687 -93.13607 
L 121.600254 -91.200476 
L 120.458653 -89.264883 
L 119.389907 -87.329289 
L 118.38369 -85.393695 
L 117.445433 -83.458101 
L 116.592465 -81.522508 
L 115.844711 -79.586914 
L 115.214583 -77.65132 
L 114.700598 -75.715727 
L 114.287166 -73.780133 
L 113.950018 -71.844539 
L 113.664379 -69.908945 
L 113.412141 -67.973352 
L 113.185208 -66.037758 
L 112.984235 -64.102164 
L 112.81411 -62.166571 
L 112.678737 -60.230977 
L 112.577515 -58.295383 
L 112.504688 -56.359789 
L 112.451245 -54.424196 
L 112.407976 -52.488602 
L 112.368119 -50.553008 
L 112.328574 -48.617414 
L 112.289523 -46.681821 
L 112.253039 -44.746227 
L 112.221484 -42.810633 
L 112.196395 -40.87504 
L 112.178069 -38.939446 
z
" style="stroke: #4c4c4c; stroke-width: 0.5"/>
    </defs>
    <g clip-path="url(#p8d851219b5)">
     <use xlink:href="#m17af198668" x="0" y="255.719844" style="fill: #5573cd; stroke: #4c4c4c; stroke-width: 0.5"/>
    </g>
   </g>
   <g id="PolyCollection_2">
    <defs>
     <path id="mfa00e34d04" d="M 196.878287 -36.590131 
L 196.511542 -36.590131 
L 196.430733 -38.576047 
L 196.325397 -40.561964 
L 196.192796 -42.54788 
L 196.031549 -44.533797 
L 195.84203 -46.519713 
L 195.626542 -48.50563 
L 195.389156 -50.491546 
L 195.135196 -52.477463 
L 194.870424 -54.46338 
L 194.600051 -56.449296 
L 194.327785 -58.435213 
L 194.055122 -60.421129 
L 193.781042 -62.407046 
L 193.502192 -64.392962 
L 193.213508 -66.378879 
L 192.909127 -68.364795 
L 192.583341 -70.350712 
L 192.231368 -72.336628 
L 191.849706 -74.322545 
L 191.435961 -76.308461 
L 190.988131 -78.294378 
L 190.503479 -80.280295 
L 189.977207 -82.266211 
L 189.401245 -84.252128 
L 188.763512 -86.238044 
L 188.047936 -88.223961 
L 187.235485 -90.209877 
L 186.306229 -92.195794 
L 185.24226 -94.18171 
L 184.031028 -96.167627 
L 182.668483 -98.153543 
L 181.161329 -100.13946 
L 179.52783 -102.125377 
L 177.796899 -104.111293 
L 176.005611 -106.09721 
L 174.195681 -108.083126 
L 172.409746 -110.069043 
L 170.688284 -112.054959 
L 169.067784 -114.040876 
L 167.580354 -116.026792 
L 166.25444 -118.012709 
L 165.115967 -119.998625 
L 164.189078 -121.984542 
L 163.49581 -123.970459 
L 163.05444 -125.956375 
L 162.876733 -127.942292 
L 162.964771 -129.928208 
L 163.308272 -131.914125 
L 163.883304 -133.900041 
L 164.653016 -135.885958 
L 165.570585 -137.871874 
L 166.584056 -139.857791 
L 167.642317 -141.843707 
L 168.70118 -143.829624 
L 169.728437 -145.81554 
L 170.706947 -147.801457 
L 171.635194 -149.787374 
L 172.52524 -151.77329 
L 173.398539 -153.759207 
L 174.280516 -155.745123 
L 175.195008 -157.73104 
L 176.159643 -159.716956 
L 177.182926 -161.702873 
L 178.263364 -163.688789 
L 179.390484 -165.674706 
L 180.547223 -167.660622 
L 181.712965 -169.646539 
L 182.866528 -171.632456 
L 183.988564 -173.618372 
L 185.063102 -175.604289 
L 186.078223 -177.590205 
L 187.026038 -179.576122 
L 187.902228 -181.562038 
L 188.705412 -183.547955 
L 189.436528 -185.533871 
L 190.098349 -187.519788 
L 190.695119 -189.505704 
L 191.232306 -191.491621 
L 191.716371 -193.477538 
L 192.154502 -195.463454 
L 192.554265 -197.449371 
L 192.923175 -199.435287 
L 193.268206 -201.421204 
L 193.595304 -203.40712 
L 193.908973 -205.393037 
L 194.212001 -207.378953 
L 194.505369 -209.36487 
L 194.788373 -211.350786 
L 195.058941 -213.336703 
L 195.314096 -215.322619 
L 195.550504 -217.308536 
L 195.76503 -219.294453 
L 195.955211 -221.280369 
L 196.1196 -223.266286 
L 196.25793 -225.252202 
L 196.37111 -227.238119 
L 196.461058 -229.224035 
L 196.53044 -231.209952 
L 196.582349 -233.195868 
L 196.80748 -233.195868 
L 196.80748 -233.195868 
L 196.859389 -231.209952 
L 196.928771 -229.224035 
L 197.01872 -227.238119 
L 197.131899 -225.252202 
L 197.27023 -223.266286 
L 197.434618 -221.280369 
L 197.624799 -219.294453 
L 197.839325 -217.308536 
L 198.075734 -215.322619 
L 198.330888 -213.336703 
L 198.601456 -211.350786 
L 198.884461 -209.36487 
L 199.177829 -207.378953 
L 199.480857 -205.393037 
L 199.794526 -203.40712 
L 200.121624 -201.421204 
L 200.466655 -199.435287 
L 200.835565 -197.449371 
L 201.235328 -195.463454 
L 201.673458 -193.477538 
L 202.157524 -191.491621 
L 202.694711 -189.505704 
L 203.291481 -187.519788 
L 203.953301 -185.533871 
L 204.684418 -183.547955 
L 205.487601 -181.562038 
L 206.363792 -179.576122 
L 207.311607 -177.590205 
L 208.326728 -175.604289 
L 209.401266 -173.618372 
L 210.523301 -171.632456 
L 211.676864 -169.646539 
L 212.842606 -167.660622 
L 213.999345 -165.674706 
L 215.126465 -163.688789 
L 216.206904 -161.702873 
L 217.230187 -159.716956 
L 218.194822 -157.73104 
L 219.109314 -155.745123 
L 219.991291 -153.759207 
L 220.86459 -151.77329 
L 221.754635 -149.787374 
L 222.682883 -147.801457 
L 223.661393 -145.81554 
L 224.688649 -143.829624 
L 225.747513 -141.843707 
L 226.805774 -139.857791 
L 227.819244 -137.871874 
L 228.736814 -135.885958 
L 229.506526 -133.900041 
L 230.081557 -131.914125 
L 230.425058 -129.928208 
L 230.513097 -127.942292 
L 230.33539 -125.956375 
L 229.894019 -123.970459 
L 229.200751 -121.984542 
L 228.273862 -119.998625 
L 227.135389 -118.012709 
L 225.809475 -116.026792 
L 224.322045 -114.040876 
L 222.701545 -112.054959 
L 220.980083 -110.069043 
L 219.194149 -108.083126 
L 217.384219 -106.09721 
L 215.59293 -104.111293 
L 213.862 -102.125377 
L 212.228501 -100.13946 
L 210.721347 -98.153543 
L 209.358802 -96.167627 
L 208.14757 -94.18171 
L 207.0836 -92.195794 
L 206.154344 -90.209877 
L 205.341893 -88.223961 
L 204.626317 -86.238044 
L 203.988584 -84.252128 
L 203.412623 -82.266211 
L 202.88635 -80.280295 
L 202.401698 -78.294378 
L 201.953869 -76.308461 
L 201.540124 -74.322545 
L 201.158462 -72.336628 
L 200.806489 -70.350712 
L 200.480703 -68.364795 
L 200.176321 -66.378879 
L 199.887638 -64.392962 
L 199.608788 -62.407046 
L 199.334708 -60.421129 
L 199.062045 -58.435213 
L 198.789779 -56.449296 
L 198.519406 -54.46338 
L 198.254634 -52.477463 
L 198.000674 -50.491546 
L 197.763288 -48.50563 
L 197.5478 -46.519713 
L 197.358281 -44.533797 
L 197.197033 -42.54788 
L 197.064433 -40.561964 
L 196.959097 -38.576047 
L 196.878287 -36.590131 
z
" style="stroke: #4c4c4c; stroke-width: 0.5"/>
    </defs>
    <g clip-path="url(#p8d851219b5)">
     <use xlink:href="#mfa00e34d04" x="0" y="255.719844" style="fill: #df8920; stroke: #4c4c4c; stroke-width: 0.5"/>
    </g>
   </g>
   <g id="line2d_1">
    <path d="M 112.14946 187.141675 
L 112.14946 55.629852 
" clip-path="url(#p8d851219b5)" style="fill: none; stroke: #4c4c4c; stroke-width: 0.75; stroke-linecap: round"/>
   </g>
   <g id="line2d_2">
    <path d="M 112.14946 140.814495 
L 112.14946 106.121803 
" clip-path="url(#p8d851219b5)" style="fill: none; stroke: #4c4c4c; stroke-width: 2.25; stroke-linecap: round"/>
   </g>
   <g id="line2d_3">
    <path d="M 112.14946 123.171981 
" clip-path="url(#p8d851219b5)" style="fill: none; stroke: #4c4c4c; stroke-width: 1.5; stroke-linecap: round"/>
    <defs>
     <path id="me02fc235c7" d="M 0.9375 0 
L -0.9375 -0 
" style="stroke: #ffffff; stroke-width: 0.45"/>
    </defs>
    <g clip-path="url(#p8d851219b5)">
     <use xlink:href="#me02fc235c7" x="112.14946" y="123.171981" style="fill: #ffffff; stroke: #ffffff; stroke-width: 0.45"/>
    </g>
   </g>
   <g id="line2d_4">
    <path d="M 196.694915 197.115476 
L 196.694915 44.538213 
" clip-path="url(#p8d851219b5)" style="fill: none; stroke: #4c4c4c; stroke-width: 0.75; stroke-linecap: round"/>
   </g>
   <g id="line2d_5">
    <path d="M 196.694915 141.14087 
L 196.694915 101.714046 
" clip-path="url(#p8d851219b5)" style="fill: none; stroke: #4c4c4c; stroke-width: 2.25; stroke-linecap: round"/>
   </g>
   <g id="line2d_6">
    <path d="M 196.694915 123.980448 
" clip-path="url(#p8d851219b5)" style="fill: none; stroke: #4c4c4c; stroke-width: 1.5; stroke-linecap: round"/>
    <g clip-path="url(#p8d851219b5)">
     <use xlink:href="#me02fc235c7" x="196.694915" y="123.980448" style="fill: #ffffff; stroke: #ffffff; stroke-width: 0.45"/>
    </g>
   </g>
   <g id="line2d_7">
    <path d="M 112.14946 31.562234 
L 112.14946 27.236908 
L 196.694915 27.236908 
L 196.694915 31.562234 
" style="fill: none; stroke: #333333; stroke-width: 0.5; stroke-linecap: round"/>
   </g>
   <g id="patch_3">
    <path d="M 70.722188 228.96 
L 70.722188 7.2 
" style="fill: none; stroke: #262626; stroke-width: 1.25; stroke-linejoin: miter; stroke-linecap: square"/>
   </g>
   <g id="patch_4">
    <path d="M 70.722187 228.96 
L 238.122188 228.96 
" style="fill: none; stroke: #262626; stroke-width: 1.25; stroke-linejoin: miter; stroke-linecap: square"/>
   </g>
   <g id="text_12">
    <!-- ns -->
    <g style="fill: #262626" transform="translate(148.085625 23.851908) scale(0.12 -0.12)">
     <defs>
      <path id="ArialMT-6e" d="M 422 0 
L 422 3319 
L 928 3319 
L 928 2847 
Q 1294 3394 1984 3394 
Q 2284 3394 2536 3286 
Q 2788 3178 2913 3003 
Q 3038 2828 3088 2588 
Q 3119 2431 3119 2041 
L 3119 0 
L 2556 0 
L 2556 2019 
Q 2556 2363 2490 2533 
Q 2425 2703 2258 2804 
Q 2091 2906 1866 2906 
Q 1506 2906 1245 2678 
Q 984 2450 984 1813 
L 984 0 
L 422 0 
z
" transform="scale(0.015625)"/>
      <path id="ArialMT-73" d="M 197 991 
L 753 1078 
Q 800 744 1014 566 
Q 1228 388 1613 388 
Q 2000 388 2187 545 
Q 2375 703 2375 916 
Q 2375 1106 2209 1216 
Q 2094 1291 1634 1406 
Q 1016 1563 777 1677 
Q 538 1791 414 1992 
Q 291 2194 291 2438 
Q 291 2659 392 2848 
Q 494 3038 669 3163 
Q 800 3259 1026 3326 
Q 1253 3394 1513 3394 
Q 1903 3394 2198 3281 
Q 2494 3169 2634 2976 
Q 2775 2784 2828 2463 
L 2278 2388 
Q 2241 2644 2061 2787 
Q 1881 2931 1553 2931 
Q 1166 2931 1000 2803 
Q 834 2675 834 2503 
Q 834 2394 903 2306 
Q 972 2216 1119 2156 
Q 1203 2125 1616 2013 
Q 2213 1853 2448 1751 
Q 2684 1650 2818 1456 
Q 2953 1263 2953 975 
Q 2953 694 2789 445 
Q 2625 197 2315 61 
Q 2006 -75 1616 -75 
Q 969 -75 630 194 
Q 291 463 197 991 
z
" transform="scale(0.015625)"/>
     </defs>
     <use xlink:href="#ArialMT-6e"/>
     <use xlink:href="#ArialMT-73" x="55.615234"/>
    </g>
   </g>
  </g>
 </g>
 <defs>
  <clipPath id="p8d851219b5">
   <rect x="70.722188" y="7.2" width="167.4" height="221.76"/>
  </clipPath>
 </defs>
</svg>
