<?xml version="1.0" encoding="utf-8" standalone="no"?>
<!DOCTYPE svg PUBLIC "-//W3C//DTD SVG 1.1//EN"
  "http://www.w3.org/Graphics/SVG/1.1/DTD/svg11.dtd">
<svg xmlns:xlink="http://www.w3.org/1999/xlink" width="239.205156pt" height="255.719844pt" viewBox="0 0 239.205156 255.719844" xmlns="http://www.w3.org/2000/svg" version="1.1">
 <metadata>
  <rdf:RDF xmlns:dc="http://purl.org/dc/elements/1.1/" xmlns:cc="http://creativecommons.org/ns#" xmlns:rdf="http://www.w3.org/1999/02/22-rdf-syntax-ns#">
   <cc:Work>
    <dc:type rdf:resource="http://purl.org/dc/dcmitype/StillImage"/>
    <dc:date>2025-05-27T11:17:06.782433</dc:date>
    <dc:format>image/svg+xml</dc:format>
    <dc:creator>
     <cc:Agent>
      <dc:title>Matplotlib v3.9.2, https://matplotlib.org/</dc:title>
     </cc:Agent>
    </dc:creator>
   </cc:Work>
  </rdf:RDF>
 </metadata>
 <defs>
  <style type="text/css">*{stroke-linejoin: round; stroke-linecap: butt}</style>
 </defs>
 <g id="figure_1">
  <g id="patch_1">
   <path d="M 0 255.719844 
L 239.205156 255.719844 
L 239.205156 0 
L 0 0 
z
" style="fill: #ffffff"/>
  </g>
  <g id="axes_1">
   <g id="patch_2">
    <path d="M 64.605156 228.96 
L 232.005156 228.96 
L 232.005156 7.2 
L 64.605156 7.2 
z
" style="fill: #ffffff"/>
   </g>
   <g id="matplotlib.axis_1">
    <g id="xtick_1">
     <g id="text_1">
      <!-- Term -->
      <g style="fill: #262626" transform="translate(93.813835 246.333594) scale(0.11 -0.11)">
       <defs>
        <path id="ArialMT-54" d="M 1659 0 
L 1659 4041 
L 150 4041 
L 150 4581 
L 3781 4581 
L 3781 4041 
L 2266 4041 
L 2266 0 
L 1659 0 
z
" transform="scale(0.015625)"/>
        <path id="ArialMT-65" d="M 2694 1069 
L 3275 997 
Q 3138 488 2766 206 
Q 2394 -75 1816 -75 
Q 1088 -75 661 373 
Q 234 822 234 1631 
Q 234 2469 665 2931 
Q 1097 3394 1784 3394 
Q 2450 3394 2872 2941 
Q 3294 2488 3294 1666 
Q 3294 1616 3291 1516 
L 816 1516 
Q 847 969 1125 678 
Q 1403 388 1819 388 
Q 2128 388 2347 550 
Q 2566 713 2694 1069 
z
M 847 1978 
L 2700 1978 
Q 2663 2397 2488 2606 
Q 2219 2931 1791 2931 
Q 1403 2931 1139 2672 
Q 875 2413 847 1978 
z
" transform="scale(0.015625)"/>
        <path id="ArialMT-72" d="M 416 0 
L 416 3319 
L 922 3319 
L 922 2816 
Q 1116 3169 1280 3281 
Q 1444 3394 1641 3394 
Q 1925 3394 2219 3213 
L 2025 2691 
Q 1819 2813 1613 2813 
Q 1428 2813 1281 2702 
Q 1134 2591 1072 2394 
Q 978 2094 978 1738 
L 978 0 
L 416 0 
z
" transform="scale(0.015625)"/>
        <path id="ArialMT-6d" d="M 422 0 
L 422 3319 
L 925 3319 
L 925 2853 
Q 1081 3097 1340 3245 
Q 1600 3394 1931 3394 
Q 2300 3394 2536 3241 
Q 2772 3088 2869 2813 
Q 3263 3394 3894 3394 
Q 4388 3394 4653 3120 
Q 4919 2847 4919 2278 
L 4919 0 
L 4359 0 
L 4359 2091 
Q 4359 2428 4304 2576 
Q 4250 2725 4106 2815 
Q 3963 2906 3769 2906 
Q 3419 2906 3187 2673 
Q 2956 2441 2956 1928 
L 2956 0 
L 2394 0 
L 2394 2156 
Q 2394 2531 2256 2718 
Q 2119 2906 1806 2906 
Q 1569 2906 1367 2781 
Q 1166 2656 1075 2415 
Q 984 2175 984 1722 
L 984 0 
L 422 0 
z
" transform="scale(0.015625)"/>
       </defs>
       <use xlink:href="#ArialMT-54"/>
       <use xlink:href="#ArialMT-65" x="49.958984"/>
       <use xlink:href="#ArialMT-72" x="105.574219"/>
       <use xlink:href="#ArialMT-6d" x="138.875"/>
      </g>
     </g>
    </g>
    <g id="xtick_2">
     <g id="text_2">
      <!-- Preterm -->
      <g style="fill: #262626" transform="translate(171.020227 246.333594) scale(0.11 -0.11)">
       <defs>
        <path id="ArialMT-50" d="M 494 0 
L 494 4581 
L 2222 4581 
Q 2678 4581 2919 4538 
Q 3256 4481 3484 4323 
Q 3713 4166 3852 3881 
Q 3991 3597 3991 3256 
Q 3991 2672 3619 2267 
Q 3247 1863 2275 1863 
L 1100 1863 
L 1100 0 
L 494 0 
z
M 1100 2403 
L 2284 2403 
Q 2872 2403 3119 2622 
Q 3366 2841 3366 3238 
Q 3366 3525 3220 3729 
Q 3075 3934 2838 4000 
Q 2684 4041 2272 4041 
L 1100 4041 
L 1100 2403 
z
" transform="scale(0.015625)"/>
        <path id="ArialMT-74" d="M 1650 503 
L 1731 6 
Q 1494 -44 1306 -44 
Q 1000 -44 831 53 
Q 663 150 594 308 
Q 525 466 525 972 
L 525 2881 
L 113 2881 
L 113 3319 
L 525 3319 
L 525 4141 
L 1084 4478 
L 1084 3319 
L 1650 3319 
L 1650 2881 
L 1084 2881 
L 1084 941 
Q 1084 700 1114 631 
Q 1144 563 1211 522 
Q 1278 481 1403 481 
Q 1497 481 1650 503 
z
" transform="scale(0.015625)"/>
       </defs>
       <use xlink:href="#ArialMT-50"/>
       <use xlink:href="#ArialMT-72" x="66.699219"/>
       <use xlink:href="#ArialMT-65" x="100"/>
       <use xlink:href="#ArialMT-74" x="155.615234"/>
       <use xlink:href="#ArialMT-65" x="183.398438"/>
       <use xlink:href="#ArialMT-72" x="239.013672"/>
       <use xlink:href="#ArialMT-6d" x="272.314453"/>
      </g>
     </g>
    </g>
   </g>
   <g id="matplotlib.axis_2">
    <g id="ytick_1">
     <g id="text_3">
      <!-- 8000 -->
      <g style="fill: #262626" transform="translate(30.637031 218.637397) scale(0.11 -0.11)">
       <defs>
        <path id="ArialMT-38" d="M 1131 2484 
Q 781 2613 612 2850 
Q 444 3088 444 3419 
Q 444 3919 803 4259 
Q 1163 4600 1759 4600 
Q 2359 4600 2725 4251 
Q 3091 3903 3091 3403 
Q 3091 3084 2923 2848 
Q 2756 2613 2416 2484 
Q 2838 2347 3058 2040 
Q 3278 1734 3278 1309 
Q 3278 722 2862 322 
Q 2447 -78 1769 -78 
Q 1091 -78 675 323 
Q 259 725 259 1325 
Q 259 1772 486 2073 
Q 713 2375 1131 2484 
z
M 1019 3438 
Q 1019 3113 1228 2906 
Q 1438 2700 1772 2700 
Q 2097 2700 2305 2904 
Q 2513 3109 2513 3406 
Q 2513 3716 2298 3927 
Q 2084 4138 1766 4138 
Q 1444 4138 1231 3931 
Q 1019 3725 1019 3438 
z
M 838 1322 
Q 838 1081 952 856 
Q 1066 631 1291 507 
Q 1516 384 1775 384 
Q 2178 384 2440 643 
Q 2703 903 2703 1303 
Q 2703 1709 2433 1975 
Q 2163 2241 1756 2241 
Q 1359 2241 1098 1978 
Q 838 1716 838 1322 
z
" transform="scale(0.015625)"/>
        <path id="ArialMT-30" d="M 266 2259 
Q 266 3072 433 3567 
Q 600 4063 929 4331 
Q 1259 4600 1759 4600 
Q 2128 4600 2406 4451 
Q 2684 4303 2865 4023 
Q 3047 3744 3150 3342 
Q 3253 2941 3253 2259 
Q 3253 1453 3087 958 
Q 2922 463 2592 192 
Q 2263 -78 1759 -78 
Q 1097 -78 719 397 
Q 266 969 266 2259 
z
M 844 2259 
Q 844 1131 1108 757 
Q 1372 384 1759 384 
Q 2147 384 2411 759 
Q 2675 1134 2675 2259 
Q 2675 3391 2411 3762 
Q 2147 4134 1753 4134 
Q 1366 4134 1134 3806 
Q 844 3388 844 2259 
z
" transform="scale(0.015625)"/>
       </defs>
       <use xlink:href="#ArialMT-38"/>
       <use xlink:href="#ArialMT-30" x="55.615234"/>
       <use xlink:href="#ArialMT-30" x="111.230469"/>
       <use xlink:href="#ArialMT-30" x="166.845703"/>
      </g>
     </g>
    </g>
    <g id="ytick_2">
     <g id="text_4">
      <!-- 10000 -->
      <g style="fill: #262626" transform="translate(24.52 187.846769) scale(0.11 -0.11)">
       <defs>
        <path id="ArialMT-31" d="M 2384 0 
L 1822 0 
L 1822 3584 
Q 1619 3391 1289 3197 
Q 959 3003 697 2906 
L 697 3450 
Q 1169 3672 1522 3987 
Q 1875 4303 2022 4600 
L 2384 4600 
L 2384 0 
z
" transform="scale(0.015625)"/>
       </defs>
       <use xlink:href="#ArialMT-31"/>
       <use xlink:href="#ArialMT-30" x="55.615234"/>
       <use xlink:href="#ArialMT-30" x="111.230469"/>
       <use xlink:href="#ArialMT-30" x="166.845703"/>
       <use xlink:href="#ArialMT-30" x="222.460938"/>
      </g>
     </g>
    </g>
    <g id="ytick_3">
     <g id="text_5">
      <!-- 12000 -->
      <g style="fill: #262626" transform="translate(24.52 157.056142) scale(0.11 -0.11)">
       <defs>
        <path id="ArialMT-32" d="M 3222 541 
L 3222 0 
L 194 0 
Q 188 203 259 391 
Q 375 700 629 1000 
Q 884 1300 1366 1694 
Q 2113 2306 2375 2664 
Q 2638 3022 2638 3341 
Q 2638 3675 2398 3904 
Q 2159 4134 1775 4134 
Q 1369 4134 1125 3890 
Q 881 3647 878 3216 
L 300 3275 
Q 359 3922 746 4261 
Q 1134 4600 1788 4600 
Q 2447 4600 2831 4234 
Q 3216 3869 3216 3328 
Q 3216 3053 3103 2787 
Q 2991 2522 2730 2228 
Q 2469 1934 1863 1422 
Q 1356 997 1212 845 
Q 1069 694 975 541 
L 3222 541 
z
" transform="scale(0.015625)"/>
       </defs>
       <use xlink:href="#ArialMT-31"/>
       <use xlink:href="#ArialMT-32" x="55.615234"/>
       <use xlink:href="#ArialMT-30" x="111.230469"/>
       <use xlink:href="#ArialMT-30" x="166.845703"/>
       <use xlink:href="#ArialMT-30" x="222.460938"/>
      </g>
     </g>
    </g>
    <g id="ytick_4">
     <g id="text_6">
      <!-- 14000 -->
      <g style="fill: #262626" transform="translate(24.52 126.265515) scale(0.11 -0.11)">
       <defs>
        <path id="ArialMT-34" d="M 2069 0 
L 2069 1097 
L 81 1097 
L 81 1613 
L 2172 4581 
L 2631 4581 
L 2631 1613 
L 3250 1613 
L 3250 1097 
L 2631 1097 
L 2631 0 
L 2069 0 
z
M 2069 1613 
L 2069 3678 
L 634 1613 
L 2069 1613 
z
" transform="scale(0.015625)"/>
       </defs>
       <use xlink:href="#ArialMT-31"/>
       <use xlink:href="#ArialMT-34" x="55.615234"/>
       <use xlink:href="#ArialMT-30" x="111.230469"/>
       <use xlink:href="#ArialMT-30" x="166.845703"/>
       <use xlink:href="#ArialMT-30" x="222.460938"/>
      </g>
     </g>
    </g>
    <g id="ytick_5">
     <g id="text_7">
      <!-- 16000 -->
      <g style="fill: #262626" transform="translate(24.52 95.474888) scale(0.11 -0.11)">
       <defs>
        <path id="ArialMT-36" d="M 3184 3459 
L 2625 3416 
Q 2550 3747 2413 3897 
Q 2184 4138 1850 4138 
Q 1581 4138 1378 3988 
Q 1113 3794 959 3422 
Q 806 3050 800 2363 
Q 1003 2672 1297 2822 
Q 1591 2972 1913 2972 
Q 2475 2972 2870 2558 
Q 3266 2144 3266 1488 
Q 3266 1056 3080 686 
Q 2894 316 2569 119 
Q 2244 -78 1831 -78 
Q 1128 -78 684 439 
Q 241 956 241 2144 
Q 241 3472 731 4075 
Q 1159 4600 1884 4600 
Q 2425 4600 2770 4297 
Q 3116 3994 3184 3459 
z
M 888 1484 
Q 888 1194 1011 928 
Q 1134 663 1356 523 
Q 1578 384 1822 384 
Q 2178 384 2434 671 
Q 2691 959 2691 1453 
Q 2691 1928 2437 2201 
Q 2184 2475 1800 2475 
Q 1419 2475 1153 2201 
Q 888 1928 888 1484 
z
" transform="scale(0.015625)"/>
       </defs>
       <use xlink:href="#ArialMT-31"/>
       <use xlink:href="#ArialMT-36" x="55.615234"/>
       <use xlink:href="#ArialMT-30" x="111.230469"/>
       <use xlink:href="#ArialMT-30" x="166.845703"/>
       <use xlink:href="#ArialMT-30" x="222.460938"/>
      </g>
     </g>
    </g>
    <g id="ytick_6">
     <g id="text_8">
      <!-- 18000 -->
      <g style="fill: #262626" transform="translate(24.52 64.68426) scale(0.11 -0.11)">
       <use xlink:href="#ArialMT-31"/>
       <use xlink:href="#ArialMT-38" x="55.615234"/>
       <use xlink:href="#ArialMT-30" x="111.230469"/>
       <use xlink:href="#ArialMT-30" x="166.845703"/>
       <use xlink:href="#ArialMT-30" x="222.460938"/>
      </g>
     </g>
    </g>
    <g id="ytick_7">
     <g id="text_9">
      <!-- 20000 -->
      <g style="fill: #262626" transform="translate(24.52 33.893633) scale(0.11 -0.11)">
       <use xlink:href="#ArialMT-32"/>
       <use xlink:href="#ArialMT-30" x="55.615234"/>
       <use xlink:href="#ArialMT-30" x="111.230469"/>
       <use xlink:href="#ArialMT-30" x="166.845703"/>
       <use xlink:href="#ArialMT-30" x="222.460938"/>
      </g>
     </g>
    </g>
    <g id="text_10">
     <!-- sGMV [mm$^3$] -->
     <g style="fill: #262626" transform="translate(18.12 152.64) rotate(-90) scale(0.12 -0.12)">
      <defs>
       <path id="ArialMT-73" d="M 197 991 
L 753 1078 
Q 800 744 1014 566 
Q 1228 388 1613 388 
Q 2000 388 2187 545 
Q 2375 703 2375 916 
Q 2375 1106 2209 1216 
Q 2094 1291 1634 1406 
Q 1016 1563 777 1677 
Q 538 1791 414 1992 
Q 291 2194 291 2438 
Q 291 2659 392 2848 
Q 494 3038 669 3163 
Q 800 3259 1026 3326 
Q 1253 3394 1513 3394 
Q 1903 3394 2198 3281 
Q 2494 3169 2634 2976 
Q 2775 2784 2828 2463 
L 2278 2388 
Q 2241 2644 2061 2787 
Q 1881 2931 1553 2931 
Q 1166 2931 1000 2803 
Q 834 2675 834 2503 
Q 834 2394 903 2306 
Q 972 2216 1119 2156 
Q 1203 2125 1616 2013 
Q 2213 1853 2448 1751 
Q 2684 1650 2818 1456 
Q 2953 1263 2953 975 
Q 2953 694 2789 445 
Q 2625 197 2315 61 
Q 2006 -75 1616 -75 
Q 969 -75 630 194 
Q 291 463 197 991 
z
" transform="scale(0.015625)"/>
       <path id="ArialMT-47" d="M 2638 1797 
L 2638 2334 
L 4578 2338 
L 4578 638 
Q 4131 281 3656 101 
Q 3181 -78 2681 -78 
Q 2006 -78 1454 211 
Q 903 500 622 1047 
Q 341 1594 341 2269 
Q 341 2938 620 3517 
Q 900 4097 1425 4378 
Q 1950 4659 2634 4659 
Q 3131 4659 3532 4498 
Q 3934 4338 4162 4050 
Q 4391 3763 4509 3300 
L 3963 3150 
Q 3859 3500 3706 3700 
Q 3553 3900 3268 4020 
Q 2984 4141 2638 4141 
Q 2222 4141 1919 4014 
Q 1616 3888 1430 3681 
Q 1244 3475 1141 3228 
Q 966 2803 966 2306 
Q 966 1694 1177 1281 
Q 1388 869 1791 669 
Q 2194 469 2647 469 
Q 3041 469 3416 620 
Q 3791 772 3984 944 
L 3984 1797 
L 2638 1797 
z
" transform="scale(0.015625)"/>
       <path id="ArialMT-4d" d="M 475 0 
L 475 4581 
L 1388 4581 
L 2472 1338 
Q 2622 884 2691 659 
Q 2769 909 2934 1394 
L 4031 4581 
L 4847 4581 
L 4847 0 
L 4263 0 
L 4263 3834 
L 2931 0 
L 2384 0 
L 1059 3900 
L 1059 0 
L 475 0 
z
" transform="scale(0.015625)"/>
       <path id="ArialMT-56" d="M 1803 0 
L 28 4581 
L 684 4581 
L 1875 1253 
Q 2019 853 2116 503 
Q 2222 878 2363 1253 
L 3600 4581 
L 4219 4581 
L 2425 0 
L 1803 0 
z
" transform="scale(0.015625)"/>
       <path id="ArialMT-20" transform="scale(0.015625)"/>
       <path id="ArialMT-5b" d="M 434 -1272 
L 434 4581 
L 1675 4581 
L 1675 4116 
L 997 4116 
L 997 -806 
L 1675 -806 
L 1675 -1272 
L 434 -1272 
z
" transform="scale(0.015625)"/>
       <path id="DejaVuSans-33" d="M 2597 2516 
Q 3050 2419 3304 2112 
Q 3559 1806 3559 1356 
Q 3559 666 3084 287 
Q 2609 -91 1734 -91 
Q 1441 -91 1130 -33 
Q 819 25 488 141 
L 488 750 
Q 750 597 1062 519 
Q 1375 441 1716 441 
Q 2309 441 2620 675 
Q 2931 909 2931 1356 
Q 2931 1769 2642 2001 
Q 2353 2234 1838 2234 
L 1294 2234 
L 1294 2753 
L 1863 2753 
Q 2328 2753 2575 2939 
Q 2822 3125 2822 3475 
Q 2822 3834 2567 4026 
Q 2313 4219 1838 4219 
Q 1578 4219 1281 4162 
Q 984 4106 628 3988 
L 628 4550 
Q 988 4650 1302 4700 
Q 1616 4750 1894 4750 
Q 2613 4750 3031 4423 
Q 3450 4097 3450 3541 
Q 3450 3153 3228 2886 
Q 3006 2619 2597 2516 
z
" transform="scale(0.015625)"/>
       <path id="ArialMT-5d" d="M 1363 -1272 
L 122 -1272 
L 122 -806 
L 800 -806 
L 800 4116 
L 122 4116 
L 122 4581 
L 1363 4581 
L 1363 -1272 
z
" transform="scale(0.015625)"/>
      </defs>
      <use xlink:href="#ArialMT-73" transform="translate(0 0.765625)"/>
      <use xlink:href="#ArialMT-47" transform="translate(50 0.765625)"/>
      <use xlink:href="#ArialMT-4d" transform="translate(127.783203 0.765625)"/>
      <use xlink:href="#ArialMT-56" transform="translate(211.083984 0.765625)"/>
      <use xlink:href="#ArialMT-20" transform="translate(277.783203 0.765625)"/>
      <use xlink:href="#ArialMT-5b" transform="translate(305.566406 0.765625)"/>
      <use xlink:href="#ArialMT-6d" transform="translate(333.349609 0.765625)"/>
      <use xlink:href="#ArialMT-6d" transform="translate(416.650391 0.765625)"/>
      <use xlink:href="#DejaVuSans-33" transform="translate(500.908203 39.046875) scale(0.7)"/>
      <use xlink:href="#ArialMT-5d" transform="translate(548.178711 0.765625)"/>
     </g>
    </g>
   </g>
   <g id="PolyCollection_1">
    <defs>
     <path id="m830a6b6d6b" d="M 106.065488 -66.048324 
L 105.99937 -66.048324 
L 105.979607 -67.662574 
L 105.952096 -69.276824 
L 105.915909 -70.891075 
L 105.870807 -72.505325 
L 105.817248 -74.119575 
L 105.756049 -75.733825 
L 105.687641 -77.348075 
L 105.610995 -78.962325 
L 105.522422 -80.576575 
L 105.414592 -82.190825 
L 105.276102 -83.805075 
L 105.091898 -85.419325 
L 104.844707 -87.033575 
L 104.517421 -88.647825 
L 104.096112 -90.262075 
L 103.573136 -91.876325 
L 102.949586 -93.490575 
L 102.236345 -95.104825 
L 101.453206 -96.719075 
L 100.625921 -98.333325 
L 99.78158 -99.947575 
L 98.94326 -101.561825 
L 98.125133 -103.176075 
L 97.329187 -104.790325 
L 96.544328 -106.404576 
L 95.74802 -108.018826 
L 94.910114 -109.633076 
L 93.998157 -111.247326 
L 92.983414 -112.861576 
L 91.846789 -114.475826 
L 90.583764 -116.090076 
L 89.207234 -117.704326 
L 87.747119 -119.318576 
L 86.246047 -120.932826 
L 84.751484 -122.547076 
L 83.306106 -124.161326 
L 81.939235 -125.775576 
L 80.662188 -127.389826 
L 79.469172 -129.004076 
L 78.343413 -130.618326 
L 77.266486 -132.232576 
L 76.227954 -133.846826 
L 75.232738 -135.461076 
L 74.304577 -137.075326 
L 73.484944 -138.689576 
L 72.82745 -140.303827 
L 72.388328 -141.918077 
L 72.214247 -143.532327 
L 72.329675 -145.146577 
L 72.726913 -146.760827 
L 73.3621 -148.375077 
L 74.159477 -149.989327 
L 75.023981 -151.603577 
L 75.859637 -153.217827 
L 76.589131 -154.832077 
L 77.169453 -156.446327 
L 77.59959 -158.060577 
L 77.918693 -159.674827 
L 78.195726 -161.289077 
L 78.513672 -162.903327 
L 78.95225 -164.517577 
L 79.572944 -166.131827 
L 80.409099 -167.746077 
L 81.462453 -169.360327 
L 82.70589 -170.974577 
L 84.090922 -172.588827 
L 85.557611 -174.203078 
L 87.044589 -175.817328 
L 88.497383 -177.431578 
L 89.874064 -179.045828 
L 91.14794 -180.660078 
L 92.307497 -182.274328 
L 93.354056 -183.888578 
L 94.297956 -185.502828 
L 95.154362 -187.117078 
L 95.939879 -188.731328 
L 96.670748 -190.345578 
L 97.362544 -191.959828 
L 98.030493 -193.574078 
L 98.689179 -195.188328 
L 99.350915 -196.802578 
L 100.023049 -198.416828 
L 100.705415 -200.031078 
L 101.389391 -201.645328 
L 102.059385 -203.259578 
L 102.696461 -204.873828 
L 103.282831 -206.488078 
L 103.805586 -208.102329 
L 104.258535 -209.716579 
L 104.641894 -211.330829 
L 104.960464 -212.945079 
L 105.221321 -214.559329 
L 105.431938 -216.173579 
L 105.599183 -217.787829 
L 105.729115 -219.402079 
L 105.827239 -221.016329 
L 105.898805 -222.630579 
L 105.948934 -224.244829 
L 105.982502 -225.859079 
L 106.082355 -225.859079 
L 106.082355 -225.859079 
L 106.115924 -224.244829 
L 106.166052 -222.630579 
L 106.237619 -221.016329 
L 106.335743 -219.402079 
L 106.465675 -217.787829 
L 106.63292 -216.173579 
L 106.843537 -214.559329 
L 107.104394 -212.945079 
L 107.422964 -211.330829 
L 107.806323 -209.716579 
L 108.259271 -208.102329 
L 108.782027 -206.488078 
L 109.368397 -204.873828 
L 110.005473 -203.259578 
L 110.675467 -201.645328 
L 111.359443 -200.031078 
L 112.041809 -198.416828 
L 112.713943 -196.802578 
L 113.375679 -195.188328 
L 114.034365 -193.574078 
L 114.702314 -191.959828 
L 115.39411 -190.345578 
L 116.124979 -188.731328 
L 116.910496 -187.117078 
L 117.766901 -185.502828 
L 118.710802 -183.888578 
L 119.757361 -182.274328 
L 120.916918 -180.660078 
L 122.190794 -179.045828 
L 123.567475 -177.431578 
L 125.020269 -175.817328 
L 126.507247 -174.203078 
L 127.973936 -172.588827 
L 129.358968 -170.974577 
L 130.602405 -169.360327 
L 131.655759 -167.746077 
L 132.491914 -166.131827 
L 133.112608 -164.517577 
L 133.551186 -162.903327 
L 133.869131 -161.289077 
L 134.146165 -159.674827 
L 134.465268 -158.060577 
L 134.895405 -156.446327 
L 135.475727 -154.832077 
L 136.205221 -153.217827 
L 137.040877 -151.603577 
L 137.905381 -149.989327 
L 138.702758 -148.375077 
L 139.337945 -146.760827 
L 139.735183 -145.146577 
L 139.850611 -143.532327 
L 139.67653 -141.918077 
L 139.237408 -140.303827 
L 138.579914 -138.689576 
L 137.760281 -137.075326 
L 136.83212 -135.461076 
L 135.836904 -133.846826 
L 134.798372 -132.232576 
L 133.721445 -130.618326 
L 132.595686 -129.004076 
L 131.40267 -127.389826 
L 130.125623 -125.775576 
L 128.758752 -124.161326 
L 127.313374 -122.547076 
L 125.818811 -120.932826 
L 124.317739 -119.318576 
L 122.857624 -117.704326 
L 121.481094 -116.090076 
L 120.218069 -114.475826 
L 119.081444 -112.861576 
L 118.066701 -111.247326 
L 117.154744 -109.633076 
L 116.316838 -108.018826 
L 115.52053 -106.404576 
L 114.735671 -104.790325 
L 113.939725 -103.176075 
L 113.121597 -101.561825 
L 112.283278 -99.947575 
L 111.438937 -98.333325 
L 110.611652 -96.719075 
L 109.828513 -95.104825 
L 109.115272 -93.490575 
L 108.491722 -91.876325 
L 107.968746 -90.262075 
L 107.547437 -88.647825 
L 107.220151 -87.033575 
L 106.97296 -85.419325 
L 106.788756 -83.805075 
L 106.650266 -82.190825 
L 106.542436 -80.576575 
L 106.453863 -78.962325 
L 106.377217 -77.348075 
L 106.308809 -75.733825 
L 106.24761 -74.119575 
L 106.194051 -72.505325 
L 106.148949 -70.891075 
L 106.112762 -69.276824 
L 106.085251 -67.662574 
L 106.065488 -66.048324 
z
" style="stroke: #4c4c4c; stroke-width: 0.5"/>
    </defs>
    <g clip-path="url(#pbcb0f75526)">
     <use xlink:href="#m830a6b6d6b" x="0" y="255.719844" style="fill: #5573cd; stroke: #4c4c4c; stroke-width: 0.5"/>
    </g>
   </g>
   <g id="PolyCollection_2">
    <defs>
     <path id="m071cb741f9" d="M 190.67609 -36.24076 
L 190.479677 -36.24076 
L 190.436462 -38.041023 
L 190.380894 -39.841287 
L 190.312294 -41.641551 
L 190.230992 -43.441814 
L 190.13847 -45.242078 
L 190.037291 -47.042342 
L 189.930809 -48.842605 
L 189.822673 -50.642869 
L 189.716252 -52.443132 
L 189.614126 -54.243396 
L 189.517817 -56.04366 
L 189.42784 -57.843923 
L 189.344093 -59.644187 
L 189.266463 -61.444451 
L 189.195425 -63.244714 
L 189.132406 -65.044978 
L 189.079692 -66.845242 
L 189.039808 -68.645505 
L 189.014425 -70.445769 
L 189.00304 -72.246032 
L 189.001727 -74.046296 
L 189.002318 -75.84656 
L 188.9923 -77.646823 
L 188.955535 -79.447087 
L 188.873789 -81.247351 
L 188.728785 -83.047614 
L 188.504403 -84.847878 
L 188.188536 -86.648142 
L 187.774172 -88.448405 
L 187.259413 -90.248669 
L 186.646412 -92.048933 
L 185.939473 -93.849196 
L 185.142822 -95.64946 
L 184.258645 -97.449723 
L 183.285945 -99.249987 
L 182.220503 -101.050251 
L 181.055925 -102.850514 
L 179.785404 -104.650778 
L 178.40372 -106.451042 
L 176.908953 -108.251305 
L 175.303692 -110.051569 
L 173.595745 -111.851833 
L 171.798651 -113.652096 
L 169.932328 -115.45236 
L 168.024004 -117.252623 
L 166.109269 -119.052887 
L 164.23273 -120.853151 
L 162.447518 -122.653414 
L 160.813031 -124.453678 
L 159.390603 -126.253942 
L 158.237409 -128.054205 
L 157.39947 -129.854469 
L 156.905035 -131.654733 
L 156.759702 -133.454996 
L 156.944355 -135.25526 
L 157.416442 -137.055523 
L 158.114452 -138.855787 
L 158.964818 -140.656051 
L 159.890113 -142.456314 
L 160.817245 -144.256578 
L 161.684551 -146.056842 
L 162.446967 -147.857105 
L 163.078868 -149.657369 
L 163.574532 -151.457633 
L 163.946466 -153.257896 
L 164.222033 -155.05816 
L 164.43895 -156.858424 
L 164.640291 -158.658687 
L 164.869644 -160.458951 
L 165.166984 -162.259214 
L 165.565697 -164.059478 
L 166.090909 -165.859742 
L 166.75904 -167.660005 
L 167.578236 -169.460269 
L 168.549213 -171.260533 
L 169.666097 -173.060796 
L 170.916981 -174.86106 
L 172.28421 -176.661324 
L 173.744602 -178.461587 
L 175.269952 -180.261851 
L 176.828106 -182.062114 
L 178.384741 -183.862378 
L 179.905701 -185.662642 
L 181.359566 -187.462905 
L 182.719965 -189.263169 
L 183.967217 -191.063433 
L 185.089041 -192.863696 
L 186.080286 -194.66396 
L 186.941905 -196.464224 
L 187.679475 -198.264487 
L 188.301646 -200.064751 
L 188.818803 -201.865014 
L 189.242073 -203.665278 
L 189.58271 -205.465542 
L 189.851757 -207.265805 
L 190.059861 -209.066069 
L 190.217141 -210.866333 
L 190.333032 -212.666596 
L 190.416125 -214.46686 
L 190.739642 -214.46686 
L 190.739642 -214.46686 
L 190.822735 -212.666596 
L 190.938626 -210.866333 
L 191.095906 -209.066069 
L 191.30401 -207.265805 
L 191.573057 -205.465542 
L 191.913694 -203.665278 
L 192.336964 -201.865014 
L 192.854121 -200.064751 
L 193.476292 -198.264487 
L 194.213862 -196.464224 
L 195.075481 -194.66396 
L 196.066726 -192.863696 
L 197.18855 -191.063433 
L 198.435802 -189.263169 
L 199.796201 -187.462905 
L 201.250066 -185.662642 
L 202.771026 -183.862378 
L 204.327661 -182.062114 
L 205.885815 -180.261851 
L 207.411165 -178.461587 
L 208.871557 -176.661324 
L 210.238786 -174.86106 
L 211.48967 -173.060796 
L 212.606554 -171.260533 
L 213.577531 -169.460269 
L 214.396727 -167.660005 
L 215.064858 -165.859742 
L 215.59007 -164.059478 
L 215.988783 -162.259214 
L 216.286123 -160.458951 
L 216.515476 -158.658687 
L 216.716818 -156.858424 
L 216.933734 -155.05816 
L 217.209301 -153.257896 
L 217.581235 -151.457633 
L 218.076899 -149.657369 
L 218.7088 -147.857105 
L 219.471216 -146.056842 
L 220.338522 -144.256578 
L 221.265654 -142.456314 
L 222.190949 -140.656051 
L 223.041315 -138.855787 
L 223.739325 -137.055523 
L 224.211412 -135.25526 
L 224.396065 -133.454996 
L 224.250733 -131.654733 
L 223.756297 -129.854469 
L 222.918358 -128.054205 
L 221.765164 -126.253942 
L 220.342736 -124.453678 
L 218.708249 -122.653414 
L 216.923037 -120.853151 
L 215.046498 -119.052887 
L 213.131763 -117.252623 
L 211.223439 -115.45236 
L 209.357116 -113.652096 
L 207.560022 -111.851833 
L 205.852075 -110.051569 
L 204.246814 -108.251305 
L 202.752047 -106.451042 
L 201.370363 -104.650778 
L 200.099842 -102.850514 
L 198.935264 -101.050251 
L 197.869822 -99.249987 
L 196.897122 -97.449723 
L 196.012945 -95.64946 
L 195.216294 -93.849196 
L 194.509355 -92.048933 
L 193.896354 -90.248669 
L 193.381595 -88.448405 
L 192.967231 -86.648142 
L 192.651364 -84.847878 
L 192.426982 -83.047614 
L 192.281978 -81.247351 
L 192.200232 -79.447087 
L 192.163467 -77.646823 
L 192.153449 -75.84656 
L 192.15404 -74.046296 
L 192.152727 -72.246032 
L 192.141342 -70.445769 
L 192.115959 -68.645505 
L 192.076075 -66.845242 
L 192.023361 -65.044978 
L 191.960342 -63.244714 
L 191.889304 -61.444451 
L 191.811674 -59.644187 
L 191.727927 -57.843923 
L 191.63795 -56.04366 
L 191.541641 -54.243396 
L 191.439516 -52.443132 
L 191.333094 -50.642869 
L 191.224958 -48.842605 
L 191.118476 -47.042342 
L 191.017298 -45.242078 
L 190.924775 -43.441814 
L 190.843473 -41.641551 
L 190.774873 -39.841287 
L 190.719305 -38.041023 
L 190.67609 -36.24076 
z
" style="stroke: #4c4c4c; stroke-width: 0.5"/>
    </defs>
    <g clip-path="url(#pbcb0f75526)">
     <use xlink:href="#m071cb741f9" x="0" y="255.719844" style="fill: #df8920; stroke: #4c4c4c; stroke-width: 0.5"/>
    </g>
   </g>
   <g id="line2d_1">
    <path d="M 106.032429 176.01795 
L 106.032429 43.514334 
" clip-path="url(#pbcb0f75526)" style="fill: none; stroke: #4c4c4c; stroke-width: 0.75; stroke-linecap: round"/>
   </g>
   <g id="line2d_2">
    <path d="M 106.032429 124.648118 
L 106.032429 89.482816 
" clip-path="url(#pbcb0f75526)" style="fill: none; stroke: #4c4c4c; stroke-width: 2.25; stroke-linecap: round"/>
   </g>
   <g id="line2d_3">
    <path d="M 106.032429 108.43541 
" clip-path="url(#pbcb0f75526)" style="fill: none; stroke: #4c4c4c; stroke-width: 1.5; stroke-linecap: round"/>
    <defs>
     <path id="m1e307b8c3f" d="M 0.9375 0 
L -0.9375 -0 
" style="stroke: #ffffff; stroke-width: 0.45"/>
    </defs>
    <g clip-path="url(#pbcb0f75526)">
     <use xlink:href="#m1e307b8c3f" x="106.032429" y="108.43541" style="fill: #ffffff; stroke: #ffffff; stroke-width: 0.45"/>
    </g>
   </g>
   <g id="line2d_4">
    <path d="M 190.577884 179.630075 
L 190.577884 60.406842 
" clip-path="url(#pbcb0f75526)" style="fill: none; stroke: #4c4c4c; stroke-width: 0.75; stroke-linecap: round"/>
   </g>
   <g id="line2d_5">
    <path d="M 190.577884 129.148842 
L 190.577884 94.198593 
" clip-path="url(#pbcb0f75526)" style="fill: none; stroke: #4c4c4c; stroke-width: 2.25; stroke-linecap: round"/>
   </g>
   <g id="line2d_6">
    <path d="M 190.577884 115.131409 
" clip-path="url(#pbcb0f75526)" style="fill: none; stroke: #4c4c4c; stroke-width: 1.5; stroke-linecap: round"/>
    <g clip-path="url(#pbcb0f75526)">
     <use xlink:href="#m1e307b8c3f" x="190.577884" y="115.131409" style="fill: #ffffff; stroke: #ffffff; stroke-width: 0.45"/>
    </g>
   </g>
   <g id="line2d_7">
    <path d="M 106.032429 30.999525 
L 106.032429 26.827922 
L 190.577884 26.827922 
L 190.577884 30.999525 
" style="fill: none; stroke: #333333; stroke-width: 0.5; stroke-linecap: round"/>
   </g>
   <g id="patch_3">
    <path d="M 64.605156 228.96 
L 64.605156 7.2 
" style="fill: none; stroke: #262626; stroke-width: 1.25; stroke-linejoin: miter; stroke-linecap: square"/>
   </g>
   <g id="patch_4">
    <path d="M 64.605156 228.96 
L 232.005156 228.96 
" style="fill: none; stroke: #262626; stroke-width: 1.25; stroke-linejoin: miter; stroke-linecap: square"/>
   </g>
   <g id="text_11">
    <!-- ** -->
    <g style="fill: #262626" transform="translate(143.634531 23.442922) scale(0.12 -0.12)">
     <defs>
      <path id="ArialMT-2a" d="M 200 3741 
L 344 4184 
Q 841 4009 1066 3881 
Q 1006 4447 1003 4659 
L 1456 4659 
Q 1447 4350 1384 3884 
Q 1706 4047 2122 4184 
L 2266 3741 
Q 1869 3609 1488 3566 
Q 1678 3400 2025 2975 
L 1650 2709 
Q 1469 2956 1222 3381 
Q 991 2941 816 2709 
L 447 2975 
Q 809 3422 966 3566 
Q 563 3644 200 3741 
z
" transform="scale(0.015625)"/>
     </defs>
     <use xlink:href="#ArialMT-2a"/>
     <use xlink:href="#ArialMT-2a" x="38.916016"/>
    </g>
   </g>
  </g>
 </g>
 <defs>
  <clipPath id="pbcb0f75526">
   <rect x="64.605156" y="7.2" width="167.4" height="221.76"/>
  </clipPath>
 </defs>
</svg>
