<?xml version="1.0" encoding="utf-8" standalone="no"?>
<!DOCTYPE svg PUBLIC "-//W3C//DTD SVG 1.1//EN"
  "http://www.w3.org/Graphics/SVG/1.1/DTD/svg11.dtd">
<svg xmlns:xlink="http://www.w3.org/1999/xlink" width="245.322187pt" height="255.719844pt" viewBox="0 0 245.322187 255.719844" xmlns="http://www.w3.org/2000/svg" version="1.1">
 <metadata>
  <rdf:RDF xmlns:dc="http://purl.org/dc/elements/1.1/" xmlns:cc="http://creativecommons.org/ns#" xmlns:rdf="http://www.w3.org/1999/02/22-rdf-syntax-ns#">
   <cc:Work>
    <dc:type rdf:resource="http://purl.org/dc/dcmitype/StillImage"/>
    <dc:date>2025-05-27T11:17:06.399773</dc:date>
    <dc:format>image/svg+xml</dc:format>
    <dc:creator>
     <cc:Agent>
      <dc:title>Matplotlib v3.9.2, https://matplotlib.org/</dc:title>
     </cc:Agent>
    </dc:creator>
   </cc:Work>
  </rdf:RDF>
 </metadata>
 <defs>
  <style type="text/css">*{stroke-linejoin: round; stroke-linecap: butt}</style>
 </defs>
 <g id="figure_1">
  <g id="patch_1">
   <path d="M -0 255.719844 
L 245.322188 255.719844 
L 245.322188 0 
L -0 0 
z
" style="fill: #ffffff"/>
  </g>
  <g id="axes_1">
   <g id="patch_2">
    <path d="M 70.722188 228.96 
L 238.122188 228.96 
L 238.122188 7.2 
L 70.722188 7.2 
z
" style="fill: #ffffff"/>
   </g>
   <g id="matplotlib.axis_1">
    <g id="xtick_1">
     <g id="text_1">
      <!-- Term -->
      <g style="fill: #262626" transform="translate(99.930866 246.333594) scale(0.11 -0.11)">
       <defs>
        <path id="ArialMT-54" d="M 1659 0 
L 1659 4041 
L 150 4041 
L 150 4581 
L 3781 4581 
L 3781 4041 
L 2266 4041 
L 2266 0 
L 1659 0 
z
" transform="scale(0.015625)"/>
        <path id="ArialMT-65" d="M 2694 1069 
L 3275 997 
Q 3138 488 2766 206 
Q 2394 -75 1816 -75 
Q 1088 -75 661 373 
Q 234 822 234 1631 
Q 234 2469 665 2931 
Q 1097 3394 1784 3394 
Q 2450 3394 2872 2941 
Q 3294 2488 3294 1666 
Q 3294 1616 3291 1516 
L 816 1516 
Q 847 969 1125 678 
Q 1403 388 1819 388 
Q 2128 388 2347 550 
Q 2566 713 2694 1069 
z
M 847 1978 
L 2700 1978 
Q 2663 2397 2488 2606 
Q 2219 2931 1791 2931 
Q 1403 2931 1139 2672 
Q 875 2413 847 1978 
z
" transform="scale(0.015625)"/>
        <path id="ArialMT-72" d="M 416 0 
L 416 3319 
L 922 3319 
L 922 2816 
Q 1116 3169 1280 3281 
Q 1444 3394 1641 3394 
Q 1925 3394 2219 3213 
L 2025 2691 
Q 1819 2813 1613 2813 
Q 1428 2813 1281 2702 
Q 1134 2591 1072 2394 
Q 978 2094 978 1738 
L 978 0 
L 416 0 
z
" transform="scale(0.015625)"/>
        <path id="ArialMT-6d" d="M 422 0 
L 422 3319 
L 925 3319 
L 925 2853 
Q 1081 3097 1340 3245 
Q 1600 3394 1931 3394 
Q 2300 3394 2536 3241 
Q 2772 3088 2869 2813 
Q 3263 3394 3894 3394 
Q 4388 3394 4653 3120 
Q 4919 2847 4919 2278 
L 4919 0 
L 4359 0 
L 4359 2091 
Q 4359 2428 4304 2576 
Q 4250 2725 4106 2815 
Q 3963 2906 3769 2906 
Q 3419 2906 3187 2673 
Q 2956 2441 2956 1928 
L 2956 0 
L 2394 0 
L 2394 2156 
Q 2394 2531 2256 2718 
Q 2119 2906 1806 2906 
Q 1569 2906 1367 2781 
Q 1166 2656 1075 2415 
Q 984 2175 984 1722 
L 984 0 
L 422 0 
z
" transform="scale(0.015625)"/>
       </defs>
       <use xlink:href="#ArialMT-54"/>
       <use xlink:href="#ArialMT-65" x="49.958984"/>
       <use xlink:href="#ArialMT-72" x="105.574219"/>
       <use xlink:href="#ArialMT-6d" x="138.875"/>
      </g>
     </g>
    </g>
    <g id="xtick_2">
     <g id="text_2">
      <!-- Preterm -->
      <g style="fill: #262626" transform="translate(177.137259 246.333594) scale(0.11 -0.11)">
       <defs>
        <path id="ArialMT-50" d="M 494 0 
L 494 4581 
L 2222 4581 
Q 2678 4581 2919 4538 
Q 3256 4481 3484 4323 
Q 3713 4166 3852 3881 
Q 3991 3597 3991 3256 
Q 3991 2672 3619 2267 
Q 3247 1863 2275 1863 
L 1100 1863 
L 1100 0 
L 494 0 
z
M 1100 2403 
L 2284 2403 
Q 2872 2403 3119 2622 
Q 3366 2841 3366 3238 
Q 3366 3525 3220 3729 
Q 3075 3934 2838 4000 
Q 2684 4041 2272 4041 
L 1100 4041 
L 1100 2403 
z
" transform="scale(0.015625)"/>
        <path id="ArialMT-74" d="M 1650 503 
L 1731 6 
Q 1494 -44 1306 -44 
Q 1000 -44 831 53 
Q 663 150 594 308 
Q 525 466 525 972 
L 525 2881 
L 113 2881 
L 113 3319 
L 525 3319 
L 525 4141 
L 1084 4478 
L 1084 3319 
L 1650 3319 
L 1650 2881 
L 1084 2881 
L 1084 941 
Q 1084 700 1114 631 
Q 1144 563 1211 522 
Q 1278 481 1403 481 
Q 1497 481 1650 503 
z
" transform="scale(0.015625)"/>
       </defs>
       <use xlink:href="#ArialMT-50"/>
       <use xlink:href="#ArialMT-72" x="66.699219"/>
       <use xlink:href="#ArialMT-65" x="100"/>
       <use xlink:href="#ArialMT-74" x="155.615234"/>
       <use xlink:href="#ArialMT-65" x="183.398438"/>
       <use xlink:href="#ArialMT-72" x="239.013672"/>
       <use xlink:href="#ArialMT-6d" x="272.314453"/>
      </g>
     </g>
    </g>
   </g>
   <g id="matplotlib.axis_2">
    <g id="ytick_1">
     <g id="text_3">
      <!-- 60000 -->
      <g style="fill: #262626" transform="translate(30.637031 206.506703) scale(0.11 -0.11)">
       <defs>
        <path id="ArialMT-36" d="M 3184 3459 
L 2625 3416 
Q 2550 3747 2413 3897 
Q 2184 4138 1850 4138 
Q 1581 4138 1378 3988 
Q 1113 3794 959 3422 
Q 806 3050 800 2363 
Q 1003 2672 1297 2822 
Q 1591 2972 1913 2972 
Q 2475 2972 2870 2558 
Q 3266 2144 3266 1488 
Q 3266 1056 3080 686 
Q 2894 316 2569 119 
Q 2244 -78 1831 -78 
Q 1128 -78 684 439 
Q 241 956 241 2144 
Q 241 3472 731 4075 
Q 1159 4600 1884 4600 
Q 2425 4600 2770 4297 
Q 3116 3994 3184 3459 
z
M 888 1484 
Q 888 1194 1011 928 
Q 1134 663 1356 523 
Q 1578 384 1822 384 
Q 2178 384 2434 671 
Q 2691 959 2691 1453 
Q 2691 1928 2437 2201 
Q 2184 2475 1800 2475 
Q 1419 2475 1153 2201 
Q 888 1928 888 1484 
z
" transform="scale(0.015625)"/>
        <path id="ArialMT-30" d="M 266 2259 
Q 266 3072 433 3567 
Q 600 4063 929 4331 
Q 1259 4600 1759 4600 
Q 2128 4600 2406 4451 
Q 2684 4303 2865 4023 
Q 3047 3744 3150 3342 
Q 3253 2941 3253 2259 
Q 3253 1453 3087 958 
Q 2922 463 2592 192 
Q 2263 -78 1759 -78 
Q 1097 -78 719 397 
Q 266 969 266 2259 
z
M 844 2259 
Q 844 1131 1108 757 
Q 1372 384 1759 384 
Q 2147 384 2411 759 
Q 2675 1134 2675 2259 
Q 2675 3391 2411 3762 
Q 2147 4134 1753 4134 
Q 1366 4134 1134 3806 
Q 844 3388 844 2259 
z
" transform="scale(0.015625)"/>
       </defs>
       <use xlink:href="#ArialMT-36"/>
       <use xlink:href="#ArialMT-30" x="55.615234"/>
       <use xlink:href="#ArialMT-30" x="111.230469"/>
       <use xlink:href="#ArialMT-30" x="166.845703"/>
       <use xlink:href="#ArialMT-30" x="222.460938"/>
      </g>
     </g>
    </g>
    <g id="ytick_2">
     <g id="text_4">
      <!-- 80000 -->
      <g style="fill: #262626" transform="translate(30.637031 175.893842) scale(0.11 -0.11)">
       <defs>
        <path id="ArialMT-38" d="M 1131 2484 
Q 781 2613 612 2850 
Q 444 3088 444 3419 
Q 444 3919 803 4259 
Q 1163 4600 1759 4600 
Q 2359 4600 2725 4251 
Q 3091 3903 3091 3403 
Q 3091 3084 2923 2848 
Q 2756 2613 2416 2484 
Q 2838 2347 3058 2040 
Q 3278 1734 3278 1309 
Q 3278 722 2862 322 
Q 2447 -78 1769 -78 
Q 1091 -78 675 323 
Q 259 725 259 1325 
Q 259 1772 486 2073 
Q 713 2375 1131 2484 
z
M 1019 3438 
Q 1019 3113 1228 2906 
Q 1438 2700 1772 2700 
Q 2097 2700 2305 2904 
Q 2513 3109 2513 3406 
Q 2513 3716 2298 3927 
Q 2084 4138 1766 4138 
Q 1444 4138 1231 3931 
Q 1019 3725 1019 3438 
z
M 838 1322 
Q 838 1081 952 856 
Q 1066 631 1291 507 
Q 1516 384 1775 384 
Q 2178 384 2440 643 
Q 2703 903 2703 1303 
Q 2703 1709 2433 1975 
Q 2163 2241 1756 2241 
Q 1359 2241 1098 1978 
Q 838 1716 838 1322 
z
" transform="scale(0.015625)"/>
       </defs>
       <use xlink:href="#ArialMT-38"/>
       <use xlink:href="#ArialMT-30" x="55.615234"/>
       <use xlink:href="#ArialMT-30" x="111.230469"/>
       <use xlink:href="#ArialMT-30" x="166.845703"/>
       <use xlink:href="#ArialMT-30" x="222.460938"/>
      </g>
     </g>
    </g>
    <g id="ytick_3">
     <g id="text_5">
      <!-- 100000 -->
      <g style="fill: #262626" transform="translate(24.52 145.280982) scale(0.11 -0.11)">
       <defs>
        <path id="ArialMT-31" d="M 2384 0 
L 1822 0 
L 1822 3584 
Q 1619 3391 1289 3197 
Q 959 3003 697 2906 
L 697 3450 
Q 1169 3672 1522 3987 
Q 1875 4303 2022 4600 
L 2384 4600 
L 2384 0 
z
" transform="scale(0.015625)"/>
       </defs>
       <use xlink:href="#ArialMT-31"/>
       <use xlink:href="#ArialMT-30" x="55.615234"/>
       <use xlink:href="#ArialMT-30" x="111.230469"/>
       <use xlink:href="#ArialMT-30" x="166.845703"/>
       <use xlink:href="#ArialMT-30" x="222.460938"/>
       <use xlink:href="#ArialMT-30" x="278.076172"/>
      </g>
     </g>
    </g>
    <g id="ytick_4">
     <g id="text_6">
      <!-- 120000 -->
      <g style="fill: #262626" transform="translate(24.52 114.668121) scale(0.11 -0.11)">
       <defs>
        <path id="ArialMT-32" d="M 3222 541 
L 3222 0 
L 194 0 
Q 188 203 259 391 
Q 375 700 629 1000 
Q 884 1300 1366 1694 
Q 2113 2306 2375 2664 
Q 2638 3022 2638 3341 
Q 2638 3675 2398 3904 
Q 2159 4134 1775 4134 
Q 1369 4134 1125 3890 
Q 881 3647 878 3216 
L 300 3275 
Q 359 3922 746 4261 
Q 1134 4600 1788 4600 
Q 2447 4600 2831 4234 
Q 3216 3869 3216 3328 
Q 3216 3053 3103 2787 
Q 2991 2522 2730 2228 
Q 2469 1934 1863 1422 
Q 1356 997 1212 845 
Q 1069 694 975 541 
L 3222 541 
z
" transform="scale(0.015625)"/>
       </defs>
       <use xlink:href="#ArialMT-31"/>
       <use xlink:href="#ArialMT-32" x="55.615234"/>
       <use xlink:href="#ArialMT-30" x="111.230469"/>
       <use xlink:href="#ArialMT-30" x="166.845703"/>
       <use xlink:href="#ArialMT-30" x="222.460938"/>
       <use xlink:href="#ArialMT-30" x="278.076172"/>
      </g>
     </g>
    </g>
    <g id="ytick_5">
     <g id="text_7">
      <!-- 140000 -->
      <g style="fill: #262626" transform="translate(24.52 84.05526) scale(0.11 -0.11)">
       <defs>
        <path id="ArialMT-34" d="M 2069 0 
L 2069 1097 
L 81 1097 
L 81 1613 
L 2172 4581 
L 2631 4581 
L 2631 1613 
L 3250 1613 
L 3250 1097 
L 2631 1097 
L 2631 0 
L 2069 0 
z
M 2069 1613 
L 2069 3678 
L 634 1613 
L 2069 1613 
z
" transform="scale(0.015625)"/>
       </defs>
       <use xlink:href="#ArialMT-31"/>
       <use xlink:href="#ArialMT-34" x="55.615234"/>
       <use xlink:href="#ArialMT-30" x="111.230469"/>
       <use xlink:href="#ArialMT-30" x="166.845703"/>
       <use xlink:href="#ArialMT-30" x="222.460938"/>
       <use xlink:href="#ArialMT-30" x="278.076172"/>
      </g>
     </g>
    </g>
    <g id="ytick_6">
     <g id="text_8">
      <!-- 160000 -->
      <g style="fill: #262626" transform="translate(24.52 53.4424) scale(0.11 -0.11)">
       <use xlink:href="#ArialMT-31"/>
       <use xlink:href="#ArialMT-36" x="55.615234"/>
       <use xlink:href="#ArialMT-30" x="111.230469"/>
       <use xlink:href="#ArialMT-30" x="166.845703"/>
       <use xlink:href="#ArialMT-30" x="222.460938"/>
       <use xlink:href="#ArialMT-30" x="278.076172"/>
      </g>
     </g>
    </g>
    <g id="ytick_7">
     <g id="text_9">
      <!-- 180000 -->
      <g style="fill: #262626" transform="translate(24.52 22.829539) scale(0.11 -0.11)">
       <use xlink:href="#ArialMT-31"/>
       <use xlink:href="#ArialMT-38" x="55.615234"/>
       <use xlink:href="#ArialMT-30" x="111.230469"/>
       <use xlink:href="#ArialMT-30" x="166.845703"/>
       <use xlink:href="#ArialMT-30" x="222.460938"/>
       <use xlink:href="#ArialMT-30" x="278.076172"/>
      </g>
     </g>
    </g>
    <g id="text_10">
     <!-- GMV [mm$^3$] -->
     <g style="fill: #262626" transform="translate(18.12 149.64) rotate(-90) scale(0.12 -0.12)">
      <defs>
       <path id="ArialMT-47" d="M 2638 1797 
L 2638 2334 
L 4578 2338 
L 4578 638 
Q 4131 281 3656 101 
Q 3181 -78 2681 -78 
Q 2006 -78 1454 211 
Q 903 500 622 1047 
Q 341 1594 341 2269 
Q 341 2938 620 3517 
Q 900 4097 1425 4378 
Q 1950 4659 2634 4659 
Q 3131 4659 3532 4498 
Q 3934 4338 4162 4050 
Q 4391 3763 4509 3300 
L 3963 3150 
Q 3859 3500 3706 3700 
Q 3553 3900 3268 4020 
Q 2984 4141 2638 4141 
Q 2222 4141 1919 4014 
Q 1616 3888 1430 3681 
Q 1244 3475 1141 3228 
Q 966 2803 966 2306 
Q 966 1694 1177 1281 
Q 1388 869 1791 669 
Q 2194 469 2647 469 
Q 3041 469 3416 620 
Q 3791 772 3984 944 
L 3984 1797 
L 2638 1797 
z
" transform="scale(0.015625)"/>
       <path id="ArialMT-4d" d="M 475 0 
L 475 4581 
L 1388 4581 
L 2472 1338 
Q 2622 884 2691 659 
Q 2769 909 2934 1394 
L 4031 4581 
L 4847 4581 
L 4847 0 
L 4263 0 
L 4263 3834 
L 2931 0 
L 2384 0 
L 1059 3900 
L 1059 0 
L 475 0 
z
" transform="scale(0.015625)"/>
       <path id="ArialMT-56" d="M 1803 0 
L 28 4581 
L 684 4581 
L 1875 1253 
Q 2019 853 2116 503 
Q 2222 878 2363 1253 
L 3600 4581 
L 4219 4581 
L 2425 0 
L 1803 0 
z
" transform="scale(0.015625)"/>
       <path id="ArialMT-20" transform="scale(0.015625)"/>
       <path id="ArialMT-5b" d="M 434 -1272 
L 434 4581 
L 1675 4581 
L 1675 4116 
L 997 4116 
L 997 -806 
L 1675 -806 
L 1675 -1272 
L 434 -1272 
z
" transform="scale(0.015625)"/>
       <path id="DejaVuSans-33" d="M 2597 2516 
Q 3050 2419 3304 2112 
Q 3559 1806 3559 1356 
Q 3559 666 3084 287 
Q 2609 -91 1734 -91 
Q 1441 -91 1130 -33 
Q 819 25 488 141 
L 488 750 
Q 750 597 1062 519 
Q 1375 441 1716 441 
Q 2309 441 2620 675 
Q 2931 909 2931 1356 
Q 2931 1769 2642 2001 
Q 2353 2234 1838 2234 
L 1294 2234 
L 1294 2753 
L 1863 2753 
Q 2328 2753 2575 2939 
Q 2822 3125 2822 3475 
Q 2822 3834 2567 4026 
Q 2313 4219 1838 4219 
Q 1578 4219 1281 4162 
Q 984 4106 628 3988 
L 628 4550 
Q 988 4650 1302 4700 
Q 1616 4750 1894 4750 
Q 2613 4750 3031 4423 
Q 3450 4097 3450 3541 
Q 3450 3153 3228 2886 
Q 3006 2619 2597 2516 
z
" transform="scale(0.015625)"/>
       <path id="ArialMT-5d" d="M 1363 -1272 
L 122 -1272 
L 122 -806 
L 800 -806 
L 800 4116 
L 122 4116 
L 122 4581 
L 1363 4581 
L 1363 -1272 
z
" transform="scale(0.015625)"/>
      </defs>
      <use xlink:href="#ArialMT-47" transform="translate(0 0.765625)"/>
      <use xlink:href="#ArialMT-4d" transform="translate(77.783203 0.765625)"/>
      <use xlink:href="#ArialMT-56" transform="translate(161.083984 0.765625)"/>
      <use xlink:href="#ArialMT-20" transform="translate(227.783203 0.765625)"/>
      <use xlink:href="#ArialMT-5b" transform="translate(255.566406 0.765625)"/>
      <use xlink:href="#ArialMT-6d" transform="translate(283.349609 0.765625)"/>
      <use xlink:href="#ArialMT-6d" transform="translate(366.650391 0.765625)"/>
      <use xlink:href="#DejaVuSans-33" transform="translate(450.908203 39.046875) scale(0.7)"/>
      <use xlink:href="#ArialMT-5d" transform="translate(498.178711 0.765625)"/>
     </g>
    </g>
   </g>
   <g id="PolyCollection_1">
    <defs>
     <path id="m3373206242" d="M 112.202485 -47.900444 
L 112.096435 -47.900444 
L 112.059766 -49.821356 
L 112.005773 -51.742268 
L 111.930902 -53.663181 
L 111.832691 -55.584093 
L 111.709921 -57.505005 
L 111.56203 -59.425917 
L 111.387802 -61.346829 
L 111.18384 -63.267741 
L 110.943679 -65.188654 
L 110.658385 -67.109566 
L 110.318865 -69.030478 
L 109.919176 -70.95139 
L 109.459301 -72.872302 
L 108.945803 -74.793214 
L 108.389538 -76.714126 
L 107.801003 -78.635039 
L 107.185125 -80.555951 
L 106.537708 -82.476863 
L 105.845078 -84.397775 
L 105.087117 -86.318687 
L 104.242467 -88.239599 
L 103.293825 -90.160511 
L 102.231292 -92.081424 
L 101.052587 -94.002336 
L 99.760217 -95.923248 
L 98.357152 -97.84416 
L 96.843384 -99.765072 
L 95.215756 -101.685984 
L 93.4722 -103.606896 
L 91.61952 -105.527809 
L 89.681758 -107.448721 
L 87.705255 -109.369633 
L 85.757285 -111.290545 
L 83.917644 -113.211457 
L 82.265619 -115.132369 
L 80.86687 -117.053281 
L 79.764714 -118.974194 
L 78.978139 -120.895106 
L 78.505601 -122.816018 
L 78.331278 -124.73693 
L 78.430086 -126.657842 
L 78.769533 -128.578754 
L 79.309202 -130.499666 
L 80.000488 -132.420579 
L 80.789164 -134.341491 
L 81.621501 -136.262403 
L 82.452312 -138.183315 
L 83.251762 -140.104227 
L 84.008086 -142.025139 
L 84.725191 -143.946051 
L 85.416429 -145.866964 
L 86.097456 -147.787876 
L 86.781102 -149.708788 
L 87.475845 -151.6297 
L 88.187578 -153.550612 
L 88.922928 -155.471524 
L 89.69194 -157.392436 
L 90.508537 -159.313349 
L 91.38818 -161.234261 
L 92.343381 -163.155173 
L 93.37861 -165.076085 
L 94.486695 -166.996997 
L 95.648484 -168.917909 
L 96.836402 -170.838821 
L 98.020783 -172.759734 
L 99.176486 -174.680646 
L 100.287122 -176.601558 
L 101.345434 -178.52247 
L 102.350362 -180.443382 
L 103.302867 -182.364294 
L 104.202823 -184.285207 
L 105.04828 -186.206119 
L 105.836801 -188.127031 
L 106.567471 -190.047943 
L 107.242023 -191.968855 
L 107.864317 -193.889767 
L 108.438471 -195.810679 
L 108.966726 -197.731592 
L 109.448252 -199.652504 
L 109.879546 -201.573416 
L 110.256256 -203.494328 
L 110.575587 -205.41524 
L 110.83819 -207.336152 
L 111.048777 -209.257064 
L 111.215328 -211.177977 
L 111.347406 -213.098889 
L 111.454374 -215.019801 
L 111.544157 -216.940713 
L 111.622766 -218.861625 
L 111.694373 -220.782537 
L 111.761572 -222.703449 
L 111.825577 -224.624362 
L 111.88638 -226.545274 
L 111.942984 -228.466186 
L 111.993839 -230.387098 
L 112.037412 -232.30801 
L 112.072722 -234.228922 
L 112.099639 -236.149834 
L 112.118875 -238.070747 
L 112.180045 -238.070747 
L 112.180045 -238.070747 
L 112.199282 -236.149834 
L 112.226198 -234.228922 
L 112.261508 -232.30801 
L 112.305082 -230.387098 
L 112.355936 -228.466186 
L 112.41254 -226.545274 
L 112.473343 -224.624362 
L 112.537349 -222.703449 
L 112.604547 -220.782537 
L 112.676155 -218.861625 
L 112.754764 -216.940713 
L 112.844546 -215.019801 
L 112.951514 -213.098889 
L 113.083593 -211.177977 
L 113.250144 -209.257064 
L 113.46073 -207.336152 
L 113.723333 -205.41524 
L 114.042664 -203.494328 
L 114.419374 -201.573416 
L 114.850668 -199.652504 
L 115.332195 -197.731592 
L 115.86045 -195.810679 
L 116.434603 -193.889767 
L 117.056898 -191.968855 
L 117.731449 -190.047943 
L 118.462119 -188.127031 
L 119.250641 -186.206119 
L 120.096098 -184.285207 
L 120.996054 -182.364294 
L 121.948558 -180.443382 
L 122.953486 -178.52247 
L 124.011798 -176.601558 
L 125.122434 -174.680646 
L 126.278137 -172.759734 
L 127.462518 -170.838821 
L 128.650437 -168.917909 
L 129.812226 -166.996997 
L 130.92031 -165.076085 
L 131.95554 -163.155173 
L 132.910741 -161.234261 
L 133.790384 -159.313349 
L 134.60698 -157.392436 
L 135.375993 -155.471524 
L 136.111342 -153.550612 
L 136.823076 -151.6297 
L 137.517818 -149.708788 
L 138.201464 -147.787876 
L 138.882492 -145.866964 
L 139.57373 -143.946051 
L 140.290834 -142.025139 
L 141.047159 -140.104227 
L 141.846609 -138.183315 
L 142.67742 -136.262403 
L 143.509757 -134.341491 
L 144.298432 -132.420579 
L 144.989719 -130.499666 
L 145.529388 -128.578754 
L 145.868834 -126.657842 
L 145.967642 -124.73693 
L 145.79332 -122.816018 
L 145.320781 -120.895106 
L 144.534206 -118.974194 
L 143.432051 -117.053281 
L 142.033301 -115.132369 
L 140.381277 -113.211457 
L 138.541636 -111.290545 
L 136.593666 -109.369633 
L 134.617163 -107.448721 
L 132.679401 -105.527809 
L 130.82672 -103.606896 
L 129.083164 -101.685984 
L 127.455536 -99.765072 
L 125.941769 -97.84416 
L 124.538704 -95.923248 
L 123.246334 -94.002336 
L 122.067628 -92.081424 
L 121.005096 -90.160511 
L 120.056453 -88.239599 
L 119.211803 -86.318687 
L 118.453843 -84.397775 
L 117.761213 -82.476863 
L 117.113796 -80.555951 
L 116.497918 -78.635039 
L 115.909382 -76.714126 
L 115.353118 -74.793214 
L 114.83962 -72.872302 
L 114.379744 -70.95139 
L 113.980055 -69.030478 
L 113.640536 -67.109566 
L 113.355241 -65.188654 
L 113.11508 -63.267741 
L 112.911118 -61.346829 
L 112.736891 -59.425917 
L 112.588999 -57.505005 
L 112.46623 -55.584093 
L 112.368019 -53.663181 
L 112.293148 -51.742268 
L 112.239154 -49.821356 
L 112.202485 -47.900444 
z
" style="stroke: #4c4c4c; stroke-width: 0.5"/>
    </defs>
    <g clip-path="url(#p8a670b3fbf)">
     <use xlink:href="#m3373206242" x="0" y="255.719844" style="fill: #5573cd; stroke: #4c4c4c; stroke-width: 0.5"/>
    </g>
   </g>
   <g id="PolyCollection_2">
    <defs>
     <path id="m1ab45c0778" d="M 197.054447 -36.822268 
L 196.335383 -36.822268 
L 196.188742 -38.66658 
L 195.998579 -40.510891 
L 195.758553 -42.355203 
L 195.463653 -44.199515 
L 195.110931 -46.043827 
L 194.700112 -47.888139 
L 194.233952 -49.732451 
L 193.718214 -51.576763 
L 193.161199 -53.421074 
L 192.572822 -55.265386 
L 191.96333 -57.109698 
L 191.341827 -58.95401 
L 190.714849 -60.798322 
L 190.085243 -62.642634 
L 189.451558 -64.486946 
L 188.80811 -66.331257 
L 188.145729 -68.175569 
L 187.453104 -70.019881 
L 186.718518 -71.864193 
L 185.931701 -73.708505 
L 185.085525 -75.552817 
L 184.177272 -77.397129 
L 183.209303 -79.24144 
L 182.189016 -81.085752 
L 181.128094 -82.930064 
L 180.041116 -84.774376 
L 178.943683 -86.618688 
L 177.850276 -88.463 
L 176.772147 -90.307312 
L 175.715563 -92.151623 
L 174.680777 -93.995935 
L 173.66204 -95.840247 
L 172.648873 -97.684559 
L 171.628619 -99.528871 
L 170.590021 -101.373183 
L 169.527322 -103.217495 
L 168.444129 -105.061806 
L 167.356203 -106.906118 
L 166.292395 -108.75043 
L 165.293217 -110.594742 
L 164.406982 -112.439054 
L 163.683895 -114.283366 
L 163.168984 -116.127678 
L 162.89503 -117.971989 
L 162.876733 -119.816301 
L 163.107204 -121.660613 
L 163.557423 -123.504925 
L 164.178827 -125.349237 
L 164.908607 -127.193549 
L 165.676889 -129.03786 
L 166.414668 -130.882172 
L 167.061361 -132.726484 
L 167.57097 -134.570796 
L 167.916184 -136.415108 
L 168.090087 -138.25942 
L 168.105549 -140.103732 
L 167.992646 -141.948043 
L 167.794659 -143.792355 
L 167.563291 -145.636667 
L 167.353687 -147.480979 
L 167.219781 -149.325291 
L 167.210306 -151.169603 
L 167.365717 -153.013915 
L 167.716066 -154.858226 
L 168.279839 -156.702538 
L 169.063635 -158.54685 
L 170.062583 -160.391162 
L 171.261346 -162.235474 
L 172.635611 -164.079786 
L 174.153932 -165.924098 
L 175.779839 -167.768409 
L 177.474081 -169.612721 
L 179.196896 -171.457033 
L 180.910169 -173.301345 
L 182.57933 -175.145657 
L 184.174886 -176.989969 
L 185.673471 -178.834281 
L 187.058374 -180.678592 
L 188.319546 -182.522904 
L 189.453138 -184.367216 
L 190.460665 -186.211528 
L 191.347919 -188.05584 
L 192.12376 -189.900152 
L 192.798915 -191.744464 
L 193.384875 -193.588775 
L 193.89298 -195.433087 
L 194.333737 -197.277399 
L 194.716381 -199.121711 
L 195.048683 -200.966023 
L 195.336961 -202.810335 
L 195.586246 -204.654647 
L 195.800554 -206.498958 
L 195.983193 -208.34327 
L 196.137048 -210.187582 
L 196.264821 -212.031894 
L 196.369184 -213.876206 
L 196.452851 -215.720518 
L 196.518575 -217.56483 
L 196.569095 -219.409141 
L 196.820735 -219.409141 
L 196.820735 -219.409141 
L 196.871255 -217.56483 
L 196.936978 -215.720518 
L 197.020645 -213.876206 
L 197.125008 -212.031894 
L 197.252781 -210.187582 
L 197.406636 -208.34327 
L 197.589275 -206.498958 
L 197.803584 -204.654647 
L 198.052869 -202.810335 
L 198.341146 -200.966023 
L 198.673449 -199.121711 
L 199.056093 -197.277399 
L 199.496849 -195.433087 
L 200.004954 -193.588775 
L 200.590914 -191.744464 
L 201.26607 -189.900152 
L 202.041911 -188.05584 
L 202.929164 -186.211528 
L 203.936691 -184.367216 
L 205.070283 -182.522904 
L 206.331456 -180.678592 
L 207.716358 -178.834281 
L 209.214943 -176.989969 
L 210.8105 -175.145657 
L 212.479661 -173.301345 
L 214.192933 -171.457033 
L 215.915749 -169.612721 
L 217.609991 -167.768409 
L 219.235898 -165.924098 
L 220.754219 -164.079786 
L 222.128483 -162.235474 
L 223.327246 -160.391162 
L 224.326194 -158.54685 
L 225.109991 -156.702538 
L 225.673764 -154.858226 
L 226.024113 -153.013915 
L 226.179523 -151.169603 
L 226.170049 -149.325291 
L 226.036142 -147.480979 
L 225.826539 -145.636667 
L 225.595171 -143.792355 
L 225.397184 -141.948043 
L 225.28428 -140.103732 
L 225.299742 -138.25942 
L 225.473646 -136.415108 
L 225.81886 -134.570796 
L 226.328469 -132.726484 
L 226.975161 -130.882172 
L 227.71294 -129.03786 
L 228.481223 -127.193549 
L 229.211003 -125.349237 
L 229.832406 -123.504925 
L 230.282626 -121.660613 
L 230.513097 -119.816301 
L 230.4948 -117.971989 
L 230.220845 -116.127678 
L 229.705935 -114.283366 
L 228.982848 -112.439054 
L 228.096612 -110.594742 
L 227.097435 -108.75043 
L 226.033626 -106.906118 
L 224.9457 -105.061806 
L 223.862507 -103.217495 
L 222.799808 -101.373183 
L 221.76121 -99.528871 
L 220.740957 -97.684559 
L 219.72779 -95.840247 
L 218.709052 -93.995935 
L 217.674266 -92.151623 
L 216.617682 -90.307312 
L 215.539554 -88.463 
L 214.446147 -86.618688 
L 213.348713 -84.774376 
L 212.261736 -82.930064 
L 211.200814 -81.085752 
L 210.180526 -79.24144 
L 209.212557 -77.397129 
L 208.304305 -75.552817 
L 207.458129 -73.708505 
L 206.671312 -71.864193 
L 205.936725 -70.019881 
L 205.244101 -68.175569 
L 204.581719 -66.331257 
L 203.938271 -64.486946 
L 203.304586 -62.642634 
L 202.67498 -60.798322 
L 202.048003 -58.95401 
L 201.426499 -57.109698 
L 200.817007 -55.265386 
L 200.22863 -53.421074 
L 199.671615 -51.576763 
L 199.155877 -49.732451 
L 198.689717 -47.888139 
L 198.278898 -46.043827 
L 197.926176 -44.199515 
L 197.631276 -42.355203 
L 197.39125 -40.510891 
L 197.201088 -38.66658 
L 197.054447 -36.822268 
z
" style="stroke: #4c4c4c; stroke-width: 0.5"/>
    </defs>
    <g clip-path="url(#p8a670b3fbf)">
     <use xlink:href="#m1ab45c0778" x="0" y="255.719844" style="fill: #df8920; stroke: #4c4c4c; stroke-width: 0.5"/>
    </g>
   </g>
   <g id="line2d_1">
    <path d="M 112.14946 192.504834 
L 112.14946 45.218522 
" clip-path="url(#p8a670b3fbf)" style="fill: none; stroke: #4c4c4c; stroke-width: 0.75; stroke-linecap: round"/>
   </g>
   <g id="line2d_2">
    <path d="M 112.14946 139.436859 
L 112.14946 101.579109 
" clip-path="url(#p8a670b3fbf)" style="fill: none; stroke: #4c4c4c; stroke-width: 2.25; stroke-linecap: round"/>
   </g>
   <g id="line2d_3">
    <path d="M 112.14946 123.141624 
" clip-path="url(#p8a670b3fbf)" style="fill: none; stroke: #4c4c4c; stroke-width: 1.5; stroke-linecap: round"/>
    <defs>
     <path id="m237e912259" d="M 0.9375 0 
L -0.9375 -0 
" style="stroke: #ffffff; stroke-width: 0.45"/>
    </defs>
    <g clip-path="url(#p8a670b3fbf)">
     <use xlink:href="#m237e912259" x="112.14946" y="123.141624" style="fill: #ffffff; stroke: #ffffff; stroke-width: 0.45"/>
    </g>
   </g>
   <g id="line2d_4">
    <path d="M 196.694915 195.922631 
L 196.694915 59.285647 
" clip-path="url(#p8a670b3fbf)" style="fill: none; stroke: #4c4c4c; stroke-width: 0.75; stroke-linecap: round"/>
   </g>
   <g id="line2d_5">
    <path d="M 196.694915 152.575723 
L 196.694915 104.248282 
" clip-path="url(#p8a670b3fbf)" style="fill: none; stroke: #4c4c4c; stroke-width: 2.25; stroke-linecap: round"/>
   </g>
   <g id="line2d_6">
    <path d="M 196.694915 132.35713 
" clip-path="url(#p8a670b3fbf)" style="fill: none; stroke: #4c4c4c; stroke-width: 1.5; stroke-linecap: round"/>
    <g clip-path="url(#p8a670b3fbf)">
     <use xlink:href="#m237e912259" x="196.694915" y="132.35713" style="fill: #ffffff; stroke: #ffffff; stroke-width: 0.45"/>
    </g>
   </g>
   <g id="line2d_7">
    <path d="M 112.14946 31.936122 
L 112.14946 27.508656 
L 196.694915 27.508656 
L 196.694915 31.936122 
" style="fill: none; stroke: #333333; stroke-width: 0.5; stroke-linecap: round"/>
   </g>
   <g id="patch_3">
    <path d="M 70.722188 228.96 
L 70.722188 7.2 
" style="fill: none; stroke: #262626; stroke-width: 1.25; stroke-linejoin: miter; stroke-linecap: square"/>
   </g>
   <g id="patch_4">
    <path d="M 70.722187 228.96 
L 238.122188 228.96 
" style="fill: none; stroke: #262626; stroke-width: 1.25; stroke-linejoin: miter; stroke-linecap: square"/>
   </g>
   <g id="text_11">
    <!-- ** -->
    <g style="fill: #262626" transform="translate(149.751563 24.123656) scale(0.12 -0.12)">
     <defs>
      <path id="ArialMT-2a" d="M 200 3741 
L 344 4184 
Q 841 4009 1066 3881 
Q 1006 4447 1003 4659 
L 1456 4659 
Q 1447 4350 1384 3884 
Q 1706 4047 2122 4184 
L 2266 3741 
Q 1869 3609 1488 3566 
Q 1678 3400 2025 2975 
L 1650 2709 
Q 1469 2956 1222 3381 
Q 991 2941 816 2709 
L 447 2975 
Q 809 3422 966 3566 
Q 563 3644 200 3741 
z
" transform="scale(0.015625)"/>
     </defs>
     <use xlink:href="#ArialMT-2a"/>
     <use xlink:href="#ArialMT-2a" x="38.916016"/>
    </g>
   </g>
  </g>
 </g>
 <defs>
  <clipPath id="p8a670b3fbf">
   <rect x="70.722188" y="7.2" width="167.4" height="221.76"/>
  </clipPath>
 </defs>
</svg>
