<?xml version="1.0" encoding="utf-8" standalone="no"?>
<!DOCTYPE svg PUBLIC "-//W3C//DTD SVG 1.1//EN"
  "http://www.w3.org/Graphics/SVG/1.1/DTD/svg11.dtd">
<svg xmlns:xlink="http://www.w3.org/1999/xlink" width="147.075406pt" height="121.26693pt" viewBox="0 0 147.075406 121.26693" xmlns="http://www.w3.org/2000/svg" version="1.1">
 <metadata>
  <rdf:RDF xmlns:dc="http://purl.org/dc/elements/1.1/" xmlns:cc="http://creativecommons.org/ns#" xmlns:rdf="http://www.w3.org/1999/02/22-rdf-syntax-ns#">
   <cc:Work>
    <dc:type rdf:resource="http://purl.org/dc/dcmitype/StillImage"/>
    <dc:date>2024-12-04T17:11:39.213050</dc:date>
    <dc:format>image/svg+xml</dc:format>
    <dc:creator>
     <cc:Agent>
      <dc:title>Matplotlib v3.9.2, https://matplotlib.org/</dc:title>
     </cc:Agent>
    </dc:creator>
   </cc:Work>
  </rdf:RDF>
 </metadata>
 <defs>
  <style type="text/css">*{stroke-linejoin: round; stroke-linecap: butt}</style>
 </defs>
 <g id="figure_1">
  <g id="patch_1">
   <path d="M 0 121.26693 
L 147.075406 121.26693 
L 147.075406 0 
L 0 0 
z
" style="fill: #ffffff"/>
  </g>
  <g id="axes_1">
   <g id="patch_2">
    <path d="M 70.722187 94.507087 
L 136.627699 94.507087 
L 136.627699 7.2 
L 70.722187 7.2 
z
" style="fill: #ffffff"/>
   </g>
   <g id="matplotlib.axis_1">
    <g id="xtick_1">
     <g id="text_1">
      <!-- Term -->
      <g style="fill: #262626" transform="translate(74.813544 111.88068) scale(0.11 -0.11)">
       <defs>
        <path id="ArialMT-54" d="M 1659 0 
L 1659 4041 
L 150 4041 
L 150 4581 
L 3781 4581 
L 3781 4041 
L 2266 4041 
L 2266 0 
L 1659 0 
z
" transform="scale(0.015625)"/>
        <path id="ArialMT-65" d="M 2694 1069 
L 3275 997 
Q 3138 488 2766 206 
Q 2394 -75 1816 -75 
Q 1088 -75 661 373 
Q 234 822 234 1631 
Q 234 2469 665 2931 
Q 1097 3394 1784 3394 
Q 2450 3394 2872 2941 
Q 3294 2488 3294 1666 
Q 3294 1616 3291 1516 
L 816 1516 
Q 847 969 1125 678 
Q 1403 388 1819 388 
Q 2128 388 2347 550 
Q 2566 713 2694 1069 
z
M 847 1978 
L 2700 1978 
Q 2663 2397 2488 2606 
Q 2219 2931 1791 2931 
Q 1403 2931 1139 2672 
Q 875 2413 847 1978 
z
" transform="scale(0.015625)"/>
        <path id="ArialMT-72" d="M 416 0 
L 416 3319 
L 922 3319 
L 922 2816 
Q 1116 3169 1280 3281 
Q 1444 3394 1641 3394 
Q 1925 3394 2219 3213 
L 2025 2691 
Q 1819 2813 1613 2813 
Q 1428 2813 1281 2702 
Q 1134 2591 1072 2394 
Q 978 2094 978 1738 
L 978 0 
L 416 0 
z
" transform="scale(0.015625)"/>
        <path id="ArialMT-6d" d="M 422 0 
L 422 3319 
L 925 3319 
L 925 2853 
Q 1081 3097 1340 3245 
Q 1600 3394 1931 3394 
Q 2300 3394 2536 3241 
Q 2772 3088 2869 2813 
Q 3263 3394 3894 3394 
Q 4388 3394 4653 3120 
Q 4919 2847 4919 2278 
L 4919 0 
L 4359 0 
L 4359 2091 
Q 4359 2428 4304 2576 
Q 4250 2725 4106 2815 
Q 3963 2906 3769 2906 
Q 3419 2906 3187 2673 
Q 2956 2441 2956 1928 
L 2956 0 
L 2394 0 
L 2394 2156 
Q 2394 2531 2256 2718 
Q 2119 2906 1806 2906 
Q 1569 2906 1367 2781 
Q 1166 2656 1075 2415 
Q 984 2175 984 1722 
L 984 0 
L 422 0 
z
" transform="scale(0.015625)"/>
       </defs>
       <use xlink:href="#ArialMT-54"/>
       <use xlink:href="#ArialMT-65" x="49.958984"/>
       <use xlink:href="#ArialMT-72" x="105.574219"/>
       <use xlink:href="#ArialMT-6d" x="138.875"/>
      </g>
     </g>
    </g>
    <g id="xtick_2">
     <g id="text_2">
      <!-- Preterm -->
      <g style="fill: #262626" transform="translate(100.760093 111.88068) scale(0.11 -0.11)">
       <defs>
        <path id="ArialMT-50" d="M 494 0 
L 494 4581 
L 2222 4581 
Q 2678 4581 2919 4538 
Q 3256 4481 3484 4323 
Q 3713 4166 3852 3881 
Q 3991 3597 3991 3256 
Q 3991 2672 3619 2267 
Q 3247 1863 2275 1863 
L 1100 1863 
L 1100 0 
L 494 0 
z
M 1100 2403 
L 2284 2403 
Q 2872 2403 3119 2622 
Q 3366 2841 3366 3238 
Q 3366 3525 3220 3729 
Q 3075 3934 2838 4000 
Q 2684 4041 2272 4041 
L 1100 4041 
L 1100 2403 
z
" transform="scale(0.015625)"/>
        <path id="ArialMT-74" d="M 1650 503 
L 1731 6 
Q 1494 -44 1306 -44 
Q 1000 -44 831 53 
Q 663 150 594 308 
Q 525 466 525 972 
L 525 2881 
L 113 2881 
L 113 3319 
L 525 3319 
L 525 4141 
L 1084 4478 
L 1084 3319 
L 1650 3319 
L 1650 2881 
L 1084 2881 
L 1084 941 
Q 1084 700 1114 631 
Q 1144 563 1211 522 
Q 1278 481 1403 481 
Q 1497 481 1650 503 
z
" transform="scale(0.015625)"/>
       </defs>
       <use xlink:href="#ArialMT-50"/>
       <use xlink:href="#ArialMT-72" x="66.699219"/>
       <use xlink:href="#ArialMT-65" x="100"/>
       <use xlink:href="#ArialMT-74" x="155.615234"/>
       <use xlink:href="#ArialMT-65" x="183.398438"/>
       <use xlink:href="#ArialMT-72" x="239.013672"/>
       <use xlink:href="#ArialMT-6d" x="272.314453"/>
      </g>
     </g>
    </g>
   </g>
   <g id="matplotlib.axis_2">
    <g id="ytick_1">
     <g id="text_3">
      <!-- 400000 -->
      <g style="fill: #262626" transform="translate(24.52 69.83256) scale(0.11 -0.11)">
       <defs>
        <path id="ArialMT-34" d="M 2069 0 
L 2069 1097 
L 81 1097 
L 81 1613 
L 2172 4581 
L 2631 4581 
L 2631 1613 
L 3250 1613 
L 3250 1097 
L 2631 1097 
L 2631 0 
L 2069 0 
z
M 2069 1613 
L 2069 3678 
L 634 1613 
L 2069 1613 
z
" transform="scale(0.015625)"/>
        <path id="ArialMT-30" d="M 266 2259 
Q 266 3072 433 3567 
Q 600 4063 929 4331 
Q 1259 4600 1759 4600 
Q 2128 4600 2406 4451 
Q 2684 4303 2865 4023 
Q 3047 3744 3150 3342 
Q 3253 2941 3253 2259 
Q 3253 1453 3087 958 
Q 2922 463 2592 192 
Q 2263 -78 1759 -78 
Q 1097 -78 719 397 
Q 266 969 266 2259 
z
M 844 2259 
Q 844 1131 1108 757 
Q 1372 384 1759 384 
Q 2147 384 2411 759 
Q 2675 1134 2675 2259 
Q 2675 3391 2411 3762 
Q 2147 4134 1753 4134 
Q 1366 4134 1134 3806 
Q 844 3388 844 2259 
z
" transform="scale(0.015625)"/>
       </defs>
       <use xlink:href="#ArialMT-34"/>
       <use xlink:href="#ArialMT-30" x="55.615234"/>
       <use xlink:href="#ArialMT-30" x="111.230469"/>
       <use xlink:href="#ArialMT-30" x="166.845703"/>
       <use xlink:href="#ArialMT-30" x="222.460938"/>
       <use xlink:href="#ArialMT-30" x="278.076172"/>
      </g>
     </g>
    </g>
    <g id="ytick_2">
     <g id="text_4">
      <!-- 600000 -->
      <g style="fill: #262626" transform="translate(24.52 36.196331) scale(0.11 -0.11)">
       <defs>
        <path id="ArialMT-36" d="M 3184 3459 
L 2625 3416 
Q 2550 3747 2413 3897 
Q 2184 4138 1850 4138 
Q 1581 4138 1378 3988 
Q 1113 3794 959 3422 
Q 806 3050 800 2363 
Q 1003 2672 1297 2822 
Q 1591 2972 1913 2972 
Q 2475 2972 2870 2558 
Q 3266 2144 3266 1488 
Q 3266 1056 3080 686 
Q 2894 316 2569 119 
Q 2244 -78 1831 -78 
Q 1128 -78 684 439 
Q 241 956 241 2144 
Q 241 3472 731 4075 
Q 1159 4600 1884 4600 
Q 2425 4600 2770 4297 
Q 3116 3994 3184 3459 
z
M 888 1484 
Q 888 1194 1011 928 
Q 1134 663 1356 523 
Q 1578 384 1822 384 
Q 2178 384 2434 671 
Q 2691 959 2691 1453 
Q 2691 1928 2437 2201 
Q 2184 2475 1800 2475 
Q 1419 2475 1153 2201 
Q 888 1928 888 1484 
z
" transform="scale(0.015625)"/>
       </defs>
       <use xlink:href="#ArialMT-36"/>
       <use xlink:href="#ArialMT-30" x="55.615234"/>
       <use xlink:href="#ArialMT-30" x="111.230469"/>
       <use xlink:href="#ArialMT-30" x="166.845703"/>
       <use xlink:href="#ArialMT-30" x="222.460938"/>
       <use xlink:href="#ArialMT-30" x="278.076172"/>
      </g>
     </g>
    </g>
    <g id="text_5">
     <!-- WMV [mm$^3$] -->
     <g style="fill: #262626" transform="translate(18.12 83.433543) rotate(-90) scale(0.12 -0.12)">
      <defs>
       <path id="ArialMT-57" d="M 1294 0 
L 78 4581 
L 700 4581 
L 1397 1578 
Q 1509 1106 1591 641 
Q 1766 1375 1797 1488 
L 2669 4581 
L 3400 4581 
L 4056 2263 
Q 4303 1400 4413 641 
Q 4500 1075 4641 1638 
L 5359 4581 
L 5969 4581 
L 4713 0 
L 4128 0 
L 3163 3491 
Q 3041 3928 3019 4028 
Q 2947 3713 2884 3491 
L 1913 0 
L 1294 0 
z
" transform="scale(0.015625)"/>
       <path id="ArialMT-4d" d="M 475 0 
L 475 4581 
L 1388 4581 
L 2472 1338 
Q 2622 884 2691 659 
Q 2769 909 2934 1394 
L 4031 4581 
L 4847 4581 
L 4847 0 
L 4263 0 
L 4263 3834 
L 2931 0 
L 2384 0 
L 1059 3900 
L 1059 0 
L 475 0 
z
" transform="scale(0.015625)"/>
       <path id="ArialMT-56" d="M 1803 0 
L 28 4581 
L 684 4581 
L 1875 1253 
Q 2019 853 2116 503 
Q 2222 878 2363 1253 
L 3600 4581 
L 4219 4581 
L 2425 0 
L 1803 0 
z
" transform="scale(0.015625)"/>
       <path id="ArialMT-20" transform="scale(0.015625)"/>
       <path id="ArialMT-5b" d="M 434 -1272 
L 434 4581 
L 1675 4581 
L 1675 4116 
L 997 4116 
L 997 -806 
L 1675 -806 
L 1675 -1272 
L 434 -1272 
z
" transform="scale(0.015625)"/>
       <path id="DejaVuSans-33" d="M 2597 2516 
Q 3050 2419 3304 2112 
Q 3559 1806 3559 1356 
Q 3559 666 3084 287 
Q 2609 -91 1734 -91 
Q 1441 -91 1130 -33 
Q 819 25 488 141 
L 488 750 
Q 750 597 1062 519 
Q 1375 441 1716 441 
Q 2309 441 2620 675 
Q 2931 909 2931 1356 
Q 2931 1769 2642 2001 
Q 2353 2234 1838 2234 
L 1294 2234 
L 1294 2753 
L 1863 2753 
Q 2328 2753 2575 2939 
Q 2822 3125 2822 3475 
Q 2822 3834 2567 4026 
Q 2313 4219 1838 4219 
Q 1578 4219 1281 4162 
Q 984 4106 628 3988 
L 628 4550 
Q 988 4650 1302 4700 
Q 1616 4750 1894 4750 
Q 2613 4750 3031 4423 
Q 3450 4097 3450 3541 
Q 3450 3153 3228 2886 
Q 3006 2619 2597 2516 
z
" transform="scale(0.015625)"/>
       <path id="ArialMT-5d" d="M 1363 -1272 
L 122 -1272 
L 122 -806 
L 800 -806 
L 800 4116 
L 122 4116 
L 122 4581 
L 1363 4581 
L 1363 -1272 
z
" transform="scale(0.015625)"/>
      </defs>
      <use xlink:href="#ArialMT-57" transform="translate(0 0.765625)"/>
      <use xlink:href="#ArialMT-4d" transform="translate(94.384766 0.765625)"/>
      <use xlink:href="#ArialMT-56" transform="translate(177.685547 0.765625)"/>
      <use xlink:href="#ArialMT-20" transform="translate(244.384766 0.765625)"/>
      <use xlink:href="#ArialMT-5b" transform="translate(272.167969 0.765625)"/>
      <use xlink:href="#ArialMT-6d" transform="translate(299.951172 0.765625)"/>
      <use xlink:href="#ArialMT-6d" transform="translate(383.251953 0.765625)"/>
      <use xlink:href="#DejaVuSans-33" transform="translate(467.509766 39.046875) scale(0.7)"/>
      <use xlink:href="#ArialMT-5d" transform="translate(514.780273 0.765625)"/>
     </g>
    </g>
   </g>
   <g id="PolyCollection_1">
    <defs>
     <path id="m14a32ebaa7" d="M 87.034069 -30.728348 
L 87.030206 -30.728348 
L 87.026939 -31.530066 
L 87.021268 -32.331784 
L 87.014125 -33.133502 
L 87.0076 -33.93522 
L 87.002576 -34.736938 
L 86.996484 -35.538655 
L 86.983887 -36.340373 
L 86.959543 -37.142091 
L 86.921477 -37.943809 
L 86.87194 -38.745527 
L 86.812912 -39.547245 
L 86.735628 -40.348963 
L 86.615057 -41.150681 
L 86.42119 -41.952399 
L 86.140983 -42.754117 
L 85.789557 -43.555835 
L 85.392787 -44.357553 
L 84.951427 -45.159271 
L 84.42923 -45.960989 
L 83.788561 -46.762707 
L 83.036931 -47.564425 
L 82.233753 -48.366143 
L 81.455948 -49.167861 
L 80.758632 -49.969579 
L 80.149976 -50.771297 
L 79.577749 -51.573015 
L 78.949141 -52.374733 
L 78.204433 -53.176451 
L 77.380949 -53.978169 
L 76.579049 -54.779887 
L 75.867112 -55.581605 
L 75.246291 -56.383323 
L 74.702517 -57.185041 
L 74.256487 -57.986759 
L 73.94605 -58.788477 
L 73.777765 -59.590195 
L 73.717893 -60.391912 
L 73.741542 -61.19363 
L 73.888382 -61.995348 
L 74.241038 -62.797066 
L 74.826878 -63.598784 
L 75.563849 -64.400502 
L 76.319136 -65.20222 
L 77.01167 -66.003938 
L 77.664245 -66.805656 
L 78.354167 -67.607374 
L 79.095979 -68.409092 
L 79.801196 -69.21081 
L 80.38849 -70.012528 
L 80.891268 -70.814246 
L 81.40859 -71.615964 
L 81.985482 -72.417682 
L 82.586505 -73.2194 
L 83.158962 -74.021118 
L 83.674604 -74.822836 
L 84.118236 -75.624554 
L 84.478327 -76.426272 
L 84.761501 -77.22799 
L 84.997633 -78.029708 
L 85.223187 -78.831426 
L 85.463761 -79.633144 
L 85.724984 -80.434862 
L 85.990011 -81.23658 
L 86.228396 -82.038298 
L 86.414925 -82.840016 
L 86.543283 -83.641734 
L 86.623992 -84.443451 
L 86.674123 -85.245169 
L 86.709824 -86.046887 
L 86.742214 -86.848605 
L 86.775401 -87.650323 
L 86.809211 -88.452041 
L 86.84434 -89.253759 
L 86.882525 -90.055477 
L 86.921903 -90.857195 
L 86.955607 -91.658913 
L 86.976576 -92.460631 
L 86.983312 -93.262349 
L 86.981164 -94.064067 
L 86.978817 -94.865785 
L 86.982566 -95.667503 
L 86.992234 -96.469221 
L 87.002823 -97.270939 
L 87.01057 -98.072657 
L 87.015994 -98.874375 
L 87.021033 -99.676093 
L 87.025836 -100.477811 
L 87.029348 -101.279529 
L 87.031157 -102.081247 
L 87.031661 -102.882965 
L 87.031152 -103.684683 
L 87.029359 -104.486401 
L 87.026003 -105.288119 
L 87.021953 -106.089837 
L 87.019445 -106.891555 
L 87.020267 -107.693273 
L 87.023805 -108.49499 
L 87.027748 -109.296708 
L 87.030402 -110.098426 
L 87.033873 -110.098426 
L 87.033873 -110.098426 
L 87.036527 -109.296708 
L 87.040469 -108.49499 
L 87.044008 -107.693273 
L 87.044829 -106.891555 
L 87.042322 -106.089837 
L 87.038272 -105.288119 
L 87.034916 -104.486401 
L 87.033123 -103.684683 
L 87.032614 -102.882965 
L 87.033118 -102.081247 
L 87.034927 -101.279529 
L 87.038439 -100.477811 
L 87.043242 -99.676093 
L 87.048281 -98.874375 
L 87.053704 -98.072657 
L 87.061452 -97.270939 
L 87.072041 -96.469221 
L 87.081708 -95.667503 
L 87.085458 -94.865785 
L 87.08311 -94.064067 
L 87.080963 -93.262349 
L 87.087699 -92.460631 
L 87.108668 -91.658913 
L 87.142372 -90.857195 
L 87.18175 -90.055477 
L 87.219935 -89.253759 
L 87.255064 -88.452041 
L 87.288873 -87.650323 
L 87.322061 -86.848605 
L 87.354451 -86.046887 
L 87.390151 -85.245169 
L 87.440283 -84.443451 
L 87.520991 -83.641734 
L 87.64935 -82.840016 
L 87.835879 -82.038298 
L 88.074264 -81.23658 
L 88.339291 -80.434862 
L 88.600513 -79.633144 
L 88.841088 -78.831426 
L 89.066642 -78.029708 
L 89.302774 -77.22799 
L 89.585948 -76.426272 
L 89.946039 -75.624554 
L 90.389671 -74.822836 
L 90.905313 -74.021118 
L 91.47777 -73.2194 
L 92.078792 -72.417682 
L 92.655685 -71.615964 
L 93.173007 -70.814246 
L 93.675785 -70.012528 
L 94.263079 -69.21081 
L 94.968296 -68.409092 
L 95.710107 -67.607374 
L 96.40003 -66.805656 
L 97.052604 -66.003938 
L 97.745139 -65.20222 
L 98.500425 -64.400502 
L 99.237397 -63.598784 
L 99.823237 -62.797066 
L 100.175893 -61.995348 
L 100.322733 -61.19363 
L 100.346382 -60.391912 
L 100.286509 -59.590195 
L 100.118224 -58.788477 
L 99.807787 -57.986759 
L 99.361758 -57.185041 
L 98.817984 -56.383323 
L 98.197163 -55.581605 
L 97.485225 -54.779887 
L 96.683326 -53.978169 
L 95.859842 -53.176451 
L 95.115134 -52.374733 
L 94.486526 -51.573015 
L 93.914299 -50.771297 
L 93.305642 -49.969579 
L 92.608327 -49.167861 
L 91.830521 -48.366143 
L 91.027344 -47.564425 
L 90.275714 -46.762707 
L 89.635045 -45.960989 
L 89.112848 -45.159271 
L 88.671488 -44.357553 
L 88.274717 -43.555835 
L 87.923292 -42.754117 
L 87.643085 -41.952399 
L 87.449218 -41.150681 
L 87.328647 -40.348963 
L 87.251363 -39.547245 
L 87.192335 -38.745527 
L 87.142798 -37.943809 
L 87.104732 -37.142091 
L 87.080388 -36.340373 
L 87.067791 -35.538655 
L 87.061699 -34.736938 
L 87.056675 -33.93522 
L 87.050149 -33.133502 
L 87.043007 -32.331784 
L 87.037335 -31.530066 
L 87.034069 -30.728348 
z
" style="stroke: #4c4c4c; stroke-width: 0.5"/>
    </defs>
    <g clip-path="url(#pcea46f986e)">
     <use xlink:href="#m14a32ebaa7" x="0" y="121.26693" style="fill: #5573cd; stroke: #4c4c4c; stroke-width: 0.5"/>
    </g>
   </g>
   <g id="PolyCollection_2">
    <defs>
     <path id="m1fccd6c729" d="M 120.358492 -34.617098 
L 120.277007 -34.617098 
L 120.254186 -35.229244 
L 120.221069 -35.841389 
L 120.174183 -36.453534 
L 120.109342 -37.06568 
L 120.021693 -37.677825 
L 119.905861 -38.28997 
L 119.756263 -38.902116 
L 119.567606 -39.514261 
L 119.335562 -40.126406 
L 119.057551 -40.738552 
L 118.733468 -41.350697 
L 118.366179 -41.962842 
L 117.961565 -42.574987 
L 117.527982 -43.187133 
L 117.075157 -43.799278 
L 116.612694 -44.411423 
L 116.148534 -45.023569 
L 115.687772 -45.635714 
L 115.232168 -46.247859 
L 114.780503 -46.860005 
L 114.329625 -47.47215 
L 113.875844 -48.084295 
L 113.416136 -48.69644 
L 112.948766 -49.308586 
L 112.473142 -49.920731 
L 111.989095 -50.532876 
L 111.496083 -51.145022 
L 110.992926 -51.757167 
L 110.478528 -52.369312 
L 109.953613 -52.981458 
L 109.423007 -53.593603 
L 108.897593 -54.205748 
L 108.39496 -54.817894 
L 107.938095 -55.430039 
L 107.552057 -56.042184 
L 107.25933 -56.654329 
L 107.075049 -57.266475 
L 107.003505 -57.87862 
L 107.036958 -58.490765 
L 107.157146 -59.102911 
L 107.339086 -59.715056 
L 107.556137 -60.327201 
L 107.785011 -60.939347 
L 108.009569 -61.551492 
L 108.222652 -62.163637 
L 108.425792 -62.775783 
L 108.627159 -63.387928 
L 108.838487 -64.000073 
L 109.071789 -64.612218 
L 109.336653 -65.224364 
L 109.638597 -65.836509 
L 109.978693 -66.448654 
L 110.354286 -67.0608 
L 110.760416 -67.672945 
L 111.191385 -68.28509 
L 111.641973 -68.897236 
L 112.107962 -69.509381 
L 112.585922 -70.121526 
L 113.072495 -70.733671 
L 113.563574 -71.345817 
L 114.053799 -71.957962 
L 114.536661 -72.570107 
L 115.005216 -73.182253 
L 115.453175 -73.794398 
L 115.87598 -74.406543 
L 116.27148 -75.018689 
L 116.639953 -75.630834 
L 116.983496 -76.242979 
L 117.304993 -76.855125 
L 117.607033 -77.46727 
L 117.891119 -78.079415 
L 118.157381 -78.69156 
L 118.404829 -79.303706 
L 118.631966 -79.915851 
L 118.837522 -80.527996 
L 119.021017 -81.140142 
L 119.183003 -81.752287 
L 119.32494 -82.364432 
L 119.448809 -82.976578 
L 119.556659 -83.588723 
L 119.650244 -84.200868 
L 119.7309 -84.813014 
L 119.799653 -85.425159 
L 119.857485 -86.037304 
L 119.905622 -86.649449 
L 119.945708 -87.261595 
L 119.979783 -87.87374 
L 120.01007 -88.485885 
L 120.038642 -89.098031 
L 120.067086 -89.710176 
L 120.096264 -90.322321 
L 120.126252 -90.934467 
L 120.156456 -91.546612 
L 120.185858 -92.158757 
L 120.213311 -92.770903 
L 120.237813 -93.383048 
L 120.258688 -93.995193 
L 120.275665 -94.607338 
L 120.288847 -95.219484 
L 120.346651 -95.219484 
L 120.346651 -95.219484 
L 120.359834 -94.607338 
L 120.37681 -93.995193 
L 120.397686 -93.383048 
L 120.422188 -92.770903 
L 120.449641 -92.158757 
L 120.479043 -91.546612 
L 120.509247 -90.934467 
L 120.539235 -90.322321 
L 120.568412 -89.710176 
L 120.596856 -89.098031 
L 120.625429 -88.485885 
L 120.655716 -87.87374 
L 120.689791 -87.261595 
L 120.729877 -86.649449 
L 120.778014 -86.037304 
L 120.835846 -85.425159 
L 120.904599 -84.813014 
L 120.985255 -84.200868 
L 121.07884 -83.588723 
L 121.18669 -82.976578 
L 121.310559 -82.364432 
L 121.452496 -81.752287 
L 121.614482 -81.140142 
L 121.797977 -80.527996 
L 122.003533 -79.915851 
L 122.23067 -79.303706 
L 122.478117 -78.69156 
L 122.74438 -78.079415 
L 123.028466 -77.46727 
L 123.330506 -76.855125 
L 123.652003 -76.242979 
L 123.995545 -75.630834 
L 124.364019 -75.018689 
L 124.759519 -74.406543 
L 125.182324 -73.794398 
L 125.630283 -73.182253 
L 126.098838 -72.570107 
L 126.5817 -71.957962 
L 127.071925 -71.345817 
L 127.563004 -70.733671 
L 128.049577 -70.121526 
L 128.527537 -69.509381 
L 128.993526 -68.897236 
L 129.444114 -68.28509 
L 129.875083 -67.672945 
L 130.281213 -67.0608 
L 130.656806 -66.448654 
L 130.996902 -65.836509 
L 131.298846 -65.224364 
L 131.56371 -64.612218 
L 131.797012 -64.000073 
L 132.00834 -63.387928 
L 132.209707 -62.775783 
L 132.412846 -62.163637 
L 132.62593 -61.551492 
L 132.850488 -60.939347 
L 133.079362 -60.327201 
L 133.296413 -59.715056 
L 133.478353 -59.102911 
L 133.598541 -58.490765 
L 133.631994 -57.87862 
L 133.56045 -57.266475 
L 133.376169 -56.654329 
L 133.083441 -56.042184 
L 132.697404 -55.430039 
L 132.240539 -54.817894 
L 131.737906 -54.205748 
L 131.212492 -53.593603 
L 130.681886 -52.981458 
L 130.156971 -52.369312 
L 129.642573 -51.757167 
L 129.139416 -51.145022 
L 128.646404 -50.532876 
L 128.162357 -49.920731 
L 127.686733 -49.308586 
L 127.219363 -48.69644 
L 126.759655 -48.084295 
L 126.305874 -47.47215 
L 125.854996 -46.860005 
L 125.40333 -46.247859 
L 124.947727 -45.635714 
L 124.486965 -45.023569 
L 124.022805 -44.411423 
L 123.560342 -43.799278 
L 123.107517 -43.187133 
L 122.673934 -42.574987 
L 122.26932 -41.962842 
L 121.902031 -41.350697 
L 121.577948 -40.738552 
L 121.299936 -40.126406 
L 121.067893 -39.514261 
L 120.879236 -38.902116 
L 120.729638 -38.28997 
L 120.613806 -37.677825 
L 120.526156 -37.06568 
L 120.461316 -36.453534 
L 120.41443 -35.841389 
L 120.381313 -35.229244 
L 120.358492 -34.617098 
z
" style="stroke: #4c4c4c; stroke-width: 0.5"/>
    </defs>
    <g clip-path="url(#pcea46f986e)">
     <use xlink:href="#m1fccd6c729" x="0" y="121.26693" style="fill: #df8920; stroke: #4c4c4c; stroke-width: 0.5"/>
    </g>
   </g>
   <g id="line2d_1">
    <path d="M 87.032137 82.104314 
L 87.032137 37.977156 
" clip-path="url(#pcea46f986e)" style="fill: none; stroke: #4c4c4c; stroke-width: 0.75; stroke-linecap: round"/>
   </g>
   <g id="line2d_2">
    <path d="M 87.032137 65.951717 
L 87.032137 54.755136 
" clip-path="url(#pcea46f986e)" style="fill: none; stroke: #4c4c4c; stroke-width: 2.25; stroke-linecap: round"/>
   </g>
   <g id="line2d_3">
    <path d="M 87.032137 60.511525 
" clip-path="url(#pcea46f986e)" style="fill: none; stroke: #4c4c4c; stroke-width: 1.5; stroke-linecap: round"/>
    <defs>
     <path id="m9e37a73126" d="M 0.9375 0 
L -0.9375 -0 
" style="stroke: #ffffff; stroke-width: 0.45"/>
    </defs>
    <g clip-path="url(#pcea46f986e)">
     <use xlink:href="#m9e37a73126" x="87.032137" y="60.511525" style="fill: #ffffff; stroke: #ffffff; stroke-width: 0.45"/>
    </g>
   </g>
   <g id="line2d_4">
    <path d="M 120.317749 80.3976 
L 120.317749 37.945545 
" clip-path="url(#pcea46f986e)" style="fill: none; stroke: #4c4c4c; stroke-width: 0.75; stroke-linecap: round"/>
   </g>
   <g id="line2d_5">
    <path d="M 120.317749 66.829847 
L 120.317749 54.805826 
" clip-path="url(#pcea46f986e)" style="fill: none; stroke: #4c4c4c; stroke-width: 2.25; stroke-linecap: round"/>
   </g>
   <g id="line2d_6">
    <path d="M 120.317749 61.526584 
" clip-path="url(#pcea46f986e)" style="fill: none; stroke: #4c4c4c; stroke-width: 1.5; stroke-linecap: round"/>
    <g clip-path="url(#pcea46f986e)">
     <use xlink:href="#m9e37a73126" x="120.317749" y="61.526584" style="fill: #ffffff; stroke: #ffffff; stroke-width: 0.45"/>
    </g>
   </g>
   <g id="line2d_7">
    <path d="M 87.032137 32.70712 
L 87.032137 30.960978 
L 120.317749 30.960978 
L 120.317749 32.70712 
" style="fill: none; stroke: #333333; stroke-width: 0.5; stroke-linecap: round"/>
   </g>
   <g id="patch_3">
    <path d="M 70.722187 94.507087 
L 70.722187 7.2 
" style="fill: none; stroke: #262626; stroke-width: 1.25; stroke-linejoin: miter; stroke-linecap: square"/>
   </g>
   <g id="patch_4">
    <path d="M 70.722187 94.507087 
L 136.627699 94.507087 
" style="fill: none; stroke: #262626; stroke-width: 1.25; stroke-linejoin: miter; stroke-linecap: square"/>
   </g>
   <g id="text_6">
    <!-- ns -->
    <g style="fill: #262626" transform="translate(97.338381 27.575978) scale(0.12 -0.12)">
     <defs>
      <path id="ArialMT-6e" d="M 422 0 
L 422 3319 
L 928 3319 
L 928 2847 
Q 1294 3394 1984 3394 
Q 2284 3394 2536 3286 
Q 2788 3178 2913 3003 
Q 3038 2828 3088 2588 
Q 3119 2431 3119 2041 
L 3119 0 
L 2556 0 
L 2556 2019 
Q 2556 2363 2490 2533 
Q 2425 2703 2258 2804 
Q 2091 2906 1866 2906 
Q 1506 2906 1245 2678 
Q 984 2450 984 1813 
L 984 0 
L 422 0 
z
" transform="scale(0.015625)"/>
      <path id="ArialMT-73" d="M 197 991 
L 753 1078 
Q 800 744 1014 566 
Q 1228 388 1613 388 
Q 2000 388 2187 545 
Q 2375 703 2375 916 
Q 2375 1106 2209 1216 
Q 2094 1291 1634 1406 
Q 1016 1563 777 1677 
Q 538 1791 414 1992 
Q 291 2194 291 2438 
Q 291 2659 392 2848 
Q 494 3038 669 3163 
Q 800 3259 1026 3326 
Q 1253 3394 1513 3394 
Q 1903 3394 2198 3281 
Q 2494 3169 2634 2976 
Q 2775 2784 2828 2463 
L 2278 2388 
Q 2241 2644 2061 2787 
Q 1881 2931 1553 2931 
Q 1166 2931 1000 2803 
Q 834 2675 834 2503 
Q 834 2394 903 2306 
Q 972 2216 1119 2156 
Q 1203 2125 1616 2013 
Q 2213 1853 2448 1751 
Q 2684 1650 2818 1456 
Q 2953 1263 2953 975 
Q 2953 694 2789 445 
Q 2625 197 2315 61 
Q 2006 -75 1616 -75 
Q 969 -75 630 194 
Q 291 463 197 991 
z
" transform="scale(0.015625)"/>
     </defs>
     <use xlink:href="#ArialMT-6e"/>
     <use xlink:href="#ArialMT-73" x="55.615234"/>
    </g>
   </g>
  </g>
 </g>
 <defs>
  <clipPath id="pcea46f986e">
   <rect x="70.722187" y="7.2" width="65.905512" height="87.307087"/>
  </clipPath>
 </defs>
</svg>
