<?xml version="1.0" encoding="utf-8" standalone="no"?>
<!DOCTYPE svg PUBLIC "-//W3C//DTD SVG 1.1//EN"
  "http://www.w3.org/Graphics/SVG/1.1/DTD/svg11.dtd">
<svg xmlns:xlink="http://www.w3.org/1999/xlink" width="239.205156pt" height="257.891611pt" viewBox="0 0 239.205156 257.891611" xmlns="http://www.w3.org/2000/svg" version="1.1">
 <metadata>
  <rdf:RDF xmlns:dc="http://purl.org/dc/elements/1.1/" xmlns:cc="http://creativecommons.org/ns#" xmlns:rdf="http://www.w3.org/1999/02/22-rdf-syntax-ns#">
   <cc:Work>
    <dc:type rdf:resource="http://purl.org/dc/dcmitype/StillImage"/>
    <dc:date>2025-05-13T14:40:31.483518</dc:date>
    <dc:format>image/svg+xml</dc:format>
    <dc:creator>
     <cc:Agent>
      <dc:title>Matplotlib v3.9.2, https://matplotlib.org/</dc:title>
     </cc:Agent>
    </dc:creator>
   </cc:Work>
  </rdf:RDF>
 </metadata>
 <defs>
  <style type="text/css">*{stroke-linejoin: round; stroke-linecap: butt}</style>
 </defs>
 <g id="figure_1">
  <g id="patch_1">
   <path d="M 0 257.891611 
L 239.205156 257.891611 
L 239.205156 0 
L 0 0 
z
" style="fill: #ffffff"/>
  </g>
  <g id="axes_1">
   <g id="patch_2">
    <path d="M 64.605156 231.131767 
L 232.005156 231.131767 
L 232.005156 9.371767 
L 64.605156 9.371767 
z
" style="fill: #ffffff"/>
   </g>
   <g id="matplotlib.axis_1">
    <g id="xtick_1">
     <g id="text_1">
      <!-- Term -->
      <g style="fill: #262626" transform="translate(93.813835 248.505361) scale(0.11 -0.11)">
       <defs>
        <path id="ArialMT-54" d="M 1659 0 
L 1659 4041 
L 150 4041 
L 150 4581 
L 3781 4581 
L 3781 4041 
L 2266 4041 
L 2266 0 
L 1659 0 
z
" transform="scale(0.015625)"/>
        <path id="ArialMT-65" d="M 2694 1069 
L 3275 997 
Q 3138 488 2766 206 
Q 2394 -75 1816 -75 
Q 1088 -75 661 373 
Q 234 822 234 1631 
Q 234 2469 665 2931 
Q 1097 3394 1784 3394 
Q 2450 3394 2872 2941 
Q 3294 2488 3294 1666 
Q 3294 1616 3291 1516 
L 816 1516 
Q 847 969 1125 678 
Q 1403 388 1819 388 
Q 2128 388 2347 550 
Q 2566 713 2694 1069 
z
M 847 1978 
L 2700 1978 
Q 2663 2397 2488 2606 
Q 2219 2931 1791 2931 
Q 1403 2931 1139 2672 
Q 875 2413 847 1978 
z
" transform="scale(0.015625)"/>
        <path id="ArialMT-72" d="M 416 0 
L 416 3319 
L 922 3319 
L 922 2816 
Q 1116 3169 1280 3281 
Q 1444 3394 1641 3394 
Q 1925 3394 2219 3213 
L 2025 2691 
Q 1819 2813 1613 2813 
Q 1428 2813 1281 2702 
Q 1134 2591 1072 2394 
Q 978 2094 978 1738 
L 978 0 
L 416 0 
z
" transform="scale(0.015625)"/>
        <path id="ArialMT-6d" d="M 422 0 
L 422 3319 
L 925 3319 
L 925 2853 
Q 1081 3097 1340 3245 
Q 1600 3394 1931 3394 
Q 2300 3394 2536 3241 
Q 2772 3088 2869 2813 
Q 3263 3394 3894 3394 
Q 4388 3394 4653 3120 
Q 4919 2847 4919 2278 
L 4919 0 
L 4359 0 
L 4359 2091 
Q 4359 2428 4304 2576 
Q 4250 2725 4106 2815 
Q 3963 2906 3769 2906 
Q 3419 2906 3187 2673 
Q 2956 2441 2956 1928 
L 2956 0 
L 2394 0 
L 2394 2156 
Q 2394 2531 2256 2718 
Q 2119 2906 1806 2906 
Q 1569 2906 1367 2781 
Q 1166 2656 1075 2415 
Q 984 2175 984 1722 
L 984 0 
L 422 0 
z
" transform="scale(0.015625)"/>
       </defs>
       <use xlink:href="#ArialMT-54"/>
       <use xlink:href="#ArialMT-65" x="49.958984"/>
       <use xlink:href="#ArialMT-72" x="105.574219"/>
       <use xlink:href="#ArialMT-6d" x="138.875"/>
      </g>
     </g>
    </g>
    <g id="xtick_2">
     <g id="text_2">
      <!-- Preterm -->
      <g style="fill: #262626" transform="translate(171.020227 248.505361) scale(0.11 -0.11)">
       <defs>
        <path id="ArialMT-50" d="M 494 0 
L 494 4581 
L 2222 4581 
Q 2678 4581 2919 4538 
Q 3256 4481 3484 4323 
Q 3713 4166 3852 3881 
Q 3991 3597 3991 3256 
Q 3991 2672 3619 2267 
Q 3247 1863 2275 1863 
L 1100 1863 
L 1100 0 
L 494 0 
z
M 1100 2403 
L 2284 2403 
Q 2872 2403 3119 2622 
Q 3366 2841 3366 3238 
Q 3366 3525 3220 3729 
Q 3075 3934 2838 4000 
Q 2684 4041 2272 4041 
L 1100 4041 
L 1100 2403 
z
" transform="scale(0.015625)"/>
        <path id="ArialMT-74" d="M 1650 503 
L 1731 6 
Q 1494 -44 1306 -44 
Q 1000 -44 831 53 
Q 663 150 594 308 
Q 525 466 525 972 
L 525 2881 
L 113 2881 
L 113 3319 
L 525 3319 
L 525 4141 
L 1084 4478 
L 1084 3319 
L 1650 3319 
L 1650 2881 
L 1084 2881 
L 1084 941 
Q 1084 700 1114 631 
Q 1144 563 1211 522 
Q 1278 481 1403 481 
Q 1497 481 1650 503 
z
" transform="scale(0.015625)"/>
       </defs>
       <use xlink:href="#ArialMT-50"/>
       <use xlink:href="#ArialMT-72" x="66.699219"/>
       <use xlink:href="#ArialMT-65" x="100"/>
       <use xlink:href="#ArialMT-74" x="155.615234"/>
       <use xlink:href="#ArialMT-65" x="183.398438"/>
       <use xlink:href="#ArialMT-72" x="239.013672"/>
       <use xlink:href="#ArialMT-6d" x="272.314453"/>
      </g>
     </g>
    </g>
   </g>
   <g id="matplotlib.axis_2">
    <g id="ytick_1">
     <g id="text_3">
      <!-- 45000 -->
      <g style="fill: #262626" transform="translate(24.52 218.729982) scale(0.11 -0.11)">
       <defs>
        <path id="ArialMT-34" d="M 2069 0 
L 2069 1097 
L 81 1097 
L 81 1613 
L 2172 4581 
L 2631 4581 
L 2631 1613 
L 3250 1613 
L 3250 1097 
L 2631 1097 
L 2631 0 
L 2069 0 
z
M 2069 1613 
L 2069 3678 
L 634 1613 
L 2069 1613 
z
" transform="scale(0.015625)"/>
        <path id="ArialMT-35" d="M 266 1200 
L 856 1250 
Q 922 819 1161 601 
Q 1400 384 1738 384 
Q 2144 384 2425 690 
Q 2706 997 2706 1503 
Q 2706 1984 2436 2262 
Q 2166 2541 1728 2541 
Q 1456 2541 1237 2417 
Q 1019 2294 894 2097 
L 366 2166 
L 809 4519 
L 3088 4519 
L 3088 3981 
L 1259 3981 
L 1013 2750 
Q 1425 3038 1878 3038 
Q 2478 3038 2890 2622 
Q 3303 2206 3303 1553 
Q 3303 931 2941 478 
Q 2500 -78 1738 -78 
Q 1113 -78 717 272 
Q 322 622 266 1200 
z
" transform="scale(0.015625)"/>
        <path id="ArialMT-30" d="M 266 2259 
Q 266 3072 433 3567 
Q 600 4063 929 4331 
Q 1259 4600 1759 4600 
Q 2128 4600 2406 4451 
Q 2684 4303 2865 4023 
Q 3047 3744 3150 3342 
Q 3253 2941 3253 2259 
Q 3253 1453 3087 958 
Q 2922 463 2592 192 
Q 2263 -78 1759 -78 
Q 1097 -78 719 397 
Q 266 969 266 2259 
z
M 844 2259 
Q 844 1131 1108 757 
Q 1372 384 1759 384 
Q 2147 384 2411 759 
Q 2675 1134 2675 2259 
Q 2675 3391 2411 3762 
Q 2147 4134 1753 4134 
Q 1366 4134 1134 3806 
Q 844 3388 844 2259 
z
" transform="scale(0.015625)"/>
       </defs>
       <use xlink:href="#ArialMT-34"/>
       <use xlink:href="#ArialMT-35" x="55.615234"/>
       <use xlink:href="#ArialMT-30" x="111.230469"/>
       <use xlink:href="#ArialMT-30" x="166.845703"/>
       <use xlink:href="#ArialMT-30" x="222.460938"/>
      </g>
     </g>
    </g>
    <g id="ytick_2">
     <g id="text_4">
      <!-- 50000 -->
      <g style="fill: #262626" transform="translate(24.52 193.272934) scale(0.11 -0.11)">
       <use xlink:href="#ArialMT-35"/>
       <use xlink:href="#ArialMT-30" x="55.615234"/>
       <use xlink:href="#ArialMT-30" x="111.230469"/>
       <use xlink:href="#ArialMT-30" x="166.845703"/>
       <use xlink:href="#ArialMT-30" x="222.460938"/>
      </g>
     </g>
    </g>
    <g id="ytick_3">
     <g id="text_5">
      <!-- 55000 -->
      <g style="fill: #262626" transform="translate(24.52 167.815885) scale(0.11 -0.11)">
       <use xlink:href="#ArialMT-35"/>
       <use xlink:href="#ArialMT-35" x="55.615234"/>
       <use xlink:href="#ArialMT-30" x="111.230469"/>
       <use xlink:href="#ArialMT-30" x="166.845703"/>
       <use xlink:href="#ArialMT-30" x="222.460938"/>
      </g>
     </g>
    </g>
    <g id="ytick_4">
     <g id="text_6">
      <!-- 60000 -->
      <g style="fill: #262626" transform="translate(24.52 142.358837) scale(0.11 -0.11)">
       <defs>
        <path id="ArialMT-36" d="M 3184 3459 
L 2625 3416 
Q 2550 3747 2413 3897 
Q 2184 4138 1850 4138 
Q 1581 4138 1378 3988 
Q 1113 3794 959 3422 
Q 806 3050 800 2363 
Q 1003 2672 1297 2822 
Q 1591 2972 1913 2972 
Q 2475 2972 2870 2558 
Q 3266 2144 3266 1488 
Q 3266 1056 3080 686 
Q 2894 316 2569 119 
Q 2244 -78 1831 -78 
Q 1128 -78 684 439 
Q 241 956 241 2144 
Q 241 3472 731 4075 
Q 1159 4600 1884 4600 
Q 2425 4600 2770 4297 
Q 3116 3994 3184 3459 
z
M 888 1484 
Q 888 1194 1011 928 
Q 1134 663 1356 523 
Q 1578 384 1822 384 
Q 2178 384 2434 671 
Q 2691 959 2691 1453 
Q 2691 1928 2437 2201 
Q 2184 2475 1800 2475 
Q 1419 2475 1153 2201 
Q 888 1928 888 1484 
z
" transform="scale(0.015625)"/>
       </defs>
       <use xlink:href="#ArialMT-36"/>
       <use xlink:href="#ArialMT-30" x="55.615234"/>
       <use xlink:href="#ArialMT-30" x="111.230469"/>
       <use xlink:href="#ArialMT-30" x="166.845703"/>
       <use xlink:href="#ArialMT-30" x="222.460938"/>
      </g>
     </g>
    </g>
    <g id="ytick_5">
     <g id="text_7">
      <!-- 65000 -->
      <g style="fill: #262626" transform="translate(24.52 116.901788) scale(0.11 -0.11)">
       <use xlink:href="#ArialMT-36"/>
       <use xlink:href="#ArialMT-35" x="55.615234"/>
       <use xlink:href="#ArialMT-30" x="111.230469"/>
       <use xlink:href="#ArialMT-30" x="166.845703"/>
       <use xlink:href="#ArialMT-30" x="222.460938"/>
      </g>
     </g>
    </g>
    <g id="ytick_6">
     <g id="text_8">
      <!-- 70000 -->
      <g style="fill: #262626" transform="translate(24.52 91.44474) scale(0.11 -0.11)">
       <defs>
        <path id="ArialMT-37" d="M 303 3981 
L 303 4522 
L 3269 4522 
L 3269 4084 
Q 2831 3619 2401 2847 
Q 1972 2075 1738 1259 
Q 1569 684 1522 0 
L 944 0 
Q 953 541 1156 1306 
Q 1359 2072 1739 2783 
Q 2119 3494 2547 3981 
L 303 3981 
z
" transform="scale(0.015625)"/>
       </defs>
       <use xlink:href="#ArialMT-37"/>
       <use xlink:href="#ArialMT-30" x="55.615234"/>
       <use xlink:href="#ArialMT-30" x="111.230469"/>
       <use xlink:href="#ArialMT-30" x="166.845703"/>
       <use xlink:href="#ArialMT-30" x="222.460938"/>
      </g>
     </g>
    </g>
    <g id="ytick_7">
     <g id="text_9">
      <!-- 75000 -->
      <g style="fill: #262626" transform="translate(24.52 65.987691) scale(0.11 -0.11)">
       <use xlink:href="#ArialMT-37"/>
       <use xlink:href="#ArialMT-35" x="55.615234"/>
       <use xlink:href="#ArialMT-30" x="111.230469"/>
       <use xlink:href="#ArialMT-30" x="166.845703"/>
       <use xlink:href="#ArialMT-30" x="222.460938"/>
      </g>
     </g>
    </g>
    <g id="ytick_8">
     <g id="text_10">
      <!-- 80000 -->
      <g style="fill: #262626" transform="translate(24.52 40.530642) scale(0.11 -0.11)">
       <defs>
        <path id="ArialMT-38" d="M 1131 2484 
Q 781 2613 612 2850 
Q 444 3088 444 3419 
Q 444 3919 803 4259 
Q 1163 4600 1759 4600 
Q 2359 4600 2725 4251 
Q 3091 3903 3091 3403 
Q 3091 3084 2923 2848 
Q 2756 2613 2416 2484 
Q 2838 2347 3058 2040 
Q 3278 1734 3278 1309 
Q 3278 722 2862 322 
Q 2447 -78 1769 -78 
Q 1091 -78 675 323 
Q 259 725 259 1325 
Q 259 1772 486 2073 
Q 713 2375 1131 2484 
z
M 1019 3438 
Q 1019 3113 1228 2906 
Q 1438 2700 1772 2700 
Q 2097 2700 2305 2904 
Q 2513 3109 2513 3406 
Q 2513 3716 2298 3927 
Q 2084 4138 1766 4138 
Q 1444 4138 1231 3931 
Q 1019 3725 1019 3438 
z
M 838 1322 
Q 838 1081 952 856 
Q 1066 631 1291 507 
Q 1516 384 1775 384 
Q 2178 384 2440 643 
Q 2703 903 2703 1303 
Q 2703 1709 2433 1975 
Q 2163 2241 1756 2241 
Q 1359 2241 1098 1978 
Q 838 1716 838 1322 
z
" transform="scale(0.015625)"/>
       </defs>
       <use xlink:href="#ArialMT-38"/>
       <use xlink:href="#ArialMT-30" x="55.615234"/>
       <use xlink:href="#ArialMT-30" x="111.230469"/>
       <use xlink:href="#ArialMT-30" x="166.845703"/>
       <use xlink:href="#ArialMT-30" x="222.460938"/>
      </g>
     </g>
    </g>
    <g id="ytick_9">
     <g id="text_11">
      <!-- 85000 -->
      <g style="fill: #262626" transform="translate(24.52 15.073594) scale(0.11 -0.11)">
       <use xlink:href="#ArialMT-38"/>
       <use xlink:href="#ArialMT-35" x="55.615234"/>
       <use xlink:href="#ArialMT-30" x="111.230469"/>
       <use xlink:href="#ArialMT-30" x="166.845703"/>
       <use xlink:href="#ArialMT-30" x="222.460938"/>
      </g>
     </g>
    </g>
    <g id="text_12">
     <!-- sGMV [mm$^3$] -->
     <g style="fill: #262626" transform="translate(18.12 154.811767) rotate(-90) scale(0.12 -0.12)">
      <defs>
       <path id="ArialMT-73" d="M 197 991 
L 753 1078 
Q 800 744 1014 566 
Q 1228 388 1613 388 
Q 2000 388 2187 545 
Q 2375 703 2375 916 
Q 2375 1106 2209 1216 
Q 2094 1291 1634 1406 
Q 1016 1563 777 1677 
Q 538 1791 414 1992 
Q 291 2194 291 2438 
Q 291 2659 392 2848 
Q 494 3038 669 3163 
Q 800 3259 1026 3326 
Q 1253 3394 1513 3394 
Q 1903 3394 2198 3281 
Q 2494 3169 2634 2976 
Q 2775 2784 2828 2463 
L 2278 2388 
Q 2241 2644 2061 2787 
Q 1881 2931 1553 2931 
Q 1166 2931 1000 2803 
Q 834 2675 834 2503 
Q 834 2394 903 2306 
Q 972 2216 1119 2156 
Q 1203 2125 1616 2013 
Q 2213 1853 2448 1751 
Q 2684 1650 2818 1456 
Q 2953 1263 2953 975 
Q 2953 694 2789 445 
Q 2625 197 2315 61 
Q 2006 -75 1616 -75 
Q 969 -75 630 194 
Q 291 463 197 991 
z
" transform="scale(0.015625)"/>
       <path id="ArialMT-47" d="M 2638 1797 
L 2638 2334 
L 4578 2338 
L 4578 638 
Q 4131 281 3656 101 
Q 3181 -78 2681 -78 
Q 2006 -78 1454 211 
Q 903 500 622 1047 
Q 341 1594 341 2269 
Q 341 2938 620 3517 
Q 900 4097 1425 4378 
Q 1950 4659 2634 4659 
Q 3131 4659 3532 4498 
Q 3934 4338 4162 4050 
Q 4391 3763 4509 3300 
L 3963 3150 
Q 3859 3500 3706 3700 
Q 3553 3900 3268 4020 
Q 2984 4141 2638 4141 
Q 2222 4141 1919 4014 
Q 1616 3888 1430 3681 
Q 1244 3475 1141 3228 
Q 966 2803 966 2306 
Q 966 1694 1177 1281 
Q 1388 869 1791 669 
Q 2194 469 2647 469 
Q 3041 469 3416 620 
Q 3791 772 3984 944 
L 3984 1797 
L 2638 1797 
z
" transform="scale(0.015625)"/>
       <path id="ArialMT-4d" d="M 475 0 
L 475 4581 
L 1388 4581 
L 2472 1338 
Q 2622 884 2691 659 
Q 2769 909 2934 1394 
L 4031 4581 
L 4847 4581 
L 4847 0 
L 4263 0 
L 4263 3834 
L 2931 0 
L 2384 0 
L 1059 3900 
L 1059 0 
L 475 0 
z
" transform="scale(0.015625)"/>
       <path id="ArialMT-56" d="M 1803 0 
L 28 4581 
L 684 4581 
L 1875 1253 
Q 2019 853 2116 503 
Q 2222 878 2363 1253 
L 3600 4581 
L 4219 4581 
L 2425 0 
L 1803 0 
z
" transform="scale(0.015625)"/>
       <path id="ArialMT-20" transform="scale(0.015625)"/>
       <path id="ArialMT-5b" d="M 434 -1272 
L 434 4581 
L 1675 4581 
L 1675 4116 
L 997 4116 
L 997 -806 
L 1675 -806 
L 1675 -1272 
L 434 -1272 
z
" transform="scale(0.015625)"/>
       <path id="DejaVuSans-33" d="M 2597 2516 
Q 3050 2419 3304 2112 
Q 3559 1806 3559 1356 
Q 3559 666 3084 287 
Q 2609 -91 1734 -91 
Q 1441 -91 1130 -33 
Q 819 25 488 141 
L 488 750 
Q 750 597 1062 519 
Q 1375 441 1716 441 
Q 2309 441 2620 675 
Q 2931 909 2931 1356 
Q 2931 1769 2642 2001 
Q 2353 2234 1838 2234 
L 1294 2234 
L 1294 2753 
L 1863 2753 
Q 2328 2753 2575 2939 
Q 2822 3125 2822 3475 
Q 2822 3834 2567 4026 
Q 2313 4219 1838 4219 
Q 1578 4219 1281 4162 
Q 984 4106 628 3988 
L 628 4550 
Q 988 4650 1302 4700 
Q 1616 4750 1894 4750 
Q 2613 4750 3031 4423 
Q 3450 4097 3450 3541 
Q 3450 3153 3228 2886 
Q 3006 2619 2597 2516 
z
" transform="scale(0.015625)"/>
       <path id="ArialMT-5d" d="M 1363 -1272 
L 122 -1272 
L 122 -806 
L 800 -806 
L 800 4116 
L 122 4116 
L 122 4581 
L 1363 4581 
L 1363 -1272 
z
" transform="scale(0.015625)"/>
      </defs>
      <use xlink:href="#ArialMT-73" transform="translate(0 0.765625)"/>
      <use xlink:href="#ArialMT-47" transform="translate(50 0.765625)"/>
      <use xlink:href="#ArialMT-4d" transform="translate(127.783203 0.765625)"/>
      <use xlink:href="#ArialMT-56" transform="translate(211.083984 0.765625)"/>
      <use xlink:href="#ArialMT-20" transform="translate(277.783203 0.765625)"/>
      <use xlink:href="#ArialMT-5b" transform="translate(305.566406 0.765625)"/>
      <use xlink:href="#ArialMT-6d" transform="translate(333.349609 0.765625)"/>
      <use xlink:href="#ArialMT-6d" transform="translate(416.650391 0.765625)"/>
      <use xlink:href="#DejaVuSans-33" transform="translate(500.908203 39.046875) scale(0.7)"/>
      <use xlink:href="#ArialMT-5d" transform="translate(548.178711 0.765625)"/>
     </g>
    </g>
   </g>
   <g id="PolyCollection_1">
    <defs>
     <path id="md6db53ec43" d="M 106.05401 -36.839844 
L 106.010848 -36.839844 
L 105.978155 -38.876207 
L 105.917893 -40.912571 
L 105.828514 -42.948935 
L 105.723454 -44.985298 
L 105.627822 -47.021662 
L 105.561885 -49.058026 
L 105.524062 -51.094389 
L 105.490168 -53.130753 
L 105.429512 -55.167116 
L 105.321008 -57.20348 
L 105.155156 -59.239844 
L 104.925116 -61.276207 
L 104.620112 -63.312571 
L 104.228135 -65.348935 
L 103.743118 -67.385298 
L 103.167151 -69.421662 
L 102.50209 -71.458026 
L 101.734225 -73.494389 
L 100.827483 -75.530753 
L 99.74079 -77.567116 
L 98.46171 -79.60348 
L 97.024998 -81.639844 
L 95.496736 -83.676207 
L 93.939168 -85.712571 
L 92.383669 -87.748935 
L 90.82405 -89.785298 
L 89.228508 -91.821662 
L 87.561999 -93.858026 
L 85.804987 -95.894389 
L 83.96287 -97.930753 
L 82.078651 -99.967116 
L 80.249061 -102.00348 
L 78.610759 -104.039844 
L 77.279614 -106.076207 
L 76.284271 -108.112571 
L 75.543737 -110.148935 
L 74.899517 -112.185298 
L 74.19946 -114.221662 
L 73.411456 -116.258026 
L 72.679506 -118.294389 
L 72.234787 -120.330753 
L 72.214247 -122.367116 
L 72.560108 -124.40348 
L 73.100282 -126.439844 
L 73.717825 -128.476207 
L 74.433036 -130.512571 
L 75.332633 -132.548935 
L 76.445747 -134.585298 
L 77.700925 -136.621662 
L 78.988197 -138.658026 
L 80.244624 -140.694389 
L 81.487763 -142.730753 
L 82.788095 -144.767116 
L 84.207124 -146.80348 
L 85.738408 -148.839844 
L 87.302248 -150.876207 
L 88.814183 -152.912571 
L 90.261954 -154.948935 
L 91.697946 -156.985298 
L 93.151479 -159.021662 
L 94.569286 -161.058026 
L 95.857787 -163.094389 
L 96.97194 -165.130753 
L 97.945213 -167.167116 
L 98.839892 -169.20348 
L 99.689747 -171.239844 
L 100.492014 -173.276207 
L 101.231555 -175.312571 
L 101.897496 -177.348935 
L 102.487431 -179.385298 
L 103.011074 -181.421662 
L 103.488032 -183.458026 
L 103.933382 -185.494389 
L 104.345228 -187.530753 
L 104.707615 -189.567116 
L 105.001523 -191.60348 
L 105.213416 -193.639844 
L 105.342494 -195.676207 
L 105.406875 -197.712571 
L 105.440495 -199.748935 
L 105.478189 -201.785298 
L 105.539819 -203.821662 
L 105.62505 -205.858026 
L 105.719394 -207.894389 
L 105.804697 -209.930753 
L 105.868197 -211.967116 
L 105.907206 -214.00348 
L 105.927881 -216.039844 
L 105.938882 -218.076207 
L 105.944489 -220.112571 
L 105.943154 -222.148935 
L 105.9331 -224.185298 
L 105.919131 -226.221662 
L 105.912352 -228.258026 
L 105.92178 -230.294389 
L 105.946541 -232.330753 
L 105.977 -234.367116 
L 106.002841 -236.40348 
L 106.019391 -238.439844 
L 106.045467 -238.439844 
L 106.045467 -238.439844 
L 106.062017 -236.40348 
L 106.087858 -234.367116 
L 106.118317 -232.330753 
L 106.143078 -230.294389 
L 106.152506 -228.258026 
L 106.145727 -226.221662 
L 106.131758 -224.185298 
L 106.121704 -222.148935 
L 106.120369 -220.112571 
L 106.125976 -218.076207 
L 106.136977 -216.039844 
L 106.157652 -214.00348 
L 106.196661 -211.967116 
L 106.260161 -209.930753 
L 106.345464 -207.894389 
L 106.439808 -205.858026 
L 106.525039 -203.821662 
L 106.586668 -201.785298 
L 106.624363 -199.748935 
L 106.657983 -197.712571 
L 106.722364 -195.676207 
L 106.851442 -193.639844 
L 107.063335 -191.60348 
L 107.357243 -189.567116 
L 107.719629 -187.530753 
L 108.131476 -185.494389 
L 108.576826 -183.458026 
L 109.053784 -181.421662 
L 109.577426 -179.385298 
L 110.167362 -177.348935 
L 110.833303 -175.312571 
L 111.572843 -173.276207 
L 112.375111 -171.239844 
L 113.224966 -169.20348 
L 114.119645 -167.167116 
L 115.092918 -165.130753 
L 116.207071 -163.094389 
L 117.495572 -161.058026 
L 118.913379 -159.021662 
L 120.366911 -156.985298 
L 121.802904 -154.948935 
L 123.250675 -152.912571 
L 124.76261 -150.876207 
L 126.32645 -148.839844 
L 127.857734 -146.80348 
L 129.276763 -144.767116 
L 130.577095 -142.730753 
L 131.820234 -140.694389 
L 133.076661 -138.658026 
L 134.363933 -136.621662 
L 135.619111 -134.585298 
L 136.732225 -132.548935 
L 137.631822 -130.512571 
L 138.347033 -128.476207 
L 138.964576 -126.439844 
L 139.50475 -124.40348 
L 139.850611 -122.367116 
L 139.83007 -120.330753 
L 139.385352 -118.294389 
L 138.653402 -116.258026 
L 137.865398 -114.221662 
L 137.165341 -112.185298 
L 136.521121 -110.148935 
L 135.780587 -108.112571 
L 134.785244 -106.076207 
L 133.454099 -104.039844 
L 131.815797 -102.00348 
L 129.986207 -99.967116 
L 128.101988 -97.930753 
L 126.259871 -95.894389 
L 124.502859 -93.858026 
L 122.83635 -91.821662 
L 121.240808 -89.785298 
L 119.681189 -87.748935 
L 118.12569 -85.712571 
L 116.568122 -83.676207 
L 115.039859 -81.639844 
L 113.603148 -79.60348 
L 112.324068 -77.567116 
L 111.237375 -75.530753 
L 110.330633 -73.494389 
L 109.562768 -71.458026 
L 108.897707 -69.421662 
L 108.32174 -67.385298 
L 107.836723 -65.348935 
L 107.444746 -63.312571 
L 107.139742 -61.276207 
L 106.909702 -59.239844 
L 106.74385 -57.20348 
L 106.635346 -55.167116 
L 106.57469 -53.130753 
L 106.540796 -51.094389 
L 106.502973 -49.058026 
L 106.437036 -47.021662 
L 106.341404 -44.985298 
L 106.236344 -42.948935 
L 106.146965 -40.912571 
L 106.086703 -38.876207 
L 106.05401 -36.839844 
z
" style="stroke: #4c4c4c; stroke-width: 0.5"/>
    </defs>
    <g clip-path="url(#p48c16004a0)">
     <use xlink:href="#md6db53ec43" x="0" y="257.891611" style="fill: #5573cd; stroke: #4c4c4c; stroke-width: 0.5"/>
    </g>
   </g>
   <g id="PolyCollection_2">
    <defs>
     <path id="m02f39e22e2" d="M 190.671443 -37.741412 
L 190.484325 -37.741412 
L 190.442021 -39.469998 
L 190.385503 -41.198584 
L 190.311801 -42.92717 
L 190.217696 -44.655757 
L 190.09961 -46.384343 
L 189.95341 -48.112929 
L 189.774128 -49.841515 
L 189.555665 -51.570101 
L 189.290578 -53.298688 
L 188.970055 -55.027274 
L 188.584192 -56.75586 
L 188.122614 -58.484446 
L 187.575434 -60.213033 
L 186.934448 -61.941619 
L 186.194412 -63.670205 
L 185.354224 -65.398791 
L 184.417816 -67.127378 
L 183.394633 -68.855964 
L 182.299597 -70.58455 
L 181.152518 -72.313136 
L 179.976964 -74.041722 
L 178.798635 -75.770309 
L 177.643346 -77.498895 
L 176.534812 -79.227481 
L 175.492456 -80.956067 
L 174.52956 -82.684654 
L 173.65202 -84.41324 
L 172.857909 -86.141826 
L 172.137893 -87.870412 
L 171.476356 -89.598998 
L 170.852978 -91.327585 
L 170.244424 -93.056171 
L 169.625927 -94.784757 
L 168.972673 -96.513343 
L 168.261116 -98.24193 
L 167.470508 -99.970516 
L 166.58491 -101.699102 
L 165.595781 -103.427688 
L 164.504986 -105.156274 
L 163.327674 -106.884861 
L 162.094303 -108.613447 
L 160.850974 -110.342033 
L 159.657497 -112.070619 
L 158.582985 -113.799206 
L 157.699346 -115.527792 
L 157.073525 -117.256378 
L 156.759702 -118.984964 
L 156.792732 -120.713551 
L 157.183876 -122.442137 
L 157.919455 -124.170723 
L 158.962489 -125.899309 
L 160.256905 -127.627895 
L 161.733499 -129.356482 
L 163.316734 -131.085068 
L 164.931487 -132.813654 
L 166.509052 -134.54224 
L 167.991938 -136.270827 
L 169.337235 -137.999413 
L 170.518444 -139.727999 
L 171.5258 -141.456585 
L 172.365203 -143.185171 
L 173.05596 -144.913758 
L 173.627638 -146.642344 
L 174.116411 -148.37093 
L 174.561307 -150.099516 
L 175.000716 -151.828103 
L 175.469406 -153.556689 
L 175.996167 -155.285275 
L 176.602111 -157.013861 
L 177.299581 -158.742447 
L 178.09165 -160.471034 
L 178.972233 -162.19962 
L 179.926846 -163.928206 
L 180.934034 -165.656792 
L 181.967417 -167.385379 
L 182.998174 -169.113965 
L 183.997698 -170.842551 
L 184.94011 -172.571137 
L 185.80432 -174.299724 
L 186.57542 -176.02831 
L 187.245318 -177.756896 
L 187.812631 -179.485482 
L 188.281936 -181.214068 
L 188.662553 -182.942655 
L 188.967037 -184.671241 
L 189.209562 -186.399827 
L 189.404375 -188.128413 
L 189.564471 -189.857 
L 189.700627 -191.585586 
L 189.820861 -193.314172 
L 189.930344 -195.042758 
L 190.031705 -196.771344 
L 190.12562 -198.499931 
L 190.211537 -200.228517 
L 190.288389 -201.957103 
L 190.355175 -203.685689 
L 190.411347 -205.414276 
L 190.456971 -207.142862 
L 190.492719 -208.871448 
L 190.663048 -208.871448 
L 190.663048 -208.871448 
L 190.698796 -207.142862 
L 190.74442 -205.414276 
L 190.800592 -203.685689 
L 190.867378 -201.957103 
L 190.94423 -200.228517 
L 191.030147 -198.499931 
L 191.124062 -196.771344 
L 191.225423 -195.042758 
L 191.334906 -193.314172 
L 191.45514 -191.585586 
L 191.591296 -189.857 
L 191.751392 -188.128413 
L 191.946205 -186.399827 
L 192.18873 -184.671241 
L 192.493215 -182.942655 
L 192.873831 -181.214068 
L 193.343136 -179.485482 
L 193.910449 -177.756896 
L 194.580347 -176.02831 
L 195.351447 -174.299724 
L 196.215657 -172.571137 
L 197.158069 -170.842551 
L 198.157593 -169.113965 
L 199.18835 -167.385379 
L 200.221733 -165.656792 
L 201.228921 -163.928206 
L 202.183534 -162.19962 
L 203.064117 -160.471034 
L 203.856186 -158.742447 
L 204.553656 -157.013861 
L 205.1596 -155.285275 
L 205.686361 -153.556689 
L 206.155051 -151.828103 
L 206.59446 -150.099516 
L 207.039356 -148.37093 
L 207.528129 -146.642344 
L 208.099807 -144.913758 
L 208.790565 -143.185171 
L 209.629968 -141.456585 
L 210.637323 -139.727999 
L 211.818532 -137.999413 
L 213.163829 -136.270827 
L 214.646715 -134.54224 
L 216.22428 -132.813654 
L 217.839033 -131.085068 
L 219.422268 -129.356482 
L 220.898862 -127.627895 
L 222.193278 -125.899309 
L 223.236312 -124.170723 
L 223.971891 -122.442137 
L 224.363035 -120.713551 
L 224.396065 -118.984964 
L 224.082242 -117.256378 
L 223.456421 -115.527792 
L 222.572782 -113.799206 
L 221.49827 -112.070619 
L 220.304793 -110.342033 
L 219.061464 -108.613447 
L 217.828093 -106.884861 
L 216.650781 -105.156274 
L 215.559986 -103.427688 
L 214.570857 -101.699102 
L 213.685259 -99.970516 
L 212.894651 -98.24193 
L 212.183094 -96.513343 
L 211.52984 -94.784757 
L 210.911344 -93.056171 
L 210.302789 -91.327585 
L 209.679411 -89.598998 
L 209.017874 -87.870412 
L 208.297858 -86.141826 
L 207.503747 -84.41324 
L 206.626207 -82.684654 
L 205.663311 -80.956067 
L 204.620955 -79.227481 
L 203.512421 -77.498895 
L 202.357132 -75.770309 
L 201.178803 -74.041722 
L 200.003249 -72.313136 
L 198.85617 -70.58455 
L 197.761134 -68.855964 
L 196.737951 -67.127378 
L 195.801543 -65.398791 
L 194.961355 -63.670205 
L 194.221319 -61.941619 
L 193.580333 -60.213033 
L 193.033153 -58.484446 
L 192.571575 -56.75586 
L 192.185712 -55.027274 
L 191.865189 -53.298688 
L 191.600102 -51.570101 
L 191.381639 -49.841515 
L 191.202357 -48.112929 
L 191.056157 -46.384343 
L 190.938071 -44.655757 
L 190.843966 -42.92717 
L 190.770264 -41.198584 
L 190.713746 -39.469998 
L 190.671443 -37.741412 
z
" style="stroke: #4c4c4c; stroke-width: 0.5"/>
    </defs>
    <g clip-path="url(#p48c16004a0)">
     <use xlink:href="#m02f39e22e2" x="0" y="257.891611" style="fill: #df8920; stroke: #4c4c4c; stroke-width: 0.5"/>
    </g>
   </g>
   <g id="line2d_1">
    <path d="M 106.032429 203.384146 
L 106.032429 65.425805 
" clip-path="url(#p48c16004a0)" style="fill: none; stroke: #4c4c4c; stroke-width: 0.75; stroke-linecap: round"/>
   </g>
   <g id="line2d_2">
    <path d="M 106.032429 152.107012 
L 106.032429 117.248115 
" clip-path="url(#p48c16004a0)" style="fill: none; stroke: #4c4c4c; stroke-width: 2.25; stroke-linecap: round"/>
   </g>
   <g id="line2d_3">
    <path d="M 106.032429 135.151483 
" clip-path="url(#p48c16004a0)" style="fill: none; stroke: #4c4c4c; stroke-width: 1.5; stroke-linecap: round"/>
    <defs>
     <path id="m58eb3c41b8" d="M 0.9375 0 
L -0.9375 -0 
" style="stroke: #ffffff; stroke-width: 0.45"/>
    </defs>
    <g clip-path="url(#p48c16004a0)">
     <use xlink:href="#m58eb3c41b8" x="106.032429" y="135.151483" style="fill: #ffffff; stroke: #ffffff; stroke-width: 0.45"/>
    </g>
   </g>
   <g id="line2d_4">
    <path d="M 190.577884 200.984708 
L 190.577884 83.657989 
" clip-path="url(#p48c16004a0)" style="fill: none; stroke: #4c4c4c; stroke-width: 0.75; stroke-linecap: round"/>
   </g>
   <g id="line2d_5">
    <path d="M 190.577884 157.70393 
L 190.577884 123.733755 
" clip-path="url(#p48c16004a0)" style="fill: none; stroke: #4c4c4c; stroke-width: 2.25; stroke-linecap: round"/>
   </g>
   <g id="line2d_6">
    <path d="M 190.577884 138.433652 
" clip-path="url(#p48c16004a0)" style="fill: none; stroke: #4c4c4c; stroke-width: 1.5; stroke-linecap: round"/>
    <g clip-path="url(#p48c16004a0)">
     <use xlink:href="#m58eb3c41b8" x="190.577884" y="138.433652" style="fill: #ffffff; stroke: #ffffff; stroke-width: 0.45"/>
    </g>
   </g>
   <g id="line2d_7">
    <path d="M 106.032429 52.120205 
L 106.032429 47.685005 
L 190.577884 47.685005 
L 190.577884 52.120205 
" style="fill: none; stroke: #333333; stroke-width: 0.5; stroke-linecap: round"/>
   </g>
   <g id="patch_3">
    <path d="M 64.605156 231.131767 
L 64.605156 9.371767 
" style="fill: none; stroke: #262626; stroke-width: 1.25; stroke-linejoin: miter; stroke-linecap: square"/>
   </g>
   <g id="patch_4">
    <path d="M 64.605156 231.131767 
L 232.005156 231.131767 
" style="fill: none; stroke: #262626; stroke-width: 1.25; stroke-linejoin: miter; stroke-linecap: square"/>
   </g>
   <g id="text_13">
    <!-- * -->
    <g style="fill: #262626" transform="translate(145.969844 44.300005) scale(0.12 -0.12)">
     <defs>
      <path id="ArialMT-2a" d="M 200 3741 
L 344 4184 
Q 841 4009 1066 3881 
Q 1006 4447 1003 4659 
L 1456 4659 
Q 1447 4350 1384 3884 
Q 1706 4047 2122 4184 
L 2266 3741 
Q 1869 3609 1488 3566 
Q 1678 3400 2025 2975 
L 1650 2709 
Q 1469 2956 1222 3381 
Q 991 2941 816 2709 
L 447 2975 
Q 809 3422 966 3566 
Q 563 3644 200 3741 
z
" transform="scale(0.015625)"/>
     </defs>
     <use xlink:href="#ArialMT-2a"/>
    </g>
   </g>
  </g>
 </g>
 <defs>
  <clipPath id="p48c16004a0">
   <rect x="64.605156" y="9.371767" width="167.4" height="221.76"/>
  </clipPath>
 </defs>
</svg>
