<?xml version="1.0" encoding="utf-8" standalone="no"?>
<!DOCTYPE svg PUBLIC "-//W3C//DTD SVG 1.1//EN"
  "http://www.w3.org/Graphics/SVG/1.1/DTD/svg11.dtd">
<svg xmlns:xlink="http://www.w3.org/1999/xlink" width="251.746875pt" height="255.719844pt" viewBox="0 0 251.746875 255.719844" xmlns="http://www.w3.org/2000/svg" version="1.1">
 <metadata>
  <rdf:RDF xmlns:dc="http://purl.org/dc/elements/1.1/" xmlns:cc="http://creativecommons.org/ns#" xmlns:rdf="http://www.w3.org/1999/02/22-rdf-syntax-ns#">
   <cc:Work>
    <dc:type rdf:resource="http://purl.org/dc/dcmitype/StillImage"/>
    <dc:date>2025-08-05T10:48:21.715798</dc:date>
    <dc:format>image/svg+xml</dc:format>
    <dc:creator>
     <cc:Agent>
      <dc:title>Matplotlib v3.9.2, https://matplotlib.org/</dc:title>
     </cc:Agent>
    </dc:creator>
   </cc:Work>
  </rdf:RDF>
 </metadata>
 <defs>
  <style type="text/css">*{stroke-linejoin: round; stroke-linecap: butt}</style>
 </defs>
 <g id="figure_1">
  <g id="patch_1">
   <path d="M -0 255.719844 
L 251.746875 255.719844 
L 251.746875 0 
L -0 0 
z
" style="fill: #ffffff"/>
  </g>
  <g id="axes_1">
   <g id="patch_2">
    <path d="M 77.146875 228.96 
L 244.546875 228.96 
L 244.546875 7.2 
L 77.146875 7.2 
z
" style="fill: #ffffff"/>
   </g>
   <g id="matplotlib.axis_1">
    <g id="xtick_1">
     <g id="text_1">
      <!-- Term -->
      <g style="fill: #262626" transform="translate(106.355554 246.333594) scale(0.11 -0.11)">
       <defs>
        <path id="ArialMT-54" d="M 1659 0 
L 1659 4041 
L 150 4041 
L 150 4581 
L 3781 4581 
L 3781 4041 
L 2266 4041 
L 2266 0 
L 1659 0 
z
" transform="scale(0.015625)"/>
        <path id="ArialMT-65" d="M 2694 1069 
L 3275 997 
Q 3138 488 2766 206 
Q 2394 -75 1816 -75 
Q 1088 -75 661 373 
Q 234 822 234 1631 
Q 234 2469 665 2931 
Q 1097 3394 1784 3394 
Q 2450 3394 2872 2941 
Q 3294 2488 3294 1666 
Q 3294 1616 3291 1516 
L 816 1516 
Q 847 969 1125 678 
Q 1403 388 1819 388 
Q 2128 388 2347 550 
Q 2566 713 2694 1069 
z
M 847 1978 
L 2700 1978 
Q 2663 2397 2488 2606 
Q 2219 2931 1791 2931 
Q 1403 2931 1139 2672 
Q 875 2413 847 1978 
z
" transform="scale(0.015625)"/>
        <path id="ArialMT-72" d="M 416 0 
L 416 3319 
L 922 3319 
L 922 2816 
Q 1116 3169 1280 3281 
Q 1444 3394 1641 3394 
Q 1925 3394 2219 3213 
L 2025 2691 
Q 1819 2813 1613 2813 
Q 1428 2813 1281 2702 
Q 1134 2591 1072 2394 
Q 978 2094 978 1738 
L 978 0 
L 416 0 
z
" transform="scale(0.015625)"/>
        <path id="ArialMT-6d" d="M 422 0 
L 422 3319 
L 925 3319 
L 925 2853 
Q 1081 3097 1340 3245 
Q 1600 3394 1931 3394 
Q 2300 3394 2536 3241 
Q 2772 3088 2869 2813 
Q 3263 3394 3894 3394 
Q 4388 3394 4653 3120 
Q 4919 2847 4919 2278 
L 4919 0 
L 4359 0 
L 4359 2091 
Q 4359 2428 4304 2576 
Q 4250 2725 4106 2815 
Q 3963 2906 3769 2906 
Q 3419 2906 3187 2673 
Q 2956 2441 2956 1928 
L 2956 0 
L 2394 0 
L 2394 2156 
Q 2394 2531 2256 2718 
Q 2119 2906 1806 2906 
Q 1569 2906 1367 2781 
Q 1166 2656 1075 2415 
Q 984 2175 984 1722 
L 984 0 
L 422 0 
z
" transform="scale(0.015625)"/>
       </defs>
       <use xlink:href="#ArialMT-54"/>
       <use xlink:href="#ArialMT-65" x="49.958984"/>
       <use xlink:href="#ArialMT-72" x="105.574219"/>
       <use xlink:href="#ArialMT-6d" x="138.875"/>
      </g>
     </g>
    </g>
    <g id="xtick_2">
     <g id="text_2">
      <!-- Preterm -->
      <g style="fill: #262626" transform="translate(183.561946 246.333594) scale(0.11 -0.11)">
       <defs>
        <path id="ArialMT-50" d="M 494 0 
L 494 4581 
L 2222 4581 
Q 2678 4581 2919 4538 
Q 3256 4481 3484 4323 
Q 3713 4166 3852 3881 
Q 3991 3597 3991 3256 
Q 3991 2672 3619 2267 
Q 3247 1863 2275 1863 
L 1100 1863 
L 1100 0 
L 494 0 
z
M 1100 2403 
L 2284 2403 
Q 2872 2403 3119 2622 
Q 3366 2841 3366 3238 
Q 3366 3525 3220 3729 
Q 3075 3934 2838 4000 
Q 2684 4041 2272 4041 
L 1100 4041 
L 1100 2403 
z
" transform="scale(0.015625)"/>
        <path id="ArialMT-74" d="M 1650 503 
L 1731 6 
Q 1494 -44 1306 -44 
Q 1000 -44 831 53 
Q 663 150 594 308 
Q 525 466 525 972 
L 525 2881 
L 113 2881 
L 113 3319 
L 525 3319 
L 525 4141 
L 1084 4478 
L 1084 3319 
L 1650 3319 
L 1650 2881 
L 1084 2881 
L 1084 941 
Q 1084 700 1114 631 
Q 1144 563 1211 522 
Q 1278 481 1403 481 
Q 1497 481 1650 503 
z
" transform="scale(0.015625)"/>
       </defs>
       <use xlink:href="#ArialMT-50"/>
       <use xlink:href="#ArialMT-72" x="66.699219"/>
       <use xlink:href="#ArialMT-65" x="100"/>
       <use xlink:href="#ArialMT-74" x="155.615234"/>
       <use xlink:href="#ArialMT-65" x="183.398438"/>
       <use xlink:href="#ArialMT-72" x="239.013672"/>
       <use xlink:href="#ArialMT-6d" x="272.314453"/>
      </g>
     </g>
    </g>
   </g>
   <g id="matplotlib.axis_2">
    <g id="ytick_1">
     <g id="text_3">
      <!-- −200000 -->
      <g style="fill: #262626" transform="translate(24.52 231.775548) scale(0.11 -0.11)">
       <defs>
        <path id="ArialMT-2212" d="M 3381 1997 
L 356 1997 
L 356 2522 
L 3381 2522 
L 3381 1997 
z
" transform="scale(0.015625)"/>
        <path id="ArialMT-32" d="M 3222 541 
L 3222 0 
L 194 0 
Q 188 203 259 391 
Q 375 700 629 1000 
Q 884 1300 1366 1694 
Q 2113 2306 2375 2664 
Q 2638 3022 2638 3341 
Q 2638 3675 2398 3904 
Q 2159 4134 1775 4134 
Q 1369 4134 1125 3890 
Q 881 3647 878 3216 
L 300 3275 
Q 359 3922 746 4261 
Q 1134 4600 1788 4600 
Q 2447 4600 2831 4234 
Q 3216 3869 3216 3328 
Q 3216 3053 3103 2787 
Q 2991 2522 2730 2228 
Q 2469 1934 1863 1422 
Q 1356 997 1212 845 
Q 1069 694 975 541 
L 3222 541 
z
" transform="scale(0.015625)"/>
        <path id="ArialMT-30" d="M 266 2259 
Q 266 3072 433 3567 
Q 600 4063 929 4331 
Q 1259 4600 1759 4600 
Q 2128 4600 2406 4451 
Q 2684 4303 2865 4023 
Q 3047 3744 3150 3342 
Q 3253 2941 3253 2259 
Q 3253 1453 3087 958 
Q 2922 463 2592 192 
Q 2263 -78 1759 -78 
Q 1097 -78 719 397 
Q 266 969 266 2259 
z
M 844 2259 
Q 844 1131 1108 757 
Q 1372 384 1759 384 
Q 2147 384 2411 759 
Q 2675 1134 2675 2259 
Q 2675 3391 2411 3762 
Q 2147 4134 1753 4134 
Q 1366 4134 1134 3806 
Q 844 3388 844 2259 
z
" transform="scale(0.015625)"/>
       </defs>
       <use xlink:href="#ArialMT-2212"/>
       <use xlink:href="#ArialMT-32" x="58.398438"/>
       <use xlink:href="#ArialMT-30" x="114.013672"/>
       <use xlink:href="#ArialMT-30" x="169.628906"/>
       <use xlink:href="#ArialMT-30" x="225.244141"/>
       <use xlink:href="#ArialMT-30" x="280.859375"/>
       <use xlink:href="#ArialMT-30" x="336.474609"/>
      </g>
     </g>
    </g>
    <g id="ytick_2">
     <g id="text_4">
      <!-- −100000 -->
      <g style="fill: #262626" transform="translate(24.52 190.701056) scale(0.11 -0.11)">
       <defs>
        <path id="ArialMT-31" d="M 2384 0 
L 1822 0 
L 1822 3584 
Q 1619 3391 1289 3197 
Q 959 3003 697 2906 
L 697 3450 
Q 1169 3672 1522 3987 
Q 1875 4303 2022 4600 
L 2384 4600 
L 2384 0 
z
" transform="scale(0.015625)"/>
       </defs>
       <use xlink:href="#ArialMT-2212"/>
       <use xlink:href="#ArialMT-31" x="58.398438"/>
       <use xlink:href="#ArialMT-30" x="114.013672"/>
       <use xlink:href="#ArialMT-30" x="169.628906"/>
       <use xlink:href="#ArialMT-30" x="225.244141"/>
       <use xlink:href="#ArialMT-30" x="280.859375"/>
       <use xlink:href="#ArialMT-30" x="336.474609"/>
      </g>
     </g>
    </g>
    <g id="ytick_3">
     <g id="text_5">
      <!-- 0 -->
      <g style="fill: #262626" transform="translate(61.529844 149.626564) scale(0.11 -0.11)">
       <use xlink:href="#ArialMT-30"/>
      </g>
     </g>
    </g>
    <g id="ytick_4">
     <g id="text_6">
      <!-- 100000 -->
      <g style="fill: #262626" transform="translate(30.944688 108.552071) scale(0.11 -0.11)">
       <use xlink:href="#ArialMT-31"/>
       <use xlink:href="#ArialMT-30" x="55.615234"/>
       <use xlink:href="#ArialMT-30" x="111.230469"/>
       <use xlink:href="#ArialMT-30" x="166.845703"/>
       <use xlink:href="#ArialMT-30" x="222.460938"/>
       <use xlink:href="#ArialMT-30" x="278.076172"/>
      </g>
     </g>
    </g>
    <g id="ytick_5">
     <g id="text_7">
      <!-- 200000 -->
      <g style="fill: #262626" transform="translate(30.944688 67.477579) scale(0.11 -0.11)">
       <use xlink:href="#ArialMT-32"/>
       <use xlink:href="#ArialMT-30" x="55.615234"/>
       <use xlink:href="#ArialMT-30" x="111.230469"/>
       <use xlink:href="#ArialMT-30" x="166.845703"/>
       <use xlink:href="#ArialMT-30" x="222.460938"/>
       <use xlink:href="#ArialMT-30" x="278.076172"/>
      </g>
     </g>
    </g>
    <g id="ytick_6">
     <g id="text_8">
      <!-- 300000 -->
      <g style="fill: #262626" transform="translate(30.944688 26.403087) scale(0.11 -0.11)">
       <defs>
        <path id="ArialMT-33" d="M 269 1209 
L 831 1284 
Q 928 806 1161 595 
Q 1394 384 1728 384 
Q 2125 384 2398 659 
Q 2672 934 2672 1341 
Q 2672 1728 2419 1979 
Q 2166 2231 1775 2231 
Q 1616 2231 1378 2169 
L 1441 2663 
Q 1497 2656 1531 2656 
Q 1891 2656 2178 2843 
Q 2466 3031 2466 3422 
Q 2466 3731 2256 3934 
Q 2047 4138 1716 4138 
Q 1388 4138 1169 3931 
Q 950 3725 888 3313 
L 325 3413 
Q 428 3978 793 4289 
Q 1159 4600 1703 4600 
Q 2078 4600 2393 4439 
Q 2709 4278 2876 4000 
Q 3044 3722 3044 3409 
Q 3044 3113 2884 2869 
Q 2725 2625 2413 2481 
Q 2819 2388 3044 2092 
Q 3269 1797 3269 1353 
Q 3269 753 2831 336 
Q 2394 -81 1725 -81 
Q 1122 -81 723 278 
Q 325 638 269 1209 
z
" transform="scale(0.015625)"/>
       </defs>
       <use xlink:href="#ArialMT-33"/>
       <use xlink:href="#ArialMT-30" x="55.615234"/>
       <use xlink:href="#ArialMT-30" x="111.230469"/>
       <use xlink:href="#ArialMT-30" x="166.845703"/>
       <use xlink:href="#ArialMT-30" x="222.460938"/>
       <use xlink:href="#ArialMT-30" x="278.076172"/>
      </g>
     </g>
    </g>
    <g id="text_9">
     <!-- WMV residuals [mm$^3$] -->
     <g style="fill: #262626" transform="translate(18.12 176.34) rotate(-90) scale(0.12 -0.12)">
      <defs>
       <path id="ArialMT-57" d="M 1294 0 
L 78 4581 
L 700 4581 
L 1397 1578 
Q 1509 1106 1591 641 
Q 1766 1375 1797 1488 
L 2669 4581 
L 3400 4581 
L 4056 2263 
Q 4303 1400 4413 641 
Q 4500 1075 4641 1638 
L 5359 4581 
L 5969 4581 
L 4713 0 
L 4128 0 
L 3163 3491 
Q 3041 3928 3019 4028 
Q 2947 3713 2884 3491 
L 1913 0 
L 1294 0 
z
" transform="scale(0.015625)"/>
       <path id="ArialMT-4d" d="M 475 0 
L 475 4581 
L 1388 4581 
L 2472 1338 
Q 2622 884 2691 659 
Q 2769 909 2934 1394 
L 4031 4581 
L 4847 4581 
L 4847 0 
L 4263 0 
L 4263 3834 
L 2931 0 
L 2384 0 
L 1059 3900 
L 1059 0 
L 475 0 
z
" transform="scale(0.015625)"/>
       <path id="ArialMT-56" d="M 1803 0 
L 28 4581 
L 684 4581 
L 1875 1253 
Q 2019 853 2116 503 
Q 2222 878 2363 1253 
L 3600 4581 
L 4219 4581 
L 2425 0 
L 1803 0 
z
" transform="scale(0.015625)"/>
       <path id="ArialMT-20" transform="scale(0.015625)"/>
       <path id="ArialMT-73" d="M 197 991 
L 753 1078 
Q 800 744 1014 566 
Q 1228 388 1613 388 
Q 2000 388 2187 545 
Q 2375 703 2375 916 
Q 2375 1106 2209 1216 
Q 2094 1291 1634 1406 
Q 1016 1563 777 1677 
Q 538 1791 414 1992 
Q 291 2194 291 2438 
Q 291 2659 392 2848 
Q 494 3038 669 3163 
Q 800 3259 1026 3326 
Q 1253 3394 1513 3394 
Q 1903 3394 2198 3281 
Q 2494 3169 2634 2976 
Q 2775 2784 2828 2463 
L 2278 2388 
Q 2241 2644 2061 2787 
Q 1881 2931 1553 2931 
Q 1166 2931 1000 2803 
Q 834 2675 834 2503 
Q 834 2394 903 2306 
Q 972 2216 1119 2156 
Q 1203 2125 1616 2013 
Q 2213 1853 2448 1751 
Q 2684 1650 2818 1456 
Q 2953 1263 2953 975 
Q 2953 694 2789 445 
Q 2625 197 2315 61 
Q 2006 -75 1616 -75 
Q 969 -75 630 194 
Q 291 463 197 991 
z
" transform="scale(0.015625)"/>
       <path id="ArialMT-69" d="M 425 3934 
L 425 4581 
L 988 4581 
L 988 3934 
L 425 3934 
z
M 425 0 
L 425 3319 
L 988 3319 
L 988 0 
L 425 0 
z
" transform="scale(0.015625)"/>
       <path id="ArialMT-64" d="M 2575 0 
L 2575 419 
Q 2259 -75 1647 -75 
Q 1250 -75 917 144 
Q 584 363 401 755 
Q 219 1147 219 1656 
Q 219 2153 384 2558 
Q 550 2963 881 3178 
Q 1213 3394 1622 3394 
Q 1922 3394 2156 3267 
Q 2391 3141 2538 2938 
L 2538 4581 
L 3097 4581 
L 3097 0 
L 2575 0 
z
M 797 1656 
Q 797 1019 1065 703 
Q 1334 388 1700 388 
Q 2069 388 2326 689 
Q 2584 991 2584 1609 
Q 2584 2291 2321 2609 
Q 2059 2928 1675 2928 
Q 1300 2928 1048 2622 
Q 797 2316 797 1656 
z
" transform="scale(0.015625)"/>
       <path id="ArialMT-75" d="M 2597 0 
L 2597 488 
Q 2209 -75 1544 -75 
Q 1250 -75 995 37 
Q 741 150 617 320 
Q 494 491 444 738 
Q 409 903 409 1263 
L 409 3319 
L 972 3319 
L 972 1478 
Q 972 1038 1006 884 
Q 1059 663 1231 536 
Q 1403 409 1656 409 
Q 1909 409 2131 539 
Q 2353 669 2445 892 
Q 2538 1116 2538 1541 
L 2538 3319 
L 3100 3319 
L 3100 0 
L 2597 0 
z
" transform="scale(0.015625)"/>
       <path id="ArialMT-61" d="M 2588 409 
Q 2275 144 1986 34 
Q 1697 -75 1366 -75 
Q 819 -75 525 192 
Q 231 459 231 875 
Q 231 1119 342 1320 
Q 453 1522 633 1644 
Q 813 1766 1038 1828 
Q 1203 1872 1538 1913 
Q 2219 1994 2541 2106 
Q 2544 2222 2544 2253 
Q 2544 2597 2384 2738 
Q 2169 2928 1744 2928 
Q 1347 2928 1158 2789 
Q 969 2650 878 2297 
L 328 2372 
Q 403 2725 575 2942 
Q 747 3159 1072 3276 
Q 1397 3394 1825 3394 
Q 2250 3394 2515 3294 
Q 2781 3194 2906 3042 
Q 3031 2891 3081 2659 
Q 3109 2516 3109 2141 
L 3109 1391 
Q 3109 606 3145 398 
Q 3181 191 3288 0 
L 2700 0 
Q 2613 175 2588 409 
z
M 2541 1666 
Q 2234 1541 1622 1453 
Q 1275 1403 1131 1340 
Q 988 1278 909 1158 
Q 831 1038 831 891 
Q 831 666 1001 516 
Q 1172 366 1500 366 
Q 1825 366 2078 508 
Q 2331 650 2450 897 
Q 2541 1088 2541 1459 
L 2541 1666 
z
" transform="scale(0.015625)"/>
       <path id="ArialMT-6c" d="M 409 0 
L 409 4581 
L 972 4581 
L 972 0 
L 409 0 
z
" transform="scale(0.015625)"/>
       <path id="ArialMT-5b" d="M 434 -1272 
L 434 4581 
L 1675 4581 
L 1675 4116 
L 997 4116 
L 997 -806 
L 1675 -806 
L 1675 -1272 
L 434 -1272 
z
" transform="scale(0.015625)"/>
       <path id="DejaVuSans-33" d="M 2597 2516 
Q 3050 2419 3304 2112 
Q 3559 1806 3559 1356 
Q 3559 666 3084 287 
Q 2609 -91 1734 -91 
Q 1441 -91 1130 -33 
Q 819 25 488 141 
L 488 750 
Q 750 597 1062 519 
Q 1375 441 1716 441 
Q 2309 441 2620 675 
Q 2931 909 2931 1356 
Q 2931 1769 2642 2001 
Q 2353 2234 1838 2234 
L 1294 2234 
L 1294 2753 
L 1863 2753 
Q 2328 2753 2575 2939 
Q 2822 3125 2822 3475 
Q 2822 3834 2567 4026 
Q 2313 4219 1838 4219 
Q 1578 4219 1281 4162 
Q 984 4106 628 3988 
L 628 4550 
Q 988 4650 1302 4700 
Q 1616 4750 1894 4750 
Q 2613 4750 3031 4423 
Q 3450 4097 3450 3541 
Q 3450 3153 3228 2886 
Q 3006 2619 2597 2516 
z
" transform="scale(0.015625)"/>
       <path id="ArialMT-5d" d="M 1363 -1272 
L 122 -1272 
L 122 -806 
L 800 -806 
L 800 4116 
L 122 4116 
L 122 4581 
L 1363 4581 
L 1363 -1272 
z
" transform="scale(0.015625)"/>
      </defs>
      <use xlink:href="#ArialMT-57" transform="translate(0 0.765625)"/>
      <use xlink:href="#ArialMT-4d" transform="translate(94.384766 0.765625)"/>
      <use xlink:href="#ArialMT-56" transform="translate(177.685547 0.765625)"/>
      <use xlink:href="#ArialMT-20" transform="translate(244.384766 0.765625)"/>
      <use xlink:href="#ArialMT-72" transform="translate(272.167969 0.765625)"/>
      <use xlink:href="#ArialMT-65" transform="translate(305.46875 0.765625)"/>
      <use xlink:href="#ArialMT-73" transform="translate(361.083984 0.765625)"/>
      <use xlink:href="#ArialMT-69" transform="translate(411.083984 0.765625)"/>
      <use xlink:href="#ArialMT-64" transform="translate(433.300781 0.765625)"/>
      <use xlink:href="#ArialMT-75" transform="translate(488.916016 0.765625)"/>
      <use xlink:href="#ArialMT-61" transform="translate(544.53125 0.765625)"/>
      <use xlink:href="#ArialMT-6c" transform="translate(600.146484 0.765625)"/>
      <use xlink:href="#ArialMT-73" transform="translate(622.363281 0.765625)"/>
      <use xlink:href="#ArialMT-20" transform="translate(672.363281 0.765625)"/>
      <use xlink:href="#ArialMT-5b" transform="translate(700.146484 0.765625)"/>
      <use xlink:href="#ArialMT-6d" transform="translate(727.929688 0.765625)"/>
      <use xlink:href="#ArialMT-6d" transform="translate(811.230469 0.765625)"/>
      <use xlink:href="#DejaVuSans-33" transform="translate(895.488281 39.046875) scale(0.7)"/>
      <use xlink:href="#ArialMT-5d" transform="translate(942.758789 0.765625)"/>
     </g>
    </g>
   </g>
   <g id="PolyCollection_1">
    <defs>
     <path id="m7bbc0ff459" d="M 118.578446 -36.839844 
L 118.56985 -36.839844 
L 118.561843 -38.876207 
L 118.550238 -40.912571 
L 118.542517 -42.948935 
L 118.544993 -44.985298 
L 118.552082 -47.021662 
L 118.548913 -49.058026 
L 118.521625 -51.094389 
L 118.463487 -53.130753 
L 118.378497 -55.167116 
L 118.274958 -57.20348 
L 118.142324 -59.239844 
L 117.938526 -61.276207 
L 117.611292 -63.312571 
L 117.152188 -65.348935 
L 116.629642 -67.385298 
L 116.095432 -69.421662 
L 115.461977 -71.458026 
L 114.568136 -73.494389 
L 113.352816 -75.530753 
L 111.900661 -77.567116 
L 110.315528 -79.60348 
L 108.582833 -81.639844 
L 106.5922 -83.676207 
L 104.288513 -85.712571 
L 101.800492 -87.748935 
L 99.399245 -89.785298 
L 97.239758 -91.821662 
L 95.20142 -93.858026 
L 93.115428 -95.894389 
L 91.046451 -97.930753 
L 89.170074 -99.967116 
L 87.513525 -102.00348 
L 86.069124 -104.039844 
L 85.047802 -106.076207 
L 84.755966 -108.112571 
L 85.236829 -110.148935 
L 86.243601 -112.185298 
L 87.569767 -114.221662 
L 89.189505 -116.258026 
L 91.068085 -118.294389 
L 93.025627 -120.330753 
L 94.867275 -122.367116 
L 96.611349 -124.40348 
L 98.453686 -126.439844 
L 100.468242 -128.476207 
L 102.547225 -130.512571 
L 104.601496 -132.548935 
L 106.567814 -134.585298 
L 108.31438 -136.621662 
L 109.738675 -138.658026 
L 110.88594 -140.694389 
L 111.903184 -142.730753 
L 112.898536 -144.767116 
L 113.847898 -146.80348 
L 114.67654 -148.839844 
L 115.378326 -150.876207 
L 115.971557 -152.912571 
L 116.447379 -154.948935 
L 116.820673 -156.985298 
L 117.123215 -159.021662 
L 117.358279 -161.058026 
L 117.537377 -163.094389 
L 117.703665 -165.130753 
L 117.878843 -167.167116 
L 118.042662 -169.20348 
L 118.175137 -171.239844 
L 118.279838 -173.276207 
L 118.365058 -175.312571 
L 118.422307 -177.348935 
L 118.436887 -179.385298 
L 118.4222 -181.421662 
L 118.419653 -183.458026 
L 118.450813 -185.494389 
L 118.49457 -187.530753 
L 118.522898 -189.567116 
L 118.534615 -191.60348 
L 118.544113 -193.639844 
L 118.556562 -195.676207 
L 118.566927 -197.712571 
L 118.57212 -199.748935 
L 118.573761 -201.785298 
L 118.574098 -203.821662 
L 118.574143 -205.858026 
L 118.574147 -207.894389 
L 118.574148 -209.930753 
L 118.574148 -211.967116 
L 118.574148 -214.00348 
L 118.574147 -216.039844 
L 118.574144 -218.076207 
L 118.5741 -220.112571 
L 118.573776 -222.148935 
L 118.572187 -224.185298 
L 118.567125 -226.221662 
L 118.557079 -228.258026 
L 118.546003 -230.294389 
L 118.542663 -232.330753 
L 118.550253 -234.367116 
L 118.561844 -236.40348 
L 118.56985 -238.439844 
L 118.578446 -238.439844 
L 118.578446 -238.439844 
L 118.586451 -236.40348 
L 118.598043 -234.367116 
L 118.605632 -232.330753 
L 118.602292 -230.294389 
L 118.591216 -228.258026 
L 118.581171 -226.221662 
L 118.576108 -224.185298 
L 118.574519 -222.148935 
L 118.574195 -220.112571 
L 118.574152 -218.076207 
L 118.574148 -216.039844 
L 118.574148 -214.00348 
L 118.574148 -211.967116 
L 118.574148 -209.930753 
L 118.574148 -207.894389 
L 118.574152 -205.858026 
L 118.574198 -203.821662 
L 118.574535 -201.785298 
L 118.576175 -199.748935 
L 118.581368 -197.712571 
L 118.591734 -195.676207 
L 118.604182 -193.639844 
L 118.61368 -191.60348 
L 118.625397 -189.567116 
L 118.653726 -187.530753 
L 118.697483 -185.494389 
L 118.728643 -183.458026 
L 118.726095 -181.421662 
L 118.711409 -179.385298 
L 118.725989 -177.348935 
L 118.783238 -175.312571 
L 118.868457 -173.276207 
L 118.973158 -171.239844 
L 119.105634 -169.20348 
L 119.269452 -167.167116 
L 119.444631 -165.130753 
L 119.610919 -163.094389 
L 119.790017 -161.058026 
L 120.02508 -159.021662 
L 120.327623 -156.985298 
L 120.700917 -154.948935 
L 121.176739 -152.912571 
L 121.76997 -150.876207 
L 122.471756 -148.839844 
L 123.300397 -146.80348 
L 124.249759 -144.767116 
L 125.245112 -142.730753 
L 126.262355 -140.694389 
L 127.40962 -138.658026 
L 128.833915 -136.621662 
L 130.580482 -134.585298 
L 132.546799 -132.548935 
L 134.60107 -130.512571 
L 136.680053 -128.476207 
L 138.694609 -126.439844 
L 140.536947 -124.40348 
L 142.28102 -122.367116 
L 144.122669 -120.330753 
L 146.080211 -118.294389 
L 147.958791 -116.258026 
L 149.578529 -114.221662 
L 150.904695 -112.185298 
L 151.911467 -110.148935 
L 152.39233 -108.112571 
L 152.100493 -106.076207 
L 151.079172 -104.039844 
L 149.63477 -102.00348 
L 147.978222 -99.967116 
L 146.101845 -97.930753 
L 144.032867 -95.894389 
L 141.946875 -93.858026 
L 139.908538 -91.821662 
L 137.74905 -89.785298 
L 135.347803 -87.748935 
L 132.859782 -85.712571 
L 130.556095 -83.676207 
L 128.565462 -81.639844 
L 126.832767 -79.60348 
L 125.247635 -77.567116 
L 123.79548 -75.530753 
L 122.580159 -73.494389 
L 121.686318 -71.458026 
L 121.052863 -69.421662 
L 120.518653 -67.385298 
L 119.996107 -65.348935 
L 119.537003 -63.312571 
L 119.20977 -61.276207 
L 119.005971 -59.239844 
L 118.873338 -57.20348 
L 118.769799 -55.167116 
L 118.684808 -53.130753 
L 118.626671 -51.094389 
L 118.599383 -49.058026 
L 118.596213 -47.021662 
L 118.603302 -44.985298 
L 118.605778 -42.948935 
L 118.598058 -40.912571 
L 118.586452 -38.876207 
L 118.578446 -36.839844 
z
" style="stroke: #4c4c4c; stroke-width: 0.5"/>
    </defs>
    <g clip-path="url(#p64218064bb)">
     <use xlink:href="#m7bbc0ff459" x="0" y="255.719844" style="fill: #5573cd; stroke: #4c4c4c; stroke-width: 0.5"/>
    </g>
   </g>
   <g id="PolyCollection_2">
    <defs>
     <path id="m88dbb3fe3e" d="M 203.249125 -45.553357 
L 202.990079 -45.553357 
L 202.927291 -46.941465 
L 202.844103 -48.329574 
L 202.738366 -49.717682 
L 202.609228 -51.105791 
L 202.457261 -52.4939 
L 202.284174 -53.882008 
L 202.092017 -55.270117 
L 201.881984 -56.658225 
L 201.653017 -58.046334 
L 201.400559 -59.434442 
L 201.115803 -60.822551 
L 200.785706 -62.21066 
L 200.393835 -63.598768 
L 199.921967 -64.986877 
L 199.352142 -66.374985 
L 198.668865 -67.763094 
L 197.861108 -69.151202 
L 196.923865 -70.539311 
L 195.859089 -71.92742 
L 194.675905 -73.315528 
L 193.390098 -74.703637 
L 192.022933 -76.091745 
L 190.599479 -77.479854 
L 189.146683 -78.867962 
L 187.691427 -80.256071 
L 186.258806 -81.64418 
L 184.870678 -83.032288 
L 183.54449 -84.420397 
L 182.292317 -85.808505 
L 181.12013 -87.196614 
L 180.027423 -88.584722 
L 179.007428 -89.972831 
L 178.048112 -91.360939 
L 177.134013 -92.749048 
L 176.248736 -94.137157 
L 175.377751 -95.525265 
L 174.51111 -96.913374 
L 173.645778 -98.301482 
L 172.787431 -99.689591 
L 171.951638 -101.077699 
L 171.164303 -102.465808 
L 170.461035 -103.853917 
L 169.885073 -105.242025 
L 169.483434 -106.630134 
L 169.30142 -108.018242 
L 169.376133 -109.406351 
L 169.730253 -110.794459 
L 170.367539 -112.182568 
L 171.271254 -113.570677 
L 172.406087 -114.958785 
L 173.723183 -116.346894 
L 175.16712 -117.735002 
L 176.683183 -119.123111 
L 178.223359 -120.511219 
L 179.749926 -121.899328 
L 181.236281 -123.287437 
L 182.665371 -124.675545 
L 184.026652 -126.063654 
L 185.312739 -127.451762 
L 186.516832 -128.839871 
L 187.63161 -130.227979 
L 188.649827 -131.616088 
L 189.566285 -133.004197 
L 190.380439 -134.392305 
L 191.098681 -135.780414 
L 191.735385 -137.168522 
L 192.312132 -138.556631 
L 192.855048 -139.944739 
L 193.390763 -141.332848 
L 193.941957 -142.720956 
L 194.523649 -144.109065 
L 195.141167 -145.497174 
L 195.790266 -146.885282 
L 196.459199 -148.273391 
L 197.13201 -149.661499 
L 197.792023 -151.049608 
L 198.424597 -152.437716 
L 199.018622 -153.825825 
L 199.566706 -155.213934 
L 200.064477 -156.602042 
L 200.509612 -157.990151 
L 200.901104 -159.378259 
L 201.239078 -160.766368 
L 201.525051 -162.154476 
L 201.762367 -163.542585 
L 201.956425 -164.930694 
L 202.114436 -166.318802 
L 202.244675 -167.706911 
L 202.355383 -169.095019 
L 202.453644 -170.483128 
L 202.544546 -171.871236 
L 202.63083 -173.259345 
L 202.713077 -174.647454 
L 202.790305 -176.035562 
L 202.860768 -177.423671 
L 202.922715 -178.811779 
L 202.974948 -180.199888 
L 203.017092 -181.587996 
L 203.0496 -182.976105 
L 203.189604 -182.976105 
L 203.189604 -182.976105 
L 203.222113 -181.587996 
L 203.264257 -180.199888 
L 203.316489 -178.811779 
L 203.378436 -177.423671 
L 203.448899 -176.035562 
L 203.526128 -174.647454 
L 203.608375 -173.259345 
L 203.694659 -171.871236 
L 203.78556 -170.483128 
L 203.883822 -169.095019 
L 203.994529 -167.706911 
L 204.124768 -166.318802 
L 204.28278 -164.930694 
L 204.476837 -163.542585 
L 204.714154 -162.154476 
L 205.000126 -160.766368 
L 205.3381 -159.378259 
L 205.729593 -157.990151 
L 206.174727 -156.602042 
L 206.672499 -155.213934 
L 207.220582 -153.825825 
L 207.814607 -152.437716 
L 208.447182 -151.049608 
L 209.107194 -149.661499 
L 209.780006 -148.273391 
L 210.448939 -146.885282 
L 211.098037 -145.497174 
L 211.715555 -144.109065 
L 212.297247 -142.720956 
L 212.848441 -141.332848 
L 213.384156 -139.944739 
L 213.927073 -138.556631 
L 214.50382 -137.168522 
L 215.140523 -135.780414 
L 215.858765 -134.392305 
L 216.67292 -133.004197 
L 217.589378 -131.616088 
L 218.607594 -130.227979 
L 219.722372 -128.839871 
L 220.926465 -127.451762 
L 222.212553 -126.063654 
L 223.573833 -124.675545 
L 225.002923 -123.287437 
L 226.489278 -121.899328 
L 228.015845 -120.511219 
L 229.556021 -119.123111 
L 231.072085 -117.735002 
L 232.516022 -116.346894 
L 233.833118 -114.958785 
L 234.967951 -113.570677 
L 235.871666 -112.182568 
L 236.508951 -110.794459 
L 236.863072 -109.406351 
L 236.937784 -108.018242 
L 236.75577 -106.630134 
L 236.354132 -105.242025 
L 235.778169 -103.853917 
L 235.074902 -102.465808 
L 234.287566 -101.077699 
L 233.451774 -99.689591 
L 232.593426 -98.301482 
L 231.728095 -96.913374 
L 230.861454 -95.525265 
L 229.990468 -94.137157 
L 229.105191 -92.749048 
L 228.191093 -91.360939 
L 227.231777 -89.972831 
L 226.211781 -88.584722 
L 225.119075 -87.196614 
L 223.946888 -85.808505 
L 222.694714 -84.420397 
L 221.368526 -83.032288 
L 219.980398 -81.64418 
L 218.547777 -80.256071 
L 217.092522 -78.867962 
L 215.639725 -77.479854 
L 214.216272 -76.091745 
L 212.849107 -74.703637 
L 211.5633 -73.315528 
L 210.380116 -71.92742 
L 209.31534 -70.539311 
L 208.378097 -69.151202 
L 207.570339 -67.763094 
L 206.887063 -66.374985 
L 206.317238 -64.986877 
L 205.84537 -63.598768 
L 205.453499 -62.21066 
L 205.123401 -60.822551 
L 204.838646 -59.434442 
L 204.586187 -58.046334 
L 204.35722 -56.658225 
L 204.147188 -55.270117 
L 203.955031 -53.882008 
L 203.781943 -52.4939 
L 203.629977 -51.105791 
L 203.500838 -49.717682 
L 203.395101 -48.329574 
L 203.311913 -46.941465 
L 203.249125 -45.553357 
z
" style="stroke: #4c4c4c; stroke-width: 0.5"/>
    </defs>
    <g clip-path="url(#p64218064bb)">
     <use xlink:href="#m88dbb3fe3e" x="0" y="255.719844" style="fill: #df8920; stroke: #4c4c4c; stroke-width: 0.5"/>
    </g>
   </g>
   <g id="line2d_1">
    <path d="M 118.574148 194.354579 
L 118.574148 97.945066 
" clip-path="url(#p64218064bb)" style="fill: none; stroke: #4c4c4c; stroke-width: 0.75; stroke-linecap: round"/>
   </g>
   <g id="line2d_2">
    <path d="M 118.574148 158.161296 
L 118.574148 133.99498 
" clip-path="url(#p64218064bb)" style="fill: none; stroke: #4c4c4c; stroke-width: 2.25; stroke-linecap: round"/>
   </g>
   <g id="line2d_3">
    <path d="M 118.574148 146.547416 
" clip-path="url(#p64218064bb)" style="fill: none; stroke: #4c4c4c; stroke-width: 1.5; stroke-linecap: round"/>
    <defs>
     <path id="m9f2a2fafcd" d="M 0.9375 0 
L -0.9375 -0 
" style="stroke: #ffffff; stroke-width: 0.45"/>
    </defs>
    <g clip-path="url(#p64218064bb)">
     <use xlink:href="#m9f2a2fafcd" x="118.574148" y="146.547416" style="fill: #ffffff; stroke: #ffffff; stroke-width: 0.45"/>
    </g>
   </g>
   <g id="line2d_4">
    <path d="M 203.119602 196.151039 
L 203.119602 98.862975 
" clip-path="url(#p64218064bb)" style="fill: none; stroke: #4c4c4c; stroke-width: 0.75; stroke-linecap: round"/>
   </g>
   <g id="line2d_5">
    <path d="M 203.119602 162.734121 
L 203.119602 135.508619 
" clip-path="url(#p64218064bb)" style="fill: none; stroke: #4c4c4c; stroke-width: 2.25; stroke-linecap: round"/>
   </g>
   <g id="line2d_6">
    <path d="M 203.119602 147.603157 
" clip-path="url(#p64218064bb)" style="fill: none; stroke: #4c4c4c; stroke-width: 1.5; stroke-linecap: round"/>
    <g clip-path="url(#p64218064bb)">
     <use xlink:href="#m9f2a2fafcd" x="203.119602" y="147.603157" style="fill: #ffffff; stroke: #ffffff; stroke-width: 0.45"/>
    </g>
   </g>
   <g id="line2d_7">
    <path d="M 118.574148 84.639466 
L 118.574148 80.204266 
L 203.119602 80.204266 
L 203.119602 84.639466 
" style="fill: none; stroke: #333333; stroke-width: 0.5; stroke-linecap: round"/>
   </g>
   <g id="patch_3">
    <path d="M 77.146875 228.96 
L 77.146875 7.2 
" style="fill: none; stroke: #262626; stroke-width: 1.25; stroke-linejoin: miter; stroke-linecap: square"/>
   </g>
   <g id="patch_4">
    <path d="M 77.146875 228.96 
L 244.546875 228.96 
" style="fill: none; stroke: #262626; stroke-width: 1.25; stroke-linejoin: miter; stroke-linecap: square"/>
   </g>
   <g id="text_10">
    <!-- ns -->
    <g style="fill: #262626" transform="translate(154.510313 76.819266) scale(0.12 -0.12)">
     <defs>
      <path id="ArialMT-6e" d="M 422 0 
L 422 3319 
L 928 3319 
L 928 2847 
Q 1294 3394 1984 3394 
Q 2284 3394 2536 3286 
Q 2788 3178 2913 3003 
Q 3038 2828 3088 2588 
Q 3119 2431 3119 2041 
L 3119 0 
L 2556 0 
L 2556 2019 
Q 2556 2363 2490 2533 
Q 2425 2703 2258 2804 
Q 2091 2906 1866 2906 
Q 1506 2906 1245 2678 
Q 984 2450 984 1813 
L 984 0 
L 422 0 
z
" transform="scale(0.015625)"/>
     </defs>
     <use xlink:href="#ArialMT-6e"/>
     <use xlink:href="#ArialMT-73" x="55.615234"/>
    </g>
   </g>
  </g>
 </g>
 <defs>
  <clipPath id="p64218064bb">
   <rect x="77.146875" y="7.2" width="167.4" height="221.76"/>
  </clipPath>
 </defs>
</svg>
