<?xml version="1.0" encoding="utf-8" standalone="no"?>
<!DOCTYPE svg PUBLIC "-//W3C//DTD SVG 1.1//EN"
  "http://www.w3.org/Graphics/SVG/1.1/DTD/svg11.dtd">
<svg xmlns:xlink="http://www.w3.org/1999/xlink" width="267.94875pt" height="258.463437pt" viewBox="0 0 267.94875 258.463437" xmlns="http://www.w3.org/2000/svg" version="1.1">
 <metadata>
  <rdf:RDF xmlns:dc="http://purl.org/dc/elements/1.1/" xmlns:cc="http://creativecommons.org/ns#" xmlns:rdf="http://www.w3.org/1999/02/22-rdf-syntax-ns#">
   <cc:Work>
    <dc:type rdf:resource="http://purl.org/dc/dcmitype/StillImage"/>
    <dc:date>2025-08-13T14:45:49.608343</dc:date>
    <dc:format>image/svg+xml</dc:format>
    <dc:creator>
     <cc:Agent>
      <dc:title>Matplotlib v3.9.2, https://matplotlib.org/</dc:title>
     </cc:Agent>
    </dc:creator>
   </cc:Work>
  </rdf:RDF>
 </metadata>
 <defs>
  <style type="text/css">*{stroke-linejoin: round; stroke-linecap: butt}</style>
 </defs>
 <g id="figure_1">
  <g id="patch_1">
   <path d="M 0 258.463437 
L 267.94875 258.463437 
L 267.94875 0 
L 0 0 
z
" style="fill: #ffffff"/>
  </g>
  <g id="axes_1">
   <g id="patch_2">
    <path d="M 93.34875 228.96 
L 260.74875 228.96 
L 260.74875 7.2 
L 93.34875 7.2 
z
" style="fill: #ffffff"/>
   </g>
   <g id="matplotlib.axis_1">
    <g id="xtick_1">
     <g id="text_1">
      <!-- Full-term -->
      <g style="fill: #262626" transform="translate(107.167585 248.480937) scale(0.14 -0.14)">
       <defs>
        <path id="ArialMT-46" d="M 525 0 
L 525 4581 
L 3616 4581 
L 3616 4041 
L 1131 4041 
L 1131 2622 
L 3281 2622 
L 3281 2081 
L 1131 2081 
L 1131 0 
L 525 0 
z
" transform="scale(0.015625)"/>
        <path id="ArialMT-75" d="M 2597 0 
L 2597 488 
Q 2209 -75 1544 -75 
Q 1250 -75 995 37 
Q 741 150 617 320 
Q 494 491 444 738 
Q 409 903 409 1263 
L 409 3319 
L 972 3319 
L 972 1478 
Q 972 1038 1006 884 
Q 1059 663 1231 536 
Q 1403 409 1656 409 
Q 1909 409 2131 539 
Q 2353 669 2445 892 
Q 2538 1116 2538 1541 
L 2538 3319 
L 3100 3319 
L 3100 0 
L 2597 0 
z
" transform="scale(0.015625)"/>
        <path id="ArialMT-6c" d="M 409 0 
L 409 4581 
L 972 4581 
L 972 0 
L 409 0 
z
" transform="scale(0.015625)"/>
        <path id="ArialMT-2d" d="M 203 1375 
L 203 1941 
L 1931 1941 
L 1931 1375 
L 203 1375 
z
" transform="scale(0.015625)"/>
        <path id="ArialMT-74" d="M 1650 503 
L 1731 6 
Q 1494 -44 1306 -44 
Q 1000 -44 831 53 
Q 663 150 594 308 
Q 525 466 525 972 
L 525 2881 
L 113 2881 
L 113 3319 
L 525 3319 
L 525 4141 
L 1084 4478 
L 1084 3319 
L 1650 3319 
L 1650 2881 
L 1084 2881 
L 1084 941 
Q 1084 700 1114 631 
Q 1144 563 1211 522 
Q 1278 481 1403 481 
Q 1497 481 1650 503 
z
" transform="scale(0.015625)"/>
        <path id="ArialMT-65" d="M 2694 1069 
L 3275 997 
Q 3138 488 2766 206 
Q 2394 -75 1816 -75 
Q 1088 -75 661 373 
Q 234 822 234 1631 
Q 234 2469 665 2931 
Q 1097 3394 1784 3394 
Q 2450 3394 2872 2941 
Q 3294 2488 3294 1666 
Q 3294 1616 3291 1516 
L 816 1516 
Q 847 969 1125 678 
Q 1403 388 1819 388 
Q 2128 388 2347 550 
Q 2566 713 2694 1069 
z
M 847 1978 
L 2700 1978 
Q 2663 2397 2488 2606 
Q 2219 2931 1791 2931 
Q 1403 2931 1139 2672 
Q 875 2413 847 1978 
z
" transform="scale(0.015625)"/>
        <path id="ArialMT-72" d="M 416 0 
L 416 3319 
L 922 3319 
L 922 2816 
Q 1116 3169 1280 3281 
Q 1444 3394 1641 3394 
Q 1925 3394 2219 3213 
L 2025 2691 
Q 1819 2813 1613 2813 
Q 1428 2813 1281 2702 
Q 1134 2591 1072 2394 
Q 978 2094 978 1738 
L 978 0 
L 416 0 
z
" transform="scale(0.015625)"/>
        <path id="ArialMT-6d" d="M 422 0 
L 422 3319 
L 925 3319 
L 925 2853 
Q 1081 3097 1340 3245 
Q 1600 3394 1931 3394 
Q 2300 3394 2536 3241 
Q 2772 3088 2869 2813 
Q 3263 3394 3894 3394 
Q 4388 3394 4653 3120 
Q 4919 2847 4919 2278 
L 4919 0 
L 4359 0 
L 4359 2091 
Q 4359 2428 4304 2576 
Q 4250 2725 4106 2815 
Q 3963 2906 3769 2906 
Q 3419 2906 3187 2673 
Q 2956 2441 2956 1928 
L 2956 0 
L 2394 0 
L 2394 2156 
Q 2394 2531 2256 2718 
Q 2119 2906 1806 2906 
Q 1569 2906 1367 2781 
Q 1166 2656 1075 2415 
Q 984 2175 984 1722 
L 984 0 
L 422 0 
z
" transform="scale(0.015625)"/>
       </defs>
       <use xlink:href="#ArialMT-46"/>
       <use xlink:href="#ArialMT-75" x="61.083984"/>
       <use xlink:href="#ArialMT-6c" x="116.699219"/>
       <use xlink:href="#ArialMT-6c" x="138.916016"/>
       <use xlink:href="#ArialMT-2d" x="161.132812"/>
       <use xlink:href="#ArialMT-74" x="194.433594"/>
       <use xlink:href="#ArialMT-65" x="222.216797"/>
       <use xlink:href="#ArialMT-72" x="277.832031"/>
       <use xlink:href="#ArialMT-6d" x="311.132812"/>
      </g>
     </g>
    </g>
    <g id="xtick_2">
     <g id="text_2">
      <!-- Preterm -->
      <g style="fill: #262626" transform="translate(194.429915 248.480937) scale(0.14 -0.14)">
       <defs>
        <path id="ArialMT-50" d="M 494 0 
L 494 4581 
L 2222 4581 
Q 2678 4581 2919 4538 
Q 3256 4481 3484 4323 
Q 3713 4166 3852 3881 
Q 3991 3597 3991 3256 
Q 3991 2672 3619 2267 
Q 3247 1863 2275 1863 
L 1100 1863 
L 1100 0 
L 494 0 
z
M 1100 2403 
L 2284 2403 
Q 2872 2403 3119 2622 
Q 3366 2841 3366 3238 
Q 3366 3525 3220 3729 
Q 3075 3934 2838 4000 
Q 2684 4041 2272 4041 
L 1100 4041 
L 1100 2403 
z
" transform="scale(0.015625)"/>
       </defs>
       <use xlink:href="#ArialMT-50"/>
       <use xlink:href="#ArialMT-72" x="66.699219"/>
       <use xlink:href="#ArialMT-65" x="100"/>
       <use xlink:href="#ArialMT-74" x="155.615234"/>
       <use xlink:href="#ArialMT-65" x="183.398438"/>
       <use xlink:href="#ArialMT-72" x="239.013672"/>
       <use xlink:href="#ArialMT-6d" x="272.314453"/>
      </g>
     </g>
    </g>
   </g>
   <g id="matplotlib.axis_2">
    <g id="ytick_1">
     <g id="text_3">
      <!-- −200000 -->
      <g style="fill: #262626" transform="translate(28.96 232.84922) scale(0.14 -0.14)">
       <defs>
        <path id="ArialMT-2212" d="M 3381 1997 
L 356 1997 
L 356 2522 
L 3381 2522 
L 3381 1997 
z
" transform="scale(0.015625)"/>
        <path id="ArialMT-32" d="M 3222 541 
L 3222 0 
L 194 0 
Q 188 203 259 391 
Q 375 700 629 1000 
Q 884 1300 1366 1694 
Q 2113 2306 2375 2664 
Q 2638 3022 2638 3341 
Q 2638 3675 2398 3904 
Q 2159 4134 1775 4134 
Q 1369 4134 1125 3890 
Q 881 3647 878 3216 
L 300 3275 
Q 359 3922 746 4261 
Q 1134 4600 1788 4600 
Q 2447 4600 2831 4234 
Q 3216 3869 3216 3328 
Q 3216 3053 3103 2787 
Q 2991 2522 2730 2228 
Q 2469 1934 1863 1422 
Q 1356 997 1212 845 
Q 1069 694 975 541 
L 3222 541 
z
" transform="scale(0.015625)"/>
        <path id="ArialMT-30" d="M 266 2259 
Q 266 3072 433 3567 
Q 600 4063 929 4331 
Q 1259 4600 1759 4600 
Q 2128 4600 2406 4451 
Q 2684 4303 2865 4023 
Q 3047 3744 3150 3342 
Q 3253 2941 3253 2259 
Q 3253 1453 3087 958 
Q 2922 463 2592 192 
Q 2263 -78 1759 -78 
Q 1097 -78 719 397 
Q 266 969 266 2259 
z
M 844 2259 
Q 844 1131 1108 757 
Q 1372 384 1759 384 
Q 2147 384 2411 759 
Q 2675 1134 2675 2259 
Q 2675 3391 2411 3762 
Q 2147 4134 1753 4134 
Q 1366 4134 1134 3806 
Q 844 3388 844 2259 
z
" transform="scale(0.015625)"/>
       </defs>
       <use xlink:href="#ArialMT-2212"/>
       <use xlink:href="#ArialMT-32" x="58.398438"/>
       <use xlink:href="#ArialMT-30" x="114.013672"/>
       <use xlink:href="#ArialMT-30" x="169.628906"/>
       <use xlink:href="#ArialMT-30" x="225.244141"/>
       <use xlink:href="#ArialMT-30" x="280.859375"/>
       <use xlink:href="#ArialMT-30" x="336.474609"/>
      </g>
     </g>
    </g>
    <g id="ytick_2">
     <g id="text_4">
      <!-- −100000 -->
      <g style="fill: #262626" transform="translate(28.96 191.774728) scale(0.14 -0.14)">
       <defs>
        <path id="ArialMT-31" d="M 2384 0 
L 1822 0 
L 1822 3584 
Q 1619 3391 1289 3197 
Q 959 3003 697 2906 
L 697 3450 
Q 1169 3672 1522 3987 
Q 1875 4303 2022 4600 
L 2384 4600 
L 2384 0 
z
" transform="scale(0.015625)"/>
       </defs>
       <use xlink:href="#ArialMT-2212"/>
       <use xlink:href="#ArialMT-31" x="58.398438"/>
       <use xlink:href="#ArialMT-30" x="114.013672"/>
       <use xlink:href="#ArialMT-30" x="169.628906"/>
       <use xlink:href="#ArialMT-30" x="225.244141"/>
       <use xlink:href="#ArialMT-30" x="280.859375"/>
       <use xlink:href="#ArialMT-30" x="336.474609"/>
      </g>
     </g>
    </g>
    <g id="ytick_3">
     <g id="text_5">
      <!-- 0 -->
      <g style="fill: #262626" transform="translate(76.063437 150.700235) scale(0.14 -0.14)">
       <use xlink:href="#ArialMT-30"/>
      </g>
     </g>
    </g>
    <g id="ytick_4">
     <g id="text_6">
      <!-- 100000 -->
      <g style="fill: #262626" transform="translate(37.136875 109.625743) scale(0.14 -0.14)">
       <use xlink:href="#ArialMT-31"/>
       <use xlink:href="#ArialMT-30" x="55.615234"/>
       <use xlink:href="#ArialMT-30" x="111.230469"/>
       <use xlink:href="#ArialMT-30" x="166.845703"/>
       <use xlink:href="#ArialMT-30" x="222.460938"/>
       <use xlink:href="#ArialMT-30" x="278.076172"/>
      </g>
     </g>
    </g>
    <g id="ytick_5">
     <g id="text_7">
      <!-- 200000 -->
      <g style="fill: #262626" transform="translate(37.136875 68.551251) scale(0.14 -0.14)">
       <use xlink:href="#ArialMT-32"/>
       <use xlink:href="#ArialMT-30" x="55.615234"/>
       <use xlink:href="#ArialMT-30" x="111.230469"/>
       <use xlink:href="#ArialMT-30" x="166.845703"/>
       <use xlink:href="#ArialMT-30" x="222.460938"/>
       <use xlink:href="#ArialMT-30" x="278.076172"/>
      </g>
     </g>
    </g>
    <g id="ytick_6">
     <g id="text_8">
      <!-- 300000 -->
      <g style="fill: #262626" transform="translate(37.136875 27.476759) scale(0.14 -0.14)">
       <defs>
        <path id="ArialMT-33" d="M 269 1209 
L 831 1284 
Q 928 806 1161 595 
Q 1394 384 1728 384 
Q 2125 384 2398 659 
Q 2672 934 2672 1341 
Q 2672 1728 2419 1979 
Q 2166 2231 1775 2231 
Q 1616 2231 1378 2169 
L 1441 2663 
Q 1497 2656 1531 2656 
Q 1891 2656 2178 2843 
Q 2466 3031 2466 3422 
Q 2466 3731 2256 3934 
Q 2047 4138 1716 4138 
Q 1388 4138 1169 3931 
Q 950 3725 888 3313 
L 325 3413 
Q 428 3978 793 4289 
Q 1159 4600 1703 4600 
Q 2078 4600 2393 4439 
Q 2709 4278 2876 4000 
Q 3044 3722 3044 3409 
Q 3044 3113 2884 2869 
Q 2725 2625 2413 2481 
Q 2819 2388 3044 2092 
Q 3269 1797 3269 1353 
Q 3269 753 2831 336 
Q 2394 -81 1725 -81 
Q 1122 -81 723 278 
Q 325 638 269 1209 
z
" transform="scale(0.015625)"/>
       </defs>
       <use xlink:href="#ArialMT-33"/>
       <use xlink:href="#ArialMT-30" x="55.615234"/>
       <use xlink:href="#ArialMT-30" x="111.230469"/>
       <use xlink:href="#ArialMT-30" x="166.845703"/>
       <use xlink:href="#ArialMT-30" x="222.460938"/>
       <use xlink:href="#ArialMT-30" x="278.076172"/>
      </g>
     </g>
    </g>
    <g id="text_9">
     <!-- WMV residuals [mm$^3$] -->
     <g style="fill: #262626" transform="translate(21.76 195.76) rotate(-90) scale(0.16 -0.16)">
      <defs>
       <path id="ArialMT-57" d="M 1294 0 
L 78 4581 
L 700 4581 
L 1397 1578 
Q 1509 1106 1591 641 
Q 1766 1375 1797 1488 
L 2669 4581 
L 3400 4581 
L 4056 2263 
Q 4303 1400 4413 641 
Q 4500 1075 4641 1638 
L 5359 4581 
L 5969 4581 
L 4713 0 
L 4128 0 
L 3163 3491 
Q 3041 3928 3019 4028 
Q 2947 3713 2884 3491 
L 1913 0 
L 1294 0 
z
" transform="scale(0.015625)"/>
       <path id="ArialMT-4d" d="M 475 0 
L 475 4581 
L 1388 4581 
L 2472 1338 
Q 2622 884 2691 659 
Q 2769 909 2934 1394 
L 4031 4581 
L 4847 4581 
L 4847 0 
L 4263 0 
L 4263 3834 
L 2931 0 
L 2384 0 
L 1059 3900 
L 1059 0 
L 475 0 
z
" transform="scale(0.015625)"/>
       <path id="ArialMT-56" d="M 1803 0 
L 28 4581 
L 684 4581 
L 1875 1253 
Q 2019 853 2116 503 
Q 2222 878 2363 1253 
L 3600 4581 
L 4219 4581 
L 2425 0 
L 1803 0 
z
" transform="scale(0.015625)"/>
       <path id="ArialMT-20" transform="scale(0.015625)"/>
       <path id="ArialMT-73" d="M 197 991 
L 753 1078 
Q 800 744 1014 566 
Q 1228 388 1613 388 
Q 2000 388 2187 545 
Q 2375 703 2375 916 
Q 2375 1106 2209 1216 
Q 2094 1291 1634 1406 
Q 1016 1563 777 1677 
Q 538 1791 414 1992 
Q 291 2194 291 2438 
Q 291 2659 392 2848 
Q 494 3038 669 3163 
Q 800 3259 1026 3326 
Q 1253 3394 1513 3394 
Q 1903 3394 2198 3281 
Q 2494 3169 2634 2976 
Q 2775 2784 2828 2463 
L 2278 2388 
Q 2241 2644 2061 2787 
Q 1881 2931 1553 2931 
Q 1166 2931 1000 2803 
Q 834 2675 834 2503 
Q 834 2394 903 2306 
Q 972 2216 1119 2156 
Q 1203 2125 1616 2013 
Q 2213 1853 2448 1751 
Q 2684 1650 2818 1456 
Q 2953 1263 2953 975 
Q 2953 694 2789 445 
Q 2625 197 2315 61 
Q 2006 -75 1616 -75 
Q 969 -75 630 194 
Q 291 463 197 991 
z
" transform="scale(0.015625)"/>
       <path id="ArialMT-69" d="M 425 3934 
L 425 4581 
L 988 4581 
L 988 3934 
L 425 3934 
z
M 425 0 
L 425 3319 
L 988 3319 
L 988 0 
L 425 0 
z
" transform="scale(0.015625)"/>
       <path id="ArialMT-64" d="M 2575 0 
L 2575 419 
Q 2259 -75 1647 -75 
Q 1250 -75 917 144 
Q 584 363 401 755 
Q 219 1147 219 1656 
Q 219 2153 384 2558 
Q 550 2963 881 3178 
Q 1213 3394 1622 3394 
Q 1922 3394 2156 3267 
Q 2391 3141 2538 2938 
L 2538 4581 
L 3097 4581 
L 3097 0 
L 2575 0 
z
M 797 1656 
Q 797 1019 1065 703 
Q 1334 388 1700 388 
Q 2069 388 2326 689 
Q 2584 991 2584 1609 
Q 2584 2291 2321 2609 
Q 2059 2928 1675 2928 
Q 1300 2928 1048 2622 
Q 797 2316 797 1656 
z
" transform="scale(0.015625)"/>
       <path id="ArialMT-61" d="M 2588 409 
Q 2275 144 1986 34 
Q 1697 -75 1366 -75 
Q 819 -75 525 192 
Q 231 459 231 875 
Q 231 1119 342 1320 
Q 453 1522 633 1644 
Q 813 1766 1038 1828 
Q 1203 1872 1538 1913 
Q 2219 1994 2541 2106 
Q 2544 2222 2544 2253 
Q 2544 2597 2384 2738 
Q 2169 2928 1744 2928 
Q 1347 2928 1158 2789 
Q 969 2650 878 2297 
L 328 2372 
Q 403 2725 575 2942 
Q 747 3159 1072 3276 
Q 1397 3394 1825 3394 
Q 2250 3394 2515 3294 
Q 2781 3194 2906 3042 
Q 3031 2891 3081 2659 
Q 3109 2516 3109 2141 
L 3109 1391 
Q 3109 606 3145 398 
Q 3181 191 3288 0 
L 2700 0 
Q 2613 175 2588 409 
z
M 2541 1666 
Q 2234 1541 1622 1453 
Q 1275 1403 1131 1340 
Q 988 1278 909 1158 
Q 831 1038 831 891 
Q 831 666 1001 516 
Q 1172 366 1500 366 
Q 1825 366 2078 508 
Q 2331 650 2450 897 
Q 2541 1088 2541 1459 
L 2541 1666 
z
" transform="scale(0.015625)"/>
       <path id="ArialMT-5b" d="M 434 -1272 
L 434 4581 
L 1675 4581 
L 1675 4116 
L 997 4116 
L 997 -806 
L 1675 -806 
L 1675 -1272 
L 434 -1272 
z
" transform="scale(0.015625)"/>
       <path id="DejaVuSans-33" d="M 2597 2516 
Q 3050 2419 3304 2112 
Q 3559 1806 3559 1356 
Q 3559 666 3084 287 
Q 2609 -91 1734 -91 
Q 1441 -91 1130 -33 
Q 819 25 488 141 
L 488 750 
Q 750 597 1062 519 
Q 1375 441 1716 441 
Q 2309 441 2620 675 
Q 2931 909 2931 1356 
Q 2931 1769 2642 2001 
Q 2353 2234 1838 2234 
L 1294 2234 
L 1294 2753 
L 1863 2753 
Q 2328 2753 2575 2939 
Q 2822 3125 2822 3475 
Q 2822 3834 2567 4026 
Q 2313 4219 1838 4219 
Q 1578 4219 1281 4162 
Q 984 4106 628 3988 
L 628 4550 
Q 988 4650 1302 4700 
Q 1616 4750 1894 4750 
Q 2613 4750 3031 4423 
Q 3450 4097 3450 3541 
Q 3450 3153 3228 2886 
Q 3006 2619 2597 2516 
z
" transform="scale(0.015625)"/>
       <path id="ArialMT-5d" d="M 1363 -1272 
L 122 -1272 
L 122 -806 
L 800 -806 
L 800 4116 
L 122 4116 
L 122 4581 
L 1363 4581 
L 1363 -1272 
z
" transform="scale(0.015625)"/>
      </defs>
      <use xlink:href="#ArialMT-57" transform="translate(0 0.765625)"/>
      <use xlink:href="#ArialMT-4d" transform="translate(94.384766 0.765625)"/>
      <use xlink:href="#ArialMT-56" transform="translate(177.685547 0.765625)"/>
      <use xlink:href="#ArialMT-20" transform="translate(244.384766 0.765625)"/>
      <use xlink:href="#ArialMT-72" transform="translate(272.167969 0.765625)"/>
      <use xlink:href="#ArialMT-65" transform="translate(305.46875 0.765625)"/>
      <use xlink:href="#ArialMT-73" transform="translate(361.083984 0.765625)"/>
      <use xlink:href="#ArialMT-69" transform="translate(411.083984 0.765625)"/>
      <use xlink:href="#ArialMT-64" transform="translate(433.300781 0.765625)"/>
      <use xlink:href="#ArialMT-75" transform="translate(488.916016 0.765625)"/>
      <use xlink:href="#ArialMT-61" transform="translate(544.53125 0.765625)"/>
      <use xlink:href="#ArialMT-6c" transform="translate(600.146484 0.765625)"/>
      <use xlink:href="#ArialMT-73" transform="translate(622.363281 0.765625)"/>
      <use xlink:href="#ArialMT-20" transform="translate(672.363281 0.765625)"/>
      <use xlink:href="#ArialMT-5b" transform="translate(700.146484 0.765625)"/>
      <use xlink:href="#ArialMT-6d" transform="translate(727.929688 0.765625)"/>
      <use xlink:href="#ArialMT-6d" transform="translate(811.230469 0.765625)"/>
      <use xlink:href="#DejaVuSans-33" transform="translate(895.488281 39.046875) scale(0.7)"/>
      <use xlink:href="#ArialMT-5d" transform="translate(942.758789 0.765625)"/>
     </g>
    </g>
   </g>
   <g id="PolyCollection_1">
    <defs>
     <path id="mb78145a05f" d="M 134.780321 -39.583437 
L 134.771725 -39.583437 
L 134.763718 -41.619801 
L 134.752113 -43.656165 
L 134.744392 -45.692528 
L 134.746868 -47.728892 
L 134.753957 -49.765256 
L 134.750788 -51.801619 
L 134.7235 -53.837983 
L 134.665362 -55.874347 
L 134.580372 -57.91071 
L 134.476833 -59.947074 
L 134.344199 -61.983437 
L 134.140401 -64.019801 
L 133.813167 -66.056165 
L 133.354063 -68.092528 
L 132.831517 -70.128892 
L 132.297307 -72.165256 
L 131.663852 -74.201619 
L 130.770011 -76.237983 
L 129.554691 -78.274347 
L 128.102536 -80.31071 
L 126.517403 -82.347074 
L 124.784708 -84.383437 
L 122.794075 -86.419801 
L 120.490388 -88.456165 
L 118.002367 -90.492528 
L 115.60112 -92.528892 
L 113.441633 -94.565256 
L 111.403295 -96.601619 
L 109.317303 -98.637983 
L 107.248326 -100.674347 
L 105.371949 -102.71071 
L 103.7154 -104.747074 
L 102.270999 -106.783437 
L 101.249677 -108.819801 
L 100.957841 -110.856165 
L 101.438704 -112.892528 
L 102.445476 -114.928892 
L 103.771642 -116.965256 
L 105.39138 -119.001619 
L 107.26996 -121.037983 
L 109.227502 -123.074347 
L 111.06915 -125.11071 
L 112.813224 -127.147074 
L 114.655561 -129.183437 
L 116.670117 -131.219801 
L 118.7491 -133.256165 
L 120.803371 -135.292528 
L 122.769689 -137.328892 
L 124.516255 -139.365256 
L 125.94055 -141.401619 
L 127.087815 -143.437983 
L 128.105059 -145.474347 
L 129.100411 -147.51071 
L 130.049773 -149.547074 
L 130.878415 -151.583437 
L 131.580201 -153.619801 
L 132.173432 -155.656165 
L 132.649254 -157.692528 
L 133.022548 -159.728892 
L 133.32509 -161.765256 
L 133.560154 -163.801619 
L 133.739252 -165.837983 
L 133.90554 -167.874347 
L 134.080718 -169.91071 
L 134.244537 -171.947074 
L 134.377012 -173.983437 
L 134.481713 -176.019801 
L 134.566933 -178.056165 
L 134.624182 -180.092528 
L 134.638762 -182.128892 
L 134.624075 -184.165256 
L 134.621528 -186.201619 
L 134.652688 -188.237983 
L 134.696445 -190.274347 
L 134.724773 -192.31071 
L 134.73649 -194.347074 
L 134.745988 -196.383437 
L 134.758437 -198.419801 
L 134.768802 -200.456165 
L 134.773995 -202.492528 
L 134.775636 -204.528892 
L 134.775973 -206.565256 
L 134.776018 -208.601619 
L 134.776022 -210.637983 
L 134.776023 -212.674347 
L 134.776023 -214.71071 
L 134.776023 -216.747074 
L 134.776022 -218.783437 
L 134.776019 -220.819801 
L 134.775975 -222.856165 
L 134.775651 -224.892528 
L 134.774062 -226.928892 
L 134.769 -228.965256 
L 134.758954 -231.001619 
L 134.747878 -233.037983 
L 134.744538 -235.074347 
L 134.752128 -237.11071 
L 134.763719 -239.147074 
L 134.771725 -241.183437 
L 134.780321 -241.183437 
L 134.780321 -241.183437 
L 134.788326 -239.147074 
L 134.799918 -237.11071 
L 134.807507 -235.074347 
L 134.804167 -233.037983 
L 134.793091 -231.001619 
L 134.783046 -228.965256 
L 134.777983 -226.928892 
L 134.776394 -224.892528 
L 134.77607 -222.856165 
L 134.776027 -220.819801 
L 134.776023 -218.783437 
L 134.776023 -216.747074 
L 134.776023 -214.71071 
L 134.776023 -212.674347 
L 134.776023 -210.637983 
L 134.776027 -208.601619 
L 134.776073 -206.565256 
L 134.77641 -204.528892 
L 134.77805 -202.492528 
L 134.783243 -200.456165 
L 134.793609 -198.419801 
L 134.806057 -196.383437 
L 134.815555 -194.347074 
L 134.827272 -192.31071 
L 134.855601 -190.274347 
L 134.899358 -188.237983 
L 134.930518 -186.201619 
L 134.92797 -184.165256 
L 134.913284 -182.128892 
L 134.927864 -180.092528 
L 134.985113 -178.056165 
L 135.070332 -176.019801 
L 135.175033 -173.983437 
L 135.307509 -171.947074 
L 135.471327 -169.91071 
L 135.646506 -167.874347 
L 135.812794 -165.837983 
L 135.991892 -163.801619 
L 136.226955 -161.765256 
L 136.529498 -159.728892 
L 136.902792 -157.692528 
L 137.378614 -155.656165 
L 137.971845 -153.619801 
L 138.673631 -151.583437 
L 139.502272 -149.547074 
L 140.451634 -147.51071 
L 141.446987 -145.474347 
L 142.46423 -143.437983 
L 143.611495 -141.401619 
L 145.03579 -139.365256 
L 146.782357 -137.328892 
L 148.748674 -135.292528 
L 150.802945 -133.256165 
L 152.881928 -131.219801 
L 154.896484 -129.183437 
L 156.738822 -127.147074 
L 158.482895 -125.11071 
L 160.324544 -123.074347 
L 162.282086 -121.037983 
L 164.160666 -119.001619 
L 165.780404 -116.965256 
L 167.10657 -114.928892 
L 168.113342 -112.892528 
L 168.594205 -110.856165 
L 168.302368 -108.819801 
L 167.281047 -106.783437 
L 165.836645 -104.747074 
L 164.180097 -102.71071 
L 162.30372 -100.674347 
L 160.234742 -98.637983 
L 158.14875 -96.601619 
L 156.110413 -94.565256 
L 153.950925 -92.528892 
L 151.549678 -90.492528 
L 149.061657 -88.456165 
L 146.75797 -86.419801 
L 144.767337 -84.383437 
L 143.034642 -82.347074 
L 141.44951 -80.31071 
L 139.997355 -78.274347 
L 138.782034 -76.237983 
L 137.888193 -74.201619 
L 137.254738 -72.165256 
L 136.720528 -70.128892 
L 136.197982 -68.092528 
L 135.738878 -66.056165 
L 135.411645 -64.019801 
L 135.207846 -61.983437 
L 135.075213 -59.947074 
L 134.971674 -57.91071 
L 134.886683 -55.874347 
L 134.828546 -53.837983 
L 134.801258 -51.801619 
L 134.798088 -49.765256 
L 134.805177 -47.728892 
L 134.807653 -45.692528 
L 134.799933 -43.656165 
L 134.788327 -41.619801 
L 134.780321 -39.583437 
z
" style="stroke: #4c4c4c; stroke-width: 0.5"/>
    </defs>
    <g clip-path="url(#pac73a4e009)">
     <use xlink:href="#mb78145a05f" x="0" y="258.463437" style="fill: #5573cd; stroke: #4c4c4c; stroke-width: 0.5"/>
    </g>
   </g>
   <g id="PolyCollection_2">
    <defs>
     <path id="m02683e052a" d="M 219.451 -48.296951 
L 219.191954 -48.296951 
L 219.129166 -49.685059 
L 219.045978 -51.073168 
L 218.940241 -52.461276 
L 218.811103 -53.849385 
L 218.659136 -55.237493 
L 218.486049 -56.625602 
L 218.293892 -58.01371 
L 218.083859 -59.401819 
L 217.854892 -60.789928 
L 217.602434 -62.178036 
L 217.317678 -63.566145 
L 216.987581 -64.954253 
L 216.59571 -66.342362 
L 216.123842 -67.73047 
L 215.554017 -69.118579 
L 214.87074 -70.506688 
L 214.062983 -71.894796 
L 213.12574 -73.282905 
L 212.060964 -74.671013 
L 210.87778 -76.059122 
L 209.591973 -77.44723 
L 208.224808 -78.835339 
L 206.801354 -80.223448 
L 205.348558 -81.611556 
L 203.893302 -82.999665 
L 202.460681 -84.387773 
L 201.072553 -85.775882 
L 199.746365 -87.16399 
L 198.494192 -88.552099 
L 197.322005 -89.940208 
L 196.229298 -91.328316 
L 195.209303 -92.716425 
L 194.249987 -94.104533 
L 193.335888 -95.492642 
L 192.450611 -96.88075 
L 191.579626 -98.268859 
L 190.712985 -99.656968 
L 189.847653 -101.045076 
L 188.989306 -102.433185 
L 188.153513 -103.821293 
L 187.366178 -105.209402 
L 186.66291 -106.59751 
L 186.086948 -107.985619 
L 185.685309 -109.373727 
L 185.503295 -110.761836 
L 185.578008 -112.149945 
L 185.932128 -113.538053 
L 186.569414 -114.926162 
L 187.473129 -116.31427 
L 188.607962 -117.702379 
L 189.925058 -119.090487 
L 191.368995 -120.478596 
L 192.885058 -121.866705 
L 194.425234 -123.254813 
L 195.951801 -124.642922 
L 197.438156 -126.03103 
L 198.867246 -127.419139 
L 200.228527 -128.807247 
L 201.514614 -130.195356 
L 202.718707 -131.583465 
L 203.833485 -132.971573 
L 204.851702 -134.359682 
L 205.76816 -135.74779 
L 206.582314 -137.135899 
L 207.300556 -138.524007 
L 207.93726 -139.912116 
L 208.514007 -141.300225 
L 209.056923 -142.688333 
L 209.592638 -144.076442 
L 210.143832 -145.46455 
L 210.725524 -146.852659 
L 211.343042 -148.240767 
L 211.992141 -149.628876 
L 212.661074 -151.016984 
L 213.333885 -152.405093 
L 213.993898 -153.793202 
L 214.626472 -155.18131 
L 215.220497 -156.569419 
L 215.768581 -157.957527 
L 216.266352 -159.345636 
L 216.711487 -160.733744 
L 217.102979 -162.121853 
L 217.440953 -163.509962 
L 217.726926 -164.89807 
L 217.964242 -166.286179 
L 218.1583 -167.674287 
L 218.316311 -169.062396 
L 218.44655 -170.450504 
L 218.557258 -171.838613 
L 218.655519 -173.226722 
L 218.746421 -174.61483 
L 218.832705 -176.002939 
L 218.914952 -177.391047 
L 218.99218 -178.779156 
L 219.062643 -180.167264 
L 219.12459 -181.555373 
L 219.176823 -182.943482 
L 219.218967 -184.33159 
L 219.251475 -185.719699 
L 219.391479 -185.719699 
L 219.391479 -185.719699 
L 219.423988 -184.33159 
L 219.466132 -182.943482 
L 219.518364 -181.555373 
L 219.580311 -180.167264 
L 219.650774 -178.779156 
L 219.728003 -177.391047 
L 219.81025 -176.002939 
L 219.896534 -174.61483 
L 219.987435 -173.226722 
L 220.085697 -171.838613 
L 220.196404 -170.450504 
L 220.326643 -169.062396 
L 220.484655 -167.674287 
L 220.678712 -166.286179 
L 220.916029 -164.89807 
L 221.202001 -163.509962 
L 221.539975 -162.121853 
L 221.931468 -160.733744 
L 222.376602 -159.345636 
L 222.874374 -157.957527 
L 223.422457 -156.569419 
L 224.016482 -155.18131 
L 224.649057 -153.793202 
L 225.309069 -152.405093 
L 225.981881 -151.016984 
L 226.650814 -149.628876 
L 227.299912 -148.240767 
L 227.91743 -146.852659 
L 228.499122 -145.46455 
L 229.050316 -144.076442 
L 229.586031 -142.688333 
L 230.128948 -141.300225 
L 230.705695 -139.912116 
L 231.342398 -138.524007 
L 232.06064 -137.135899 
L 232.874795 -135.74779 
L 233.791253 -134.359682 
L 234.809469 -132.971573 
L 235.924247 -131.583465 
L 237.12834 -130.195356 
L 238.414428 -128.807247 
L 239.775708 -127.419139 
L 241.204798 -126.03103 
L 242.691153 -124.642922 
L 244.21772 -123.254813 
L 245.757896 -121.866705 
L 247.27396 -120.478596 
L 248.717897 -119.090487 
L 250.034993 -117.702379 
L 251.169826 -116.31427 
L 252.073541 -114.926162 
L 252.710826 -113.538053 
L 253.064947 -112.149945 
L 253.139659 -110.761836 
L 252.957645 -109.373727 
L 252.556007 -107.985619 
L 251.980044 -106.59751 
L 251.276777 -105.209402 
L 250.489441 -103.821293 
L 249.653649 -102.433185 
L 248.795301 -101.045076 
L 247.92997 -99.656968 
L 247.063329 -98.268859 
L 246.192343 -96.88075 
L 245.307066 -95.492642 
L 244.392968 -94.104533 
L 243.433652 -92.716425 
L 242.413656 -91.328316 
L 241.32095 -89.940208 
L 240.148763 -88.552099 
L 238.896589 -87.16399 
L 237.570401 -85.775882 
L 236.182273 -84.387773 
L 234.749652 -82.999665 
L 233.294397 -81.611556 
L 231.8416 -80.223448 
L 230.418147 -78.835339 
L 229.050982 -77.44723 
L 227.765175 -76.059122 
L 226.581991 -74.671013 
L 225.517215 -73.282905 
L 224.579972 -71.894796 
L 223.772214 -70.506688 
L 223.088938 -69.118579 
L 222.519113 -67.73047 
L 222.047245 -66.342362 
L 221.655374 -64.954253 
L 221.325276 -63.566145 
L 221.040521 -62.178036 
L 220.788062 -60.789928 
L 220.559095 -59.401819 
L 220.349063 -58.01371 
L 220.156906 -56.625602 
L 219.983818 -55.237493 
L 219.831852 -53.849385 
L 219.702713 -52.461276 
L 219.596976 -51.073168 
L 219.513788 -49.685059 
L 219.451 -48.296951 
z
" style="stroke: #4c4c4c; stroke-width: 0.5"/>
    </defs>
    <g clip-path="url(#pac73a4e009)">
     <use xlink:href="#m02683e052a" x="0" y="258.463437" style="fill: #df8920; stroke: #4c4c4c; stroke-width: 0.5"/>
    </g>
   </g>
   <g id="line2d_1">
    <path d="M 134.776023 194.354579 
L 134.776023 97.945066 
" clip-path="url(#pac73a4e009)" style="fill: none; stroke: #4c4c4c; stroke-width: 0.75; stroke-linecap: round"/>
   </g>
   <g id="line2d_2">
    <path d="M 134.776023 158.161296 
L 134.776023 133.99498 
" clip-path="url(#pac73a4e009)" style="fill: none; stroke: #4c4c4c; stroke-width: 2.25; stroke-linecap: round"/>
   </g>
   <g id="line2d_3">
    <path d="M 134.776023 146.547416 
" clip-path="url(#pac73a4e009)" style="fill: none; stroke: #4c4c4c; stroke-width: 1.5; stroke-linecap: round"/>
    <defs>
     <path id="m16ecd6a255" d="M 0.9375 0 
L -0.9375 -0 
" style="stroke: #ffffff; stroke-width: 0.45"/>
    </defs>
    <g clip-path="url(#pac73a4e009)">
     <use xlink:href="#m16ecd6a255" x="134.776023" y="146.547416" style="fill: #ffffff; stroke: #ffffff; stroke-width: 0.45"/>
    </g>
   </g>
   <g id="line2d_4">
    <path d="M 219.321477 196.151039 
L 219.321477 98.862975 
" clip-path="url(#pac73a4e009)" style="fill: none; stroke: #4c4c4c; stroke-width: 0.75; stroke-linecap: round"/>
   </g>
   <g id="line2d_5">
    <path d="M 219.321477 162.734121 
L 219.321477 135.508619 
" clip-path="url(#pac73a4e009)" style="fill: none; stroke: #4c4c4c; stroke-width: 2.25; stroke-linecap: round"/>
   </g>
   <g id="line2d_6">
    <path d="M 219.321477 147.603157 
" clip-path="url(#pac73a4e009)" style="fill: none; stroke: #4c4c4c; stroke-width: 1.5; stroke-linecap: round"/>
    <g clip-path="url(#pac73a4e009)">
     <use xlink:href="#m16ecd6a255" x="219.321477" y="147.603157" style="fill: #ffffff; stroke: #ffffff; stroke-width: 0.45"/>
    </g>
   </g>
   <g id="line2d_7">
    <path d="M 134.776023 84.639466 
L 134.776023 80.204266 
L 219.321477 80.204266 
L 219.321477 84.639466 
" style="fill: none; stroke: #333333; stroke-width: 0.5; stroke-linecap: round"/>
   </g>
   <g id="patch_3">
    <path d="M 93.34875 228.96 
L 93.34875 7.2 
" style="fill: none; stroke: #262626; stroke-width: 1.25; stroke-linejoin: miter; stroke-linecap: square"/>
   </g>
   <g id="patch_4">
    <path d="M 93.34875 228.96 
L 260.74875 228.96 
" style="fill: none; stroke: #262626; stroke-width: 1.25; stroke-linejoin: miter; stroke-linecap: square"/>
   </g>
   <g id="text_10">
    <!-- ns -->
    <g style="fill: #262626" transform="translate(169.656094 76.421766) scale(0.14 -0.14)">
     <defs>
      <path id="ArialMT-6e" d="M 422 0 
L 422 3319 
L 928 3319 
L 928 2847 
Q 1294 3394 1984 3394 
Q 2284 3394 2536 3286 
Q 2788 3178 2913 3003 
Q 3038 2828 3088 2588 
Q 3119 2431 3119 2041 
L 3119 0 
L 2556 0 
L 2556 2019 
Q 2556 2363 2490 2533 
Q 2425 2703 2258 2804 
Q 2091 2906 1866 2906 
Q 1506 2906 1245 2678 
Q 984 2450 984 1813 
L 984 0 
L 422 0 
z
" transform="scale(0.015625)"/>
     </defs>
     <use xlink:href="#ArialMT-6e"/>
     <use xlink:href="#ArialMT-73" x="55.615234"/>
    </g>
   </g>
  </g>
 </g>
 <defs>
  <clipPath id="pac73a4e009">
   <rect x="93.34875" y="7.2" width="167.4" height="221.76"/>
  </clipPath>
 </defs>
</svg>
