<?xml version="1.0" encoding="utf-8" standalone="no"?>
<!DOCTYPE svg PUBLIC "-//W3C//DTD SVG 1.1//EN"
  "http://www.w3.org/Graphics/SVG/1.1/DTD/svg11.dtd">
<svg xmlns:xlink="http://www.w3.org/1999/xlink" width="251.746875pt" height="255.719844pt" viewBox="0 0 251.746875 255.719844" xmlns="http://www.w3.org/2000/svg" version="1.1">
 <metadata>
  <rdf:RDF xmlns:dc="http://purl.org/dc/elements/1.1/" xmlns:cc="http://creativecommons.org/ns#" xmlns:rdf="http://www.w3.org/1999/02/22-rdf-syntax-ns#">
   <cc:Work>
    <dc:type rdf:resource="http://purl.org/dc/dcmitype/StillImage"/>
    <dc:date>2025-06-10T16:23:44.023514</dc:date>
    <dc:format>image/svg+xml</dc:format>
    <dc:creator>
     <cc:Agent>
      <dc:title>Matplotlib v3.9.2, https://matplotlib.org/</dc:title>
     </cc:Agent>
    </dc:creator>
   </cc:Work>
  </rdf:RDF>
 </metadata>
 <defs>
  <style type="text/css">*{stroke-linejoin: round; stroke-linecap: butt}</style>
 </defs>
 <g id="figure_1">
  <g id="patch_1">
   <path d="M -0 255.719844 
L 251.746875 255.719844 
L 251.746875 0 
L -0 0 
z
" style="fill: #ffffff"/>
  </g>
  <g id="axes_1">
   <g id="patch_2">
    <path d="M 77.146875 228.96 
L 244.546875 228.96 
L 244.546875 7.2 
L 77.146875 7.2 
z
" style="fill: #ffffff"/>
   </g>
   <g id="matplotlib.axis_1">
    <g id="xtick_1">
     <g id="text_1">
      <!-- Term -->
      <g style="fill: #262626" transform="translate(106.355554 246.333594) scale(0.11 -0.11)">
       <defs>
        <path id="ArialMT-54" d="M 1659 0 
L 1659 4041 
L 150 4041 
L 150 4581 
L 3781 4581 
L 3781 4041 
L 2266 4041 
L 2266 0 
L 1659 0 
z
" transform="scale(0.015625)"/>
        <path id="ArialMT-65" d="M 2694 1069 
L 3275 997 
Q 3138 488 2766 206 
Q 2394 -75 1816 -75 
Q 1088 -75 661 373 
Q 234 822 234 1631 
Q 234 2469 665 2931 
Q 1097 3394 1784 3394 
Q 2450 3394 2872 2941 
Q 3294 2488 3294 1666 
Q 3294 1616 3291 1516 
L 816 1516 
Q 847 969 1125 678 
Q 1403 388 1819 388 
Q 2128 388 2347 550 
Q 2566 713 2694 1069 
z
M 847 1978 
L 2700 1978 
Q 2663 2397 2488 2606 
Q 2219 2931 1791 2931 
Q 1403 2931 1139 2672 
Q 875 2413 847 1978 
z
" transform="scale(0.015625)"/>
        <path id="ArialMT-72" d="M 416 0 
L 416 3319 
L 922 3319 
L 922 2816 
Q 1116 3169 1280 3281 
Q 1444 3394 1641 3394 
Q 1925 3394 2219 3213 
L 2025 2691 
Q 1819 2813 1613 2813 
Q 1428 2813 1281 2702 
Q 1134 2591 1072 2394 
Q 978 2094 978 1738 
L 978 0 
L 416 0 
z
" transform="scale(0.015625)"/>
        <path id="ArialMT-6d" d="M 422 0 
L 422 3319 
L 925 3319 
L 925 2853 
Q 1081 3097 1340 3245 
Q 1600 3394 1931 3394 
Q 2300 3394 2536 3241 
Q 2772 3088 2869 2813 
Q 3263 3394 3894 3394 
Q 4388 3394 4653 3120 
Q 4919 2847 4919 2278 
L 4919 0 
L 4359 0 
L 4359 2091 
Q 4359 2428 4304 2576 
Q 4250 2725 4106 2815 
Q 3963 2906 3769 2906 
Q 3419 2906 3187 2673 
Q 2956 2441 2956 1928 
L 2956 0 
L 2394 0 
L 2394 2156 
Q 2394 2531 2256 2718 
Q 2119 2906 1806 2906 
Q 1569 2906 1367 2781 
Q 1166 2656 1075 2415 
Q 984 2175 984 1722 
L 984 0 
L 422 0 
z
" transform="scale(0.015625)"/>
       </defs>
       <use xlink:href="#ArialMT-54"/>
       <use xlink:href="#ArialMT-65" x="49.958984"/>
       <use xlink:href="#ArialMT-72" x="105.574219"/>
       <use xlink:href="#ArialMT-6d" x="138.875"/>
      </g>
     </g>
    </g>
    <g id="xtick_2">
     <g id="text_2">
      <!-- Preterm -->
      <g style="fill: #262626" transform="translate(183.561946 246.333594) scale(0.11 -0.11)">
       <defs>
        <path id="ArialMT-50" d="M 494 0 
L 494 4581 
L 2222 4581 
Q 2678 4581 2919 4538 
Q 3256 4481 3484 4323 
Q 3713 4166 3852 3881 
Q 3991 3597 3991 3256 
Q 3991 2672 3619 2267 
Q 3247 1863 2275 1863 
L 1100 1863 
L 1100 0 
L 494 0 
z
M 1100 2403 
L 2284 2403 
Q 2872 2403 3119 2622 
Q 3366 2841 3366 3238 
Q 3366 3525 3220 3729 
Q 3075 3934 2838 4000 
Q 2684 4041 2272 4041 
L 1100 4041 
L 1100 2403 
z
" transform="scale(0.015625)"/>
        <path id="ArialMT-74" d="M 1650 503 
L 1731 6 
Q 1494 -44 1306 -44 
Q 1000 -44 831 53 
Q 663 150 594 308 
Q 525 466 525 972 
L 525 2881 
L 113 2881 
L 113 3319 
L 525 3319 
L 525 4141 
L 1084 4478 
L 1084 3319 
L 1650 3319 
L 1650 2881 
L 1084 2881 
L 1084 941 
Q 1084 700 1114 631 
Q 1144 563 1211 522 
Q 1278 481 1403 481 
Q 1497 481 1650 503 
z
" transform="scale(0.015625)"/>
       </defs>
       <use xlink:href="#ArialMT-50"/>
       <use xlink:href="#ArialMT-72" x="66.699219"/>
       <use xlink:href="#ArialMT-65" x="100"/>
       <use xlink:href="#ArialMT-74" x="155.615234"/>
       <use xlink:href="#ArialMT-65" x="183.398438"/>
       <use xlink:href="#ArialMT-72" x="239.013672"/>
       <use xlink:href="#ArialMT-6d" x="272.314453"/>
      </g>
     </g>
    </g>
   </g>
   <g id="matplotlib.axis_2">
    <g id="ytick_1">
     <g id="text_3">
      <!-- −200000 -->
      <g style="fill: #262626" transform="translate(24.52 204.955127) scale(0.11 -0.11)">
       <defs>
        <path id="ArialMT-2212" d="M 3381 1997 
L 356 1997 
L 356 2522 
L 3381 2522 
L 3381 1997 
z
" transform="scale(0.015625)"/>
        <path id="ArialMT-32" d="M 3222 541 
L 3222 0 
L 194 0 
Q 188 203 259 391 
Q 375 700 629 1000 
Q 884 1300 1366 1694 
Q 2113 2306 2375 2664 
Q 2638 3022 2638 3341 
Q 2638 3675 2398 3904 
Q 2159 4134 1775 4134 
Q 1369 4134 1125 3890 
Q 881 3647 878 3216 
L 300 3275 
Q 359 3922 746 4261 
Q 1134 4600 1788 4600 
Q 2447 4600 2831 4234 
Q 3216 3869 3216 3328 
Q 3216 3053 3103 2787 
Q 2991 2522 2730 2228 
Q 2469 1934 1863 1422 
Q 1356 997 1212 845 
Q 1069 694 975 541 
L 3222 541 
z
" transform="scale(0.015625)"/>
        <path id="ArialMT-30" d="M 266 2259 
Q 266 3072 433 3567 
Q 600 4063 929 4331 
Q 1259 4600 1759 4600 
Q 2128 4600 2406 4451 
Q 2684 4303 2865 4023 
Q 3047 3744 3150 3342 
Q 3253 2941 3253 2259 
Q 3253 1453 3087 958 
Q 2922 463 2592 192 
Q 2263 -78 1759 -78 
Q 1097 -78 719 397 
Q 266 969 266 2259 
z
M 844 2259 
Q 844 1131 1108 757 
Q 1372 384 1759 384 
Q 2147 384 2411 759 
Q 2675 1134 2675 2259 
Q 2675 3391 2411 3762 
Q 2147 4134 1753 4134 
Q 1366 4134 1134 3806 
Q 844 3388 844 2259 
z
" transform="scale(0.015625)"/>
       </defs>
       <use xlink:href="#ArialMT-2212"/>
       <use xlink:href="#ArialMT-32" x="58.398438"/>
       <use xlink:href="#ArialMT-30" x="114.013672"/>
       <use xlink:href="#ArialMT-30" x="169.628906"/>
       <use xlink:href="#ArialMT-30" x="225.244141"/>
       <use xlink:href="#ArialMT-30" x="280.859375"/>
       <use xlink:href="#ArialMT-30" x="336.474609"/>
      </g>
     </g>
    </g>
    <g id="ytick_2">
     <g id="text_4">
      <!-- −100000 -->
      <g style="fill: #262626" transform="translate(24.52 165.32869) scale(0.11 -0.11)">
       <defs>
        <path id="ArialMT-31" d="M 2384 0 
L 1822 0 
L 1822 3584 
Q 1619 3391 1289 3197 
Q 959 3003 697 2906 
L 697 3450 
Q 1169 3672 1522 3987 
Q 1875 4303 2022 4600 
L 2384 4600 
L 2384 0 
z
" transform="scale(0.015625)"/>
       </defs>
       <use xlink:href="#ArialMT-2212"/>
       <use xlink:href="#ArialMT-31" x="58.398438"/>
       <use xlink:href="#ArialMT-30" x="114.013672"/>
       <use xlink:href="#ArialMT-30" x="169.628906"/>
       <use xlink:href="#ArialMT-30" x="225.244141"/>
       <use xlink:href="#ArialMT-30" x="280.859375"/>
       <use xlink:href="#ArialMT-30" x="336.474609"/>
      </g>
     </g>
    </g>
    <g id="ytick_3">
     <g id="text_5">
      <!-- 0 -->
      <g style="fill: #262626" transform="translate(61.529844 125.702252) scale(0.11 -0.11)">
       <use xlink:href="#ArialMT-30"/>
      </g>
     </g>
    </g>
    <g id="ytick_4">
     <g id="text_6">
      <!-- 100000 -->
      <g style="fill: #262626" transform="translate(30.944688 86.075815) scale(0.11 -0.11)">
       <use xlink:href="#ArialMT-31"/>
       <use xlink:href="#ArialMT-30" x="55.615234"/>
       <use xlink:href="#ArialMT-30" x="111.230469"/>
       <use xlink:href="#ArialMT-30" x="166.845703"/>
       <use xlink:href="#ArialMT-30" x="222.460938"/>
       <use xlink:href="#ArialMT-30" x="278.076172"/>
      </g>
     </g>
    </g>
    <g id="ytick_5">
     <g id="text_7">
      <!-- 200000 -->
      <g style="fill: #262626" transform="translate(30.944688 46.449377) scale(0.11 -0.11)">
       <use xlink:href="#ArialMT-32"/>
       <use xlink:href="#ArialMT-30" x="55.615234"/>
       <use xlink:href="#ArialMT-30" x="111.230469"/>
       <use xlink:href="#ArialMT-30" x="166.845703"/>
       <use xlink:href="#ArialMT-30" x="222.460938"/>
       <use xlink:href="#ArialMT-30" x="278.076172"/>
      </g>
     </g>
    </g>
    <g id="text_8">
     <!-- GMV residuals [mm$^3$] -->
     <g style="fill: #262626" transform="translate(18.12 175.32) rotate(-90) scale(0.12 -0.12)">
      <defs>
       <path id="ArialMT-47" d="M 2638 1797 
L 2638 2334 
L 4578 2338 
L 4578 638 
Q 4131 281 3656 101 
Q 3181 -78 2681 -78 
Q 2006 -78 1454 211 
Q 903 500 622 1047 
Q 341 1594 341 2269 
Q 341 2938 620 3517 
Q 900 4097 1425 4378 
Q 1950 4659 2634 4659 
Q 3131 4659 3532 4498 
Q 3934 4338 4162 4050 
Q 4391 3763 4509 3300 
L 3963 3150 
Q 3859 3500 3706 3700 
Q 3553 3900 3268 4020 
Q 2984 4141 2638 4141 
Q 2222 4141 1919 4014 
Q 1616 3888 1430 3681 
Q 1244 3475 1141 3228 
Q 966 2803 966 2306 
Q 966 1694 1177 1281 
Q 1388 869 1791 669 
Q 2194 469 2647 469 
Q 3041 469 3416 620 
Q 3791 772 3984 944 
L 3984 1797 
L 2638 1797 
z
" transform="scale(0.015625)"/>
       <path id="ArialMT-4d" d="M 475 0 
L 475 4581 
L 1388 4581 
L 2472 1338 
Q 2622 884 2691 659 
Q 2769 909 2934 1394 
L 4031 4581 
L 4847 4581 
L 4847 0 
L 4263 0 
L 4263 3834 
L 2931 0 
L 2384 0 
L 1059 3900 
L 1059 0 
L 475 0 
z
" transform="scale(0.015625)"/>
       <path id="ArialMT-56" d="M 1803 0 
L 28 4581 
L 684 4581 
L 1875 1253 
Q 2019 853 2116 503 
Q 2222 878 2363 1253 
L 3600 4581 
L 4219 4581 
L 2425 0 
L 1803 0 
z
" transform="scale(0.015625)"/>
       <path id="ArialMT-20" transform="scale(0.015625)"/>
       <path id="ArialMT-73" d="M 197 991 
L 753 1078 
Q 800 744 1014 566 
Q 1228 388 1613 388 
Q 2000 388 2187 545 
Q 2375 703 2375 916 
Q 2375 1106 2209 1216 
Q 2094 1291 1634 1406 
Q 1016 1563 777 1677 
Q 538 1791 414 1992 
Q 291 2194 291 2438 
Q 291 2659 392 2848 
Q 494 3038 669 3163 
Q 800 3259 1026 3326 
Q 1253 3394 1513 3394 
Q 1903 3394 2198 3281 
Q 2494 3169 2634 2976 
Q 2775 2784 2828 2463 
L 2278 2388 
Q 2241 2644 2061 2787 
Q 1881 2931 1553 2931 
Q 1166 2931 1000 2803 
Q 834 2675 834 2503 
Q 834 2394 903 2306 
Q 972 2216 1119 2156 
Q 1203 2125 1616 2013 
Q 2213 1853 2448 1751 
Q 2684 1650 2818 1456 
Q 2953 1263 2953 975 
Q 2953 694 2789 445 
Q 2625 197 2315 61 
Q 2006 -75 1616 -75 
Q 969 -75 630 194 
Q 291 463 197 991 
z
" transform="scale(0.015625)"/>
       <path id="ArialMT-69" d="M 425 3934 
L 425 4581 
L 988 4581 
L 988 3934 
L 425 3934 
z
M 425 0 
L 425 3319 
L 988 3319 
L 988 0 
L 425 0 
z
" transform="scale(0.015625)"/>
       <path id="ArialMT-64" d="M 2575 0 
L 2575 419 
Q 2259 -75 1647 -75 
Q 1250 -75 917 144 
Q 584 363 401 755 
Q 219 1147 219 1656 
Q 219 2153 384 2558 
Q 550 2963 881 3178 
Q 1213 3394 1622 3394 
Q 1922 3394 2156 3267 
Q 2391 3141 2538 2938 
L 2538 4581 
L 3097 4581 
L 3097 0 
L 2575 0 
z
M 797 1656 
Q 797 1019 1065 703 
Q 1334 388 1700 388 
Q 2069 388 2326 689 
Q 2584 991 2584 1609 
Q 2584 2291 2321 2609 
Q 2059 2928 1675 2928 
Q 1300 2928 1048 2622 
Q 797 2316 797 1656 
z
" transform="scale(0.015625)"/>
       <path id="ArialMT-75" d="M 2597 0 
L 2597 488 
Q 2209 -75 1544 -75 
Q 1250 -75 995 37 
Q 741 150 617 320 
Q 494 491 444 738 
Q 409 903 409 1263 
L 409 3319 
L 972 3319 
L 972 1478 
Q 972 1038 1006 884 
Q 1059 663 1231 536 
Q 1403 409 1656 409 
Q 1909 409 2131 539 
Q 2353 669 2445 892 
Q 2538 1116 2538 1541 
L 2538 3319 
L 3100 3319 
L 3100 0 
L 2597 0 
z
" transform="scale(0.015625)"/>
       <path id="ArialMT-61" d="M 2588 409 
Q 2275 144 1986 34 
Q 1697 -75 1366 -75 
Q 819 -75 525 192 
Q 231 459 231 875 
Q 231 1119 342 1320 
Q 453 1522 633 1644 
Q 813 1766 1038 1828 
Q 1203 1872 1538 1913 
Q 2219 1994 2541 2106 
Q 2544 2222 2544 2253 
Q 2544 2597 2384 2738 
Q 2169 2928 1744 2928 
Q 1347 2928 1158 2789 
Q 969 2650 878 2297 
L 328 2372 
Q 403 2725 575 2942 
Q 747 3159 1072 3276 
Q 1397 3394 1825 3394 
Q 2250 3394 2515 3294 
Q 2781 3194 2906 3042 
Q 3031 2891 3081 2659 
Q 3109 2516 3109 2141 
L 3109 1391 
Q 3109 606 3145 398 
Q 3181 191 3288 0 
L 2700 0 
Q 2613 175 2588 409 
z
M 2541 1666 
Q 2234 1541 1622 1453 
Q 1275 1403 1131 1340 
Q 988 1278 909 1158 
Q 831 1038 831 891 
Q 831 666 1001 516 
Q 1172 366 1500 366 
Q 1825 366 2078 508 
Q 2331 650 2450 897 
Q 2541 1088 2541 1459 
L 2541 1666 
z
" transform="scale(0.015625)"/>
       <path id="ArialMT-6c" d="M 409 0 
L 409 4581 
L 972 4581 
L 972 0 
L 409 0 
z
" transform="scale(0.015625)"/>
       <path id="ArialMT-5b" d="M 434 -1272 
L 434 4581 
L 1675 4581 
L 1675 4116 
L 997 4116 
L 997 -806 
L 1675 -806 
L 1675 -1272 
L 434 -1272 
z
" transform="scale(0.015625)"/>
       <path id="DejaVuSans-33" d="M 2597 2516 
Q 3050 2419 3304 2112 
Q 3559 1806 3559 1356 
Q 3559 666 3084 287 
Q 2609 -91 1734 -91 
Q 1441 -91 1130 -33 
Q 819 25 488 141 
L 488 750 
Q 750 597 1062 519 
Q 1375 441 1716 441 
Q 2309 441 2620 675 
Q 2931 909 2931 1356 
Q 2931 1769 2642 2001 
Q 2353 2234 1838 2234 
L 1294 2234 
L 1294 2753 
L 1863 2753 
Q 2328 2753 2575 2939 
Q 2822 3125 2822 3475 
Q 2822 3834 2567 4026 
Q 2313 4219 1838 4219 
Q 1578 4219 1281 4162 
Q 984 4106 628 3988 
L 628 4550 
Q 988 4650 1302 4700 
Q 1616 4750 1894 4750 
Q 2613 4750 3031 4423 
Q 3450 4097 3450 3541 
Q 3450 3153 3228 2886 
Q 3006 2619 2597 2516 
z
" transform="scale(0.015625)"/>
       <path id="ArialMT-5d" d="M 1363 -1272 
L 122 -1272 
L 122 -806 
L 800 -806 
L 800 4116 
L 122 4116 
L 122 4581 
L 1363 4581 
L 1363 -1272 
z
" transform="scale(0.015625)"/>
      </defs>
      <use xlink:href="#ArialMT-47" transform="translate(0 0.765625)"/>
      <use xlink:href="#ArialMT-4d" transform="translate(77.783203 0.765625)"/>
      <use xlink:href="#ArialMT-56" transform="translate(161.083984 0.765625)"/>
      <use xlink:href="#ArialMT-20" transform="translate(227.783203 0.765625)"/>
      <use xlink:href="#ArialMT-72" transform="translate(255.566406 0.765625)"/>
      <use xlink:href="#ArialMT-65" transform="translate(288.867188 0.765625)"/>
      <use xlink:href="#ArialMT-73" transform="translate(344.482422 0.765625)"/>
      <use xlink:href="#ArialMT-69" transform="translate(394.482422 0.765625)"/>
      <use xlink:href="#ArialMT-64" transform="translate(416.699219 0.765625)"/>
      <use xlink:href="#ArialMT-75" transform="translate(472.314453 0.765625)"/>
      <use xlink:href="#ArialMT-61" transform="translate(527.929688 0.765625)"/>
      <use xlink:href="#ArialMT-6c" transform="translate(583.544922 0.765625)"/>
      <use xlink:href="#ArialMT-73" transform="translate(605.761719 0.765625)"/>
      <use xlink:href="#ArialMT-20" transform="translate(655.761719 0.765625)"/>
      <use xlink:href="#ArialMT-5b" transform="translate(683.544922 0.765625)"/>
      <use xlink:href="#ArialMT-6d" transform="translate(711.328125 0.765625)"/>
      <use xlink:href="#ArialMT-6d" transform="translate(794.628906 0.765625)"/>
      <use xlink:href="#DejaVuSans-33" transform="translate(878.886719 39.046875) scale(0.7)"/>
      <use xlink:href="#ArialMT-5d" transform="translate(926.157227 0.765625)"/>
     </g>
    </g>
   </g>
   <g id="PolyCollection_1">
    <defs>
     <path id="mb632c06266" d="M 118.580877 -44.784422 
L 118.567418 -44.784422 
L 118.557497 -46.740538 
L 118.540977 -48.696653 
L 118.520324 -50.652768 
L 118.501076 -52.608884 
L 118.4862 -54.564999 
L 118.470651 -56.521115 
L 118.443297 -58.47723 
L 118.39448 -60.433345 
L 118.320607 -62.389461 
L 118.223205 -64.345576 
L 118.10781 -66.301691 
L 117.984392 -68.257807 
L 117.86417 -70.213922 
L 117.750573 -72.170037 
L 117.628662 -74.126153 
L 117.459323 -76.082268 
L 117.185695 -78.038384 
L 116.755415 -79.994499 
L 116.148048 -81.950614 
L 115.389545 -83.90673 
L 114.541202 -85.862845 
L 113.659118 -87.81896 
L 112.746845 -89.775076 
L 111.756438 -91.731191 
L 110.653652 -93.687307 
L 109.468748 -95.643422 
L 108.258897 -97.599537 
L 107.029308 -99.555653 
L 105.716107 -101.511768 
L 104.251922 -103.467883 
L 102.644024 -105.423999 
L 100.990136 -107.380114 
L 99.410364 -109.336229 
L 97.939067 -111.292345 
L 96.471751 -113.24846 
L 94.849896 -115.204576 
L 93.044619 -117.160691 
L 91.256594 -119.116806 
L 89.790175 -121.072922 
L 88.799522 -123.029037 
L 88.15935 -124.985152 
L 87.581662 -126.941268 
L 86.852377 -128.897383 
L 85.983264 -130.853499 
L 85.191728 -132.809614 
L 84.755966 -134.765729 
L 84.851808 -136.721845 
L 85.469525 -138.67796 
L 86.442962 -140.634075 
L 87.55883 -142.590191 
L 88.68927 -144.546306 
L 89.855529 -146.502421 
L 91.149001 -148.458537 
L 92.59306 -150.414652 
L 94.116452 -152.370768 
L 95.649741 -154.326883 
L 97.197179 -156.282998 
L 98.81 -158.239114 
L 100.522086 -160.195229 
L 102.31417 -162.151344 
L 104.117267 -164.10746 
L 105.839913 -166.063575 
L 107.401354 -168.019691 
L 108.76283 -169.975806 
L 109.947178 -171.931921 
L 111.020057 -173.888037 
L 112.030636 -175.844152 
L 112.966051 -177.800267 
L 113.771463 -179.756383 
L 114.41629 -181.712498 
L 114.936322 -183.668613 
L 115.410436 -185.624729 
L 115.899222 -187.580844 
L 116.403459 -189.53696 
L 116.874392 -191.493075 
L 117.261018 -193.44919 
L 117.549341 -195.405306 
L 117.760461 -197.361421 
L 117.920295 -199.317536 
L 118.041304 -201.273652 
L 118.13169 -203.229767 
L 118.207327 -205.185882 
L 118.283583 -207.141998 
L 118.359958 -209.098113 
L 118.421623 -211.054229 
L 118.45572 -213.010344 
L 118.462649 -214.966459 
L 118.454572 -216.922575 
L 118.447192 -218.87869 
L 118.451014 -220.834805 
L 118.466509 -222.790921 
L 118.486647 -224.747036 
L 118.50431 -226.703152 
L 118.517584 -228.659267 
L 118.529019 -230.615382 
L 118.541119 -232.571498 
L 118.553353 -234.527613 
L 118.563323 -236.483728 
L 118.569584 -238.439844 
L 118.578711 -238.439844 
L 118.578711 -238.439844 
L 118.584973 -236.483728 
L 118.594943 -234.527613 
L 118.607176 -232.571498 
L 118.619276 -230.615382 
L 118.630711 -228.659267 
L 118.643985 -226.703152 
L 118.661648 -224.747036 
L 118.681786 -222.790921 
L 118.697281 -220.834805 
L 118.701103 -218.87869 
L 118.693723 -216.922575 
L 118.685646 -214.966459 
L 118.692576 -213.010344 
L 118.726673 -211.054229 
L 118.788338 -209.098113 
L 118.864712 -207.141998 
L 118.940969 -205.185882 
L 119.016606 -203.229767 
L 119.106992 -201.273652 
L 119.228001 -199.317536 
L 119.387835 -197.361421 
L 119.598954 -195.405306 
L 119.887278 -193.44919 
L 120.273904 -191.493075 
L 120.744836 -189.53696 
L 121.249073 -187.580844 
L 121.73786 -185.624729 
L 122.211974 -183.668613 
L 122.732005 -181.712498 
L 123.376832 -179.756383 
L 124.182245 -177.800267 
L 125.117659 -175.844152 
L 126.128239 -173.888037 
L 127.201117 -171.931921 
L 128.385466 -169.975806 
L 129.746941 -168.019691 
L 131.308382 -166.063575 
L 133.031028 -164.10746 
L 134.834125 -162.151344 
L 136.62621 -160.195229 
L 138.338296 -158.239114 
L 139.951116 -156.282998 
L 141.498555 -154.326883 
L 143.031844 -152.370768 
L 144.555236 -150.414652 
L 145.999294 -148.458537 
L 147.292766 -146.502421 
L 148.459025 -144.546306 
L 149.589466 -142.590191 
L 150.705333 -140.634075 
L 151.67877 -138.67796 
L 152.296487 -136.721845 
L 152.39233 -134.765729 
L 151.956567 -132.809614 
L 151.165031 -130.853499 
L 150.295918 -128.897383 
L 149.566634 -126.941268 
L 148.988945 -124.985152 
L 148.348774 -123.029037 
L 147.35812 -121.072922 
L 145.891702 -119.116806 
L 144.103676 -117.160691 
L 142.298399 -115.204576 
L 140.676545 -113.24846 
L 139.209228 -111.292345 
L 137.737932 -109.336229 
L 136.15816 -107.380114 
L 134.504272 -105.423999 
L 132.896374 -103.467883 
L 131.432189 -101.511768 
L 130.118988 -99.555653 
L 128.889398 -97.599537 
L 127.679547 -95.643422 
L 126.494643 -93.687307 
L 125.391857 -91.731191 
L 124.401451 -89.775076 
L 123.489177 -87.81896 
L 122.607093 -85.862845 
L 121.75875 -83.90673 
L 121.000248 -81.950614 
L 120.39288 -79.994499 
L 119.9626 -78.038384 
L 119.688972 -76.082268 
L 119.519633 -74.126153 
L 119.397723 -72.170037 
L 119.284126 -70.213922 
L 119.163904 -68.257807 
L 119.040485 -66.301691 
L 118.92509 -64.345576 
L 118.827688 -62.389461 
L 118.753816 -60.433345 
L 118.704999 -58.47723 
L 118.677644 -56.521115 
L 118.662096 -54.564999 
L 118.64722 -52.608884 
L 118.627971 -50.652768 
L 118.607318 -48.696653 
L 118.590798 -46.740538 
L 118.580877 -44.784422 
z
" style="stroke: #4c4c4c; stroke-width: 0.5"/>
    </defs>
    <g clip-path="url(#pc8d8dc9b23)">
     <use xlink:href="#mb632c06266" x="0" y="255.719844" style="fill: #5573cd; stroke: #4c4c4c; stroke-width: 0.5"/>
    </g>
   </g>
   <g id="PolyCollection_2">
    <defs>
     <path id="m8d03c7e456" d="M 203.192214 -36.839844 
L 203.046991 -36.839844 
L 203.009185 -38.666343 
L 202.959054 -40.492842 
L 202.896155 -42.319341 
L 202.821493 -44.14584 
L 202.737581 -45.972339 
L 202.648078 -47.798838 
L 202.556963 -49.625337 
L 202.467428 -51.451836 
L 202.380769 -53.278335 
L 202.29561 -55.104834 
L 202.207706 -56.931333 
L 202.110377 -58.757832 
L 201.995437 -60.584331 
L 201.854332 -62.410831 
L 201.679205 -64.23733 
L 201.463677 -66.063829 
L 201.203218 -67.890328 
L 200.895084 -69.716827 
L 200.537783 -71.543326 
L 200.130082 -73.369825 
L 199.669644 -75.196324 
L 199.151558 -77.022823 
L 198.5672 -78.849322 
L 197.903955 -80.675821 
L 197.146254 -82.50232 
L 196.27802 -84.328819 
L 195.286189 -86.155318 
L 194.164522 -87.981817 
L 192.916665 -89.808316 
L 191.55749 -91.634815 
L 190.112064 -93.461314 
L 188.612252 -95.287814 
L 187.091594 -97.114313 
L 185.579709 -98.940812 
L 184.097762 -100.767311 
L 182.6563 -102.59381 
L 181.256132 -104.420309 
L 179.891951 -106.246808 
L 178.557465 -108.073307 
L 177.250342 -109.899806 
L 175.975436 -111.726305 
L 174.745569 -113.552804 
L 173.580165 -115.379303 
L 172.502809 -117.205802 
L 171.538987 -119.032301 
L 170.714711 -120.8588 
L 170.055868 -122.685299 
L 169.58736 -124.511798 
L 169.330957 -126.338298 
L 169.30142 -128.164797 
L 169.501656 -129.991296 
L 169.918729 -131.817795 
L 170.523023 -133.644294 
L 171.272062 -135.470793 
L 172.118909 -137.297292 
L 173.022991 -139.123791 
L 173.959932 -140.95029 
L 174.926832 -142.776789 
L 175.940933 -144.603288 
L 177.031877 -146.429787 
L 178.23012 -148.256286 
L 179.555312 -150.082785 
L 181.008308 -151.909284 
L 182.568907 -153.735783 
L 184.199409 -155.562282 
L 185.852219 -157.388781 
L 187.478891 -159.215281 
L 189.038165 -161.04178 
L 190.501344 -162.868279 
L 191.854431 -164.694778 
L 193.097198 -166.521277 
L 194.239855 -168.347776 
L 195.29818 -170.174275 
L 196.288128 -172.000774 
L 197.220999 -173.827273 
L 198.100187 -175.653772 
L 198.920234 -177.480271 
L 199.668351 -179.30677 
L 200.327971 -181.133269 
L 200.883313 -182.959768 
L 201.323809 -184.786267 
L 201.647314 -186.612766 
L 201.861483 -188.439265 
L 201.983153 -190.265764 
L 202.036016 -192.092264 
L 202.047151 -193.918763 
L 202.043144 -195.745262 
L 202.046493 -197.571761 
L 202.072964 -199.39826 
L 202.130299 -201.224759 
L 202.218435 -203.051258 
L 202.331049 -204.877757 
L 202.457973 -206.704256 
L 202.587862 -208.530755 
L 202.710522 -210.357254 
L 202.818465 -212.183753 
L 202.907553 -214.010252 
L 202.976803 -215.836751 
L 203.027654 -217.66325 
L 203.21155 -217.66325 
L 203.21155 -217.66325 
L 203.262401 -215.836751 
L 203.331651 -214.010252 
L 203.420739 -212.183753 
L 203.528683 -210.357254 
L 203.651342 -208.530755 
L 203.781232 -206.704256 
L 203.908156 -204.877757 
L 204.02077 -203.051258 
L 204.108905 -201.224759 
L 204.166241 -199.39826 
L 204.192712 -197.571761 
L 204.196061 -195.745262 
L 204.192053 -193.918763 
L 204.203189 -192.092264 
L 204.256051 -190.265764 
L 204.377721 -188.439265 
L 204.591891 -186.612766 
L 204.915396 -184.786267 
L 205.355892 -182.959768 
L 205.911234 -181.133269 
L 206.570853 -179.30677 
L 207.318971 -177.480271 
L 208.139017 -175.653772 
L 209.018206 -173.827273 
L 209.951077 -172.000774 
L 210.941024 -170.174275 
L 211.999349 -168.347776 
L 213.142007 -166.521277 
L 214.384774 -164.694778 
L 215.73786 -162.868279 
L 217.201039 -161.04178 
L 218.760313 -159.215281 
L 220.386986 -157.388781 
L 222.039795 -155.562282 
L 223.670298 -153.735783 
L 225.230897 -151.909284 
L 226.683892 -150.082785 
L 228.009085 -148.256286 
L 229.207327 -146.429787 
L 230.298272 -144.603288 
L 231.312372 -142.776789 
L 232.279273 -140.95029 
L 233.216213 -139.123791 
L 234.120296 -137.297292 
L 234.967142 -135.470793 
L 235.716182 -133.644294 
L 236.320475 -131.817795 
L 236.737549 -129.991296 
L 236.937784 -128.164797 
L 236.908248 -126.338298 
L 236.651844 -124.511798 
L 236.183337 -122.685299 
L 235.524494 -120.8588 
L 234.700218 -119.032301 
L 233.736395 -117.205802 
L 232.65904 -115.379303 
L 231.493635 -113.552804 
L 230.263769 -111.726305 
L 228.988863 -109.899806 
L 227.68174 -108.073307 
L 226.347254 -106.246808 
L 224.983072 -104.420309 
L 223.582904 -102.59381 
L 222.141442 -100.767311 
L 220.659496 -98.940812 
L 219.147611 -97.114313 
L 217.626952 -95.287814 
L 216.127141 -93.461314 
L 214.681715 -91.634815 
L 213.322539 -89.808316 
L 212.074683 -87.981817 
L 210.953015 -86.155318 
L 209.961185 -84.328819 
L 209.092951 -82.50232 
L 208.33525 -80.675821 
L 207.672005 -78.849322 
L 207.087646 -77.022823 
L 206.569561 -75.196324 
L 206.109123 -73.369825 
L 205.701421 -71.543326 
L 205.34412 -69.716827 
L 205.035987 -67.890328 
L 204.775528 -66.063829 
L 204.559999 -64.23733 
L 204.384873 -62.410831 
L 204.243767 -60.584331 
L 204.128827 -58.757832 
L 204.031499 -56.931333 
L 203.943594 -55.104834 
L 203.858435 -53.278335 
L 203.771777 -51.451836 
L 203.682242 -49.625337 
L 203.591127 -47.798838 
L 203.501623 -45.972339 
L 203.417712 -44.14584 
L 203.343049 -42.319341 
L 203.280151 -40.492842 
L 203.230019 -38.666343 
L 203.192214 -36.839844 
z
" style="stroke: #4c4c4c; stroke-width: 0.5"/>
    </defs>
    <g clip-path="url(#pc8d8dc9b23)">
     <use xlink:href="#m8d03c7e456" x="0" y="255.719844" style="fill: #df8920; stroke: #4c4c4c; stroke-width: 0.5"/>
    </g>
   </g>
   <g id="line2d_1">
    <path d="M 118.574148 182.689472 
L 118.574148 60.17101 
" clip-path="url(#pc8d8dc9b23)" style="fill: none; stroke: #4c4c4c; stroke-width: 0.75; stroke-linecap: round"/>
   </g>
   <g id="line2d_2">
    <path d="M 118.574148 137.057856 
L 118.574148 106.297872 
" clip-path="url(#pc8d8dc9b23)" style="fill: none; stroke: #4c4c4c; stroke-width: 2.25; stroke-linecap: round"/>
   </g>
   <g id="line2d_3">
    <path d="M 118.574148 121.466106 
" clip-path="url(#pc8d8dc9b23)" style="fill: none; stroke: #4c4c4c; stroke-width: 1.5; stroke-linecap: round"/>
    <defs>
     <path id="mfa2bfacb3f" d="M 0.9375 0 
L -0.9375 -0 
" style="stroke: #ffffff; stroke-width: 0.45"/>
    </defs>
    <g clip-path="url(#pc8d8dc9b23)">
     <use xlink:href="#mfa2bfacb3f" x="118.574148" y="121.466106" style="fill: #ffffff; stroke: #ffffff; stroke-width: 0.45"/>
    </g>
   </g>
   <g id="line2d_4">
    <path d="M 203.119602 189.74231 
L 203.119602 78.121969 
" clip-path="url(#pc8d8dc9b23)" style="fill: none; stroke: #4c4c4c; stroke-width: 0.75; stroke-linecap: round"/>
   </g>
   <g id="line2d_5">
    <path d="M 203.119602 142.908521 
L 203.119602 110.664148 
" clip-path="url(#pc8d8dc9b23)" style="fill: none; stroke: #4c4c4c; stroke-width: 2.25; stroke-linecap: round"/>
   </g>
   <g id="line2d_6">
    <path d="M 203.119602 127.036772 
" clip-path="url(#pc8d8dc9b23)" style="fill: none; stroke: #4c4c4c; stroke-width: 1.5; stroke-linecap: round"/>
    <g clip-path="url(#pc8d8dc9b23)">
     <use xlink:href="#mfa2bfacb3f" x="203.119602" y="127.036772" style="fill: #ffffff; stroke: #ffffff; stroke-width: 0.45"/>
    </g>
   </g>
   <g id="line2d_7">
    <path d="M 118.574148 46.86541 
L 118.574148 42.43021 
L 203.119602 42.43021 
L 203.119602 46.86541 
" style="fill: none; stroke: #333333; stroke-width: 0.5; stroke-linecap: round"/>
   </g>
   <g id="patch_3">
    <path d="M 77.146875 228.96 
L 77.146875 7.2 
" style="fill: none; stroke: #262626; stroke-width: 1.25; stroke-linejoin: miter; stroke-linecap: square"/>
   </g>
   <g id="patch_4">
    <path d="M 77.146875 228.96 
L 244.546875 228.96 
" style="fill: none; stroke: #262626; stroke-width: 1.25; stroke-linejoin: miter; stroke-linecap: square"/>
   </g>
   <g id="text_9">
    <!-- *** -->
    <g style="fill: #262626" transform="translate(153.840938 39.04521) scale(0.12 -0.12)">
     <defs>
      <path id="ArialMT-2a" d="M 200 3741 
L 344 4184 
Q 841 4009 1066 3881 
Q 1006 4447 1003 4659 
L 1456 4659 
Q 1447 4350 1384 3884 
Q 1706 4047 2122 4184 
L 2266 3741 
Q 1869 3609 1488 3566 
Q 1678 3400 2025 2975 
L 1650 2709 
Q 1469 2956 1222 3381 
Q 991 2941 816 2709 
L 447 2975 
Q 809 3422 966 3566 
Q 563 3644 200 3741 
z
" transform="scale(0.015625)"/>
     </defs>
     <use xlink:href="#ArialMT-2a"/>
     <use xlink:href="#ArialMT-2a" x="38.916016"/>
     <use xlink:href="#ArialMT-2a" x="77.832031"/>
    </g>
   </g>
  </g>
 </g>
 <defs>
  <clipPath id="pc8d8dc9b23">
   <rect x="77.146875" y="7.2" width="167.4" height="221.76"/>
  </clipPath>
 </defs>
</svg>
