<?xml version="1.0" encoding="utf-8" standalone="no"?>
<!DOCTYPE svg PUBLIC "-//W3C//DTD SVG 1.1//EN"
  "http://www.w3.org/Graphics/SVG/1.1/DTD/svg11.dtd">
<svg xmlns:xlink="http://www.w3.org/1999/xlink" width="267.94875pt" height="258.463437pt" viewBox="0 0 267.94875 258.463437" xmlns="http://www.w3.org/2000/svg" version="1.1">
 <metadata>
  <rdf:RDF xmlns:dc="http://purl.org/dc/elements/1.1/" xmlns:cc="http://creativecommons.org/ns#" xmlns:rdf="http://www.w3.org/1999/02/22-rdf-syntax-ns#">
   <cc:Work>
    <dc:type rdf:resource="http://purl.org/dc/dcmitype/StillImage"/>
    <dc:date>2025-08-13T14:45:49.920270</dc:date>
    <dc:format>image/svg+xml</dc:format>
    <dc:creator>
     <cc:Agent>
      <dc:title>Matplotlib v3.9.2, https://matplotlib.org/</dc:title>
     </cc:Agent>
    </dc:creator>
   </cc:Work>
  </rdf:RDF>
 </metadata>
 <defs>
  <style type="text/css">*{stroke-linejoin: round; stroke-linecap: butt}</style>
 </defs>
 <g id="figure_1">
  <g id="patch_1">
   <path d="M 0 258.463437 
L 267.94875 258.463437 
L 267.94875 0 
L 0 0 
z
" style="fill: #ffffff"/>
  </g>
  <g id="axes_1">
   <g id="patch_2">
    <path d="M 93.34875 228.96 
L 260.74875 228.96 
L 260.74875 7.2 
L 93.34875 7.2 
z
" style="fill: #ffffff"/>
   </g>
   <g id="matplotlib.axis_1">
    <g id="xtick_1">
     <g id="text_1">
      <!-- Full-term -->
      <g style="fill: #262626" transform="translate(107.167585 248.480937) scale(0.14 -0.14)">
       <defs>
        <path id="ArialMT-46" d="M 525 0 
L 525 4581 
L 3616 4581 
L 3616 4041 
L 1131 4041 
L 1131 2622 
L 3281 2622 
L 3281 2081 
L 1131 2081 
L 1131 0 
L 525 0 
z
" transform="scale(0.015625)"/>
        <path id="ArialMT-75" d="M 2597 0 
L 2597 488 
Q 2209 -75 1544 -75 
Q 1250 -75 995 37 
Q 741 150 617 320 
Q 494 491 444 738 
Q 409 903 409 1263 
L 409 3319 
L 972 3319 
L 972 1478 
Q 972 1038 1006 884 
Q 1059 663 1231 536 
Q 1403 409 1656 409 
Q 1909 409 2131 539 
Q 2353 669 2445 892 
Q 2538 1116 2538 1541 
L 2538 3319 
L 3100 3319 
L 3100 0 
L 2597 0 
z
" transform="scale(0.015625)"/>
        <path id="ArialMT-6c" d="M 409 0 
L 409 4581 
L 972 4581 
L 972 0 
L 409 0 
z
" transform="scale(0.015625)"/>
        <path id="ArialMT-2d" d="M 203 1375 
L 203 1941 
L 1931 1941 
L 1931 1375 
L 203 1375 
z
" transform="scale(0.015625)"/>
        <path id="ArialMT-74" d="M 1650 503 
L 1731 6 
Q 1494 -44 1306 -44 
Q 1000 -44 831 53 
Q 663 150 594 308 
Q 525 466 525 972 
L 525 2881 
L 113 2881 
L 113 3319 
L 525 3319 
L 525 4141 
L 1084 4478 
L 1084 3319 
L 1650 3319 
L 1650 2881 
L 1084 2881 
L 1084 941 
Q 1084 700 1114 631 
Q 1144 563 1211 522 
Q 1278 481 1403 481 
Q 1497 481 1650 503 
z
" transform="scale(0.015625)"/>
        <path id="ArialMT-65" d="M 2694 1069 
L 3275 997 
Q 3138 488 2766 206 
Q 2394 -75 1816 -75 
Q 1088 -75 661 373 
Q 234 822 234 1631 
Q 234 2469 665 2931 
Q 1097 3394 1784 3394 
Q 2450 3394 2872 2941 
Q 3294 2488 3294 1666 
Q 3294 1616 3291 1516 
L 816 1516 
Q 847 969 1125 678 
Q 1403 388 1819 388 
Q 2128 388 2347 550 
Q 2566 713 2694 1069 
z
M 847 1978 
L 2700 1978 
Q 2663 2397 2488 2606 
Q 2219 2931 1791 2931 
Q 1403 2931 1139 2672 
Q 875 2413 847 1978 
z
" transform="scale(0.015625)"/>
        <path id="ArialMT-72" d="M 416 0 
L 416 3319 
L 922 3319 
L 922 2816 
Q 1116 3169 1280 3281 
Q 1444 3394 1641 3394 
Q 1925 3394 2219 3213 
L 2025 2691 
Q 1819 2813 1613 2813 
Q 1428 2813 1281 2702 
Q 1134 2591 1072 2394 
Q 978 2094 978 1738 
L 978 0 
L 416 0 
z
" transform="scale(0.015625)"/>
        <path id="ArialMT-6d" d="M 422 0 
L 422 3319 
L 925 3319 
L 925 2853 
Q 1081 3097 1340 3245 
Q 1600 3394 1931 3394 
Q 2300 3394 2536 3241 
Q 2772 3088 2869 2813 
Q 3263 3394 3894 3394 
Q 4388 3394 4653 3120 
Q 4919 2847 4919 2278 
L 4919 0 
L 4359 0 
L 4359 2091 
Q 4359 2428 4304 2576 
Q 4250 2725 4106 2815 
Q 3963 2906 3769 2906 
Q 3419 2906 3187 2673 
Q 2956 2441 2956 1928 
L 2956 0 
L 2394 0 
L 2394 2156 
Q 2394 2531 2256 2718 
Q 2119 2906 1806 2906 
Q 1569 2906 1367 2781 
Q 1166 2656 1075 2415 
Q 984 2175 984 1722 
L 984 0 
L 422 0 
z
" transform="scale(0.015625)"/>
       </defs>
       <use xlink:href="#ArialMT-46"/>
       <use xlink:href="#ArialMT-75" x="61.083984"/>
       <use xlink:href="#ArialMT-6c" x="116.699219"/>
       <use xlink:href="#ArialMT-6c" x="138.916016"/>
       <use xlink:href="#ArialMT-2d" x="161.132812"/>
       <use xlink:href="#ArialMT-74" x="194.433594"/>
       <use xlink:href="#ArialMT-65" x="222.216797"/>
       <use xlink:href="#ArialMT-72" x="277.832031"/>
       <use xlink:href="#ArialMT-6d" x="311.132812"/>
      </g>
     </g>
    </g>
    <g id="xtick_2">
     <g id="text_2">
      <!-- Preterm -->
      <g style="fill: #262626" transform="translate(194.429915 248.480937) scale(0.14 -0.14)">
       <defs>
        <path id="ArialMT-50" d="M 494 0 
L 494 4581 
L 2222 4581 
Q 2678 4581 2919 4538 
Q 3256 4481 3484 4323 
Q 3713 4166 3852 3881 
Q 3991 3597 3991 3256 
Q 3991 2672 3619 2267 
Q 3247 1863 2275 1863 
L 1100 1863 
L 1100 0 
L 494 0 
z
M 1100 2403 
L 2284 2403 
Q 2872 2403 3119 2622 
Q 3366 2841 3366 3238 
Q 3366 3525 3220 3729 
Q 3075 3934 2838 4000 
Q 2684 4041 2272 4041 
L 1100 4041 
L 1100 2403 
z
" transform="scale(0.015625)"/>
       </defs>
       <use xlink:href="#ArialMT-50"/>
       <use xlink:href="#ArialMT-72" x="66.699219"/>
       <use xlink:href="#ArialMT-65" x="100"/>
       <use xlink:href="#ArialMT-74" x="155.615234"/>
       <use xlink:href="#ArialMT-65" x="183.398438"/>
       <use xlink:href="#ArialMT-72" x="239.013672"/>
       <use xlink:href="#ArialMT-6d" x="272.314453"/>
      </g>
     </g>
    </g>
   </g>
   <g id="matplotlib.axis_2">
    <g id="ytick_1">
     <g id="text_3">
      <!-- −200000 -->
      <g style="fill: #262626" transform="translate(28.96 206.028799) scale(0.14 -0.14)">
       <defs>
        <path id="ArialMT-2212" d="M 3381 1997 
L 356 1997 
L 356 2522 
L 3381 2522 
L 3381 1997 
z
" transform="scale(0.015625)"/>
        <path id="ArialMT-32" d="M 3222 541 
L 3222 0 
L 194 0 
Q 188 203 259 391 
Q 375 700 629 1000 
Q 884 1300 1366 1694 
Q 2113 2306 2375 2664 
Q 2638 3022 2638 3341 
Q 2638 3675 2398 3904 
Q 2159 4134 1775 4134 
Q 1369 4134 1125 3890 
Q 881 3647 878 3216 
L 300 3275 
Q 359 3922 746 4261 
Q 1134 4600 1788 4600 
Q 2447 4600 2831 4234 
Q 3216 3869 3216 3328 
Q 3216 3053 3103 2787 
Q 2991 2522 2730 2228 
Q 2469 1934 1863 1422 
Q 1356 997 1212 845 
Q 1069 694 975 541 
L 3222 541 
z
" transform="scale(0.015625)"/>
        <path id="ArialMT-30" d="M 266 2259 
Q 266 3072 433 3567 
Q 600 4063 929 4331 
Q 1259 4600 1759 4600 
Q 2128 4600 2406 4451 
Q 2684 4303 2865 4023 
Q 3047 3744 3150 3342 
Q 3253 2941 3253 2259 
Q 3253 1453 3087 958 
Q 2922 463 2592 192 
Q 2263 -78 1759 -78 
Q 1097 -78 719 397 
Q 266 969 266 2259 
z
M 844 2259 
Q 844 1131 1108 757 
Q 1372 384 1759 384 
Q 2147 384 2411 759 
Q 2675 1134 2675 2259 
Q 2675 3391 2411 3762 
Q 2147 4134 1753 4134 
Q 1366 4134 1134 3806 
Q 844 3388 844 2259 
z
" transform="scale(0.015625)"/>
       </defs>
       <use xlink:href="#ArialMT-2212"/>
       <use xlink:href="#ArialMT-32" x="58.398438"/>
       <use xlink:href="#ArialMT-30" x="114.013672"/>
       <use xlink:href="#ArialMT-30" x="169.628906"/>
       <use xlink:href="#ArialMT-30" x="225.244141"/>
       <use xlink:href="#ArialMT-30" x="280.859375"/>
       <use xlink:href="#ArialMT-30" x="336.474609"/>
      </g>
     </g>
    </g>
    <g id="ytick_2">
     <g id="text_4">
      <!-- −100000 -->
      <g style="fill: #262626" transform="translate(28.96 166.402362) scale(0.14 -0.14)">
       <defs>
        <path id="ArialMT-31" d="M 2384 0 
L 1822 0 
L 1822 3584 
Q 1619 3391 1289 3197 
Q 959 3003 697 2906 
L 697 3450 
Q 1169 3672 1522 3987 
Q 1875 4303 2022 4600 
L 2384 4600 
L 2384 0 
z
" transform="scale(0.015625)"/>
       </defs>
       <use xlink:href="#ArialMT-2212"/>
       <use xlink:href="#ArialMT-31" x="58.398438"/>
       <use xlink:href="#ArialMT-30" x="114.013672"/>
       <use xlink:href="#ArialMT-30" x="169.628906"/>
       <use xlink:href="#ArialMT-30" x="225.244141"/>
       <use xlink:href="#ArialMT-30" x="280.859375"/>
       <use xlink:href="#ArialMT-30" x="336.474609"/>
      </g>
     </g>
    </g>
    <g id="ytick_3">
     <g id="text_5">
      <!-- 0 -->
      <g style="fill: #262626" transform="translate(76.063437 126.775924) scale(0.14 -0.14)">
       <use xlink:href="#ArialMT-30"/>
      </g>
     </g>
    </g>
    <g id="ytick_4">
     <g id="text_6">
      <!-- 100000 -->
      <g style="fill: #262626" transform="translate(37.136875 87.149487) scale(0.14 -0.14)">
       <use xlink:href="#ArialMT-31"/>
       <use xlink:href="#ArialMT-30" x="55.615234"/>
       <use xlink:href="#ArialMT-30" x="111.230469"/>
       <use xlink:href="#ArialMT-30" x="166.845703"/>
       <use xlink:href="#ArialMT-30" x="222.460938"/>
       <use xlink:href="#ArialMT-30" x="278.076172"/>
      </g>
     </g>
    </g>
    <g id="ytick_5">
     <g id="text_7">
      <!-- 200000 -->
      <g style="fill: #262626" transform="translate(37.136875 47.523049) scale(0.14 -0.14)">
       <use xlink:href="#ArialMT-32"/>
       <use xlink:href="#ArialMT-30" x="55.615234"/>
       <use xlink:href="#ArialMT-30" x="111.230469"/>
       <use xlink:href="#ArialMT-30" x="166.845703"/>
       <use xlink:href="#ArialMT-30" x="222.460938"/>
       <use xlink:href="#ArialMT-30" x="278.076172"/>
      </g>
     </g>
    </g>
    <g id="text_8">
     <!-- GMV residuals [mm$^3$] -->
     <g style="fill: #262626" transform="translate(21.76 194.4) rotate(-90) scale(0.16 -0.16)">
      <defs>
       <path id="ArialMT-47" d="M 2638 1797 
L 2638 2334 
L 4578 2338 
L 4578 638 
Q 4131 281 3656 101 
Q 3181 -78 2681 -78 
Q 2006 -78 1454 211 
Q 903 500 622 1047 
Q 341 1594 341 2269 
Q 341 2938 620 3517 
Q 900 4097 1425 4378 
Q 1950 4659 2634 4659 
Q 3131 4659 3532 4498 
Q 3934 4338 4162 4050 
Q 4391 3763 4509 3300 
L 3963 3150 
Q 3859 3500 3706 3700 
Q 3553 3900 3268 4020 
Q 2984 4141 2638 4141 
Q 2222 4141 1919 4014 
Q 1616 3888 1430 3681 
Q 1244 3475 1141 3228 
Q 966 2803 966 2306 
Q 966 1694 1177 1281 
Q 1388 869 1791 669 
Q 2194 469 2647 469 
Q 3041 469 3416 620 
Q 3791 772 3984 944 
L 3984 1797 
L 2638 1797 
z
" transform="scale(0.015625)"/>
       <path id="ArialMT-4d" d="M 475 0 
L 475 4581 
L 1388 4581 
L 2472 1338 
Q 2622 884 2691 659 
Q 2769 909 2934 1394 
L 4031 4581 
L 4847 4581 
L 4847 0 
L 4263 0 
L 4263 3834 
L 2931 0 
L 2384 0 
L 1059 3900 
L 1059 0 
L 475 0 
z
" transform="scale(0.015625)"/>
       <path id="ArialMT-56" d="M 1803 0 
L 28 4581 
L 684 4581 
L 1875 1253 
Q 2019 853 2116 503 
Q 2222 878 2363 1253 
L 3600 4581 
L 4219 4581 
L 2425 0 
L 1803 0 
z
" transform="scale(0.015625)"/>
       <path id="ArialMT-20" transform="scale(0.015625)"/>
       <path id="ArialMT-73" d="M 197 991 
L 753 1078 
Q 800 744 1014 566 
Q 1228 388 1613 388 
Q 2000 388 2187 545 
Q 2375 703 2375 916 
Q 2375 1106 2209 1216 
Q 2094 1291 1634 1406 
Q 1016 1563 777 1677 
Q 538 1791 414 1992 
Q 291 2194 291 2438 
Q 291 2659 392 2848 
Q 494 3038 669 3163 
Q 800 3259 1026 3326 
Q 1253 3394 1513 3394 
Q 1903 3394 2198 3281 
Q 2494 3169 2634 2976 
Q 2775 2784 2828 2463 
L 2278 2388 
Q 2241 2644 2061 2787 
Q 1881 2931 1553 2931 
Q 1166 2931 1000 2803 
Q 834 2675 834 2503 
Q 834 2394 903 2306 
Q 972 2216 1119 2156 
Q 1203 2125 1616 2013 
Q 2213 1853 2448 1751 
Q 2684 1650 2818 1456 
Q 2953 1263 2953 975 
Q 2953 694 2789 445 
Q 2625 197 2315 61 
Q 2006 -75 1616 -75 
Q 969 -75 630 194 
Q 291 463 197 991 
z
" transform="scale(0.015625)"/>
       <path id="ArialMT-69" d="M 425 3934 
L 425 4581 
L 988 4581 
L 988 3934 
L 425 3934 
z
M 425 0 
L 425 3319 
L 988 3319 
L 988 0 
L 425 0 
z
" transform="scale(0.015625)"/>
       <path id="ArialMT-64" d="M 2575 0 
L 2575 419 
Q 2259 -75 1647 -75 
Q 1250 -75 917 144 
Q 584 363 401 755 
Q 219 1147 219 1656 
Q 219 2153 384 2558 
Q 550 2963 881 3178 
Q 1213 3394 1622 3394 
Q 1922 3394 2156 3267 
Q 2391 3141 2538 2938 
L 2538 4581 
L 3097 4581 
L 3097 0 
L 2575 0 
z
M 797 1656 
Q 797 1019 1065 703 
Q 1334 388 1700 388 
Q 2069 388 2326 689 
Q 2584 991 2584 1609 
Q 2584 2291 2321 2609 
Q 2059 2928 1675 2928 
Q 1300 2928 1048 2622 
Q 797 2316 797 1656 
z
" transform="scale(0.015625)"/>
       <path id="ArialMT-61" d="M 2588 409 
Q 2275 144 1986 34 
Q 1697 -75 1366 -75 
Q 819 -75 525 192 
Q 231 459 231 875 
Q 231 1119 342 1320 
Q 453 1522 633 1644 
Q 813 1766 1038 1828 
Q 1203 1872 1538 1913 
Q 2219 1994 2541 2106 
Q 2544 2222 2544 2253 
Q 2544 2597 2384 2738 
Q 2169 2928 1744 2928 
Q 1347 2928 1158 2789 
Q 969 2650 878 2297 
L 328 2372 
Q 403 2725 575 2942 
Q 747 3159 1072 3276 
Q 1397 3394 1825 3394 
Q 2250 3394 2515 3294 
Q 2781 3194 2906 3042 
Q 3031 2891 3081 2659 
Q 3109 2516 3109 2141 
L 3109 1391 
Q 3109 606 3145 398 
Q 3181 191 3288 0 
L 2700 0 
Q 2613 175 2588 409 
z
M 2541 1666 
Q 2234 1541 1622 1453 
Q 1275 1403 1131 1340 
Q 988 1278 909 1158 
Q 831 1038 831 891 
Q 831 666 1001 516 
Q 1172 366 1500 366 
Q 1825 366 2078 508 
Q 2331 650 2450 897 
Q 2541 1088 2541 1459 
L 2541 1666 
z
" transform="scale(0.015625)"/>
       <path id="ArialMT-5b" d="M 434 -1272 
L 434 4581 
L 1675 4581 
L 1675 4116 
L 997 4116 
L 997 -806 
L 1675 -806 
L 1675 -1272 
L 434 -1272 
z
" transform="scale(0.015625)"/>
       <path id="DejaVuSans-33" d="M 2597 2516 
Q 3050 2419 3304 2112 
Q 3559 1806 3559 1356 
Q 3559 666 3084 287 
Q 2609 -91 1734 -91 
Q 1441 -91 1130 -33 
Q 819 25 488 141 
L 488 750 
Q 750 597 1062 519 
Q 1375 441 1716 441 
Q 2309 441 2620 675 
Q 2931 909 2931 1356 
Q 2931 1769 2642 2001 
Q 2353 2234 1838 2234 
L 1294 2234 
L 1294 2753 
L 1863 2753 
Q 2328 2753 2575 2939 
Q 2822 3125 2822 3475 
Q 2822 3834 2567 4026 
Q 2313 4219 1838 4219 
Q 1578 4219 1281 4162 
Q 984 4106 628 3988 
L 628 4550 
Q 988 4650 1302 4700 
Q 1616 4750 1894 4750 
Q 2613 4750 3031 4423 
Q 3450 4097 3450 3541 
Q 3450 3153 3228 2886 
Q 3006 2619 2597 2516 
z
" transform="scale(0.015625)"/>
       <path id="ArialMT-5d" d="M 1363 -1272 
L 122 -1272 
L 122 -806 
L 800 -806 
L 800 4116 
L 122 4116 
L 122 4581 
L 1363 4581 
L 1363 -1272 
z
" transform="scale(0.015625)"/>
      </defs>
      <use xlink:href="#ArialMT-47" transform="translate(0 0.765625)"/>
      <use xlink:href="#ArialMT-4d" transform="translate(77.783203 0.765625)"/>
      <use xlink:href="#ArialMT-56" transform="translate(161.083984 0.765625)"/>
      <use xlink:href="#ArialMT-20" transform="translate(227.783203 0.765625)"/>
      <use xlink:href="#ArialMT-72" transform="translate(255.566406 0.765625)"/>
      <use xlink:href="#ArialMT-65" transform="translate(288.867188 0.765625)"/>
      <use xlink:href="#ArialMT-73" transform="translate(344.482422 0.765625)"/>
      <use xlink:href="#ArialMT-69" transform="translate(394.482422 0.765625)"/>
      <use xlink:href="#ArialMT-64" transform="translate(416.699219 0.765625)"/>
      <use xlink:href="#ArialMT-75" transform="translate(472.314453 0.765625)"/>
      <use xlink:href="#ArialMT-61" transform="translate(527.929688 0.765625)"/>
      <use xlink:href="#ArialMT-6c" transform="translate(583.544922 0.765625)"/>
      <use xlink:href="#ArialMT-73" transform="translate(605.761719 0.765625)"/>
      <use xlink:href="#ArialMT-20" transform="translate(655.761719 0.765625)"/>
      <use xlink:href="#ArialMT-5b" transform="translate(683.544922 0.765625)"/>
      <use xlink:href="#ArialMT-6d" transform="translate(711.328125 0.765625)"/>
      <use xlink:href="#ArialMT-6d" transform="translate(794.628906 0.765625)"/>
      <use xlink:href="#DejaVuSans-33" transform="translate(878.886719 39.046875) scale(0.7)"/>
      <use xlink:href="#ArialMT-5d" transform="translate(926.157227 0.765625)"/>
     </g>
    </g>
   </g>
   <g id="PolyCollection_1">
    <defs>
     <path id="maa97f89478" d="M 134.782752 -47.528016 
L 134.769293 -47.528016 
L 134.759372 -49.484131 
L 134.742852 -51.440247 
L 134.722199 -53.396362 
L 134.702951 -55.352478 
L 134.688075 -57.308593 
L 134.672526 -59.264708 
L 134.645172 -61.220824 
L 134.596355 -63.176939 
L 134.522482 -65.133054 
L 134.42508 -67.08917 
L 134.309685 -69.045285 
L 134.186267 -71.001401 
L 134.066045 -72.957516 
L 133.952448 -74.913631 
L 133.830537 -76.869747 
L 133.661198 -78.825862 
L 133.38757 -80.781977 
L 132.95729 -82.738093 
L 132.349923 -84.694208 
L 131.59142 -86.650323 
L 130.743077 -88.606439 
L 129.860993 -90.562554 
L 128.94872 -92.51867 
L 127.958313 -94.474785 
L 126.855527 -96.4309 
L 125.670623 -98.387016 
L 124.460772 -100.343131 
L 123.231183 -102.299246 
L 121.917982 -104.255362 
L 120.453797 -106.211477 
L 118.845899 -108.167592 
L 117.192011 -110.123708 
L 115.612239 -112.079823 
L 114.140942 -114.035939 
L 112.673626 -115.992054 
L 111.051771 -117.948169 
L 109.246494 -119.904285 
L 107.458469 -121.8604 
L 105.99205 -123.816515 
L 105.001397 -125.772631 
L 104.361225 -127.728746 
L 103.783537 -129.684862 
L 103.054252 -131.640977 
L 102.185139 -133.597092 
L 101.393603 -135.553208 
L 100.957841 -137.509323 
L 101.053683 -139.465438 
L 101.6714 -141.421554 
L 102.644837 -143.377669 
L 103.760705 -145.333784 
L 104.891145 -147.2899 
L 106.057404 -149.246015 
L 107.350876 -151.202131 
L 108.794935 -153.158246 
L 110.318327 -155.114361 
L 111.851616 -157.070477 
L 113.399054 -159.026592 
L 115.011875 -160.982707 
L 116.723961 -162.938823 
L 118.516045 -164.894938 
L 120.319142 -166.851054 
L 122.041788 -168.807169 
L 123.603229 -170.763284 
L 124.964705 -172.7194 
L 126.149053 -174.675515 
L 127.221932 -176.63163 
L 128.232511 -178.587746 
L 129.167926 -180.543861 
L 129.973338 -182.499976 
L 130.618165 -184.456092 
L 131.138197 -186.412207 
L 131.612311 -188.368323 
L 132.101097 -190.324438 
L 132.605334 -192.280553 
L 133.076267 -194.236669 
L 133.462893 -196.192784 
L 133.751216 -198.148899 
L 133.962336 -200.105015 
L 134.12217 -202.06113 
L 134.243179 -204.017246 
L 134.333565 -205.973361 
L 134.409202 -207.929476 
L 134.485458 -209.885592 
L 134.561833 -211.841707 
L 134.623498 -213.797822 
L 134.657595 -215.753938 
L 134.664524 -217.710053 
L 134.656447 -219.666168 
L 134.649067 -221.622284 
L 134.652889 -223.578399 
L 134.668384 -225.534515 
L 134.688522 -227.49063 
L 134.706185 -229.446745 
L 134.719459 -231.402861 
L 134.730894 -233.358976 
L 134.742994 -235.315091 
L 134.755228 -237.271207 
L 134.765198 -239.227322 
L 134.771459 -241.183437 
L 134.780586 -241.183437 
L 134.780586 -241.183437 
L 134.786848 -239.227322 
L 134.796818 -237.271207 
L 134.809051 -235.315091 
L 134.821151 -233.358976 
L 134.832586 -231.402861 
L 134.84586 -229.446745 
L 134.863523 -227.49063 
L 134.883661 -225.534515 
L 134.899156 -223.578399 
L 134.902978 -221.622284 
L 134.895598 -219.666168 
L 134.887521 -217.710053 
L 134.894451 -215.753938 
L 134.928548 -213.797822 
L 134.990213 -211.841707 
L 135.066587 -209.885592 
L 135.142844 -207.929476 
L 135.218481 -205.973361 
L 135.308867 -204.017246 
L 135.429876 -202.06113 
L 135.58971 -200.105015 
L 135.800829 -198.148899 
L 136.089153 -196.192784 
L 136.475779 -194.236669 
L 136.946711 -192.280553 
L 137.450948 -190.324438 
L 137.939735 -188.368323 
L 138.413849 -186.412207 
L 138.93388 -184.456092 
L 139.578707 -182.499976 
L 140.38412 -180.543861 
L 141.319534 -178.587746 
L 142.330114 -176.63163 
L 143.402992 -174.675515 
L 144.587341 -172.7194 
L 145.948816 -170.763284 
L 147.510257 -168.807169 
L 149.232903 -166.851054 
L 151.036 -164.894938 
L 152.828085 -162.938823 
L 154.540171 -160.982707 
L 156.152991 -159.026592 
L 157.70043 -157.070477 
L 159.233719 -155.114361 
L 160.757111 -153.158246 
L 162.201169 -151.202131 
L 163.494641 -149.246015 
L 164.6609 -147.2899 
L 165.791341 -145.333784 
L 166.907208 -143.377669 
L 167.880645 -141.421554 
L 168.498362 -139.465438 
L 168.594205 -137.509323 
L 168.158442 -135.553208 
L 167.366906 -133.597092 
L 166.497793 -131.640977 
L 165.768509 -129.684862 
L 165.19082 -127.728746 
L 164.550649 -125.772631 
L 163.559995 -123.816515 
L 162.093577 -121.8604 
L 160.305551 -119.904285 
L 158.500274 -117.948169 
L 156.87842 -115.992054 
L 155.411103 -114.035939 
L 153.939807 -112.079823 
L 152.360035 -110.123708 
L 150.706147 -108.167592 
L 149.098249 -106.211477 
L 147.634064 -104.255362 
L 146.320863 -102.299246 
L 145.091273 -100.343131 
L 143.881422 -98.387016 
L 142.696518 -96.4309 
L 141.593732 -94.474785 
L 140.603326 -92.51867 
L 139.691052 -90.562554 
L 138.808968 -88.606439 
L 137.960625 -86.650323 
L 137.202123 -84.694208 
L 136.594755 -82.738093 
L 136.164475 -80.781977 
L 135.890847 -78.825862 
L 135.721508 -76.869747 
L 135.599598 -74.913631 
L 135.486001 -72.957516 
L 135.365779 -71.001401 
L 135.24236 -69.045285 
L 135.126965 -67.08917 
L 135.029563 -65.133054 
L 134.955691 -63.176939 
L 134.906874 -61.220824 
L 134.879519 -59.264708 
L 134.863971 -57.308593 
L 134.849095 -55.352478 
L 134.829846 -53.396362 
L 134.809193 -51.440247 
L 134.792673 -49.484131 
L 134.782752 -47.528016 
z
" style="stroke: #4c4c4c; stroke-width: 0.5"/>
    </defs>
    <g clip-path="url(#pa1772540aa)">
     <use xlink:href="#maa97f89478" x="0" y="258.463437" style="fill: #5573cd; stroke: #4c4c4c; stroke-width: 0.5"/>
    </g>
   </g>
   <g id="PolyCollection_2">
    <defs>
     <path id="mb1dce71549" d="M 219.394089 -39.583437 
L 219.248866 -39.583437 
L 219.21106 -41.409937 
L 219.160929 -43.236436 
L 219.09803 -45.062935 
L 219.023368 -46.889434 
L 218.939456 -48.715933 
L 218.849953 -50.542432 
L 218.758838 -52.368931 
L 218.669303 -54.19543 
L 218.582644 -56.021929 
L 218.497485 -57.848428 
L 218.409581 -59.674927 
L 218.312252 -61.501426 
L 218.197312 -63.327925 
L 218.056207 -65.154424 
L 217.88108 -66.980923 
L 217.665552 -68.807422 
L 217.405093 -70.633921 
L 217.096959 -72.460421 
L 216.739658 -74.28692 
L 216.331957 -76.113419 
L 215.871519 -77.939918 
L 215.353433 -79.766417 
L 214.769075 -81.592916 
L 214.10583 -83.419415 
L 213.348129 -85.245914 
L 212.479895 -87.072413 
L 211.488064 -88.898912 
L 210.366397 -90.725411 
L 209.11854 -92.55191 
L 207.759365 -94.378409 
L 206.313939 -96.204908 
L 204.814127 -98.031407 
L 203.293469 -99.857906 
L 201.781584 -101.684405 
L 200.299637 -103.510904 
L 198.858175 -105.337404 
L 197.458007 -107.163903 
L 196.093826 -108.990402 
L 194.75934 -110.816901 
L 193.452217 -112.6434 
L 192.177311 -114.469899 
L 190.947444 -116.296398 
L 189.78204 -118.122897 
L 188.704684 -119.949396 
L 187.740862 -121.775895 
L 186.916586 -123.602394 
L 186.257743 -125.428893 
L 185.789235 -127.255392 
L 185.532832 -129.081891 
L 185.503295 -130.90839 
L 185.703531 -132.734889 
L 186.120604 -134.561388 
L 186.724898 -136.387887 
L 187.473937 -138.214387 
L 188.320784 -140.040886 
L 189.224866 -141.867385 
L 190.161807 -143.693884 
L 191.128707 -145.520383 
L 192.142808 -147.346882 
L 193.233752 -149.173381 
L 194.431995 -150.99988 
L 195.757187 -152.826379 
L 197.210183 -154.652878 
L 198.770782 -156.479377 
L 200.401284 -158.305876 
L 202.054094 -160.132375 
L 203.680766 -161.958874 
L 205.24004 -163.785373 
L 206.703219 -165.611872 
L 208.056306 -167.438371 
L 209.299073 -169.26487 
L 210.44173 -171.09137 
L 211.500055 -172.917869 
L 212.490003 -174.744368 
L 213.422874 -176.570867 
L 214.302062 -178.397366 
L 215.122109 -180.223865 
L 215.870226 -182.050364 
L 216.529846 -183.876863 
L 217.085188 -185.703362 
L 217.525684 -187.529861 
L 217.849189 -189.35636 
L 218.063358 -191.182859 
L 218.185028 -193.009358 
L 218.237891 -194.835857 
L 218.249026 -196.662356 
L 218.245019 -198.488855 
L 218.248368 -200.315354 
L 218.274839 -202.141854 
L 218.332174 -203.968353 
L 218.42031 -205.794852 
L 218.532924 -207.621351 
L 218.659848 -209.44785 
L 218.789737 -211.274349 
L 218.912397 -213.100848 
L 219.02034 -214.927347 
L 219.109428 -216.753846 
L 219.178678 -218.580345 
L 219.229529 -220.406844 
L 219.413425 -220.406844 
L 219.413425 -220.406844 
L 219.464276 -218.580345 
L 219.533526 -216.753846 
L 219.622614 -214.927347 
L 219.730558 -213.100848 
L 219.853217 -211.274349 
L 219.983107 -209.44785 
L 220.110031 -207.621351 
L 220.222645 -205.794852 
L 220.31078 -203.968353 
L 220.368116 -202.141854 
L 220.394587 -200.315354 
L 220.397936 -198.488855 
L 220.393928 -196.662356 
L 220.405064 -194.835857 
L 220.457926 -193.009358 
L 220.579596 -191.182859 
L 220.793766 -189.35636 
L 221.117271 -187.529861 
L 221.557767 -185.703362 
L 222.113109 -183.876863 
L 222.772728 -182.050364 
L 223.520846 -180.223865 
L 224.340892 -178.397366 
L 225.220081 -176.570867 
L 226.152952 -174.744368 
L 227.142899 -172.917869 
L 228.201224 -171.09137 
L 229.343882 -169.26487 
L 230.586649 -167.438371 
L 231.939735 -165.611872 
L 233.402914 -163.785373 
L 234.962188 -161.958874 
L 236.588861 -160.132375 
L 238.24167 -158.305876 
L 239.872173 -156.479377 
L 241.432772 -154.652878 
L 242.885767 -152.826379 
L 244.21096 -150.99988 
L 245.409202 -149.173381 
L 246.500147 -147.346882 
L 247.514247 -145.520383 
L 248.481148 -143.693884 
L 249.418088 -141.867385 
L 250.322171 -140.040886 
L 251.169017 -138.214387 
L 251.918057 -136.387887 
L 252.52235 -134.561388 
L 252.939424 -132.734889 
L 253.139659 -130.90839 
L 253.110123 -129.081891 
L 252.853719 -127.255392 
L 252.385212 -125.428893 
L 251.726369 -123.602394 
L 250.902093 -121.775895 
L 249.93827 -119.949396 
L 248.860915 -118.122897 
L 247.69551 -116.296398 
L 246.465644 -114.469899 
L 245.190738 -112.6434 
L 243.883615 -110.816901 
L 242.549129 -108.990402 
L 241.184947 -107.163903 
L 239.784779 -105.337404 
L 238.343317 -103.510904 
L 236.861371 -101.684405 
L 235.349486 -99.857906 
L 233.828827 -98.031407 
L 232.329016 -96.204908 
L 230.88359 -94.378409 
L 229.524414 -92.55191 
L 228.276558 -90.725411 
L 227.15489 -88.898912 
L 226.16306 -87.072413 
L 225.294826 -85.245914 
L 224.537125 -83.419415 
L 223.87388 -81.592916 
L 223.289521 -79.766417 
L 222.771436 -77.939918 
L 222.310998 -76.113419 
L 221.903296 -74.28692 
L 221.545995 -72.460421 
L 221.237862 -70.633921 
L 220.977403 -68.807422 
L 220.761874 -66.980923 
L 220.586748 -65.154424 
L 220.445642 -63.327925 
L 220.330702 -61.501426 
L 220.233374 -59.674927 
L 220.145469 -57.848428 
L 220.06031 -56.021929 
L 219.973652 -54.19543 
L 219.884117 -52.368931 
L 219.793002 -50.542432 
L 219.703498 -48.715933 
L 219.619587 -46.889434 
L 219.544924 -45.062935 
L 219.482026 -43.236436 
L 219.431894 -41.409937 
L 219.394089 -39.583437 
z
" style="stroke: #4c4c4c; stroke-width: 0.5"/>
    </defs>
    <g clip-path="url(#pa1772540aa)">
     <use xlink:href="#mb1dce71549" x="0" y="258.463437" style="fill: #df8920; stroke: #4c4c4c; stroke-width: 0.5"/>
    </g>
   </g>
   <g id="line2d_1">
    <path d="M 134.776023 182.689472 
L 134.776023 60.17101 
" clip-path="url(#pa1772540aa)" style="fill: none; stroke: #4c4c4c; stroke-width: 0.75; stroke-linecap: round"/>
   </g>
   <g id="line2d_2">
    <path d="M 134.776023 137.057856 
L 134.776023 106.297872 
" clip-path="url(#pa1772540aa)" style="fill: none; stroke: #4c4c4c; stroke-width: 2.25; stroke-linecap: round"/>
   </g>
   <g id="line2d_3">
    <path d="M 134.776023 121.466106 
" clip-path="url(#pa1772540aa)" style="fill: none; stroke: #4c4c4c; stroke-width: 1.5; stroke-linecap: round"/>
    <defs>
     <path id="m7fff4cf884" d="M 0.9375 0 
L -0.9375 -0 
" style="stroke: #ffffff; stroke-width: 0.45"/>
    </defs>
    <g clip-path="url(#pa1772540aa)">
     <use xlink:href="#m7fff4cf884" x="134.776023" y="121.466106" style="fill: #ffffff; stroke: #ffffff; stroke-width: 0.45"/>
    </g>
   </g>
   <g id="line2d_4">
    <path d="M 219.321477 189.74231 
L 219.321477 78.121969 
" clip-path="url(#pa1772540aa)" style="fill: none; stroke: #4c4c4c; stroke-width: 0.75; stroke-linecap: round"/>
   </g>
   <g id="line2d_5">
    <path d="M 219.321477 142.908521 
L 219.321477 110.664148 
" clip-path="url(#pa1772540aa)" style="fill: none; stroke: #4c4c4c; stroke-width: 2.25; stroke-linecap: round"/>
   </g>
   <g id="line2d_6">
    <path d="M 219.321477 127.036772 
" clip-path="url(#pa1772540aa)" style="fill: none; stroke: #4c4c4c; stroke-width: 1.5; stroke-linecap: round"/>
    <g clip-path="url(#pa1772540aa)">
     <use xlink:href="#m7fff4cf884" x="219.321477" y="127.036772" style="fill: #ffffff; stroke: #ffffff; stroke-width: 0.45"/>
    </g>
   </g>
   <g id="line2d_7">
    <path d="M 134.776023 46.86541 
L 134.776023 42.43021 
L 219.321477 42.43021 
L 219.321477 46.86541 
" style="fill: none; stroke: #333333; stroke-width: 0.5; stroke-linecap: round"/>
   </g>
   <g id="patch_3">
    <path d="M 93.34875 228.96 
L 93.34875 7.2 
" style="fill: none; stroke: #262626; stroke-width: 1.25; stroke-linejoin: miter; stroke-linecap: square"/>
   </g>
   <g id="patch_4">
    <path d="M 93.34875 228.96 
L 260.74875 228.96 
" style="fill: none; stroke: #262626; stroke-width: 1.25; stroke-linejoin: miter; stroke-linecap: square"/>
   </g>
   <g id="text_9">
    <!-- *** -->
    <g style="fill: #262626" transform="translate(168.875156 38.64771) scale(0.14 -0.14)">
     <defs>
      <path id="ArialMT-2a" d="M 200 3741 
L 344 4184 
Q 841 4009 1066 3881 
Q 1006 4447 1003 4659 
L 1456 4659 
Q 1447 4350 1384 3884 
Q 1706 4047 2122 4184 
L 2266 3741 
Q 1869 3609 1488 3566 
Q 1678 3400 2025 2975 
L 1650 2709 
Q 1469 2956 1222 3381 
Q 991 2941 816 2709 
L 447 2975 
Q 809 3422 966 3566 
Q 563 3644 200 3741 
z
" transform="scale(0.015625)"/>
     </defs>
     <use xlink:href="#ArialMT-2a"/>
     <use xlink:href="#ArialMT-2a" x="38.916016"/>
     <use xlink:href="#ArialMT-2a" x="77.832031"/>
    </g>
   </g>
  </g>
 </g>
 <defs>
  <clipPath id="pa1772540aa">
   <rect x="93.34875" y="7.2" width="167.4" height="221.76"/>
  </clipPath>
 </defs>
</svg>
