<?xml version="1.0" encoding="utf-8" standalone="no"?>
<!DOCTYPE svg PUBLIC "-//W3C//DTD SVG 1.1//EN"
  "http://www.w3.org/Graphics/SVG/1.1/DTD/svg11.dtd">
<svg xmlns:xlink="http://www.w3.org/1999/xlink" width="245.629844pt" height="255.719844pt" viewBox="0 0 245.629844 255.719844" xmlns="http://www.w3.org/2000/svg" version="1.1">
 <metadata>
  <rdf:RDF xmlns:dc="http://purl.org/dc/elements/1.1/" xmlns:cc="http://creativecommons.org/ns#" xmlns:rdf="http://www.w3.org/1999/02/22-rdf-syntax-ns#">
   <cc:Work>
    <dc:type rdf:resource="http://purl.org/dc/dcmitype/StillImage"/>
    <dc:date>2025-08-06T16:29:31.018391</dc:date>
    <dc:format>image/svg+xml</dc:format>
    <dc:creator>
     <cc:Agent>
      <dc:title>Matplotlib v3.9.2, https://matplotlib.org/</dc:title>
     </cc:Agent>
    </dc:creator>
   </cc:Work>
  </rdf:RDF>
 </metadata>
 <defs>
  <style type="text/css">*{stroke-linejoin: round; stroke-linecap: butt}</style>
 </defs>
 <g id="figure_1">
  <g id="patch_1">
   <path d="M 0 255.719844 
L 245.629844 255.719844 
L 245.629844 0 
L 0 0 
z
" style="fill: #ffffff"/>
  </g>
  <g id="axes_1">
   <g id="patch_2">
    <path d="M 71.029844 228.96 
L 238.429844 228.96 
L 238.429844 7.2 
L 71.029844 7.2 
z
" style="fill: #ffffff"/>
   </g>
   <g id="matplotlib.axis_1">
    <g id="xtick_1">
     <g id="text_1">
      <!-- Term -->
      <g style="fill: #262626" transform="translate(100.238523 246.333594) scale(0.11 -0.11)">
       <defs>
        <path id="ArialMT-54" d="M 1659 0 
L 1659 4041 
L 150 4041 
L 150 4581 
L 3781 4581 
L 3781 4041 
L 2266 4041 
L 2266 0 
L 1659 0 
z
" transform="scale(0.015625)"/>
        <path id="ArialMT-65" d="M 2694 1069 
L 3275 997 
Q 3138 488 2766 206 
Q 2394 -75 1816 -75 
Q 1088 -75 661 373 
Q 234 822 234 1631 
Q 234 2469 665 2931 
Q 1097 3394 1784 3394 
Q 2450 3394 2872 2941 
Q 3294 2488 3294 1666 
Q 3294 1616 3291 1516 
L 816 1516 
Q 847 969 1125 678 
Q 1403 388 1819 388 
Q 2128 388 2347 550 
Q 2566 713 2694 1069 
z
M 847 1978 
L 2700 1978 
Q 2663 2397 2488 2606 
Q 2219 2931 1791 2931 
Q 1403 2931 1139 2672 
Q 875 2413 847 1978 
z
" transform="scale(0.015625)"/>
        <path id="ArialMT-72" d="M 416 0 
L 416 3319 
L 922 3319 
L 922 2816 
Q 1116 3169 1280 3281 
Q 1444 3394 1641 3394 
Q 1925 3394 2219 3213 
L 2025 2691 
Q 1819 2813 1613 2813 
Q 1428 2813 1281 2702 
Q 1134 2591 1072 2394 
Q 978 2094 978 1738 
L 978 0 
L 416 0 
z
" transform="scale(0.015625)"/>
        <path id="ArialMT-6d" d="M 422 0 
L 422 3319 
L 925 3319 
L 925 2853 
Q 1081 3097 1340 3245 
Q 1600 3394 1931 3394 
Q 2300 3394 2536 3241 
Q 2772 3088 2869 2813 
Q 3263 3394 3894 3394 
Q 4388 3394 4653 3120 
Q 4919 2847 4919 2278 
L 4919 0 
L 4359 0 
L 4359 2091 
Q 4359 2428 4304 2576 
Q 4250 2725 4106 2815 
Q 3963 2906 3769 2906 
Q 3419 2906 3187 2673 
Q 2956 2441 2956 1928 
L 2956 0 
L 2394 0 
L 2394 2156 
Q 2394 2531 2256 2718 
Q 2119 2906 1806 2906 
Q 1569 2906 1367 2781 
Q 1166 2656 1075 2415 
Q 984 2175 984 1722 
L 984 0 
L 422 0 
z
" transform="scale(0.015625)"/>
       </defs>
       <use xlink:href="#ArialMT-54"/>
       <use xlink:href="#ArialMT-65" x="49.958984"/>
       <use xlink:href="#ArialMT-72" x="105.574219"/>
       <use xlink:href="#ArialMT-6d" x="138.875"/>
      </g>
     </g>
    </g>
    <g id="xtick_2">
     <g id="text_2">
      <!-- Preterm -->
      <g style="fill: #262626" transform="translate(177.444915 246.333594) scale(0.11 -0.11)">
       <defs>
        <path id="ArialMT-50" d="M 494 0 
L 494 4581 
L 2222 4581 
Q 2678 4581 2919 4538 
Q 3256 4481 3484 4323 
Q 3713 4166 3852 3881 
Q 3991 3597 3991 3256 
Q 3991 2672 3619 2267 
Q 3247 1863 2275 1863 
L 1100 1863 
L 1100 0 
L 494 0 
z
M 1100 2403 
L 2284 2403 
Q 2872 2403 3119 2622 
Q 3366 2841 3366 3238 
Q 3366 3525 3220 3729 
Q 3075 3934 2838 4000 
Q 2684 4041 2272 4041 
L 1100 4041 
L 1100 2403 
z
" transform="scale(0.015625)"/>
        <path id="ArialMT-74" d="M 1650 503 
L 1731 6 
Q 1494 -44 1306 -44 
Q 1000 -44 831 53 
Q 663 150 594 308 
Q 525 466 525 972 
L 525 2881 
L 113 2881 
L 113 3319 
L 525 3319 
L 525 4141 
L 1084 4478 
L 1084 3319 
L 1650 3319 
L 1650 2881 
L 1084 2881 
L 1084 941 
Q 1084 700 1114 631 
Q 1144 563 1211 522 
Q 1278 481 1403 481 
Q 1497 481 1650 503 
z
" transform="scale(0.015625)"/>
       </defs>
       <use xlink:href="#ArialMT-50"/>
       <use xlink:href="#ArialMT-72" x="66.699219"/>
       <use xlink:href="#ArialMT-65" x="100"/>
       <use xlink:href="#ArialMT-74" x="155.615234"/>
       <use xlink:href="#ArialMT-65" x="183.398438"/>
       <use xlink:href="#ArialMT-72" x="239.013672"/>
       <use xlink:href="#ArialMT-6d" x="272.314453"/>
      </g>
     </g>
    </g>
   </g>
   <g id="matplotlib.axis_2">
    <g id="ytick_1">
     <g id="text_3">
      <!-- −60000 -->
      <g style="fill: #262626" transform="translate(24.52 216.185881) scale(0.11 -0.11)">
       <defs>
        <path id="ArialMT-2212" d="M 3381 1997 
L 356 1997 
L 356 2522 
L 3381 2522 
L 3381 1997 
z
" transform="scale(0.015625)"/>
        <path id="ArialMT-36" d="M 3184 3459 
L 2625 3416 
Q 2550 3747 2413 3897 
Q 2184 4138 1850 4138 
Q 1581 4138 1378 3988 
Q 1113 3794 959 3422 
Q 806 3050 800 2363 
Q 1003 2672 1297 2822 
Q 1591 2972 1913 2972 
Q 2475 2972 2870 2558 
Q 3266 2144 3266 1488 
Q 3266 1056 3080 686 
Q 2894 316 2569 119 
Q 2244 -78 1831 -78 
Q 1128 -78 684 439 
Q 241 956 241 2144 
Q 241 3472 731 4075 
Q 1159 4600 1884 4600 
Q 2425 4600 2770 4297 
Q 3116 3994 3184 3459 
z
M 888 1484 
Q 888 1194 1011 928 
Q 1134 663 1356 523 
Q 1578 384 1822 384 
Q 2178 384 2434 671 
Q 2691 959 2691 1453 
Q 2691 1928 2437 2201 
Q 2184 2475 1800 2475 
Q 1419 2475 1153 2201 
Q 888 1928 888 1484 
z
" transform="scale(0.015625)"/>
        <path id="ArialMT-30" d="M 266 2259 
Q 266 3072 433 3567 
Q 600 4063 929 4331 
Q 1259 4600 1759 4600 
Q 2128 4600 2406 4451 
Q 2684 4303 2865 4023 
Q 3047 3744 3150 3342 
Q 3253 2941 3253 2259 
Q 3253 1453 3087 958 
Q 2922 463 2592 192 
Q 2263 -78 1759 -78 
Q 1097 -78 719 397 
Q 266 969 266 2259 
z
M 844 2259 
Q 844 1131 1108 757 
Q 1372 384 1759 384 
Q 2147 384 2411 759 
Q 2675 1134 2675 2259 
Q 2675 3391 2411 3762 
Q 2147 4134 1753 4134 
Q 1366 4134 1134 3806 
Q 844 3388 844 2259 
z
" transform="scale(0.015625)"/>
       </defs>
       <use xlink:href="#ArialMT-2212"/>
       <use xlink:href="#ArialMT-36" x="58.398438"/>
       <use xlink:href="#ArialMT-30" x="114.013672"/>
       <use xlink:href="#ArialMT-30" x="169.628906"/>
       <use xlink:href="#ArialMT-30" x="225.244141"/>
       <use xlink:href="#ArialMT-30" x="280.859375"/>
      </g>
     </g>
    </g>
    <g id="ytick_2">
     <g id="text_4">
      <!-- −40000 -->
      <g style="fill: #262626" transform="translate(24.52 185.69452) scale(0.11 -0.11)">
       <defs>
        <path id="ArialMT-34" d="M 2069 0 
L 2069 1097 
L 81 1097 
L 81 1613 
L 2172 4581 
L 2631 4581 
L 2631 1613 
L 3250 1613 
L 3250 1097 
L 2631 1097 
L 2631 0 
L 2069 0 
z
M 2069 1613 
L 2069 3678 
L 634 1613 
L 2069 1613 
z
" transform="scale(0.015625)"/>
       </defs>
       <use xlink:href="#ArialMT-2212"/>
       <use xlink:href="#ArialMT-34" x="58.398438"/>
       <use xlink:href="#ArialMT-30" x="114.013672"/>
       <use xlink:href="#ArialMT-30" x="169.628906"/>
       <use xlink:href="#ArialMT-30" x="225.244141"/>
       <use xlink:href="#ArialMT-30" x="280.859375"/>
      </g>
     </g>
    </g>
    <g id="ytick_3">
     <g id="text_5">
      <!-- −20000 -->
      <g style="fill: #262626" transform="translate(24.52 155.203159) scale(0.11 -0.11)">
       <defs>
        <path id="ArialMT-32" d="M 3222 541 
L 3222 0 
L 194 0 
Q 188 203 259 391 
Q 375 700 629 1000 
Q 884 1300 1366 1694 
Q 2113 2306 2375 2664 
Q 2638 3022 2638 3341 
Q 2638 3675 2398 3904 
Q 2159 4134 1775 4134 
Q 1369 4134 1125 3890 
Q 881 3647 878 3216 
L 300 3275 
Q 359 3922 746 4261 
Q 1134 4600 1788 4600 
Q 2447 4600 2831 4234 
Q 3216 3869 3216 3328 
Q 3216 3053 3103 2787 
Q 2991 2522 2730 2228 
Q 2469 1934 1863 1422 
Q 1356 997 1212 845 
Q 1069 694 975 541 
L 3222 541 
z
" transform="scale(0.015625)"/>
       </defs>
       <use xlink:href="#ArialMT-2212"/>
       <use xlink:href="#ArialMT-32" x="58.398438"/>
       <use xlink:href="#ArialMT-30" x="114.013672"/>
       <use xlink:href="#ArialMT-30" x="169.628906"/>
       <use xlink:href="#ArialMT-30" x="225.244141"/>
       <use xlink:href="#ArialMT-30" x="280.859375"/>
      </g>
     </g>
    </g>
    <g id="ytick_4">
     <g id="text_6">
      <!-- 0 -->
      <g style="fill: #262626" transform="translate(55.412813 124.711797) scale(0.11 -0.11)">
       <use xlink:href="#ArialMT-30"/>
      </g>
     </g>
    </g>
    <g id="ytick_5">
     <g id="text_7">
      <!-- 20000 -->
      <g style="fill: #262626" transform="translate(30.944687 94.220436) scale(0.11 -0.11)">
       <use xlink:href="#ArialMT-32"/>
       <use xlink:href="#ArialMT-30" x="55.615234"/>
       <use xlink:href="#ArialMT-30" x="111.230469"/>
       <use xlink:href="#ArialMT-30" x="166.845703"/>
       <use xlink:href="#ArialMT-30" x="222.460938"/>
      </g>
     </g>
    </g>
    <g id="ytick_6">
     <g id="text_8">
      <!-- 40000 -->
      <g style="fill: #262626" transform="translate(30.944687 63.729075) scale(0.11 -0.11)">
       <use xlink:href="#ArialMT-34"/>
       <use xlink:href="#ArialMT-30" x="55.615234"/>
       <use xlink:href="#ArialMT-30" x="111.230469"/>
       <use xlink:href="#ArialMT-30" x="166.845703"/>
       <use xlink:href="#ArialMT-30" x="222.460938"/>
      </g>
     </g>
    </g>
    <g id="ytick_7">
     <g id="text_9">
      <!-- 60000 -->
      <g style="fill: #262626" transform="translate(30.944687 33.237714) scale(0.11 -0.11)">
       <use xlink:href="#ArialMT-36"/>
       <use xlink:href="#ArialMT-30" x="55.615234"/>
       <use xlink:href="#ArialMT-30" x="111.230469"/>
       <use xlink:href="#ArialMT-30" x="166.845703"/>
       <use xlink:href="#ArialMT-30" x="222.460938"/>
      </g>
     </g>
    </g>
    <g id="text_10">
     <!-- WMV residuals [mm$^3$] -->
     <g style="fill: #262626" transform="translate(18.12 176.34) rotate(-90) scale(0.12 -0.12)">
      <defs>
       <path id="ArialMT-57" d="M 1294 0 
L 78 4581 
L 700 4581 
L 1397 1578 
Q 1509 1106 1591 641 
Q 1766 1375 1797 1488 
L 2669 4581 
L 3400 4581 
L 4056 2263 
Q 4303 1400 4413 641 
Q 4500 1075 4641 1638 
L 5359 4581 
L 5969 4581 
L 4713 0 
L 4128 0 
L 3163 3491 
Q 3041 3928 3019 4028 
Q 2947 3713 2884 3491 
L 1913 0 
L 1294 0 
z
" transform="scale(0.015625)"/>
       <path id="ArialMT-4d" d="M 475 0 
L 475 4581 
L 1388 4581 
L 2472 1338 
Q 2622 884 2691 659 
Q 2769 909 2934 1394 
L 4031 4581 
L 4847 4581 
L 4847 0 
L 4263 0 
L 4263 3834 
L 2931 0 
L 2384 0 
L 1059 3900 
L 1059 0 
L 475 0 
z
" transform="scale(0.015625)"/>
       <path id="ArialMT-56" d="M 1803 0 
L 28 4581 
L 684 4581 
L 1875 1253 
Q 2019 853 2116 503 
Q 2222 878 2363 1253 
L 3600 4581 
L 4219 4581 
L 2425 0 
L 1803 0 
z
" transform="scale(0.015625)"/>
       <path id="ArialMT-20" transform="scale(0.015625)"/>
       <path id="ArialMT-73" d="M 197 991 
L 753 1078 
Q 800 744 1014 566 
Q 1228 388 1613 388 
Q 2000 388 2187 545 
Q 2375 703 2375 916 
Q 2375 1106 2209 1216 
Q 2094 1291 1634 1406 
Q 1016 1563 777 1677 
Q 538 1791 414 1992 
Q 291 2194 291 2438 
Q 291 2659 392 2848 
Q 494 3038 669 3163 
Q 800 3259 1026 3326 
Q 1253 3394 1513 3394 
Q 1903 3394 2198 3281 
Q 2494 3169 2634 2976 
Q 2775 2784 2828 2463 
L 2278 2388 
Q 2241 2644 2061 2787 
Q 1881 2931 1553 2931 
Q 1166 2931 1000 2803 
Q 834 2675 834 2503 
Q 834 2394 903 2306 
Q 972 2216 1119 2156 
Q 1203 2125 1616 2013 
Q 2213 1853 2448 1751 
Q 2684 1650 2818 1456 
Q 2953 1263 2953 975 
Q 2953 694 2789 445 
Q 2625 197 2315 61 
Q 2006 -75 1616 -75 
Q 969 -75 630 194 
Q 291 463 197 991 
z
" transform="scale(0.015625)"/>
       <path id="ArialMT-69" d="M 425 3934 
L 425 4581 
L 988 4581 
L 988 3934 
L 425 3934 
z
M 425 0 
L 425 3319 
L 988 3319 
L 988 0 
L 425 0 
z
" transform="scale(0.015625)"/>
       <path id="ArialMT-64" d="M 2575 0 
L 2575 419 
Q 2259 -75 1647 -75 
Q 1250 -75 917 144 
Q 584 363 401 755 
Q 219 1147 219 1656 
Q 219 2153 384 2558 
Q 550 2963 881 3178 
Q 1213 3394 1622 3394 
Q 1922 3394 2156 3267 
Q 2391 3141 2538 2938 
L 2538 4581 
L 3097 4581 
L 3097 0 
L 2575 0 
z
M 797 1656 
Q 797 1019 1065 703 
Q 1334 388 1700 388 
Q 2069 388 2326 689 
Q 2584 991 2584 1609 
Q 2584 2291 2321 2609 
Q 2059 2928 1675 2928 
Q 1300 2928 1048 2622 
Q 797 2316 797 1656 
z
" transform="scale(0.015625)"/>
       <path id="ArialMT-75" d="M 2597 0 
L 2597 488 
Q 2209 -75 1544 -75 
Q 1250 -75 995 37 
Q 741 150 617 320 
Q 494 491 444 738 
Q 409 903 409 1263 
L 409 3319 
L 972 3319 
L 972 1478 
Q 972 1038 1006 884 
Q 1059 663 1231 536 
Q 1403 409 1656 409 
Q 1909 409 2131 539 
Q 2353 669 2445 892 
Q 2538 1116 2538 1541 
L 2538 3319 
L 3100 3319 
L 3100 0 
L 2597 0 
z
" transform="scale(0.015625)"/>
       <path id="ArialMT-61" d="M 2588 409 
Q 2275 144 1986 34 
Q 1697 -75 1366 -75 
Q 819 -75 525 192 
Q 231 459 231 875 
Q 231 1119 342 1320 
Q 453 1522 633 1644 
Q 813 1766 1038 1828 
Q 1203 1872 1538 1913 
Q 2219 1994 2541 2106 
Q 2544 2222 2544 2253 
Q 2544 2597 2384 2738 
Q 2169 2928 1744 2928 
Q 1347 2928 1158 2789 
Q 969 2650 878 2297 
L 328 2372 
Q 403 2725 575 2942 
Q 747 3159 1072 3276 
Q 1397 3394 1825 3394 
Q 2250 3394 2515 3294 
Q 2781 3194 2906 3042 
Q 3031 2891 3081 2659 
Q 3109 2516 3109 2141 
L 3109 1391 
Q 3109 606 3145 398 
Q 3181 191 3288 0 
L 2700 0 
Q 2613 175 2588 409 
z
M 2541 1666 
Q 2234 1541 1622 1453 
Q 1275 1403 1131 1340 
Q 988 1278 909 1158 
Q 831 1038 831 891 
Q 831 666 1001 516 
Q 1172 366 1500 366 
Q 1825 366 2078 508 
Q 2331 650 2450 897 
Q 2541 1088 2541 1459 
L 2541 1666 
z
" transform="scale(0.015625)"/>
       <path id="ArialMT-6c" d="M 409 0 
L 409 4581 
L 972 4581 
L 972 0 
L 409 0 
z
" transform="scale(0.015625)"/>
       <path id="ArialMT-5b" d="M 434 -1272 
L 434 4581 
L 1675 4581 
L 1675 4116 
L 997 4116 
L 997 -806 
L 1675 -806 
L 1675 -1272 
L 434 -1272 
z
" transform="scale(0.015625)"/>
       <path id="DejaVuSans-33" d="M 2597 2516 
Q 3050 2419 3304 2112 
Q 3559 1806 3559 1356 
Q 3559 666 3084 287 
Q 2609 -91 1734 -91 
Q 1441 -91 1130 -33 
Q 819 25 488 141 
L 488 750 
Q 750 597 1062 519 
Q 1375 441 1716 441 
Q 2309 441 2620 675 
Q 2931 909 2931 1356 
Q 2931 1769 2642 2001 
Q 2353 2234 1838 2234 
L 1294 2234 
L 1294 2753 
L 1863 2753 
Q 2328 2753 2575 2939 
Q 2822 3125 2822 3475 
Q 2822 3834 2567 4026 
Q 2313 4219 1838 4219 
Q 1578 4219 1281 4162 
Q 984 4106 628 3988 
L 628 4550 
Q 988 4650 1302 4700 
Q 1616 4750 1894 4750 
Q 2613 4750 3031 4423 
Q 3450 4097 3450 3541 
Q 3450 3153 3228 2886 
Q 3006 2619 2597 2516 
z
" transform="scale(0.015625)"/>
       <path id="ArialMT-5d" d="M 1363 -1272 
L 122 -1272 
L 122 -806 
L 800 -806 
L 800 4116 
L 122 4116 
L 122 4581 
L 1363 4581 
L 1363 -1272 
z
" transform="scale(0.015625)"/>
      </defs>
      <use xlink:href="#ArialMT-57" transform="translate(0 0.765625)"/>
      <use xlink:href="#ArialMT-4d" transform="translate(94.384766 0.765625)"/>
      <use xlink:href="#ArialMT-56" transform="translate(177.685547 0.765625)"/>
      <use xlink:href="#ArialMT-20" transform="translate(244.384766 0.765625)"/>
      <use xlink:href="#ArialMT-72" transform="translate(272.167969 0.765625)"/>
      <use xlink:href="#ArialMT-65" transform="translate(305.46875 0.765625)"/>
      <use xlink:href="#ArialMT-73" transform="translate(361.083984 0.765625)"/>
      <use xlink:href="#ArialMT-69" transform="translate(411.083984 0.765625)"/>
      <use xlink:href="#ArialMT-64" transform="translate(433.300781 0.765625)"/>
      <use xlink:href="#ArialMT-75" transform="translate(488.916016 0.765625)"/>
      <use xlink:href="#ArialMT-61" transform="translate(544.53125 0.765625)"/>
      <use xlink:href="#ArialMT-6c" transform="translate(600.146484 0.765625)"/>
      <use xlink:href="#ArialMT-73" transform="translate(622.363281 0.765625)"/>
      <use xlink:href="#ArialMT-20" transform="translate(672.363281 0.765625)"/>
      <use xlink:href="#ArialMT-5b" transform="translate(700.146484 0.765625)"/>
      <use xlink:href="#ArialMT-6d" transform="translate(727.929688 0.765625)"/>
      <use xlink:href="#ArialMT-6d" transform="translate(811.230469 0.765625)"/>
      <use xlink:href="#DejaVuSans-33" transform="translate(895.488281 39.046875) scale(0.7)"/>
      <use xlink:href="#ArialMT-5d" transform="translate(942.758789 0.765625)"/>
     </g>
    </g>
   </g>
   <g id="PolyCollection_1">
    <defs>
     <path id="m29597afcc9" d="M 112.588873 -58.799018 
L 112.325359 -58.799018 
L 112.228279 -60.574688 
L 112.077831 -62.350359 
L 111.856721 -64.12603 
L 111.548607 -65.901701 
L 111.141663 -67.677371 
L 110.632522 -69.453042 
L 110.029575 -71.228713 
L 109.354417 -73.004384 
L 108.640442 -74.780055 
L 107.92821 -76.555725 
L 107.25809 -78.331396 
L 106.661625 -80.107067 
L 106.153676 -81.882738 
L 105.727512 -83.658408 
L 105.354488 -85.434079 
L 104.988828 -87.20975 
L 104.576595 -88.985421 
L 104.066617 -90.761091 
L 103.420361 -92.536762 
L 102.617971 -94.312433 
L 101.658847 -96.088104 
L 100.557015 -97.863774 
L 99.333322 -99.639445 
L 98.007561 -101.415116 
L 96.593502 -103.190787 
L 95.098537 -104.966457 
L 93.527785 -106.742128 
L 91.890738 -108.517799 
L 90.207549 -110.29347 
L 88.512189 -112.06914 
L 86.850831 -113.844811 
L 85.275584 -115.620482 
L 83.835445 -117.396153 
L 82.567443 -119.171823 
L 81.491002 -120.947494 
L 80.607455 -122.723165 
L 79.904822 -124.498836 
L 79.365999 -126.274506 
L 78.977204 -128.050177 
L 78.733436 -129.825848 
L 78.638935 -131.601519 
L 78.702785 -133.377189 
L 78.931974 -135.15286 
L 79.325371 -136.928531 
L 79.871654 -138.704202 
L 80.552236 -140.479872 
L 81.347721 -142.255543 
L 82.244586 -144.031214 
L 83.23866 -145.806885 
L 84.333586 -147.582555 
L 85.534993 -149.358226 
L 86.843242 -151.133897 
L 88.248205 -152.909568 
L 89.728351 -154.685238 
L 91.254188 -156.460909 
L 92.793939 -158.23658 
L 94.318506 -160.012251 
L 95.803546 -161.787921 
L 97.228382 -163.563592 
L 98.573375 -165.339263 
L 99.818249 -167.114934 
L 100.943195 -168.890604 
L 101.932848 -170.666275 
L 102.78144 -172.441946 
L 103.496543 -174.217617 
L 104.099375 -175.993287 
L 104.621129 -177.768958 
L 105.096552 -179.544629 
L 105.556921 -181.3203 
L 106.024554 -183.09597 
L 106.510098 -184.871641 
L 107.012808 -186.647312 
L 107.523187 -188.422983 
L 108.027024 -190.198653 
L 108.509736 -191.974324 
L 108.960024 -193.749995 
L 109.372021 -195.525666 
L 109.745514 -197.301336 
L 110.084405 -199.077007 
L 110.394122 -200.852678 
L 110.679048 -202.628349 
L 110.940912 -204.404019 
L 111.178596 -206.17969 
L 111.389215 -207.955361 
L 111.569862 -209.731032 
L 111.71927 -211.506702 
L 111.838802 -213.282373 
L 111.932521 -215.058044 
L 112.006401 -216.833715 
L 112.067031 -218.609385 
L 112.120239 -220.385056 
L 112.17007 -222.160727 
L 112.218365 -223.936398 
L 112.264992 -225.712068 
L 112.308556 -227.487739 
L 112.347275 -229.26341 
L 112.379729 -231.039081 
L 112.405288 -232.814751 
L 112.424174 -234.590422 
L 112.490059 -234.590422 
L 112.490059 -234.590422 
L 112.508945 -232.814751 
L 112.534504 -231.039081 
L 112.566958 -229.26341 
L 112.605677 -227.487739 
L 112.649241 -225.712068 
L 112.695868 -223.936398 
L 112.744163 -222.160727 
L 112.793994 -220.385056 
L 112.847202 -218.609385 
L 112.907831 -216.833715 
L 112.981712 -215.058044 
L 113.07543 -213.282373 
L 113.194963 -211.506702 
L 113.344371 -209.731032 
L 113.525018 -207.955361 
L 113.735637 -206.17969 
L 113.973321 -204.404019 
L 114.235185 -202.628349 
L 114.520111 -200.852678 
L 114.829828 -199.077007 
L 115.168719 -197.301336 
L 115.542212 -195.525666 
L 115.954209 -193.749995 
L 116.404497 -191.974324 
L 116.887209 -190.198653 
L 117.391046 -188.422983 
L 117.901425 -186.647312 
L 118.404135 -184.871641 
L 118.889679 -183.09597 
L 119.357312 -181.3203 
L 119.817681 -179.544629 
L 120.293104 -177.768958 
L 120.814858 -175.993287 
L 121.417689 -174.217617 
L 122.132793 -172.441946 
L 122.981385 -170.666275 
L 123.971038 -168.890604 
L 125.095984 -167.114934 
L 126.340858 -165.339263 
L 127.685851 -163.563592 
L 129.110687 -161.787921 
L 130.595727 -160.012251 
L 132.120294 -158.23658 
L 133.660045 -156.460909 
L 135.185882 -154.685238 
L 136.666028 -152.909568 
L 138.070991 -151.133897 
L 139.37924 -149.358226 
L 140.580647 -147.582555 
L 141.675573 -145.806885 
L 142.669647 -144.031214 
L 143.566512 -142.255543 
L 144.361997 -140.479872 
L 145.042579 -138.704202 
L 145.588862 -136.928531 
L 145.982259 -135.15286 
L 146.211448 -133.377189 
L 146.275298 -131.601519 
L 146.180797 -129.825848 
L 145.937028 -128.050177 
L 145.548234 -126.274506 
L 145.009411 -124.498836 
L 144.306778 -122.723165 
L 143.423231 -120.947494 
L 142.34679 -119.171823 
L 141.078788 -117.396153 
L 139.638649 -115.620482 
L 138.063402 -113.844811 
L 136.402044 -112.06914 
L 134.706684 -110.29347 
L 133.023495 -108.517799 
L 131.386448 -106.742128 
L 129.815696 -104.966457 
L 128.320731 -103.190787 
L 126.906672 -101.415116 
L 125.580911 -99.639445 
L 124.357218 -97.863774 
L 123.255386 -96.088104 
L 122.296262 -94.312433 
L 121.493872 -92.536762 
L 120.847616 -90.761091 
L 120.337638 -88.985421 
L 119.925405 -87.20975 
L 119.559745 -85.434079 
L 119.186721 -83.658408 
L 118.760557 -81.882738 
L 118.252608 -80.107067 
L 117.656143 -78.331396 
L 116.986023 -76.555725 
L 116.273791 -74.780055 
L 115.559816 -73.004384 
L 114.884658 -71.228713 
L 114.281711 -69.453042 
L 113.77257 -67.677371 
L 113.365626 -65.901701 
L 113.057512 -64.12603 
L 112.836402 -62.350359 
L 112.685954 -60.574688 
L 112.588873 -58.799018 
z
" style="stroke: #4c4c4c; stroke-width: 0.5"/>
    </defs>
    <g clip-path="url(#p6f33f94b0c)">
     <use xlink:href="#m29597afcc9" x="0" y="255.719844" style="fill: #5573cd; stroke: #4c4c4c; stroke-width: 0.5"/>
    </g>
   </g>
   <g id="PolyCollection_2">
    <defs>
     <path id="m8905b65249" d="M 197.166894 -36.715649 
L 196.838248 -36.715649 
L 196.778669 -38.726922 
L 196.705187 -40.738196 
L 196.61751 -42.74947 
L 196.516425 -44.760744 
L 196.403977 -46.772017 
L 196.283499 -48.783291 
L 196.159445 -50.794565 
L 196.037001 -52.805839 
L 195.9215 -54.817112 
L 195.817686 -56.828386 
L 195.728935 -58.83966 
L 195.656555 -60.850933 
L 195.59926 -62.862207 
L 195.552938 -64.873481 
L 195.510719 -66.884755 
L 195.463354 -68.896028 
L 195.399799 -70.907302 
L 195.307902 -72.918576 
L 195.175055 -74.92985 
L 194.988689 -76.941123 
L 194.73656 -78.952397 
L 194.406812 -80.963671 
L 193.987878 -82.974945 
L 193.46835 -84.986218 
L 192.836938 -86.997492 
L 192.082665 -89.008766 
L 191.195397 -91.020039 
L 190.166718 -93.031313 
L 188.991121 -95.042587 
L 187.667374 -97.053861 
L 186.199855 -99.065134 
L 184.599633 -101.076408 
L 182.885041 -103.087682 
L 181.08156 -105.098956 
L 179.220898 -107.110229 
L 177.339298 -109.121503 
L 175.475221 -111.132777 
L 173.666696 -113.14405 
L 171.948715 -115.155324 
L 170.351039 -117.166598 
L 168.896748 -119.177872 
L 167.601702 -121.189145 
L 166.47491 -123.200419 
L 165.51961 -125.211693 
L 164.734736 -127.222967 
L 164.116402 -129.23424 
L 163.659076 -131.245514 
L 163.356268 -133.256788 
L 163.200735 -135.268061 
L 163.184389 -137.279335 
L 163.298159 -139.290609 
L 163.532101 -141.301883 
L 163.875924 -143.313156 
L 164.319916 -145.32443 
L 164.856113 -147.335704 
L 165.479399 -149.346978 
L 166.188186 -151.358251 
L 166.984426 -153.369525 
L 167.872827 -155.380799 
L 168.859336 -157.392073 
L 169.949156 -159.403346 
L 171.144598 -161.41462 
L 172.44316 -163.425894 
L 173.83611 -165.437167 
L 175.30779 -167.448441 
L 176.835705 -169.459715 
L 178.39137 -171.470989 
L 179.941842 -173.482262 
L 181.45176 -175.493536 
L 182.885759 -177.50481 
L 184.211049 -179.516084 
L 185.399968 -181.527357 
L 186.432273 -183.538631 
L 187.296943 -185.549905 
L 187.99327 -187.561178 
L 188.531077 -189.572452 
L 188.929963 -191.583726 
L 189.21761 -193.595 
L 189.427281 -195.606273 
L 189.594766 -197.617547 
L 189.755104 -199.628821 
L 189.939454 -201.640095 
L 190.172465 -203.651368 
L 190.470437 -205.662642 
L 190.840462 -207.673916 
L 191.280585 -209.685189 
L 191.780917 -211.696463 
L 192.325485 -213.707737 
L 192.894537 -215.719011 
L 193.466981 -217.730284 
L 194.02265 -219.741558 
L 194.544137 -221.752832 
L 195.018049 -223.764106 
L 195.435617 -225.775379 
L 195.792701 -227.786653 
L 196.089303 -229.797927 
L 196.328757 -231.809201 
L 196.516747 -233.820474 
L 196.660325 -235.831748 
L 197.344817 -235.831748 
L 197.344817 -235.831748 
L 197.488395 -233.820474 
L 197.676385 -231.809201 
L 197.915839 -229.797927 
L 198.212441 -227.786653 
L 198.569525 -225.775379 
L 198.987093 -223.764106 
L 199.461005 -221.752832 
L 199.982492 -219.741558 
L 200.538161 -217.730284 
L 201.110605 -215.719011 
L 201.679657 -213.707737 
L 202.224225 -211.696463 
L 202.724557 -209.685189 
L 203.164681 -207.673916 
L 203.534705 -205.662642 
L 203.832677 -203.651368 
L 204.065688 -201.640095 
L 204.250038 -199.628821 
L 204.410376 -197.617547 
L 204.577861 -195.606273 
L 204.787532 -193.595 
L 205.075179 -191.583726 
L 205.474065 -189.572452 
L 206.011872 -187.561178 
L 206.708199 -185.549905 
L 207.572869 -183.538631 
L 208.605174 -181.527357 
L 209.794093 -179.516084 
L 211.119383 -177.50481 
L 212.553382 -175.493536 
L 214.0633 -173.482262 
L 215.613772 -171.470989 
L 217.169437 -169.459715 
L 218.697352 -167.448441 
L 220.169032 -165.437167 
L 221.561983 -163.425894 
L 222.860544 -161.41462 
L 224.055986 -159.403346 
L 225.145806 -157.392073 
L 226.132315 -155.380799 
L 227.020716 -153.369525 
L 227.816956 -151.358251 
L 228.525743 -149.346978 
L 229.149029 -147.335704 
L 229.685227 -145.32443 
L 230.129218 -143.313156 
L 230.473041 -141.301883 
L 230.706983 -139.290609 
L 230.820753 -137.279335 
L 230.804407 -135.268061 
L 230.648874 -133.256788 
L 230.346066 -131.245514 
L 229.88874 -129.23424 
L 229.270406 -127.222967 
L 228.485532 -125.211693 
L 227.530232 -123.200419 
L 226.40344 -121.189145 
L 225.108395 -119.177872 
L 223.654103 -117.166598 
L 222.056427 -115.155324 
L 220.338446 -113.14405 
L 218.529921 -111.132777 
L 216.665844 -109.121503 
L 214.784244 -107.110229 
L 212.923582 -105.098956 
L 211.120101 -103.087682 
L 209.405509 -101.076408 
L 207.805287 -99.065134 
L 206.337768 -97.053861 
L 205.014021 -95.042587 
L 203.838424 -93.031313 
L 202.809745 -91.020039 
L 201.922477 -89.008766 
L 201.168205 -86.997492 
L 200.536792 -84.986218 
L 200.017264 -82.974945 
L 199.59833 -80.963671 
L 199.268582 -78.952397 
L 199.016453 -76.941123 
L 198.830087 -74.92985 
L 198.69724 -72.918576 
L 198.605343 -70.907302 
L 198.541788 -68.896028 
L 198.494423 -66.884755 
L 198.452204 -64.873481 
L 198.405882 -62.862207 
L 198.348587 -60.850933 
L 198.276207 -58.83966 
L 198.187456 -56.828386 
L 198.083642 -54.817112 
L 197.968141 -52.805839 
L 197.845697 -50.794565 
L 197.721643 -48.783291 
L 197.601165 -46.772017 
L 197.488717 -44.760744 
L 197.387632 -42.74947 
L 197.299955 -40.738196 
L 197.226473 -38.726922 
L 197.166894 -36.715649 
z
" style="stroke: #4c4c4c; stroke-width: 0.5"/>
    </defs>
    <g clip-path="url(#p6f33f94b0c)">
     <use xlink:href="#m8905b65249" x="0" y="255.719844" style="fill: #df8920; stroke: #4c4c4c; stroke-width: 0.5"/>
    </g>
   </g>
   <g id="line2d_1">
    <path d="M 112.457116 181.902577 
L 112.457116 56.463423 
" clip-path="url(#p6f33f94b0c)" style="fill: none; stroke: #4c4c4c; stroke-width: 0.75; stroke-linecap: round"/>
   </g>
   <g id="line2d_2">
    <path d="M 112.457116 138.858392 
L 112.457116 105.723644 
" clip-path="url(#p6f33f94b0c)" style="fill: none; stroke: #4c4c4c; stroke-width: 2.25; stroke-linecap: round"/>
   </g>
   <g id="line2d_3">
    <path d="M 112.457116 122.290865 
" clip-path="url(#p6f33f94b0c)" style="fill: none; stroke: #4c4c4c; stroke-width: 1.5; stroke-linecap: round"/>
    <defs>
     <path id="m0c775814b9" d="M 0.9375 0 
L -0.9375 -0 
" style="stroke: #ffffff; stroke-width: 0.45"/>
    </defs>
    <g clip-path="url(#p6f33f94b0c)">
     <use xlink:href="#m0c775814b9" x="112.457116" y="122.290865" style="fill: #ffffff; stroke: #ffffff; stroke-width: 0.45"/>
    </g>
   </g>
   <g id="line2d_4">
    <path d="M 197.002571 167.959415 
L 197.002571 44.90606 
" clip-path="url(#p6f33f94b0c)" style="fill: none; stroke: #4c4c4c; stroke-width: 0.75; stroke-linecap: round"/>
   </g>
   <g id="line2d_5">
    <path d="M 197.002571 132.120474 
L 197.002571 96.334372 
" clip-path="url(#p6f33f94b0c)" style="fill: none; stroke: #4c4c4c; stroke-width: 2.25; stroke-linecap: round"/>
   </g>
   <g id="line2d_6">
    <path d="M 197.002571 115.321326 
" clip-path="url(#p6f33f94b0c)" style="fill: none; stroke: #4c4c4c; stroke-width: 1.5; stroke-linecap: round"/>
    <g clip-path="url(#p6f33f94b0c)">
     <use xlink:href="#m0c775814b9" x="197.002571" y="115.321326" style="fill: #ffffff; stroke: #ffffff; stroke-width: 0.45"/>
    </g>
   </g>
   <g id="line2d_7">
    <path d="M 112.457116 31.764398 
L 112.457116 27.383844 
L 197.002571 27.383844 
L 197.002571 31.764398 
" style="fill: none; stroke: #333333; stroke-width: 0.5; stroke-linecap: round"/>
   </g>
   <g id="patch_3">
    <path d="M 71.029844 228.96 
L 71.029844 7.2 
" style="fill: none; stroke: #262626; stroke-width: 1.25; stroke-linejoin: miter; stroke-linecap: square"/>
   </g>
   <g id="patch_4">
    <path d="M 71.029844 228.96 
L 238.429844 228.96 
" style="fill: none; stroke: #262626; stroke-width: 1.25; stroke-linejoin: miter; stroke-linecap: square"/>
   </g>
   <g id="text_11">
    <!-- ** -->
    <g style="fill: #262626" transform="translate(150.059219 23.998844) scale(0.12 -0.12)">
     <defs>
      <path id="ArialMT-2a" d="M 200 3741 
L 344 4184 
Q 841 4009 1066 3881 
Q 1006 4447 1003 4659 
L 1456 4659 
Q 1447 4350 1384 3884 
Q 1706 4047 2122 4184 
L 2266 3741 
Q 1869 3609 1488 3566 
Q 1678 3400 2025 2975 
L 1650 2709 
Q 1469 2956 1222 3381 
Q 991 2941 816 2709 
L 447 2975 
Q 809 3422 966 3566 
Q 563 3644 200 3741 
z
" transform="scale(0.015625)"/>
     </defs>
     <use xlink:href="#ArialMT-2a"/>
     <use xlink:href="#ArialMT-2a" x="38.916016"/>
    </g>
   </g>
  </g>
 </g>
 <defs>
  <clipPath id="p6f33f94b0c">
   <rect x="71.029844" y="7.2" width="167.4" height="221.76"/>
  </clipPath>
 </defs>
</svg>
