<?xml version="1.0" encoding="utf-8" standalone="no"?>
<!DOCTYPE svg PUBLIC "-//W3C//DTD SVG 1.1//EN"
  "http://www.w3.org/Graphics/SVG/1.1/DTD/svg11.dtd">
<svg xmlns:xlink="http://www.w3.org/1999/xlink" width="242.265312pt" height="256.269473pt" viewBox="0 0 242.265312 256.269473" xmlns="http://www.w3.org/2000/svg" version="1.1">
 <metadata>
  <rdf:RDF xmlns:dc="http://purl.org/dc/elements/1.1/" xmlns:cc="http://creativecommons.org/ns#" xmlns:rdf="http://www.w3.org/1999/02/22-rdf-syntax-ns#">
   <cc:Work>
    <dc:type rdf:resource="http://purl.org/dc/dcmitype/StillImage"/>
    <dc:date>2025-08-13T11:23:25.043630</dc:date>
    <dc:format>image/svg+xml</dc:format>
    <dc:creator>
     <cc:Agent>
      <dc:title>Matplotlib v3.9.2, https://matplotlib.org/</dc:title>
     </cc:Agent>
    </dc:creator>
   </cc:Work>
  </rdf:RDF>
 </metadata>
 <defs>
  <style type="text/css">*{stroke-linejoin: round; stroke-linecap: butt}</style>
 </defs>
 <g id="figure_1">
  <g id="patch_1">
   <path d="M -0 256.269473 
L 242.265313 256.269473 
L 242.265313 0 
L -0 0 
z
" style="fill: #ffffff"/>
  </g>
  <g id="axes_1">
   <g id="patch_2">
    <path d="M 67.665313 230.42416 
L 235.065313 230.42416 
L 235.065313 8.66416 
L 67.665313 8.66416 
z
" style="fill: #ffffff"/>
   </g>
   <g id="matplotlib.axis_1">
    <g id="xtick_1">
     <g id="text_1">
      <!-- Full-term -->
      <g style="fill: #262626" transform="translate(89.372273 247.081973) scale(0.1 -0.1)">
       <defs>
        <path id="ArialMT-46" d="M 525 0 
L 525 4581 
L 3616 4581 
L 3616 4041 
L 1131 4041 
L 1131 2622 
L 3281 2622 
L 3281 2081 
L 1131 2081 
L 1131 0 
L 525 0 
z
" transform="scale(0.015625)"/>
        <path id="ArialMT-75" d="M 2597 0 
L 2597 488 
Q 2209 -75 1544 -75 
Q 1250 -75 995 37 
Q 741 150 617 320 
Q 494 491 444 738 
Q 409 903 409 1263 
L 409 3319 
L 972 3319 
L 972 1478 
Q 972 1038 1006 884 
Q 1059 663 1231 536 
Q 1403 409 1656 409 
Q 1909 409 2131 539 
Q 2353 669 2445 892 
Q 2538 1116 2538 1541 
L 2538 3319 
L 3100 3319 
L 3100 0 
L 2597 0 
z
" transform="scale(0.015625)"/>
        <path id="ArialMT-6c" d="M 409 0 
L 409 4581 
L 972 4581 
L 972 0 
L 409 0 
z
" transform="scale(0.015625)"/>
        <path id="ArialMT-2d" d="M 203 1375 
L 203 1941 
L 1931 1941 
L 1931 1375 
L 203 1375 
z
" transform="scale(0.015625)"/>
        <path id="ArialMT-74" d="M 1650 503 
L 1731 6 
Q 1494 -44 1306 -44 
Q 1000 -44 831 53 
Q 663 150 594 308 
Q 525 466 525 972 
L 525 2881 
L 113 2881 
L 113 3319 
L 525 3319 
L 525 4141 
L 1084 4478 
L 1084 3319 
L 1650 3319 
L 1650 2881 
L 1084 2881 
L 1084 941 
Q 1084 700 1114 631 
Q 1144 563 1211 522 
Q 1278 481 1403 481 
Q 1497 481 1650 503 
z
" transform="scale(0.015625)"/>
        <path id="ArialMT-65" d="M 2694 1069 
L 3275 997 
Q 3138 488 2766 206 
Q 2394 -75 1816 -75 
Q 1088 -75 661 373 
Q 234 822 234 1631 
Q 234 2469 665 2931 
Q 1097 3394 1784 3394 
Q 2450 3394 2872 2941 
Q 3294 2488 3294 1666 
Q 3294 1616 3291 1516 
L 816 1516 
Q 847 969 1125 678 
Q 1403 388 1819 388 
Q 2128 388 2347 550 
Q 2566 713 2694 1069 
z
M 847 1978 
L 2700 1978 
Q 2663 2397 2488 2606 
Q 2219 2931 1791 2931 
Q 1403 2931 1139 2672 
Q 875 2413 847 1978 
z
" transform="scale(0.015625)"/>
        <path id="ArialMT-72" d="M 416 0 
L 416 3319 
L 922 3319 
L 922 2816 
Q 1116 3169 1280 3281 
Q 1444 3394 1641 3394 
Q 1925 3394 2219 3213 
L 2025 2691 
Q 1819 2813 1613 2813 
Q 1428 2813 1281 2702 
Q 1134 2591 1072 2394 
Q 978 2094 978 1738 
L 978 0 
L 416 0 
z
" transform="scale(0.015625)"/>
        <path id="ArialMT-6d" d="M 422 0 
L 422 3319 
L 925 3319 
L 925 2853 
Q 1081 3097 1340 3245 
Q 1600 3394 1931 3394 
Q 2300 3394 2536 3241 
Q 2772 3088 2869 2813 
Q 3263 3394 3894 3394 
Q 4388 3394 4653 3120 
Q 4919 2847 4919 2278 
L 4919 0 
L 4359 0 
L 4359 2091 
Q 4359 2428 4304 2576 
Q 4250 2725 4106 2815 
Q 3963 2906 3769 2906 
Q 3419 2906 3187 2673 
Q 2956 2441 2956 1928 
L 2956 0 
L 2394 0 
L 2394 2156 
Q 2394 2531 2256 2718 
Q 2119 2906 1806 2906 
Q 1569 2906 1367 2781 
Q 1166 2656 1075 2415 
Q 984 2175 984 1722 
L 984 0 
L 422 0 
z
" transform="scale(0.015625)"/>
       </defs>
       <use xlink:href="#ArialMT-46"/>
       <use xlink:href="#ArialMT-75" x="61.083984"/>
       <use xlink:href="#ArialMT-6c" x="116.699219"/>
       <use xlink:href="#ArialMT-6c" x="138.916016"/>
       <use xlink:href="#ArialMT-2d" x="161.132812"/>
       <use xlink:href="#ArialMT-74" x="194.433594"/>
       <use xlink:href="#ArialMT-65" x="222.216797"/>
       <use xlink:href="#ArialMT-72" x="277.832031"/>
       <use xlink:href="#ArialMT-6d" x="311.132812"/>
      </g>
     </g>
    </g>
    <g id="xtick_2">
     <g id="text_2">
      <!-- Preterm -->
      <g style="fill: #262626" transform="translate(175.858352 247.081973) scale(0.1 -0.1)">
       <defs>
        <path id="ArialMT-50" d="M 494 0 
L 494 4581 
L 2222 4581 
Q 2678 4581 2919 4538 
Q 3256 4481 3484 4323 
Q 3713 4166 3852 3881 
Q 3991 3597 3991 3256 
Q 3991 2672 3619 2267 
Q 3247 1863 2275 1863 
L 1100 1863 
L 1100 0 
L 494 0 
z
M 1100 2403 
L 2284 2403 
Q 2872 2403 3119 2622 
Q 3366 2841 3366 3238 
Q 3366 3525 3220 3729 
Q 3075 3934 2838 4000 
Q 2684 4041 2272 4041 
L 1100 4041 
L 1100 2403 
z
" transform="scale(0.015625)"/>
       </defs>
       <use xlink:href="#ArialMT-50"/>
       <use xlink:href="#ArialMT-72" x="66.699219"/>
       <use xlink:href="#ArialMT-65" x="100"/>
       <use xlink:href="#ArialMT-74" x="155.615234"/>
       <use xlink:href="#ArialMT-65" x="183.398438"/>
       <use xlink:href="#ArialMT-72" x="239.013672"/>
       <use xlink:href="#ArialMT-6d" x="272.314453"/>
      </g>
     </g>
    </g>
   </g>
   <g id="matplotlib.axis_2">
    <g id="ytick_1">
     <g id="text_3">
      <!-- −40000 -->
      <g style="fill: #262626" transform="translate(24.52 196.907414) scale(0.1 -0.1)">
       <defs>
        <path id="ArialMT-2212" d="M 3381 1997 
L 356 1997 
L 356 2522 
L 3381 2522 
L 3381 1997 
z
" transform="scale(0.015625)"/>
        <path id="ArialMT-34" d="M 2069 0 
L 2069 1097 
L 81 1097 
L 81 1613 
L 2172 4581 
L 2631 4581 
L 2631 1613 
L 3250 1613 
L 3250 1097 
L 2631 1097 
L 2631 0 
L 2069 0 
z
M 2069 1613 
L 2069 3678 
L 634 1613 
L 2069 1613 
z
" transform="scale(0.015625)"/>
        <path id="ArialMT-30" d="M 266 2259 
Q 266 3072 433 3567 
Q 600 4063 929 4331 
Q 1259 4600 1759 4600 
Q 2128 4600 2406 4451 
Q 2684 4303 2865 4023 
Q 3047 3744 3150 3342 
Q 3253 2941 3253 2259 
Q 3253 1453 3087 958 
Q 2922 463 2592 192 
Q 2263 -78 1759 -78 
Q 1097 -78 719 397 
Q 266 969 266 2259 
z
M 844 2259 
Q 844 1131 1108 757 
Q 1372 384 1759 384 
Q 2147 384 2411 759 
Q 2675 1134 2675 2259 
Q 2675 3391 2411 3762 
Q 2147 4134 1753 4134 
Q 1366 4134 1134 3806 
Q 844 3388 844 2259 
z
" transform="scale(0.015625)"/>
       </defs>
       <use xlink:href="#ArialMT-2212"/>
       <use xlink:href="#ArialMT-34" x="58.398438"/>
       <use xlink:href="#ArialMT-30" x="114.013672"/>
       <use xlink:href="#ArialMT-30" x="169.628906"/>
       <use xlink:href="#ArialMT-30" x="225.244141"/>
       <use xlink:href="#ArialMT-30" x="280.859375"/>
      </g>
     </g>
    </g>
    <g id="ytick_2">
     <g id="text_4">
      <!-- −20000 -->
      <g style="fill: #262626" transform="translate(24.52 151.270013) scale(0.1 -0.1)">
       <defs>
        <path id="ArialMT-32" d="M 3222 541 
L 3222 0 
L 194 0 
Q 188 203 259 391 
Q 375 700 629 1000 
Q 884 1300 1366 1694 
Q 2113 2306 2375 2664 
Q 2638 3022 2638 3341 
Q 2638 3675 2398 3904 
Q 2159 4134 1775 4134 
Q 1369 4134 1125 3890 
Q 881 3647 878 3216 
L 300 3275 
Q 359 3922 746 4261 
Q 1134 4600 1788 4600 
Q 2447 4600 2831 4234 
Q 3216 3869 3216 3328 
Q 3216 3053 3103 2787 
Q 2991 2522 2730 2228 
Q 2469 1934 1863 1422 
Q 1356 997 1212 845 
Q 1069 694 975 541 
L 3222 541 
z
" transform="scale(0.015625)"/>
       </defs>
       <use xlink:href="#ArialMT-2212"/>
       <use xlink:href="#ArialMT-32" x="58.398438"/>
       <use xlink:href="#ArialMT-30" x="114.013672"/>
       <use xlink:href="#ArialMT-30" x="169.628906"/>
       <use xlink:href="#ArialMT-30" x="225.244141"/>
       <use xlink:href="#ArialMT-30" x="280.859375"/>
      </g>
     </g>
    </g>
    <g id="ytick_3">
     <g id="text_5">
      <!-- 0 -->
      <g style="fill: #262626" transform="translate(52.604375 105.632613) scale(0.1 -0.1)">
       <use xlink:href="#ArialMT-30"/>
      </g>
     </g>
    </g>
    <g id="ytick_4">
     <g id="text_6">
      <!-- 20000 -->
      <g style="fill: #262626" transform="translate(30.360625 59.995213) scale(0.1 -0.1)">
       <use xlink:href="#ArialMT-32"/>
       <use xlink:href="#ArialMT-30" x="55.615234"/>
       <use xlink:href="#ArialMT-30" x="111.230469"/>
       <use xlink:href="#ArialMT-30" x="166.845703"/>
       <use xlink:href="#ArialMT-30" x="222.460938"/>
      </g>
     </g>
    </g>
    <g id="ytick_5">
     <g id="text_7">
      <!-- 40000 -->
      <g style="fill: #262626" transform="translate(30.360625 14.357813) scale(0.1 -0.1)">
       <use xlink:href="#ArialMT-34"/>
       <use xlink:href="#ArialMT-30" x="55.615234"/>
       <use xlink:href="#ArialMT-30" x="111.230469"/>
       <use xlink:href="#ArialMT-30" x="166.845703"/>
       <use xlink:href="#ArialMT-30" x="222.460938"/>
      </g>
     </g>
    </g>
    <g id="text_8">
     <!-- GMV residuals [mm$^3$] -->
     <g style="fill: #262626" transform="translate(18.12 176.78416) rotate(-90) scale(0.12 -0.12)">
      <defs>
       <path id="ArialMT-47" d="M 2638 1797 
L 2638 2334 
L 4578 2338 
L 4578 638 
Q 4131 281 3656 101 
Q 3181 -78 2681 -78 
Q 2006 -78 1454 211 
Q 903 500 622 1047 
Q 341 1594 341 2269 
Q 341 2938 620 3517 
Q 900 4097 1425 4378 
Q 1950 4659 2634 4659 
Q 3131 4659 3532 4498 
Q 3934 4338 4162 4050 
Q 4391 3763 4509 3300 
L 3963 3150 
Q 3859 3500 3706 3700 
Q 3553 3900 3268 4020 
Q 2984 4141 2638 4141 
Q 2222 4141 1919 4014 
Q 1616 3888 1430 3681 
Q 1244 3475 1141 3228 
Q 966 2803 966 2306 
Q 966 1694 1177 1281 
Q 1388 869 1791 669 
Q 2194 469 2647 469 
Q 3041 469 3416 620 
Q 3791 772 3984 944 
L 3984 1797 
L 2638 1797 
z
" transform="scale(0.015625)"/>
       <path id="ArialMT-4d" d="M 475 0 
L 475 4581 
L 1388 4581 
L 2472 1338 
Q 2622 884 2691 659 
Q 2769 909 2934 1394 
L 4031 4581 
L 4847 4581 
L 4847 0 
L 4263 0 
L 4263 3834 
L 2931 0 
L 2384 0 
L 1059 3900 
L 1059 0 
L 475 0 
z
" transform="scale(0.015625)"/>
       <path id="ArialMT-56" d="M 1803 0 
L 28 4581 
L 684 4581 
L 1875 1253 
Q 2019 853 2116 503 
Q 2222 878 2363 1253 
L 3600 4581 
L 4219 4581 
L 2425 0 
L 1803 0 
z
" transform="scale(0.015625)"/>
       <path id="ArialMT-20" transform="scale(0.015625)"/>
       <path id="ArialMT-73" d="M 197 991 
L 753 1078 
Q 800 744 1014 566 
Q 1228 388 1613 388 
Q 2000 388 2187 545 
Q 2375 703 2375 916 
Q 2375 1106 2209 1216 
Q 2094 1291 1634 1406 
Q 1016 1563 777 1677 
Q 538 1791 414 1992 
Q 291 2194 291 2438 
Q 291 2659 392 2848 
Q 494 3038 669 3163 
Q 800 3259 1026 3326 
Q 1253 3394 1513 3394 
Q 1903 3394 2198 3281 
Q 2494 3169 2634 2976 
Q 2775 2784 2828 2463 
L 2278 2388 
Q 2241 2644 2061 2787 
Q 1881 2931 1553 2931 
Q 1166 2931 1000 2803 
Q 834 2675 834 2503 
Q 834 2394 903 2306 
Q 972 2216 1119 2156 
Q 1203 2125 1616 2013 
Q 2213 1853 2448 1751 
Q 2684 1650 2818 1456 
Q 2953 1263 2953 975 
Q 2953 694 2789 445 
Q 2625 197 2315 61 
Q 2006 -75 1616 -75 
Q 969 -75 630 194 
Q 291 463 197 991 
z
" transform="scale(0.015625)"/>
       <path id="ArialMT-69" d="M 425 3934 
L 425 4581 
L 988 4581 
L 988 3934 
L 425 3934 
z
M 425 0 
L 425 3319 
L 988 3319 
L 988 0 
L 425 0 
z
" transform="scale(0.015625)"/>
       <path id="ArialMT-64" d="M 2575 0 
L 2575 419 
Q 2259 -75 1647 -75 
Q 1250 -75 917 144 
Q 584 363 401 755 
Q 219 1147 219 1656 
Q 219 2153 384 2558 
Q 550 2963 881 3178 
Q 1213 3394 1622 3394 
Q 1922 3394 2156 3267 
Q 2391 3141 2538 2938 
L 2538 4581 
L 3097 4581 
L 3097 0 
L 2575 0 
z
M 797 1656 
Q 797 1019 1065 703 
Q 1334 388 1700 388 
Q 2069 388 2326 689 
Q 2584 991 2584 1609 
Q 2584 2291 2321 2609 
Q 2059 2928 1675 2928 
Q 1300 2928 1048 2622 
Q 797 2316 797 1656 
z
" transform="scale(0.015625)"/>
       <path id="ArialMT-61" d="M 2588 409 
Q 2275 144 1986 34 
Q 1697 -75 1366 -75 
Q 819 -75 525 192 
Q 231 459 231 875 
Q 231 1119 342 1320 
Q 453 1522 633 1644 
Q 813 1766 1038 1828 
Q 1203 1872 1538 1913 
Q 2219 1994 2541 2106 
Q 2544 2222 2544 2253 
Q 2544 2597 2384 2738 
Q 2169 2928 1744 2928 
Q 1347 2928 1158 2789 
Q 969 2650 878 2297 
L 328 2372 
Q 403 2725 575 2942 
Q 747 3159 1072 3276 
Q 1397 3394 1825 3394 
Q 2250 3394 2515 3294 
Q 2781 3194 2906 3042 
Q 3031 2891 3081 2659 
Q 3109 2516 3109 2141 
L 3109 1391 
Q 3109 606 3145 398 
Q 3181 191 3288 0 
L 2700 0 
Q 2613 175 2588 409 
z
M 2541 1666 
Q 2234 1541 1622 1453 
Q 1275 1403 1131 1340 
Q 988 1278 909 1158 
Q 831 1038 831 891 
Q 831 666 1001 516 
Q 1172 366 1500 366 
Q 1825 366 2078 508 
Q 2331 650 2450 897 
Q 2541 1088 2541 1459 
L 2541 1666 
z
" transform="scale(0.015625)"/>
       <path id="ArialMT-5b" d="M 434 -1272 
L 434 4581 
L 1675 4581 
L 1675 4116 
L 997 4116 
L 997 -806 
L 1675 -806 
L 1675 -1272 
L 434 -1272 
z
" transform="scale(0.015625)"/>
       <path id="DejaVuSans-33" d="M 2597 2516 
Q 3050 2419 3304 2112 
Q 3559 1806 3559 1356 
Q 3559 666 3084 287 
Q 2609 -91 1734 -91 
Q 1441 -91 1130 -33 
Q 819 25 488 141 
L 488 750 
Q 750 597 1062 519 
Q 1375 441 1716 441 
Q 2309 441 2620 675 
Q 2931 909 2931 1356 
Q 2931 1769 2642 2001 
Q 2353 2234 1838 2234 
L 1294 2234 
L 1294 2753 
L 1863 2753 
Q 2328 2753 2575 2939 
Q 2822 3125 2822 3475 
Q 2822 3834 2567 4026 
Q 2313 4219 1838 4219 
Q 1578 4219 1281 4162 
Q 984 4106 628 3988 
L 628 4550 
Q 988 4650 1302 4700 
Q 1616 4750 1894 4750 
Q 2613 4750 3031 4423 
Q 3450 4097 3450 3541 
Q 3450 3153 3228 2886 
Q 3006 2619 2597 2516 
z
" transform="scale(0.015625)"/>
       <path id="ArialMT-5d" d="M 1363 -1272 
L 122 -1272 
L 122 -806 
L 800 -806 
L 800 4116 
L 122 4116 
L 122 4581 
L 1363 4581 
L 1363 -1272 
z
" transform="scale(0.015625)"/>
      </defs>
      <use xlink:href="#ArialMT-47" transform="translate(0 0.765625)"/>
      <use xlink:href="#ArialMT-4d" transform="translate(77.783203 0.765625)"/>
      <use xlink:href="#ArialMT-56" transform="translate(161.083984 0.765625)"/>
      <use xlink:href="#ArialMT-20" transform="translate(227.783203 0.765625)"/>
      <use xlink:href="#ArialMT-72" transform="translate(255.566406 0.765625)"/>
      <use xlink:href="#ArialMT-65" transform="translate(288.867188 0.765625)"/>
      <use xlink:href="#ArialMT-73" transform="translate(344.482422 0.765625)"/>
      <use xlink:href="#ArialMT-69" transform="translate(394.482422 0.765625)"/>
      <use xlink:href="#ArialMT-64" transform="translate(416.699219 0.765625)"/>
      <use xlink:href="#ArialMT-75" transform="translate(472.314453 0.765625)"/>
      <use xlink:href="#ArialMT-61" transform="translate(527.929688 0.765625)"/>
      <use xlink:href="#ArialMT-6c" transform="translate(583.544922 0.765625)"/>
      <use xlink:href="#ArialMT-73" transform="translate(605.761719 0.765625)"/>
      <use xlink:href="#ArialMT-20" transform="translate(655.761719 0.765625)"/>
      <use xlink:href="#ArialMT-5b" transform="translate(683.544922 0.765625)"/>
      <use xlink:href="#ArialMT-6d" transform="translate(711.328125 0.765625)"/>
      <use xlink:href="#ArialMT-6d" transform="translate(794.628906 0.765625)"/>
      <use xlink:href="#DejaVuSans-33" transform="translate(878.886719 39.046875) scale(0.7)"/>
      <use xlink:href="#ArialMT-5d" transform="translate(926.157227 0.765625)"/>
     </g>
    </g>
   </g>
   <g id="PolyCollection_1">
    <defs>
     <path id="mcf414cc0f3" d="M 109.127697 -79.425572 
L 109.057474 -79.425572 
L 109.033651 -81.022539 
L 108.999785 -82.619506 
L 108.955179 -84.216473 
L 108.900664 -85.81344 
L 108.838633 -87.410407 
L 108.77241 -89.007375 
L 108.705025 -90.604342 
L 108.637707 -92.201309 
L 108.568586 -93.798276 
L 108.492023 -95.395243 
L 108.398754 -96.99221 
L 108.27677 -98.589177 
L 108.112646 -100.186144 
L 107.892955 -101.783111 
L 107.60546 -103.380078 
L 107.239918 -104.977045 
L 106.788501 -106.574012 
L 106.245988 -108.170979 
L 105.609896 -109.767946 
L 104.880659 -111.364914 
L 104.061858 -112.961881 
L 103.160363 -114.558848 
L 102.186159 -116.155815 
L 101.151515 -117.752782 
L 100.069153 -119.349749 
L 98.949341 -120.946716 
L 97.796348 -122.543683 
L 96.605289 -124.14065 
L 95.360771 -125.737617 
L 94.03852 -127.334584 
L 92.610555 -128.931551 
L 91.053448 -130.528518 
L 89.358202 -132.125486 
L 87.539184 -133.722453 
L 85.638845 -135.31942 
L 83.725259 -136.916387 
L 81.881506 -138.513354 
L 80.189487 -140.110321 
L 78.714056 -141.707288 
L 77.494039 -143.304255 
L 76.543541 -144.901222 
L 75.861219 -146.498189 
L 75.440596 -148.095156 
L 75.274403 -149.692123 
L 75.350634 -151.28909 
L 75.644522 -152.886058 
L 76.114289 -154.483025 
L 76.70657 -156.079992 
L 77.37105 -157.676959 
L 78.077355 -159.273926 
L 78.824944 -160.870893 
L 79.640253 -162.46786 
L 80.562197 -164.064827 
L 81.623126 -165.661794 
L 82.833931 -167.258761 
L 84.178951 -168.855728 
L 85.620995 -170.452695 
L 87.112452 -172.049662 
L 88.606957 -173.646629 
L 90.067507 -175.243597 
L 91.46962 -176.840564 
L 92.800587 -178.437531 
L 94.056885 -180.034498 
L 95.241511 -181.631465 
L 96.361895 -183.228432 
L 97.428101 -184.825399 
L 98.450826 -186.422366 
L 99.439142 -188.019333 
L 100.398511 -189.6163 
L 101.32975 -191.213267 
L 102.229263 -192.810234 
L 103.09024 -194.407201 
L 103.904154 -196.004169 
L 104.661986 -197.601136 
L 105.354952 -199.198103 
L 105.97492 -200.79507 
L 106.514912 -202.392037 
L 106.970007 -203.989004 
L 107.338629 -205.585971 
L 107.623866 -207.182938 
L 107.83415 -208.779905 
L 107.982764 -210.376872 
L 108.086032 -211.973839 
L 108.160637 -213.570806 
L 108.220953 -215.167773 
L 108.277289 -216.764741 
L 108.33551 -218.361708 
L 108.397913 -219.958675 
L 108.464694 -221.555642 
L 108.535221 -223.152609 
L 108.608631 -224.749576 
L 108.683726 -226.346543 
L 108.758605 -227.94351 
L 108.830535 -229.540477 
L 108.896314 -231.137444 
L 108.953022 -232.734411 
L 108.998794 -234.331378 
L 109.033226 -235.928345 
L 109.057304 -237.525313 
L 109.127866 -237.525313 
L 109.127866 -237.525313 
L 109.151944 -235.928345 
L 109.186377 -234.331378 
L 109.232148 -232.734411 
L 109.288857 -231.137444 
L 109.354635 -229.540477 
L 109.426565 -227.94351 
L 109.501445 -226.346543 
L 109.576539 -224.749576 
L 109.649949 -223.152609 
L 109.720477 -221.555642 
L 109.787257 -219.958675 
L 109.84966 -218.361708 
L 109.907881 -216.764741 
L 109.964217 -215.167773 
L 110.024534 -213.570806 
L 110.099138 -211.973839 
L 110.202406 -210.376872 
L 110.351021 -208.779905 
L 110.561304 -207.182938 
L 110.846541 -205.585971 
L 111.215164 -203.989004 
L 111.670258 -202.392037 
L 112.210251 -200.79507 
L 112.830218 -199.198103 
L 113.523184 -197.601136 
L 114.281017 -196.004169 
L 115.094931 -194.407201 
L 115.955907 -192.810234 
L 116.855421 -191.213267 
L 117.786659 -189.6163 
L 118.746028 -188.019333 
L 119.734345 -186.422366 
L 120.75707 -184.825399 
L 121.823275 -183.228432 
L 122.943659 -181.631465 
L 124.128286 -180.034498 
L 125.384583 -178.437531 
L 126.71555 -176.840564 
L 128.117664 -175.243597 
L 129.578213 -173.646629 
L 131.072718 -172.049662 
L 132.564175 -170.452695 
L 134.006219 -168.855728 
L 135.351239 -167.258761 
L 136.562045 -165.661794 
L 137.622973 -164.064827 
L 138.544917 -162.46786 
L 139.360226 -160.870893 
L 140.107816 -159.273926 
L 140.81412 -157.676959 
L 141.4786 -156.079992 
L 142.070881 -154.483025 
L 142.540648 -152.886058 
L 142.834536 -151.28909 
L 142.910767 -149.692123 
L 142.744575 -148.095156 
L 142.323952 -146.498189 
L 141.641629 -144.901222 
L 140.691132 -143.304255 
L 139.471115 -141.707288 
L 137.995684 -140.110321 
L 136.303665 -138.513354 
L 134.459911 -136.916387 
L 132.546325 -135.31942 
L 130.645987 -133.722453 
L 128.826968 -132.125486 
L 127.131722 -130.528518 
L 125.574615 -128.931551 
L 124.14665 -127.334584 
L 122.8244 -125.737617 
L 121.579881 -124.14065 
L 120.388823 -122.543683 
L 119.235829 -120.946716 
L 118.116018 -119.349749 
L 117.033655 -117.752782 
L 115.999011 -116.155815 
L 115.024808 -114.558848 
L 114.123312 -112.961881 
L 113.304511 -111.364914 
L 112.575275 -109.767946 
L 111.939183 -108.170979 
L 111.39667 -106.574012 
L 110.945253 -104.977045 
L 110.579711 -103.380078 
L 110.292216 -101.783111 
L 110.072525 -100.186144 
L 109.908401 -98.589177 
L 109.786417 -96.99221 
L 109.693147 -95.395243 
L 109.616584 -93.798276 
L 109.547463 -92.201309 
L 109.480145 -90.604342 
L 109.412761 -89.007375 
L 109.346538 -87.410407 
L 109.284506 -85.81344 
L 109.229991 -84.216473 
L 109.185385 -82.619506 
L 109.15152 -81.022539 
L 109.127697 -79.425572 
z
" style="stroke: #4c4c4c; stroke-width: 0.5"/>
    </defs>
    <g clip-path="url(#p4176a6fa27)">
     <use xlink:href="#mcf414cc0f3" x="0" y="256.269473" style="fill: #5573cd; stroke: #4c4c4c; stroke-width: 0.5"/>
    </g>
   </g>
   <g id="PolyCollection_2">
    <defs>
     <path id="m588112753a" d="M 193.798288 -35.925313 
L 193.477791 -35.925313 
L 193.415426 -37.896144 
L 193.337192 -39.866975 
L 193.242376 -41.837806 
L 193.131425 -43.808637 
L 193.006156 -45.779468 
L 192.869796 -47.750299 
L 192.726815 -49.72113 
L 192.582544 -51.691961 
L 192.442631 -53.662792 
L 192.312436 -55.633624 
L 192.196481 -57.604455 
L 192.098067 -59.575286 
L 192.019149 -61.546117 
L 191.960472 -63.516948 
L 191.921895 -65.487779 
L 191.902801 -67.45861 
L 191.902421 -69.429441 
L 191.919961 -71.400272 
L 191.954458 -73.371104 
L 192.004386 -75.341935 
L 192.067111 -77.312766 
L 192.138359 -79.283597 
L 192.211858 -81.254428 
L 192.279297 -83.225259 
L 192.330654 -85.19609 
L 192.35486 -87.166921 
L 192.340683 -89.137752 
L 192.277633 -91.108583 
L 192.156691 -93.079415 
L 191.970667 -95.050246 
L 191.714057 -97.021077 
L 191.382407 -98.991908 
L 190.971258 -100.962739 
L 190.47494 -102.93357 
L 189.885517 -104.904401 
L 189.192251 -106.875232 
L 188.381893 -108.846063 
L 187.439964 -110.816895 
L 186.352982 -112.787726 
L 185.111335 -114.758557 
L 183.712284 -116.729388 
L 182.162466 -118.700219 
L 180.479255 -120.67105 
L 178.690553 -122.641881 
L 176.832855 -124.612712 
L 174.94786 -126.583543 
L 173.078207 -128.554375 
L 171.263203 -130.525206 
L 169.535408 -132.496037 
L 167.918779 -134.466868 
L 166.428706 -136.437699 
L 165.073766 -138.40853 
L 163.858638 -140.379361 
L 162.78725 -142.350192 
L 161.865264 -144.321023 
L 161.101139 -146.291854 
L 160.505511 -148.262686 
L 160.089093 -150.233517 
L 159.859775 -152.204348 
L 159.819858 -154.175179 
L 159.964324 -156.14601 
L 160.280759 -158.116841 
L 160.751047 -160.087672 
L 161.354458 -162.058503 
L 162.071319 -164.029334 
L 162.886304 -166.000166 
L 163.790458 -167.970997 
L 164.781413 -169.941828 
L 165.86175 -171.912659 
L 167.035897 -173.88349 
L 168.306368 -175.854321 
L 169.670235 -177.825152 
L 171.116696 -179.795983 
L 172.626281 -181.766814 
L 174.171894 -183.737645 
L 175.721438 -185.708477 
L 177.241497 -187.679308 
L 178.701319 -189.650139 
L 180.076359 -191.62097 
L 181.350752 -193.591801 
L 182.518342 -195.562632 
L 183.582171 -197.533463 
L 184.552633 -199.504294 
L 185.444693 -201.475125 
L 186.274748 -203.445957 
L 187.057665 -205.416788 
L 187.804494 -207.387619 
L 188.521163 -209.35845 
L 189.208266 -211.329281 
L 189.861834 -213.300112 
L 190.474815 -215.270943 
L 191.038916 -217.241774 
L 191.5464 -219.212605 
L 191.991555 -221.183437 
L 192.371607 -223.154268 
L 192.687033 -225.125099 
L 192.941328 -227.09593 
L 193.140375 -229.066761 
L 193.291602 -231.037592 
L 193.984478 -231.037592 
L 193.984478 -231.037592 
L 194.135704 -229.066761 
L 194.334751 -227.09593 
L 194.589047 -225.125099 
L 194.904473 -223.154268 
L 195.284524 -221.183437 
L 195.729679 -219.212605 
L 196.237164 -217.241774 
L 196.801264 -215.270943 
L 197.414246 -213.300112 
L 198.067813 -211.329281 
L 198.754917 -209.35845 
L 199.471586 -207.387619 
L 200.218414 -205.416788 
L 201.001331 -203.445957 
L 201.831387 -201.475125 
L 202.723447 -199.504294 
L 203.693908 -197.533463 
L 204.757738 -195.562632 
L 205.925328 -193.591801 
L 207.199721 -191.62097 
L 208.57476 -189.650139 
L 210.034583 -187.679308 
L 211.554642 -185.708477 
L 213.104186 -183.737645 
L 214.649798 -181.766814 
L 216.159384 -179.795983 
L 217.605844 -177.825152 
L 218.969712 -175.854321 
L 220.240183 -173.88349 
L 221.41433 -171.912659 
L 222.494666 -169.941828 
L 223.485622 -167.970997 
L 224.389776 -166.000166 
L 225.204761 -164.029334 
L 225.921622 -162.058503 
L 226.525032 -160.087672 
L 226.99532 -158.116841 
L 227.311755 -156.14601 
L 227.456222 -154.175179 
L 227.416304 -152.204348 
L 227.186986 -150.233517 
L 226.770569 -148.262686 
L 226.174941 -146.291854 
L 225.410816 -144.321023 
L 224.488829 -142.350192 
L 223.417442 -140.379361 
L 222.202313 -138.40853 
L 220.847374 -136.437699 
L 219.3573 -134.466868 
L 217.740672 -132.496037 
L 216.012876 -130.525206 
L 214.197872 -128.554375 
L 212.328219 -126.583543 
L 210.443224 -124.612712 
L 208.585527 -122.641881 
L 206.796824 -120.67105 
L 205.113614 -118.700219 
L 203.563795 -116.729388 
L 202.164745 -114.758557 
L 200.923097 -112.787726 
L 199.836116 -110.816895 
L 198.894187 -108.846063 
L 198.083829 -106.875232 
L 197.390562 -104.904401 
L 196.801139 -102.93357 
L 196.304822 -100.962739 
L 195.893673 -98.991908 
L 195.562022 -97.021077 
L 195.305413 -95.050246 
L 195.119388 -93.079415 
L 194.998447 -91.108583 
L 194.935396 -89.137752 
L 194.921219 -87.166921 
L 194.945426 -85.19609 
L 194.996783 -83.225259 
L 195.064222 -81.254428 
L 195.13772 -79.283597 
L 195.208968 -77.312766 
L 195.271693 -75.341935 
L 195.321622 -73.371104 
L 195.356119 -71.400272 
L 195.373659 -69.429441 
L 195.373278 -67.45861 
L 195.354184 -65.487779 
L 195.315608 -63.516948 
L 195.25693 -61.546117 
L 195.178013 -59.575286 
L 195.079598 -57.604455 
L 194.963643 -55.633624 
L 194.833449 -53.662792 
L 194.693536 -51.691961 
L 194.549264 -49.72113 
L 194.406283 -47.750299 
L 194.269924 -45.779468 
L 194.144654 -43.808637 
L 194.033703 -41.837806 
L 193.938887 -39.866975 
L 193.860653 -37.896144 
L 193.798288 -35.925313 
z
" style="stroke: #4c4c4c; stroke-width: 0.5"/>
    </defs>
    <g clip-path="url(#p4176a6fa27)">
     <use xlink:href="#m588112753a" x="0" y="256.269473" style="fill: #df8920; stroke: #4c4c4c; stroke-width: 0.5"/>
    </g>
   </g>
   <g id="line2d_1">
    <path d="M 109.092585 151.85852 
L 109.092585 49.535445 
" clip-path="url(#p4176a6fa27)" style="fill: none; stroke: #4c4c4c; stroke-width: 0.75; stroke-linecap: round"/>
   </g>
   <g id="line2d_2">
    <path d="M 109.092585 115.878635 
L 109.092585 88.531068 
" clip-path="url(#p4176a6fa27)" style="fill: none; stroke: #4c4c4c; stroke-width: 2.25; stroke-linecap: round"/>
   </g>
   <g id="line2d_3">
    <path d="M 109.092585 103.017245 
" clip-path="url(#p4176a6fa27)" style="fill: none; stroke: #4c4c4c; stroke-width: 1.5; stroke-linecap: round"/>
    <defs>
     <path id="m50d02748b3" d="M 0.9375 0 
L -0.9375 -0 
" style="stroke: #ffffff; stroke-width: 0.45"/>
    </defs>
    <g clip-path="url(#p4176a6fa27)">
     <use xlink:href="#m50d02748b3" x="109.092585" y="103.017245" style="fill: #ffffff; stroke: #ffffff; stroke-width: 0.45"/>
    </g>
   </g>
   <g id="line2d_4">
    <path d="M 193.63804 148.649331 
L 193.63804 48.48451 
" clip-path="url(#p4176a6fa27)" style="fill: none; stroke: #4c4c4c; stroke-width: 0.75; stroke-linecap: round"/>
   </g>
   <g id="line2d_5">
    <path d="M 193.63804 118.278046 
L 193.63804 83.021906 
" clip-path="url(#p4176a6fa27)" style="fill: none; stroke: #4c4c4c; stroke-width: 2.25; stroke-linecap: round"/>
   </g>
   <g id="line2d_6">
    <path d="M 193.63804 101.010728 
" clip-path="url(#p4176a6fa27)" style="fill: none; stroke: #4c4c4c; stroke-width: 1.5; stroke-linecap: round"/>
    <g clip-path="url(#p4176a6fa27)">
     <use xlink:href="#m50d02748b3" x="193.63804" y="101.010728" style="fill: #ffffff; stroke: #ffffff; stroke-width: 0.45"/>
    </g>
   </g>
   <g id="line2d_7">
    <path d="M 109.092585 35.17891 
L 109.092585 30.74371 
L 193.63804 30.74371 
L 193.63804 35.17891 
" style="fill: none; stroke: #333333; stroke-width: 0.5; stroke-linecap: round"/>
   </g>
   <g id="patch_3">
    <path d="M 67.665313 230.42416 
L 67.665313 8.66416 
" style="fill: none; stroke: #262626; stroke-width: 1.25; stroke-linejoin: miter; stroke-linecap: square"/>
   </g>
   <g id="patch_4">
    <path d="M 67.665312 230.42416 
L 235.065313 230.42416 
" style="fill: none; stroke: #262626; stroke-width: 1.25; stroke-linejoin: miter; stroke-linecap: square"/>
   </g>
   <g id="text_9">
    <!-- ns -->
    <g style="fill: #262626" transform="translate(146.084844 27.75621) scale(0.1 -0.1)">
     <defs>
      <path id="ArialMT-6e" d="M 422 0 
L 422 3319 
L 928 3319 
L 928 2847 
Q 1294 3394 1984 3394 
Q 2284 3394 2536 3286 
Q 2788 3178 2913 3003 
Q 3038 2828 3088 2588 
Q 3119 2431 3119 2041 
L 3119 0 
L 2556 0 
L 2556 2019 
Q 2556 2363 2490 2533 
Q 2425 2703 2258 2804 
Q 2091 2906 1866 2906 
Q 1506 2906 1245 2678 
Q 984 2450 984 1813 
L 984 0 
L 422 0 
z
" transform="scale(0.015625)"/>
     </defs>
     <use xlink:href="#ArialMT-6e"/>
     <use xlink:href="#ArialMT-73" x="55.615234"/>
    </g>
   </g>
  </g>
 </g>
 <defs>
  <clipPath id="p4176a6fa27">
   <rect x="67.665313" y="8.66416" width="167.4" height="221.76"/>
  </clipPath>
 </defs>
</svg>
