<?xml version="1.0" encoding="utf-8" standalone="no"?>
<!DOCTYPE svg PUBLIC "-//W3C//DTD SVG 1.1//EN"
  "http://www.w3.org/Graphics/SVG/1.1/DTD/svg11.dtd">
<svg xmlns:xlink="http://www.w3.org/1999/xlink" width="242.265312pt" height="254.805312pt" viewBox="0 0 242.265312 254.805312" xmlns="http://www.w3.org/2000/svg" version="1.1">
 <metadata>
  <rdf:RDF xmlns:dc="http://purl.org/dc/elements/1.1/" xmlns:cc="http://creativecommons.org/ns#" xmlns:rdf="http://www.w3.org/1999/02/22-rdf-syntax-ns#">
   <cc:Work>
    <dc:type rdf:resource="http://purl.org/dc/dcmitype/StillImage"/>
    <dc:date>2025-08-13T11:23:24.824529</dc:date>
    <dc:format>image/svg+xml</dc:format>
    <dc:creator>
     <cc:Agent>
      <dc:title>Matplotlib v3.9.2, https://matplotlib.org/</dc:title>
     </cc:Agent>
    </dc:creator>
   </cc:Work>
  </rdf:RDF>
 </metadata>
 <defs>
  <style type="text/css">*{stroke-linejoin: round; stroke-linecap: butt}</style>
 </defs>
 <g id="figure_1">
  <g id="patch_1">
   <path d="M -0 254.805312 
L 242.265313 254.805312 
L 242.265313 0 
L -0 0 
z
" style="fill: #ffffff"/>
  </g>
  <g id="axes_1">
   <g id="patch_2">
    <path d="M 67.665313 228.96 
L 235.065313 228.96 
L 235.065313 7.2 
L 67.665313 7.2 
z
" style="fill: #ffffff"/>
   </g>
   <g id="matplotlib.axis_1">
    <g id="xtick_1">
     <g id="text_1">
      <!-- Full-term -->
      <g style="fill: #262626" transform="translate(89.372273 245.617812) scale(0.1 -0.1)">
       <defs>
        <path id="ArialMT-46" d="M 525 0 
L 525 4581 
L 3616 4581 
L 3616 4041 
L 1131 4041 
L 1131 2622 
L 3281 2622 
L 3281 2081 
L 1131 2081 
L 1131 0 
L 525 0 
z
" transform="scale(0.015625)"/>
        <path id="ArialMT-75" d="M 2597 0 
L 2597 488 
Q 2209 -75 1544 -75 
Q 1250 -75 995 37 
Q 741 150 617 320 
Q 494 491 444 738 
Q 409 903 409 1263 
L 409 3319 
L 972 3319 
L 972 1478 
Q 972 1038 1006 884 
Q 1059 663 1231 536 
Q 1403 409 1656 409 
Q 1909 409 2131 539 
Q 2353 669 2445 892 
Q 2538 1116 2538 1541 
L 2538 3319 
L 3100 3319 
L 3100 0 
L 2597 0 
z
" transform="scale(0.015625)"/>
        <path id="ArialMT-6c" d="M 409 0 
L 409 4581 
L 972 4581 
L 972 0 
L 409 0 
z
" transform="scale(0.015625)"/>
        <path id="ArialMT-2d" d="M 203 1375 
L 203 1941 
L 1931 1941 
L 1931 1375 
L 203 1375 
z
" transform="scale(0.015625)"/>
        <path id="ArialMT-74" d="M 1650 503 
L 1731 6 
Q 1494 -44 1306 -44 
Q 1000 -44 831 53 
Q 663 150 594 308 
Q 525 466 525 972 
L 525 2881 
L 113 2881 
L 113 3319 
L 525 3319 
L 525 4141 
L 1084 4478 
L 1084 3319 
L 1650 3319 
L 1650 2881 
L 1084 2881 
L 1084 941 
Q 1084 700 1114 631 
Q 1144 563 1211 522 
Q 1278 481 1403 481 
Q 1497 481 1650 503 
z
" transform="scale(0.015625)"/>
        <path id="ArialMT-65" d="M 2694 1069 
L 3275 997 
Q 3138 488 2766 206 
Q 2394 -75 1816 -75 
Q 1088 -75 661 373 
Q 234 822 234 1631 
Q 234 2469 665 2931 
Q 1097 3394 1784 3394 
Q 2450 3394 2872 2941 
Q 3294 2488 3294 1666 
Q 3294 1616 3291 1516 
L 816 1516 
Q 847 969 1125 678 
Q 1403 388 1819 388 
Q 2128 388 2347 550 
Q 2566 713 2694 1069 
z
M 847 1978 
L 2700 1978 
Q 2663 2397 2488 2606 
Q 2219 2931 1791 2931 
Q 1403 2931 1139 2672 
Q 875 2413 847 1978 
z
" transform="scale(0.015625)"/>
        <path id="ArialMT-72" d="M 416 0 
L 416 3319 
L 922 3319 
L 922 2816 
Q 1116 3169 1280 3281 
Q 1444 3394 1641 3394 
Q 1925 3394 2219 3213 
L 2025 2691 
Q 1819 2813 1613 2813 
Q 1428 2813 1281 2702 
Q 1134 2591 1072 2394 
Q 978 2094 978 1738 
L 978 0 
L 416 0 
z
" transform="scale(0.015625)"/>
        <path id="ArialMT-6d" d="M 422 0 
L 422 3319 
L 925 3319 
L 925 2853 
Q 1081 3097 1340 3245 
Q 1600 3394 1931 3394 
Q 2300 3394 2536 3241 
Q 2772 3088 2869 2813 
Q 3263 3394 3894 3394 
Q 4388 3394 4653 3120 
Q 4919 2847 4919 2278 
L 4919 0 
L 4359 0 
L 4359 2091 
Q 4359 2428 4304 2576 
Q 4250 2725 4106 2815 
Q 3963 2906 3769 2906 
Q 3419 2906 3187 2673 
Q 2956 2441 2956 1928 
L 2956 0 
L 2394 0 
L 2394 2156 
Q 2394 2531 2256 2718 
Q 2119 2906 1806 2906 
Q 1569 2906 1367 2781 
Q 1166 2656 1075 2415 
Q 984 2175 984 1722 
L 984 0 
L 422 0 
z
" transform="scale(0.015625)"/>
       </defs>
       <use xlink:href="#ArialMT-46"/>
       <use xlink:href="#ArialMT-75" x="61.083984"/>
       <use xlink:href="#ArialMT-6c" x="116.699219"/>
       <use xlink:href="#ArialMT-6c" x="138.916016"/>
       <use xlink:href="#ArialMT-2d" x="161.132812"/>
       <use xlink:href="#ArialMT-74" x="194.433594"/>
       <use xlink:href="#ArialMT-65" x="222.216797"/>
       <use xlink:href="#ArialMT-72" x="277.832031"/>
       <use xlink:href="#ArialMT-6d" x="311.132812"/>
      </g>
     </g>
    </g>
    <g id="xtick_2">
     <g id="text_2">
      <!-- Preterm -->
      <g style="fill: #262626" transform="translate(175.858352 245.617812) scale(0.1 -0.1)">
       <defs>
        <path id="ArialMT-50" d="M 494 0 
L 494 4581 
L 2222 4581 
Q 2678 4581 2919 4538 
Q 3256 4481 3484 4323 
Q 3713 4166 3852 3881 
Q 3991 3597 3991 3256 
Q 3991 2672 3619 2267 
Q 3247 1863 2275 1863 
L 1100 1863 
L 1100 0 
L 494 0 
z
M 1100 2403 
L 2284 2403 
Q 2872 2403 3119 2622 
Q 3366 2841 3366 3238 
Q 3366 3525 3220 3729 
Q 3075 3934 2838 4000 
Q 2684 4041 2272 4041 
L 1100 4041 
L 1100 2403 
z
" transform="scale(0.015625)"/>
       </defs>
       <use xlink:href="#ArialMT-50"/>
       <use xlink:href="#ArialMT-72" x="66.699219"/>
       <use xlink:href="#ArialMT-65" x="100"/>
       <use xlink:href="#ArialMT-74" x="155.615234"/>
       <use xlink:href="#ArialMT-65" x="183.398438"/>
       <use xlink:href="#ArialMT-72" x="239.013672"/>
       <use xlink:href="#ArialMT-6d" x="272.314453"/>
      </g>
     </g>
    </g>
   </g>
   <g id="matplotlib.axis_2">
    <g id="ytick_1">
     <g id="text_3">
      <!-- −60000 -->
      <g style="fill: #262626" transform="translate(24.52 215.772073) scale(0.1 -0.1)">
       <defs>
        <path id="ArialMT-2212" d="M 3381 1997 
L 356 1997 
L 356 2522 
L 3381 2522 
L 3381 1997 
z
" transform="scale(0.015625)"/>
        <path id="ArialMT-36" d="M 3184 3459 
L 2625 3416 
Q 2550 3747 2413 3897 
Q 2184 4138 1850 4138 
Q 1581 4138 1378 3988 
Q 1113 3794 959 3422 
Q 806 3050 800 2363 
Q 1003 2672 1297 2822 
Q 1591 2972 1913 2972 
Q 2475 2972 2870 2558 
Q 3266 2144 3266 1488 
Q 3266 1056 3080 686 
Q 2894 316 2569 119 
Q 2244 -78 1831 -78 
Q 1128 -78 684 439 
Q 241 956 241 2144 
Q 241 3472 731 4075 
Q 1159 4600 1884 4600 
Q 2425 4600 2770 4297 
Q 3116 3994 3184 3459 
z
M 888 1484 
Q 888 1194 1011 928 
Q 1134 663 1356 523 
Q 1578 384 1822 384 
Q 2178 384 2434 671 
Q 2691 959 2691 1453 
Q 2691 1928 2437 2201 
Q 2184 2475 1800 2475 
Q 1419 2475 1153 2201 
Q 888 1928 888 1484 
z
" transform="scale(0.015625)"/>
        <path id="ArialMT-30" d="M 266 2259 
Q 266 3072 433 3567 
Q 600 4063 929 4331 
Q 1259 4600 1759 4600 
Q 2128 4600 2406 4451 
Q 2684 4303 2865 4023 
Q 3047 3744 3150 3342 
Q 3253 2941 3253 2259 
Q 3253 1453 3087 958 
Q 2922 463 2592 192 
Q 2263 -78 1759 -78 
Q 1097 -78 719 397 
Q 266 969 266 2259 
z
M 844 2259 
Q 844 1131 1108 757 
Q 1372 384 1759 384 
Q 2147 384 2411 759 
Q 2675 1134 2675 2259 
Q 2675 3391 2411 3762 
Q 2147 4134 1753 4134 
Q 1366 4134 1134 3806 
Q 844 3388 844 2259 
z
" transform="scale(0.015625)"/>
       </defs>
       <use xlink:href="#ArialMT-2212"/>
       <use xlink:href="#ArialMT-36" x="58.398438"/>
       <use xlink:href="#ArialMT-30" x="114.013672"/>
       <use xlink:href="#ArialMT-30" x="169.628906"/>
       <use xlink:href="#ArialMT-30" x="225.244141"/>
       <use xlink:href="#ArialMT-30" x="280.859375"/>
      </g>
     </g>
    </g>
    <g id="ytick_2">
     <g id="text_4">
      <!-- −40000 -->
      <g style="fill: #262626" transform="translate(24.52 185.178682) scale(0.1 -0.1)">
       <defs>
        <path id="ArialMT-34" d="M 2069 0 
L 2069 1097 
L 81 1097 
L 81 1613 
L 2172 4581 
L 2631 4581 
L 2631 1613 
L 3250 1613 
L 3250 1097 
L 2631 1097 
L 2631 0 
L 2069 0 
z
M 2069 1613 
L 2069 3678 
L 634 1613 
L 2069 1613 
z
" transform="scale(0.015625)"/>
       </defs>
       <use xlink:href="#ArialMT-2212"/>
       <use xlink:href="#ArialMT-34" x="58.398438"/>
       <use xlink:href="#ArialMT-30" x="114.013672"/>
       <use xlink:href="#ArialMT-30" x="169.628906"/>
       <use xlink:href="#ArialMT-30" x="225.244141"/>
       <use xlink:href="#ArialMT-30" x="280.859375"/>
      </g>
     </g>
    </g>
    <g id="ytick_3">
     <g id="text_5">
      <!-- −20000 -->
      <g style="fill: #262626" transform="translate(24.52 154.585291) scale(0.1 -0.1)">
       <defs>
        <path id="ArialMT-32" d="M 3222 541 
L 3222 0 
L 194 0 
Q 188 203 259 391 
Q 375 700 629 1000 
Q 884 1300 1366 1694 
Q 2113 2306 2375 2664 
Q 2638 3022 2638 3341 
Q 2638 3675 2398 3904 
Q 2159 4134 1775 4134 
Q 1369 4134 1125 3890 
Q 881 3647 878 3216 
L 300 3275 
Q 359 3922 746 4261 
Q 1134 4600 1788 4600 
Q 2447 4600 2831 4234 
Q 3216 3869 3216 3328 
Q 3216 3053 3103 2787 
Q 2991 2522 2730 2228 
Q 2469 1934 1863 1422 
Q 1356 997 1212 845 
Q 1069 694 975 541 
L 3222 541 
z
" transform="scale(0.015625)"/>
       </defs>
       <use xlink:href="#ArialMT-2212"/>
       <use xlink:href="#ArialMT-32" x="58.398438"/>
       <use xlink:href="#ArialMT-30" x="114.013672"/>
       <use xlink:href="#ArialMT-30" x="169.628906"/>
       <use xlink:href="#ArialMT-30" x="225.244141"/>
       <use xlink:href="#ArialMT-30" x="280.859375"/>
      </g>
     </g>
    </g>
    <g id="ytick_4">
     <g id="text_6">
      <!-- 0 -->
      <g style="fill: #262626" transform="translate(52.604375 123.9919) scale(0.1 -0.1)">
       <use xlink:href="#ArialMT-30"/>
      </g>
     </g>
    </g>
    <g id="ytick_5">
     <g id="text_7">
      <!-- 20000 -->
      <g style="fill: #262626" transform="translate(30.360625 93.39851) scale(0.1 -0.1)">
       <use xlink:href="#ArialMT-32"/>
       <use xlink:href="#ArialMT-30" x="55.615234"/>
       <use xlink:href="#ArialMT-30" x="111.230469"/>
       <use xlink:href="#ArialMT-30" x="166.845703"/>
       <use xlink:href="#ArialMT-30" x="222.460938"/>
      </g>
     </g>
    </g>
    <g id="ytick_6">
     <g id="text_8">
      <!-- 40000 -->
      <g style="fill: #262626" transform="translate(30.360625 62.805119) scale(0.1 -0.1)">
       <use xlink:href="#ArialMT-34"/>
       <use xlink:href="#ArialMT-30" x="55.615234"/>
       <use xlink:href="#ArialMT-30" x="111.230469"/>
       <use xlink:href="#ArialMT-30" x="166.845703"/>
       <use xlink:href="#ArialMT-30" x="222.460938"/>
      </g>
     </g>
    </g>
    <g id="ytick_7">
     <g id="text_9">
      <!-- 60000 -->
      <g style="fill: #262626" transform="translate(30.360625 32.211728) scale(0.1 -0.1)">
       <use xlink:href="#ArialMT-36"/>
       <use xlink:href="#ArialMT-30" x="55.615234"/>
       <use xlink:href="#ArialMT-30" x="111.230469"/>
       <use xlink:href="#ArialMT-30" x="166.845703"/>
       <use xlink:href="#ArialMT-30" x="222.460938"/>
      </g>
     </g>
    </g>
    <g id="text_10">
     <!-- WMV residuals [mm$^3$] -->
     <g style="fill: #262626" transform="translate(18.12 176.34) rotate(-90) scale(0.12 -0.12)">
      <defs>
       <path id="ArialMT-57" d="M 1294 0 
L 78 4581 
L 700 4581 
L 1397 1578 
Q 1509 1106 1591 641 
Q 1766 1375 1797 1488 
L 2669 4581 
L 3400 4581 
L 4056 2263 
Q 4303 1400 4413 641 
Q 4500 1075 4641 1638 
L 5359 4581 
L 5969 4581 
L 4713 0 
L 4128 0 
L 3163 3491 
Q 3041 3928 3019 4028 
Q 2947 3713 2884 3491 
L 1913 0 
L 1294 0 
z
" transform="scale(0.015625)"/>
       <path id="ArialMT-4d" d="M 475 0 
L 475 4581 
L 1388 4581 
L 2472 1338 
Q 2622 884 2691 659 
Q 2769 909 2934 1394 
L 4031 4581 
L 4847 4581 
L 4847 0 
L 4263 0 
L 4263 3834 
L 2931 0 
L 2384 0 
L 1059 3900 
L 1059 0 
L 475 0 
z
" transform="scale(0.015625)"/>
       <path id="ArialMT-56" d="M 1803 0 
L 28 4581 
L 684 4581 
L 1875 1253 
Q 2019 853 2116 503 
Q 2222 878 2363 1253 
L 3600 4581 
L 4219 4581 
L 2425 0 
L 1803 0 
z
" transform="scale(0.015625)"/>
       <path id="ArialMT-20" transform="scale(0.015625)"/>
       <path id="ArialMT-73" d="M 197 991 
L 753 1078 
Q 800 744 1014 566 
Q 1228 388 1613 388 
Q 2000 388 2187 545 
Q 2375 703 2375 916 
Q 2375 1106 2209 1216 
Q 2094 1291 1634 1406 
Q 1016 1563 777 1677 
Q 538 1791 414 1992 
Q 291 2194 291 2438 
Q 291 2659 392 2848 
Q 494 3038 669 3163 
Q 800 3259 1026 3326 
Q 1253 3394 1513 3394 
Q 1903 3394 2198 3281 
Q 2494 3169 2634 2976 
Q 2775 2784 2828 2463 
L 2278 2388 
Q 2241 2644 2061 2787 
Q 1881 2931 1553 2931 
Q 1166 2931 1000 2803 
Q 834 2675 834 2503 
Q 834 2394 903 2306 
Q 972 2216 1119 2156 
Q 1203 2125 1616 2013 
Q 2213 1853 2448 1751 
Q 2684 1650 2818 1456 
Q 2953 1263 2953 975 
Q 2953 694 2789 445 
Q 2625 197 2315 61 
Q 2006 -75 1616 -75 
Q 969 -75 630 194 
Q 291 463 197 991 
z
" transform="scale(0.015625)"/>
       <path id="ArialMT-69" d="M 425 3934 
L 425 4581 
L 988 4581 
L 988 3934 
L 425 3934 
z
M 425 0 
L 425 3319 
L 988 3319 
L 988 0 
L 425 0 
z
" transform="scale(0.015625)"/>
       <path id="ArialMT-64" d="M 2575 0 
L 2575 419 
Q 2259 -75 1647 -75 
Q 1250 -75 917 144 
Q 584 363 401 755 
Q 219 1147 219 1656 
Q 219 2153 384 2558 
Q 550 2963 881 3178 
Q 1213 3394 1622 3394 
Q 1922 3394 2156 3267 
Q 2391 3141 2538 2938 
L 2538 4581 
L 3097 4581 
L 3097 0 
L 2575 0 
z
M 797 1656 
Q 797 1019 1065 703 
Q 1334 388 1700 388 
Q 2069 388 2326 689 
Q 2584 991 2584 1609 
Q 2584 2291 2321 2609 
Q 2059 2928 1675 2928 
Q 1300 2928 1048 2622 
Q 797 2316 797 1656 
z
" transform="scale(0.015625)"/>
       <path id="ArialMT-61" d="M 2588 409 
Q 2275 144 1986 34 
Q 1697 -75 1366 -75 
Q 819 -75 525 192 
Q 231 459 231 875 
Q 231 1119 342 1320 
Q 453 1522 633 1644 
Q 813 1766 1038 1828 
Q 1203 1872 1538 1913 
Q 2219 1994 2541 2106 
Q 2544 2222 2544 2253 
Q 2544 2597 2384 2738 
Q 2169 2928 1744 2928 
Q 1347 2928 1158 2789 
Q 969 2650 878 2297 
L 328 2372 
Q 403 2725 575 2942 
Q 747 3159 1072 3276 
Q 1397 3394 1825 3394 
Q 2250 3394 2515 3294 
Q 2781 3194 2906 3042 
Q 3031 2891 3081 2659 
Q 3109 2516 3109 2141 
L 3109 1391 
Q 3109 606 3145 398 
Q 3181 191 3288 0 
L 2700 0 
Q 2613 175 2588 409 
z
M 2541 1666 
Q 2234 1541 1622 1453 
Q 1275 1403 1131 1340 
Q 988 1278 909 1158 
Q 831 1038 831 891 
Q 831 666 1001 516 
Q 1172 366 1500 366 
Q 1825 366 2078 508 
Q 2331 650 2450 897 
Q 2541 1088 2541 1459 
L 2541 1666 
z
" transform="scale(0.015625)"/>
       <path id="ArialMT-5b" d="M 434 -1272 
L 434 4581 
L 1675 4581 
L 1675 4116 
L 997 4116 
L 997 -806 
L 1675 -806 
L 1675 -1272 
L 434 -1272 
z
" transform="scale(0.015625)"/>
       <path id="DejaVuSans-33" d="M 2597 2516 
Q 3050 2419 3304 2112 
Q 3559 1806 3559 1356 
Q 3559 666 3084 287 
Q 2609 -91 1734 -91 
Q 1441 -91 1130 -33 
Q 819 25 488 141 
L 488 750 
Q 750 597 1062 519 
Q 1375 441 1716 441 
Q 2309 441 2620 675 
Q 2931 909 2931 1356 
Q 2931 1769 2642 2001 
Q 2353 2234 1838 2234 
L 1294 2234 
L 1294 2753 
L 1863 2753 
Q 2328 2753 2575 2939 
Q 2822 3125 2822 3475 
Q 2822 3834 2567 4026 
Q 2313 4219 1838 4219 
Q 1578 4219 1281 4162 
Q 984 4106 628 3988 
L 628 4550 
Q 988 4650 1302 4700 
Q 1616 4750 1894 4750 
Q 2613 4750 3031 4423 
Q 3450 4097 3450 3541 
Q 3450 3153 3228 2886 
Q 3006 2619 2597 2516 
z
" transform="scale(0.015625)"/>
       <path id="ArialMT-5d" d="M 1363 -1272 
L 122 -1272 
L 122 -806 
L 800 -806 
L 800 4116 
L 122 4116 
L 122 4581 
L 1363 4581 
L 1363 -1272 
z
" transform="scale(0.015625)"/>
      </defs>
      <use xlink:href="#ArialMT-57" transform="translate(0 0.765625)"/>
      <use xlink:href="#ArialMT-4d" transform="translate(94.384766 0.765625)"/>
      <use xlink:href="#ArialMT-56" transform="translate(177.685547 0.765625)"/>
      <use xlink:href="#ArialMT-20" transform="translate(244.384766 0.765625)"/>
      <use xlink:href="#ArialMT-72" transform="translate(272.167969 0.765625)"/>
      <use xlink:href="#ArialMT-65" transform="translate(305.46875 0.765625)"/>
      <use xlink:href="#ArialMT-73" transform="translate(361.083984 0.765625)"/>
      <use xlink:href="#ArialMT-69" transform="translate(411.083984 0.765625)"/>
      <use xlink:href="#ArialMT-64" transform="translate(433.300781 0.765625)"/>
      <use xlink:href="#ArialMT-75" transform="translate(488.916016 0.765625)"/>
      <use xlink:href="#ArialMT-61" transform="translate(544.53125 0.765625)"/>
      <use xlink:href="#ArialMT-6c" transform="translate(600.146484 0.765625)"/>
      <use xlink:href="#ArialMT-73" transform="translate(622.363281 0.765625)"/>
      <use xlink:href="#ArialMT-20" transform="translate(672.363281 0.765625)"/>
      <use xlink:href="#ArialMT-5b" transform="translate(700.146484 0.765625)"/>
      <use xlink:href="#ArialMT-6d" transform="translate(727.929688 0.765625)"/>
      <use xlink:href="#ArialMT-6d" transform="translate(811.230469 0.765625)"/>
      <use xlink:href="#DejaVuSans-33" transform="translate(895.488281 39.046875) scale(0.7)"/>
      <use xlink:href="#ArialMT-5d" transform="translate(942.758789 0.765625)"/>
     </g>
    </g>
   </g>
   <g id="PolyCollection_1">
    <defs>
     <path id="m4b46393bca" d="M 109.224342 -57.991695 
L 108.960828 -57.991695 
L 108.863748 -59.773308 
L 108.7133 -61.55492 
L 108.49219 -63.336533 
L 108.184076 -65.118145 
L 107.777132 -66.899758 
L 107.267991 -68.68137 
L 106.665044 -70.462983 
L 105.989885 -72.244595 
L 105.275911 -74.026208 
L 104.563679 -75.80782 
L 103.893558 -77.589432 
L 103.297093 -79.371045 
L 102.789144 -81.152657 
L 102.36298 -82.93427 
L 101.989957 -84.715882 
L 101.624297 -86.497495 
L 101.212064 -88.279107 
L 100.702085 -90.06072 
L 100.055829 -91.842332 
L 99.253439 -93.623945 
L 98.294316 -95.405557 
L 97.192484 -97.18717 
L 95.968791 -98.968782 
L 94.64303 -100.750395 
L 93.22897 -102.532007 
L 91.734005 -104.313619 
L 90.163254 -106.095232 
L 88.526207 -107.876844 
L 86.843018 -109.658457 
L 85.147658 -111.440069 
L 83.4863 -113.221682 
L 81.911053 -115.003294 
L 80.470913 -116.784907 
L 79.202912 -118.566519 
L 78.126471 -120.348132 
L 77.242924 -122.129744 
L 76.540291 -123.911357 
L 76.001468 -125.692969 
L 75.612673 -127.474581 
L 75.368905 -129.256194 
L 75.274403 -131.037806 
L 75.338254 -132.819419 
L 75.567443 -134.601031 
L 75.96084 -136.382644 
L 76.507123 -138.164256 
L 77.187705 -139.945869 
L 77.983189 -141.727481 
L 78.880054 -143.509094 
L 79.874129 -145.290706 
L 80.969055 -147.072319 
L 82.170461 -148.853931 
L 83.478711 -150.635544 
L 84.883673 -152.417156 
L 86.36382 -154.198768 
L 87.889657 -155.980381 
L 89.429408 -157.761993 
L 90.953975 -159.543606 
L 92.439015 -161.325218 
L 93.863851 -163.106831 
L 95.208844 -164.888443 
L 96.453718 -166.670056 
L 97.578664 -168.451668 
L 98.568317 -170.233281 
L 99.416908 -172.014893 
L 100.132012 -173.796506 
L 100.734844 -175.578118 
L 101.256598 -177.359731 
L 101.732021 -179.141343 
L 102.19239 -180.922955 
L 102.660022 -182.704568 
L 103.145567 -184.48618 
L 103.648276 -186.267793 
L 104.158656 -188.049405 
L 104.662492 -189.831018 
L 105.145205 -191.61263 
L 105.595493 -193.394243 
L 106.007489 -195.175855 
L 106.380983 -196.957468 
L 106.719874 -198.73908 
L 107.029591 -200.520693 
L 107.314517 -202.302305 
L 107.576381 -204.083918 
L 107.814065 -205.86553 
L 108.024684 -207.647142 
L 108.205331 -209.428755 
L 108.354739 -211.210367 
L 108.474271 -212.99198 
L 108.56799 -214.773592 
L 108.64187 -216.555205 
L 108.7025 -218.336817 
L 108.755708 -220.11843 
L 108.805539 -221.900042 
L 108.853834 -223.681655 
L 108.900461 -225.463267 
L 108.944024 -227.24488 
L 108.982743 -229.026492 
L 109.015198 -230.808105 
L 109.040757 -232.589717 
L 109.059643 -234.371329 
L 109.125527 -234.371329 
L 109.125527 -234.371329 
L 109.144414 -232.589717 
L 109.169972 -230.808105 
L 109.202427 -229.026492 
L 109.241146 -227.24488 
L 109.28471 -225.463267 
L 109.331337 -223.681655 
L 109.379631 -221.900042 
L 109.429462 -220.11843 
L 109.482671 -218.336817 
L 109.5433 -216.555205 
L 109.61718 -214.773592 
L 109.710899 -212.99198 
L 109.830432 -211.210367 
L 109.979839 -209.428755 
L 110.160487 -207.647142 
L 110.371106 -205.86553 
L 110.60879 -204.083918 
L 110.870654 -202.302305 
L 111.15558 -200.520693 
L 111.465297 -198.73908 
L 111.804188 -196.957468 
L 112.177681 -195.175855 
L 112.589677 -193.394243 
L 113.039966 -191.61263 
L 113.522678 -189.831018 
L 114.026515 -188.049405 
L 114.536894 -186.267793 
L 115.039604 -184.48618 
L 115.525148 -182.704568 
L 115.99278 -180.922955 
L 116.45315 -179.141343 
L 116.928572 -177.359731 
L 117.450327 -175.578118 
L 118.053158 -173.796506 
L 118.768262 -172.014893 
L 119.616853 -170.233281 
L 120.606507 -168.451668 
L 121.731452 -166.670056 
L 122.976327 -164.888443 
L 124.32132 -163.106831 
L 125.746156 -161.325218 
L 127.231196 -159.543606 
L 128.755762 -157.761993 
L 130.295513 -155.980381 
L 131.821351 -154.198768 
L 133.301497 -152.417156 
L 134.706459 -150.635544 
L 136.014709 -148.853931 
L 137.216116 -147.072319 
L 138.311042 -145.290706 
L 139.305116 -143.509094 
L 140.201981 -141.727481 
L 140.997466 -139.945869 
L 141.678048 -138.164256 
L 142.22433 -136.382644 
L 142.617727 -134.601031 
L 142.846916 -132.819419 
L 142.910767 -131.037806 
L 142.816265 -129.256194 
L 142.572497 -127.474581 
L 142.183702 -125.692969 
L 141.644879 -123.911357 
L 140.942247 -122.129744 
L 140.0587 -120.348132 
L 138.982259 -118.566519 
L 137.714257 -116.784907 
L 136.274117 -115.003294 
L 134.69887 -113.221682 
L 133.037513 -111.440069 
L 131.342153 -109.658457 
L 129.658963 -107.876844 
L 128.021916 -106.095232 
L 126.451165 -104.313619 
L 124.9562 -102.532007 
L 123.54214 -100.750395 
L 122.216379 -98.968782 
L 120.992686 -97.18717 
L 119.890855 -95.405557 
L 118.931731 -93.623945 
L 118.129341 -91.842332 
L 117.483085 -90.06072 
L 116.973106 -88.279107 
L 116.560873 -86.497495 
L 116.195214 -84.715882 
L 115.82219 -82.93427 
L 115.396026 -81.152657 
L 114.888077 -79.371045 
L 114.291612 -77.589432 
L 113.621492 -75.80782 
L 112.90926 -74.026208 
L 112.195285 -72.244595 
L 111.520127 -70.462983 
L 110.917179 -68.68137 
L 110.408038 -66.899758 
L 110.001094 -65.118145 
L 109.69298 -63.336533 
L 109.47187 -61.55492 
L 109.321423 -59.773308 
L 109.224342 -57.991695 
z
" style="stroke: #4c4c4c; stroke-width: 0.5"/>
    </defs>
    <g clip-path="url(#pd7247c8752)">
     <use xlink:href="#m4b46393bca" x="0" y="254.805312" style="fill: #5573cd; stroke: #4c4c4c; stroke-width: 0.5"/>
    </g>
   </g>
   <g id="PolyCollection_2">
    <defs>
     <path id="m4b0e8680bd" d="M 193.802362 -35.834431 
L 193.473717 -35.834431 
L 193.414138 -37.852435 
L 193.340656 -39.870439 
L 193.252979 -41.888443 
L 193.151894 -43.906447 
L 193.039446 -45.92445 
L 192.918968 -47.942454 
L 192.794913 -49.960458 
L 192.67247 -51.978462 
L 192.556969 -53.996466 
L 192.453154 -56.01447 
L 192.364404 -58.032473 
L 192.292024 -60.050477 
L 192.234729 -62.068481 
L 192.188407 -64.086485 
L 192.146188 -66.104489 
L 192.098823 -68.122492 
L 192.035267 -70.140496 
L 191.943371 -72.1585 
L 191.810524 -74.176504 
L 191.624158 -76.194508 
L 191.372029 -78.212511 
L 191.04228 -80.230515 
L 190.623347 -82.248519 
L 190.103819 -84.266523 
L 189.472406 -86.284527 
L 188.718134 -88.302531 
L 187.830866 -90.320534 
L 186.802186 -92.338538 
L 185.62659 -94.356542 
L 184.302842 -96.374546 
L 182.835324 -98.39255 
L 181.235102 -100.410553 
L 179.52051 -102.428557 
L 177.717028 -104.446561 
L 175.856367 -106.464565 
L 173.974767 -108.482569 
L 172.11069 -110.500572 
L 170.302165 -112.518576 
L 168.584184 -114.53658 
L 166.986507 -116.554584 
L 165.532216 -118.572588 
L 164.237171 -120.590592 
L 163.110379 -122.608595 
L 162.155079 -124.626599 
L 161.370205 -126.644603 
L 160.751871 -128.662607 
L 160.294545 -130.680611 
L 159.991736 -132.698614 
L 159.836204 -134.716618 
L 159.819858 -136.734622 
L 159.933627 -138.752626 
L 160.16757 -140.77063 
L 160.511393 -142.788633 
L 160.955384 -144.806637 
L 161.491582 -146.824641 
L 162.114867 -148.842645 
L 162.823654 -150.860649 
L 163.619895 -152.878653 
L 164.508295 -154.896656 
L 165.494805 -156.91466 
L 166.584625 -158.932664 
L 167.780067 -160.950668 
L 169.078628 -162.968672 
L 170.471578 -164.986675 
L 171.943259 -167.004679 
L 173.471173 -169.022683 
L 175.026839 -171.040687 
L 176.577311 -173.058691 
L 178.087229 -175.076695 
L 179.521228 -177.094698 
L 180.846518 -179.112702 
L 182.035437 -181.130706 
L 183.067742 -183.14871 
L 183.932411 -185.166714 
L 184.628739 -187.184717 
L 185.166545 -189.202721 
L 185.565431 -191.220725 
L 185.853079 -193.238729 
L 186.06275 -195.256733 
L 186.230235 -197.274736 
L 186.390573 -199.29274 
L 186.574923 -201.310744 
L 186.807934 -203.328748 
L 187.105906 -205.346752 
L 187.47593 -207.364756 
L 187.916053 -209.382759 
L 188.416386 -211.400763 
L 188.960954 -213.418767 
L 189.530006 -215.436771 
L 190.10245 -217.454775 
L 190.658119 -219.472778 
L 191.179605 -221.490782 
L 191.653518 -223.508786 
L 192.071086 -225.52679 
L 192.42817 -227.544794 
L 192.724772 -229.562797 
L 192.964226 -231.580801 
L 193.152215 -233.598805 
L 193.295794 -235.616809 
L 193.980286 -235.616809 
L 193.980286 -235.616809 
L 194.123864 -233.598805 
L 194.311854 -231.580801 
L 194.551307 -229.562797 
L 194.84791 -227.544794 
L 195.204993 -225.52679 
L 195.622562 -223.508786 
L 196.096474 -221.490782 
L 196.617961 -219.472778 
L 197.17363 -217.454775 
L 197.746074 -215.436771 
L 198.315126 -213.418767 
L 198.859694 -211.400763 
L 199.360026 -209.382759 
L 199.800149 -207.364756 
L 200.170174 -205.346752 
L 200.468146 -203.328748 
L 200.701157 -201.310744 
L 200.885507 -199.29274 
L 201.045845 -197.274736 
L 201.21333 -195.256733 
L 201.423001 -193.238729 
L 201.710648 -191.220725 
L 202.109534 -189.202721 
L 202.647341 -187.184717 
L 203.343668 -185.166714 
L 204.208338 -183.14871 
L 205.240643 -181.130706 
L 206.429562 -179.112702 
L 207.754852 -177.094698 
L 209.18885 -175.076695 
L 210.698769 -173.058691 
L 212.249241 -171.040687 
L 213.804906 -169.022683 
L 215.33282 -167.004679 
L 216.804501 -164.986675 
L 218.197451 -162.968672 
L 219.496013 -160.950668 
L 220.691455 -158.932664 
L 221.781275 -156.91466 
L 222.767784 -154.896656 
L 223.656184 -152.878653 
L 224.452425 -150.860649 
L 225.161212 -148.842645 
L 225.784498 -146.824641 
L 226.320695 -144.806637 
L 226.764687 -142.788633 
L 227.10851 -140.77063 
L 227.342452 -138.752626 
L 227.456222 -136.734622 
L 227.439876 -134.716618 
L 227.284343 -132.698614 
L 226.981534 -130.680611 
L 226.524208 -128.662607 
L 225.905875 -126.644603 
L 225.121001 -124.626599 
L 224.1657 -122.608595 
L 223.038909 -120.590592 
L 221.743863 -118.572588 
L 220.289572 -116.554584 
L 218.691896 -114.53658 
L 216.973915 -112.518576 
L 215.16539 -110.500572 
L 213.301312 -108.482569 
L 211.419713 -106.464565 
L 209.559051 -104.446561 
L 207.75557 -102.428557 
L 206.040978 -100.410553 
L 204.440756 -98.39255 
L 202.973237 -96.374546 
L 201.64949 -94.356542 
L 200.473893 -92.338538 
L 199.445214 -90.320534 
L 198.557945 -88.302531 
L 197.803673 -86.284527 
L 197.172261 -84.266523 
L 196.652733 -82.248519 
L 196.233799 -80.230515 
L 195.90405 -78.212511 
L 195.651922 -76.194508 
L 195.465556 -74.176504 
L 195.332709 -72.1585 
L 195.240812 -70.140496 
L 195.177257 -68.122492 
L 195.129892 -66.104489 
L 195.087673 -64.086485 
L 195.04135 -62.068481 
L 194.984056 -60.050477 
L 194.911676 -58.032473 
L 194.822925 -56.01447 
L 194.71911 -53.996466 
L 194.60361 -51.978462 
L 194.481166 -49.960458 
L 194.357112 -47.942454 
L 194.236634 -45.92445 
L 194.124186 -43.906447 
L 194.023101 -41.888443 
L 193.935424 -39.870439 
L 193.861941 -37.852435 
L 193.802362 -35.834431 
z
" style="stroke: #4c4c4c; stroke-width: 0.5"/>
    </defs>
    <g clip-path="url(#pd7247c8752)">
     <use xlink:href="#m4b0e8680bd" x="0" y="254.805312" style="fill: #df8920; stroke: #4c4c4c; stroke-width: 0.5"/>
    </g>
   </g>
   <g id="line2d_1">
    <path d="M 109.092585 181.745114 
L 109.092585 55.886219 
" clip-path="url(#pd7247c8752)" style="fill: none; stroke: #4c4c4c; stroke-width: 0.75; stroke-linecap: round"/>
   </g>
   <g id="line2d_2">
    <path d="M 109.092585 138.556896 
L 109.092585 105.311273 
" clip-path="url(#pd7247c8752)" style="fill: none; stroke: #4c4c4c; stroke-width: 2.25; stroke-linecap: round"/>
   </g>
   <g id="line2d_3">
    <path d="M 109.092585 121.93393 
" clip-path="url(#pd7247c8752)" style="fill: none; stroke: #4c4c4c; stroke-width: 1.5; stroke-linecap: round"/>
    <defs>
     <path id="m746da1c4aa" d="M 0.9375 0 
L -0.9375 -0 
" style="stroke: #ffffff; stroke-width: 0.45"/>
    </defs>
    <g clip-path="url(#pd7247c8752)">
     <use xlink:href="#m746da1c4aa" x="109.092585" y="121.93393" style="fill: #ffffff; stroke: #ffffff; stroke-width: 0.45"/>
    </g>
   </g>
   <g id="line2d_4">
    <path d="M 193.63804 167.755296 
L 193.63804 44.290183 
" clip-path="url(#pd7247c8752)" style="fill: none; stroke: #4c4c4c; stroke-width: 0.75; stroke-linecap: round"/>
   </g>
   <g id="line2d_5">
    <path d="M 193.63804 131.796432 
L 193.63804 95.890583 
" clip-path="url(#pd7247c8752)" style="fill: none; stroke: #4c4c4c; stroke-width: 2.25; stroke-linecap: round"/>
   </g>
   <g id="line2d_6">
    <path d="M 193.63804 114.94107 
" clip-path="url(#pd7247c8752)" style="fill: none; stroke: #4c4c4c; stroke-width: 1.5; stroke-linecap: round"/>
    <g clip-path="url(#pd7247c8752)">
     <use xlink:href="#m746da1c4aa" x="193.63804" y="114.94107" style="fill: #ffffff; stroke: #ffffff; stroke-width: 0.45"/>
    </g>
   </g>
   <g id="line2d_7">
    <path d="M 109.092585 31.104546 
L 109.092585 26.709334 
L 193.63804 26.709334 
L 193.63804 31.104546 
" style="fill: none; stroke: #333333; stroke-width: 0.5; stroke-linecap: round"/>
   </g>
   <g id="patch_3">
    <path d="M 67.665313 228.96 
L 67.665313 7.2 
" style="fill: none; stroke: #262626; stroke-width: 1.25; stroke-linejoin: miter; stroke-linecap: square"/>
   </g>
   <g id="patch_4">
    <path d="M 67.665312 228.96 
L 235.065313 228.96 
" style="fill: none; stroke: #262626; stroke-width: 1.25; stroke-linejoin: miter; stroke-linecap: square"/>
   </g>
   <g id="text_11">
    <!-- ** -->
    <g style="fill: #262626" transform="translate(147.473125 23.721834) scale(0.1 -0.1)">
     <defs>
      <path id="ArialMT-2a" d="M 200 3741 
L 344 4184 
Q 841 4009 1066 3881 
Q 1006 4447 1003 4659 
L 1456 4659 
Q 1447 4350 1384 3884 
Q 1706 4047 2122 4184 
L 2266 3741 
Q 1869 3609 1488 3566 
Q 1678 3400 2025 2975 
L 1650 2709 
Q 1469 2956 1222 3381 
Q 991 2941 816 2709 
L 447 2975 
Q 809 3422 966 3566 
Q 563 3644 200 3741 
z
" transform="scale(0.015625)"/>
     </defs>
     <use xlink:href="#ArialMT-2a"/>
     <use xlink:href="#ArialMT-2a" x="38.916016"/>
    </g>
   </g>
  </g>
 </g>
 <defs>
  <clipPath id="pd7247c8752">
   <rect x="67.665313" y="7.2" width="167.4" height="221.76"/>
  </clipPath>
 </defs>
</svg>
