<?xml version="1.0" encoding="utf-8" standalone="no"?>
<!DOCTYPE svg PUBLIC "-//W3C//DTD SVG 1.1//EN"
  "http://www.w3.org/Graphics/SVG/1.1/DTD/svg11.dtd">
<svg xmlns:xlink="http://www.w3.org/1999/xlink" width="239.512812pt" height="255.719844pt" viewBox="0 0 239.512812 255.719844" xmlns="http://www.w3.org/2000/svg" version="1.1">
 <metadata>
  <rdf:RDF xmlns:dc="http://purl.org/dc/elements/1.1/" xmlns:cc="http://creativecommons.org/ns#" xmlns:rdf="http://www.w3.org/1999/02/22-rdf-syntax-ns#">
   <cc:Work>
    <dc:type rdf:resource="http://purl.org/dc/dcmitype/StillImage"/>
    <dc:date>2025-08-06T16:29:31.414852</dc:date>
    <dc:format>image/svg+xml</dc:format>
    <dc:creator>
     <cc:Agent>
      <dc:title>Matplotlib v3.9.2, https://matplotlib.org/</dc:title>
     </cc:Agent>
    </dc:creator>
   </cc:Work>
  </rdf:RDF>
 </metadata>
 <defs>
  <style type="text/css">*{stroke-linejoin: round; stroke-linecap: butt}</style>
 </defs>
 <g id="figure_1">
  <g id="patch_1">
   <path d="M 0 255.719844 
L 239.512813 255.719844 
L 239.512813 0 
L 0 0 
z
" style="fill: #ffffff"/>
  </g>
  <g id="axes_1">
   <g id="patch_2">
    <path d="M 64.912813 228.96 
L 232.312813 228.96 
L 232.312813 7.2 
L 64.912813 7.2 
z
" style="fill: #ffffff"/>
   </g>
   <g id="matplotlib.axis_1">
    <g id="xtick_1">
     <g id="text_1">
      <!-- Term -->
      <g style="fill: #262626" transform="translate(94.121491 246.333594) scale(0.11 -0.11)">
       <defs>
        <path id="ArialMT-54" d="M 1659 0 
L 1659 4041 
L 150 4041 
L 150 4581 
L 3781 4581 
L 3781 4041 
L 2266 4041 
L 2266 0 
L 1659 0 
z
" transform="scale(0.015625)"/>
        <path id="ArialMT-65" d="M 2694 1069 
L 3275 997 
Q 3138 488 2766 206 
Q 2394 -75 1816 -75 
Q 1088 -75 661 373 
Q 234 822 234 1631 
Q 234 2469 665 2931 
Q 1097 3394 1784 3394 
Q 2450 3394 2872 2941 
Q 3294 2488 3294 1666 
Q 3294 1616 3291 1516 
L 816 1516 
Q 847 969 1125 678 
Q 1403 388 1819 388 
Q 2128 388 2347 550 
Q 2566 713 2694 1069 
z
M 847 1978 
L 2700 1978 
Q 2663 2397 2488 2606 
Q 2219 2931 1791 2931 
Q 1403 2931 1139 2672 
Q 875 2413 847 1978 
z
" transform="scale(0.015625)"/>
        <path id="ArialMT-72" d="M 416 0 
L 416 3319 
L 922 3319 
L 922 2816 
Q 1116 3169 1280 3281 
Q 1444 3394 1641 3394 
Q 1925 3394 2219 3213 
L 2025 2691 
Q 1819 2813 1613 2813 
Q 1428 2813 1281 2702 
Q 1134 2591 1072 2394 
Q 978 2094 978 1738 
L 978 0 
L 416 0 
z
" transform="scale(0.015625)"/>
        <path id="ArialMT-6d" d="M 422 0 
L 422 3319 
L 925 3319 
L 925 2853 
Q 1081 3097 1340 3245 
Q 1600 3394 1931 3394 
Q 2300 3394 2536 3241 
Q 2772 3088 2869 2813 
Q 3263 3394 3894 3394 
Q 4388 3394 4653 3120 
Q 4919 2847 4919 2278 
L 4919 0 
L 4359 0 
L 4359 2091 
Q 4359 2428 4304 2576 
Q 4250 2725 4106 2815 
Q 3963 2906 3769 2906 
Q 3419 2906 3187 2673 
Q 2956 2441 2956 1928 
L 2956 0 
L 2394 0 
L 2394 2156 
Q 2394 2531 2256 2718 
Q 2119 2906 1806 2906 
Q 1569 2906 1367 2781 
Q 1166 2656 1075 2415 
Q 984 2175 984 1722 
L 984 0 
L 422 0 
z
" transform="scale(0.015625)"/>
       </defs>
       <use xlink:href="#ArialMT-54"/>
       <use xlink:href="#ArialMT-65" x="49.958984"/>
       <use xlink:href="#ArialMT-72" x="105.574219"/>
       <use xlink:href="#ArialMT-6d" x="138.875"/>
      </g>
     </g>
    </g>
    <g id="xtick_2">
     <g id="text_2">
      <!-- Preterm -->
      <g style="fill: #262626" transform="translate(171.327884 246.333594) scale(0.11 -0.11)">
       <defs>
        <path id="ArialMT-50" d="M 494 0 
L 494 4581 
L 2222 4581 
Q 2678 4581 2919 4538 
Q 3256 4481 3484 4323 
Q 3713 4166 3852 3881 
Q 3991 3597 3991 3256 
Q 3991 2672 3619 2267 
Q 3247 1863 2275 1863 
L 1100 1863 
L 1100 0 
L 494 0 
z
M 1100 2403 
L 2284 2403 
Q 2872 2403 3119 2622 
Q 3366 2841 3366 3238 
Q 3366 3525 3220 3729 
Q 3075 3934 2838 4000 
Q 2684 4041 2272 4041 
L 1100 4041 
L 1100 2403 
z
" transform="scale(0.015625)"/>
        <path id="ArialMT-74" d="M 1650 503 
L 1731 6 
Q 1494 -44 1306 -44 
Q 1000 -44 831 53 
Q 663 150 594 308 
Q 525 466 525 972 
L 525 2881 
L 113 2881 
L 113 3319 
L 525 3319 
L 525 4141 
L 1084 4478 
L 1084 3319 
L 1650 3319 
L 1650 2881 
L 1084 2881 
L 1084 941 
Q 1084 700 1114 631 
Q 1144 563 1211 522 
Q 1278 481 1403 481 
Q 1497 481 1650 503 
z
" transform="scale(0.015625)"/>
       </defs>
       <use xlink:href="#ArialMT-50"/>
       <use xlink:href="#ArialMT-72" x="66.699219"/>
       <use xlink:href="#ArialMT-65" x="100"/>
       <use xlink:href="#ArialMT-74" x="155.615234"/>
       <use xlink:href="#ArialMT-65" x="183.398438"/>
       <use xlink:href="#ArialMT-72" x="239.013672"/>
       <use xlink:href="#ArialMT-6d" x="272.314453"/>
      </g>
     </g>
    </g>
   </g>
   <g id="matplotlib.axis_2">
    <g id="ytick_1">
     <g id="text_3">
      <!-- −4000 -->
      <g style="fill: #262626" transform="translate(24.52 212.681834) scale(0.11 -0.11)">
       <defs>
        <path id="ArialMT-2212" d="M 3381 1997 
L 356 1997 
L 356 2522 
L 3381 2522 
L 3381 1997 
z
" transform="scale(0.015625)"/>
        <path id="ArialMT-34" d="M 2069 0 
L 2069 1097 
L 81 1097 
L 81 1613 
L 2172 4581 
L 2631 4581 
L 2631 1613 
L 3250 1613 
L 3250 1097 
L 2631 1097 
L 2631 0 
L 2069 0 
z
M 2069 1613 
L 2069 3678 
L 634 1613 
L 2069 1613 
z
" transform="scale(0.015625)"/>
        <path id="ArialMT-30" d="M 266 2259 
Q 266 3072 433 3567 
Q 600 4063 929 4331 
Q 1259 4600 1759 4600 
Q 2128 4600 2406 4451 
Q 2684 4303 2865 4023 
Q 3047 3744 3150 3342 
Q 3253 2941 3253 2259 
Q 3253 1453 3087 958 
Q 2922 463 2592 192 
Q 2263 -78 1759 -78 
Q 1097 -78 719 397 
Q 266 969 266 2259 
z
M 844 2259 
Q 844 1131 1108 757 
Q 1372 384 1759 384 
Q 2147 384 2411 759 
Q 2675 1134 2675 2259 
Q 2675 3391 2411 3762 
Q 2147 4134 1753 4134 
Q 1366 4134 1134 3806 
Q 844 3388 844 2259 
z
" transform="scale(0.015625)"/>
       </defs>
       <use xlink:href="#ArialMT-2212"/>
       <use xlink:href="#ArialMT-34" x="58.398438"/>
       <use xlink:href="#ArialMT-30" x="114.013672"/>
       <use xlink:href="#ArialMT-30" x="169.628906"/>
       <use xlink:href="#ArialMT-30" x="225.244141"/>
      </g>
     </g>
    </g>
    <g id="ytick_2">
     <g id="text_4">
      <!-- −3000 -->
      <g style="fill: #262626" transform="translate(24.52 188.034182) scale(0.11 -0.11)">
       <defs>
        <path id="ArialMT-33" d="M 269 1209 
L 831 1284 
Q 928 806 1161 595 
Q 1394 384 1728 384 
Q 2125 384 2398 659 
Q 2672 934 2672 1341 
Q 2672 1728 2419 1979 
Q 2166 2231 1775 2231 
Q 1616 2231 1378 2169 
L 1441 2663 
Q 1497 2656 1531 2656 
Q 1891 2656 2178 2843 
Q 2466 3031 2466 3422 
Q 2466 3731 2256 3934 
Q 2047 4138 1716 4138 
Q 1388 4138 1169 3931 
Q 950 3725 888 3313 
L 325 3413 
Q 428 3978 793 4289 
Q 1159 4600 1703 4600 
Q 2078 4600 2393 4439 
Q 2709 4278 2876 4000 
Q 3044 3722 3044 3409 
Q 3044 3113 2884 2869 
Q 2725 2625 2413 2481 
Q 2819 2388 3044 2092 
Q 3269 1797 3269 1353 
Q 3269 753 2831 336 
Q 2394 -81 1725 -81 
Q 1122 -81 723 278 
Q 325 638 269 1209 
z
" transform="scale(0.015625)"/>
       </defs>
       <use xlink:href="#ArialMT-2212"/>
       <use xlink:href="#ArialMT-33" x="58.398438"/>
       <use xlink:href="#ArialMT-30" x="114.013672"/>
       <use xlink:href="#ArialMT-30" x="169.628906"/>
       <use xlink:href="#ArialMT-30" x="225.244141"/>
      </g>
     </g>
    </g>
    <g id="ytick_3">
     <g id="text_5">
      <!-- −2000 -->
      <g style="fill: #262626" transform="translate(24.52 163.38653) scale(0.11 -0.11)">
       <defs>
        <path id="ArialMT-32" d="M 3222 541 
L 3222 0 
L 194 0 
Q 188 203 259 391 
Q 375 700 629 1000 
Q 884 1300 1366 1694 
Q 2113 2306 2375 2664 
Q 2638 3022 2638 3341 
Q 2638 3675 2398 3904 
Q 2159 4134 1775 4134 
Q 1369 4134 1125 3890 
Q 881 3647 878 3216 
L 300 3275 
Q 359 3922 746 4261 
Q 1134 4600 1788 4600 
Q 2447 4600 2831 4234 
Q 3216 3869 3216 3328 
Q 3216 3053 3103 2787 
Q 2991 2522 2730 2228 
Q 2469 1934 1863 1422 
Q 1356 997 1212 845 
Q 1069 694 975 541 
L 3222 541 
z
" transform="scale(0.015625)"/>
       </defs>
       <use xlink:href="#ArialMT-2212"/>
       <use xlink:href="#ArialMT-32" x="58.398438"/>
       <use xlink:href="#ArialMT-30" x="114.013672"/>
       <use xlink:href="#ArialMT-30" x="169.628906"/>
       <use xlink:href="#ArialMT-30" x="225.244141"/>
      </g>
     </g>
    </g>
    <g id="ytick_4">
     <g id="text_6">
      <!-- −1000 -->
      <g style="fill: #262626" transform="translate(24.52 138.738877) scale(0.11 -0.11)">
       <defs>
        <path id="ArialMT-31" d="M 2384 0 
L 1822 0 
L 1822 3584 
Q 1619 3391 1289 3197 
Q 959 3003 697 2906 
L 697 3450 
Q 1169 3672 1522 3987 
Q 1875 4303 2022 4600 
L 2384 4600 
L 2384 0 
z
" transform="scale(0.015625)"/>
       </defs>
       <use xlink:href="#ArialMT-2212"/>
       <use xlink:href="#ArialMT-31" x="58.398438"/>
       <use xlink:href="#ArialMT-30" x="114.013672"/>
       <use xlink:href="#ArialMT-30" x="169.628906"/>
       <use xlink:href="#ArialMT-30" x="225.244141"/>
      </g>
     </g>
    </g>
    <g id="ytick_5">
     <g id="text_7">
      <!-- 0 -->
      <g style="fill: #262626" transform="translate(49.295781 114.091225) scale(0.11 -0.11)">
       <use xlink:href="#ArialMT-30"/>
      </g>
     </g>
    </g>
    <g id="ytick_6">
     <g id="text_8">
      <!-- 1000 -->
      <g style="fill: #262626" transform="translate(30.944688 89.443573) scale(0.11 -0.11)">
       <use xlink:href="#ArialMT-31"/>
       <use xlink:href="#ArialMT-30" x="55.615234"/>
       <use xlink:href="#ArialMT-30" x="111.230469"/>
       <use xlink:href="#ArialMT-30" x="166.845703"/>
      </g>
     </g>
    </g>
    <g id="ytick_7">
     <g id="text_9">
      <!-- 2000 -->
      <g style="fill: #262626" transform="translate(30.944688 64.795921) scale(0.11 -0.11)">
       <use xlink:href="#ArialMT-32"/>
       <use xlink:href="#ArialMT-30" x="55.615234"/>
       <use xlink:href="#ArialMT-30" x="111.230469"/>
       <use xlink:href="#ArialMT-30" x="166.845703"/>
      </g>
     </g>
    </g>
    <g id="ytick_8">
     <g id="text_10">
      <!-- 3000 -->
      <g style="fill: #262626" transform="translate(30.944688 40.148268) scale(0.11 -0.11)">
       <use xlink:href="#ArialMT-33"/>
       <use xlink:href="#ArialMT-30" x="55.615234"/>
       <use xlink:href="#ArialMT-30" x="111.230469"/>
       <use xlink:href="#ArialMT-30" x="166.845703"/>
      </g>
     </g>
    </g>
    <g id="ytick_9">
     <g id="text_11">
      <!-- 4000 -->
      <g style="fill: #262626" transform="translate(30.944688 15.500616) scale(0.11 -0.11)">
       <use xlink:href="#ArialMT-34"/>
       <use xlink:href="#ArialMT-30" x="55.615234"/>
       <use xlink:href="#ArialMT-30" x="111.230469"/>
       <use xlink:href="#ArialMT-30" x="166.845703"/>
      </g>
     </g>
    </g>
    <g id="text_12">
     <!-- sGMV residuals [mm$^3$] -->
     <g style="fill: #262626" transform="translate(18.12 178.32) rotate(-90) scale(0.12 -0.12)">
      <defs>
       <path id="ArialMT-73" d="M 197 991 
L 753 1078 
Q 800 744 1014 566 
Q 1228 388 1613 388 
Q 2000 388 2187 545 
Q 2375 703 2375 916 
Q 2375 1106 2209 1216 
Q 2094 1291 1634 1406 
Q 1016 1563 777 1677 
Q 538 1791 414 1992 
Q 291 2194 291 2438 
Q 291 2659 392 2848 
Q 494 3038 669 3163 
Q 800 3259 1026 3326 
Q 1253 3394 1513 3394 
Q 1903 3394 2198 3281 
Q 2494 3169 2634 2976 
Q 2775 2784 2828 2463 
L 2278 2388 
Q 2241 2644 2061 2787 
Q 1881 2931 1553 2931 
Q 1166 2931 1000 2803 
Q 834 2675 834 2503 
Q 834 2394 903 2306 
Q 972 2216 1119 2156 
Q 1203 2125 1616 2013 
Q 2213 1853 2448 1751 
Q 2684 1650 2818 1456 
Q 2953 1263 2953 975 
Q 2953 694 2789 445 
Q 2625 197 2315 61 
Q 2006 -75 1616 -75 
Q 969 -75 630 194 
Q 291 463 197 991 
z
" transform="scale(0.015625)"/>
       <path id="ArialMT-47" d="M 2638 1797 
L 2638 2334 
L 4578 2338 
L 4578 638 
Q 4131 281 3656 101 
Q 3181 -78 2681 -78 
Q 2006 -78 1454 211 
Q 903 500 622 1047 
Q 341 1594 341 2269 
Q 341 2938 620 3517 
Q 900 4097 1425 4378 
Q 1950 4659 2634 4659 
Q 3131 4659 3532 4498 
Q 3934 4338 4162 4050 
Q 4391 3763 4509 3300 
L 3963 3150 
Q 3859 3500 3706 3700 
Q 3553 3900 3268 4020 
Q 2984 4141 2638 4141 
Q 2222 4141 1919 4014 
Q 1616 3888 1430 3681 
Q 1244 3475 1141 3228 
Q 966 2803 966 2306 
Q 966 1694 1177 1281 
Q 1388 869 1791 669 
Q 2194 469 2647 469 
Q 3041 469 3416 620 
Q 3791 772 3984 944 
L 3984 1797 
L 2638 1797 
z
" transform="scale(0.015625)"/>
       <path id="ArialMT-4d" d="M 475 0 
L 475 4581 
L 1388 4581 
L 2472 1338 
Q 2622 884 2691 659 
Q 2769 909 2934 1394 
L 4031 4581 
L 4847 4581 
L 4847 0 
L 4263 0 
L 4263 3834 
L 2931 0 
L 2384 0 
L 1059 3900 
L 1059 0 
L 475 0 
z
" transform="scale(0.015625)"/>
       <path id="ArialMT-56" d="M 1803 0 
L 28 4581 
L 684 4581 
L 1875 1253 
Q 2019 853 2116 503 
Q 2222 878 2363 1253 
L 3600 4581 
L 4219 4581 
L 2425 0 
L 1803 0 
z
" transform="scale(0.015625)"/>
       <path id="ArialMT-20" transform="scale(0.015625)"/>
       <path id="ArialMT-69" d="M 425 3934 
L 425 4581 
L 988 4581 
L 988 3934 
L 425 3934 
z
M 425 0 
L 425 3319 
L 988 3319 
L 988 0 
L 425 0 
z
" transform="scale(0.015625)"/>
       <path id="ArialMT-64" d="M 2575 0 
L 2575 419 
Q 2259 -75 1647 -75 
Q 1250 -75 917 144 
Q 584 363 401 755 
Q 219 1147 219 1656 
Q 219 2153 384 2558 
Q 550 2963 881 3178 
Q 1213 3394 1622 3394 
Q 1922 3394 2156 3267 
Q 2391 3141 2538 2938 
L 2538 4581 
L 3097 4581 
L 3097 0 
L 2575 0 
z
M 797 1656 
Q 797 1019 1065 703 
Q 1334 388 1700 388 
Q 2069 388 2326 689 
Q 2584 991 2584 1609 
Q 2584 2291 2321 2609 
Q 2059 2928 1675 2928 
Q 1300 2928 1048 2622 
Q 797 2316 797 1656 
z
" transform="scale(0.015625)"/>
       <path id="ArialMT-75" d="M 2597 0 
L 2597 488 
Q 2209 -75 1544 -75 
Q 1250 -75 995 37 
Q 741 150 617 320 
Q 494 491 444 738 
Q 409 903 409 1263 
L 409 3319 
L 972 3319 
L 972 1478 
Q 972 1038 1006 884 
Q 1059 663 1231 536 
Q 1403 409 1656 409 
Q 1909 409 2131 539 
Q 2353 669 2445 892 
Q 2538 1116 2538 1541 
L 2538 3319 
L 3100 3319 
L 3100 0 
L 2597 0 
z
" transform="scale(0.015625)"/>
       <path id="ArialMT-61" d="M 2588 409 
Q 2275 144 1986 34 
Q 1697 -75 1366 -75 
Q 819 -75 525 192 
Q 231 459 231 875 
Q 231 1119 342 1320 
Q 453 1522 633 1644 
Q 813 1766 1038 1828 
Q 1203 1872 1538 1913 
Q 2219 1994 2541 2106 
Q 2544 2222 2544 2253 
Q 2544 2597 2384 2738 
Q 2169 2928 1744 2928 
Q 1347 2928 1158 2789 
Q 969 2650 878 2297 
L 328 2372 
Q 403 2725 575 2942 
Q 747 3159 1072 3276 
Q 1397 3394 1825 3394 
Q 2250 3394 2515 3294 
Q 2781 3194 2906 3042 
Q 3031 2891 3081 2659 
Q 3109 2516 3109 2141 
L 3109 1391 
Q 3109 606 3145 398 
Q 3181 191 3288 0 
L 2700 0 
Q 2613 175 2588 409 
z
M 2541 1666 
Q 2234 1541 1622 1453 
Q 1275 1403 1131 1340 
Q 988 1278 909 1158 
Q 831 1038 831 891 
Q 831 666 1001 516 
Q 1172 366 1500 366 
Q 1825 366 2078 508 
Q 2331 650 2450 897 
Q 2541 1088 2541 1459 
L 2541 1666 
z
" transform="scale(0.015625)"/>
       <path id="ArialMT-6c" d="M 409 0 
L 409 4581 
L 972 4581 
L 972 0 
L 409 0 
z
" transform="scale(0.015625)"/>
       <path id="ArialMT-5b" d="M 434 -1272 
L 434 4581 
L 1675 4581 
L 1675 4116 
L 997 4116 
L 997 -806 
L 1675 -806 
L 1675 -1272 
L 434 -1272 
z
" transform="scale(0.015625)"/>
       <path id="DejaVuSans-33" d="M 2597 2516 
Q 3050 2419 3304 2112 
Q 3559 1806 3559 1356 
Q 3559 666 3084 287 
Q 2609 -91 1734 -91 
Q 1441 -91 1130 -33 
Q 819 25 488 141 
L 488 750 
Q 750 597 1062 519 
Q 1375 441 1716 441 
Q 2309 441 2620 675 
Q 2931 909 2931 1356 
Q 2931 1769 2642 2001 
Q 2353 2234 1838 2234 
L 1294 2234 
L 1294 2753 
L 1863 2753 
Q 2328 2753 2575 2939 
Q 2822 3125 2822 3475 
Q 2822 3834 2567 4026 
Q 2313 4219 1838 4219 
Q 1578 4219 1281 4162 
Q 984 4106 628 3988 
L 628 4550 
Q 988 4650 1302 4700 
Q 1616 4750 1894 4750 
Q 2613 4750 3031 4423 
Q 3450 4097 3450 3541 
Q 3450 3153 3228 2886 
Q 3006 2619 2597 2516 
z
" transform="scale(0.015625)"/>
       <path id="ArialMT-5d" d="M 1363 -1272 
L 122 -1272 
L 122 -806 
L 800 -806 
L 800 4116 
L 122 4116 
L 122 4581 
L 1363 4581 
L 1363 -1272 
z
" transform="scale(0.015625)"/>
      </defs>
      <use xlink:href="#ArialMT-73" transform="translate(0 0.765625)"/>
      <use xlink:href="#ArialMT-47" transform="translate(50 0.765625)"/>
      <use xlink:href="#ArialMT-4d" transform="translate(127.783203 0.765625)"/>
      <use xlink:href="#ArialMT-56" transform="translate(211.083984 0.765625)"/>
      <use xlink:href="#ArialMT-20" transform="translate(277.783203 0.765625)"/>
      <use xlink:href="#ArialMT-72" transform="translate(305.566406 0.765625)"/>
      <use xlink:href="#ArialMT-65" transform="translate(338.867188 0.765625)"/>
      <use xlink:href="#ArialMT-73" transform="translate(394.482422 0.765625)"/>
      <use xlink:href="#ArialMT-69" transform="translate(444.482422 0.765625)"/>
      <use xlink:href="#ArialMT-64" transform="translate(466.699219 0.765625)"/>
      <use xlink:href="#ArialMT-75" transform="translate(522.314453 0.765625)"/>
      <use xlink:href="#ArialMT-61" transform="translate(577.929688 0.765625)"/>
      <use xlink:href="#ArialMT-6c" transform="translate(633.544922 0.765625)"/>
      <use xlink:href="#ArialMT-73" transform="translate(655.761719 0.765625)"/>
      <use xlink:href="#ArialMT-20" transform="translate(705.761719 0.765625)"/>
      <use xlink:href="#ArialMT-5b" transform="translate(733.544922 0.765625)"/>
      <use xlink:href="#ArialMT-6d" transform="translate(761.328125 0.765625)"/>
      <use xlink:href="#ArialMT-6d" transform="translate(844.628906 0.765625)"/>
      <use xlink:href="#DejaVuSans-33" transform="translate(928.886719 39.046875) scale(0.7)"/>
      <use xlink:href="#ArialMT-5d" transform="translate(976.157227 0.765625)"/>
     </g>
    </g>
   </g>
   <g id="PolyCollection_1">
    <defs>
     <path id="md023fb5975" d="M 106.372113 -46.213473 
L 106.308058 -46.213473 
L 106.288559 -48.155154 
L 106.262166 -50.096834 
L 106.229186 -52.038515 
L 106.191215 -53.980195 
L 106.150907 -55.921876 
L 106.111124 -57.863556 
L 106.073548 -59.805237 
L 106.03715 -61.746917 
L 105.997089 -63.688598 
L 105.944513 -65.630278 
L 105.867455 -67.571959 
L 105.752579 -69.513639 
L 105.587274 -71.45532 
L 105.361525 -73.397 
L 105.069239 -75.338681 
L 104.708923 -77.280361 
L 104.283766 -79.222042 
L 103.80108 -81.163722 
L 103.270914 -83.105403 
L 102.70376 -85.047083 
L 102.107693 -86.988764 
L 101.485924 -88.930444 
L 100.836098 -90.872125 
L 100.152333 -92.813805 
L 99.429726 -94.755486 
L 98.669539 -96.697166 
L 97.882341 -98.638847 
L 97.08677 -100.580527 
L 96.303428 -102.522208 
L 95.545745 -104.463888 
L 94.811346 -106.405569 
L 94.077486 -108.347249 
L 93.302634 -110.28893 
L 92.434037 -112.23061 
L 91.419129 -114.172291 
L 90.217726 -116.113971 
L 88.812094 -118.055652 
L 87.212815 -119.997332 
L 85.459417 -121.939013 
L 83.615695 -123.880694 
L 81.760525 -125.822374 
L 79.975769 -127.764055 
L 78.33366 -129.705735 
L 76.886482 -131.647416 
L 75.66119 -133.589096 
L 74.660491 -135.530777 
L 73.870054 -137.472457 
L 73.269515 -139.414138 
L 72.843658 -141.355818 
L 72.590192 -143.297499 
L 72.521903 -145.239179 
L 72.663004 -147.18086 
L 73.041286 -149.12254 
L 73.678589 -151.064221 
L 74.581981 -153.005901 
L 75.737444 -154.947582 
L 77.107244 -156.889262 
L 78.631776 -158.830943 
L 80.236208 -160.772623 
L 81.841403 -162.714304 
L 83.377195 -164.655984 
L 84.794837 -166.597665 
L 86.074968 -168.539345 
L 87.228432 -170.481026 
L 88.289463 -172.422706 
L 89.303305 -174.364387 
L 90.312134 -176.306067 
L 91.34355 -178.247748 
L 92.404773 -180.189428 
L 93.483637 -182.131109 
L 94.555221 -184.072789 
L 95.591351 -186.01447 
L 96.569551 -187.95615 
L 97.478657 -189.897831 
L 98.319758 -191.839511 
L 99.102963 -193.781192 
L 99.841881 -195.722872 
L 100.548162 -197.664553 
L 101.227959 -199.606234 
L 101.880989 -201.547914 
L 102.501802 -203.489595 
L 103.082156 -205.431275 
L 103.613447 -207.372956 
L 104.088527 -209.314636 
L 104.502804 -211.256317 
L 104.854795 -213.197997 
L 105.146342 -215.139678 
L 105.382495 -217.081358 
L 105.570948 -219.023039 
L 105.720966 -220.964719 
L 105.841935 -222.9064 
L 105.941923 -224.84808 
L 106.026701 -226.789761 
L 106.099513 -228.731441 
L 106.161577 -230.673122 
L 106.213022 -232.614802 
L 106.25384 -234.556483 
L 106.284514 -236.498163 
L 106.306205 -238.439844 
L 106.373966 -238.439844 
L 106.373966 -238.439844 
L 106.395657 -236.498163 
L 106.42633 -234.556483 
L 106.467148 -232.614802 
L 106.518594 -230.673122 
L 106.580657 -228.731441 
L 106.653469 -226.789761 
L 106.738248 -224.84808 
L 106.838236 -222.9064 
L 106.959205 -220.964719 
L 107.109222 -219.023039 
L 107.297676 -217.081358 
L 107.533828 -215.139678 
L 107.825375 -213.197997 
L 108.177367 -211.256317 
L 108.591643 -209.314636 
L 109.066724 -207.372956 
L 109.598015 -205.431275 
L 110.178368 -203.489595 
L 110.799181 -201.547914 
L 111.452212 -199.606234 
L 112.132008 -197.664553 
L 112.83829 -195.722872 
L 113.577207 -193.781192 
L 114.360413 -191.839511 
L 115.201514 -189.897831 
L 116.11062 -187.95615 
L 117.08882 -186.01447 
L 118.124949 -184.072789 
L 119.196533 -182.131109 
L 120.275397 -180.189428 
L 121.336621 -178.247748 
L 122.368037 -176.306067 
L 123.376865 -174.364387 
L 124.390707 -172.422706 
L 125.451738 -170.481026 
L 126.605202 -168.539345 
L 127.885333 -166.597665 
L 129.302976 -164.655984 
L 130.838768 -162.714304 
L 132.443963 -160.772623 
L 134.048395 -158.830943 
L 135.572926 -156.889262 
L 136.942727 -154.947582 
L 138.09819 -153.005901 
L 139.001582 -151.064221 
L 139.638884 -149.12254 
L 140.017166 -147.18086 
L 140.158267 -145.239179 
L 140.089979 -143.297499 
L 139.836513 -141.355818 
L 139.410655 -139.414138 
L 138.810116 -137.472457 
L 138.019679 -135.530777 
L 137.01898 -133.589096 
L 135.793689 -131.647416 
L 134.346511 -129.705735 
L 132.704402 -127.764055 
L 130.919646 -125.822374 
L 129.064475 -123.880694 
L 127.220753 -121.939013 
L 125.467355 -119.997332 
L 123.868076 -118.055652 
L 122.462444 -116.113971 
L 121.261041 -114.172291 
L 120.246134 -112.23061 
L 119.377537 -110.28893 
L 118.602684 -108.347249 
L 117.868824 -106.405569 
L 117.134426 -104.463888 
L 116.376743 -102.522208 
L 115.5934 -100.580527 
L 114.79783 -98.638847 
L 114.010632 -96.697166 
L 113.250445 -94.755486 
L 112.527837 -92.813805 
L 111.844073 -90.872125 
L 111.194247 -88.930444 
L 110.572477 -86.988764 
L 109.976411 -85.047083 
L 109.409257 -83.105403 
L 108.87909 -81.163722 
L 108.396404 -79.222042 
L 107.971248 -77.280361 
L 107.610931 -75.338681 
L 107.318645 -73.397 
L 107.092897 -71.45532 
L 106.927591 -69.513639 
L 106.812716 -67.571959 
L 106.735657 -65.630278 
L 106.683082 -63.688598 
L 106.643021 -61.746917 
L 106.606623 -59.805237 
L 106.569046 -57.863556 
L 106.529264 -55.921876 
L 106.488956 -53.980195 
L 106.450984 -52.038515 
L 106.418004 -50.096834 
L 106.391611 -48.155154 
L 106.372113 -46.213473 
z
" style="stroke: #4c4c4c; stroke-width: 0.5"/>
    </defs>
    <g clip-path="url(#p1b1d8a8af9)">
     <use xlink:href="#md023fb5975" x="0" y="255.719844" style="fill: #5573cd; stroke: #4c4c4c; stroke-width: 0.5"/>
    </g>
   </g>
   <g id="PolyCollection_2">
    <defs>
     <path id="me47e8579c3" d="M 191.051246 -36.839844 
L 190.719833 -36.839844 
L 190.66179 -38.806916 
L 190.590335 -40.773988 
L 190.504882 -42.741061 
L 190.40565 -44.708133 
L 190.293793 -46.675205 
L 190.17143 -48.642278 
L 190.041522 -50.60935 
L 189.907602 -52.576423 
L 189.773365 -54.543495 
L 189.642167 -56.510567 
L 189.516505 -58.47764 
L 189.39756 -60.444712 
L 189.284906 -62.411784 
L 189.176419 -64.378857 
L 189.068438 -66.345929 
L 188.956125 -68.313001 
L 188.833971 -70.280074 
L 188.696329 -72.247146 
L 188.537864 -74.214218 
L 188.35381 -76.181291 
L 188.139987 -78.148363 
L 187.892576 -80.115435 
L 187.607716 -82.082508 
L 187.281036 -84.04958 
L 186.907279 -86.016652 
L 186.480143 -87.983725 
L 185.992448 -89.950797 
L 185.436661 -91.917869 
L 184.80575 -93.884942 
L 184.09424 -95.852014 
L 183.299314 -97.819086 
L 182.42176 -99.786159 
L 181.466597 -101.753231 
L 180.443232 -103.720303 
L 179.365097 -105.687376 
L 178.248792 -107.654448 
L 177.112821 -109.62152 
L 175.976086 -111.588593 
L 174.856331 -113.555665 
L 173.76869 -115.522738 
L 172.724524 -117.48981 
L 171.730603 -119.456882 
L 170.788716 -121.423955 
L 169.895676 -123.391027 
L 169.043724 -125.358099 
L 168.22129 -127.325172 
L 167.414093 -129.292244 
L 166.606593 -131.259316 
L 165.783744 -133.226389 
L 164.933039 -135.193461 
L 164.04668 -137.160533 
L 163.123702 -139.127606 
L 162.171732 -141.094678 
L 161.208048 -143.06175 
L 160.259617 -145.028823 
L 159.36187 -146.995895 
L 158.556172 -148.962967 
L 157.886148 -150.93004 
L 157.393277 -152.897112 
L 157.112335 -154.864184 
L 157.067358 -156.831257 
L 157.268754 -158.798329 
L 157.712039 -160.765401 
L 158.378403 -162.732474 
L 159.237035 -164.699546 
L 160.248823 -166.666618 
L 161.37087 -168.633691 
L 162.561139 -170.600763 
L 163.782572 -172.567836 
L 165.006151 -174.534908 
L 166.212583 -176.50198 
L 167.392504 -178.469053 
L 168.545377 -180.436125 
L 169.677373 -182.403197 
L 170.798699 -184.37027 
L 171.92081 -186.337342 
L 173.053923 -188.304414 
L 174.205122 -190.271487 
L 175.377213 -192.238559 
L 176.568345 -194.205631 
L 177.772282 -196.172704 
L 178.979165 -198.139776 
L 180.176552 -200.106848 
L 181.350555 -202.073921 
L 182.486922 -204.040993 
L 183.571983 -206.008065 
L 184.593425 -207.975138 
L 185.540873 -209.94221 
L 186.406309 -211.909282 
L 187.184332 -213.876355 
L 187.872273 -215.843427 
L 188.470161 -217.810499 
L 188.98055 -219.777572 
L 189.408215 -221.744644 
L 189.759727 -223.711716 
L 190.042964 -225.678789 
L 190.266571 -227.645861 
L 190.439444 -229.612934 
L 190.570266 -231.580006 
L 191.200813 -231.580006 
L 191.200813 -231.580006 
L 191.331635 -229.612934 
L 191.504508 -227.645861 
L 191.728115 -225.678789 
L 192.011352 -223.711716 
L 192.362865 -221.744644 
L 192.790529 -219.777572 
L 193.300919 -217.810499 
L 193.898806 -215.843427 
L 194.586748 -213.876355 
L 195.364771 -211.909282 
L 196.230207 -209.94221 
L 197.177654 -207.975138 
L 198.199096 -206.008065 
L 199.284158 -204.040993 
L 200.420524 -202.073921 
L 201.594527 -200.106848 
L 202.791915 -198.139776 
L 203.998797 -196.172704 
L 205.202734 -194.205631 
L 206.393866 -192.238559 
L 207.565958 -190.271487 
L 208.717157 -188.304414 
L 209.850269 -186.337342 
L 210.972381 -184.37027 
L 212.093707 -182.403197 
L 213.225703 -180.436125 
L 214.378576 -178.469053 
L 215.558497 -176.50198 
L 216.764928 -174.534908 
L 217.988508 -172.567836 
L 219.209941 -170.600763 
L 220.40021 -168.633691 
L 221.522257 -166.666618 
L 222.534045 -164.699546 
L 223.392676 -162.732474 
L 224.059041 -160.765401 
L 224.502325 -158.798329 
L 224.703722 -156.831257 
L 224.658745 -154.864184 
L 224.377803 -152.897112 
L 223.884931 -150.93004 
L 223.214907 -148.962967 
L 222.409209 -146.995895 
L 221.511463 -145.028823 
L 220.563032 -143.06175 
L 219.599348 -141.094678 
L 218.647377 -139.127606 
L 217.724399 -137.160533 
L 216.83804 -135.193461 
L 215.987335 -133.226389 
L 215.164487 -131.259316 
L 214.356986 -129.292244 
L 213.54979 -127.325172 
L 212.727355 -125.358099 
L 211.875404 -123.391027 
L 210.982364 -121.423955 
L 210.040476 -119.456882 
L 209.046556 -117.48981 
L 208.002389 -115.522738 
L 206.914749 -113.555665 
L 205.794993 -111.588593 
L 204.658259 -109.62152 
L 203.522287 -107.654448 
L 202.405982 -105.687376 
L 201.327848 -103.720303 
L 200.304482 -101.753231 
L 199.34932 -99.786159 
L 198.471766 -97.819086 
L 197.676839 -95.852014 
L 196.965329 -93.884942 
L 196.334418 -91.917869 
L 195.778632 -89.950797 
L 195.290936 -87.983725 
L 194.8638 -86.016652 
L 194.490044 -84.04958 
L 194.163364 -82.082508 
L 193.878503 -80.115435 
L 193.631092 -78.148363 
L 193.417269 -76.181291 
L 193.233215 -74.214218 
L 193.07475 -72.247146 
L 192.937109 -70.280074 
L 192.814955 -68.313001 
L 192.702641 -66.345929 
L 192.59466 -64.378857 
L 192.486174 -62.411784 
L 192.373519 -60.444712 
L 192.254575 -58.47764 
L 192.128912 -56.510567 
L 191.997715 -54.543495 
L 191.863478 -52.576423 
L 191.729558 -50.60935 
L 191.599649 -48.642278 
L 191.477286 -46.675205 
L 191.36543 -44.708133 
L 191.266197 -42.741061 
L 191.180744 -40.773988 
L 191.109289 -38.806916 
L 191.051246 -36.839844 
z
" style="stroke: #4c4c4c; stroke-width: 0.5"/>
    </defs>
    <g clip-path="url(#p1b1d8a8af9)">
     <use xlink:href="#me47e8579c3" x="0" y="255.719844" style="fill: #df8920; stroke: #4c4c4c; stroke-width: 0.5"/>
    </g>
   </g>
   <g id="line2d_1">
    <path d="M 106.340085 176.146771 
L 106.340085 46.990126 
" clip-path="url(#p1b1d8a8af9)" style="fill: none; stroke: #4c4c4c; stroke-width: 0.75; stroke-linecap: round"/>
   </g>
   <g id="line2d_2">
    <path d="M 106.340085 127.179231 
L 106.340085 94.366596 
" clip-path="url(#p1b1d8a8af9)" style="fill: none; stroke: #4c4c4c; stroke-width: 2.25; stroke-linecap: round"/>
   </g>
   <g id="line2d_3">
    <path d="M 106.340085 110.763239 
" clip-path="url(#p1b1d8a8af9)" style="fill: none; stroke: #4c4c4c; stroke-width: 1.5; stroke-linecap: round"/>
    <defs>
     <path id="m0a61424750" d="M 0.9375 0 
L -0.9375 -0 
" style="stroke: #ffffff; stroke-width: 0.45"/>
    </defs>
    <g clip-path="url(#p1b1d8a8af9)">
     <use xlink:href="#m0a61424750" x="106.340085" y="110.763239" style="fill: #ffffff; stroke: #ffffff; stroke-width: 0.45"/>
    </g>
   </g>
   <g id="line2d_4">
    <path d="M 190.88554 171.811119 
L 190.88554 49.545657 
" clip-path="url(#p1b1d8a8af9)" style="fill: none; stroke: #4c4c4c; stroke-width: 0.75; stroke-linecap: round"/>
   </g>
   <g id="line2d_5">
    <path d="M 190.88554 124.942487 
L 190.88554 85.866796 
" clip-path="url(#p1b1d8a8af9)" style="fill: none; stroke: #4c4c4c; stroke-width: 2.25; stroke-linecap: round"/>
   </g>
   <g id="line2d_6">
    <path d="M 190.88554 101.419787 
" clip-path="url(#p1b1d8a8af9)" style="fill: none; stroke: #4c4c4c; stroke-width: 1.5; stroke-linecap: round"/>
    <g clip-path="url(#p1b1d8a8af9)">
     <use xlink:href="#m0a61424750" x="190.88554" y="101.419787" style="fill: #ffffff; stroke: #ffffff; stroke-width: 0.45"/>
    </g>
   </g>
   <g id="line2d_7">
    <path d="M 106.340085 33.684526 
L 106.340085 29.249326 
L 190.88554 29.249326 
L 190.88554 33.684526 
" style="fill: none; stroke: #333333; stroke-width: 0.5; stroke-linecap: round"/>
   </g>
   <g id="patch_3">
    <path d="M 64.912813 228.96 
L 64.912813 7.2 
" style="fill: none; stroke: #262626; stroke-width: 1.25; stroke-linejoin: miter; stroke-linecap: square"/>
   </g>
   <g id="patch_4">
    <path d="M 64.912813 228.96 
L 232.312813 228.96 
" style="fill: none; stroke: #262626; stroke-width: 1.25; stroke-linejoin: miter; stroke-linecap: square"/>
   </g>
   <g id="text_13">
    <!-- ns -->
    <g style="fill: #262626" transform="translate(142.27625 25.864326) scale(0.12 -0.12)">
     <defs>
      <path id="ArialMT-6e" d="M 422 0 
L 422 3319 
L 928 3319 
L 928 2847 
Q 1294 3394 1984 3394 
Q 2284 3394 2536 3286 
Q 2788 3178 2913 3003 
Q 3038 2828 3088 2588 
Q 3119 2431 3119 2041 
L 3119 0 
L 2556 0 
L 2556 2019 
Q 2556 2363 2490 2533 
Q 2425 2703 2258 2804 
Q 2091 2906 1866 2906 
Q 1506 2906 1245 2678 
Q 984 2450 984 1813 
L 984 0 
L 422 0 
z
" transform="scale(0.015625)"/>
     </defs>
     <use xlink:href="#ArialMT-6e"/>
     <use xlink:href="#ArialMT-73" x="55.615234"/>
    </g>
   </g>
  </g>
 </g>
 <defs>
  <clipPath id="p1b1d8a8af9">
   <rect x="64.912813" y="7.2" width="167.4" height="221.76"/>
  </clipPath>
 </defs>
</svg>
