<?xml version="1.0" encoding="utf-8" standalone="no"?>
<!DOCTYPE svg PUBLIC "-//W3C//DTD SVG 1.1//EN"
  "http://www.w3.org/Graphics/SVG/1.1/DTD/svg11.dtd">
<svg xmlns:xlink="http://www.w3.org/1999/xlink" width="155.905512pt" height="113.385827pt" viewBox="0 0 155.905512 113.385827" xmlns="http://www.w3.org/2000/svg" version="1.1">
 <metadata>
  <rdf:RDF xmlns:dc="http://purl.org/dc/elements/1.1/" xmlns:cc="http://creativecommons.org/ns#" xmlns:rdf="http://www.w3.org/1999/02/22-rdf-syntax-ns#">
   <cc:Work>
    <dc:type rdf:resource="http://purl.org/dc/dcmitype/StillImage"/>
    <dc:date>2025-05-13T10:51:07.668707</dc:date>
    <dc:format>image/svg+xml</dc:format>
    <dc:creator>
     <cc:Agent>
      <dc:title>Matplotlib v3.9.2, https://matplotlib.org/</dc:title>
     </cc:Agent>
    </dc:creator>
   </cc:Work>
  </rdf:RDF>
 </metadata>
 <defs>
  <style type="text/css">*{stroke-linejoin: round; stroke-linecap: butt}</style>
 </defs>
 <g id="figure_1">
  <g id="patch_1">
   <path d="M 0 113.385827 
L 155.905512 113.385827 
L 155.905512 0 
L 0 0 
z
" style="fill: #ffffff"/>
  </g>
  <g id="axes_1">
   <g id="patch_2">
    <path d="M 25.36 89.218327 
L 150.505512 89.218327 
L 150.505512 5.513706 
L 25.36 5.513706 
z
" style="fill: #ffffff"/>
   </g>
   <g id="matplotlib.axis_1">
    <g id="xtick_1">
     <g id="text_1">
      <!-- 60 -->
      <g style="fill: #262626" transform="translate(36.394296 97.297233) scale(0.05 -0.05)">
       <defs>
        <path id="ArialMT-36" d="M 3184 3459 
L 2625 3416 
Q 2550 3747 2413 3897 
Q 2184 4138 1850 4138 
Q 1581 4138 1378 3988 
Q 1113 3794 959 3422 
Q 806 3050 800 2363 
Q 1003 2672 1297 2822 
Q 1591 2972 1913 2972 
Q 2475 2972 2870 2558 
Q 3266 2144 3266 1488 
Q 3266 1056 3080 686 
Q 2894 316 2569 119 
Q 2244 -78 1831 -78 
Q 1128 -78 684 439 
Q 241 956 241 2144 
Q 241 3472 731 4075 
Q 1159 4600 1884 4600 
Q 2425 4600 2770 4297 
Q 3116 3994 3184 3459 
z
M 888 1484 
Q 888 1194 1011 928 
Q 1134 663 1356 523 
Q 1578 384 1822 384 
Q 2178 384 2434 671 
Q 2691 959 2691 1453 
Q 2691 1928 2437 2201 
Q 2184 2475 1800 2475 
Q 1419 2475 1153 2201 
Q 888 1928 888 1484 
z
" transform="scale(0.015625)"/>
        <path id="ArialMT-30" d="M 266 2259 
Q 266 3072 433 3567 
Q 600 4063 929 4331 
Q 1259 4600 1759 4600 
Q 2128 4600 2406 4451 
Q 2684 4303 2865 4023 
Q 3047 3744 3150 3342 
Q 3253 2941 3253 2259 
Q 3253 1453 3087 958 
Q 2922 463 2592 192 
Q 2263 -78 1759 -78 
Q 1097 -78 719 397 
Q 266 969 266 2259 
z
M 844 2259 
Q 844 1131 1108 757 
Q 1372 384 1759 384 
Q 2147 384 2411 759 
Q 2675 1134 2675 2259 
Q 2675 3391 2411 3762 
Q 2147 4134 1753 4134 
Q 1366 4134 1134 3806 
Q 844 3388 844 2259 
z
" transform="scale(0.015625)"/>
       </defs>
       <use xlink:href="#ArialMT-36"/>
       <use xlink:href="#ArialMT-30" x="55.615234"/>
      </g>
     </g>
    </g>
    <g id="xtick_2">
     <g id="text_2">
      <!-- 70 -->
      <g style="fill: #262626" transform="translate(52.646959 97.297233) scale(0.05 -0.05)">
       <defs>
        <path id="ArialMT-37" d="M 303 3981 
L 303 4522 
L 3269 4522 
L 3269 4084 
Q 2831 3619 2401 2847 
Q 1972 2075 1738 1259 
Q 1569 684 1522 0 
L 944 0 
Q 953 541 1156 1306 
Q 1359 2072 1739 2783 
Q 2119 3494 2547 3981 
L 303 3981 
z
" transform="scale(0.015625)"/>
       </defs>
       <use xlink:href="#ArialMT-37"/>
       <use xlink:href="#ArialMT-30" x="55.615234"/>
      </g>
     </g>
    </g>
    <g id="xtick_3">
     <g id="text_3">
      <!-- 80 -->
      <g style="fill: #262626" transform="translate(68.899623 97.297233) scale(0.05 -0.05)">
       <defs>
        <path id="ArialMT-38" d="M 1131 2484 
Q 781 2613 612 2850 
Q 444 3088 444 3419 
Q 444 3919 803 4259 
Q 1163 4600 1759 4600 
Q 2359 4600 2725 4251 
Q 3091 3903 3091 3403 
Q 3091 3084 2923 2848 
Q 2756 2613 2416 2484 
Q 2838 2347 3058 2040 
Q 3278 1734 3278 1309 
Q 3278 722 2862 322 
Q 2447 -78 1769 -78 
Q 1091 -78 675 323 
Q 259 725 259 1325 
Q 259 1772 486 2073 
Q 713 2375 1131 2484 
z
M 1019 3438 
Q 1019 3113 1228 2906 
Q 1438 2700 1772 2700 
Q 2097 2700 2305 2904 
Q 2513 3109 2513 3406 
Q 2513 3716 2298 3927 
Q 2084 4138 1766 4138 
Q 1444 4138 1231 3931 
Q 1019 3725 1019 3438 
z
M 838 1322 
Q 838 1081 952 856 
Q 1066 631 1291 507 
Q 1516 384 1775 384 
Q 2178 384 2440 643 
Q 2703 903 2703 1303 
Q 2703 1709 2433 1975 
Q 2163 2241 1756 2241 
Q 1359 2241 1098 1978 
Q 838 1716 838 1322 
z
" transform="scale(0.015625)"/>
       </defs>
       <use xlink:href="#ArialMT-38"/>
       <use xlink:href="#ArialMT-30" x="55.615234"/>
      </g>
     </g>
    </g>
    <g id="xtick_4">
     <g id="text_4">
      <!-- 90 -->
      <g style="fill: #262626" transform="translate(85.152287 97.297233) scale(0.05 -0.05)">
       <defs>
        <path id="ArialMT-39" d="M 350 1059 
L 891 1109 
Q 959 728 1153 556 
Q 1347 384 1650 384 
Q 1909 384 2104 503 
Q 2300 622 2425 820 
Q 2550 1019 2634 1356 
Q 2719 1694 2719 2044 
Q 2719 2081 2716 2156 
Q 2547 1888 2255 1720 
Q 1963 1553 1622 1553 
Q 1053 1553 659 1965 
Q 266 2378 266 3053 
Q 266 3750 677 4175 
Q 1088 4600 1706 4600 
Q 2153 4600 2523 4359 
Q 2894 4119 3086 3673 
Q 3278 3228 3278 2384 
Q 3278 1506 3087 986 
Q 2897 466 2520 194 
Q 2144 -78 1638 -78 
Q 1100 -78 759 220 
Q 419 519 350 1059 
z
M 2653 3081 
Q 2653 3566 2395 3850 
Q 2138 4134 1775 4134 
Q 1400 4134 1122 3828 
Q 844 3522 844 3034 
Q 844 2597 1108 2323 
Q 1372 2050 1759 2050 
Q 2150 2050 2401 2323 
Q 2653 2597 2653 3081 
z
" transform="scale(0.015625)"/>
       </defs>
       <use xlink:href="#ArialMT-39"/>
       <use xlink:href="#ArialMT-30" x="55.615234"/>
      </g>
     </g>
    </g>
    <g id="xtick_5">
     <g id="text_5">
      <!-- 100 -->
      <g style="fill: #262626" transform="translate(100.014717 97.297233) scale(0.05 -0.05)">
       <defs>
        <path id="ArialMT-31" d="M 2384 0 
L 1822 0 
L 1822 3584 
Q 1619 3391 1289 3197 
Q 959 3003 697 2906 
L 697 3450 
Q 1169 3672 1522 3987 
Q 1875 4303 2022 4600 
L 2384 4600 
L 2384 0 
z
" transform="scale(0.015625)"/>
       </defs>
       <use xlink:href="#ArialMT-31"/>
       <use xlink:href="#ArialMT-30" x="55.615234"/>
       <use xlink:href="#ArialMT-30" x="111.230469"/>
      </g>
     </g>
    </g>
    <g id="xtick_6">
     <g id="text_6">
      <!-- 110 -->
      <g style="fill: #262626" transform="translate(116.451756 97.297233) scale(0.05 -0.05)">
       <use xlink:href="#ArialMT-31"/>
       <use xlink:href="#ArialMT-31" x="48.240234"/>
       <use xlink:href="#ArialMT-30" x="103.855469"/>
      </g>
     </g>
    </g>
    <g id="xtick_7">
     <g id="text_7">
      <!-- 120 -->
      <g style="fill: #262626" transform="translate(132.520044 97.297233) scale(0.05 -0.05)">
       <defs>
        <path id="ArialMT-32" d="M 3222 541 
L 3222 0 
L 194 0 
Q 188 203 259 391 
Q 375 700 629 1000 
Q 884 1300 1366 1694 
Q 2113 2306 2375 2664 
Q 2638 3022 2638 3341 
Q 2638 3675 2398 3904 
Q 2159 4134 1775 4134 
Q 1369 4134 1125 3890 
Q 881 3647 878 3216 
L 300 3275 
Q 359 3922 746 4261 
Q 1134 4600 1788 4600 
Q 2447 4600 2831 4234 
Q 3216 3869 3216 3328 
Q 3216 3053 3103 2787 
Q 2991 2522 2730 2228 
Q 2469 1934 1863 1422 
Q 1356 997 1212 845 
Q 1069 694 975 541 
L 3222 541 
z
" transform="scale(0.015625)"/>
       </defs>
       <use xlink:href="#ArialMT-31"/>
       <use xlink:href="#ArialMT-32" x="55.615234"/>
       <use xlink:href="#ArialMT-30" x="111.230469"/>
      </g>
     </g>
    </g>
    <g id="text_8">
     <!-- Bayley-III cognitive composite score [a.u.] -->
     <g style="fill: #262626" transform="translate(32.578068 106.585671) scale(0.06 -0.06)">
      <defs>
       <path id="ArialMT-42" d="M 469 0 
L 469 4581 
L 2188 4581 
Q 2713 4581 3030 4442 
Q 3347 4303 3526 4014 
Q 3706 3725 3706 3409 
Q 3706 3116 3547 2856 
Q 3388 2597 3066 2438 
Q 3481 2316 3704 2022 
Q 3928 1728 3928 1328 
Q 3928 1006 3792 729 
Q 3656 453 3456 303 
Q 3256 153 2954 76 
Q 2653 0 2216 0 
L 469 0 
z
M 1075 2656 
L 2066 2656 
Q 2469 2656 2644 2709 
Q 2875 2778 2992 2937 
Q 3109 3097 3109 3338 
Q 3109 3566 3000 3739 
Q 2891 3913 2687 3977 
Q 2484 4041 1991 4041 
L 1075 4041 
L 1075 2656 
z
M 1075 541 
L 2216 541 
Q 2509 541 2628 563 
Q 2838 600 2978 687 
Q 3119 775 3209 942 
Q 3300 1109 3300 1328 
Q 3300 1584 3169 1773 
Q 3038 1963 2805 2039 
Q 2572 2116 2134 2116 
L 1075 2116 
L 1075 541 
z
" transform="scale(0.015625)"/>
       <path id="ArialMT-61" d="M 2588 409 
Q 2275 144 1986 34 
Q 1697 -75 1366 -75 
Q 819 -75 525 192 
Q 231 459 231 875 
Q 231 1119 342 1320 
Q 453 1522 633 1644 
Q 813 1766 1038 1828 
Q 1203 1872 1538 1913 
Q 2219 1994 2541 2106 
Q 2544 2222 2544 2253 
Q 2544 2597 2384 2738 
Q 2169 2928 1744 2928 
Q 1347 2928 1158 2789 
Q 969 2650 878 2297 
L 328 2372 
Q 403 2725 575 2942 
Q 747 3159 1072 3276 
Q 1397 3394 1825 3394 
Q 2250 3394 2515 3294 
Q 2781 3194 2906 3042 
Q 3031 2891 3081 2659 
Q 3109 2516 3109 2141 
L 3109 1391 
Q 3109 606 3145 398 
Q 3181 191 3288 0 
L 2700 0 
Q 2613 175 2588 409 
z
M 2541 1666 
Q 2234 1541 1622 1453 
Q 1275 1403 1131 1340 
Q 988 1278 909 1158 
Q 831 1038 831 891 
Q 831 666 1001 516 
Q 1172 366 1500 366 
Q 1825 366 2078 508 
Q 2331 650 2450 897 
Q 2541 1088 2541 1459 
L 2541 1666 
z
" transform="scale(0.015625)"/>
       <path id="ArialMT-79" d="M 397 -1278 
L 334 -750 
Q 519 -800 656 -800 
Q 844 -800 956 -737 
Q 1069 -675 1141 -563 
Q 1194 -478 1313 -144 
Q 1328 -97 1363 -6 
L 103 3319 
L 709 3319 
L 1400 1397 
Q 1534 1031 1641 628 
Q 1738 1016 1872 1384 
L 2581 3319 
L 3144 3319 
L 1881 -56 
Q 1678 -603 1566 -809 
Q 1416 -1088 1222 -1217 
Q 1028 -1347 759 -1347 
Q 597 -1347 397 -1278 
z
" transform="scale(0.015625)"/>
       <path id="ArialMT-6c" d="M 409 0 
L 409 4581 
L 972 4581 
L 972 0 
L 409 0 
z
" transform="scale(0.015625)"/>
       <path id="ArialMT-65" d="M 2694 1069 
L 3275 997 
Q 3138 488 2766 206 
Q 2394 -75 1816 -75 
Q 1088 -75 661 373 
Q 234 822 234 1631 
Q 234 2469 665 2931 
Q 1097 3394 1784 3394 
Q 2450 3394 2872 2941 
Q 3294 2488 3294 1666 
Q 3294 1616 3291 1516 
L 816 1516 
Q 847 969 1125 678 
Q 1403 388 1819 388 
Q 2128 388 2347 550 
Q 2566 713 2694 1069 
z
M 847 1978 
L 2700 1978 
Q 2663 2397 2488 2606 
Q 2219 2931 1791 2931 
Q 1403 2931 1139 2672 
Q 875 2413 847 1978 
z
" transform="scale(0.015625)"/>
       <path id="ArialMT-2d" d="M 203 1375 
L 203 1941 
L 1931 1941 
L 1931 1375 
L 203 1375 
z
" transform="scale(0.015625)"/>
       <path id="ArialMT-49" d="M 597 0 
L 597 4581 
L 1203 4581 
L 1203 0 
L 597 0 
z
" transform="scale(0.015625)"/>
       <path id="ArialMT-20" transform="scale(0.015625)"/>
       <path id="ArialMT-63" d="M 2588 1216 
L 3141 1144 
Q 3050 572 2676 248 
Q 2303 -75 1759 -75 
Q 1078 -75 664 370 
Q 250 816 250 1647 
Q 250 2184 428 2587 
Q 606 2991 970 3192 
Q 1334 3394 1763 3394 
Q 2303 3394 2647 3120 
Q 2991 2847 3088 2344 
L 2541 2259 
Q 2463 2594 2264 2762 
Q 2066 2931 1784 2931 
Q 1359 2931 1093 2626 
Q 828 2322 828 1663 
Q 828 994 1084 691 
Q 1341 388 1753 388 
Q 2084 388 2306 591 
Q 2528 794 2588 1216 
z
" transform="scale(0.015625)"/>
       <path id="ArialMT-6f" d="M 213 1659 
Q 213 2581 725 3025 
Q 1153 3394 1769 3394 
Q 2453 3394 2887 2945 
Q 3322 2497 3322 1706 
Q 3322 1066 3130 698 
Q 2938 331 2570 128 
Q 2203 -75 1769 -75 
Q 1072 -75 642 372 
Q 213 819 213 1659 
z
M 791 1659 
Q 791 1022 1069 705 
Q 1347 388 1769 388 
Q 2188 388 2466 706 
Q 2744 1025 2744 1678 
Q 2744 2294 2464 2611 
Q 2184 2928 1769 2928 
Q 1347 2928 1069 2612 
Q 791 2297 791 1659 
z
" transform="scale(0.015625)"/>
       <path id="ArialMT-67" d="M 319 -275 
L 866 -356 
Q 900 -609 1056 -725 
Q 1266 -881 1628 -881 
Q 2019 -881 2231 -725 
Q 2444 -569 2519 -288 
Q 2563 -116 2559 434 
Q 2191 0 1641 0 
Q 956 0 581 494 
Q 206 988 206 1678 
Q 206 2153 378 2554 
Q 550 2956 876 3175 
Q 1203 3394 1644 3394 
Q 2231 3394 2613 2919 
L 2613 3319 
L 3131 3319 
L 3131 450 
Q 3131 -325 2973 -648 
Q 2816 -972 2473 -1159 
Q 2131 -1347 1631 -1347 
Q 1038 -1347 672 -1080 
Q 306 -813 319 -275 
z
M 784 1719 
Q 784 1066 1043 766 
Q 1303 466 1694 466 
Q 2081 466 2343 764 
Q 2606 1063 2606 1700 
Q 2606 2309 2336 2618 
Q 2066 2928 1684 2928 
Q 1309 2928 1046 2623 
Q 784 2319 784 1719 
z
" transform="scale(0.015625)"/>
       <path id="ArialMT-6e" d="M 422 0 
L 422 3319 
L 928 3319 
L 928 2847 
Q 1294 3394 1984 3394 
Q 2284 3394 2536 3286 
Q 2788 3178 2913 3003 
Q 3038 2828 3088 2588 
Q 3119 2431 3119 2041 
L 3119 0 
L 2556 0 
L 2556 2019 
Q 2556 2363 2490 2533 
Q 2425 2703 2258 2804 
Q 2091 2906 1866 2906 
Q 1506 2906 1245 2678 
Q 984 2450 984 1813 
L 984 0 
L 422 0 
z
" transform="scale(0.015625)"/>
       <path id="ArialMT-69" d="M 425 3934 
L 425 4581 
L 988 4581 
L 988 3934 
L 425 3934 
z
M 425 0 
L 425 3319 
L 988 3319 
L 988 0 
L 425 0 
z
" transform="scale(0.015625)"/>
       <path id="ArialMT-74" d="M 1650 503 
L 1731 6 
Q 1494 -44 1306 -44 
Q 1000 -44 831 53 
Q 663 150 594 308 
Q 525 466 525 972 
L 525 2881 
L 113 2881 
L 113 3319 
L 525 3319 
L 525 4141 
L 1084 4478 
L 1084 3319 
L 1650 3319 
L 1650 2881 
L 1084 2881 
L 1084 941 
Q 1084 700 1114 631 
Q 1144 563 1211 522 
Q 1278 481 1403 481 
Q 1497 481 1650 503 
z
" transform="scale(0.015625)"/>
       <path id="ArialMT-76" d="M 1344 0 
L 81 3319 
L 675 3319 
L 1388 1331 
Q 1503 1009 1600 663 
Q 1675 925 1809 1294 
L 2547 3319 
L 3125 3319 
L 1869 0 
L 1344 0 
z
" transform="scale(0.015625)"/>
       <path id="ArialMT-6d" d="M 422 0 
L 422 3319 
L 925 3319 
L 925 2853 
Q 1081 3097 1340 3245 
Q 1600 3394 1931 3394 
Q 2300 3394 2536 3241 
Q 2772 3088 2869 2813 
Q 3263 3394 3894 3394 
Q 4388 3394 4653 3120 
Q 4919 2847 4919 2278 
L 4919 0 
L 4359 0 
L 4359 2091 
Q 4359 2428 4304 2576 
Q 4250 2725 4106 2815 
Q 3963 2906 3769 2906 
Q 3419 2906 3187 2673 
Q 2956 2441 2956 1928 
L 2956 0 
L 2394 0 
L 2394 2156 
Q 2394 2531 2256 2718 
Q 2119 2906 1806 2906 
Q 1569 2906 1367 2781 
Q 1166 2656 1075 2415 
Q 984 2175 984 1722 
L 984 0 
L 422 0 
z
" transform="scale(0.015625)"/>
       <path id="ArialMT-70" d="M 422 -1272 
L 422 3319 
L 934 3319 
L 934 2888 
Q 1116 3141 1344 3267 
Q 1572 3394 1897 3394 
Q 2322 3394 2647 3175 
Q 2972 2956 3137 2557 
Q 3303 2159 3303 1684 
Q 3303 1175 3120 767 
Q 2938 359 2589 142 
Q 2241 -75 1856 -75 
Q 1575 -75 1351 44 
Q 1128 163 984 344 
L 984 -1272 
L 422 -1272 
z
M 931 1641 
Q 931 1000 1190 694 
Q 1450 388 1819 388 
Q 2194 388 2461 705 
Q 2728 1022 2728 1688 
Q 2728 2322 2467 2637 
Q 2206 2953 1844 2953 
Q 1484 2953 1207 2617 
Q 931 2281 931 1641 
z
" transform="scale(0.015625)"/>
       <path id="ArialMT-73" d="M 197 991 
L 753 1078 
Q 800 744 1014 566 
Q 1228 388 1613 388 
Q 2000 388 2187 545 
Q 2375 703 2375 916 
Q 2375 1106 2209 1216 
Q 2094 1291 1634 1406 
Q 1016 1563 777 1677 
Q 538 1791 414 1992 
Q 291 2194 291 2438 
Q 291 2659 392 2848 
Q 494 3038 669 3163 
Q 800 3259 1026 3326 
Q 1253 3394 1513 3394 
Q 1903 3394 2198 3281 
Q 2494 3169 2634 2976 
Q 2775 2784 2828 2463 
L 2278 2388 
Q 2241 2644 2061 2787 
Q 1881 2931 1553 2931 
Q 1166 2931 1000 2803 
Q 834 2675 834 2503 
Q 834 2394 903 2306 
Q 972 2216 1119 2156 
Q 1203 2125 1616 2013 
Q 2213 1853 2448 1751 
Q 2684 1650 2818 1456 
Q 2953 1263 2953 975 
Q 2953 694 2789 445 
Q 2625 197 2315 61 
Q 2006 -75 1616 -75 
Q 969 -75 630 194 
Q 291 463 197 991 
z
" transform="scale(0.015625)"/>
       <path id="ArialMT-72" d="M 416 0 
L 416 3319 
L 922 3319 
L 922 2816 
Q 1116 3169 1280 3281 
Q 1444 3394 1641 3394 
Q 1925 3394 2219 3213 
L 2025 2691 
Q 1819 2813 1613 2813 
Q 1428 2813 1281 2702 
Q 1134 2591 1072 2394 
Q 978 2094 978 1738 
L 978 0 
L 416 0 
z
" transform="scale(0.015625)"/>
       <path id="ArialMT-5b" d="M 434 -1272 
L 434 4581 
L 1675 4581 
L 1675 4116 
L 997 4116 
L 997 -806 
L 1675 -806 
L 1675 -1272 
L 434 -1272 
z
" transform="scale(0.015625)"/>
       <path id="ArialMT-2e" d="M 581 0 
L 581 641 
L 1222 641 
L 1222 0 
L 581 0 
z
" transform="scale(0.015625)"/>
       <path id="ArialMT-75" d="M 2597 0 
L 2597 488 
Q 2209 -75 1544 -75 
Q 1250 -75 995 37 
Q 741 150 617 320 
Q 494 491 444 738 
Q 409 903 409 1263 
L 409 3319 
L 972 3319 
L 972 1478 
Q 972 1038 1006 884 
Q 1059 663 1231 536 
Q 1403 409 1656 409 
Q 1909 409 2131 539 
Q 2353 669 2445 892 
Q 2538 1116 2538 1541 
L 2538 3319 
L 3100 3319 
L 3100 0 
L 2597 0 
z
" transform="scale(0.015625)"/>
       <path id="ArialMT-5d" d="M 1363 -1272 
L 122 -1272 
L 122 -806 
L 800 -806 
L 800 4116 
L 122 4116 
L 122 4581 
L 1363 4581 
L 1363 -1272 
z
" transform="scale(0.015625)"/>
      </defs>
      <use xlink:href="#ArialMT-42"/>
      <use xlink:href="#ArialMT-61" x="66.699219"/>
      <use xlink:href="#ArialMT-79" x="122.314453"/>
      <use xlink:href="#ArialMT-6c" x="172.314453"/>
      <use xlink:href="#ArialMT-65" x="194.53125"/>
      <use xlink:href="#ArialMT-79" x="250.146484"/>
      <use xlink:href="#ArialMT-2d" x="300.146484"/>
      <use xlink:href="#ArialMT-49" x="333.447266"/>
      <use xlink:href="#ArialMT-49" x="361.230469"/>
      <use xlink:href="#ArialMT-49" x="389.013672"/>
      <use xlink:href="#ArialMT-20" x="416.796875"/>
      <use xlink:href="#ArialMT-63" x="444.580078"/>
      <use xlink:href="#ArialMT-6f" x="494.580078"/>
      <use xlink:href="#ArialMT-67" x="550.195312"/>
      <use xlink:href="#ArialMT-6e" x="605.810547"/>
      <use xlink:href="#ArialMT-69" x="661.425781"/>
      <use xlink:href="#ArialMT-74" x="683.642578"/>
      <use xlink:href="#ArialMT-69" x="711.425781"/>
      <use xlink:href="#ArialMT-76" x="733.642578"/>
      <use xlink:href="#ArialMT-65" x="783.642578"/>
      <use xlink:href="#ArialMT-20" x="839.257812"/>
      <use xlink:href="#ArialMT-63" x="867.041016"/>
      <use xlink:href="#ArialMT-6f" x="917.041016"/>
      <use xlink:href="#ArialMT-6d" x="972.65625"/>
      <use xlink:href="#ArialMT-70" x="1055.957031"/>
      <use xlink:href="#ArialMT-6f" x="1111.572266"/>
      <use xlink:href="#ArialMT-73" x="1167.1875"/>
      <use xlink:href="#ArialMT-69" x="1217.1875"/>
      <use xlink:href="#ArialMT-74" x="1239.404297"/>
      <use xlink:href="#ArialMT-65" x="1267.1875"/>
      <use xlink:href="#ArialMT-20" x="1322.802734"/>
      <use xlink:href="#ArialMT-73" x="1350.585938"/>
      <use xlink:href="#ArialMT-63" x="1400.585938"/>
      <use xlink:href="#ArialMT-6f" x="1450.585938"/>
      <use xlink:href="#ArialMT-72" x="1506.201172"/>
      <use xlink:href="#ArialMT-65" x="1539.501953"/>
      <use xlink:href="#ArialMT-20" x="1595.117188"/>
      <use xlink:href="#ArialMT-5b" x="1622.900391"/>
      <use xlink:href="#ArialMT-61" x="1650.683594"/>
      <use xlink:href="#ArialMT-2e" x="1706.298828"/>
      <use xlink:href="#ArialMT-75" x="1734.082031"/>
      <use xlink:href="#ArialMT-2e" x="1789.697266"/>
      <use xlink:href="#ArialMT-5d" x="1817.480469"/>
     </g>
    </g>
   </g>
   <g id="matplotlib.axis_2">
    <g id="ytick_1">
     <g id="text_9">
      <!-- −2 -->
      <g style="fill: #262626" transform="translate(15.159219 80.218017) scale(0.05 -0.05)">
       <defs>
        <path id="ArialMT-2212" d="M 3381 1997 
L 356 1997 
L 356 2522 
L 3381 2522 
L 3381 1997 
z
" transform="scale(0.015625)"/>
       </defs>
       <use xlink:href="#ArialMT-2212"/>
       <use xlink:href="#ArialMT-32" x="58.398438"/>
      </g>
     </g>
    </g>
    <g id="ytick_2">
     <g id="text_10">
      <!-- −1 -->
      <g style="fill: #262626" transform="translate(15.159219 62.364719) scale(0.05 -0.05)">
       <use xlink:href="#ArialMT-2212"/>
       <use xlink:href="#ArialMT-31" x="58.398438"/>
      </g>
     </g>
    </g>
    <g id="ytick_3">
     <g id="text_11">
      <!-- 0 -->
      <g style="fill: #262626" transform="translate(18.079531 44.511421) scale(0.05 -0.05)">
       <use xlink:href="#ArialMT-30"/>
      </g>
     </g>
    </g>
    <g id="ytick_4">
     <g id="text_12">
      <!-- 1 -->
      <g style="fill: #262626" transform="translate(18.079531 26.658123) scale(0.05 -0.05)">
       <use xlink:href="#ArialMT-31"/>
      </g>
     </g>
    </g>
    <g id="ytick_5">
     <g id="text_13">
      <!-- 2 -->
      <g style="fill: #262626" transform="translate(18.079531 8.804825) scale(0.05 -0.05)">
       <use xlink:href="#ArialMT-32"/>
      </g>
     </g>
    </g>
    <g id="text_14">
     <!-- SA PC1 [a.u.] -->
     <g style="fill: #262626" transform="translate(9.966719 65.376329) rotate(-90) scale(0.06 -0.06)">
      <defs>
       <path id="ArialMT-53" d="M 288 1472 
L 859 1522 
Q 900 1178 1048 958 
Q 1197 738 1509 602 
Q 1822 466 2213 466 
Q 2559 466 2825 569 
Q 3091 672 3220 851 
Q 3350 1031 3350 1244 
Q 3350 1459 3225 1620 
Q 3100 1781 2813 1891 
Q 2628 1963 1997 2114 
Q 1366 2266 1113 2400 
Q 784 2572 623 2826 
Q 463 3081 463 3397 
Q 463 3744 659 4045 
Q 856 4347 1234 4503 
Q 1613 4659 2075 4659 
Q 2584 4659 2973 4495 
Q 3363 4331 3572 4012 
Q 3781 3694 3797 3291 
L 3216 3247 
Q 3169 3681 2898 3903 
Q 2628 4125 2100 4125 
Q 1550 4125 1298 3923 
Q 1047 3722 1047 3438 
Q 1047 3191 1225 3031 
Q 1400 2872 2139 2705 
Q 2878 2538 3153 2413 
Q 3553 2228 3743 1945 
Q 3934 1663 3934 1294 
Q 3934 928 3725 604 
Q 3516 281 3123 101 
Q 2731 -78 2241 -78 
Q 1619 -78 1198 103 
Q 778 284 539 648 
Q 300 1013 288 1472 
z
" transform="scale(0.015625)"/>
       <path id="ArialMT-41" d="M -9 0 
L 1750 4581 
L 2403 4581 
L 4278 0 
L 3588 0 
L 3053 1388 
L 1138 1388 
L 634 0 
L -9 0 
z
M 1313 1881 
L 2866 1881 
L 2388 3150 
Q 2169 3728 2063 4100 
Q 1975 3659 1816 3225 
L 1313 1881 
z
" transform="scale(0.015625)"/>
       <path id="ArialMT-50" d="M 494 0 
L 494 4581 
L 2222 4581 
Q 2678 4581 2919 4538 
Q 3256 4481 3484 4323 
Q 3713 4166 3852 3881 
Q 3991 3597 3991 3256 
Q 3991 2672 3619 2267 
Q 3247 1863 2275 1863 
L 1100 1863 
L 1100 0 
L 494 0 
z
M 1100 2403 
L 2284 2403 
Q 2872 2403 3119 2622 
Q 3366 2841 3366 3238 
Q 3366 3525 3220 3729 
Q 3075 3934 2838 4000 
Q 2684 4041 2272 4041 
L 1100 4041 
L 1100 2403 
z
" transform="scale(0.015625)"/>
       <path id="ArialMT-43" d="M 3763 1606 
L 4369 1453 
Q 4178 706 3683 314 
Q 3188 -78 2472 -78 
Q 1731 -78 1267 223 
Q 803 525 561 1097 
Q 319 1669 319 2325 
Q 319 3041 592 3573 
Q 866 4106 1370 4382 
Q 1875 4659 2481 4659 
Q 3169 4659 3637 4309 
Q 4106 3959 4291 3325 
L 3694 3184 
Q 3534 3684 3231 3912 
Q 2928 4141 2469 4141 
Q 1941 4141 1586 3887 
Q 1231 3634 1087 3207 
Q 944 2781 944 2328 
Q 944 1744 1114 1308 
Q 1284 872 1643 656 
Q 2003 441 2422 441 
Q 2931 441 3284 734 
Q 3638 1028 3763 1606 
z
" transform="scale(0.015625)"/>
      </defs>
      <use xlink:href="#ArialMT-53"/>
      <use xlink:href="#ArialMT-41" x="66.699219"/>
      <use xlink:href="#ArialMT-20" x="127.898438"/>
      <use xlink:href="#ArialMT-50" x="155.681641"/>
      <use xlink:href="#ArialMT-43" x="222.380859"/>
      <use xlink:href="#ArialMT-31" x="294.597656"/>
      <use xlink:href="#ArialMT-20" x="350.212891"/>
      <use xlink:href="#ArialMT-5b" x="377.996094"/>
      <use xlink:href="#ArialMT-61" x="405.779297"/>
      <use xlink:href="#ArialMT-2e" x="461.394531"/>
      <use xlink:href="#ArialMT-75" x="489.177734"/>
      <use xlink:href="#ArialMT-2e" x="544.792969"/>
      <use xlink:href="#ArialMT-5d" x="572.576172"/>
     </g>
    </g>
   </g>
   <g id="PathCollection_1">
    <defs>
     <path id="C0_0_81f683c606" d="M 0 0.866025 
C 0.229673 0.866025 0.449969 0.774776 0.612372 0.612372 
C 0.774776 0.449969 0.866025 0.229673 0.866025 -0 
C 0.866025 -0.229673 0.774776 -0.449969 0.612372 -0.612372 
C 0.449969 -0.774776 0.229673 -0.866025 0 -0.866025 
C -0.229673 -0.866025 -0.449969 -0.774776 -0.612372 -0.612372 
C -0.774776 -0.449969 -0.866025 -0.229673 -0.866025 0 
C -0.866025 0.229673 -0.774776 0.449969 -0.612372 0.612372 
C -0.449969 0.774776 -0.229673 0.866025 0 0.866025 
z
"/>
    </defs>
    <g clip-path="url(#p38e9b3360e)">
     <use xlink:href="#C0_0_81f683c606" x="96.059088" y="85.413571" style="fill: #ff8c00; fill-opacity: 0.8"/>
    </g>
    <g clip-path="url(#p38e9b3360e)">
     <use xlink:href="#C0_0_81f683c606" x="96.059088" y="9.318461" style="fill: #ff8c00; fill-opacity: 0.8"/>
    </g>
    <g clip-path="url(#p38e9b3360e)">
     <use xlink:href="#C0_0_81f683c606" x="104.18542" y="31.751172" style="fill: #ff8c00; fill-opacity: 0.8"/>
    </g>
    <g clip-path="url(#p38e9b3360e)">
     <use xlink:href="#C0_0_81f683c606" x="71.680092" y="61.395184" style="fill: #ff8c00; fill-opacity: 0.8"/>
    </g>
    <g clip-path="url(#p38e9b3360e)">
     <use xlink:href="#C0_0_81f683c606" x="104.18542" y="33.019336" style="fill: #ff8c00; fill-opacity: 0.8"/>
    </g>
    <g clip-path="url(#p38e9b3360e)">
     <use xlink:href="#C0_0_81f683c606" x="112.311752" y="65.676812" style="fill: #ff8c00; fill-opacity: 0.8"/>
    </g>
    <g clip-path="url(#p38e9b3360e)">
     <use xlink:href="#C0_0_81f683c606" x="128.564416" y="29.401637" style="fill: #ff8c00; fill-opacity: 0.8"/>
    </g>
    <g clip-path="url(#p38e9b3360e)">
     <use xlink:href="#C0_0_81f683c606" x="112.311752" y="18.993858" style="fill: #ff8c00; fill-opacity: 0.8"/>
    </g>
    <g clip-path="url(#p38e9b3360e)">
     <use xlink:href="#C0_0_81f683c606" x="71.680092" y="48.357347" style="fill: #ff8c00; fill-opacity: 0.8"/>
    </g>
    <g clip-path="url(#p38e9b3360e)">
     <use xlink:href="#C0_0_81f683c606" x="87.932756" y="40.66464" style="fill: #ff8c00; fill-opacity: 0.8"/>
    </g>
    <g clip-path="url(#p38e9b3360e)">
     <use xlink:href="#C0_0_81f683c606" x="112.311752" y="45.086032" style="fill: #ff8c00; fill-opacity: 0.8"/>
    </g>
    <g clip-path="url(#p38e9b3360e)">
     <use xlink:href="#C0_0_81f683c606" x="112.311752" y="30.243221" style="fill: #ff8c00; fill-opacity: 0.8"/>
    </g>
    <g clip-path="url(#p38e9b3360e)">
     <use xlink:href="#C0_0_81f683c606" x="104.18542" y="51.643" style="fill: #ff8c00; fill-opacity: 0.8"/>
    </g>
    <g clip-path="url(#p38e9b3360e)">
     <use xlink:href="#C0_0_81f683c606" x="120.438084" y="48.534474" style="fill: #ff8c00; fill-opacity: 0.8"/>
    </g>
    <g clip-path="url(#p38e9b3360e)">
     <use xlink:href="#C0_0_81f683c606" x="112.311752" y="32.573881" style="fill: #ff8c00; fill-opacity: 0.8"/>
    </g>
    <g clip-path="url(#p38e9b3360e)">
     <use xlink:href="#C0_0_81f683c606" x="96.059088" y="30.096009" style="fill: #ff8c00; fill-opacity: 0.8"/>
    </g>
    <g clip-path="url(#p38e9b3360e)">
     <use xlink:href="#C0_0_81f683c606" x="112.311752" y="24.429026" style="fill: #ff8c00; fill-opacity: 0.8"/>
    </g>
    <g clip-path="url(#p38e9b3360e)">
     <use xlink:href="#C0_0_81f683c606" x="104.18542" y="33.726542" style="fill: #ff8c00; fill-opacity: 0.8"/>
    </g>
    <g clip-path="url(#p38e9b3360e)">
     <use xlink:href="#C0_0_81f683c606" x="112.311752" y="66.939843" style="fill: #ff8c00; fill-opacity: 0.8"/>
    </g>
    <g clip-path="url(#p38e9b3360e)">
     <use xlink:href="#C0_0_81f683c606" x="128.564416" y="21.335991" style="fill: #ff8c00; fill-opacity: 0.8"/>
    </g>
    <g clip-path="url(#p38e9b3360e)">
     <use xlink:href="#C0_0_81f683c606" x="104.18542" y="51.41234" style="fill: #ff8c00; fill-opacity: 0.8"/>
    </g>
    <g clip-path="url(#p38e9b3360e)">
     <use xlink:href="#C0_0_81f683c606" x="96.059088" y="35.969556" style="fill: #ff8c00; fill-opacity: 0.8"/>
    </g>
    <g clip-path="url(#p38e9b3360e)">
     <use xlink:href="#C0_0_81f683c606" x="96.059088" y="42.152574" style="fill: #ff8c00; fill-opacity: 0.8"/>
    </g>
    <g clip-path="url(#p38e9b3360e)">
     <use xlink:href="#C0_0_81f683c606" x="112.311752" y="30.356177" style="fill: #ff8c00; fill-opacity: 0.8"/>
    </g>
    <g clip-path="url(#p38e9b3360e)">
     <use xlink:href="#C0_0_81f683c606" x="144.817079" y="31.47278" style="fill: #ff8c00; fill-opacity: 0.8"/>
    </g>
    <g clip-path="url(#p38e9b3360e)">
     <use xlink:href="#C0_0_81f683c606" x="128.564416" y="36.302921" style="fill: #ff8c00; fill-opacity: 0.8"/>
    </g>
    <g clip-path="url(#p38e9b3360e)">
     <use xlink:href="#C0_0_81f683c606" x="96.059088" y="39.978129" style="fill: #ff8c00; fill-opacity: 0.8"/>
    </g>
    <g clip-path="url(#p38e9b3360e)">
     <use xlink:href="#C0_0_81f683c606" x="55.427428" y="46.583829" style="fill: #ff8c00; fill-opacity: 0.8"/>
    </g>
    <g clip-path="url(#p38e9b3360e)">
     <use xlink:href="#C0_0_81f683c606" x="112.311752" y="47.495733" style="fill: #ff8c00; fill-opacity: 0.8"/>
    </g>
    <g clip-path="url(#p38e9b3360e)">
     <use xlink:href="#C0_0_81f683c606" x="31.048432" y="59.557853" style="fill: #ff8c00; fill-opacity: 0.8"/>
    </g>
    <g clip-path="url(#p38e9b3360e)">
     <use xlink:href="#C0_0_81f683c606" x="87.932756" y="39.214089" style="fill: #ff8c00; fill-opacity: 0.8"/>
    </g>
    <g clip-path="url(#p38e9b3360e)">
     <use xlink:href="#C0_0_81f683c606" x="112.311752" y="19.167241" style="fill: #ff8c00; fill-opacity: 0.8"/>
    </g>
    <g clip-path="url(#p38e9b3360e)">
     <use xlink:href="#C0_0_81f683c606" x="136.690748" y="30.739617" style="fill: #ff8c00; fill-opacity: 0.8"/>
    </g>
    <g clip-path="url(#p38e9b3360e)">
     <use xlink:href="#C0_0_81f683c606" x="96.059088" y="75.836398" style="fill: #ff8c00; fill-opacity: 0.8"/>
    </g>
    <g clip-path="url(#p38e9b3360e)">
     <use xlink:href="#C0_0_81f683c606" x="104.18542" y="66.023034" style="fill: #ff8c00; fill-opacity: 0.8"/>
    </g>
    <g clip-path="url(#p38e9b3360e)">
     <use xlink:href="#C0_0_81f683c606" x="96.059088" y="40.752203" style="fill: #ff8c00; fill-opacity: 0.8"/>
    </g>
    <g clip-path="url(#p38e9b3360e)">
     <use xlink:href="#C0_0_81f683c606" x="136.690748" y="50.17205" style="fill: #ff8c00; fill-opacity: 0.8"/>
    </g>
    <g clip-path="url(#p38e9b3360e)">
     <use xlink:href="#C0_0_81f683c606" x="104.18542" y="44.238095" style="fill: #ff8c00; fill-opacity: 0.8"/>
    </g>
    <g clip-path="url(#p38e9b3360e)">
     <use xlink:href="#C0_0_81f683c606" x="87.932756" y="56.496868" style="fill: #ff8c00; fill-opacity: 0.8"/>
    </g>
    <g clip-path="url(#p38e9b3360e)">
     <use xlink:href="#C0_0_81f683c606" x="71.680092" y="61.783627" style="fill: #ff8c00; fill-opacity: 0.8"/>
    </g>
    <g clip-path="url(#p38e9b3360e)">
     <use xlink:href="#C0_0_81f683c606" x="87.932756" y="29.816248" style="fill: #ff8c00; fill-opacity: 0.8"/>
    </g>
    <g clip-path="url(#p38e9b3360e)">
     <use xlink:href="#C0_0_81f683c606" x="112.311752" y="84.722426" style="fill: #ff8c00; fill-opacity: 0.8"/>
    </g>
    <g clip-path="url(#p38e9b3360e)">
     <use xlink:href="#C0_0_81f683c606" x="87.932756" y="51.091932" style="fill: #ff8c00; fill-opacity: 0.8"/>
    </g>
    <g clip-path="url(#p38e9b3360e)">
     <use xlink:href="#C0_0_81f683c606" x="104.18542" y="48.084636" style="fill: #ff8c00; fill-opacity: 0.8"/>
    </g>
    <g clip-path="url(#p38e9b3360e)">
     <use xlink:href="#C0_0_81f683c606" x="128.564416" y="55.668995" style="fill: #ff8c00; fill-opacity: 0.8"/>
    </g>
    <g clip-path="url(#p38e9b3360e)">
     <use xlink:href="#C0_0_81f683c606" x="104.18542" y="38.062183" style="fill: #ff8c00; fill-opacity: 0.8"/>
    </g>
    <g clip-path="url(#p38e9b3360e)">
     <use xlink:href="#C0_0_81f683c606" x="112.311752" y="52.358924" style="fill: #ff8c00; fill-opacity: 0.8"/>
    </g>
    <g clip-path="url(#p38e9b3360e)">
     <use xlink:href="#C0_0_81f683c606" x="112.311752" y="63.403493" style="fill: #ff8c00; fill-opacity: 0.8"/>
    </g>
    <g clip-path="url(#p38e9b3360e)">
     <use xlink:href="#C0_0_81f683c606" x="79.806424" y="54.198983" style="fill: #ff8c00; fill-opacity: 0.8"/>
    </g>
    <g clip-path="url(#p38e9b3360e)">
     <use xlink:href="#C0_0_81f683c606" x="104.18542" y="54.013514" style="fill: #ff8c00; fill-opacity: 0.8"/>
    </g>
    <g clip-path="url(#p38e9b3360e)">
     <use xlink:href="#C0_0_81f683c606" x="96.059088" y="70.505188" style="fill: #ff8c00; fill-opacity: 0.8"/>
    </g>
    <g clip-path="url(#p38e9b3360e)">
     <use xlink:href="#C0_0_81f683c606" x="96.059088" y="19.639589" style="fill: #ff8c00; fill-opacity: 0.8"/>
    </g>
    <g clip-path="url(#p38e9b3360e)">
     <use xlink:href="#C0_0_81f683c606" x="128.564416" y="12.483074" style="fill: #ff8c00; fill-opacity: 0.8"/>
    </g>
    <g clip-path="url(#p38e9b3360e)">
     <use xlink:href="#C0_0_81f683c606" x="87.932756" y="59.693439" style="fill: #ff8c00; fill-opacity: 0.8"/>
    </g>
    <g clip-path="url(#p38e9b3360e)">
     <use xlink:href="#C0_0_81f683c606" x="128.564416" y="42.91925" style="fill: #ff8c00; fill-opacity: 0.8"/>
    </g>
    <g clip-path="url(#p38e9b3360e)">
     <use xlink:href="#C0_0_81f683c606" x="136.690748" y="66.481461" style="fill: #ff8c00; fill-opacity: 0.8"/>
    </g>
    <g clip-path="url(#p38e9b3360e)">
     <use xlink:href="#C0_0_81f683c606" x="71.680092" y="56.28973" style="fill: #ff8c00; fill-opacity: 0.8"/>
    </g>
    <g clip-path="url(#p38e9b3360e)">
     <use xlink:href="#C0_0_81f683c606" x="128.564416" y="60.595061" style="fill: #ff8c00; fill-opacity: 0.8"/>
    </g>
    <g clip-path="url(#p38e9b3360e)">
     <use xlink:href="#C0_0_81f683c606" x="104.18542" y="54.447649" style="fill: #ff8c00; fill-opacity: 0.8"/>
    </g>
    <g clip-path="url(#p38e9b3360e)">
     <use xlink:href="#C0_0_81f683c606" x="128.564416" y="18.748031" style="fill: #ff8c00; fill-opacity: 0.8"/>
    </g>
    <g clip-path="url(#p38e9b3360e)">
     <use xlink:href="#C0_0_81f683c606" x="104.18542" y="31.572845" style="fill: #ff8c00; fill-opacity: 0.8"/>
    </g>
    <g clip-path="url(#p38e9b3360e)">
     <use xlink:href="#C0_0_81f683c606" x="120.438084" y="49.230637" style="fill: #ff8c00; fill-opacity: 0.8"/>
    </g>
    <g clip-path="url(#p38e9b3360e)">
     <use xlink:href="#C0_0_81f683c606" x="104.18542" y="58.917057" style="fill: #ff8c00; fill-opacity: 0.8"/>
    </g>
    <g clip-path="url(#p38e9b3360e)">
     <use xlink:href="#C0_0_81f683c606" x="96.059088" y="47.117798" style="fill: #ff8c00; fill-opacity: 0.8"/>
    </g>
    <g clip-path="url(#p38e9b3360e)">
     <use xlink:href="#C0_0_81f683c606" x="96.059088" y="67.752164" style="fill: #ff8c00; fill-opacity: 0.8"/>
    </g>
    <g clip-path="url(#p38e9b3360e)">
     <use xlink:href="#C0_0_81f683c606" x="136.690748" y="12.906701" style="fill: #ff8c00; fill-opacity: 0.8"/>
    </g>
    <g clip-path="url(#p38e9b3360e)">
     <use xlink:href="#C0_0_81f683c606" x="128.564416" y="40.534437" style="fill: #ff8c00; fill-opacity: 0.8"/>
    </g>
    <g clip-path="url(#p38e9b3360e)">
     <use xlink:href="#C0_0_81f683c606" x="112.311752" y="19.800332" style="fill: #ff8c00; fill-opacity: 0.8"/>
    </g>
    <g clip-path="url(#p38e9b3360e)">
     <use xlink:href="#C0_0_81f683c606" x="104.18542" y="38.138258" style="fill: #ff8c00; fill-opacity: 0.8"/>
    </g>
    <g clip-path="url(#p38e9b3360e)">
     <use xlink:href="#C0_0_81f683c606" x="120.438084" y="66.418586" style="fill: #ff8c00; fill-opacity: 0.8"/>
    </g>
    <g clip-path="url(#p38e9b3360e)">
     <use xlink:href="#C0_0_81f683c606" x="104.18542" y="57.303454" style="fill: #ff8c00; fill-opacity: 0.8"/>
    </g>
    <g clip-path="url(#p38e9b3360e)">
     <use xlink:href="#C0_0_81f683c606" x="96.059088" y="27.796284" style="fill: #ff8c00; fill-opacity: 0.8"/>
    </g>
    <g clip-path="url(#p38e9b3360e)">
     <use xlink:href="#C0_0_81f683c606" x="87.932756" y="54.97582" style="fill: #ff8c00; fill-opacity: 0.8"/>
    </g>
    <g clip-path="url(#p38e9b3360e)">
     <use xlink:href="#C0_0_81f683c606" x="96.059088" y="14.697846" style="fill: #ff8c00; fill-opacity: 0.8"/>
    </g>
   </g>
   <g id="PolyCollection_1">
    <defs>
     <path id="mbf551487df" d="M 31.048432 -65.110438 
L 31.048432 -41.22086 
L 32.197611 -41.659382 
L 33.346789 -42.071328 
L 34.495967 -42.47094 
L 35.645145 -42.912788 
L 36.794324 -43.306187 
L 37.943502 -43.763326 
L 39.09268 -44.1892 
L 40.241858 -44.625388 
L 41.391037 -45.058795 
L 42.540215 -45.499003 
L 43.689393 -45.894643 
L 44.838571 -46.34266 
L 45.98775 -46.785636 
L 47.136928 -47.196604 
L 48.286106 -47.614437 
L 49.435284 -48.017637 
L 50.584463 -48.427551 
L 51.733641 -48.838865 
L 52.882819 -49.257896 
L 54.031997 -49.697168 
L 55.181176 -50.087682 
L 56.330354 -50.498816 
L 57.479532 -50.891969 
L 58.62871 -51.315368 
L 59.777889 -51.717269 
L 60.927067 -52.123664 
L 62.076245 -52.536167 
L 63.225423 -52.921722 
L 64.374602 -53.316269 
L 65.52378 -53.716501 
L 66.672958 -54.100759 
L 67.822136 -54.482365 
L 68.971315 -54.867029 
L 70.120493 -55.271021 
L 71.269671 -55.685122 
L 72.418849 -56.086489 
L 73.568028 -56.46215 
L 74.717206 -56.855765 
L 75.866384 -57.23788 
L 77.015562 -57.608623 
L 78.164741 -58.006192 
L 79.313919 -58.348814 
L 80.463097 -58.704602 
L 81.612276 -59.058262 
L 82.761454 -59.433106 
L 83.910632 -59.776137 
L 85.05981 -60.115463 
L 86.208989 -60.467003 
L 87.358167 -60.778017 
L 88.507345 -61.114405 
L 89.656523 -61.435913 
L 90.805702 -61.76623 
L 91.95488 -62.098398 
L 93.104058 -62.410837 
L 94.253236 -62.69434 
L 95.402415 -62.96205 
L 96.551593 -63.25165 
L 97.700771 -63.540636 
L 98.849949 -63.814013 
L 99.999128 -64.059553 
L 101.148306 -64.255668 
L 102.297484 -64.479041 
L 103.446662 -64.706392 
L 104.595841 -64.922355 
L 105.745019 -65.169142 
L 106.894197 -65.349972 
L 108.043375 -65.54249 
L 109.192554 -65.691314 
L 110.341732 -65.834311 
L 111.49091 -66.055646 
L 112.640088 -66.226682 
L 113.789267 -66.387602 
L 114.938445 -66.552336 
L 116.087623 -66.721618 
L 117.236801 -66.845697 
L 118.38598 -66.949138 
L 119.535158 -67.076583 
L 120.684336 -67.205789 
L 121.833514 -67.339292 
L 122.982693 -67.446853 
L 124.131871 -67.587379 
L 125.281049 -67.677888 
L 126.430227 -67.800553 
L 127.579406 -67.877151 
L 128.728584 -67.956583 
L 129.877762 -68.064589 
L 131.02694 -68.132348 
L 132.176119 -68.247625 
L 133.325297 -68.334763 
L 134.474475 -68.45769 
L 135.623653 -68.576471 
L 136.772832 -68.641007 
L 137.92201 -68.735903 
L 139.071188 -68.846282 
L 140.220366 -68.942481 
L 141.369545 -69.028873 
L 142.518723 -69.111088 
L 143.667901 -69.212984 
L 144.817079 -69.305719 
L 144.817079 -85.491078 
L 144.817079 -85.491078 
L 143.667901 -85.08353 
L 142.518723 -84.633251 
L 141.369545 -84.218959 
L 140.220366 -83.81596 
L 139.071188 -83.436175 
L 137.92201 -83.039165 
L 136.772832 -82.619027 
L 135.623653 -82.231593 
L 134.474475 -81.843959 
L 133.325297 -81.431956 
L 132.176119 -81.016168 
L 131.02694 -80.608852 
L 129.877762 -80.219855 
L 128.728584 -79.84293 
L 127.579406 -79.473723 
L 126.430227 -79.083575 
L 125.281049 -78.700942 
L 124.131871 -78.316847 
L 122.982693 -77.927515 
L 121.833514 -77.561684 
L 120.684336 -77.188147 
L 119.535158 -76.83834 
L 118.38598 -76.482749 
L 117.236801 -76.094077 
L 116.087623 -75.744416 
L 114.938445 -75.397732 
L 113.789267 -75.079597 
L 112.640088 -74.750997 
L 111.49091 -74.410583 
L 110.341732 -74.107306 
L 109.192554 -73.791584 
L 108.043375 -73.481101 
L 106.894197 -73.184833 
L 105.745019 -72.91256 
L 104.595841 -72.615527 
L 103.446662 -72.353405 
L 102.297484 -72.076844 
L 101.148306 -71.827352 
L 99.999128 -71.571599 
L 98.849949 -71.359482 
L 97.700771 -71.115833 
L 96.551593 -70.878054 
L 95.402415 -70.663948 
L 94.253236 -70.458866 
L 93.104058 -70.29009 
L 91.95488 -70.093288 
L 90.805702 -69.896293 
L 89.656523 -69.716018 
L 88.507345 -69.553968 
L 87.358167 -69.40432 
L 86.208989 -69.282994 
L 85.05981 -69.122536 
L 83.910632 -68.985324 
L 82.761454 -68.894244 
L 81.612276 -68.794363 
L 80.463097 -68.664369 
L 79.313919 -68.511208 
L 78.164741 -68.380166 
L 77.015562 -68.292727 
L 75.866384 -68.194736 
L 74.717206 -68.09998 
L 73.568028 -67.979186 
L 72.418849 -67.875062 
L 71.269671 -67.772713 
L 70.120493 -67.669531 
L 68.971315 -67.564127 
L 67.822136 -67.491245 
L 66.672958 -67.418347 
L 65.52378 -67.304905 
L 64.374602 -67.240484 
L 63.225423 -67.165757 
L 62.076245 -67.086813 
L 60.927067 -67.012213 
L 59.777889 -66.925735 
L 58.62871 -66.852302 
L 57.479532 -66.76261 
L 56.330354 -66.686303 
L 55.181176 -66.625632 
L 54.031997 -66.539149 
L 52.882819 -66.467097 
L 51.733641 -66.396441 
L 50.584463 -66.353556 
L 49.435284 -66.25181 
L 48.286106 -66.179329 
L 47.136928 -66.120488 
L 45.98775 -66.042894 
L 44.838571 -65.959623 
L 43.689393 -65.867763 
L 42.540215 -65.800705 
L 41.391037 -65.7222 
L 40.241858 -65.675018 
L 39.09268 -65.602709 
L 37.943502 -65.520247 
L 36.794324 -65.443609 
L 35.645145 -65.380078 
L 34.495967 -65.314951 
L 33.346789 -65.262006 
L 32.197611 -65.185855 
L 31.048432 -65.110438 
z
" style="stroke: #ffffff; stroke-opacity: 0.15"/>
    </defs>
    <g clip-path="url(#p38e9b3360e)">
     <use xlink:href="#mbf551487df" x="0" y="113.385827" style="fill: #ff8c00; fill-opacity: 0.15; stroke: #ffffff; stroke-opacity: 0.15"/>
    </g>
   </g>
   <g id="line2d_1">
    <path d="M 31.048432 60.355241 
L 32.197611 60.108693 
L 33.346789 59.862145 
L 34.495967 59.615597 
L 35.645145 59.369048 
L 36.794324 59.1225 
L 37.943502 58.875952 
L 39.09268 58.629404 
L 40.241858 58.382856 
L 41.391037 58.136308 
L 42.540215 57.88976 
L 43.689393 57.643212 
L 44.838571 57.396663 
L 45.98775 57.150115 
L 47.136928 56.903567 
L 48.286106 56.657019 
L 49.435284 56.410471 
L 50.584463 56.163923 
L 51.733641 55.917375 
L 52.882819 55.670827 
L 54.031997 55.424279 
L 55.181176 55.17773 
L 56.330354 54.931182 
L 57.479532 54.684634 
L 58.62871 54.438086 
L 59.777889 54.191538 
L 60.927067 53.94499 
L 62.076245 53.698442 
L 63.225423 53.451894 
L 64.374602 53.205346 
L 65.52378 52.958797 
L 66.672958 52.712249 
L 67.822136 52.465701 
L 68.971315 52.219153 
L 70.120493 51.972605 
L 71.269671 51.726057 
L 72.418849 51.479509 
L 73.568028 51.232961 
L 74.717206 50.986412 
L 75.866384 50.739864 
L 77.015562 50.493316 
L 78.164741 50.246768 
L 79.313919 50.00022 
L 80.463097 49.753672 
L 81.612276 49.507124 
L 82.761454 49.260576 
L 83.910632 49.014028 
L 85.05981 48.767479 
L 86.208989 48.520931 
L 87.358167 48.274383 
L 88.507345 48.027835 
L 89.656523 47.781287 
L 90.805702 47.534739 
L 91.95488 47.288191 
L 93.104058 47.041643 
L 94.253236 46.795094 
L 95.402415 46.548546 
L 96.551593 46.301998 
L 97.700771 46.05545 
L 98.849949 45.808902 
L 99.999128 45.562354 
L 101.148306 45.315806 
L 102.297484 45.069258 
L 103.446662 44.82271 
L 104.595841 44.576161 
L 105.745019 44.329613 
L 106.894197 44.083065 
L 108.043375 43.836517 
L 109.192554 43.589969 
L 110.341732 43.343421 
L 111.49091 43.096873 
L 112.640088 42.850325 
L 113.789267 42.603777 
L 114.938445 42.357228 
L 116.087623 42.11068 
L 117.236801 41.864132 
L 118.38598 41.617584 
L 119.535158 41.371036 
L 120.684336 41.124488 
L 121.833514 40.87794 
L 122.982693 40.631392 
L 124.131871 40.384843 
L 125.281049 40.138295 
L 126.430227 39.891747 
L 127.579406 39.645199 
L 128.728584 39.398651 
L 129.877762 39.152103 
L 131.02694 38.905555 
L 132.176119 38.659007 
L 133.325297 38.412459 
L 134.474475 38.16591 
L 135.623653 37.919362 
L 136.772832 37.672814 
L 137.92201 37.426266 
L 139.071188 37.179718 
L 140.220366 36.93317 
L 141.369545 36.686622 
L 142.518723 36.440074 
L 143.667901 36.193525 
L 144.817079 35.946977 
" clip-path="url(#p38e9b3360e)" style="fill: none; stroke: #ff8c00; stroke-width: 0.75; stroke-linecap: round"/>
   </g>
   <g id="patch_3">
    <path d="M 25.36 89.218327 
L 25.36 5.513706 
" style="fill: none; stroke: #262626; stroke-width: 0.25; stroke-linejoin: miter; stroke-linecap: square"/>
   </g>
   <g id="patch_4">
    <path d="M 25.36 89.218327 
L 150.505512 89.218327 
" style="fill: none; stroke: #262626; stroke-width: 0.25; stroke-linejoin: miter; stroke-linecap: square"/>
   </g>
   <g id="text_15">
    <g id="patch_5">
     <path d="M 29.114365 18.810455 
L 52.764365 18.810455 
Q 54.264365 18.810455 54.264365 17.310455 
L 54.264365 7.244048 
Q 54.264365 5.744048 52.764365 5.744048 
L 29.114365 5.744048 
Q 27.614365 5.744048 27.614365 7.244048 
L 27.614365 17.310455 
Q 27.614365 18.810455 29.114365 18.810455 
z
" style="fill: #c0c0c0; opacity: 0.4; stroke: #c0c0c0; stroke-linejoin: miter"/>
    </g>
    <!-- $r=0.222$ -->
    <g style="fill: #262626" transform="translate(29.114365 10.766705) scale(0.05 -0.05)">
     <defs>
      <path id="DejaVuSans-Oblique-72" d="M 2853 2969 
Q 2766 3016 2653 3041 
Q 2541 3066 2413 3066 
Q 1953 3066 1609 2717 
Q 1266 2369 1153 1784 
L 800 0 
L 225 0 
L 909 3500 
L 1484 3500 
L 1375 2956 
Q 1603 3259 1920 3421 
Q 2238 3584 2597 3584 
Q 2691 3584 2781 3573 
Q 2872 3563 2963 3538 
L 2853 2969 
z
" transform="scale(0.015625)"/>
      <path id="DejaVuSans-3d" d="M 678 2906 
L 4684 2906 
L 4684 2381 
L 678 2381 
L 678 2906 
z
M 678 1631 
L 4684 1631 
L 4684 1100 
L 678 1100 
L 678 1631 
z
" transform="scale(0.015625)"/>
      <path id="DejaVuSans-30" d="M 2034 4250 
Q 1547 4250 1301 3770 
Q 1056 3291 1056 2328 
Q 1056 1369 1301 889 
Q 1547 409 2034 409 
Q 2525 409 2770 889 
Q 3016 1369 3016 2328 
Q 3016 3291 2770 3770 
Q 2525 4250 2034 4250 
z
M 2034 4750 
Q 2819 4750 3233 4129 
Q 3647 3509 3647 2328 
Q 3647 1150 3233 529 
Q 2819 -91 2034 -91 
Q 1250 -91 836 529 
Q 422 1150 422 2328 
Q 422 3509 836 4129 
Q 1250 4750 2034 4750 
z
" transform="scale(0.015625)"/>
      <path id="DejaVuSans-2e" d="M 684 794 
L 1344 794 
L 1344 0 
L 684 0 
L 684 794 
z
" transform="scale(0.015625)"/>
      <path id="DejaVuSans-32" d="M 1228 531 
L 3431 531 
L 3431 0 
L 469 0 
L 469 531 
Q 828 903 1448 1529 
Q 2069 2156 2228 2338 
Q 2531 2678 2651 2914 
Q 2772 3150 2772 3378 
Q 2772 3750 2511 3984 
Q 2250 4219 1831 4219 
Q 1534 4219 1204 4116 
Q 875 4013 500 3803 
L 500 4441 
Q 881 4594 1212 4672 
Q 1544 4750 1819 4750 
Q 2544 4750 2975 4387 
Q 3406 4025 3406 3419 
Q 3406 3131 3298 2873 
Q 3191 2616 2906 2266 
Q 2828 2175 2409 1742 
Q 1991 1309 1228 531 
z
" transform="scale(0.015625)"/>
     </defs>
     <use xlink:href="#DejaVuSans-Oblique-72" transform="translate(0 0.78125)"/>
     <use xlink:href="#DejaVuSans-3d" transform="translate(60.595703 0.78125)"/>
     <use xlink:href="#DejaVuSans-30" transform="translate(163.867188 0.78125)"/>
     <use xlink:href="#DejaVuSans-2e" transform="translate(227.490234 0.78125)"/>
     <use xlink:href="#DejaVuSans-32" transform="translate(253.777344 0.78125)"/>
     <use xlink:href="#DejaVuSans-32" transform="translate(317.400391 0.78125)"/>
     <use xlink:href="#DejaVuSans-32" transform="translate(381.023438 0.78125)"/>
    </g>
    <!-- $p=0.058$ -->
    <g style="fill: #262626" transform="translate(29.114365 16.260455) scale(0.05 -0.05)">
     <defs>
      <path id="DejaVuSans-Oblique-70" d="M 3175 2156 
Q 3175 2616 2975 2859 
Q 2775 3103 2400 3103 
Q 2144 3103 1911 2972 
Q 1678 2841 1497 2591 
Q 1319 2344 1212 1994 
Q 1106 1644 1106 1300 
Q 1106 863 1306 627 
Q 1506 391 1875 391 
Q 2147 391 2380 519 
Q 2613 647 2778 891 
Q 2956 1147 3065 1494 
Q 3175 1841 3175 2156 
z
M 1394 2969 
Q 1625 3272 1939 3428 
Q 2253 3584 2638 3584 
Q 3175 3584 3472 3232 
Q 3769 2881 3769 2247 
Q 3769 1728 3584 1258 
Q 3400 788 3053 416 
Q 2822 169 2531 39 
Q 2241 -91 1919 -91 
Q 1547 -91 1294 64 
Q 1041 219 916 525 
L 556 -1331 
L -19 -1331 
L 922 3500 
L 1497 3500 
L 1394 2969 
z
" transform="scale(0.015625)"/>
      <path id="DejaVuSans-35" d="M 691 4666 
L 3169 4666 
L 3169 4134 
L 1269 4134 
L 1269 2991 
Q 1406 3038 1543 3061 
Q 1681 3084 1819 3084 
Q 2600 3084 3056 2656 
Q 3513 2228 3513 1497 
Q 3513 744 3044 326 
Q 2575 -91 1722 -91 
Q 1428 -91 1123 -41 
Q 819 9 494 109 
L 494 744 
Q 775 591 1075 516 
Q 1375 441 1709 441 
Q 2250 441 2565 725 
Q 2881 1009 2881 1497 
Q 2881 1984 2565 2268 
Q 2250 2553 1709 2553 
Q 1456 2553 1204 2497 
Q 953 2441 691 2322 
L 691 4666 
z
" transform="scale(0.015625)"/>
      <path id="DejaVuSans-38" d="M 2034 2216 
Q 1584 2216 1326 1975 
Q 1069 1734 1069 1313 
Q 1069 891 1326 650 
Q 1584 409 2034 409 
Q 2484 409 2743 651 
Q 3003 894 3003 1313 
Q 3003 1734 2745 1975 
Q 2488 2216 2034 2216 
z
M 1403 2484 
Q 997 2584 770 2862 
Q 544 3141 544 3541 
Q 544 4100 942 4425 
Q 1341 4750 2034 4750 
Q 2731 4750 3128 4425 
Q 3525 4100 3525 3541 
Q 3525 3141 3298 2862 
Q 3072 2584 2669 2484 
Q 3125 2378 3379 2068 
Q 3634 1759 3634 1313 
Q 3634 634 3220 271 
Q 2806 -91 2034 -91 
Q 1263 -91 848 271 
Q 434 634 434 1313 
Q 434 1759 690 2068 
Q 947 2378 1403 2484 
z
M 1172 3481 
Q 1172 3119 1398 2916 
Q 1625 2713 2034 2713 
Q 2441 2713 2670 2916 
Q 2900 3119 2900 3481 
Q 2900 3844 2670 4047 
Q 2441 4250 2034 4250 
Q 1625 4250 1398 4047 
Q 1172 3844 1172 3481 
z
" transform="scale(0.015625)"/>
     </defs>
     <use xlink:href="#DejaVuSans-Oblique-70" transform="translate(0 0.78125)"/>
     <use xlink:href="#DejaVuSans-3d" transform="translate(82.958984 0.78125)"/>
     <use xlink:href="#DejaVuSans-30" transform="translate(186.230469 0.78125)"/>
     <use xlink:href="#DejaVuSans-2e" transform="translate(249.853516 0.78125)"/>
     <use xlink:href="#DejaVuSans-30" transform="translate(281.640625 0.78125)"/>
     <use xlink:href="#DejaVuSans-35" transform="translate(345.263672 0.78125)"/>
     <use xlink:href="#DejaVuSans-38" transform="translate(408.886719 0.78125)"/>
    </g>
   </g>
  </g>
 </g>
 <defs>
  <clipPath id="p38e9b3360e">
   <rect x="25.36" y="5.513706" width="125.145512" height="83.704621"/>
  </clipPath>
 </defs>
</svg>
