<?xml version="1.0" encoding="utf-8" standalone="no"?>
<!DOCTYPE svg PUBLIC "-//W3C//DTD SVG 1.1//EN"
  "http://www.w3.org/Graphics/SVG/1.1/DTD/svg11.dtd">
<svg xmlns:xlink="http://www.w3.org/1999/xlink" width="155.905512pt" height="113.385827pt" viewBox="0 0 155.905512 113.385827" xmlns="http://www.w3.org/2000/svg" version="1.1">
 <metadata>
  <rdf:RDF xmlns:dc="http://purl.org/dc/elements/1.1/" xmlns:cc="http://creativecommons.org/ns#" xmlns:rdf="http://www.w3.org/1999/02/22-rdf-syntax-ns#">
   <cc:Work>
    <dc:type rdf:resource="http://purl.org/dc/dcmitype/StillImage"/>
    <dc:date>2025-08-06T16:41:12.902676</dc:date>
    <dc:format>image/svg+xml</dc:format>
    <dc:creator>
     <cc:Agent>
      <dc:title>Matplotlib v3.9.2, https://matplotlib.org/</dc:title>
     </cc:Agent>
    </dc:creator>
   </cc:Work>
  </rdf:RDF>
 </metadata>
 <defs>
  <style type="text/css">*{stroke-linejoin: round; stroke-linecap: butt}</style>
 </defs>
 <g id="figure_1">
  <g id="patch_1">
   <path d="M 0 113.385827 
L 155.905512 113.385827 
L 155.905512 0 
L 0 0 
z
" style="fill: #ffffff"/>
  </g>
  <g id="axes_1">
   <g id="patch_2">
    <path d="M 25.36 89.218327 
L 150.505512 89.218327 
L 150.505512 5.4 
L 25.36 5.4 
z
" style="fill: #ffffff"/>
   </g>
   <g id="PathCollection_1">
    <defs>
     <path id="C0_0_9e29e82ef1" d="M 0 0.866025 
C 0.229673 0.866025 0.449969 0.774776 0.612372 0.612372 
C 0.774776 0.449969 0.866025 0.229673 0.866025 -0 
C 0.866025 -0.229673 0.774776 -0.449969 0.612372 -0.612372 
C 0.449969 -0.774776 0.229673 -0.866025 0 -0.866025 
C -0.229673 -0.866025 -0.449969 -0.774776 -0.612372 -0.612372 
C -0.774776 -0.449969 -0.866025 -0.229673 -0.866025 0 
C -0.866025 0.229673 -0.774776 0.449969 -0.612372 0.612372 
C -0.449969 0.774776 -0.229673 0.866025 0 0.866025 
z
"/>
    </defs>
    <g clip-path="url(#p1152e3a628)">
     <use xlink:href="#C0_0_9e29e82ef1" x="87.932756" y="53.922963" style="fill: #ff8c00; fill-opacity: 0.8"/>
    </g>
    <g clip-path="url(#p1152e3a628)">
     <use xlink:href="#C0_0_9e29e82ef1" x="39.174764" y="51.034431" style="fill: #ff8c00; fill-opacity: 0.8"/>
    </g>
    <g clip-path="url(#p1152e3a628)">
     <use xlink:href="#C0_0_9e29e82ef1" x="71.680092" y="54.179689" style="fill: #ff8c00; fill-opacity: 0.8"/>
    </g>
    <g clip-path="url(#p1152e3a628)">
     <use xlink:href="#C0_0_9e29e82ef1" x="96.059088" y="72.853896" style="fill: #ff8c00; fill-opacity: 0.8"/>
    </g>
    <g clip-path="url(#p1152e3a628)">
     <use xlink:href="#C0_0_9e29e82ef1" x="136.690748" y="64.77311" style="fill: #ff8c00; fill-opacity: 0.8"/>
    </g>
    <g clip-path="url(#p1152e3a628)">
     <use xlink:href="#C0_0_9e29e82ef1" x="104.18542" y="63.702275" style="fill: #ff8c00; fill-opacity: 0.8"/>
    </g>
    <g clip-path="url(#p1152e3a628)">
     <use xlink:href="#C0_0_9e29e82ef1" x="104.18542" y="69.279782" style="fill: #ff8c00; fill-opacity: 0.8"/>
    </g>
    <g clip-path="url(#p1152e3a628)">
     <use xlink:href="#C0_0_9e29e82ef1" x="144.817079" y="66.493477" style="fill: #ff8c00; fill-opacity: 0.8"/>
    </g>
    <g clip-path="url(#p1152e3a628)">
     <use xlink:href="#C0_0_9e29e82ef1" x="112.311752" y="20.302477" style="fill: #ff8c00; fill-opacity: 0.8"/>
    </g>
    <g clip-path="url(#p1152e3a628)">
     <use xlink:href="#C0_0_9e29e82ef1" x="128.564416" y="42.938416" style="fill: #ff8c00; fill-opacity: 0.8"/>
    </g>
    <g clip-path="url(#p1152e3a628)">
     <use xlink:href="#C0_0_9e29e82ef1" x="112.311752" y="18.492039" style="fill: #ff8c00; fill-opacity: 0.8"/>
    </g>
    <g clip-path="url(#p1152e3a628)">
     <use xlink:href="#C0_0_9e29e82ef1" x="71.680092" y="82.770191" style="fill: #ff8c00; fill-opacity: 0.8"/>
    </g>
    <g clip-path="url(#p1152e3a628)">
     <use xlink:href="#C0_0_9e29e82ef1" x="55.427428" y="46.839699" style="fill: #ff8c00; fill-opacity: 0.8"/>
    </g>
    <g clip-path="url(#p1152e3a628)">
     <use xlink:href="#C0_0_9e29e82ef1" x="96.059088" y="27.346637" style="fill: #ff8c00; fill-opacity: 0.8"/>
    </g>
    <g clip-path="url(#p1152e3a628)">
     <use xlink:href="#C0_0_9e29e82ef1" x="120.438084" y="47.579897" style="fill: #ff8c00; fill-opacity: 0.8"/>
    </g>
    <g clip-path="url(#p1152e3a628)">
     <use xlink:href="#C0_0_9e29e82ef1" x="96.059088" y="67.840874" style="fill: #ff8c00; fill-opacity: 0.8"/>
    </g>
    <g clip-path="url(#p1152e3a628)">
     <use xlink:href="#C0_0_9e29e82ef1" x="96.059088" y="42.067769" style="fill: #ff8c00; fill-opacity: 0.8"/>
    </g>
    <g clip-path="url(#p1152e3a628)">
     <use xlink:href="#C0_0_9e29e82ef1" x="104.18542" y="56.459428" style="fill: #ff8c00; fill-opacity: 0.8"/>
    </g>
    <g clip-path="url(#p1152e3a628)">
     <use xlink:href="#C0_0_9e29e82ef1" x="112.311752" y="62.894246" style="fill: #ff8c00; fill-opacity: 0.8"/>
    </g>
    <g clip-path="url(#p1152e3a628)">
     <use xlink:href="#C0_0_9e29e82ef1" x="120.438084" y="47.134623" style="fill: #ff8c00; fill-opacity: 0.8"/>
    </g>
    <g clip-path="url(#p1152e3a628)">
     <use xlink:href="#C0_0_9e29e82ef1" x="128.564416" y="30.221464" style="fill: #ff8c00; fill-opacity: 0.8"/>
    </g>
    <g clip-path="url(#p1152e3a628)">
     <use xlink:href="#C0_0_9e29e82ef1" x="96.059088" y="31.21707" style="fill: #ff8c00; fill-opacity: 0.8"/>
    </g>
    <g clip-path="url(#p1152e3a628)">
     <use xlink:href="#C0_0_9e29e82ef1" x="104.18542" y="50.428885" style="fill: #ff8c00; fill-opacity: 0.8"/>
    </g>
    <g clip-path="url(#p1152e3a628)">
     <use xlink:href="#C0_0_9e29e82ef1" x="128.564416" y="9.961371" style="fill: #ff8c00; fill-opacity: 0.8"/>
    </g>
    <g clip-path="url(#p1152e3a628)">
     <use xlink:href="#C0_0_9e29e82ef1" x="104.18542" y="31.967898" style="fill: #ff8c00; fill-opacity: 0.8"/>
    </g>
    <g clip-path="url(#p1152e3a628)">
     <use xlink:href="#C0_0_9e29e82ef1" x="120.438084" y="67.640521" style="fill: #ff8c00; fill-opacity: 0.8"/>
    </g>
    <g clip-path="url(#p1152e3a628)">
     <use xlink:href="#C0_0_9e29e82ef1" x="112.311752" y="65.739118" style="fill: #ff8c00; fill-opacity: 0.8"/>
    </g>
    <g clip-path="url(#p1152e3a628)">
     <use xlink:href="#C0_0_9e29e82ef1" x="104.18542" y="44.497054" style="fill: #ff8c00; fill-opacity: 0.8"/>
    </g>
    <g clip-path="url(#p1152e3a628)">
     <use xlink:href="#C0_0_9e29e82ef1" x="112.311752" y="46.210454" style="fill: #ff8c00; fill-opacity: 0.8"/>
    </g>
    <g clip-path="url(#p1152e3a628)">
     <use xlink:href="#C0_0_9e29e82ef1" x="96.059088" y="66.089973" style="fill: #ff8c00; fill-opacity: 0.8"/>
    </g>
    <g clip-path="url(#p1152e3a628)">
     <use xlink:href="#C0_0_9e29e82ef1" x="87.932756" y="52.464327" style="fill: #ff8c00; fill-opacity: 0.8"/>
    </g>
    <g clip-path="url(#p1152e3a628)">
     <use xlink:href="#C0_0_9e29e82ef1" x="96.059088" y="80.430394" style="fill: #ff8c00; fill-opacity: 0.8"/>
    </g>
    <g clip-path="url(#p1152e3a628)">
     <use xlink:href="#C0_0_9e29e82ef1" x="128.564416" y="22.641849" style="fill: #ff8c00; fill-opacity: 0.8"/>
    </g>
    <g clip-path="url(#p1152e3a628)">
     <use xlink:href="#C0_0_9e29e82ef1" x="104.18542" y="30.198888" style="fill: #ff8c00; fill-opacity: 0.8"/>
    </g>
    <g clip-path="url(#p1152e3a628)">
     <use xlink:href="#C0_0_9e29e82ef1" x="104.18542" y="32.023946" style="fill: #ff8c00; fill-opacity: 0.8"/>
    </g>
    <g clip-path="url(#p1152e3a628)">
     <use xlink:href="#C0_0_9e29e82ef1" x="96.059088" y="39.894268" style="fill: #ff8c00; fill-opacity: 0.8"/>
    </g>
    <g clip-path="url(#p1152e3a628)">
     <use xlink:href="#C0_0_9e29e82ef1" x="104.18542" y="50.890987" style="fill: #ff8c00; fill-opacity: 0.8"/>
    </g>
    <g clip-path="url(#p1152e3a628)">
     <use xlink:href="#C0_0_9e29e82ef1" x="120.438084" y="62.985214" style="fill: #ff8c00; fill-opacity: 0.8"/>
    </g>
    <g clip-path="url(#p1152e3a628)">
     <use xlink:href="#C0_0_9e29e82ef1" x="87.932756" y="57.473471" style="fill: #ff8c00; fill-opacity: 0.8"/>
    </g>
    <g clip-path="url(#p1152e3a628)">
     <use xlink:href="#C0_0_9e29e82ef1" x="104.18542" y="48.254358" style="fill: #ff8c00; fill-opacity: 0.8"/>
    </g>
    <g clip-path="url(#p1152e3a628)">
     <use xlink:href="#C0_0_9e29e82ef1" x="112.311752" y="79.039434" style="fill: #ff8c00; fill-opacity: 0.8"/>
    </g>
    <g clip-path="url(#p1152e3a628)">
     <use xlink:href="#C0_0_9e29e82ef1" x="104.18542" y="51.989178" style="fill: #ff8c00; fill-opacity: 0.8"/>
    </g>
    <g clip-path="url(#p1152e3a628)">
     <use xlink:href="#C0_0_9e29e82ef1" x="87.932756" y="40.755389" style="fill: #ff8c00; fill-opacity: 0.8"/>
    </g>
    <g clip-path="url(#p1152e3a628)">
     <use xlink:href="#C0_0_9e29e82ef1" x="71.680092" y="48.661398" style="fill: #ff8c00; fill-opacity: 0.8"/>
    </g>
    <g clip-path="url(#p1152e3a628)">
     <use xlink:href="#C0_0_9e29e82ef1" x="112.311752" y="29.428694" style="fill: #ff8c00; fill-opacity: 0.8"/>
    </g>
    <g clip-path="url(#p1152e3a628)">
     <use xlink:href="#C0_0_9e29e82ef1" x="96.059088" y="45.290316" style="fill: #ff8c00; fill-opacity: 0.8"/>
    </g>
    <g clip-path="url(#p1152e3a628)">
     <use xlink:href="#C0_0_9e29e82ef1" x="96.059088" y="46.804392" style="fill: #ff8c00; fill-opacity: 0.8"/>
    </g>
    <g clip-path="url(#p1152e3a628)">
     <use xlink:href="#C0_0_9e29e82ef1" x="104.18542" y="51.629685" style="fill: #ff8c00; fill-opacity: 0.8"/>
    </g>
    <g clip-path="url(#p1152e3a628)">
     <use xlink:href="#C0_0_9e29e82ef1" x="96.059088" y="23.120922" style="fill: #ff8c00; fill-opacity: 0.8"/>
    </g>
    <g clip-path="url(#p1152e3a628)">
     <use xlink:href="#C0_0_9e29e82ef1" x="79.806424" y="52.126806" style="fill: #ff8c00; fill-opacity: 0.8"/>
    </g>
    <g clip-path="url(#p1152e3a628)">
     <use xlink:href="#C0_0_9e29e82ef1" x="136.690748" y="30.113644" style="fill: #ff8c00; fill-opacity: 0.8"/>
    </g>
    <g clip-path="url(#p1152e3a628)">
     <use xlink:href="#C0_0_9e29e82ef1" x="71.680092" y="60.767539" style="fill: #ff8c00; fill-opacity: 0.8"/>
    </g>
    <g clip-path="url(#p1152e3a628)">
     <use xlink:href="#C0_0_9e29e82ef1" x="128.564416" y="18.399119" style="fill: #ff8c00; fill-opacity: 0.8"/>
    </g>
    <g clip-path="url(#p1152e3a628)">
     <use xlink:href="#C0_0_9e29e82ef1" x="96.059088" y="9.209924" style="fill: #ff8c00; fill-opacity: 0.8"/>
    </g>
    <g clip-path="url(#p1152e3a628)">
     <use xlink:href="#C0_0_9e29e82ef1" x="71.680092" y="59.635" style="fill: #ff8c00; fill-opacity: 0.8"/>
    </g>
    <g clip-path="url(#p1152e3a628)">
     <use xlink:href="#C0_0_9e29e82ef1" x="31.048432" y="59.726197" style="fill: #ff8c00; fill-opacity: 0.8"/>
    </g>
    <g clip-path="url(#p1152e3a628)">
     <use xlink:href="#C0_0_9e29e82ef1" x="112.311752" y="16.107779" style="fill: #ff8c00; fill-opacity: 0.8"/>
    </g>
    <g clip-path="url(#p1152e3a628)">
     <use xlink:href="#C0_0_9e29e82ef1" x="112.311752" y="64.607362" style="fill: #ff8c00; fill-opacity: 0.8"/>
    </g>
    <g clip-path="url(#p1152e3a628)">
     <use xlink:href="#C0_0_9e29e82ef1" x="87.932756" y="56.481503" style="fill: #ff8c00; fill-opacity: 0.8"/>
    </g>
    <g clip-path="url(#p1152e3a628)">
     <use xlink:href="#C0_0_9e29e82ef1" x="96.059088" y="35.530525" style="fill: #ff8c00; fill-opacity: 0.8"/>
    </g>
    <g clip-path="url(#p1152e3a628)">
     <use xlink:href="#C0_0_9e29e82ef1" x="31.048432" y="59.477341" style="fill: #ff8c00; fill-opacity: 0.8"/>
    </g>
    <g clip-path="url(#p1152e3a628)">
     <use xlink:href="#C0_0_9e29e82ef1" x="128.564416" y="37.559446" style="fill: #ff8c00; fill-opacity: 0.8"/>
    </g>
    <g clip-path="url(#p1152e3a628)">
     <use xlink:href="#C0_0_9e29e82ef1" x="112.311752" y="32.653262" style="fill: #ff8c00; fill-opacity: 0.8"/>
    </g>
    <g clip-path="url(#p1152e3a628)">
     <use xlink:href="#C0_0_9e29e82ef1" x="128.564416" y="59.6106" style="fill: #ff8c00; fill-opacity: 0.8"/>
    </g>
    <g clip-path="url(#p1152e3a628)">
     <use xlink:href="#C0_0_9e29e82ef1" x="112.311752" y="62.799289" style="fill: #ff8c00; fill-opacity: 0.8"/>
    </g>
    <g clip-path="url(#p1152e3a628)">
     <use xlink:href="#C0_0_9e29e82ef1" x="128.564416" y="39.916505" style="fill: #ff8c00; fill-opacity: 0.8"/>
    </g>
    <g clip-path="url(#p1152e3a628)">
     <use xlink:href="#C0_0_9e29e82ef1" x="112.311752" y="49.978226" style="fill: #ff8c00; fill-opacity: 0.8"/>
    </g>
    <g clip-path="url(#p1152e3a628)">
     <use xlink:href="#C0_0_9e29e82ef1" x="112.311752" y="47.328652" style="fill: #ff8c00; fill-opacity: 0.8"/>
    </g>
    <g clip-path="url(#p1152e3a628)">
     <use xlink:href="#C0_0_9e29e82ef1" x="112.311752" y="23.278821" style="fill: #ff8c00; fill-opacity: 0.8"/>
    </g>
    <g clip-path="url(#p1152e3a628)">
     <use xlink:href="#C0_0_9e29e82ef1" x="112.311752" y="29.626503" style="fill: #ff8c00; fill-opacity: 0.8"/>
    </g>
    <g clip-path="url(#p1152e3a628)">
     <use xlink:href="#C0_0_9e29e82ef1" x="112.311752" y="61.925881" style="fill: #ff8c00; fill-opacity: 0.8"/>
    </g>
    <g clip-path="url(#p1152e3a628)">
     <use xlink:href="#C0_0_9e29e82ef1" x="87.932756" y="27.833476" style="fill: #ff8c00; fill-opacity: 0.8"/>
    </g>
    <g clip-path="url(#p1152e3a628)">
     <use xlink:href="#C0_0_9e29e82ef1" x="96.059088" y="40.842678" style="fill: #ff8c00; fill-opacity: 0.8"/>
    </g>
    <g clip-path="url(#p1152e3a628)">
     <use xlink:href="#C0_0_9e29e82ef1" x="87.932756" y="39.502088" style="fill: #ff8c00; fill-opacity: 0.8"/>
    </g>
    <g clip-path="url(#p1152e3a628)">
     <use xlink:href="#C0_0_9e29e82ef1" x="104.18542" y="38.280228" style="fill: #ff8c00; fill-opacity: 0.8"/>
    </g>
    <g clip-path="url(#p1152e3a628)">
     <use xlink:href="#C0_0_9e29e82ef1" x="104.18542" y="32.211037" style="fill: #ff8c00; fill-opacity: 0.8"/>
    </g>
    <g clip-path="url(#p1152e3a628)">
     <use xlink:href="#C0_0_9e29e82ef1" x="104.18542" y="38.094291" style="fill: #ff8c00; fill-opacity: 0.8"/>
    </g>
    <g clip-path="url(#p1152e3a628)">
     <use xlink:href="#C0_0_9e29e82ef1" x="128.564416" y="57.9063" style="fill: #ff8c00; fill-opacity: 0.8"/>
    </g>
    <g clip-path="url(#p1152e3a628)">
     <use xlink:href="#C0_0_9e29e82ef1" x="136.690748" y="51.514399" style="fill: #ff8c00; fill-opacity: 0.8"/>
    </g>
    <g clip-path="url(#p1152e3a628)">
     <use xlink:href="#C0_0_9e29e82ef1" x="96.059088" y="13.753898" style="fill: #ff8c00; fill-opacity: 0.8"/>
    </g>
    <g clip-path="url(#p1152e3a628)">
     <use xlink:href="#C0_0_9e29e82ef1" x="79.806424" y="62.362855" style="fill: #ff8c00; fill-opacity: 0.8"/>
    </g>
    <g clip-path="url(#p1152e3a628)">
     <use xlink:href="#C0_0_9e29e82ef1" x="87.932756" y="23.447587" style="fill: #ff8c00; fill-opacity: 0.8"/>
    </g>
    <g clip-path="url(#p1152e3a628)">
     <use xlink:href="#C0_0_9e29e82ef1" x="136.690748" y="18.233763" style="fill: #ff8c00; fill-opacity: 0.8"/>
    </g>
    <g clip-path="url(#p1152e3a628)">
     <use xlink:href="#C0_0_9e29e82ef1" x="96.059088" y="67.906745" style="fill: #ff8c00; fill-opacity: 0.8"/>
    </g>
    <g clip-path="url(#p1152e3a628)">
     <use xlink:href="#C0_0_9e29e82ef1" x="104.18542" y="47.900575" style="fill: #ff8c00; fill-opacity: 0.8"/>
    </g>
    <g clip-path="url(#p1152e3a628)">
     <use xlink:href="#C0_0_9e29e82ef1" x="79.806424" y="62.260619" style="fill: #ff8c00; fill-opacity: 0.8"/>
    </g>
    <g clip-path="url(#p1152e3a628)">
     <use xlink:href="#C0_0_9e29e82ef1" x="96.059088" y="34.948905" style="fill: #ff8c00; fill-opacity: 0.8"/>
    </g>
    <g clip-path="url(#p1152e3a628)">
     <use xlink:href="#C0_0_9e29e82ef1" x="96.059088" y="13.473224" style="fill: #ff8c00; fill-opacity: 0.8"/>
    </g>
    <g clip-path="url(#p1152e3a628)">
     <use xlink:href="#C0_0_9e29e82ef1" x="87.932756" y="57.270711" style="fill: #ff8c00; fill-opacity: 0.8"/>
    </g>
    <g clip-path="url(#p1152e3a628)">
     <use xlink:href="#C0_0_9e29e82ef1" x="104.18542" y="19.578375" style="fill: #ff8c00; fill-opacity: 0.8"/>
    </g>
    <g clip-path="url(#p1152e3a628)">
     <use xlink:href="#C0_0_9e29e82ef1" x="112.311752" y="28.141906" style="fill: #ff8c00; fill-opacity: 0.8"/>
    </g>
    <g clip-path="url(#p1152e3a628)">
     <use xlink:href="#C0_0_9e29e82ef1" x="96.059088" y="19.559023" style="fill: #ff8c00; fill-opacity: 0.8"/>
    </g>
    <g clip-path="url(#p1152e3a628)">
     <use xlink:href="#C0_0_9e29e82ef1" x="120.438084" y="62.884716" style="fill: #ff8c00; fill-opacity: 0.8"/>
    </g>
    <g clip-path="url(#p1152e3a628)">
     <use xlink:href="#C0_0_9e29e82ef1" x="87.932756" y="12.707464" style="fill: #ff8c00; fill-opacity: 0.8"/>
    </g>
    <g clip-path="url(#p1152e3a628)">
     <use xlink:href="#C0_0_9e29e82ef1" x="120.438084" y="16.294413" style="fill: #ff8c00; fill-opacity: 0.8"/>
    </g>
    <g clip-path="url(#p1152e3a628)">
     <use xlink:href="#C0_0_9e29e82ef1" x="120.438084" y="46.782221" style="fill: #ff8c00; fill-opacity: 0.8"/>
    </g>
    <g clip-path="url(#p1152e3a628)">
     <use xlink:href="#C0_0_9e29e82ef1" x="79.806424" y="81.962569" style="fill: #ff8c00; fill-opacity: 0.8"/>
    </g>
    <g clip-path="url(#p1152e3a628)">
     <use xlink:href="#C0_0_9e29e82ef1" x="120.438084" y="49.136192" style="fill: #ff8c00; fill-opacity: 0.8"/>
    </g>
    <g clip-path="url(#p1152e3a628)">
     <use xlink:href="#C0_0_9e29e82ef1" x="112.311752" y="55.034372" style="fill: #ff8c00; fill-opacity: 0.8"/>
    </g>
    <g clip-path="url(#p1152e3a628)">
     <use xlink:href="#C0_0_9e29e82ef1" x="104.18542" y="58.518162" style="fill: #ff8c00; fill-opacity: 0.8"/>
    </g>
    <g clip-path="url(#p1152e3a628)">
     <use xlink:href="#C0_0_9e29e82ef1" x="96.059088" y="85.408403" style="fill: #ff8c00; fill-opacity: 0.8"/>
    </g>
   </g>
   <g id="PolyCollection_1">
    <path d="M 31.048432 47.668104 
L 31.048432 68.925522 
L 32.197611 68.557635 
L 33.346789 68.207877 
L 34.495967 67.848902 
L 35.645145 67.492827 
L 36.794324 67.119245 
L 37.943502 66.767568 
L 39.09268 66.416457 
L 40.241858 66.064803 
L 41.391037 65.699508 
L 42.540215 65.346656 
L 43.689393 64.972689 
L 44.838571 64.596552 
L 45.98775 64.22087 
L 47.136928 63.874636 
L 48.286106 63.514825 
L 49.435284 63.141217 
L 50.584463 62.77036 
L 51.733641 62.40485 
L 52.882819 62.029897 
L 54.031997 61.640017 
L 55.181176 61.261898 
L 56.330354 60.922254 
L 57.479532 60.591341 
L 58.62871 60.260869 
L 59.777889 59.929259 
L 60.927067 59.595621 
L 62.076245 59.269431 
L 63.225423 58.935638 
L 64.374602 58.594559 
L 65.52378 58.264857 
L 66.672958 57.921356 
L 67.822136 57.567655 
L 68.971315 57.202961 
L 70.120493 56.853535 
L 71.269671 56.519866 
L 72.418849 56.227324 
L 73.568028 55.894153 
L 74.717206 55.575563 
L 75.866384 55.264236 
L 77.015562 54.940686 
L 78.164741 54.609185 
L 79.313919 54.280353 
L 80.463097 53.978867 
L 81.612276 53.688637 
L 82.761454 53.400682 
L 83.910632 53.108741 
L 85.05981 52.851278 
L 86.208989 52.545373 
L 87.358167 52.285389 
L 88.507345 52.01273 
L 89.656523 51.763485 
L 90.805702 51.508566 
L 91.95488 51.253329 
L 93.104058 51.000908 
L 94.253236 50.753531 
L 95.402415 50.519599 
L 96.551593 50.285324 
L 97.700771 50.086935 
L 98.849949 49.888334 
L 99.999128 49.698515 
L 101.148306 49.515289 
L 102.297484 49.316012 
L 103.446662 49.136011 
L 104.595841 48.972216 
L 105.745019 48.791457 
L 106.894197 48.609066 
L 108.043375 48.448795 
L 109.192554 48.313092 
L 110.341732 48.167888 
L 111.49091 48.019538 
L 112.640088 47.877694 
L 113.789267 47.785832 
L 114.938445 47.671544 
L 116.087623 47.53686 
L 117.236801 47.417538 
L 118.38598 47.306718 
L 119.535158 47.196646 
L 120.684336 47.094202 
L 121.833514 46.9783 
L 122.982693 46.8813 
L 124.131871 46.782236 
L 125.281049 46.688505 
L 126.430227 46.613391 
L 127.579406 46.546125 
L 128.728584 46.445534 
L 129.877762 46.362846 
L 131.02694 46.276787 
L 132.176119 46.192157 
L 133.325297 46.114352 
L 134.474475 46.061453 
L 135.623653 45.994343 
L 136.772832 45.949391 
L 137.92201 45.884151 
L 139.071188 45.82247 
L 140.220366 45.768212 
L 141.369545 45.708642 
L 142.518723 45.647629 
L 143.667901 45.605184 
L 144.817079 45.568812 
L 144.817079 30.625098 
L 144.817079 30.625098 
L 143.667901 30.994887 
L 142.518723 31.355066 
L 141.369545 31.734017 
L 140.220366 32.09764 
L 139.071188 32.430685 
L 137.92201 32.744722 
L 136.772832 33.097191 
L 135.623653 33.431475 
L 134.474475 33.783456 
L 133.325297 34.14555 
L 132.176119 34.456302 
L 131.02694 34.807759 
L 129.877762 35.158016 
L 128.728584 35.492207 
L 127.579406 35.823669 
L 126.430227 36.150307 
L 125.281049 36.517882 
L 124.131871 36.83478 
L 122.982693 37.151588 
L 121.833514 37.467621 
L 120.684336 37.769731 
L 119.535158 38.076748 
L 118.38598 38.398565 
L 117.236801 38.72632 
L 116.087623 39.058685 
L 114.938445 39.356994 
L 113.789267 39.637009 
L 112.640088 39.920552 
L 111.49091 40.193627 
L 110.341732 40.478159 
L 109.192554 40.753343 
L 108.043375 41.016428 
L 106.894197 41.279038 
L 105.745019 41.541858 
L 104.595841 41.77549 
L 103.446662 42.050369 
L 102.297484 42.283152 
L 101.148306 42.498316 
L 99.999128 42.691811 
L 98.849949 42.906341 
L 97.700771 43.10156 
L 96.551593 43.295287 
L 95.402415 43.466143 
L 94.253236 43.65633 
L 93.104058 43.821421 
L 91.95488 43.959913 
L 90.805702 44.100733 
L 89.656523 44.266004 
L 88.507345 44.406511 
L 87.358167 44.536924 
L 86.208989 44.666186 
L 85.05981 44.790391 
L 83.910632 44.907655 
L 82.761454 45.010442 
L 81.612276 45.098757 
L 80.463097 45.19442 
L 79.313919 45.299794 
L 78.164741 45.386861 
L 77.015562 45.461795 
L 75.866384 45.536565 
L 74.717206 45.625648 
L 73.568028 45.691228 
L 72.418849 45.757865 
L 71.269671 45.827666 
L 70.120493 45.910424 
L 68.971315 45.991157 
L 67.822136 46.065 
L 66.672958 46.134737 
L 65.52378 46.190155 
L 64.374602 46.239693 
L 63.225423 46.302844 
L 62.076245 46.381159 
L 60.927067 46.434757 
L 59.777889 46.53228 
L 58.62871 46.610558 
L 57.479532 46.641428 
L 56.330354 46.683695 
L 55.181176 46.721374 
L 54.031997 46.796042 
L 52.882819 46.858755 
L 51.733641 46.91607 
L 50.584463 46.957628 
L 49.435284 47.000956 
L 48.286106 47.057902 
L 47.136928 47.098667 
L 45.98775 47.150549 
L 44.838571 47.20228 
L 43.689393 47.233927 
L 42.540215 47.274521 
L 41.391037 47.302173 
L 40.241858 47.328435 
L 39.09268 47.36321 
L 37.943502 47.413845 
L 36.794324 47.451609 
L 35.645145 47.492742 
L 34.495967 47.545278 
L 33.346789 47.586099 
L 32.197611 47.628258 
L 31.048432 47.668104 
z
" clip-path="url(#p1152e3a628)" style="fill: #ff8c00; fill-opacity: 0.15"/>
   </g>
   <g id="matplotlib.axis_1">
    <g id="xtick_1">
     <g id="line2d_1">
      <defs>
       <path id="m17751f6dcc" d="M 0 0 
L 0 3.5 
" style="stroke: #000000; stroke-width: 0.25"/>
      </defs>
      <g>
       <use xlink:href="#m17751f6dcc" x="39.174764" y="89.218327" style="stroke: #000000; stroke-width: 0.25"/>
      </g>
     </g>
     <g id="text_1">
      <!-- 60 -->
      <g transform="translate(36.394296 97.297233) scale(0.05 -0.05)">
       <defs>
        <path id="ArialMT-36" d="M 3184 3459 
L 2625 3416 
Q 2550 3747 2413 3897 
Q 2184 4138 1850 4138 
Q 1581 4138 1378 3988 
Q 1113 3794 959 3422 
Q 806 3050 800 2363 
Q 1003 2672 1297 2822 
Q 1591 2972 1913 2972 
Q 2475 2972 2870 2558 
Q 3266 2144 3266 1488 
Q 3266 1056 3080 686 
Q 2894 316 2569 119 
Q 2244 -78 1831 -78 
Q 1128 -78 684 439 
Q 241 956 241 2144 
Q 241 3472 731 4075 
Q 1159 4600 1884 4600 
Q 2425 4600 2770 4297 
Q 3116 3994 3184 3459 
z
M 888 1484 
Q 888 1194 1011 928 
Q 1134 663 1356 523 
Q 1578 384 1822 384 
Q 2178 384 2434 671 
Q 2691 959 2691 1453 
Q 2691 1928 2437 2201 
Q 2184 2475 1800 2475 
Q 1419 2475 1153 2201 
Q 888 1928 888 1484 
z
" transform="scale(0.015625)"/>
        <path id="ArialMT-30" d="M 266 2259 
Q 266 3072 433 3567 
Q 600 4063 929 4331 
Q 1259 4600 1759 4600 
Q 2128 4600 2406 4451 
Q 2684 4303 2865 4023 
Q 3047 3744 3150 3342 
Q 3253 2941 3253 2259 
Q 3253 1453 3087 958 
Q 2922 463 2592 192 
Q 2263 -78 1759 -78 
Q 1097 -78 719 397 
Q 266 969 266 2259 
z
M 844 2259 
Q 844 1131 1108 757 
Q 1372 384 1759 384 
Q 2147 384 2411 759 
Q 2675 1134 2675 2259 
Q 2675 3391 2411 3762 
Q 2147 4134 1753 4134 
Q 1366 4134 1134 3806 
Q 844 3388 844 2259 
z
" transform="scale(0.015625)"/>
       </defs>
       <use xlink:href="#ArialMT-36"/>
       <use xlink:href="#ArialMT-30" x="55.615234"/>
      </g>
     </g>
    </g>
    <g id="xtick_2">
     <g id="line2d_2">
      <g>
       <use xlink:href="#m17751f6dcc" x="55.427428" y="89.218327" style="stroke: #000000; stroke-width: 0.25"/>
      </g>
     </g>
     <g id="text_2">
      <!-- 70 -->
      <g transform="translate(52.646959 97.297233) scale(0.05 -0.05)">
       <defs>
        <path id="ArialMT-37" d="M 303 3981 
L 303 4522 
L 3269 4522 
L 3269 4084 
Q 2831 3619 2401 2847 
Q 1972 2075 1738 1259 
Q 1569 684 1522 0 
L 944 0 
Q 953 541 1156 1306 
Q 1359 2072 1739 2783 
Q 2119 3494 2547 3981 
L 303 3981 
z
" transform="scale(0.015625)"/>
       </defs>
       <use xlink:href="#ArialMT-37"/>
       <use xlink:href="#ArialMT-30" x="55.615234"/>
      </g>
     </g>
    </g>
    <g id="xtick_3">
     <g id="line2d_3">
      <g>
       <use xlink:href="#m17751f6dcc" x="71.680092" y="89.218327" style="stroke: #000000; stroke-width: 0.25"/>
      </g>
     </g>
     <g id="text_3">
      <!-- 80 -->
      <g transform="translate(68.899623 97.297233) scale(0.05 -0.05)">
       <defs>
        <path id="ArialMT-38" d="M 1131 2484 
Q 781 2613 612 2850 
Q 444 3088 444 3419 
Q 444 3919 803 4259 
Q 1163 4600 1759 4600 
Q 2359 4600 2725 4251 
Q 3091 3903 3091 3403 
Q 3091 3084 2923 2848 
Q 2756 2613 2416 2484 
Q 2838 2347 3058 2040 
Q 3278 1734 3278 1309 
Q 3278 722 2862 322 
Q 2447 -78 1769 -78 
Q 1091 -78 675 323 
Q 259 725 259 1325 
Q 259 1772 486 2073 
Q 713 2375 1131 2484 
z
M 1019 3438 
Q 1019 3113 1228 2906 
Q 1438 2700 1772 2700 
Q 2097 2700 2305 2904 
Q 2513 3109 2513 3406 
Q 2513 3716 2298 3927 
Q 2084 4138 1766 4138 
Q 1444 4138 1231 3931 
Q 1019 3725 1019 3438 
z
M 838 1322 
Q 838 1081 952 856 
Q 1066 631 1291 507 
Q 1516 384 1775 384 
Q 2178 384 2440 643 
Q 2703 903 2703 1303 
Q 2703 1709 2433 1975 
Q 2163 2241 1756 2241 
Q 1359 2241 1098 1978 
Q 838 1716 838 1322 
z
" transform="scale(0.015625)"/>
       </defs>
       <use xlink:href="#ArialMT-38"/>
       <use xlink:href="#ArialMT-30" x="55.615234"/>
      </g>
     </g>
    </g>
    <g id="xtick_4">
     <g id="line2d_4">
      <g>
       <use xlink:href="#m17751f6dcc" x="87.932756" y="89.218327" style="stroke: #000000; stroke-width: 0.25"/>
      </g>
     </g>
     <g id="text_4">
      <!-- 90 -->
      <g transform="translate(85.152287 97.297233) scale(0.05 -0.05)">
       <defs>
        <path id="ArialMT-39" d="M 350 1059 
L 891 1109 
Q 959 728 1153 556 
Q 1347 384 1650 384 
Q 1909 384 2104 503 
Q 2300 622 2425 820 
Q 2550 1019 2634 1356 
Q 2719 1694 2719 2044 
Q 2719 2081 2716 2156 
Q 2547 1888 2255 1720 
Q 1963 1553 1622 1553 
Q 1053 1553 659 1965 
Q 266 2378 266 3053 
Q 266 3750 677 4175 
Q 1088 4600 1706 4600 
Q 2153 4600 2523 4359 
Q 2894 4119 3086 3673 
Q 3278 3228 3278 2384 
Q 3278 1506 3087 986 
Q 2897 466 2520 194 
Q 2144 -78 1638 -78 
Q 1100 -78 759 220 
Q 419 519 350 1059 
z
M 2653 3081 
Q 2653 3566 2395 3850 
Q 2138 4134 1775 4134 
Q 1400 4134 1122 3828 
Q 844 3522 844 3034 
Q 844 2597 1108 2323 
Q 1372 2050 1759 2050 
Q 2150 2050 2401 2323 
Q 2653 2597 2653 3081 
z
" transform="scale(0.015625)"/>
       </defs>
       <use xlink:href="#ArialMT-39"/>
       <use xlink:href="#ArialMT-30" x="55.615234"/>
      </g>
     </g>
    </g>
    <g id="xtick_5">
     <g id="line2d_5">
      <g>
       <use xlink:href="#m17751f6dcc" x="104.18542" y="89.218327" style="stroke: #000000; stroke-width: 0.25"/>
      </g>
     </g>
     <g id="text_5">
      <!-- 100 -->
      <g transform="translate(100.014717 97.297233) scale(0.05 -0.05)">
       <defs>
        <path id="ArialMT-31" d="M 2384 0 
L 1822 0 
L 1822 3584 
Q 1619 3391 1289 3197 
Q 959 3003 697 2906 
L 697 3450 
Q 1169 3672 1522 3987 
Q 1875 4303 2022 4600 
L 2384 4600 
L 2384 0 
z
" transform="scale(0.015625)"/>
       </defs>
       <use xlink:href="#ArialMT-31"/>
       <use xlink:href="#ArialMT-30" x="55.615234"/>
       <use xlink:href="#ArialMT-30" x="111.230469"/>
      </g>
     </g>
    </g>
    <g id="xtick_6">
     <g id="line2d_6">
      <g>
       <use xlink:href="#m17751f6dcc" x="120.438084" y="89.218327" style="stroke: #000000; stroke-width: 0.25"/>
      </g>
     </g>
     <g id="text_6">
      <!-- 110 -->
      <g transform="translate(116.451756 97.297233) scale(0.05 -0.05)">
       <use xlink:href="#ArialMT-31"/>
       <use xlink:href="#ArialMT-31" x="48.240234"/>
       <use xlink:href="#ArialMT-30" x="103.855469"/>
      </g>
     </g>
    </g>
    <g id="xtick_7">
     <g id="line2d_7">
      <g>
       <use xlink:href="#m17751f6dcc" x="136.690748" y="89.218327" style="stroke: #000000; stroke-width: 0.25"/>
      </g>
     </g>
     <g id="text_7">
      <!-- 120 -->
      <g transform="translate(132.520044 97.297233) scale(0.05 -0.05)">
       <defs>
        <path id="ArialMT-32" d="M 3222 541 
L 3222 0 
L 194 0 
Q 188 203 259 391 
Q 375 700 629 1000 
Q 884 1300 1366 1694 
Q 2113 2306 2375 2664 
Q 2638 3022 2638 3341 
Q 2638 3675 2398 3904 
Q 2159 4134 1775 4134 
Q 1369 4134 1125 3890 
Q 881 3647 878 3216 
L 300 3275 
Q 359 3922 746 4261 
Q 1134 4600 1788 4600 
Q 2447 4600 2831 4234 
Q 3216 3869 3216 3328 
Q 3216 3053 3103 2787 
Q 2991 2522 2730 2228 
Q 2469 1934 1863 1422 
Q 1356 997 1212 845 
Q 1069 694 975 541 
L 3222 541 
z
" transform="scale(0.015625)"/>
       </defs>
       <use xlink:href="#ArialMT-31"/>
       <use xlink:href="#ArialMT-32" x="55.615234"/>
       <use xlink:href="#ArialMT-30" x="111.230469"/>
      </g>
     </g>
    </g>
    <g id="text_8">
     <!-- Bayley-III cognitive composite score [a.u.] -->
     <g transform="translate(32.578068 106.585671) scale(0.06 -0.06)">
      <defs>
       <path id="ArialMT-42" d="M 469 0 
L 469 4581 
L 2188 4581 
Q 2713 4581 3030 4442 
Q 3347 4303 3526 4014 
Q 3706 3725 3706 3409 
Q 3706 3116 3547 2856 
Q 3388 2597 3066 2438 
Q 3481 2316 3704 2022 
Q 3928 1728 3928 1328 
Q 3928 1006 3792 729 
Q 3656 453 3456 303 
Q 3256 153 2954 76 
Q 2653 0 2216 0 
L 469 0 
z
M 1075 2656 
L 2066 2656 
Q 2469 2656 2644 2709 
Q 2875 2778 2992 2937 
Q 3109 3097 3109 3338 
Q 3109 3566 3000 3739 
Q 2891 3913 2687 3977 
Q 2484 4041 1991 4041 
L 1075 4041 
L 1075 2656 
z
M 1075 541 
L 2216 541 
Q 2509 541 2628 563 
Q 2838 600 2978 687 
Q 3119 775 3209 942 
Q 3300 1109 3300 1328 
Q 3300 1584 3169 1773 
Q 3038 1963 2805 2039 
Q 2572 2116 2134 2116 
L 1075 2116 
L 1075 541 
z
" transform="scale(0.015625)"/>
       <path id="ArialMT-61" d="M 2588 409 
Q 2275 144 1986 34 
Q 1697 -75 1366 -75 
Q 819 -75 525 192 
Q 231 459 231 875 
Q 231 1119 342 1320 
Q 453 1522 633 1644 
Q 813 1766 1038 1828 
Q 1203 1872 1538 1913 
Q 2219 1994 2541 2106 
Q 2544 2222 2544 2253 
Q 2544 2597 2384 2738 
Q 2169 2928 1744 2928 
Q 1347 2928 1158 2789 
Q 969 2650 878 2297 
L 328 2372 
Q 403 2725 575 2942 
Q 747 3159 1072 3276 
Q 1397 3394 1825 3394 
Q 2250 3394 2515 3294 
Q 2781 3194 2906 3042 
Q 3031 2891 3081 2659 
Q 3109 2516 3109 2141 
L 3109 1391 
Q 3109 606 3145 398 
Q 3181 191 3288 0 
L 2700 0 
Q 2613 175 2588 409 
z
M 2541 1666 
Q 2234 1541 1622 1453 
Q 1275 1403 1131 1340 
Q 988 1278 909 1158 
Q 831 1038 831 891 
Q 831 666 1001 516 
Q 1172 366 1500 366 
Q 1825 366 2078 508 
Q 2331 650 2450 897 
Q 2541 1088 2541 1459 
L 2541 1666 
z
" transform="scale(0.015625)"/>
       <path id="ArialMT-79" d="M 397 -1278 
L 334 -750 
Q 519 -800 656 -800 
Q 844 -800 956 -737 
Q 1069 -675 1141 -563 
Q 1194 -478 1313 -144 
Q 1328 -97 1363 -6 
L 103 3319 
L 709 3319 
L 1400 1397 
Q 1534 1031 1641 628 
Q 1738 1016 1872 1384 
L 2581 3319 
L 3144 3319 
L 1881 -56 
Q 1678 -603 1566 -809 
Q 1416 -1088 1222 -1217 
Q 1028 -1347 759 -1347 
Q 597 -1347 397 -1278 
z
" transform="scale(0.015625)"/>
       <path id="ArialMT-6c" d="M 409 0 
L 409 4581 
L 972 4581 
L 972 0 
L 409 0 
z
" transform="scale(0.015625)"/>
       <path id="ArialMT-65" d="M 2694 1069 
L 3275 997 
Q 3138 488 2766 206 
Q 2394 -75 1816 -75 
Q 1088 -75 661 373 
Q 234 822 234 1631 
Q 234 2469 665 2931 
Q 1097 3394 1784 3394 
Q 2450 3394 2872 2941 
Q 3294 2488 3294 1666 
Q 3294 1616 3291 1516 
L 816 1516 
Q 847 969 1125 678 
Q 1403 388 1819 388 
Q 2128 388 2347 550 
Q 2566 713 2694 1069 
z
M 847 1978 
L 2700 1978 
Q 2663 2397 2488 2606 
Q 2219 2931 1791 2931 
Q 1403 2931 1139 2672 
Q 875 2413 847 1978 
z
" transform="scale(0.015625)"/>
       <path id="ArialMT-2d" d="M 203 1375 
L 203 1941 
L 1931 1941 
L 1931 1375 
L 203 1375 
z
" transform="scale(0.015625)"/>
       <path id="ArialMT-49" d="M 597 0 
L 597 4581 
L 1203 4581 
L 1203 0 
L 597 0 
z
" transform="scale(0.015625)"/>
       <path id="ArialMT-20" transform="scale(0.015625)"/>
       <path id="ArialMT-63" d="M 2588 1216 
L 3141 1144 
Q 3050 572 2676 248 
Q 2303 -75 1759 -75 
Q 1078 -75 664 370 
Q 250 816 250 1647 
Q 250 2184 428 2587 
Q 606 2991 970 3192 
Q 1334 3394 1763 3394 
Q 2303 3394 2647 3120 
Q 2991 2847 3088 2344 
L 2541 2259 
Q 2463 2594 2264 2762 
Q 2066 2931 1784 2931 
Q 1359 2931 1093 2626 
Q 828 2322 828 1663 
Q 828 994 1084 691 
Q 1341 388 1753 388 
Q 2084 388 2306 591 
Q 2528 794 2588 1216 
z
" transform="scale(0.015625)"/>
       <path id="ArialMT-6f" d="M 213 1659 
Q 213 2581 725 3025 
Q 1153 3394 1769 3394 
Q 2453 3394 2887 2945 
Q 3322 2497 3322 1706 
Q 3322 1066 3130 698 
Q 2938 331 2570 128 
Q 2203 -75 1769 -75 
Q 1072 -75 642 372 
Q 213 819 213 1659 
z
M 791 1659 
Q 791 1022 1069 705 
Q 1347 388 1769 388 
Q 2188 388 2466 706 
Q 2744 1025 2744 1678 
Q 2744 2294 2464 2611 
Q 2184 2928 1769 2928 
Q 1347 2928 1069 2612 
Q 791 2297 791 1659 
z
" transform="scale(0.015625)"/>
       <path id="ArialMT-67" d="M 319 -275 
L 866 -356 
Q 900 -609 1056 -725 
Q 1266 -881 1628 -881 
Q 2019 -881 2231 -725 
Q 2444 -569 2519 -288 
Q 2563 -116 2559 434 
Q 2191 0 1641 0 
Q 956 0 581 494 
Q 206 988 206 1678 
Q 206 2153 378 2554 
Q 550 2956 876 3175 
Q 1203 3394 1644 3394 
Q 2231 3394 2613 2919 
L 2613 3319 
L 3131 3319 
L 3131 450 
Q 3131 -325 2973 -648 
Q 2816 -972 2473 -1159 
Q 2131 -1347 1631 -1347 
Q 1038 -1347 672 -1080 
Q 306 -813 319 -275 
z
M 784 1719 
Q 784 1066 1043 766 
Q 1303 466 1694 466 
Q 2081 466 2343 764 
Q 2606 1063 2606 1700 
Q 2606 2309 2336 2618 
Q 2066 2928 1684 2928 
Q 1309 2928 1046 2623 
Q 784 2319 784 1719 
z
" transform="scale(0.015625)"/>
       <path id="ArialMT-6e" d="M 422 0 
L 422 3319 
L 928 3319 
L 928 2847 
Q 1294 3394 1984 3394 
Q 2284 3394 2536 3286 
Q 2788 3178 2913 3003 
Q 3038 2828 3088 2588 
Q 3119 2431 3119 2041 
L 3119 0 
L 2556 0 
L 2556 2019 
Q 2556 2363 2490 2533 
Q 2425 2703 2258 2804 
Q 2091 2906 1866 2906 
Q 1506 2906 1245 2678 
Q 984 2450 984 1813 
L 984 0 
L 422 0 
z
" transform="scale(0.015625)"/>
       <path id="ArialMT-69" d="M 425 3934 
L 425 4581 
L 988 4581 
L 988 3934 
L 425 3934 
z
M 425 0 
L 425 3319 
L 988 3319 
L 988 0 
L 425 0 
z
" transform="scale(0.015625)"/>
       <path id="ArialMT-74" d="M 1650 503 
L 1731 6 
Q 1494 -44 1306 -44 
Q 1000 -44 831 53 
Q 663 150 594 308 
Q 525 466 525 972 
L 525 2881 
L 113 2881 
L 113 3319 
L 525 3319 
L 525 4141 
L 1084 4478 
L 1084 3319 
L 1650 3319 
L 1650 2881 
L 1084 2881 
L 1084 941 
Q 1084 700 1114 631 
Q 1144 563 1211 522 
Q 1278 481 1403 481 
Q 1497 481 1650 503 
z
" transform="scale(0.015625)"/>
       <path id="ArialMT-76" d="M 1344 0 
L 81 3319 
L 675 3319 
L 1388 1331 
Q 1503 1009 1600 663 
Q 1675 925 1809 1294 
L 2547 3319 
L 3125 3319 
L 1869 0 
L 1344 0 
z
" transform="scale(0.015625)"/>
       <path id="ArialMT-6d" d="M 422 0 
L 422 3319 
L 925 3319 
L 925 2853 
Q 1081 3097 1340 3245 
Q 1600 3394 1931 3394 
Q 2300 3394 2536 3241 
Q 2772 3088 2869 2813 
Q 3263 3394 3894 3394 
Q 4388 3394 4653 3120 
Q 4919 2847 4919 2278 
L 4919 0 
L 4359 0 
L 4359 2091 
Q 4359 2428 4304 2576 
Q 4250 2725 4106 2815 
Q 3963 2906 3769 2906 
Q 3419 2906 3187 2673 
Q 2956 2441 2956 1928 
L 2956 0 
L 2394 0 
L 2394 2156 
Q 2394 2531 2256 2718 
Q 2119 2906 1806 2906 
Q 1569 2906 1367 2781 
Q 1166 2656 1075 2415 
Q 984 2175 984 1722 
L 984 0 
L 422 0 
z
" transform="scale(0.015625)"/>
       <path id="ArialMT-70" d="M 422 -1272 
L 422 3319 
L 934 3319 
L 934 2888 
Q 1116 3141 1344 3267 
Q 1572 3394 1897 3394 
Q 2322 3394 2647 3175 
Q 2972 2956 3137 2557 
Q 3303 2159 3303 1684 
Q 3303 1175 3120 767 
Q 2938 359 2589 142 
Q 2241 -75 1856 -75 
Q 1575 -75 1351 44 
Q 1128 163 984 344 
L 984 -1272 
L 422 -1272 
z
M 931 1641 
Q 931 1000 1190 694 
Q 1450 388 1819 388 
Q 2194 388 2461 705 
Q 2728 1022 2728 1688 
Q 2728 2322 2467 2637 
Q 2206 2953 1844 2953 
Q 1484 2953 1207 2617 
Q 931 2281 931 1641 
z
" transform="scale(0.015625)"/>
       <path id="ArialMT-73" d="M 197 991 
L 753 1078 
Q 800 744 1014 566 
Q 1228 388 1613 388 
Q 2000 388 2187 545 
Q 2375 703 2375 916 
Q 2375 1106 2209 1216 
Q 2094 1291 1634 1406 
Q 1016 1563 777 1677 
Q 538 1791 414 1992 
Q 291 2194 291 2438 
Q 291 2659 392 2848 
Q 494 3038 669 3163 
Q 800 3259 1026 3326 
Q 1253 3394 1513 3394 
Q 1903 3394 2198 3281 
Q 2494 3169 2634 2976 
Q 2775 2784 2828 2463 
L 2278 2388 
Q 2241 2644 2061 2787 
Q 1881 2931 1553 2931 
Q 1166 2931 1000 2803 
Q 834 2675 834 2503 
Q 834 2394 903 2306 
Q 972 2216 1119 2156 
Q 1203 2125 1616 2013 
Q 2213 1853 2448 1751 
Q 2684 1650 2818 1456 
Q 2953 1263 2953 975 
Q 2953 694 2789 445 
Q 2625 197 2315 61 
Q 2006 -75 1616 -75 
Q 969 -75 630 194 
Q 291 463 197 991 
z
" transform="scale(0.015625)"/>
       <path id="ArialMT-72" d="M 416 0 
L 416 3319 
L 922 3319 
L 922 2816 
Q 1116 3169 1280 3281 
Q 1444 3394 1641 3394 
Q 1925 3394 2219 3213 
L 2025 2691 
Q 1819 2813 1613 2813 
Q 1428 2813 1281 2702 
Q 1134 2591 1072 2394 
Q 978 2094 978 1738 
L 978 0 
L 416 0 
z
" transform="scale(0.015625)"/>
       <path id="ArialMT-5b" d="M 434 -1272 
L 434 4581 
L 1675 4581 
L 1675 4116 
L 997 4116 
L 997 -806 
L 1675 -806 
L 1675 -1272 
L 434 -1272 
z
" transform="scale(0.015625)"/>
       <path id="ArialMT-2e" d="M 581 0 
L 581 641 
L 1222 641 
L 1222 0 
L 581 0 
z
" transform="scale(0.015625)"/>
       <path id="ArialMT-75" d="M 2597 0 
L 2597 488 
Q 2209 -75 1544 -75 
Q 1250 -75 995 37 
Q 741 150 617 320 
Q 494 491 444 738 
Q 409 903 409 1263 
L 409 3319 
L 972 3319 
L 972 1478 
Q 972 1038 1006 884 
Q 1059 663 1231 536 
Q 1403 409 1656 409 
Q 1909 409 2131 539 
Q 2353 669 2445 892 
Q 2538 1116 2538 1541 
L 2538 3319 
L 3100 3319 
L 3100 0 
L 2597 0 
z
" transform="scale(0.015625)"/>
       <path id="ArialMT-5d" d="M 1363 -1272 
L 122 -1272 
L 122 -806 
L 800 -806 
L 800 4116 
L 122 4116 
L 122 4581 
L 1363 4581 
L 1363 -1272 
z
" transform="scale(0.015625)"/>
      </defs>
      <use xlink:href="#ArialMT-42"/>
      <use xlink:href="#ArialMT-61" x="66.699219"/>
      <use xlink:href="#ArialMT-79" x="122.314453"/>
      <use xlink:href="#ArialMT-6c" x="172.314453"/>
      <use xlink:href="#ArialMT-65" x="194.53125"/>
      <use xlink:href="#ArialMT-79" x="250.146484"/>
      <use xlink:href="#ArialMT-2d" x="300.146484"/>
      <use xlink:href="#ArialMT-49" x="333.447266"/>
      <use xlink:href="#ArialMT-49" x="361.230469"/>
      <use xlink:href="#ArialMT-49" x="389.013672"/>
      <use xlink:href="#ArialMT-20" x="416.796875"/>
      <use xlink:href="#ArialMT-63" x="444.580078"/>
      <use xlink:href="#ArialMT-6f" x="494.580078"/>
      <use xlink:href="#ArialMT-67" x="550.195312"/>
      <use xlink:href="#ArialMT-6e" x="605.810547"/>
      <use xlink:href="#ArialMT-69" x="661.425781"/>
      <use xlink:href="#ArialMT-74" x="683.642578"/>
      <use xlink:href="#ArialMT-69" x="711.425781"/>
      <use xlink:href="#ArialMT-76" x="733.642578"/>
      <use xlink:href="#ArialMT-65" x="783.642578"/>
      <use xlink:href="#ArialMT-20" x="839.257812"/>
      <use xlink:href="#ArialMT-63" x="867.041016"/>
      <use xlink:href="#ArialMT-6f" x="917.041016"/>
      <use xlink:href="#ArialMT-6d" x="972.65625"/>
      <use xlink:href="#ArialMT-70" x="1055.957031"/>
      <use xlink:href="#ArialMT-6f" x="1111.572266"/>
      <use xlink:href="#ArialMT-73" x="1167.1875"/>
      <use xlink:href="#ArialMT-69" x="1217.1875"/>
      <use xlink:href="#ArialMT-74" x="1239.404297"/>
      <use xlink:href="#ArialMT-65" x="1267.1875"/>
      <use xlink:href="#ArialMT-20" x="1322.802734"/>
      <use xlink:href="#ArialMT-73" x="1350.585938"/>
      <use xlink:href="#ArialMT-63" x="1400.585938"/>
      <use xlink:href="#ArialMT-6f" x="1450.585938"/>
      <use xlink:href="#ArialMT-72" x="1506.201172"/>
      <use xlink:href="#ArialMT-65" x="1539.501953"/>
      <use xlink:href="#ArialMT-20" x="1595.117188"/>
      <use xlink:href="#ArialMT-5b" x="1622.900391"/>
      <use xlink:href="#ArialMT-61" x="1650.683594"/>
      <use xlink:href="#ArialMT-2e" x="1706.298828"/>
      <use xlink:href="#ArialMT-75" x="1734.082031"/>
      <use xlink:href="#ArialMT-2e" x="1789.697266"/>
      <use xlink:href="#ArialMT-5d" x="1817.480469"/>
     </g>
    </g>
   </g>
   <g id="matplotlib.axis_2">
    <g id="ytick_1">
     <g id="line2d_8">
      <defs>
       <path id="m5f8389afb2" d="M 0 0 
L -3.5 0 
" style="stroke: #000000; stroke-width: 0.25"/>
      </defs>
      <g>
       <use xlink:href="#m5f8389afb2" x="25.36" y="74.361979" style="stroke: #000000; stroke-width: 0.25"/>
      </g>
     </g>
     <g id="text_9">
      <!-- −2 -->
      <g transform="translate(15.159219 76.151432) scale(0.05 -0.05)">
       <defs>
        <path id="ArialMT-2212" d="M 3381 1997 
L 356 1997 
L 356 2522 
L 3381 2522 
L 3381 1997 
z
" transform="scale(0.015625)"/>
       </defs>
       <use xlink:href="#ArialMT-2212"/>
       <use xlink:href="#ArialMT-32" x="58.398438"/>
      </g>
     </g>
    </g>
    <g id="ytick_2">
     <g id="line2d_9">
      <g>
       <use xlink:href="#m5f8389afb2" x="25.36" y="57.695774" style="stroke: #000000; stroke-width: 0.25"/>
      </g>
     </g>
     <g id="text_10">
      <!-- −1 -->
      <g transform="translate(15.159219 59.485227) scale(0.05 -0.05)">
       <use xlink:href="#ArialMT-2212"/>
       <use xlink:href="#ArialMT-31" x="58.398438"/>
      </g>
     </g>
    </g>
    <g id="ytick_3">
     <g id="line2d_10">
      <g>
       <use xlink:href="#m5f8389afb2" x="25.36" y="41.029569" style="stroke: #000000; stroke-width: 0.25"/>
      </g>
     </g>
     <g id="text_11">
      <!-- 0 -->
      <g transform="translate(18.079531 42.819022) scale(0.05 -0.05)">
       <use xlink:href="#ArialMT-30"/>
      </g>
     </g>
    </g>
    <g id="ytick_4">
     <g id="line2d_11">
      <g>
       <use xlink:href="#m5f8389afb2" x="25.36" y="24.363364" style="stroke: #000000; stroke-width: 0.25"/>
      </g>
     </g>
     <g id="text_12">
      <!-- 1 -->
      <g transform="translate(18.079531 26.152817) scale(0.05 -0.05)">
       <use xlink:href="#ArialMT-31"/>
      </g>
     </g>
    </g>
    <g id="ytick_5">
     <g id="line2d_12">
      <g>
       <use xlink:href="#m5f8389afb2" x="25.36" y="7.697159" style="stroke: #000000; stroke-width: 0.25"/>
      </g>
     </g>
     <g id="text_13">
      <!-- 2 -->
      <g transform="translate(18.079531 9.486612) scale(0.05 -0.05)">
       <use xlink:href="#ArialMT-32"/>
      </g>
     </g>
    </g>
    <g id="text_14">
     <!-- SA PC1 -->
     <g transform="translate(9.966719 57.815726) rotate(-90) scale(0.06 -0.06)">
      <defs>
       <path id="ArialMT-53" d="M 288 1472 
L 859 1522 
Q 900 1178 1048 958 
Q 1197 738 1509 602 
Q 1822 466 2213 466 
Q 2559 466 2825 569 
Q 3091 672 3220 851 
Q 3350 1031 3350 1244 
Q 3350 1459 3225 1620 
Q 3100 1781 2813 1891 
Q 2628 1963 1997 2114 
Q 1366 2266 1113 2400 
Q 784 2572 623 2826 
Q 463 3081 463 3397 
Q 463 3744 659 4045 
Q 856 4347 1234 4503 
Q 1613 4659 2075 4659 
Q 2584 4659 2973 4495 
Q 3363 4331 3572 4012 
Q 3781 3694 3797 3291 
L 3216 3247 
Q 3169 3681 2898 3903 
Q 2628 4125 2100 4125 
Q 1550 4125 1298 3923 
Q 1047 3722 1047 3438 
Q 1047 3191 1225 3031 
Q 1400 2872 2139 2705 
Q 2878 2538 3153 2413 
Q 3553 2228 3743 1945 
Q 3934 1663 3934 1294 
Q 3934 928 3725 604 
Q 3516 281 3123 101 
Q 2731 -78 2241 -78 
Q 1619 -78 1198 103 
Q 778 284 539 648 
Q 300 1013 288 1472 
z
" transform="scale(0.015625)"/>
       <path id="ArialMT-41" d="M -9 0 
L 1750 4581 
L 2403 4581 
L 4278 0 
L 3588 0 
L 3053 1388 
L 1138 1388 
L 634 0 
L -9 0 
z
M 1313 1881 
L 2866 1881 
L 2388 3150 
Q 2169 3728 2063 4100 
Q 1975 3659 1816 3225 
L 1313 1881 
z
" transform="scale(0.015625)"/>
       <path id="ArialMT-50" d="M 494 0 
L 494 4581 
L 2222 4581 
Q 2678 4581 2919 4538 
Q 3256 4481 3484 4323 
Q 3713 4166 3852 3881 
Q 3991 3597 3991 3256 
Q 3991 2672 3619 2267 
Q 3247 1863 2275 1863 
L 1100 1863 
L 1100 0 
L 494 0 
z
M 1100 2403 
L 2284 2403 
Q 2872 2403 3119 2622 
Q 3366 2841 3366 3238 
Q 3366 3525 3220 3729 
Q 3075 3934 2838 4000 
Q 2684 4041 2272 4041 
L 1100 4041 
L 1100 2403 
z
" transform="scale(0.015625)"/>
       <path id="ArialMT-43" d="M 3763 1606 
L 4369 1453 
Q 4178 706 3683 314 
Q 3188 -78 2472 -78 
Q 1731 -78 1267 223 
Q 803 525 561 1097 
Q 319 1669 319 2325 
Q 319 3041 592 3573 
Q 866 4106 1370 4382 
Q 1875 4659 2481 4659 
Q 3169 4659 3637 4309 
Q 4106 3959 4291 3325 
L 3694 3184 
Q 3534 3684 3231 3912 
Q 2928 4141 2469 4141 
Q 1941 4141 1586 3887 
Q 1231 3634 1087 3207 
Q 944 2781 944 2328 
Q 944 1744 1114 1308 
Q 1284 872 1643 656 
Q 2003 441 2422 441 
Q 2931 441 3284 734 
Q 3638 1028 3763 1606 
z
" transform="scale(0.015625)"/>
      </defs>
      <use xlink:href="#ArialMT-53"/>
      <use xlink:href="#ArialMT-41" x="66.699219"/>
      <use xlink:href="#ArialMT-20" x="127.898438"/>
      <use xlink:href="#ArialMT-50" x="155.681641"/>
      <use xlink:href="#ArialMT-43" x="222.380859"/>
      <use xlink:href="#ArialMT-31" x="294.597656"/>
     </g>
    </g>
   </g>
   <g id="line2d_13">
    <path d="M 31.048432 58.168789 
L 32.197611 57.969888 
L 33.346789 57.770986 
L 34.495967 57.572085 
L 35.645145 57.373184 
L 36.794324 57.174283 
L 37.943502 56.975381 
L 39.09268 56.77648 
L 40.241858 56.577579 
L 41.391037 56.378677 
L 42.540215 56.179776 
L 43.689393 55.980875 
L 44.838571 55.781974 
L 45.98775 55.583072 
L 47.136928 55.384171 
L 48.286106 55.18527 
L 49.435284 54.986369 
L 50.584463 54.787467 
L 51.733641 54.588566 
L 52.882819 54.389665 
L 54.031997 54.190764 
L 55.181176 53.991862 
L 56.330354 53.792961 
L 57.479532 53.59406 
L 58.62871 53.395159 
L 59.777889 53.196257 
L 60.927067 52.997356 
L 62.076245 52.798455 
L 63.225423 52.599554 
L 64.374602 52.400652 
L 65.52378 52.201751 
L 66.672958 52.00285 
L 67.822136 51.803949 
L 68.971315 51.605047 
L 70.120493 51.406146 
L 71.269671 51.207245 
L 72.418849 51.008344 
L 73.568028 50.809442 
L 74.717206 50.610541 
L 75.866384 50.41164 
L 77.015562 50.212739 
L 78.164741 50.013837 
L 79.313919 49.814936 
L 80.463097 49.616035 
L 81.612276 49.417134 
L 82.761454 49.218232 
L 83.910632 49.019331 
L 85.05981 48.82043 
L 86.208989 48.621529 
L 87.358167 48.422627 
L 88.507345 48.223726 
L 89.656523 48.024825 
L 90.805702 47.825924 
L 91.95488 47.627022 
L 93.104058 47.428121 
L 94.253236 47.22922 
L 95.402415 47.030318 
L 96.551593 46.831417 
L 97.700771 46.632516 
L 98.849949 46.433615 
L 99.999128 46.234713 
L 101.148306 46.035812 
L 102.297484 45.836911 
L 103.446662 45.63801 
L 104.595841 45.439108 
L 105.745019 45.240207 
L 106.894197 45.041306 
L 108.043375 44.842405 
L 109.192554 44.643503 
L 110.341732 44.444602 
L 111.49091 44.245701 
L 112.640088 44.0468 
L 113.789267 43.847898 
L 114.938445 43.648997 
L 116.087623 43.450096 
L 117.236801 43.251195 
L 118.38598 43.052293 
L 119.535158 42.853392 
L 120.684336 42.654491 
L 121.833514 42.45559 
L 122.982693 42.256688 
L 124.131871 42.057787 
L 125.281049 41.858886 
L 126.430227 41.659985 
L 127.579406 41.461083 
L 128.728584 41.262182 
L 129.877762 41.063281 
L 131.02694 40.86438 
L 132.176119 40.665478 
L 133.325297 40.466577 
L 134.474475 40.267676 
L 135.623653 40.068775 
L 136.772832 39.869873 
L 137.92201 39.670972 
L 139.071188 39.472071 
L 140.220366 39.27317 
L 141.369545 39.074268 
L 142.518723 38.875367 
L 143.667901 38.676466 
L 144.817079 38.477565 
" clip-path="url(#p1152e3a628)" style="fill: none; stroke: #ff8c00; stroke-width: 0.75; stroke-linecap: square"/>
   </g>
   <g id="patch_3">
    <path d="M 25.36 89.218327 
L 25.36 5.4 
" style="fill: none; stroke: #000000; stroke-width: 0.25; stroke-linejoin: miter; stroke-linecap: square"/>
   </g>
   <g id="patch_4">
    <path d="M 25.36 89.218327 
L 150.505512 89.218327 
" style="fill: none; stroke: #000000; stroke-width: 0.25; stroke-linejoin: miter; stroke-linecap: square"/>
   </g>
   <g id="text_15">
    <g id="patch_5">
     <path d="M 29.114365 18.699023 
L 52.764365 18.699023 
Q 54.264365 18.699023 54.264365 17.199023 
L 54.264365 7.132617 
Q 54.264365 5.632617 52.764365 5.632617 
L 29.114365 5.632617 
Q 27.614365 5.632617 27.614365 7.132617 
L 27.614365 17.199023 
Q 27.614365 18.699023 29.114365 18.699023 
z
" style="fill: #c0c0c0; opacity: 0.4; stroke: #c0c0c0; stroke-linejoin: miter"/>
    </g>
    <!-- $r=0.157$ -->
    <g transform="translate(29.114365 10.655273) scale(0.05 -0.05)">
     <defs>
      <path id="DejaVuSans-Oblique-72" d="M 2853 2969 
Q 2766 3016 2653 3041 
Q 2541 3066 2413 3066 
Q 1953 3066 1609 2717 
Q 1266 2369 1153 1784 
L 800 0 
L 225 0 
L 909 3500 
L 1484 3500 
L 1375 2956 
Q 1603 3259 1920 3421 
Q 2238 3584 2597 3584 
Q 2691 3584 2781 3573 
Q 2872 3563 2963 3538 
L 2853 2969 
z
" transform="scale(0.015625)"/>
      <path id="DejaVuSans-3d" d="M 678 2906 
L 4684 2906 
L 4684 2381 
L 678 2381 
L 678 2906 
z
M 678 1631 
L 4684 1631 
L 4684 1100 
L 678 1100 
L 678 1631 
z
" transform="scale(0.015625)"/>
      <path id="DejaVuSans-30" d="M 2034 4250 
Q 1547 4250 1301 3770 
Q 1056 3291 1056 2328 
Q 1056 1369 1301 889 
Q 1547 409 2034 409 
Q 2525 409 2770 889 
Q 3016 1369 3016 2328 
Q 3016 3291 2770 3770 
Q 2525 4250 2034 4250 
z
M 2034 4750 
Q 2819 4750 3233 4129 
Q 3647 3509 3647 2328 
Q 3647 1150 3233 529 
Q 2819 -91 2034 -91 
Q 1250 -91 836 529 
Q 422 1150 422 2328 
Q 422 3509 836 4129 
Q 1250 4750 2034 4750 
z
" transform="scale(0.015625)"/>
      <path id="DejaVuSans-2e" d="M 684 794 
L 1344 794 
L 1344 0 
L 684 0 
L 684 794 
z
" transform="scale(0.015625)"/>
      <path id="DejaVuSans-31" d="M 794 531 
L 1825 531 
L 1825 4091 
L 703 3866 
L 703 4441 
L 1819 4666 
L 2450 4666 
L 2450 531 
L 3481 531 
L 3481 0 
L 794 0 
L 794 531 
z
" transform="scale(0.015625)"/>
      <path id="DejaVuSans-35" d="M 691 4666 
L 3169 4666 
L 3169 4134 
L 1269 4134 
L 1269 2991 
Q 1406 3038 1543 3061 
Q 1681 3084 1819 3084 
Q 2600 3084 3056 2656 
Q 3513 2228 3513 1497 
Q 3513 744 3044 326 
Q 2575 -91 1722 -91 
Q 1428 -91 1123 -41 
Q 819 9 494 109 
L 494 744 
Q 775 591 1075 516 
Q 1375 441 1709 441 
Q 2250 441 2565 725 
Q 2881 1009 2881 1497 
Q 2881 1984 2565 2268 
Q 2250 2553 1709 2553 
Q 1456 2553 1204 2497 
Q 953 2441 691 2322 
L 691 4666 
z
" transform="scale(0.015625)"/>
      <path id="DejaVuSans-37" d="M 525 4666 
L 3525 4666 
L 3525 4397 
L 1831 0 
L 1172 0 
L 2766 4134 
L 525 4134 
L 525 4666 
z
" transform="scale(0.015625)"/>
     </defs>
     <use xlink:href="#DejaVuSans-Oblique-72" transform="translate(0 0.78125)"/>
     <use xlink:href="#DejaVuSans-3d" transform="translate(60.595703 0.78125)"/>
     <use xlink:href="#DejaVuSans-30" transform="translate(163.867188 0.78125)"/>
     <use xlink:href="#DejaVuSans-2e" transform="translate(227.490234 0.78125)"/>
     <use xlink:href="#DejaVuSans-31" transform="translate(259.277344 0.78125)"/>
     <use xlink:href="#DejaVuSans-35" transform="translate(322.900391 0.78125)"/>
     <use xlink:href="#DejaVuSans-37" transform="translate(379.273438 0.78125)"/>
    </g>
    <!-- $p=0.118$ -->
    <g transform="translate(29.114365 16.149023) scale(0.05 -0.05)">
     <defs>
      <path id="DejaVuSans-Oblique-70" d="M 3175 2156 
Q 3175 2616 2975 2859 
Q 2775 3103 2400 3103 
Q 2144 3103 1911 2972 
Q 1678 2841 1497 2591 
Q 1319 2344 1212 1994 
Q 1106 1644 1106 1300 
Q 1106 863 1306 627 
Q 1506 391 1875 391 
Q 2147 391 2380 519 
Q 2613 647 2778 891 
Q 2956 1147 3065 1494 
Q 3175 1841 3175 2156 
z
M 1394 2969 
Q 1625 3272 1939 3428 
Q 2253 3584 2638 3584 
Q 3175 3584 3472 3232 
Q 3769 2881 3769 2247 
Q 3769 1728 3584 1258 
Q 3400 788 3053 416 
Q 2822 169 2531 39 
Q 2241 -91 1919 -91 
Q 1547 -91 1294 64 
Q 1041 219 916 525 
L 556 -1331 
L -19 -1331 
L 922 3500 
L 1497 3500 
L 1394 2969 
z
" transform="scale(0.015625)"/>
      <path id="DejaVuSans-38" d="M 2034 2216 
Q 1584 2216 1326 1975 
Q 1069 1734 1069 1313 
Q 1069 891 1326 650 
Q 1584 409 2034 409 
Q 2484 409 2743 651 
Q 3003 894 3003 1313 
Q 3003 1734 2745 1975 
Q 2488 2216 2034 2216 
z
M 1403 2484 
Q 997 2584 770 2862 
Q 544 3141 544 3541 
Q 544 4100 942 4425 
Q 1341 4750 2034 4750 
Q 2731 4750 3128 4425 
Q 3525 4100 3525 3541 
Q 3525 3141 3298 2862 
Q 3072 2584 2669 2484 
Q 3125 2378 3379 2068 
Q 3634 1759 3634 1313 
Q 3634 634 3220 271 
Q 2806 -91 2034 -91 
Q 1263 -91 848 271 
Q 434 634 434 1313 
Q 434 1759 690 2068 
Q 947 2378 1403 2484 
z
M 1172 3481 
Q 1172 3119 1398 2916 
Q 1625 2713 2034 2713 
Q 2441 2713 2670 2916 
Q 2900 3119 2900 3481 
Q 2900 3844 2670 4047 
Q 2441 4250 2034 4250 
Q 1625 4250 1398 4047 
Q 1172 3844 1172 3481 
z
" transform="scale(0.015625)"/>
     </defs>
     <use xlink:href="#DejaVuSans-Oblique-70" transform="translate(0 0.78125)"/>
     <use xlink:href="#DejaVuSans-3d" transform="translate(82.958984 0.78125)"/>
     <use xlink:href="#DejaVuSans-30" transform="translate(186.230469 0.78125)"/>
     <use xlink:href="#DejaVuSans-2e" transform="translate(249.853516 0.78125)"/>
     <use xlink:href="#DejaVuSans-31" transform="translate(281.640625 0.78125)"/>
     <use xlink:href="#DejaVuSans-31" transform="translate(345.263672 0.78125)"/>
     <use xlink:href="#DejaVuSans-38" transform="translate(408.886719 0.78125)"/>
    </g>
   </g>
  </g>
 </g>
 <defs>
  <clipPath id="p1152e3a628">
   <rect x="25.36" y="5.4" width="125.145512" height="83.818327"/>
  </clipPath>
 </defs>
</svg>
