<?xml version="1.0" encoding="utf-8" standalone="no"?>
<!DOCTYPE svg PUBLIC "-//W3C//DTD SVG 1.1//EN"
  "http://www.w3.org/Graphics/SVG/1.1/DTD/svg11.dtd">
<svg xmlns:xlink="http://www.w3.org/1999/xlink" width="155.905512pt" height="113.385827pt" viewBox="0 0 155.905512 113.385827" xmlns="http://www.w3.org/2000/svg" version="1.1">
 <metadata>
  <rdf:RDF xmlns:dc="http://purl.org/dc/elements/1.1/" xmlns:cc="http://creativecommons.org/ns#" xmlns:rdf="http://www.w3.org/1999/02/22-rdf-syntax-ns#">
   <cc:Work>
    <dc:type rdf:resource="http://purl.org/dc/dcmitype/StillImage"/>
    <dc:date>2025-06-11T09:26:09.617414</dc:date>
    <dc:format>image/svg+xml</dc:format>
    <dc:creator>
     <cc:Agent>
      <dc:title>Matplotlib v3.9.2, https://matplotlib.org/</dc:title>
     </cc:Agent>
    </dc:creator>
   </cc:Work>
  </rdf:RDF>
 </metadata>
 <defs>
  <style type="text/css">*{stroke-linejoin: round; stroke-linecap: butt}</style>
 </defs>
 <g id="figure_1">
  <g id="patch_1">
   <path d="M 0 113.385827 
L 155.905512 113.385827 
L 155.905512 0 
L 0 0 
z
" style="fill: #ffffff"/>
  </g>
  <g id="axes_1">
   <g id="patch_2">
    <path d="M 25.36 89.218327 
L 150.505512 89.218327 
L 150.505512 5.4 
L 25.36 5.4 
z
" style="fill: #ffffff"/>
   </g>
   <g id="PathCollection_1">
    <defs>
     <path id="C0_0_de1211aea5" d="M 0 0.866025 
C 0.229673 0.866025 0.449969 0.774776 0.612372 0.612372 
C 0.774776 0.449969 0.866025 0.229673 0.866025 -0 
C 0.866025 -0.229673 0.774776 -0.449969 0.612372 -0.612372 
C 0.449969 -0.774776 0.229673 -0.866025 0 -0.866025 
C -0.229673 -0.866025 -0.449969 -0.774776 -0.612372 -0.612372 
C -0.774776 -0.449969 -0.866025 -0.229673 -0.866025 0 
C -0.866025 0.229673 -0.774776 0.449969 -0.612372 0.612372 
C -0.449969 0.774776 -0.229673 0.866025 0 0.866025 
z
"/>
    </defs>
    <g clip-path="url(#p14a204dd0f)">
     <use xlink:href="#C0_0_de1211aea5" x="87.932756" y="54.634028" style="fill: #ff8c00; fill-opacity: 0.8"/>
    </g>
    <g clip-path="url(#p14a204dd0f)">
     <use xlink:href="#C0_0_de1211aea5" x="39.174764" y="64.298236" style="fill: #ff8c00; fill-opacity: 0.8"/>
    </g>
    <g clip-path="url(#p14a204dd0f)">
     <use xlink:href="#C0_0_de1211aea5" x="71.680092" y="60.810283" style="fill: #ff8c00; fill-opacity: 0.8"/>
    </g>
    <g clip-path="url(#p14a204dd0f)">
     <use xlink:href="#C0_0_de1211aea5" x="96.059088" y="65.796856" style="fill: #ff8c00; fill-opacity: 0.8"/>
    </g>
    <g clip-path="url(#p14a204dd0f)">
     <use xlink:href="#C0_0_de1211aea5" x="136.690748" y="75.696613" style="fill: #ff8c00; fill-opacity: 0.8"/>
    </g>
    <g clip-path="url(#p14a204dd0f)">
     <use xlink:href="#C0_0_de1211aea5" x="104.18542" y="75.582873" style="fill: #ff8c00; fill-opacity: 0.8"/>
    </g>
    <g clip-path="url(#p14a204dd0f)">
     <use xlink:href="#C0_0_de1211aea5" x="104.18542" y="85.408403" style="fill: #ff8c00; fill-opacity: 0.8"/>
    </g>
    <g clip-path="url(#p14a204dd0f)">
     <use xlink:href="#C0_0_de1211aea5" x="144.817079" y="9.209924" style="fill: #ff8c00; fill-opacity: 0.8"/>
    </g>
    <g clip-path="url(#p14a204dd0f)">
     <use xlink:href="#C0_0_de1211aea5" x="112.311752" y="26.269282" style="fill: #ff8c00; fill-opacity: 0.8"/>
    </g>
    <g clip-path="url(#p14a204dd0f)">
     <use xlink:href="#C0_0_de1211aea5" x="128.564416" y="32.233143" style="fill: #ff8c00; fill-opacity: 0.8"/>
    </g>
    <g clip-path="url(#p14a204dd0f)">
     <use xlink:href="#C0_0_de1211aea5" x="112.311752" y="38.666068" style="fill: #ff8c00; fill-opacity: 0.8"/>
    </g>
    <g clip-path="url(#p14a204dd0f)">
     <use xlink:href="#C0_0_de1211aea5" x="71.680092" y="34.934287" style="fill: #ff8c00; fill-opacity: 0.8"/>
    </g>
    <g clip-path="url(#p14a204dd0f)">
     <use xlink:href="#C0_0_de1211aea5" x="55.427428" y="47.552394" style="fill: #ff8c00; fill-opacity: 0.8"/>
    </g>
    <g clip-path="url(#p14a204dd0f)">
     <use xlink:href="#C0_0_de1211aea5" x="96.059088" y="47.87955" style="fill: #ff8c00; fill-opacity: 0.8"/>
    </g>
    <g clip-path="url(#p14a204dd0f)">
     <use xlink:href="#C0_0_de1211aea5" x="120.438084" y="45.279753" style="fill: #ff8c00; fill-opacity: 0.8"/>
    </g>
    <g clip-path="url(#p14a204dd0f)">
     <use xlink:href="#C0_0_de1211aea5" x="96.059088" y="81.187018" style="fill: #ff8c00; fill-opacity: 0.8"/>
    </g>
    <g clip-path="url(#p14a204dd0f)">
     <use xlink:href="#C0_0_de1211aea5" x="96.059088" y="47.903608" style="fill: #ff8c00; fill-opacity: 0.8"/>
    </g>
    <g clip-path="url(#p14a204dd0f)">
     <use xlink:href="#C0_0_de1211aea5" x="104.18542" y="50.175662" style="fill: #ff8c00; fill-opacity: 0.8"/>
    </g>
    <g clip-path="url(#p14a204dd0f)">
     <use xlink:href="#C0_0_de1211aea5" x="112.311752" y="71.321371" style="fill: #ff8c00; fill-opacity: 0.8"/>
    </g>
    <g clip-path="url(#p14a204dd0f)">
     <use xlink:href="#C0_0_de1211aea5" x="120.438084" y="64.991632" style="fill: #ff8c00; fill-opacity: 0.8"/>
    </g>
    <g clip-path="url(#p14a204dd0f)">
     <use xlink:href="#C0_0_de1211aea5" x="128.564416" y="72.442208" style="fill: #ff8c00; fill-opacity: 0.8"/>
    </g>
    <g clip-path="url(#p14a204dd0f)">
     <use xlink:href="#C0_0_de1211aea5" x="96.059088" y="28.512198" style="fill: #ff8c00; fill-opacity: 0.8"/>
    </g>
    <g clip-path="url(#p14a204dd0f)">
     <use xlink:href="#C0_0_de1211aea5" x="104.18542" y="72.136159" style="fill: #ff8c00; fill-opacity: 0.8"/>
    </g>
    <g clip-path="url(#p14a204dd0f)">
     <use xlink:href="#C0_0_de1211aea5" x="128.564416" y="29.086226" style="fill: #ff8c00; fill-opacity: 0.8"/>
    </g>
    <g clip-path="url(#p14a204dd0f)">
     <use xlink:href="#C0_0_de1211aea5" x="104.18542" y="42.534838" style="fill: #ff8c00; fill-opacity: 0.8"/>
    </g>
    <g clip-path="url(#p14a204dd0f)">
     <use xlink:href="#C0_0_de1211aea5" x="120.438084" y="51.323942" style="fill: #ff8c00; fill-opacity: 0.8"/>
    </g>
    <g clip-path="url(#p14a204dd0f)">
     <use xlink:href="#C0_0_de1211aea5" x="112.311752" y="77.292421" style="fill: #ff8c00; fill-opacity: 0.8"/>
    </g>
    <g clip-path="url(#p14a204dd0f)">
     <use xlink:href="#C0_0_de1211aea5" x="104.18542" y="49.78973" style="fill: #ff8c00; fill-opacity: 0.8"/>
    </g>
    <g clip-path="url(#p14a204dd0f)">
     <use xlink:href="#C0_0_de1211aea5" x="112.311752" y="30.244214" style="fill: #ff8c00; fill-opacity: 0.8"/>
    </g>
    <g clip-path="url(#p14a204dd0f)">
     <use xlink:href="#C0_0_de1211aea5" x="96.059088" y="70.891303" style="fill: #ff8c00; fill-opacity: 0.8"/>
    </g>
    <g clip-path="url(#p14a204dd0f)">
     <use xlink:href="#C0_0_de1211aea5" x="87.932756" y="68.791345" style="fill: #ff8c00; fill-opacity: 0.8"/>
    </g>
    <g clip-path="url(#p14a204dd0f)">
     <use xlink:href="#C0_0_de1211aea5" x="96.059088" y="78.553626" style="fill: #ff8c00; fill-opacity: 0.8"/>
    </g>
    <g clip-path="url(#p14a204dd0f)">
     <use xlink:href="#C0_0_de1211aea5" x="128.564416" y="45.726889" style="fill: #ff8c00; fill-opacity: 0.8"/>
    </g>
    <g clip-path="url(#p14a204dd0f)">
     <use xlink:href="#C0_0_de1211aea5" x="104.18542" y="48.268034" style="fill: #ff8c00; fill-opacity: 0.8"/>
    </g>
    <g clip-path="url(#p14a204dd0f)">
     <use xlink:href="#C0_0_de1211aea5" x="104.18542" y="64.582441" style="fill: #ff8c00; fill-opacity: 0.8"/>
    </g>
    <g clip-path="url(#p14a204dd0f)">
     <use xlink:href="#C0_0_de1211aea5" x="96.059088" y="48.129371" style="fill: #ff8c00; fill-opacity: 0.8"/>
    </g>
    <g clip-path="url(#p14a204dd0f)">
     <use xlink:href="#C0_0_de1211aea5" x="104.18542" y="56.3522" style="fill: #ff8c00; fill-opacity: 0.8"/>
    </g>
    <g clip-path="url(#p14a204dd0f)">
     <use xlink:href="#C0_0_de1211aea5" x="120.438084" y="69.259607" style="fill: #ff8c00; fill-opacity: 0.8"/>
    </g>
    <g clip-path="url(#p14a204dd0f)">
     <use xlink:href="#C0_0_de1211aea5" x="87.932756" y="70.8174" style="fill: #ff8c00; fill-opacity: 0.8"/>
    </g>
    <g clip-path="url(#p14a204dd0f)">
     <use xlink:href="#C0_0_de1211aea5" x="104.18542" y="27.863495" style="fill: #ff8c00; fill-opacity: 0.8"/>
    </g>
    <g clip-path="url(#p14a204dd0f)">
     <use xlink:href="#C0_0_de1211aea5" x="112.311752" y="59.371259" style="fill: #ff8c00; fill-opacity: 0.8"/>
    </g>
    <g clip-path="url(#p14a204dd0f)">
     <use xlink:href="#C0_0_de1211aea5" x="104.18542" y="52.817168" style="fill: #ff8c00; fill-opacity: 0.8"/>
    </g>
    <g clip-path="url(#p14a204dd0f)">
     <use xlink:href="#C0_0_de1211aea5" x="87.932756" y="14.969203" style="fill: #ff8c00; fill-opacity: 0.8"/>
    </g>
    <g clip-path="url(#p14a204dd0f)">
     <use xlink:href="#C0_0_de1211aea5" x="71.680092" y="24.350149" style="fill: #ff8c00; fill-opacity: 0.8"/>
    </g>
    <g clip-path="url(#p14a204dd0f)">
     <use xlink:href="#C0_0_de1211aea5" x="112.311752" y="57.369492" style="fill: #ff8c00; fill-opacity: 0.8"/>
    </g>
    <g clip-path="url(#p14a204dd0f)">
     <use xlink:href="#C0_0_de1211aea5" x="96.059088" y="49.57594" style="fill: #ff8c00; fill-opacity: 0.8"/>
    </g>
    <g clip-path="url(#p14a204dd0f)">
     <use xlink:href="#C0_0_de1211aea5" x="96.059088" y="31.091436" style="fill: #ff8c00; fill-opacity: 0.8"/>
    </g>
    <g clip-path="url(#p14a204dd0f)">
     <use xlink:href="#C0_0_de1211aea5" x="104.18542" y="39.026145" style="fill: #ff8c00; fill-opacity: 0.8"/>
    </g>
    <g clip-path="url(#p14a204dd0f)">
     <use xlink:href="#C0_0_de1211aea5" x="96.059088" y="20.09044" style="fill: #ff8c00; fill-opacity: 0.8"/>
    </g>
    <g clip-path="url(#p14a204dd0f)">
     <use xlink:href="#C0_0_de1211aea5" x="79.806424" y="22.077942" style="fill: #ff8c00; fill-opacity: 0.8"/>
    </g>
    <g clip-path="url(#p14a204dd0f)">
     <use xlink:href="#C0_0_de1211aea5" x="136.690748" y="35.072762" style="fill: #ff8c00; fill-opacity: 0.8"/>
    </g>
    <g clip-path="url(#p14a204dd0f)">
     <use xlink:href="#C0_0_de1211aea5" x="71.680092" y="28.184525" style="fill: #ff8c00; fill-opacity: 0.8"/>
    </g>
    <g clip-path="url(#p14a204dd0f)">
     <use xlink:href="#C0_0_de1211aea5" x="128.564416" y="39.273735" style="fill: #ff8c00; fill-opacity: 0.8"/>
    </g>
    <g clip-path="url(#p14a204dd0f)">
     <use xlink:href="#C0_0_de1211aea5" x="96.059088" y="36.994253" style="fill: #ff8c00; fill-opacity: 0.8"/>
    </g>
    <g clip-path="url(#p14a204dd0f)">
     <use xlink:href="#C0_0_de1211aea5" x="71.680092" y="34.51034" style="fill: #ff8c00; fill-opacity: 0.8"/>
    </g>
    <g clip-path="url(#p14a204dd0f)">
     <use xlink:href="#C0_0_de1211aea5" x="31.048432" y="39.322787" style="fill: #ff8c00; fill-opacity: 0.8"/>
    </g>
    <g clip-path="url(#p14a204dd0f)">
     <use xlink:href="#C0_0_de1211aea5" x="112.311752" y="44.946741" style="fill: #ff8c00; fill-opacity: 0.8"/>
    </g>
    <g clip-path="url(#p14a204dd0f)">
     <use xlink:href="#C0_0_de1211aea5" x="112.311752" y="29.552849" style="fill: #ff8c00; fill-opacity: 0.8"/>
    </g>
    <g clip-path="url(#p14a204dd0f)">
     <use xlink:href="#C0_0_de1211aea5" x="87.932756" y="71.002714" style="fill: #ff8c00; fill-opacity: 0.8"/>
    </g>
    <g clip-path="url(#p14a204dd0f)">
     <use xlink:href="#C0_0_de1211aea5" x="96.059088" y="57.15256" style="fill: #ff8c00; fill-opacity: 0.8"/>
    </g>
    <g clip-path="url(#p14a204dd0f)">
     <use xlink:href="#C0_0_de1211aea5" x="31.048432" y="24.803313" style="fill: #ff8c00; fill-opacity: 0.8"/>
    </g>
    <g clip-path="url(#p14a204dd0f)">
     <use xlink:href="#C0_0_de1211aea5" x="128.564416" y="55.646203" style="fill: #ff8c00; fill-opacity: 0.8"/>
    </g>
    <g clip-path="url(#p14a204dd0f)">
     <use xlink:href="#C0_0_de1211aea5" x="112.311752" y="55.107401" style="fill: #ff8c00; fill-opacity: 0.8"/>
    </g>
    <g clip-path="url(#p14a204dd0f)">
     <use xlink:href="#C0_0_de1211aea5" x="128.564416" y="48.121438" style="fill: #ff8c00; fill-opacity: 0.8"/>
    </g>
    <g clip-path="url(#p14a204dd0f)">
     <use xlink:href="#C0_0_de1211aea5" x="112.311752" y="69.222406" style="fill: #ff8c00; fill-opacity: 0.8"/>
    </g>
    <g clip-path="url(#p14a204dd0f)">
     <use xlink:href="#C0_0_de1211aea5" x="128.564416" y="54.134793" style="fill: #ff8c00; fill-opacity: 0.8"/>
    </g>
    <g clip-path="url(#p14a204dd0f)">
     <use xlink:href="#C0_0_de1211aea5" x="112.311752" y="44.94517" style="fill: #ff8c00; fill-opacity: 0.8"/>
    </g>
    <g clip-path="url(#p14a204dd0f)">
     <use xlink:href="#C0_0_de1211aea5" x="112.311752" y="69.414822" style="fill: #ff8c00; fill-opacity: 0.8"/>
    </g>
    <g clip-path="url(#p14a204dd0f)">
     <use xlink:href="#C0_0_de1211aea5" x="112.311752" y="60.796545" style="fill: #ff8c00; fill-opacity: 0.8"/>
    </g>
    <g clip-path="url(#p14a204dd0f)">
     <use xlink:href="#C0_0_de1211aea5" x="112.311752" y="61.02852" style="fill: #ff8c00; fill-opacity: 0.8"/>
    </g>
    <g clip-path="url(#p14a204dd0f)">
     <use xlink:href="#C0_0_de1211aea5" x="112.311752" y="64.152178" style="fill: #ff8c00; fill-opacity: 0.8"/>
    </g>
    <g clip-path="url(#p14a204dd0f)">
     <use xlink:href="#C0_0_de1211aea5" x="87.932756" y="50.432503" style="fill: #ff8c00; fill-opacity: 0.8"/>
    </g>
    <g clip-path="url(#p14a204dd0f)">
     <use xlink:href="#C0_0_de1211aea5" x="96.059088" y="49.72812" style="fill: #ff8c00; fill-opacity: 0.8"/>
    </g>
    <g clip-path="url(#p14a204dd0f)">
     <use xlink:href="#C0_0_de1211aea5" x="87.932756" y="21.097289" style="fill: #ff8c00; fill-opacity: 0.8"/>
    </g>
    <g clip-path="url(#p14a204dd0f)">
     <use xlink:href="#C0_0_de1211aea5" x="104.18542" y="45.697461" style="fill: #ff8c00; fill-opacity: 0.8"/>
    </g>
    <g clip-path="url(#p14a204dd0f)">
     <use xlink:href="#C0_0_de1211aea5" x="104.18542" y="56.322758" style="fill: #ff8c00; fill-opacity: 0.8"/>
    </g>
    <g clip-path="url(#p14a204dd0f)">
     <use xlink:href="#C0_0_de1211aea5" x="104.18542" y="44.250028" style="fill: #ff8c00; fill-opacity: 0.8"/>
    </g>
    <g clip-path="url(#p14a204dd0f)">
     <use xlink:href="#C0_0_de1211aea5" x="128.564416" y="64.892283" style="fill: #ff8c00; fill-opacity: 0.8"/>
    </g>
    <g clip-path="url(#p14a204dd0f)">
     <use xlink:href="#C0_0_de1211aea5" x="136.690748" y="68.874459" style="fill: #ff8c00; fill-opacity: 0.8"/>
    </g>
    <g clip-path="url(#p14a204dd0f)">
     <use xlink:href="#C0_0_de1211aea5" x="96.059088" y="45.743863" style="fill: #ff8c00; fill-opacity: 0.8"/>
    </g>
    <g clip-path="url(#p14a204dd0f)">
     <use xlink:href="#C0_0_de1211aea5" x="79.806424" y="44.918552" style="fill: #ff8c00; fill-opacity: 0.8"/>
    </g>
    <g clip-path="url(#p14a204dd0f)">
     <use xlink:href="#C0_0_de1211aea5" x="87.932756" y="41.950946" style="fill: #ff8c00; fill-opacity: 0.8"/>
    </g>
    <g clip-path="url(#p14a204dd0f)">
     <use xlink:href="#C0_0_de1211aea5" x="136.690748" y="39.89146" style="fill: #ff8c00; fill-opacity: 0.8"/>
    </g>
    <g clip-path="url(#p14a204dd0f)">
     <use xlink:href="#C0_0_de1211aea5" x="96.059088" y="54.927645" style="fill: #ff8c00; fill-opacity: 0.8"/>
    </g>
    <g clip-path="url(#p14a204dd0f)">
     <use xlink:href="#C0_0_de1211aea5" x="104.18542" y="56.297842" style="fill: #ff8c00; fill-opacity: 0.8"/>
    </g>
    <g clip-path="url(#p14a204dd0f)">
     <use xlink:href="#C0_0_de1211aea5" x="79.806424" y="62.644042" style="fill: #ff8c00; fill-opacity: 0.8"/>
    </g>
    <g clip-path="url(#p14a204dd0f)">
     <use xlink:href="#C0_0_de1211aea5" x="96.059088" y="66.30823" style="fill: #ff8c00; fill-opacity: 0.8"/>
    </g>
    <g clip-path="url(#p14a204dd0f)">
     <use xlink:href="#C0_0_de1211aea5" x="96.059088" y="27.795791" style="fill: #ff8c00; fill-opacity: 0.8"/>
    </g>
    <g clip-path="url(#p14a204dd0f)">
     <use xlink:href="#C0_0_de1211aea5" x="87.932756" y="27.261416" style="fill: #ff8c00; fill-opacity: 0.8"/>
    </g>
    <g clip-path="url(#p14a204dd0f)">
     <use xlink:href="#C0_0_de1211aea5" x="104.18542" y="27.026328" style="fill: #ff8c00; fill-opacity: 0.8"/>
    </g>
    <g clip-path="url(#p14a204dd0f)">
     <use xlink:href="#C0_0_de1211aea5" x="112.311752" y="39.22861" style="fill: #ff8c00; fill-opacity: 0.8"/>
    </g>
    <g clip-path="url(#p14a204dd0f)">
     <use xlink:href="#C0_0_de1211aea5" x="96.059088" y="31.930057" style="fill: #ff8c00; fill-opacity: 0.8"/>
    </g>
    <g clip-path="url(#p14a204dd0f)">
     <use xlink:href="#C0_0_de1211aea5" x="120.438084" y="66.729254" style="fill: #ff8c00; fill-opacity: 0.8"/>
    </g>
    <g clip-path="url(#p14a204dd0f)">
     <use xlink:href="#C0_0_de1211aea5" x="87.932756" y="32.447623" style="fill: #ff8c00; fill-opacity: 0.8"/>
    </g>
    <g clip-path="url(#p14a204dd0f)">
     <use xlink:href="#C0_0_de1211aea5" x="120.438084" y="47.627405" style="fill: #ff8c00; fill-opacity: 0.8"/>
    </g>
    <g clip-path="url(#p14a204dd0f)">
     <use xlink:href="#C0_0_de1211aea5" x="120.438084" y="20.042006" style="fill: #ff8c00; fill-opacity: 0.8"/>
    </g>
    <g clip-path="url(#p14a204dd0f)">
     <use xlink:href="#C0_0_de1211aea5" x="79.806424" y="48.145748" style="fill: #ff8c00; fill-opacity: 0.8"/>
    </g>
    <g clip-path="url(#p14a204dd0f)">
     <use xlink:href="#C0_0_de1211aea5" x="120.438084" y="34.187866" style="fill: #ff8c00; fill-opacity: 0.8"/>
    </g>
    <g clip-path="url(#p14a204dd0f)">
     <use xlink:href="#C0_0_de1211aea5" x="112.311752" y="56.212606" style="fill: #ff8c00; fill-opacity: 0.8"/>
    </g>
    <g clip-path="url(#p14a204dd0f)">
     <use xlink:href="#C0_0_de1211aea5" x="104.18542" y="68.241503" style="fill: #ff8c00; fill-opacity: 0.8"/>
    </g>
    <g clip-path="url(#p14a204dd0f)">
     <use xlink:href="#C0_0_de1211aea5" x="96.059088" y="19.606426" style="fill: #ff8c00; fill-opacity: 0.8"/>
    </g>
    <g clip-path="url(#p14a204dd0f)">
     <use xlink:href="#C0_0_de1211aea5" x="87.932756" y="60.570823" style="fill: #ff8c00; fill-opacity: 0.8"/>
    </g>
    <g clip-path="url(#p14a204dd0f)">
     <use xlink:href="#C0_0_de1211aea5" x="144.817079" y="52.024744" style="fill: #ff8c00; fill-opacity: 0.8"/>
    </g>
    <g clip-path="url(#p14a204dd0f)">
     <use xlink:href="#C0_0_de1211aea5" x="112.311752" y="50.83427" style="fill: #ff8c00; fill-opacity: 0.8"/>
    </g>
    <g clip-path="url(#p14a204dd0f)">
     <use xlink:href="#C0_0_de1211aea5" x="128.564416" y="64.270178" style="fill: #ff8c00; fill-opacity: 0.8"/>
    </g>
    <g clip-path="url(#p14a204dd0f)">
     <use xlink:href="#C0_0_de1211aea5" x="112.311752" y="55.19923" style="fill: #ff8c00; fill-opacity: 0.8"/>
    </g>
    <g clip-path="url(#p14a204dd0f)">
     <use xlink:href="#C0_0_de1211aea5" x="55.427428" y="68.920143" style="fill: #ff8c00; fill-opacity: 0.8"/>
    </g>
    <g clip-path="url(#p14a204dd0f)">
     <use xlink:href="#C0_0_de1211aea5" x="96.059088" y="77.252845" style="fill: #ff8c00; fill-opacity: 0.8"/>
    </g>
    <g clip-path="url(#p14a204dd0f)">
     <use xlink:href="#C0_0_de1211aea5" x="104.18542" y="60.243068" style="fill: #ff8c00; fill-opacity: 0.8"/>
    </g>
    <g clip-path="url(#p14a204dd0f)">
     <use xlink:href="#C0_0_de1211aea5" x="96.059088" y="66.608822" style="fill: #ff8c00; fill-opacity: 0.8"/>
    </g>
    <g clip-path="url(#p14a204dd0f)">
     <use xlink:href="#C0_0_de1211aea5" x="104.18542" y="62.876551" style="fill: #ff8c00; fill-opacity: 0.8"/>
    </g>
    <g clip-path="url(#p14a204dd0f)">
     <use xlink:href="#C0_0_de1211aea5" x="128.564416" y="69.978961" style="fill: #ff8c00; fill-opacity: 0.8"/>
    </g>
    <g clip-path="url(#p14a204dd0f)">
     <use xlink:href="#C0_0_de1211aea5" x="104.18542" y="67.516612" style="fill: #ff8c00; fill-opacity: 0.8"/>
    </g>
    <g clip-path="url(#p14a204dd0f)">
     <use xlink:href="#C0_0_de1211aea5" x="104.18542" y="63.007115" style="fill: #ff8c00; fill-opacity: 0.8"/>
    </g>
    <g clip-path="url(#p14a204dd0f)">
     <use xlink:href="#C0_0_de1211aea5" x="87.932756" y="75.569152" style="fill: #ff8c00; fill-opacity: 0.8"/>
    </g>
    <g clip-path="url(#p14a204dd0f)">
     <use xlink:href="#C0_0_de1211aea5" x="96.059088" y="58.590074" style="fill: #ff8c00; fill-opacity: 0.8"/>
    </g>
    <g clip-path="url(#p14a204dd0f)">
     <use xlink:href="#C0_0_de1211aea5" x="128.564416" y="58.443014" style="fill: #ff8c00; fill-opacity: 0.8"/>
    </g>
    <g clip-path="url(#p14a204dd0f)">
     <use xlink:href="#C0_0_de1211aea5" x="104.18542" y="67.227642" style="fill: #ff8c00; fill-opacity: 0.8"/>
    </g>
    <g clip-path="url(#p14a204dd0f)">
     <use xlink:href="#C0_0_de1211aea5" x="104.18542" y="81.802194" style="fill: #ff8c00; fill-opacity: 0.8"/>
    </g>
    <g clip-path="url(#p14a204dd0f)">
     <use xlink:href="#C0_0_de1211aea5" x="96.059088" y="58.79368" style="fill: #ff8c00; fill-opacity: 0.8"/>
    </g>
    <g clip-path="url(#p14a204dd0f)">
     <use xlink:href="#C0_0_de1211aea5" x="104.18542" y="78.835358" style="fill: #ff8c00; fill-opacity: 0.8"/>
    </g>
    <g clip-path="url(#p14a204dd0f)">
     <use xlink:href="#C0_0_de1211aea5" x="87.932756" y="72.101205" style="fill: #ff8c00; fill-opacity: 0.8"/>
    </g>
    <g clip-path="url(#p14a204dd0f)">
     <use xlink:href="#C0_0_de1211aea5" x="104.18542" y="80.420788" style="fill: #ff8c00; fill-opacity: 0.8"/>
    </g>
    <g clip-path="url(#p14a204dd0f)">
     <use xlink:href="#C0_0_de1211aea5" x="112.311752" y="50.746509" style="fill: #ff8c00; fill-opacity: 0.8"/>
    </g>
    <g clip-path="url(#p14a204dd0f)">
     <use xlink:href="#C0_0_de1211aea5" x="104.18542" y="37.64309" style="fill: #ff8c00; fill-opacity: 0.8"/>
    </g>
    <g clip-path="url(#p14a204dd0f)">
     <use xlink:href="#C0_0_de1211aea5" x="87.932756" y="43.66278" style="fill: #ff8c00; fill-opacity: 0.8"/>
    </g>
    <g clip-path="url(#p14a204dd0f)">
     <use xlink:href="#C0_0_de1211aea5" x="71.680092" y="46.313659" style="fill: #ff8c00; fill-opacity: 0.8"/>
    </g>
    <g clip-path="url(#p14a204dd0f)">
     <use xlink:href="#C0_0_de1211aea5" x="112.311752" y="70.29202" style="fill: #ff8c00; fill-opacity: 0.8"/>
    </g>
    <g clip-path="url(#p14a204dd0f)">
     <use xlink:href="#C0_0_de1211aea5" x="96.059088" y="65.128345" style="fill: #ff8c00; fill-opacity: 0.8"/>
    </g>
    <g clip-path="url(#p14a204dd0f)">
     <use xlink:href="#C0_0_de1211aea5" x="79.806424" y="58.488196" style="fill: #ff8c00; fill-opacity: 0.8"/>
    </g>
    <g clip-path="url(#p14a204dd0f)">
     <use xlink:href="#C0_0_de1211aea5" x="136.690748" y="62.972604" style="fill: #ff8c00; fill-opacity: 0.8"/>
    </g>
    <g clip-path="url(#p14a204dd0f)">
     <use xlink:href="#C0_0_de1211aea5" x="71.680092" y="46.235956" style="fill: #ff8c00; fill-opacity: 0.8"/>
    </g>
    <g clip-path="url(#p14a204dd0f)">
     <use xlink:href="#C0_0_de1211aea5" x="96.059088" y="63.332496" style="fill: #ff8c00; fill-opacity: 0.8"/>
    </g>
    <g clip-path="url(#p14a204dd0f)">
     <use xlink:href="#C0_0_de1211aea5" x="71.680092" y="46.826368" style="fill: #ff8c00; fill-opacity: 0.8"/>
    </g>
    <g clip-path="url(#p14a204dd0f)">
     <use xlink:href="#C0_0_de1211aea5" x="31.048432" y="63.642996" style="fill: #ff8c00; fill-opacity: 0.8"/>
    </g>
    <g clip-path="url(#p14a204dd0f)">
     <use xlink:href="#C0_0_de1211aea5" x="112.311752" y="67.158598" style="fill: #ff8c00; fill-opacity: 0.8"/>
    </g>
    <g clip-path="url(#p14a204dd0f)">
     <use xlink:href="#C0_0_de1211aea5" x="112.311752" y="49.152073" style="fill: #ff8c00; fill-opacity: 0.8"/>
    </g>
    <g clip-path="url(#p14a204dd0f)">
     <use xlink:href="#C0_0_de1211aea5" x="96.059088" y="45.82783" style="fill: #ff8c00; fill-opacity: 0.8"/>
    </g>
    <g clip-path="url(#p14a204dd0f)">
     <use xlink:href="#C0_0_de1211aea5" x="31.048432" y="58.331705" style="fill: #ff8c00; fill-opacity: 0.8"/>
    </g>
    <g clip-path="url(#p14a204dd0f)">
     <use xlink:href="#C0_0_de1211aea5" x="128.564416" y="72.156394" style="fill: #ff8c00; fill-opacity: 0.8"/>
    </g>
    <g clip-path="url(#p14a204dd0f)">
     <use xlink:href="#C0_0_de1211aea5" x="112.311752" y="64.805979" style="fill: #ff8c00; fill-opacity: 0.8"/>
    </g>
    <g clip-path="url(#p14a204dd0f)">
     <use xlink:href="#C0_0_de1211aea5" x="112.311752" y="53.371201" style="fill: #ff8c00; fill-opacity: 0.8"/>
    </g>
    <g clip-path="url(#p14a204dd0f)">
     <use xlink:href="#C0_0_de1211aea5" x="112.311752" y="73.828884" style="fill: #ff8c00; fill-opacity: 0.8"/>
    </g>
    <g clip-path="url(#p14a204dd0f)">
     <use xlink:href="#C0_0_de1211aea5" x="112.311752" y="59.547921" style="fill: #ff8c00; fill-opacity: 0.8"/>
    </g>
    <g clip-path="url(#p14a204dd0f)">
     <use xlink:href="#C0_0_de1211aea5" x="112.311752" y="66.101633" style="fill: #ff8c00; fill-opacity: 0.8"/>
    </g>
    <g clip-path="url(#p14a204dd0f)">
     <use xlink:href="#C0_0_de1211aea5" x="96.059088" y="70.461374" style="fill: #ff8c00; fill-opacity: 0.8"/>
    </g>
    <g clip-path="url(#p14a204dd0f)">
     <use xlink:href="#C0_0_de1211aea5" x="87.932756" y="58.85399" style="fill: #ff8c00; fill-opacity: 0.8"/>
    </g>
    <g clip-path="url(#p14a204dd0f)">
     <use xlink:href="#C0_0_de1211aea5" x="104.18542" y="56.3768" style="fill: #ff8c00; fill-opacity: 0.8"/>
    </g>
    <g clip-path="url(#p14a204dd0f)">
     <use xlink:href="#C0_0_de1211aea5" x="104.18542" y="74.259498" style="fill: #ff8c00; fill-opacity: 0.8"/>
    </g>
    <g clip-path="url(#p14a204dd0f)">
     <use xlink:href="#C0_0_de1211aea5" x="128.564416" y="82.511922" style="fill: #ff8c00; fill-opacity: 0.8"/>
    </g>
    <g clip-path="url(#p14a204dd0f)">
     <use xlink:href="#C0_0_de1211aea5" x="136.690748" y="83.043595" style="fill: #ff8c00; fill-opacity: 0.8"/>
    </g>
    <g clip-path="url(#p14a204dd0f)">
     <use xlink:href="#C0_0_de1211aea5" x="96.059088" y="72.721174" style="fill: #ff8c00; fill-opacity: 0.8"/>
    </g>
    <g clip-path="url(#p14a204dd0f)">
     <use xlink:href="#C0_0_de1211aea5" x="79.806424" y="55.97663" style="fill: #ff8c00; fill-opacity: 0.8"/>
    </g>
    <g clip-path="url(#p14a204dd0f)">
     <use xlink:href="#C0_0_de1211aea5" x="136.690748" y="71.473926" style="fill: #ff8c00; fill-opacity: 0.8"/>
    </g>
    <g clip-path="url(#p14a204dd0f)">
     <use xlink:href="#C0_0_de1211aea5" x="96.059088" y="59.60972" style="fill: #ff8c00; fill-opacity: 0.8"/>
    </g>
    <g clip-path="url(#p14a204dd0f)">
     <use xlink:href="#C0_0_de1211aea5" x="104.18542" y="63.31855" style="fill: #ff8c00; fill-opacity: 0.8"/>
    </g>
    <g clip-path="url(#p14a204dd0f)">
     <use xlink:href="#C0_0_de1211aea5" x="96.059088" y="72.954704" style="fill: #ff8c00; fill-opacity: 0.8"/>
    </g>
    <g clip-path="url(#p14a204dd0f)">
     <use xlink:href="#C0_0_de1211aea5" x="87.932756" y="52.59083" style="fill: #ff8c00; fill-opacity: 0.8"/>
    </g>
    <g clip-path="url(#p14a204dd0f)">
     <use xlink:href="#C0_0_de1211aea5" x="104.18542" y="47.510796" style="fill: #ff8c00; fill-opacity: 0.8"/>
    </g>
    <g clip-path="url(#p14a204dd0f)">
     <use xlink:href="#C0_0_de1211aea5" x="112.311752" y="66.611919" style="fill: #ff8c00; fill-opacity: 0.8"/>
    </g>
    <g clip-path="url(#p14a204dd0f)">
     <use xlink:href="#C0_0_de1211aea5" x="96.059088" y="59.215159" style="fill: #ff8c00; fill-opacity: 0.8"/>
    </g>
    <g clip-path="url(#p14a204dd0f)">
     <use xlink:href="#C0_0_de1211aea5" x="120.438084" y="61.974585" style="fill: #ff8c00; fill-opacity: 0.8"/>
    </g>
    <g clip-path="url(#p14a204dd0f)">
     <use xlink:href="#C0_0_de1211aea5" x="120.438084" y="72.697856" style="fill: #ff8c00; fill-opacity: 0.8"/>
    </g>
    <g clip-path="url(#p14a204dd0f)">
     <use xlink:href="#C0_0_de1211aea5" x="79.806424" y="43.591991" style="fill: #ff8c00; fill-opacity: 0.8"/>
    </g>
    <g clip-path="url(#p14a204dd0f)">
     <use xlink:href="#C0_0_de1211aea5" x="112.311752" y="66.206668" style="fill: #ff8c00; fill-opacity: 0.8"/>
    </g>
    <g clip-path="url(#p14a204dd0f)">
     <use xlink:href="#C0_0_de1211aea5" x="104.18542" y="58.593581" style="fill: #ff8c00; fill-opacity: 0.8"/>
    </g>
    <g clip-path="url(#p14a204dd0f)">
     <use xlink:href="#C0_0_de1211aea5" x="96.059088" y="59.44119" style="fill: #ff8c00; fill-opacity: 0.8"/>
    </g>
   </g>
   <g id="PolyCollection_1">
    <path d="M 31.048432 37.067259 
L 31.048432 55.741185 
L 32.197611 55.723813 
L 33.346789 55.70063 
L 34.495967 55.684827 
L 35.645145 55.66865 
L 36.794324 55.651201 
L 37.943502 55.629054 
L 39.09268 55.619321 
L 40.241858 55.597166 
L 41.391037 55.574638 
L 42.540215 55.565722 
L 43.689393 55.546746 
L 44.838571 55.54069 
L 45.98775 55.52264 
L 47.136928 55.506383 
L 48.286106 55.491191 
L 49.435284 55.458767 
L 50.584463 55.455165 
L 51.733641 55.449157 
L 52.882819 55.437918 
L 54.031997 55.434691 
L 55.181176 55.410217 
L 56.330354 55.387788 
L 57.479532 55.386916 
L 58.62871 55.390801 
L 59.777889 55.371545 
L 60.927067 55.375449 
L 62.076245 55.364769 
L 63.225423 55.348182 
L 64.374602 55.336071 
L 65.52378 55.339511 
L 66.672958 55.333406 
L 67.822136 55.320864 
L 68.971315 55.323556 
L 70.120493 55.31483 
L 71.269671 55.308524 
L 72.418849 55.330321 
L 73.568028 55.321754 
L 74.717206 55.342592 
L 75.866384 55.377671 
L 77.015562 55.382383 
L 78.164741 55.38583 
L 79.313919 55.420061 
L 80.463097 55.434754 
L 81.612276 55.444203 
L 82.761454 55.478937 
L 83.910632 55.511306 
L 85.05981 55.527893 
L 86.208989 55.561848 
L 87.358167 55.58732 
L 88.507345 55.652469 
L 89.656523 55.706238 
L 90.805702 55.766693 
L 91.95488 55.836845 
L 93.104058 55.907996 
L 94.253236 55.978979 
L 95.402415 56.061971 
L 96.551593 56.15351 
L 97.700771 56.229661 
L 98.849949 56.327273 
L 99.999128 56.424538 
L 101.148306 56.547689 
L 102.297484 56.670018 
L 103.446662 56.7969 
L 104.595841 56.956616 
L 105.745019 57.104751 
L 106.894197 57.283628 
L 108.043375 57.462956 
L 109.192554 57.63149 
L 110.341732 57.813369 
L 111.49091 58.000569 
L 112.640088 58.193969 
L 113.789267 58.382529 
L 114.938445 58.589902 
L 116.087623 58.810879 
L 117.236801 59.019216 
L 118.38598 59.247826 
L 119.535158 59.493796 
L 120.684336 59.734822 
L 121.833514 59.959495 
L 122.982693 60.208705 
L 124.131871 60.446942 
L 125.281049 60.700897 
L 126.430227 60.943033 
L 127.579406 61.198843 
L 128.728584 61.454457 
L 129.877762 61.687943 
L 131.02694 61.922071 
L 132.176119 62.175494 
L 133.325297 62.428669 
L 134.474475 62.680969 
L 135.623653 62.935588 
L 136.772832 63.189618 
L 137.92201 63.439185 
L 139.071188 63.701087 
L 140.220366 63.963515 
L 141.369545 64.214074 
L 142.518723 64.481932 
L 143.667901 64.740155 
L 144.817079 65.00336 
L 144.817079 52.81754 
L 144.817079 52.81754 
L 143.667901 52.823483 
L 142.518723 52.815346 
L 141.369545 52.834434 
L 140.220366 52.83734 
L 139.071188 52.856068 
L 137.92201 52.858991 
L 136.772832 52.841063 
L 135.623653 52.84125 
L 134.474475 52.820737 
L 133.325297 52.817862 
L 132.176119 52.807108 
L 131.02694 52.816116 
L 129.877762 52.778064 
L 128.728584 52.781177 
L 127.579406 52.778146 
L 126.430227 52.764008 
L 125.281049 52.76216 
L 124.131871 52.754701 
L 122.982693 52.748849 
L 121.833514 52.743221 
L 120.684336 52.732362 
L 119.535158 52.712495 
L 118.38598 52.694947 
L 117.236801 52.664695 
L 116.087623 52.643116 
L 114.938445 52.588803 
L 113.789267 52.543479 
L 112.640088 52.514408 
L 111.49091 52.465896 
L 110.341732 52.423107 
L 109.192554 52.369492 
L 108.043375 52.312851 
L 106.894197 52.242631 
L 105.745019 52.154848 
L 104.595841 52.07529 
L 103.446662 51.972468 
L 102.297484 51.865848 
L 101.148306 51.76202 
L 99.999128 51.602113 
L 98.849949 51.463753 
L 97.700771 51.295608 
L 96.551593 51.165115 
L 95.402415 51.000853 
L 94.253236 50.815001 
L 93.104058 50.647166 
L 91.95488 50.452238 
L 90.805702 50.253352 
L 89.656523 50.062987 
L 88.507345 49.85283 
L 87.358167 49.629461 
L 86.208989 49.405905 
L 85.05981 49.181669 
L 83.910632 48.953278 
L 82.761454 48.731914 
L 81.612276 48.500663 
L 80.463097 48.260455 
L 79.313919 48.031974 
L 78.164741 47.796845 
L 77.015562 47.550244 
L 75.866384 47.292277 
L 74.717206 47.037926 
L 73.568028 46.787722 
L 72.418849 46.561808 
L 71.269671 46.298547 
L 70.120493 46.013578 
L 68.971315 45.763495 
L 67.822136 45.525854 
L 66.672958 45.282232 
L 65.52378 45.021725 
L 64.374602 44.755376 
L 63.225423 44.495769 
L 62.076245 44.229819 
L 60.927067 43.961959 
L 59.777889 43.714099 
L 58.62871 43.473923 
L 57.479532 43.215072 
L 56.330354 42.954576 
L 55.181176 42.693876 
L 54.031997 42.420655 
L 52.882819 42.160644 
L 51.733641 41.903479 
L 50.584463 41.639376 
L 49.435284 41.388752 
L 48.286106 41.131435 
L 47.136928 40.873967 
L 45.98775 40.591826 
L 44.838571 40.316512 
L 43.689393 40.050802 
L 42.540215 39.778225 
L 41.391037 39.50468 
L 40.241858 39.239369 
L 39.09268 38.961789 
L 37.943502 38.690233 
L 36.794324 38.423992 
L 35.645145 38.151847 
L 34.495967 37.884715 
L 33.346789 37.608586 
L 32.197611 37.343981 
L 31.048432 37.067259 
z
" clip-path="url(#p14a204dd0f)" style="fill: #ff8c00; fill-opacity: 0.15"/>
   </g>
   <g id="matplotlib.axis_1">
    <g id="xtick_1">
     <g id="line2d_1">
      <defs>
       <path id="m932245dd45" d="M 0 0 
L 0 3.5 
" style="stroke: #000000; stroke-width: 0.25"/>
      </defs>
      <g>
       <use xlink:href="#m932245dd45" x="39.174764" y="89.218327" style="stroke: #000000; stroke-width: 0.25"/>
      </g>
     </g>
     <g id="text_1">
      <!-- 60 -->
      <g transform="translate(36.394296 97.297233) scale(0.05 -0.05)">
       <defs>
        <path id="ArialMT-36" d="M 3184 3459 
L 2625 3416 
Q 2550 3747 2413 3897 
Q 2184 4138 1850 4138 
Q 1581 4138 1378 3988 
Q 1113 3794 959 3422 
Q 806 3050 800 2363 
Q 1003 2672 1297 2822 
Q 1591 2972 1913 2972 
Q 2475 2972 2870 2558 
Q 3266 2144 3266 1488 
Q 3266 1056 3080 686 
Q 2894 316 2569 119 
Q 2244 -78 1831 -78 
Q 1128 -78 684 439 
Q 241 956 241 2144 
Q 241 3472 731 4075 
Q 1159 4600 1884 4600 
Q 2425 4600 2770 4297 
Q 3116 3994 3184 3459 
z
M 888 1484 
Q 888 1194 1011 928 
Q 1134 663 1356 523 
Q 1578 384 1822 384 
Q 2178 384 2434 671 
Q 2691 959 2691 1453 
Q 2691 1928 2437 2201 
Q 2184 2475 1800 2475 
Q 1419 2475 1153 2201 
Q 888 1928 888 1484 
z
" transform="scale(0.015625)"/>
        <path id="ArialMT-30" d="M 266 2259 
Q 266 3072 433 3567 
Q 600 4063 929 4331 
Q 1259 4600 1759 4600 
Q 2128 4600 2406 4451 
Q 2684 4303 2865 4023 
Q 3047 3744 3150 3342 
Q 3253 2941 3253 2259 
Q 3253 1453 3087 958 
Q 2922 463 2592 192 
Q 2263 -78 1759 -78 
Q 1097 -78 719 397 
Q 266 969 266 2259 
z
M 844 2259 
Q 844 1131 1108 757 
Q 1372 384 1759 384 
Q 2147 384 2411 759 
Q 2675 1134 2675 2259 
Q 2675 3391 2411 3762 
Q 2147 4134 1753 4134 
Q 1366 4134 1134 3806 
Q 844 3388 844 2259 
z
" transform="scale(0.015625)"/>
       </defs>
       <use xlink:href="#ArialMT-36"/>
       <use xlink:href="#ArialMT-30" x="55.615234"/>
      </g>
     </g>
    </g>
    <g id="xtick_2">
     <g id="line2d_2">
      <g>
       <use xlink:href="#m932245dd45" x="55.427428" y="89.218327" style="stroke: #000000; stroke-width: 0.25"/>
      </g>
     </g>
     <g id="text_2">
      <!-- 70 -->
      <g transform="translate(52.646959 97.297233) scale(0.05 -0.05)">
       <defs>
        <path id="ArialMT-37" d="M 303 3981 
L 303 4522 
L 3269 4522 
L 3269 4084 
Q 2831 3619 2401 2847 
Q 1972 2075 1738 1259 
Q 1569 684 1522 0 
L 944 0 
Q 953 541 1156 1306 
Q 1359 2072 1739 2783 
Q 2119 3494 2547 3981 
L 303 3981 
z
" transform="scale(0.015625)"/>
       </defs>
       <use xlink:href="#ArialMT-37"/>
       <use xlink:href="#ArialMT-30" x="55.615234"/>
      </g>
     </g>
    </g>
    <g id="xtick_3">
     <g id="line2d_3">
      <g>
       <use xlink:href="#m932245dd45" x="71.680092" y="89.218327" style="stroke: #000000; stroke-width: 0.25"/>
      </g>
     </g>
     <g id="text_3">
      <!-- 80 -->
      <g transform="translate(68.899623 97.297233) scale(0.05 -0.05)">
       <defs>
        <path id="ArialMT-38" d="M 1131 2484 
Q 781 2613 612 2850 
Q 444 3088 444 3419 
Q 444 3919 803 4259 
Q 1163 4600 1759 4600 
Q 2359 4600 2725 4251 
Q 3091 3903 3091 3403 
Q 3091 3084 2923 2848 
Q 2756 2613 2416 2484 
Q 2838 2347 3058 2040 
Q 3278 1734 3278 1309 
Q 3278 722 2862 322 
Q 2447 -78 1769 -78 
Q 1091 -78 675 323 
Q 259 725 259 1325 
Q 259 1772 486 2073 
Q 713 2375 1131 2484 
z
M 1019 3438 
Q 1019 3113 1228 2906 
Q 1438 2700 1772 2700 
Q 2097 2700 2305 2904 
Q 2513 3109 2513 3406 
Q 2513 3716 2298 3927 
Q 2084 4138 1766 4138 
Q 1444 4138 1231 3931 
Q 1019 3725 1019 3438 
z
M 838 1322 
Q 838 1081 952 856 
Q 1066 631 1291 507 
Q 1516 384 1775 384 
Q 2178 384 2440 643 
Q 2703 903 2703 1303 
Q 2703 1709 2433 1975 
Q 2163 2241 1756 2241 
Q 1359 2241 1098 1978 
Q 838 1716 838 1322 
z
" transform="scale(0.015625)"/>
       </defs>
       <use xlink:href="#ArialMT-38"/>
       <use xlink:href="#ArialMT-30" x="55.615234"/>
      </g>
     </g>
    </g>
    <g id="xtick_4">
     <g id="line2d_4">
      <g>
       <use xlink:href="#m932245dd45" x="87.932756" y="89.218327" style="stroke: #000000; stroke-width: 0.25"/>
      </g>
     </g>
     <g id="text_4">
      <!-- 90 -->
      <g transform="translate(85.152287 97.297233) scale(0.05 -0.05)">
       <defs>
        <path id="ArialMT-39" d="M 350 1059 
L 891 1109 
Q 959 728 1153 556 
Q 1347 384 1650 384 
Q 1909 384 2104 503 
Q 2300 622 2425 820 
Q 2550 1019 2634 1356 
Q 2719 1694 2719 2044 
Q 2719 2081 2716 2156 
Q 2547 1888 2255 1720 
Q 1963 1553 1622 1553 
Q 1053 1553 659 1965 
Q 266 2378 266 3053 
Q 266 3750 677 4175 
Q 1088 4600 1706 4600 
Q 2153 4600 2523 4359 
Q 2894 4119 3086 3673 
Q 3278 3228 3278 2384 
Q 3278 1506 3087 986 
Q 2897 466 2520 194 
Q 2144 -78 1638 -78 
Q 1100 -78 759 220 
Q 419 519 350 1059 
z
M 2653 3081 
Q 2653 3566 2395 3850 
Q 2138 4134 1775 4134 
Q 1400 4134 1122 3828 
Q 844 3522 844 3034 
Q 844 2597 1108 2323 
Q 1372 2050 1759 2050 
Q 2150 2050 2401 2323 
Q 2653 2597 2653 3081 
z
" transform="scale(0.015625)"/>
       </defs>
       <use xlink:href="#ArialMT-39"/>
       <use xlink:href="#ArialMT-30" x="55.615234"/>
      </g>
     </g>
    </g>
    <g id="xtick_5">
     <g id="line2d_5">
      <g>
       <use xlink:href="#m932245dd45" x="104.18542" y="89.218327" style="stroke: #000000; stroke-width: 0.25"/>
      </g>
     </g>
     <g id="text_5">
      <!-- 100 -->
      <g transform="translate(100.014717 97.297233) scale(0.05 -0.05)">
       <defs>
        <path id="ArialMT-31" d="M 2384 0 
L 1822 0 
L 1822 3584 
Q 1619 3391 1289 3197 
Q 959 3003 697 2906 
L 697 3450 
Q 1169 3672 1522 3987 
Q 1875 4303 2022 4600 
L 2384 4600 
L 2384 0 
z
" transform="scale(0.015625)"/>
       </defs>
       <use xlink:href="#ArialMT-31"/>
       <use xlink:href="#ArialMT-30" x="55.615234"/>
       <use xlink:href="#ArialMT-30" x="111.230469"/>
      </g>
     </g>
    </g>
    <g id="xtick_6">
     <g id="line2d_6">
      <g>
       <use xlink:href="#m932245dd45" x="120.438084" y="89.218327" style="stroke: #000000; stroke-width: 0.25"/>
      </g>
     </g>
     <g id="text_6">
      <!-- 110 -->
      <g transform="translate(116.451756 97.297233) scale(0.05 -0.05)">
       <use xlink:href="#ArialMT-31"/>
       <use xlink:href="#ArialMT-31" x="48.240234"/>
       <use xlink:href="#ArialMT-30" x="103.855469"/>
      </g>
     </g>
    </g>
    <g id="xtick_7">
     <g id="line2d_7">
      <g>
       <use xlink:href="#m932245dd45" x="136.690748" y="89.218327" style="stroke: #000000; stroke-width: 0.25"/>
      </g>
     </g>
     <g id="text_7">
      <!-- 120 -->
      <g transform="translate(132.520044 97.297233) scale(0.05 -0.05)">
       <defs>
        <path id="ArialMT-32" d="M 3222 541 
L 3222 0 
L 194 0 
Q 188 203 259 391 
Q 375 700 629 1000 
Q 884 1300 1366 1694 
Q 2113 2306 2375 2664 
Q 2638 3022 2638 3341 
Q 2638 3675 2398 3904 
Q 2159 4134 1775 4134 
Q 1369 4134 1125 3890 
Q 881 3647 878 3216 
L 300 3275 
Q 359 3922 746 4261 
Q 1134 4600 1788 4600 
Q 2447 4600 2831 4234 
Q 3216 3869 3216 3328 
Q 3216 3053 3103 2787 
Q 2991 2522 2730 2228 
Q 2469 1934 1863 1422 
Q 1356 997 1212 845 
Q 1069 694 975 541 
L 3222 541 
z
" transform="scale(0.015625)"/>
       </defs>
       <use xlink:href="#ArialMT-31"/>
       <use xlink:href="#ArialMT-32" x="55.615234"/>
       <use xlink:href="#ArialMT-30" x="111.230469"/>
      </g>
     </g>
    </g>
    <g id="text_8">
     <!-- Bayley-III cognitive composite score [a.u.] -->
     <g transform="translate(32.578068 106.585671) scale(0.06 -0.06)">
      <defs>
       <path id="ArialMT-42" d="M 469 0 
L 469 4581 
L 2188 4581 
Q 2713 4581 3030 4442 
Q 3347 4303 3526 4014 
Q 3706 3725 3706 3409 
Q 3706 3116 3547 2856 
Q 3388 2597 3066 2438 
Q 3481 2316 3704 2022 
Q 3928 1728 3928 1328 
Q 3928 1006 3792 729 
Q 3656 453 3456 303 
Q 3256 153 2954 76 
Q 2653 0 2216 0 
L 469 0 
z
M 1075 2656 
L 2066 2656 
Q 2469 2656 2644 2709 
Q 2875 2778 2992 2937 
Q 3109 3097 3109 3338 
Q 3109 3566 3000 3739 
Q 2891 3913 2687 3977 
Q 2484 4041 1991 4041 
L 1075 4041 
L 1075 2656 
z
M 1075 541 
L 2216 541 
Q 2509 541 2628 563 
Q 2838 600 2978 687 
Q 3119 775 3209 942 
Q 3300 1109 3300 1328 
Q 3300 1584 3169 1773 
Q 3038 1963 2805 2039 
Q 2572 2116 2134 2116 
L 1075 2116 
L 1075 541 
z
" transform="scale(0.015625)"/>
       <path id="ArialMT-61" d="M 2588 409 
Q 2275 144 1986 34 
Q 1697 -75 1366 -75 
Q 819 -75 525 192 
Q 231 459 231 875 
Q 231 1119 342 1320 
Q 453 1522 633 1644 
Q 813 1766 1038 1828 
Q 1203 1872 1538 1913 
Q 2219 1994 2541 2106 
Q 2544 2222 2544 2253 
Q 2544 2597 2384 2738 
Q 2169 2928 1744 2928 
Q 1347 2928 1158 2789 
Q 969 2650 878 2297 
L 328 2372 
Q 403 2725 575 2942 
Q 747 3159 1072 3276 
Q 1397 3394 1825 3394 
Q 2250 3394 2515 3294 
Q 2781 3194 2906 3042 
Q 3031 2891 3081 2659 
Q 3109 2516 3109 2141 
L 3109 1391 
Q 3109 606 3145 398 
Q 3181 191 3288 0 
L 2700 0 
Q 2613 175 2588 409 
z
M 2541 1666 
Q 2234 1541 1622 1453 
Q 1275 1403 1131 1340 
Q 988 1278 909 1158 
Q 831 1038 831 891 
Q 831 666 1001 516 
Q 1172 366 1500 366 
Q 1825 366 2078 508 
Q 2331 650 2450 897 
Q 2541 1088 2541 1459 
L 2541 1666 
z
" transform="scale(0.015625)"/>
       <path id="ArialMT-79" d="M 397 -1278 
L 334 -750 
Q 519 -800 656 -800 
Q 844 -800 956 -737 
Q 1069 -675 1141 -563 
Q 1194 -478 1313 -144 
Q 1328 -97 1363 -6 
L 103 3319 
L 709 3319 
L 1400 1397 
Q 1534 1031 1641 628 
Q 1738 1016 1872 1384 
L 2581 3319 
L 3144 3319 
L 1881 -56 
Q 1678 -603 1566 -809 
Q 1416 -1088 1222 -1217 
Q 1028 -1347 759 -1347 
Q 597 -1347 397 -1278 
z
" transform="scale(0.015625)"/>
       <path id="ArialMT-6c" d="M 409 0 
L 409 4581 
L 972 4581 
L 972 0 
L 409 0 
z
" transform="scale(0.015625)"/>
       <path id="ArialMT-65" d="M 2694 1069 
L 3275 997 
Q 3138 488 2766 206 
Q 2394 -75 1816 -75 
Q 1088 -75 661 373 
Q 234 822 234 1631 
Q 234 2469 665 2931 
Q 1097 3394 1784 3394 
Q 2450 3394 2872 2941 
Q 3294 2488 3294 1666 
Q 3294 1616 3291 1516 
L 816 1516 
Q 847 969 1125 678 
Q 1403 388 1819 388 
Q 2128 388 2347 550 
Q 2566 713 2694 1069 
z
M 847 1978 
L 2700 1978 
Q 2663 2397 2488 2606 
Q 2219 2931 1791 2931 
Q 1403 2931 1139 2672 
Q 875 2413 847 1978 
z
" transform="scale(0.015625)"/>
       <path id="ArialMT-2d" d="M 203 1375 
L 203 1941 
L 1931 1941 
L 1931 1375 
L 203 1375 
z
" transform="scale(0.015625)"/>
       <path id="ArialMT-49" d="M 597 0 
L 597 4581 
L 1203 4581 
L 1203 0 
L 597 0 
z
" transform="scale(0.015625)"/>
       <path id="ArialMT-20" transform="scale(0.015625)"/>
       <path id="ArialMT-63" d="M 2588 1216 
L 3141 1144 
Q 3050 572 2676 248 
Q 2303 -75 1759 -75 
Q 1078 -75 664 370 
Q 250 816 250 1647 
Q 250 2184 428 2587 
Q 606 2991 970 3192 
Q 1334 3394 1763 3394 
Q 2303 3394 2647 3120 
Q 2991 2847 3088 2344 
L 2541 2259 
Q 2463 2594 2264 2762 
Q 2066 2931 1784 2931 
Q 1359 2931 1093 2626 
Q 828 2322 828 1663 
Q 828 994 1084 691 
Q 1341 388 1753 388 
Q 2084 388 2306 591 
Q 2528 794 2588 1216 
z
" transform="scale(0.015625)"/>
       <path id="ArialMT-6f" d="M 213 1659 
Q 213 2581 725 3025 
Q 1153 3394 1769 3394 
Q 2453 3394 2887 2945 
Q 3322 2497 3322 1706 
Q 3322 1066 3130 698 
Q 2938 331 2570 128 
Q 2203 -75 1769 -75 
Q 1072 -75 642 372 
Q 213 819 213 1659 
z
M 791 1659 
Q 791 1022 1069 705 
Q 1347 388 1769 388 
Q 2188 388 2466 706 
Q 2744 1025 2744 1678 
Q 2744 2294 2464 2611 
Q 2184 2928 1769 2928 
Q 1347 2928 1069 2612 
Q 791 2297 791 1659 
z
" transform="scale(0.015625)"/>
       <path id="ArialMT-67" d="M 319 -275 
L 866 -356 
Q 900 -609 1056 -725 
Q 1266 -881 1628 -881 
Q 2019 -881 2231 -725 
Q 2444 -569 2519 -288 
Q 2563 -116 2559 434 
Q 2191 0 1641 0 
Q 956 0 581 494 
Q 206 988 206 1678 
Q 206 2153 378 2554 
Q 550 2956 876 3175 
Q 1203 3394 1644 3394 
Q 2231 3394 2613 2919 
L 2613 3319 
L 3131 3319 
L 3131 450 
Q 3131 -325 2973 -648 
Q 2816 -972 2473 -1159 
Q 2131 -1347 1631 -1347 
Q 1038 -1347 672 -1080 
Q 306 -813 319 -275 
z
M 784 1719 
Q 784 1066 1043 766 
Q 1303 466 1694 466 
Q 2081 466 2343 764 
Q 2606 1063 2606 1700 
Q 2606 2309 2336 2618 
Q 2066 2928 1684 2928 
Q 1309 2928 1046 2623 
Q 784 2319 784 1719 
z
" transform="scale(0.015625)"/>
       <path id="ArialMT-6e" d="M 422 0 
L 422 3319 
L 928 3319 
L 928 2847 
Q 1294 3394 1984 3394 
Q 2284 3394 2536 3286 
Q 2788 3178 2913 3003 
Q 3038 2828 3088 2588 
Q 3119 2431 3119 2041 
L 3119 0 
L 2556 0 
L 2556 2019 
Q 2556 2363 2490 2533 
Q 2425 2703 2258 2804 
Q 2091 2906 1866 2906 
Q 1506 2906 1245 2678 
Q 984 2450 984 1813 
L 984 0 
L 422 0 
z
" transform="scale(0.015625)"/>
       <path id="ArialMT-69" d="M 425 3934 
L 425 4581 
L 988 4581 
L 988 3934 
L 425 3934 
z
M 425 0 
L 425 3319 
L 988 3319 
L 988 0 
L 425 0 
z
" transform="scale(0.015625)"/>
       <path id="ArialMT-74" d="M 1650 503 
L 1731 6 
Q 1494 -44 1306 -44 
Q 1000 -44 831 53 
Q 663 150 594 308 
Q 525 466 525 972 
L 525 2881 
L 113 2881 
L 113 3319 
L 525 3319 
L 525 4141 
L 1084 4478 
L 1084 3319 
L 1650 3319 
L 1650 2881 
L 1084 2881 
L 1084 941 
Q 1084 700 1114 631 
Q 1144 563 1211 522 
Q 1278 481 1403 481 
Q 1497 481 1650 503 
z
" transform="scale(0.015625)"/>
       <path id="ArialMT-76" d="M 1344 0 
L 81 3319 
L 675 3319 
L 1388 1331 
Q 1503 1009 1600 663 
Q 1675 925 1809 1294 
L 2547 3319 
L 3125 3319 
L 1869 0 
L 1344 0 
z
" transform="scale(0.015625)"/>
       <path id="ArialMT-6d" d="M 422 0 
L 422 3319 
L 925 3319 
L 925 2853 
Q 1081 3097 1340 3245 
Q 1600 3394 1931 3394 
Q 2300 3394 2536 3241 
Q 2772 3088 2869 2813 
Q 3263 3394 3894 3394 
Q 4388 3394 4653 3120 
Q 4919 2847 4919 2278 
L 4919 0 
L 4359 0 
L 4359 2091 
Q 4359 2428 4304 2576 
Q 4250 2725 4106 2815 
Q 3963 2906 3769 2906 
Q 3419 2906 3187 2673 
Q 2956 2441 2956 1928 
L 2956 0 
L 2394 0 
L 2394 2156 
Q 2394 2531 2256 2718 
Q 2119 2906 1806 2906 
Q 1569 2906 1367 2781 
Q 1166 2656 1075 2415 
Q 984 2175 984 1722 
L 984 0 
L 422 0 
z
" transform="scale(0.015625)"/>
       <path id="ArialMT-70" d="M 422 -1272 
L 422 3319 
L 934 3319 
L 934 2888 
Q 1116 3141 1344 3267 
Q 1572 3394 1897 3394 
Q 2322 3394 2647 3175 
Q 2972 2956 3137 2557 
Q 3303 2159 3303 1684 
Q 3303 1175 3120 767 
Q 2938 359 2589 142 
Q 2241 -75 1856 -75 
Q 1575 -75 1351 44 
Q 1128 163 984 344 
L 984 -1272 
L 422 -1272 
z
M 931 1641 
Q 931 1000 1190 694 
Q 1450 388 1819 388 
Q 2194 388 2461 705 
Q 2728 1022 2728 1688 
Q 2728 2322 2467 2637 
Q 2206 2953 1844 2953 
Q 1484 2953 1207 2617 
Q 931 2281 931 1641 
z
" transform="scale(0.015625)"/>
       <path id="ArialMT-73" d="M 197 991 
L 753 1078 
Q 800 744 1014 566 
Q 1228 388 1613 388 
Q 2000 388 2187 545 
Q 2375 703 2375 916 
Q 2375 1106 2209 1216 
Q 2094 1291 1634 1406 
Q 1016 1563 777 1677 
Q 538 1791 414 1992 
Q 291 2194 291 2438 
Q 291 2659 392 2848 
Q 494 3038 669 3163 
Q 800 3259 1026 3326 
Q 1253 3394 1513 3394 
Q 1903 3394 2198 3281 
Q 2494 3169 2634 2976 
Q 2775 2784 2828 2463 
L 2278 2388 
Q 2241 2644 2061 2787 
Q 1881 2931 1553 2931 
Q 1166 2931 1000 2803 
Q 834 2675 834 2503 
Q 834 2394 903 2306 
Q 972 2216 1119 2156 
Q 1203 2125 1616 2013 
Q 2213 1853 2448 1751 
Q 2684 1650 2818 1456 
Q 2953 1263 2953 975 
Q 2953 694 2789 445 
Q 2625 197 2315 61 
Q 2006 -75 1616 -75 
Q 969 -75 630 194 
Q 291 463 197 991 
z
" transform="scale(0.015625)"/>
       <path id="ArialMT-72" d="M 416 0 
L 416 3319 
L 922 3319 
L 922 2816 
Q 1116 3169 1280 3281 
Q 1444 3394 1641 3394 
Q 1925 3394 2219 3213 
L 2025 2691 
Q 1819 2813 1613 2813 
Q 1428 2813 1281 2702 
Q 1134 2591 1072 2394 
Q 978 2094 978 1738 
L 978 0 
L 416 0 
z
" transform="scale(0.015625)"/>
       <path id="ArialMT-5b" d="M 434 -1272 
L 434 4581 
L 1675 4581 
L 1675 4116 
L 997 4116 
L 997 -806 
L 1675 -806 
L 1675 -1272 
L 434 -1272 
z
" transform="scale(0.015625)"/>
       <path id="ArialMT-2e" d="M 581 0 
L 581 641 
L 1222 641 
L 1222 0 
L 581 0 
z
" transform="scale(0.015625)"/>
       <path id="ArialMT-75" d="M 2597 0 
L 2597 488 
Q 2209 -75 1544 -75 
Q 1250 -75 995 37 
Q 741 150 617 320 
Q 494 491 444 738 
Q 409 903 409 1263 
L 409 3319 
L 972 3319 
L 972 1478 
Q 972 1038 1006 884 
Q 1059 663 1231 536 
Q 1403 409 1656 409 
Q 1909 409 2131 539 
Q 2353 669 2445 892 
Q 2538 1116 2538 1541 
L 2538 3319 
L 3100 3319 
L 3100 0 
L 2597 0 
z
" transform="scale(0.015625)"/>
       <path id="ArialMT-5d" d="M 1363 -1272 
L 122 -1272 
L 122 -806 
L 800 -806 
L 800 4116 
L 122 4116 
L 122 4581 
L 1363 4581 
L 1363 -1272 
z
" transform="scale(0.015625)"/>
      </defs>
      <use xlink:href="#ArialMT-42"/>
      <use xlink:href="#ArialMT-61" x="66.699219"/>
      <use xlink:href="#ArialMT-79" x="122.314453"/>
      <use xlink:href="#ArialMT-6c" x="172.314453"/>
      <use xlink:href="#ArialMT-65" x="194.53125"/>
      <use xlink:href="#ArialMT-79" x="250.146484"/>
      <use xlink:href="#ArialMT-2d" x="300.146484"/>
      <use xlink:href="#ArialMT-49" x="333.447266"/>
      <use xlink:href="#ArialMT-49" x="361.230469"/>
      <use xlink:href="#ArialMT-49" x="389.013672"/>
      <use xlink:href="#ArialMT-20" x="416.796875"/>
      <use xlink:href="#ArialMT-63" x="444.580078"/>
      <use xlink:href="#ArialMT-6f" x="494.580078"/>
      <use xlink:href="#ArialMT-67" x="550.195312"/>
      <use xlink:href="#ArialMT-6e" x="605.810547"/>
      <use xlink:href="#ArialMT-69" x="661.425781"/>
      <use xlink:href="#ArialMT-74" x="683.642578"/>
      <use xlink:href="#ArialMT-69" x="711.425781"/>
      <use xlink:href="#ArialMT-76" x="733.642578"/>
      <use xlink:href="#ArialMT-65" x="783.642578"/>
      <use xlink:href="#ArialMT-20" x="839.257812"/>
      <use xlink:href="#ArialMT-63" x="867.041016"/>
      <use xlink:href="#ArialMT-6f" x="917.041016"/>
      <use xlink:href="#ArialMT-6d" x="972.65625"/>
      <use xlink:href="#ArialMT-70" x="1055.957031"/>
      <use xlink:href="#ArialMT-6f" x="1111.572266"/>
      <use xlink:href="#ArialMT-73" x="1167.1875"/>
      <use xlink:href="#ArialMT-69" x="1217.1875"/>
      <use xlink:href="#ArialMT-74" x="1239.404297"/>
      <use xlink:href="#ArialMT-65" x="1267.1875"/>
      <use xlink:href="#ArialMT-20" x="1322.802734"/>
      <use xlink:href="#ArialMT-73" x="1350.585938"/>
      <use xlink:href="#ArialMT-63" x="1400.585938"/>
      <use xlink:href="#ArialMT-6f" x="1450.585938"/>
      <use xlink:href="#ArialMT-72" x="1506.201172"/>
      <use xlink:href="#ArialMT-65" x="1539.501953"/>
      <use xlink:href="#ArialMT-20" x="1595.117188"/>
      <use xlink:href="#ArialMT-5b" x="1622.900391"/>
      <use xlink:href="#ArialMT-61" x="1650.683594"/>
      <use xlink:href="#ArialMT-2e" x="1706.298828"/>
      <use xlink:href="#ArialMT-75" x="1734.082031"/>
      <use xlink:href="#ArialMT-2e" x="1789.697266"/>
      <use xlink:href="#ArialMT-5d" x="1817.480469"/>
     </g>
    </g>
   </g>
   <g id="matplotlib.axis_2">
    <g id="ytick_1">
     <g id="line2d_8">
      <defs>
       <path id="m9413f41227" d="M 0 0 
L -3.5 0 
" style="stroke: #000000; stroke-width: 0.25"/>
      </defs>
      <g>
       <use xlink:href="#m9413f41227" x="25.36" y="85.691647" style="stroke: #000000; stroke-width: 0.25"/>
      </g>
     </g>
     <g id="text_9">
      <!-- 2 -->
      <g transform="translate(15.159219 87.4811) scale(0.05 -0.05)">
       <defs>
        <path id="ArialMT-2212" d="M 3381 1997 
L 356 1997 
L 356 2522 
L 3381 2522 
L 3381 1997 
z
" transform="scale(0.015625)"/>
       </defs>
       <use xlink:href="#ArialMT-2212"/>
       <use xlink:href="#ArialMT-32" x="58.398438"/>
      </g>
     </g>
    </g>
    <g id="ytick_2">
     <g id="line2d_9">
      <g>
       <use xlink:href="#m9413f41227" x="25.36" y="70.04036" style="stroke: #000000; stroke-width: 0.25"/>
      </g>
     </g>
     <g id="text_10">
      <!-- 1 -->
      <g transform="translate(15.159219 71.829813) scale(0.05 -0.05)">
       <use xlink:href="#ArialMT-2212"/>
       <use xlink:href="#ArialMT-31" x="58.398438"/>
      </g>
     </g>
    </g>
    <g id="ytick_3">
     <g id="line2d_10">
      <g>
       <use xlink:href="#m9413f41227" x="25.36" y="54.389072" style="stroke: #000000; stroke-width: 0.25"/>
      </g>
     </g>
     <g id="text_11">
      <!-- 0 -->
      <g transform="translate(18.079531 56.178525) scale(0.05 -0.05)">
       <use xlink:href="#ArialMT-30"/>
      </g>
     </g>
    </g>
    <g id="ytick_4">
     <g id="line2d_11">
      <g>
       <use xlink:href="#m9413f41227" x="25.36" y="38.737785" style="stroke: #000000; stroke-width: 0.25"/>
      </g>
     </g>
     <g id="text_12">
      <!-- 1 -->
      <g transform="translate(18.079531 40.527238) scale(0.05 -0.05)">
       <use xlink:href="#ArialMT-31"/>
      </g>
     </g>
    </g>
    <g id="ytick_5">
     <g id="line2d_12">
      <g>
       <use xlink:href="#m9413f41227" x="25.36" y="23.086498" style="stroke: #000000; stroke-width: 0.25"/>
      </g>
     </g>
     <g id="text_13">
      <!-- 2 -->
      <g transform="translate(18.079531 24.875951) scale(0.05 -0.05)">
       <use xlink:href="#ArialMT-32"/>
      </g>
     </g>
    </g>
    <g id="ytick_6">
     <g id="line2d_13">
      <g>
       <use xlink:href="#m9413f41227" x="25.36" y="7.43521" style="stroke: #000000; stroke-width: 0.25"/>
      </g>
     </g>
     <g id="text_14">
      <!-- 3 -->
      <g transform="translate(18.079531 9.224663) scale(0.05 -0.05)">
       <defs>
        <path id="ArialMT-33" d="M 269 1209 
L 831 1284 
Q 928 806 1161 595 
Q 1394 384 1728 384 
Q 2125 384 2398 659 
Q 2672 934 2672 1341 
Q 2672 1728 2419 1979 
Q 2166 2231 1775 2231 
Q 1616 2231 1378 2169 
L 1441 2663 
Q 1497 2656 1531 2656 
Q 1891 2656 2178 2843 
Q 2466 3031 2466 3422 
Q 2466 3731 2256 3934 
Q 2047 4138 1716 4138 
Q 1388 4138 1169 3931 
Q 950 3725 888 3313 
L 325 3413 
Q 428 3978 793 4289 
Q 1159 4600 1703 4600 
Q 2078 4600 2393 4439 
Q 2709 4278 2876 4000 
Q 3044 3722 3044 3409 
Q 3044 3113 2884 2869 
Q 2725 2625 2413 2481 
Q 2819 2388 3044 2092 
Q 3269 1797 3269 1353 
Q 3269 753 2831 336 
Q 2394 -81 1725 -81 
Q 1122 -81 723 278 
Q 325 638 269 1209 
z
" transform="scale(0.015625)"/>
       </defs>
       <use xlink:href="#ArialMT-33"/>
      </g>
     </g>
    </g>
    <g id="text_15">
     <!-- CTh PC1 [a.u.] -->
     <g transform="translate(9.966719 67.149476) rotate(-90) scale(0.06 -0.06)">
      <defs>
       <path id="ArialMT-43" d="M 3763 1606 
L 4369 1453 
Q 4178 706 3683 314 
Q 3188 -78 2472 -78 
Q 1731 -78 1267 223 
Q 803 525 561 1097 
Q 319 1669 319 2325 
Q 319 3041 592 3573 
Q 866 4106 1370 4382 
Q 1875 4659 2481 4659 
Q 3169 4659 3637 4309 
Q 4106 3959 4291 3325 
L 3694 3184 
Q 3534 3684 3231 3912 
Q 2928 4141 2469 4141 
Q 1941 4141 1586 3887 
Q 1231 3634 1087 3207 
Q 944 2781 944 2328 
Q 944 1744 1114 1308 
Q 1284 872 1643 656 
Q 2003 441 2422 441 
Q 2931 441 3284 734 
Q 3638 1028 3763 1606 
z
" transform="scale(0.015625)"/>
       <path id="ArialMT-54" d="M 1659 0 
L 1659 4041 
L 150 4041 
L 150 4581 
L 3781 4581 
L 3781 4041 
L 2266 4041 
L 2266 0 
L 1659 0 
z
" transform="scale(0.015625)"/>
       <path id="ArialMT-68" d="M 422 0 
L 422 4581 
L 984 4581 
L 984 2938 
Q 1378 3394 1978 3394 
Q 2347 3394 2619 3248 
Q 2891 3103 3008 2847 
Q 3125 2591 3125 2103 
L 3125 0 
L 2563 0 
L 2563 2103 
Q 2563 2525 2380 2717 
Q 2197 2909 1863 2909 
Q 1613 2909 1392 2779 
Q 1172 2650 1078 2428 
Q 984 2206 984 1816 
L 984 0 
L 422 0 
z
" transform="scale(0.015625)"/>
       <path id="ArialMT-50" d="M 494 0 
L 494 4581 
L 2222 4581 
Q 2678 4581 2919 4538 
Q 3256 4481 3484 4323 
Q 3713 4166 3852 3881 
Q 3991 3597 3991 3256 
Q 3991 2672 3619 2267 
Q 3247 1863 2275 1863 
L 1100 1863 
L 1100 0 
L 494 0 
z
M 1100 2403 
L 2284 2403 
Q 2872 2403 3119 2622 
Q 3366 2841 3366 3238 
Q 3366 3525 3220 3729 
Q 3075 3934 2838 4000 
Q 2684 4041 2272 4041 
L 1100 4041 
L 1100 2403 
z
" transform="scale(0.015625)"/>
      </defs>
      <use xlink:href="#ArialMT-43"/>
      <use xlink:href="#ArialMT-54" x="72.216797"/>
      <use xlink:href="#ArialMT-68" x="133.300781"/>
      <use xlink:href="#ArialMT-20" x="188.916016"/>
      <use xlink:href="#ArialMT-50" x="216.699219"/>
      <use xlink:href="#ArialMT-43" x="283.398438"/>
      <use xlink:href="#ArialMT-31" x="355.615234"/>
      <use xlink:href="#ArialMT-20" x="411.230469"/>
      <use xlink:href="#ArialMT-5b" x="439.013672"/>
      <use xlink:href="#ArialMT-61" x="466.796875"/>
      <use xlink:href="#ArialMT-2e" x="522.412109"/>
      <use xlink:href="#ArialMT-75" x="550.195312"/>
      <use xlink:href="#ArialMT-2e" x="605.810547"/>
      <use xlink:href="#ArialMT-5d" x="633.59375"/>
     </g>
    </g>
   </g>
   <g id="line2d_14">
    <path d="M 31.048432 46.579763 
L 32.197611 46.704212 
L 33.346789 46.82866 
L 34.495967 46.953109 
L 35.645145 47.077558 
L 36.794324 47.202006 
L 37.943502 47.326455 
L 39.09268 47.450904 
L 40.241858 47.575352 
L 41.391037 47.699801 
L 42.540215 47.82425 
L 43.689393 47.948698 
L 44.838571 48.073147 
L 45.98775 48.197596 
L 47.136928 48.322044 
L 48.286106 48.446493 
L 49.435284 48.570942 
L 50.584463 48.69539 
L 51.733641 48.819839 
L 52.882819 48.944288 
L 54.031997 49.068737 
L 55.181176 49.193185 
L 56.330354 49.317634 
L 57.479532 49.442083 
L 58.62871 49.566531 
L 59.777889 49.69098 
L 60.927067 49.815429 
L 62.076245 49.939877 
L 63.225423 50.064326 
L 64.374602 50.188775 
L 65.52378 50.313223 
L 66.672958 50.437672 
L 67.822136 50.562121 
L 68.971315 50.686569 
L 70.120493 50.811018 
L 71.269671 50.935467 
L 72.418849 51.059915 
L 73.568028 51.184364 
L 74.717206 51.308813 
L 75.866384 51.433261 
L 77.015562 51.55771 
L 78.164741 51.682159 
L 79.313919 51.806608 
L 80.463097 51.931056 
L 81.612276 52.055505 
L 82.761454 52.179954 
L 83.910632 52.304402 
L 85.05981 52.428851 
L 86.208989 52.5533 
L 87.358167 52.677748 
L 88.507345 52.802197 
L 89.656523 52.926646 
L 90.805702 53.051094 
L 91.95488 53.175543 
L 93.104058 53.299992 
L 94.253236 53.42444 
L 95.402415 53.548889 
L 96.551593 53.673338 
L 97.700771 53.797786 
L 98.849949 53.922235 
L 99.999128 54.046684 
L 101.148306 54.171132 
L 102.297484 54.295581 
L 103.446662 54.42003 
L 104.595841 54.544479 
L 105.745019 54.668927 
L 106.894197 54.793376 
L 108.043375 54.917825 
L 109.192554 55.042273 
L 110.341732 55.166722 
L 111.49091 55.291171 
L 112.640088 55.415619 
L 113.789267 55.540068 
L 114.938445 55.664517 
L 116.087623 55.788965 
L 117.236801 55.913414 
L 118.38598 56.037863 
L 119.535158 56.162311 
L 120.684336 56.28676 
L 121.833514 56.411209 
L 122.982693 56.535657 
L 124.131871 56.660106 
L 125.281049 56.784555 
L 126.430227 56.909003 
L 127.579406 57.033452 
L 128.728584 57.157901 
L 129.877762 57.282349 
L 131.02694 57.406798 
L 132.176119 57.531247 
L 133.325297 57.655696 
L 134.474475 57.780144 
L 135.623653 57.904593 
L 136.772832 58.029042 
L 137.92201 58.15349 
L 139.071188 58.277939 
L 140.220366 58.402388 
L 141.369545 58.526836 
L 142.518723 58.651285 
L 143.667901 58.775734 
L 144.817079 58.900182 
" clip-path="url(#p14a204dd0f)" style="fill: none; stroke: #ff8c00; stroke-width: 0.75; stroke-linecap: square"/>
   </g>
   <g id="patch_3">
    <path d="M 25.36 89.218327 
L 25.36 5.4 
" style="fill: none; stroke: #000000; stroke-width: 0.25; stroke-linejoin: miter; stroke-linecap: square"/>
   </g>
   <g id="patch_4">
    <path d="M 25.36 89.218327 
L 150.505512 89.218327 
" style="fill: none; stroke: #000000; stroke-width: 0.25; stroke-linejoin: miter; stroke-linecap: square"/>
   </g>
   <g id="text_16">
    <g id="patch_5">
     <path d="M 29.114365 18.699023 
L 57.764365 18.699023 
Q 59.264365 18.699023 59.264365 17.199023 
L 59.264365 7.132617 
Q 59.264365 5.632617 57.764365 5.632617 
L 29.114365 5.632617 
Q 27.614365 5.632617 27.614365 7.132617 
L 27.614365 17.199023 
Q 27.614365 18.699023 29.114365 18.699023 
z
" style="fill: #c0c0c0; opacity: 0.4; stroke: #c0c0c0; stroke-linejoin: miter"/>
    </g>
    <!-- $r=-0.162$ -->
    <g transform="translate(29.114365 10.655273) scale(0.05 -0.05)">
     <defs>
      <path id="DejaVuSans-Oblique-72" d="M 2853 2969 
Q 2766 3016 2653 3041 
Q 2541 3066 2413 3066 
Q 1953 3066 1609 2717 
Q 1266 2369 1153 1784 
L 800 0 
L 225 0 
L 909 3500 
L 1484 3500 
L 1375 2956 
Q 1603 3259 1920 3421 
Q 2238 3584 2597 3584 
Q 2691 3584 2781 3573 
Q 2872 3563 2963 3538 
L 2853 2969 
z
" transform="scale(0.015625)"/>
      <path id="DejaVuSans-3d" d="M 678 2906 
L 4684 2906 
L 4684 2381 
L 678 2381 
L 678 2906 
z
M 678 1631 
L 4684 1631 
L 4684 1100 
L 678 1100 
L 678 1631 
z
" transform="scale(0.015625)"/>
      <path id="DejaVuSans-2212" d="M 678 2272 
L 4684 2272 
L 4684 1741 
L 678 1741 
L 678 2272 
z
" transform="scale(0.015625)"/>
      <path id="DejaVuSans-30" d="M 2034 4250 
Q 1547 4250 1301 3770 
Q 1056 3291 1056 2328 
Q 1056 1369 1301 889 
Q 1547 409 2034 409 
Q 2525 409 2770 889 
Q 3016 1369 3016 2328 
Q 3016 3291 2770 3770 
Q 2525 4250 2034 4250 
z
M 2034 4750 
Q 2819 4750 3233 4129 
Q 3647 3509 3647 2328 
Q 3647 1150 3233 529 
Q 2819 -91 2034 -91 
Q 1250 -91 836 529 
Q 422 1150 422 2328 
Q 422 3509 836 4129 
Q 1250 4750 2034 4750 
z
" transform="scale(0.015625)"/>
      <path id="DejaVuSans-2e" d="M 684 794 
L 1344 794 
L 1344 0 
L 684 0 
L 684 794 
z
" transform="scale(0.015625)"/>
      <path id="DejaVuSans-31" d="M 794 531 
L 1825 531 
L 1825 4091 
L 703 3866 
L 703 4441 
L 1819 4666 
L 2450 4666 
L 2450 531 
L 3481 531 
L 3481 0 
L 794 0 
L 794 531 
z
" transform="scale(0.015625)"/>
      <path id="DejaVuSans-36" d="M 2113 2584 
Q 1688 2584 1439 2293 
Q 1191 2003 1191 1497 
Q 1191 994 1439 701 
Q 1688 409 2113 409 
Q 2538 409 2786 701 
Q 3034 994 3034 1497 
Q 3034 2003 2786 2293 
Q 2538 2584 2113 2584 
z
M 3366 4563 
L 3366 3988 
Q 3128 4100 2886 4159 
Q 2644 4219 2406 4219 
Q 1781 4219 1451 3797 
Q 1122 3375 1075 2522 
Q 1259 2794 1537 2939 
Q 1816 3084 2150 3084 
Q 2853 3084 3261 2657 
Q 3669 2231 3669 1497 
Q 3669 778 3244 343 
Q 2819 -91 2113 -91 
Q 1303 -91 875 529 
Q 447 1150 447 2328 
Q 447 3434 972 4092 
Q 1497 4750 2381 4750 
Q 2619 4750 2861 4703 
Q 3103 4656 3366 4563 
z
" transform="scale(0.015625)"/>
      <path id="DejaVuSans-32" d="M 1228 531 
L 3431 531 
L 3431 0 
L 469 0 
L 469 531 
Q 828 903 1448 1529 
Q 2069 2156 2228 2338 
Q 2531 2678 2651 2914 
Q 2772 3150 2772 3378 
Q 2772 3750 2511 3984 
Q 2250 4219 1831 4219 
Q 1534 4219 1204 4116 
Q 875 4013 500 3803 
L 500 4441 
Q 881 4594 1212 4672 
Q 1544 4750 1819 4750 
Q 2544 4750 2975 4387 
Q 3406 4025 3406 3419 
Q 3406 3131 3298 2873 
Q 3191 2616 2906 2266 
Q 2828 2175 2409 1742 
Q 1991 1309 1228 531 
z
" transform="scale(0.015625)"/>
     </defs>
     <use xlink:href="#DejaVuSans-Oblique-72" transform="translate(0 0.78125)"/>
     <use xlink:href="#DejaVuSans-3d" transform="translate(60.595703 0.78125)"/>
     <use xlink:href="#DejaVuSans-2212" transform="translate(183.349609 0.78125)"/>
     <use xlink:href="#DejaVuSans-30" transform="translate(286.621094 0.78125)"/>
     <use xlink:href="#DejaVuSans-2e" transform="translate(350.244141 0.78125)"/>
     <use xlink:href="#DejaVuSans-31" transform="translate(382.03125 0.78125)"/>
     <use xlink:href="#DejaVuSans-36" transform="translate(445.654297 0.78125)"/>
     <use xlink:href="#DejaVuSans-32" transform="translate(509.277344 0.78125)"/>
    </g>
    <!-- $p=0.036$ -->
    <g transform="translate(29.114365 16.149023) scale(0.05 -0.05)">
     <defs>
      <path id="DejaVuSans-Oblique-70" d="M 3175 2156 
Q 3175 2616 2975 2859 
Q 2775 3103 2400 3103 
Q 2144 3103 1911 2972 
Q 1678 2841 1497 2591 
Q 1319 2344 1212 1994 
Q 1106 1644 1106 1300 
Q 1106 863 1306 627 
Q 1506 391 1875 391 
Q 2147 391 2380 519 
Q 2613 647 2778 891 
Q 2956 1147 3065 1494 
Q 3175 1841 3175 2156 
z
M 1394 2969 
Q 1625 3272 1939 3428 
Q 2253 3584 2638 3584 
Q 3175 3584 3472 3232 
Q 3769 2881 3769 2247 
Q 3769 1728 3584 1258 
Q 3400 788 3053 416 
Q 2822 169 2531 39 
Q 2241 -91 1919 -91 
Q 1547 -91 1294 64 
Q 1041 219 916 525 
L 556 -1331 
L -19 -1331 
L 922 3500 
L 1497 3500 
L 1394 2969 
z
" transform="scale(0.015625)"/>
      <path id="DejaVuSans-33" d="M 2597 2516 
Q 3050 2419 3304 2112 
Q 3559 1806 3559 1356 
Q 3559 666 3084 287 
Q 2609 -91 1734 -91 
Q 1441 -91 1130 -33 
Q 819 25 488 141 
L 488 750 
Q 750 597 1062 519 
Q 1375 441 1716 441 
Q 2309 441 2620 675 
Q 2931 909 2931 1356 
Q 2931 1769 2642 2001 
Q 2353 2234 1838 2234 
L 1294 2234 
L 1294 2753 
L 1863 2753 
Q 2328 2753 2575 2939 
Q 2822 3125 2822 3475 
Q 2822 3834 2567 4026 
Q 2313 4219 1838 4219 
Q 1578 4219 1281 4162 
Q 984 4106 628 3988 
L 628 4550 
Q 988 4650 1302 4700 
Q 1616 4750 1894 4750 
Q 2613 4750 3031 4423 
Q 3450 4097 3450 3541 
Q 3450 3153 3228 2886 
Q 3006 2619 2597 2516 
z
" transform="scale(0.015625)"/>
     </defs>
     <use xlink:href="#DejaVuSans-Oblique-70" transform="translate(0 0.78125)"/>
     <use xlink:href="#DejaVuSans-3d" transform="translate(82.958984 0.78125)"/>
     <use xlink:href="#DejaVuSans-30" transform="translate(186.230469 0.78125)"/>
     <use xlink:href="#DejaVuSans-2e" transform="translate(249.853516 0.78125)"/>
     <use xlink:href="#DejaVuSans-30" transform="translate(281.640625 0.78125)"/>
     <use xlink:href="#DejaVuSans-33" transform="translate(345.263672 0.78125)"/>
     <use xlink:href="#DejaVuSans-36" transform="translate(408.886719 0.78125)"/>
    </g>
   </g>
  </g>
 </g>
 <defs>
  <clipPath id="p14a204dd0f">
   <rect x="25.36" y="5.4" width="125.145512" height="83.818327"/>
  </clipPath>
 </defs>
</svg>
