<?xml version="1.0" encoding="utf-8" standalone="no"?>
<!DOCTYPE svg PUBLIC "-//W3C//DTD SVG 1.1//EN"
  "http://www.w3.org/Graphics/SVG/1.1/DTD/svg11.dtd">
<svg xmlns:xlink="http://www.w3.org/1999/xlink" width="155.905512pt" height="113.385827pt" viewBox="0 0 155.905512 113.385827" xmlns="http://www.w3.org/2000/svg" version="1.1">
 <metadata>
  <rdf:RDF xmlns:dc="http://purl.org/dc/elements/1.1/" xmlns:cc="http://creativecommons.org/ns#" xmlns:rdf="http://www.w3.org/1999/02/22-rdf-syntax-ns#">
   <cc:Work>
    <dc:type rdf:resource="http://purl.org/dc/dcmitype/StillImage"/>
    <dc:date>2025-06-11T09:26:11.406601</dc:date>
    <dc:format>image/svg+xml</dc:format>
    <dc:creator>
     <cc:Agent>
      <dc:title>Matplotlib v3.9.2, https://matplotlib.org/</dc:title>
     </cc:Agent>
    </dc:creator>
   </cc:Work>
  </rdf:RDF>
 </metadata>
 <defs>
  <style type="text/css">*{stroke-linejoin: round; stroke-linecap: butt}</style>
 </defs>
 <g id="figure_1">
  <g id="patch_1">
   <path d="M 0 113.385827 
L 155.905512 113.385827 
L 155.905512 0 
L 0 0 
z
" style="fill: #ffffff"/>
  </g>
  <g id="axes_1">
   <g id="patch_2">
    <path d="M 22.6675 89.218327 
L 150.505512 89.218327 
L 150.505512 5.4 
L 22.6675 5.4 
z
" style="fill: #ffffff"/>
   </g>
   <g id="PathCollection_1">
    <defs>
     <path id="C0_0_5e465d2cac" d="M 0 0.866025 
C 0.229673 0.866025 0.449969 0.774776 0.612372 0.612372 
C 0.774776 0.449969 0.866025 0.229673 0.866025 -0 
C 0.866025 -0.229673 0.774776 -0.449969 0.612372 -0.612372 
C 0.449969 -0.774776 0.229673 -0.866025 0 -0.866025 
C -0.229673 -0.866025 -0.449969 -0.774776 -0.612372 -0.612372 
C -0.774776 -0.449969 -0.866025 -0.229673 -0.866025 0 
C -0.866025 0.229673 -0.774776 0.449969 -0.612372 0.612372 
C -0.449969 0.774776 -0.229673 0.866025 0 0.866025 
z
"/>
    </defs>
    <g clip-path="url(#p5d5dee9878)">
     <use xlink:href="#C0_0_5e465d2cac" x="86.586506" y="85.408403" style="fill: #ff8c00; fill-opacity: 0.8"/>
    </g>
    <g clip-path="url(#p5d5dee9878)">
     <use xlink:href="#C0_0_5e465d2cac" x="36.779488" y="85.408403" style="fill: #ff8c00; fill-opacity: 0.8"/>
    </g>
    <g clip-path="url(#p5d5dee9878)">
     <use xlink:href="#C0_0_5e465d2cac" x="69.984167" y="85.408403" style="fill: #ff8c00; fill-opacity: 0.8"/>
    </g>
    <g clip-path="url(#p5d5dee9878)">
     <use xlink:href="#C0_0_5e465d2cac" x="94.887676" y="72.708656" style="fill: #ff8c00; fill-opacity: 0.8"/>
    </g>
    <g clip-path="url(#p5d5dee9878)">
     <use xlink:href="#C0_0_5e465d2cac" x="136.393523" y="72.708656" style="fill: #ff8c00; fill-opacity: 0.8"/>
    </g>
    <g clip-path="url(#p5d5dee9878)">
     <use xlink:href="#C0_0_5e465d2cac" x="103.188845" y="72.708656" style="fill: #ff8c00; fill-opacity: 0.8"/>
    </g>
    <g clip-path="url(#p5d5dee9878)">
     <use xlink:href="#C0_0_5e465d2cac" x="103.188845" y="72.708656" style="fill: #ff8c00; fill-opacity: 0.8"/>
    </g>
    <g clip-path="url(#p5d5dee9878)">
     <use xlink:href="#C0_0_5e465d2cac" x="144.694693" y="85.408403" style="fill: #ff8c00; fill-opacity: 0.8"/>
    </g>
    <g clip-path="url(#p5d5dee9878)">
     <use xlink:href="#C0_0_5e465d2cac" x="111.490015" y="47.309163" style="fill: #ff8c00; fill-opacity: 0.8"/>
    </g>
    <g clip-path="url(#p5d5dee9878)">
     <use xlink:href="#C0_0_5e465d2cac" x="128.092354" y="85.408403" style="fill: #ff8c00; fill-opacity: 0.8"/>
    </g>
    <g clip-path="url(#p5d5dee9878)">
     <use xlink:href="#C0_0_5e465d2cac" x="111.490015" y="85.408403" style="fill: #ff8c00; fill-opacity: 0.8"/>
    </g>
    <g clip-path="url(#p5d5dee9878)">
     <use xlink:href="#C0_0_5e465d2cac" x="69.984167" y="72.708656" style="fill: #ff8c00; fill-opacity: 0.8"/>
    </g>
    <g clip-path="url(#p5d5dee9878)">
     <use xlink:href="#C0_0_5e465d2cac" x="53.381828" y="85.408403" style="fill: #ff8c00; fill-opacity: 0.8"/>
    </g>
    <g clip-path="url(#p5d5dee9878)">
     <use xlink:href="#C0_0_5e465d2cac" x="94.887676" y="85.408403" style="fill: #ff8c00; fill-opacity: 0.8"/>
    </g>
    <g clip-path="url(#p5d5dee9878)">
     <use xlink:href="#C0_0_5e465d2cac" x="119.791184" y="60.00891" style="fill: #ff8c00; fill-opacity: 0.8"/>
    </g>
    <g clip-path="url(#p5d5dee9878)">
     <use xlink:href="#C0_0_5e465d2cac" x="94.887676" y="72.708656" style="fill: #ff8c00; fill-opacity: 0.8"/>
    </g>
    <g clip-path="url(#p5d5dee9878)">
     <use xlink:href="#C0_0_5e465d2cac" x="94.887676" y="72.708656" style="fill: #ff8c00; fill-opacity: 0.8"/>
    </g>
    <g clip-path="url(#p5d5dee9878)">
     <use xlink:href="#C0_0_5e465d2cac" x="103.188845" y="85.408403" style="fill: #ff8c00; fill-opacity: 0.8"/>
    </g>
    <g clip-path="url(#p5d5dee9878)">
     <use xlink:href="#C0_0_5e465d2cac" x="111.490015" y="72.708656" style="fill: #ff8c00; fill-opacity: 0.8"/>
    </g>
    <g clip-path="url(#p5d5dee9878)">
     <use xlink:href="#C0_0_5e465d2cac" x="119.791184" y="85.408403" style="fill: #ff8c00; fill-opacity: 0.8"/>
    </g>
    <g clip-path="url(#p5d5dee9878)">
     <use xlink:href="#C0_0_5e465d2cac" x="128.092354" y="85.408403" style="fill: #ff8c00; fill-opacity: 0.8"/>
    </g>
    <g clip-path="url(#p5d5dee9878)">
     <use xlink:href="#C0_0_5e465d2cac" x="94.887676" y="85.408403" style="fill: #ff8c00; fill-opacity: 0.8"/>
    </g>
    <g clip-path="url(#p5d5dee9878)">
     <use xlink:href="#C0_0_5e465d2cac" x="103.188845" y="85.408403" style="fill: #ff8c00; fill-opacity: 0.8"/>
    </g>
    <g clip-path="url(#p5d5dee9878)">
     <use xlink:href="#C0_0_5e465d2cac" x="128.092354" y="60.00891" style="fill: #ff8c00; fill-opacity: 0.8"/>
    </g>
    <g clip-path="url(#p5d5dee9878)">
     <use xlink:href="#C0_0_5e465d2cac" x="103.188845" y="85.408403" style="fill: #ff8c00; fill-opacity: 0.8"/>
    </g>
    <g clip-path="url(#p5d5dee9878)">
     <use xlink:href="#C0_0_5e465d2cac" x="119.791184" y="72.708656" style="fill: #ff8c00; fill-opacity: 0.8"/>
    </g>
    <g clip-path="url(#p5d5dee9878)">
     <use xlink:href="#C0_0_5e465d2cac" x="111.490015" y="72.708656" style="fill: #ff8c00; fill-opacity: 0.8"/>
    </g>
    <g clip-path="url(#p5d5dee9878)">
     <use xlink:href="#C0_0_5e465d2cac" x="103.188845" y="85.408403" style="fill: #ff8c00; fill-opacity: 0.8"/>
    </g>
    <g clip-path="url(#p5d5dee9878)">
     <use xlink:href="#C0_0_5e465d2cac" x="111.490015" y="85.408403" style="fill: #ff8c00; fill-opacity: 0.8"/>
    </g>
    <g clip-path="url(#p5d5dee9878)">
     <use xlink:href="#C0_0_5e465d2cac" x="94.887676" y="72.708656" style="fill: #ff8c00; fill-opacity: 0.8"/>
    </g>
    <g clip-path="url(#p5d5dee9878)">
     <use xlink:href="#C0_0_5e465d2cac" x="86.586506" y="85.408403" style="fill: #ff8c00; fill-opacity: 0.8"/>
    </g>
    <g clip-path="url(#p5d5dee9878)">
     <use xlink:href="#C0_0_5e465d2cac" x="94.887676" y="72.708656" style="fill: #ff8c00; fill-opacity: 0.8"/>
    </g>
    <g clip-path="url(#p5d5dee9878)">
     <use xlink:href="#C0_0_5e465d2cac" x="128.092354" y="85.408403" style="fill: #ff8c00; fill-opacity: 0.8"/>
    </g>
    <g clip-path="url(#p5d5dee9878)">
     <use xlink:href="#C0_0_5e465d2cac" x="103.188845" y="85.408403" style="fill: #ff8c00; fill-opacity: 0.8"/>
    </g>
    <g clip-path="url(#p5d5dee9878)">
     <use xlink:href="#C0_0_5e465d2cac" x="103.188845" y="85.408403" style="fill: #ff8c00; fill-opacity: 0.8"/>
    </g>
    <g clip-path="url(#p5d5dee9878)">
     <use xlink:href="#C0_0_5e465d2cac" x="94.887676" y="85.408403" style="fill: #ff8c00; fill-opacity: 0.8"/>
    </g>
    <g clip-path="url(#p5d5dee9878)">
     <use xlink:href="#C0_0_5e465d2cac" x="103.188845" y="72.708656" style="fill: #ff8c00; fill-opacity: 0.8"/>
    </g>
    <g clip-path="url(#p5d5dee9878)">
     <use xlink:href="#C0_0_5e465d2cac" x="119.791184" y="72.708656" style="fill: #ff8c00; fill-opacity: 0.8"/>
    </g>
    <g clip-path="url(#p5d5dee9878)">
     <use xlink:href="#C0_0_5e465d2cac" x="86.586506" y="72.708656" style="fill: #ff8c00; fill-opacity: 0.8"/>
    </g>
    <g clip-path="url(#p5d5dee9878)">
     <use xlink:href="#C0_0_5e465d2cac" x="103.188845" y="85.408403" style="fill: #ff8c00; fill-opacity: 0.8"/>
    </g>
    <g clip-path="url(#p5d5dee9878)">
     <use xlink:href="#C0_0_5e465d2cac" x="111.490015" y="72.708656" style="fill: #ff8c00; fill-opacity: 0.8"/>
    </g>
    <g clip-path="url(#p5d5dee9878)">
     <use xlink:href="#C0_0_5e465d2cac" x="103.188845" y="85.408403" style="fill: #ff8c00; fill-opacity: 0.8"/>
    </g>
    <g clip-path="url(#p5d5dee9878)">
     <use xlink:href="#C0_0_5e465d2cac" x="86.586506" y="85.408403" style="fill: #ff8c00; fill-opacity: 0.8"/>
    </g>
    <g clip-path="url(#p5d5dee9878)">
     <use xlink:href="#C0_0_5e465d2cac" x="69.984167" y="85.408403" style="fill: #ff8c00; fill-opacity: 0.8"/>
    </g>
    <g clip-path="url(#p5d5dee9878)">
     <use xlink:href="#C0_0_5e465d2cac" x="111.490015" y="85.408403" style="fill: #ff8c00; fill-opacity: 0.8"/>
    </g>
    <g clip-path="url(#p5d5dee9878)">
     <use xlink:href="#C0_0_5e465d2cac" x="94.887676" y="85.408403" style="fill: #ff8c00; fill-opacity: 0.8"/>
    </g>
    <g clip-path="url(#p5d5dee9878)">
     <use xlink:href="#C0_0_5e465d2cac" x="94.887676" y="85.408403" style="fill: #ff8c00; fill-opacity: 0.8"/>
    </g>
    <g clip-path="url(#p5d5dee9878)">
     <use xlink:href="#C0_0_5e465d2cac" x="103.188845" y="72.708656" style="fill: #ff8c00; fill-opacity: 0.8"/>
    </g>
    <g clip-path="url(#p5d5dee9878)">
     <use xlink:href="#C0_0_5e465d2cac" x="94.887676" y="72.708656" style="fill: #ff8c00; fill-opacity: 0.8"/>
    </g>
    <g clip-path="url(#p5d5dee9878)">
     <use xlink:href="#C0_0_5e465d2cac" x="78.285336" y="85.408403" style="fill: #ff8c00; fill-opacity: 0.8"/>
    </g>
    <g clip-path="url(#p5d5dee9878)">
     <use xlink:href="#C0_0_5e465d2cac" x="136.393523" y="72.708656" style="fill: #ff8c00; fill-opacity: 0.8"/>
    </g>
    <g clip-path="url(#p5d5dee9878)">
     <use xlink:href="#C0_0_5e465d2cac" x="69.984167" y="72.708656" style="fill: #ff8c00; fill-opacity: 0.8"/>
    </g>
    <g clip-path="url(#p5d5dee9878)">
     <use xlink:href="#C0_0_5e465d2cac" x="128.092354" y="60.00891" style="fill: #ff8c00; fill-opacity: 0.8"/>
    </g>
    <g clip-path="url(#p5d5dee9878)">
     <use xlink:href="#C0_0_5e465d2cac" x="94.887676" y="9.209924" style="fill: #ff8c00; fill-opacity: 0.8"/>
    </g>
    <g clip-path="url(#p5d5dee9878)">
     <use xlink:href="#C0_0_5e465d2cac" x="69.984167" y="85.408403" style="fill: #ff8c00; fill-opacity: 0.8"/>
    </g>
    <g clip-path="url(#p5d5dee9878)">
     <use xlink:href="#C0_0_5e465d2cac" x="28.478319" y="72.708656" style="fill: #ff8c00; fill-opacity: 0.8"/>
    </g>
    <g clip-path="url(#p5d5dee9878)">
     <use xlink:href="#C0_0_5e465d2cac" x="111.490015" y="21.90967" style="fill: #ff8c00; fill-opacity: 0.8"/>
    </g>
    <g clip-path="url(#p5d5dee9878)">
     <use xlink:href="#C0_0_5e465d2cac" x="111.490015" y="85.408403" style="fill: #ff8c00; fill-opacity: 0.8"/>
    </g>
    <g clip-path="url(#p5d5dee9878)">
     <use xlink:href="#C0_0_5e465d2cac" x="86.586506" y="72.708656" style="fill: #ff8c00; fill-opacity: 0.8"/>
    </g>
    <g clip-path="url(#p5d5dee9878)">
     <use xlink:href="#C0_0_5e465d2cac" x="94.887676" y="85.408403" style="fill: #ff8c00; fill-opacity: 0.8"/>
    </g>
    <g clip-path="url(#p5d5dee9878)">
     <use xlink:href="#C0_0_5e465d2cac" x="28.478319" y="72.708656" style="fill: #ff8c00; fill-opacity: 0.8"/>
    </g>
    <g clip-path="url(#p5d5dee9878)">
     <use xlink:href="#C0_0_5e465d2cac" x="128.092354" y="85.408403" style="fill: #ff8c00; fill-opacity: 0.8"/>
    </g>
    <g clip-path="url(#p5d5dee9878)">
     <use xlink:href="#C0_0_5e465d2cac" x="111.490015" y="85.408403" style="fill: #ff8c00; fill-opacity: 0.8"/>
    </g>
    <g clip-path="url(#p5d5dee9878)">
     <use xlink:href="#C0_0_5e465d2cac" x="128.092354" y="85.408403" style="fill: #ff8c00; fill-opacity: 0.8"/>
    </g>
    <g clip-path="url(#p5d5dee9878)">
     <use xlink:href="#C0_0_5e465d2cac" x="111.490015" y="72.708656" style="fill: #ff8c00; fill-opacity: 0.8"/>
    </g>
    <g clip-path="url(#p5d5dee9878)">
     <use xlink:href="#C0_0_5e465d2cac" x="128.092354" y="72.708656" style="fill: #ff8c00; fill-opacity: 0.8"/>
    </g>
    <g clip-path="url(#p5d5dee9878)">
     <use xlink:href="#C0_0_5e465d2cac" x="111.490015" y="72.708656" style="fill: #ff8c00; fill-opacity: 0.8"/>
    </g>
    <g clip-path="url(#p5d5dee9878)">
     <use xlink:href="#C0_0_5e465d2cac" x="111.490015" y="85.408403" style="fill: #ff8c00; fill-opacity: 0.8"/>
    </g>
    <g clip-path="url(#p5d5dee9878)">
     <use xlink:href="#C0_0_5e465d2cac" x="111.490015" y="60.00891" style="fill: #ff8c00; fill-opacity: 0.8"/>
    </g>
    <g clip-path="url(#p5d5dee9878)">
     <use xlink:href="#C0_0_5e465d2cac" x="111.490015" y="85.408403" style="fill: #ff8c00; fill-opacity: 0.8"/>
    </g>
    <g clip-path="url(#p5d5dee9878)">
     <use xlink:href="#C0_0_5e465d2cac" x="111.490015" y="72.708656" style="fill: #ff8c00; fill-opacity: 0.8"/>
    </g>
    <g clip-path="url(#p5d5dee9878)">
     <use xlink:href="#C0_0_5e465d2cac" x="86.586506" y="72.708656" style="fill: #ff8c00; fill-opacity: 0.8"/>
    </g>
    <g clip-path="url(#p5d5dee9878)">
     <use xlink:href="#C0_0_5e465d2cac" x="94.887676" y="85.408403" style="fill: #ff8c00; fill-opacity: 0.8"/>
    </g>
    <g clip-path="url(#p5d5dee9878)">
     <use xlink:href="#C0_0_5e465d2cac" x="86.586506" y="85.408403" style="fill: #ff8c00; fill-opacity: 0.8"/>
    </g>
    <g clip-path="url(#p5d5dee9878)">
     <use xlink:href="#C0_0_5e465d2cac" x="103.188845" y="85.408403" style="fill: #ff8c00; fill-opacity: 0.8"/>
    </g>
    <g clip-path="url(#p5d5dee9878)">
     <use xlink:href="#C0_0_5e465d2cac" x="103.188845" y="85.408403" style="fill: #ff8c00; fill-opacity: 0.8"/>
    </g>
    <g clip-path="url(#p5d5dee9878)">
     <use xlink:href="#C0_0_5e465d2cac" x="103.188845" y="85.408403" style="fill: #ff8c00; fill-opacity: 0.8"/>
    </g>
    <g clip-path="url(#p5d5dee9878)">
     <use xlink:href="#C0_0_5e465d2cac" x="128.092354" y="85.408403" style="fill: #ff8c00; fill-opacity: 0.8"/>
    </g>
    <g clip-path="url(#p5d5dee9878)">
     <use xlink:href="#C0_0_5e465d2cac" x="136.393523" y="85.408403" style="fill: #ff8c00; fill-opacity: 0.8"/>
    </g>
    <g clip-path="url(#p5d5dee9878)">
     <use xlink:href="#C0_0_5e465d2cac" x="94.887676" y="9.209924" style="fill: #ff8c00; fill-opacity: 0.8"/>
    </g>
    <g clip-path="url(#p5d5dee9878)">
     <use xlink:href="#C0_0_5e465d2cac" x="78.285336" y="72.708656" style="fill: #ff8c00; fill-opacity: 0.8"/>
    </g>
    <g clip-path="url(#p5d5dee9878)">
     <use xlink:href="#C0_0_5e465d2cac" x="86.586506" y="85.408403" style="fill: #ff8c00; fill-opacity: 0.8"/>
    </g>
    <g clip-path="url(#p5d5dee9878)">
     <use xlink:href="#C0_0_5e465d2cac" x="136.393523" y="72.708656" style="fill: #ff8c00; fill-opacity: 0.8"/>
    </g>
    <g clip-path="url(#p5d5dee9878)">
     <use xlink:href="#C0_0_5e465d2cac" x="94.887676" y="72.708656" style="fill: #ff8c00; fill-opacity: 0.8"/>
    </g>
    <g clip-path="url(#p5d5dee9878)">
     <use xlink:href="#C0_0_5e465d2cac" x="103.188845" y="85.408403" style="fill: #ff8c00; fill-opacity: 0.8"/>
    </g>
    <g clip-path="url(#p5d5dee9878)">
     <use xlink:href="#C0_0_5e465d2cac" x="78.285336" y="72.708656" style="fill: #ff8c00; fill-opacity: 0.8"/>
    </g>
    <g clip-path="url(#p5d5dee9878)">
     <use xlink:href="#C0_0_5e465d2cac" x="94.887676" y="85.408403" style="fill: #ff8c00; fill-opacity: 0.8"/>
    </g>
    <g clip-path="url(#p5d5dee9878)">
     <use xlink:href="#C0_0_5e465d2cac" x="94.887676" y="21.90967" style="fill: #ff8c00; fill-opacity: 0.8"/>
    </g>
    <g clip-path="url(#p5d5dee9878)">
     <use xlink:href="#C0_0_5e465d2cac" x="86.586506" y="72.708656" style="fill: #ff8c00; fill-opacity: 0.8"/>
    </g>
    <g clip-path="url(#p5d5dee9878)">
     <use xlink:href="#C0_0_5e465d2cac" x="103.188845" y="47.309163" style="fill: #ff8c00; fill-opacity: 0.8"/>
    </g>
    <g clip-path="url(#p5d5dee9878)">
     <use xlink:href="#C0_0_5e465d2cac" x="111.490015" y="72.708656" style="fill: #ff8c00; fill-opacity: 0.8"/>
    </g>
    <g clip-path="url(#p5d5dee9878)">
     <use xlink:href="#C0_0_5e465d2cac" x="94.887676" y="60.00891" style="fill: #ff8c00; fill-opacity: 0.8"/>
    </g>
    <g clip-path="url(#p5d5dee9878)">
     <use xlink:href="#C0_0_5e465d2cac" x="119.791184" y="85.408403" style="fill: #ff8c00; fill-opacity: 0.8"/>
    </g>
    <g clip-path="url(#p5d5dee9878)">
     <use xlink:href="#C0_0_5e465d2cac" x="86.586506" y="60.00891" style="fill: #ff8c00; fill-opacity: 0.8"/>
    </g>
    <g clip-path="url(#p5d5dee9878)">
     <use xlink:href="#C0_0_5e465d2cac" x="119.791184" y="47.309163" style="fill: #ff8c00; fill-opacity: 0.8"/>
    </g>
    <g clip-path="url(#p5d5dee9878)">
     <use xlink:href="#C0_0_5e465d2cac" x="119.791184" y="85.408403" style="fill: #ff8c00; fill-opacity: 0.8"/>
    </g>
    <g clip-path="url(#p5d5dee9878)">
     <use xlink:href="#C0_0_5e465d2cac" x="78.285336" y="72.708656" style="fill: #ff8c00; fill-opacity: 0.8"/>
    </g>
    <g clip-path="url(#p5d5dee9878)">
     <use xlink:href="#C0_0_5e465d2cac" x="119.791184" y="85.408403" style="fill: #ff8c00; fill-opacity: 0.8"/>
    </g>
    <g clip-path="url(#p5d5dee9878)">
     <use xlink:href="#C0_0_5e465d2cac" x="111.490015" y="85.408403" style="fill: #ff8c00; fill-opacity: 0.8"/>
    </g>
    <g clip-path="url(#p5d5dee9878)">
     <use xlink:href="#C0_0_5e465d2cac" x="103.188845" y="85.408403" style="fill: #ff8c00; fill-opacity: 0.8"/>
    </g>
    <g clip-path="url(#p5d5dee9878)">
     <use xlink:href="#C0_0_5e465d2cac" x="94.887676" y="72.708656" style="fill: #ff8c00; fill-opacity: 0.8"/>
    </g>
    <g clip-path="url(#p5d5dee9878)">
     <use xlink:href="#C0_0_5e465d2cac" x="86.586506" y="72.708656" style="fill: #ff8c00; fill-opacity: 0.8"/>
    </g>
    <g clip-path="url(#p5d5dee9878)">
     <use xlink:href="#C0_0_5e465d2cac" x="144.694693" y="72.708656" style="fill: #ff8c00; fill-opacity: 0.8"/>
    </g>
    <g clip-path="url(#p5d5dee9878)">
     <use xlink:href="#C0_0_5e465d2cac" x="111.490015" y="72.708656" style="fill: #ff8c00; fill-opacity: 0.8"/>
    </g>
    <g clip-path="url(#p5d5dee9878)">
     <use xlink:href="#C0_0_5e465d2cac" x="128.092354" y="72.708656" style="fill: #ff8c00; fill-opacity: 0.8"/>
    </g>
    <g clip-path="url(#p5d5dee9878)">
     <use xlink:href="#C0_0_5e465d2cac" x="111.490015" y="72.708656" style="fill: #ff8c00; fill-opacity: 0.8"/>
    </g>
    <g clip-path="url(#p5d5dee9878)">
     <use xlink:href="#C0_0_5e465d2cac" x="53.381828" y="72.708656" style="fill: #ff8c00; fill-opacity: 0.8"/>
    </g>
    <g clip-path="url(#p5d5dee9878)">
     <use xlink:href="#C0_0_5e465d2cac" x="94.887676" y="72.708656" style="fill: #ff8c00; fill-opacity: 0.8"/>
    </g>
    <g clip-path="url(#p5d5dee9878)">
     <use xlink:href="#C0_0_5e465d2cac" x="103.188845" y="72.708656" style="fill: #ff8c00; fill-opacity: 0.8"/>
    </g>
    <g clip-path="url(#p5d5dee9878)">
     <use xlink:href="#C0_0_5e465d2cac" x="94.887676" y="72.708656" style="fill: #ff8c00; fill-opacity: 0.8"/>
    </g>
    <g clip-path="url(#p5d5dee9878)">
     <use xlink:href="#C0_0_5e465d2cac" x="103.188845" y="72.708656" style="fill: #ff8c00; fill-opacity: 0.8"/>
    </g>
    <g clip-path="url(#p5d5dee9878)">
     <use xlink:href="#C0_0_5e465d2cac" x="128.092354" y="72.708656" style="fill: #ff8c00; fill-opacity: 0.8"/>
    </g>
    <g clip-path="url(#p5d5dee9878)">
     <use xlink:href="#C0_0_5e465d2cac" x="103.188845" y="72.708656" style="fill: #ff8c00; fill-opacity: 0.8"/>
    </g>
    <g clip-path="url(#p5d5dee9878)">
     <use xlink:href="#C0_0_5e465d2cac" x="103.188845" y="72.708656" style="fill: #ff8c00; fill-opacity: 0.8"/>
    </g>
    <g clip-path="url(#p5d5dee9878)">
     <use xlink:href="#C0_0_5e465d2cac" x="86.586506" y="72.708656" style="fill: #ff8c00; fill-opacity: 0.8"/>
    </g>
    <g clip-path="url(#p5d5dee9878)">
     <use xlink:href="#C0_0_5e465d2cac" x="94.887676" y="72.708656" style="fill: #ff8c00; fill-opacity: 0.8"/>
    </g>
    <g clip-path="url(#p5d5dee9878)">
     <use xlink:href="#C0_0_5e465d2cac" x="128.092354" y="72.708656" style="fill: #ff8c00; fill-opacity: 0.8"/>
    </g>
    <g clip-path="url(#p5d5dee9878)">
     <use xlink:href="#C0_0_5e465d2cac" x="103.188845" y="72.708656" style="fill: #ff8c00; fill-opacity: 0.8"/>
    </g>
    <g clip-path="url(#p5d5dee9878)">
     <use xlink:href="#C0_0_5e465d2cac" x="103.188845" y="72.708656" style="fill: #ff8c00; fill-opacity: 0.8"/>
    </g>
    <g clip-path="url(#p5d5dee9878)">
     <use xlink:href="#C0_0_5e465d2cac" x="94.887676" y="72.708656" style="fill: #ff8c00; fill-opacity: 0.8"/>
    </g>
    <g clip-path="url(#p5d5dee9878)">
     <use xlink:href="#C0_0_5e465d2cac" x="103.188845" y="72.708656" style="fill: #ff8c00; fill-opacity: 0.8"/>
    </g>
    <g clip-path="url(#p5d5dee9878)">
     <use xlink:href="#C0_0_5e465d2cac" x="86.586506" y="72.708656" style="fill: #ff8c00; fill-opacity: 0.8"/>
    </g>
    <g clip-path="url(#p5d5dee9878)">
     <use xlink:href="#C0_0_5e465d2cac" x="103.188845" y="72.708656" style="fill: #ff8c00; fill-opacity: 0.8"/>
    </g>
    <g clip-path="url(#p5d5dee9878)">
     <use xlink:href="#C0_0_5e465d2cac" x="111.490015" y="72.708656" style="fill: #ff8c00; fill-opacity: 0.8"/>
    </g>
    <g clip-path="url(#p5d5dee9878)">
     <use xlink:href="#C0_0_5e465d2cac" x="103.188845" y="72.708656" style="fill: #ff8c00; fill-opacity: 0.8"/>
    </g>
    <g clip-path="url(#p5d5dee9878)">
     <use xlink:href="#C0_0_5e465d2cac" x="86.586506" y="72.708656" style="fill: #ff8c00; fill-opacity: 0.8"/>
    </g>
    <g clip-path="url(#p5d5dee9878)">
     <use xlink:href="#C0_0_5e465d2cac" x="69.984167" y="72.708656" style="fill: #ff8c00; fill-opacity: 0.8"/>
    </g>
    <g clip-path="url(#p5d5dee9878)">
     <use xlink:href="#C0_0_5e465d2cac" x="111.490015" y="72.708656" style="fill: #ff8c00; fill-opacity: 0.8"/>
    </g>
    <g clip-path="url(#p5d5dee9878)">
     <use xlink:href="#C0_0_5e465d2cac" x="94.887676" y="72.708656" style="fill: #ff8c00; fill-opacity: 0.8"/>
    </g>
    <g clip-path="url(#p5d5dee9878)">
     <use xlink:href="#C0_0_5e465d2cac" x="78.285336" y="72.708656" style="fill: #ff8c00; fill-opacity: 0.8"/>
    </g>
    <g clip-path="url(#p5d5dee9878)">
     <use xlink:href="#C0_0_5e465d2cac" x="136.393523" y="72.708656" style="fill: #ff8c00; fill-opacity: 0.8"/>
    </g>
    <g clip-path="url(#p5d5dee9878)">
     <use xlink:href="#C0_0_5e465d2cac" x="69.984167" y="72.708656" style="fill: #ff8c00; fill-opacity: 0.8"/>
    </g>
    <g clip-path="url(#p5d5dee9878)">
     <use xlink:href="#C0_0_5e465d2cac" x="94.887676" y="85.408403" style="fill: #ff8c00; fill-opacity: 0.8"/>
    </g>
    <g clip-path="url(#p5d5dee9878)">
     <use xlink:href="#C0_0_5e465d2cac" x="69.984167" y="72.708656" style="fill: #ff8c00; fill-opacity: 0.8"/>
    </g>
    <g clip-path="url(#p5d5dee9878)">
     <use xlink:href="#C0_0_5e465d2cac" x="28.478319" y="72.708656" style="fill: #ff8c00; fill-opacity: 0.8"/>
    </g>
    <g clip-path="url(#p5d5dee9878)">
     <use xlink:href="#C0_0_5e465d2cac" x="111.490015" y="72.708656" style="fill: #ff8c00; fill-opacity: 0.8"/>
    </g>
    <g clip-path="url(#p5d5dee9878)">
     <use xlink:href="#C0_0_5e465d2cac" x="111.490015" y="72.708656" style="fill: #ff8c00; fill-opacity: 0.8"/>
    </g>
    <g clip-path="url(#p5d5dee9878)">
     <use xlink:href="#C0_0_5e465d2cac" x="94.887676" y="72.708656" style="fill: #ff8c00; fill-opacity: 0.8"/>
    </g>
    <g clip-path="url(#p5d5dee9878)">
     <use xlink:href="#C0_0_5e465d2cac" x="28.478319" y="72.708656" style="fill: #ff8c00; fill-opacity: 0.8"/>
    </g>
    <g clip-path="url(#p5d5dee9878)">
     <use xlink:href="#C0_0_5e465d2cac" x="128.092354" y="72.708656" style="fill: #ff8c00; fill-opacity: 0.8"/>
    </g>
    <g clip-path="url(#p5d5dee9878)">
     <use xlink:href="#C0_0_5e465d2cac" x="111.490015" y="72.708656" style="fill: #ff8c00; fill-opacity: 0.8"/>
    </g>
    <g clip-path="url(#p5d5dee9878)">
     <use xlink:href="#C0_0_5e465d2cac" x="111.490015" y="72.708656" style="fill: #ff8c00; fill-opacity: 0.8"/>
    </g>
    <g clip-path="url(#p5d5dee9878)">
     <use xlink:href="#C0_0_5e465d2cac" x="111.490015" y="72.708656" style="fill: #ff8c00; fill-opacity: 0.8"/>
    </g>
    <g clip-path="url(#p5d5dee9878)">
     <use xlink:href="#C0_0_5e465d2cac" x="111.490015" y="72.708656" style="fill: #ff8c00; fill-opacity: 0.8"/>
    </g>
    <g clip-path="url(#p5d5dee9878)">
     <use xlink:href="#C0_0_5e465d2cac" x="111.490015" y="72.708656" style="fill: #ff8c00; fill-opacity: 0.8"/>
    </g>
    <g clip-path="url(#p5d5dee9878)">
     <use xlink:href="#C0_0_5e465d2cac" x="94.887676" y="72.708656" style="fill: #ff8c00; fill-opacity: 0.8"/>
    </g>
    <g clip-path="url(#p5d5dee9878)">
     <use xlink:href="#C0_0_5e465d2cac" x="86.586506" y="72.708656" style="fill: #ff8c00; fill-opacity: 0.8"/>
    </g>
    <g clip-path="url(#p5d5dee9878)">
     <use xlink:href="#C0_0_5e465d2cac" x="103.188845" y="72.708656" style="fill: #ff8c00; fill-opacity: 0.8"/>
    </g>
    <g clip-path="url(#p5d5dee9878)">
     <use xlink:href="#C0_0_5e465d2cac" x="103.188845" y="72.708656" style="fill: #ff8c00; fill-opacity: 0.8"/>
    </g>
    <g clip-path="url(#p5d5dee9878)">
     <use xlink:href="#C0_0_5e465d2cac" x="128.092354" y="72.708656" style="fill: #ff8c00; fill-opacity: 0.8"/>
    </g>
    <g clip-path="url(#p5d5dee9878)">
     <use xlink:href="#C0_0_5e465d2cac" x="136.393523" y="72.708656" style="fill: #ff8c00; fill-opacity: 0.8"/>
    </g>
    <g clip-path="url(#p5d5dee9878)">
     <use xlink:href="#C0_0_5e465d2cac" x="94.887676" y="72.708656" style="fill: #ff8c00; fill-opacity: 0.8"/>
    </g>
    <g clip-path="url(#p5d5dee9878)">
     <use xlink:href="#C0_0_5e465d2cac" x="78.285336" y="72.708656" style="fill: #ff8c00; fill-opacity: 0.8"/>
    </g>
    <g clip-path="url(#p5d5dee9878)">
     <use xlink:href="#C0_0_5e465d2cac" x="136.393523" y="72.708656" style="fill: #ff8c00; fill-opacity: 0.8"/>
    </g>
    <g clip-path="url(#p5d5dee9878)">
     <use xlink:href="#C0_0_5e465d2cac" x="94.887676" y="72.708656" style="fill: #ff8c00; fill-opacity: 0.8"/>
    </g>
    <g clip-path="url(#p5d5dee9878)">
     <use xlink:href="#C0_0_5e465d2cac" x="103.188845" y="72.708656" style="fill: #ff8c00; fill-opacity: 0.8"/>
    </g>
    <g clip-path="url(#p5d5dee9878)">
     <use xlink:href="#C0_0_5e465d2cac" x="94.887676" y="72.708656" style="fill: #ff8c00; fill-opacity: 0.8"/>
    </g>
    <g clip-path="url(#p5d5dee9878)">
     <use xlink:href="#C0_0_5e465d2cac" x="86.586506" y="72.708656" style="fill: #ff8c00; fill-opacity: 0.8"/>
    </g>
    <g clip-path="url(#p5d5dee9878)">
     <use xlink:href="#C0_0_5e465d2cac" x="103.188845" y="72.708656" style="fill: #ff8c00; fill-opacity: 0.8"/>
    </g>
    <g clip-path="url(#p5d5dee9878)">
     <use xlink:href="#C0_0_5e465d2cac" x="111.490015" y="72.708656" style="fill: #ff8c00; fill-opacity: 0.8"/>
    </g>
    <g clip-path="url(#p5d5dee9878)">
     <use xlink:href="#C0_0_5e465d2cac" x="94.887676" y="72.708656" style="fill: #ff8c00; fill-opacity: 0.8"/>
    </g>
    <g clip-path="url(#p5d5dee9878)">
     <use xlink:href="#C0_0_5e465d2cac" x="119.791184" y="72.708656" style="fill: #ff8c00; fill-opacity: 0.8"/>
    </g>
    <g clip-path="url(#p5d5dee9878)">
     <use xlink:href="#C0_0_5e465d2cac" x="119.791184" y="72.708656" style="fill: #ff8c00; fill-opacity: 0.8"/>
    </g>
    <g clip-path="url(#p5d5dee9878)">
     <use xlink:href="#C0_0_5e465d2cac" x="78.285336" y="72.708656" style="fill: #ff8c00; fill-opacity: 0.8"/>
    </g>
    <g clip-path="url(#p5d5dee9878)">
     <use xlink:href="#C0_0_5e465d2cac" x="111.490015" y="72.708656" style="fill: #ff8c00; fill-opacity: 0.8"/>
    </g>
    <g clip-path="url(#p5d5dee9878)">
     <use xlink:href="#C0_0_5e465d2cac" x="103.188845" y="72.708656" style="fill: #ff8c00; fill-opacity: 0.8"/>
    </g>
    <g clip-path="url(#p5d5dee9878)">
     <use xlink:href="#C0_0_5e465d2cac" x="94.887676" y="72.708656" style="fill: #ff8c00; fill-opacity: 0.8"/>
    </g>
   </g>
   <g id="PolyCollection_1">
    <path d="M 28.478319 69.84352 
L 28.478319 78.817128 
L 29.652221 78.757514 
L 30.826124 78.696742 
L 32.000027 78.632024 
L 33.17393 78.580164 
L 34.347833 78.529858 
L 35.521735 78.471204 
L 36.695638 78.413743 
L 37.869541 78.365387 
L 39.043444 78.315104 
L 40.217346 78.237878 
L 41.391249 78.190019 
L 42.565152 78.134911 
L 43.739055 78.079328 
L 44.912958 78.024082 
L 46.08686 77.972813 
L 47.260763 77.915394 
L 48.434666 77.852679 
L 49.608569 77.794297 
L 50.782471 77.738415 
L 51.956374 77.680332 
L 53.130277 77.619292 
L 54.30418 77.558342 
L 55.478082 77.518177 
L 56.651985 77.462367 
L 57.825888 77.422349 
L 58.999791 77.380729 
L 60.173694 77.310057 
L 61.347596 77.245937 
L 62.521499 77.194571 
L 63.695402 77.149973 
L 64.869305 77.095392 
L 66.043207 77.043171 
L 67.21711 76.996489 
L 68.391013 76.945189 
L 69.564916 76.899495 
L 70.738818 76.853731 
L 71.912721 76.794078 
L 73.086624 76.74512 
L 74.260527 76.706295 
L 75.43443 76.664063 
L 76.608332 76.630572 
L 77.782235 76.594906 
L 78.956138 76.563679 
L 80.130041 76.529089 
L 81.303943 76.495434 
L 82.477846 76.464908 
L 83.651749 76.439036 
L 84.825652 76.398855 
L 85.999555 76.374185 
L 87.173457 76.344222 
L 88.34736 76.326138 
L 89.521263 76.301967 
L 90.695166 76.277675 
L 91.869068 76.268453 
L 93.042971 76.242141 
L 94.216874 76.235371 
L 95.390777 76.222863 
L 96.564679 76.215931 
L 97.738582 76.208064 
L 98.912485 76.206837 
L 100.086388 76.208184 
L 101.260291 76.207021 
L 102.434193 76.213294 
L 103.608096 76.217749 
L 104.781999 76.218816 
L 105.955902 76.231099 
L 107.129804 76.250755 
L 108.303707 76.262044 
L 109.47761 76.272767 
L 110.651513 76.286529 
L 111.825415 76.30066 
L 112.999318 76.318257 
L 114.173221 76.343165 
L 115.347124 76.362326 
L 116.521027 76.385271 
L 117.694929 76.405606 
L 118.868832 76.442026 
L 120.042735 76.464 
L 121.216638 76.496262 
L 122.39054 76.52662 
L 123.564443 76.570164 
L 124.738346 76.60614 
L 125.912249 76.633194 
L 127.086152 76.671825 
L 128.260054 76.717614 
L 129.433957 76.757455 
L 130.60786 76.807794 
L 131.781763 76.849393 
L 132.955665 76.88832 
L 134.129568 76.931362 
L 135.303471 76.971311 
L 136.477374 77.008468 
L 137.651276 77.067517 
L 138.825179 77.107265 
L 139.999082 77.148069 
L 141.172985 77.206018 
L 142.346888 77.254573 
L 143.52079 77.299772 
L 144.694693 77.344978 
L 144.694693 71.258668 
L 144.694693 71.258668 
L 143.52079 71.306292 
L 142.346888 71.351003 
L 141.172985 71.398242 
L 139.999082 71.455674 
L 138.825179 71.50976 
L 137.651276 71.571389 
L 136.477374 71.618186 
L 135.303471 71.666898 
L 134.129568 71.709609 
L 132.955665 71.750767 
L 131.781763 71.800869 
L 130.60786 71.840577 
L 129.433957 71.892517 
L 128.260054 71.92717 
L 127.086152 71.983876 
L 125.912249 72.030361 
L 124.738346 72.080244 
L 123.564443 72.098189 
L 122.39054 72.137297 
L 121.216638 72.191407 
L 120.042735 72.228146 
L 118.868832 72.259652 
L 117.694929 72.292636 
L 116.521027 72.314371 
L 115.347124 72.346545 
L 114.173221 72.37719 
L 112.999318 72.396192 
L 111.825415 72.408242 
L 110.651513 72.436065 
L 109.47761 72.455593 
L 108.303707 72.465648 
L 107.129804 72.468109 
L 105.955902 72.482757 
L 104.781999 72.480247 
L 103.608096 72.483788 
L 102.434193 72.496401 
L 101.260291 72.492625 
L 100.086388 72.503124 
L 98.912485 72.491427 
L 97.738582 72.481087 
L 96.564679 72.472897 
L 95.390777 72.460783 
L 94.216874 72.446223 
L 93.042971 72.439235 
L 91.869068 72.420998 
L 90.695166 72.397153 
L 89.521263 72.384097 
L 88.34736 72.354773 
L 87.173457 72.336379 
L 85.999555 72.324648 
L 84.825652 72.285064 
L 83.651749 72.262462 
L 82.477846 72.22246 
L 81.303943 72.193782 
L 80.130041 72.152384 
L 78.956138 72.10584 
L 77.782235 72.071589 
L 76.608332 72.038731 
L 75.43443 71.975268 
L 74.260527 71.933444 
L 73.086624 71.885972 
L 71.912721 71.8475 
L 70.738818 71.801628 
L 69.564916 71.753137 
L 68.391013 71.713209 
L 67.21711 71.664902 
L 66.043207 71.615118 
L 64.869305 71.558115 
L 63.695402 71.517482 
L 62.521499 71.47543 
L 61.347596 71.41679 
L 60.173694 71.374999 
L 58.999791 71.303586 
L 57.825888 71.253558 
L 56.651985 71.203447 
L 55.478082 71.162678 
L 54.30418 71.126201 
L 53.130277 71.070425 
L 51.956374 71.003051 
L 50.782471 70.953497 
L 49.608569 70.913005 
L 48.434666 70.846772 
L 47.260763 70.789866 
L 46.08686 70.740289 
L 44.912958 70.668786 
L 43.739055 70.59996 
L 42.565152 70.54105 
L 41.391249 70.482489 
L 40.217346 70.423299 
L 39.043444 70.376433 
L 37.869541 70.310227 
L 36.695638 70.266132 
L 35.521735 70.204223 
L 34.347833 70.139285 
L 33.17393 70.079304 
L 32.000027 70.011612 
L 30.826124 69.952119 
L 29.652221 69.892815 
L 28.478319 69.84352 
z
" clip-path="url(#p5d5dee9878)" style="fill: #ff8c00; fill-opacity: 0.15"/>
   </g>
   <g id="matplotlib.axis_1">
    <g id="xtick_1">
     <g id="line2d_1">
      <defs>
       <path id="m2805622325" d="M 0 0 
L 0 3.5 
" style="stroke: #000000; stroke-width: 0.25"/>
      </defs>
      <g>
       <use xlink:href="#m2805622325" x="36.779488" y="89.218327" style="stroke: #000000; stroke-width: 0.25"/>
      </g>
     </g>
     <g id="text_1">
      <!-- 60 -->
      <g transform="translate(33.99902 97.297233) scale(0.05 -0.05)">
       <defs>
        <path id="ArialMT-36" d="M 3184 3459 
L 2625 3416 
Q 2550 3747 2413 3897 
Q 2184 4138 1850 4138 
Q 1581 4138 1378 3988 
Q 1113 3794 959 3422 
Q 806 3050 800 2363 
Q 1003 2672 1297 2822 
Q 1591 2972 1913 2972 
Q 2475 2972 2870 2558 
Q 3266 2144 3266 1488 
Q 3266 1056 3080 686 
Q 2894 316 2569 119 
Q 2244 -78 1831 -78 
Q 1128 -78 684 439 
Q 241 956 241 2144 
Q 241 3472 731 4075 
Q 1159 4600 1884 4600 
Q 2425 4600 2770 4297 
Q 3116 3994 3184 3459 
z
M 888 1484 
Q 888 1194 1011 928 
Q 1134 663 1356 523 
Q 1578 384 1822 384 
Q 2178 384 2434 671 
Q 2691 959 2691 1453 
Q 2691 1928 2437 2201 
Q 2184 2475 1800 2475 
Q 1419 2475 1153 2201 
Q 888 1928 888 1484 
z
" transform="scale(0.015625)"/>
        <path id="ArialMT-30" d="M 266 2259 
Q 266 3072 433 3567 
Q 600 4063 929 4331 
Q 1259 4600 1759 4600 
Q 2128 4600 2406 4451 
Q 2684 4303 2865 4023 
Q 3047 3744 3150 3342 
Q 3253 2941 3253 2259 
Q 3253 1453 3087 958 
Q 2922 463 2592 192 
Q 2263 -78 1759 -78 
Q 1097 -78 719 397 
Q 266 969 266 2259 
z
M 844 2259 
Q 844 1131 1108 757 
Q 1372 384 1759 384 
Q 2147 384 2411 759 
Q 2675 1134 2675 2259 
Q 2675 3391 2411 3762 
Q 2147 4134 1753 4134 
Q 1366 4134 1134 3806 
Q 844 3388 844 2259 
z
" transform="scale(0.015625)"/>
       </defs>
       <use xlink:href="#ArialMT-36"/>
       <use xlink:href="#ArialMT-30" x="55.615234"/>
      </g>
     </g>
    </g>
    <g id="xtick_2">
     <g id="line2d_2">
      <g>
       <use xlink:href="#m2805622325" x="53.381828" y="89.218327" style="stroke: #000000; stroke-width: 0.25"/>
      </g>
     </g>
     <g id="text_2">
      <!-- 70 -->
      <g transform="translate(50.601359 97.297233) scale(0.05 -0.05)">
       <defs>
        <path id="ArialMT-37" d="M 303 3981 
L 303 4522 
L 3269 4522 
L 3269 4084 
Q 2831 3619 2401 2847 
Q 1972 2075 1738 1259 
Q 1569 684 1522 0 
L 944 0 
Q 953 541 1156 1306 
Q 1359 2072 1739 2783 
Q 2119 3494 2547 3981 
L 303 3981 
z
" transform="scale(0.015625)"/>
       </defs>
       <use xlink:href="#ArialMT-37"/>
       <use xlink:href="#ArialMT-30" x="55.615234"/>
      </g>
     </g>
    </g>
    <g id="xtick_3">
     <g id="line2d_3">
      <g>
       <use xlink:href="#m2805622325" x="69.984167" y="89.218327" style="stroke: #000000; stroke-width: 0.25"/>
      </g>
     </g>
     <g id="text_3">
      <!-- 80 -->
      <g transform="translate(67.203698 97.297233) scale(0.05 -0.05)">
       <defs>
        <path id="ArialMT-38" d="M 1131 2484 
Q 781 2613 612 2850 
Q 444 3088 444 3419 
Q 444 3919 803 4259 
Q 1163 4600 1759 4600 
Q 2359 4600 2725 4251 
Q 3091 3903 3091 3403 
Q 3091 3084 2923 2848 
Q 2756 2613 2416 2484 
Q 2838 2347 3058 2040 
Q 3278 1734 3278 1309 
Q 3278 722 2862 322 
Q 2447 -78 1769 -78 
Q 1091 -78 675 323 
Q 259 725 259 1325 
Q 259 1772 486 2073 
Q 713 2375 1131 2484 
z
M 1019 3438 
Q 1019 3113 1228 2906 
Q 1438 2700 1772 2700 
Q 2097 2700 2305 2904 
Q 2513 3109 2513 3406 
Q 2513 3716 2298 3927 
Q 2084 4138 1766 4138 
Q 1444 4138 1231 3931 
Q 1019 3725 1019 3438 
z
M 838 1322 
Q 838 1081 952 856 
Q 1066 631 1291 507 
Q 1516 384 1775 384 
Q 2178 384 2440 643 
Q 2703 903 2703 1303 
Q 2703 1709 2433 1975 
Q 2163 2241 1756 2241 
Q 1359 2241 1098 1978 
Q 838 1716 838 1322 
z
" transform="scale(0.015625)"/>
       </defs>
       <use xlink:href="#ArialMT-38"/>
       <use xlink:href="#ArialMT-30" x="55.615234"/>
      </g>
     </g>
    </g>
    <g id="xtick_4">
     <g id="line2d_4">
      <g>
       <use xlink:href="#m2805622325" x="86.586506" y="89.218327" style="stroke: #000000; stroke-width: 0.25"/>
      </g>
     </g>
     <g id="text_4">
      <!-- 90 -->
      <g transform="translate(83.806037 97.297233) scale(0.05 -0.05)">
       <defs>
        <path id="ArialMT-39" d="M 350 1059 
L 891 1109 
Q 959 728 1153 556 
Q 1347 384 1650 384 
Q 1909 384 2104 503 
Q 2300 622 2425 820 
Q 2550 1019 2634 1356 
Q 2719 1694 2719 2044 
Q 2719 2081 2716 2156 
Q 2547 1888 2255 1720 
Q 1963 1553 1622 1553 
Q 1053 1553 659 1965 
Q 266 2378 266 3053 
Q 266 3750 677 4175 
Q 1088 4600 1706 4600 
Q 2153 4600 2523 4359 
Q 2894 4119 3086 3673 
Q 3278 3228 3278 2384 
Q 3278 1506 3087 986 
Q 2897 466 2520 194 
Q 2144 -78 1638 -78 
Q 1100 -78 759 220 
Q 419 519 350 1059 
z
M 2653 3081 
Q 2653 3566 2395 3850 
Q 2138 4134 1775 4134 
Q 1400 4134 1122 3828 
Q 844 3522 844 3034 
Q 844 2597 1108 2323 
Q 1372 2050 1759 2050 
Q 2150 2050 2401 2323 
Q 2653 2597 2653 3081 
z
" transform="scale(0.015625)"/>
       </defs>
       <use xlink:href="#ArialMT-39"/>
       <use xlink:href="#ArialMT-30" x="55.615234"/>
      </g>
     </g>
    </g>
    <g id="xtick_5">
     <g id="line2d_5">
      <g>
       <use xlink:href="#m2805622325" x="103.188845" y="89.218327" style="stroke: #000000; stroke-width: 0.25"/>
      </g>
     </g>
     <g id="text_5">
      <!-- 100 -->
      <g transform="translate(99.018142 97.297233) scale(0.05 -0.05)">
       <defs>
        <path id="ArialMT-31" d="M 2384 0 
L 1822 0 
L 1822 3584 
Q 1619 3391 1289 3197 
Q 959 3003 697 2906 
L 697 3450 
Q 1169 3672 1522 3987 
Q 1875 4303 2022 4600 
L 2384 4600 
L 2384 0 
z
" transform="scale(0.015625)"/>
       </defs>
       <use xlink:href="#ArialMT-31"/>
       <use xlink:href="#ArialMT-30" x="55.615234"/>
       <use xlink:href="#ArialMT-30" x="111.230469"/>
      </g>
     </g>
    </g>
    <g id="xtick_6">
     <g id="line2d_6">
      <g>
       <use xlink:href="#m2805622325" x="119.791184" y="89.218327" style="stroke: #000000; stroke-width: 0.25"/>
      </g>
     </g>
     <g id="text_6">
      <!-- 110 -->
      <g transform="translate(115.804856 97.297233) scale(0.05 -0.05)">
       <use xlink:href="#ArialMT-31"/>
       <use xlink:href="#ArialMT-31" x="48.240234"/>
       <use xlink:href="#ArialMT-30" x="103.855469"/>
      </g>
     </g>
    </g>
    <g id="xtick_7">
     <g id="line2d_7">
      <g>
       <use xlink:href="#m2805622325" x="136.393523" y="89.218327" style="stroke: #000000; stroke-width: 0.25"/>
      </g>
     </g>
     <g id="text_7">
      <!-- 120 -->
      <g transform="translate(132.22282 97.297233) scale(0.05 -0.05)">
       <defs>
        <path id="ArialMT-32" d="M 3222 541 
L 3222 0 
L 194 0 
Q 188 203 259 391 
Q 375 700 629 1000 
Q 884 1300 1366 1694 
Q 2113 2306 2375 2664 
Q 2638 3022 2638 3341 
Q 2638 3675 2398 3904 
Q 2159 4134 1775 4134 
Q 1369 4134 1125 3890 
Q 881 3647 878 3216 
L 300 3275 
Q 359 3922 746 4261 
Q 1134 4600 1788 4600 
Q 2447 4600 2831 4234 
Q 3216 3869 3216 3328 
Q 3216 3053 3103 2787 
Q 2991 2522 2730 2228 
Q 2469 1934 1863 1422 
Q 1356 997 1212 845 
Q 1069 694 975 541 
L 3222 541 
z
" transform="scale(0.015625)"/>
       </defs>
       <use xlink:href="#ArialMT-31"/>
       <use xlink:href="#ArialMT-32" x="55.615234"/>
       <use xlink:href="#ArialMT-30" x="111.230469"/>
      </g>
     </g>
    </g>
    <g id="text_8">
     <!-- Bayley-III cognitive composite score [a.u.] -->
     <g transform="translate(31.231818 106.585671) scale(0.06 -0.06)">
      <defs>
       <path id="ArialMT-42" d="M 469 0 
L 469 4581 
L 2188 4581 
Q 2713 4581 3030 4442 
Q 3347 4303 3526 4014 
Q 3706 3725 3706 3409 
Q 3706 3116 3547 2856 
Q 3388 2597 3066 2438 
Q 3481 2316 3704 2022 
Q 3928 1728 3928 1328 
Q 3928 1006 3792 729 
Q 3656 453 3456 303 
Q 3256 153 2954 76 
Q 2653 0 2216 0 
L 469 0 
z
M 1075 2656 
L 2066 2656 
Q 2469 2656 2644 2709 
Q 2875 2778 2992 2937 
Q 3109 3097 3109 3338 
Q 3109 3566 3000 3739 
Q 2891 3913 2687 3977 
Q 2484 4041 1991 4041 
L 1075 4041 
L 1075 2656 
z
M 1075 541 
L 2216 541 
Q 2509 541 2628 563 
Q 2838 600 2978 687 
Q 3119 775 3209 942 
Q 3300 1109 3300 1328 
Q 3300 1584 3169 1773 
Q 3038 1963 2805 2039 
Q 2572 2116 2134 2116 
L 1075 2116 
L 1075 541 
z
" transform="scale(0.015625)"/>
       <path id="ArialMT-61" d="M 2588 409 
Q 2275 144 1986 34 
Q 1697 -75 1366 -75 
Q 819 -75 525 192 
Q 231 459 231 875 
Q 231 1119 342 1320 
Q 453 1522 633 1644 
Q 813 1766 1038 1828 
Q 1203 1872 1538 1913 
Q 2219 1994 2541 2106 
Q 2544 2222 2544 2253 
Q 2544 2597 2384 2738 
Q 2169 2928 1744 2928 
Q 1347 2928 1158 2789 
Q 969 2650 878 2297 
L 328 2372 
Q 403 2725 575 2942 
Q 747 3159 1072 3276 
Q 1397 3394 1825 3394 
Q 2250 3394 2515 3294 
Q 2781 3194 2906 3042 
Q 3031 2891 3081 2659 
Q 3109 2516 3109 2141 
L 3109 1391 
Q 3109 606 3145 398 
Q 3181 191 3288 0 
L 2700 0 
Q 2613 175 2588 409 
z
M 2541 1666 
Q 2234 1541 1622 1453 
Q 1275 1403 1131 1340 
Q 988 1278 909 1158 
Q 831 1038 831 891 
Q 831 666 1001 516 
Q 1172 366 1500 366 
Q 1825 366 2078 508 
Q 2331 650 2450 897 
Q 2541 1088 2541 1459 
L 2541 1666 
z
" transform="scale(0.015625)"/>
       <path id="ArialMT-79" d="M 397 -1278 
L 334 -750 
Q 519 -800 656 -800 
Q 844 -800 956 -737 
Q 1069 -675 1141 -563 
Q 1194 -478 1313 -144 
Q 1328 -97 1363 -6 
L 103 3319 
L 709 3319 
L 1400 1397 
Q 1534 1031 1641 628 
Q 1738 1016 1872 1384 
L 2581 3319 
L 3144 3319 
L 1881 -56 
Q 1678 -603 1566 -809 
Q 1416 -1088 1222 -1217 
Q 1028 -1347 759 -1347 
Q 597 -1347 397 -1278 
z
" transform="scale(0.015625)"/>
       <path id="ArialMT-6c" d="M 409 0 
L 409 4581 
L 972 4581 
L 972 0 
L 409 0 
z
" transform="scale(0.015625)"/>
       <path id="ArialMT-65" d="M 2694 1069 
L 3275 997 
Q 3138 488 2766 206 
Q 2394 -75 1816 -75 
Q 1088 -75 661 373 
Q 234 822 234 1631 
Q 234 2469 665 2931 
Q 1097 3394 1784 3394 
Q 2450 3394 2872 2941 
Q 3294 2488 3294 1666 
Q 3294 1616 3291 1516 
L 816 1516 
Q 847 969 1125 678 
Q 1403 388 1819 388 
Q 2128 388 2347 550 
Q 2566 713 2694 1069 
z
M 847 1978 
L 2700 1978 
Q 2663 2397 2488 2606 
Q 2219 2931 1791 2931 
Q 1403 2931 1139 2672 
Q 875 2413 847 1978 
z
" transform="scale(0.015625)"/>
       <path id="ArialMT-2d" d="M 203 1375 
L 203 1941 
L 1931 1941 
L 1931 1375 
L 203 1375 
z
" transform="scale(0.015625)"/>
       <path id="ArialMT-49" d="M 597 0 
L 597 4581 
L 1203 4581 
L 1203 0 
L 597 0 
z
" transform="scale(0.015625)"/>
       <path id="ArialMT-20" transform="scale(0.015625)"/>
       <path id="ArialMT-63" d="M 2588 1216 
L 3141 1144 
Q 3050 572 2676 248 
Q 2303 -75 1759 -75 
Q 1078 -75 664 370 
Q 250 816 250 1647 
Q 250 2184 428 2587 
Q 606 2991 970 3192 
Q 1334 3394 1763 3394 
Q 2303 3394 2647 3120 
Q 2991 2847 3088 2344 
L 2541 2259 
Q 2463 2594 2264 2762 
Q 2066 2931 1784 2931 
Q 1359 2931 1093 2626 
Q 828 2322 828 1663 
Q 828 994 1084 691 
Q 1341 388 1753 388 
Q 2084 388 2306 591 
Q 2528 794 2588 1216 
z
" transform="scale(0.015625)"/>
       <path id="ArialMT-6f" d="M 213 1659 
Q 213 2581 725 3025 
Q 1153 3394 1769 3394 
Q 2453 3394 2887 2945 
Q 3322 2497 3322 1706 
Q 3322 1066 3130 698 
Q 2938 331 2570 128 
Q 2203 -75 1769 -75 
Q 1072 -75 642 372 
Q 213 819 213 1659 
z
M 791 1659 
Q 791 1022 1069 705 
Q 1347 388 1769 388 
Q 2188 388 2466 706 
Q 2744 1025 2744 1678 
Q 2744 2294 2464 2611 
Q 2184 2928 1769 2928 
Q 1347 2928 1069 2612 
Q 791 2297 791 1659 
z
" transform="scale(0.015625)"/>
       <path id="ArialMT-67" d="M 319 -275 
L 866 -356 
Q 900 -609 1056 -725 
Q 1266 -881 1628 -881 
Q 2019 -881 2231 -725 
Q 2444 -569 2519 -288 
Q 2563 -116 2559 434 
Q 2191 0 1641 0 
Q 956 0 581 494 
Q 206 988 206 1678 
Q 206 2153 378 2554 
Q 550 2956 876 3175 
Q 1203 3394 1644 3394 
Q 2231 3394 2613 2919 
L 2613 3319 
L 3131 3319 
L 3131 450 
Q 3131 -325 2973 -648 
Q 2816 -972 2473 -1159 
Q 2131 -1347 1631 -1347 
Q 1038 -1347 672 -1080 
Q 306 -813 319 -275 
z
M 784 1719 
Q 784 1066 1043 766 
Q 1303 466 1694 466 
Q 2081 466 2343 764 
Q 2606 1063 2606 1700 
Q 2606 2309 2336 2618 
Q 2066 2928 1684 2928 
Q 1309 2928 1046 2623 
Q 784 2319 784 1719 
z
" transform="scale(0.015625)"/>
       <path id="ArialMT-6e" d="M 422 0 
L 422 3319 
L 928 3319 
L 928 2847 
Q 1294 3394 1984 3394 
Q 2284 3394 2536 3286 
Q 2788 3178 2913 3003 
Q 3038 2828 3088 2588 
Q 3119 2431 3119 2041 
L 3119 0 
L 2556 0 
L 2556 2019 
Q 2556 2363 2490 2533 
Q 2425 2703 2258 2804 
Q 2091 2906 1866 2906 
Q 1506 2906 1245 2678 
Q 984 2450 984 1813 
L 984 0 
L 422 0 
z
" transform="scale(0.015625)"/>
       <path id="ArialMT-69" d="M 425 3934 
L 425 4581 
L 988 4581 
L 988 3934 
L 425 3934 
z
M 425 0 
L 425 3319 
L 988 3319 
L 988 0 
L 425 0 
z
" transform="scale(0.015625)"/>
       <path id="ArialMT-74" d="M 1650 503 
L 1731 6 
Q 1494 -44 1306 -44 
Q 1000 -44 831 53 
Q 663 150 594 308 
Q 525 466 525 972 
L 525 2881 
L 113 2881 
L 113 3319 
L 525 3319 
L 525 4141 
L 1084 4478 
L 1084 3319 
L 1650 3319 
L 1650 2881 
L 1084 2881 
L 1084 941 
Q 1084 700 1114 631 
Q 1144 563 1211 522 
Q 1278 481 1403 481 
Q 1497 481 1650 503 
z
" transform="scale(0.015625)"/>
       <path id="ArialMT-76" d="M 1344 0 
L 81 3319 
L 675 3319 
L 1388 1331 
Q 1503 1009 1600 663 
Q 1675 925 1809 1294 
L 2547 3319 
L 3125 3319 
L 1869 0 
L 1344 0 
z
" transform="scale(0.015625)"/>
       <path id="ArialMT-6d" d="M 422 0 
L 422 3319 
L 925 3319 
L 925 2853 
Q 1081 3097 1340 3245 
Q 1600 3394 1931 3394 
Q 2300 3394 2536 3241 
Q 2772 3088 2869 2813 
Q 3263 3394 3894 3394 
Q 4388 3394 4653 3120 
Q 4919 2847 4919 2278 
L 4919 0 
L 4359 0 
L 4359 2091 
Q 4359 2428 4304 2576 
Q 4250 2725 4106 2815 
Q 3963 2906 3769 2906 
Q 3419 2906 3187 2673 
Q 2956 2441 2956 1928 
L 2956 0 
L 2394 0 
L 2394 2156 
Q 2394 2531 2256 2718 
Q 2119 2906 1806 2906 
Q 1569 2906 1367 2781 
Q 1166 2656 1075 2415 
Q 984 2175 984 1722 
L 984 0 
L 422 0 
z
" transform="scale(0.015625)"/>
       <path id="ArialMT-70" d="M 422 -1272 
L 422 3319 
L 934 3319 
L 934 2888 
Q 1116 3141 1344 3267 
Q 1572 3394 1897 3394 
Q 2322 3394 2647 3175 
Q 2972 2956 3137 2557 
Q 3303 2159 3303 1684 
Q 3303 1175 3120 767 
Q 2938 359 2589 142 
Q 2241 -75 1856 -75 
Q 1575 -75 1351 44 
Q 1128 163 984 344 
L 984 -1272 
L 422 -1272 
z
M 931 1641 
Q 931 1000 1190 694 
Q 1450 388 1819 388 
Q 2194 388 2461 705 
Q 2728 1022 2728 1688 
Q 2728 2322 2467 2637 
Q 2206 2953 1844 2953 
Q 1484 2953 1207 2617 
Q 931 2281 931 1641 
z
" transform="scale(0.015625)"/>
       <path id="ArialMT-73" d="M 197 991 
L 753 1078 
Q 800 744 1014 566 
Q 1228 388 1613 388 
Q 2000 388 2187 545 
Q 2375 703 2375 916 
Q 2375 1106 2209 1216 
Q 2094 1291 1634 1406 
Q 1016 1563 777 1677 
Q 538 1791 414 1992 
Q 291 2194 291 2438 
Q 291 2659 392 2848 
Q 494 3038 669 3163 
Q 800 3259 1026 3326 
Q 1253 3394 1513 3394 
Q 1903 3394 2198 3281 
Q 2494 3169 2634 2976 
Q 2775 2784 2828 2463 
L 2278 2388 
Q 2241 2644 2061 2787 
Q 1881 2931 1553 2931 
Q 1166 2931 1000 2803 
Q 834 2675 834 2503 
Q 834 2394 903 2306 
Q 972 2216 1119 2156 
Q 1203 2125 1616 2013 
Q 2213 1853 2448 1751 
Q 2684 1650 2818 1456 
Q 2953 1263 2953 975 
Q 2953 694 2789 445 
Q 2625 197 2315 61 
Q 2006 -75 1616 -75 
Q 969 -75 630 194 
Q 291 463 197 991 
z
" transform="scale(0.015625)"/>
       <path id="ArialMT-72" d="M 416 0 
L 416 3319 
L 922 3319 
L 922 2816 
Q 1116 3169 1280 3281 
Q 1444 3394 1641 3394 
Q 1925 3394 2219 3213 
L 2025 2691 
Q 1819 2813 1613 2813 
Q 1428 2813 1281 2702 
Q 1134 2591 1072 2394 
Q 978 2094 978 1738 
L 978 0 
L 416 0 
z
" transform="scale(0.015625)"/>
       <path id="ArialMT-5b" d="M 434 -1272 
L 434 4581 
L 1675 4581 
L 1675 4116 
L 997 4116 
L 997 -806 
L 1675 -806 
L 1675 -1272 
L 434 -1272 
z
" transform="scale(0.015625)"/>
       <path id="ArialMT-2e" d="M 581 0 
L 581 641 
L 1222 641 
L 1222 0 
L 581 0 
z
" transform="scale(0.015625)"/>
       <path id="ArialMT-75" d="M 2597 0 
L 2597 488 
Q 2209 -75 1544 -75 
Q 1250 -75 995 37 
Q 741 150 617 320 
Q 494 491 444 738 
Q 409 903 409 1263 
L 409 3319 
L 972 3319 
L 972 1478 
Q 972 1038 1006 884 
Q 1059 663 1231 536 
Q 1403 409 1656 409 
Q 1909 409 2131 539 
Q 2353 669 2445 892 
Q 2538 1116 2538 1541 
L 2538 3319 
L 3100 3319 
L 3100 0 
L 2597 0 
z
" transform="scale(0.015625)"/>
       <path id="ArialMT-5d" d="M 1363 -1272 
L 122 -1272 
L 122 -806 
L 800 -806 
L 800 4116 
L 122 4116 
L 122 4581 
L 1363 4581 
L 1363 -1272 
z
" transform="scale(0.015625)"/>
      </defs>
      <use xlink:href="#ArialMT-42"/>
      <use xlink:href="#ArialMT-61" x="66.699219"/>
      <use xlink:href="#ArialMT-79" x="122.314453"/>
      <use xlink:href="#ArialMT-6c" x="172.314453"/>
      <use xlink:href="#ArialMT-65" x="194.53125"/>
      <use xlink:href="#ArialMT-79" x="250.146484"/>
      <use xlink:href="#ArialMT-2d" x="300.146484"/>
      <use xlink:href="#ArialMT-49" x="333.447266"/>
      <use xlink:href="#ArialMT-49" x="361.230469"/>
      <use xlink:href="#ArialMT-49" x="389.013672"/>
      <use xlink:href="#ArialMT-20" x="416.796875"/>
      <use xlink:href="#ArialMT-63" x="444.580078"/>
      <use xlink:href="#ArialMT-6f" x="494.580078"/>
      <use xlink:href="#ArialMT-67" x="550.195312"/>
      <use xlink:href="#ArialMT-6e" x="605.810547"/>
      <use xlink:href="#ArialMT-69" x="661.425781"/>
      <use xlink:href="#ArialMT-74" x="683.642578"/>
      <use xlink:href="#ArialMT-69" x="711.425781"/>
      <use xlink:href="#ArialMT-76" x="733.642578"/>
      <use xlink:href="#ArialMT-65" x="783.642578"/>
      <use xlink:href="#ArialMT-20" x="839.257812"/>
      <use xlink:href="#ArialMT-63" x="867.041016"/>
      <use xlink:href="#ArialMT-6f" x="917.041016"/>
      <use xlink:href="#ArialMT-6d" x="972.65625"/>
      <use xlink:href="#ArialMT-70" x="1055.957031"/>
      <use xlink:href="#ArialMT-6f" x="1111.572266"/>
      <use xlink:href="#ArialMT-73" x="1167.1875"/>
      <use xlink:href="#ArialMT-69" x="1217.1875"/>
      <use xlink:href="#ArialMT-74" x="1239.404297"/>
      <use xlink:href="#ArialMT-65" x="1267.1875"/>
      <use xlink:href="#ArialMT-20" x="1322.802734"/>
      <use xlink:href="#ArialMT-73" x="1350.585938"/>
      <use xlink:href="#ArialMT-63" x="1400.585938"/>
      <use xlink:href="#ArialMT-6f" x="1450.585938"/>
      <use xlink:href="#ArialMT-72" x="1506.201172"/>
      <use xlink:href="#ArialMT-65" x="1539.501953"/>
      <use xlink:href="#ArialMT-20" x="1595.117188"/>
      <use xlink:href="#ArialMT-5b" x="1622.900391"/>
      <use xlink:href="#ArialMT-61" x="1650.683594"/>
      <use xlink:href="#ArialMT-2e" x="1706.298828"/>
      <use xlink:href="#ArialMT-75" x="1734.082031"/>
      <use xlink:href="#ArialMT-2e" x="1789.697266"/>
      <use xlink:href="#ArialMT-5d" x="1817.480469"/>
     </g>
    </g>
   </g>
   <g id="matplotlib.axis_2">
    <g id="ytick_1">
     <g id="line2d_8">
      <defs>
       <path id="md975259fc6" d="M 0 0 
L -3.5 0 
" style="stroke: #000000; stroke-width: 0.25"/>
      </defs>
      <g>
       <use xlink:href="#md975259fc6" x="22.6675" y="85.408403" style="stroke: #000000; stroke-width: 0.25"/>
      </g>
     </g>
     <g id="text_9">
      <!-- 0 -->
      <g transform="translate(15.387031 87.197856) scale(0.05 -0.05)">
       <use xlink:href="#ArialMT-30"/>
      </g>
     </g>
    </g>
    <g id="ytick_2">
     <g id="line2d_9">
      <g>
       <use xlink:href="#md975259fc6" x="22.6675" y="72.708656" style="stroke: #000000; stroke-width: 0.25"/>
      </g>
     </g>
     <g id="text_10">
      <!-- 1 -->
      <g transform="translate(15.387031 74.498109) scale(0.05 -0.05)">
       <use xlink:href="#ArialMT-31"/>
      </g>
     </g>
    </g>
    <g id="ytick_3">
     <g id="line2d_10">
      <g>
       <use xlink:href="#md975259fc6" x="22.6675" y="60.00891" style="stroke: #000000; stroke-width: 0.25"/>
      </g>
     </g>
     <g id="text_11">
      <!-- 2 -->
      <g transform="translate(15.387031 61.798363) scale(0.05 -0.05)">
       <use xlink:href="#ArialMT-32"/>
      </g>
     </g>
    </g>
    <g id="ytick_4">
     <g id="line2d_11">
      <g>
       <use xlink:href="#md975259fc6" x="22.6675" y="47.309163" style="stroke: #000000; stroke-width: 0.25"/>
      </g>
     </g>
     <g id="text_12">
      <!-- 3 -->
      <g transform="translate(15.387031 49.098617) scale(0.05 -0.05)">
       <defs>
        <path id="ArialMT-33" d="M 269 1209 
L 831 1284 
Q 928 806 1161 595 
Q 1394 384 1728 384 
Q 2125 384 2398 659 
Q 2672 934 2672 1341 
Q 2672 1728 2419 1979 
Q 2166 2231 1775 2231 
Q 1616 2231 1378 2169 
L 1441 2663 
Q 1497 2656 1531 2656 
Q 1891 2656 2178 2843 
Q 2466 3031 2466 3422 
Q 2466 3731 2256 3934 
Q 2047 4138 1716 4138 
Q 1388 4138 1169 3931 
Q 950 3725 888 3313 
L 325 3413 
Q 428 3978 793 4289 
Q 1159 4600 1703 4600 
Q 2078 4600 2393 4439 
Q 2709 4278 2876 4000 
Q 3044 3722 3044 3409 
Q 3044 3113 2884 2869 
Q 2725 2625 2413 2481 
Q 2819 2388 3044 2092 
Q 3269 1797 3269 1353 
Q 3269 753 2831 336 
Q 2394 -81 1725 -81 
Q 1122 -81 723 278 
Q 325 638 269 1209 
z
" transform="scale(0.015625)"/>
       </defs>
       <use xlink:href="#ArialMT-33"/>
      </g>
     </g>
    </g>
    <g id="ytick_5">
     <g id="line2d_12">
      <g>
       <use xlink:href="#md975259fc6" x="22.6675" y="34.609417" style="stroke: #000000; stroke-width: 0.25"/>
      </g>
     </g>
     <g id="text_13">
      <!-- 4 -->
      <g transform="translate(15.387031 36.39887) scale(0.05 -0.05)">
       <defs>
        <path id="ArialMT-34" d="M 2069 0 
L 2069 1097 
L 81 1097 
L 81 1613 
L 2172 4581 
L 2631 4581 
L 2631 1613 
L 3250 1613 
L 3250 1097 
L 2631 1097 
L 2631 0 
L 2069 0 
z
M 2069 1613 
L 2069 3678 
L 634 1613 
L 2069 1613 
z
" transform="scale(0.015625)"/>
       </defs>
       <use xlink:href="#ArialMT-34"/>
      </g>
     </g>
    </g>
    <g id="ytick_6">
     <g id="line2d_13">
      <g>
       <use xlink:href="#md975259fc6" x="22.6675" y="21.90967" style="stroke: #000000; stroke-width: 0.25"/>
      </g>
     </g>
     <g id="text_14">
      <!-- 5 -->
      <g transform="translate(15.387031 23.699124) scale(0.05 -0.05)">
       <defs>
        <path id="ArialMT-35" d="M 266 1200 
L 856 1250 
Q 922 819 1161 601 
Q 1400 384 1738 384 
Q 2144 384 2425 690 
Q 2706 997 2706 1503 
Q 2706 1984 2436 2262 
Q 2166 2541 1728 2541 
Q 1456 2541 1237 2417 
Q 1019 2294 894 2097 
L 366 2166 
L 809 4519 
L 3088 4519 
L 3088 3981 
L 1259 3981 
L 1013 2750 
Q 1425 3038 1878 3038 
Q 2478 3038 2890 2622 
Q 3303 2206 3303 1553 
Q 3303 931 2941 478 
Q 2500 -78 1738 -78 
Q 1113 -78 717 272 
Q 322 622 266 1200 
z
" transform="scale(0.015625)"/>
       </defs>
       <use xlink:href="#ArialMT-35"/>
      </g>
     </g>
    </g>
    <g id="ytick_7">
     <g id="line2d_14">
      <g>
       <use xlink:href="#md975259fc6" x="22.6675" y="9.209924" style="stroke: #000000; stroke-width: 0.25"/>
      </g>
     </g>
     <g id="text_15">
      <!-- 6 -->
      <g transform="translate(15.387031 10.999377) scale(0.05 -0.05)">
       <use xlink:href="#ArialMT-36"/>
      </g>
     </g>
    </g>
    <g id="text_16">
     <!-- Number supranormal deviations [a.u.] -->
     <g transform="translate(10.194531 97.329945) rotate(-90) scale(0.06 -0.06)">
      <defs>
       <path id="ArialMT-4e" d="M 488 0 
L 488 4581 
L 1109 4581 
L 3516 984 
L 3516 4581 
L 4097 4581 
L 4097 0 
L 3475 0 
L 1069 3600 
L 1069 0 
L 488 0 
z
" transform="scale(0.015625)"/>
       <path id="ArialMT-62" d="M 941 0 
L 419 0 
L 419 4581 
L 981 4581 
L 981 2947 
Q 1338 3394 1891 3394 
Q 2197 3394 2470 3270 
Q 2744 3147 2920 2923 
Q 3097 2700 3197 2384 
Q 3297 2069 3297 1709 
Q 3297 856 2875 390 
Q 2453 -75 1863 -75 
Q 1275 -75 941 416 
L 941 0 
z
M 934 1684 
Q 934 1088 1097 822 
Q 1363 388 1816 388 
Q 2184 388 2453 708 
Q 2722 1028 2722 1663 
Q 2722 2313 2464 2622 
Q 2206 2931 1841 2931 
Q 1472 2931 1203 2611 
Q 934 2291 934 1684 
z
" transform="scale(0.015625)"/>
       <path id="ArialMT-64" d="M 2575 0 
L 2575 419 
Q 2259 -75 1647 -75 
Q 1250 -75 917 144 
Q 584 363 401 755 
Q 219 1147 219 1656 
Q 219 2153 384 2558 
Q 550 2963 881 3178 
Q 1213 3394 1622 3394 
Q 1922 3394 2156 3267 
Q 2391 3141 2538 2938 
L 2538 4581 
L 3097 4581 
L 3097 0 
L 2575 0 
z
M 797 1656 
Q 797 1019 1065 703 
Q 1334 388 1700 388 
Q 2069 388 2326 689 
Q 2584 991 2584 1609 
Q 2584 2291 2321 2609 
Q 2059 2928 1675 2928 
Q 1300 2928 1048 2622 
Q 797 2316 797 1656 
z
" transform="scale(0.015625)"/>
      </defs>
      <use xlink:href="#ArialMT-4e"/>
      <use xlink:href="#ArialMT-75" x="72.216797"/>
      <use xlink:href="#ArialMT-6d" x="127.832031"/>
      <use xlink:href="#ArialMT-62" x="211.132812"/>
      <use xlink:href="#ArialMT-65" x="266.748047"/>
      <use xlink:href="#ArialMT-72" x="322.363281"/>
      <use xlink:href="#ArialMT-20" x="355.664062"/>
      <use xlink:href="#ArialMT-73" x="383.447266"/>
      <use xlink:href="#ArialMT-75" x="433.447266"/>
      <use xlink:href="#ArialMT-70" x="489.0625"/>
      <use xlink:href="#ArialMT-72" x="544.677734"/>
      <use xlink:href="#ArialMT-61" x="577.978516"/>
      <use xlink:href="#ArialMT-6e" x="633.59375"/>
      <use xlink:href="#ArialMT-6f" x="689.208984"/>
      <use xlink:href="#ArialMT-72" x="744.824219"/>
      <use xlink:href="#ArialMT-6d" x="778.125"/>
      <use xlink:href="#ArialMT-61" x="861.425781"/>
      <use xlink:href="#ArialMT-6c" x="917.041016"/>
      <use xlink:href="#ArialMT-20" x="939.257812"/>
      <use xlink:href="#ArialMT-64" x="967.041016"/>
      <use xlink:href="#ArialMT-65" x="1022.65625"/>
      <use xlink:href="#ArialMT-76" x="1078.271484"/>
      <use xlink:href="#ArialMT-69" x="1128.271484"/>
      <use xlink:href="#ArialMT-61" x="1150.488281"/>
      <use xlink:href="#ArialMT-74" x="1206.103516"/>
      <use xlink:href="#ArialMT-69" x="1233.886719"/>
      <use xlink:href="#ArialMT-6f" x="1256.103516"/>
      <use xlink:href="#ArialMT-6e" x="1311.71875"/>
      <use xlink:href="#ArialMT-73" x="1367.333984"/>
      <use xlink:href="#ArialMT-20" x="1417.333984"/>
      <use xlink:href="#ArialMT-5b" x="1445.117188"/>
      <use xlink:href="#ArialMT-61" x="1472.900391"/>
      <use xlink:href="#ArialMT-2e" x="1528.515625"/>
      <use xlink:href="#ArialMT-75" x="1556.298828"/>
      <use xlink:href="#ArialMT-2e" x="1611.914062"/>
      <use xlink:href="#ArialMT-5d" x="1639.697266"/>
     </g>
    </g>
   </g>
   <g id="line2d_15">
    <path d="M 28.478319 74.566919 
L 29.652221 74.565153 
L 30.826124 74.563386 
L 32.000027 74.56162 
L 33.17393 74.559854 
L 34.347833 74.558087 
L 35.521735 74.556321 
L 36.695638 74.554555 
L 37.869541 74.552789 
L 39.043444 74.551022 
L 40.217346 74.549256 
L 41.391249 74.54749 
L 42.565152 74.545723 
L 43.739055 74.543957 
L 44.912958 74.542191 
L 46.08686 74.540425 
L 47.260763 74.538658 
L 48.434666 74.536892 
L 49.608569 74.535126 
L 50.782471 74.533359 
L 51.956374 74.531593 
L 53.130277 74.529827 
L 54.30418 74.528061 
L 55.478082 74.526294 
L 56.651985 74.524528 
L 57.825888 74.522762 
L 58.999791 74.520995 
L 60.173694 74.519229 
L 61.347596 74.517463 
L 62.521499 74.515696 
L 63.695402 74.51393 
L 64.869305 74.512164 
L 66.043207 74.510398 
L 67.21711 74.508631 
L 68.391013 74.506865 
L 69.564916 74.505099 
L 70.738818 74.503332 
L 71.912721 74.501566 
L 73.086624 74.4998 
L 74.260527 74.498034 
L 75.43443 74.496267 
L 76.608332 74.494501 
L 77.782235 74.492735 
L 78.956138 74.490968 
L 80.130041 74.489202 
L 81.303943 74.487436 
L 82.477846 74.48567 
L 83.651749 74.483903 
L 84.825652 74.482137 
L 85.999555 74.480371 
L 87.173457 74.478604 
L 88.34736 74.476838 
L 89.521263 74.475072 
L 90.695166 74.473306 
L 91.869068 74.471539 
L 93.042971 74.469773 
L 94.216874 74.468007 
L 95.390777 74.46624 
L 96.564679 74.464474 
L 97.738582 74.462708 
L 98.912485 74.460942 
L 100.086388 74.459175 
L 101.260291 74.457409 
L 102.434193 74.455643 
L 103.608096 74.453876 
L 104.781999 74.45211 
L 105.955902 74.450344 
L 107.129804 74.448578 
L 108.303707 74.446811 
L 109.47761 74.445045 
L 110.651513 74.443279 
L 111.825415 74.441512 
L 112.999318 74.439746 
L 114.173221 74.43798 
L 115.347124 74.436213 
L 116.521027 74.434447 
L 117.694929 74.432681 
L 118.868832 74.430915 
L 120.042735 74.429148 
L 121.216638 74.427382 
L 122.39054 74.425616 
L 123.564443 74.423849 
L 124.738346 74.422083 
L 125.912249 74.420317 
L 127.086152 74.418551 
L 128.260054 74.416784 
L 129.433957 74.415018 
L 130.60786 74.413252 
L 131.781763 74.411485 
L 132.955665 74.409719 
L 134.129568 74.407953 
L 135.303471 74.406187 
L 136.477374 74.40442 
L 137.651276 74.402654 
L 138.825179 74.400888 
L 139.999082 74.399121 
L 141.172985 74.397355 
L 142.346888 74.395589 
L 143.52079 74.393823 
L 144.694693 74.392056 
" clip-path="url(#p5d5dee9878)" style="fill: none; stroke: #ff8c00; stroke-width: 0.75; stroke-linecap: square"/>
   </g>
   <g id="patch_3">
    <path d="M 22.6675 89.218327 
L 22.6675 5.4 
" style="fill: none; stroke: #000000; stroke-width: 0.25; stroke-linejoin: miter; stroke-linecap: square"/>
   </g>
   <g id="patch_4">
    <path d="M 22.6675 89.218327 
L 150.505512 89.218327 
" style="fill: none; stroke: #000000; stroke-width: 0.25; stroke-linejoin: miter; stroke-linecap: square"/>
   </g>
   <g id="text_17">
    <g id="patch_5">
     <path d="M 26.50264 18.699023 
L 55.15264 18.699023 
Q 56.65264 18.699023 56.65264 17.199023 
L 56.65264 7.132617 
Q 56.65264 5.632617 55.15264 5.632617 
L 26.50264 5.632617 
Q 25.00264 5.632617 25.00264 7.132617 
L 25.00264 17.199023 
Q 25.00264 18.699023 26.50264 18.699023 
z
" style="fill: #c0c0c0; opacity: 0.4; stroke: #c0c0c0; stroke-linejoin: miter"/>
    </g>
    <!-- $r=-0.004$ -->
    <g transform="translate(26.50264 10.655273) scale(0.05 -0.05)">
     <defs>
      <path id="DejaVuSans-Oblique-72" d="M 2853 2969 
Q 2766 3016 2653 3041 
Q 2541 3066 2413 3066 
Q 1953 3066 1609 2717 
Q 1266 2369 1153 1784 
L 800 0 
L 225 0 
L 909 3500 
L 1484 3500 
L 1375 2956 
Q 1603 3259 1920 3421 
Q 2238 3584 2597 3584 
Q 2691 3584 2781 3573 
Q 2872 3563 2963 3538 
L 2853 2969 
z
" transform="scale(0.015625)"/>
      <path id="DejaVuSans-3d" d="M 678 2906 
L 4684 2906 
L 4684 2381 
L 678 2381 
L 678 2906 
z
M 678 1631 
L 4684 1631 
L 4684 1100 
L 678 1100 
L 678 1631 
z
" transform="scale(0.015625)"/>
      <path id="DejaVuSans-2212" d="M 678 2272 
L 4684 2272 
L 4684 1741 
L 678 1741 
L 678 2272 
z
" transform="scale(0.015625)"/>
      <path id="DejaVuSans-30" d="M 2034 4250 
Q 1547 4250 1301 3770 
Q 1056 3291 1056 2328 
Q 1056 1369 1301 889 
Q 1547 409 2034 409 
Q 2525 409 2770 889 
Q 3016 1369 3016 2328 
Q 3016 3291 2770 3770 
Q 2525 4250 2034 4250 
z
M 2034 4750 
Q 2819 4750 3233 4129 
Q 3647 3509 3647 2328 
Q 3647 1150 3233 529 
Q 2819 -91 2034 -91 
Q 1250 -91 836 529 
Q 422 1150 422 2328 
Q 422 3509 836 4129 
Q 1250 4750 2034 4750 
z
" transform="scale(0.015625)"/>
      <path id="DejaVuSans-2e" d="M 684 794 
L 1344 794 
L 1344 0 
L 684 0 
L 684 794 
z
" transform="scale(0.015625)"/>
      <path id="DejaVuSans-34" d="M 2419 4116 
L 825 1625 
L 2419 1625 
L 2419 4116 
z
M 2253 4666 
L 3047 4666 
L 3047 1625 
L 3713 1625 
L 3713 1100 
L 3047 1100 
L 3047 0 
L 2419 0 
L 2419 1100 
L 313 1100 
L 313 1709 
L 2253 4666 
z
" transform="scale(0.015625)"/>
     </defs>
     <use xlink:href="#DejaVuSans-Oblique-72" transform="translate(0 0.78125)"/>
     <use xlink:href="#DejaVuSans-3d" transform="translate(60.595703 0.78125)"/>
     <use xlink:href="#DejaVuSans-2212" transform="translate(183.349609 0.78125)"/>
     <use xlink:href="#DejaVuSans-30" transform="translate(286.621094 0.78125)"/>
     <use xlink:href="#DejaVuSans-2e" transform="translate(350.244141 0.78125)"/>
     <use xlink:href="#DejaVuSans-30" transform="translate(382.03125 0.78125)"/>
     <use xlink:href="#DejaVuSans-30" transform="translate(445.654297 0.78125)"/>
     <use xlink:href="#DejaVuSans-34" transform="translate(509.277344 0.78125)"/>
    </g>
    <!-- $p=0.958$ -->
    <g transform="translate(26.50264 16.149023) scale(0.05 -0.05)">
     <defs>
      <path id="DejaVuSans-Oblique-70" d="M 3175 2156 
Q 3175 2616 2975 2859 
Q 2775 3103 2400 3103 
Q 2144 3103 1911 2972 
Q 1678 2841 1497 2591 
Q 1319 2344 1212 1994 
Q 1106 1644 1106 1300 
Q 1106 863 1306 627 
Q 1506 391 1875 391 
Q 2147 391 2380 519 
Q 2613 647 2778 891 
Q 2956 1147 3065 1494 
Q 3175 1841 3175 2156 
z
M 1394 2969 
Q 1625 3272 1939 3428 
Q 2253 3584 2638 3584 
Q 3175 3584 3472 3232 
Q 3769 2881 3769 2247 
Q 3769 1728 3584 1258 
Q 3400 788 3053 416 
Q 2822 169 2531 39 
Q 2241 -91 1919 -91 
Q 1547 -91 1294 64 
Q 1041 219 916 525 
L 556 -1331 
L -19 -1331 
L 922 3500 
L 1497 3500 
L 1394 2969 
z
" transform="scale(0.015625)"/>
      <path id="DejaVuSans-39" d="M 703 97 
L 703 672 
Q 941 559 1184 500 
Q 1428 441 1663 441 
Q 2288 441 2617 861 
Q 2947 1281 2994 2138 
Q 2813 1869 2534 1725 
Q 2256 1581 1919 1581 
Q 1219 1581 811 2004 
Q 403 2428 403 3163 
Q 403 3881 828 4315 
Q 1253 4750 1959 4750 
Q 2769 4750 3195 4129 
Q 3622 3509 3622 2328 
Q 3622 1225 3098 567 
Q 2575 -91 1691 -91 
Q 1453 -91 1209 -44 
Q 966 3 703 97 
z
M 1959 2075 
Q 2384 2075 2632 2365 
Q 2881 2656 2881 3163 
Q 2881 3666 2632 3958 
Q 2384 4250 1959 4250 
Q 1534 4250 1286 3958 
Q 1038 3666 1038 3163 
Q 1038 2656 1286 2365 
Q 1534 2075 1959 2075 
z
" transform="scale(0.015625)"/>
      <path id="DejaVuSans-35" d="M 691 4666 
L 3169 4666 
L 3169 4134 
L 1269 4134 
L 1269 2991 
Q 1406 3038 1543 3061 
Q 1681 3084 1819 3084 
Q 2600 3084 3056 2656 
Q 3513 2228 3513 1497 
Q 3513 744 3044 326 
Q 2575 -91 1722 -91 
Q 1428 -91 1123 -41 
Q 819 9 494 109 
L 494 744 
Q 775 591 1075 516 
Q 1375 441 1709 441 
Q 2250 441 2565 725 
Q 2881 1009 2881 1497 
Q 2881 1984 2565 2268 
Q 2250 2553 1709 2553 
Q 1456 2553 1204 2497 
Q 953 2441 691 2322 
L 691 4666 
z
" transform="scale(0.015625)"/>
      <path id="DejaVuSans-38" d="M 2034 2216 
Q 1584 2216 1326 1975 
Q 1069 1734 1069 1313 
Q 1069 891 1326 650 
Q 1584 409 2034 409 
Q 2484 409 2743 651 
Q 3003 894 3003 1313 
Q 3003 1734 2745 1975 
Q 2488 2216 2034 2216 
z
M 1403 2484 
Q 997 2584 770 2862 
Q 544 3141 544 3541 
Q 544 4100 942 4425 
Q 1341 4750 2034 4750 
Q 2731 4750 3128 4425 
Q 3525 4100 3525 3541 
Q 3525 3141 3298 2862 
Q 3072 2584 2669 2484 
Q 3125 2378 3379 2068 
Q 3634 1759 3634 1313 
Q 3634 634 3220 271 
Q 2806 -91 2034 -91 
Q 1263 -91 848 271 
Q 434 634 434 1313 
Q 434 1759 690 2068 
Q 947 2378 1403 2484 
z
M 1172 3481 
Q 1172 3119 1398 2916 
Q 1625 2713 2034 2713 
Q 2441 2713 2670 2916 
Q 2900 3119 2900 3481 
Q 2900 3844 2670 4047 
Q 2441 4250 2034 4250 
Q 1625 4250 1398 4047 
Q 1172 3844 1172 3481 
z
" transform="scale(0.015625)"/>
     </defs>
     <use xlink:href="#DejaVuSans-Oblique-70" transform="translate(0 0.78125)"/>
     <use xlink:href="#DejaVuSans-3d" transform="translate(82.958984 0.78125)"/>
     <use xlink:href="#DejaVuSans-30" transform="translate(186.230469 0.78125)"/>
     <use xlink:href="#DejaVuSans-2e" transform="translate(249.853516 0.78125)"/>
     <use xlink:href="#DejaVuSans-39" transform="translate(281.640625 0.78125)"/>
     <use xlink:href="#DejaVuSans-35" transform="translate(345.263672 0.78125)"/>
     <use xlink:href="#DejaVuSans-38" transform="translate(408.886719 0.78125)"/>
    </g>
   </g>
  </g>
 </g>
 <defs>
  <clipPath id="p5d5dee9878">
   <rect x="22.6675" y="5.4" width="127.838012" height="83.818327"/>
  </clipPath>
 </defs>
</svg>
