<?xml version="1.0" encoding="utf-8" standalone="no"?>
<!DOCTYPE svg PUBLIC "-//W3C//DTD SVG 1.1//EN"
  "http://www.w3.org/Graphics/SVG/1.1/DTD/svg11.dtd">
<svg xmlns:xlink="http://www.w3.org/1999/xlink" width="155.905512pt" height="113.385827pt" viewBox="0 0 155.905512 113.385827" xmlns="http://www.w3.org/2000/svg" version="1.1">
 <metadata>
  <rdf:RDF xmlns:dc="http://purl.org/dc/elements/1.1/" xmlns:cc="http://creativecommons.org/ns#" xmlns:rdf="http://www.w3.org/1999/02/22-rdf-syntax-ns#">
   <cc:Work>
    <dc:type rdf:resource="http://purl.org/dc/dcmitype/StillImage"/>
    <dc:date>2025-06-11T09:26:10.980051</dc:date>
    <dc:format>image/svg+xml</dc:format>
    <dc:creator>
     <cc:Agent>
      <dc:title>Matplotlib v3.9.2, https://matplotlib.org/</dc:title>
     </cc:Agent>
    </dc:creator>
   </cc:Work>
  </rdf:RDF>
 </metadata>
 <defs>
  <style type="text/css">*{stroke-linejoin: round; stroke-linecap: butt}</style>
 </defs>
 <g id="figure_1">
  <g id="patch_1">
   <path d="M 0 113.385827 
L 155.905512 113.385827 
L 155.905512 0 
L 0 0 
z
" style="fill: #ffffff"/>
  </g>
  <g id="axes_1">
   <g id="patch_2">
    <path d="M 25.4275 89.218327 
L 150.505512 89.218327 
L 150.505512 5.4 
L 25.4275 5.4 
z
" style="fill: #ffffff"/>
   </g>
   <g id="PathCollection_1">
    <defs>
     <path id="C0_0_f8bad73e12" d="M 0 0.866025 
C 0.229673 0.866025 0.449969 0.774776 0.612372 0.612372 
C 0.774776 0.449969 0.866025 0.229673 0.866025 -0 
C 0.866025 -0.229673 0.774776 -0.449969 0.612372 -0.612372 
C 0.449969 -0.774776 0.229673 -0.866025 0 -0.866025 
C -0.229673 -0.866025 -0.449969 -0.774776 -0.612372 -0.612372 
C -0.774776 -0.449969 -0.866025 -0.229673 -0.866025 0 
C -0.866025 0.229673 -0.774776 0.449969 -0.612372 0.612372 
C -0.449969 0.774776 -0.229673 0.866025 0 0.866025 
z
"/>
    </defs>
    <g clip-path="url(#p012340340b)">
     <use xlink:href="#C0_0_f8bad73e12" x="87.966506" y="71.801532" style="fill: #ff8c00; fill-opacity: 0.8"/>
    </g>
    <g clip-path="url(#p012340340b)">
     <use xlink:href="#C0_0_f8bad73e12" x="39.234813" y="85.408403" style="fill: #ff8c00; fill-opacity: 0.8"/>
    </g>
    <g clip-path="url(#p012340340b)">
     <use xlink:href="#C0_0_f8bad73e12" x="71.722608" y="85.408403" style="fill: #ff8c00; fill-opacity: 0.8"/>
    </g>
    <g clip-path="url(#p012340340b)">
     <use xlink:href="#C0_0_f8bad73e12" x="96.088455" y="82.687029" style="fill: #ff8c00; fill-opacity: 0.8"/>
    </g>
    <g clip-path="url(#p012340340b)">
     <use xlink:href="#C0_0_f8bad73e12" x="136.698199" y="82.687029" style="fill: #ff8c00; fill-opacity: 0.8"/>
    </g>
    <g clip-path="url(#p012340340b)">
     <use xlink:href="#C0_0_f8bad73e12" x="104.210404" y="82.687029" style="fill: #ff8c00; fill-opacity: 0.8"/>
    </g>
    <g clip-path="url(#p012340340b)">
     <use xlink:href="#C0_0_f8bad73e12" x="104.210404" y="82.687029" style="fill: #ff8c00; fill-opacity: 0.8"/>
    </g>
    <g clip-path="url(#p012340340b)">
     <use xlink:href="#C0_0_f8bad73e12" x="144.820148" y="9.209924" style="fill: #ff8c00; fill-opacity: 0.8"/>
    </g>
    <g clip-path="url(#p012340340b)">
     <use xlink:href="#C0_0_f8bad73e12" x="112.332352" y="69.080157" style="fill: #ff8c00; fill-opacity: 0.8"/>
    </g>
    <g clip-path="url(#p012340340b)">
     <use xlink:href="#C0_0_f8bad73e12" x="128.57625" y="69.080157" style="fill: #ff8c00; fill-opacity: 0.8"/>
    </g>
    <g clip-path="url(#p012340340b)">
     <use xlink:href="#C0_0_f8bad73e12" x="112.332352" y="79.965654" style="fill: #ff8c00; fill-opacity: 0.8"/>
    </g>
    <g clip-path="url(#p012340340b)">
     <use xlink:href="#C0_0_f8bad73e12" x="71.722608" y="69.080157" style="fill: #ff8c00; fill-opacity: 0.8"/>
    </g>
    <g clip-path="url(#p012340340b)">
     <use xlink:href="#C0_0_f8bad73e12" x="55.478711" y="79.965654" style="fill: #ff8c00; fill-opacity: 0.8"/>
    </g>
    <g clip-path="url(#p012340340b)">
     <use xlink:href="#C0_0_f8bad73e12" x="96.088455" y="82.687029" style="fill: #ff8c00; fill-opacity: 0.8"/>
    </g>
    <g clip-path="url(#p012340340b)">
     <use xlink:href="#C0_0_f8bad73e12" x="120.454301" y="77.24428" style="fill: #ff8c00; fill-opacity: 0.8"/>
    </g>
    <g clip-path="url(#p012340340b)">
     <use xlink:href="#C0_0_f8bad73e12" x="96.088455" y="82.687029" style="fill: #ff8c00; fill-opacity: 0.8"/>
    </g>
    <g clip-path="url(#p012340340b)">
     <use xlink:href="#C0_0_f8bad73e12" x="96.088455" y="85.408403" style="fill: #ff8c00; fill-opacity: 0.8"/>
    </g>
    <g clip-path="url(#p012340340b)">
     <use xlink:href="#C0_0_f8bad73e12" x="104.210404" y="79.965654" style="fill: #ff8c00; fill-opacity: 0.8"/>
    </g>
    <g clip-path="url(#p012340340b)">
     <use xlink:href="#C0_0_f8bad73e12" x="112.332352" y="82.687029" style="fill: #ff8c00; fill-opacity: 0.8"/>
    </g>
    <g clip-path="url(#p012340340b)">
     <use xlink:href="#C0_0_f8bad73e12" x="120.454301" y="85.408403" style="fill: #ff8c00; fill-opacity: 0.8"/>
    </g>
    <g clip-path="url(#p012340340b)">
     <use xlink:href="#C0_0_f8bad73e12" x="128.57625" y="82.687029" style="fill: #ff8c00; fill-opacity: 0.8"/>
    </g>
    <g clip-path="url(#p012340340b)">
     <use xlink:href="#C0_0_f8bad73e12" x="96.088455" y="74.522906" style="fill: #ff8c00; fill-opacity: 0.8"/>
    </g>
    <g clip-path="url(#p012340340b)">
     <use xlink:href="#C0_0_f8bad73e12" x="104.210404" y="79.965654" style="fill: #ff8c00; fill-opacity: 0.8"/>
    </g>
    <g clip-path="url(#p012340340b)">
     <use xlink:href="#C0_0_f8bad73e12" x="128.57625" y="66.358783" style="fill: #ff8c00; fill-opacity: 0.8"/>
    </g>
    <g clip-path="url(#p012340340b)">
     <use xlink:href="#C0_0_f8bad73e12" x="104.210404" y="82.687029" style="fill: #ff8c00; fill-opacity: 0.8"/>
    </g>
    <g clip-path="url(#p012340340b)">
     <use xlink:href="#C0_0_f8bad73e12" x="120.454301" y="74.522906" style="fill: #ff8c00; fill-opacity: 0.8"/>
    </g>
    <g clip-path="url(#p012340340b)">
     <use xlink:href="#C0_0_f8bad73e12" x="112.332352" y="79.965654" style="fill: #ff8c00; fill-opacity: 0.8"/>
    </g>
    <g clip-path="url(#p012340340b)">
     <use xlink:href="#C0_0_f8bad73e12" x="104.210404" y="82.687029" style="fill: #ff8c00; fill-opacity: 0.8"/>
    </g>
    <g clip-path="url(#p012340340b)">
     <use xlink:href="#C0_0_f8bad73e12" x="112.332352" y="79.965654" style="fill: #ff8c00; fill-opacity: 0.8"/>
    </g>
    <g clip-path="url(#p012340340b)">
     <use xlink:href="#C0_0_f8bad73e12" x="96.088455" y="79.965654" style="fill: #ff8c00; fill-opacity: 0.8"/>
    </g>
    <g clip-path="url(#p012340340b)">
     <use xlink:href="#C0_0_f8bad73e12" x="87.966506" y="82.687029" style="fill: #ff8c00; fill-opacity: 0.8"/>
    </g>
    <g clip-path="url(#p012340340b)">
     <use xlink:href="#C0_0_f8bad73e12" x="96.088455" y="82.687029" style="fill: #ff8c00; fill-opacity: 0.8"/>
    </g>
    <g clip-path="url(#p012340340b)">
     <use xlink:href="#C0_0_f8bad73e12" x="128.57625" y="79.965654" style="fill: #ff8c00; fill-opacity: 0.8"/>
    </g>
    <g clip-path="url(#p012340340b)">
     <use xlink:href="#C0_0_f8bad73e12" x="104.210404" y="77.24428" style="fill: #ff8c00; fill-opacity: 0.8"/>
    </g>
    <g clip-path="url(#p012340340b)">
     <use xlink:href="#C0_0_f8bad73e12" x="104.210404" y="82.687029" style="fill: #ff8c00; fill-opacity: 0.8"/>
    </g>
    <g clip-path="url(#p012340340b)">
     <use xlink:href="#C0_0_f8bad73e12" x="96.088455" y="82.687029" style="fill: #ff8c00; fill-opacity: 0.8"/>
    </g>
    <g clip-path="url(#p012340340b)">
     <use xlink:href="#C0_0_f8bad73e12" x="104.210404" y="85.408403" style="fill: #ff8c00; fill-opacity: 0.8"/>
    </g>
    <g clip-path="url(#p012340340b)">
     <use xlink:href="#C0_0_f8bad73e12" x="120.454301" y="82.687029" style="fill: #ff8c00; fill-opacity: 0.8"/>
    </g>
    <g clip-path="url(#p012340340b)">
     <use xlink:href="#C0_0_f8bad73e12" x="87.966506" y="82.687029" style="fill: #ff8c00; fill-opacity: 0.8"/>
    </g>
    <g clip-path="url(#p012340340b)">
     <use xlink:href="#C0_0_f8bad73e12" x="104.210404" y="66.358783" style="fill: #ff8c00; fill-opacity: 0.8"/>
    </g>
    <g clip-path="url(#p012340340b)">
     <use xlink:href="#C0_0_f8bad73e12" x="112.332352" y="79.965654" style="fill: #ff8c00; fill-opacity: 0.8"/>
    </g>
    <g clip-path="url(#p012340340b)">
     <use xlink:href="#C0_0_f8bad73e12" x="104.210404" y="85.408403" style="fill: #ff8c00; fill-opacity: 0.8"/>
    </g>
    <g clip-path="url(#p012340340b)">
     <use xlink:href="#C0_0_f8bad73e12" x="87.966506" y="39.145041" style="fill: #ff8c00; fill-opacity: 0.8"/>
    </g>
    <g clip-path="url(#p012340340b)">
     <use xlink:href="#C0_0_f8bad73e12" x="71.722608" y="55.473286" style="fill: #ff8c00; fill-opacity: 0.8"/>
    </g>
    <g clip-path="url(#p012340340b)">
     <use xlink:href="#C0_0_f8bad73e12" x="112.332352" y="85.408403" style="fill: #ff8c00; fill-opacity: 0.8"/>
    </g>
    <g clip-path="url(#p012340340b)">
     <use xlink:href="#C0_0_f8bad73e12" x="96.088455" y="77.24428" style="fill: #ff8c00; fill-opacity: 0.8"/>
    </g>
    <g clip-path="url(#p012340340b)">
     <use xlink:href="#C0_0_f8bad73e12" x="96.088455" y="69.080157" style="fill: #ff8c00; fill-opacity: 0.8"/>
    </g>
    <g clip-path="url(#p012340340b)">
     <use xlink:href="#C0_0_f8bad73e12" x="104.210404" y="71.801532" style="fill: #ff8c00; fill-opacity: 0.8"/>
    </g>
    <g clip-path="url(#p012340340b)">
     <use xlink:href="#C0_0_f8bad73e12" x="96.088455" y="44.587789" style="fill: #ff8c00; fill-opacity: 0.8"/>
    </g>
    <g clip-path="url(#p012340340b)">
     <use xlink:href="#C0_0_f8bad73e12" x="79.844557" y="71.801532" style="fill: #ff8c00; fill-opacity: 0.8"/>
    </g>
    <g clip-path="url(#p012340340b)">
     <use xlink:href="#C0_0_f8bad73e12" x="136.698199" y="79.965654" style="fill: #ff8c00; fill-opacity: 0.8"/>
    </g>
    <g clip-path="url(#p012340340b)">
     <use xlink:href="#C0_0_f8bad73e12" x="71.722608" y="74.522906" style="fill: #ff8c00; fill-opacity: 0.8"/>
    </g>
    <g clip-path="url(#p012340340b)">
     <use xlink:href="#C0_0_f8bad73e12" x="128.57625" y="85.408403" style="fill: #ff8c00; fill-opacity: 0.8"/>
    </g>
    <g clip-path="url(#p012340340b)">
     <use xlink:href="#C0_0_f8bad73e12" x="96.088455" y="79.965654" style="fill: #ff8c00; fill-opacity: 0.8"/>
    </g>
    <g clip-path="url(#p012340340b)">
     <use xlink:href="#C0_0_f8bad73e12" x="71.722608" y="77.24428" style="fill: #ff8c00; fill-opacity: 0.8"/>
    </g>
    <g clip-path="url(#p012340340b)">
     <use xlink:href="#C0_0_f8bad73e12" x="31.112864" y="77.24428" style="fill: #ff8c00; fill-opacity: 0.8"/>
    </g>
    <g clip-path="url(#p012340340b)">
     <use xlink:href="#C0_0_f8bad73e12" x="112.332352" y="85.408403" style="fill: #ff8c00; fill-opacity: 0.8"/>
    </g>
    <g clip-path="url(#p012340340b)">
     <use xlink:href="#C0_0_f8bad73e12" x="112.332352" y="71.801532" style="fill: #ff8c00; fill-opacity: 0.8"/>
    </g>
    <g clip-path="url(#p012340340b)">
     <use xlink:href="#C0_0_f8bad73e12" x="87.966506" y="82.687029" style="fill: #ff8c00; fill-opacity: 0.8"/>
    </g>
    <g clip-path="url(#p012340340b)">
     <use xlink:href="#C0_0_f8bad73e12" x="96.088455" y="85.408403" style="fill: #ff8c00; fill-opacity: 0.8"/>
    </g>
    <g clip-path="url(#p012340340b)">
     <use xlink:href="#C0_0_f8bad73e12" x="31.112864" y="58.19466" style="fill: #ff8c00; fill-opacity: 0.8"/>
    </g>
    <g clip-path="url(#p012340340b)">
     <use xlink:href="#C0_0_f8bad73e12" x="128.57625" y="85.408403" style="fill: #ff8c00; fill-opacity: 0.8"/>
    </g>
    <g clip-path="url(#p012340340b)">
     <use xlink:href="#C0_0_f8bad73e12" x="112.332352" y="82.687029" style="fill: #ff8c00; fill-opacity: 0.8"/>
    </g>
    <g clip-path="url(#p012340340b)">
     <use xlink:href="#C0_0_f8bad73e12" x="128.57625" y="85.408403" style="fill: #ff8c00; fill-opacity: 0.8"/>
    </g>
    <g clip-path="url(#p012340340b)">
     <use xlink:href="#C0_0_f8bad73e12" x="112.332352" y="82.687029" style="fill: #ff8c00; fill-opacity: 0.8"/>
    </g>
    <g clip-path="url(#p012340340b)">
     <use xlink:href="#C0_0_f8bad73e12" x="128.57625" y="85.408403" style="fill: #ff8c00; fill-opacity: 0.8"/>
    </g>
    <g clip-path="url(#p012340340b)">
     <use xlink:href="#C0_0_f8bad73e12" x="112.332352" y="82.687029" style="fill: #ff8c00; fill-opacity: 0.8"/>
    </g>
    <g clip-path="url(#p012340340b)">
     <use xlink:href="#C0_0_f8bad73e12" x="112.332352" y="82.687029" style="fill: #ff8c00; fill-opacity: 0.8"/>
    </g>
    <g clip-path="url(#p012340340b)">
     <use xlink:href="#C0_0_f8bad73e12" x="112.332352" y="82.687029" style="fill: #ff8c00; fill-opacity: 0.8"/>
    </g>
    <g clip-path="url(#p012340340b)">
     <use xlink:href="#C0_0_f8bad73e12" x="112.332352" y="79.965654" style="fill: #ff8c00; fill-opacity: 0.8"/>
    </g>
    <g clip-path="url(#p012340340b)">
     <use xlink:href="#C0_0_f8bad73e12" x="112.332352" y="82.687029" style="fill: #ff8c00; fill-opacity: 0.8"/>
    </g>
    <g clip-path="url(#p012340340b)">
     <use xlink:href="#C0_0_f8bad73e12" x="87.966506" y="82.687029" style="fill: #ff8c00; fill-opacity: 0.8"/>
    </g>
    <g clip-path="url(#p012340340b)">
     <use xlink:href="#C0_0_f8bad73e12" x="96.088455" y="85.408403" style="fill: #ff8c00; fill-opacity: 0.8"/>
    </g>
    <g clip-path="url(#p012340340b)">
     <use xlink:href="#C0_0_f8bad73e12" x="87.966506" y="58.19466" style="fill: #ff8c00; fill-opacity: 0.8"/>
    </g>
    <g clip-path="url(#p012340340b)">
     <use xlink:href="#C0_0_f8bad73e12" x="104.210404" y="79.965654" style="fill: #ff8c00; fill-opacity: 0.8"/>
    </g>
    <g clip-path="url(#p012340340b)">
     <use xlink:href="#C0_0_f8bad73e12" x="104.210404" y="85.408403" style="fill: #ff8c00; fill-opacity: 0.8"/>
    </g>
    <g clip-path="url(#p012340340b)">
     <use xlink:href="#C0_0_f8bad73e12" x="104.210404" y="74.522906" style="fill: #ff8c00; fill-opacity: 0.8"/>
    </g>
    <g clip-path="url(#p012340340b)">
     <use xlink:href="#C0_0_f8bad73e12" x="128.57625" y="79.965654" style="fill: #ff8c00; fill-opacity: 0.8"/>
    </g>
    <g clip-path="url(#p012340340b)">
     <use xlink:href="#C0_0_f8bad73e12" x="136.698199" y="82.687029" style="fill: #ff8c00; fill-opacity: 0.8"/>
    </g>
    <g clip-path="url(#p012340340b)">
     <use xlink:href="#C0_0_f8bad73e12" x="96.088455" y="82.687029" style="fill: #ff8c00; fill-opacity: 0.8"/>
    </g>
    <g clip-path="url(#p012340340b)">
     <use xlink:href="#C0_0_f8bad73e12" x="79.844557" y="82.687029" style="fill: #ff8c00; fill-opacity: 0.8"/>
    </g>
    <g clip-path="url(#p012340340b)">
     <use xlink:href="#C0_0_f8bad73e12" x="87.966506" y="85.408403" style="fill: #ff8c00; fill-opacity: 0.8"/>
    </g>
    <g clip-path="url(#p012340340b)">
     <use xlink:href="#C0_0_f8bad73e12" x="136.698199" y="79.965654" style="fill: #ff8c00; fill-opacity: 0.8"/>
    </g>
    <g clip-path="url(#p012340340b)">
     <use xlink:href="#C0_0_f8bad73e12" x="96.088455" y="85.408403" style="fill: #ff8c00; fill-opacity: 0.8"/>
    </g>
    <g clip-path="url(#p012340340b)">
     <use xlink:href="#C0_0_f8bad73e12" x="104.210404" y="85.408403" style="fill: #ff8c00; fill-opacity: 0.8"/>
    </g>
    <g clip-path="url(#p012340340b)">
     <use xlink:href="#C0_0_f8bad73e12" x="79.844557" y="85.408403" style="fill: #ff8c00; fill-opacity: 0.8"/>
    </g>
    <g clip-path="url(#p012340340b)">
     <use xlink:href="#C0_0_f8bad73e12" x="96.088455" y="85.408403" style="fill: #ff8c00; fill-opacity: 0.8"/>
    </g>
    <g clip-path="url(#p012340340b)">
     <use xlink:href="#C0_0_f8bad73e12" x="96.088455" y="71.801532" style="fill: #ff8c00; fill-opacity: 0.8"/>
    </g>
    <g clip-path="url(#p012340340b)">
     <use xlink:href="#C0_0_f8bad73e12" x="87.966506" y="71.801532" style="fill: #ff8c00; fill-opacity: 0.8"/>
    </g>
    <g clip-path="url(#p012340340b)">
     <use xlink:href="#C0_0_f8bad73e12" x="104.210404" y="71.801532" style="fill: #ff8c00; fill-opacity: 0.8"/>
    </g>
    <g clip-path="url(#p012340340b)">
     <use xlink:href="#C0_0_f8bad73e12" x="112.332352" y="79.965654" style="fill: #ff8c00; fill-opacity: 0.8"/>
    </g>
    <g clip-path="url(#p012340340b)">
     <use xlink:href="#C0_0_f8bad73e12" x="96.088455" y="74.522906" style="fill: #ff8c00; fill-opacity: 0.8"/>
    </g>
    <g clip-path="url(#p012340340b)">
     <use xlink:href="#C0_0_f8bad73e12" x="120.454301" y="82.687029" style="fill: #ff8c00; fill-opacity: 0.8"/>
    </g>
    <g clip-path="url(#p012340340b)">
     <use xlink:href="#C0_0_f8bad73e12" x="87.966506" y="77.24428" style="fill: #ff8c00; fill-opacity: 0.8"/>
    </g>
    <g clip-path="url(#p012340340b)">
     <use xlink:href="#C0_0_f8bad73e12" x="120.454301" y="82.687029" style="fill: #ff8c00; fill-opacity: 0.8"/>
    </g>
    <g clip-path="url(#p012340340b)">
     <use xlink:href="#C0_0_f8bad73e12" x="120.454301" y="55.473286" style="fill: #ff8c00; fill-opacity: 0.8"/>
    </g>
    <g clip-path="url(#p012340340b)">
     <use xlink:href="#C0_0_f8bad73e12" x="79.844557" y="79.965654" style="fill: #ff8c00; fill-opacity: 0.8"/>
    </g>
    <g clip-path="url(#p012340340b)">
     <use xlink:href="#C0_0_f8bad73e12" x="120.454301" y="79.965654" style="fill: #ff8c00; fill-opacity: 0.8"/>
    </g>
    <g clip-path="url(#p012340340b)">
     <use xlink:href="#C0_0_f8bad73e12" x="112.332352" y="82.687029" style="fill: #ff8c00; fill-opacity: 0.8"/>
    </g>
    <g clip-path="url(#p012340340b)">
     <use xlink:href="#C0_0_f8bad73e12" x="104.210404" y="82.687029" style="fill: #ff8c00; fill-opacity: 0.8"/>
    </g>
    <g clip-path="url(#p012340340b)">
     <use xlink:href="#C0_0_f8bad73e12" x="96.088455" y="28.259544" style="fill: #ff8c00; fill-opacity: 0.8"/>
    </g>
    <g clip-path="url(#p012340340b)">
     <use xlink:href="#C0_0_f8bad73e12" x="87.966506" y="77.24428" style="fill: #ff8c00; fill-opacity: 0.8"/>
    </g>
    <g clip-path="url(#p012340340b)">
     <use xlink:href="#C0_0_f8bad73e12" x="144.820148" y="82.687029" style="fill: #ff8c00; fill-opacity: 0.8"/>
    </g>
    <g clip-path="url(#p012340340b)">
     <use xlink:href="#C0_0_f8bad73e12" x="112.332352" y="79.965654" style="fill: #ff8c00; fill-opacity: 0.8"/>
    </g>
    <g clip-path="url(#p012340340b)">
     <use xlink:href="#C0_0_f8bad73e12" x="128.57625" y="79.965654" style="fill: #ff8c00; fill-opacity: 0.8"/>
    </g>
    <g clip-path="url(#p012340340b)">
     <use xlink:href="#C0_0_f8bad73e12" x="112.332352" y="79.965654" style="fill: #ff8c00; fill-opacity: 0.8"/>
    </g>
    <g clip-path="url(#p012340340b)">
     <use xlink:href="#C0_0_f8bad73e12" x="55.478711" y="82.687029" style="fill: #ff8c00; fill-opacity: 0.8"/>
    </g>
    <g clip-path="url(#p012340340b)">
     <use xlink:href="#C0_0_f8bad73e12" x="96.088455" y="82.687029" style="fill: #ff8c00; fill-opacity: 0.8"/>
    </g>
    <g clip-path="url(#p012340340b)">
     <use xlink:href="#C0_0_f8bad73e12" x="104.210404" y="77.24428" style="fill: #ff8c00; fill-opacity: 0.8"/>
    </g>
    <g clip-path="url(#p012340340b)">
     <use xlink:href="#C0_0_f8bad73e12" x="96.088455" y="79.965654" style="fill: #ff8c00; fill-opacity: 0.8"/>
    </g>
    <g clip-path="url(#p012340340b)">
     <use xlink:href="#C0_0_f8bad73e12" x="104.210404" y="82.687029" style="fill: #ff8c00; fill-opacity: 0.8"/>
    </g>
    <g clip-path="url(#p012340340b)">
     <use xlink:href="#C0_0_f8bad73e12" x="128.57625" y="74.522906" style="fill: #ff8c00; fill-opacity: 0.8"/>
    </g>
    <g clip-path="url(#p012340340b)">
     <use xlink:href="#C0_0_f8bad73e12" x="104.210404" y="77.24428" style="fill: #ff8c00; fill-opacity: 0.8"/>
    </g>
    <g clip-path="url(#p012340340b)">
     <use xlink:href="#C0_0_f8bad73e12" x="104.210404" y="74.522906" style="fill: #ff8c00; fill-opacity: 0.8"/>
    </g>
    <g clip-path="url(#p012340340b)">
     <use xlink:href="#C0_0_f8bad73e12" x="87.966506" y="82.687029" style="fill: #ff8c00; fill-opacity: 0.8"/>
    </g>
    <g clip-path="url(#p012340340b)">
     <use xlink:href="#C0_0_f8bad73e12" x="96.088455" y="77.24428" style="fill: #ff8c00; fill-opacity: 0.8"/>
    </g>
    <g clip-path="url(#p012340340b)">
     <use xlink:href="#C0_0_f8bad73e12" x="128.57625" y="82.687029" style="fill: #ff8c00; fill-opacity: 0.8"/>
    </g>
    <g clip-path="url(#p012340340b)">
     <use xlink:href="#C0_0_f8bad73e12" x="104.210404" y="82.687029" style="fill: #ff8c00; fill-opacity: 0.8"/>
    </g>
    <g clip-path="url(#p012340340b)">
     <use xlink:href="#C0_0_f8bad73e12" x="104.210404" y="82.687029" style="fill: #ff8c00; fill-opacity: 0.8"/>
    </g>
    <g clip-path="url(#p012340340b)">
     <use xlink:href="#C0_0_f8bad73e12" x="96.088455" y="79.965654" style="fill: #ff8c00; fill-opacity: 0.8"/>
    </g>
    <g clip-path="url(#p012340340b)">
     <use xlink:href="#C0_0_f8bad73e12" x="104.210404" y="82.687029" style="fill: #ff8c00; fill-opacity: 0.8"/>
    </g>
    <g clip-path="url(#p012340340b)">
     <use xlink:href="#C0_0_f8bad73e12" x="87.966506" y="82.687029" style="fill: #ff8c00; fill-opacity: 0.8"/>
    </g>
    <g clip-path="url(#p012340340b)">
     <use xlink:href="#C0_0_f8bad73e12" x="104.210404" y="82.687029" style="fill: #ff8c00; fill-opacity: 0.8"/>
    </g>
    <g clip-path="url(#p012340340b)">
     <use xlink:href="#C0_0_f8bad73e12" x="112.332352" y="74.522906" style="fill: #ff8c00; fill-opacity: 0.8"/>
    </g>
    <g clip-path="url(#p012340340b)">
     <use xlink:href="#C0_0_f8bad73e12" x="104.210404" y="58.19466" style="fill: #ff8c00; fill-opacity: 0.8"/>
    </g>
    <g clip-path="url(#p012340340b)">
     <use xlink:href="#C0_0_f8bad73e12" x="87.966506" y="69.080157" style="fill: #ff8c00; fill-opacity: 0.8"/>
    </g>
    <g clip-path="url(#p012340340b)">
     <use xlink:href="#C0_0_f8bad73e12" x="71.722608" y="71.801532" style="fill: #ff8c00; fill-opacity: 0.8"/>
    </g>
    <g clip-path="url(#p012340340b)">
     <use xlink:href="#C0_0_f8bad73e12" x="112.332352" y="82.687029" style="fill: #ff8c00; fill-opacity: 0.8"/>
    </g>
    <g clip-path="url(#p012340340b)">
     <use xlink:href="#C0_0_f8bad73e12" x="96.088455" y="82.687029" style="fill: #ff8c00; fill-opacity: 0.8"/>
    </g>
    <g clip-path="url(#p012340340b)">
     <use xlink:href="#C0_0_f8bad73e12" x="79.844557" y="74.522906" style="fill: #ff8c00; fill-opacity: 0.8"/>
    </g>
    <g clip-path="url(#p012340340b)">
     <use xlink:href="#C0_0_f8bad73e12" x="136.698199" y="79.965654" style="fill: #ff8c00; fill-opacity: 0.8"/>
    </g>
    <g clip-path="url(#p012340340b)">
     <use xlink:href="#C0_0_f8bad73e12" x="71.722608" y="60.916035" style="fill: #ff8c00; fill-opacity: 0.8"/>
    </g>
    <g clip-path="url(#p012340340b)">
     <use xlink:href="#C0_0_f8bad73e12" x="96.088455" y="71.801532" style="fill: #ff8c00; fill-opacity: 0.8"/>
    </g>
    <g clip-path="url(#p012340340b)">
     <use xlink:href="#C0_0_f8bad73e12" x="71.722608" y="71.801532" style="fill: #ff8c00; fill-opacity: 0.8"/>
    </g>
    <g clip-path="url(#p012340340b)">
     <use xlink:href="#C0_0_f8bad73e12" x="31.112864" y="69.080157" style="fill: #ff8c00; fill-opacity: 0.8"/>
    </g>
    <g clip-path="url(#p012340340b)">
     <use xlink:href="#C0_0_f8bad73e12" x="112.332352" y="79.965654" style="fill: #ff8c00; fill-opacity: 0.8"/>
    </g>
    <g clip-path="url(#p012340340b)">
     <use xlink:href="#C0_0_f8bad73e12" x="112.332352" y="71.801532" style="fill: #ff8c00; fill-opacity: 0.8"/>
    </g>
    <g clip-path="url(#p012340340b)">
     <use xlink:href="#C0_0_f8bad73e12" x="96.088455" y="74.522906" style="fill: #ff8c00; fill-opacity: 0.8"/>
    </g>
    <g clip-path="url(#p012340340b)">
     <use xlink:href="#C0_0_f8bad73e12" x="31.112864" y="71.801532" style="fill: #ff8c00; fill-opacity: 0.8"/>
    </g>
    <g clip-path="url(#p012340340b)">
     <use xlink:href="#C0_0_f8bad73e12" x="128.57625" y="82.687029" style="fill: #ff8c00; fill-opacity: 0.8"/>
    </g>
    <g clip-path="url(#p012340340b)">
     <use xlink:href="#C0_0_f8bad73e12" x="112.332352" y="79.965654" style="fill: #ff8c00; fill-opacity: 0.8"/>
    </g>
    <g clip-path="url(#p012340340b)">
     <use xlink:href="#C0_0_f8bad73e12" x="112.332352" y="74.522906" style="fill: #ff8c00; fill-opacity: 0.8"/>
    </g>
    <g clip-path="url(#p012340340b)">
     <use xlink:href="#C0_0_f8bad73e12" x="112.332352" y="82.687029" style="fill: #ff8c00; fill-opacity: 0.8"/>
    </g>
    <g clip-path="url(#p012340340b)">
     <use xlink:href="#C0_0_f8bad73e12" x="112.332352" y="82.687029" style="fill: #ff8c00; fill-opacity: 0.8"/>
    </g>
    <g clip-path="url(#p012340340b)">
     <use xlink:href="#C0_0_f8bad73e12" x="112.332352" y="79.965654" style="fill: #ff8c00; fill-opacity: 0.8"/>
    </g>
    <g clip-path="url(#p012340340b)">
     <use xlink:href="#C0_0_f8bad73e12" x="96.088455" y="79.965654" style="fill: #ff8c00; fill-opacity: 0.8"/>
    </g>
    <g clip-path="url(#p012340340b)">
     <use xlink:href="#C0_0_f8bad73e12" x="87.966506" y="79.965654" style="fill: #ff8c00; fill-opacity: 0.8"/>
    </g>
    <g clip-path="url(#p012340340b)">
     <use xlink:href="#C0_0_f8bad73e12" x="104.210404" y="69.080157" style="fill: #ff8c00; fill-opacity: 0.8"/>
    </g>
    <g clip-path="url(#p012340340b)">
     <use xlink:href="#C0_0_f8bad73e12" x="104.210404" y="82.687029" style="fill: #ff8c00; fill-opacity: 0.8"/>
    </g>
    <g clip-path="url(#p012340340b)">
     <use xlink:href="#C0_0_f8bad73e12" x="128.57625" y="82.687029" style="fill: #ff8c00; fill-opacity: 0.8"/>
    </g>
    <g clip-path="url(#p012340340b)">
     <use xlink:href="#C0_0_f8bad73e12" x="136.698199" y="82.687029" style="fill: #ff8c00; fill-opacity: 0.8"/>
    </g>
    <g clip-path="url(#p012340340b)">
     <use xlink:href="#C0_0_f8bad73e12" x="96.088455" y="82.687029" style="fill: #ff8c00; fill-opacity: 0.8"/>
    </g>
    <g clip-path="url(#p012340340b)">
     <use xlink:href="#C0_0_f8bad73e12" x="79.844557" y="66.358783" style="fill: #ff8c00; fill-opacity: 0.8"/>
    </g>
    <g clip-path="url(#p012340340b)">
     <use xlink:href="#C0_0_f8bad73e12" x="136.698199" y="82.687029" style="fill: #ff8c00; fill-opacity: 0.8"/>
    </g>
    <g clip-path="url(#p012340340b)">
     <use xlink:href="#C0_0_f8bad73e12" x="96.088455" y="74.522906" style="fill: #ff8c00; fill-opacity: 0.8"/>
    </g>
    <g clip-path="url(#p012340340b)">
     <use xlink:href="#C0_0_f8bad73e12" x="104.210404" y="82.687029" style="fill: #ff8c00; fill-opacity: 0.8"/>
    </g>
    <g clip-path="url(#p012340340b)">
     <use xlink:href="#C0_0_f8bad73e12" x="96.088455" y="82.687029" style="fill: #ff8c00; fill-opacity: 0.8"/>
    </g>
    <g clip-path="url(#p012340340b)">
     <use xlink:href="#C0_0_f8bad73e12" x="87.966506" y="77.24428" style="fill: #ff8c00; fill-opacity: 0.8"/>
    </g>
    <g clip-path="url(#p012340340b)">
     <use xlink:href="#C0_0_f8bad73e12" x="104.210404" y="77.24428" style="fill: #ff8c00; fill-opacity: 0.8"/>
    </g>
    <g clip-path="url(#p012340340b)">
     <use xlink:href="#C0_0_f8bad73e12" x="112.332352" y="77.24428" style="fill: #ff8c00; fill-opacity: 0.8"/>
    </g>
    <g clip-path="url(#p012340340b)">
     <use xlink:href="#C0_0_f8bad73e12" x="96.088455" y="79.965654" style="fill: #ff8c00; fill-opacity: 0.8"/>
    </g>
    <g clip-path="url(#p012340340b)">
     <use xlink:href="#C0_0_f8bad73e12" x="120.454301" y="82.687029" style="fill: #ff8c00; fill-opacity: 0.8"/>
    </g>
    <g clip-path="url(#p012340340b)">
     <use xlink:href="#C0_0_f8bad73e12" x="120.454301" y="82.687029" style="fill: #ff8c00; fill-opacity: 0.8"/>
    </g>
    <g clip-path="url(#p012340340b)">
     <use xlink:href="#C0_0_f8bad73e12" x="79.844557" y="63.637409" style="fill: #ff8c00; fill-opacity: 0.8"/>
    </g>
    <g clip-path="url(#p012340340b)">
     <use xlink:href="#C0_0_f8bad73e12" x="112.332352" y="79.965654" style="fill: #ff8c00; fill-opacity: 0.8"/>
    </g>
    <g clip-path="url(#p012340340b)">
     <use xlink:href="#C0_0_f8bad73e12" x="104.210404" y="77.24428" style="fill: #ff8c00; fill-opacity: 0.8"/>
    </g>
    <g clip-path="url(#p012340340b)">
     <use xlink:href="#C0_0_f8bad73e12" x="96.088455" y="82.687029" style="fill: #ff8c00; fill-opacity: 0.8"/>
    </g>
   </g>
   <g id="PolyCollection_1">
    <path d="M 31.112864 66.669579 
L 31.112864 80.738956 
L 32.261423 80.68051 
L 33.409981 80.638635 
L 34.558539 80.580915 
L 35.707098 80.513227 
L 36.855656 80.445119 
L 38.004215 80.387887 
L 39.152773 80.332877 
L 40.301332 80.275986 
L 41.44989 80.219869 
L 42.598448 80.160228 
L 43.747007 80.09132 
L 44.895565 80.026932 
L 46.044124 79.962072 
L 47.192682 79.902029 
L 48.34124 79.852173 
L 49.489799 79.800382 
L 50.638357 79.757238 
L 51.786916 79.693996 
L 52.935474 79.616959 
L 54.084033 79.566777 
L 55.232591 79.506935 
L 56.381149 79.464712 
L 57.529708 79.414429 
L 58.678266 79.368937 
L 59.826825 79.314177 
L 60.975383 79.262802 
L 62.123941 79.200554 
L 63.2725 79.156205 
L 64.421058 79.115169 
L 65.569617 79.054949 
L 66.718175 79.011931 
L 67.866734 78.968658 
L 69.015292 78.925593 
L 70.16385 78.87586 
L 71.312409 78.821162 
L 72.460967 78.780155 
L 73.609526 78.733097 
L 74.758084 78.705478 
L 75.906643 78.657763 
L 77.055201 78.626185 
L 78.203759 78.59202 
L 79.352318 78.557974 
L 80.500876 78.524848 
L 81.649435 78.503715 
L 82.797993 78.471839 
L 83.946551 78.452165 
L 85.09511 78.443465 
L 86.243668 78.421915 
L 87.392227 78.410705 
L 88.540785 78.39621 
L 89.689344 78.399782 
L 90.837902 78.417727 
L 91.98646 78.447719 
L 93.135019 78.474279 
L 94.283577 78.502653 
L 95.432136 78.561331 
L 96.580694 78.615275 
L 97.729252 78.679226 
L 98.877811 78.736952 
L 100.026369 78.810161 
L 101.174928 78.883235 
L 102.323486 78.965302 
L 103.472045 79.054486 
L 104.620603 79.147701 
L 105.769161 79.251982 
L 106.91772 79.357244 
L 108.066278 79.465679 
L 109.214837 79.584946 
L 110.363395 79.700796 
L 111.511953 79.8172 
L 112.660512 79.937757 
L 113.80907 80.066065 
L 114.957629 80.20144 
L 116.106187 80.330791 
L 117.254746 80.470054 
L 118.403304 80.599603 
L 119.551862 80.737219 
L 120.700421 80.884606 
L 121.848979 81.025516 
L 122.997538 81.173405 
L 124.146096 81.324964 
L 125.294655 81.473685 
L 126.443213 81.625406 
L 127.591771 81.786922 
L 128.74033 81.939129 
L 129.888888 82.095061 
L 131.037447 82.255971 
L 132.186005 82.411374 
L 133.334563 82.578005 
L 134.483122 82.743744 
L 135.63168 82.89972 
L 136.780239 83.061548 
L 137.928797 83.230334 
L 139.077356 83.395013 
L 140.225914 83.557252 
L 141.374472 83.721447 
L 142.523031 83.882642 
L 143.671589 84.050301 
L 144.820148 84.22411 
L 144.820148 74.566653 
L 144.820148 74.566653 
L 143.671589 74.620304 
L 142.523031 74.663671 
L 141.374472 74.738741 
L 140.225914 74.807508 
L 139.077356 74.862651 
L 137.928797 74.91786 
L 136.780239 74.959867 
L 135.63168 74.989022 
L 134.483122 75.034208 
L 133.334563 75.08354 
L 132.186005 75.140735 
L 131.037447 75.198387 
L 129.888888 75.255921 
L 128.74033 75.296135 
L 127.591771 75.355741 
L 126.443213 75.388113 
L 125.294655 75.44518 
L 124.146096 75.508347 
L 122.997538 75.560811 
L 121.848979 75.589365 
L 120.700421 75.624956 
L 119.551862 75.659285 
L 118.403304 75.695436 
L 117.254746 75.733333 
L 116.106187 75.775028 
L 114.957629 75.801899 
L 113.80907 75.839667 
L 112.660512 75.86697 
L 111.511953 75.91411 
L 110.363395 75.937126 
L 109.214837 75.959275 
L 108.066278 75.987632 
L 106.91772 76.005706 
L 105.769161 75.993776 
L 104.620603 76.007871 
L 103.472045 75.997327 
L 102.323486 75.970346 
L 101.174928 75.938642 
L 100.026369 75.903563 
L 98.877811 75.839807 
L 97.729252 75.779514 
L 96.580694 75.703802 
L 95.432136 75.622119 
L 94.283577 75.528057 
L 93.135019 75.419998 
L 91.98646 75.318816 
L 90.837902 75.178562 
L 89.689344 75.039334 
L 88.540785 74.902784 
L 87.392227 74.760309 
L 86.243668 74.616356 
L 85.09511 74.483441 
L 83.946551 74.335676 
L 82.797993 74.175296 
L 81.649435 74.019687 
L 80.500876 73.87453 
L 79.352318 73.720545 
L 78.203759 73.558403 
L 77.055201 73.396595 
L 75.906643 73.236309 
L 74.758084 73.059078 
L 73.609526 72.899675 
L 72.460967 72.742631 
L 71.312409 72.582238 
L 70.16385 72.421312 
L 69.015292 72.266134 
L 67.866734 72.114133 
L 66.718175 71.941098 
L 65.569617 71.77414 
L 64.421058 71.621805 
L 63.2725 71.460955 
L 62.123941 71.295572 
L 60.975383 71.13042 
L 59.826825 70.959894 
L 58.678266 70.793968 
L 57.529708 70.626845 
L 56.381149 70.455233 
L 55.232591 70.288794 
L 54.084033 70.121833 
L 52.935474 69.948905 
L 51.786916 69.781214 
L 50.638357 69.612696 
L 49.489799 69.439236 
L 48.34124 69.26605 
L 47.192682 69.097629 
L 46.044124 68.923108 
L 44.895565 68.754854 
L 43.747007 68.573975 
L 42.598448 68.404382 
L 41.44989 68.229892 
L 40.301332 68.050816 
L 39.152773 67.885482 
L 38.004215 67.722905 
L 36.855656 67.544158 
L 35.707098 67.371517 
L 34.558539 67.196948 
L 33.409981 67.018818 
L 32.261423 66.846929 
L 31.112864 66.669579 
z
" clip-path="url(#p012340340b)" style="fill: #ff8c00; fill-opacity: 0.15"/>
   </g>
   <g id="matplotlib.axis_1">
    <g id="xtick_1">
     <g id="line2d_1">
      <defs>
       <path id="m10692a2a29" d="M 0 0 
L 0 3.5 
" style="stroke: #000000; stroke-width: 0.25"/>
      </defs>
      <g>
       <use xlink:href="#m10692a2a29" x="39.234813" y="89.218327" style="stroke: #000000; stroke-width: 0.25"/>
      </g>
     </g>
     <g id="text_1">
      <!-- 60 -->
      <g transform="translate(36.454344 97.297233) scale(0.05 -0.05)">
       <defs>
        <path id="ArialMT-36" d="M 3184 3459 
L 2625 3416 
Q 2550 3747 2413 3897 
Q 2184 4138 1850 4138 
Q 1581 4138 1378 3988 
Q 1113 3794 959 3422 
Q 806 3050 800 2363 
Q 1003 2672 1297 2822 
Q 1591 2972 1913 2972 
Q 2475 2972 2870 2558 
Q 3266 2144 3266 1488 
Q 3266 1056 3080 686 
Q 2894 316 2569 119 
Q 2244 -78 1831 -78 
Q 1128 -78 684 439 
Q 241 956 241 2144 
Q 241 3472 731 4075 
Q 1159 4600 1884 4600 
Q 2425 4600 2770 4297 
Q 3116 3994 3184 3459 
z
M 888 1484 
Q 888 1194 1011 928 
Q 1134 663 1356 523 
Q 1578 384 1822 384 
Q 2178 384 2434 671 
Q 2691 959 2691 1453 
Q 2691 1928 2437 2201 
Q 2184 2475 1800 2475 
Q 1419 2475 1153 2201 
Q 888 1928 888 1484 
z
" transform="scale(0.015625)"/>
        <path id="ArialMT-30" d="M 266 2259 
Q 266 3072 433 3567 
Q 600 4063 929 4331 
Q 1259 4600 1759 4600 
Q 2128 4600 2406 4451 
Q 2684 4303 2865 4023 
Q 3047 3744 3150 3342 
Q 3253 2941 3253 2259 
Q 3253 1453 3087 958 
Q 2922 463 2592 192 
Q 2263 -78 1759 -78 
Q 1097 -78 719 397 
Q 266 969 266 2259 
z
M 844 2259 
Q 844 1131 1108 757 
Q 1372 384 1759 384 
Q 2147 384 2411 759 
Q 2675 1134 2675 2259 
Q 2675 3391 2411 3762 
Q 2147 4134 1753 4134 
Q 1366 4134 1134 3806 
Q 844 3388 844 2259 
z
" transform="scale(0.015625)"/>
       </defs>
       <use xlink:href="#ArialMT-36"/>
       <use xlink:href="#ArialMT-30" x="55.615234"/>
      </g>
     </g>
    </g>
    <g id="xtick_2">
     <g id="line2d_2">
      <g>
       <use xlink:href="#m10692a2a29" x="55.478711" y="89.218327" style="stroke: #000000; stroke-width: 0.25"/>
      </g>
     </g>
     <g id="text_2">
      <!-- 70 -->
      <g transform="translate(52.698242 97.297233) scale(0.05 -0.05)">
       <defs>
        <path id="ArialMT-37" d="M 303 3981 
L 303 4522 
L 3269 4522 
L 3269 4084 
Q 2831 3619 2401 2847 
Q 1972 2075 1738 1259 
Q 1569 684 1522 0 
L 944 0 
Q 953 541 1156 1306 
Q 1359 2072 1739 2783 
Q 2119 3494 2547 3981 
L 303 3981 
z
" transform="scale(0.015625)"/>
       </defs>
       <use xlink:href="#ArialMT-37"/>
       <use xlink:href="#ArialMT-30" x="55.615234"/>
      </g>
     </g>
    </g>
    <g id="xtick_3">
     <g id="line2d_3">
      <g>
       <use xlink:href="#m10692a2a29" x="71.722608" y="89.218327" style="stroke: #000000; stroke-width: 0.25"/>
      </g>
     </g>
     <g id="text_3">
      <!-- 80 -->
      <g transform="translate(68.94214 97.297233) scale(0.05 -0.05)">
       <defs>
        <path id="ArialMT-38" d="M 1131 2484 
Q 781 2613 612 2850 
Q 444 3088 444 3419 
Q 444 3919 803 4259 
Q 1163 4600 1759 4600 
Q 2359 4600 2725 4251 
Q 3091 3903 3091 3403 
Q 3091 3084 2923 2848 
Q 2756 2613 2416 2484 
Q 2838 2347 3058 2040 
Q 3278 1734 3278 1309 
Q 3278 722 2862 322 
Q 2447 -78 1769 -78 
Q 1091 -78 675 323 
Q 259 725 259 1325 
Q 259 1772 486 2073 
Q 713 2375 1131 2484 
z
M 1019 3438 
Q 1019 3113 1228 2906 
Q 1438 2700 1772 2700 
Q 2097 2700 2305 2904 
Q 2513 3109 2513 3406 
Q 2513 3716 2298 3927 
Q 2084 4138 1766 4138 
Q 1444 4138 1231 3931 
Q 1019 3725 1019 3438 
z
M 838 1322 
Q 838 1081 952 856 
Q 1066 631 1291 507 
Q 1516 384 1775 384 
Q 2178 384 2440 643 
Q 2703 903 2703 1303 
Q 2703 1709 2433 1975 
Q 2163 2241 1756 2241 
Q 1359 2241 1098 1978 
Q 838 1716 838 1322 
z
" transform="scale(0.015625)"/>
       </defs>
       <use xlink:href="#ArialMT-38"/>
       <use xlink:href="#ArialMT-30" x="55.615234"/>
      </g>
     </g>
    </g>
    <g id="xtick_4">
     <g id="line2d_4">
      <g>
       <use xlink:href="#m10692a2a29" x="87.966506" y="89.218327" style="stroke: #000000; stroke-width: 0.25"/>
      </g>
     </g>
     <g id="text_4">
      <!-- 90 -->
      <g transform="translate(85.186037 97.297233) scale(0.05 -0.05)">
       <defs>
        <path id="ArialMT-39" d="M 350 1059 
L 891 1109 
Q 959 728 1153 556 
Q 1347 384 1650 384 
Q 1909 384 2104 503 
Q 2300 622 2425 820 
Q 2550 1019 2634 1356 
Q 2719 1694 2719 2044 
Q 2719 2081 2716 2156 
Q 2547 1888 2255 1720 
Q 1963 1553 1622 1553 
Q 1053 1553 659 1965 
Q 266 2378 266 3053 
Q 266 3750 677 4175 
Q 1088 4600 1706 4600 
Q 2153 4600 2523 4359 
Q 2894 4119 3086 3673 
Q 3278 3228 3278 2384 
Q 3278 1506 3087 986 
Q 2897 466 2520 194 
Q 2144 -78 1638 -78 
Q 1100 -78 759 220 
Q 419 519 350 1059 
z
M 2653 3081 
Q 2653 3566 2395 3850 
Q 2138 4134 1775 4134 
Q 1400 4134 1122 3828 
Q 844 3522 844 3034 
Q 844 2597 1108 2323 
Q 1372 2050 1759 2050 
Q 2150 2050 2401 2323 
Q 2653 2597 2653 3081 
z
" transform="scale(0.015625)"/>
       </defs>
       <use xlink:href="#ArialMT-39"/>
       <use xlink:href="#ArialMT-30" x="55.615234"/>
      </g>
     </g>
    </g>
    <g id="xtick_5">
     <g id="line2d_5">
      <g>
       <use xlink:href="#m10692a2a29" x="104.210404" y="89.218327" style="stroke: #000000; stroke-width: 0.25"/>
      </g>
     </g>
     <g id="text_5">
      <!-- 100 -->
      <g transform="translate(100.0397 97.297233) scale(0.05 -0.05)">
       <defs>
        <path id="ArialMT-31" d="M 2384 0 
L 1822 0 
L 1822 3584 
Q 1619 3391 1289 3197 
Q 959 3003 697 2906 
L 697 3450 
Q 1169 3672 1522 3987 
Q 1875 4303 2022 4600 
L 2384 4600 
L 2384 0 
z
" transform="scale(0.015625)"/>
       </defs>
       <use xlink:href="#ArialMT-31"/>
       <use xlink:href="#ArialMT-30" x="55.615234"/>
       <use xlink:href="#ArialMT-30" x="111.230469"/>
      </g>
     </g>
    </g>
    <g id="xtick_6">
     <g id="line2d_6">
      <g>
       <use xlink:href="#m10692a2a29" x="120.454301" y="89.218327" style="stroke: #000000; stroke-width: 0.25"/>
      </g>
     </g>
     <g id="text_6">
      <!-- 110 -->
      <g transform="translate(116.467973 97.297233) scale(0.05 -0.05)">
       <use xlink:href="#ArialMT-31"/>
       <use xlink:href="#ArialMT-31" x="48.240234"/>
       <use xlink:href="#ArialMT-30" x="103.855469"/>
      </g>
     </g>
    </g>
    <g id="xtick_7">
     <g id="line2d_7">
      <g>
       <use xlink:href="#m10692a2a29" x="136.698199" y="89.218327" style="stroke: #000000; stroke-width: 0.25"/>
      </g>
     </g>
     <g id="text_7">
      <!-- 120 -->
      <g transform="translate(132.527496 97.297233) scale(0.05 -0.05)">
       <defs>
        <path id="ArialMT-32" d="M 3222 541 
L 3222 0 
L 194 0 
Q 188 203 259 391 
Q 375 700 629 1000 
Q 884 1300 1366 1694 
Q 2113 2306 2375 2664 
Q 2638 3022 2638 3341 
Q 2638 3675 2398 3904 
Q 2159 4134 1775 4134 
Q 1369 4134 1125 3890 
Q 881 3647 878 3216 
L 300 3275 
Q 359 3922 746 4261 
Q 1134 4600 1788 4600 
Q 2447 4600 2831 4234 
Q 3216 3869 3216 3328 
Q 3216 3053 3103 2787 
Q 2991 2522 2730 2228 
Q 2469 1934 1863 1422 
Q 1356 997 1212 845 
Q 1069 694 975 541 
L 3222 541 
z
" transform="scale(0.015625)"/>
       </defs>
       <use xlink:href="#ArialMT-31"/>
       <use xlink:href="#ArialMT-32" x="55.615234"/>
       <use xlink:href="#ArialMT-30" x="111.230469"/>
      </g>
     </g>
    </g>
    <g id="text_8">
     <!-- Bayley-III cognitive composite score [a.u.] -->
     <g transform="translate(32.611818 106.585671) scale(0.06 -0.06)">
      <defs>
       <path id="ArialMT-42" d="M 469 0 
L 469 4581 
L 2188 4581 
Q 2713 4581 3030 4442 
Q 3347 4303 3526 4014 
Q 3706 3725 3706 3409 
Q 3706 3116 3547 2856 
Q 3388 2597 3066 2438 
Q 3481 2316 3704 2022 
Q 3928 1728 3928 1328 
Q 3928 1006 3792 729 
Q 3656 453 3456 303 
Q 3256 153 2954 76 
Q 2653 0 2216 0 
L 469 0 
z
M 1075 2656 
L 2066 2656 
Q 2469 2656 2644 2709 
Q 2875 2778 2992 2937 
Q 3109 3097 3109 3338 
Q 3109 3566 3000 3739 
Q 2891 3913 2687 3977 
Q 2484 4041 1991 4041 
L 1075 4041 
L 1075 2656 
z
M 1075 541 
L 2216 541 
Q 2509 541 2628 563 
Q 2838 600 2978 687 
Q 3119 775 3209 942 
Q 3300 1109 3300 1328 
Q 3300 1584 3169 1773 
Q 3038 1963 2805 2039 
Q 2572 2116 2134 2116 
L 1075 2116 
L 1075 541 
z
" transform="scale(0.015625)"/>
       <path id="ArialMT-61" d="M 2588 409 
Q 2275 144 1986 34 
Q 1697 -75 1366 -75 
Q 819 -75 525 192 
Q 231 459 231 875 
Q 231 1119 342 1320 
Q 453 1522 633 1644 
Q 813 1766 1038 1828 
Q 1203 1872 1538 1913 
Q 2219 1994 2541 2106 
Q 2544 2222 2544 2253 
Q 2544 2597 2384 2738 
Q 2169 2928 1744 2928 
Q 1347 2928 1158 2789 
Q 969 2650 878 2297 
L 328 2372 
Q 403 2725 575 2942 
Q 747 3159 1072 3276 
Q 1397 3394 1825 3394 
Q 2250 3394 2515 3294 
Q 2781 3194 2906 3042 
Q 3031 2891 3081 2659 
Q 3109 2516 3109 2141 
L 3109 1391 
Q 3109 606 3145 398 
Q 3181 191 3288 0 
L 2700 0 
Q 2613 175 2588 409 
z
M 2541 1666 
Q 2234 1541 1622 1453 
Q 1275 1403 1131 1340 
Q 988 1278 909 1158 
Q 831 1038 831 891 
Q 831 666 1001 516 
Q 1172 366 1500 366 
Q 1825 366 2078 508 
Q 2331 650 2450 897 
Q 2541 1088 2541 1459 
L 2541 1666 
z
" transform="scale(0.015625)"/>
       <path id="ArialMT-79" d="M 397 -1278 
L 334 -750 
Q 519 -800 656 -800 
Q 844 -800 956 -737 
Q 1069 -675 1141 -563 
Q 1194 -478 1313 -144 
Q 1328 -97 1363 -6 
L 103 3319 
L 709 3319 
L 1400 1397 
Q 1534 1031 1641 628 
Q 1738 1016 1872 1384 
L 2581 3319 
L 3144 3319 
L 1881 -56 
Q 1678 -603 1566 -809 
Q 1416 -1088 1222 -1217 
Q 1028 -1347 759 -1347 
Q 597 -1347 397 -1278 
z
" transform="scale(0.015625)"/>
       <path id="ArialMT-6c" d="M 409 0 
L 409 4581 
L 972 4581 
L 972 0 
L 409 0 
z
" transform="scale(0.015625)"/>
       <path id="ArialMT-65" d="M 2694 1069 
L 3275 997 
Q 3138 488 2766 206 
Q 2394 -75 1816 -75 
Q 1088 -75 661 373 
Q 234 822 234 1631 
Q 234 2469 665 2931 
Q 1097 3394 1784 3394 
Q 2450 3394 2872 2941 
Q 3294 2488 3294 1666 
Q 3294 1616 3291 1516 
L 816 1516 
Q 847 969 1125 678 
Q 1403 388 1819 388 
Q 2128 388 2347 550 
Q 2566 713 2694 1069 
z
M 847 1978 
L 2700 1978 
Q 2663 2397 2488 2606 
Q 2219 2931 1791 2931 
Q 1403 2931 1139 2672 
Q 875 2413 847 1978 
z
" transform="scale(0.015625)"/>
       <path id="ArialMT-2d" d="M 203 1375 
L 203 1941 
L 1931 1941 
L 1931 1375 
L 203 1375 
z
" transform="scale(0.015625)"/>
       <path id="ArialMT-49" d="M 597 0 
L 597 4581 
L 1203 4581 
L 1203 0 
L 597 0 
z
" transform="scale(0.015625)"/>
       <path id="ArialMT-20" transform="scale(0.015625)"/>
       <path id="ArialMT-63" d="M 2588 1216 
L 3141 1144 
Q 3050 572 2676 248 
Q 2303 -75 1759 -75 
Q 1078 -75 664 370 
Q 250 816 250 1647 
Q 250 2184 428 2587 
Q 606 2991 970 3192 
Q 1334 3394 1763 3394 
Q 2303 3394 2647 3120 
Q 2991 2847 3088 2344 
L 2541 2259 
Q 2463 2594 2264 2762 
Q 2066 2931 1784 2931 
Q 1359 2931 1093 2626 
Q 828 2322 828 1663 
Q 828 994 1084 691 
Q 1341 388 1753 388 
Q 2084 388 2306 591 
Q 2528 794 2588 1216 
z
" transform="scale(0.015625)"/>
       <path id="ArialMT-6f" d="M 213 1659 
Q 213 2581 725 3025 
Q 1153 3394 1769 3394 
Q 2453 3394 2887 2945 
Q 3322 2497 3322 1706 
Q 3322 1066 3130 698 
Q 2938 331 2570 128 
Q 2203 -75 1769 -75 
Q 1072 -75 642 372 
Q 213 819 213 1659 
z
M 791 1659 
Q 791 1022 1069 705 
Q 1347 388 1769 388 
Q 2188 388 2466 706 
Q 2744 1025 2744 1678 
Q 2744 2294 2464 2611 
Q 2184 2928 1769 2928 
Q 1347 2928 1069 2612 
Q 791 2297 791 1659 
z
" transform="scale(0.015625)"/>
       <path id="ArialMT-67" d="M 319 -275 
L 866 -356 
Q 900 -609 1056 -725 
Q 1266 -881 1628 -881 
Q 2019 -881 2231 -725 
Q 2444 -569 2519 -288 
Q 2563 -116 2559 434 
Q 2191 0 1641 0 
Q 956 0 581 494 
Q 206 988 206 1678 
Q 206 2153 378 2554 
Q 550 2956 876 3175 
Q 1203 3394 1644 3394 
Q 2231 3394 2613 2919 
L 2613 3319 
L 3131 3319 
L 3131 450 
Q 3131 -325 2973 -648 
Q 2816 -972 2473 -1159 
Q 2131 -1347 1631 -1347 
Q 1038 -1347 672 -1080 
Q 306 -813 319 -275 
z
M 784 1719 
Q 784 1066 1043 766 
Q 1303 466 1694 466 
Q 2081 466 2343 764 
Q 2606 1063 2606 1700 
Q 2606 2309 2336 2618 
Q 2066 2928 1684 2928 
Q 1309 2928 1046 2623 
Q 784 2319 784 1719 
z
" transform="scale(0.015625)"/>
       <path id="ArialMT-6e" d="M 422 0 
L 422 3319 
L 928 3319 
L 928 2847 
Q 1294 3394 1984 3394 
Q 2284 3394 2536 3286 
Q 2788 3178 2913 3003 
Q 3038 2828 3088 2588 
Q 3119 2431 3119 2041 
L 3119 0 
L 2556 0 
L 2556 2019 
Q 2556 2363 2490 2533 
Q 2425 2703 2258 2804 
Q 2091 2906 1866 2906 
Q 1506 2906 1245 2678 
Q 984 2450 984 1813 
L 984 0 
L 422 0 
z
" transform="scale(0.015625)"/>
       <path id="ArialMT-69" d="M 425 3934 
L 425 4581 
L 988 4581 
L 988 3934 
L 425 3934 
z
M 425 0 
L 425 3319 
L 988 3319 
L 988 0 
L 425 0 
z
" transform="scale(0.015625)"/>
       <path id="ArialMT-74" d="M 1650 503 
L 1731 6 
Q 1494 -44 1306 -44 
Q 1000 -44 831 53 
Q 663 150 594 308 
Q 525 466 525 972 
L 525 2881 
L 113 2881 
L 113 3319 
L 525 3319 
L 525 4141 
L 1084 4478 
L 1084 3319 
L 1650 3319 
L 1650 2881 
L 1084 2881 
L 1084 941 
Q 1084 700 1114 631 
Q 1144 563 1211 522 
Q 1278 481 1403 481 
Q 1497 481 1650 503 
z
" transform="scale(0.015625)"/>
       <path id="ArialMT-76" d="M 1344 0 
L 81 3319 
L 675 3319 
L 1388 1331 
Q 1503 1009 1600 663 
Q 1675 925 1809 1294 
L 2547 3319 
L 3125 3319 
L 1869 0 
L 1344 0 
z
" transform="scale(0.015625)"/>
       <path id="ArialMT-6d" d="M 422 0 
L 422 3319 
L 925 3319 
L 925 2853 
Q 1081 3097 1340 3245 
Q 1600 3394 1931 3394 
Q 2300 3394 2536 3241 
Q 2772 3088 2869 2813 
Q 3263 3394 3894 3394 
Q 4388 3394 4653 3120 
Q 4919 2847 4919 2278 
L 4919 0 
L 4359 0 
L 4359 2091 
Q 4359 2428 4304 2576 
Q 4250 2725 4106 2815 
Q 3963 2906 3769 2906 
Q 3419 2906 3187 2673 
Q 2956 2441 2956 1928 
L 2956 0 
L 2394 0 
L 2394 2156 
Q 2394 2531 2256 2718 
Q 2119 2906 1806 2906 
Q 1569 2906 1367 2781 
Q 1166 2656 1075 2415 
Q 984 2175 984 1722 
L 984 0 
L 422 0 
z
" transform="scale(0.015625)"/>
       <path id="ArialMT-70" d="M 422 -1272 
L 422 3319 
L 934 3319 
L 934 2888 
Q 1116 3141 1344 3267 
Q 1572 3394 1897 3394 
Q 2322 3394 2647 3175 
Q 2972 2956 3137 2557 
Q 3303 2159 3303 1684 
Q 3303 1175 3120 767 
Q 2938 359 2589 142 
Q 2241 -75 1856 -75 
Q 1575 -75 1351 44 
Q 1128 163 984 344 
L 984 -1272 
L 422 -1272 
z
M 931 1641 
Q 931 1000 1190 694 
Q 1450 388 1819 388 
Q 2194 388 2461 705 
Q 2728 1022 2728 1688 
Q 2728 2322 2467 2637 
Q 2206 2953 1844 2953 
Q 1484 2953 1207 2617 
Q 931 2281 931 1641 
z
" transform="scale(0.015625)"/>
       <path id="ArialMT-73" d="M 197 991 
L 753 1078 
Q 800 744 1014 566 
Q 1228 388 1613 388 
Q 2000 388 2187 545 
Q 2375 703 2375 916 
Q 2375 1106 2209 1216 
Q 2094 1291 1634 1406 
Q 1016 1563 777 1677 
Q 538 1791 414 1992 
Q 291 2194 291 2438 
Q 291 2659 392 2848 
Q 494 3038 669 3163 
Q 800 3259 1026 3326 
Q 1253 3394 1513 3394 
Q 1903 3394 2198 3281 
Q 2494 3169 2634 2976 
Q 2775 2784 2828 2463 
L 2278 2388 
Q 2241 2644 2061 2787 
Q 1881 2931 1553 2931 
Q 1166 2931 1000 2803 
Q 834 2675 834 2503 
Q 834 2394 903 2306 
Q 972 2216 1119 2156 
Q 1203 2125 1616 2013 
Q 2213 1853 2448 1751 
Q 2684 1650 2818 1456 
Q 2953 1263 2953 975 
Q 2953 694 2789 445 
Q 2625 197 2315 61 
Q 2006 -75 1616 -75 
Q 969 -75 630 194 
Q 291 463 197 991 
z
" transform="scale(0.015625)"/>
       <path id="ArialMT-72" d="M 416 0 
L 416 3319 
L 922 3319 
L 922 2816 
Q 1116 3169 1280 3281 
Q 1444 3394 1641 3394 
Q 1925 3394 2219 3213 
L 2025 2691 
Q 1819 2813 1613 2813 
Q 1428 2813 1281 2702 
Q 1134 2591 1072 2394 
Q 978 2094 978 1738 
L 978 0 
L 416 0 
z
" transform="scale(0.015625)"/>
       <path id="ArialMT-5b" d="M 434 -1272 
L 434 4581 
L 1675 4581 
L 1675 4116 
L 997 4116 
L 997 -806 
L 1675 -806 
L 1675 -1272 
L 434 -1272 
z
" transform="scale(0.015625)"/>
       <path id="ArialMT-2e" d="M 581 0 
L 581 641 
L 1222 641 
L 1222 0 
L 581 0 
z
" transform="scale(0.015625)"/>
       <path id="ArialMT-75" d="M 2597 0 
L 2597 488 
Q 2209 -75 1544 -75 
Q 1250 -75 995 37 
Q 741 150 617 320 
Q 494 491 444 738 
Q 409 903 409 1263 
L 409 3319 
L 972 3319 
L 972 1478 
Q 972 1038 1006 884 
Q 1059 663 1231 536 
Q 1403 409 1656 409 
Q 1909 409 2131 539 
Q 2353 669 2445 892 
Q 2538 1116 2538 1541 
L 2538 3319 
L 3100 3319 
L 3100 0 
L 2597 0 
z
" transform="scale(0.015625)"/>
       <path id="ArialMT-5d" d="M 1363 -1272 
L 122 -1272 
L 122 -806 
L 800 -806 
L 800 4116 
L 122 4116 
L 122 4581 
L 1363 4581 
L 1363 -1272 
z
" transform="scale(0.015625)"/>
      </defs>
      <use xlink:href="#ArialMT-42"/>
      <use xlink:href="#ArialMT-61" x="66.699219"/>
      <use xlink:href="#ArialMT-79" x="122.314453"/>
      <use xlink:href="#ArialMT-6c" x="172.314453"/>
      <use xlink:href="#ArialMT-65" x="194.53125"/>
      <use xlink:href="#ArialMT-79" x="250.146484"/>
      <use xlink:href="#ArialMT-2d" x="300.146484"/>
      <use xlink:href="#ArialMT-49" x="333.447266"/>
      <use xlink:href="#ArialMT-49" x="361.230469"/>
      <use xlink:href="#ArialMT-49" x="389.013672"/>
      <use xlink:href="#ArialMT-20" x="416.796875"/>
      <use xlink:href="#ArialMT-63" x="444.580078"/>
      <use xlink:href="#ArialMT-6f" x="494.580078"/>
      <use xlink:href="#ArialMT-67" x="550.195312"/>
      <use xlink:href="#ArialMT-6e" x="605.810547"/>
      <use xlink:href="#ArialMT-69" x="661.425781"/>
      <use xlink:href="#ArialMT-74" x="683.642578"/>
      <use xlink:href="#ArialMT-69" x="711.425781"/>
      <use xlink:href="#ArialMT-76" x="733.642578"/>
      <use xlink:href="#ArialMT-65" x="783.642578"/>
      <use xlink:href="#ArialMT-20" x="839.257812"/>
      <use xlink:href="#ArialMT-63" x="867.041016"/>
      <use xlink:href="#ArialMT-6f" x="917.041016"/>
      <use xlink:href="#ArialMT-6d" x="972.65625"/>
      <use xlink:href="#ArialMT-70" x="1055.957031"/>
      <use xlink:href="#ArialMT-6f" x="1111.572266"/>
      <use xlink:href="#ArialMT-73" x="1167.1875"/>
      <use xlink:href="#ArialMT-69" x="1217.1875"/>
      <use xlink:href="#ArialMT-74" x="1239.404297"/>
      <use xlink:href="#ArialMT-65" x="1267.1875"/>
      <use xlink:href="#ArialMT-20" x="1322.802734"/>
      <use xlink:href="#ArialMT-73" x="1350.585938"/>
      <use xlink:href="#ArialMT-63" x="1400.585938"/>
      <use xlink:href="#ArialMT-6f" x="1450.585938"/>
      <use xlink:href="#ArialMT-72" x="1506.201172"/>
      <use xlink:href="#ArialMT-65" x="1539.501953"/>
      <use xlink:href="#ArialMT-20" x="1595.117188"/>
      <use xlink:href="#ArialMT-5b" x="1622.900391"/>
      <use xlink:href="#ArialMT-61" x="1650.683594"/>
      <use xlink:href="#ArialMT-2e" x="1706.298828"/>
      <use xlink:href="#ArialMT-75" x="1734.082031"/>
      <use xlink:href="#ArialMT-2e" x="1789.697266"/>
      <use xlink:href="#ArialMT-5d" x="1817.480469"/>
     </g>
    </g>
   </g>
   <g id="matplotlib.axis_2">
    <g id="ytick_1">
     <g id="line2d_8">
      <defs>
       <path id="m56508b8be9" d="M 0 0 
L -3.5 0 
" style="stroke: #000000; stroke-width: 0.25"/>
      </defs>
      <g>
       <use xlink:href="#m56508b8be9" x="25.4275" y="85.408403" style="stroke: #000000; stroke-width: 0.25"/>
      </g>
     </g>
     <g id="text_9">
      <!-- 0 -->
      <g transform="translate(18.147031 87.197856) scale(0.05 -0.05)">
       <use xlink:href="#ArialMT-30"/>
      </g>
     </g>
    </g>
    <g id="ytick_2">
     <g id="line2d_9">
      <g>
       <use xlink:href="#m56508b8be9" x="25.4275" y="71.801532" style="stroke: #000000; stroke-width: 0.25"/>
      </g>
     </g>
     <g id="text_10">
      <!-- 5 -->
      <g transform="translate(18.147031 73.590985) scale(0.05 -0.05)">
       <defs>
        <path id="ArialMT-35" d="M 266 1200 
L 856 1250 
Q 922 819 1161 601 
Q 1400 384 1738 384 
Q 2144 384 2425 690 
Q 2706 997 2706 1503 
Q 2706 1984 2436 2262 
Q 2166 2541 1728 2541 
Q 1456 2541 1237 2417 
Q 1019 2294 894 2097 
L 366 2166 
L 809 4519 
L 3088 4519 
L 3088 3981 
L 1259 3981 
L 1013 2750 
Q 1425 3038 1878 3038 
Q 2478 3038 2890 2622 
Q 3303 2206 3303 1553 
Q 3303 931 2941 478 
Q 2500 -78 1738 -78 
Q 1113 -78 717 272 
Q 322 622 266 1200 
z
" transform="scale(0.015625)"/>
       </defs>
       <use xlink:href="#ArialMT-35"/>
      </g>
     </g>
    </g>
    <g id="ytick_3">
     <g id="line2d_10">
      <g>
       <use xlink:href="#m56508b8be9" x="25.4275" y="58.19466" style="stroke: #000000; stroke-width: 0.25"/>
      </g>
     </g>
     <g id="text_11">
      <!-- 10 -->
      <g transform="translate(15.366562 59.984113) scale(0.05 -0.05)">
       <use xlink:href="#ArialMT-31"/>
       <use xlink:href="#ArialMT-30" x="55.615234"/>
      </g>
     </g>
    </g>
    <g id="ytick_4">
     <g id="line2d_11">
      <g>
       <use xlink:href="#m56508b8be9" x="25.4275" y="44.587789" style="stroke: #000000; stroke-width: 0.25"/>
      </g>
     </g>
     <g id="text_12">
      <!-- 15 -->
      <g transform="translate(15.366562 46.377242) scale(0.05 -0.05)">
       <use xlink:href="#ArialMT-31"/>
       <use xlink:href="#ArialMT-35" x="55.615234"/>
      </g>
     </g>
    </g>
    <g id="ytick_5">
     <g id="line2d_12">
      <g>
       <use xlink:href="#m56508b8be9" x="25.4275" y="30.980918" style="stroke: #000000; stroke-width: 0.25"/>
      </g>
     </g>
     <g id="text_13">
      <!-- 20 -->
      <g transform="translate(15.366562 32.770371) scale(0.05 -0.05)">
       <use xlink:href="#ArialMT-32"/>
       <use xlink:href="#ArialMT-30" x="55.615234"/>
      </g>
     </g>
    </g>
    <g id="ytick_6">
     <g id="line2d_13">
      <g>
       <use xlink:href="#m56508b8be9" x="25.4275" y="17.374047" style="stroke: #000000; stroke-width: 0.25"/>
      </g>
     </g>
     <g id="text_14">
      <!-- 25 -->
      <g transform="translate(15.366562 19.1635) scale(0.05 -0.05)">
       <use xlink:href="#ArialMT-32"/>
       <use xlink:href="#ArialMT-35" x="55.615234"/>
      </g>
     </g>
    </g>
    <g id="text_15">
     <!-- Number supranormal deviations [a.u.] -->
     <g transform="translate(10.174062 97.329945) rotate(-90) scale(0.06 -0.06)">
      <defs>
       <path id="ArialMT-4e" d="M 488 0 
L 488 4581 
L 1109 4581 
L 3516 984 
L 3516 4581 
L 4097 4581 
L 4097 0 
L 3475 0 
L 1069 3600 
L 1069 0 
L 488 0 
z
" transform="scale(0.015625)"/>
       <path id="ArialMT-62" d="M 941 0 
L 419 0 
L 419 4581 
L 981 4581 
L 981 2947 
Q 1338 3394 1891 3394 
Q 2197 3394 2470 3270 
Q 2744 3147 2920 2923 
Q 3097 2700 3197 2384 
Q 3297 2069 3297 1709 
Q 3297 856 2875 390 
Q 2453 -75 1863 -75 
Q 1275 -75 941 416 
L 941 0 
z
M 934 1684 
Q 934 1088 1097 822 
Q 1363 388 1816 388 
Q 2184 388 2453 708 
Q 2722 1028 2722 1663 
Q 2722 2313 2464 2622 
Q 2206 2931 1841 2931 
Q 1472 2931 1203 2611 
Q 934 2291 934 1684 
z
" transform="scale(0.015625)"/>
       <path id="ArialMT-64" d="M 2575 0 
L 2575 419 
Q 2259 -75 1647 -75 
Q 1250 -75 917 144 
Q 584 363 401 755 
Q 219 1147 219 1656 
Q 219 2153 384 2558 
Q 550 2963 881 3178 
Q 1213 3394 1622 3394 
Q 1922 3394 2156 3267 
Q 2391 3141 2538 2938 
L 2538 4581 
L 3097 4581 
L 3097 0 
L 2575 0 
z
M 797 1656 
Q 797 1019 1065 703 
Q 1334 388 1700 388 
Q 2069 388 2326 689 
Q 2584 991 2584 1609 
Q 2584 2291 2321 2609 
Q 2059 2928 1675 2928 
Q 1300 2928 1048 2622 
Q 797 2316 797 1656 
z
" transform="scale(0.015625)"/>
      </defs>
      <use xlink:href="#ArialMT-4e"/>
      <use xlink:href="#ArialMT-75" x="72.216797"/>
      <use xlink:href="#ArialMT-6d" x="127.832031"/>
      <use xlink:href="#ArialMT-62" x="211.132812"/>
      <use xlink:href="#ArialMT-65" x="266.748047"/>
      <use xlink:href="#ArialMT-72" x="322.363281"/>
      <use xlink:href="#ArialMT-20" x="355.664062"/>
      <use xlink:href="#ArialMT-73" x="383.447266"/>
      <use xlink:href="#ArialMT-75" x="433.447266"/>
      <use xlink:href="#ArialMT-70" x="489.0625"/>
      <use xlink:href="#ArialMT-72" x="544.677734"/>
      <use xlink:href="#ArialMT-61" x="577.978516"/>
      <use xlink:href="#ArialMT-6e" x="633.59375"/>
      <use xlink:href="#ArialMT-6f" x="689.208984"/>
      <use xlink:href="#ArialMT-72" x="744.824219"/>
      <use xlink:href="#ArialMT-6d" x="778.125"/>
      <use xlink:href="#ArialMT-61" x="861.425781"/>
      <use xlink:href="#ArialMT-6c" x="917.041016"/>
      <use xlink:href="#ArialMT-20" x="939.257812"/>
      <use xlink:href="#ArialMT-64" x="967.041016"/>
      <use xlink:href="#ArialMT-65" x="1022.65625"/>
      <use xlink:href="#ArialMT-76" x="1078.271484"/>
      <use xlink:href="#ArialMT-69" x="1128.271484"/>
      <use xlink:href="#ArialMT-61" x="1150.488281"/>
      <use xlink:href="#ArialMT-74" x="1206.103516"/>
      <use xlink:href="#ArialMT-69" x="1233.886719"/>
      <use xlink:href="#ArialMT-6f" x="1256.103516"/>
      <use xlink:href="#ArialMT-6e" x="1311.71875"/>
      <use xlink:href="#ArialMT-73" x="1367.333984"/>
      <use xlink:href="#ArialMT-20" x="1417.333984"/>
      <use xlink:href="#ArialMT-5b" x="1445.117188"/>
      <use xlink:href="#ArialMT-61" x="1472.900391"/>
      <use xlink:href="#ArialMT-2e" x="1528.515625"/>
      <use xlink:href="#ArialMT-75" x="1556.298828"/>
      <use xlink:href="#ArialMT-2e" x="1611.914062"/>
      <use xlink:href="#ArialMT-5d" x="1639.697266"/>
     </g>
    </g>
   </g>
   <g id="line2d_14">
    <path d="M 31.112864 73.170992 
L 32.261423 73.241887 
L 33.409981 73.312783 
L 34.558539 73.383678 
L 35.707098 73.454574 
L 36.855656 73.525469 
L 38.004215 73.596365 
L 39.152773 73.66726 
L 40.301332 73.738156 
L 41.44989 73.809051 
L 42.598448 73.879946 
L 43.747007 73.950842 
L 44.895565 74.021737 
L 46.044124 74.092633 
L 47.192682 74.163528 
L 48.34124 74.234424 
L 49.489799 74.305319 
L 50.638357 74.376215 
L 51.786916 74.44711 
L 52.935474 74.518006 
L 54.084033 74.588901 
L 55.232591 74.659797 
L 56.381149 74.730692 
L 57.529708 74.801588 
L 58.678266 74.872483 
L 59.826825 74.943379 
L 60.975383 75.014274 
L 62.123941 75.08517 
L 63.2725 75.156065 
L 64.421058 75.226961 
L 65.569617 75.297856 
L 66.718175 75.368752 
L 67.866734 75.439647 
L 69.015292 75.510543 
L 70.16385 75.581438 
L 71.312409 75.652334 
L 72.460967 75.723229 
L 73.609526 75.794125 
L 74.758084 75.86502 
L 75.906643 75.935916 
L 77.055201 76.006811 
L 78.203759 76.077707 
L 79.352318 76.148602 
L 80.500876 76.219498 
L 81.649435 76.290393 
L 82.797993 76.361289 
L 83.946551 76.432184 
L 85.09511 76.50308 
L 86.243668 76.573975 
L 87.392227 76.644871 
L 88.540785 76.715766 
L 89.689344 76.786662 
L 90.837902 76.857557 
L 91.98646 76.928453 
L 93.135019 76.999348 
L 94.283577 77.070244 
L 95.432136 77.141139 
L 96.580694 77.212034 
L 97.729252 77.28293 
L 98.877811 77.353825 
L 100.026369 77.424721 
L 101.174928 77.495616 
L 102.323486 77.566512 
L 103.472045 77.637407 
L 104.620603 77.708303 
L 105.769161 77.779198 
L 106.91772 77.850094 
L 108.066278 77.920989 
L 109.214837 77.991885 
L 110.363395 78.06278 
L 111.511953 78.133676 
L 112.660512 78.204571 
L 113.80907 78.275467 
L 114.957629 78.346362 
L 116.106187 78.417258 
L 117.254746 78.488153 
L 118.403304 78.559049 
L 119.551862 78.629944 
L 120.700421 78.70084 
L 121.848979 78.771735 
L 122.997538 78.842631 
L 124.146096 78.913526 
L 125.294655 78.984422 
L 126.443213 79.055317 
L 127.591771 79.126213 
L 128.74033 79.197108 
L 129.888888 79.268004 
L 131.037447 79.338899 
L 132.186005 79.409795 
L 133.334563 79.48069 
L 134.483122 79.551586 
L 135.63168 79.622481 
L 136.780239 79.693377 
L 137.928797 79.764272 
L 139.077356 79.835168 
L 140.225914 79.906063 
L 141.374472 79.976959 
L 142.523031 80.047854 
L 143.671589 80.11875 
L 144.820148 80.189645 
" clip-path="url(#p012340340b)" style="fill: none; stroke: #ff8c00; stroke-width: 0.75; stroke-linecap: square"/>
   </g>
   <g id="patch_3">
    <path d="M 25.4275 89.218327 
L 25.4275 5.4 
" style="fill: none; stroke: #000000; stroke-width: 0.25; stroke-linejoin: miter; stroke-linecap: square"/>
   </g>
   <g id="patch_4">
    <path d="M 25.4275 89.218327 
L 150.505512 89.218327 
" style="fill: none; stroke: #000000; stroke-width: 0.25; stroke-linejoin: miter; stroke-linecap: square"/>
   </g>
   <g id="text_16">
    <g id="patch_5">
     <path d="M 29.17984 18.699023 
L 57.57984 18.699023 
Q 59.07984 18.699023 59.07984 17.199023 
L 59.07984 7.132617 
Q 59.07984 5.632617 57.57984 5.632617 
L 29.17984 5.632617 
Q 27.67984 5.632617 27.67984 7.132617 
L 27.67984 17.199023 
Q 27.67984 18.699023 29.17984 18.699023 
z
" style="fill: #c0c0c0; opacity: 0.4; stroke: #c0c0c0; stroke-linejoin: miter"/>
    </g>
    <!-- $r=-0.212$ -->
    <g transform="translate(29.17984 10.655273) scale(0.05 -0.05)">
     <defs>
      <path id="DejaVuSans-Oblique-72" d="M 2853 2969 
Q 2766 3016 2653 3041 
Q 2541 3066 2413 3066 
Q 1953 3066 1609 2717 
Q 1266 2369 1153 1784 
L 800 0 
L 225 0 
L 909 3500 
L 1484 3500 
L 1375 2956 
Q 1603 3259 1920 3421 
Q 2238 3584 2597 3584 
Q 2691 3584 2781 3573 
Q 2872 3563 2963 3538 
L 2853 2969 
z
" transform="scale(0.015625)"/>
      <path id="DejaVuSans-3d" d="M 678 2906 
L 4684 2906 
L 4684 2381 
L 678 2381 
L 678 2906 
z
M 678 1631 
L 4684 1631 
L 4684 1100 
L 678 1100 
L 678 1631 
z
" transform="scale(0.015625)"/>
      <path id="DejaVuSans-2212" d="M 678 2272 
L 4684 2272 
L 4684 1741 
L 678 1741 
L 678 2272 
z
" transform="scale(0.015625)"/>
      <path id="DejaVuSans-30" d="M 2034 4250 
Q 1547 4250 1301 3770 
Q 1056 3291 1056 2328 
Q 1056 1369 1301 889 
Q 1547 409 2034 409 
Q 2525 409 2770 889 
Q 3016 1369 3016 2328 
Q 3016 3291 2770 3770 
Q 2525 4250 2034 4250 
z
M 2034 4750 
Q 2819 4750 3233 4129 
Q 3647 3509 3647 2328 
Q 3647 1150 3233 529 
Q 2819 -91 2034 -91 
Q 1250 -91 836 529 
Q 422 1150 422 2328 
Q 422 3509 836 4129 
Q 1250 4750 2034 4750 
z
" transform="scale(0.015625)"/>
      <path id="DejaVuSans-2e" d="M 684 794 
L 1344 794 
L 1344 0 
L 684 0 
L 684 794 
z
" transform="scale(0.015625)"/>
      <path id="DejaVuSans-32" d="M 1228 531 
L 3431 531 
L 3431 0 
L 469 0 
L 469 531 
Q 828 903 1448 1529 
Q 2069 2156 2228 2338 
Q 2531 2678 2651 2914 
Q 2772 3150 2772 3378 
Q 2772 3750 2511 3984 
Q 2250 4219 1831 4219 
Q 1534 4219 1204 4116 
Q 875 4013 500 3803 
L 500 4441 
Q 881 4594 1212 4672 
Q 1544 4750 1819 4750 
Q 2544 4750 2975 4387 
Q 3406 4025 3406 3419 
Q 3406 3131 3298 2873 
Q 3191 2616 2906 2266 
Q 2828 2175 2409 1742 
Q 1991 1309 1228 531 
z
" transform="scale(0.015625)"/>
      <path id="DejaVuSans-31" d="M 794 531 
L 1825 531 
L 1825 4091 
L 703 3866 
L 703 4441 
L 1819 4666 
L 2450 4666 
L 2450 531 
L 3481 531 
L 3481 0 
L 794 0 
L 794 531 
z
" transform="scale(0.015625)"/>
     </defs>
     <use xlink:href="#DejaVuSans-Oblique-72" transform="translate(0 0.78125)"/>
     <use xlink:href="#DejaVuSans-3d" transform="translate(60.595703 0.78125)"/>
     <use xlink:href="#DejaVuSans-2212" transform="translate(183.349609 0.78125)"/>
     <use xlink:href="#DejaVuSans-30" transform="translate(286.621094 0.78125)"/>
     <use xlink:href="#DejaVuSans-2e" transform="translate(350.244141 0.78125)"/>
     <use xlink:href="#DejaVuSans-32" transform="translate(376.53125 0.78125)"/>
     <use xlink:href="#DejaVuSans-31" transform="translate(440.154297 0.78125)"/>
     <use xlink:href="#DejaVuSans-32" transform="translate(503.777344 0.78125)"/>
    </g>
    <!-- $p=0.006$ -->
    <g transform="translate(29.17984 16.149023) scale(0.05 -0.05)">
     <defs>
      <path id="DejaVuSans-Oblique-70" d="M 3175 2156 
Q 3175 2616 2975 2859 
Q 2775 3103 2400 3103 
Q 2144 3103 1911 2972 
Q 1678 2841 1497 2591 
Q 1319 2344 1212 1994 
Q 1106 1644 1106 1300 
Q 1106 863 1306 627 
Q 1506 391 1875 391 
Q 2147 391 2380 519 
Q 2613 647 2778 891 
Q 2956 1147 3065 1494 
Q 3175 1841 3175 2156 
z
M 1394 2969 
Q 1625 3272 1939 3428 
Q 2253 3584 2638 3584 
Q 3175 3584 3472 3232 
Q 3769 2881 3769 2247 
Q 3769 1728 3584 1258 
Q 3400 788 3053 416 
Q 2822 169 2531 39 
Q 2241 -91 1919 -91 
Q 1547 -91 1294 64 
Q 1041 219 916 525 
L 556 -1331 
L -19 -1331 
L 922 3500 
L 1497 3500 
L 1394 2969 
z
" transform="scale(0.015625)"/>
      <path id="DejaVuSans-36" d="M 2113 2584 
Q 1688 2584 1439 2293 
Q 1191 2003 1191 1497 
Q 1191 994 1439 701 
Q 1688 409 2113 409 
Q 2538 409 2786 701 
Q 3034 994 3034 1497 
Q 3034 2003 2786 2293 
Q 2538 2584 2113 2584 
z
M 3366 4563 
L 3366 3988 
Q 3128 4100 2886 4159 
Q 2644 4219 2406 4219 
Q 1781 4219 1451 3797 
Q 1122 3375 1075 2522 
Q 1259 2794 1537 2939 
Q 1816 3084 2150 3084 
Q 2853 3084 3261 2657 
Q 3669 2231 3669 1497 
Q 3669 778 3244 343 
Q 2819 -91 2113 -91 
Q 1303 -91 875 529 
Q 447 1150 447 2328 
Q 447 3434 972 4092 
Q 1497 4750 2381 4750 
Q 2619 4750 2861 4703 
Q 3103 4656 3366 4563 
z
" transform="scale(0.015625)"/>
     </defs>
     <use xlink:href="#DejaVuSans-Oblique-70" transform="translate(0 0.78125)"/>
     <use xlink:href="#DejaVuSans-3d" transform="translate(82.958984 0.78125)"/>
     <use xlink:href="#DejaVuSans-30" transform="translate(186.230469 0.78125)"/>
     <use xlink:href="#DejaVuSans-2e" transform="translate(249.853516 0.78125)"/>
     <use xlink:href="#DejaVuSans-30" transform="translate(281.640625 0.78125)"/>
     <use xlink:href="#DejaVuSans-30" transform="translate(345.263672 0.78125)"/>
     <use xlink:href="#DejaVuSans-36" transform="translate(408.886719 0.78125)"/>
    </g>
   </g>
  </g>
 </g>
 <defs>
  <clipPath id="p012340340b">
   <rect x="25.4275" y="5.4" width="125.078012" height="83.818327"/>
  </clipPath>
 </defs>
</svg>
