<?xml version="1.0" encoding="utf-8" standalone="no"?>
<!DOCTYPE svg PUBLIC "-//W3C//DTD SVG 1.1//EN"
  "http://www.w3.org/Graphics/SVG/1.1/DTD/svg11.dtd">
<svg xmlns:xlink="http://www.w3.org/1999/xlink" width="155.905512pt" height="113.385827pt" viewBox="0 0 155.905512 113.385827" xmlns="http://www.w3.org/2000/svg" version="1.1">
 <metadata>
  <rdf:RDF xmlns:dc="http://purl.org/dc/elements/1.1/" xmlns:cc="http://creativecommons.org/ns#" xmlns:rdf="http://www.w3.org/1999/02/22-rdf-syntax-ns#">
   <cc:Work>
    <dc:type rdf:resource="http://purl.org/dc/dcmitype/StillImage"/>
    <dc:date>2025-05-07T12:30:59.559091</dc:date>
    <dc:format>image/svg+xml</dc:format>
    <dc:creator>
     <cc:Agent>
      <dc:title>Matplotlib v3.9.2, https://matplotlib.org/</dc:title>
     </cc:Agent>
    </dc:creator>
   </cc:Work>
  </rdf:RDF>
 </metadata>
 <defs>
  <style type="text/css">*{stroke-linejoin: round; stroke-linecap: butt}</style>
 </defs>
 <g id="figure_1">
  <g id="patch_1">
   <path d="M 0 113.385827 
L 155.905512 113.385827 
L 155.905512 0 
L 0 0 
z
" style="fill: #ffffff"/>
  </g>
  <g id="axes_1">
   <g id="patch_2">
    <path d="M 25.36 89.405827 
L 150.505512 89.405827 
L 150.505512 5.4 
L 25.36 5.4 
z
" style="fill: #ffffff"/>
   </g>
   <g id="PathCollection_1">
    <defs>
     <path id="C0_0_c3547fe85b" d="M 0 0.866025 
C 0.229673 0.866025 0.449969 0.774776 0.612372 0.612372 
C 0.774776 0.449969 0.866025 0.229673 0.866025 -0 
C 0.866025 -0.229673 0.774776 -0.449969 0.612372 -0.612372 
C 0.449969 -0.774776 0.229673 -0.866025 0 -0.866025 
C -0.229673 -0.866025 -0.449969 -0.774776 -0.612372 -0.612372 
C -0.774776 -0.449969 -0.866025 -0.229673 -0.866025 0 
C -0.866025 0.229673 -0.774776 0.449969 -0.612372 0.612372 
C -0.449969 0.774776 -0.229673 0.866025 0 0.866025 
z
"/>
    </defs>
    <g clip-path="url(#p8f7adf9bbc)">
     <use xlink:href="#C0_0_c3547fe85b" x="92.177855" y="39.489481" style="fill: #ff8c00; fill-opacity: 0.8"/>
    </g>
    <g clip-path="url(#p8f7adf9bbc)">
     <use xlink:href="#C0_0_c3547fe85b" x="92.177855" y="58.988743" style="fill: #ff8c00; fill-opacity: 0.8"/>
    </g>
    <g clip-path="url(#p8f7adf9bbc)">
     <use xlink:href="#C0_0_c3547fe85b" x="104.064131" y="26.380827" style="fill: #ff8c00; fill-opacity: 0.8"/>
    </g>
    <g clip-path="url(#p8f7adf9bbc)">
     <use xlink:href="#C0_0_c3547fe85b" x="65.009223" y="36.596751" style="fill: #ff8c00; fill-opacity: 0.8"/>
    </g>
    <g clip-path="url(#p8f7adf9bbc)">
     <use xlink:href="#C0_0_c3547fe85b" x="92.177855" y="65.071214" style="fill: #ff8c00; fill-opacity: 0.8"/>
    </g>
    <g clip-path="url(#p8f7adf9bbc)">
     <use xlink:href="#C0_0_c3547fe85b" x="78.593539" y="54.317341" style="fill: #ff8c00; fill-opacity: 0.8"/>
    </g>
    <g clip-path="url(#p8f7adf9bbc)">
     <use xlink:href="#C0_0_c3547fe85b" x="107.46021" y="78.355029" style="fill: #ff8c00; fill-opacity: 0.8"/>
    </g>
    <g clip-path="url(#p8f7adf9bbc)">
     <use xlink:href="#C0_0_c3547fe85b" x="63.311183" y="57.958019" style="fill: #ff8c00; fill-opacity: 0.8"/>
    </g>
    <g clip-path="url(#p8f7adf9bbc)">
     <use xlink:href="#C0_0_c3547fe85b" x="81.989618" y="65.447043" style="fill: #ff8c00; fill-opacity: 0.8"/>
    </g>
    <g clip-path="url(#p8f7adf9bbc)">
     <use xlink:href="#C0_0_c3547fe85b" x="83.687657" y="9.218447" style="fill: #ff8c00; fill-opacity: 0.8"/>
    </g>
    <g clip-path="url(#p8f7adf9bbc)">
     <use xlink:href="#C0_0_c3547fe85b" x="100.668052" y="72.793666" style="fill: #ff8c00; fill-opacity: 0.8"/>
    </g>
    <g clip-path="url(#p8f7adf9bbc)">
     <use xlink:href="#C0_0_c3547fe85b" x="71.801381" y="45.25631" style="fill: #ff8c00; fill-opacity: 0.8"/>
    </g>
    <g clip-path="url(#p8f7adf9bbc)">
     <use xlink:href="#C0_0_c3547fe85b" x="80.291578" y="38.191764" style="fill: #ff8c00; fill-opacity: 0.8"/>
    </g>
    <g clip-path="url(#p8f7adf9bbc)">
     <use xlink:href="#C0_0_c3547fe85b" x="85.385697" y="23.029696" style="fill: #ff8c00; fill-opacity: 0.8"/>
    </g>
    <g clip-path="url(#p8f7adf9bbc)">
     <use xlink:href="#C0_0_c3547fe85b" x="144.817079" y="61.320868" style="fill: #ff8c00; fill-opacity: 0.8"/>
    </g>
    <g clip-path="url(#p8f7adf9bbc)">
     <use xlink:href="#C0_0_c3547fe85b" x="127.836684" y="37.959364" style="fill: #ff8c00; fill-opacity: 0.8"/>
    </g>
    <g clip-path="url(#p8f7adf9bbc)">
     <use xlink:href="#C0_0_c3547fe85b" x="58.217064" y="41.483007" style="fill: #ff8c00; fill-opacity: 0.8"/>
    </g>
    <g clip-path="url(#p8f7adf9bbc)">
     <use xlink:href="#C0_0_c3547fe85b" x="58.217064" y="41.364124" style="fill: #ff8c00; fill-opacity: 0.8"/>
    </g>
    <g clip-path="url(#p8f7adf9bbc)">
     <use xlink:href="#C0_0_c3547fe85b" x="117.648447" y="71.990952" style="fill: #ff8c00; fill-opacity: 0.8"/>
    </g>
    <g clip-path="url(#p8f7adf9bbc)">
     <use xlink:href="#C0_0_c3547fe85b" x="90.479815" y="48.953059" style="fill: #ff8c00; fill-opacity: 0.8"/>
    </g>
    <g clip-path="url(#p8f7adf9bbc)">
     <use xlink:href="#C0_0_c3547fe85b" x="59.915104" y="84.009147" style="fill: #ff8c00; fill-opacity: 0.8"/>
    </g>
    <g clip-path="url(#p8f7adf9bbc)">
     <use xlink:href="#C0_0_c3547fe85b" x="65.009223" y="65.005045" style="fill: #ff8c00; fill-opacity: 0.8"/>
    </g>
    <g clip-path="url(#p8f7adf9bbc)">
     <use xlink:href="#C0_0_c3547fe85b" x="66.707262" y="47.256936" style="fill: #ff8c00; fill-opacity: 0.8"/>
    </g>
    <g clip-path="url(#p8f7adf9bbc)">
     <use xlink:href="#C0_0_c3547fe85b" x="92.177855" y="37.560552" style="fill: #ff8c00; fill-opacity: 0.8"/>
    </g>
    <g clip-path="url(#p8f7adf9bbc)">
     <use xlink:href="#C0_0_c3547fe85b" x="51.424906" y="60.666746" style="fill: #ff8c00; fill-opacity: 0.8"/>
    </g>
    <g clip-path="url(#p8f7adf9bbc)">
     <use xlink:href="#C0_0_c3547fe85b" x="80.291578" y="50.110023" style="fill: #ff8c00; fill-opacity: 0.8"/>
    </g>
    <g clip-path="url(#p8f7adf9bbc)">
     <use xlink:href="#C0_0_c3547fe85b" x="92.177855" y="39.297022" style="fill: #ff8c00; fill-opacity: 0.8"/>
    </g>
    <g clip-path="url(#p8f7adf9bbc)">
     <use xlink:href="#C0_0_c3547fe85b" x="129.534724" y="16.75796" style="fill: #ff8c00; fill-opacity: 0.8"/>
    </g>
    <g clip-path="url(#p8f7adf9bbc)">
     <use xlink:href="#C0_0_c3547fe85b" x="114.252368" y="75.275952" style="fill: #ff8c00; fill-opacity: 0.8"/>
    </g>
    <g clip-path="url(#p8f7adf9bbc)">
     <use xlink:href="#C0_0_c3547fe85b" x="37.84059" y="74.166494" style="fill: #ff8c00; fill-opacity: 0.8"/>
    </g>
    <g clip-path="url(#p8f7adf9bbc)">
     <use xlink:href="#C0_0_c3547fe85b" x="117.648447" y="44.917027" style="fill: #ff8c00; fill-opacity: 0.8"/>
    </g>
    <g clip-path="url(#p8f7adf9bbc)">
     <use xlink:href="#C0_0_c3547fe85b" x="93.875894" y="36.949239" style="fill: #ff8c00; fill-opacity: 0.8"/>
    </g>
    <g clip-path="url(#p8f7adf9bbc)">
     <use xlink:href="#C0_0_c3547fe85b" x="83.687657" y="41.071414" style="fill: #ff8c00; fill-opacity: 0.8"/>
    </g>
    <g clip-path="url(#p8f7adf9bbc)">
     <use xlink:href="#C0_0_c3547fe85b" x="83.687657" y="52.183261" style="fill: #ff8c00; fill-opacity: 0.8"/>
    </g>
    <g clip-path="url(#p8f7adf9bbc)">
     <use xlink:href="#C0_0_c3547fe85b" x="80.291578" y="64.748351" style="fill: #ff8c00; fill-opacity: 0.8"/>
    </g>
    <g clip-path="url(#p8f7adf9bbc)">
     <use xlink:href="#C0_0_c3547fe85b" x="87.083736" y="80.138505" style="fill: #ff8c00; fill-opacity: 0.8"/>
    </g>
    <g clip-path="url(#p8f7adf9bbc)">
     <use xlink:href="#C0_0_c3547fe85b" x="70.103341" y="64.823382" style="fill: #ff8c00; fill-opacity: 0.8"/>
    </g>
    <g clip-path="url(#p8f7adf9bbc)">
     <use xlink:href="#C0_0_c3547fe85b" x="70.103341" y="43.954861" style="fill: #ff8c00; fill-opacity: 0.8"/>
    </g>
    <g clip-path="url(#p8f7adf9bbc)">
     <use xlink:href="#C0_0_c3547fe85b" x="58.217064" y="36.159907" style="fill: #ff8c00; fill-opacity: 0.8"/>
    </g>
    <g clip-path="url(#p8f7adf9bbc)">
     <use xlink:href="#C0_0_c3547fe85b" x="83.687657" y="66.079737" style="fill: #ff8c00; fill-opacity: 0.8"/>
    </g>
    <g clip-path="url(#p8f7adf9bbc)">
     <use xlink:href="#C0_0_c3547fe85b" x="54.820985" y="65.175788" style="fill: #ff8c00; fill-opacity: 0.8"/>
    </g>
    <g clip-path="url(#p8f7adf9bbc)">
     <use xlink:href="#C0_0_c3547fe85b" x="70.103341" y="42.150235" style="fill: #ff8c00; fill-opacity: 0.8"/>
    </g>
    <g clip-path="url(#p8f7adf9bbc)">
     <use xlink:href="#C0_0_c3547fe85b" x="102.366092" y="26.26775" style="fill: #ff8c00; fill-opacity: 0.8"/>
    </g>
    <g clip-path="url(#p8f7adf9bbc)">
     <use xlink:href="#C0_0_c3547fe85b" x="44.632748" y="80.352042" style="fill: #ff8c00; fill-opacity: 0.8"/>
    </g>
    <g clip-path="url(#p8f7adf9bbc)">
     <use xlink:href="#C0_0_c3547fe85b" x="97.271973" y="57.263543" style="fill: #ff8c00; fill-opacity: 0.8"/>
    </g>
    <g clip-path="url(#p8f7adf9bbc)">
     <use xlink:href="#C0_0_c3547fe85b" x="73.49942" y="42.807344" style="fill: #ff8c00; fill-opacity: 0.8"/>
    </g>
    <g clip-path="url(#p8f7adf9bbc)">
     <use xlink:href="#C0_0_c3547fe85b" x="31.048432" y="50.666192" style="fill: #ff8c00; fill-opacity: 0.8"/>
    </g>
    <g clip-path="url(#p8f7adf9bbc)">
     <use xlink:href="#C0_0_c3547fe85b" x="134.628842" y="39.612886" style="fill: #ff8c00; fill-opacity: 0.8"/>
    </g>
    <g clip-path="url(#p8f7adf9bbc)">
     <use xlink:href="#C0_0_c3547fe85b" x="76.895499" y="30.580634" style="fill: #ff8c00; fill-opacity: 0.8"/>
    </g>
    <g clip-path="url(#p8f7adf9bbc)">
     <use xlink:href="#C0_0_c3547fe85b" x="66.707262" y="79.415825" style="fill: #ff8c00; fill-opacity: 0.8"/>
    </g>
    <g clip-path="url(#p8f7adf9bbc)">
     <use xlink:href="#C0_0_c3547fe85b" x="46.330788" y="85.58738" style="fill: #ff8c00; fill-opacity: 0.8"/>
    </g>
    <g clip-path="url(#p8f7adf9bbc)">
     <use xlink:href="#C0_0_c3547fe85b" x="46.330788" y="82.310764" style="fill: #ff8c00; fill-opacity: 0.8"/>
    </g>
    <g clip-path="url(#p8f7adf9bbc)">
     <use xlink:href="#C0_0_c3547fe85b" x="80.291578" y="27.192383" style="fill: #ff8c00; fill-opacity: 0.8"/>
    </g>
    <g clip-path="url(#p8f7adf9bbc)">
     <use xlink:href="#C0_0_c3547fe85b" x="95.573934" y="67.562062" style="fill: #ff8c00; fill-opacity: 0.8"/>
    </g>
    <g clip-path="url(#p8f7adf9bbc)">
     <use xlink:href="#C0_0_c3547fe85b" x="90.479815" y="55.410909" style="fill: #ff8c00; fill-opacity: 0.8"/>
    </g>
    <g clip-path="url(#p8f7adf9bbc)">
     <use xlink:href="#C0_0_c3547fe85b" x="66.707262" y="31.735416" style="fill: #ff8c00; fill-opacity: 0.8"/>
    </g>
    <g clip-path="url(#p8f7adf9bbc)">
     <use xlink:href="#C0_0_c3547fe85b" x="65.009223" y="65.106819" style="fill: #ff8c00; fill-opacity: 0.8"/>
    </g>
    <g clip-path="url(#p8f7adf9bbc)">
     <use xlink:href="#C0_0_c3547fe85b" x="83.687657" y="64.770924" style="fill: #ff8c00; fill-opacity: 0.8"/>
    </g>
    <g clip-path="url(#p8f7adf9bbc)">
     <use xlink:href="#C0_0_c3547fe85b" x="75.19746" y="57.345558" style="fill: #ff8c00; fill-opacity: 0.8"/>
    </g>
    <g clip-path="url(#p8f7adf9bbc)">
     <use xlink:href="#C0_0_c3547fe85b" x="81.989618" y="68.2453" style="fill: #ff8c00; fill-opacity: 0.8"/>
    </g>
    <g clip-path="url(#p8f7adf9bbc)">
     <use xlink:href="#C0_0_c3547fe85b" x="75.19746" y="39.884028" style="fill: #ff8c00; fill-opacity: 0.8"/>
    </g>
    <g clip-path="url(#p8f7adf9bbc)">
     <use xlink:href="#C0_0_c3547fe85b" x="90.479815" y="70.466321" style="fill: #ff8c00; fill-opacity: 0.8"/>
    </g>
    <g clip-path="url(#p8f7adf9bbc)">
     <use xlink:href="#C0_0_c3547fe85b" x="65.009223" y="32.755336" style="fill: #ff8c00; fill-opacity: 0.8"/>
    </g>
    <g clip-path="url(#p8f7adf9bbc)">
     <use xlink:href="#C0_0_c3547fe85b" x="81.989618" y="45.405179" style="fill: #ff8c00; fill-opacity: 0.8"/>
    </g>
    <g clip-path="url(#p8f7adf9bbc)">
     <use xlink:href="#C0_0_c3547fe85b" x="78.593539" y="22.969191" style="fill: #ff8c00; fill-opacity: 0.8"/>
    </g>
    <g clip-path="url(#p8f7adf9bbc)">
     <use xlink:href="#C0_0_c3547fe85b" x="119.346487" y="41.536154" style="fill: #ff8c00; fill-opacity: 0.8"/>
    </g>
    <g clip-path="url(#p8f7adf9bbc)">
     <use xlink:href="#C0_0_c3547fe85b" x="87.083736" y="74.242166" style="fill: #ff8c00; fill-opacity: 0.8"/>
    </g>
    <g clip-path="url(#p8f7adf9bbc)">
     <use xlink:href="#C0_0_c3547fe85b" x="95.573934" y="63.439654" style="fill: #ff8c00; fill-opacity: 0.8"/>
    </g>
    <g clip-path="url(#p8f7adf9bbc)">
     <use xlink:href="#C0_0_c3547fe85b" x="121.044526" y="16.524219" style="fill: #ff8c00; fill-opacity: 0.8"/>
    </g>
    <g clip-path="url(#p8f7adf9bbc)">
     <use xlink:href="#C0_0_c3547fe85b" x="71.801381" y="60.049763" style="fill: #ff8c00; fill-opacity: 0.8"/>
    </g>
    <g clip-path="url(#p8f7adf9bbc)">
     <use xlink:href="#C0_0_c3547fe85b" x="83.687657" y="19.909228" style="fill: #ff8c00; fill-opacity: 0.8"/>
    </g>
    <g clip-path="url(#p8f7adf9bbc)">
     <use xlink:href="#C0_0_c3547fe85b" x="83.687657" y="67.543401" style="fill: #ff8c00; fill-opacity: 0.8"/>
    </g>
    <g clip-path="url(#p8f7adf9bbc)">
     <use xlink:href="#C0_0_c3547fe85b" x="102.366092" y="58.707933" style="fill: #ff8c00; fill-opacity: 0.8"/>
    </g>
    <g clip-path="url(#p8f7adf9bbc)">
     <use xlink:href="#C0_0_c3547fe85b" x="105.762171" y="50.137165" style="fill: #ff8c00; fill-opacity: 0.8"/>
    </g>
    <g clip-path="url(#p8f7adf9bbc)">
     <use xlink:href="#C0_0_c3547fe85b" x="75.19746" y="72.494407" style="fill: #ff8c00; fill-opacity: 0.8"/>
    </g>
    <g clip-path="url(#p8f7adf9bbc)">
     <use xlink:href="#C0_0_c3547fe85b" x="54.820985" y="50.644582" style="fill: #ff8c00; fill-opacity: 0.8"/>
    </g>
    <g clip-path="url(#p8f7adf9bbc)">
     <use xlink:href="#C0_0_c3547fe85b" x="42.934709" y="75.639968" style="fill: #ff8c00; fill-opacity: 0.8"/>
    </g>
    <g clip-path="url(#p8f7adf9bbc)">
     <use xlink:href="#C0_0_c3547fe85b" x="105.762171" y="44.922172" style="fill: #ff8c00; fill-opacity: 0.8"/>
    </g>
    <g clip-path="url(#p8f7adf9bbc)">
     <use xlink:href="#C0_0_c3547fe85b" x="92.177855" y="40.16818" style="fill: #ff8c00; fill-opacity: 0.8"/>
    </g>
    <g clip-path="url(#p8f7adf9bbc)">
     <use xlink:href="#C0_0_c3547fe85b" x="71.801381" y="61.466624" style="fill: #ff8c00; fill-opacity: 0.8"/>
    </g>
    <g clip-path="url(#p8f7adf9bbc)">
     <use xlink:href="#C0_0_c3547fe85b" x="71.801381" y="20.10405" style="fill: #ff8c00; fill-opacity: 0.8"/>
    </g>
    <g clip-path="url(#p8f7adf9bbc)">
     <use xlink:href="#C0_0_c3547fe85b" x="78.593539" y="67.376395" style="fill: #ff8c00; fill-opacity: 0.8"/>
    </g>
    <g clip-path="url(#p8f7adf9bbc)">
     <use xlink:href="#C0_0_c3547fe85b" x="81.989618" y="82.337892" style="fill: #ff8c00; fill-opacity: 0.8"/>
    </g>
    <g clip-path="url(#p8f7adf9bbc)">
     <use xlink:href="#C0_0_c3547fe85b" x="75.19746" y="60.809183" style="fill: #ff8c00; fill-opacity: 0.8"/>
    </g>
    <g clip-path="url(#p8f7adf9bbc)">
     <use xlink:href="#C0_0_c3547fe85b" x="59.915104" y="60.250456" style="fill: #ff8c00; fill-opacity: 0.8"/>
    </g>
    <g clip-path="url(#p8f7adf9bbc)">
     <use xlink:href="#C0_0_c3547fe85b" x="93.875894" y="64.236874" style="fill: #ff8c00; fill-opacity: 0.8"/>
    </g>
    <g clip-path="url(#p8f7adf9bbc)">
     <use xlink:href="#C0_0_c3547fe85b" x="63.311183" y="56.685044" style="fill: #ff8c00; fill-opacity: 0.8"/>
    </g>
    <g clip-path="url(#p8f7adf9bbc)">
     <use xlink:href="#C0_0_c3547fe85b" x="83.687657" y="32.766692" style="fill: #ff8c00; fill-opacity: 0.8"/>
    </g>
    <g clip-path="url(#p8f7adf9bbc)">
     <use xlink:href="#C0_0_c3547fe85b" x="83.687657" y="26.716497" style="fill: #ff8c00; fill-opacity: 0.8"/>
    </g>
    <g clip-path="url(#p8f7adf9bbc)">
     <use xlink:href="#C0_0_c3547fe85b" x="109.15825" y="54.308581" style="fill: #ff8c00; fill-opacity: 0.8"/>
    </g>
    <g clip-path="url(#p8f7adf9bbc)">
     <use xlink:href="#C0_0_c3547fe85b" x="80.291578" y="17.88252" style="fill: #ff8c00; fill-opacity: 0.8"/>
    </g>
    <g clip-path="url(#p8f7adf9bbc)">
     <use xlink:href="#C0_0_c3547fe85b" x="58.217064" y="72.488454" style="fill: #ff8c00; fill-opacity: 0.8"/>
    </g>
   </g>
   <g id="PolyCollection_1">
    <path d="M 31.048432 52.785528 
L 31.048432 71.263843 
L 32.197611 70.825806 
L 33.346789 70.405052 
L 34.495967 70.012329 
L 35.645145 69.614398 
L 36.794324 69.220122 
L 37.943502 68.817746 
L 39.09268 68.431467 
L 40.241858 68.023498 
L 41.391037 67.647072 
L 42.540215 67.26241 
L 43.689393 66.86926 
L 44.838571 66.438614 
L 45.98775 66.055127 
L 47.136928 65.671021 
L 48.286106 65.28734 
L 49.435284 64.887423 
L 50.584463 64.501951 
L 51.733641 64.150388 
L 52.882819 63.76301 
L 54.031997 63.426368 
L 55.181176 63.023845 
L 56.330354 62.643905 
L 57.479532 62.290123 
L 58.62871 61.943837 
L 59.777889 61.607713 
L 60.927067 61.257833 
L 62.076245 60.911633 
L 63.225423 60.551447 
L 64.374602 60.214835 
L 65.52378 59.868047 
L 66.672958 59.54033 
L 67.822136 59.222964 
L 68.971315 58.888856 
L 70.120493 58.58981 
L 71.269671 58.286062 
L 72.418849 58.011195 
L 73.568028 57.712907 
L 74.717206 57.423242 
L 75.866384 57.146089 
L 77.015562 56.8647 
L 78.164741 56.586135 
L 79.313919 56.326651 
L 80.463097 56.098282 
L 81.612276 55.880387 
L 82.761454 55.678044 
L 83.910632 55.46525 
L 85.05981 55.266896 
L 86.208989 55.062429 
L 87.358167 54.881624 
L 88.507345 54.698421 
L 89.656523 54.517206 
L 90.805702 54.343329 
L 91.95488 54.220457 
L 93.104058 54.086058 
L 94.253236 53.940724 
L 95.402415 53.814672 
L 96.551593 53.711245 
L 97.700771 53.631897 
L 98.849949 53.516639 
L 99.999128 53.405242 
L 101.148306 53.321488 
L 102.297484 53.238554 
L 103.446662 53.126321 
L 104.595841 53.032939 
L 105.745019 52.949244 
L 106.894197 52.866108 
L 108.043375 52.756786 
L 109.192554 52.678155 
L 110.341732 52.621464 
L 111.49091 52.564892 
L 112.640088 52.507562 
L 113.789267 52.433473 
L 114.938445 52.342423 
L 116.087623 52.285189 
L 117.236801 52.202701 
L 118.38598 52.146604 
L 119.535158 52.096025 
L 120.684336 52.035509 
L 121.833514 51.95621 
L 122.982693 51.891011 
L 124.131871 51.841431 
L 125.281049 51.784253 
L 126.430227 51.727018 
L 127.579406 51.66816 
L 128.728584 51.647465 
L 129.877762 51.601258 
L 131.02694 51.546706 
L 132.176119 51.472624 
L 133.325297 51.438238 
L 134.474475 51.410813 
L 135.623653 51.351731 
L 136.772832 51.302244 
L 137.92201 51.239533 
L 139.071188 51.198289 
L 140.220366 51.131325 
L 141.369545 51.104063 
L 142.518723 51.076676 
L 143.667901 51.038464 
L 144.817079 51.013448 
L 144.817079 27.518442 
L 144.817079 27.518442 
L 143.667901 27.944675 
L 142.518723 28.369771 
L 141.369545 28.798935 
L 140.220366 29.226665 
L 139.071188 29.642824 
L 137.92201 30.095591 
L 136.772832 30.499426 
L 135.623653 30.922925 
L 134.474475 31.313873 
L 133.325297 31.738524 
L 132.176119 32.155276 
L 131.02694 32.566584 
L 129.877762 32.971399 
L 128.728584 33.361527 
L 127.579406 33.777041 
L 126.430227 34.173814 
L 125.281049 34.617976 
L 124.131871 35.03999 
L 122.982693 35.442099 
L 121.833514 35.873351 
L 120.684336 36.246859 
L 119.535158 36.697748 
L 118.38598 37.088955 
L 117.236801 37.494687 
L 116.087623 37.909798 
L 114.938445 38.323678 
L 113.789267 38.699105 
L 112.640088 39.074642 
L 111.49091 39.458767 
L 110.341732 39.860664 
L 109.192554 40.273685 
L 108.043375 40.674566 
L 106.894197 41.086427 
L 105.745019 41.469767 
L 104.595841 41.839137 
L 103.446662 42.255215 
L 102.297484 42.6342 
L 101.148306 43.028312 
L 99.999128 43.39308 
L 98.849949 43.760844 
L 97.700771 44.09205 
L 96.551593 44.467616 
L 95.402415 44.822292 
L 94.253236 45.162647 
L 93.104058 45.514518 
L 91.95488 45.856518 
L 90.805702 46.181029 
L 89.656523 46.496375 
L 88.507345 46.806762 
L 87.358167 47.133896 
L 86.208989 47.429926 
L 85.05981 47.712886 
L 83.910632 47.980943 
L 82.761454 48.212517 
L 81.612276 48.480761 
L 80.463097 48.709758 
L 79.313919 48.93888 
L 78.164741 49.181329 
L 77.015562 49.377033 
L 75.866384 49.596373 
L 74.717206 49.748423 
L 73.568028 49.898279 
L 72.418849 50.047509 
L 71.269671 50.194857 
L 70.120493 50.350386 
L 68.971315 50.488706 
L 67.822136 50.57001 
L 66.672958 50.702359 
L 65.52378 50.802143 
L 64.374602 50.919163 
L 63.225423 51.049992 
L 62.076245 51.148567 
L 60.927067 51.181221 
L 59.777889 51.249496 
L 58.62871 51.338255 
L 57.479532 51.417079 
L 56.330354 51.476896 
L 55.181176 51.546794 
L 54.031997 51.627052 
L 52.882819 51.665061 
L 51.733641 51.748182 
L 50.584463 51.821299 
L 49.435284 51.901646 
L 48.286106 51.975427 
L 47.136928 52.041004 
L 45.98775 52.090526 
L 44.838571 52.13907 
L 43.689393 52.225109 
L 42.540215 52.299784 
L 41.391037 52.362538 
L 40.241858 52.424831 
L 39.09268 52.477726 
L 37.943502 52.524642 
L 36.794324 52.584616 
L 35.645145 52.620538 
L 34.495967 52.657031 
L 33.346789 52.69283 
L 32.197611 52.741294 
L 31.048432 52.785528 
z
" clip-path="url(#p8f7adf9bbc)" style="fill: #ff8c00; fill-opacity: 0.15"/>
   </g>
   <g id="matplotlib.axis_1">
    <g id="xtick_1">
     <g id="line2d_1">
      <defs>
       <path id="maff78b38a2" d="M 0 0 
L 0 3.5 
" style="stroke: #000000; stroke-width: 0.25"/>
      </defs>
      <g>
       <use xlink:href="#maff78b38a2" x="41.236669" y="89.405827" style="stroke: #000000; stroke-width: 0.25"/>
      </g>
     </g>
     <g id="text_1">
      <!-- 70 -->
      <g transform="translate(38.456201 97.484733) scale(0.05 -0.05)">
       <defs>
        <path id="ArialMT-37" d="M 303 3981 
L 303 4522 
L 3269 4522 
L 3269 4084 
Q 2831 3619 2401 2847 
Q 1972 2075 1738 1259 
Q 1569 684 1522 0 
L 944 0 
Q 953 541 1156 1306 
Q 1359 2072 1739 2783 
Q 2119 3494 2547 3981 
L 303 3981 
z
" transform="scale(0.015625)"/>
        <path id="ArialMT-30" d="M 266 2259 
Q 266 3072 433 3567 
Q 600 4063 929 4331 
Q 1259 4600 1759 4600 
Q 2128 4600 2406 4451 
Q 2684 4303 2865 4023 
Q 3047 3744 3150 3342 
Q 3253 2941 3253 2259 
Q 3253 1453 3087 958 
Q 2922 463 2592 192 
Q 2263 -78 1759 -78 
Q 1097 -78 719 397 
Q 266 969 266 2259 
z
M 844 2259 
Q 844 1131 1108 757 
Q 1372 384 1759 384 
Q 2147 384 2411 759 
Q 2675 1134 2675 2259 
Q 2675 3391 2411 3762 
Q 2147 4134 1753 4134 
Q 1366 4134 1134 3806 
Q 844 3388 844 2259 
z
" transform="scale(0.015625)"/>
       </defs>
       <use xlink:href="#ArialMT-37"/>
       <use xlink:href="#ArialMT-30" x="55.615234"/>
      </g>
     </g>
    </g>
    <g id="xtick_2">
     <g id="line2d_2">
      <g>
       <use xlink:href="#maff78b38a2" x="58.217064" y="89.405827" style="stroke: #000000; stroke-width: 0.25"/>
      </g>
     </g>
     <g id="text_2">
      <!-- 80 -->
      <g transform="translate(55.436596 97.484733) scale(0.05 -0.05)">
       <defs>
        <path id="ArialMT-38" d="M 1131 2484 
Q 781 2613 612 2850 
Q 444 3088 444 3419 
Q 444 3919 803 4259 
Q 1163 4600 1759 4600 
Q 2359 4600 2725 4251 
Q 3091 3903 3091 3403 
Q 3091 3084 2923 2848 
Q 2756 2613 2416 2484 
Q 2838 2347 3058 2040 
Q 3278 1734 3278 1309 
Q 3278 722 2862 322 
Q 2447 -78 1769 -78 
Q 1091 -78 675 323 
Q 259 725 259 1325 
Q 259 1772 486 2073 
Q 713 2375 1131 2484 
z
M 1019 3438 
Q 1019 3113 1228 2906 
Q 1438 2700 1772 2700 
Q 2097 2700 2305 2904 
Q 2513 3109 2513 3406 
Q 2513 3716 2298 3927 
Q 2084 4138 1766 4138 
Q 1444 4138 1231 3931 
Q 1019 3725 1019 3438 
z
M 838 1322 
Q 838 1081 952 856 
Q 1066 631 1291 507 
Q 1516 384 1775 384 
Q 2178 384 2440 643 
Q 2703 903 2703 1303 
Q 2703 1709 2433 1975 
Q 2163 2241 1756 2241 
Q 1359 2241 1098 1978 
Q 838 1716 838 1322 
z
" transform="scale(0.015625)"/>
       </defs>
       <use xlink:href="#ArialMT-38"/>
       <use xlink:href="#ArialMT-30" x="55.615234"/>
      </g>
     </g>
    </g>
    <g id="xtick_3">
     <g id="line2d_3">
      <g>
       <use xlink:href="#maff78b38a2" x="75.19746" y="89.405827" style="stroke: #000000; stroke-width: 0.25"/>
      </g>
     </g>
     <g id="text_3">
      <!-- 90 -->
      <g transform="translate(72.416991 97.484733) scale(0.05 -0.05)">
       <defs>
        <path id="ArialMT-39" d="M 350 1059 
L 891 1109 
Q 959 728 1153 556 
Q 1347 384 1650 384 
Q 1909 384 2104 503 
Q 2300 622 2425 820 
Q 2550 1019 2634 1356 
Q 2719 1694 2719 2044 
Q 2719 2081 2716 2156 
Q 2547 1888 2255 1720 
Q 1963 1553 1622 1553 
Q 1053 1553 659 1965 
Q 266 2378 266 3053 
Q 266 3750 677 4175 
Q 1088 4600 1706 4600 
Q 2153 4600 2523 4359 
Q 2894 4119 3086 3673 
Q 3278 3228 3278 2384 
Q 3278 1506 3087 986 
Q 2897 466 2520 194 
Q 2144 -78 1638 -78 
Q 1100 -78 759 220 
Q 419 519 350 1059 
z
M 2653 3081 
Q 2653 3566 2395 3850 
Q 2138 4134 1775 4134 
Q 1400 4134 1122 3828 
Q 844 3522 844 3034 
Q 844 2597 1108 2323 
Q 1372 2050 1759 2050 
Q 2150 2050 2401 2323 
Q 2653 2597 2653 3081 
z
" transform="scale(0.015625)"/>
       </defs>
       <use xlink:href="#ArialMT-39"/>
       <use xlink:href="#ArialMT-30" x="55.615234"/>
      </g>
     </g>
    </g>
    <g id="xtick_4">
     <g id="line2d_4">
      <g>
       <use xlink:href="#maff78b38a2" x="92.177855" y="89.405827" style="stroke: #000000; stroke-width: 0.25"/>
      </g>
     </g>
     <g id="text_4">
      <!-- 100 -->
      <g transform="translate(88.007152 97.484733) scale(0.05 -0.05)">
       <defs>
        <path id="ArialMT-31" d="M 2384 0 
L 1822 0 
L 1822 3584 
Q 1619 3391 1289 3197 
Q 959 3003 697 2906 
L 697 3450 
Q 1169 3672 1522 3987 
Q 1875 4303 2022 4600 
L 2384 4600 
L 2384 0 
z
" transform="scale(0.015625)"/>
       </defs>
       <use xlink:href="#ArialMT-31"/>
       <use xlink:href="#ArialMT-30" x="55.615234"/>
       <use xlink:href="#ArialMT-30" x="111.230469"/>
      </g>
     </g>
    </g>
    <g id="xtick_5">
     <g id="line2d_5">
      <g>
       <use xlink:href="#maff78b38a2" x="109.15825" y="89.405827" style="stroke: #000000; stroke-width: 0.25"/>
      </g>
     </g>
     <g id="text_5">
      <!-- 110 -->
      <g transform="translate(105.171922 97.484733) scale(0.05 -0.05)">
       <use xlink:href="#ArialMT-31"/>
       <use xlink:href="#ArialMT-31" x="48.240234"/>
       <use xlink:href="#ArialMT-30" x="103.855469"/>
      </g>
     </g>
    </g>
    <g id="xtick_6">
     <g id="line2d_6">
      <g>
       <use xlink:href="#maff78b38a2" x="126.138645" y="89.405827" style="stroke: #000000; stroke-width: 0.25"/>
      </g>
     </g>
     <g id="text_6">
      <!-- 120 -->
      <g transform="translate(121.967942 97.484733) scale(0.05 -0.05)">
       <defs>
        <path id="ArialMT-32" d="M 3222 541 
L 3222 0 
L 194 0 
Q 188 203 259 391 
Q 375 700 629 1000 
Q 884 1300 1366 1694 
Q 2113 2306 2375 2664 
Q 2638 3022 2638 3341 
Q 2638 3675 2398 3904 
Q 2159 4134 1775 4134 
Q 1369 4134 1125 3890 
Q 881 3647 878 3216 
L 300 3275 
Q 359 3922 746 4261 
Q 1134 4600 1788 4600 
Q 2447 4600 2831 4234 
Q 3216 3869 3216 3328 
Q 3216 3053 3103 2787 
Q 2991 2522 2730 2228 
Q 2469 1934 1863 1422 
Q 1356 997 1212 845 
Q 1069 694 975 541 
L 3222 541 
z
" transform="scale(0.015625)"/>
       </defs>
       <use xlink:href="#ArialMT-31"/>
       <use xlink:href="#ArialMT-32" x="55.615234"/>
       <use xlink:href="#ArialMT-30" x="111.230469"/>
      </g>
     </g>
    </g>
    <g id="xtick_7">
     <g id="line2d_7">
      <g>
       <use xlink:href="#maff78b38a2" x="143.11904" y="89.405827" style="stroke: #000000; stroke-width: 0.25"/>
      </g>
     </g>
     <g id="text_7">
      <!-- 130 -->
      <g transform="translate(138.948337 97.484733) scale(0.05 -0.05)">
       <defs>
        <path id="ArialMT-33" d="M 269 1209 
L 831 1284 
Q 928 806 1161 595 
Q 1394 384 1728 384 
Q 2125 384 2398 659 
Q 2672 934 2672 1341 
Q 2672 1728 2419 1979 
Q 2166 2231 1775 2231 
Q 1616 2231 1378 2169 
L 1441 2663 
Q 1497 2656 1531 2656 
Q 1891 2656 2178 2843 
Q 2466 3031 2466 3422 
Q 2466 3731 2256 3934 
Q 2047 4138 1716 4138 
Q 1388 4138 1169 3931 
Q 950 3725 888 3313 
L 325 3413 
Q 428 3978 793 4289 
Q 1159 4600 1703 4600 
Q 2078 4600 2393 4439 
Q 2709 4278 2876 4000 
Q 3044 3722 3044 3409 
Q 3044 3113 2884 2869 
Q 2725 2625 2413 2481 
Q 2819 2388 3044 2092 
Q 3269 1797 3269 1353 
Q 3269 753 2831 336 
Q 2394 -81 1725 -81 
Q 1122 -81 723 278 
Q 325 638 269 1209 
z
" transform="scale(0.015625)"/>
       </defs>
       <use xlink:href="#ArialMT-31"/>
       <use xlink:href="#ArialMT-33" x="55.615234"/>
       <use xlink:href="#ArialMT-30" x="111.230469"/>
      </g>
     </g>
    </g>
    <g id="text_8">
     <!-- Full-scale IQ [a.u.] -->
     <g transform="translate(63.592912 106.850046) scale(0.06 -0.06)">
      <defs>
       <path id="ArialMT-46" d="M 525 0 
L 525 4581 
L 3616 4581 
L 3616 4041 
L 1131 4041 
L 1131 2622 
L 3281 2622 
L 3281 2081 
L 1131 2081 
L 1131 0 
L 525 0 
z
" transform="scale(0.015625)"/>
       <path id="ArialMT-75" d="M 2597 0 
L 2597 488 
Q 2209 -75 1544 -75 
Q 1250 -75 995 37 
Q 741 150 617 320 
Q 494 491 444 738 
Q 409 903 409 1263 
L 409 3319 
L 972 3319 
L 972 1478 
Q 972 1038 1006 884 
Q 1059 663 1231 536 
Q 1403 409 1656 409 
Q 1909 409 2131 539 
Q 2353 669 2445 892 
Q 2538 1116 2538 1541 
L 2538 3319 
L 3100 3319 
L 3100 0 
L 2597 0 
z
" transform="scale(0.015625)"/>
       <path id="ArialMT-6c" d="M 409 0 
L 409 4581 
L 972 4581 
L 972 0 
L 409 0 
z
" transform="scale(0.015625)"/>
       <path id="ArialMT-2d" d="M 203 1375 
L 203 1941 
L 1931 1941 
L 1931 1375 
L 203 1375 
z
" transform="scale(0.015625)"/>
       <path id="ArialMT-73" d="M 197 991 
L 753 1078 
Q 800 744 1014 566 
Q 1228 388 1613 388 
Q 2000 388 2187 545 
Q 2375 703 2375 916 
Q 2375 1106 2209 1216 
Q 2094 1291 1634 1406 
Q 1016 1563 777 1677 
Q 538 1791 414 1992 
Q 291 2194 291 2438 
Q 291 2659 392 2848 
Q 494 3038 669 3163 
Q 800 3259 1026 3326 
Q 1253 3394 1513 3394 
Q 1903 3394 2198 3281 
Q 2494 3169 2634 2976 
Q 2775 2784 2828 2463 
L 2278 2388 
Q 2241 2644 2061 2787 
Q 1881 2931 1553 2931 
Q 1166 2931 1000 2803 
Q 834 2675 834 2503 
Q 834 2394 903 2306 
Q 972 2216 1119 2156 
Q 1203 2125 1616 2013 
Q 2213 1853 2448 1751 
Q 2684 1650 2818 1456 
Q 2953 1263 2953 975 
Q 2953 694 2789 445 
Q 2625 197 2315 61 
Q 2006 -75 1616 -75 
Q 969 -75 630 194 
Q 291 463 197 991 
z
" transform="scale(0.015625)"/>
       <path id="ArialMT-63" d="M 2588 1216 
L 3141 1144 
Q 3050 572 2676 248 
Q 2303 -75 1759 -75 
Q 1078 -75 664 370 
Q 250 816 250 1647 
Q 250 2184 428 2587 
Q 606 2991 970 3192 
Q 1334 3394 1763 3394 
Q 2303 3394 2647 3120 
Q 2991 2847 3088 2344 
L 2541 2259 
Q 2463 2594 2264 2762 
Q 2066 2931 1784 2931 
Q 1359 2931 1093 2626 
Q 828 2322 828 1663 
Q 828 994 1084 691 
Q 1341 388 1753 388 
Q 2084 388 2306 591 
Q 2528 794 2588 1216 
z
" transform="scale(0.015625)"/>
       <path id="ArialMT-61" d="M 2588 409 
Q 2275 144 1986 34 
Q 1697 -75 1366 -75 
Q 819 -75 525 192 
Q 231 459 231 875 
Q 231 1119 342 1320 
Q 453 1522 633 1644 
Q 813 1766 1038 1828 
Q 1203 1872 1538 1913 
Q 2219 1994 2541 2106 
Q 2544 2222 2544 2253 
Q 2544 2597 2384 2738 
Q 2169 2928 1744 2928 
Q 1347 2928 1158 2789 
Q 969 2650 878 2297 
L 328 2372 
Q 403 2725 575 2942 
Q 747 3159 1072 3276 
Q 1397 3394 1825 3394 
Q 2250 3394 2515 3294 
Q 2781 3194 2906 3042 
Q 3031 2891 3081 2659 
Q 3109 2516 3109 2141 
L 3109 1391 
Q 3109 606 3145 398 
Q 3181 191 3288 0 
L 2700 0 
Q 2613 175 2588 409 
z
M 2541 1666 
Q 2234 1541 1622 1453 
Q 1275 1403 1131 1340 
Q 988 1278 909 1158 
Q 831 1038 831 891 
Q 831 666 1001 516 
Q 1172 366 1500 366 
Q 1825 366 2078 508 
Q 2331 650 2450 897 
Q 2541 1088 2541 1459 
L 2541 1666 
z
" transform="scale(0.015625)"/>
       <path id="ArialMT-65" d="M 2694 1069 
L 3275 997 
Q 3138 488 2766 206 
Q 2394 -75 1816 -75 
Q 1088 -75 661 373 
Q 234 822 234 1631 
Q 234 2469 665 2931 
Q 1097 3394 1784 3394 
Q 2450 3394 2872 2941 
Q 3294 2488 3294 1666 
Q 3294 1616 3291 1516 
L 816 1516 
Q 847 969 1125 678 
Q 1403 388 1819 388 
Q 2128 388 2347 550 
Q 2566 713 2694 1069 
z
M 847 1978 
L 2700 1978 
Q 2663 2397 2488 2606 
Q 2219 2931 1791 2931 
Q 1403 2931 1139 2672 
Q 875 2413 847 1978 
z
" transform="scale(0.015625)"/>
       <path id="ArialMT-20" transform="scale(0.015625)"/>
       <path id="ArialMT-49" d="M 597 0 
L 597 4581 
L 1203 4581 
L 1203 0 
L 597 0 
z
" transform="scale(0.015625)"/>
       <path id="ArialMT-51" d="M 3966 491 
Q 4388 200 4744 66 
L 4566 -356 
Q 4072 -178 3581 206 
Q 3072 -78 2456 -78 
Q 1834 -78 1328 222 
Q 822 522 548 1065 
Q 275 1609 275 2291 
Q 275 2969 550 3525 
Q 825 4081 1333 4372 
Q 1841 4663 2469 4663 
Q 3103 4663 3612 4361 
Q 4122 4059 4389 3517 
Q 4656 2975 4656 2294 
Q 4656 1728 4484 1276 
Q 4313 825 3966 491 
z
M 2631 1266 
Q 3156 1119 3497 828 
Q 4031 1316 4031 2294 
Q 4031 2850 3842 3265 
Q 3653 3681 3289 3911 
Q 2925 4141 2472 4141 
Q 1794 4141 1347 3677 
Q 900 3213 900 2291 
Q 900 1397 1342 919 
Q 1784 441 2472 441 
Q 2797 441 3084 563 
Q 2800 747 2484 825 
L 2631 1266 
z
" transform="scale(0.015625)"/>
       <path id="ArialMT-5b" d="M 434 -1272 
L 434 4581 
L 1675 4581 
L 1675 4116 
L 997 4116 
L 997 -806 
L 1675 -806 
L 1675 -1272 
L 434 -1272 
z
" transform="scale(0.015625)"/>
       <path id="ArialMT-2e" d="M 581 0 
L 581 641 
L 1222 641 
L 1222 0 
L 581 0 
z
" transform="scale(0.015625)"/>
       <path id="ArialMT-5d" d="M 1363 -1272 
L 122 -1272 
L 122 -806 
L 800 -806 
L 800 4116 
L 122 4116 
L 122 4581 
L 1363 4581 
L 1363 -1272 
z
" transform="scale(0.015625)"/>
      </defs>
      <use xlink:href="#ArialMT-46"/>
      <use xlink:href="#ArialMT-75" x="61.083984"/>
      <use xlink:href="#ArialMT-6c" x="116.699219"/>
      <use xlink:href="#ArialMT-6c" x="138.916016"/>
      <use xlink:href="#ArialMT-2d" x="161.132812"/>
      <use xlink:href="#ArialMT-73" x="194.433594"/>
      <use xlink:href="#ArialMT-63" x="244.433594"/>
      <use xlink:href="#ArialMT-61" x="294.433594"/>
      <use xlink:href="#ArialMT-6c" x="350.048828"/>
      <use xlink:href="#ArialMT-65" x="372.265625"/>
      <use xlink:href="#ArialMT-20" x="427.880859"/>
      <use xlink:href="#ArialMT-49" x="455.664062"/>
      <use xlink:href="#ArialMT-51" x="483.447266"/>
      <use xlink:href="#ArialMT-20" x="561.230469"/>
      <use xlink:href="#ArialMT-5b" x="589.013672"/>
      <use xlink:href="#ArialMT-61" x="616.796875"/>
      <use xlink:href="#ArialMT-2e" x="672.412109"/>
      <use xlink:href="#ArialMT-75" x="700.195312"/>
      <use xlink:href="#ArialMT-2e" x="755.810547"/>
      <use xlink:href="#ArialMT-5d" x="783.59375"/>
     </g>
    </g>
   </g>
   <g id="matplotlib.axis_2">
    <g id="ytick_1">
     <g id="line2d_8">
      <defs>
       <path id="m0d43d94d9a" d="M 0 0 
L -3.5 0 
" style="stroke: #000000; stroke-width: 0.25"/>
      </defs>
      <g>
       <use xlink:href="#m0d43d94d9a" x="25.36" y="84.357245" style="stroke: #000000; stroke-width: 0.25"/>
      </g>
     </g>
     <g id="text_9">
      <!-- −2 -->
      <g transform="translate(15.159219 86.146698) scale(0.05 -0.05)">
       <defs>
        <path id="ArialMT-2212" d="M 3381 1997 
L 356 1997 
L 356 2522 
L 3381 2522 
L 3381 1997 
z
" transform="scale(0.015625)"/>
       </defs>
       <use xlink:href="#ArialMT-2212"/>
       <use xlink:href="#ArialMT-32" x="58.398438"/>
      </g>
     </g>
    </g>
    <g id="ytick_2">
     <g id="line2d_9">
      <g>
       <use xlink:href="#m0d43d94d9a" x="25.36" y="66.217689" style="stroke: #000000; stroke-width: 0.25"/>
      </g>
     </g>
     <g id="text_10">
      <!-- −1 -->
      <g transform="translate(15.159219 68.007142) scale(0.05 -0.05)">
       <use xlink:href="#ArialMT-2212"/>
       <use xlink:href="#ArialMT-31" x="58.398438"/>
      </g>
     </g>
    </g>
    <g id="ytick_3">
     <g id="line2d_10">
      <g>
       <use xlink:href="#m0d43d94d9a" x="25.36" y="48.078133" style="stroke: #000000; stroke-width: 0.25"/>
      </g>
     </g>
     <g id="text_11">
      <!-- 0 -->
      <g transform="translate(18.079531 49.867586) scale(0.05 -0.05)">
       <use xlink:href="#ArialMT-30"/>
      </g>
     </g>
    </g>
    <g id="ytick_4">
     <g id="line2d_11">
      <g>
       <use xlink:href="#m0d43d94d9a" x="25.36" y="29.938577" style="stroke: #000000; stroke-width: 0.25"/>
      </g>
     </g>
     <g id="text_12">
      <!-- 1 -->
      <g transform="translate(18.079531 31.72803) scale(0.05 -0.05)">
       <use xlink:href="#ArialMT-31"/>
      </g>
     </g>
    </g>
    <g id="ytick_5">
     <g id="line2d_12">
      <g>
       <use xlink:href="#m0d43d94d9a" x="25.36" y="11.799021" style="stroke: #000000; stroke-width: 0.25"/>
      </g>
     </g>
     <g id="text_13">
      <!-- 2 -->
      <g transform="translate(18.079531 13.588475) scale(0.05 -0.05)">
       <use xlink:href="#ArialMT-32"/>
      </g>
     </g>
    </g>
    <g id="text_14">
     <!-- CTh PC1 [a.u.] -->
     <g transform="translate(9.966719 67.243226) rotate(-90) scale(0.06 -0.06)">
      <defs>
       <path id="ArialMT-43" d="M 3763 1606 
L 4369 1453 
Q 4178 706 3683 314 
Q 3188 -78 2472 -78 
Q 1731 -78 1267 223 
Q 803 525 561 1097 
Q 319 1669 319 2325 
Q 319 3041 592 3573 
Q 866 4106 1370 4382 
Q 1875 4659 2481 4659 
Q 3169 4659 3637 4309 
Q 4106 3959 4291 3325 
L 3694 3184 
Q 3534 3684 3231 3912 
Q 2928 4141 2469 4141 
Q 1941 4141 1586 3887 
Q 1231 3634 1087 3207 
Q 944 2781 944 2328 
Q 944 1744 1114 1308 
Q 1284 872 1643 656 
Q 2003 441 2422 441 
Q 2931 441 3284 734 
Q 3638 1028 3763 1606 
z
" transform="scale(0.015625)"/>
       <path id="ArialMT-54" d="M 1659 0 
L 1659 4041 
L 150 4041 
L 150 4581 
L 3781 4581 
L 3781 4041 
L 2266 4041 
L 2266 0 
L 1659 0 
z
" transform="scale(0.015625)"/>
       <path id="ArialMT-68" d="M 422 0 
L 422 4581 
L 984 4581 
L 984 2938 
Q 1378 3394 1978 3394 
Q 2347 3394 2619 3248 
Q 2891 3103 3008 2847 
Q 3125 2591 3125 2103 
L 3125 0 
L 2563 0 
L 2563 2103 
Q 2563 2525 2380 2717 
Q 2197 2909 1863 2909 
Q 1613 2909 1392 2779 
Q 1172 2650 1078 2428 
Q 984 2206 984 1816 
L 984 0 
L 422 0 
z
" transform="scale(0.015625)"/>
       <path id="ArialMT-50" d="M 494 0 
L 494 4581 
L 2222 4581 
Q 2678 4581 2919 4538 
Q 3256 4481 3484 4323 
Q 3713 4166 3852 3881 
Q 3991 3597 3991 3256 
Q 3991 2672 3619 2267 
Q 3247 1863 2275 1863 
L 1100 1863 
L 1100 0 
L 494 0 
z
M 1100 2403 
L 2284 2403 
Q 2872 2403 3119 2622 
Q 3366 2841 3366 3238 
Q 3366 3525 3220 3729 
Q 3075 3934 2838 4000 
Q 2684 4041 2272 4041 
L 1100 4041 
L 1100 2403 
z
" transform="scale(0.015625)"/>
      </defs>
      <use xlink:href="#ArialMT-43"/>
      <use xlink:href="#ArialMT-54" x="72.216797"/>
      <use xlink:href="#ArialMT-68" x="133.300781"/>
      <use xlink:href="#ArialMT-20" x="188.916016"/>
      <use xlink:href="#ArialMT-50" x="216.699219"/>
      <use xlink:href="#ArialMT-43" x="283.398438"/>
      <use xlink:href="#ArialMT-31" x="355.615234"/>
      <use xlink:href="#ArialMT-20" x="411.230469"/>
      <use xlink:href="#ArialMT-5b" x="439.013672"/>
      <use xlink:href="#ArialMT-61" x="466.796875"/>
      <use xlink:href="#ArialMT-2e" x="522.412109"/>
      <use xlink:href="#ArialMT-75" x="550.195312"/>
      <use xlink:href="#ArialMT-2e" x="605.810547"/>
      <use xlink:href="#ArialMT-5d" x="633.59375"/>
     </g>
    </g>
   </g>
   <g id="line2d_13">
    <path d="M 31.048432 62.392121 
L 32.197611 62.161459 
L 33.346789 61.930796 
L 34.495967 61.700133 
L 35.645145 61.469471 
L 36.794324 61.238808 
L 37.943502 61.008145 
L 39.09268 60.777483 
L 40.241858 60.54682 
L 41.391037 60.316157 
L 42.540215 60.085494 
L 43.689393 59.854832 
L 44.838571 59.624169 
L 45.98775 59.393506 
L 47.136928 59.162844 
L 48.286106 58.932181 
L 49.435284 58.701518 
L 50.584463 58.470856 
L 51.733641 58.240193 
L 52.882819 58.00953 
L 54.031997 57.778868 
L 55.181176 57.548205 
L 56.330354 57.317542 
L 57.479532 57.086879 
L 58.62871 56.856217 
L 59.777889 56.625554 
L 60.927067 56.394891 
L 62.076245 56.164229 
L 63.225423 55.933566 
L 64.374602 55.702903 
L 65.52378 55.472241 
L 66.672958 55.241578 
L 67.822136 55.010915 
L 68.971315 54.780252 
L 70.120493 54.54959 
L 71.269671 54.318927 
L 72.418849 54.088264 
L 73.568028 53.857602 
L 74.717206 53.626939 
L 75.866384 53.396276 
L 77.015562 53.165614 
L 78.164741 52.934951 
L 79.313919 52.704288 
L 80.463097 52.473626 
L 81.612276 52.242963 
L 82.761454 52.0123 
L 83.910632 51.781637 
L 85.05981 51.550975 
L 86.208989 51.320312 
L 87.358167 51.089649 
L 88.507345 50.858987 
L 89.656523 50.628324 
L 90.805702 50.397661 
L 91.95488 50.166999 
L 93.104058 49.936336 
L 94.253236 49.705673 
L 95.402415 49.47501 
L 96.551593 49.244348 
L 97.700771 49.013685 
L 98.849949 48.783022 
L 99.999128 48.55236 
L 101.148306 48.321697 
L 102.297484 48.091034 
L 103.446662 47.860372 
L 104.595841 47.629709 
L 105.745019 47.399046 
L 106.894197 47.168383 
L 108.043375 46.937721 
L 109.192554 46.707058 
L 110.341732 46.476395 
L 111.49091 46.245733 
L 112.640088 46.01507 
L 113.789267 45.784407 
L 114.938445 45.553745 
L 116.087623 45.323082 
L 117.236801 45.092419 
L 118.38598 44.861757 
L 119.535158 44.631094 
L 120.684336 44.400431 
L 121.833514 44.169768 
L 122.982693 43.939106 
L 124.131871 43.708443 
L 125.281049 43.47778 
L 126.430227 43.247118 
L 127.579406 43.016455 
L 128.728584 42.785792 
L 129.877762 42.55513 
L 131.02694 42.324467 
L 132.176119 42.093804 
L 133.325297 41.863141 
L 134.474475 41.632479 
L 135.623653 41.401816 
L 136.772832 41.171153 
L 137.92201 40.940491 
L 139.071188 40.709828 
L 140.220366 40.479165 
L 141.369545 40.248503 
L 142.518723 40.01784 
L 143.667901 39.787177 
L 144.817079 39.556515 
" clip-path="url(#p8f7adf9bbc)" style="fill: none; stroke: #ff8c00; stroke-width: 0.75; stroke-linecap: square"/>
   </g>
   <g id="patch_3">
    <path d="M 25.36 89.405827 
L 25.36 5.4 
" style="fill: none; stroke: #000000; stroke-width: 0.25; stroke-linejoin: miter; stroke-linecap: square"/>
   </g>
   <g id="patch_4">
    <path d="M 25.36 89.405827 
L 150.505512 89.405827 
" style="fill: none; stroke: #000000; stroke-width: 0.25; stroke-linejoin: miter; stroke-linecap: square"/>
   </g>
   <g id="text_15">
    <g id="patch_5">
     <path d="M 29.114365 18.702773 
L 55.114365 18.702773 
Q 56.614365 18.702773 56.614365 17.202773 
L 56.614365 7.136367 
Q 56.614365 5.636367 55.114365 5.636367 
L 29.114365 5.636367 
Q 27.614365 5.636367 27.614365 7.136367 
L 27.614365 17.202773 
Q 27.614365 18.702773 29.114365 18.702773 
z
" style="fill: #c0c0c0; opacity: 0.4; stroke: #c0c0c0; stroke-linejoin: miter"/>
    </g>
    <!-- $r=0.198$ -->
    <g transform="translate(29.114365 10.659023) scale(0.05 -0.05)">
     <defs>
      <path id="DejaVuSans-Oblique-72" d="M 2853 2969 
Q 2766 3016 2653 3041 
Q 2541 3066 2413 3066 
Q 1953 3066 1609 2717 
Q 1266 2369 1153 1784 
L 800 0 
L 225 0 
L 909 3500 
L 1484 3500 
L 1375 2956 
Q 1603 3259 1920 3421 
Q 2238 3584 2597 3584 
Q 2691 3584 2781 3573 
Q 2872 3563 2963 3538 
L 2853 2969 
z
" transform="scale(0.015625)"/>
      <path id="DejaVuSans-3d" d="M 678 2906 
L 4684 2906 
L 4684 2381 
L 678 2381 
L 678 2906 
z
M 678 1631 
L 4684 1631 
L 4684 1100 
L 678 1100 
L 678 1631 
z
" transform="scale(0.015625)"/>
      <path id="DejaVuSans-30" d="M 2034 4250 
Q 1547 4250 1301 3770 
Q 1056 3291 1056 2328 
Q 1056 1369 1301 889 
Q 1547 409 2034 409 
Q 2525 409 2770 889 
Q 3016 1369 3016 2328 
Q 3016 3291 2770 3770 
Q 2525 4250 2034 4250 
z
M 2034 4750 
Q 2819 4750 3233 4129 
Q 3647 3509 3647 2328 
Q 3647 1150 3233 529 
Q 2819 -91 2034 -91 
Q 1250 -91 836 529 
Q 422 1150 422 2328 
Q 422 3509 836 4129 
Q 1250 4750 2034 4750 
z
" transform="scale(0.015625)"/>
      <path id="DejaVuSans-2e" d="M 684 794 
L 1344 794 
L 1344 0 
L 684 0 
L 684 794 
z
" transform="scale(0.015625)"/>
      <path id="DejaVuSans-31" d="M 794 531 
L 1825 531 
L 1825 4091 
L 703 3866 
L 703 4441 
L 1819 4666 
L 2450 4666 
L 2450 531 
L 3481 531 
L 3481 0 
L 794 0 
L 794 531 
z
" transform="scale(0.015625)"/>
      <path id="DejaVuSans-39" d="M 703 97 
L 703 672 
Q 941 559 1184 500 
Q 1428 441 1663 441 
Q 2288 441 2617 861 
Q 2947 1281 2994 2138 
Q 2813 1869 2534 1725 
Q 2256 1581 1919 1581 
Q 1219 1581 811 2004 
Q 403 2428 403 3163 
Q 403 3881 828 4315 
Q 1253 4750 1959 4750 
Q 2769 4750 3195 4129 
Q 3622 3509 3622 2328 
Q 3622 1225 3098 567 
Q 2575 -91 1691 -91 
Q 1453 -91 1209 -44 
Q 966 3 703 97 
z
M 1959 2075 
Q 2384 2075 2632 2365 
Q 2881 2656 2881 3163 
Q 2881 3666 2632 3958 
Q 2384 4250 1959 4250 
Q 1534 4250 1286 3958 
Q 1038 3666 1038 3163 
Q 1038 2656 1286 2365 
Q 1534 2075 1959 2075 
z
" transform="scale(0.015625)"/>
      <path id="DejaVuSans-38" d="M 2034 2216 
Q 1584 2216 1326 1975 
Q 1069 1734 1069 1313 
Q 1069 891 1326 650 
Q 1584 409 2034 409 
Q 2484 409 2743 651 
Q 3003 894 3003 1313 
Q 3003 1734 2745 1975 
Q 2488 2216 2034 2216 
z
M 1403 2484 
Q 997 2584 770 2862 
Q 544 3141 544 3541 
Q 544 4100 942 4425 
Q 1341 4750 2034 4750 
Q 2731 4750 3128 4425 
Q 3525 4100 3525 3541 
Q 3525 3141 3298 2862 
Q 3072 2584 2669 2484 
Q 3125 2378 3379 2068 
Q 3634 1759 3634 1313 
Q 3634 634 3220 271 
Q 2806 -91 2034 -91 
Q 1263 -91 848 271 
Q 434 634 434 1313 
Q 434 1759 690 2068 
Q 947 2378 1403 2484 
z
M 1172 3481 
Q 1172 3119 1398 2916 
Q 1625 2713 2034 2713 
Q 2441 2713 2670 2916 
Q 2900 3119 2900 3481 
Q 2900 3844 2670 4047 
Q 2441 4250 2034 4250 
Q 1625 4250 1398 4047 
Q 1172 3844 1172 3481 
z
" transform="scale(0.015625)"/>
     </defs>
     <use xlink:href="#DejaVuSans-Oblique-72" transform="translate(0 0.78125)"/>
     <use xlink:href="#DejaVuSans-3d" transform="translate(60.595703 0.78125)"/>
     <use xlink:href="#DejaVuSans-30" transform="translate(163.867188 0.78125)"/>
     <use xlink:href="#DejaVuSans-2e" transform="translate(227.490234 0.78125)"/>
     <use xlink:href="#DejaVuSans-31" transform="translate(259.277344 0.78125)"/>
     <use xlink:href="#DejaVuSans-39" transform="translate(322.900391 0.78125)"/>
     <use xlink:href="#DejaVuSans-38" transform="translate(386.523438 0.78125)"/>
    </g>
    <!-- $p_1=0.030$ -->
    <g transform="translate(29.114365 16.152773) scale(0.05 -0.05)">
     <defs>
      <path id="DejaVuSans-Oblique-70" d="M 3175 2156 
Q 3175 2616 2975 2859 
Q 2775 3103 2400 3103 
Q 2144 3103 1911 2972 
Q 1678 2841 1497 2591 
Q 1319 2344 1212 1994 
Q 1106 1644 1106 1300 
Q 1106 863 1306 627 
Q 1506 391 1875 391 
Q 2147 391 2380 519 
Q 2613 647 2778 891 
Q 2956 1147 3065 1494 
Q 3175 1841 3175 2156 
z
M 1394 2969 
Q 1625 3272 1939 3428 
Q 2253 3584 2638 3584 
Q 3175 3584 3472 3232 
Q 3769 2881 3769 2247 
Q 3769 1728 3584 1258 
Q 3400 788 3053 416 
Q 2822 169 2531 39 
Q 2241 -91 1919 -91 
Q 1547 -91 1294 64 
Q 1041 219 916 525 
L 556 -1331 
L -19 -1331 
L 922 3500 
L 1497 3500 
L 1394 2969 
z
" transform="scale(0.015625)"/>
      <path id="DejaVuSans-33" d="M 2597 2516 
Q 3050 2419 3304 2112 
Q 3559 1806 3559 1356 
Q 3559 666 3084 287 
Q 2609 -91 1734 -91 
Q 1441 -91 1130 -33 
Q 819 25 488 141 
L 488 750 
Q 750 597 1062 519 
Q 1375 441 1716 441 
Q 2309 441 2620 675 
Q 2931 909 2931 1356 
Q 2931 1769 2642 2001 
Q 2353 2234 1838 2234 
L 1294 2234 
L 1294 2753 
L 1863 2753 
Q 2328 2753 2575 2939 
Q 2822 3125 2822 3475 
Q 2822 3834 2567 4026 
Q 2313 4219 1838 4219 
Q 1578 4219 1281 4162 
Q 984 4106 628 3988 
L 628 4550 
Q 988 4650 1302 4700 
Q 1616 4750 1894 4750 
Q 2613 4750 3031 4423 
Q 3450 4097 3450 3541 
Q 3450 3153 3228 2886 
Q 3006 2619 2597 2516 
z
" transform="scale(0.015625)"/>
     </defs>
     <use xlink:href="#DejaVuSans-Oblique-70" transform="translate(0 0.78125)"/>
     <use xlink:href="#DejaVuSans-31" transform="translate(63.476562 -15.625) scale(0.7)"/>
     <use xlink:href="#DejaVuSans-3d" transform="translate(130.229492 0.78125)"/>
     <use xlink:href="#DejaVuSans-30" transform="translate(233.500977 0.78125)"/>
     <use xlink:href="#DejaVuSans-2e" transform="translate(297.124023 0.78125)"/>
     <use xlink:href="#DejaVuSans-30" transform="translate(328.911133 0.78125)"/>
     <use xlink:href="#DejaVuSans-33" transform="translate(392.53418 0.78125)"/>
     <use xlink:href="#DejaVuSans-30" transform="translate(456.157227 0.78125)"/>
    </g>
   </g>
  </g>
 </g>
 <defs>
  <clipPath id="p8f7adf9bbc">
   <rect x="25.36" y="5.4" width="125.145512" height="84.005827"/>
  </clipPath>
 </defs>
</svg>
