<?xml version="1.0" encoding="utf-8" standalone="no"?>
<!DOCTYPE svg PUBLIC "-//W3C//DTD SVG 1.1//EN"
  "http://www.w3.org/Graphics/SVG/1.1/DTD/svg11.dtd">
<svg xmlns:xlink="http://www.w3.org/1999/xlink" width="245.322187pt" height="255.719844pt" viewBox="0 0 245.322187 255.719844" xmlns="http://www.w3.org/2000/svg" version="1.1">
 <metadata>
  <rdf:RDF xmlns:dc="http://purl.org/dc/elements/1.1/" xmlns:cc="http://creativecommons.org/ns#" xmlns:rdf="http://www.w3.org/1999/02/22-rdf-syntax-ns#">
   <cc:Work>
    <dc:type rdf:resource="http://purl.org/dc/dcmitype/StillImage"/>
    <dc:date>2025-02-26T14:51:32.212621</dc:date>
    <dc:format>image/svg+xml</dc:format>
    <dc:creator>
     <cc:Agent>
      <dc:title>Matplotlib v3.9.2, https://matplotlib.org/</dc:title>
     </cc:Agent>
    </dc:creator>
   </cc:Work>
  </rdf:RDF>
 </metadata>
 <defs>
  <style type="text/css">*{stroke-linejoin: round; stroke-linecap: butt}</style>
 </defs>
 <g id="figure_1">
  <g id="patch_1">
   <path d="M -0 255.719844 
L 245.322188 255.719844 
L 245.322188 0 
L -0 0 
z
" style="fill: #ffffff"/>
  </g>
  <g id="axes_1">
   <g id="patch_2">
    <path d="M 70.722188 228.96 
L 238.122188 228.96 
L 238.122188 7.2 
L 70.722188 7.2 
z
" style="fill: #ffffff"/>
   </g>
   <g id="matplotlib.axis_1">
    <g id="xtick_1">
     <g id="text_1">
      <!-- Term -->
      <g style="fill: #262626" transform="translate(99.930866 246.333594) scale(0.11 -0.11)">
       <defs>
        <path id="ArialMT-54" d="M 1659 0 
L 1659 4041 
L 150 4041 
L 150 4581 
L 3781 4581 
L 3781 4041 
L 2266 4041 
L 2266 0 
L 1659 0 
z
" transform="scale(0.015625)"/>
        <path id="ArialMT-65" d="M 2694 1069 
L 3275 997 
Q 3138 488 2766 206 
Q 2394 -75 1816 -75 
Q 1088 -75 661 373 
Q 234 822 234 1631 
Q 234 2469 665 2931 
Q 1097 3394 1784 3394 
Q 2450 3394 2872 2941 
Q 3294 2488 3294 1666 
Q 3294 1616 3291 1516 
L 816 1516 
Q 847 969 1125 678 
Q 1403 388 1819 388 
Q 2128 388 2347 550 
Q 2566 713 2694 1069 
z
M 847 1978 
L 2700 1978 
Q 2663 2397 2488 2606 
Q 2219 2931 1791 2931 
Q 1403 2931 1139 2672 
Q 875 2413 847 1978 
z
" transform="scale(0.015625)"/>
        <path id="ArialMT-72" d="M 416 0 
L 416 3319 
L 922 3319 
L 922 2816 
Q 1116 3169 1280 3281 
Q 1444 3394 1641 3394 
Q 1925 3394 2219 3213 
L 2025 2691 
Q 1819 2813 1613 2813 
Q 1428 2813 1281 2702 
Q 1134 2591 1072 2394 
Q 978 2094 978 1738 
L 978 0 
L 416 0 
z
" transform="scale(0.015625)"/>
        <path id="ArialMT-6d" d="M 422 0 
L 422 3319 
L 925 3319 
L 925 2853 
Q 1081 3097 1340 3245 
Q 1600 3394 1931 3394 
Q 2300 3394 2536 3241 
Q 2772 3088 2869 2813 
Q 3263 3394 3894 3394 
Q 4388 3394 4653 3120 
Q 4919 2847 4919 2278 
L 4919 0 
L 4359 0 
L 4359 2091 
Q 4359 2428 4304 2576 
Q 4250 2725 4106 2815 
Q 3963 2906 3769 2906 
Q 3419 2906 3187 2673 
Q 2956 2441 2956 1928 
L 2956 0 
L 2394 0 
L 2394 2156 
Q 2394 2531 2256 2718 
Q 2119 2906 1806 2906 
Q 1569 2906 1367 2781 
Q 1166 2656 1075 2415 
Q 984 2175 984 1722 
L 984 0 
L 422 0 
z
" transform="scale(0.015625)"/>
       </defs>
       <use xlink:href="#ArialMT-54"/>
       <use xlink:href="#ArialMT-65" x="49.958984"/>
       <use xlink:href="#ArialMT-72" x="105.574219"/>
       <use xlink:href="#ArialMT-6d" x="138.875"/>
      </g>
     </g>
    </g>
    <g id="xtick_2">
     <g id="text_2">
      <!-- Preterm -->
      <g style="fill: #262626" transform="translate(177.137259 246.333594) scale(0.11 -0.11)">
       <defs>
        <path id="ArialMT-50" d="M 494 0 
L 494 4581 
L 2222 4581 
Q 2678 4581 2919 4538 
Q 3256 4481 3484 4323 
Q 3713 4166 3852 3881 
Q 3991 3597 3991 3256 
Q 3991 2672 3619 2267 
Q 3247 1863 2275 1863 
L 1100 1863 
L 1100 0 
L 494 0 
z
M 1100 2403 
L 2284 2403 
Q 2872 2403 3119 2622 
Q 3366 2841 3366 3238 
Q 3366 3525 3220 3729 
Q 3075 3934 2838 4000 
Q 2684 4041 2272 4041 
L 1100 4041 
L 1100 2403 
z
" transform="scale(0.015625)"/>
        <path id="ArialMT-74" d="M 1650 503 
L 1731 6 
Q 1494 -44 1306 -44 
Q 1000 -44 831 53 
Q 663 150 594 308 
Q 525 466 525 972 
L 525 2881 
L 113 2881 
L 113 3319 
L 525 3319 
L 525 4141 
L 1084 4478 
L 1084 3319 
L 1650 3319 
L 1650 2881 
L 1084 2881 
L 1084 941 
Q 1084 700 1114 631 
Q 1144 563 1211 522 
Q 1278 481 1403 481 
Q 1497 481 1650 503 
z
" transform="scale(0.015625)"/>
       </defs>
       <use xlink:href="#ArialMT-50"/>
       <use xlink:href="#ArialMT-72" x="66.699219"/>
       <use xlink:href="#ArialMT-65" x="100"/>
       <use xlink:href="#ArialMT-74" x="155.615234"/>
       <use xlink:href="#ArialMT-65" x="183.398438"/>
       <use xlink:href="#ArialMT-72" x="239.013672"/>
       <use xlink:href="#ArialMT-6d" x="272.314453"/>
      </g>
     </g>
    </g>
   </g>
   <g id="matplotlib.axis_2">
    <g id="ytick_1">
     <g id="text_3">
      <!-- 500000 -->
      <g style="fill: #262626" transform="translate(24.52 196.792144) scale(0.11 -0.11)">
       <defs>
        <path id="ArialMT-35" d="M 266 1200 
L 856 1250 
Q 922 819 1161 601 
Q 1400 384 1738 384 
Q 2144 384 2425 690 
Q 2706 997 2706 1503 
Q 2706 1984 2436 2262 
Q 2166 2541 1728 2541 
Q 1456 2541 1237 2417 
Q 1019 2294 894 2097 
L 366 2166 
L 809 4519 
L 3088 4519 
L 3088 3981 
L 1259 3981 
L 1013 2750 
Q 1425 3038 1878 3038 
Q 2478 3038 2890 2622 
Q 3303 2206 3303 1553 
Q 3303 931 2941 478 
Q 2500 -78 1738 -78 
Q 1113 -78 717 272 
Q 322 622 266 1200 
z
" transform="scale(0.015625)"/>
        <path id="ArialMT-30" d="M 266 2259 
Q 266 3072 433 3567 
Q 600 4063 929 4331 
Q 1259 4600 1759 4600 
Q 2128 4600 2406 4451 
Q 2684 4303 2865 4023 
Q 3047 3744 3150 3342 
Q 3253 2941 3253 2259 
Q 3253 1453 3087 958 
Q 2922 463 2592 192 
Q 2263 -78 1759 -78 
Q 1097 -78 719 397 
Q 266 969 266 2259 
z
M 844 2259 
Q 844 1131 1108 757 
Q 1372 384 1759 384 
Q 2147 384 2411 759 
Q 2675 1134 2675 2259 
Q 2675 3391 2411 3762 
Q 2147 4134 1753 4134 
Q 1366 4134 1134 3806 
Q 844 3388 844 2259 
z
" transform="scale(0.015625)"/>
       </defs>
       <use xlink:href="#ArialMT-35"/>
       <use xlink:href="#ArialMT-30" x="55.615234"/>
       <use xlink:href="#ArialMT-30" x="111.230469"/>
       <use xlink:href="#ArialMT-30" x="166.845703"/>
       <use xlink:href="#ArialMT-30" x="222.460938"/>
       <use xlink:href="#ArialMT-30" x="278.076172"/>
      </g>
     </g>
    </g>
    <g id="ytick_2">
     <g id="text_4">
      <!-- 600000 -->
      <g style="fill: #262626" transform="translate(24.52 151.459929) scale(0.11 -0.11)">
       <defs>
        <path id="ArialMT-36" d="M 3184 3459 
L 2625 3416 
Q 2550 3747 2413 3897 
Q 2184 4138 1850 4138 
Q 1581 4138 1378 3988 
Q 1113 3794 959 3422 
Q 806 3050 800 2363 
Q 1003 2672 1297 2822 
Q 1591 2972 1913 2972 
Q 2475 2972 2870 2558 
Q 3266 2144 3266 1488 
Q 3266 1056 3080 686 
Q 2894 316 2569 119 
Q 2244 -78 1831 -78 
Q 1128 -78 684 439 
Q 241 956 241 2144 
Q 241 3472 731 4075 
Q 1159 4600 1884 4600 
Q 2425 4600 2770 4297 
Q 3116 3994 3184 3459 
z
M 888 1484 
Q 888 1194 1011 928 
Q 1134 663 1356 523 
Q 1578 384 1822 384 
Q 2178 384 2434 671 
Q 2691 959 2691 1453 
Q 2691 1928 2437 2201 
Q 2184 2475 1800 2475 
Q 1419 2475 1153 2201 
Q 888 1928 888 1484 
z
" transform="scale(0.015625)"/>
       </defs>
       <use xlink:href="#ArialMT-36"/>
       <use xlink:href="#ArialMT-30" x="55.615234"/>
       <use xlink:href="#ArialMT-30" x="111.230469"/>
       <use xlink:href="#ArialMT-30" x="166.845703"/>
       <use xlink:href="#ArialMT-30" x="222.460938"/>
       <use xlink:href="#ArialMT-30" x="278.076172"/>
      </g>
     </g>
    </g>
    <g id="ytick_3">
     <g id="text_5">
      <!-- 700000 -->
      <g style="fill: #262626" transform="translate(24.52 106.127714) scale(0.11 -0.11)">
       <defs>
        <path id="ArialMT-37" d="M 303 3981 
L 303 4522 
L 3269 4522 
L 3269 4084 
Q 2831 3619 2401 2847 
Q 1972 2075 1738 1259 
Q 1569 684 1522 0 
L 944 0 
Q 953 541 1156 1306 
Q 1359 2072 1739 2783 
Q 2119 3494 2547 3981 
L 303 3981 
z
" transform="scale(0.015625)"/>
       </defs>
       <use xlink:href="#ArialMT-37"/>
       <use xlink:href="#ArialMT-30" x="55.615234"/>
       <use xlink:href="#ArialMT-30" x="111.230469"/>
       <use xlink:href="#ArialMT-30" x="166.845703"/>
       <use xlink:href="#ArialMT-30" x="222.460938"/>
       <use xlink:href="#ArialMT-30" x="278.076172"/>
      </g>
     </g>
    </g>
    <g id="ytick_4">
     <g id="text_6">
      <!-- 800000 -->
      <g style="fill: #262626" transform="translate(24.52 60.795499) scale(0.11 -0.11)">
       <defs>
        <path id="ArialMT-38" d="M 1131 2484 
Q 781 2613 612 2850 
Q 444 3088 444 3419 
Q 444 3919 803 4259 
Q 1163 4600 1759 4600 
Q 2359 4600 2725 4251 
Q 3091 3903 3091 3403 
Q 3091 3084 2923 2848 
Q 2756 2613 2416 2484 
Q 2838 2347 3058 2040 
Q 3278 1734 3278 1309 
Q 3278 722 2862 322 
Q 2447 -78 1769 -78 
Q 1091 -78 675 323 
Q 259 725 259 1325 
Q 259 1772 486 2073 
Q 713 2375 1131 2484 
z
M 1019 3438 
Q 1019 3113 1228 2906 
Q 1438 2700 1772 2700 
Q 2097 2700 2305 2904 
Q 2513 3109 2513 3406 
Q 2513 3716 2298 3927 
Q 2084 4138 1766 4138 
Q 1444 4138 1231 3931 
Q 1019 3725 1019 3438 
z
M 838 1322 
Q 838 1081 952 856 
Q 1066 631 1291 507 
Q 1516 384 1775 384 
Q 2178 384 2440 643 
Q 2703 903 2703 1303 
Q 2703 1709 2433 1975 
Q 2163 2241 1756 2241 
Q 1359 2241 1098 1978 
Q 838 1716 838 1322 
z
" transform="scale(0.015625)"/>
       </defs>
       <use xlink:href="#ArialMT-38"/>
       <use xlink:href="#ArialMT-30" x="55.615234"/>
       <use xlink:href="#ArialMT-30" x="111.230469"/>
       <use xlink:href="#ArialMT-30" x="166.845703"/>
       <use xlink:href="#ArialMT-30" x="222.460938"/>
       <use xlink:href="#ArialMT-30" x="278.076172"/>
      </g>
     </g>
    </g>
    <g id="ytick_5">
     <g id="text_7">
      <!-- 900000 -->
      <g style="fill: #262626" transform="translate(24.52 15.463284) scale(0.11 -0.11)">
       <defs>
        <path id="ArialMT-39" d="M 350 1059 
L 891 1109 
Q 959 728 1153 556 
Q 1347 384 1650 384 
Q 1909 384 2104 503 
Q 2300 622 2425 820 
Q 2550 1019 2634 1356 
Q 2719 1694 2719 2044 
Q 2719 2081 2716 2156 
Q 2547 1888 2255 1720 
Q 1963 1553 1622 1553 
Q 1053 1553 659 1965 
Q 266 2378 266 3053 
Q 266 3750 677 4175 
Q 1088 4600 1706 4600 
Q 2153 4600 2523 4359 
Q 2894 4119 3086 3673 
Q 3278 3228 3278 2384 
Q 3278 1506 3087 986 
Q 2897 466 2520 194 
Q 2144 -78 1638 -78 
Q 1100 -78 759 220 
Q 419 519 350 1059 
z
M 2653 3081 
Q 2653 3566 2395 3850 
Q 2138 4134 1775 4134 
Q 1400 4134 1122 3828 
Q 844 3522 844 3034 
Q 844 2597 1108 2323 
Q 1372 2050 1759 2050 
Q 2150 2050 2401 2323 
Q 2653 2597 2653 3081 
z
" transform="scale(0.015625)"/>
       </defs>
       <use xlink:href="#ArialMT-39"/>
       <use xlink:href="#ArialMT-30" x="55.615234"/>
       <use xlink:href="#ArialMT-30" x="111.230469"/>
       <use xlink:href="#ArialMT-30" x="166.845703"/>
       <use xlink:href="#ArialMT-30" x="222.460938"/>
       <use xlink:href="#ArialMT-30" x="278.076172"/>
      </g>
     </g>
    </g>
    <g id="text_8">
     <!-- GMV [mm$^3$] -->
     <g style="fill: #262626" transform="translate(18.12 149.64) rotate(-90) scale(0.12 -0.12)">
      <defs>
       <path id="ArialMT-47" d="M 2638 1797 
L 2638 2334 
L 4578 2338 
L 4578 638 
Q 4131 281 3656 101 
Q 3181 -78 2681 -78 
Q 2006 -78 1454 211 
Q 903 500 622 1047 
Q 341 1594 341 2269 
Q 341 2938 620 3517 
Q 900 4097 1425 4378 
Q 1950 4659 2634 4659 
Q 3131 4659 3532 4498 
Q 3934 4338 4162 4050 
Q 4391 3763 4509 3300 
L 3963 3150 
Q 3859 3500 3706 3700 
Q 3553 3900 3268 4020 
Q 2984 4141 2638 4141 
Q 2222 4141 1919 4014 
Q 1616 3888 1430 3681 
Q 1244 3475 1141 3228 
Q 966 2803 966 2306 
Q 966 1694 1177 1281 
Q 1388 869 1791 669 
Q 2194 469 2647 469 
Q 3041 469 3416 620 
Q 3791 772 3984 944 
L 3984 1797 
L 2638 1797 
z
" transform="scale(0.015625)"/>
       <path id="ArialMT-4d" d="M 475 0 
L 475 4581 
L 1388 4581 
L 2472 1338 
Q 2622 884 2691 659 
Q 2769 909 2934 1394 
L 4031 4581 
L 4847 4581 
L 4847 0 
L 4263 0 
L 4263 3834 
L 2931 0 
L 2384 0 
L 1059 3900 
L 1059 0 
L 475 0 
z
" transform="scale(0.015625)"/>
       <path id="ArialMT-56" d="M 1803 0 
L 28 4581 
L 684 4581 
L 1875 1253 
Q 2019 853 2116 503 
Q 2222 878 2363 1253 
L 3600 4581 
L 4219 4581 
L 2425 0 
L 1803 0 
z
" transform="scale(0.015625)"/>
       <path id="ArialMT-20" transform="scale(0.015625)"/>
       <path id="ArialMT-5b" d="M 434 -1272 
L 434 4581 
L 1675 4581 
L 1675 4116 
L 997 4116 
L 997 -806 
L 1675 -806 
L 1675 -1272 
L 434 -1272 
z
" transform="scale(0.015625)"/>
       <path id="DejaVuSans-33" d="M 2597 2516 
Q 3050 2419 3304 2112 
Q 3559 1806 3559 1356 
Q 3559 666 3084 287 
Q 2609 -91 1734 -91 
Q 1441 -91 1130 -33 
Q 819 25 488 141 
L 488 750 
Q 750 597 1062 519 
Q 1375 441 1716 441 
Q 2309 441 2620 675 
Q 2931 909 2931 1356 
Q 2931 1769 2642 2001 
Q 2353 2234 1838 2234 
L 1294 2234 
L 1294 2753 
L 1863 2753 
Q 2328 2753 2575 2939 
Q 2822 3125 2822 3475 
Q 2822 3834 2567 4026 
Q 2313 4219 1838 4219 
Q 1578 4219 1281 4162 
Q 984 4106 628 3988 
L 628 4550 
Q 988 4650 1302 4700 
Q 1616 4750 1894 4750 
Q 2613 4750 3031 4423 
Q 3450 4097 3450 3541 
Q 3450 3153 3228 2886 
Q 3006 2619 2597 2516 
z
" transform="scale(0.015625)"/>
       <path id="ArialMT-5d" d="M 1363 -1272 
L 122 -1272 
L 122 -806 
L 800 -806 
L 800 4116 
L 122 4116 
L 122 4581 
L 1363 4581 
L 1363 -1272 
z
" transform="scale(0.015625)"/>
      </defs>
      <use xlink:href="#ArialMT-47" transform="translate(0 0.765625)"/>
      <use xlink:href="#ArialMT-4d" transform="translate(77.783203 0.765625)"/>
      <use xlink:href="#ArialMT-56" transform="translate(161.083984 0.765625)"/>
      <use xlink:href="#ArialMT-20" transform="translate(227.783203 0.765625)"/>
      <use xlink:href="#ArialMT-5b" transform="translate(255.566406 0.765625)"/>
      <use xlink:href="#ArialMT-6d" transform="translate(283.349609 0.765625)"/>
      <use xlink:href="#ArialMT-6d" transform="translate(366.650391 0.765625)"/>
      <use xlink:href="#DejaVuSans-33" transform="translate(450.908203 39.046875) scale(0.7)"/>
      <use xlink:href="#ArialMT-5d" transform="translate(498.178711 0.765625)"/>
     </g>
    </g>
   </g>
   <g id="PolyCollection_1">
    <defs>
     <path id="md4b755f1b0" d="M 112.47256 -76.095224 
L 111.826361 -76.095224 
L 111.681596 -77.735069 
L 111.488053 -79.374913 
L 111.236315 -81.014758 
L 110.917748 -82.654603 
L 110.525485 -84.294447 
L 110.055438 -85.934292 
L 109.507177 -87.574137 
L 108.884512 -89.213981 
L 108.195628 -90.853826 
L 107.452679 -92.49367 
L 106.670839 -94.133515 
L 105.866877 -95.77336 
L 105.057445 -97.413204 
L 104.257303 -99.053049 
L 103.477719 -100.692894 
L 102.725283 -102.332738 
L 102.001264 -103.972583 
L 101.301596 -105.612428 
L 100.617451 -107.252272 
L 99.936318 -108.892117 
L 99.243432 -110.531962 
L 98.523387 -112.171806 
L 97.761775 -113.811651 
L 96.946682 -115.451495 
L 96.069914 -117.09134 
L 95.127828 -118.731185 
L 94.121689 -120.371029 
L 93.057521 -122.010874 
L 91.945457 -123.650719 
L 90.798682 -125.290563 
L 89.632116 -126.930408 
L 88.461029 -128.570253 
L 87.299827 -130.210097 
L 86.161211 -131.849942 
L 85.055879 -133.489787 
L 83.99285 -135.129631 
L 82.980368 -136.769476 
L 82.02721 -138.40932 
L 81.14414 -140.049165 
L 80.345135 -141.68901 
L 79.648036 -143.328854 
L 79.074332 -144.968699 
L 78.647939 -146.608544 
L 78.39304 -148.248388 
L 78.331278 -149.888233 
L 78.47879 -151.528078 
L 78.843615 -153.167922 
L 79.424041 -154.807767 
L 80.208225 -156.447612 
L 81.175199 -158.087456 
L 82.297075 -159.727301 
L 83.541998 -161.367145 
L 84.877295 -163.00699 
L 86.272232 -164.646835 
L 87.699974 -166.286679 
L 89.138557 -167.926524 
L 90.570913 -169.566369 
L 91.984201 -171.206213 
L 93.368783 -172.846058 
L 94.717169 -174.485903 
L 96.023168 -176.125747 
L 97.281345 -177.765592 
L 98.486776 -179.405437 
L 99.635002 -181.045281 
L 100.722081 -182.685126 
L 101.744636 -184.324971 
L 102.699878 -185.964815 
L 103.58557 -187.60466 
L 104.40001 -189.244504 
L 105.142037 -190.884349 
L 105.811124 -192.524194 
L 106.407545 -194.164038 
L 106.932629 -195.803883 
L 107.38902 -197.443728 
L 107.780917 -199.083572 
L 108.114193 -200.723417 
L 108.396353 -202.363262 
L 108.636274 -204.003106 
L 108.843742 -205.642951 
L 109.028813 -207.282796 
L 109.201103 -208.92264 
L 109.369073 -210.562485 
L 109.539441 -212.202329 
L 109.716785 -213.842174 
L 109.90338 -215.482019 
L 110.099281 -217.121863 
L 110.302611 -218.761708 
L 110.510006 -220.401553 
L 110.717144 -222.041397 
L 110.919298 -223.681242 
L 111.111852 -225.321087 
L 111.290732 -226.960931 
L 111.452732 -228.600776 
L 111.595707 -230.240621 
L 111.71864 -231.880465 
L 111.821586 -233.52031 
L 111.905525 -235.160154 
L 111.972145 -236.799999 
L 112.023601 -238.439844 
L 112.27532 -238.439844 
L 112.27532 -238.439844 
L 112.326775 -236.799999 
L 112.393396 -235.160154 
L 112.477334 -233.52031 
L 112.580281 -231.880465 
L 112.703213 -230.240621 
L 112.846189 -228.600776 
L 113.008189 -226.960931 
L 113.187069 -225.321087 
L 113.379623 -223.681242 
L 113.581777 -222.041397 
L 113.788915 -220.401553 
L 113.996309 -218.761708 
L 114.199639 -217.121863 
L 114.39554 -215.482019 
L 114.582136 -213.842174 
L 114.75948 -212.202329 
L 114.929848 -210.562485 
L 115.097817 -208.92264 
L 115.270107 -207.282796 
L 115.455179 -205.642951 
L 115.662646 -204.003106 
L 115.902568 -202.363262 
L 116.184728 -200.723417 
L 116.518004 -199.083572 
L 116.9099 -197.443728 
L 117.366291 -195.803883 
L 117.891375 -194.164038 
L 118.487797 -192.524194 
L 119.156883 -190.884349 
L 119.89891 -189.244504 
L 120.71335 -187.60466 
L 121.599043 -185.964815 
L 122.554284 -184.324971 
L 123.57684 -182.685126 
L 124.663918 -181.045281 
L 125.812144 -179.405437 
L 127.017575 -177.765592 
L 128.275753 -176.125747 
L 129.581752 -174.485903 
L 130.930138 -172.846058 
L 132.314719 -171.206213 
L 133.728007 -169.566369 
L 135.160363 -167.926524 
L 136.598947 -166.286679 
L 138.026689 -164.646835 
L 139.421625 -163.00699 
L 140.756922 -161.367145 
L 142.001846 -159.727301 
L 143.123721 -158.087456 
L 144.090695 -156.447612 
L 144.874879 -154.807767 
L 145.455305 -153.167922 
L 145.820131 -151.528078 
L 145.967642 -149.888233 
L 145.905881 -148.248388 
L 145.650981 -146.608544 
L 145.224588 -144.968699 
L 144.650884 -143.328854 
L 143.953785 -141.68901 
L 143.15478 -140.049165 
L 142.27171 -138.40932 
L 141.318552 -136.769476 
L 140.30607 -135.129631 
L 139.243042 -133.489787 
L 138.137709 -131.849942 
L 136.999093 -130.210097 
L 135.837891 -128.570253 
L 134.666805 -126.930408 
L 133.500238 -125.290563 
L 132.353463 -123.650719 
L 131.241399 -122.010874 
L 130.177231 -120.371029 
L 129.171092 -118.731185 
L 128.229006 -117.09134 
L 127.352238 -115.451495 
L 126.537146 -113.811651 
L 125.775533 -112.171806 
L 125.055488 -110.531962 
L 124.362602 -108.892117 
L 123.68147 -107.252272 
L 122.997325 -105.612428 
L 122.297656 -103.972583 
L 121.573637 -102.332738 
L 120.821201 -100.692894 
L 120.041618 -99.053049 
L 119.241475 -97.413204 
L 118.432044 -95.77336 
L 117.628081 -94.133515 
L 116.846241 -92.49367 
L 116.103293 -90.853826 
L 115.414408 -89.213981 
L 114.791743 -87.574137 
L 114.243482 -85.934292 
L 113.773435 -84.294447 
L 113.381172 -82.654603 
L 113.062605 -81.014758 
L 112.810868 -79.374913 
L 112.617325 -77.735069 
L 112.47256 -76.095224 
z
" style="stroke: #4c4c4c; stroke-width: 0.5"/>
    </defs>
    <g clip-path="url(#pe439b860a5)">
     <use xlink:href="#md4b755f1b0" x="0" y="255.719844" style="fill: #5573cd; stroke: #4c4c4c; stroke-width: 0.5"/>
    </g>
   </g>
   <g id="PolyCollection_2">
    <defs>
     <path id="me65d488737" d="M 196.991271 -36.839844 
L 196.398559 -36.839844 
L 196.280584 -38.706106 
L 196.127378 -40.572369 
L 195.9331 -42.438632 
L 195.692547 -44.304894 
L 195.401722 -46.171157 
L 195.058379 -48.03742 
L 194.662483 -49.903682 
L 194.216446 -51.769945 
L 193.725087 -53.636207 
L 193.195223 -55.50247 
L 192.634902 -57.368733 
L 192.052304 -59.234995 
L 191.45445 -61.101258 
L 190.845863 -62.967521 
L 190.227407 -64.833783 
L 189.595502 -66.700046 
L 188.941901 -68.566309 
L 188.254114 -70.432571 
L 187.516517 -72.298834 
L 186.712037 -74.165096 
L 185.824231 -76.031359 
L 184.839506 -77.897622 
L 183.749198 -79.763884 
L 182.551217 -81.630147 
L 181.251047 -83.49641 
L 179.861951 -85.362672 
L 178.404355 -87.228935 
L 176.904454 -89.095198 
L 175.392238 -90.96146 
L 173.899126 -92.827723 
L 172.455524 -94.693985 
L 171.088547 -96.560248 
L 169.820171 -98.426511 
L 168.666001 -100.292773 
L 167.63476 -102.159036 
L 166.728514 -104.025299 
L 165.943572 -105.891561 
L 165.271908 -107.757824 
L 164.702892 -109.624086 
L 164.225108 -111.490349 
L 163.828026 -113.356612 
L 163.503352 -115.222874 
L 163.245907 -117.089137 
L 163.054017 -118.9554 
L 162.929411 -120.821662 
L 162.876733 -122.687925 
L 162.902792 -124.554188 
L 163.015686 -126.42045 
L 163.223922 -128.286713 
L 163.535614 -130.152975 
L 163.957784 -132.019238 
L 164.495769 -133.885501 
L 165.152683 -135.751763 
L 165.928894 -137.618026 
L 166.821505 -139.484289 
L 167.823835 -141.350551 
L 168.924987 -143.216814 
L 170.109594 -145.083077 
L 171.357864 -146.949339 
L 172.646057 -148.815602 
L 173.947453 -150.681864 
L 175.233813 -152.548127 
L 176.477258 -154.41439 
L 177.652373 -156.280652 
L 178.738304 -158.146915 
L 179.72056 -160.013178 
L 180.59227 -161.87944 
L 181.354687 -163.745703 
L 182.016846 -165.611965 
L 182.594407 -167.478228 
L 183.107829 -169.344491 
L 183.58012 -171.210753 
L 184.034459 -173.077016 
L 184.492001 -174.943279 
L 184.970109 -176.809541 
L 185.481186 -178.675804 
L 186.032193 -180.542067 
L 186.624789 -182.408329 
L 187.255995 -184.274592 
L 187.919202 -186.140854 
L 188.605322 -188.007117 
L 189.303924 -189.87338 
L 190.004204 -191.739642 
L 190.695733 -193.605905 
L 191.368953 -195.472168 
L 192.015454 -197.33843 
L 192.628091 -199.204693 
L 193.201012 -201.070956 
L 193.729637 -202.937218 
L 194.210652 -204.803481 
L 194.642 -206.669743 
L 195.022891 -208.536006 
L 195.35378 -210.402269 
L 195.636317 -212.268531 
L 195.873232 -214.134794 
L 196.068158 -216.001057 
L 196.225404 -217.867319 
L 196.349694 -219.733582 
L 196.445896 -221.599845 
L 196.943934 -221.599845 
L 196.943934 -221.599845 
L 197.040136 -219.733582 
L 197.164426 -217.867319 
L 197.321672 -216.001057 
L 197.516598 -214.134794 
L 197.753513 -212.268531 
L 198.03605 -210.402269 
L 198.366939 -208.536006 
L 198.747829 -206.669743 
L 199.179178 -204.803481 
L 199.660192 -202.937218 
L 200.188818 -201.070956 
L 200.761738 -199.204693 
L 201.374376 -197.33843 
L 202.020876 -195.472168 
L 202.694096 -193.605905 
L 203.385626 -191.739642 
L 204.085906 -189.87338 
L 204.784508 -188.007117 
L 205.470628 -186.140854 
L 206.133835 -184.274592 
L 206.765041 -182.408329 
L 207.357636 -180.542067 
L 207.908643 -178.675804 
L 208.419721 -176.809541 
L 208.897828 -174.943279 
L 209.355371 -173.077016 
L 209.80971 -171.210753 
L 210.282 -169.344491 
L 210.795422 -167.478228 
L 211.372984 -165.611965 
L 212.035142 -163.745703 
L 212.797559 -161.87944 
L 213.66927 -160.013178 
L 214.651526 -158.146915 
L 215.737456 -156.280652 
L 216.912571 -154.41439 
L 218.156017 -152.548127 
L 219.442377 -150.681864 
L 220.743772 -148.815602 
L 222.031966 -146.949339 
L 223.280236 -145.083077 
L 224.464842 -143.216814 
L 225.565995 -141.350551 
L 226.568325 -139.484289 
L 227.460935 -137.618026 
L 228.237147 -135.751763 
L 228.89406 -133.885501 
L 229.432046 -132.019238 
L 229.854216 -130.152975 
L 230.165908 -128.286713 
L 230.374144 -126.42045 
L 230.487038 -124.554188 
L 230.513097 -122.687925 
L 230.460419 -120.821662 
L 230.335813 -118.9554 
L 230.143923 -117.089137 
L 229.886478 -115.222874 
L 229.561803 -113.356612 
L 229.164722 -111.490349 
L 228.686937 -109.624086 
L 228.117921 -107.757824 
L 227.446258 -105.891561 
L 226.661316 -104.025299 
L 225.755069 -102.159036 
L 224.723828 -100.292773 
L 223.569659 -98.426511 
L 222.301283 -96.560248 
L 220.934305 -94.693985 
L 219.490703 -92.827723 
L 217.997592 -90.96146 
L 216.485375 -89.095198 
L 214.985475 -87.228935 
L 213.527878 -85.362672 
L 212.138783 -83.49641 
L 210.838612 -81.630147 
L 209.640632 -79.763884 
L 208.550324 -77.897622 
L 207.565599 -76.031359 
L 206.677792 -74.165096 
L 205.873312 -72.298834 
L 205.135716 -70.432571 
L 204.447929 -68.566309 
L 203.794328 -66.700046 
L 203.162423 -64.833783 
L 202.543966 -62.967521 
L 201.935379 -61.101258 
L 201.337525 -59.234995 
L 200.754928 -57.368733 
L 200.194606 -55.50247 
L 199.664742 -53.636207 
L 199.173383 -51.769945 
L 198.727347 -49.903682 
L 198.33145 -48.03742 
L 197.988108 -46.171157 
L 197.697282 -44.304894 
L 197.45673 -42.438632 
L 197.262452 -40.572369 
L 197.109246 -38.706106 
L 196.991271 -36.839844 
z
" style="stroke: #4c4c4c; stroke-width: 0.5"/>
    </defs>
    <g clip-path="url(#pe439b860a5)">
     <use xlink:href="#me65d488737" x="0" y="255.719844" style="fill: #df8920; stroke: #4c4c4c; stroke-width: 0.5"/>
    </g>
   </g>
   <g id="line2d_1">
    <path d="M 112.14946 159.896953 
L 112.14946 46.210497 
" clip-path="url(#pe439b860a5)" style="fill: none; stroke: #4c4c4c; stroke-width: 0.75; stroke-linecap: round"/>
   </g>
   <g id="line2d_2">
    <path d="M 112.14946 124.498655 
L 112.14946 93.168551 
" clip-path="url(#pe439b860a5)" style="fill: none; stroke: #4c4c4c; stroke-width: 2.25; stroke-linecap: round"/>
   </g>
   <g id="line2d_3">
    <path d="M 112.14946 107.336401 
" clip-path="url(#pe439b860a5)" style="fill: none; stroke: #4c4c4c; stroke-width: 1.5; stroke-linecap: round"/>
    <defs>
     <path id="m96c60914be" d="M 0.9375 0 
L -0.9375 -0 
" style="stroke: #ffffff; stroke-width: 0.45"/>
    </defs>
    <g clip-path="url(#pe439b860a5)">
     <use xlink:href="#m96c60914be" x="112.14946" y="107.336401" style="fill: #ffffff; stroke: #ffffff; stroke-width: 0.45"/>
    </g>
   </g>
   <g id="line2d_4">
    <path d="M 196.694915 194.225973 
L 196.694915 58.774026 
" clip-path="url(#pe439b860a5)" style="fill: none; stroke: #4c4c4c; stroke-width: 0.75; stroke-linecap: round"/>
   </g>
   <g id="line2d_5">
    <path d="M 196.694915 152.697177 
L 196.694915 109.857777 
" clip-path="url(#pe439b860a5)" style="fill: none; stroke: #4c4c4c; stroke-width: 2.25; stroke-linecap: round"/>
   </g>
   <g id="line2d_6">
    <path d="M 196.694915 130.664037 
" clip-path="url(#pe439b860a5)" style="fill: none; stroke: #4c4c4c; stroke-width: 1.5; stroke-linecap: round"/>
    <g clip-path="url(#pe439b860a5)">
     <use xlink:href="#m96c60914be" x="196.694915" y="130.664037" style="fill: #ffffff; stroke: #ffffff; stroke-width: 0.45"/>
    </g>
   </g>
   <g id="line2d_7">
    <path d="M 112.14946 32.904897 
L 112.14946 28.469697 
L 196.694915 28.469697 
L 196.694915 32.904897 
" style="fill: none; stroke: #333333; stroke-width: 0.5; stroke-linecap: round"/>
   </g>
   <g id="patch_3">
    <path d="M 70.722188 228.96 
L 70.722188 7.2 
" style="fill: none; stroke: #262626; stroke-width: 1.25; stroke-linejoin: miter; stroke-linecap: square"/>
   </g>
   <g id="patch_4">
    <path d="M 70.722187 228.96 
L 238.122188 228.96 
" style="fill: none; stroke: #262626; stroke-width: 1.25; stroke-linejoin: miter; stroke-linecap: square"/>
   </g>
   <g id="text_9">
    <!-- **** -->
    <g style="fill: #262626" transform="translate(145.080938 25.084697) scale(0.12 -0.12)">
     <defs>
      <path id="ArialMT-2a" d="M 200 3741 
L 344 4184 
Q 841 4009 1066 3881 
Q 1006 4447 1003 4659 
L 1456 4659 
Q 1447 4350 1384 3884 
Q 1706 4047 2122 4184 
L 2266 3741 
Q 1869 3609 1488 3566 
Q 1678 3400 2025 2975 
L 1650 2709 
Q 1469 2956 1222 3381 
Q 991 2941 816 2709 
L 447 2975 
Q 809 3422 966 3566 
Q 563 3644 200 3741 
z
" transform="scale(0.015625)"/>
     </defs>
     <use xlink:href="#ArialMT-2a"/>
     <use xlink:href="#ArialMT-2a" x="38.916016"/>
     <use xlink:href="#ArialMT-2a" x="77.832031"/>
     <use xlink:href="#ArialMT-2a" x="116.748047"/>
    </g>
   </g>
  </g>
 </g>
 <defs>
  <clipPath id="pe439b860a5">
   <rect x="70.722188" y="7.2" width="167.4" height="221.76"/>
  </clipPath>
 </defs>
</svg>
