<?xml version="1.0" encoding="utf-8" standalone="no"?>
<!DOCTYPE svg PUBLIC "-//W3C//DTD SVG 1.1//EN"
  "http://www.w3.org/Graphics/SVG/1.1/DTD/svg11.dtd">
<svg xmlns:xlink="http://www.w3.org/1999/xlink" width="245.629844pt" height="255.719844pt" viewBox="0 0 245.629844 255.719844" xmlns="http://www.w3.org/2000/svg" version="1.1">
 <metadata>
  <rdf:RDF xmlns:dc="http://purl.org/dc/elements/1.1/" xmlns:cc="http://creativecommons.org/ns#" xmlns:rdf="http://www.w3.org/1999/02/22-rdf-syntax-ns#">
   <cc:Work>
    <dc:type rdf:resource="http://purl.org/dc/dcmitype/StillImage"/>
    <dc:date>2025-07-21T12:20:04.762898</dc:date>
    <dc:format>image/svg+xml</dc:format>
    <dc:creator>
     <cc:Agent>
      <dc:title>Matplotlib v3.9.2, https://matplotlib.org/</dc:title>
     </cc:Agent>
    </dc:creator>
   </cc:Work>
  </rdf:RDF>
 </metadata>
 <defs>
  <style type="text/css">*{stroke-linejoin: round; stroke-linecap: butt}</style>
 </defs>
 <g id="figure_1">
  <g id="patch_1">
   <path d="M 0 255.719844 
L 245.629844 255.719844 
L 245.629844 0 
L 0 0 
z
" style="fill: #ffffff"/>
  </g>
  <g id="axes_1">
   <g id="patch_2">
    <path d="M 71.029844 228.96 
L 238.429844 228.96 
L 238.429844 7.2 
L 71.029844 7.2 
z
" style="fill: #ffffff"/>
   </g>
   <g id="matplotlib.axis_1">
    <g id="xtick_1">
     <g id="text_1">
      <!-- Term -->
      <g style="fill: #262626" transform="translate(100.238523 246.333594) scale(0.11 -0.11)">
       <defs>
        <path id="ArialMT-54" d="M 1659 0 
L 1659 4041 
L 150 4041 
L 150 4581 
L 3781 4581 
L 3781 4041 
L 2266 4041 
L 2266 0 
L 1659 0 
z
" transform="scale(0.015625)"/>
        <path id="ArialMT-65" d="M 2694 1069 
L 3275 997 
Q 3138 488 2766 206 
Q 2394 -75 1816 -75 
Q 1088 -75 661 373 
Q 234 822 234 1631 
Q 234 2469 665 2931 
Q 1097 3394 1784 3394 
Q 2450 3394 2872 2941 
Q 3294 2488 3294 1666 
Q 3294 1616 3291 1516 
L 816 1516 
Q 847 969 1125 678 
Q 1403 388 1819 388 
Q 2128 388 2347 550 
Q 2566 713 2694 1069 
z
M 847 1978 
L 2700 1978 
Q 2663 2397 2488 2606 
Q 2219 2931 1791 2931 
Q 1403 2931 1139 2672 
Q 875 2413 847 1978 
z
" transform="scale(0.015625)"/>
        <path id="ArialMT-72" d="M 416 0 
L 416 3319 
L 922 3319 
L 922 2816 
Q 1116 3169 1280 3281 
Q 1444 3394 1641 3394 
Q 1925 3394 2219 3213 
L 2025 2691 
Q 1819 2813 1613 2813 
Q 1428 2813 1281 2702 
Q 1134 2591 1072 2394 
Q 978 2094 978 1738 
L 978 0 
L 416 0 
z
" transform="scale(0.015625)"/>
        <path id="ArialMT-6d" d="M 422 0 
L 422 3319 
L 925 3319 
L 925 2853 
Q 1081 3097 1340 3245 
Q 1600 3394 1931 3394 
Q 2300 3394 2536 3241 
Q 2772 3088 2869 2813 
Q 3263 3394 3894 3394 
Q 4388 3394 4653 3120 
Q 4919 2847 4919 2278 
L 4919 0 
L 4359 0 
L 4359 2091 
Q 4359 2428 4304 2576 
Q 4250 2725 4106 2815 
Q 3963 2906 3769 2906 
Q 3419 2906 3187 2673 
Q 2956 2441 2956 1928 
L 2956 0 
L 2394 0 
L 2394 2156 
Q 2394 2531 2256 2718 
Q 2119 2906 1806 2906 
Q 1569 2906 1367 2781 
Q 1166 2656 1075 2415 
Q 984 2175 984 1722 
L 984 0 
L 422 0 
z
" transform="scale(0.015625)"/>
       </defs>
       <use xlink:href="#ArialMT-54"/>
       <use xlink:href="#ArialMT-65" x="49.958984"/>
       <use xlink:href="#ArialMT-72" x="105.574219"/>
       <use xlink:href="#ArialMT-6d" x="138.875"/>
      </g>
     </g>
    </g>
    <g id="xtick_2">
     <g id="text_2">
      <!-- Preterm -->
      <g style="fill: #262626" transform="translate(177.444915 246.333594) scale(0.11 -0.11)">
       <defs>
        <path id="ArialMT-50" d="M 494 0 
L 494 4581 
L 2222 4581 
Q 2678 4581 2919 4538 
Q 3256 4481 3484 4323 
Q 3713 4166 3852 3881 
Q 3991 3597 3991 3256 
Q 3991 2672 3619 2267 
Q 3247 1863 2275 1863 
L 1100 1863 
L 1100 0 
L 494 0 
z
M 1100 2403 
L 2284 2403 
Q 2872 2403 3119 2622 
Q 3366 2841 3366 3238 
Q 3366 3525 3220 3729 
Q 3075 3934 2838 4000 
Q 2684 4041 2272 4041 
L 1100 4041 
L 1100 2403 
z
" transform="scale(0.015625)"/>
        <path id="ArialMT-74" d="M 1650 503 
L 1731 6 
Q 1494 -44 1306 -44 
Q 1000 -44 831 53 
Q 663 150 594 308 
Q 525 466 525 972 
L 525 2881 
L 113 2881 
L 113 3319 
L 525 3319 
L 525 4141 
L 1084 4478 
L 1084 3319 
L 1650 3319 
L 1650 2881 
L 1084 2881 
L 1084 941 
Q 1084 700 1114 631 
Q 1144 563 1211 522 
Q 1278 481 1403 481 
Q 1497 481 1650 503 
z
" transform="scale(0.015625)"/>
       </defs>
       <use xlink:href="#ArialMT-50"/>
       <use xlink:href="#ArialMT-72" x="66.699219"/>
       <use xlink:href="#ArialMT-65" x="100"/>
       <use xlink:href="#ArialMT-74" x="155.615234"/>
       <use xlink:href="#ArialMT-65" x="183.398438"/>
       <use xlink:href="#ArialMT-72" x="239.013672"/>
       <use xlink:href="#ArialMT-6d" x="272.314453"/>
      </g>
     </g>
    </g>
   </g>
   <g id="matplotlib.axis_2">
    <g id="ytick_1">
     <g id="text_3">
      <!-- −20000 -->
      <g style="fill: #262626" transform="translate(24.52 223.436758) scale(0.11 -0.11)">
       <defs>
        <path id="ArialMT-2212" d="M 3381 1997 
L 356 1997 
L 356 2522 
L 3381 2522 
L 3381 1997 
z
" transform="scale(0.015625)"/>
        <path id="ArialMT-32" d="M 3222 541 
L 3222 0 
L 194 0 
Q 188 203 259 391 
Q 375 700 629 1000 
Q 884 1300 1366 1694 
Q 2113 2306 2375 2664 
Q 2638 3022 2638 3341 
Q 2638 3675 2398 3904 
Q 2159 4134 1775 4134 
Q 1369 4134 1125 3890 
Q 881 3647 878 3216 
L 300 3275 
Q 359 3922 746 4261 
Q 1134 4600 1788 4600 
Q 2447 4600 2831 4234 
Q 3216 3869 3216 3328 
Q 3216 3053 3103 2787 
Q 2991 2522 2730 2228 
Q 2469 1934 1863 1422 
Q 1356 997 1212 845 
Q 1069 694 975 541 
L 3222 541 
z
" transform="scale(0.015625)"/>
        <path id="ArialMT-30" d="M 266 2259 
Q 266 3072 433 3567 
Q 600 4063 929 4331 
Q 1259 4600 1759 4600 
Q 2128 4600 2406 4451 
Q 2684 4303 2865 4023 
Q 3047 3744 3150 3342 
Q 3253 2941 3253 2259 
Q 3253 1453 3087 958 
Q 2922 463 2592 192 
Q 2263 -78 1759 -78 
Q 1097 -78 719 397 
Q 266 969 266 2259 
z
M 844 2259 
Q 844 1131 1108 757 
Q 1372 384 1759 384 
Q 2147 384 2411 759 
Q 2675 1134 2675 2259 
Q 2675 3391 2411 3762 
Q 2147 4134 1753 4134 
Q 1366 4134 1134 3806 
Q 844 3388 844 2259 
z
" transform="scale(0.015625)"/>
       </defs>
       <use xlink:href="#ArialMT-2212"/>
       <use xlink:href="#ArialMT-32" x="58.398438"/>
       <use xlink:href="#ArialMT-30" x="114.013672"/>
       <use xlink:href="#ArialMT-30" x="169.628906"/>
       <use xlink:href="#ArialMT-30" x="225.244141"/>
       <use xlink:href="#ArialMT-30" x="280.859375"/>
      </g>
     </g>
    </g>
    <g id="ytick_2">
     <g id="text_4">
      <!-- −10000 -->
      <g style="fill: #262626" transform="translate(24.52 175.858657) scale(0.11 -0.11)">
       <defs>
        <path id="ArialMT-31" d="M 2384 0 
L 1822 0 
L 1822 3584 
Q 1619 3391 1289 3197 
Q 959 3003 697 2906 
L 697 3450 
Q 1169 3672 1522 3987 
Q 1875 4303 2022 4600 
L 2384 4600 
L 2384 0 
z
" transform="scale(0.015625)"/>
       </defs>
       <use xlink:href="#ArialMT-2212"/>
       <use xlink:href="#ArialMT-31" x="58.398438"/>
       <use xlink:href="#ArialMT-30" x="114.013672"/>
       <use xlink:href="#ArialMT-30" x="169.628906"/>
       <use xlink:href="#ArialMT-30" x="225.244141"/>
       <use xlink:href="#ArialMT-30" x="280.859375"/>
      </g>
     </g>
    </g>
    <g id="ytick_3">
     <g id="text_5">
      <!-- 0 -->
      <g style="fill: #262626" transform="translate(55.412813 128.280556) scale(0.11 -0.11)">
       <use xlink:href="#ArialMT-30"/>
      </g>
     </g>
    </g>
    <g id="ytick_4">
     <g id="text_6">
      <!-- 10000 -->
      <g style="fill: #262626" transform="translate(30.944687 80.702455) scale(0.11 -0.11)">
       <use xlink:href="#ArialMT-31"/>
       <use xlink:href="#ArialMT-30" x="55.615234"/>
       <use xlink:href="#ArialMT-30" x="111.230469"/>
       <use xlink:href="#ArialMT-30" x="166.845703"/>
       <use xlink:href="#ArialMT-30" x="222.460938"/>
      </g>
     </g>
    </g>
    <g id="ytick_5">
     <g id="text_7">
      <!-- 20000 -->
      <g style="fill: #262626" transform="translate(30.944687 33.124354) scale(0.11 -0.11)">
       <use xlink:href="#ArialMT-32"/>
       <use xlink:href="#ArialMT-30" x="55.615234"/>
       <use xlink:href="#ArialMT-30" x="111.230469"/>
       <use xlink:href="#ArialMT-30" x="166.845703"/>
       <use xlink:href="#ArialMT-30" x="222.460938"/>
      </g>
     </g>
    </g>
    <g id="text_8">
     <!-- sGMV residuals [mm$^3$] -->
     <g style="fill: #262626" transform="translate(18.12 178.32) rotate(-90) scale(0.12 -0.12)">
      <defs>
       <path id="ArialMT-73" d="M 197 991 
L 753 1078 
Q 800 744 1014 566 
Q 1228 388 1613 388 
Q 2000 388 2187 545 
Q 2375 703 2375 916 
Q 2375 1106 2209 1216 
Q 2094 1291 1634 1406 
Q 1016 1563 777 1677 
Q 538 1791 414 1992 
Q 291 2194 291 2438 
Q 291 2659 392 2848 
Q 494 3038 669 3163 
Q 800 3259 1026 3326 
Q 1253 3394 1513 3394 
Q 1903 3394 2198 3281 
Q 2494 3169 2634 2976 
Q 2775 2784 2828 2463 
L 2278 2388 
Q 2241 2644 2061 2787 
Q 1881 2931 1553 2931 
Q 1166 2931 1000 2803 
Q 834 2675 834 2503 
Q 834 2394 903 2306 
Q 972 2216 1119 2156 
Q 1203 2125 1616 2013 
Q 2213 1853 2448 1751 
Q 2684 1650 2818 1456 
Q 2953 1263 2953 975 
Q 2953 694 2789 445 
Q 2625 197 2315 61 
Q 2006 -75 1616 -75 
Q 969 -75 630 194 
Q 291 463 197 991 
z
" transform="scale(0.015625)"/>
       <path id="ArialMT-47" d="M 2638 1797 
L 2638 2334 
L 4578 2338 
L 4578 638 
Q 4131 281 3656 101 
Q 3181 -78 2681 -78 
Q 2006 -78 1454 211 
Q 903 500 622 1047 
Q 341 1594 341 2269 
Q 341 2938 620 3517 
Q 900 4097 1425 4378 
Q 1950 4659 2634 4659 
Q 3131 4659 3532 4498 
Q 3934 4338 4162 4050 
Q 4391 3763 4509 3300 
L 3963 3150 
Q 3859 3500 3706 3700 
Q 3553 3900 3268 4020 
Q 2984 4141 2638 4141 
Q 2222 4141 1919 4014 
Q 1616 3888 1430 3681 
Q 1244 3475 1141 3228 
Q 966 2803 966 2306 
Q 966 1694 1177 1281 
Q 1388 869 1791 669 
Q 2194 469 2647 469 
Q 3041 469 3416 620 
Q 3791 772 3984 944 
L 3984 1797 
L 2638 1797 
z
" transform="scale(0.015625)"/>
       <path id="ArialMT-4d" d="M 475 0 
L 475 4581 
L 1388 4581 
L 2472 1338 
Q 2622 884 2691 659 
Q 2769 909 2934 1394 
L 4031 4581 
L 4847 4581 
L 4847 0 
L 4263 0 
L 4263 3834 
L 2931 0 
L 2384 0 
L 1059 3900 
L 1059 0 
L 475 0 
z
" transform="scale(0.015625)"/>
       <path id="ArialMT-56" d="M 1803 0 
L 28 4581 
L 684 4581 
L 1875 1253 
Q 2019 853 2116 503 
Q 2222 878 2363 1253 
L 3600 4581 
L 4219 4581 
L 2425 0 
L 1803 0 
z
" transform="scale(0.015625)"/>
       <path id="ArialMT-20" transform="scale(0.015625)"/>
       <path id="ArialMT-69" d="M 425 3934 
L 425 4581 
L 988 4581 
L 988 3934 
L 425 3934 
z
M 425 0 
L 425 3319 
L 988 3319 
L 988 0 
L 425 0 
z
" transform="scale(0.015625)"/>
       <path id="ArialMT-64" d="M 2575 0 
L 2575 419 
Q 2259 -75 1647 -75 
Q 1250 -75 917 144 
Q 584 363 401 755 
Q 219 1147 219 1656 
Q 219 2153 384 2558 
Q 550 2963 881 3178 
Q 1213 3394 1622 3394 
Q 1922 3394 2156 3267 
Q 2391 3141 2538 2938 
L 2538 4581 
L 3097 4581 
L 3097 0 
L 2575 0 
z
M 797 1656 
Q 797 1019 1065 703 
Q 1334 388 1700 388 
Q 2069 388 2326 689 
Q 2584 991 2584 1609 
Q 2584 2291 2321 2609 
Q 2059 2928 1675 2928 
Q 1300 2928 1048 2622 
Q 797 2316 797 1656 
z
" transform="scale(0.015625)"/>
       <path id="ArialMT-75" d="M 2597 0 
L 2597 488 
Q 2209 -75 1544 -75 
Q 1250 -75 995 37 
Q 741 150 617 320 
Q 494 491 444 738 
Q 409 903 409 1263 
L 409 3319 
L 972 3319 
L 972 1478 
Q 972 1038 1006 884 
Q 1059 663 1231 536 
Q 1403 409 1656 409 
Q 1909 409 2131 539 
Q 2353 669 2445 892 
Q 2538 1116 2538 1541 
L 2538 3319 
L 3100 3319 
L 3100 0 
L 2597 0 
z
" transform="scale(0.015625)"/>
       <path id="ArialMT-61" d="M 2588 409 
Q 2275 144 1986 34 
Q 1697 -75 1366 -75 
Q 819 -75 525 192 
Q 231 459 231 875 
Q 231 1119 342 1320 
Q 453 1522 633 1644 
Q 813 1766 1038 1828 
Q 1203 1872 1538 1913 
Q 2219 1994 2541 2106 
Q 2544 2222 2544 2253 
Q 2544 2597 2384 2738 
Q 2169 2928 1744 2928 
Q 1347 2928 1158 2789 
Q 969 2650 878 2297 
L 328 2372 
Q 403 2725 575 2942 
Q 747 3159 1072 3276 
Q 1397 3394 1825 3394 
Q 2250 3394 2515 3294 
Q 2781 3194 2906 3042 
Q 3031 2891 3081 2659 
Q 3109 2516 3109 2141 
L 3109 1391 
Q 3109 606 3145 398 
Q 3181 191 3288 0 
L 2700 0 
Q 2613 175 2588 409 
z
M 2541 1666 
Q 2234 1541 1622 1453 
Q 1275 1403 1131 1340 
Q 988 1278 909 1158 
Q 831 1038 831 891 
Q 831 666 1001 516 
Q 1172 366 1500 366 
Q 1825 366 2078 508 
Q 2331 650 2450 897 
Q 2541 1088 2541 1459 
L 2541 1666 
z
" transform="scale(0.015625)"/>
       <path id="ArialMT-6c" d="M 409 0 
L 409 4581 
L 972 4581 
L 972 0 
L 409 0 
z
" transform="scale(0.015625)"/>
       <path id="ArialMT-5b" d="M 434 -1272 
L 434 4581 
L 1675 4581 
L 1675 4116 
L 997 4116 
L 997 -806 
L 1675 -806 
L 1675 -1272 
L 434 -1272 
z
" transform="scale(0.015625)"/>
       <path id="DejaVuSans-33" d="M 2597 2516 
Q 3050 2419 3304 2112 
Q 3559 1806 3559 1356 
Q 3559 666 3084 287 
Q 2609 -91 1734 -91 
Q 1441 -91 1130 -33 
Q 819 25 488 141 
L 488 750 
Q 750 597 1062 519 
Q 1375 441 1716 441 
Q 2309 441 2620 675 
Q 2931 909 2931 1356 
Q 2931 1769 2642 2001 
Q 2353 2234 1838 2234 
L 1294 2234 
L 1294 2753 
L 1863 2753 
Q 2328 2753 2575 2939 
Q 2822 3125 2822 3475 
Q 2822 3834 2567 4026 
Q 2313 4219 1838 4219 
Q 1578 4219 1281 4162 
Q 984 4106 628 3988 
L 628 4550 
Q 988 4650 1302 4700 
Q 1616 4750 1894 4750 
Q 2613 4750 3031 4423 
Q 3450 4097 3450 3541 
Q 3450 3153 3228 2886 
Q 3006 2619 2597 2516 
z
" transform="scale(0.015625)"/>
       <path id="ArialMT-5d" d="M 1363 -1272 
L 122 -1272 
L 122 -806 
L 800 -806 
L 800 4116 
L 122 4116 
L 122 4581 
L 1363 4581 
L 1363 -1272 
z
" transform="scale(0.015625)"/>
      </defs>
      <use xlink:href="#ArialMT-73" transform="translate(0 0.765625)"/>
      <use xlink:href="#ArialMT-47" transform="translate(50 0.765625)"/>
      <use xlink:href="#ArialMT-4d" transform="translate(127.783203 0.765625)"/>
      <use xlink:href="#ArialMT-56" transform="translate(211.083984 0.765625)"/>
      <use xlink:href="#ArialMT-20" transform="translate(277.783203 0.765625)"/>
      <use xlink:href="#ArialMT-72" transform="translate(305.566406 0.765625)"/>
      <use xlink:href="#ArialMT-65" transform="translate(338.867188 0.765625)"/>
      <use xlink:href="#ArialMT-73" transform="translate(394.482422 0.765625)"/>
      <use xlink:href="#ArialMT-69" transform="translate(444.482422 0.765625)"/>
      <use xlink:href="#ArialMT-64" transform="translate(466.699219 0.765625)"/>
      <use xlink:href="#ArialMT-75" transform="translate(522.314453 0.765625)"/>
      <use xlink:href="#ArialMT-61" transform="translate(577.929688 0.765625)"/>
      <use xlink:href="#ArialMT-6c" transform="translate(633.544922 0.765625)"/>
      <use xlink:href="#ArialMT-73" transform="translate(655.761719 0.765625)"/>
      <use xlink:href="#ArialMT-20" transform="translate(705.761719 0.765625)"/>
      <use xlink:href="#ArialMT-5b" transform="translate(733.544922 0.765625)"/>
      <use xlink:href="#ArialMT-6d" transform="translate(761.328125 0.765625)"/>
      <use xlink:href="#ArialMT-6d" transform="translate(844.628906 0.765625)"/>
      <use xlink:href="#DejaVuSans-33" transform="translate(928.886719 39.046875) scale(0.7)"/>
      <use xlink:href="#ArialMT-5d" transform="translate(976.157227 0.765625)"/>
     </g>
    </g>
   </g>
   <g id="PolyCollection_1">
    <defs>
     <path id="m096a48e66a" d="M 112.584413 -68.556184 
L 112.32982 -68.556184 
L 112.275495 -70.094824 
L 112.204019 -71.633465 
L 112.112231 -73.172106 
L 111.996988 -74.710747 
L 111.85525 -76.249388 
L 111.684149 -77.788028 
L 111.481035 -79.326669 
L 111.243541 -80.86531 
L 110.969704 -82.403951 
L 110.658192 -83.942591 
L 110.308624 -85.481232 
L 109.921969 -87.019873 
L 109.500905 -88.558514 
L 109.050023 -90.097155 
L 108.575714 -91.635795 
L 108.085642 -93.174436 
L 107.587796 -94.713077 
L 107.089221 -96.251718 
L 106.594648 -97.790359 
L 106.105332 -99.328999 
L 105.618359 -100.86764 
L 105.126656 -102.406281 
L 104.619722 -103.944922 
L 104.084974 -105.483563 
L 103.5094 -107.022203 
L 102.881148 -108.560844 
L 102.190693 -110.099485 
L 101.431324 -111.638126 
L 100.598877 -113.176766 
L 99.690874 -114.715407 
L 98.705385 -116.254048 
L 97.64005 -117.792689 
L 96.491676 -119.33133 
L 95.256733 -120.86997 
L 93.932811 -122.408611 
L 92.52088 -123.947252 
L 91.02792 -125.485893 
L 89.469338 -127.024534 
L 87.870535 -128.563174 
L 86.267107 -130.101815 
L 84.703392 -131.640456 
L 83.229398 -133.179097 
L 81.896458 -134.717737 
L 80.752223 -136.256378 
L 79.835755 -137.795019 
L 79.173419 -139.33366 
L 78.776224 -140.872301 
L 78.638935 -142.410941 
L 78.741078 -143.949582 
L 79.049656 -145.488223 
L 79.523146 -147.026864 
L 80.116243 -148.565505 
L 80.784686 -150.104145 
L 81.489561 -151.642786 
L 82.200574 -153.181427 
L 82.897987 -154.720068 
L 83.573147 -156.258709 
L 84.227725 -157.797349 
L 84.872004 -159.33599 
L 85.522547 -160.874631 
L 86.199618 -162.413272 
L 86.924576 -163.951912 
L 87.717392 -165.490553 
L 88.594375 -167.029194 
L 89.566182 -168.567835 
L 90.636278 -170.106476 
L 91.800058 -171.645116 
L 93.044863 -173.183757 
L 94.351042 -174.722398 
L 95.694007 -176.261039 
L 97.04701 -177.79968 
L 98.384158 -179.33832 
L 99.683074 -180.876961 
L 100.926696 -182.415602 
L 102.103905 -183.954243 
L 103.20898 -185.492883 
L 104.240178 -187.031524 
L 105.197938 -188.570165 
L 106.083241 -190.108806 
L 106.896552 -191.647447 
L 107.637542 -193.186087 
L 108.305505 -194.724728 
L 108.900215 -196.263369 
L 109.422836 -197.80201 
L 109.876551 -199.340651 
L 110.266701 -200.879291 
L 110.6004 -202.417932 
L 110.885756 -203.956573 
L 111.130924 -205.495214 
L 111.343247 -207.033855 
L 111.528659 -208.572495 
L 111.691457 -210.111136 
L 111.834412 -211.649777 
L 111.959135 -213.188418 
L 112.066552 -214.727058 
L 112.157365 -216.265699 
L 112.2324 -217.80434 
L 112.292796 -219.342981 
L 112.340047 -220.881622 
L 112.574186 -220.881622 
L 112.574186 -220.881622 
L 112.621436 -219.342981 
L 112.681833 -217.80434 
L 112.756868 -216.265699 
L 112.847681 -214.727058 
L 112.955098 -213.188418 
L 113.079821 -211.649777 
L 113.222776 -210.111136 
L 113.385574 -208.572495 
L 113.570986 -207.033855 
L 113.783309 -205.495214 
L 114.028477 -203.956573 
L 114.313833 -202.417932 
L 114.647532 -200.879291 
L 115.037682 -199.340651 
L 115.491397 -197.80201 
L 116.014017 -196.263369 
L 116.608728 -194.724728 
L 117.276691 -193.186087 
L 118.017681 -191.647447 
L 118.830992 -190.108806 
L 119.716295 -188.570165 
L 120.674055 -187.031524 
L 121.705253 -185.492883 
L 122.810328 -183.954243 
L 123.987537 -182.415602 
L 125.231159 -180.876961 
L 126.530074 -179.33832 
L 127.867223 -177.79968 
L 129.220226 -176.261039 
L 130.563191 -174.722398 
L 131.86937 -173.183757 
L 133.114175 -171.645116 
L 134.277955 -170.106476 
L 135.348051 -168.567835 
L 136.319858 -167.029194 
L 137.196841 -165.490553 
L 137.989657 -163.951912 
L 138.714615 -162.413272 
L 139.391686 -160.874631 
L 140.042229 -159.33599 
L 140.686507 -157.797349 
L 141.341086 -156.258709 
L 142.016246 -154.720068 
L 142.713659 -153.181427 
L 143.424671 -151.642786 
L 144.129546 -150.104145 
L 144.79799 -148.565505 
L 145.391087 -147.026864 
L 145.864577 -145.488223 
L 146.173155 -143.949582 
L 146.275298 -142.410941 
L 146.138009 -140.872301 
L 145.740813 -139.33366 
L 145.078478 -137.795019 
L 144.162009 -136.256378 
L 143.017775 -134.717737 
L 141.684834 -133.179097 
L 140.210841 -131.640456 
L 138.647126 -130.101815 
L 137.043698 -128.563174 
L 135.444895 -127.024534 
L 133.886313 -125.485893 
L 132.393353 -123.947252 
L 130.981422 -122.408611 
L 129.6575 -120.86997 
L 128.422557 -119.33133 
L 127.274183 -117.792689 
L 126.208848 -116.254048 
L 125.223359 -114.715407 
L 124.315356 -113.176766 
L 123.482909 -111.638126 
L 122.72354 -110.099485 
L 122.033085 -108.560844 
L 121.404833 -107.022203 
L 120.829259 -105.483563 
L 120.294511 -103.944922 
L 119.787577 -102.406281 
L 119.295874 -100.86764 
L 118.808901 -99.328999 
L 118.319585 -97.790359 
L 117.825012 -96.251718 
L 117.326437 -94.713077 
L 116.828591 -93.174436 
L 116.338519 -91.635795 
L 115.86421 -90.097155 
L 115.413328 -88.558514 
L 114.992264 -87.019873 
L 114.605609 -85.481232 
L 114.256041 -83.942591 
L 113.944529 -82.403951 
L 113.670692 -80.86531 
L 113.433198 -79.326669 
L 113.230084 -77.788028 
L 113.058983 -76.249388 
L 112.917245 -74.710747 
L 112.802002 -73.172106 
L 112.710214 -71.633465 
L 112.638738 -70.094824 
L 112.584413 -68.556184 
z
" style="stroke: #4c4c4c; stroke-width: 0.5"/>
    </defs>
    <g clip-path="url(#p990881737a)">
     <use xlink:href="#m096a48e66a" x="0" y="255.719844" style="fill: #5573cd; stroke: #4c4c4c; stroke-width: 0.5"/>
    </g>
   </g>
   <g id="PolyCollection_2">
    <defs>
     <path id="m959b9ca8bb" d="M 197.36117 -36.839844 
L 196.643972 -36.839844 
L 196.478728 -38.876207 
L 196.256372 -40.912571 
L 195.965421 -42.948935 
L 195.594957 -44.985298 
L 195.135515 -47.021662 
L 194.579866 -49.058026 
L 193.923544 -51.094389 
L 193.164982 -53.130753 
L 192.305209 -55.167116 
L 191.347185 -57.20348 
L 190.294937 -59.239844 
L 189.15275 -61.276207 
L 187.924658 -63.312571 
L 186.614415 -65.348935 
L 185.22597 -67.385298 
L 183.764338 -69.421662 
L 182.236605 -71.458026 
L 180.652784 -73.494389 
L 179.02628 -75.530753 
L 177.373858 -77.567116 
L 175.715172 -79.60348 
L 174.072017 -81.639844 
L 172.467537 -83.676207 
L 170.925512 -85.712571 
L 169.469761 -87.748935 
L 168.123566 -89.785298 
L 166.908936 -91.821662 
L 165.845618 -93.858026 
L 164.949865 -95.894389 
L 164.233174 -97.930753 
L 163.701298 -99.967116 
L 163.353903 -102.00348 
L 163.185034 -104.039844 
L 163.184389 -106.076207 
L 163.339088 -108.112571 
L 163.635445 -110.148935 
L 164.060238 -112.185298 
L 164.601084 -114.221662 
L 165.245844 -116.258026 
L 165.981309 -118.294389 
L 166.791704 -120.330753 
L 167.657672 -122.367116 
L 168.556331 -124.40348 
L 169.462719 -126.439844 
L 170.352551 -128.476207 
L 171.205806 -130.512571 
L 172.010324 -132.548935 
L 172.764518 -134.585298 
L 173.478367 -136.621662 
L 174.172261 -138.658026 
L 174.873716 -140.694389 
L 175.612542 -142.730753 
L 176.415406 -144.767116 
L 177.300959 -146.80348 
L 178.276551 -148.839844 
L 179.337185 -150.876207 
L 180.466844 -152.912571 
L 181.641744 -154.948935 
L 182.834642 -156.985298 
L 184.019175 -159.021662 
L 185.173267 -161.058026 
L 186.281017 -163.094389 
L 187.332914 -165.130753 
L 188.324674 -167.167116 
L 189.255288 -169.20348 
L 190.124998 -171.239844 
L 190.933747 -173.276207 
L 191.680459 -175.312571 
L 192.363147 -177.348935 
L 192.979613 -179.385298 
L 193.528368 -181.421662 
L 194.009397 -183.458026 
L 194.424503 -185.494389 
L 194.777184 -187.530753 
L 195.07212 -189.567116 
L 195.314507 -191.60348 
L 195.509481 -193.639844 
L 195.6618 -195.676207 
L 195.775885 -197.712571 
L 195.856133 -199.748935 
L 195.907374 -201.785298 
L 195.935268 -203.821662 
L 195.946468 -205.858026 
L 195.948452 -207.894389 
L 195.949018 -209.930753 
L 195.955546 -211.967116 
L 195.974174 -214.00348 
L 196.009096 -216.039844 
L 196.062112 -218.076207 
L 196.132551 -220.112571 
L 196.217553 -222.148935 
L 196.312657 -224.185298 
L 196.412561 -226.221662 
L 196.511905 -228.258026 
L 196.60595 -230.294389 
L 196.691046 -232.330753 
L 196.764863 -234.367116 
L 196.826388 -236.40348 
L 196.875744 -238.439844 
L 197.129398 -238.439844 
L 197.129398 -238.439844 
L 197.178754 -236.40348 
L 197.240279 -234.367116 
L 197.314096 -232.330753 
L 197.399192 -230.294389 
L 197.493237 -228.258026 
L 197.592582 -226.221662 
L 197.692485 -224.185298 
L 197.787589 -222.148935 
L 197.872591 -220.112571 
L 197.94303 -218.076207 
L 197.996046 -216.039844 
L 198.030968 -214.00348 
L 198.049596 -211.967116 
L 198.056124 -209.930753 
L 198.05669 -207.894389 
L 198.058674 -205.858026 
L 198.069874 -203.821662 
L 198.097768 -201.785298 
L 198.149009 -199.748935 
L 198.229257 -197.712571 
L 198.343342 -195.676207 
L 198.495662 -193.639844 
L 198.690635 -191.60348 
L 198.933022 -189.567116 
L 199.227958 -187.530753 
L 199.580639 -185.494389 
L 199.995745 -183.458026 
L 200.476774 -181.421662 
L 201.025529 -179.385298 
L 201.641995 -177.348935 
L 202.324683 -175.312571 
L 203.071395 -173.276207 
L 203.880144 -171.239844 
L 204.749854 -169.20348 
L 205.680468 -167.167116 
L 206.672228 -165.130753 
L 207.724125 -163.094389 
L 208.831875 -161.058026 
L 209.985967 -159.021662 
L 211.1705 -156.985298 
L 212.363398 -154.948935 
L 213.538298 -152.912571 
L 214.667957 -150.876207 
L 215.728591 -148.839844 
L 216.704183 -146.80348 
L 217.589736 -144.767116 
L 218.3926 -142.730753 
L 219.131426 -140.694389 
L 219.832882 -138.658026 
L 220.526775 -136.621662 
L 221.240624 -134.585298 
L 221.994818 -132.548935 
L 222.799336 -130.512571 
L 223.652591 -128.476207 
L 224.542423 -126.439844 
L 225.448811 -124.40348 
L 226.34747 -122.367116 
L 227.213438 -120.330753 
L 228.023833 -118.294389 
L 228.759298 -116.258026 
L 229.404058 -114.221662 
L 229.944904 -112.185298 
L 230.369697 -110.148935 
L 230.666055 -108.112571 
L 230.820753 -106.076207 
L 230.820108 -104.039844 
L 230.651239 -102.00348 
L 230.303844 -99.967116 
L 229.771968 -97.930753 
L 229.055277 -95.894389 
L 228.159524 -93.858026 
L 227.096206 -91.821662 
L 225.881576 -89.785298 
L 224.535381 -87.748935 
L 223.07963 -85.712571 
L 221.537605 -83.676207 
L 219.933125 -81.639844 
L 218.289971 -79.60348 
L 216.631284 -77.567116 
L 214.978862 -75.530753 
L 213.352358 -73.494389 
L 211.768537 -71.458026 
L 210.240804 -69.421662 
L 208.779172 -67.385298 
L 207.390727 -65.348935 
L 206.080484 -63.312571 
L 204.852392 -61.276207 
L 203.710205 -59.239844 
L 202.657957 -57.20348 
L 201.699933 -55.167116 
L 200.84016 -53.130753 
L 200.081598 -51.094389 
L 199.425276 -49.058026 
L 198.869627 -47.021662 
L 198.410185 -44.985298 
L 198.039721 -42.948935 
L 197.74877 -40.912571 
L 197.526414 -38.876207 
L 197.36117 -36.839844 
z
" style="stroke: #4c4c4c; stroke-width: 0.5"/>
    </defs>
    <g clip-path="url(#p990881737a)">
     <use xlink:href="#m959b9ca8bb" x="0" y="255.719844" style="fill: #df8920; stroke: #4c4c4c; stroke-width: 0.5"/>
    </g>
   </g>
   <g id="line2d_1">
    <path d="M 112.457116 158.894562 
L 112.457116 52.755304 
" clip-path="url(#p990881737a)" style="fill: none; stroke: #4c4c4c; stroke-width: 0.75; stroke-linecap: round"/>
   </g>
   <g id="line2d_2">
    <path d="M 112.457116 123.224758 
L 112.457116 94.890752 
" clip-path="url(#p990881737a)" style="fill: none; stroke: #4c4c4c; stroke-width: 2.25; stroke-linecap: round"/>
   </g>
   <g id="line2d_3">
    <path d="M 112.457116 109.756816 
" clip-path="url(#p990881737a)" style="fill: none; stroke: #4c4c4c; stroke-width: 1.5; stroke-linecap: round"/>
    <defs>
     <path id="m8815416438" d="M 0.9375 0 
L -0.9375 -0 
" style="stroke: #ffffff; stroke-width: 0.45"/>
    </defs>
    <g clip-path="url(#p990881737a)">
     <use xlink:href="#m8815416438" x="112.457116" y="109.756816" style="fill: #ffffff; stroke: #ffffff; stroke-width: 0.45"/>
    </g>
   </g>
   <g id="line2d_4">
    <path d="M 197.002571 195.127558 
L 197.002571 67.360593 
" clip-path="url(#p990881737a)" style="fill: none; stroke: #4c4c4c; stroke-width: 0.75; stroke-linecap: round"/>
   </g>
   <g id="line2d_5">
    <path d="M 197.002571 161.128295 
L 197.002571 122.40502 
" clip-path="url(#p990881737a)" style="fill: none; stroke: #4c4c4c; stroke-width: 2.25; stroke-linecap: round"/>
   </g>
   <g id="line2d_6">
    <path d="M 197.002571 142.025607 
" clip-path="url(#p990881737a)" style="fill: none; stroke: #4c4c4c; stroke-width: 1.5; stroke-linecap: round"/>
    <g clip-path="url(#p990881737a)">
     <use xlink:href="#m8815416438" x="197.002571" y="142.025607" style="fill: #ffffff; stroke: #ffffff; stroke-width: 0.45"/>
    </g>
   </g>
   <g id="line2d_7">
    <path d="M 112.457116 39.449704 
L 112.457116 35.014504 
L 197.002571 35.014504 
L 197.002571 39.449704 
" style="fill: none; stroke: #333333; stroke-width: 0.5; stroke-linecap: round"/>
   </g>
   <g id="patch_3">
    <path d="M 71.029844 228.96 
L 71.029844 7.2 
" style="fill: none; stroke: #262626; stroke-width: 1.25; stroke-linejoin: miter; stroke-linecap: square"/>
   </g>
   <g id="patch_4">
    <path d="M 71.029844 228.96 
L 238.429844 228.96 
" style="fill: none; stroke: #262626; stroke-width: 1.25; stroke-linejoin: miter; stroke-linecap: square"/>
   </g>
   <g id="text_9">
    <!-- **** -->
    <g style="fill: #262626" transform="translate(145.388594 31.629504) scale(0.12 -0.12)">
     <defs>
      <path id="ArialMT-2a" d="M 200 3741 
L 344 4184 
Q 841 4009 1066 3881 
Q 1006 4447 1003 4659 
L 1456 4659 
Q 1447 4350 1384 3884 
Q 1706 4047 2122 4184 
L 2266 3741 
Q 1869 3609 1488 3566 
Q 1678 3400 2025 2975 
L 1650 2709 
Q 1469 2956 1222 3381 
Q 991 2941 816 2709 
L 447 2975 
Q 809 3422 966 3566 
Q 563 3644 200 3741 
z
" transform="scale(0.015625)"/>
     </defs>
     <use xlink:href="#ArialMT-2a"/>
     <use xlink:href="#ArialMT-2a" x="38.916016"/>
     <use xlink:href="#ArialMT-2a" x="77.832031"/>
     <use xlink:href="#ArialMT-2a" x="116.748047"/>
    </g>
   </g>
  </g>
 </g>
 <defs>
  <clipPath id="p990881737a">
   <rect x="71.029844" y="7.2" width="167.4" height="221.76"/>
  </clipPath>
 </defs>
</svg>
