<?xml version="1.0" encoding="utf-8" standalone="no"?>
<!DOCTYPE svg PUBLIC "-//W3C//DTD SVG 1.1//EN"
  "http://www.w3.org/Graphics/SVG/1.1/DTD/svg11.dtd">
<svg xmlns:xlink="http://www.w3.org/1999/xlink" width="251.746875pt" height="255.719844pt" viewBox="0 0 251.746875 255.719844" xmlns="http://www.w3.org/2000/svg" version="1.1">
 <metadata>
  <rdf:RDF xmlns:dc="http://purl.org/dc/elements/1.1/" xmlns:cc="http://creativecommons.org/ns#" xmlns:rdf="http://www.w3.org/1999/02/22-rdf-syntax-ns#">
   <cc:Work>
    <dc:type rdf:resource="http://purl.org/dc/dcmitype/StillImage"/>
    <dc:date>2025-07-21T12:20:04.609218</dc:date>
    <dc:format>image/svg+xml</dc:format>
    <dc:creator>
     <cc:Agent>
      <dc:title>Matplotlib v3.9.2, https://matplotlib.org/</dc:title>
     </cc:Agent>
    </dc:creator>
   </cc:Work>
  </rdf:RDF>
 </metadata>
 <defs>
  <style type="text/css">*{stroke-linejoin: round; stroke-linecap: butt}</style>
 </defs>
 <g id="figure_1">
  <g id="patch_1">
   <path d="M -0 255.719844 
L 251.746875 255.719844 
L 251.746875 0 
L -0 0 
z
" style="fill: #ffffff"/>
  </g>
  <g id="axes_1">
   <g id="patch_2">
    <path d="M 77.146875 228.96 
L 244.546875 228.96 
L 244.546875 7.2 
L 77.146875 7.2 
z
" style="fill: #ffffff"/>
   </g>
   <g id="matplotlib.axis_1">
    <g id="xtick_1">
     <g id="text_1">
      <!-- Term -->
      <g style="fill: #262626" transform="translate(106.355554 246.333594) scale(0.11 -0.11)">
       <defs>
        <path id="ArialMT-54" d="M 1659 0 
L 1659 4041 
L 150 4041 
L 150 4581 
L 3781 4581 
L 3781 4041 
L 2266 4041 
L 2266 0 
L 1659 0 
z
" transform="scale(0.015625)"/>
        <path id="ArialMT-65" d="M 2694 1069 
L 3275 997 
Q 3138 488 2766 206 
Q 2394 -75 1816 -75 
Q 1088 -75 661 373 
Q 234 822 234 1631 
Q 234 2469 665 2931 
Q 1097 3394 1784 3394 
Q 2450 3394 2872 2941 
Q 3294 2488 3294 1666 
Q 3294 1616 3291 1516 
L 816 1516 
Q 847 969 1125 678 
Q 1403 388 1819 388 
Q 2128 388 2347 550 
Q 2566 713 2694 1069 
z
M 847 1978 
L 2700 1978 
Q 2663 2397 2488 2606 
Q 2219 2931 1791 2931 
Q 1403 2931 1139 2672 
Q 875 2413 847 1978 
z
" transform="scale(0.015625)"/>
        <path id="ArialMT-72" d="M 416 0 
L 416 3319 
L 922 3319 
L 922 2816 
Q 1116 3169 1280 3281 
Q 1444 3394 1641 3394 
Q 1925 3394 2219 3213 
L 2025 2691 
Q 1819 2813 1613 2813 
Q 1428 2813 1281 2702 
Q 1134 2591 1072 2394 
Q 978 2094 978 1738 
L 978 0 
L 416 0 
z
" transform="scale(0.015625)"/>
        <path id="ArialMT-6d" d="M 422 0 
L 422 3319 
L 925 3319 
L 925 2853 
Q 1081 3097 1340 3245 
Q 1600 3394 1931 3394 
Q 2300 3394 2536 3241 
Q 2772 3088 2869 2813 
Q 3263 3394 3894 3394 
Q 4388 3394 4653 3120 
Q 4919 2847 4919 2278 
L 4919 0 
L 4359 0 
L 4359 2091 
Q 4359 2428 4304 2576 
Q 4250 2725 4106 2815 
Q 3963 2906 3769 2906 
Q 3419 2906 3187 2673 
Q 2956 2441 2956 1928 
L 2956 0 
L 2394 0 
L 2394 2156 
Q 2394 2531 2256 2718 
Q 2119 2906 1806 2906 
Q 1569 2906 1367 2781 
Q 1166 2656 1075 2415 
Q 984 2175 984 1722 
L 984 0 
L 422 0 
z
" transform="scale(0.015625)"/>
       </defs>
       <use xlink:href="#ArialMT-54"/>
       <use xlink:href="#ArialMT-65" x="49.958984"/>
       <use xlink:href="#ArialMT-72" x="105.574219"/>
       <use xlink:href="#ArialMT-6d" x="138.875"/>
      </g>
     </g>
    </g>
    <g id="xtick_2">
     <g id="text_2">
      <!-- Preterm -->
      <g style="fill: #262626" transform="translate(183.561946 246.333594) scale(0.11 -0.11)">
       <defs>
        <path id="ArialMT-50" d="M 494 0 
L 494 4581 
L 2222 4581 
Q 2678 4581 2919 4538 
Q 3256 4481 3484 4323 
Q 3713 4166 3852 3881 
Q 3991 3597 3991 3256 
Q 3991 2672 3619 2267 
Q 3247 1863 2275 1863 
L 1100 1863 
L 1100 0 
L 494 0 
z
M 1100 2403 
L 2284 2403 
Q 2872 2403 3119 2622 
Q 3366 2841 3366 3238 
Q 3366 3525 3220 3729 
Q 3075 3934 2838 4000 
Q 2684 4041 2272 4041 
L 1100 4041 
L 1100 2403 
z
" transform="scale(0.015625)"/>
        <path id="ArialMT-74" d="M 1650 503 
L 1731 6 
Q 1494 -44 1306 -44 
Q 1000 -44 831 53 
Q 663 150 594 308 
Q 525 466 525 972 
L 525 2881 
L 113 2881 
L 113 3319 
L 525 3319 
L 525 4141 
L 1084 4478 
L 1084 3319 
L 1650 3319 
L 1650 2881 
L 1084 2881 
L 1084 941 
Q 1084 700 1114 631 
Q 1144 563 1211 522 
Q 1278 481 1403 481 
Q 1497 481 1650 503 
z
" transform="scale(0.015625)"/>
       </defs>
       <use xlink:href="#ArialMT-50"/>
       <use xlink:href="#ArialMT-72" x="66.699219"/>
       <use xlink:href="#ArialMT-65" x="100"/>
       <use xlink:href="#ArialMT-74" x="155.615234"/>
       <use xlink:href="#ArialMT-65" x="183.398438"/>
       <use xlink:href="#ArialMT-72" x="239.013672"/>
       <use xlink:href="#ArialMT-6d" x="272.314453"/>
      </g>
     </g>
    </g>
   </g>
   <g id="matplotlib.axis_2">
    <g id="ytick_1">
     <g id="text_3">
      <!-- −200000 -->
      <g style="fill: #262626" transform="translate(24.52 213.860621) scale(0.11 -0.11)">
       <defs>
        <path id="ArialMT-2212" d="M 3381 1997 
L 356 1997 
L 356 2522 
L 3381 2522 
L 3381 1997 
z
" transform="scale(0.015625)"/>
        <path id="ArialMT-32" d="M 3222 541 
L 3222 0 
L 194 0 
Q 188 203 259 391 
Q 375 700 629 1000 
Q 884 1300 1366 1694 
Q 2113 2306 2375 2664 
Q 2638 3022 2638 3341 
Q 2638 3675 2398 3904 
Q 2159 4134 1775 4134 
Q 1369 4134 1125 3890 
Q 881 3647 878 3216 
L 300 3275 
Q 359 3922 746 4261 
Q 1134 4600 1788 4600 
Q 2447 4600 2831 4234 
Q 3216 3869 3216 3328 
Q 3216 3053 3103 2787 
Q 2991 2522 2730 2228 
Q 2469 1934 1863 1422 
Q 1356 997 1212 845 
Q 1069 694 975 541 
L 3222 541 
z
" transform="scale(0.015625)"/>
        <path id="ArialMT-30" d="M 266 2259 
Q 266 3072 433 3567 
Q 600 4063 929 4331 
Q 1259 4600 1759 4600 
Q 2128 4600 2406 4451 
Q 2684 4303 2865 4023 
Q 3047 3744 3150 3342 
Q 3253 2941 3253 2259 
Q 3253 1453 3087 958 
Q 2922 463 2592 192 
Q 2263 -78 1759 -78 
Q 1097 -78 719 397 
Q 266 969 266 2259 
z
M 844 2259 
Q 844 1131 1108 757 
Q 1372 384 1759 384 
Q 2147 384 2411 759 
Q 2675 1134 2675 2259 
Q 2675 3391 2411 3762 
Q 2147 4134 1753 4134 
Q 1366 4134 1134 3806 
Q 844 3388 844 2259 
z
" transform="scale(0.015625)"/>
       </defs>
       <use xlink:href="#ArialMT-2212"/>
       <use xlink:href="#ArialMT-32" x="58.398438"/>
       <use xlink:href="#ArialMT-30" x="114.013672"/>
       <use xlink:href="#ArialMT-30" x="169.628906"/>
       <use xlink:href="#ArialMT-30" x="225.244141"/>
       <use xlink:href="#ArialMT-30" x="280.859375"/>
       <use xlink:href="#ArialMT-30" x="336.474609"/>
      </g>
     </g>
    </g>
    <g id="ytick_2">
     <g id="text_4">
      <!-- −100000 -->
      <g style="fill: #262626" transform="translate(24.52 168.633167) scale(0.11 -0.11)">
       <defs>
        <path id="ArialMT-31" d="M 2384 0 
L 1822 0 
L 1822 3584 
Q 1619 3391 1289 3197 
Q 959 3003 697 2906 
L 697 3450 
Q 1169 3672 1522 3987 
Q 1875 4303 2022 4600 
L 2384 4600 
L 2384 0 
z
" transform="scale(0.015625)"/>
       </defs>
       <use xlink:href="#ArialMT-2212"/>
       <use xlink:href="#ArialMT-31" x="58.398438"/>
       <use xlink:href="#ArialMT-30" x="114.013672"/>
       <use xlink:href="#ArialMT-30" x="169.628906"/>
       <use xlink:href="#ArialMT-30" x="225.244141"/>
       <use xlink:href="#ArialMT-30" x="280.859375"/>
       <use xlink:href="#ArialMT-30" x="336.474609"/>
      </g>
     </g>
    </g>
    <g id="ytick_3">
     <g id="text_5">
      <!-- 0 -->
      <g style="fill: #262626" transform="translate(61.529844 123.405713) scale(0.11 -0.11)">
       <use xlink:href="#ArialMT-30"/>
      </g>
     </g>
    </g>
    <g id="ytick_4">
     <g id="text_6">
      <!-- 100000 -->
      <g style="fill: #262626" transform="translate(30.944688 78.178259) scale(0.11 -0.11)">
       <use xlink:href="#ArialMT-31"/>
       <use xlink:href="#ArialMT-30" x="55.615234"/>
       <use xlink:href="#ArialMT-30" x="111.230469"/>
       <use xlink:href="#ArialMT-30" x="166.845703"/>
       <use xlink:href="#ArialMT-30" x="222.460938"/>
       <use xlink:href="#ArialMT-30" x="278.076172"/>
      </g>
     </g>
    </g>
    <g id="ytick_5">
     <g id="text_7">
      <!-- 200000 -->
      <g style="fill: #262626" transform="translate(30.944688 32.950805) scale(0.11 -0.11)">
       <use xlink:href="#ArialMT-32"/>
       <use xlink:href="#ArialMT-30" x="55.615234"/>
       <use xlink:href="#ArialMT-30" x="111.230469"/>
       <use xlink:href="#ArialMT-30" x="166.845703"/>
       <use xlink:href="#ArialMT-30" x="222.460938"/>
       <use xlink:href="#ArialMT-30" x="278.076172"/>
      </g>
     </g>
    </g>
    <g id="text_8">
     <!-- GMV residuals [mm$^3$] -->
     <g style="fill: #262626" transform="translate(18.12 175.32) rotate(-90) scale(0.12 -0.12)">
      <defs>
       <path id="ArialMT-47" d="M 2638 1797 
L 2638 2334 
L 4578 2338 
L 4578 638 
Q 4131 281 3656 101 
Q 3181 -78 2681 -78 
Q 2006 -78 1454 211 
Q 903 500 622 1047 
Q 341 1594 341 2269 
Q 341 2938 620 3517 
Q 900 4097 1425 4378 
Q 1950 4659 2634 4659 
Q 3131 4659 3532 4498 
Q 3934 4338 4162 4050 
Q 4391 3763 4509 3300 
L 3963 3150 
Q 3859 3500 3706 3700 
Q 3553 3900 3268 4020 
Q 2984 4141 2638 4141 
Q 2222 4141 1919 4014 
Q 1616 3888 1430 3681 
Q 1244 3475 1141 3228 
Q 966 2803 966 2306 
Q 966 1694 1177 1281 
Q 1388 869 1791 669 
Q 2194 469 2647 469 
Q 3041 469 3416 620 
Q 3791 772 3984 944 
L 3984 1797 
L 2638 1797 
z
" transform="scale(0.015625)"/>
       <path id="ArialMT-4d" d="M 475 0 
L 475 4581 
L 1388 4581 
L 2472 1338 
Q 2622 884 2691 659 
Q 2769 909 2934 1394 
L 4031 4581 
L 4847 4581 
L 4847 0 
L 4263 0 
L 4263 3834 
L 2931 0 
L 2384 0 
L 1059 3900 
L 1059 0 
L 475 0 
z
" transform="scale(0.015625)"/>
       <path id="ArialMT-56" d="M 1803 0 
L 28 4581 
L 684 4581 
L 1875 1253 
Q 2019 853 2116 503 
Q 2222 878 2363 1253 
L 3600 4581 
L 4219 4581 
L 2425 0 
L 1803 0 
z
" transform="scale(0.015625)"/>
       <path id="ArialMT-20" transform="scale(0.015625)"/>
       <path id="ArialMT-73" d="M 197 991 
L 753 1078 
Q 800 744 1014 566 
Q 1228 388 1613 388 
Q 2000 388 2187 545 
Q 2375 703 2375 916 
Q 2375 1106 2209 1216 
Q 2094 1291 1634 1406 
Q 1016 1563 777 1677 
Q 538 1791 414 1992 
Q 291 2194 291 2438 
Q 291 2659 392 2848 
Q 494 3038 669 3163 
Q 800 3259 1026 3326 
Q 1253 3394 1513 3394 
Q 1903 3394 2198 3281 
Q 2494 3169 2634 2976 
Q 2775 2784 2828 2463 
L 2278 2388 
Q 2241 2644 2061 2787 
Q 1881 2931 1553 2931 
Q 1166 2931 1000 2803 
Q 834 2675 834 2503 
Q 834 2394 903 2306 
Q 972 2216 1119 2156 
Q 1203 2125 1616 2013 
Q 2213 1853 2448 1751 
Q 2684 1650 2818 1456 
Q 2953 1263 2953 975 
Q 2953 694 2789 445 
Q 2625 197 2315 61 
Q 2006 -75 1616 -75 
Q 969 -75 630 194 
Q 291 463 197 991 
z
" transform="scale(0.015625)"/>
       <path id="ArialMT-69" d="M 425 3934 
L 425 4581 
L 988 4581 
L 988 3934 
L 425 3934 
z
M 425 0 
L 425 3319 
L 988 3319 
L 988 0 
L 425 0 
z
" transform="scale(0.015625)"/>
       <path id="ArialMT-64" d="M 2575 0 
L 2575 419 
Q 2259 -75 1647 -75 
Q 1250 -75 917 144 
Q 584 363 401 755 
Q 219 1147 219 1656 
Q 219 2153 384 2558 
Q 550 2963 881 3178 
Q 1213 3394 1622 3394 
Q 1922 3394 2156 3267 
Q 2391 3141 2538 2938 
L 2538 4581 
L 3097 4581 
L 3097 0 
L 2575 0 
z
M 797 1656 
Q 797 1019 1065 703 
Q 1334 388 1700 388 
Q 2069 388 2326 689 
Q 2584 991 2584 1609 
Q 2584 2291 2321 2609 
Q 2059 2928 1675 2928 
Q 1300 2928 1048 2622 
Q 797 2316 797 1656 
z
" transform="scale(0.015625)"/>
       <path id="ArialMT-75" d="M 2597 0 
L 2597 488 
Q 2209 -75 1544 -75 
Q 1250 -75 995 37 
Q 741 150 617 320 
Q 494 491 444 738 
Q 409 903 409 1263 
L 409 3319 
L 972 3319 
L 972 1478 
Q 972 1038 1006 884 
Q 1059 663 1231 536 
Q 1403 409 1656 409 
Q 1909 409 2131 539 
Q 2353 669 2445 892 
Q 2538 1116 2538 1541 
L 2538 3319 
L 3100 3319 
L 3100 0 
L 2597 0 
z
" transform="scale(0.015625)"/>
       <path id="ArialMT-61" d="M 2588 409 
Q 2275 144 1986 34 
Q 1697 -75 1366 -75 
Q 819 -75 525 192 
Q 231 459 231 875 
Q 231 1119 342 1320 
Q 453 1522 633 1644 
Q 813 1766 1038 1828 
Q 1203 1872 1538 1913 
Q 2219 1994 2541 2106 
Q 2544 2222 2544 2253 
Q 2544 2597 2384 2738 
Q 2169 2928 1744 2928 
Q 1347 2928 1158 2789 
Q 969 2650 878 2297 
L 328 2372 
Q 403 2725 575 2942 
Q 747 3159 1072 3276 
Q 1397 3394 1825 3394 
Q 2250 3394 2515 3294 
Q 2781 3194 2906 3042 
Q 3031 2891 3081 2659 
Q 3109 2516 3109 2141 
L 3109 1391 
Q 3109 606 3145 398 
Q 3181 191 3288 0 
L 2700 0 
Q 2613 175 2588 409 
z
M 2541 1666 
Q 2234 1541 1622 1453 
Q 1275 1403 1131 1340 
Q 988 1278 909 1158 
Q 831 1038 831 891 
Q 831 666 1001 516 
Q 1172 366 1500 366 
Q 1825 366 2078 508 
Q 2331 650 2450 897 
Q 2541 1088 2541 1459 
L 2541 1666 
z
" transform="scale(0.015625)"/>
       <path id="ArialMT-6c" d="M 409 0 
L 409 4581 
L 972 4581 
L 972 0 
L 409 0 
z
" transform="scale(0.015625)"/>
       <path id="ArialMT-5b" d="M 434 -1272 
L 434 4581 
L 1675 4581 
L 1675 4116 
L 997 4116 
L 997 -806 
L 1675 -806 
L 1675 -1272 
L 434 -1272 
z
" transform="scale(0.015625)"/>
       <path id="DejaVuSans-33" d="M 2597 2516 
Q 3050 2419 3304 2112 
Q 3559 1806 3559 1356 
Q 3559 666 3084 287 
Q 2609 -91 1734 -91 
Q 1441 -91 1130 -33 
Q 819 25 488 141 
L 488 750 
Q 750 597 1062 519 
Q 1375 441 1716 441 
Q 2309 441 2620 675 
Q 2931 909 2931 1356 
Q 2931 1769 2642 2001 
Q 2353 2234 1838 2234 
L 1294 2234 
L 1294 2753 
L 1863 2753 
Q 2328 2753 2575 2939 
Q 2822 3125 2822 3475 
Q 2822 3834 2567 4026 
Q 2313 4219 1838 4219 
Q 1578 4219 1281 4162 
Q 984 4106 628 3988 
L 628 4550 
Q 988 4650 1302 4700 
Q 1616 4750 1894 4750 
Q 2613 4750 3031 4423 
Q 3450 4097 3450 3541 
Q 3450 3153 3228 2886 
Q 3006 2619 2597 2516 
z
" transform="scale(0.015625)"/>
       <path id="ArialMT-5d" d="M 1363 -1272 
L 122 -1272 
L 122 -806 
L 800 -806 
L 800 4116 
L 122 4116 
L 122 4581 
L 1363 4581 
L 1363 -1272 
z
" transform="scale(0.015625)"/>
      </defs>
      <use xlink:href="#ArialMT-47" transform="translate(0 0.765625)"/>
      <use xlink:href="#ArialMT-4d" transform="translate(77.783203 0.765625)"/>
      <use xlink:href="#ArialMT-56" transform="translate(161.083984 0.765625)"/>
      <use xlink:href="#ArialMT-20" transform="translate(227.783203 0.765625)"/>
      <use xlink:href="#ArialMT-72" transform="translate(255.566406 0.765625)"/>
      <use xlink:href="#ArialMT-65" transform="translate(288.867188 0.765625)"/>
      <use xlink:href="#ArialMT-73" transform="translate(344.482422 0.765625)"/>
      <use xlink:href="#ArialMT-69" transform="translate(394.482422 0.765625)"/>
      <use xlink:href="#ArialMT-64" transform="translate(416.699219 0.765625)"/>
      <use xlink:href="#ArialMT-75" transform="translate(472.314453 0.765625)"/>
      <use xlink:href="#ArialMT-61" transform="translate(527.929688 0.765625)"/>
      <use xlink:href="#ArialMT-6c" transform="translate(583.544922 0.765625)"/>
      <use xlink:href="#ArialMT-73" transform="translate(605.761719 0.765625)"/>
      <use xlink:href="#ArialMT-20" transform="translate(655.761719 0.765625)"/>
      <use xlink:href="#ArialMT-5b" transform="translate(683.544922 0.765625)"/>
      <use xlink:href="#ArialMT-6d" transform="translate(711.328125 0.765625)"/>
      <use xlink:href="#ArialMT-6d" transform="translate(794.628906 0.765625)"/>
      <use xlink:href="#DejaVuSans-33" transform="translate(878.886719 39.046875) scale(0.7)"/>
      <use xlink:href="#ArialMT-5d" transform="translate(926.157227 0.765625)"/>
     </g>
    </g>
   </g>
   <g id="PolyCollection_1">
    <defs>
     <path id="md45d6936fe" d="M 119.022302 -77.740511 
L 118.125994 -77.740511 
L 117.935163 -79.363737 
L 117.683982 -80.986962 
L 117.361973 -82.610188 
L 116.959795 -84.233413 
L 116.470227 -85.856639 
L 115.889092 -87.479864 
L 115.215947 -89.10309 
L 114.454411 -90.726316 
L 113.612022 -92.349541 
L 112.699632 -93.972767 
L 111.730398 -95.595992 
L 110.718569 -97.219218 
L 109.678271 -98.842444 
L 108.622537 -100.465669 
L 107.562752 -102.088895 
L 106.50857 -103.71212 
L 105.468228 -105.335346 
L 104.449065 -106.958571 
L 103.457964 -108.581797 
L 102.501434 -110.205023 
L 101.585167 -111.828248 
L 100.713037 -113.451474 
L 99.885723 -115.074699 
L 99.099315 -116.697925 
L 98.344355 -118.321151 
L 97.605747 -119.944376 
L 96.863842 -121.567602 
L 96.096729 -123.190827 
L 95.283501 -124.814053 
L 94.407977 -126.437278 
L 93.462193 -128.060504 
L 92.448963 -129.68373 
L 91.382944 -131.306955 
L 90.289932 -132.930181 
L 89.204443 -134.553406 
L 88.165986 -136.176632 
L 87.214695 -137.799858 
L 86.387046 -139.423083 
L 85.712368 -141.046309 
L 85.21063 -142.669534 
L 84.891694 -144.29276 
L 84.755966 -145.915985 
L 84.796093 -147.539211 
L 84.999278 -149.162437 
L 85.349727 -150.785662 
L 85.830848 -152.408888 
L 86.426956 -154.032113 
L 87.124385 -155.655339 
L 87.912014 -157.278565 
L 88.781307 -158.90179 
L 89.725958 -160.525016 
L 90.741266 -162.148241 
L 91.823308 -163.771467 
L 92.968014 -165.394692 
L 94.170246 -167.017918 
L 95.422985 -168.641144 
L 96.716776 -170.264369 
L 98.039524 -171.887595 
L 99.376717 -173.51082 
L 100.712065 -175.134046 
L 102.028483 -176.757272 
L 103.309274 -178.380497 
L 104.539329 -180.003723 
L 105.706182 -181.626948 
L 106.800769 -183.250174 
L 107.817801 -184.873399 
L 108.75573 -186.496625 
L 109.616342 -188.119851 
L 110.404045 -189.743076 
L 111.124966 -191.366302 
L 111.786 -192.989527 
L 112.393907 -194.612753 
L 112.9546 -196.235979 
L 113.47269 -197.859204 
L 113.951325 -199.48243 
L 114.392319 -201.105655 
L 114.796528 -202.728881 
L 115.164354 -204.352106 
L 115.496304 -205.975332 
L 115.793477 -207.598558 
L 116.057894 -209.221783 
L 116.292622 -210.845009 
L 116.50167 -212.468234 
L 116.689694 -214.09146 
L 116.861547 -215.714686 
L 117.021785 -217.337911 
L 117.1742 -218.961137 
L 117.321463 -220.584362 
L 117.464944 -222.207588 
L 117.604729 -223.830813 
L 117.739818 -225.454039 
L 117.868465 -227.077265 
L 117.988581 -228.70049 
L 118.098147 -230.323716 
L 118.195547 -231.946941 
L 118.279792 -233.570167 
L 118.350619 -235.193393 
L 118.408464 -236.816618 
L 118.454339 -238.439844 
L 118.693956 -238.439844 
L 118.693956 -238.439844 
L 118.739831 -236.816618 
L 118.797676 -235.193393 
L 118.868504 -233.570167 
L 118.952749 -231.946941 
L 119.050148 -230.323716 
L 119.159714 -228.70049 
L 119.279831 -227.077265 
L 119.408477 -225.454039 
L 119.543566 -223.830813 
L 119.683352 -222.207588 
L 119.826832 -220.584362 
L 119.974095 -218.961137 
L 120.12651 -217.337911 
L 120.286749 -215.714686 
L 120.458602 -214.09146 
L 120.646625 -212.468234 
L 120.855674 -210.845009 
L 121.090401 -209.221783 
L 121.354818 -207.598558 
L 121.651991 -205.975332 
L 121.983942 -204.352106 
L 122.351767 -202.728881 
L 122.755976 -201.105655 
L 123.196971 -199.48243 
L 123.675605 -197.859204 
L 124.193695 -196.235979 
L 124.754389 -194.612753 
L 125.362295 -192.989527 
L 126.023329 -191.366302 
L 126.744251 -189.743076 
L 127.531953 -188.119851 
L 128.392566 -186.496625 
L 129.330495 -184.873399 
L 130.347526 -183.250174 
L 131.442113 -181.626948 
L 132.608967 -180.003723 
L 133.839022 -178.380497 
L 135.119812 -176.757272 
L 136.436231 -175.134046 
L 137.771579 -173.51082 
L 139.108772 -171.887595 
L 140.43152 -170.264369 
L 141.725311 -168.641144 
L 142.97805 -167.017918 
L 144.180281 -165.394692 
L 145.324988 -163.771467 
L 146.40703 -162.148241 
L 147.422338 -160.525016 
L 148.366989 -158.90179 
L 149.236281 -157.278565 
L 150.02391 -155.655339 
L 150.721339 -154.032113 
L 151.317447 -152.408888 
L 151.798568 -150.785662 
L 152.149017 -149.162437 
L 152.352202 -147.539211 
L 152.39233 -145.915985 
L 152.256601 -144.29276 
L 151.937666 -142.669534 
L 151.435927 -141.046309 
L 150.76125 -139.423083 
L 149.9336 -137.799858 
L 148.982309 -136.176632 
L 147.943853 -134.553406 
L 146.858363 -132.930181 
L 145.765352 -131.306955 
L 144.699333 -129.68373 
L 143.686103 -128.060504 
L 142.740319 -126.437278 
L 141.864795 -124.814053 
L 141.051567 -123.190827 
L 140.284453 -121.567602 
L 139.542548 -119.944376 
L 138.803941 -118.321151 
L 138.04898 -116.697925 
L 137.262573 -115.074699 
L 136.435259 -113.451474 
L 135.563128 -111.828248 
L 134.646862 -110.205023 
L 133.690331 -108.581797 
L 132.69923 -106.958571 
L 131.680068 -105.335346 
L 130.639725 -103.71212 
L 129.585543 -102.088895 
L 128.525759 -100.465669 
L 127.470025 -98.842444 
L 126.429726 -97.219218 
L 125.417897 -95.595992 
L 124.448664 -93.972767 
L 123.536273 -92.349541 
L 122.693885 -90.726316 
L 121.932348 -89.10309 
L 121.259203 -87.479864 
L 120.678068 -85.856639 
L 120.188501 -84.233413 
L 119.786322 -82.610188 
L 119.464314 -80.986962 
L 119.213133 -79.363737 
L 119.022302 -77.740511 
z
" style="stroke: #4c4c4c; stroke-width: 0.5"/>
    </defs>
    <g clip-path="url(#pcac0fad9a6)">
     <use xlink:href="#md45d6936fe" x="0" y="255.719844" style="fill: #5573cd; stroke: #4c4c4c; stroke-width: 0.5"/>
    </g>
   </g>
   <g id="PolyCollection_2">
    <defs>
     <path id="mfb596f877e" d="M 203.369333 -36.839844 
L 202.869872 -36.839844 
L 202.766643 -38.70269 
L 202.63072 -40.565537 
L 202.455816 -42.428384 
L 202.23585 -44.29123 
L 201.965446 -46.154077 
L 201.640459 -48.016923 
L 201.258476 -49.87977 
L 200.819194 -51.742616 
L 200.324597 -53.605463 
L 199.778879 -55.46831 
L 199.188063 -57.331156 
L 198.559342 -59.194003 
L 197.900201 -61.056849 
L 197.217443 -62.919696 
L 196.516239 -64.782543 
L 195.799384 -66.645389 
L 195.066872 -68.508236 
L 194.315874 -70.371082 
L 193.541164 -72.233929 
L 192.735926 -74.096776 
L 191.892845 -75.959622 
L 191.005332 -77.822469 
L 190.068706 -79.685315 
L 189.081183 -81.548162 
L 188.04452 -83.411009 
L 186.964233 -85.273855 
L 185.84935 -87.136702 
L 184.711702 -88.999548 
L 183.564851 -90.862395 
L 182.422756 -92.725242 
L 181.298368 -94.588088 
L 180.202354 -96.450935 
L 179.142159 -98.313781 
L 178.12158 -100.176628 
L 177.14098 -102.039474 
L 176.198144 -103.902321 
L 175.289695 -105.765168 
L 174.412856 -107.628014 
L 173.567261 -109.490861 
L 172.756521 -111.353707 
L 171.989221 -113.216554 
L 171.279167 -115.079401 
L 170.644777 -116.942247 
L 170.107694 -118.805094 
L 169.690795 -120.66794 
L 169.415889 -122.530787 
L 169.30142 -124.393634 
L 169.360496 -126.25648 
L 169.599489 -128.119327 
L 170.017357 -129.982173 
L 170.605727 -131.84502 
L 171.349656 -133.707867 
L 172.228911 -135.570713 
L 173.219557 -137.43356 
L 174.295618 -139.296406 
L 175.430622 -141.159253 
L 176.598916 -143.022099 
L 177.776669 -144.884946 
L 178.942621 -146.747793 
L 180.078615 -148.610639 
L 181.170027 -150.473486 
L 182.206131 -152.336332 
L 183.180427 -154.199179 
L 184.090881 -156.062026 
L 184.939966 -157.924872 
L 185.734425 -159.787719 
L 186.484627 -161.650565 
L 187.203534 -163.513412 
L 187.905294 -165.376259 
L 188.60365 -167.239105 
L 189.310339 -169.101952 
L 190.033734 -170.964798 
L 190.777937 -172.827645 
L 191.542456 -174.690492 
L 192.322508 -176.553338 
L 193.109897 -178.416185 
L 193.894277 -180.279031 
L 194.664615 -182.141878 
L 195.410589 -184.004725 
L 196.123718 -185.867571 
L 196.798083 -187.730418 
L 197.430557 -189.593264 
L 198.020582 -191.456111 
L 198.569592 -193.318957 
L 199.080224 -195.181804 
L 199.555499 -197.044651 
L 199.998113 -198.907497 
L 200.409952 -200.770344 
L 200.79189 -202.63319 
L 201.14385 -204.496037 
L 201.465083 -206.358884 
L 201.754567 -208.22173 
L 202.011438 -210.084577 
L 202.23536 -211.947423 
L 202.426769 -213.81027 
L 202.58698 -215.673117 
L 202.718144 -217.535963 
L 202.823094 -219.39881 
L 202.905119 -221.261656 
L 203.334086 -221.261656 
L 203.334086 -221.261656 
L 203.41611 -219.39881 
L 203.52106 -217.535963 
L 203.652225 -215.673117 
L 203.812436 -213.81027 
L 204.003845 -211.947423 
L 204.227766 -210.084577 
L 204.484638 -208.22173 
L 204.774122 -206.358884 
L 205.095354 -204.496037 
L 205.447314 -202.63319 
L 205.829252 -200.770344 
L 206.241091 -198.907497 
L 206.683705 -197.044651 
L 207.158981 -195.181804 
L 207.669613 -193.318957 
L 208.218622 -191.456111 
L 208.808647 -189.593264 
L 209.441121 -187.730418 
L 210.115486 -185.867571 
L 210.828616 -184.004725 
L 211.574589 -182.141878 
L 212.344927 -180.279031 
L 213.129308 -178.416185 
L 213.916696 -176.553338 
L 214.696749 -174.690492 
L 215.461267 -172.827645 
L 216.20547 -170.964798 
L 216.928866 -169.101952 
L 217.635554 -167.239105 
L 218.33391 -165.376259 
L 219.035671 -163.513412 
L 219.754577 -161.650565 
L 220.50478 -159.787719 
L 221.299238 -157.924872 
L 222.148324 -156.062026 
L 223.058777 -154.199179 
L 224.033074 -152.336332 
L 225.069178 -150.473486 
L 226.16059 -148.610639 
L 227.296584 -146.747793 
L 228.462535 -144.884946 
L 229.640289 -143.022099 
L 230.808582 -141.159253 
L 231.943587 -139.296406 
L 233.019647 -137.43356 
L 234.010293 -135.570713 
L 234.889549 -133.707867 
L 235.633477 -131.84502 
L 236.221847 -129.982173 
L 236.639716 -128.119327 
L 236.878708 -126.25648 
L 236.937784 -124.393634 
L 236.823315 -122.530787 
L 236.548409 -120.66794 
L 236.131511 -118.805094 
L 235.594428 -116.942247 
L 234.960037 -115.079401 
L 234.249983 -113.216554 
L 233.482684 -111.353707 
L 232.671944 -109.490861 
L 231.826349 -107.628014 
L 230.949509 -105.765168 
L 230.041061 -103.902321 
L 229.098225 -102.039474 
L 228.117624 -100.176628 
L 227.097046 -98.313781 
L 226.036851 -96.450935 
L 224.940837 -94.588088 
L 223.816449 -92.725242 
L 222.674353 -90.862395 
L 221.527503 -88.999548 
L 220.389855 -87.136702 
L 219.274971 -85.273855 
L 218.194685 -83.411009 
L 217.158022 -81.548162 
L 216.170499 -79.685315 
L 215.233873 -77.822469 
L 214.346359 -75.959622 
L 213.503278 -74.096776 
L 212.698041 -72.233929 
L 211.923331 -70.371082 
L 211.172333 -68.508236 
L 210.43982 -66.645389 
L 209.722966 -64.782543 
L 209.021762 -62.919696 
L 208.339003 -61.056849 
L 207.679863 -59.194003 
L 207.051141 -57.331156 
L 206.460325 -55.46831 
L 205.914608 -53.605463 
L 205.420011 -51.742616 
L 204.980728 -49.87977 
L 204.598746 -48.016923 
L 204.273759 -46.154077 
L 204.003354 -44.29123 
L 203.783389 -42.428384 
L 203.608485 -40.565537 
L 203.472562 -38.70269 
L 203.369333 -36.839844 
z
" style="stroke: #4c4c4c; stroke-width: 0.5"/>
    </defs>
    <g clip-path="url(#pcac0fad9a6)">
     <use xlink:href="#mfb596f877e" x="0" y="255.719844" style="fill: #df8920; stroke: #4c4c4c; stroke-width: 0.5"/>
    </g>
   </g>
   <g id="line2d_1">
    <path d="M 118.574148 158.197657 
L 118.574148 49.274083 
" clip-path="url(#pcac0fad9a6)" style="fill: none; stroke: #4c4c4c; stroke-width: 0.75; stroke-linecap: round"/>
   </g>
   <g id="line2d_2">
    <path d="M 118.574148 126.782842 
L 118.574148 94.286142 
" clip-path="url(#pcac0fad9a6)" style="fill: none; stroke: #4c4c4c; stroke-width: 2.25; stroke-linecap: round"/>
   </g>
   <g id="line2d_3">
    <path d="M 118.574148 111.150492 
" clip-path="url(#pcac0fad9a6)" style="fill: none; stroke: #4c4c4c; stroke-width: 1.5; stroke-linecap: round"/>
    <defs>
     <path id="m436bf903fc" d="M 0.9375 0 
L -0.9375 -0 
" style="stroke: #ffffff; stroke-width: 0.45"/>
    </defs>
    <g clip-path="url(#pcac0fad9a6)">
     <use xlink:href="#m436bf903fc" x="118.574148" y="111.150492" style="fill: #ffffff; stroke: #ffffff; stroke-width: 0.45"/>
    </g>
   </g>
   <g id="line2d_4">
    <path d="M 203.119602 194.661785 
L 203.119602 58.676403 
" clip-path="url(#pcac0fad9a6)" style="fill: none; stroke: #4c4c4c; stroke-width: 0.75; stroke-linecap: round"/>
   </g>
   <g id="line2d_5">
    <path d="M 203.119602 153.574407 
L 203.119602 109.136348 
" clip-path="url(#pcac0fad9a6)" style="fill: none; stroke: #4c4c4c; stroke-width: 2.25; stroke-linecap: round"/>
   </g>
   <g id="line2d_6">
    <path d="M 203.119602 130.874075 
" clip-path="url(#pcac0fad9a6)" style="fill: none; stroke: #4c4c4c; stroke-width: 1.5; stroke-linecap: round"/>
    <g clip-path="url(#pcac0fad9a6)">
     <use xlink:href="#m436bf903fc" x="203.119602" y="130.874075" style="fill: #ffffff; stroke: #ffffff; stroke-width: 0.45"/>
    </g>
   </g>
   <g id="line2d_7">
    <path d="M 118.574148 35.968483 
L 118.574148 31.533283 
L 203.119602 31.533283 
L 203.119602 35.968483 
" style="fill: none; stroke: #333333; stroke-width: 0.5; stroke-linecap: round"/>
   </g>
   <g id="patch_3">
    <path d="M 77.146875 228.96 
L 77.146875 7.2 
" style="fill: none; stroke: #262626; stroke-width: 1.25; stroke-linejoin: miter; stroke-linecap: square"/>
   </g>
   <g id="patch_4">
    <path d="M 77.146875 228.96 
L 244.546875 228.96 
" style="fill: none; stroke: #262626; stroke-width: 1.25; stroke-linejoin: miter; stroke-linecap: square"/>
   </g>
   <g id="text_9">
    <!-- **** -->
    <g style="fill: #262626" transform="translate(151.505625 28.148283) scale(0.12 -0.12)">
     <defs>
      <path id="ArialMT-2a" d="M 200 3741 
L 344 4184 
Q 841 4009 1066 3881 
Q 1006 4447 1003 4659 
L 1456 4659 
Q 1447 4350 1384 3884 
Q 1706 4047 2122 4184 
L 2266 3741 
Q 1869 3609 1488 3566 
Q 1678 3400 2025 2975 
L 1650 2709 
Q 1469 2956 1222 3381 
Q 991 2941 816 2709 
L 447 2975 
Q 809 3422 966 3566 
Q 563 3644 200 3741 
z
" transform="scale(0.015625)"/>
     </defs>
     <use xlink:href="#ArialMT-2a"/>
     <use xlink:href="#ArialMT-2a" x="38.916016"/>
     <use xlink:href="#ArialMT-2a" x="77.832031"/>
     <use xlink:href="#ArialMT-2a" x="116.748047"/>
    </g>
   </g>
  </g>
 </g>
 <defs>
  <clipPath id="pcac0fad9a6">
   <rect x="77.146875" y="7.2" width="167.4" height="221.76"/>
  </clipPath>
 </defs>
</svg>
