<?xml version="1.0" encoding="utf-8" standalone="no"?>
<!DOCTYPE svg PUBLIC "-//W3C//DTD SVG 1.1//EN"
  "http://www.w3.org/Graphics/SVG/1.1/DTD/svg11.dtd">
<svg xmlns:xlink="http://www.w3.org/1999/xlink" width="155.905512pt" height="113.385827pt" viewBox="0 0 155.905512 113.385827" xmlns="http://www.w3.org/2000/svg" version="1.1">
 <metadata>
  <rdf:RDF xmlns:dc="http://purl.org/dc/elements/1.1/" xmlns:cc="http://creativecommons.org/ns#" xmlns:rdf="http://www.w3.org/1999/02/22-rdf-syntax-ns#">
   <cc:Work>
    <dc:type rdf:resource="http://purl.org/dc/dcmitype/StillImage"/>
    <dc:date>2024-12-20T15:33:46.021318</dc:date>
    <dc:format>image/svg+xml</dc:format>
    <dc:creator>
     <cc:Agent>
      <dc:title>Matplotlib v3.9.2, https://matplotlib.org/</dc:title>
     </cc:Agent>
    </dc:creator>
   </cc:Work>
  </rdf:RDF>
 </metadata>
 <defs>
  <style type="text/css">*{stroke-linejoin: round; stroke-linecap: butt}</style>
 </defs>
 <g id="figure_1">
  <g id="patch_1">
   <path d="M 0 113.385827 
L 155.905512 113.385827 
L 155.905512 0 
L 0 0 
z
" style="fill: #ffffff"/>
  </g>
  <g id="axes_1">
   <g id="patch_2">
    <path d="M 26.8075 89.218327 
L 150.505512 89.218327 
L 150.505512 5.4 
L 26.8075 5.4 
z
" style="fill: #ffffff"/>
   </g>
   <g id="PathCollection_1">
    <defs>
     <path id="C0_0_c613a3c280" d="M 0 0.866025 
C 0.229673 0.866025 0.449969 0.774776 0.612372 0.612372 
C 0.774776 0.449969 0.866025 0.229673 0.866025 -0 
C 0.866025 -0.229673 0.774776 -0.449969 0.612372 -0.612372 
C 0.449969 -0.774776 0.229673 -0.866025 0 -0.866025 
C -0.229673 -0.866025 -0.449969 -0.774776 -0.612372 -0.612372 
C -0.774776 -0.449969 -0.866025 -0.229673 -0.866025 0 
C -0.866025 0.229673 -0.774776 0.449969 -0.612372 0.612372 
C -0.449969 0.774776 -0.229673 0.866025 0 0.866025 
z
"/>
    </defs>
    <g clip-path="url(#pd3d30233dc)">
     <use xlink:href="#C0_0_c613a3c280" x="88.656506" y="38.549041" style="fill: #ff8c00; fill-opacity: 0.8"/>
    </g>
    <g clip-path="url(#pd3d30233dc)">
     <use xlink:href="#C0_0_c613a3c280" x="88.656506" y="67.579737" style="fill: #ff8c00; fill-opacity: 0.8"/>
    </g>
    <g clip-path="url(#pd3d30233dc)">
     <use xlink:href="#C0_0_c613a3c280" x="144.882875" y="18.831758" style="fill: #ff8c00; fill-opacity: 0.8"/>
    </g>
    <g clip-path="url(#pd3d30233dc)">
     <use xlink:href="#C0_0_c613a3c280" x="88.656506" y="31.039479" style="fill: #ff8c00; fill-opacity: 0.8"/>
    </g>
    <g clip-path="url(#pd3d30233dc)">
     <use xlink:href="#C0_0_c613a3c280" x="144.882875" y="71.193533" style="fill: #ff8c00; fill-opacity: 0.8"/>
    </g>
    <g clip-path="url(#pd3d30233dc)">
     <use xlink:href="#C0_0_c613a3c280" x="32.430137" y="60.828671" style="fill: #ff8c00; fill-opacity: 0.8"/>
    </g>
    <g clip-path="url(#pd3d30233dc)">
     <use xlink:href="#C0_0_c613a3c280" x="144.882875" y="82.334428" style="fill: #ff8c00; fill-opacity: 0.8"/>
    </g>
    <g clip-path="url(#pd3d30233dc)">
     <use xlink:href="#C0_0_c613a3c280" x="88.656506" y="62.556985" style="fill: #ff8c00; fill-opacity: 0.8"/>
    </g>
    <g clip-path="url(#pd3d30233dc)">
     <use xlink:href="#C0_0_c613a3c280" x="88.656506" y="73.322386" style="fill: #ff8c00; fill-opacity: 0.8"/>
    </g>
    <g clip-path="url(#pd3d30233dc)">
     <use xlink:href="#C0_0_c613a3c280" x="32.430137" y="9.209924" style="fill: #ff8c00; fill-opacity: 0.8"/>
    </g>
    <g clip-path="url(#pd3d30233dc)">
     <use xlink:href="#C0_0_c613a3c280" x="32.430137" y="76.478381" style="fill: #ff8c00; fill-opacity: 0.8"/>
    </g>
    <g clip-path="url(#pd3d30233dc)">
     <use xlink:href="#C0_0_c613a3c280" x="88.656506" y="45.989134" style="fill: #ff8c00; fill-opacity: 0.8"/>
    </g>
    <g clip-path="url(#pd3d30233dc)">
     <use xlink:href="#C0_0_c613a3c280" x="88.656506" y="37.760296" style="fill: #ff8c00; fill-opacity: 0.8"/>
    </g>
    <g clip-path="url(#pd3d30233dc)">
     <use xlink:href="#C0_0_c613a3c280" x="88.656506" y="18.711674" style="fill: #ff8c00; fill-opacity: 0.8"/>
    </g>
    <g clip-path="url(#pd3d30233dc)">
     <use xlink:href="#C0_0_c613a3c280" x="32.430137" y="70.822999" style="fill: #ff8c00; fill-opacity: 0.8"/>
    </g>
    <g clip-path="url(#pd3d30233dc)">
     <use xlink:href="#C0_0_c613a3c280" x="32.430137" y="35.548417" style="fill: #ff8c00; fill-opacity: 0.8"/>
    </g>
    <g clip-path="url(#pd3d30233dc)">
     <use xlink:href="#C0_0_c613a3c280" x="32.430137" y="41.997536" style="fill: #ff8c00; fill-opacity: 0.8"/>
    </g>
    <g clip-path="url(#pd3d30233dc)">
     <use xlink:href="#C0_0_c613a3c280" x="32.430137" y="41.774366" style="fill: #ff8c00; fill-opacity: 0.8"/>
    </g>
    <g clip-path="url(#pd3d30233dc)">
     <use xlink:href="#C0_0_c613a3c280" x="88.656506" y="79.013349" style="fill: #ff8c00; fill-opacity: 0.8"/>
    </g>
    <g clip-path="url(#pd3d30233dc)">
     <use xlink:href="#C0_0_c613a3c280" x="32.430137" y="56.671331" style="fill: #ff8c00; fill-opacity: 0.8"/>
    </g>
    <g clip-path="url(#pd3d30233dc)">
     <use xlink:href="#C0_0_c613a3c280" x="88.656506" y="84.183381" style="fill: #ff8c00; fill-opacity: 0.8"/>
    </g>
    <g clip-path="url(#pd3d30233dc)">
     <use xlink:href="#C0_0_c613a3c280" x="88.656506" y="75.942957" style="fill: #ff8c00; fill-opacity: 0.8"/>
    </g>
    <g clip-path="url(#pd3d30233dc)">
     <use xlink:href="#C0_0_c613a3c280" x="144.882875" y="49.383292" style="fill: #ff8c00; fill-opacity: 0.8"/>
    </g>
    <g clip-path="url(#pd3d30233dc)">
     <use xlink:href="#C0_0_c613a3c280" x="144.882875" y="44.488847" style="fill: #ff8c00; fill-opacity: 0.8"/>
    </g>
    <g clip-path="url(#pd3d30233dc)">
     <use xlink:href="#C0_0_c613a3c280" x="88.656506" y="70.856861" style="fill: #ff8c00; fill-opacity: 0.8"/>
    </g>
    <g clip-path="url(#pd3d30233dc)">
     <use xlink:href="#C0_0_c613a3c280" x="88.656506" y="53.14663" style="fill: #ff8c00; fill-opacity: 0.8"/>
    </g>
    <g clip-path="url(#pd3d30233dc)">
     <use xlink:href="#C0_0_c613a3c280" x="88.656506" y="42.156592" style="fill: #ff8c00; fill-opacity: 0.8"/>
    </g>
    <g clip-path="url(#pd3d30233dc)">
     <use xlink:href="#C0_0_c613a3c280" x="32.430137" y="14.121355" style="fill: #ff8c00; fill-opacity: 0.8"/>
    </g>
    <g clip-path="url(#pd3d30233dc)">
     <use xlink:href="#C0_0_c613a3c280" x="88.656506" y="82.282895" style="fill: #ff8c00; fill-opacity: 0.8"/>
    </g>
    <g clip-path="url(#pd3d30233dc)">
     <use xlink:href="#C0_0_c613a3c280" x="144.882875" y="83.880488" style="fill: #ff8c00; fill-opacity: 0.8"/>
    </g>
    <g clip-path="url(#pd3d30233dc)">
     <use xlink:href="#C0_0_c613a3c280" x="88.656506" y="46.11206" style="fill: #ff8c00; fill-opacity: 0.8"/>
    </g>
    <g clip-path="url(#pd3d30233dc)">
     <use xlink:href="#C0_0_c613a3c280" x="88.656506" y="34.078249" style="fill: #ff8c00; fill-opacity: 0.8"/>
    </g>
    <g clip-path="url(#pd3d30233dc)">
     <use xlink:href="#C0_0_c613a3c280" x="144.882875" y="37.302347" style="fill: #ff8c00; fill-opacity: 0.8"/>
    </g>
    <g clip-path="url(#pd3d30233dc)">
     <use xlink:href="#C0_0_c613a3c280" x="88.656506" y="76.985827" style="fill: #ff8c00; fill-opacity: 0.8"/>
    </g>
    <g clip-path="url(#pd3d30233dc)">
     <use xlink:href="#C0_0_c613a3c280" x="88.656506" y="55.258143" style="fill: #ff8c00; fill-opacity: 0.8"/>
    </g>
    <g clip-path="url(#pd3d30233dc)">
     <use xlink:href="#C0_0_c613a3c280" x="88.656506" y="70.907626" style="fill: #ff8c00; fill-opacity: 0.8"/>
    </g>
    <g clip-path="url(#pd3d30233dc)">
     <use xlink:href="#C0_0_c613a3c280" x="88.656506" y="82.208845" style="fill: #ff8c00; fill-opacity: 0.8"/>
    </g>
    <g clip-path="url(#pd3d30233dc)">
     <use xlink:href="#C0_0_c613a3c280" x="144.882875" y="28.832486" style="fill: #ff8c00; fill-opacity: 0.8"/>
    </g>
    <g clip-path="url(#pd3d30233dc)">
     <use xlink:href="#C0_0_c613a3c280" x="88.656506" y="75.819233" style="fill: #ff8c00; fill-opacity: 0.8"/>
    </g>
    <g clip-path="url(#pd3d30233dc)">
     <use xlink:href="#C0_0_c613a3c280" x="144.882875" y="46.470302" style="fill: #ff8c00; fill-opacity: 0.8"/>
    </g>
    <g clip-path="url(#pd3d30233dc)">
     <use xlink:href="#C0_0_c613a3c280" x="88.656506" y="34.42132" style="fill: #ff8c00; fill-opacity: 0.8"/>
    </g>
    <g clip-path="url(#pd3d30233dc)">
     <use xlink:href="#C0_0_c613a3c280" x="88.656506" y="76.172982" style="fill: #ff8c00; fill-opacity: 0.8"/>
    </g>
    <g clip-path="url(#pd3d30233dc)">
     <use xlink:href="#C0_0_c613a3c280" x="144.882875" y="76.395025" style="fill: #ff8c00; fill-opacity: 0.8"/>
    </g>
    <g clip-path="url(#pd3d30233dc)">
     <use xlink:href="#C0_0_c613a3c280" x="144.882875" y="40.758771" style="fill: #ff8c00; fill-opacity: 0.8"/>
    </g>
    <g clip-path="url(#pd3d30233dc)">
     <use xlink:href="#C0_0_c613a3c280" x="32.430137" y="28.07001" style="fill: #ff8c00; fill-opacity: 0.8"/>
    </g>
    <g clip-path="url(#pd3d30233dc)">
     <use xlink:href="#C0_0_c613a3c280" x="88.656506" y="85.219959" style="fill: #ff8c00; fill-opacity: 0.8"/>
    </g>
    <g clip-path="url(#pd3d30233dc)">
     <use xlink:href="#C0_0_c613a3c280" x="88.656506" y="72.033987" style="fill: #ff8c00; fill-opacity: 0.8"/>
    </g>
    <g clip-path="url(#pd3d30233dc)">
     <use xlink:href="#C0_0_c613a3c280" x="88.656506" y="42.699265" style="fill: #ff8c00; fill-opacity: 0.8"/>
    </g>
    <g clip-path="url(#pd3d30233dc)">
     <use xlink:href="#C0_0_c613a3c280" x="144.882875" y="55.270881" style="fill: #ff8c00; fill-opacity: 0.8"/>
    </g>
    <g clip-path="url(#pd3d30233dc)">
     <use xlink:href="#C0_0_c613a3c280" x="32.430137" y="38.022458" style="fill: #ff8c00; fill-opacity: 0.8"/>
    </g>
    <g clip-path="url(#pd3d30233dc)">
     <use xlink:href="#C0_0_c613a3c280" x="144.882875" y="25.699809" style="fill: #ff8c00; fill-opacity: 0.8"/>
    </g>
    <g clip-path="url(#pd3d30233dc)">
     <use xlink:href="#C0_0_c613a3c280" x="144.882875" y="83.135253" style="fill: #ff8c00; fill-opacity: 0.8"/>
    </g>
    <g clip-path="url(#pd3d30233dc)">
     <use xlink:href="#C0_0_c613a3c280" x="144.882875" y="85.408403" style="fill: #ff8c00; fill-opacity: 0.8"/>
    </g>
    <g clip-path="url(#pd3d30233dc)">
     <use xlink:href="#C0_0_c613a3c280" x="144.882875" y="85.37176" style="fill: #ff8c00; fill-opacity: 0.8"/>
    </g>
    <g clip-path="url(#pd3d30233dc)">
     <use xlink:href="#C0_0_c613a3c280" x="32.430137" y="24.842497" style="fill: #ff8c00; fill-opacity: 0.8"/>
    </g>
    <g clip-path="url(#pd3d30233dc)">
     <use xlink:href="#C0_0_c613a3c280" x="88.656506" y="78.243526" style="fill: #ff8c00; fill-opacity: 0.8"/>
    </g>
    <g clip-path="url(#pd3d30233dc)">
     <use xlink:href="#C0_0_c613a3c280" x="32.430137" y="56.53969" style="fill: #ff8c00; fill-opacity: 0.8"/>
    </g>
    <g clip-path="url(#pd3d30233dc)">
     <use xlink:href="#C0_0_c613a3c280" x="32.430137" y="32.169247" style="fill: #ff8c00; fill-opacity: 0.8"/>
    </g>
    <g clip-path="url(#pd3d30233dc)">
     <use xlink:href="#C0_0_c613a3c280" x="88.656506" y="75.616249" style="fill: #ff8c00; fill-opacity: 0.8"/>
    </g>
    <g clip-path="url(#pd3d30233dc)">
     <use xlink:href="#C0_0_c613a3c280" x="32.430137" y="71.584482" style="fill: #ff8c00; fill-opacity: 0.8"/>
    </g>
    <g clip-path="url(#pd3d30233dc)">
     <use xlink:href="#C0_0_c613a3c280" x="32.430137" y="56.534867" style="fill: #ff8c00; fill-opacity: 0.8"/>
    </g>
    <g clip-path="url(#pd3d30233dc)">
     <use xlink:href="#C0_0_c613a3c280" x="88.656506" y="78.768881" style="fill: #ff8c00; fill-opacity: 0.8"/>
    </g>
    <g clip-path="url(#pd3d30233dc)">
     <use xlink:href="#C0_0_c613a3c280" x="32.430137" y="44.81864" style="fill: #ff8c00; fill-opacity: 0.8"/>
    </g>
    <g clip-path="url(#pd3d30233dc)">
     <use xlink:href="#C0_0_c613a3c280" x="144.882875" y="76.465019" style="fill: #ff8c00; fill-opacity: 0.8"/>
    </g>
    <g clip-path="url(#pd3d30233dc)">
     <use xlink:href="#C0_0_c613a3c280" x="88.656506" y="29.002444" style="fill: #ff8c00; fill-opacity: 0.8"/>
    </g>
    <g clip-path="url(#pd3d30233dc)">
     <use xlink:href="#C0_0_c613a3c280" x="144.882875" y="50.19208" style="fill: #ff8c00; fill-opacity: 0.8"/>
    </g>
    <g clip-path="url(#pd3d30233dc)">
     <use xlink:href="#C0_0_c613a3c280" x="88.656506" y="16.114734" style="fill: #ff8c00; fill-opacity: 0.8"/>
    </g>
    <g clip-path="url(#pd3d30233dc)">
     <use xlink:href="#C0_0_c613a3c280" x="32.430137" y="42.838845" style="fill: #ff8c00; fill-opacity: 0.8"/>
    </g>
    <g clip-path="url(#pd3d30233dc)">
     <use xlink:href="#C0_0_c613a3c280" x="144.882875" y="81.036134" style="fill: #ff8c00; fill-opacity: 0.8"/>
    </g>
    <g clip-path="url(#pd3d30233dc)">
     <use xlink:href="#C0_0_c613a3c280" x="32.430137" y="70.985312" style="fill: #ff8c00; fill-opacity: 0.8"/>
    </g>
    <g clip-path="url(#pd3d30233dc)">
     <use xlink:href="#C0_0_c613a3c280" x="144.882875" y="18.004769" style="fill: #ff8c00; fill-opacity: 0.8"/>
    </g>
    <g clip-path="url(#pd3d30233dc)">
     <use xlink:href="#C0_0_c613a3c280" x="32.430137" y="59.901969" style="fill: #ff8c00; fill-opacity: 0.8"/>
    </g>
    <g clip-path="url(#pd3d30233dc)">
     <use xlink:href="#C0_0_c613a3c280" x="144.882875" y="14.651594" style="fill: #ff8c00; fill-opacity: 0.8"/>
    </g>
    <g clip-path="url(#pd3d30233dc)">
     <use xlink:href="#C0_0_c613a3c280" x="88.656506" y="74.007563" style="fill: #ff8c00; fill-opacity: 0.8"/>
    </g>
    <g clip-path="url(#pd3d30233dc)">
     <use xlink:href="#C0_0_c613a3c280" x="144.882875" y="64.106474" style="fill: #ff8c00; fill-opacity: 0.8"/>
    </g>
    <g clip-path="url(#pd3d30233dc)">
     <use xlink:href="#C0_0_c613a3c280" x="32.430137" y="56.821852" style="fill: #ff8c00; fill-opacity: 0.8"/>
    </g>
    <g clip-path="url(#pd3d30233dc)">
     <use xlink:href="#C0_0_c613a3c280" x="144.882875" y="79.968935" style="fill: #ff8c00; fill-opacity: 0.8"/>
    </g>
    <g clip-path="url(#pd3d30233dc)">
     <use xlink:href="#C0_0_c613a3c280" x="88.656506" y="60.630408" style="fill: #ff8c00; fill-opacity: 0.8"/>
    </g>
    <g clip-path="url(#pd3d30233dc)">
     <use xlink:href="#C0_0_c613a3c280" x="32.430137" y="52.264473" style="fill: #ff8c00; fill-opacity: 0.8"/>
    </g>
    <g clip-path="url(#pd3d30233dc)">
     <use xlink:href="#C0_0_c613a3c280" x="88.656506" y="80.647913" style="fill: #ff8c00; fill-opacity: 0.8"/>
    </g>
    <g clip-path="url(#pd3d30233dc)">
     <use xlink:href="#C0_0_c613a3c280" x="88.656506" y="48.280248" style="fill: #ff8c00; fill-opacity: 0.8"/>
    </g>
    <g clip-path="url(#pd3d30233dc)">
     <use xlink:href="#C0_0_c613a3c280" x="88.656506" y="38.894531" style="fill: #ff8c00; fill-opacity: 0.8"/>
    </g>
    <g clip-path="url(#pd3d30233dc)">
     <use xlink:href="#C0_0_c613a3c280" x="144.882875" y="70.15567" style="fill: #ff8c00; fill-opacity: 0.8"/>
    </g>
    <g clip-path="url(#pd3d30233dc)">
     <use xlink:href="#C0_0_c613a3c280" x="32.430137" y="14.45597" style="fill: #ff8c00; fill-opacity: 0.8"/>
    </g>
    <g clip-path="url(#pd3d30233dc)">
     <use xlink:href="#C0_0_c613a3c280" x="88.656506" y="73.216042" style="fill: #ff8c00; fill-opacity: 0.8"/>
    </g>
    <g clip-path="url(#pd3d30233dc)">
     <use xlink:href="#C0_0_c613a3c280" x="144.882875" y="83.733916" style="fill: #ff8c00; fill-opacity: 0.8"/>
    </g>
    <g clip-path="url(#pd3d30233dc)">
     <use xlink:href="#C0_0_c613a3c280" x="144.882875" y="73.652767" style="fill: #ff8c00; fill-opacity: 0.8"/>
    </g>
    <g clip-path="url(#pd3d30233dc)">
     <use xlink:href="#C0_0_c613a3c280" x="144.882875" y="61.712637" style="fill: #ff8c00; fill-opacity: 0.8"/>
    </g>
    <g clip-path="url(#pd3d30233dc)">
     <use xlink:href="#C0_0_c613a3c280" x="32.430137" y="71.378452" style="fill: #ff8c00; fill-opacity: 0.8"/>
    </g>
    <g clip-path="url(#pd3d30233dc)">
     <use xlink:href="#C0_0_c613a3c280" x="88.656506" y="64.631547" style="fill: #ff8c00; fill-opacity: 0.8"/>
    </g>
    <g clip-path="url(#pd3d30233dc)">
     <use xlink:href="#C0_0_c613a3c280" x="32.430137" y="10.088282" style="fill: #ff8c00; fill-opacity: 0.8"/>
    </g>
    <g clip-path="url(#pd3d30233dc)">
     <use xlink:href="#C0_0_c613a3c280" x="88.656506" y="24.534882" style="fill: #ff8c00; fill-opacity: 0.8"/>
    </g>
    <g clip-path="url(#pd3d30233dc)">
     <use xlink:href="#C0_0_c613a3c280" x="144.882875" y="20.906273" style="fill: #ff8c00; fill-opacity: 0.8"/>
    </g>
    <g clip-path="url(#pd3d30233dc)">
     <use xlink:href="#C0_0_c613a3c280" x="32.430137" y="56.050092" style="fill: #ff8c00; fill-opacity: 0.8"/>
    </g>
    <g clip-path="url(#pd3d30233dc)">
     <use xlink:href="#C0_0_c613a3c280" x="88.656506" y="14.55533" style="fill: #ff8c00; fill-opacity: 0.8"/>
    </g>
    <g clip-path="url(#pd3d30233dc)">
     <use xlink:href="#C0_0_c613a3c280" x="88.656506" y="77.694456" style="fill: #ff8c00; fill-opacity: 0.8"/>
    </g>
   </g>
   <g id="PolyCollection_1">
    <path d="M 32.430137 41.898456 
L 32.430137 55.98313 
L 33.566023 56.022939 
L 34.701909 56.047512 
L 35.837796 56.071497 
L 36.973682 56.097169 
L 38.109568 56.122556 
L 39.245454 56.141177 
L 40.381341 56.161054 
L 41.517227 56.197483 
L 42.653113 56.208803 
L 43.788999 56.245336 
L 44.924886 56.27945 
L 46.060772 56.325527 
L 47.196658 56.360388 
L 48.332544 56.402691 
L 49.468431 56.438295 
L 50.604317 56.466126 
L 51.740203 56.502732 
L 52.876089 56.541056 
L 54.011976 56.603722 
L 55.147862 56.647335 
L 56.283748 56.678894 
L 57.419634 56.721162 
L 58.55552 56.75581 
L 59.691407 56.82079 
L 60.827293 56.8738 
L 61.963179 56.914808 
L 63.099065 57.000922 
L 64.234952 57.043224 
L 65.370838 57.098589 
L 66.506724 57.170405 
L 67.64261 57.241713 
L 68.778497 57.304173 
L 69.914383 57.390224 
L 71.050269 57.442378 
L 72.186155 57.517183 
L 73.322042 57.589244 
L 74.457928 57.653157 
L 75.593814 57.728919 
L 76.7297 57.83377 
L 77.865587 57.92042 
L 79.001473 58.024298 
L 80.137359 58.122279 
L 81.273245 58.222923 
L 82.409132 58.320568 
L 83.545018 58.411071 
L 84.680904 58.542391 
L 85.81679 58.673793 
L 86.952677 58.797156 
L 88.088563 58.885476 
L 89.224449 58.99017 
L 90.360335 59.094703 
L 91.496222 59.22193 
L 92.632108 59.355291 
L 93.767994 59.510004 
L 94.90388 59.642321 
L 96.039766 59.789592 
L 97.175653 59.946828 
L 98.311539 60.0987 
L 99.447425 60.255475 
L 100.583311 60.415198 
L 101.719198 60.561919 
L 102.855084 60.727745 
L 103.99097 60.914589 
L 105.126856 61.099751 
L 106.262743 61.263901 
L 107.398629 61.438048 
L 108.534515 61.617176 
L 109.670401 61.804032 
L 110.806288 61.979904 
L 111.942174 62.185025 
L 113.07806 62.379291 
L 114.213946 62.566479 
L 115.349833 62.757428 
L 116.485719 62.943523 
L 117.621605 63.13438 
L 118.757491 63.318177 
L 119.893378 63.497603 
L 121.029264 63.674575 
L 122.16515 63.872157 
L 123.301036 64.074999 
L 124.436923 64.2654 
L 125.572809 64.472932 
L 126.708695 64.677117 
L 127.844581 64.877737 
L 128.980468 65.07297 
L 130.116354 65.278664 
L 131.25224 65.473929 
L 132.388126 65.677708 
L 133.524012 65.876913 
L 134.659899 66.078096 
L 135.795785 66.279958 
L 136.931671 66.480168 
L 138.067557 66.688015 
L 139.203444 66.909546 
L 140.33933 67.103999 
L 141.475216 67.325667 
L 142.611102 67.539981 
L 143.746989 67.740707 
L 144.882875 67.965613 
L 144.882875 52.441477 
L 144.882875 52.441477 
L 143.746989 52.436912 
L 142.611102 52.410976 
L 141.475216 52.400256 
L 140.33933 52.366123 
L 139.203444 52.325387 
L 138.067557 52.294122 
L 136.931671 52.264566 
L 135.795785 52.242224 
L 134.659899 52.227998 
L 133.524012 52.210451 
L 132.388126 52.208892 
L 131.25224 52.181104 
L 130.116354 52.162012 
L 128.980468 52.144995 
L 127.844581 52.124279 
L 126.708695 52.110224 
L 125.572809 52.101585 
L 124.436923 52.061432 
L 123.301036 52.044705 
L 122.16515 52.029571 
L 121.029264 51.983807 
L 119.893378 51.942779 
L 118.757491 51.927648 
L 117.621605 51.885642 
L 116.485719 51.854209 
L 115.349833 51.821593 
L 114.213946 51.777004 
L 113.07806 51.74062 
L 111.942174 51.688461 
L 110.806288 51.636601 
L 109.670401 51.574031 
L 108.534515 51.523694 
L 107.398629 51.483446 
L 106.262743 51.419009 
L 105.126856 51.370763 
L 103.99097 51.299273 
L 102.855084 51.262115 
L 101.719198 51.21256 
L 100.583311 51.137927 
L 99.447425 51.074844 
L 98.311539 50.990308 
L 97.175653 50.908939 
L 96.039766 50.828797 
L 94.90388 50.755428 
L 93.767994 50.672748 
L 92.632108 50.582569 
L 91.496222 50.490934 
L 90.360335 50.397834 
L 89.224449 50.299131 
L 88.088563 50.186007 
L 86.952677 50.085079 
L 85.81679 49.962217 
L 84.680904 49.857192 
L 83.545018 49.734828 
L 82.409132 49.625558 
L 81.273245 49.510418 
L 80.137359 49.383284 
L 79.001473 49.245615 
L 77.865587 49.117317 
L 76.7297 48.982907 
L 75.593814 48.833065 
L 74.457928 48.689707 
L 73.322042 48.554077 
L 72.186155 48.391876 
L 71.050269 48.233805 
L 69.914383 48.086461 
L 68.778497 47.915124 
L 67.64261 47.757584 
L 66.506724 47.559295 
L 65.370838 47.390843 
L 64.234952 47.23029 
L 63.099065 47.058529 
L 61.963179 46.865215 
L 60.827293 46.710482 
L 59.691407 46.508712 
L 58.55552 46.328378 
L 57.419634 46.142204 
L 56.283748 45.978853 
L 55.147862 45.792357 
L 54.011976 45.598241 
L 52.876089 45.421144 
L 51.740203 45.239553 
L 50.604317 45.067883 
L 49.468431 44.883103 
L 48.332544 44.706408 
L 47.196658 44.515953 
L 46.060772 44.312222 
L 44.924886 44.101505 
L 43.788999 43.902964 
L 42.653113 43.730827 
L 41.517227 43.533471 
L 40.381341 43.363668 
L 39.245454 43.157171 
L 38.109568 42.955406 
L 36.973682 42.734718 
L 35.837796 42.542585 
L 34.701909 42.325393 
L 33.566023 42.122435 
L 32.430137 41.898456 
z
" clip-path="url(#pd3d30233dc)" style="fill: #ff8c00; fill-opacity: 0.15"/>
   </g>
   <g id="matplotlib.axis_1">
    <g id="xtick_1">
     <g id="line2d_1">
      <defs>
       <path id="m55a7dd2c6c" d="M 0 0 
L 0 3.5 
" style="stroke: #000000; stroke-width: 0.25"/>
      </defs>
      <g>
       <use xlink:href="#m55a7dd2c6c" x="32.430137" y="89.218327" style="stroke: #000000; stroke-width: 0.25"/>
      </g>
     </g>
     <g id="text_1">
      <!-- high -->
      <g transform="translate(27.703965 97.297233) scale(0.05 -0.05)">
       <defs>
        <path id="ArialMT-68" d="M 422 0 
L 422 4581 
L 984 4581 
L 984 2938 
Q 1378 3394 1978 3394 
Q 2347 3394 2619 3248 
Q 2891 3103 3008 2847 
Q 3125 2591 3125 2103 
L 3125 0 
L 2563 0 
L 2563 2103 
Q 2563 2525 2380 2717 
Q 2197 2909 1863 2909 
Q 1613 2909 1392 2779 
Q 1172 2650 1078 2428 
Q 984 2206 984 1816 
L 984 0 
L 422 0 
z
" transform="scale(0.015625)"/>
        <path id="ArialMT-69" d="M 425 3934 
L 425 4581 
L 988 4581 
L 988 3934 
L 425 3934 
z
M 425 0 
L 425 3319 
L 988 3319 
L 988 0 
L 425 0 
z
" transform="scale(0.015625)"/>
        <path id="ArialMT-67" d="M 319 -275 
L 866 -356 
Q 900 -609 1056 -725 
Q 1266 -881 1628 -881 
Q 2019 -881 2231 -725 
Q 2444 -569 2519 -288 
Q 2563 -116 2559 434 
Q 2191 0 1641 0 
Q 956 0 581 494 
Q 206 988 206 1678 
Q 206 2153 378 2554 
Q 550 2956 876 3175 
Q 1203 3394 1644 3394 
Q 2231 3394 2613 2919 
L 2613 3319 
L 3131 3319 
L 3131 450 
Q 3131 -325 2973 -648 
Q 2816 -972 2473 -1159 
Q 2131 -1347 1631 -1347 
Q 1038 -1347 672 -1080 
Q 306 -813 319 -275 
z
M 784 1719 
Q 784 1066 1043 766 
Q 1303 466 1694 466 
Q 2081 466 2343 764 
Q 2606 1063 2606 1700 
Q 2606 2309 2336 2618 
Q 2066 2928 1684 2928 
Q 1309 2928 1046 2623 
Q 784 2319 784 1719 
z
" transform="scale(0.015625)"/>
       </defs>
       <use xlink:href="#ArialMT-68"/>
       <use xlink:href="#ArialMT-69" x="55.615234"/>
       <use xlink:href="#ArialMT-67" x="77.832031"/>
       <use xlink:href="#ArialMT-68" x="133.447266"/>
      </g>
     </g>
    </g>
    <g id="xtick_2">
     <g id="line2d_2">
      <g>
       <use xlink:href="#m55a7dd2c6c" x="88.656506" y="89.218327" style="stroke: #000000; stroke-width: 0.25"/>
      </g>
     </g>
     <g id="text_2">
      <!-- middle -->
      <g transform="translate(81.292443 97.297233) scale(0.05 -0.05)">
       <defs>
        <path id="ArialMT-6d" d="M 422 0 
L 422 3319 
L 925 3319 
L 925 2853 
Q 1081 3097 1340 3245 
Q 1600 3394 1931 3394 
Q 2300 3394 2536 3241 
Q 2772 3088 2869 2813 
Q 3263 3394 3894 3394 
Q 4388 3394 4653 3120 
Q 4919 2847 4919 2278 
L 4919 0 
L 4359 0 
L 4359 2091 
Q 4359 2428 4304 2576 
Q 4250 2725 4106 2815 
Q 3963 2906 3769 2906 
Q 3419 2906 3187 2673 
Q 2956 2441 2956 1928 
L 2956 0 
L 2394 0 
L 2394 2156 
Q 2394 2531 2256 2718 
Q 2119 2906 1806 2906 
Q 1569 2906 1367 2781 
Q 1166 2656 1075 2415 
Q 984 2175 984 1722 
L 984 0 
L 422 0 
z
" transform="scale(0.015625)"/>
        <path id="ArialMT-64" d="M 2575 0 
L 2575 419 
Q 2259 -75 1647 -75 
Q 1250 -75 917 144 
Q 584 363 401 755 
Q 219 1147 219 1656 
Q 219 2153 384 2558 
Q 550 2963 881 3178 
Q 1213 3394 1622 3394 
Q 1922 3394 2156 3267 
Q 2391 3141 2538 2938 
L 2538 4581 
L 3097 4581 
L 3097 0 
L 2575 0 
z
M 797 1656 
Q 797 1019 1065 703 
Q 1334 388 1700 388 
Q 2069 388 2326 689 
Q 2584 991 2584 1609 
Q 2584 2291 2321 2609 
Q 2059 2928 1675 2928 
Q 1300 2928 1048 2622 
Q 797 2316 797 1656 
z
" transform="scale(0.015625)"/>
        <path id="ArialMT-6c" d="M 409 0 
L 409 4581 
L 972 4581 
L 972 0 
L 409 0 
z
" transform="scale(0.015625)"/>
        <path id="ArialMT-65" d="M 2694 1069 
L 3275 997 
Q 3138 488 2766 206 
Q 2394 -75 1816 -75 
Q 1088 -75 661 373 
Q 234 822 234 1631 
Q 234 2469 665 2931 
Q 1097 3394 1784 3394 
Q 2450 3394 2872 2941 
Q 3294 2488 3294 1666 
Q 3294 1616 3291 1516 
L 816 1516 
Q 847 969 1125 678 
Q 1403 388 1819 388 
Q 2128 388 2347 550 
Q 2566 713 2694 1069 
z
M 847 1978 
L 2700 1978 
Q 2663 2397 2488 2606 
Q 2219 2931 1791 2931 
Q 1403 2931 1139 2672 
Q 875 2413 847 1978 
z
" transform="scale(0.015625)"/>
       </defs>
       <use xlink:href="#ArialMT-6d"/>
       <use xlink:href="#ArialMT-69" x="83.300781"/>
       <use xlink:href="#ArialMT-64" x="105.517578"/>
       <use xlink:href="#ArialMT-64" x="161.132812"/>
       <use xlink:href="#ArialMT-6c" x="216.748047"/>
       <use xlink:href="#ArialMT-65" x="238.964844"/>
      </g>
     </g>
    </g>
    <g id="xtick_3">
     <g id="line2d_3">
      <g>
       <use xlink:href="#m55a7dd2c6c" x="144.882875" y="89.218327" style="stroke: #000000; stroke-width: 0.25"/>
      </g>
     </g>
     <g id="text_3">
      <!-- low -->
      <g transform="translate(141.131703 97.297233) scale(0.05 -0.05)">
       <defs>
        <path id="ArialMT-6f" d="M 213 1659 
Q 213 2581 725 3025 
Q 1153 3394 1769 3394 
Q 2453 3394 2887 2945 
Q 3322 2497 3322 1706 
Q 3322 1066 3130 698 
Q 2938 331 2570 128 
Q 2203 -75 1769 -75 
Q 1072 -75 642 372 
Q 213 819 213 1659 
z
M 791 1659 
Q 791 1022 1069 705 
Q 1347 388 1769 388 
Q 2188 388 2466 706 
Q 2744 1025 2744 1678 
Q 2744 2294 2464 2611 
Q 2184 2928 1769 2928 
Q 1347 2928 1069 2612 
Q 791 2297 791 1659 
z
" transform="scale(0.015625)"/>
        <path id="ArialMT-77" d="M 1034 0 
L 19 3319 
L 600 3319 
L 1128 1403 
L 1325 691 
Q 1338 744 1497 1375 
L 2025 3319 
L 2603 3319 
L 3100 1394 
L 3266 759 
L 3456 1400 
L 4025 3319 
L 4572 3319 
L 3534 0 
L 2950 0 
L 2422 1988 
L 2294 2553 
L 1622 0 
L 1034 0 
z
" transform="scale(0.015625)"/>
       </defs>
       <use xlink:href="#ArialMT-6c"/>
       <use xlink:href="#ArialMT-6f" x="22.216797"/>
       <use xlink:href="#ArialMT-77" x="77.832031"/>
      </g>
     </g>
    </g>
    <g id="text_4">
     <!-- Socio-economic status [a.u.] -->
     <g transform="translate(50.974162 106.717389) scale(0.06 -0.06)">
      <defs>
       <path id="ArialMT-53" d="M 288 1472 
L 859 1522 
Q 900 1178 1048 958 
Q 1197 738 1509 602 
Q 1822 466 2213 466 
Q 2559 466 2825 569 
Q 3091 672 3220 851 
Q 3350 1031 3350 1244 
Q 3350 1459 3225 1620 
Q 3100 1781 2813 1891 
Q 2628 1963 1997 2114 
Q 1366 2266 1113 2400 
Q 784 2572 623 2826 
Q 463 3081 463 3397 
Q 463 3744 659 4045 
Q 856 4347 1234 4503 
Q 1613 4659 2075 4659 
Q 2584 4659 2973 4495 
Q 3363 4331 3572 4012 
Q 3781 3694 3797 3291 
L 3216 3247 
Q 3169 3681 2898 3903 
Q 2628 4125 2100 4125 
Q 1550 4125 1298 3923 
Q 1047 3722 1047 3438 
Q 1047 3191 1225 3031 
Q 1400 2872 2139 2705 
Q 2878 2538 3153 2413 
Q 3553 2228 3743 1945 
Q 3934 1663 3934 1294 
Q 3934 928 3725 604 
Q 3516 281 3123 101 
Q 2731 -78 2241 -78 
Q 1619 -78 1198 103 
Q 778 284 539 648 
Q 300 1013 288 1472 
z
" transform="scale(0.015625)"/>
       <path id="ArialMT-63" d="M 2588 1216 
L 3141 1144 
Q 3050 572 2676 248 
Q 2303 -75 1759 -75 
Q 1078 -75 664 370 
Q 250 816 250 1647 
Q 250 2184 428 2587 
Q 606 2991 970 3192 
Q 1334 3394 1763 3394 
Q 2303 3394 2647 3120 
Q 2991 2847 3088 2344 
L 2541 2259 
Q 2463 2594 2264 2762 
Q 2066 2931 1784 2931 
Q 1359 2931 1093 2626 
Q 828 2322 828 1663 
Q 828 994 1084 691 
Q 1341 388 1753 388 
Q 2084 388 2306 591 
Q 2528 794 2588 1216 
z
" transform="scale(0.015625)"/>
       <path id="ArialMT-2d" d="M 203 1375 
L 203 1941 
L 1931 1941 
L 1931 1375 
L 203 1375 
z
" transform="scale(0.015625)"/>
       <path id="ArialMT-6e" d="M 422 0 
L 422 3319 
L 928 3319 
L 928 2847 
Q 1294 3394 1984 3394 
Q 2284 3394 2536 3286 
Q 2788 3178 2913 3003 
Q 3038 2828 3088 2588 
Q 3119 2431 3119 2041 
L 3119 0 
L 2556 0 
L 2556 2019 
Q 2556 2363 2490 2533 
Q 2425 2703 2258 2804 
Q 2091 2906 1866 2906 
Q 1506 2906 1245 2678 
Q 984 2450 984 1813 
L 984 0 
L 422 0 
z
" transform="scale(0.015625)"/>
       <path id="ArialMT-20" transform="scale(0.015625)"/>
       <path id="ArialMT-73" d="M 197 991 
L 753 1078 
Q 800 744 1014 566 
Q 1228 388 1613 388 
Q 2000 388 2187 545 
Q 2375 703 2375 916 
Q 2375 1106 2209 1216 
Q 2094 1291 1634 1406 
Q 1016 1563 777 1677 
Q 538 1791 414 1992 
Q 291 2194 291 2438 
Q 291 2659 392 2848 
Q 494 3038 669 3163 
Q 800 3259 1026 3326 
Q 1253 3394 1513 3394 
Q 1903 3394 2198 3281 
Q 2494 3169 2634 2976 
Q 2775 2784 2828 2463 
L 2278 2388 
Q 2241 2644 2061 2787 
Q 1881 2931 1553 2931 
Q 1166 2931 1000 2803 
Q 834 2675 834 2503 
Q 834 2394 903 2306 
Q 972 2216 1119 2156 
Q 1203 2125 1616 2013 
Q 2213 1853 2448 1751 
Q 2684 1650 2818 1456 
Q 2953 1263 2953 975 
Q 2953 694 2789 445 
Q 2625 197 2315 61 
Q 2006 -75 1616 -75 
Q 969 -75 630 194 
Q 291 463 197 991 
z
" transform="scale(0.015625)"/>
       <path id="ArialMT-74" d="M 1650 503 
L 1731 6 
Q 1494 -44 1306 -44 
Q 1000 -44 831 53 
Q 663 150 594 308 
Q 525 466 525 972 
L 525 2881 
L 113 2881 
L 113 3319 
L 525 3319 
L 525 4141 
L 1084 4478 
L 1084 3319 
L 1650 3319 
L 1650 2881 
L 1084 2881 
L 1084 941 
Q 1084 700 1114 631 
Q 1144 563 1211 522 
Q 1278 481 1403 481 
Q 1497 481 1650 503 
z
" transform="scale(0.015625)"/>
       <path id="ArialMT-61" d="M 2588 409 
Q 2275 144 1986 34 
Q 1697 -75 1366 -75 
Q 819 -75 525 192 
Q 231 459 231 875 
Q 231 1119 342 1320 
Q 453 1522 633 1644 
Q 813 1766 1038 1828 
Q 1203 1872 1538 1913 
Q 2219 1994 2541 2106 
Q 2544 2222 2544 2253 
Q 2544 2597 2384 2738 
Q 2169 2928 1744 2928 
Q 1347 2928 1158 2789 
Q 969 2650 878 2297 
L 328 2372 
Q 403 2725 575 2942 
Q 747 3159 1072 3276 
Q 1397 3394 1825 3394 
Q 2250 3394 2515 3294 
Q 2781 3194 2906 3042 
Q 3031 2891 3081 2659 
Q 3109 2516 3109 2141 
L 3109 1391 
Q 3109 606 3145 398 
Q 3181 191 3288 0 
L 2700 0 
Q 2613 175 2588 409 
z
M 2541 1666 
Q 2234 1541 1622 1453 
Q 1275 1403 1131 1340 
Q 988 1278 909 1158 
Q 831 1038 831 891 
Q 831 666 1001 516 
Q 1172 366 1500 366 
Q 1825 366 2078 508 
Q 2331 650 2450 897 
Q 2541 1088 2541 1459 
L 2541 1666 
z
" transform="scale(0.015625)"/>
       <path id="ArialMT-75" d="M 2597 0 
L 2597 488 
Q 2209 -75 1544 -75 
Q 1250 -75 995 37 
Q 741 150 617 320 
Q 494 491 444 738 
Q 409 903 409 1263 
L 409 3319 
L 972 3319 
L 972 1478 
Q 972 1038 1006 884 
Q 1059 663 1231 536 
Q 1403 409 1656 409 
Q 1909 409 2131 539 
Q 2353 669 2445 892 
Q 2538 1116 2538 1541 
L 2538 3319 
L 3100 3319 
L 3100 0 
L 2597 0 
z
" transform="scale(0.015625)"/>
       <path id="ArialMT-5b" d="M 434 -1272 
L 434 4581 
L 1675 4581 
L 1675 4116 
L 997 4116 
L 997 -806 
L 1675 -806 
L 1675 -1272 
L 434 -1272 
z
" transform="scale(0.015625)"/>
       <path id="ArialMT-2e" d="M 581 0 
L 581 641 
L 1222 641 
L 1222 0 
L 581 0 
z
" transform="scale(0.015625)"/>
       <path id="ArialMT-5d" d="M 1363 -1272 
L 122 -1272 
L 122 -806 
L 800 -806 
L 800 4116 
L 122 4116 
L 122 4581 
L 1363 4581 
L 1363 -1272 
z
" transform="scale(0.015625)"/>
      </defs>
      <use xlink:href="#ArialMT-53"/>
      <use xlink:href="#ArialMT-6f" x="66.699219"/>
      <use xlink:href="#ArialMT-63" x="122.314453"/>
      <use xlink:href="#ArialMT-69" x="172.314453"/>
      <use xlink:href="#ArialMT-6f" x="194.53125"/>
      <use xlink:href="#ArialMT-2d" x="250.146484"/>
      <use xlink:href="#ArialMT-65" x="283.447266"/>
      <use xlink:href="#ArialMT-63" x="339.0625"/>
      <use xlink:href="#ArialMT-6f" x="389.0625"/>
      <use xlink:href="#ArialMT-6e" x="444.677734"/>
      <use xlink:href="#ArialMT-6f" x="500.292969"/>
      <use xlink:href="#ArialMT-6d" x="555.908203"/>
      <use xlink:href="#ArialMT-69" x="639.208984"/>
      <use xlink:href="#ArialMT-63" x="661.425781"/>
      <use xlink:href="#ArialMT-20" x="711.425781"/>
      <use xlink:href="#ArialMT-73" x="739.208984"/>
      <use xlink:href="#ArialMT-74" x="789.208984"/>
      <use xlink:href="#ArialMT-61" x="816.992188"/>
      <use xlink:href="#ArialMT-74" x="872.607422"/>
      <use xlink:href="#ArialMT-75" x="900.390625"/>
      <use xlink:href="#ArialMT-73" x="956.005859"/>
      <use xlink:href="#ArialMT-20" x="1006.005859"/>
      <use xlink:href="#ArialMT-5b" x="1033.789062"/>
      <use xlink:href="#ArialMT-61" x="1061.572266"/>
      <use xlink:href="#ArialMT-2e" x="1117.1875"/>
      <use xlink:href="#ArialMT-75" x="1144.970703"/>
      <use xlink:href="#ArialMT-2e" x="1200.585938"/>
      <use xlink:href="#ArialMT-5d" x="1228.369141"/>
     </g>
    </g>
   </g>
   <g id="matplotlib.axis_2">
    <g id="ytick_1">
     <g id="line2d_4">
      <defs>
       <path id="m51acb25bfb" d="M 0 0 
L -3.5 0 
" style="stroke: #000000; stroke-width: 0.25"/>
      </defs>
      <g>
       <use xlink:href="#m51acb25bfb" x="26.8075" y="85.576178" style="stroke: #000000; stroke-width: 0.25"/>
      </g>
     </g>
     <g id="text_5">
      <!-- 0.0 -->
      <g transform="translate(15.3575 87.365631) scale(0.05 -0.05)">
       <defs>
        <path id="ArialMT-30" d="M 266 2259 
Q 266 3072 433 3567 
Q 600 4063 929 4331 
Q 1259 4600 1759 4600 
Q 2128 4600 2406 4451 
Q 2684 4303 2865 4023 
Q 3047 3744 3150 3342 
Q 3253 2941 3253 2259 
Q 3253 1453 3087 958 
Q 2922 463 2592 192 
Q 2263 -78 1759 -78 
Q 1097 -78 719 397 
Q 266 969 266 2259 
z
M 844 2259 
Q 844 1131 1108 757 
Q 1372 384 1759 384 
Q 2147 384 2411 759 
Q 2675 1134 2675 2259 
Q 2675 3391 2411 3762 
Q 2147 4134 1753 4134 
Q 1366 4134 1134 3806 
Q 844 3388 844 2259 
z
" transform="scale(0.015625)"/>
       </defs>
       <use xlink:href="#ArialMT-30"/>
       <use xlink:href="#ArialMT-2e" x="55.615234"/>
       <use xlink:href="#ArialMT-30" x="83.398438"/>
      </g>
     </g>
    </g>
    <g id="ytick_2">
     <g id="line2d_5">
      <g>
       <use xlink:href="#m51acb25bfb" x="26.8075" y="70.138348" style="stroke: #000000; stroke-width: 0.25"/>
      </g>
     </g>
     <g id="text_6">
      <!-- 0.2 -->
      <g transform="translate(15.3575 71.927801) scale(0.05 -0.05)">
       <defs>
        <path id="ArialMT-32" d="M 3222 541 
L 3222 0 
L 194 0 
Q 188 203 259 391 
Q 375 700 629 1000 
Q 884 1300 1366 1694 
Q 2113 2306 2375 2664 
Q 2638 3022 2638 3341 
Q 2638 3675 2398 3904 
Q 2159 4134 1775 4134 
Q 1369 4134 1125 3890 
Q 881 3647 878 3216 
L 300 3275 
Q 359 3922 746 4261 
Q 1134 4600 1788 4600 
Q 2447 4600 2831 4234 
Q 3216 3869 3216 3328 
Q 3216 3053 3103 2787 
Q 2991 2522 2730 2228 
Q 2469 1934 1863 1422 
Q 1356 997 1212 845 
Q 1069 694 975 541 
L 3222 541 
z
" transform="scale(0.015625)"/>
       </defs>
       <use xlink:href="#ArialMT-30"/>
       <use xlink:href="#ArialMT-2e" x="55.615234"/>
       <use xlink:href="#ArialMT-32" x="83.398438"/>
      </g>
     </g>
    </g>
    <g id="ytick_3">
     <g id="line2d_6">
      <g>
       <use xlink:href="#m51acb25bfb" x="26.8075" y="54.700518" style="stroke: #000000; stroke-width: 0.25"/>
      </g>
     </g>
     <g id="text_7">
      <!-- 0.4 -->
      <g transform="translate(15.3575 56.489971) scale(0.05 -0.05)">
       <defs>
        <path id="ArialMT-34" d="M 2069 0 
L 2069 1097 
L 81 1097 
L 81 1613 
L 2172 4581 
L 2631 4581 
L 2631 1613 
L 3250 1613 
L 3250 1097 
L 2631 1097 
L 2631 0 
L 2069 0 
z
M 2069 1613 
L 2069 3678 
L 634 1613 
L 2069 1613 
z
" transform="scale(0.015625)"/>
       </defs>
       <use xlink:href="#ArialMT-30"/>
       <use xlink:href="#ArialMT-2e" x="55.615234"/>
       <use xlink:href="#ArialMT-34" x="83.398438"/>
      </g>
     </g>
    </g>
    <g id="ytick_4">
     <g id="line2d_7">
      <g>
       <use xlink:href="#m51acb25bfb" x="26.8075" y="39.262688" style="stroke: #000000; stroke-width: 0.25"/>
      </g>
     </g>
     <g id="text_8">
      <!-- 0.6 -->
      <g transform="translate(15.3575 41.052141) scale(0.05 -0.05)">
       <defs>
        <path id="ArialMT-36" d="M 3184 3459 
L 2625 3416 
Q 2550 3747 2413 3897 
Q 2184 4138 1850 4138 
Q 1581 4138 1378 3988 
Q 1113 3794 959 3422 
Q 806 3050 800 2363 
Q 1003 2672 1297 2822 
Q 1591 2972 1913 2972 
Q 2475 2972 2870 2558 
Q 3266 2144 3266 1488 
Q 3266 1056 3080 686 
Q 2894 316 2569 119 
Q 2244 -78 1831 -78 
Q 1128 -78 684 439 
Q 241 956 241 2144 
Q 241 3472 731 4075 
Q 1159 4600 1884 4600 
Q 2425 4600 2770 4297 
Q 3116 3994 3184 3459 
z
M 888 1484 
Q 888 1194 1011 928 
Q 1134 663 1356 523 
Q 1578 384 1822 384 
Q 2178 384 2434 671 
Q 2691 959 2691 1453 
Q 2691 1928 2437 2201 
Q 2184 2475 1800 2475 
Q 1419 2475 1153 2201 
Q 888 1928 888 1484 
z
" transform="scale(0.015625)"/>
       </defs>
       <use xlink:href="#ArialMT-30"/>
       <use xlink:href="#ArialMT-2e" x="55.615234"/>
       <use xlink:href="#ArialMT-36" x="83.398438"/>
      </g>
     </g>
    </g>
    <g id="ytick_5">
     <g id="line2d_8">
      <g>
       <use xlink:href="#m51acb25bfb" x="26.8075" y="23.824858" style="stroke: #000000; stroke-width: 0.25"/>
      </g>
     </g>
     <g id="text_9">
      <!-- 0.8 -->
      <g transform="translate(15.3575 25.614311) scale(0.05 -0.05)">
       <defs>
        <path id="ArialMT-38" d="M 1131 2484 
Q 781 2613 612 2850 
Q 444 3088 444 3419 
Q 444 3919 803 4259 
Q 1163 4600 1759 4600 
Q 2359 4600 2725 4251 
Q 3091 3903 3091 3403 
Q 3091 3084 2923 2848 
Q 2756 2613 2416 2484 
Q 2838 2347 3058 2040 
Q 3278 1734 3278 1309 
Q 3278 722 2862 322 
Q 2447 -78 1769 -78 
Q 1091 -78 675 323 
Q 259 725 259 1325 
Q 259 1772 486 2073 
Q 713 2375 1131 2484 
z
M 1019 3438 
Q 1019 3113 1228 2906 
Q 1438 2700 1772 2700 
Q 2097 2700 2305 2904 
Q 2513 3109 2513 3406 
Q 2513 3716 2298 3927 
Q 2084 4138 1766 4138 
Q 1444 4138 1231 3931 
Q 1019 3725 1019 3438 
z
M 838 1322 
Q 838 1081 952 856 
Q 1066 631 1291 507 
Q 1516 384 1775 384 
Q 2178 384 2440 643 
Q 2703 903 2703 1303 
Q 2703 1709 2433 1975 
Q 2163 2241 1756 2241 
Q 1359 2241 1098 1978 
Q 838 1716 838 1322 
z
" transform="scale(0.015625)"/>
       </defs>
       <use xlink:href="#ArialMT-30"/>
       <use xlink:href="#ArialMT-2e" x="55.615234"/>
       <use xlink:href="#ArialMT-38" x="83.398438"/>
      </g>
     </g>
    </g>
    <g id="ytick_6">
     <g id="line2d_9">
      <g>
       <use xlink:href="#m51acb25bfb" x="26.8075" y="8.387028" style="stroke: #000000; stroke-width: 0.25"/>
      </g>
     </g>
     <g id="text_10">
      <!-- 1.0 -->
      <g transform="translate(15.3575 10.176481) scale(0.05 -0.05)">
       <defs>
        <path id="ArialMT-31" d="M 2384 0 
L 1822 0 
L 1822 3584 
Q 1619 3391 1289 3197 
Q 959 3003 697 2906 
L 697 3450 
Q 1169 3672 1522 3987 
Q 1875 4303 2022 4600 
L 2384 4600 
L 2384 0 
z
" transform="scale(0.015625)"/>
       </defs>
       <use xlink:href="#ArialMT-31"/>
       <use xlink:href="#ArialMT-2e" x="55.615234"/>
       <use xlink:href="#ArialMT-30" x="83.398438"/>
      </g>
     </g>
    </g>
    <g id="text_11">
     <!-- Deviation score of mean CTh [a.u.] -->
     <g transform="translate(10.165 93.661038) rotate(-90) scale(0.06 -0.06)">
      <defs>
       <path id="ArialMT-44" d="M 494 0 
L 494 4581 
L 2072 4581 
Q 2606 4581 2888 4516 
Q 3281 4425 3559 4188 
Q 3922 3881 4101 3404 
Q 4281 2928 4281 2316 
Q 4281 1794 4159 1391 
Q 4038 988 3847 723 
Q 3656 459 3429 307 
Q 3203 156 2883 78 
Q 2563 0 2147 0 
L 494 0 
z
M 1100 541 
L 2078 541 
Q 2531 541 2789 625 
Q 3047 709 3200 863 
Q 3416 1078 3536 1442 
Q 3656 1806 3656 2325 
Q 3656 3044 3420 3430 
Q 3184 3816 2847 3947 
Q 2603 4041 2063 4041 
L 1100 4041 
L 1100 541 
z
" transform="scale(0.015625)"/>
       <path id="ArialMT-76" d="M 1344 0 
L 81 3319 
L 675 3319 
L 1388 1331 
Q 1503 1009 1600 663 
Q 1675 925 1809 1294 
L 2547 3319 
L 3125 3319 
L 1869 0 
L 1344 0 
z
" transform="scale(0.015625)"/>
       <path id="ArialMT-72" d="M 416 0 
L 416 3319 
L 922 3319 
L 922 2816 
Q 1116 3169 1280 3281 
Q 1444 3394 1641 3394 
Q 1925 3394 2219 3213 
L 2025 2691 
Q 1819 2813 1613 2813 
Q 1428 2813 1281 2702 
Q 1134 2591 1072 2394 
Q 978 2094 978 1738 
L 978 0 
L 416 0 
z
" transform="scale(0.015625)"/>
       <path id="ArialMT-66" d="M 556 0 
L 556 2881 
L 59 2881 
L 59 3319 
L 556 3319 
L 556 3672 
Q 556 4006 616 4169 
Q 697 4388 901 4523 
Q 1106 4659 1475 4659 
Q 1713 4659 2000 4603 
L 1916 4113 
Q 1741 4144 1584 4144 
Q 1328 4144 1222 4034 
Q 1116 3925 1116 3625 
L 1116 3319 
L 1763 3319 
L 1763 2881 
L 1116 2881 
L 1116 0 
L 556 0 
z
" transform="scale(0.015625)"/>
       <path id="ArialMT-43" d="M 3763 1606 
L 4369 1453 
Q 4178 706 3683 314 
Q 3188 -78 2472 -78 
Q 1731 -78 1267 223 
Q 803 525 561 1097 
Q 319 1669 319 2325 
Q 319 3041 592 3573 
Q 866 4106 1370 4382 
Q 1875 4659 2481 4659 
Q 3169 4659 3637 4309 
Q 4106 3959 4291 3325 
L 3694 3184 
Q 3534 3684 3231 3912 
Q 2928 4141 2469 4141 
Q 1941 4141 1586 3887 
Q 1231 3634 1087 3207 
Q 944 2781 944 2328 
Q 944 1744 1114 1308 
Q 1284 872 1643 656 
Q 2003 441 2422 441 
Q 2931 441 3284 734 
Q 3638 1028 3763 1606 
z
" transform="scale(0.015625)"/>
       <path id="ArialMT-54" d="M 1659 0 
L 1659 4041 
L 150 4041 
L 150 4581 
L 3781 4581 
L 3781 4041 
L 2266 4041 
L 2266 0 
L 1659 0 
z
" transform="scale(0.015625)"/>
      </defs>
      <use xlink:href="#ArialMT-44"/>
      <use xlink:href="#ArialMT-65" x="72.216797"/>
      <use xlink:href="#ArialMT-76" x="127.832031"/>
      <use xlink:href="#ArialMT-69" x="177.832031"/>
      <use xlink:href="#ArialMT-61" x="200.048828"/>
      <use xlink:href="#ArialMT-74" x="255.664062"/>
      <use xlink:href="#ArialMT-69" x="283.447266"/>
      <use xlink:href="#ArialMT-6f" x="305.664062"/>
      <use xlink:href="#ArialMT-6e" x="361.279297"/>
      <use xlink:href="#ArialMT-20" x="416.894531"/>
      <use xlink:href="#ArialMT-73" x="444.677734"/>
      <use xlink:href="#ArialMT-63" x="494.677734"/>
      <use xlink:href="#ArialMT-6f" x="544.677734"/>
      <use xlink:href="#ArialMT-72" x="600.292969"/>
      <use xlink:href="#ArialMT-65" x="633.59375"/>
      <use xlink:href="#ArialMT-20" x="689.208984"/>
      <use xlink:href="#ArialMT-6f" x="716.992188"/>
      <use xlink:href="#ArialMT-66" x="772.607422"/>
      <use xlink:href="#ArialMT-20" x="800.390625"/>
      <use xlink:href="#ArialMT-6d" x="828.173828"/>
      <use xlink:href="#ArialMT-65" x="911.474609"/>
      <use xlink:href="#ArialMT-61" x="967.089844"/>
      <use xlink:href="#ArialMT-6e" x="1022.705078"/>
      <use xlink:href="#ArialMT-20" x="1078.320312"/>
      <use xlink:href="#ArialMT-43" x="1106.103516"/>
      <use xlink:href="#ArialMT-54" x="1178.320312"/>
      <use xlink:href="#ArialMT-68" x="1239.404297"/>
      <use xlink:href="#ArialMT-20" x="1295.019531"/>
      <use xlink:href="#ArialMT-5b" x="1322.802734"/>
      <use xlink:href="#ArialMT-61" x="1350.585938"/>
      <use xlink:href="#ArialMT-2e" x="1406.201172"/>
      <use xlink:href="#ArialMT-75" x="1433.984375"/>
      <use xlink:href="#ArialMT-2e" x="1489.599609"/>
      <use xlink:href="#ArialMT-5d" x="1517.382812"/>
     </g>
    </g>
   </g>
   <g id="line2d_10">
    <path d="M 32.430137 48.957786 
L 33.566023 49.072003 
L 34.701909 49.186219 
L 35.837796 49.300436 
L 36.973682 49.414652 
L 38.109568 49.528868 
L 39.245454 49.643085 
L 40.381341 49.757301 
L 41.517227 49.871518 
L 42.653113 49.985734 
L 43.788999 50.099951 
L 44.924886 50.214167 
L 46.060772 50.328384 
L 47.196658 50.4426 
L 48.332544 50.556816 
L 49.468431 50.671033 
L 50.604317 50.785249 
L 51.740203 50.899466 
L 52.876089 51.013682 
L 54.011976 51.127899 
L 55.147862 51.242115 
L 56.283748 51.356331 
L 57.419634 51.470548 
L 58.55552 51.584764 
L 59.691407 51.698981 
L 60.827293 51.813197 
L 61.963179 51.927414 
L 63.099065 52.04163 
L 64.234952 52.155847 
L 65.370838 52.270063 
L 66.506724 52.384279 
L 67.64261 52.498496 
L 68.778497 52.612712 
L 69.914383 52.726929 
L 71.050269 52.841145 
L 72.186155 52.955362 
L 73.322042 53.069578 
L 74.457928 53.183794 
L 75.593814 53.298011 
L 76.7297 53.412227 
L 77.865587 53.526444 
L 79.001473 53.64066 
L 80.137359 53.754877 
L 81.273245 53.869093 
L 82.409132 53.983309 
L 83.545018 54.097526 
L 84.680904 54.211742 
L 85.81679 54.325959 
L 86.952677 54.440175 
L 88.088563 54.554392 
L 89.224449 54.668608 
L 90.360335 54.782825 
L 91.496222 54.897041 
L 92.632108 55.011257 
L 93.767994 55.125474 
L 94.90388 55.23969 
L 96.039766 55.353907 
L 97.175653 55.468123 
L 98.311539 55.58234 
L 99.447425 55.696556 
L 100.583311 55.810772 
L 101.719198 55.924989 
L 102.855084 56.039205 
L 103.99097 56.153422 
L 105.126856 56.267638 
L 106.262743 56.381855 
L 107.398629 56.496071 
L 108.534515 56.610287 
L 109.670401 56.724504 
L 110.806288 56.83872 
L 111.942174 56.952937 
L 113.07806 57.067153 
L 114.213946 57.18137 
L 115.349833 57.295586 
L 116.485719 57.409803 
L 117.621605 57.524019 
L 118.757491 57.638235 
L 119.893378 57.752452 
L 121.029264 57.866668 
L 122.16515 57.980885 
L 123.301036 58.095101 
L 124.436923 58.209318 
L 125.572809 58.323534 
L 126.708695 58.43775 
L 127.844581 58.551967 
L 128.980468 58.666183 
L 130.116354 58.7804 
L 131.25224 58.894616 
L 132.388126 59.008833 
L 133.524012 59.123049 
L 134.659899 59.237265 
L 135.795785 59.351482 
L 136.931671 59.465698 
L 138.067557 59.579915 
L 139.203444 59.694131 
L 140.33933 59.808348 
L 141.475216 59.922564 
L 142.611102 60.036781 
L 143.746989 60.150997 
L 144.882875 60.265213 
" clip-path="url(#pd3d30233dc)" style="fill: none; stroke: #ff8c00; stroke-width: 0.75; stroke-linecap: square"/>
   </g>
   <g id="patch_3">
    <path d="M 26.8075 89.218327 
L 26.8075 5.4 
" style="fill: none; stroke: #000000; stroke-width: 0.25; stroke-linejoin: miter; stroke-linecap: square"/>
   </g>
   <g id="patch_4">
    <path d="M 26.8075 89.218327 
L 150.505512 89.218327 
" style="fill: none; stroke: #000000; stroke-width: 0.25; stroke-linejoin: miter; stroke-linecap: square"/>
   </g>
   <g id="text_12">
    <g id="patch_5">
     <path d="M 30.51844 18.699023 
L 58.91844 18.699023 
Q 60.41844 18.699023 60.41844 17.199023 
L 60.41844 7.132617 
Q 60.41844 5.632617 58.91844 5.632617 
L 30.51844 5.632617 
Q 29.01844 5.632617 29.01844 7.132617 
L 29.01844 17.199023 
Q 29.01844 18.699023 30.51844 18.699023 
z
" style="fill: #c0c0c0; opacity: 0.4; stroke: #c0c0c0; stroke-linejoin: miter"/>
    </g>
    <!-- $r=-0.223$ -->
    <g transform="translate(30.51844 10.655273) scale(0.05 -0.05)">
     <defs>
      <path id="DejaVuSans-Oblique-72" d="M 2853 2969 
Q 2766 3016 2653 3041 
Q 2541 3066 2413 3066 
Q 1953 3066 1609 2717 
Q 1266 2369 1153 1784 
L 800 0 
L 225 0 
L 909 3500 
L 1484 3500 
L 1375 2956 
Q 1603 3259 1920 3421 
Q 2238 3584 2597 3584 
Q 2691 3584 2781 3573 
Q 2872 3563 2963 3538 
L 2853 2969 
z
" transform="scale(0.015625)"/>
      <path id="DejaVuSans-3d" d="M 678 2906 
L 4684 2906 
L 4684 2381 
L 678 2381 
L 678 2906 
z
M 678 1631 
L 4684 1631 
L 4684 1100 
L 678 1100 
L 678 1631 
z
" transform="scale(0.015625)"/>
      <path id="DejaVuSans-2212" d="M 678 2272 
L 4684 2272 
L 4684 1741 
L 678 1741 
L 678 2272 
z
" transform="scale(0.015625)"/>
      <path id="DejaVuSans-30" d="M 2034 4250 
Q 1547 4250 1301 3770 
Q 1056 3291 1056 2328 
Q 1056 1369 1301 889 
Q 1547 409 2034 409 
Q 2525 409 2770 889 
Q 3016 1369 3016 2328 
Q 3016 3291 2770 3770 
Q 2525 4250 2034 4250 
z
M 2034 4750 
Q 2819 4750 3233 4129 
Q 3647 3509 3647 2328 
Q 3647 1150 3233 529 
Q 2819 -91 2034 -91 
Q 1250 -91 836 529 
Q 422 1150 422 2328 
Q 422 3509 836 4129 
Q 1250 4750 2034 4750 
z
" transform="scale(0.015625)"/>
      <path id="DejaVuSans-2e" d="M 684 794 
L 1344 794 
L 1344 0 
L 684 0 
L 684 794 
z
" transform="scale(0.015625)"/>
      <path id="DejaVuSans-32" d="M 1228 531 
L 3431 531 
L 3431 0 
L 469 0 
L 469 531 
Q 828 903 1448 1529 
Q 2069 2156 2228 2338 
Q 2531 2678 2651 2914 
Q 2772 3150 2772 3378 
Q 2772 3750 2511 3984 
Q 2250 4219 1831 4219 
Q 1534 4219 1204 4116 
Q 875 4013 500 3803 
L 500 4441 
Q 881 4594 1212 4672 
Q 1544 4750 1819 4750 
Q 2544 4750 2975 4387 
Q 3406 4025 3406 3419 
Q 3406 3131 3298 2873 
Q 3191 2616 2906 2266 
Q 2828 2175 2409 1742 
Q 1991 1309 1228 531 
z
" transform="scale(0.015625)"/>
      <path id="DejaVuSans-33" d="M 2597 2516 
Q 3050 2419 3304 2112 
Q 3559 1806 3559 1356 
Q 3559 666 3084 287 
Q 2609 -91 1734 -91 
Q 1441 -91 1130 -33 
Q 819 25 488 141 
L 488 750 
Q 750 597 1062 519 
Q 1375 441 1716 441 
Q 2309 441 2620 675 
Q 2931 909 2931 1356 
Q 2931 1769 2642 2001 
Q 2353 2234 1838 2234 
L 1294 2234 
L 1294 2753 
L 1863 2753 
Q 2328 2753 2575 2939 
Q 2822 3125 2822 3475 
Q 2822 3834 2567 4026 
Q 2313 4219 1838 4219 
Q 1578 4219 1281 4162 
Q 984 4106 628 3988 
L 628 4550 
Q 988 4650 1302 4700 
Q 1616 4750 1894 4750 
Q 2613 4750 3031 4423 
Q 3450 4097 3450 3541 
Q 3450 3153 3228 2886 
Q 3006 2619 2597 2516 
z
" transform="scale(0.015625)"/>
     </defs>
     <use xlink:href="#DejaVuSans-Oblique-72" transform="translate(0 0.78125)"/>
     <use xlink:href="#DejaVuSans-3d" transform="translate(60.595703 0.78125)"/>
     <use xlink:href="#DejaVuSans-2212" transform="translate(183.349609 0.78125)"/>
     <use xlink:href="#DejaVuSans-30" transform="translate(286.621094 0.78125)"/>
     <use xlink:href="#DejaVuSans-2e" transform="translate(350.244141 0.78125)"/>
     <use xlink:href="#DejaVuSans-32" transform="translate(376.53125 0.78125)"/>
     <use xlink:href="#DejaVuSans-32" transform="translate(440.154297 0.78125)"/>
     <use xlink:href="#DejaVuSans-33" transform="translate(503.777344 0.78125)"/>
    </g>
    <!-- $p=0.029$ -->
    <g transform="translate(30.51844 16.149023) scale(0.05 -0.05)">
     <defs>
      <path id="DejaVuSans-Oblique-70" d="M 3175 2156 
Q 3175 2616 2975 2859 
Q 2775 3103 2400 3103 
Q 2144 3103 1911 2972 
Q 1678 2841 1497 2591 
Q 1319 2344 1212 1994 
Q 1106 1644 1106 1300 
Q 1106 863 1306 627 
Q 1506 391 1875 391 
Q 2147 391 2380 519 
Q 2613 647 2778 891 
Q 2956 1147 3065 1494 
Q 3175 1841 3175 2156 
z
M 1394 2969 
Q 1625 3272 1939 3428 
Q 2253 3584 2638 3584 
Q 3175 3584 3472 3232 
Q 3769 2881 3769 2247 
Q 3769 1728 3584 1258 
Q 3400 788 3053 416 
Q 2822 169 2531 39 
Q 2241 -91 1919 -91 
Q 1547 -91 1294 64 
Q 1041 219 916 525 
L 556 -1331 
L -19 -1331 
L 922 3500 
L 1497 3500 
L 1394 2969 
z
" transform="scale(0.015625)"/>
      <path id="DejaVuSans-39" d="M 703 97 
L 703 672 
Q 941 559 1184 500 
Q 1428 441 1663 441 
Q 2288 441 2617 861 
Q 2947 1281 2994 2138 
Q 2813 1869 2534 1725 
Q 2256 1581 1919 1581 
Q 1219 1581 811 2004 
Q 403 2428 403 3163 
Q 403 3881 828 4315 
Q 1253 4750 1959 4750 
Q 2769 4750 3195 4129 
Q 3622 3509 3622 2328 
Q 3622 1225 3098 567 
Q 2575 -91 1691 -91 
Q 1453 -91 1209 -44 
Q 966 3 703 97 
z
M 1959 2075 
Q 2384 2075 2632 2365 
Q 2881 2656 2881 3163 
Q 2881 3666 2632 3958 
Q 2384 4250 1959 4250 
Q 1534 4250 1286 3958 
Q 1038 3666 1038 3163 
Q 1038 2656 1286 2365 
Q 1534 2075 1959 2075 
z
" transform="scale(0.015625)"/>
     </defs>
     <use xlink:href="#DejaVuSans-Oblique-70" transform="translate(0 0.78125)"/>
     <use xlink:href="#DejaVuSans-3d" transform="translate(82.958984 0.78125)"/>
     <use xlink:href="#DejaVuSans-30" transform="translate(186.230469 0.78125)"/>
     <use xlink:href="#DejaVuSans-2e" transform="translate(249.853516 0.78125)"/>
     <use xlink:href="#DejaVuSans-30" transform="translate(281.640625 0.78125)"/>
     <use xlink:href="#DejaVuSans-32" transform="translate(345.263672 0.78125)"/>
     <use xlink:href="#DejaVuSans-39" transform="translate(407.136719 0.78125)"/>
    </g>
   </g>
  </g>
 </g>
 <defs>
  <clipPath id="pd3d30233dc">
   <rect x="26.8075" y="5.4" width="123.698012" height="83.818327"/>
  </clipPath>
 </defs>
</svg>
