<?xml version="1.0" encoding="utf-8" standalone="no"?>
<!DOCTYPE svg PUBLIC "-//W3C//DTD SVG 1.1//EN"
  "http://www.w3.org/Graphics/SVG/1.1/DTD/svg11.dtd">
<svg xmlns:xlink="http://www.w3.org/1999/xlink" width="155.905512pt" height="113.385827pt" viewBox="0 0 155.905512 113.385827" xmlns="http://www.w3.org/2000/svg" version="1.1">
 <metadata>
  <rdf:RDF xmlns:dc="http://purl.org/dc/elements/1.1/" xmlns:cc="http://creativecommons.org/ns#" xmlns:rdf="http://www.w3.org/1999/02/22-rdf-syntax-ns#">
   <cc:Work>
    <dc:type rdf:resource="http://purl.org/dc/dcmitype/StillImage"/>
    <dc:date>2024-12-20T15:33:33.533599</dc:date>
    <dc:format>image/svg+xml</dc:format>
    <dc:creator>
     <cc:Agent>
      <dc:title>Matplotlib v3.9.2, https://matplotlib.org/</dc:title>
     </cc:Agent>
    </dc:creator>
   </cc:Work>
  </rdf:RDF>
 </metadata>
 <defs>
  <style type="text/css">*{stroke-linejoin: round; stroke-linecap: butt}</style>
 </defs>
 <g id="figure_1">
  <g id="patch_1">
   <path d="M 0 113.385827 
L 155.905512 113.385827 
L 155.905512 0 
L 0 0 
z
" style="fill: #ffffff"/>
  </g>
  <g id="axes_1">
   <g id="patch_2">
    <path d="M 25.36 89.218327 
L 150.505512 89.218327 
L 150.505512 5.4 
L 25.36 5.4 
z
" style="fill: #ffffff"/>
   </g>
   <g id="matplotlib.axis_1">
    <g id="xtick_1">
     <g id="text_1">
      <!-- high -->
      <g style="fill: #262626" transform="translate(26.32226 97.297233) scale(0.05 -0.05)">
       <defs>
        <path id="ArialMT-68" d="M 422 0 
L 422 4581 
L 984 4581 
L 984 2938 
Q 1378 3394 1978 3394 
Q 2347 3394 2619 3248 
Q 2891 3103 3008 2847 
Q 3125 2591 3125 2103 
L 3125 0 
L 2563 0 
L 2563 2103 
Q 2563 2525 2380 2717 
Q 2197 2909 1863 2909 
Q 1613 2909 1392 2779 
Q 1172 2650 1078 2428 
Q 984 2206 984 1816 
L 984 0 
L 422 0 
z
" transform="scale(0.015625)"/>
        <path id="ArialMT-69" d="M 425 3934 
L 425 4581 
L 988 4581 
L 988 3934 
L 425 3934 
z
M 425 0 
L 425 3319 
L 988 3319 
L 988 0 
L 425 0 
z
" transform="scale(0.015625)"/>
        <path id="ArialMT-67" d="M 319 -275 
L 866 -356 
Q 900 -609 1056 -725 
Q 1266 -881 1628 -881 
Q 2019 -881 2231 -725 
Q 2444 -569 2519 -288 
Q 2563 -116 2559 434 
Q 2191 0 1641 0 
Q 956 0 581 494 
Q 206 988 206 1678 
Q 206 2153 378 2554 
Q 550 2956 876 3175 
Q 1203 3394 1644 3394 
Q 2231 3394 2613 2919 
L 2613 3319 
L 3131 3319 
L 3131 450 
Q 3131 -325 2973 -648 
Q 2816 -972 2473 -1159 
Q 2131 -1347 1631 -1347 
Q 1038 -1347 672 -1080 
Q 306 -813 319 -275 
z
M 784 1719 
Q 784 1066 1043 766 
Q 1303 466 1694 466 
Q 2081 466 2343 764 
Q 2606 1063 2606 1700 
Q 2606 2309 2336 2618 
Q 2066 2928 1684 2928 
Q 1309 2928 1046 2623 
Q 784 2319 784 1719 
z
" transform="scale(0.015625)"/>
       </defs>
       <use xlink:href="#ArialMT-68"/>
       <use xlink:href="#ArialMT-69" x="55.615234"/>
       <use xlink:href="#ArialMT-67" x="77.832031"/>
       <use xlink:href="#ArialMT-68" x="133.447266"/>
      </g>
     </g>
    </g>
    <g id="xtick_2">
     <g id="text_2">
      <!-- middle -->
      <g style="fill: #262626" transform="translate(80.568693 97.297233) scale(0.05 -0.05)">
       <defs>
        <path id="ArialMT-6d" d="M 422 0 
L 422 3319 
L 925 3319 
L 925 2853 
Q 1081 3097 1340 3245 
Q 1600 3394 1931 3394 
Q 2300 3394 2536 3241 
Q 2772 3088 2869 2813 
Q 3263 3394 3894 3394 
Q 4388 3394 4653 3120 
Q 4919 2847 4919 2278 
L 4919 0 
L 4359 0 
L 4359 2091 
Q 4359 2428 4304 2576 
Q 4250 2725 4106 2815 
Q 3963 2906 3769 2906 
Q 3419 2906 3187 2673 
Q 2956 2441 2956 1928 
L 2956 0 
L 2394 0 
L 2394 2156 
Q 2394 2531 2256 2718 
Q 2119 2906 1806 2906 
Q 1569 2906 1367 2781 
Q 1166 2656 1075 2415 
Q 984 2175 984 1722 
L 984 0 
L 422 0 
z
" transform="scale(0.015625)"/>
        <path id="ArialMT-64" d="M 2575 0 
L 2575 419 
Q 2259 -75 1647 -75 
Q 1250 -75 917 144 
Q 584 363 401 755 
Q 219 1147 219 1656 
Q 219 2153 384 2558 
Q 550 2963 881 3178 
Q 1213 3394 1622 3394 
Q 1922 3394 2156 3267 
Q 2391 3141 2538 2938 
L 2538 4581 
L 3097 4581 
L 3097 0 
L 2575 0 
z
M 797 1656 
Q 797 1019 1065 703 
Q 1334 388 1700 388 
Q 2069 388 2326 689 
Q 2584 991 2584 1609 
Q 2584 2291 2321 2609 
Q 2059 2928 1675 2928 
Q 1300 2928 1048 2622 
Q 797 2316 797 1656 
z
" transform="scale(0.015625)"/>
        <path id="ArialMT-6c" d="M 409 0 
L 409 4581 
L 972 4581 
L 972 0 
L 409 0 
z
" transform="scale(0.015625)"/>
        <path id="ArialMT-65" d="M 2694 1069 
L 3275 997 
Q 3138 488 2766 206 
Q 2394 -75 1816 -75 
Q 1088 -75 661 373 
Q 234 822 234 1631 
Q 234 2469 665 2931 
Q 1097 3394 1784 3394 
Q 2450 3394 2872 2941 
Q 3294 2488 3294 1666 
Q 3294 1616 3291 1516 
L 816 1516 
Q 847 969 1125 678 
Q 1403 388 1819 388 
Q 2128 388 2347 550 
Q 2566 713 2694 1069 
z
M 847 1978 
L 2700 1978 
Q 2663 2397 2488 2606 
Q 2219 2931 1791 2931 
Q 1403 2931 1139 2672 
Q 875 2413 847 1978 
z
" transform="scale(0.015625)"/>
       </defs>
       <use xlink:href="#ArialMT-6d"/>
       <use xlink:href="#ArialMT-69" x="83.300781"/>
       <use xlink:href="#ArialMT-64" x="105.517578"/>
       <use xlink:href="#ArialMT-64" x="161.132812"/>
       <use xlink:href="#ArialMT-6c" x="216.748047"/>
       <use xlink:href="#ArialMT-65" x="238.964844"/>
      </g>
     </g>
    </g>
    <g id="xtick_3">
     <g id="text_3">
      <!-- low -->
      <g style="fill: #262626" transform="translate(141.065908 97.297233) scale(0.05 -0.05)">
       <defs>
        <path id="ArialMT-6f" d="M 213 1659 
Q 213 2581 725 3025 
Q 1153 3394 1769 3394 
Q 2453 3394 2887 2945 
Q 3322 2497 3322 1706 
Q 3322 1066 3130 698 
Q 2938 331 2570 128 
Q 2203 -75 1769 -75 
Q 1072 -75 642 372 
Q 213 819 213 1659 
z
M 791 1659 
Q 791 1022 1069 705 
Q 1347 388 1769 388 
Q 2188 388 2466 706 
Q 2744 1025 2744 1678 
Q 2744 2294 2464 2611 
Q 2184 2928 1769 2928 
Q 1347 2928 1069 2612 
Q 791 2297 791 1659 
z
" transform="scale(0.015625)"/>
        <path id="ArialMT-77" d="M 1034 0 
L 19 3319 
L 600 3319 
L 1128 1403 
L 1325 691 
Q 1338 744 1497 1375 
L 2025 3319 
L 2603 3319 
L 3100 1394 
L 3266 759 
L 3456 1400 
L 4025 3319 
L 4572 3319 
L 3534 0 
L 2950 0 
L 2422 1988 
L 2294 2553 
L 1622 0 
L 1034 0 
z
" transform="scale(0.015625)"/>
       </defs>
       <use xlink:href="#ArialMT-6c"/>
       <use xlink:href="#ArialMT-6f" x="22.216797"/>
       <use xlink:href="#ArialMT-77" x="77.832031"/>
      </g>
     </g>
    </g>
    <g id="text_4">
     <!-- Socio-economic status [a.u.] -->
     <g style="fill: #262626" transform="translate(50.250412 106.717389) scale(0.06 -0.06)">
      <defs>
       <path id="ArialMT-53" d="M 288 1472 
L 859 1522 
Q 900 1178 1048 958 
Q 1197 738 1509 602 
Q 1822 466 2213 466 
Q 2559 466 2825 569 
Q 3091 672 3220 851 
Q 3350 1031 3350 1244 
Q 3350 1459 3225 1620 
Q 3100 1781 2813 1891 
Q 2628 1963 1997 2114 
Q 1366 2266 1113 2400 
Q 784 2572 623 2826 
Q 463 3081 463 3397 
Q 463 3744 659 4045 
Q 856 4347 1234 4503 
Q 1613 4659 2075 4659 
Q 2584 4659 2973 4495 
Q 3363 4331 3572 4012 
Q 3781 3694 3797 3291 
L 3216 3247 
Q 3169 3681 2898 3903 
Q 2628 4125 2100 4125 
Q 1550 4125 1298 3923 
Q 1047 3722 1047 3438 
Q 1047 3191 1225 3031 
Q 1400 2872 2139 2705 
Q 2878 2538 3153 2413 
Q 3553 2228 3743 1945 
Q 3934 1663 3934 1294 
Q 3934 928 3725 604 
Q 3516 281 3123 101 
Q 2731 -78 2241 -78 
Q 1619 -78 1198 103 
Q 778 284 539 648 
Q 300 1013 288 1472 
z
" transform="scale(0.015625)"/>
       <path id="ArialMT-63" d="M 2588 1216 
L 3141 1144 
Q 3050 572 2676 248 
Q 2303 -75 1759 -75 
Q 1078 -75 664 370 
Q 250 816 250 1647 
Q 250 2184 428 2587 
Q 606 2991 970 3192 
Q 1334 3394 1763 3394 
Q 2303 3394 2647 3120 
Q 2991 2847 3088 2344 
L 2541 2259 
Q 2463 2594 2264 2762 
Q 2066 2931 1784 2931 
Q 1359 2931 1093 2626 
Q 828 2322 828 1663 
Q 828 994 1084 691 
Q 1341 388 1753 388 
Q 2084 388 2306 591 
Q 2528 794 2588 1216 
z
" transform="scale(0.015625)"/>
       <path id="ArialMT-2d" d="M 203 1375 
L 203 1941 
L 1931 1941 
L 1931 1375 
L 203 1375 
z
" transform="scale(0.015625)"/>
       <path id="ArialMT-6e" d="M 422 0 
L 422 3319 
L 928 3319 
L 928 2847 
Q 1294 3394 1984 3394 
Q 2284 3394 2536 3286 
Q 2788 3178 2913 3003 
Q 3038 2828 3088 2588 
Q 3119 2431 3119 2041 
L 3119 0 
L 2556 0 
L 2556 2019 
Q 2556 2363 2490 2533 
Q 2425 2703 2258 2804 
Q 2091 2906 1866 2906 
Q 1506 2906 1245 2678 
Q 984 2450 984 1813 
L 984 0 
L 422 0 
z
" transform="scale(0.015625)"/>
       <path id="ArialMT-20" transform="scale(0.015625)"/>
       <path id="ArialMT-73" d="M 197 991 
L 753 1078 
Q 800 744 1014 566 
Q 1228 388 1613 388 
Q 2000 388 2187 545 
Q 2375 703 2375 916 
Q 2375 1106 2209 1216 
Q 2094 1291 1634 1406 
Q 1016 1563 777 1677 
Q 538 1791 414 1992 
Q 291 2194 291 2438 
Q 291 2659 392 2848 
Q 494 3038 669 3163 
Q 800 3259 1026 3326 
Q 1253 3394 1513 3394 
Q 1903 3394 2198 3281 
Q 2494 3169 2634 2976 
Q 2775 2784 2828 2463 
L 2278 2388 
Q 2241 2644 2061 2787 
Q 1881 2931 1553 2931 
Q 1166 2931 1000 2803 
Q 834 2675 834 2503 
Q 834 2394 903 2306 
Q 972 2216 1119 2156 
Q 1203 2125 1616 2013 
Q 2213 1853 2448 1751 
Q 2684 1650 2818 1456 
Q 2953 1263 2953 975 
Q 2953 694 2789 445 
Q 2625 197 2315 61 
Q 2006 -75 1616 -75 
Q 969 -75 630 194 
Q 291 463 197 991 
z
" transform="scale(0.015625)"/>
       <path id="ArialMT-74" d="M 1650 503 
L 1731 6 
Q 1494 -44 1306 -44 
Q 1000 -44 831 53 
Q 663 150 594 308 
Q 525 466 525 972 
L 525 2881 
L 113 2881 
L 113 3319 
L 525 3319 
L 525 4141 
L 1084 4478 
L 1084 3319 
L 1650 3319 
L 1650 2881 
L 1084 2881 
L 1084 941 
Q 1084 700 1114 631 
Q 1144 563 1211 522 
Q 1278 481 1403 481 
Q 1497 481 1650 503 
z
" transform="scale(0.015625)"/>
       <path id="ArialMT-61" d="M 2588 409 
Q 2275 144 1986 34 
Q 1697 -75 1366 -75 
Q 819 -75 525 192 
Q 231 459 231 875 
Q 231 1119 342 1320 
Q 453 1522 633 1644 
Q 813 1766 1038 1828 
Q 1203 1872 1538 1913 
Q 2219 1994 2541 2106 
Q 2544 2222 2544 2253 
Q 2544 2597 2384 2738 
Q 2169 2928 1744 2928 
Q 1347 2928 1158 2789 
Q 969 2650 878 2297 
L 328 2372 
Q 403 2725 575 2942 
Q 747 3159 1072 3276 
Q 1397 3394 1825 3394 
Q 2250 3394 2515 3294 
Q 2781 3194 2906 3042 
Q 3031 2891 3081 2659 
Q 3109 2516 3109 2141 
L 3109 1391 
Q 3109 606 3145 398 
Q 3181 191 3288 0 
L 2700 0 
Q 2613 175 2588 409 
z
M 2541 1666 
Q 2234 1541 1622 1453 
Q 1275 1403 1131 1340 
Q 988 1278 909 1158 
Q 831 1038 831 891 
Q 831 666 1001 516 
Q 1172 366 1500 366 
Q 1825 366 2078 508 
Q 2331 650 2450 897 
Q 2541 1088 2541 1459 
L 2541 1666 
z
" transform="scale(0.015625)"/>
       <path id="ArialMT-75" d="M 2597 0 
L 2597 488 
Q 2209 -75 1544 -75 
Q 1250 -75 995 37 
Q 741 150 617 320 
Q 494 491 444 738 
Q 409 903 409 1263 
L 409 3319 
L 972 3319 
L 972 1478 
Q 972 1038 1006 884 
Q 1059 663 1231 536 
Q 1403 409 1656 409 
Q 1909 409 2131 539 
Q 2353 669 2445 892 
Q 2538 1116 2538 1541 
L 2538 3319 
L 3100 3319 
L 3100 0 
L 2597 0 
z
" transform="scale(0.015625)"/>
       <path id="ArialMT-5b" d="M 434 -1272 
L 434 4581 
L 1675 4581 
L 1675 4116 
L 997 4116 
L 997 -806 
L 1675 -806 
L 1675 -1272 
L 434 -1272 
z
" transform="scale(0.015625)"/>
       <path id="ArialMT-2e" d="M 581 0 
L 581 641 
L 1222 641 
L 1222 0 
L 581 0 
z
" transform="scale(0.015625)"/>
       <path id="ArialMT-5d" d="M 1363 -1272 
L 122 -1272 
L 122 -806 
L 800 -806 
L 800 4116 
L 122 4116 
L 122 4581 
L 1363 4581 
L 1363 -1272 
z
" transform="scale(0.015625)"/>
      </defs>
      <use xlink:href="#ArialMT-53"/>
      <use xlink:href="#ArialMT-6f" x="66.699219"/>
      <use xlink:href="#ArialMT-63" x="122.314453"/>
      <use xlink:href="#ArialMT-69" x="172.314453"/>
      <use xlink:href="#ArialMT-6f" x="194.53125"/>
      <use xlink:href="#ArialMT-2d" x="250.146484"/>
      <use xlink:href="#ArialMT-65" x="283.447266"/>
      <use xlink:href="#ArialMT-63" x="339.0625"/>
      <use xlink:href="#ArialMT-6f" x="389.0625"/>
      <use xlink:href="#ArialMT-6e" x="444.677734"/>
      <use xlink:href="#ArialMT-6f" x="500.292969"/>
      <use xlink:href="#ArialMT-6d" x="555.908203"/>
      <use xlink:href="#ArialMT-69" x="639.208984"/>
      <use xlink:href="#ArialMT-63" x="661.425781"/>
      <use xlink:href="#ArialMT-20" x="711.425781"/>
      <use xlink:href="#ArialMT-73" x="739.208984"/>
      <use xlink:href="#ArialMT-74" x="789.208984"/>
      <use xlink:href="#ArialMT-61" x="816.992188"/>
      <use xlink:href="#ArialMT-74" x="872.607422"/>
      <use xlink:href="#ArialMT-75" x="900.390625"/>
      <use xlink:href="#ArialMT-73" x="956.005859"/>
      <use xlink:href="#ArialMT-20" x="1006.005859"/>
      <use xlink:href="#ArialMT-5b" x="1033.789062"/>
      <use xlink:href="#ArialMT-61" x="1061.572266"/>
      <use xlink:href="#ArialMT-2e" x="1117.1875"/>
      <use xlink:href="#ArialMT-75" x="1144.970703"/>
      <use xlink:href="#ArialMT-2e" x="1200.585938"/>
      <use xlink:href="#ArialMT-5d" x="1228.369141"/>
     </g>
    </g>
   </g>
   <g id="matplotlib.axis_2">
    <g id="ytick_1">
     <g id="text_5">
      <!-- −2 -->
      <g style="fill: #262626" transform="translate(15.159219 85.970467) scale(0.05 -0.05)">
       <defs>
        <path id="ArialMT-2212" d="M 3381 1997 
L 356 1997 
L 356 2522 
L 3381 2522 
L 3381 1997 
z
" transform="scale(0.015625)"/>
        <path id="ArialMT-32" d="M 3222 541 
L 3222 0 
L 194 0 
Q 188 203 259 391 
Q 375 700 629 1000 
Q 884 1300 1366 1694 
Q 2113 2306 2375 2664 
Q 2638 3022 2638 3341 
Q 2638 3675 2398 3904 
Q 2159 4134 1775 4134 
Q 1369 4134 1125 3890 
Q 881 3647 878 3216 
L 300 3275 
Q 359 3922 746 4261 
Q 1134 4600 1788 4600 
Q 2447 4600 2831 4234 
Q 3216 3869 3216 3328 
Q 3216 3053 3103 2787 
Q 2991 2522 2730 2228 
Q 2469 1934 1863 1422 
Q 1356 997 1212 845 
Q 1069 694 975 541 
L 3222 541 
z
" transform="scale(0.015625)"/>
       </defs>
       <use xlink:href="#ArialMT-2212"/>
       <use xlink:href="#ArialMT-32" x="58.398438"/>
      </g>
     </g>
    </g>
    <g id="ytick_2">
     <g id="text_6">
      <!-- −1 -->
      <g style="fill: #262626" transform="translate(15.159219 67.871398) scale(0.05 -0.05)">
       <defs>
        <path id="ArialMT-31" d="M 2384 0 
L 1822 0 
L 1822 3584 
Q 1619 3391 1289 3197 
Q 959 3003 697 2906 
L 697 3450 
Q 1169 3672 1522 3987 
Q 1875 4303 2022 4600 
L 2384 4600 
L 2384 0 
z
" transform="scale(0.015625)"/>
       </defs>
       <use xlink:href="#ArialMT-2212"/>
       <use xlink:href="#ArialMT-31" x="58.398438"/>
      </g>
     </g>
    </g>
    <g id="ytick_3">
     <g id="text_7">
      <!-- 0 -->
      <g style="fill: #262626" transform="translate(18.079531 49.772329) scale(0.05 -0.05)">
       <defs>
        <path id="ArialMT-30" d="M 266 2259 
Q 266 3072 433 3567 
Q 600 4063 929 4331 
Q 1259 4600 1759 4600 
Q 2128 4600 2406 4451 
Q 2684 4303 2865 4023 
Q 3047 3744 3150 3342 
Q 3253 2941 3253 2259 
Q 3253 1453 3087 958 
Q 2922 463 2592 192 
Q 2263 -78 1759 -78 
Q 1097 -78 719 397 
Q 266 969 266 2259 
z
M 844 2259 
Q 844 1131 1108 757 
Q 1372 384 1759 384 
Q 2147 384 2411 759 
Q 2675 1134 2675 2259 
Q 2675 3391 2411 3762 
Q 2147 4134 1753 4134 
Q 1366 4134 1134 3806 
Q 844 3388 844 2259 
z
" transform="scale(0.015625)"/>
       </defs>
       <use xlink:href="#ArialMT-30"/>
      </g>
     </g>
    </g>
    <g id="ytick_4">
     <g id="text_8">
      <!-- 1 -->
      <g style="fill: #262626" transform="translate(18.079531 31.673261) scale(0.05 -0.05)">
       <use xlink:href="#ArialMT-31"/>
      </g>
     </g>
    </g>
    <g id="ytick_5">
     <g id="text_9">
      <!-- 2 -->
      <g style="fill: #262626" transform="translate(18.079531 13.574192) scale(0.05 -0.05)">
       <use xlink:href="#ArialMT-32"/>
      </g>
     </g>
    </g>
    <g id="text_10">
     <!-- CTh PC1 [a.u.] -->
     <g style="fill: #262626" transform="translate(9.966719 67.149476) rotate(-90) scale(0.06 -0.06)">
      <defs>
       <path id="ArialMT-43" d="M 3763 1606 
L 4369 1453 
Q 4178 706 3683 314 
Q 3188 -78 2472 -78 
Q 1731 -78 1267 223 
Q 803 525 561 1097 
Q 319 1669 319 2325 
Q 319 3041 592 3573 
Q 866 4106 1370 4382 
Q 1875 4659 2481 4659 
Q 3169 4659 3637 4309 
Q 4106 3959 4291 3325 
L 3694 3184 
Q 3534 3684 3231 3912 
Q 2928 4141 2469 4141 
Q 1941 4141 1586 3887 
Q 1231 3634 1087 3207 
Q 944 2781 944 2328 
Q 944 1744 1114 1308 
Q 1284 872 1643 656 
Q 2003 441 2422 441 
Q 2931 441 3284 734 
Q 3638 1028 3763 1606 
z
" transform="scale(0.015625)"/>
       <path id="ArialMT-54" d="M 1659 0 
L 1659 4041 
L 150 4041 
L 150 4581 
L 3781 4581 
L 3781 4041 
L 2266 4041 
L 2266 0 
L 1659 0 
z
" transform="scale(0.015625)"/>
       <path id="ArialMT-50" d="M 494 0 
L 494 4581 
L 2222 4581 
Q 2678 4581 2919 4538 
Q 3256 4481 3484 4323 
Q 3713 4166 3852 3881 
Q 3991 3597 3991 3256 
Q 3991 2672 3619 2267 
Q 3247 1863 2275 1863 
L 1100 1863 
L 1100 0 
L 494 0 
z
M 1100 2403 
L 2284 2403 
Q 2872 2403 3119 2622 
Q 3366 2841 3366 3238 
Q 3366 3525 3220 3729 
Q 3075 3934 2838 4000 
Q 2684 4041 2272 4041 
L 1100 4041 
L 1100 2403 
z
" transform="scale(0.015625)"/>
      </defs>
      <use xlink:href="#ArialMT-43"/>
      <use xlink:href="#ArialMT-54" x="72.216797"/>
      <use xlink:href="#ArialMT-68" x="133.300781"/>
      <use xlink:href="#ArialMT-20" x="188.916016"/>
      <use xlink:href="#ArialMT-50" x="216.699219"/>
      <use xlink:href="#ArialMT-43" x="283.398438"/>
      <use xlink:href="#ArialMT-31" x="355.615234"/>
      <use xlink:href="#ArialMT-20" x="411.230469"/>
      <use xlink:href="#ArialMT-5b" x="439.013672"/>
      <use xlink:href="#ArialMT-61" x="466.796875"/>
      <use xlink:href="#ArialMT-2e" x="522.412109"/>
      <use xlink:href="#ArialMT-75" x="550.195312"/>
      <use xlink:href="#ArialMT-2e" x="605.810547"/>
      <use xlink:href="#ArialMT-5d" x="633.59375"/>
     </g>
    </g>
   </g>
   <g id="PathCollection_1">
    <defs>
     <path id="C0_0_c46eb9ee23" d="M 0 0.866025 
C 0.229673 0.866025 0.449969 0.774776 0.612372 0.612372 
C 0.774776 0.449969 0.866025 0.229673 0.866025 -0 
C 0.866025 -0.229673 0.774776 -0.449969 0.612372 -0.612372 
C 0.449969 -0.774776 0.229673 -0.866025 0 -0.866025 
C -0.229673 -0.866025 -0.449969 -0.774776 -0.612372 -0.612372 
C -0.774776 -0.449969 -0.866025 -0.229673 -0.866025 0 
C -0.866025 0.229673 -0.774776 0.449969 -0.612372 0.612372 
C -0.449969 0.774776 -0.229673 0.866025 0 0.866025 
z
"/>
    </defs>
    <g clip-path="url(#paa3fa82d25)">
     <use xlink:href="#C0_0_c46eb9ee23" x="87.932756" y="39.413394" style="fill: #ff8c00; fill-opacity: 0.8"/>
    </g>
    <g clip-path="url(#paa3fa82d25)">
     <use xlink:href="#C0_0_c46eb9ee23" x="87.932756" y="58.869134" style="fill: #ff8c00; fill-opacity: 0.8"/>
    </g>
    <g clip-path="url(#paa3fa82d25)">
     <use xlink:href="#C0_0_c46eb9ee23" x="144.817079" y="26.333998" style="fill: #ff8c00; fill-opacity: 0.8"/>
    </g>
    <g clip-path="url(#paa3fa82d25)">
     <use xlink:href="#C0_0_c46eb9ee23" x="87.932756" y="36.52712" style="fill: #ff8c00; fill-opacity: 0.8"/>
    </g>
    <g clip-path="url(#paa3fa82d25)">
     <use xlink:href="#C0_0_c46eb9ee23" x="144.817079" y="64.938029" style="fill: #ff8c00; fill-opacity: 0.8"/>
    </g>
    <g clip-path="url(#paa3fa82d25)">
     <use xlink:href="#C0_0_c46eb9ee23" x="31.048432" y="54.208158" style="fill: #ff8c00; fill-opacity: 0.8"/>
    </g>
    <g clip-path="url(#paa3fa82d25)">
     <use xlink:href="#C0_0_c46eb9ee23" x="144.817079" y="78.192194" style="fill: #ff8c00; fill-opacity: 0.8"/>
    </g>
    <g clip-path="url(#paa3fa82d25)">
     <use xlink:href="#C0_0_c46eb9ee23" x="87.932756" y="57.84071" style="fill: #ff8c00; fill-opacity: 0.8"/>
    </g>
    <g clip-path="url(#paa3fa82d25)">
     <use xlink:href="#C0_0_c46eb9ee23" x="87.932756" y="65.313019" style="fill: #ff8c00; fill-opacity: 0.8"/>
    </g>
    <g clip-path="url(#paa3fa82d25)">
     <use xlink:href="#C0_0_c46eb9ee23" x="31.048432" y="9.209924" style="fill: #ff8c00; fill-opacity: 0.8"/>
    </g>
    <g clip-path="url(#paa3fa82d25)">
     <use xlink:href="#C0_0_c46eb9ee23" x="31.048432" y="72.643244" style="fill: #ff8c00; fill-opacity: 0.8"/>
    </g>
    <g clip-path="url(#paa3fa82d25)">
     <use xlink:href="#C0_0_c46eb9ee23" x="87.932756" y="45.167351" style="fill: #ff8c00; fill-opacity: 0.8"/>
    </g>
    <g clip-path="url(#paa3fa82d25)">
     <use xlink:href="#C0_0_c46eb9ee23" x="87.932756" y="38.118573" style="fill: #ff8c00; fill-opacity: 0.8"/>
    </g>
    <g clip-path="url(#paa3fa82d25)">
     <use xlink:href="#C0_0_c46eb9ee23" x="87.932756" y="22.990346" style="fill: #ff8c00; fill-opacity: 0.8"/>
    </g>
    <g clip-path="url(#paa3fa82d25)">
     <use xlink:href="#C0_0_c46eb9ee23" x="31.048432" y="61.196053" style="fill: #ff8c00; fill-opacity: 0.8"/>
    </g>
    <g clip-path="url(#paa3fa82d25)">
     <use xlink:href="#C0_0_c46eb9ee23" x="31.048432" y="37.886691" style="fill: #ff8c00; fill-opacity: 0.8"/>
    </g>
    <g clip-path="url(#paa3fa82d25)">
     <use xlink:href="#C0_0_c46eb9ee23" x="31.048432" y="41.402471" style="fill: #ff8c00; fill-opacity: 0.8"/>
    </g>
    <g clip-path="url(#paa3fa82d25)">
     <use xlink:href="#C0_0_c46eb9ee23" x="31.048432" y="41.283853" style="fill: #ff8c00; fill-opacity: 0.8"/>
    </g>
    <g clip-path="url(#paa3fa82d25)">
     <use xlink:href="#C0_0_c46eb9ee23" x="87.932756" y="71.842322" style="fill: #ff8c00; fill-opacity: 0.8"/>
    </g>
    <g clip-path="url(#paa3fa82d25)">
     <use xlink:href="#C0_0_c46eb9ee23" x="31.048432" y="48.855849" style="fill: #ff8c00; fill-opacity: 0.8"/>
    </g>
    <g clip-path="url(#paa3fa82d25)">
     <use xlink:href="#C0_0_c46eb9ee23" x="87.932756" y="83.833692" style="fill: #ff8c00; fill-opacity: 0.8"/>
    </g>
    <g clip-path="url(#paa3fa82d25)">
     <use xlink:href="#C0_0_c46eb9ee23" x="87.932756" y="64.872007" style="fill: #ff8c00; fill-opacity: 0.8"/>
    </g>
    <g clip-path="url(#paa3fa82d25)">
     <use xlink:href="#C0_0_c46eb9ee23" x="144.817079" y="47.163512" style="fill: #ff8c00; fill-opacity: 0.8"/>
    </g>
    <g clip-path="url(#paa3fa82d25)">
     <use xlink:href="#C0_0_c46eb9ee23" x="144.817079" y="37.48877" style="fill: #ff8c00; fill-opacity: 0.8"/>
    </g>
    <g clip-path="url(#paa3fa82d25)">
     <use xlink:href="#C0_0_c46eb9ee23" x="87.932756" y="60.543391" style="fill: #ff8c00; fill-opacity: 0.8"/>
    </g>
    <g clip-path="url(#paa3fa82d25)">
     <use xlink:href="#C0_0_c46eb9ee23" x="87.932756" y="50.01023" style="fill: #ff8c00; fill-opacity: 0.8"/>
    </g>
    <g clip-path="url(#paa3fa82d25)">
     <use xlink:href="#C0_0_c46eb9ee23" x="87.932756" y="39.221364" style="fill: #ff8c00; fill-opacity: 0.8"/>
    </g>
    <g clip-path="url(#paa3fa82d25)">
     <use xlink:href="#C0_0_c46eb9ee23" x="31.048432" y="16.732609" style="fill: #ff8c00; fill-opacity: 0.8"/>
    </g>
    <g clip-path="url(#paa3fa82d25)">
     <use xlink:href="#C0_0_c46eb9ee23" x="87.932756" y="75.11999" style="fill: #ff8c00; fill-opacity: 0.8"/>
    </g>
    <g clip-path="url(#paa3fa82d25)">
     <use xlink:href="#C0_0_c46eb9ee23" x="144.817079" y="74.013008" style="fill: #ff8c00; fill-opacity: 0.8"/>
    </g>
    <g clip-path="url(#paa3fa82d25)">
     <use xlink:href="#C0_0_c46eb9ee23" x="87.932756" y="44.828826" style="fill: #ff8c00; fill-opacity: 0.8"/>
    </g>
    <g clip-path="url(#paa3fa82d25)">
     <use xlink:href="#C0_0_c46eb9ee23" x="87.932756" y="36.878821" style="fill: #ff8c00; fill-opacity: 0.8"/>
    </g>
    <g clip-path="url(#paa3fa82d25)">
     <use xlink:href="#C0_0_c46eb9ee23" x="144.817079" y="40.991796" style="fill: #ff8c00; fill-opacity: 0.8"/>
    </g>
    <g clip-path="url(#paa3fa82d25)">
     <use xlink:href="#C0_0_c46eb9ee23" x="87.932756" y="69.689187" style="fill: #ff8c00; fill-opacity: 0.8"/>
    </g>
    <g clip-path="url(#paa3fa82d25)">
     <use xlink:href="#C0_0_c46eb9ee23" x="87.932756" y="52.078841" style="fill: #ff8c00; fill-opacity: 0.8"/>
    </g>
    <g clip-path="url(#paa3fa82d25)">
     <use xlink:href="#C0_0_c46eb9ee23" x="87.932756" y="64.615886" style="fill: #ff8c00; fill-opacity: 0.8"/>
    </g>
    <g clip-path="url(#paa3fa82d25)">
     <use xlink:href="#C0_0_c46eb9ee23" x="87.932756" y="79.971689" style="fill: #ff8c00; fill-opacity: 0.8"/>
    </g>
    <g clip-path="url(#paa3fa82d25)">
     <use xlink:href="#C0_0_c46eb9ee23" x="144.817079" y="34.461329" style="fill: #ff8c00; fill-opacity: 0.8"/>
    </g>
    <g clip-path="url(#paa3fa82d25)">
     <use xlink:href="#C0_0_c46eb9ee23" x="87.932756" y="64.69075" style="fill: #ff8c00; fill-opacity: 0.8"/>
    </g>
    <g clip-path="url(#paa3fa82d25)">
     <use xlink:href="#C0_0_c46eb9ee23" x="144.817079" y="43.868807" style="fill: #ff8c00; fill-opacity: 0.8"/>
    </g>
    <g clip-path="url(#paa3fa82d25)">
     <use xlink:href="#C0_0_c46eb9ee23" x="87.932756" y="36.091251" style="fill: #ff8c00; fill-opacity: 0.8"/>
    </g>
    <g clip-path="url(#paa3fa82d25)">
     <use xlink:href="#C0_0_c46eb9ee23" x="87.932756" y="65.944301" style="fill: #ff8c00; fill-opacity: 0.8"/>
    </g>
    <g clip-path="url(#paa3fa82d25)">
     <use xlink:href="#C0_0_c46eb9ee23" x="144.817079" y="65.042369" style="fill: #ff8c00; fill-opacity: 0.8"/>
    </g>
    <g clip-path="url(#paa3fa82d25)">
     <use xlink:href="#C0_0_c46eb9ee23" x="144.817079" y="42.068209" style="fill: #ff8c00; fill-opacity: 0.8"/>
    </g>
    <g clip-path="url(#paa3fa82d25)">
     <use xlink:href="#C0_0_c46eb9ee23" x="31.048432" y="26.221173" style="fill: #ff8c00; fill-opacity: 0.8"/>
    </g>
    <g clip-path="url(#paa3fa82d25)">
     <use xlink:href="#C0_0_c46eb9ee23" x="87.932756" y="80.18475" style="fill: #ff8c00; fill-opacity: 0.8"/>
    </g>
    <g clip-path="url(#paa3fa82d25)">
     <use xlink:href="#C0_0_c46eb9ee23" x="87.932756" y="57.147784" style="fill: #ff8c00; fill-opacity: 0.8"/>
    </g>
    <g clip-path="url(#paa3fa82d25)">
     <use xlink:href="#C0_0_c46eb9ee23" x="87.932756" y="42.723851" style="fill: #ff8c00; fill-opacity: 0.8"/>
    </g>
    <g clip-path="url(#paa3fa82d25)">
     <use xlink:href="#C0_0_c46eb9ee23" x="144.817079" y="50.565159" style="fill: #ff8c00; fill-opacity: 0.8"/>
    </g>
    <g clip-path="url(#paa3fa82d25)">
     <use xlink:href="#C0_0_c46eb9ee23" x="31.048432" y="39.536523" style="fill: #ff8c00; fill-opacity: 0.8"/>
    </g>
    <g clip-path="url(#paa3fa82d25)">
     <use xlink:href="#C0_0_c46eb9ee23" x="144.817079" y="30.524431" style="fill: #ff8c00; fill-opacity: 0.8"/>
    </g>
    <g clip-path="url(#paa3fa82d25)">
     <use xlink:href="#C0_0_c46eb9ee23" x="144.817079" y="79.250623" style="fill: #ff8c00; fill-opacity: 0.8"/>
    </g>
    <g clip-path="url(#paa3fa82d25)">
     <use xlink:href="#C0_0_c46eb9ee23" x="144.817079" y="85.408403" style="fill: #ff8c00; fill-opacity: 0.8"/>
    </g>
    <g clip-path="url(#paa3fa82d25)">
     <use xlink:href="#C0_0_c46eb9ee23" x="144.817079" y="82.1391" style="fill: #ff8c00; fill-opacity: 0.8"/>
    </g>
    <g clip-path="url(#paa3fa82d25)">
     <use xlink:href="#C0_0_c46eb9ee23" x="31.048432" y="27.143743" style="fill: #ff8c00; fill-opacity: 0.8"/>
    </g>
    <g clip-path="url(#paa3fa82d25)">
     <use xlink:href="#C0_0_c46eb9ee23" x="87.932756" y="67.423317" style="fill: #ff8c00; fill-opacity: 0.8"/>
    </g>
    <g clip-path="url(#paa3fa82d25)">
     <use xlink:href="#C0_0_c46eb9ee23" x="31.048432" y="55.299285" style="fill: #ff8c00; fill-opacity: 0.8"/>
    </g>
    <g clip-path="url(#paa3fa82d25)">
     <use xlink:href="#C0_0_c46eb9ee23" x="31.048432" y="31.676635" style="fill: #ff8c00; fill-opacity: 0.8"/>
    </g>
    <g clip-path="url(#paa3fa82d25)">
     <use xlink:href="#C0_0_c46eb9ee23" x="87.932756" y="64.973554" style="fill: #ff8c00; fill-opacity: 0.8"/>
    </g>
    <g clip-path="url(#paa3fa82d25)">
     <use xlink:href="#C0_0_c46eb9ee23" x="31.048432" y="64.638408" style="fill: #ff8c00; fill-opacity: 0.8"/>
    </g>
    <g clip-path="url(#paa3fa82d25)">
     <use xlink:href="#C0_0_c46eb9ee23" x="31.048432" y="57.229617" style="fill: #ff8c00; fill-opacity: 0.8"/>
    </g>
    <g clip-path="url(#paa3fa82d25)">
     <use xlink:href="#C0_0_c46eb9ee23" x="87.932756" y="68.10503" style="fill: #ff8c00; fill-opacity: 0.8"/>
    </g>
    <g clip-path="url(#paa3fa82d25)">
     <use xlink:href="#C0_0_c46eb9ee23" x="31.048432" y="39.80706" style="fill: #ff8c00; fill-opacity: 0.8"/>
    </g>
    <g clip-path="url(#paa3fa82d25)">
     <use xlink:href="#C0_0_c46eb9ee23" x="144.817079" y="70.321093" style="fill: #ff8c00; fill-opacity: 0.8"/>
    </g>
    <g clip-path="url(#paa3fa82d25)">
     <use xlink:href="#C0_0_c46eb9ee23" x="87.932756" y="32.694279" style="fill: #ff8c00; fill-opacity: 0.8"/>
    </g>
    <g clip-path="url(#paa3fa82d25)">
     <use xlink:href="#C0_0_c46eb9ee23" x="144.817079" y="45.315888" style="fill: #ff8c00; fill-opacity: 0.8"/>
    </g>
    <g clip-path="url(#paa3fa82d25)">
     <use xlink:href="#C0_0_c46eb9ee23" x="87.932756" y="22.929977" style="fill: #ff8c00; fill-opacity: 0.8"/>
    </g>
    <g clip-path="url(#paa3fa82d25)">
     <use xlink:href="#C0_0_c46eb9ee23" x="31.048432" y="41.455498" style="fill: #ff8c00; fill-opacity: 0.8"/>
    </g>
    <g clip-path="url(#paa3fa82d25)">
     <use xlink:href="#C0_0_c46eb9ee23" x="144.817079" y="74.088511" style="fill: #ff8c00; fill-opacity: 0.8"/>
    </g>
    <g clip-path="url(#paa3fa82d25)">
     <use xlink:href="#C0_0_c46eb9ee23" x="31.048432" y="63.31011" style="fill: #ff8c00; fill-opacity: 0.8"/>
    </g>
    <g clip-path="url(#paa3fa82d25)">
     <use xlink:href="#C0_0_c46eb9ee23" x="144.817079" y="16.49939" style="fill: #ff8c00; fill-opacity: 0.8"/>
    </g>
    <g clip-path="url(#paa3fa82d25)">
     <use xlink:href="#C0_0_c46eb9ee23" x="31.048432" y="59.927785" style="fill: #ff8c00; fill-opacity: 0.8"/>
    </g>
    <g clip-path="url(#paa3fa82d25)">
     <use xlink:href="#C0_0_c46eb9ee23" x="144.817079" y="19.876844" style="fill: #ff8c00; fill-opacity: 0.8"/>
    </g>
    <g clip-path="url(#paa3fa82d25)">
     <use xlink:href="#C0_0_c46eb9ee23" x="87.932756" y="67.404697" style="fill: #ff8c00; fill-opacity: 0.8"/>
    </g>
    <g clip-path="url(#paa3fa82d25)">
     <use xlink:href="#C0_0_c46eb9ee23" x="144.817079" y="58.58895" style="fill: #ff8c00; fill-opacity: 0.8"/>
    </g>
    <g clip-path="url(#paa3fa82d25)">
     <use xlink:href="#C0_0_c46eb9ee23" x="31.048432" y="50.037312" style="fill: #ff8c00; fill-opacity: 0.8"/>
    </g>
    <g clip-path="url(#paa3fa82d25)">
     <use xlink:href="#C0_0_c46eb9ee23" x="144.817079" y="72.344653" style="fill: #ff8c00; fill-opacity: 0.8"/>
    </g>
    <g clip-path="url(#paa3fa82d25)">
     <use xlink:href="#C0_0_c46eb9ee23" x="87.932756" y="50.543597" style="fill: #ff8c00; fill-opacity: 0.8"/>
    </g>
    <g clip-path="url(#paa3fa82d25)">
     <use xlink:href="#C0_0_c46eb9ee23" x="31.048432" y="46.272456" style="fill: #ff8c00; fill-opacity: 0.8"/>
    </g>
    <g clip-path="url(#paa3fa82d25)">
     <use xlink:href="#C0_0_c46eb9ee23" x="87.932756" y="75.483193" style="fill: #ff8c00; fill-opacity: 0.8"/>
    </g>
    <g clip-path="url(#paa3fa82d25)">
     <use xlink:href="#C0_0_c46eb9ee23" x="87.932756" y="44.833959" style="fill: #ff8c00; fill-opacity: 0.8"/>
    </g>
    <g clip-path="url(#paa3fa82d25)">
     <use xlink:href="#C0_0_c46eb9ee23" x="87.932756" y="40.090578" style="fill: #ff8c00; fill-opacity: 0.8"/>
    </g>
    <g clip-path="url(#paa3fa82d25)">
     <use xlink:href="#C0_0_c46eb9ee23" x="144.817079" y="61.341484" style="fill: #ff8c00; fill-opacity: 0.8"/>
    </g>
    <g clip-path="url(#paa3fa82d25)">
     <use xlink:href="#C0_0_c46eb9ee23" x="31.048432" y="20.07123" style="fill: #ff8c00; fill-opacity: 0.8"/>
    </g>
    <g clip-path="url(#paa3fa82d25)">
     <use xlink:href="#C0_0_c46eb9ee23" x="87.932756" y="67.238065" style="fill: #ff8c00; fill-opacity: 0.8"/>
    </g>
    <g clip-path="url(#paa3fa82d25)">
     <use xlink:href="#C0_0_c46eb9ee23" x="144.817079" y="82.166167" style="fill: #ff8c00; fill-opacity: 0.8"/>
    </g>
    <g clip-path="url(#paa3fa82d25)">
     <use xlink:href="#C0_0_c46eb9ee23" x="144.817079" y="60.685511" style="fill: #ff8c00; fill-opacity: 0.8"/>
    </g>
    <g clip-path="url(#paa3fa82d25)">
     <use xlink:href="#C0_0_c46eb9ee23" x="144.817079" y="60.128031" style="fill: #ff8c00; fill-opacity: 0.8"/>
    </g>
    <g clip-path="url(#paa3fa82d25)">
     <use xlink:href="#C0_0_c46eb9ee23" x="31.048432" y="64.10555" style="fill: #ff8c00; fill-opacity: 0.8"/>
    </g>
    <g clip-path="url(#paa3fa82d25)">
     <use xlink:href="#C0_0_c46eb9ee23" x="87.932756" y="56.570577" style="fill: #ff8c00; fill-opacity: 0.8"/>
    </g>
    <g clip-path="url(#paa3fa82d25)">
     <use xlink:href="#C0_0_c46eb9ee23" x="31.048432" y="9.756905" style="fill: #ff8c00; fill-opacity: 0.8"/>
    </g>
    <g clip-path="url(#paa3fa82d25)">
     <use xlink:href="#C0_0_c46eb9ee23" x="87.932756" y="32.70561" style="fill: #ff8c00; fill-opacity: 0.8"/>
    </g>
    <g clip-path="url(#paa3fa82d25)">
     <use xlink:href="#C0_0_c46eb9ee23" x="144.817079" y="26.668919" style="fill: #ff8c00; fill-opacity: 0.8"/>
    </g>
    <g clip-path="url(#paa3fa82d25)">
     <use xlink:href="#C0_0_c46eb9ee23" x="31.048432" y="54.199417" style="fill: #ff8c00; fill-opacity: 0.8"/>
    </g>
    <g clip-path="url(#paa3fa82d25)">
     <use xlink:href="#C0_0_c46eb9ee23" x="87.932756" y="17.854659" style="fill: #ff8c00; fill-opacity: 0.8"/>
    </g>
    <g clip-path="url(#paa3fa82d25)">
     <use xlink:href="#C0_0_c46eb9ee23" x="87.932756" y="72.338713" style="fill: #ff8c00; fill-opacity: 0.8"/>
    </g>
   </g>
   <g id="PolyCollection_1">
    <defs>
     <path id="m4ad50a14af" d="M 31.048432 -73.526854 
L 31.048432 -61.423127 
L 32.197611 -61.390389 
L 33.346789 -61.339425 
L 34.495967 -61.302597 
L 35.645145 -61.277928 
L 36.794324 -61.243327 
L 37.943502 -61.200401 
L 39.09268 -61.163057 
L 40.241858 -61.112036 
L 41.391037 -61.095044 
L 42.540215 -61.04592 
L 43.689393 -61.002187 
L 44.838571 -60.949805 
L 45.98775 -60.909151 
L 47.136928 -60.884248 
L 48.286106 -60.844631 
L 49.435284 -60.801635 
L 50.584463 -60.740968 
L 51.733641 -60.695816 
L 52.882819 -60.638487 
L 54.031997 -60.587819 
L 55.181176 -60.552683 
L 56.330354 -60.51042 
L 57.479532 -60.456737 
L 58.62871 -60.389727 
L 59.777889 -60.33722 
L 60.927067 -60.29676 
L 62.076245 -60.252126 
L 63.225423 -60.191986 
L 64.374602 -60.144053 
L 65.52378 -60.090844 
L 66.672958 -60.020394 
L 67.822136 -59.93786 
L 68.971315 -59.855516 
L 70.120493 -59.810352 
L 71.269671 -59.726018 
L 72.418849 -59.648255 
L 73.568028 -59.58599 
L 74.717206 -59.50714 
L 75.866384 -59.414173 
L 77.015562 -59.326432 
L 78.164741 -59.236059 
L 79.313919 -59.139914 
L 80.463097 -59.040183 
L 81.612276 -58.947336 
L 82.761454 -58.851529 
L 83.910632 -58.747889 
L 85.05981 -58.642838 
L 86.208989 -58.533247 
L 87.358167 -58.404733 
L 88.507345 -58.288234 
L 89.656523 -58.168711 
L 90.805702 -58.049316 
L 91.95488 -57.912193 
L 93.104058 -57.773573 
L 94.253236 -57.659439 
L 95.402415 -57.527799 
L 96.551593 -57.406863 
L 97.700771 -57.260648 
L 98.849949 -57.119772 
L 99.999128 -56.96234 
L 101.148306 -56.817355 
L 102.297484 -56.661482 
L 103.446662 -56.501092 
L 104.595841 -56.34119 
L 105.745019 -56.17538 
L 106.894197 -56.003516 
L 108.043375 -55.814088 
L 109.192554 -55.642788 
L 110.341732 -55.495905 
L 111.49091 -55.33671 
L 112.640088 -55.159913 
L 113.789267 -54.977279 
L 114.938445 -54.815202 
L 116.087623 -54.632927 
L 117.236801 -54.457031 
L 118.38598 -54.25941 
L 119.535158 -54.09496 
L 120.684336 -53.915605 
L 121.833514 -53.731691 
L 122.982693 -53.566413 
L 124.131871 -53.381764 
L 125.281049 -53.187999 
L 126.430227 -53.00172 
L 127.579406 -52.819536 
L 128.728584 -52.641373 
L 129.877762 -52.458582 
L 131.02694 -52.279594 
L 132.176119 -52.090567 
L 133.325297 -51.904747 
L 134.474475 -51.708318 
L 135.623653 -51.535258 
L 136.772832 -51.361183 
L 137.92201 -51.148392 
L 139.071188 -50.983359 
L 140.220366 -50.780919 
L 141.369545 -50.621979 
L 142.518723 -50.41514 
L 143.667901 -50.208072 
L 144.817079 -50.014808 
L 144.817079 -63.059141 
L 144.817079 -63.059141 
L 143.667901 -63.095504 
L 142.518723 -63.124578 
L 141.369545 -63.147728 
L 140.220366 -63.142311 
L 139.071188 -63.15476 
L 137.92201 -63.193463 
L 136.772832 -63.233082 
L 135.623653 -63.272545 
L 134.474475 -63.305248 
L 133.325297 -63.325799 
L 132.176119 -63.356056 
L 131.02694 -63.394477 
L 129.877762 -63.426776 
L 128.728584 -63.457811 
L 127.579406 -63.488535 
L 126.430227 -63.532323 
L 125.281049 -63.565974 
L 124.131871 -63.607426 
L 122.982693 -63.646937 
L 121.833514 -63.671933 
L 120.684336 -63.711459 
L 119.535158 -63.751411 
L 118.38598 -63.793341 
L 117.236801 -63.827664 
L 116.087623 -63.879497 
L 114.938445 -63.929005 
L 113.789267 -63.969735 
L 112.640088 -64.006482 
L 111.49091 -64.062185 
L 110.341732 -64.109046 
L 109.192554 -64.154125 
L 108.043375 -64.211631 
L 106.894197 -64.265794 
L 105.745019 -64.33392 
L 104.595841 -64.398316 
L 103.446662 -64.462082 
L 102.297484 -64.529863 
L 101.148306 -64.613142 
L 99.999128 -64.69642 
L 98.849949 -64.763583 
L 97.700771 -64.828364 
L 96.551593 -64.892221 
L 95.402415 -64.969968 
L 94.253236 -65.035872 
L 93.104058 -65.142443 
L 91.95488 -65.230357 
L 90.805702 -65.325364 
L 89.656523 -65.417653 
L 88.507345 -65.526245 
L 87.358167 -65.63795 
L 86.208989 -65.740959 
L 85.05981 -65.867239 
L 83.910632 -65.972177 
L 82.761454 -66.086195 
L 81.612276 -66.200004 
L 80.463097 -66.33763 
L 79.313919 -66.452139 
L 78.164741 -66.5952 
L 77.015562 -66.736369 
L 75.866384 -66.872564 
L 74.717206 -66.993391 
L 73.568028 -67.123119 
L 72.418849 -67.26072 
L 71.269671 -67.378065 
L 70.120493 -67.514902 
L 68.971315 -67.644804 
L 67.822136 -67.792552 
L 66.672958 -67.951641 
L 65.52378 -68.093111 
L 64.374602 -68.245547 
L 63.225423 -68.387618 
L 62.076245 -68.554181 
L 60.927067 -68.706129 
L 59.777889 -68.867613 
L 58.62871 -69.058787 
L 57.479532 -69.251692 
L 56.330354 -69.408607 
L 55.181176 -69.56561 
L 54.031997 -69.724591 
L 52.882819 -69.917065 
L 51.733641 -70.122826 
L 50.584463 -70.298434 
L 49.435284 -70.516585 
L 48.286106 -70.679696 
L 47.136928 -70.869951 
L 45.98775 -71.082796 
L 44.838571 -71.262424 
L 43.689393 -71.442314 
L 42.540215 -71.655246 
L 41.391037 -71.836181 
L 40.241858 -72.017743 
L 39.09268 -72.197437 
L 37.943502 -72.393632 
L 36.794324 -72.581432 
L 35.645145 -72.7639 
L 34.495967 -72.966273 
L 33.346789 -73.139971 
L 32.197611 -73.34255 
L 31.048432 -73.526854 
z
" style="stroke: #ffffff; stroke-opacity: 0.15"/>
    </defs>
    <g clip-path="url(#paa3fa82d25)">
     <use xlink:href="#m4ad50a14af" x="0" y="113.385827" style="fill: #ff8c00; fill-opacity: 0.15; stroke: #ffffff; stroke-opacity: 0.15"/>
    </g>
   </g>
   <g id="line2d_1">
    <path d="M 31.048432 46.017922 
L 32.197611 46.12771 
L 33.346789 46.237498 
L 34.495967 46.347286 
L 35.645145 46.457073 
L 36.794324 46.566861 
L 37.943502 46.676649 
L 39.09268 46.786437 
L 40.241858 46.896225 
L 41.391037 47.006012 
L 42.540215 47.1158 
L 43.689393 47.225588 
L 44.838571 47.335376 
L 45.98775 47.445164 
L 47.136928 47.554951 
L 48.286106 47.664739 
L 49.435284 47.774527 
L 50.584463 47.884315 
L 51.733641 47.994103 
L 52.882819 48.10389 
L 54.031997 48.213678 
L 55.181176 48.323466 
L 56.330354 48.433254 
L 57.479532 48.543041 
L 58.62871 48.652829 
L 59.777889 48.762617 
L 60.927067 48.872405 
L 62.076245 48.982193 
L 63.225423 49.09198 
L 64.374602 49.201768 
L 65.52378 49.311556 
L 66.672958 49.421344 
L 67.822136 49.531132 
L 68.971315 49.640919 
L 70.120493 49.750707 
L 71.269671 49.860495 
L 72.418849 49.970283 
L 73.568028 50.080071 
L 74.717206 50.189858 
L 75.866384 50.299646 
L 77.015562 50.409434 
L 78.164741 50.519222 
L 79.313919 50.62901 
L 80.463097 50.738797 
L 81.612276 50.848585 
L 82.761454 50.958373 
L 83.910632 51.068161 
L 85.05981 51.177949 
L 86.208989 51.287736 
L 87.358167 51.397524 
L 88.507345 51.507312 
L 89.656523 51.6171 
L 90.805702 51.726888 
L 91.95488 51.836675 
L 93.104058 51.946463 
L 94.253236 52.056251 
L 95.402415 52.166039 
L 96.551593 52.275827 
L 97.700771 52.385614 
L 98.849949 52.495402 
L 99.999128 52.60519 
L 101.148306 52.714978 
L 102.297484 52.824766 
L 103.446662 52.934553 
L 104.595841 53.044341 
L 105.745019 53.154129 
L 106.894197 53.263917 
L 108.043375 53.373705 
L 109.192554 53.483492 
L 110.341732 53.59328 
L 111.49091 53.703068 
L 112.640088 53.812856 
L 113.789267 53.922644 
L 114.938445 54.032431 
L 116.087623 54.142219 
L 117.236801 54.252007 
L 118.38598 54.361795 
L 119.535158 54.471583 
L 120.684336 54.58137 
L 121.833514 54.691158 
L 122.982693 54.800946 
L 124.131871 54.910734 
L 125.281049 55.020521 
L 126.430227 55.130309 
L 127.579406 55.240097 
L 128.728584 55.349885 
L 129.877762 55.459673 
L 131.02694 55.56946 
L 132.176119 55.679248 
L 133.325297 55.789036 
L 134.474475 55.898824 
L 135.623653 56.008612 
L 136.772832 56.118399 
L 137.92201 56.228187 
L 139.071188 56.337975 
L 140.220366 56.447763 
L 141.369545 56.557551 
L 142.518723 56.667338 
L 143.667901 56.777126 
L 144.817079 56.886914 
" clip-path="url(#paa3fa82d25)" style="fill: none; stroke: #ff8c00; stroke-width: 0.75; stroke-linecap: round"/>
   </g>
   <g id="patch_3">
    <path d="M 25.36 89.218327 
L 25.36 5.4 
" style="fill: none; stroke: #262626; stroke-width: 0.25; stroke-linejoin: miter; stroke-linecap: square"/>
   </g>
   <g id="patch_4">
    <path d="M 25.36 89.218327 
L 150.505512 89.218327 
" style="fill: none; stroke: #262626; stroke-width: 0.25; stroke-linejoin: miter; stroke-linecap: square"/>
   </g>
   <g id="text_11">
    <g id="patch_5">
     <path d="M 29.114365 18.699023 
L 57.514365 18.699023 
Q 59.014365 18.699023 59.014365 17.199023 
L 59.014365 7.132617 
Q 59.014365 5.632617 57.514365 5.632617 
L 29.114365 5.632617 
Q 27.614365 5.632617 27.614365 7.132617 
L 27.614365 17.199023 
Q 27.614365 18.699023 29.114365 18.699023 
z
" style="fill: #c0c0c0; opacity: 0.4; stroke: #c0c0c0; stroke-linejoin: miter"/>
    </g>
    <!-- $r=-0.217$ -->
    <g style="fill: #262626" transform="translate(29.114365 10.655273) scale(0.05 -0.05)">
     <defs>
      <path id="DejaVuSans-Oblique-72" d="M 2853 2969 
Q 2766 3016 2653 3041 
Q 2541 3066 2413 3066 
Q 1953 3066 1609 2717 
Q 1266 2369 1153 1784 
L 800 0 
L 225 0 
L 909 3500 
L 1484 3500 
L 1375 2956 
Q 1603 3259 1920 3421 
Q 2238 3584 2597 3584 
Q 2691 3584 2781 3573 
Q 2872 3563 2963 3538 
L 2853 2969 
z
" transform="scale(0.015625)"/>
      <path id="DejaVuSans-3d" d="M 678 2906 
L 4684 2906 
L 4684 2381 
L 678 2381 
L 678 2906 
z
M 678 1631 
L 4684 1631 
L 4684 1100 
L 678 1100 
L 678 1631 
z
" transform="scale(0.015625)"/>
      <path id="DejaVuSans-2212" d="M 678 2272 
L 4684 2272 
L 4684 1741 
L 678 1741 
L 678 2272 
z
" transform="scale(0.015625)"/>
      <path id="DejaVuSans-30" d="M 2034 4250 
Q 1547 4250 1301 3770 
Q 1056 3291 1056 2328 
Q 1056 1369 1301 889 
Q 1547 409 2034 409 
Q 2525 409 2770 889 
Q 3016 1369 3016 2328 
Q 3016 3291 2770 3770 
Q 2525 4250 2034 4250 
z
M 2034 4750 
Q 2819 4750 3233 4129 
Q 3647 3509 3647 2328 
Q 3647 1150 3233 529 
Q 2819 -91 2034 -91 
Q 1250 -91 836 529 
Q 422 1150 422 2328 
Q 422 3509 836 4129 
Q 1250 4750 2034 4750 
z
" transform="scale(0.015625)"/>
      <path id="DejaVuSans-2e" d="M 684 794 
L 1344 794 
L 1344 0 
L 684 0 
L 684 794 
z
" transform="scale(0.015625)"/>
      <path id="DejaVuSans-32" d="M 1228 531 
L 3431 531 
L 3431 0 
L 469 0 
L 469 531 
Q 828 903 1448 1529 
Q 2069 2156 2228 2338 
Q 2531 2678 2651 2914 
Q 2772 3150 2772 3378 
Q 2772 3750 2511 3984 
Q 2250 4219 1831 4219 
Q 1534 4219 1204 4116 
Q 875 4013 500 3803 
L 500 4441 
Q 881 4594 1212 4672 
Q 1544 4750 1819 4750 
Q 2544 4750 2975 4387 
Q 3406 4025 3406 3419 
Q 3406 3131 3298 2873 
Q 3191 2616 2906 2266 
Q 2828 2175 2409 1742 
Q 1991 1309 1228 531 
z
" transform="scale(0.015625)"/>
      <path id="DejaVuSans-31" d="M 794 531 
L 1825 531 
L 1825 4091 
L 703 3866 
L 703 4441 
L 1819 4666 
L 2450 4666 
L 2450 531 
L 3481 531 
L 3481 0 
L 794 0 
L 794 531 
z
" transform="scale(0.015625)"/>
      <path id="DejaVuSans-37" d="M 525 4666 
L 3525 4666 
L 3525 4397 
L 1831 0 
L 1172 0 
L 2766 4134 
L 525 4134 
L 525 4666 
z
" transform="scale(0.015625)"/>
     </defs>
     <use xlink:href="#DejaVuSans-Oblique-72" transform="translate(0 0.78125)"/>
     <use xlink:href="#DejaVuSans-3d" transform="translate(60.595703 0.78125)"/>
     <use xlink:href="#DejaVuSans-2212" transform="translate(183.349609 0.78125)"/>
     <use xlink:href="#DejaVuSans-30" transform="translate(286.621094 0.78125)"/>
     <use xlink:href="#DejaVuSans-2e" transform="translate(350.244141 0.78125)"/>
     <use xlink:href="#DejaVuSans-32" transform="translate(376.53125 0.78125)"/>
     <use xlink:href="#DejaVuSans-31" transform="translate(440.154297 0.78125)"/>
     <use xlink:href="#DejaVuSans-37" transform="translate(503.777344 0.78125)"/>
    </g>
    <!-- $p=0.033$ -->
    <g style="fill: #262626" transform="translate(29.114365 16.149023) scale(0.05 -0.05)">
     <defs>
      <path id="DejaVuSans-Oblique-70" d="M 3175 2156 
Q 3175 2616 2975 2859 
Q 2775 3103 2400 3103 
Q 2144 3103 1911 2972 
Q 1678 2841 1497 2591 
Q 1319 2344 1212 1994 
Q 1106 1644 1106 1300 
Q 1106 863 1306 627 
Q 1506 391 1875 391 
Q 2147 391 2380 519 
Q 2613 647 2778 891 
Q 2956 1147 3065 1494 
Q 3175 1841 3175 2156 
z
M 1394 2969 
Q 1625 3272 1939 3428 
Q 2253 3584 2638 3584 
Q 3175 3584 3472 3232 
Q 3769 2881 3769 2247 
Q 3769 1728 3584 1258 
Q 3400 788 3053 416 
Q 2822 169 2531 39 
Q 2241 -91 1919 -91 
Q 1547 -91 1294 64 
Q 1041 219 916 525 
L 556 -1331 
L -19 -1331 
L 922 3500 
L 1497 3500 
L 1394 2969 
z
" transform="scale(0.015625)"/>
      <path id="DejaVuSans-33" d="M 2597 2516 
Q 3050 2419 3304 2112 
Q 3559 1806 3559 1356 
Q 3559 666 3084 287 
Q 2609 -91 1734 -91 
Q 1441 -91 1130 -33 
Q 819 25 488 141 
L 488 750 
Q 750 597 1062 519 
Q 1375 441 1716 441 
Q 2309 441 2620 675 
Q 2931 909 2931 1356 
Q 2931 1769 2642 2001 
Q 2353 2234 1838 2234 
L 1294 2234 
L 1294 2753 
L 1863 2753 
Q 2328 2753 2575 2939 
Q 2822 3125 2822 3475 
Q 2822 3834 2567 4026 
Q 2313 4219 1838 4219 
Q 1578 4219 1281 4162 
Q 984 4106 628 3988 
L 628 4550 
Q 988 4650 1302 4700 
Q 1616 4750 1894 4750 
Q 2613 4750 3031 4423 
Q 3450 4097 3450 3541 
Q 3450 3153 3228 2886 
Q 3006 2619 2597 2516 
z
" transform="scale(0.015625)"/>
     </defs>
     <use xlink:href="#DejaVuSans-Oblique-70" transform="translate(0 0.78125)"/>
     <use xlink:href="#DejaVuSans-3d" transform="translate(82.958984 0.78125)"/>
     <use xlink:href="#DejaVuSans-30" transform="translate(186.230469 0.78125)"/>
     <use xlink:href="#DejaVuSans-2e" transform="translate(249.853516 0.78125)"/>
     <use xlink:href="#DejaVuSans-30" transform="translate(281.640625 0.78125)"/>
     <use xlink:href="#DejaVuSans-33" transform="translate(345.263672 0.78125)"/>
     <use xlink:href="#DejaVuSans-33" transform="translate(408.886719 0.78125)"/>
    </g>
   </g>
  </g>
 </g>
 <defs>
  <clipPath id="paa3fa82d25">
   <rect x="25.36" y="5.4" width="125.145512" height="83.818327"/>
  </clipPath>
 </defs>
</svg>
