<?xml version="1.0" encoding="utf-8" standalone="no"?>
<!DOCTYPE svg PUBLIC "-//W3C//DTD SVG 1.1//EN"
  "http://www.w3.org/Graphics/SVG/1.1/DTD/svg11.dtd">
<svg xmlns:xlink="http://www.w3.org/1999/xlink" width="155.905512pt" height="113.385827pt" viewBox="0 0 155.905512 113.385827" xmlns="http://www.w3.org/2000/svg" version="1.1">
 <metadata>
  <rdf:RDF xmlns:dc="http://purl.org/dc/elements/1.1/" xmlns:cc="http://creativecommons.org/ns#" xmlns:rdf="http://www.w3.org/1999/02/22-rdf-syntax-ns#">
   <cc:Work>
    <dc:type rdf:resource="http://purl.org/dc/dcmitype/StillImage"/>
    <dc:date>2024-12-20T15:33:33.900196</dc:date>
    <dc:format>image/svg+xml</dc:format>
    <dc:creator>
     <cc:Agent>
      <dc:title>Matplotlib v3.9.2, https://matplotlib.org/</dc:title>
     </cc:Agent>
    </dc:creator>
   </cc:Work>
  </rdf:RDF>
 </metadata>
 <defs>
  <style type="text/css">*{stroke-linejoin: round; stroke-linecap: butt}</style>
 </defs>
 <g id="figure_1">
  <g id="patch_1">
   <path d="M 0 113.385827 
L 155.905512 113.385827 
L 155.905512 0 
L 0 0 
z
" style="fill: #ffffff"/>
  </g>
  <g id="axes_1">
   <g id="patch_2">
    <path d="M 25.36 89.218327 
L 150.505512 89.218327 
L 150.505512 5.4 
L 25.36 5.4 
z
" style="fill: #ffffff"/>
   </g>
   <g id="matplotlib.axis_1">
    <g id="xtick_1">
     <g id="text_1">
      <!-- 0 -->
      <g style="fill: #262626" transform="translate(29.658198 97.297233) scale(0.05 -0.05)">
       <defs>
        <path id="ArialMT-30" d="M 266 2259 
Q 266 3072 433 3567 
Q 600 4063 929 4331 
Q 1259 4600 1759 4600 
Q 2128 4600 2406 4451 
Q 2684 4303 2865 4023 
Q 3047 3744 3150 3342 
Q 3253 2941 3253 2259 
Q 3253 1453 3087 958 
Q 2922 463 2592 192 
Q 2263 -78 1759 -78 
Q 1097 -78 719 397 
Q 266 969 266 2259 
z
M 844 2259 
Q 844 1131 1108 757 
Q 1372 384 1759 384 
Q 2147 384 2411 759 
Q 2675 1134 2675 2259 
Q 2675 3391 2411 3762 
Q 2147 4134 1753 4134 
Q 1366 4134 1134 3806 
Q 844 3388 844 2259 
z
" transform="scale(0.015625)"/>
       </defs>
       <use xlink:href="#ArialMT-30"/>
      </g>
     </g>
    </g>
    <g id="xtick_2">
     <g id="text_2">
      <!-- 1 -->
      <g style="fill: #262626" transform="translate(58.10036 97.297233) scale(0.05 -0.05)">
       <defs>
        <path id="ArialMT-31" d="M 2384 0 
L 1822 0 
L 1822 3584 
Q 1619 3391 1289 3197 
Q 959 3003 697 2906 
L 697 3450 
Q 1169 3672 1522 3987 
Q 1875 4303 2022 4600 
L 2384 4600 
L 2384 0 
z
" transform="scale(0.015625)"/>
       </defs>
       <use xlink:href="#ArialMT-31"/>
      </g>
     </g>
    </g>
    <g id="xtick_3">
     <g id="text_3">
      <!-- 2 -->
      <g style="fill: #262626" transform="translate(86.542522 97.297233) scale(0.05 -0.05)">
       <defs>
        <path id="ArialMT-32" d="M 3222 541 
L 3222 0 
L 194 0 
Q 188 203 259 391 
Q 375 700 629 1000 
Q 884 1300 1366 1694 
Q 2113 2306 2375 2664 
Q 2638 3022 2638 3341 
Q 2638 3675 2398 3904 
Q 2159 4134 1775 4134 
Q 1369 4134 1125 3890 
Q 881 3647 878 3216 
L 300 3275 
Q 359 3922 746 4261 
Q 1134 4600 1788 4600 
Q 2447 4600 2831 4234 
Q 3216 3869 3216 3328 
Q 3216 3053 3103 2787 
Q 2991 2522 2730 2228 
Q 2469 1934 1863 1422 
Q 1356 997 1212 845 
Q 1069 694 975 541 
L 3222 541 
z
" transform="scale(0.015625)"/>
       </defs>
       <use xlink:href="#ArialMT-32"/>
      </g>
     </g>
    </g>
    <g id="xtick_4">
     <g id="text_4">
      <!-- 3 -->
      <g style="fill: #262626" transform="translate(114.984683 97.297233) scale(0.05 -0.05)">
       <defs>
        <path id="ArialMT-33" d="M 269 1209 
L 831 1284 
Q 928 806 1161 595 
Q 1394 384 1728 384 
Q 2125 384 2398 659 
Q 2672 934 2672 1341 
Q 2672 1728 2419 1979 
Q 2166 2231 1775 2231 
Q 1616 2231 1378 2169 
L 1441 2663 
Q 1497 2656 1531 2656 
Q 1891 2656 2178 2843 
Q 2466 3031 2466 3422 
Q 2466 3731 2256 3934 
Q 2047 4138 1716 4138 
Q 1388 4138 1169 3931 
Q 950 3725 888 3313 
L 325 3413 
Q 428 3978 793 4289 
Q 1159 4600 1703 4600 
Q 2078 4600 2393 4439 
Q 2709 4278 2876 4000 
Q 3044 3722 3044 3409 
Q 3044 3113 2884 2869 
Q 2725 2625 2413 2481 
Q 2819 2388 3044 2092 
Q 3269 1797 3269 1353 
Q 3269 753 2831 336 
Q 2394 -81 1725 -81 
Q 1122 -81 723 278 
Q 325 638 269 1209 
z
" transform="scale(0.015625)"/>
       </defs>
       <use xlink:href="#ArialMT-33"/>
      </g>
     </g>
    </g>
    <g id="xtick_5">
     <g id="text_5">
      <!-- 4 -->
      <g style="fill: #262626" transform="translate(143.426845 97.297233) scale(0.05 -0.05)">
       <defs>
        <path id="ArialMT-34" d="M 2069 0 
L 2069 1097 
L 81 1097 
L 81 1613 
L 2172 4581 
L 2631 4581 
L 2631 1613 
L 3250 1613 
L 3250 1097 
L 2631 1097 
L 2631 0 
L 2069 0 
z
M 2069 1613 
L 2069 3678 
L 634 1613 
L 2069 1613 
z
" transform="scale(0.015625)"/>
       </defs>
       <use xlink:href="#ArialMT-34"/>
      </g>
     </g>
    </g>
    <g id="text_6">
     <!-- Parent-infant relationship index [a.u.] -->
     <g style="fill: #262626" transform="translate(39.073537 106.658796) scale(0.06 -0.06)">
      <defs>
       <path id="ArialMT-50" d="M 494 0 
L 494 4581 
L 2222 4581 
Q 2678 4581 2919 4538 
Q 3256 4481 3484 4323 
Q 3713 4166 3852 3881 
Q 3991 3597 3991 3256 
Q 3991 2672 3619 2267 
Q 3247 1863 2275 1863 
L 1100 1863 
L 1100 0 
L 494 0 
z
M 1100 2403 
L 2284 2403 
Q 2872 2403 3119 2622 
Q 3366 2841 3366 3238 
Q 3366 3525 3220 3729 
Q 3075 3934 2838 4000 
Q 2684 4041 2272 4041 
L 1100 4041 
L 1100 2403 
z
" transform="scale(0.015625)"/>
       <path id="ArialMT-61" d="M 2588 409 
Q 2275 144 1986 34 
Q 1697 -75 1366 -75 
Q 819 -75 525 192 
Q 231 459 231 875 
Q 231 1119 342 1320 
Q 453 1522 633 1644 
Q 813 1766 1038 1828 
Q 1203 1872 1538 1913 
Q 2219 1994 2541 2106 
Q 2544 2222 2544 2253 
Q 2544 2597 2384 2738 
Q 2169 2928 1744 2928 
Q 1347 2928 1158 2789 
Q 969 2650 878 2297 
L 328 2372 
Q 403 2725 575 2942 
Q 747 3159 1072 3276 
Q 1397 3394 1825 3394 
Q 2250 3394 2515 3294 
Q 2781 3194 2906 3042 
Q 3031 2891 3081 2659 
Q 3109 2516 3109 2141 
L 3109 1391 
Q 3109 606 3145 398 
Q 3181 191 3288 0 
L 2700 0 
Q 2613 175 2588 409 
z
M 2541 1666 
Q 2234 1541 1622 1453 
Q 1275 1403 1131 1340 
Q 988 1278 909 1158 
Q 831 1038 831 891 
Q 831 666 1001 516 
Q 1172 366 1500 366 
Q 1825 366 2078 508 
Q 2331 650 2450 897 
Q 2541 1088 2541 1459 
L 2541 1666 
z
" transform="scale(0.015625)"/>
       <path id="ArialMT-72" d="M 416 0 
L 416 3319 
L 922 3319 
L 922 2816 
Q 1116 3169 1280 3281 
Q 1444 3394 1641 3394 
Q 1925 3394 2219 3213 
L 2025 2691 
Q 1819 2813 1613 2813 
Q 1428 2813 1281 2702 
Q 1134 2591 1072 2394 
Q 978 2094 978 1738 
L 978 0 
L 416 0 
z
" transform="scale(0.015625)"/>
       <path id="ArialMT-65" d="M 2694 1069 
L 3275 997 
Q 3138 488 2766 206 
Q 2394 -75 1816 -75 
Q 1088 -75 661 373 
Q 234 822 234 1631 
Q 234 2469 665 2931 
Q 1097 3394 1784 3394 
Q 2450 3394 2872 2941 
Q 3294 2488 3294 1666 
Q 3294 1616 3291 1516 
L 816 1516 
Q 847 969 1125 678 
Q 1403 388 1819 388 
Q 2128 388 2347 550 
Q 2566 713 2694 1069 
z
M 847 1978 
L 2700 1978 
Q 2663 2397 2488 2606 
Q 2219 2931 1791 2931 
Q 1403 2931 1139 2672 
Q 875 2413 847 1978 
z
" transform="scale(0.015625)"/>
       <path id="ArialMT-6e" d="M 422 0 
L 422 3319 
L 928 3319 
L 928 2847 
Q 1294 3394 1984 3394 
Q 2284 3394 2536 3286 
Q 2788 3178 2913 3003 
Q 3038 2828 3088 2588 
Q 3119 2431 3119 2041 
L 3119 0 
L 2556 0 
L 2556 2019 
Q 2556 2363 2490 2533 
Q 2425 2703 2258 2804 
Q 2091 2906 1866 2906 
Q 1506 2906 1245 2678 
Q 984 2450 984 1813 
L 984 0 
L 422 0 
z
" transform="scale(0.015625)"/>
       <path id="ArialMT-74" d="M 1650 503 
L 1731 6 
Q 1494 -44 1306 -44 
Q 1000 -44 831 53 
Q 663 150 594 308 
Q 525 466 525 972 
L 525 2881 
L 113 2881 
L 113 3319 
L 525 3319 
L 525 4141 
L 1084 4478 
L 1084 3319 
L 1650 3319 
L 1650 2881 
L 1084 2881 
L 1084 941 
Q 1084 700 1114 631 
Q 1144 563 1211 522 
Q 1278 481 1403 481 
Q 1497 481 1650 503 
z
" transform="scale(0.015625)"/>
       <path id="ArialMT-2d" d="M 203 1375 
L 203 1941 
L 1931 1941 
L 1931 1375 
L 203 1375 
z
" transform="scale(0.015625)"/>
       <path id="ArialMT-69" d="M 425 3934 
L 425 4581 
L 988 4581 
L 988 3934 
L 425 3934 
z
M 425 0 
L 425 3319 
L 988 3319 
L 988 0 
L 425 0 
z
" transform="scale(0.015625)"/>
       <path id="ArialMT-66" d="M 556 0 
L 556 2881 
L 59 2881 
L 59 3319 
L 556 3319 
L 556 3672 
Q 556 4006 616 4169 
Q 697 4388 901 4523 
Q 1106 4659 1475 4659 
Q 1713 4659 2000 4603 
L 1916 4113 
Q 1741 4144 1584 4144 
Q 1328 4144 1222 4034 
Q 1116 3925 1116 3625 
L 1116 3319 
L 1763 3319 
L 1763 2881 
L 1116 2881 
L 1116 0 
L 556 0 
z
" transform="scale(0.015625)"/>
       <path id="ArialMT-20" transform="scale(0.015625)"/>
       <path id="ArialMT-6c" d="M 409 0 
L 409 4581 
L 972 4581 
L 972 0 
L 409 0 
z
" transform="scale(0.015625)"/>
       <path id="ArialMT-6f" d="M 213 1659 
Q 213 2581 725 3025 
Q 1153 3394 1769 3394 
Q 2453 3394 2887 2945 
Q 3322 2497 3322 1706 
Q 3322 1066 3130 698 
Q 2938 331 2570 128 
Q 2203 -75 1769 -75 
Q 1072 -75 642 372 
Q 213 819 213 1659 
z
M 791 1659 
Q 791 1022 1069 705 
Q 1347 388 1769 388 
Q 2188 388 2466 706 
Q 2744 1025 2744 1678 
Q 2744 2294 2464 2611 
Q 2184 2928 1769 2928 
Q 1347 2928 1069 2612 
Q 791 2297 791 1659 
z
" transform="scale(0.015625)"/>
       <path id="ArialMT-73" d="M 197 991 
L 753 1078 
Q 800 744 1014 566 
Q 1228 388 1613 388 
Q 2000 388 2187 545 
Q 2375 703 2375 916 
Q 2375 1106 2209 1216 
Q 2094 1291 1634 1406 
Q 1016 1563 777 1677 
Q 538 1791 414 1992 
Q 291 2194 291 2438 
Q 291 2659 392 2848 
Q 494 3038 669 3163 
Q 800 3259 1026 3326 
Q 1253 3394 1513 3394 
Q 1903 3394 2198 3281 
Q 2494 3169 2634 2976 
Q 2775 2784 2828 2463 
L 2278 2388 
Q 2241 2644 2061 2787 
Q 1881 2931 1553 2931 
Q 1166 2931 1000 2803 
Q 834 2675 834 2503 
Q 834 2394 903 2306 
Q 972 2216 1119 2156 
Q 1203 2125 1616 2013 
Q 2213 1853 2448 1751 
Q 2684 1650 2818 1456 
Q 2953 1263 2953 975 
Q 2953 694 2789 445 
Q 2625 197 2315 61 
Q 2006 -75 1616 -75 
Q 969 -75 630 194 
Q 291 463 197 991 
z
" transform="scale(0.015625)"/>
       <path id="ArialMT-68" d="M 422 0 
L 422 4581 
L 984 4581 
L 984 2938 
Q 1378 3394 1978 3394 
Q 2347 3394 2619 3248 
Q 2891 3103 3008 2847 
Q 3125 2591 3125 2103 
L 3125 0 
L 2563 0 
L 2563 2103 
Q 2563 2525 2380 2717 
Q 2197 2909 1863 2909 
Q 1613 2909 1392 2779 
Q 1172 2650 1078 2428 
Q 984 2206 984 1816 
L 984 0 
L 422 0 
z
" transform="scale(0.015625)"/>
       <path id="ArialMT-70" d="M 422 -1272 
L 422 3319 
L 934 3319 
L 934 2888 
Q 1116 3141 1344 3267 
Q 1572 3394 1897 3394 
Q 2322 3394 2647 3175 
Q 2972 2956 3137 2557 
Q 3303 2159 3303 1684 
Q 3303 1175 3120 767 
Q 2938 359 2589 142 
Q 2241 -75 1856 -75 
Q 1575 -75 1351 44 
Q 1128 163 984 344 
L 984 -1272 
L 422 -1272 
z
M 931 1641 
Q 931 1000 1190 694 
Q 1450 388 1819 388 
Q 2194 388 2461 705 
Q 2728 1022 2728 1688 
Q 2728 2322 2467 2637 
Q 2206 2953 1844 2953 
Q 1484 2953 1207 2617 
Q 931 2281 931 1641 
z
" transform="scale(0.015625)"/>
       <path id="ArialMT-64" d="M 2575 0 
L 2575 419 
Q 2259 -75 1647 -75 
Q 1250 -75 917 144 
Q 584 363 401 755 
Q 219 1147 219 1656 
Q 219 2153 384 2558 
Q 550 2963 881 3178 
Q 1213 3394 1622 3394 
Q 1922 3394 2156 3267 
Q 2391 3141 2538 2938 
L 2538 4581 
L 3097 4581 
L 3097 0 
L 2575 0 
z
M 797 1656 
Q 797 1019 1065 703 
Q 1334 388 1700 388 
Q 2069 388 2326 689 
Q 2584 991 2584 1609 
Q 2584 2291 2321 2609 
Q 2059 2928 1675 2928 
Q 1300 2928 1048 2622 
Q 797 2316 797 1656 
z
" transform="scale(0.015625)"/>
       <path id="ArialMT-78" d="M 47 0 
L 1259 1725 
L 138 3319 
L 841 3319 
L 1350 2541 
Q 1494 2319 1581 2169 
Q 1719 2375 1834 2534 
L 2394 3319 
L 3066 3319 
L 1919 1756 
L 3153 0 
L 2463 0 
L 1781 1031 
L 1600 1309 
L 728 0 
L 47 0 
z
" transform="scale(0.015625)"/>
       <path id="ArialMT-5b" d="M 434 -1272 
L 434 4581 
L 1675 4581 
L 1675 4116 
L 997 4116 
L 997 -806 
L 1675 -806 
L 1675 -1272 
L 434 -1272 
z
" transform="scale(0.015625)"/>
       <path id="ArialMT-2e" d="M 581 0 
L 581 641 
L 1222 641 
L 1222 0 
L 581 0 
z
" transform="scale(0.015625)"/>
       <path id="ArialMT-75" d="M 2597 0 
L 2597 488 
Q 2209 -75 1544 -75 
Q 1250 -75 995 37 
Q 741 150 617 320 
Q 494 491 444 738 
Q 409 903 409 1263 
L 409 3319 
L 972 3319 
L 972 1478 
Q 972 1038 1006 884 
Q 1059 663 1231 536 
Q 1403 409 1656 409 
Q 1909 409 2131 539 
Q 2353 669 2445 892 
Q 2538 1116 2538 1541 
L 2538 3319 
L 3100 3319 
L 3100 0 
L 2597 0 
z
" transform="scale(0.015625)"/>
       <path id="ArialMT-5d" d="M 1363 -1272 
L 122 -1272 
L 122 -806 
L 800 -806 
L 800 4116 
L 122 4116 
L 122 4581 
L 1363 4581 
L 1363 -1272 
z
" transform="scale(0.015625)"/>
      </defs>
      <use xlink:href="#ArialMT-50"/>
      <use xlink:href="#ArialMT-61" x="66.699219"/>
      <use xlink:href="#ArialMT-72" x="122.314453"/>
      <use xlink:href="#ArialMT-65" x="155.615234"/>
      <use xlink:href="#ArialMT-6e" x="211.230469"/>
      <use xlink:href="#ArialMT-74" x="266.845703"/>
      <use xlink:href="#ArialMT-2d" x="294.628906"/>
      <use xlink:href="#ArialMT-69" x="327.929688"/>
      <use xlink:href="#ArialMT-6e" x="350.146484"/>
      <use xlink:href="#ArialMT-66" x="405.761719"/>
      <use xlink:href="#ArialMT-61" x="433.544922"/>
      <use xlink:href="#ArialMT-6e" x="489.160156"/>
      <use xlink:href="#ArialMT-74" x="544.775391"/>
      <use xlink:href="#ArialMT-20" x="572.558594"/>
      <use xlink:href="#ArialMT-72" x="600.341797"/>
      <use xlink:href="#ArialMT-65" x="633.642578"/>
      <use xlink:href="#ArialMT-6c" x="689.257812"/>
      <use xlink:href="#ArialMT-61" x="711.474609"/>
      <use xlink:href="#ArialMT-74" x="767.089844"/>
      <use xlink:href="#ArialMT-69" x="794.873047"/>
      <use xlink:href="#ArialMT-6f" x="817.089844"/>
      <use xlink:href="#ArialMT-6e" x="872.705078"/>
      <use xlink:href="#ArialMT-73" x="928.320312"/>
      <use xlink:href="#ArialMT-68" x="978.320312"/>
      <use xlink:href="#ArialMT-69" x="1033.935547"/>
      <use xlink:href="#ArialMT-70" x="1056.152344"/>
      <use xlink:href="#ArialMT-20" x="1111.767578"/>
      <use xlink:href="#ArialMT-69" x="1139.550781"/>
      <use xlink:href="#ArialMT-6e" x="1161.767578"/>
      <use xlink:href="#ArialMT-64" x="1217.382812"/>
      <use xlink:href="#ArialMT-65" x="1272.998047"/>
      <use xlink:href="#ArialMT-78" x="1328.613281"/>
      <use xlink:href="#ArialMT-20" x="1378.613281"/>
      <use xlink:href="#ArialMT-5b" x="1406.396484"/>
      <use xlink:href="#ArialMT-61" x="1434.179688"/>
      <use xlink:href="#ArialMT-2e" x="1489.794922"/>
      <use xlink:href="#ArialMT-75" x="1517.578125"/>
      <use xlink:href="#ArialMT-2e" x="1573.193359"/>
      <use xlink:href="#ArialMT-5d" x="1600.976562"/>
     </g>
    </g>
   </g>
   <g id="matplotlib.axis_2">
    <g id="ytick_1">
     <g id="text_7">
      <!-- −2 -->
      <g style="fill: #262626" transform="translate(15.159219 85.970467) scale(0.05 -0.05)">
       <defs>
        <path id="ArialMT-2212" d="M 3381 1997 
L 356 1997 
L 356 2522 
L 3381 2522 
L 3381 1997 
z
" transform="scale(0.015625)"/>
       </defs>
       <use xlink:href="#ArialMT-2212"/>
       <use xlink:href="#ArialMT-32" x="58.398438"/>
      </g>
     </g>
    </g>
    <g id="ytick_2">
     <g id="text_8">
      <!-- −1 -->
      <g style="fill: #262626" transform="translate(15.159219 67.871398) scale(0.05 -0.05)">
       <use xlink:href="#ArialMT-2212"/>
       <use xlink:href="#ArialMT-31" x="58.398438"/>
      </g>
     </g>
    </g>
    <g id="ytick_3">
     <g id="text_9">
      <!-- 0 -->
      <g style="fill: #262626" transform="translate(18.079531 49.772329) scale(0.05 -0.05)">
       <use xlink:href="#ArialMT-30"/>
      </g>
     </g>
    </g>
    <g id="ytick_4">
     <g id="text_10">
      <!-- 1 -->
      <g style="fill: #262626" transform="translate(18.079531 31.673261) scale(0.05 -0.05)">
       <use xlink:href="#ArialMT-31"/>
      </g>
     </g>
    </g>
    <g id="ytick_5">
     <g id="text_11">
      <!-- 2 -->
      <g style="fill: #262626" transform="translate(18.079531 13.574192) scale(0.05 -0.05)">
       <use xlink:href="#ArialMT-32"/>
      </g>
     </g>
    </g>
    <g id="text_12">
     <!-- CTh PC1 [a.u.] -->
     <g style="fill: #262626" transform="translate(9.966719 67.149476) rotate(-90) scale(0.06 -0.06)">
      <defs>
       <path id="ArialMT-43" d="M 3763 1606 
L 4369 1453 
Q 4178 706 3683 314 
Q 3188 -78 2472 -78 
Q 1731 -78 1267 223 
Q 803 525 561 1097 
Q 319 1669 319 2325 
Q 319 3041 592 3573 
Q 866 4106 1370 4382 
Q 1875 4659 2481 4659 
Q 3169 4659 3637 4309 
Q 4106 3959 4291 3325 
L 3694 3184 
Q 3534 3684 3231 3912 
Q 2928 4141 2469 4141 
Q 1941 4141 1586 3887 
Q 1231 3634 1087 3207 
Q 944 2781 944 2328 
Q 944 1744 1114 1308 
Q 1284 872 1643 656 
Q 2003 441 2422 441 
Q 2931 441 3284 734 
Q 3638 1028 3763 1606 
z
" transform="scale(0.015625)"/>
       <path id="ArialMT-54" d="M 1659 0 
L 1659 4041 
L 150 4041 
L 150 4581 
L 3781 4581 
L 3781 4041 
L 2266 4041 
L 2266 0 
L 1659 0 
z
" transform="scale(0.015625)"/>
      </defs>
      <use xlink:href="#ArialMT-43"/>
      <use xlink:href="#ArialMT-54" x="72.216797"/>
      <use xlink:href="#ArialMT-68" x="133.300781"/>
      <use xlink:href="#ArialMT-20" x="188.916016"/>
      <use xlink:href="#ArialMT-50" x="216.699219"/>
      <use xlink:href="#ArialMT-43" x="283.398438"/>
      <use xlink:href="#ArialMT-31" x="355.615234"/>
      <use xlink:href="#ArialMT-20" x="411.230469"/>
      <use xlink:href="#ArialMT-5b" x="439.013672"/>
      <use xlink:href="#ArialMT-61" x="466.796875"/>
      <use xlink:href="#ArialMT-2e" x="522.412109"/>
      <use xlink:href="#ArialMT-75" x="550.195312"/>
      <use xlink:href="#ArialMT-2e" x="605.810547"/>
      <use xlink:href="#ArialMT-5d" x="633.59375"/>
     </g>
    </g>
   </g>
   <g id="PathCollection_1">
    <defs>
     <path id="C0_0_085107c713" d="M 0 0.866025 
C 0.229673 0.866025 0.449969 0.774776 0.612372 0.612372 
C 0.774776 0.449969 0.866025 0.229673 0.866025 -0 
C 0.866025 -0.229673 0.774776 -0.449969 0.612372 -0.612372 
C 0.449969 -0.774776 0.229673 -0.866025 0 -0.866025 
C -0.229673 -0.866025 -0.449969 -0.774776 -0.612372 -0.612372 
C -0.774776 -0.449969 -0.866025 -0.229673 -0.866025 0 
C -0.866025 0.229673 -0.774776 0.449969 -0.612372 0.612372 
C -0.449969 0.774776 -0.229673 0.866025 0 0.866025 
z
"/>
    </defs>
    <g clip-path="url(#ped7f7c7a5c)">
     <use xlink:href="#C0_0_085107c713" x="31.048432" y="39.413394" style="fill: #ff8c00; fill-opacity: 0.8"/>
    </g>
    <g clip-path="url(#ped7f7c7a5c)">
     <use xlink:href="#C0_0_085107c713" x="59.490594" y="58.869134" style="fill: #ff8c00; fill-opacity: 0.8"/>
    </g>
    <g clip-path="url(#ped7f7c7a5c)">
     <use xlink:href="#C0_0_085107c713" x="31.048432" y="26.333998" style="fill: #ff8c00; fill-opacity: 0.8"/>
    </g>
    <g clip-path="url(#ped7f7c7a5c)">
     <use xlink:href="#C0_0_085107c713" x="31.048432" y="36.52712" style="fill: #ff8c00; fill-opacity: 0.8"/>
    </g>
    <g clip-path="url(#ped7f7c7a5c)">
     <use xlink:href="#C0_0_085107c713" x="59.490594" y="64.938029" style="fill: #ff8c00; fill-opacity: 0.8"/>
    </g>
    <g clip-path="url(#ped7f7c7a5c)">
     <use xlink:href="#C0_0_085107c713" x="31.048432" y="54.208158" style="fill: #ff8c00; fill-opacity: 0.8"/>
    </g>
    <g clip-path="url(#ped7f7c7a5c)">
     <use xlink:href="#C0_0_085107c713" x="31.048432" y="78.192194" style="fill: #ff8c00; fill-opacity: 0.8"/>
    </g>
    <g clip-path="url(#ped7f7c7a5c)">
     <use xlink:href="#C0_0_085107c713" x="116.374918" y="57.84071" style="fill: #ff8c00; fill-opacity: 0.8"/>
    </g>
    <g clip-path="url(#ped7f7c7a5c)">
     <use xlink:href="#C0_0_085107c713" x="31.048432" y="65.313019" style="fill: #ff8c00; fill-opacity: 0.8"/>
    </g>
    <g clip-path="url(#ped7f7c7a5c)">
     <use xlink:href="#C0_0_085107c713" x="59.490594" y="9.209924" style="fill: #ff8c00; fill-opacity: 0.8"/>
    </g>
    <g clip-path="url(#ped7f7c7a5c)">
     <use xlink:href="#C0_0_085107c713" x="87.932756" y="72.643244" style="fill: #ff8c00; fill-opacity: 0.8"/>
    </g>
    <g clip-path="url(#ped7f7c7a5c)">
     <use xlink:href="#C0_0_085107c713" x="59.490594" y="45.167351" style="fill: #ff8c00; fill-opacity: 0.8"/>
    </g>
    <g clip-path="url(#ped7f7c7a5c)">
     <use xlink:href="#C0_0_085107c713" x="59.490594" y="38.118573" style="fill: #ff8c00; fill-opacity: 0.8"/>
    </g>
    <g clip-path="url(#ped7f7c7a5c)">
     <use xlink:href="#C0_0_085107c713" x="59.490594" y="22.990346" style="fill: #ff8c00; fill-opacity: 0.8"/>
    </g>
    <g clip-path="url(#ped7f7c7a5c)">
     <use xlink:href="#C0_0_085107c713" x="59.490594" y="61.196053" style="fill: #ff8c00; fill-opacity: 0.8"/>
    </g>
    <g clip-path="url(#ped7f7c7a5c)">
     <use xlink:href="#C0_0_085107c713" x="31.048432" y="37.886691" style="fill: #ff8c00; fill-opacity: 0.8"/>
    </g>
    <g clip-path="url(#ped7f7c7a5c)">
     <use xlink:href="#C0_0_085107c713" x="59.490594" y="41.402471" style="fill: #ff8c00; fill-opacity: 0.8"/>
    </g>
    <g clip-path="url(#ped7f7c7a5c)">
     <use xlink:href="#C0_0_085107c713" x="59.490594" y="41.283853" style="fill: #ff8c00; fill-opacity: 0.8"/>
    </g>
    <g clip-path="url(#ped7f7c7a5c)">
     <use xlink:href="#C0_0_085107c713" x="59.490594" y="71.842322" style="fill: #ff8c00; fill-opacity: 0.8"/>
    </g>
    <g clip-path="url(#ped7f7c7a5c)">
     <use xlink:href="#C0_0_085107c713" x="87.932756" y="48.855849" style="fill: #ff8c00; fill-opacity: 0.8"/>
    </g>
    <g clip-path="url(#ped7f7c7a5c)">
     <use xlink:href="#C0_0_085107c713" x="59.490594" y="83.833692" style="fill: #ff8c00; fill-opacity: 0.8"/>
    </g>
    <g clip-path="url(#ped7f7c7a5c)">
     <use xlink:href="#C0_0_085107c713" x="31.048432" y="64.872007" style="fill: #ff8c00; fill-opacity: 0.8"/>
    </g>
    <g clip-path="url(#ped7f7c7a5c)">
     <use xlink:href="#C0_0_085107c713" x="31.048432" y="47.163512" style="fill: #ff8c00; fill-opacity: 0.8"/>
    </g>
    <g clip-path="url(#ped7f7c7a5c)">
     <use xlink:href="#C0_0_085107c713" x="31.048432" y="37.48877" style="fill: #ff8c00; fill-opacity: 0.8"/>
    </g>
    <g clip-path="url(#ped7f7c7a5c)">
     <use xlink:href="#C0_0_085107c713" x="144.817079" y="60.543391" style="fill: #ff8c00; fill-opacity: 0.8"/>
    </g>
    <g clip-path="url(#ped7f7c7a5c)">
     <use xlink:href="#C0_0_085107c713" x="116.374918" y="50.01023" style="fill: #ff8c00; fill-opacity: 0.8"/>
    </g>
    <g clip-path="url(#ped7f7c7a5c)">
     <use xlink:href="#C0_0_085107c713" x="31.048432" y="39.221364" style="fill: #ff8c00; fill-opacity: 0.8"/>
    </g>
    <g clip-path="url(#ped7f7c7a5c)">
     <use xlink:href="#C0_0_085107c713" x="31.048432" y="16.732609" style="fill: #ff8c00; fill-opacity: 0.8"/>
    </g>
    <g clip-path="url(#ped7f7c7a5c)">
     <use xlink:href="#C0_0_085107c713" x="59.490594" y="75.11999" style="fill: #ff8c00; fill-opacity: 0.8"/>
    </g>
    <g clip-path="url(#ped7f7c7a5c)">
     <use xlink:href="#C0_0_085107c713" x="59.490594" y="74.013008" style="fill: #ff8c00; fill-opacity: 0.8"/>
    </g>
    <g clip-path="url(#ped7f7c7a5c)">
     <use xlink:href="#C0_0_085107c713" x="31.048432" y="44.828826" style="fill: #ff8c00; fill-opacity: 0.8"/>
    </g>
    <g clip-path="url(#ped7f7c7a5c)">
     <use xlink:href="#C0_0_085107c713" x="31.048432" y="36.878821" style="fill: #ff8c00; fill-opacity: 0.8"/>
    </g>
    <g clip-path="url(#ped7f7c7a5c)">
     <use xlink:href="#C0_0_085107c713" x="59.490594" y="40.991796" style="fill: #ff8c00; fill-opacity: 0.8"/>
    </g>
    <g clip-path="url(#ped7f7c7a5c)">
     <use xlink:href="#C0_0_085107c713" x="87.932756" y="69.689187" style="fill: #ff8c00; fill-opacity: 0.8"/>
    </g>
    <g clip-path="url(#ped7f7c7a5c)">
     <use xlink:href="#C0_0_085107c713" x="31.048432" y="52.078841" style="fill: #ff8c00; fill-opacity: 0.8"/>
    </g>
    <g clip-path="url(#ped7f7c7a5c)">
     <use xlink:href="#C0_0_085107c713" x="59.490594" y="64.615886" style="fill: #ff8c00; fill-opacity: 0.8"/>
    </g>
    <g clip-path="url(#ped7f7c7a5c)">
     <use xlink:href="#C0_0_085107c713" x="31.048432" y="34.461329" style="fill: #ff8c00; fill-opacity: 0.8"/>
    </g>
    <g clip-path="url(#ped7f7c7a5c)">
     <use xlink:href="#C0_0_085107c713" x="59.490594" y="64.69075" style="fill: #ff8c00; fill-opacity: 0.8"/>
    </g>
    <g clip-path="url(#ped7f7c7a5c)">
     <use xlink:href="#C0_0_085107c713" x="59.490594" y="43.868807" style="fill: #ff8c00; fill-opacity: 0.8"/>
    </g>
    <g clip-path="url(#ped7f7c7a5c)">
     <use xlink:href="#C0_0_085107c713" x="59.490594" y="36.091251" style="fill: #ff8c00; fill-opacity: 0.8"/>
    </g>
    <g clip-path="url(#ped7f7c7a5c)">
     <use xlink:href="#C0_0_085107c713" x="59.490594" y="65.944301" style="fill: #ff8c00; fill-opacity: 0.8"/>
    </g>
    <g clip-path="url(#ped7f7c7a5c)">
     <use xlink:href="#C0_0_085107c713" x="31.048432" y="65.042369" style="fill: #ff8c00; fill-opacity: 0.8"/>
    </g>
    <g clip-path="url(#ped7f7c7a5c)">
     <use xlink:href="#C0_0_085107c713" x="31.048432" y="42.068209" style="fill: #ff8c00; fill-opacity: 0.8"/>
    </g>
    <g clip-path="url(#ped7f7c7a5c)">
     <use xlink:href="#C0_0_085107c713" x="31.048432" y="26.221173" style="fill: #ff8c00; fill-opacity: 0.8"/>
    </g>
    <g clip-path="url(#ped7f7c7a5c)">
     <use xlink:href="#C0_0_085107c713" x="116.374918" y="80.18475" style="fill: #ff8c00; fill-opacity: 0.8"/>
    </g>
    <g clip-path="url(#ped7f7c7a5c)">
     <use xlink:href="#C0_0_085107c713" x="31.048432" y="57.147784" style="fill: #ff8c00; fill-opacity: 0.8"/>
    </g>
    <g clip-path="url(#ped7f7c7a5c)">
     <use xlink:href="#C0_0_085107c713" x="31.048432" y="42.723851" style="fill: #ff8c00; fill-opacity: 0.8"/>
    </g>
    <g clip-path="url(#ped7f7c7a5c)">
     <use xlink:href="#C0_0_085107c713" x="59.490594" y="50.565159" style="fill: #ff8c00; fill-opacity: 0.8"/>
    </g>
    <g clip-path="url(#ped7f7c7a5c)">
     <use xlink:href="#C0_0_085107c713" x="31.048432" y="39.536523" style="fill: #ff8c00; fill-opacity: 0.8"/>
    </g>
    <g clip-path="url(#ped7f7c7a5c)">
     <use xlink:href="#C0_0_085107c713" x="59.490594" y="30.524431" style="fill: #ff8c00; fill-opacity: 0.8"/>
    </g>
    <g clip-path="url(#ped7f7c7a5c)">
     <use xlink:href="#C0_0_085107c713" x="31.048432" y="79.250623" style="fill: #ff8c00; fill-opacity: 0.8"/>
    </g>
    <g clip-path="url(#ped7f7c7a5c)">
     <use xlink:href="#C0_0_085107c713" x="116.374918" y="85.408403" style="fill: #ff8c00; fill-opacity: 0.8"/>
    </g>
    <g clip-path="url(#ped7f7c7a5c)">
     <use xlink:href="#C0_0_085107c713" x="31.048432" y="82.1391" style="fill: #ff8c00; fill-opacity: 0.8"/>
    </g>
    <g clip-path="url(#ped7f7c7a5c)">
     <use xlink:href="#C0_0_085107c713" x="31.048432" y="27.143743" style="fill: #ff8c00; fill-opacity: 0.8"/>
    </g>
    <g clip-path="url(#ped7f7c7a5c)">
     <use xlink:href="#C0_0_085107c713" x="59.490594" y="67.423317" style="fill: #ff8c00; fill-opacity: 0.8"/>
    </g>
    <g clip-path="url(#ped7f7c7a5c)">
     <use xlink:href="#C0_0_085107c713" x="87.932756" y="55.299285" style="fill: #ff8c00; fill-opacity: 0.8"/>
    </g>
    <g clip-path="url(#ped7f7c7a5c)">
     <use xlink:href="#C0_0_085107c713" x="31.048432" y="31.676635" style="fill: #ff8c00; fill-opacity: 0.8"/>
    </g>
    <g clip-path="url(#ped7f7c7a5c)">
     <use xlink:href="#C0_0_085107c713" x="31.048432" y="64.973554" style="fill: #ff8c00; fill-opacity: 0.8"/>
    </g>
    <g clip-path="url(#ped7f7c7a5c)">
     <use xlink:href="#C0_0_085107c713" x="59.490594" y="64.638408" style="fill: #ff8c00; fill-opacity: 0.8"/>
    </g>
    <g clip-path="url(#ped7f7c7a5c)">
     <use xlink:href="#C0_0_085107c713" x="31.048432" y="57.229617" style="fill: #ff8c00; fill-opacity: 0.8"/>
    </g>
    <g clip-path="url(#ped7f7c7a5c)">
     <use xlink:href="#C0_0_085107c713" x="31.048432" y="68.10503" style="fill: #ff8c00; fill-opacity: 0.8"/>
    </g>
    <g clip-path="url(#ped7f7c7a5c)">
     <use xlink:href="#C0_0_085107c713" x="59.490594" y="39.80706" style="fill: #ff8c00; fill-opacity: 0.8"/>
    </g>
    <g clip-path="url(#ped7f7c7a5c)">
     <use xlink:href="#C0_0_085107c713" x="31.048432" y="70.321093" style="fill: #ff8c00; fill-opacity: 0.8"/>
    </g>
    <g clip-path="url(#ped7f7c7a5c)">
     <use xlink:href="#C0_0_085107c713" x="59.490594" y="45.315888" style="fill: #ff8c00; fill-opacity: 0.8"/>
    </g>
    <g clip-path="url(#ped7f7c7a5c)">
     <use xlink:href="#C0_0_085107c713" x="31.048432" y="22.929977" style="fill: #ff8c00; fill-opacity: 0.8"/>
    </g>
    <g clip-path="url(#ped7f7c7a5c)">
     <use xlink:href="#C0_0_085107c713" x="31.048432" y="41.455498" style="fill: #ff8c00; fill-opacity: 0.8"/>
    </g>
    <g clip-path="url(#ped7f7c7a5c)">
     <use xlink:href="#C0_0_085107c713" x="59.490594" y="74.088511" style="fill: #ff8c00; fill-opacity: 0.8"/>
    </g>
    <g clip-path="url(#ped7f7c7a5c)">
     <use xlink:href="#C0_0_085107c713" x="59.490594" y="63.31011" style="fill: #ff8c00; fill-opacity: 0.8"/>
    </g>
    <g clip-path="url(#ped7f7c7a5c)">
     <use xlink:href="#C0_0_085107c713" x="31.048432" y="16.49939" style="fill: #ff8c00; fill-opacity: 0.8"/>
    </g>
    <g clip-path="url(#ped7f7c7a5c)">
     <use xlink:href="#C0_0_085107c713" x="31.048432" y="59.927785" style="fill: #ff8c00; fill-opacity: 0.8"/>
    </g>
    <g clip-path="url(#ped7f7c7a5c)">
     <use xlink:href="#C0_0_085107c713" x="31.048432" y="19.876844" style="fill: #ff8c00; fill-opacity: 0.8"/>
    </g>
    <g clip-path="url(#ped7f7c7a5c)">
     <use xlink:href="#C0_0_085107c713" x="116.374918" y="67.404697" style="fill: #ff8c00; fill-opacity: 0.8"/>
    </g>
    <g clip-path="url(#ped7f7c7a5c)">
     <use xlink:href="#C0_0_085107c713" x="31.048432" y="58.58895" style="fill: #ff8c00; fill-opacity: 0.8"/>
    </g>
    <g clip-path="url(#ped7f7c7a5c)">
     <use xlink:href="#C0_0_085107c713" x="59.490594" y="50.037312" style="fill: #ff8c00; fill-opacity: 0.8"/>
    </g>
    <g clip-path="url(#ped7f7c7a5c)">
     <use xlink:href="#C0_0_085107c713" x="59.490594" y="72.344653" style="fill: #ff8c00; fill-opacity: 0.8"/>
    </g>
    <g clip-path="url(#ped7f7c7a5c)">
     <use xlink:href="#C0_0_085107c713" x="31.048432" y="50.543597" style="fill: #ff8c00; fill-opacity: 0.8"/>
    </g>
    <g clip-path="url(#ped7f7c7a5c)">
     <use xlink:href="#C0_0_085107c713" x="59.490594" y="46.272456" style="fill: #ff8c00; fill-opacity: 0.8"/>
    </g>
    <g clip-path="url(#ped7f7c7a5c)">
     <use xlink:href="#C0_0_085107c713" x="31.048432" y="75.483193" style="fill: #ff8c00; fill-opacity: 0.8"/>
    </g>
    <g clip-path="url(#ped7f7c7a5c)">
     <use xlink:href="#C0_0_085107c713" x="31.048432" y="40.090578" style="fill: #ff8c00; fill-opacity: 0.8"/>
    </g>
    <g clip-path="url(#ped7f7c7a5c)">
     <use xlink:href="#C0_0_085107c713" x="87.932756" y="61.341484" style="fill: #ff8c00; fill-opacity: 0.8"/>
    </g>
    <g clip-path="url(#ped7f7c7a5c)">
     <use xlink:href="#C0_0_085107c713" x="59.490594" y="20.07123" style="fill: #ff8c00; fill-opacity: 0.8"/>
    </g>
    <g clip-path="url(#ped7f7c7a5c)">
     <use xlink:href="#C0_0_085107c713" x="31.048432" y="67.238065" style="fill: #ff8c00; fill-opacity: 0.8"/>
    </g>
    <g clip-path="url(#ped7f7c7a5c)">
     <use xlink:href="#C0_0_085107c713" x="31.048432" y="82.166167" style="fill: #ff8c00; fill-opacity: 0.8"/>
    </g>
    <g clip-path="url(#ped7f7c7a5c)">
     <use xlink:href="#C0_0_085107c713" x="31.048432" y="60.685511" style="fill: #ff8c00; fill-opacity: 0.8"/>
    </g>
    <g clip-path="url(#ped7f7c7a5c)">
     <use xlink:href="#C0_0_085107c713" x="31.048432" y="60.128031" style="fill: #ff8c00; fill-opacity: 0.8"/>
    </g>
    <g clip-path="url(#ped7f7c7a5c)">
     <use xlink:href="#C0_0_085107c713" x="31.048432" y="64.10555" style="fill: #ff8c00; fill-opacity: 0.8"/>
    </g>
    <g clip-path="url(#ped7f7c7a5c)">
     <use xlink:href="#C0_0_085107c713" x="87.932756" y="32.70561" style="fill: #ff8c00; fill-opacity: 0.8"/>
    </g>
    <g clip-path="url(#ped7f7c7a5c)">
     <use xlink:href="#C0_0_085107c713" x="31.048432" y="26.668919" style="fill: #ff8c00; fill-opacity: 0.8"/>
    </g>
    <g clip-path="url(#ped7f7c7a5c)">
     <use xlink:href="#C0_0_085107c713" x="31.048432" y="54.199417" style="fill: #ff8c00; fill-opacity: 0.8"/>
    </g>
    <g clip-path="url(#ped7f7c7a5c)">
     <use xlink:href="#C0_0_085107c713" x="31.048432" y="17.854659" style="fill: #ff8c00; fill-opacity: 0.8"/>
    </g>
    <g clip-path="url(#ped7f7c7a5c)">
     <use xlink:href="#C0_0_085107c713" x="31.048432" y="72.338713" style="fill: #ff8c00; fill-opacity: 0.8"/>
    </g>
   </g>
   <g id="PolyCollection_1">
    <defs>
     <path id="m2c86c6a74f" d="M 31.048432 -69.474955 
L 31.048432 -60.140536 
L 32.197611 -59.996985 
L 33.346789 -59.887112 
L 34.495967 -59.780216 
L 35.645145 -59.685608 
L 36.794324 -59.558907 
L 37.943502 -59.422408 
L 39.09268 -59.297721 
L 40.241858 -59.181546 
L 41.391037 -59.057725 
L 42.540215 -58.922932 
L 43.689393 -58.811567 
L 44.838571 -58.653492 
L 45.98775 -58.500027 
L 47.136928 -58.340746 
L 48.286106 -58.168227 
L 49.435284 -58.02783 
L 50.584463 -57.875187 
L 51.733641 -57.691074 
L 52.882819 -57.521149 
L 54.031997 -57.346553 
L 55.181176 -57.141569 
L 56.330354 -56.935698 
L 57.479532 -56.750569 
L 58.62871 -56.551231 
L 59.777889 -56.319503 
L 60.927067 -56.102384 
L 62.076245 -55.854085 
L 63.225423 -55.601836 
L 64.374602 -55.357892 
L 65.52378 -55.141736 
L 66.672958 -54.906198 
L 67.822136 -54.653806 
L 68.971315 -54.388359 
L 70.120493 -54.132656 
L 71.269671 -53.856681 
L 72.418849 -53.601157 
L 73.568028 -53.337122 
L 74.717206 -53.043757 
L 75.866384 -52.772544 
L 77.015562 -52.481284 
L 78.164741 -52.19976 
L 79.313919 -51.905581 
L 80.463097 -51.607596 
L 81.612276 -51.325539 
L 82.761454 -51.004624 
L 83.910632 -50.708318 
L 85.05981 -50.42526 
L 86.208989 -50.110339 
L 87.358167 -49.798268 
L 88.507345 -49.487457 
L 89.656523 -49.176195 
L 90.805702 -48.871717 
L 91.95488 -48.579287 
L 93.104058 -48.252204 
L 94.253236 -47.950694 
L 95.402415 -47.638189 
L 96.551593 -47.319347 
L 97.700771 -47.000375 
L 98.849949 -46.682445 
L 99.999128 -46.345544 
L 101.148306 -46.023966 
L 102.297484 -45.691091 
L 103.446662 -45.383466 
L 104.595841 -45.078077 
L 105.745019 -44.758146 
L 106.894197 -44.439954 
L 108.043375 -44.11876 
L 109.192554 -43.810467 
L 110.341732 -43.491765 
L 111.49091 -43.184173 
L 112.640088 -42.86162 
L 113.789267 -42.514057 
L 114.938445 -42.180968 
L 116.087623 -41.855744 
L 117.236801 -41.534196 
L 118.38598 -41.216099 
L 119.535158 -40.904905 
L 120.684336 -40.599912 
L 121.833514 -40.283834 
L 122.982693 -39.964143 
L 124.131871 -39.636644 
L 125.281049 -39.30153 
L 126.430227 -38.949801 
L 127.579406 -38.601333 
L 128.728584 -38.27689 
L 129.877762 -37.959369 
L 131.02694 -37.641414 
L 132.176119 -37.308834 
L 133.325297 -36.973311 
L 134.474475 -36.685501 
L 135.623653 -36.335561 
L 136.772832 -36.004519 
L 137.92201 -35.674004 
L 139.071188 -35.331299 
L 140.220366 -34.982433 
L 141.369545 -34.621272 
L 142.518723 -34.292858 
L 143.667901 -33.964109 
L 144.817079 -33.635799 
L 144.817079 -57.367652 
L 144.817079 -57.367652 
L 143.667901 -57.424436 
L 142.518723 -57.478172 
L 141.369545 -57.540915 
L 140.220366 -57.598985 
L 139.071188 -57.64393 
L 137.92201 -57.708785 
L 136.772832 -57.800378 
L 135.623653 -57.870086 
L 134.474475 -57.928754 
L 133.325297 -57.983524 
L 132.176119 -58.051047 
L 131.02694 -58.107347 
L 129.877762 -58.158232 
L 128.728584 -58.238916 
L 127.579406 -58.286885 
L 126.430227 -58.364427 
L 125.281049 -58.41208 
L 124.131871 -58.459578 
L 122.982693 -58.511697 
L 121.833514 -58.599304 
L 120.684336 -58.64495 
L 119.535158 -58.704946 
L 118.38598 -58.754317 
L 117.236801 -58.816102 
L 116.087623 -58.877887 
L 114.938445 -58.940099 
L 113.789267 -58.997178 
L 112.640088 -59.081924 
L 111.49091 -59.162065 
L 110.341732 -59.225019 
L 109.192554 -59.28666 
L 108.043375 -59.357192 
L 106.894197 -59.429538 
L 105.745019 -59.507222 
L 104.595841 -59.594355 
L 103.446662 -59.641782 
L 102.297484 -59.703837 
L 101.148306 -59.777404 
L 99.999128 -59.841928 
L 98.849949 -59.906197 
L 97.700771 -59.971427 
L 96.551593 -60.033193 
L 95.402415 -60.09257 
L 94.253236 -60.163959 
L 93.104058 -60.254497 
L 91.95488 -60.339702 
L 90.805702 -60.415985 
L 89.656523 -60.497796 
L 88.507345 -60.56842 
L 87.358167 -60.663903 
L 86.208989 -60.768604 
L 85.05981 -60.872219 
L 83.910632 -60.97924 
L 82.761454 -61.080827 
L 81.612276 -61.178802 
L 80.463097 -61.279343 
L 79.313919 -61.368224 
L 78.164741 -61.458826 
L 77.015562 -61.583262 
L 75.866384 -61.713606 
L 74.717206 -61.822769 
L 73.568028 -61.944775 
L 72.418849 -62.06083 
L 71.269671 -62.174476 
L 70.120493 -62.304198 
L 68.971315 -62.434928 
L 67.822136 -62.55058 
L 66.672958 -62.691519 
L 65.52378 -62.826711 
L 64.374602 -62.977982 
L 63.225423 -63.14413 
L 62.076245 -63.304233 
L 60.927067 -63.464501 
L 59.777889 -63.626653 
L 58.62871 -63.78624 
L 57.479532 -63.954028 
L 56.330354 -64.133461 
L 55.181176 -64.313678 
L 54.031997 -64.510225 
L 52.882819 -64.717494 
L 51.733641 -64.946168 
L 50.584463 -65.149872 
L 49.435284 -65.37656 
L 48.286106 -65.611303 
L 47.136928 -65.844789 
L 45.98775 -66.061769 
L 44.838571 -66.297722 
L 43.689393 -66.536357 
L 42.540215 -66.762064 
L 41.391037 -66.988976 
L 40.241858 -67.254342 
L 39.09268 -67.544918 
L 37.943502 -67.795503 
L 36.794324 -68.090625 
L 35.645145 -68.360944 
L 34.495967 -68.621719 
L 33.346789 -68.911964 
L 32.197611 -69.197149 
L 31.048432 -69.474955 
z
" style="stroke: #ffffff; stroke-opacity: 0.15"/>
    </defs>
    <g clip-path="url(#ped7f7c7a5c)">
     <use xlink:href="#m2c86c6a74f" x="0" y="113.385827" style="fill: #ff8c00; fill-opacity: 0.15; stroke: #ffffff; stroke-opacity: 0.15"/>
    </g>
   </g>
   <g id="line2d_1">
    <path d="M 31.048432 48.66801 
L 32.197611 48.862004 
L 33.346789 49.055999 
L 34.495967 49.249994 
L 35.645145 49.443988 
L 36.794324 49.637983 
L 37.943502 49.831978 
L 39.09268 50.025972 
L 40.241858 50.219967 
L 41.391037 50.413962 
L 42.540215 50.607956 
L 43.689393 50.801951 
L 44.838571 50.995946 
L 45.98775 51.189941 
L 47.136928 51.383935 
L 48.286106 51.57793 
L 49.435284 51.771925 
L 50.584463 51.965919 
L 51.733641 52.159914 
L 52.882819 52.353909 
L 54.031997 52.547903 
L 55.181176 52.741898 
L 56.330354 52.935893 
L 57.479532 53.129887 
L 58.62871 53.323882 
L 59.777889 53.517877 
L 60.927067 53.711871 
L 62.076245 53.905866 
L 63.225423 54.099861 
L 64.374602 54.293855 
L 65.52378 54.48785 
L 66.672958 54.681845 
L 67.822136 54.875839 
L 68.971315 55.069834 
L 70.120493 55.263829 
L 71.269671 55.457824 
L 72.418849 55.651818 
L 73.568028 55.845813 
L 74.717206 56.039808 
L 75.866384 56.233802 
L 77.015562 56.427797 
L 78.164741 56.621792 
L 79.313919 56.815786 
L 80.463097 57.009781 
L 81.612276 57.203776 
L 82.761454 57.39777 
L 83.910632 57.591765 
L 85.05981 57.78576 
L 86.208989 57.979754 
L 87.358167 58.173749 
L 88.507345 58.367744 
L 89.656523 58.561738 
L 90.805702 58.755733 
L 91.95488 58.949728 
L 93.104058 59.143722 
L 94.253236 59.337717 
L 95.402415 59.531712 
L 96.551593 59.725707 
L 97.700771 59.919701 
L 98.849949 60.113696 
L 99.999128 60.307691 
L 101.148306 60.501685 
L 102.297484 60.69568 
L 103.446662 60.889675 
L 104.595841 61.083669 
L 105.745019 61.277664 
L 106.894197 61.471659 
L 108.043375 61.665653 
L 109.192554 61.859648 
L 110.341732 62.053643 
L 111.49091 62.247637 
L 112.640088 62.441632 
L 113.789267 62.635627 
L 114.938445 62.829621 
L 116.087623 63.023616 
L 117.236801 63.217611 
L 118.38598 63.411606 
L 119.535158 63.6056 
L 120.684336 63.799595 
L 121.833514 63.99359 
L 122.982693 64.187584 
L 124.131871 64.381579 
L 125.281049 64.575574 
L 126.430227 64.769568 
L 127.579406 64.963563 
L 128.728584 65.157558 
L 129.877762 65.351552 
L 131.02694 65.545547 
L 132.176119 65.739542 
L 133.325297 65.933536 
L 134.474475 66.127531 
L 135.623653 66.321526 
L 136.772832 66.51552 
L 137.92201 66.709515 
L 139.071188 66.90351 
L 140.220366 67.097504 
L 141.369545 67.291499 
L 142.518723 67.485494 
L 143.667901 67.679489 
L 144.817079 67.873483 
" clip-path="url(#ped7f7c7a5c)" style="fill: none; stroke: #ff8c00; stroke-width: 0.75; stroke-linecap: round"/>
   </g>
   <g id="patch_3">
    <path d="M 25.36 89.218327 
L 25.36 5.4 
" style="fill: none; stroke: #262626; stroke-width: 0.25; stroke-linejoin: miter; stroke-linecap: square"/>
   </g>
   <g id="patch_4">
    <path d="M 25.36 89.218327 
L 150.505512 89.218327 
" style="fill: none; stroke: #262626; stroke-width: 0.25; stroke-linejoin: miter; stroke-linecap: square"/>
   </g>
   <g id="text_13">
    <g id="patch_5">
     <path d="M 29.114365 18.699023 
L 57.514365 18.699023 
Q 59.014365 18.699023 59.014365 17.199023 
L 59.014365 7.132617 
Q 59.014365 5.632617 57.514365 5.632617 
L 29.114365 5.632617 
Q 27.614365 5.632617 27.614365 7.132617 
L 27.614365 17.199023 
Q 27.614365 18.699023 29.114365 18.699023 
z
" style="fill: #c0c0c0; opacity: 0.4; stroke: #c0c0c0; stroke-linejoin: miter"/>
    </g>
    <!-- $r=-0.211$ -->
    <g style="fill: #262626" transform="translate(29.114365 10.655273) scale(0.05 -0.05)">
     <defs>
      <path id="DejaVuSans-Oblique-72" d="M 2853 2969 
Q 2766 3016 2653 3041 
Q 2541 3066 2413 3066 
Q 1953 3066 1609 2717 
Q 1266 2369 1153 1784 
L 800 0 
L 225 0 
L 909 3500 
L 1484 3500 
L 1375 2956 
Q 1603 3259 1920 3421 
Q 2238 3584 2597 3584 
Q 2691 3584 2781 3573 
Q 2872 3563 2963 3538 
L 2853 2969 
z
" transform="scale(0.015625)"/>
      <path id="DejaVuSans-3d" d="M 678 2906 
L 4684 2906 
L 4684 2381 
L 678 2381 
L 678 2906 
z
M 678 1631 
L 4684 1631 
L 4684 1100 
L 678 1100 
L 678 1631 
z
" transform="scale(0.015625)"/>
      <path id="DejaVuSans-2212" d="M 678 2272 
L 4684 2272 
L 4684 1741 
L 678 1741 
L 678 2272 
z
" transform="scale(0.015625)"/>
      <path id="DejaVuSans-30" d="M 2034 4250 
Q 1547 4250 1301 3770 
Q 1056 3291 1056 2328 
Q 1056 1369 1301 889 
Q 1547 409 2034 409 
Q 2525 409 2770 889 
Q 3016 1369 3016 2328 
Q 3016 3291 2770 3770 
Q 2525 4250 2034 4250 
z
M 2034 4750 
Q 2819 4750 3233 4129 
Q 3647 3509 3647 2328 
Q 3647 1150 3233 529 
Q 2819 -91 2034 -91 
Q 1250 -91 836 529 
Q 422 1150 422 2328 
Q 422 3509 836 4129 
Q 1250 4750 2034 4750 
z
" transform="scale(0.015625)"/>
      <path id="DejaVuSans-2e" d="M 684 794 
L 1344 794 
L 1344 0 
L 684 0 
L 684 794 
z
" transform="scale(0.015625)"/>
      <path id="DejaVuSans-32" d="M 1228 531 
L 3431 531 
L 3431 0 
L 469 0 
L 469 531 
Q 828 903 1448 1529 
Q 2069 2156 2228 2338 
Q 2531 2678 2651 2914 
Q 2772 3150 2772 3378 
Q 2772 3750 2511 3984 
Q 2250 4219 1831 4219 
Q 1534 4219 1204 4116 
Q 875 4013 500 3803 
L 500 4441 
Q 881 4594 1212 4672 
Q 1544 4750 1819 4750 
Q 2544 4750 2975 4387 
Q 3406 4025 3406 3419 
Q 3406 3131 3298 2873 
Q 3191 2616 2906 2266 
Q 2828 2175 2409 1742 
Q 1991 1309 1228 531 
z
" transform="scale(0.015625)"/>
      <path id="DejaVuSans-31" d="M 794 531 
L 1825 531 
L 1825 4091 
L 703 3866 
L 703 4441 
L 1819 4666 
L 2450 4666 
L 2450 531 
L 3481 531 
L 3481 0 
L 794 0 
L 794 531 
z
" transform="scale(0.015625)"/>
     </defs>
     <use xlink:href="#DejaVuSans-Oblique-72" transform="translate(0 0.78125)"/>
     <use xlink:href="#DejaVuSans-3d" transform="translate(60.595703 0.78125)"/>
     <use xlink:href="#DejaVuSans-2212" transform="translate(183.349609 0.78125)"/>
     <use xlink:href="#DejaVuSans-30" transform="translate(286.621094 0.78125)"/>
     <use xlink:href="#DejaVuSans-2e" transform="translate(350.244141 0.78125)"/>
     <use xlink:href="#DejaVuSans-32" transform="translate(376.53125 0.78125)"/>
     <use xlink:href="#DejaVuSans-31" transform="translate(440.154297 0.78125)"/>
     <use xlink:href="#DejaVuSans-31" transform="translate(503.777344 0.78125)"/>
    </g>
    <!-- $p=0.044$ -->
    <g style="fill: #262626" transform="translate(29.114365 16.149023) scale(0.05 -0.05)">
     <defs>
      <path id="DejaVuSans-Oblique-70" d="M 3175 2156 
Q 3175 2616 2975 2859 
Q 2775 3103 2400 3103 
Q 2144 3103 1911 2972 
Q 1678 2841 1497 2591 
Q 1319 2344 1212 1994 
Q 1106 1644 1106 1300 
Q 1106 863 1306 627 
Q 1506 391 1875 391 
Q 2147 391 2380 519 
Q 2613 647 2778 891 
Q 2956 1147 3065 1494 
Q 3175 1841 3175 2156 
z
M 1394 2969 
Q 1625 3272 1939 3428 
Q 2253 3584 2638 3584 
Q 3175 3584 3472 3232 
Q 3769 2881 3769 2247 
Q 3769 1728 3584 1258 
Q 3400 788 3053 416 
Q 2822 169 2531 39 
Q 2241 -91 1919 -91 
Q 1547 -91 1294 64 
Q 1041 219 916 525 
L 556 -1331 
L -19 -1331 
L 922 3500 
L 1497 3500 
L 1394 2969 
z
" transform="scale(0.015625)"/>
      <path id="DejaVuSans-34" d="M 2419 4116 
L 825 1625 
L 2419 1625 
L 2419 4116 
z
M 2253 4666 
L 3047 4666 
L 3047 1625 
L 3713 1625 
L 3713 1100 
L 3047 1100 
L 3047 0 
L 2419 0 
L 2419 1100 
L 313 1100 
L 313 1709 
L 2253 4666 
z
" transform="scale(0.015625)"/>
     </defs>
     <use xlink:href="#DejaVuSans-Oblique-70" transform="translate(0 0.78125)"/>
     <use xlink:href="#DejaVuSans-3d" transform="translate(82.958984 0.78125)"/>
     <use xlink:href="#DejaVuSans-30" transform="translate(186.230469 0.78125)"/>
     <use xlink:href="#DejaVuSans-2e" transform="translate(249.853516 0.78125)"/>
     <use xlink:href="#DejaVuSans-30" transform="translate(281.640625 0.78125)"/>
     <use xlink:href="#DejaVuSans-34" transform="translate(345.263672 0.78125)"/>
     <use xlink:href="#DejaVuSans-34" transform="translate(408.886719 0.78125)"/>
    </g>
   </g>
  </g>
 </g>
 <defs>
  <clipPath id="ped7f7c7a5c">
   <rect x="25.36" y="5.4" width="125.145512" height="83.818327"/>
  </clipPath>
 </defs>
</svg>
