<?xml version="1.0" encoding="utf-8" standalone="no"?>
<!DOCTYPE svg PUBLIC "-//W3C//DTD SVG 1.1//EN"
  "http://www.w3.org/Graphics/SVG/1.1/DTD/svg11.dtd">
<svg xmlns:xlink="http://www.w3.org/1999/xlink" width="155.905512pt" height="113.385827pt" viewBox="0 0 155.905512 113.385827" xmlns="http://www.w3.org/2000/svg" version="1.1">
 <metadata>
  <rdf:RDF xmlns:dc="http://purl.org/dc/elements/1.1/" xmlns:cc="http://creativecommons.org/ns#" xmlns:rdf="http://www.w3.org/1999/02/22-rdf-syntax-ns#">
   <cc:Work>
    <dc:type rdf:resource="http://purl.org/dc/dcmitype/StillImage"/>
    <dc:date>2025-07-21T12:34:59.050127</dc:date>
    <dc:format>image/svg+xml</dc:format>
    <dc:creator>
     <cc:Agent>
      <dc:title>Matplotlib v3.9.2, https://matplotlib.org/</dc:title>
     </cc:Agent>
    </dc:creator>
   </cc:Work>
  </rdf:RDF>
 </metadata>
 <defs>
  <style type="text/css">*{stroke-linejoin: round; stroke-linecap: butt}</style>
 </defs>
 <g id="figure_1">
  <g id="patch_1">
   <path d="M 0 113.385827 
L 155.905512 113.385827 
L 155.905512 0 
L 0 0 
z
" style="fill: #ffffff"/>
  </g>
  <g id="axes_1">
   <g id="patch_2">
    <path d="M 25.24 89.218327 
L 150.505512 89.218327 
L 150.505512 5.4 
L 25.24 5.4 
z
" style="fill: #ffffff"/>
   </g>
   <g id="PathCollection_1">
    <defs>
     <path id="C0_0_b17bcc3401" d="M 0 0.866025 
C 0.229673 0.866025 0.449969 0.774776 0.612372 0.612372 
C 0.774776 0.449969 0.866025 0.229673 0.866025 -0 
C 0.866025 -0.229673 0.774776 -0.449969 0.612372 -0.612372 
C 0.449969 -0.774776 0.229673 -0.866025 0 -0.866025 
C -0.229673 -0.866025 -0.449969 -0.774776 -0.612372 -0.612372 
C -0.774776 -0.449969 -0.866025 -0.229673 -0.866025 0 
C -0.866025 0.229673 -0.774776 0.449969 -0.612372 0.612372 
C -0.449969 0.774776 -0.229673 0.866025 0 0.866025 
z
"/>
    </defs>
    <g clip-path="url(#p2e008782c9)">
     <use xlink:href="#C0_0_b17bcc3401" x="82.696495" y="78.745024" style="fill: #ff8c00; fill-opacity: 0.8"/>
    </g>
    <g clip-path="url(#p2e008782c9)">
     <use xlink:href="#C0_0_b17bcc3401" x="93.049017" y="63.29278" style="fill: #ff8c00; fill-opacity: 0.8"/>
    </g>
    <g clip-path="url(#p2e008782c9)">
     <use xlink:href="#C0_0_b17bcc3401" x="93.049017" y="74.881963" style="fill: #ff8c00; fill-opacity: 0.8"/>
    </g>
    <g clip-path="url(#p2e008782c9)">
     <use xlink:href="#C0_0_b17bcc3401" x="61.991452" y="74.881963" style="fill: #ff8c00; fill-opacity: 0.8"/>
    </g>
    <g clip-path="url(#p2e008782c9)">
     <use xlink:href="#C0_0_b17bcc3401" x="93.049017" y="67.155841" style="fill: #ff8c00; fill-opacity: 0.8"/>
    </g>
    <g clip-path="url(#p2e008782c9)">
     <use xlink:href="#C0_0_b17bcc3401" x="134.459103" y="74.881963" style="fill: #ff8c00; fill-opacity: 0.8"/>
    </g>
    <g clip-path="url(#p2e008782c9)">
     <use xlink:href="#C0_0_b17bcc3401" x="93.049017" y="40.114413" style="fill: #ff8c00; fill-opacity: 0.8"/>
    </g>
    <g clip-path="url(#p2e008782c9)">
     <use xlink:href="#C0_0_b17bcc3401" x="51.63893" y="63.29278" style="fill: #ff8c00; fill-opacity: 0.8"/>
    </g>
    <g clip-path="url(#p2e008782c9)">
     <use xlink:href="#C0_0_b17bcc3401" x="82.696495" y="67.155841" style="fill: #ff8c00; fill-opacity: 0.8"/>
    </g>
    <g clip-path="url(#p2e008782c9)">
     <use xlink:href="#C0_0_b17bcc3401" x="113.75406" y="78.745024" style="fill: #ff8c00; fill-opacity: 0.8"/>
    </g>
    <g clip-path="url(#p2e008782c9)">
     <use xlink:href="#C0_0_b17bcc3401" x="41.286409" y="51.703596" style="fill: #ff8c00; fill-opacity: 0.8"/>
    </g>
    <g clip-path="url(#p2e008782c9)">
     <use xlink:href="#C0_0_b17bcc3401" x="82.696495" y="71.018902" style="fill: #ff8c00; fill-opacity: 0.8"/>
    </g>
    <g clip-path="url(#p2e008782c9)">
     <use xlink:href="#C0_0_b17bcc3401" x="82.696495" y="78.745024" style="fill: #ff8c00; fill-opacity: 0.8"/>
    </g>
    <g clip-path="url(#p2e008782c9)">
     <use xlink:href="#C0_0_b17bcc3401" x="82.696495" y="78.745024" style="fill: #ff8c00; fill-opacity: 0.8"/>
    </g>
    <g clip-path="url(#p2e008782c9)">
     <use xlink:href="#C0_0_b17bcc3401" x="72.343973" y="63.29278" style="fill: #ff8c00; fill-opacity: 0.8"/>
    </g>
    <g clip-path="url(#p2e008782c9)">
     <use xlink:href="#C0_0_b17bcc3401" x="93.049017" y="78.745024" style="fill: #ff8c00; fill-opacity: 0.8"/>
    </g>
    <g clip-path="url(#p2e008782c9)">
     <use xlink:href="#C0_0_b17bcc3401" x="72.343973" y="78.745024" style="fill: #ff8c00; fill-opacity: 0.8"/>
    </g>
    <g clip-path="url(#p2e008782c9)">
     <use xlink:href="#C0_0_b17bcc3401" x="72.343973" y="78.745024" style="fill: #ff8c00; fill-opacity: 0.8"/>
    </g>
    <g clip-path="url(#p2e008782c9)">
     <use xlink:href="#C0_0_b17bcc3401" x="82.696495" y="55.566657" style="fill: #ff8c00; fill-opacity: 0.8"/>
    </g>
    <g clip-path="url(#p2e008782c9)">
     <use xlink:href="#C0_0_b17bcc3401" x="72.343973" y="67.155841" style="fill: #ff8c00; fill-opacity: 0.8"/>
    </g>
    <g clip-path="url(#p2e008782c9)">
     <use xlink:href="#C0_0_b17bcc3401" x="51.63893" y="20.799107" style="fill: #ff8c00; fill-opacity: 0.8"/>
    </g>
    <g clip-path="url(#p2e008782c9)">
     <use xlink:href="#C0_0_b17bcc3401" x="61.991452" y="59.429718" style="fill: #ff8c00; fill-opacity: 0.8"/>
    </g>
    <g clip-path="url(#p2e008782c9)">
     <use xlink:href="#C0_0_b17bcc3401" x="93.049017" y="74.881963" style="fill: #ff8c00; fill-opacity: 0.8"/>
    </g>
    <g clip-path="url(#p2e008782c9)">
     <use xlink:href="#C0_0_b17bcc3401" x="93.049017" y="78.745024" style="fill: #ff8c00; fill-opacity: 0.8"/>
    </g>
    <g clip-path="url(#p2e008782c9)">
     <use xlink:href="#C0_0_b17bcc3401" x="30.933887" y="55.566657" style="fill: #ff8c00; fill-opacity: 0.8"/>
    </g>
    <g clip-path="url(#p2e008782c9)">
     <use xlink:href="#C0_0_b17bcc3401" x="82.696495" y="78.745024" style="fill: #ff8c00; fill-opacity: 0.8"/>
    </g>
    <g clip-path="url(#p2e008782c9)">
     <use xlink:href="#C0_0_b17bcc3401" x="82.696495" y="78.745024" style="fill: #ff8c00; fill-opacity: 0.8"/>
    </g>
    <g clip-path="url(#p2e008782c9)">
     <use xlink:href="#C0_0_b17bcc3401" x="113.75406" y="78.745024" style="fill: #ff8c00; fill-opacity: 0.8"/>
    </g>
    <g clip-path="url(#p2e008782c9)">
     <use xlink:href="#C0_0_b17bcc3401" x="82.696495" y="24.662168" style="fill: #ff8c00; fill-opacity: 0.8"/>
    </g>
    <g clip-path="url(#p2e008782c9)">
     <use xlink:href="#C0_0_b17bcc3401" x="82.696495" y="36.251352" style="fill: #ff8c00; fill-opacity: 0.8"/>
    </g>
    <g clip-path="url(#p2e008782c9)">
     <use xlink:href="#C0_0_b17bcc3401" x="82.696495" y="74.881963" style="fill: #ff8c00; fill-opacity: 0.8"/>
    </g>
    <g clip-path="url(#p2e008782c9)">
     <use xlink:href="#C0_0_b17bcc3401" x="82.696495" y="78.745024" style="fill: #ff8c00; fill-opacity: 0.8"/>
    </g>
    <g clip-path="url(#p2e008782c9)">
     <use xlink:href="#C0_0_b17bcc3401" x="144.811625" y="78.745024" style="fill: #ff8c00; fill-opacity: 0.8"/>
    </g>
    <g clip-path="url(#p2e008782c9)">
     <use xlink:href="#C0_0_b17bcc3401" x="124.106582" y="59.429718" style="fill: #ff8c00; fill-opacity: 0.8"/>
    </g>
    <g clip-path="url(#p2e008782c9)">
     <use xlink:href="#C0_0_b17bcc3401" x="93.049017" y="71.018902" style="fill: #ff8c00; fill-opacity: 0.8"/>
    </g>
    <g clip-path="url(#p2e008782c9)">
     <use xlink:href="#C0_0_b17bcc3401" x="82.696495" y="71.018902" style="fill: #ff8c00; fill-opacity: 0.8"/>
    </g>
    <g clip-path="url(#p2e008782c9)">
     <use xlink:href="#C0_0_b17bcc3401" x="61.991452" y="40.114413" style="fill: #ff8c00; fill-opacity: 0.8"/>
    </g>
    <g clip-path="url(#p2e008782c9)">
     <use xlink:href="#C0_0_b17bcc3401" x="124.106582" y="78.745024" style="fill: #ff8c00; fill-opacity: 0.8"/>
    </g>
    <g clip-path="url(#p2e008782c9)">
     <use xlink:href="#C0_0_b17bcc3401" x="72.343973" y="71.018902" style="fill: #ff8c00; fill-opacity: 0.8"/>
    </g>
    <g clip-path="url(#p2e008782c9)">
     <use xlink:href="#C0_0_b17bcc3401" x="61.991452" y="74.881963" style="fill: #ff8c00; fill-opacity: 0.8"/>
    </g>
    <g clip-path="url(#p2e008782c9)">
     <use xlink:href="#C0_0_b17bcc3401" x="51.63893" y="74.881963" style="fill: #ff8c00; fill-opacity: 0.8"/>
    </g>
    <g clip-path="url(#p2e008782c9)">
     <use xlink:href="#C0_0_b17bcc3401" x="93.049017" y="63.29278" style="fill: #ff8c00; fill-opacity: 0.8"/>
    </g>
    <g clip-path="url(#p2e008782c9)">
     <use xlink:href="#C0_0_b17bcc3401" x="72.343973" y="63.29278" style="fill: #ff8c00; fill-opacity: 0.8"/>
    </g>
    <g clip-path="url(#p2e008782c9)">
     <use xlink:href="#C0_0_b17bcc3401" x="134.459103" y="74.881963" style="fill: #ff8c00; fill-opacity: 0.8"/>
    </g>
    <g clip-path="url(#p2e008782c9)">
     <use xlink:href="#C0_0_b17bcc3401" x="93.049017" y="78.745024" style="fill: #ff8c00; fill-opacity: 0.8"/>
    </g>
    <g clip-path="url(#p2e008782c9)">
     <use xlink:href="#C0_0_b17bcc3401" x="72.343973" y="16.936046" style="fill: #ff8c00; fill-opacity: 0.8"/>
    </g>
    <g clip-path="url(#p2e008782c9)">
     <use xlink:href="#C0_0_b17bcc3401" x="134.459103" y="67.155841" style="fill: #ff8c00; fill-opacity: 0.8"/>
    </g>
    <g clip-path="url(#p2e008782c9)">
     <use xlink:href="#C0_0_b17bcc3401" x="82.696495" y="74.881963" style="fill: #ff8c00; fill-opacity: 0.8"/>
    </g>
    <g clip-path="url(#p2e008782c9)">
     <use xlink:href="#C0_0_b17bcc3401" x="82.696495" y="67.155841" style="fill: #ff8c00; fill-opacity: 0.8"/>
    </g>
    <g clip-path="url(#p2e008782c9)">
     <use xlink:href="#C0_0_b17bcc3401" x="82.696495" y="71.018902" style="fill: #ff8c00; fill-opacity: 0.8"/>
    </g>
    <g clip-path="url(#p2e008782c9)">
     <use xlink:href="#C0_0_b17bcc3401" x="113.75406" y="78.745024" style="fill: #ff8c00; fill-opacity: 0.8"/>
    </g>
    <g clip-path="url(#p2e008782c9)">
     <use xlink:href="#C0_0_b17bcc3401" x="82.696495" y="36.251352" style="fill: #ff8c00; fill-opacity: 0.8"/>
    </g>
    <g clip-path="url(#p2e008782c9)">
     <use xlink:href="#C0_0_b17bcc3401" x="51.63893" y="13.072985" style="fill: #ff8c00; fill-opacity: 0.8"/>
    </g>
    <g clip-path="url(#p2e008782c9)">
     <use xlink:href="#C0_0_b17bcc3401" x="82.696495" y="9.209924" style="fill: #ff8c00; fill-opacity: 0.8"/>
    </g>
    <g clip-path="url(#p2e008782c9)">
     <use xlink:href="#C0_0_b17bcc3401" x="103.401538" y="78.745024" style="fill: #ff8c00; fill-opacity: 0.8"/>
    </g>
    <g clip-path="url(#p2e008782c9)">
     <use xlink:href="#C0_0_b17bcc3401" x="82.696495" y="59.429718" style="fill: #ff8c00; fill-opacity: 0.8"/>
    </g>
    <g clip-path="url(#p2e008782c9)">
     <use xlink:href="#C0_0_b17bcc3401" x="93.049017" y="74.881963" style="fill: #ff8c00; fill-opacity: 0.8"/>
    </g>
    <g clip-path="url(#p2e008782c9)">
     <use xlink:href="#C0_0_b17bcc3401" x="82.696495" y="78.745024" style="fill: #ff8c00; fill-opacity: 0.8"/>
    </g>
    <g clip-path="url(#p2e008782c9)">
     <use xlink:href="#C0_0_b17bcc3401" x="93.049017" y="43.977474" style="fill: #ff8c00; fill-opacity: 0.8"/>
    </g>
    <g clip-path="url(#p2e008782c9)">
     <use xlink:href="#C0_0_b17bcc3401" x="82.696495" y="74.881963" style="fill: #ff8c00; fill-opacity: 0.8"/>
    </g>
    <g clip-path="url(#p2e008782c9)">
     <use xlink:href="#C0_0_b17bcc3401" x="93.049017" y="63.29278" style="fill: #ff8c00; fill-opacity: 0.8"/>
    </g>
    <g clip-path="url(#p2e008782c9)">
     <use xlink:href="#C0_0_b17bcc3401" x="93.049017" y="55.566657" style="fill: #ff8c00; fill-opacity: 0.8"/>
    </g>
    <g clip-path="url(#p2e008782c9)">
     <use xlink:href="#C0_0_b17bcc3401" x="72.343973" y="74.881963" style="fill: #ff8c00; fill-opacity: 0.8"/>
    </g>
    <g clip-path="url(#p2e008782c9)">
     <use xlink:href="#C0_0_b17bcc3401" x="82.696495" y="71.018902" style="fill: #ff8c00; fill-opacity: 0.8"/>
    </g>
    <g clip-path="url(#p2e008782c9)">
     <use xlink:href="#C0_0_b17bcc3401" x="82.696495" y="71.018902" style="fill: #ff8c00; fill-opacity: 0.8"/>
    </g>
    <g clip-path="url(#p2e008782c9)">
     <use xlink:href="#C0_0_b17bcc3401" x="61.991452" y="74.881963" style="fill: #ff8c00; fill-opacity: 0.8"/>
    </g>
    <g clip-path="url(#p2e008782c9)">
     <use xlink:href="#C0_0_b17bcc3401" x="93.049017" y="78.745024" style="fill: #ff8c00; fill-opacity: 0.8"/>
    </g>
    <g clip-path="url(#p2e008782c9)">
     <use xlink:href="#C0_0_b17bcc3401" x="82.696495" y="78.745024" style="fill: #ff8c00; fill-opacity: 0.8"/>
    </g>
    <g clip-path="url(#p2e008782c9)">
     <use xlink:href="#C0_0_b17bcc3401" x="93.049017" y="55.566657" style="fill: #ff8c00; fill-opacity: 0.8"/>
    </g>
    <g clip-path="url(#p2e008782c9)">
     <use xlink:href="#C0_0_b17bcc3401" x="144.811625" y="71.018902" style="fill: #ff8c00; fill-opacity: 0.8"/>
    </g>
    <g clip-path="url(#p2e008782c9)">
     <use xlink:href="#C0_0_b17bcc3401" x="124.106582" y="78.745024" style="fill: #ff8c00; fill-opacity: 0.8"/>
    </g>
    <g clip-path="url(#p2e008782c9)">
     <use xlink:href="#C0_0_b17bcc3401" x="51.63893" y="71.018902" style="fill: #ff8c00; fill-opacity: 0.8"/>
    </g>
    <g clip-path="url(#p2e008782c9)">
     <use xlink:href="#C0_0_b17bcc3401" x="144.811625" y="78.745024" style="fill: #ff8c00; fill-opacity: 0.8"/>
    </g>
    <g clip-path="url(#p2e008782c9)">
     <use xlink:href="#C0_0_b17bcc3401" x="72.343973" y="63.29278" style="fill: #ff8c00; fill-opacity: 0.8"/>
    </g>
    <g clip-path="url(#p2e008782c9)">
     <use xlink:href="#C0_0_b17bcc3401" x="82.696495" y="67.155841" style="fill: #ff8c00; fill-opacity: 0.8"/>
    </g>
    <g clip-path="url(#p2e008782c9)">
     <use xlink:href="#C0_0_b17bcc3401" x="124.106582" y="74.881963" style="fill: #ff8c00; fill-opacity: 0.8"/>
    </g>
    <g clip-path="url(#p2e008782c9)">
     <use xlink:href="#C0_0_b17bcc3401" x="51.63893" y="51.703596" style="fill: #ff8c00; fill-opacity: 0.8"/>
    </g>
    <g clip-path="url(#p2e008782c9)">
     <use xlink:href="#C0_0_b17bcc3401" x="82.696495" y="67.155841" style="fill: #ff8c00; fill-opacity: 0.8"/>
    </g>
    <g clip-path="url(#p2e008782c9)">
     <use xlink:href="#C0_0_b17bcc3401" x="61.991452" y="59.429718" style="fill: #ff8c00; fill-opacity: 0.8"/>
    </g>
    <g clip-path="url(#p2e008782c9)">
     <use xlink:href="#C0_0_b17bcc3401" x="93.049017" y="47.840535" style="fill: #ff8c00; fill-opacity: 0.8"/>
    </g>
    <g clip-path="url(#p2e008782c9)">
     <use xlink:href="#C0_0_b17bcc3401" x="82.696495" y="74.881963" style="fill: #ff8c00; fill-opacity: 0.8"/>
    </g>
    <g clip-path="url(#p2e008782c9)">
     <use xlink:href="#C0_0_b17bcc3401" x="113.75406" y="71.018902" style="fill: #ff8c00; fill-opacity: 0.8"/>
    </g>
    <g clip-path="url(#p2e008782c9)">
     <use xlink:href="#C0_0_b17bcc3401" x="72.343973" y="71.018902" style="fill: #ff8c00; fill-opacity: 0.8"/>
    </g>
    <g clip-path="url(#p2e008782c9)">
     <use xlink:href="#C0_0_b17bcc3401" x="72.343973" y="78.745024" style="fill: #ff8c00; fill-opacity: 0.8"/>
    </g>
    <g clip-path="url(#p2e008782c9)">
     <use xlink:href="#C0_0_b17bcc3401" x="103.401538" y="74.881963" style="fill: #ff8c00; fill-opacity: 0.8"/>
    </g>
    <g clip-path="url(#p2e008782c9)">
     <use xlink:href="#C0_0_b17bcc3401" x="93.049017" y="32.388291" style="fill: #ff8c00; fill-opacity: 0.8"/>
    </g>
    <g clip-path="url(#p2e008782c9)">
     <use xlink:href="#C0_0_b17bcc3401" x="93.049017" y="74.881963" style="fill: #ff8c00; fill-opacity: 0.8"/>
    </g>
    <g clip-path="url(#p2e008782c9)">
     <use xlink:href="#C0_0_b17bcc3401" x="93.049017" y="63.29278" style="fill: #ff8c00; fill-opacity: 0.8"/>
    </g>
    <g clip-path="url(#p2e008782c9)">
     <use xlink:href="#C0_0_b17bcc3401" x="82.696495" y="67.155841" style="fill: #ff8c00; fill-opacity: 0.8"/>
    </g>
    <g clip-path="url(#p2e008782c9)">
     <use xlink:href="#C0_0_b17bcc3401" x="103.401538" y="74.881963" style="fill: #ff8c00; fill-opacity: 0.8"/>
    </g>
    <g clip-path="url(#p2e008782c9)">
     <use xlink:href="#C0_0_b17bcc3401" x="93.049017" y="78.745024" style="fill: #ff8c00; fill-opacity: 0.8"/>
    </g>
    <g clip-path="url(#p2e008782c9)">
     <use xlink:href="#C0_0_b17bcc3401" x="103.401538" y="78.745024" style="fill: #ff8c00; fill-opacity: 0.8"/>
    </g>
    <g clip-path="url(#p2e008782c9)">
     <use xlink:href="#C0_0_b17bcc3401" x="93.049017" y="78.745024" style="fill: #ff8c00; fill-opacity: 0.8"/>
    </g>
    <g clip-path="url(#p2e008782c9)">
     <use xlink:href="#C0_0_b17bcc3401" x="93.049017" y="71.018902" style="fill: #ff8c00; fill-opacity: 0.8"/>
    </g>
    <g clip-path="url(#p2e008782c9)">
     <use xlink:href="#C0_0_b17bcc3401" x="103.401538" y="74.881963" style="fill: #ff8c00; fill-opacity: 0.8"/>
    </g>
    <g clip-path="url(#p2e008782c9)">
     <use xlink:href="#C0_0_b17bcc3401" x="113.75406" y="63.29278" style="fill: #ff8c00; fill-opacity: 0.8"/>
    </g>
   </g>
   <g id="PolyCollection_1">
    <path d="M 30.933887 44.269252 
L 30.933887 61.543831 
L 32.084167 61.676242 
L 33.234447 61.827588 
L 34.384727 61.960467 
L 35.535008 62.091255 
L 36.685288 62.231996 
L 37.835568 62.372445 
L 38.985848 62.525798 
L 40.136128 62.658129 
L 41.286409 62.792569 
L 42.436689 62.944054 
L 43.586969 63.09203 
L 44.737249 63.240155 
L 45.887529 63.377608 
L 47.037809 63.515527 
L 48.18809 63.645287 
L 49.33837 63.800272 
L 50.48865 63.946973 
L 51.63893 64.081078 
L 52.78921 64.200631 
L 53.939491 64.352674 
L 55.089771 64.505765 
L 56.240051 64.646424 
L 57.390331 64.793297 
L 58.540611 64.938805 
L 59.690891 65.088958 
L 60.841172 65.239153 
L 61.991452 65.389132 
L 63.141732 65.561564 
L 64.292012 65.722114 
L 65.442292 65.856025 
L 66.592573 66.012926 
L 67.742853 66.153708 
L 68.893133 66.304652 
L 70.043413 66.454557 
L 71.193693 66.614814 
L 72.343973 66.768431 
L 73.494254 66.923201 
L 74.644534 67.078761 
L 75.794814 67.26378 
L 76.945094 67.421677 
L 78.095374 67.600417 
L 79.245655 67.772089 
L 80.395935 67.944271 
L 81.546215 68.122302 
L 82.696495 68.294606 
L 83.846775 68.453589 
L 84.997055 68.627521 
L 86.147336 68.813457 
L 87.297616 69.006239 
L 88.447896 69.210723 
L 89.598176 69.430106 
L 90.748456 69.624795 
L 91.898737 69.855857 
L 93.049017 70.062929 
L 94.199297 70.295266 
L 95.349577 70.538079 
L 96.499857 70.768731 
L 97.650137 71.030551 
L 98.800418 71.295631 
L 99.950698 71.560446 
L 101.100978 71.835143 
L 102.251258 72.094224 
L 103.401538 72.379746 
L 104.551819 72.655003 
L 105.702099 72.961979 
L 106.852379 73.286434 
L 108.002659 73.603511 
L 109.152939 73.939545 
L 110.303219 74.268032 
L 111.4535 74.603349 
L 112.60378 74.920934 
L 113.75406 75.269414 
L 114.90434 75.601829 
L 116.05462 75.955137 
L 117.204901 76.320949 
L 118.355181 76.679684 
L 119.505461 77.040228 
L 120.655741 77.391568 
L 121.806021 77.752202 
L 122.956301 78.110766 
L 124.106582 78.486799 
L 125.256862 78.862237 
L 126.407142 79.245944 
L 127.557422 79.616187 
L 128.707702 79.979702 
L 129.857983 80.379008 
L 131.008263 80.765478 
L 132.158543 81.128442 
L 133.308823 81.522061 
L 134.459103 81.905699 
L 135.609383 82.295432 
L 136.759664 82.696192 
L 137.909944 83.086471 
L 139.060224 83.479163 
L 140.210504 83.868462 
L 141.360784 84.24866 
L 142.511065 84.651045 
L 143.661345 85.032514 
L 144.811625 85.408403 
L 144.811625 73.498987 
L 144.811625 73.498987 
L 143.661345 73.344643 
L 142.511065 73.204378 
L 141.360784 73.066809 
L 140.210504 72.932669 
L 139.060224 72.779659 
L 137.909944 72.620466 
L 136.759664 72.458346 
L 135.609383 72.302484 
L 134.459103 72.148316 
L 133.308823 71.983197 
L 132.158543 71.832505 
L 131.008263 71.691551 
L 129.857983 71.529942 
L 128.707702 71.372073 
L 127.557422 71.200161 
L 126.407142 71.046167 
L 125.256862 70.884216 
L 124.106582 70.712012 
L 122.956301 70.533338 
L 121.806021 70.353006 
L 120.655741 70.17378 
L 119.505461 70.000746 
L 118.355181 69.807727 
L 117.204901 69.618569 
L 116.05462 69.443158 
L 114.90434 69.26422 
L 113.75406 69.070316 
L 112.60378 68.874933 
L 111.4535 68.672452 
L 110.303219 68.448921 
L 109.152939 68.220912 
L 108.002659 68.0137 
L 106.852379 67.769616 
L 105.702099 67.527935 
L 104.551819 67.261207 
L 103.401538 67.024655 
L 102.251258 66.780276 
L 101.100978 66.515655 
L 99.950698 66.256213 
L 98.800418 65.978527 
L 97.650137 65.71537 
L 96.499857 65.434117 
L 95.349577 65.11835 
L 94.199297 64.815781 
L 93.049017 64.522373 
L 91.898737 64.225309 
L 90.748456 63.900002 
L 89.598176 63.578296 
L 88.447896 63.238532 
L 87.297616 62.910721 
L 86.147336 62.565297 
L 84.997055 62.20765 
L 83.846775 61.877486 
L 82.696495 61.52819 
L 81.546215 61.165599 
L 80.395935 60.820604 
L 79.245655 60.477236 
L 78.095374 60.123338 
L 76.945094 59.765099 
L 75.794814 59.413682 
L 74.644534 59.052616 
L 73.494254 58.678713 
L 72.343973 58.309604 
L 71.193693 57.963725 
L 70.043413 57.582621 
L 68.893133 57.207218 
L 67.742853 56.833675 
L 66.592573 56.471406 
L 65.442292 56.09777 
L 64.292012 55.718475 
L 63.141732 55.339105 
L 61.991452 54.974305 
L 60.841172 54.54658 
L 59.690891 54.146073 
L 58.540611 53.754694 
L 57.390331 53.37471 
L 56.240051 52.994778 
L 55.089771 52.590475 
L 53.939491 52.193972 
L 52.78921 51.797989 
L 51.63893 51.404672 
L 50.48865 51.013848 
L 49.33837 50.623644 
L 48.18809 50.238811 
L 47.037809 49.830063 
L 45.887529 49.441007 
L 44.737249 49.031671 
L 43.586969 48.637419 
L 42.436689 48.241605 
L 41.286409 47.840853 
L 40.136128 47.443796 
L 38.985848 47.048584 
L 37.835568 46.64531 
L 36.685288 46.2639 
L 35.535008 45.86821 
L 34.384727 45.477018 
L 33.234447 45.081095 
L 32.084167 44.66502 
L 30.933887 44.269252 
z
" clip-path="url(#p2e008782c9)" style="fill: #ff8c00; fill-opacity: 0.15"/>
   </g>
   <g id="matplotlib.axis_1">
    <g id="xtick_1">
     <g id="line2d_1">
      <defs>
       <path id="m34c6a6ae6c" d="M 0 0 
L 0 3.5 
" style="stroke: #000000; stroke-width: 0.25"/>
      </defs>
      <g>
       <use xlink:href="#m34c6a6ae6c" x="41.286409" y="89.218327" style="stroke: #000000; stroke-width: 0.25"/>
      </g>
     </g>
     <g id="text_1">
      <!-- 26 -->
      <g transform="translate(38.50594 97.297233) scale(0.05 -0.05)">
       <defs>
        <path id="ArialMT-32" d="M 3222 541 
L 3222 0 
L 194 0 
Q 188 203 259 391 
Q 375 700 629 1000 
Q 884 1300 1366 1694 
Q 2113 2306 2375 2664 
Q 2638 3022 2638 3341 
Q 2638 3675 2398 3904 
Q 2159 4134 1775 4134 
Q 1369 4134 1125 3890 
Q 881 3647 878 3216 
L 300 3275 
Q 359 3922 746 4261 
Q 1134 4600 1788 4600 
Q 2447 4600 2831 4234 
Q 3216 3869 3216 3328 
Q 3216 3053 3103 2787 
Q 2991 2522 2730 2228 
Q 2469 1934 1863 1422 
Q 1356 997 1212 845 
Q 1069 694 975 541 
L 3222 541 
z
" transform="scale(0.015625)"/>
        <path id="ArialMT-36" d="M 3184 3459 
L 2625 3416 
Q 2550 3747 2413 3897 
Q 2184 4138 1850 4138 
Q 1581 4138 1378 3988 
Q 1113 3794 959 3422 
Q 806 3050 800 2363 
Q 1003 2672 1297 2822 
Q 1591 2972 1913 2972 
Q 2475 2972 2870 2558 
Q 3266 2144 3266 1488 
Q 3266 1056 3080 686 
Q 2894 316 2569 119 
Q 2244 -78 1831 -78 
Q 1128 -78 684 439 
Q 241 956 241 2144 
Q 241 3472 731 4075 
Q 1159 4600 1884 4600 
Q 2425 4600 2770 4297 
Q 3116 3994 3184 3459 
z
M 888 1484 
Q 888 1194 1011 928 
Q 1134 663 1356 523 
Q 1578 384 1822 384 
Q 2178 384 2434 671 
Q 2691 959 2691 1453 
Q 2691 1928 2437 2201 
Q 2184 2475 1800 2475 
Q 1419 2475 1153 2201 
Q 888 1928 888 1484 
z
" transform="scale(0.015625)"/>
       </defs>
       <use xlink:href="#ArialMT-32"/>
       <use xlink:href="#ArialMT-36" x="55.615234"/>
      </g>
     </g>
    </g>
    <g id="xtick_2">
     <g id="line2d_2">
      <g>
       <use xlink:href="#m34c6a6ae6c" x="61.991452" y="89.218327" style="stroke: #000000; stroke-width: 0.25"/>
      </g>
     </g>
     <g id="text_2">
      <!-- 28 -->
      <g transform="translate(59.210983 97.297233) scale(0.05 -0.05)">
       <defs>
        <path id="ArialMT-38" d="M 1131 2484 
Q 781 2613 612 2850 
Q 444 3088 444 3419 
Q 444 3919 803 4259 
Q 1163 4600 1759 4600 
Q 2359 4600 2725 4251 
Q 3091 3903 3091 3403 
Q 3091 3084 2923 2848 
Q 2756 2613 2416 2484 
Q 2838 2347 3058 2040 
Q 3278 1734 3278 1309 
Q 3278 722 2862 322 
Q 2447 -78 1769 -78 
Q 1091 -78 675 323 
Q 259 725 259 1325 
Q 259 1772 486 2073 
Q 713 2375 1131 2484 
z
M 1019 3438 
Q 1019 3113 1228 2906 
Q 1438 2700 1772 2700 
Q 2097 2700 2305 2904 
Q 2513 3109 2513 3406 
Q 2513 3716 2298 3927 
Q 2084 4138 1766 4138 
Q 1444 4138 1231 3931 
Q 1019 3725 1019 3438 
z
M 838 1322 
Q 838 1081 952 856 
Q 1066 631 1291 507 
Q 1516 384 1775 384 
Q 2178 384 2440 643 
Q 2703 903 2703 1303 
Q 2703 1709 2433 1975 
Q 2163 2241 1756 2241 
Q 1359 2241 1098 1978 
Q 838 1716 838 1322 
z
" transform="scale(0.015625)"/>
       </defs>
       <use xlink:href="#ArialMT-32"/>
       <use xlink:href="#ArialMT-38" x="55.615234"/>
      </g>
     </g>
    </g>
    <g id="xtick_3">
     <g id="line2d_3">
      <g>
       <use xlink:href="#m34c6a6ae6c" x="82.696495" y="89.218327" style="stroke: #000000; stroke-width: 0.25"/>
      </g>
     </g>
     <g id="text_3">
      <!-- 30 -->
      <g transform="translate(79.916026 97.297233) scale(0.05 -0.05)">
       <defs>
        <path id="ArialMT-33" d="M 269 1209 
L 831 1284 
Q 928 806 1161 595 
Q 1394 384 1728 384 
Q 2125 384 2398 659 
Q 2672 934 2672 1341 
Q 2672 1728 2419 1979 
Q 2166 2231 1775 2231 
Q 1616 2231 1378 2169 
L 1441 2663 
Q 1497 2656 1531 2656 
Q 1891 2656 2178 2843 
Q 2466 3031 2466 3422 
Q 2466 3731 2256 3934 
Q 2047 4138 1716 4138 
Q 1388 4138 1169 3931 
Q 950 3725 888 3313 
L 325 3413 
Q 428 3978 793 4289 
Q 1159 4600 1703 4600 
Q 2078 4600 2393 4439 
Q 2709 4278 2876 4000 
Q 3044 3722 3044 3409 
Q 3044 3113 2884 2869 
Q 2725 2625 2413 2481 
Q 2819 2388 3044 2092 
Q 3269 1797 3269 1353 
Q 3269 753 2831 336 
Q 2394 -81 1725 -81 
Q 1122 -81 723 278 
Q 325 638 269 1209 
z
" transform="scale(0.015625)"/>
        <path id="ArialMT-30" d="M 266 2259 
Q 266 3072 433 3567 
Q 600 4063 929 4331 
Q 1259 4600 1759 4600 
Q 2128 4600 2406 4451 
Q 2684 4303 2865 4023 
Q 3047 3744 3150 3342 
Q 3253 2941 3253 2259 
Q 3253 1453 3087 958 
Q 2922 463 2592 192 
Q 2263 -78 1759 -78 
Q 1097 -78 719 397 
Q 266 969 266 2259 
z
M 844 2259 
Q 844 1131 1108 757 
Q 1372 384 1759 384 
Q 2147 384 2411 759 
Q 2675 1134 2675 2259 
Q 2675 3391 2411 3762 
Q 2147 4134 1753 4134 
Q 1366 4134 1134 3806 
Q 844 3388 844 2259 
z
" transform="scale(0.015625)"/>
       </defs>
       <use xlink:href="#ArialMT-33"/>
       <use xlink:href="#ArialMT-30" x="55.615234"/>
      </g>
     </g>
    </g>
    <g id="xtick_4">
     <g id="line2d_4">
      <g>
       <use xlink:href="#m34c6a6ae6c" x="103.401538" y="89.218327" style="stroke: #000000; stroke-width: 0.25"/>
      </g>
     </g>
     <g id="text_4">
      <!-- 32 -->
      <g transform="translate(100.62107 97.297233) scale(0.05 -0.05)">
       <use xlink:href="#ArialMT-33"/>
       <use xlink:href="#ArialMT-32" x="55.615234"/>
      </g>
     </g>
    </g>
    <g id="xtick_5">
     <g id="line2d_5">
      <g>
       <use xlink:href="#m34c6a6ae6c" x="124.106582" y="89.218327" style="stroke: #000000; stroke-width: 0.25"/>
      </g>
     </g>
     <g id="text_5">
      <!-- 34 -->
      <g transform="translate(121.326113 97.297233) scale(0.05 -0.05)">
       <defs>
        <path id="ArialMT-34" d="M 2069 0 
L 2069 1097 
L 81 1097 
L 81 1613 
L 2172 4581 
L 2631 4581 
L 2631 1613 
L 3250 1613 
L 3250 1097 
L 2631 1097 
L 2631 0 
L 2069 0 
z
M 2069 1613 
L 2069 3678 
L 634 1613 
L 2069 1613 
z
" transform="scale(0.015625)"/>
       </defs>
       <use xlink:href="#ArialMT-33"/>
       <use xlink:href="#ArialMT-34" x="55.615234"/>
      </g>
     </g>
    </g>
    <g id="xtick_6">
     <g id="line2d_6">
      <g>
       <use xlink:href="#m34c6a6ae6c" x="144.811625" y="89.218327" style="stroke: #000000; stroke-width: 0.25"/>
      </g>
     </g>
     <g id="text_6">
      <!-- 36 -->
      <g transform="translate(142.031156 97.297233) scale(0.05 -0.05)">
       <use xlink:href="#ArialMT-33"/>
       <use xlink:href="#ArialMT-36" x="55.615234"/>
      </g>
     </g>
    </g>
    <g id="text_7">
     <!-- Gestational age [weeks] -->
     <g transform="translate(55.856193 106.658796) scale(0.06 -0.06)">
      <defs>
       <path id="ArialMT-47" d="M 2638 1797 
L 2638 2334 
L 4578 2338 
L 4578 638 
Q 4131 281 3656 101 
Q 3181 -78 2681 -78 
Q 2006 -78 1454 211 
Q 903 500 622 1047 
Q 341 1594 341 2269 
Q 341 2938 620 3517 
Q 900 4097 1425 4378 
Q 1950 4659 2634 4659 
Q 3131 4659 3532 4498 
Q 3934 4338 4162 4050 
Q 4391 3763 4509 3300 
L 3963 3150 
Q 3859 3500 3706 3700 
Q 3553 3900 3268 4020 
Q 2984 4141 2638 4141 
Q 2222 4141 1919 4014 
Q 1616 3888 1430 3681 
Q 1244 3475 1141 3228 
Q 966 2803 966 2306 
Q 966 1694 1177 1281 
Q 1388 869 1791 669 
Q 2194 469 2647 469 
Q 3041 469 3416 620 
Q 3791 772 3984 944 
L 3984 1797 
L 2638 1797 
z
" transform="scale(0.015625)"/>
       <path id="ArialMT-65" d="M 2694 1069 
L 3275 997 
Q 3138 488 2766 206 
Q 2394 -75 1816 -75 
Q 1088 -75 661 373 
Q 234 822 234 1631 
Q 234 2469 665 2931 
Q 1097 3394 1784 3394 
Q 2450 3394 2872 2941 
Q 3294 2488 3294 1666 
Q 3294 1616 3291 1516 
L 816 1516 
Q 847 969 1125 678 
Q 1403 388 1819 388 
Q 2128 388 2347 550 
Q 2566 713 2694 1069 
z
M 847 1978 
L 2700 1978 
Q 2663 2397 2488 2606 
Q 2219 2931 1791 2931 
Q 1403 2931 1139 2672 
Q 875 2413 847 1978 
z
" transform="scale(0.015625)"/>
       <path id="ArialMT-73" d="M 197 991 
L 753 1078 
Q 800 744 1014 566 
Q 1228 388 1613 388 
Q 2000 388 2187 545 
Q 2375 703 2375 916 
Q 2375 1106 2209 1216 
Q 2094 1291 1634 1406 
Q 1016 1563 777 1677 
Q 538 1791 414 1992 
Q 291 2194 291 2438 
Q 291 2659 392 2848 
Q 494 3038 669 3163 
Q 800 3259 1026 3326 
Q 1253 3394 1513 3394 
Q 1903 3394 2198 3281 
Q 2494 3169 2634 2976 
Q 2775 2784 2828 2463 
L 2278 2388 
Q 2241 2644 2061 2787 
Q 1881 2931 1553 2931 
Q 1166 2931 1000 2803 
Q 834 2675 834 2503 
Q 834 2394 903 2306 
Q 972 2216 1119 2156 
Q 1203 2125 1616 2013 
Q 2213 1853 2448 1751 
Q 2684 1650 2818 1456 
Q 2953 1263 2953 975 
Q 2953 694 2789 445 
Q 2625 197 2315 61 
Q 2006 -75 1616 -75 
Q 969 -75 630 194 
Q 291 463 197 991 
z
" transform="scale(0.015625)"/>
       <path id="ArialMT-74" d="M 1650 503 
L 1731 6 
Q 1494 -44 1306 -44 
Q 1000 -44 831 53 
Q 663 150 594 308 
Q 525 466 525 972 
L 525 2881 
L 113 2881 
L 113 3319 
L 525 3319 
L 525 4141 
L 1084 4478 
L 1084 3319 
L 1650 3319 
L 1650 2881 
L 1084 2881 
L 1084 941 
Q 1084 700 1114 631 
Q 1144 563 1211 522 
Q 1278 481 1403 481 
Q 1497 481 1650 503 
z
" transform="scale(0.015625)"/>
       <path id="ArialMT-61" d="M 2588 409 
Q 2275 144 1986 34 
Q 1697 -75 1366 -75 
Q 819 -75 525 192 
Q 231 459 231 875 
Q 231 1119 342 1320 
Q 453 1522 633 1644 
Q 813 1766 1038 1828 
Q 1203 1872 1538 1913 
Q 2219 1994 2541 2106 
Q 2544 2222 2544 2253 
Q 2544 2597 2384 2738 
Q 2169 2928 1744 2928 
Q 1347 2928 1158 2789 
Q 969 2650 878 2297 
L 328 2372 
Q 403 2725 575 2942 
Q 747 3159 1072 3276 
Q 1397 3394 1825 3394 
Q 2250 3394 2515 3294 
Q 2781 3194 2906 3042 
Q 3031 2891 3081 2659 
Q 3109 2516 3109 2141 
L 3109 1391 
Q 3109 606 3145 398 
Q 3181 191 3288 0 
L 2700 0 
Q 2613 175 2588 409 
z
M 2541 1666 
Q 2234 1541 1622 1453 
Q 1275 1403 1131 1340 
Q 988 1278 909 1158 
Q 831 1038 831 891 
Q 831 666 1001 516 
Q 1172 366 1500 366 
Q 1825 366 2078 508 
Q 2331 650 2450 897 
Q 2541 1088 2541 1459 
L 2541 1666 
z
" transform="scale(0.015625)"/>
       <path id="ArialMT-69" d="M 425 3934 
L 425 4581 
L 988 4581 
L 988 3934 
L 425 3934 
z
M 425 0 
L 425 3319 
L 988 3319 
L 988 0 
L 425 0 
z
" transform="scale(0.015625)"/>
       <path id="ArialMT-6f" d="M 213 1659 
Q 213 2581 725 3025 
Q 1153 3394 1769 3394 
Q 2453 3394 2887 2945 
Q 3322 2497 3322 1706 
Q 3322 1066 3130 698 
Q 2938 331 2570 128 
Q 2203 -75 1769 -75 
Q 1072 -75 642 372 
Q 213 819 213 1659 
z
M 791 1659 
Q 791 1022 1069 705 
Q 1347 388 1769 388 
Q 2188 388 2466 706 
Q 2744 1025 2744 1678 
Q 2744 2294 2464 2611 
Q 2184 2928 1769 2928 
Q 1347 2928 1069 2612 
Q 791 2297 791 1659 
z
" transform="scale(0.015625)"/>
       <path id="ArialMT-6e" d="M 422 0 
L 422 3319 
L 928 3319 
L 928 2847 
Q 1294 3394 1984 3394 
Q 2284 3394 2536 3286 
Q 2788 3178 2913 3003 
Q 3038 2828 3088 2588 
Q 3119 2431 3119 2041 
L 3119 0 
L 2556 0 
L 2556 2019 
Q 2556 2363 2490 2533 
Q 2425 2703 2258 2804 
Q 2091 2906 1866 2906 
Q 1506 2906 1245 2678 
Q 984 2450 984 1813 
L 984 0 
L 422 0 
z
" transform="scale(0.015625)"/>
       <path id="ArialMT-6c" d="M 409 0 
L 409 4581 
L 972 4581 
L 972 0 
L 409 0 
z
" transform="scale(0.015625)"/>
       <path id="ArialMT-20" transform="scale(0.015625)"/>
       <path id="ArialMT-67" d="M 319 -275 
L 866 -356 
Q 900 -609 1056 -725 
Q 1266 -881 1628 -881 
Q 2019 -881 2231 -725 
Q 2444 -569 2519 -288 
Q 2563 -116 2559 434 
Q 2191 0 1641 0 
Q 956 0 581 494 
Q 206 988 206 1678 
Q 206 2153 378 2554 
Q 550 2956 876 3175 
Q 1203 3394 1644 3394 
Q 2231 3394 2613 2919 
L 2613 3319 
L 3131 3319 
L 3131 450 
Q 3131 -325 2973 -648 
Q 2816 -972 2473 -1159 
Q 2131 -1347 1631 -1347 
Q 1038 -1347 672 -1080 
Q 306 -813 319 -275 
z
M 784 1719 
Q 784 1066 1043 766 
Q 1303 466 1694 466 
Q 2081 466 2343 764 
Q 2606 1063 2606 1700 
Q 2606 2309 2336 2618 
Q 2066 2928 1684 2928 
Q 1309 2928 1046 2623 
Q 784 2319 784 1719 
z
" transform="scale(0.015625)"/>
       <path id="ArialMT-5b" d="M 434 -1272 
L 434 4581 
L 1675 4581 
L 1675 4116 
L 997 4116 
L 997 -806 
L 1675 -806 
L 1675 -1272 
L 434 -1272 
z
" transform="scale(0.015625)"/>
       <path id="ArialMT-77" d="M 1034 0 
L 19 3319 
L 600 3319 
L 1128 1403 
L 1325 691 
Q 1338 744 1497 1375 
L 2025 3319 
L 2603 3319 
L 3100 1394 
L 3266 759 
L 3456 1400 
L 4025 3319 
L 4572 3319 
L 3534 0 
L 2950 0 
L 2422 1988 
L 2294 2553 
L 1622 0 
L 1034 0 
z
" transform="scale(0.015625)"/>
       <path id="ArialMT-6b" d="M 425 0 
L 425 4581 
L 988 4581 
L 988 1969 
L 2319 3319 
L 3047 3319 
L 1778 2088 
L 3175 0 
L 2481 0 
L 1384 1697 
L 988 1316 
L 988 0 
L 425 0 
z
" transform="scale(0.015625)"/>
       <path id="ArialMT-5d" d="M 1363 -1272 
L 122 -1272 
L 122 -806 
L 800 -806 
L 800 4116 
L 122 4116 
L 122 4581 
L 1363 4581 
L 1363 -1272 
z
" transform="scale(0.015625)"/>
      </defs>
      <use xlink:href="#ArialMT-47"/>
      <use xlink:href="#ArialMT-65" x="77.783203"/>
      <use xlink:href="#ArialMT-73" x="133.398438"/>
      <use xlink:href="#ArialMT-74" x="183.398438"/>
      <use xlink:href="#ArialMT-61" x="211.181641"/>
      <use xlink:href="#ArialMT-74" x="266.796875"/>
      <use xlink:href="#ArialMT-69" x="294.580078"/>
      <use xlink:href="#ArialMT-6f" x="316.796875"/>
      <use xlink:href="#ArialMT-6e" x="372.412109"/>
      <use xlink:href="#ArialMT-61" x="428.027344"/>
      <use xlink:href="#ArialMT-6c" x="483.642578"/>
      <use xlink:href="#ArialMT-20" x="505.859375"/>
      <use xlink:href="#ArialMT-61" x="533.642578"/>
      <use xlink:href="#ArialMT-67" x="589.257812"/>
      <use xlink:href="#ArialMT-65" x="644.873047"/>
      <use xlink:href="#ArialMT-20" x="700.488281"/>
      <use xlink:href="#ArialMT-5b" x="728.271484"/>
      <use xlink:href="#ArialMT-77" x="756.054688"/>
      <use xlink:href="#ArialMT-65" x="828.271484"/>
      <use xlink:href="#ArialMT-65" x="883.886719"/>
      <use xlink:href="#ArialMT-6b" x="939.501953"/>
      <use xlink:href="#ArialMT-73" x="989.501953"/>
      <use xlink:href="#ArialMT-5d" x="1039.501953"/>
     </g>
    </g>
   </g>
   <g id="matplotlib.axis_2">
    <g id="ytick_1">
     <g id="line2d_7">
      <defs>
       <path id="mcd4b8f2069" d="M 0 0 
L -3.5 0 
" style="stroke: #000000; stroke-width: 0.25"/>
      </defs>
      <g>
       <use xlink:href="#mcd4b8f2069" x="25.24" y="78.745024" style="stroke: #000000; stroke-width: 0.25"/>
      </g>
     </g>
     <g id="text_8">
      <!-- 0 -->
      <g transform="translate(17.959531 80.534477) scale(0.05 -0.05)">
       <use xlink:href="#ArialMT-30"/>
      </g>
     </g>
    </g>
    <g id="ytick_2">
     <g id="line2d_8">
      <g>
       <use xlink:href="#mcd4b8f2069" x="25.24" y="59.429718" style="stroke: #000000; stroke-width: 0.25"/>
      </g>
     </g>
     <g id="text_9">
      <!-- 5 -->
      <g transform="translate(17.959531 61.219172) scale(0.05 -0.05)">
       <defs>
        <path id="ArialMT-35" d="M 266 1200 
L 856 1250 
Q 922 819 1161 601 
Q 1400 384 1738 384 
Q 2144 384 2425 690 
Q 2706 997 2706 1503 
Q 2706 1984 2436 2262 
Q 2166 2541 1728 2541 
Q 1456 2541 1237 2417 
Q 1019 2294 894 2097 
L 366 2166 
L 809 4519 
L 3088 4519 
L 3088 3981 
L 1259 3981 
L 1013 2750 
Q 1425 3038 1878 3038 
Q 2478 3038 2890 2622 
Q 3303 2206 3303 1553 
Q 3303 931 2941 478 
Q 2500 -78 1738 -78 
Q 1113 -78 717 272 
Q 322 622 266 1200 
z
" transform="scale(0.015625)"/>
       </defs>
       <use xlink:href="#ArialMT-35"/>
      </g>
     </g>
    </g>
    <g id="ytick_3">
     <g id="line2d_9">
      <g>
       <use xlink:href="#mcd4b8f2069" x="25.24" y="40.114413" style="stroke: #000000; stroke-width: 0.25"/>
      </g>
     </g>
     <g id="text_10">
      <!-- 10 -->
      <g transform="translate(15.179063 41.903866) scale(0.05 -0.05)">
       <defs>
        <path id="ArialMT-31" d="M 2384 0 
L 1822 0 
L 1822 3584 
Q 1619 3391 1289 3197 
Q 959 3003 697 2906 
L 697 3450 
Q 1169 3672 1522 3987 
Q 1875 4303 2022 4600 
L 2384 4600 
L 2384 0 
z
" transform="scale(0.015625)"/>
       </defs>
       <use xlink:href="#ArialMT-31"/>
       <use xlink:href="#ArialMT-30" x="55.615234"/>
      </g>
     </g>
    </g>
    <g id="ytick_4">
     <g id="line2d_10">
      <g>
       <use xlink:href="#mcd4b8f2069" x="25.24" y="20.799107" style="stroke: #000000; stroke-width: 0.25"/>
      </g>
     </g>
     <g id="text_11">
      <!-- 15 -->
      <g transform="translate(15.179063 22.58856) scale(0.05 -0.05)">
       <use xlink:href="#ArialMT-31"/>
       <use xlink:href="#ArialMT-35" x="55.615234"/>
      </g>
     </g>
    </g>
    <g id="text_12">
     <!-- Number infranormal regions [a.u.] -->
     <g transform="translate(9.91625 91.992288) rotate(-90) scale(0.06 -0.06)">
      <defs>
       <path id="ArialMT-4e" d="M 488 0 
L 488 4581 
L 1109 4581 
L 3516 984 
L 3516 4581 
L 4097 4581 
L 4097 0 
L 3475 0 
L 1069 3600 
L 1069 0 
L 488 0 
z
" transform="scale(0.015625)"/>
       <path id="ArialMT-75" d="M 2597 0 
L 2597 488 
Q 2209 -75 1544 -75 
Q 1250 -75 995 37 
Q 741 150 617 320 
Q 494 491 444 738 
Q 409 903 409 1263 
L 409 3319 
L 972 3319 
L 972 1478 
Q 972 1038 1006 884 
Q 1059 663 1231 536 
Q 1403 409 1656 409 
Q 1909 409 2131 539 
Q 2353 669 2445 892 
Q 2538 1116 2538 1541 
L 2538 3319 
L 3100 3319 
L 3100 0 
L 2597 0 
z
" transform="scale(0.015625)"/>
       <path id="ArialMT-6d" d="M 422 0 
L 422 3319 
L 925 3319 
L 925 2853 
Q 1081 3097 1340 3245 
Q 1600 3394 1931 3394 
Q 2300 3394 2536 3241 
Q 2772 3088 2869 2813 
Q 3263 3394 3894 3394 
Q 4388 3394 4653 3120 
Q 4919 2847 4919 2278 
L 4919 0 
L 4359 0 
L 4359 2091 
Q 4359 2428 4304 2576 
Q 4250 2725 4106 2815 
Q 3963 2906 3769 2906 
Q 3419 2906 3187 2673 
Q 2956 2441 2956 1928 
L 2956 0 
L 2394 0 
L 2394 2156 
Q 2394 2531 2256 2718 
Q 2119 2906 1806 2906 
Q 1569 2906 1367 2781 
Q 1166 2656 1075 2415 
Q 984 2175 984 1722 
L 984 0 
L 422 0 
z
" transform="scale(0.015625)"/>
       <path id="ArialMT-62" d="M 941 0 
L 419 0 
L 419 4581 
L 981 4581 
L 981 2947 
Q 1338 3394 1891 3394 
Q 2197 3394 2470 3270 
Q 2744 3147 2920 2923 
Q 3097 2700 3197 2384 
Q 3297 2069 3297 1709 
Q 3297 856 2875 390 
Q 2453 -75 1863 -75 
Q 1275 -75 941 416 
L 941 0 
z
M 934 1684 
Q 934 1088 1097 822 
Q 1363 388 1816 388 
Q 2184 388 2453 708 
Q 2722 1028 2722 1663 
Q 2722 2313 2464 2622 
Q 2206 2931 1841 2931 
Q 1472 2931 1203 2611 
Q 934 2291 934 1684 
z
" transform="scale(0.015625)"/>
       <path id="ArialMT-72" d="M 416 0 
L 416 3319 
L 922 3319 
L 922 2816 
Q 1116 3169 1280 3281 
Q 1444 3394 1641 3394 
Q 1925 3394 2219 3213 
L 2025 2691 
Q 1819 2813 1613 2813 
Q 1428 2813 1281 2702 
Q 1134 2591 1072 2394 
Q 978 2094 978 1738 
L 978 0 
L 416 0 
z
" transform="scale(0.015625)"/>
       <path id="ArialMT-66" d="M 556 0 
L 556 2881 
L 59 2881 
L 59 3319 
L 556 3319 
L 556 3672 
Q 556 4006 616 4169 
Q 697 4388 901 4523 
Q 1106 4659 1475 4659 
Q 1713 4659 2000 4603 
L 1916 4113 
Q 1741 4144 1584 4144 
Q 1328 4144 1222 4034 
Q 1116 3925 1116 3625 
L 1116 3319 
L 1763 3319 
L 1763 2881 
L 1116 2881 
L 1116 0 
L 556 0 
z
" transform="scale(0.015625)"/>
       <path id="ArialMT-2e" d="M 581 0 
L 581 641 
L 1222 641 
L 1222 0 
L 581 0 
z
" transform="scale(0.015625)"/>
      </defs>
      <use xlink:href="#ArialMT-4e"/>
      <use xlink:href="#ArialMT-75" x="72.216797"/>
      <use xlink:href="#ArialMT-6d" x="127.832031"/>
      <use xlink:href="#ArialMT-62" x="211.132812"/>
      <use xlink:href="#ArialMT-65" x="266.748047"/>
      <use xlink:href="#ArialMT-72" x="322.363281"/>
      <use xlink:href="#ArialMT-20" x="355.664062"/>
      <use xlink:href="#ArialMT-69" x="383.447266"/>
      <use xlink:href="#ArialMT-6e" x="405.664062"/>
      <use xlink:href="#ArialMT-66" x="461.279297"/>
      <use xlink:href="#ArialMT-72" x="489.0625"/>
      <use xlink:href="#ArialMT-61" x="522.363281"/>
      <use xlink:href="#ArialMT-6e" x="577.978516"/>
      <use xlink:href="#ArialMT-6f" x="633.59375"/>
      <use xlink:href="#ArialMT-72" x="689.208984"/>
      <use xlink:href="#ArialMT-6d" x="722.509766"/>
      <use xlink:href="#ArialMT-61" x="805.810547"/>
      <use xlink:href="#ArialMT-6c" x="861.425781"/>
      <use xlink:href="#ArialMT-20" x="883.642578"/>
      <use xlink:href="#ArialMT-72" x="911.425781"/>
      <use xlink:href="#ArialMT-65" x="944.726562"/>
      <use xlink:href="#ArialMT-67" x="1000.341797"/>
      <use xlink:href="#ArialMT-69" x="1055.957031"/>
      <use xlink:href="#ArialMT-6f" x="1078.173828"/>
      <use xlink:href="#ArialMT-6e" x="1133.789062"/>
      <use xlink:href="#ArialMT-73" x="1189.404297"/>
      <use xlink:href="#ArialMT-20" x="1239.404297"/>
      <use xlink:href="#ArialMT-5b" x="1267.1875"/>
      <use xlink:href="#ArialMT-61" x="1294.970703"/>
      <use xlink:href="#ArialMT-2e" x="1350.585938"/>
      <use xlink:href="#ArialMT-75" x="1378.369141"/>
      <use xlink:href="#ArialMT-2e" x="1433.984375"/>
      <use xlink:href="#ArialMT-5d" x="1461.767578"/>
     </g>
    </g>
   </g>
   <g id="line2d_11">
    <path d="M 30.933887 53.343469 
L 32.084167 53.603489 
L 33.234447 53.863509 
L 34.384727 54.123529 
L 35.535008 54.383549 
L 36.685288 54.643569 
L 37.835568 54.903588 
L 38.985848 55.163608 
L 40.136128 55.423628 
L 41.286409 55.683648 
L 42.436689 55.943668 
L 43.586969 56.203688 
L 44.737249 56.463708 
L 45.887529 56.723727 
L 47.037809 56.983747 
L 48.18809 57.243767 
L 49.33837 57.503787 
L 50.48865 57.763807 
L 51.63893 58.023827 
L 52.78921 58.283847 
L 53.939491 58.543866 
L 55.089771 58.803886 
L 56.240051 59.063906 
L 57.390331 59.323926 
L 58.540611 59.583946 
L 59.690891 59.843966 
L 60.841172 60.103986 
L 61.991452 60.364005 
L 63.141732 60.624025 
L 64.292012 60.884045 
L 65.442292 61.144065 
L 66.592573 61.404085 
L 67.742853 61.664105 
L 68.893133 61.924125 
L 70.043413 62.184144 
L 71.193693 62.444164 
L 72.343973 62.704184 
L 73.494254 62.964204 
L 74.644534 63.224224 
L 75.794814 63.484244 
L 76.945094 63.744264 
L 78.095374 64.004283 
L 79.245655 64.264303 
L 80.395935 64.524323 
L 81.546215 64.784343 
L 82.696495 65.044363 
L 83.846775 65.304383 
L 84.997055 65.564403 
L 86.147336 65.824422 
L 87.297616 66.084442 
L 88.447896 66.344462 
L 89.598176 66.604482 
L 90.748456 66.864502 
L 91.898737 67.124522 
L 93.049017 67.384542 
L 94.199297 67.644561 
L 95.349577 67.904581 
L 96.499857 68.164601 
L 97.650137 68.424621 
L 98.800418 68.684641 
L 99.950698 68.944661 
L 101.100978 69.204681 
L 102.251258 69.4647 
L 103.401538 69.72472 
L 104.551819 69.98474 
L 105.702099 70.24476 
L 106.852379 70.50478 
L 108.002659 70.7648 
L 109.152939 71.02482 
L 110.303219 71.284839 
L 111.4535 71.544859 
L 112.60378 71.804879 
L 113.75406 72.064899 
L 114.90434 72.324919 
L 116.05462 72.584939 
L 117.204901 72.844959 
L 118.355181 73.104978 
L 119.505461 73.364998 
L 120.655741 73.625018 
L 121.806021 73.885038 
L 122.956301 74.145058 
L 124.106582 74.405078 
L 125.256862 74.665098 
L 126.407142 74.925117 
L 127.557422 75.185137 
L 128.707702 75.445157 
L 129.857983 75.705177 
L 131.008263 75.965197 
L 132.158543 76.225217 
L 133.308823 76.485237 
L 134.459103 76.745256 
L 135.609383 77.005276 
L 136.759664 77.265296 
L 137.909944 77.525316 
L 139.060224 77.785336 
L 140.210504 78.045356 
L 141.360784 78.305376 
L 142.511065 78.565395 
L 143.661345 78.825415 
L 144.811625 79.085435 
" clip-path="url(#p2e008782c9)" style="fill: none; stroke: #ff8c00; stroke-width: 0.75; stroke-linecap: square"/>
   </g>
   <g id="patch_3">
    <path d="M 25.24 89.218327 
L 25.24 5.4 
" style="fill: none; stroke: #000000; stroke-width: 0.25; stroke-linejoin: miter; stroke-linecap: square"/>
   </g>
   <g id="patch_4">
    <path d="M 25.24 89.218327 
L 150.505512 89.218327 
" style="fill: none; stroke: #000000; stroke-width: 0.25; stroke-linejoin: miter; stroke-linecap: square"/>
   </g>
   <g id="text_13">
    <g id="patch_5">
     <path d="M 28.997965 18.699023 
L 57.647965 18.699023 
Q 59.147965 18.699023 59.147965 17.199023 
L 59.147965 7.132617 
Q 59.147965 5.632617 57.647965 5.632617 
L 28.997965 5.632617 
Q 27.497965 5.632617 27.497965 7.132617 
L 27.497965 17.199023 
Q 27.497965 18.699023 28.997965 18.699023 
z
" style="fill: #c0c0c0; opacity: 0.4; stroke: #c0c0c0; stroke-linejoin: miter"/>
    </g>
    <!-- $r=-0.313$ -->
    <g transform="translate(28.997965 10.655273) scale(0.05 -0.05)">
     <defs>
      <path id="DejaVuSans-Oblique-72" d="M 2853 2969 
Q 2766 3016 2653 3041 
Q 2541 3066 2413 3066 
Q 1953 3066 1609 2717 
Q 1266 2369 1153 1784 
L 800 0 
L 225 0 
L 909 3500 
L 1484 3500 
L 1375 2956 
Q 1603 3259 1920 3421 
Q 2238 3584 2597 3584 
Q 2691 3584 2781 3573 
Q 2872 3563 2963 3538 
L 2853 2969 
z
" transform="scale(0.015625)"/>
      <path id="DejaVuSans-3d" d="M 678 2906 
L 4684 2906 
L 4684 2381 
L 678 2381 
L 678 2906 
z
M 678 1631 
L 4684 1631 
L 4684 1100 
L 678 1100 
L 678 1631 
z
" transform="scale(0.015625)"/>
      <path id="DejaVuSans-2212" d="M 678 2272 
L 4684 2272 
L 4684 1741 
L 678 1741 
L 678 2272 
z
" transform="scale(0.015625)"/>
      <path id="DejaVuSans-30" d="M 2034 4250 
Q 1547 4250 1301 3770 
Q 1056 3291 1056 2328 
Q 1056 1369 1301 889 
Q 1547 409 2034 409 
Q 2525 409 2770 889 
Q 3016 1369 3016 2328 
Q 3016 3291 2770 3770 
Q 2525 4250 2034 4250 
z
M 2034 4750 
Q 2819 4750 3233 4129 
Q 3647 3509 3647 2328 
Q 3647 1150 3233 529 
Q 2819 -91 2034 -91 
Q 1250 -91 836 529 
Q 422 1150 422 2328 
Q 422 3509 836 4129 
Q 1250 4750 2034 4750 
z
" transform="scale(0.015625)"/>
      <path id="DejaVuSans-2e" d="M 684 794 
L 1344 794 
L 1344 0 
L 684 0 
L 684 794 
z
" transform="scale(0.015625)"/>
      <path id="DejaVuSans-33" d="M 2597 2516 
Q 3050 2419 3304 2112 
Q 3559 1806 3559 1356 
Q 3559 666 3084 287 
Q 2609 -91 1734 -91 
Q 1441 -91 1130 -33 
Q 819 25 488 141 
L 488 750 
Q 750 597 1062 519 
Q 1375 441 1716 441 
Q 2309 441 2620 675 
Q 2931 909 2931 1356 
Q 2931 1769 2642 2001 
Q 2353 2234 1838 2234 
L 1294 2234 
L 1294 2753 
L 1863 2753 
Q 2328 2753 2575 2939 
Q 2822 3125 2822 3475 
Q 2822 3834 2567 4026 
Q 2313 4219 1838 4219 
Q 1578 4219 1281 4162 
Q 984 4106 628 3988 
L 628 4550 
Q 988 4650 1302 4700 
Q 1616 4750 1894 4750 
Q 2613 4750 3031 4423 
Q 3450 4097 3450 3541 
Q 3450 3153 3228 2886 
Q 3006 2619 2597 2516 
z
" transform="scale(0.015625)"/>
      <path id="DejaVuSans-31" d="M 794 531 
L 1825 531 
L 1825 4091 
L 703 3866 
L 703 4441 
L 1819 4666 
L 2450 4666 
L 2450 531 
L 3481 531 
L 3481 0 
L 794 0 
L 794 531 
z
" transform="scale(0.015625)"/>
     </defs>
     <use xlink:href="#DejaVuSans-Oblique-72" transform="translate(0 0.78125)"/>
     <use xlink:href="#DejaVuSans-3d" transform="translate(60.595703 0.78125)"/>
     <use xlink:href="#DejaVuSans-2212" transform="translate(183.349609 0.78125)"/>
     <use xlink:href="#DejaVuSans-30" transform="translate(286.621094 0.78125)"/>
     <use xlink:href="#DejaVuSans-2e" transform="translate(350.244141 0.78125)"/>
     <use xlink:href="#DejaVuSans-33" transform="translate(382.03125 0.78125)"/>
     <use xlink:href="#DejaVuSans-31" transform="translate(445.654297 0.78125)"/>
     <use xlink:href="#DejaVuSans-33" transform="translate(509.277344 0.78125)"/>
    </g>
    <!-- $p=0.002$ -->
    <g transform="translate(28.997965 16.149023) scale(0.05 -0.05)">
     <defs>
      <path id="DejaVuSans-Oblique-70" d="M 3175 2156 
Q 3175 2616 2975 2859 
Q 2775 3103 2400 3103 
Q 2144 3103 1911 2972 
Q 1678 2841 1497 2591 
Q 1319 2344 1212 1994 
Q 1106 1644 1106 1300 
Q 1106 863 1306 627 
Q 1506 391 1875 391 
Q 2147 391 2380 519 
Q 2613 647 2778 891 
Q 2956 1147 3065 1494 
Q 3175 1841 3175 2156 
z
M 1394 2969 
Q 1625 3272 1939 3428 
Q 2253 3584 2638 3584 
Q 3175 3584 3472 3232 
Q 3769 2881 3769 2247 
Q 3769 1728 3584 1258 
Q 3400 788 3053 416 
Q 2822 169 2531 39 
Q 2241 -91 1919 -91 
Q 1547 -91 1294 64 
Q 1041 219 916 525 
L 556 -1331 
L -19 -1331 
L 922 3500 
L 1497 3500 
L 1394 2969 
z
" transform="scale(0.015625)"/>
      <path id="DejaVuSans-32" d="M 1228 531 
L 3431 531 
L 3431 0 
L 469 0 
L 469 531 
Q 828 903 1448 1529 
Q 2069 2156 2228 2338 
Q 2531 2678 2651 2914 
Q 2772 3150 2772 3378 
Q 2772 3750 2511 3984 
Q 2250 4219 1831 4219 
Q 1534 4219 1204 4116 
Q 875 4013 500 3803 
L 500 4441 
Q 881 4594 1212 4672 
Q 1544 4750 1819 4750 
Q 2544 4750 2975 4387 
Q 3406 4025 3406 3419 
Q 3406 3131 3298 2873 
Q 3191 2616 2906 2266 
Q 2828 2175 2409 1742 
Q 1991 1309 1228 531 
z
" transform="scale(0.015625)"/>
     </defs>
     <use xlink:href="#DejaVuSans-Oblique-70" transform="translate(0 0.78125)"/>
     <use xlink:href="#DejaVuSans-3d" transform="translate(82.958984 0.78125)"/>
     <use xlink:href="#DejaVuSans-30" transform="translate(186.230469 0.78125)"/>
     <use xlink:href="#DejaVuSans-2e" transform="translate(249.853516 0.78125)"/>
     <use xlink:href="#DejaVuSans-30" transform="translate(281.640625 0.78125)"/>
     <use xlink:href="#DejaVuSans-30" transform="translate(345.263672 0.78125)"/>
     <use xlink:href="#DejaVuSans-32" transform="translate(408.886719 0.78125)"/>
    </g>
   </g>
  </g>
 </g>
 <defs>
  <clipPath id="p2e008782c9">
   <rect x="25.24" y="5.4" width="125.265512" height="83.818327"/>
  </clipPath>
 </defs>
</svg>
