<?xml version="1.0" encoding="utf-8" standalone="no"?>
<!DOCTYPE svg PUBLIC "-//W3C//DTD SVG 1.1//EN"
  "http://www.w3.org/Graphics/SVG/1.1/DTD/svg11.dtd">
<svg xmlns:xlink="http://www.w3.org/1999/xlink" width="155.905512pt" height="113.385827pt" viewBox="0 0 155.905512 113.385827" xmlns="http://www.w3.org/2000/svg" version="1.1">
 <metadata>
  <rdf:RDF xmlns:dc="http://purl.org/dc/elements/1.1/" xmlns:cc="http://creativecommons.org/ns#" xmlns:rdf="http://www.w3.org/1999/02/22-rdf-syntax-ns#">
   <cc:Work>
    <dc:type rdf:resource="http://purl.org/dc/dcmitype/StillImage"/>
    <dc:date>2025-08-06T15:28:11.211099</dc:date>
    <dc:format>image/svg+xml</dc:format>
    <dc:creator>
     <cc:Agent>
      <dc:title>Matplotlib v3.9.2, https://matplotlib.org/</dc:title>
     </cc:Agent>
    </dc:creator>
   </cc:Work>
  </rdf:RDF>
 </metadata>
 <defs>
  <style type="text/css">*{stroke-linejoin: round; stroke-linecap: butt}</style>
 </defs>
 <g id="figure_1">
  <g id="patch_1">
   <path d="M 0 113.385827 
L 155.905512 113.385827 
L 155.905512 0 
L 0 0 
z
" style="fill: #ffffff"/>
  </g>
  <g id="axes_1">
   <g id="patch_2">
    <path d="M 25.24 89.218327 
L 150.505512 89.218327 
L 150.505512 5.4 
L 25.24 5.4 
z
" style="fill: #ffffff"/>
   </g>
   <g id="PathCollection_1">
    <defs>
     <path id="C0_0_ed4829f59d" d="M 0 0.866025 
C 0.229673 0.866025 0.449969 0.774776 0.612372 0.612372 
C 0.774776 0.449969 0.866025 0.229673 0.866025 -0 
C 0.866025 -0.229673 0.774776 -0.449969 0.612372 -0.612372 
C 0.449969 -0.774776 0.229673 -0.866025 0 -0.866025 
C -0.229673 -0.866025 -0.449969 -0.774776 -0.612372 -0.612372 
C -0.774776 -0.449969 -0.866025 -0.229673 -0.866025 0 
C -0.866025 0.229673 -0.774776 0.449969 -0.612372 0.612372 
C -0.449969 0.774776 -0.229673 0.866025 0 0.866025 
z
"/>
    </defs>
    <g clip-path="url(#pd501230eb8)">
     <use xlink:href="#C0_0_ed4829f59d" x="111.597285" y="83.846075" style="fill: #ff8c00; fill-opacity: 0.8"/>
    </g>
    <g clip-path="url(#pd501230eb8)">
     <use xlink:href="#C0_0_ed4829f59d" x="64.939045" y="67.260264" style="fill: #ff8c00; fill-opacity: 0.8"/>
    </g>
    <g clip-path="url(#pd501230eb8)">
     <use xlink:href="#C0_0_ed4829f59d" x="98.153385" y="79.699622" style="fill: #ff8c00; fill-opacity: 0.8"/>
    </g>
    <g clip-path="url(#pd501230eb8)">
     <use xlink:href="#C0_0_ed4829f59d" x="52.285963" y="79.699622" style="fill: #ff8c00; fill-opacity: 0.8"/>
    </g>
    <g clip-path="url(#pd501230eb8)">
     <use xlink:href="#C0_0_ed4829f59d" x="106.061561" y="71.406717" style="fill: #ff8c00; fill-opacity: 0.8"/>
    </g>
    <g clip-path="url(#pd501230eb8)">
     <use xlink:href="#C0_0_ed4829f59d" x="95.780932" y="79.699622" style="fill: #ff8c00; fill-opacity: 0.8"/>
    </g>
    <g clip-path="url(#pd501230eb8)">
     <use xlink:href="#C0_0_ed4829f59d" x="136.112631" y="42.381547" style="fill: #ff8c00; fill-opacity: 0.8"/>
    </g>
    <g clip-path="url(#pd501230eb8)">
     <use xlink:href="#C0_0_ed4829f59d" x="68.102315" y="67.260264" style="fill: #ff8c00; fill-opacity: 0.8"/>
    </g>
    <g clip-path="url(#pd501230eb8)">
     <use xlink:href="#C0_0_ed4829f59d" x="139.275902" y="71.406717" style="fill: #ff8c00; fill-opacity: 0.8"/>
    </g>
    <g clip-path="url(#pd501230eb8)">
     <use xlink:href="#C0_0_ed4829f59d" x="70.870177" y="83.846075" style="fill: #ff8c00; fill-opacity: 0.8"/>
    </g>
    <g clip-path="url(#pd501230eb8)">
     <use xlink:href="#C0_0_ed4829f59d" x="50.704328" y="54.820905" style="fill: #ff8c00; fill-opacity: 0.8"/>
    </g>
    <g clip-path="url(#pd501230eb8)">
     <use xlink:href="#C0_0_ed4829f59d" x="83.918668" y="75.55317" style="fill: #ff8c00; fill-opacity: 0.8"/>
    </g>
    <g clip-path="url(#pd501230eb8)">
     <use xlink:href="#C0_0_ed4829f59d" x="89.454391" y="83.846075" style="fill: #ff8c00; fill-opacity: 0.8"/>
    </g>
    <g clip-path="url(#pd501230eb8)">
     <use xlink:href="#C0_0_ed4829f59d" x="68.893133" y="83.846075" style="fill: #ff8c00; fill-opacity: 0.8"/>
    </g>
    <g clip-path="url(#pd501230eb8)">
     <use xlink:href="#C0_0_ed4829f59d" x="57.821686" y="67.260264" style="fill: #ff8c00; fill-opacity: 0.8"/>
    </g>
    <g clip-path="url(#pd501230eb8)">
     <use xlink:href="#C0_0_ed4829f59d" x="119.505461" y="83.846075" style="fill: #ff8c00; fill-opacity: 0.8"/>
    </g>
    <g clip-path="url(#pd501230eb8)">
     <use xlink:href="#C0_0_ed4829f59d" x="59.403321" y="83.846075" style="fill: #ff8c00; fill-opacity: 0.8"/>
    </g>
    <g clip-path="url(#pd501230eb8)">
     <use xlink:href="#C0_0_ed4829f59d" x="73.638039" y="83.846075" style="fill: #ff8c00; fill-opacity: 0.8"/>
    </g>
    <g clip-path="url(#pd501230eb8)">
     <use xlink:href="#C0_0_ed4829f59d" x="144.811625" y="58.967358" style="fill: #ff8c00; fill-opacity: 0.8"/>
    </g>
    <g clip-path="url(#pd501230eb8)">
     <use xlink:href="#C0_0_ed4829f59d" x="110.015649" y="71.406717" style="fill: #ff8c00; fill-opacity: 0.8"/>
    </g>
    <g clip-path="url(#pd501230eb8)">
     <use xlink:href="#C0_0_ed4829f59d" x="48.331875" y="21.649283" style="fill: #ff8c00; fill-opacity: 0.8"/>
    </g>
    <g clip-path="url(#pd501230eb8)">
     <use xlink:href="#C0_0_ed4829f59d" x="136.903449" y="63.113811" style="fill: #ff8c00; fill-opacity: 0.8"/>
    </g>
    <g clip-path="url(#pd501230eb8)">
     <use xlink:href="#C0_0_ed4829f59d" x="110.015649" y="79.699622" style="fill: #ff8c00; fill-opacity: 0.8"/>
    </g>
    <g clip-path="url(#pd501230eb8)">
     <use xlink:href="#C0_0_ed4829f59d" x="94.199297" y="83.846075" style="fill: #ff8c00; fill-opacity: 0.8"/>
    </g>
    <g clip-path="url(#pd501230eb8)">
     <use xlink:href="#C0_0_ed4829f59d" x="38.842063" y="58.967358" style="fill: #ff8c00; fill-opacity: 0.8"/>
    </g>
    <g clip-path="url(#pd501230eb8)">
     <use xlink:href="#C0_0_ed4829f59d" x="113.17892" y="83.846075" style="fill: #ff8c00; fill-opacity: 0.8"/>
    </g>
    <g clip-path="url(#pd501230eb8)">
     <use xlink:href="#C0_0_ed4829f59d" x="108.434014" y="83.846075" style="fill: #ff8c00; fill-opacity: 0.8"/>
    </g>
    <g clip-path="url(#pd501230eb8)">
     <use xlink:href="#C0_0_ed4829f59d" x="91.826844" y="83.846075" style="fill: #ff8c00; fill-opacity: 0.8"/>
    </g>
    <g clip-path="url(#pd501230eb8)">
     <use xlink:href="#C0_0_ed4829f59d" x="103.689108" y="25.795735" style="fill: #ff8c00; fill-opacity: 0.8"/>
    </g>
    <g clip-path="url(#pd501230eb8)">
     <use xlink:href="#C0_0_ed4829f59d" x="40.423698" y="38.235094" style="fill: #ff8c00; fill-opacity: 0.8"/>
    </g>
    <g clip-path="url(#pd501230eb8)">
     <use xlink:href="#C0_0_ed4829f59d" x="103.689108" y="79.699622" style="fill: #ff8c00; fill-opacity: 0.8"/>
    </g>
    <g clip-path="url(#pd501230eb8)">
     <use xlink:href="#C0_0_ed4829f59d" x="99.73502" y="83.846075" style="fill: #ff8c00; fill-opacity: 0.8"/>
    </g>
    <g clip-path="url(#pd501230eb8)">
     <use xlink:href="#C0_0_ed4829f59d" x="90.245209" y="83.846075" style="fill: #ff8c00; fill-opacity: 0.8"/>
    </g>
    <g clip-path="url(#pd501230eb8)">
     <use xlink:href="#C0_0_ed4829f59d" x="90.245209" y="63.113811" style="fill: #ff8c00; fill-opacity: 0.8"/>
    </g>
    <g clip-path="url(#pd501230eb8)">
     <use xlink:href="#C0_0_ed4829f59d" x="50.704328" y="75.55317" style="fill: #ff8c00; fill-opacity: 0.8"/>
    </g>
    <g clip-path="url(#pd501230eb8)">
     <use xlink:href="#C0_0_ed4829f59d" x="95.780932" y="75.55317" style="fill: #ff8c00; fill-opacity: 0.8"/>
    </g>
    <g clip-path="url(#pd501230eb8)">
     <use xlink:href="#C0_0_ed4829f59d" x="63.35741" y="42.381547" style="fill: #ff8c00; fill-opacity: 0.8"/>
    </g>
    <g clip-path="url(#pd501230eb8)">
     <use xlink:href="#C0_0_ed4829f59d" x="98.944203" y="83.846075" style="fill: #ff8c00; fill-opacity: 0.8"/>
    </g>
    <g clip-path="url(#pd501230eb8)">
     <use xlink:href="#C0_0_ed4829f59d" x="76.010492" y="75.55317" style="fill: #ff8c00; fill-opacity: 0.8"/>
    </g>
    <g clip-path="url(#pd501230eb8)">
     <use xlink:href="#C0_0_ed4829f59d" x="66.916089" y="79.699622" style="fill: #ff8c00; fill-opacity: 0.8"/>
    </g>
    <g clip-path="url(#pd501230eb8)">
     <use xlink:href="#C0_0_ed4829f59d" x="68.102315" y="79.699622" style="fill: #ff8c00; fill-opacity: 0.8"/>
    </g>
    <g clip-path="url(#pd501230eb8)">
     <use xlink:href="#C0_0_ed4829f59d" x="58.612504" y="67.260264" style="fill: #ff8c00; fill-opacity: 0.8"/>
    </g>
    <g clip-path="url(#pd501230eb8)">
     <use xlink:href="#C0_0_ed4829f59d" x="94.199297" y="67.260264" style="fill: #ff8c00; fill-opacity: 0.8"/>
    </g>
    <g clip-path="url(#pd501230eb8)">
     <use xlink:href="#C0_0_ed4829f59d" x="97.362567" y="79.699622" style="fill: #ff8c00; fill-opacity: 0.8"/>
    </g>
    <g clip-path="url(#pd501230eb8)">
     <use xlink:href="#C0_0_ed4829f59d" x="106.852379" y="83.846075" style="fill: #ff8c00; fill-opacity: 0.8"/>
    </g>
    <g clip-path="url(#pd501230eb8)">
     <use xlink:href="#C0_0_ed4829f59d" x="60.194139" y="17.50283" style="fill: #ff8c00; fill-opacity: 0.8"/>
    </g>
    <g clip-path="url(#pd501230eb8)">
     <use xlink:href="#C0_0_ed4829f59d" x="91.826844" y="71.406717" style="fill: #ff8c00; fill-opacity: 0.8"/>
    </g>
    <g clip-path="url(#pd501230eb8)">
     <use xlink:href="#C0_0_ed4829f59d" x="120.296279" y="79.699622" style="fill: #ff8c00; fill-opacity: 0.8"/>
    </g>
    <g clip-path="url(#pd501230eb8)">
     <use xlink:href="#C0_0_ed4829f59d" x="30.933887" y="71.406717" style="fill: #ff8c00; fill-opacity: 0.8"/>
    </g>
    <g clip-path="url(#pd501230eb8)">
     <use xlink:href="#C0_0_ed4829f59d" x="66.52068" y="75.55317" style="fill: #ff8c00; fill-opacity: 0.8"/>
    </g>
    <g clip-path="url(#pd501230eb8)">
     <use xlink:href="#C0_0_ed4829f59d" x="86.291121" y="83.846075" style="fill: #ff8c00; fill-opacity: 0.8"/>
    </g>
    <g clip-path="url(#pd501230eb8)">
     <use xlink:href="#C0_0_ed4829f59d" x="64.939045" y="38.235094" style="fill: #ff8c00; fill-opacity: 0.8"/>
    </g>
    <g clip-path="url(#pd501230eb8)">
     <use xlink:href="#C0_0_ed4829f59d" x="61.775774" y="13.356377" style="fill: #ff8c00; fill-opacity: 0.8"/>
    </g>
    <g clip-path="url(#pd501230eb8)">
     <use xlink:href="#C0_0_ed4829f59d" x="96.57175" y="9.209924" style="fill: #ff8c00; fill-opacity: 0.8"/>
    </g>
    <g clip-path="url(#pd501230eb8)">
     <use xlink:href="#C0_0_ed4829f59d" x="77.592127" y="83.846075" style="fill: #ff8c00; fill-opacity: 0.8"/>
    </g>
    <g clip-path="url(#pd501230eb8)">
     <use xlink:href="#C0_0_ed4829f59d" x="90.245209" y="63.113811" style="fill: #ff8c00; fill-opacity: 0.8"/>
    </g>
    <g clip-path="url(#pd501230eb8)">
     <use xlink:href="#C0_0_ed4829f59d" x="102.898291" y="79.699622" style="fill: #ff8c00; fill-opacity: 0.8"/>
    </g>
    <g clip-path="url(#pd501230eb8)">
     <use xlink:href="#C0_0_ed4829f59d" x="81.546215" y="83.846075" style="fill: #ff8c00; fill-opacity: 0.8"/>
    </g>
    <g clip-path="url(#pd501230eb8)">
     <use xlink:href="#C0_0_ed4829f59d" x="99.73502" y="46.528" style="fill: #ff8c00; fill-opacity: 0.8"/>
    </g>
    <g clip-path="url(#pd501230eb8)">
     <use xlink:href="#C0_0_ed4829f59d" x="58.612504" y="79.699622" style="fill: #ff8c00; fill-opacity: 0.8"/>
    </g>
    <g clip-path="url(#pd501230eb8)">
     <use xlink:href="#C0_0_ed4829f59d" x="117.923826" y="67.260264" style="fill: #ff8c00; fill-opacity: 0.8"/>
    </g>
    <g clip-path="url(#pd501230eb8)">
     <use xlink:href="#C0_0_ed4829f59d" x="95.780932" y="58.967358" style="fill: #ff8c00; fill-opacity: 0.8"/>
    </g>
    <g clip-path="url(#pd501230eb8)">
     <use xlink:href="#C0_0_ed4829f59d" x="76.801309" y="79.699622" style="fill: #ff8c00; fill-opacity: 0.8"/>
    </g>
    <g clip-path="url(#pd501230eb8)">
     <use xlink:href="#C0_0_ed4829f59d" x="127.413637" y="75.55317" style="fill: #ff8c00; fill-opacity: 0.8"/>
    </g>
    <g clip-path="url(#pd501230eb8)">
     <use xlink:href="#C0_0_ed4829f59d" x="96.967159" y="75.55317" style="fill: #ff8c00; fill-opacity: 0.8"/>
    </g>
    <g clip-path="url(#pd501230eb8)">
     <use xlink:href="#C0_0_ed4829f59d" x="71.265586" y="79.699622" style="fill: #ff8c00; fill-opacity: 0.8"/>
    </g>
    <g clip-path="url(#pd501230eb8)">
     <use xlink:href="#C0_0_ed4829f59d" x="139.275902" y="83.846075" style="fill: #ff8c00; fill-opacity: 0.8"/>
    </g>
    <g clip-path="url(#pd501230eb8)">
     <use xlink:href="#C0_0_ed4829f59d" x="76.801309" y="83.846075" style="fill: #ff8c00; fill-opacity: 0.8"/>
    </g>
    <g clip-path="url(#pd501230eb8)">
     <use xlink:href="#C0_0_ed4829f59d" x="133.740178" y="58.967358" style="fill: #ff8c00; fill-opacity: 0.8"/>
    </g>
    <g clip-path="url(#pd501230eb8)">
     <use xlink:href="#C0_0_ed4829f59d" x="93.408479" y="75.55317" style="fill: #ff8c00; fill-opacity: 0.8"/>
    </g>
    <g clip-path="url(#pd501230eb8)">
     <use xlink:href="#C0_0_ed4829f59d" x="68.102315" y="83.846075" style="fill: #ff8c00; fill-opacity: 0.8"/>
    </g>
    <g clip-path="url(#pd501230eb8)">
     <use xlink:href="#C0_0_ed4829f59d" x="59.403321" y="75.55317" style="fill: #ff8c00; fill-opacity: 0.8"/>
    </g>
    <g clip-path="url(#pd501230eb8)">
     <use xlink:href="#C0_0_ed4829f59d" x="86.291121" y="83.846075" style="fill: #ff8c00; fill-opacity: 0.8"/>
    </g>
    <g clip-path="url(#pd501230eb8)">
     <use xlink:href="#C0_0_ed4829f59d" x="69.288542" y="67.260264" style="fill: #ff8c00; fill-opacity: 0.8"/>
    </g>
    <g clip-path="url(#pd501230eb8)">
     <use xlink:href="#C0_0_ed4829f59d" x="54.658416" y="71.406717" style="fill: #ff8c00; fill-opacity: 0.8"/>
    </g>
    <g clip-path="url(#pd501230eb8)">
     <use xlink:href="#C0_0_ed4829f59d" x="91.036026" y="79.699622" style="fill: #ff8c00; fill-opacity: 0.8"/>
    </g>
    <g clip-path="url(#pd501230eb8)">
     <use xlink:href="#C0_0_ed4829f59d" x="50.704328" y="54.820905" style="fill: #ff8c00; fill-opacity: 0.8"/>
    </g>
    <g clip-path="url(#pd501230eb8)">
     <use xlink:href="#C0_0_ed4829f59d" x="97.362567" y="71.406717" style="fill: #ff8c00; fill-opacity: 0.8"/>
    </g>
    <g clip-path="url(#pd501230eb8)">
     <use xlink:href="#C0_0_ed4829f59d" x="54.658416" y="63.113811" style="fill: #ff8c00; fill-opacity: 0.8"/>
    </g>
    <g clip-path="url(#pd501230eb8)">
     <use xlink:href="#C0_0_ed4829f59d" x="49.91351" y="50.674452" style="fill: #ff8c00; fill-opacity: 0.8"/>
    </g>
    <g clip-path="url(#pd501230eb8)">
     <use xlink:href="#C0_0_ed4829f59d" x="106.852379" y="79.699622" style="fill: #ff8c00; fill-opacity: 0.8"/>
    </g>
    <g clip-path="url(#pd501230eb8)">
     <use xlink:href="#C0_0_ed4829f59d" x="99.339611" y="75.55317" style="fill: #ff8c00; fill-opacity: 0.8"/>
    </g>
    <g clip-path="url(#pd501230eb8)">
     <use xlink:href="#C0_0_ed4829f59d" x="44.377787" y="75.55317" style="fill: #ff8c00; fill-opacity: 0.8"/>
    </g>
    <g clip-path="url(#pd501230eb8)">
     <use xlink:href="#C0_0_ed4829f59d" x="51.099736" y="83.846075" style="fill: #ff8c00; fill-opacity: 0.8"/>
    </g>
    <g clip-path="url(#pd501230eb8)">
     <use xlink:href="#C0_0_ed4829f59d" x="83.918668" y="79.699622" style="fill: #ff8c00; fill-opacity: 0.8"/>
    </g>
    <g clip-path="url(#pd501230eb8)">
     <use xlink:href="#C0_0_ed4829f59d" x="99.73502" y="34.088641" style="fill: #ff8c00; fill-opacity: 0.8"/>
    </g>
    <g clip-path="url(#pd501230eb8)">
     <use xlink:href="#C0_0_ed4829f59d" x="83.12785" y="79.699622" style="fill: #ff8c00; fill-opacity: 0.8"/>
    </g>
    <g clip-path="url(#pd501230eb8)">
     <use xlink:href="#C0_0_ed4829f59d" x="85.500303" y="67.260264" style="fill: #ff8c00; fill-opacity: 0.8"/>
    </g>
    <g clip-path="url(#pd501230eb8)">
     <use xlink:href="#C0_0_ed4829f59d" x="88.663574" y="71.406717" style="fill: #ff8c00; fill-opacity: 0.8"/>
    </g>
    <g clip-path="url(#pd501230eb8)">
     <use xlink:href="#C0_0_ed4829f59d" x="81.546215" y="79.699622" style="fill: #ff8c00; fill-opacity: 0.8"/>
    </g>
    <g clip-path="url(#pd501230eb8)">
     <use xlink:href="#C0_0_ed4829f59d" x="102.898291" y="83.846075" style="fill: #ff8c00; fill-opacity: 0.8"/>
    </g>
    <g clip-path="url(#pd501230eb8)">
     <use xlink:href="#C0_0_ed4829f59d" x="94.594706" y="83.846075" style="fill: #ff8c00; fill-opacity: 0.8"/>
    </g>
    <g clip-path="url(#pd501230eb8)">
     <use xlink:href="#C0_0_ed4829f59d" x="94.199297" y="83.846075" style="fill: #ff8c00; fill-opacity: 0.8"/>
    </g>
    <g clip-path="url(#pd501230eb8)">
     <use xlink:href="#C0_0_ed4829f59d" x="117.133008" y="75.55317" style="fill: #ff8c00; fill-opacity: 0.8"/>
    </g>
    <g clip-path="url(#pd501230eb8)">
     <use xlink:href="#C0_0_ed4829f59d" x="62.566592" y="79.699622" style="fill: #ff8c00; fill-opacity: 0.8"/>
    </g>
    <g clip-path="url(#pd501230eb8)">
     <use xlink:href="#C0_0_ed4829f59d" x="97.362567" y="67.260264" style="fill: #ff8c00; fill-opacity: 0.8"/>
    </g>
   </g>
   <g id="PolyCollection_1">
    <path d="M 30.933887 55.390096 
L 30.933887 73.447295 
L 32.084167 73.434635 
L 33.234447 73.401819 
L 34.384727 73.367146 
L 35.535008 73.349312 
L 36.685288 73.352977 
L 37.835568 73.337412 
L 38.985848 73.310062 
L 40.136128 73.292224 
L 41.286409 73.259368 
L 42.436689 73.219306 
L 43.586969 73.192789 
L 44.737249 73.184997 
L 45.887529 73.165923 
L 47.037809 73.158617 
L 48.18809 73.137101 
L 49.33837 73.128149 
L 50.48865 73.092273 
L 51.63893 73.096972 
L 52.78921 73.083888 
L 53.939491 73.08608 
L 55.089771 73.080446 
L 56.240051 73.064399 
L 57.390331 73.053543 
L 58.540611 73.049375 
L 59.690891 73.002099 
L 60.841172 73.014435 
L 61.991452 73.011378 
L 63.141732 73.030482 
L 64.292012 73.022251 
L 65.442292 73.015638 
L 66.592573 73.024638 
L 67.742853 73.019582 
L 68.893133 73.011818 
L 70.043413 73.006955 
L 71.193693 73.022779 
L 72.343973 73.052246 
L 73.494254 73.071936 
L 74.644534 73.105013 
L 75.794814 73.129711 
L 76.945094 73.183235 
L 78.095374 73.195997 
L 79.245655 73.228483 
L 80.395935 73.276939 
L 81.546215 73.345177 
L 82.696495 73.408482 
L 83.846775 73.494263 
L 84.997055 73.590423 
L 86.147336 73.673311 
L 87.297616 73.771102 
L 88.447896 73.874538 
L 89.598176 73.980531 
L 90.748456 74.111084 
L 91.898737 74.265958 
L 93.049017 74.413588 
L 94.199297 74.568449 
L 95.349577 74.714453 
L 96.499857 74.87951 
L 97.650137 75.058001 
L 98.800418 75.231324 
L 99.950698 75.407187 
L 101.100978 75.621168 
L 102.251258 75.813861 
L 103.401538 76.035508 
L 104.551819 76.260779 
L 105.702099 76.494854 
L 106.852379 76.715566 
L 108.002659 76.934856 
L 109.152939 77.162458 
L 110.303219 77.407476 
L 111.4535 77.636176 
L 112.60378 77.884917 
L 113.75406 78.131425 
L 114.90434 78.376122 
L 116.05462 78.638624 
L 117.204901 78.877403 
L 118.355181 79.136381 
L 119.505461 79.408857 
L 120.655741 79.679996 
L 121.806021 79.961714 
L 122.956301 80.229682 
L 124.106582 80.472045 
L 125.256862 80.709524 
L 126.407142 80.999937 
L 127.557422 81.271119 
L 128.707702 81.557111 
L 129.857983 81.818066 
L 131.008263 82.070579 
L 132.158543 82.352586 
L 133.308823 82.616633 
L 134.459103 82.900586 
L 135.609383 83.180676 
L 136.759664 83.434484 
L 137.909944 83.725166 
L 139.060224 84.01098 
L 140.210504 84.29286 
L 141.360784 84.569715 
L 142.511065 84.858224 
L 143.661345 85.132766 
L 144.811625 85.408403 
L 144.811625 68.426262 
L 144.811625 68.426262 
L 143.661345 68.435323 
L 142.511065 68.451771 
L 141.360784 68.5098 
L 140.210504 68.544027 
L 139.060224 68.547334 
L 137.909944 68.533425 
L 136.759664 68.561167 
L 135.609383 68.595373 
L 134.459103 68.618862 
L 133.308823 68.638592 
L 132.158543 68.643156 
L 131.008263 68.652693 
L 129.857983 68.679036 
L 128.707702 68.679476 
L 127.557422 68.687111 
L 126.407142 68.693018 
L 125.256862 68.691999 
L 124.106582 68.685731 
L 122.956301 68.675009 
L 121.806021 68.684923 
L 120.655741 68.673487 
L 119.505461 68.663169 
L 118.355181 68.664887 
L 117.204901 68.679516 
L 116.05462 68.66005 
L 114.90434 68.659171 
L 113.75406 68.651237 
L 112.60378 68.657719 
L 111.4535 68.635942 
L 110.303219 68.601662 
L 109.152939 68.598576 
L 108.002659 68.587221 
L 106.852379 68.538937 
L 105.702099 68.504408 
L 104.551819 68.454647 
L 103.401538 68.411163 
L 102.251258 68.365717 
L 101.100978 68.323394 
L 99.950698 68.252479 
L 98.800418 68.176616 
L 97.650137 68.120959 
L 96.499857 68.0287 
L 95.349577 67.955342 
L 94.199297 67.858923 
L 93.049017 67.740374 
L 91.898737 67.606219 
L 90.748456 67.491865 
L 89.598176 67.379571 
L 88.447896 67.254066 
L 87.297616 67.098132 
L 86.147336 66.970489 
L 84.997055 66.810654 
L 83.846775 66.642614 
L 82.696495 66.483508 
L 81.546215 66.303206 
L 80.395935 66.129118 
L 79.245655 65.943009 
L 78.095374 65.749048 
L 76.945094 65.545172 
L 75.794814 65.338546 
L 74.644534 65.124676 
L 73.494254 64.93434 
L 72.343973 64.723151 
L 71.193693 64.482472 
L 70.043413 64.261718 
L 68.893133 64.050211 
L 67.742853 63.840372 
L 66.592573 63.620159 
L 65.442292 63.382601 
L 64.292012 63.167338 
L 63.141732 62.917764 
L 61.991452 62.64434 
L 60.841172 62.393741 
L 59.690891 62.139705 
L 58.540611 61.875222 
L 57.390331 61.604569 
L 56.240051 61.352279 
L 55.089771 61.099371 
L 53.939491 60.829525 
L 52.78921 60.573862 
L 51.63893 60.29969 
L 50.48865 60.030982 
L 49.33837 59.780743 
L 48.18809 59.523676 
L 47.037809 59.267564 
L 45.887529 59.00634 
L 44.737249 58.745359 
L 43.586969 58.478006 
L 42.436689 58.194902 
L 41.286409 57.93128 
L 40.136128 57.666853 
L 38.985848 57.401619 
L 37.835568 57.107559 
L 36.685288 56.811097 
L 35.535008 56.517968 
L 34.384727 56.218426 
L 33.234447 55.951783 
L 32.084167 55.664208 
L 30.933887 55.390096 
z
" clip-path="url(#pd501230eb8)" style="fill: #ff8c00; fill-opacity: 0.15"/>
   </g>
   <g id="matplotlib.axis_1">
    <g id="xtick_1">
     <g id="line2d_1">
      <defs>
       <path id="m86c5f1f4e2" d="M 0 0 
L 0 3.5 
" style="stroke: #000000; stroke-width: 0.25"/>
      </defs>
      <g>
       <use xlink:href="#m86c5f1f4e2" x="28.561434" y="89.218327" style="stroke: #000000; stroke-width: 0.25"/>
      </g>
     </g>
     <g id="text_1">
      <!-- 600 -->
      <g transform="translate(24.390731 97.297233) scale(0.05 -0.05)">
       <defs>
        <path id="ArialMT-36" d="M 3184 3459 
L 2625 3416 
Q 2550 3747 2413 3897 
Q 2184 4138 1850 4138 
Q 1581 4138 1378 3988 
Q 1113 3794 959 3422 
Q 806 3050 800 2363 
Q 1003 2672 1297 2822 
Q 1591 2972 1913 2972 
Q 2475 2972 2870 2558 
Q 3266 2144 3266 1488 
Q 3266 1056 3080 686 
Q 2894 316 2569 119 
Q 2244 -78 1831 -78 
Q 1128 -78 684 439 
Q 241 956 241 2144 
Q 241 3472 731 4075 
Q 1159 4600 1884 4600 
Q 2425 4600 2770 4297 
Q 3116 3994 3184 3459 
z
M 888 1484 
Q 888 1194 1011 928 
Q 1134 663 1356 523 
Q 1578 384 1822 384 
Q 2178 384 2434 671 
Q 2691 959 2691 1453 
Q 2691 1928 2437 2201 
Q 2184 2475 1800 2475 
Q 1419 2475 1153 2201 
Q 888 1928 888 1484 
z
" transform="scale(0.015625)"/>
        <path id="ArialMT-30" d="M 266 2259 
Q 266 3072 433 3567 
Q 600 4063 929 4331 
Q 1259 4600 1759 4600 
Q 2128 4600 2406 4451 
Q 2684 4303 2865 4023 
Q 3047 3744 3150 3342 
Q 3253 2941 3253 2259 
Q 3253 1453 3087 958 
Q 2922 463 2592 192 
Q 2263 -78 1759 -78 
Q 1097 -78 719 397 
Q 266 969 266 2259 
z
M 844 2259 
Q 844 1131 1108 757 
Q 1372 384 1759 384 
Q 2147 384 2411 759 
Q 2675 1134 2675 2259 
Q 2675 3391 2411 3762 
Q 2147 4134 1753 4134 
Q 1366 4134 1134 3806 
Q 844 3388 844 2259 
z
" transform="scale(0.015625)"/>
       </defs>
       <use xlink:href="#ArialMT-36"/>
       <use xlink:href="#ArialMT-30" x="55.615234"/>
       <use xlink:href="#ArialMT-30" x="111.230469"/>
      </g>
     </g>
    </g>
    <g id="xtick_2">
     <g id="line2d_2">
      <g>
       <use xlink:href="#m86c5f1f4e2" x="44.377787" y="89.218327" style="stroke: #000000; stroke-width: 0.25"/>
      </g>
     </g>
     <g id="text_2">
      <!-- 800 -->
      <g transform="translate(40.207083 97.297233) scale(0.05 -0.05)">
       <defs>
        <path id="ArialMT-38" d="M 1131 2484 
Q 781 2613 612 2850 
Q 444 3088 444 3419 
Q 444 3919 803 4259 
Q 1163 4600 1759 4600 
Q 2359 4600 2725 4251 
Q 3091 3903 3091 3403 
Q 3091 3084 2923 2848 
Q 2756 2613 2416 2484 
Q 2838 2347 3058 2040 
Q 3278 1734 3278 1309 
Q 3278 722 2862 322 
Q 2447 -78 1769 -78 
Q 1091 -78 675 323 
Q 259 725 259 1325 
Q 259 1772 486 2073 
Q 713 2375 1131 2484 
z
M 1019 3438 
Q 1019 3113 1228 2906 
Q 1438 2700 1772 2700 
Q 2097 2700 2305 2904 
Q 2513 3109 2513 3406 
Q 2513 3716 2298 3927 
Q 2084 4138 1766 4138 
Q 1444 4138 1231 3931 
Q 1019 3725 1019 3438 
z
M 838 1322 
Q 838 1081 952 856 
Q 1066 631 1291 507 
Q 1516 384 1775 384 
Q 2178 384 2440 643 
Q 2703 903 2703 1303 
Q 2703 1709 2433 1975 
Q 2163 2241 1756 2241 
Q 1359 2241 1098 1978 
Q 838 1716 838 1322 
z
" transform="scale(0.015625)"/>
       </defs>
       <use xlink:href="#ArialMT-38"/>
       <use xlink:href="#ArialMT-30" x="55.615234"/>
       <use xlink:href="#ArialMT-30" x="111.230469"/>
      </g>
     </g>
    </g>
    <g id="xtick_3">
     <g id="line2d_3">
      <g>
       <use xlink:href="#m86c5f1f4e2" x="60.194139" y="89.218327" style="stroke: #000000; stroke-width: 0.25"/>
      </g>
     </g>
     <g id="text_3">
      <!-- 1000 -->
      <g transform="translate(54.633202 97.297233) scale(0.05 -0.05)">
       <defs>
        <path id="ArialMT-31" d="M 2384 0 
L 1822 0 
L 1822 3584 
Q 1619 3391 1289 3197 
Q 959 3003 697 2906 
L 697 3450 
Q 1169 3672 1522 3987 
Q 1875 4303 2022 4600 
L 2384 4600 
L 2384 0 
z
" transform="scale(0.015625)"/>
       </defs>
       <use xlink:href="#ArialMT-31"/>
       <use xlink:href="#ArialMT-30" x="55.615234"/>
       <use xlink:href="#ArialMT-30" x="111.230469"/>
       <use xlink:href="#ArialMT-30" x="166.845703"/>
      </g>
     </g>
    </g>
    <g id="xtick_4">
     <g id="line2d_4">
      <g>
       <use xlink:href="#m86c5f1f4e2" x="76.010492" y="89.218327" style="stroke: #000000; stroke-width: 0.25"/>
      </g>
     </g>
     <g id="text_4">
      <!-- 1200 -->
      <g transform="translate(70.449554 97.297233) scale(0.05 -0.05)">
       <defs>
        <path id="ArialMT-32" d="M 3222 541 
L 3222 0 
L 194 0 
Q 188 203 259 391 
Q 375 700 629 1000 
Q 884 1300 1366 1694 
Q 2113 2306 2375 2664 
Q 2638 3022 2638 3341 
Q 2638 3675 2398 3904 
Q 2159 4134 1775 4134 
Q 1369 4134 1125 3890 
Q 881 3647 878 3216 
L 300 3275 
Q 359 3922 746 4261 
Q 1134 4600 1788 4600 
Q 2447 4600 2831 4234 
Q 3216 3869 3216 3328 
Q 3216 3053 3103 2787 
Q 2991 2522 2730 2228 
Q 2469 1934 1863 1422 
Q 1356 997 1212 845 
Q 1069 694 975 541 
L 3222 541 
z
" transform="scale(0.015625)"/>
       </defs>
       <use xlink:href="#ArialMT-31"/>
       <use xlink:href="#ArialMT-32" x="55.615234"/>
       <use xlink:href="#ArialMT-30" x="111.230469"/>
       <use xlink:href="#ArialMT-30" x="166.845703"/>
      </g>
     </g>
    </g>
    <g id="xtick_5">
     <g id="line2d_5">
      <g>
       <use xlink:href="#m86c5f1f4e2" x="91.826844" y="89.218327" style="stroke: #000000; stroke-width: 0.25"/>
      </g>
     </g>
     <g id="text_5">
      <!-- 1400 -->
      <g transform="translate(86.265907 97.297233) scale(0.05 -0.05)">
       <defs>
        <path id="ArialMT-34" d="M 2069 0 
L 2069 1097 
L 81 1097 
L 81 1613 
L 2172 4581 
L 2631 4581 
L 2631 1613 
L 3250 1613 
L 3250 1097 
L 2631 1097 
L 2631 0 
L 2069 0 
z
M 2069 1613 
L 2069 3678 
L 634 1613 
L 2069 1613 
z
" transform="scale(0.015625)"/>
       </defs>
       <use xlink:href="#ArialMT-31"/>
       <use xlink:href="#ArialMT-34" x="55.615234"/>
       <use xlink:href="#ArialMT-30" x="111.230469"/>
       <use xlink:href="#ArialMT-30" x="166.845703"/>
      </g>
     </g>
    </g>
    <g id="xtick_6">
     <g id="line2d_6">
      <g>
       <use xlink:href="#m86c5f1f4e2" x="107.643197" y="89.218327" style="stroke: #000000; stroke-width: 0.25"/>
      </g>
     </g>
     <g id="text_6">
      <!-- 1600 -->
      <g transform="translate(102.082259 97.297233) scale(0.05 -0.05)">
       <use xlink:href="#ArialMT-31"/>
       <use xlink:href="#ArialMT-36" x="55.615234"/>
       <use xlink:href="#ArialMT-30" x="111.230469"/>
       <use xlink:href="#ArialMT-30" x="166.845703"/>
      </g>
     </g>
    </g>
    <g id="xtick_7">
     <g id="line2d_7">
      <g>
       <use xlink:href="#m86c5f1f4e2" x="123.459549" y="89.218327" style="stroke: #000000; stroke-width: 0.25"/>
      </g>
     </g>
     <g id="text_7">
      <!-- 1800 -->
      <g transform="translate(117.898612 97.297233) scale(0.05 -0.05)">
       <use xlink:href="#ArialMT-31"/>
       <use xlink:href="#ArialMT-38" x="55.615234"/>
       <use xlink:href="#ArialMT-30" x="111.230469"/>
       <use xlink:href="#ArialMT-30" x="166.845703"/>
      </g>
     </g>
    </g>
    <g id="xtick_8">
     <g id="line2d_8">
      <g>
       <use xlink:href="#m86c5f1f4e2" x="139.275902" y="89.218327" style="stroke: #000000; stroke-width: 0.25"/>
      </g>
     </g>
     <g id="text_8">
      <!-- 2000 -->
      <g transform="translate(133.714964 97.297233) scale(0.05 -0.05)">
       <use xlink:href="#ArialMT-32"/>
       <use xlink:href="#ArialMT-30" x="55.615234"/>
       <use xlink:href="#ArialMT-30" x="111.230469"/>
       <use xlink:href="#ArialMT-30" x="166.845703"/>
      </g>
     </g>
    </g>
    <g id="text_9">
     <!-- Birth weight [g] -->
     <g transform="translate(68.031037 106.585671) scale(0.06 -0.06)">
      <defs>
       <path id="ArialMT-42" d="M 469 0 
L 469 4581 
L 2188 4581 
Q 2713 4581 3030 4442 
Q 3347 4303 3526 4014 
Q 3706 3725 3706 3409 
Q 3706 3116 3547 2856 
Q 3388 2597 3066 2438 
Q 3481 2316 3704 2022 
Q 3928 1728 3928 1328 
Q 3928 1006 3792 729 
Q 3656 453 3456 303 
Q 3256 153 2954 76 
Q 2653 0 2216 0 
L 469 0 
z
M 1075 2656 
L 2066 2656 
Q 2469 2656 2644 2709 
Q 2875 2778 2992 2937 
Q 3109 3097 3109 3338 
Q 3109 3566 3000 3739 
Q 2891 3913 2687 3977 
Q 2484 4041 1991 4041 
L 1075 4041 
L 1075 2656 
z
M 1075 541 
L 2216 541 
Q 2509 541 2628 563 
Q 2838 600 2978 687 
Q 3119 775 3209 942 
Q 3300 1109 3300 1328 
Q 3300 1584 3169 1773 
Q 3038 1963 2805 2039 
Q 2572 2116 2134 2116 
L 1075 2116 
L 1075 541 
z
" transform="scale(0.015625)"/>
       <path id="ArialMT-69" d="M 425 3934 
L 425 4581 
L 988 4581 
L 988 3934 
L 425 3934 
z
M 425 0 
L 425 3319 
L 988 3319 
L 988 0 
L 425 0 
z
" transform="scale(0.015625)"/>
       <path id="ArialMT-72" d="M 416 0 
L 416 3319 
L 922 3319 
L 922 2816 
Q 1116 3169 1280 3281 
Q 1444 3394 1641 3394 
Q 1925 3394 2219 3213 
L 2025 2691 
Q 1819 2813 1613 2813 
Q 1428 2813 1281 2702 
Q 1134 2591 1072 2394 
Q 978 2094 978 1738 
L 978 0 
L 416 0 
z
" transform="scale(0.015625)"/>
       <path id="ArialMT-74" d="M 1650 503 
L 1731 6 
Q 1494 -44 1306 -44 
Q 1000 -44 831 53 
Q 663 150 594 308 
Q 525 466 525 972 
L 525 2881 
L 113 2881 
L 113 3319 
L 525 3319 
L 525 4141 
L 1084 4478 
L 1084 3319 
L 1650 3319 
L 1650 2881 
L 1084 2881 
L 1084 941 
Q 1084 700 1114 631 
Q 1144 563 1211 522 
Q 1278 481 1403 481 
Q 1497 481 1650 503 
z
" transform="scale(0.015625)"/>
       <path id="ArialMT-68" d="M 422 0 
L 422 4581 
L 984 4581 
L 984 2938 
Q 1378 3394 1978 3394 
Q 2347 3394 2619 3248 
Q 2891 3103 3008 2847 
Q 3125 2591 3125 2103 
L 3125 0 
L 2563 0 
L 2563 2103 
Q 2563 2525 2380 2717 
Q 2197 2909 1863 2909 
Q 1613 2909 1392 2779 
Q 1172 2650 1078 2428 
Q 984 2206 984 1816 
L 984 0 
L 422 0 
z
" transform="scale(0.015625)"/>
       <path id="ArialMT-20" transform="scale(0.015625)"/>
       <path id="ArialMT-77" d="M 1034 0 
L 19 3319 
L 600 3319 
L 1128 1403 
L 1325 691 
Q 1338 744 1497 1375 
L 2025 3319 
L 2603 3319 
L 3100 1394 
L 3266 759 
L 3456 1400 
L 4025 3319 
L 4572 3319 
L 3534 0 
L 2950 0 
L 2422 1988 
L 2294 2553 
L 1622 0 
L 1034 0 
z
" transform="scale(0.015625)"/>
       <path id="ArialMT-65" d="M 2694 1069 
L 3275 997 
Q 3138 488 2766 206 
Q 2394 -75 1816 -75 
Q 1088 -75 661 373 
Q 234 822 234 1631 
Q 234 2469 665 2931 
Q 1097 3394 1784 3394 
Q 2450 3394 2872 2941 
Q 3294 2488 3294 1666 
Q 3294 1616 3291 1516 
L 816 1516 
Q 847 969 1125 678 
Q 1403 388 1819 388 
Q 2128 388 2347 550 
Q 2566 713 2694 1069 
z
M 847 1978 
L 2700 1978 
Q 2663 2397 2488 2606 
Q 2219 2931 1791 2931 
Q 1403 2931 1139 2672 
Q 875 2413 847 1978 
z
" transform="scale(0.015625)"/>
       <path id="ArialMT-67" d="M 319 -275 
L 866 -356 
Q 900 -609 1056 -725 
Q 1266 -881 1628 -881 
Q 2019 -881 2231 -725 
Q 2444 -569 2519 -288 
Q 2563 -116 2559 434 
Q 2191 0 1641 0 
Q 956 0 581 494 
Q 206 988 206 1678 
Q 206 2153 378 2554 
Q 550 2956 876 3175 
Q 1203 3394 1644 3394 
Q 2231 3394 2613 2919 
L 2613 3319 
L 3131 3319 
L 3131 450 
Q 3131 -325 2973 -648 
Q 2816 -972 2473 -1159 
Q 2131 -1347 1631 -1347 
Q 1038 -1347 672 -1080 
Q 306 -813 319 -275 
z
M 784 1719 
Q 784 1066 1043 766 
Q 1303 466 1694 466 
Q 2081 466 2343 764 
Q 2606 1063 2606 1700 
Q 2606 2309 2336 2618 
Q 2066 2928 1684 2928 
Q 1309 2928 1046 2623 
Q 784 2319 784 1719 
z
" transform="scale(0.015625)"/>
       <path id="ArialMT-5b" d="M 434 -1272 
L 434 4581 
L 1675 4581 
L 1675 4116 
L 997 4116 
L 997 -806 
L 1675 -806 
L 1675 -1272 
L 434 -1272 
z
" transform="scale(0.015625)"/>
       <path id="ArialMT-5d" d="M 1363 -1272 
L 122 -1272 
L 122 -806 
L 800 -806 
L 800 4116 
L 122 4116 
L 122 4581 
L 1363 4581 
L 1363 -1272 
z
" transform="scale(0.015625)"/>
      </defs>
      <use xlink:href="#ArialMT-42"/>
      <use xlink:href="#ArialMT-69" x="66.699219"/>
      <use xlink:href="#ArialMT-72" x="88.916016"/>
      <use xlink:href="#ArialMT-74" x="122.216797"/>
      <use xlink:href="#ArialMT-68" x="150"/>
      <use xlink:href="#ArialMT-20" x="205.615234"/>
      <use xlink:href="#ArialMT-77" x="233.398438"/>
      <use xlink:href="#ArialMT-65" x="305.615234"/>
      <use xlink:href="#ArialMT-69" x="361.230469"/>
      <use xlink:href="#ArialMT-67" x="383.447266"/>
      <use xlink:href="#ArialMT-68" x="439.0625"/>
      <use xlink:href="#ArialMT-74" x="494.677734"/>
      <use xlink:href="#ArialMT-20" x="522.460938"/>
      <use xlink:href="#ArialMT-5b" x="550.244141"/>
      <use xlink:href="#ArialMT-67" x="578.027344"/>
      <use xlink:href="#ArialMT-5d" x="633.642578"/>
     </g>
    </g>
   </g>
   <g id="matplotlib.axis_2">
    <g id="ytick_1">
     <g id="line2d_9">
      <defs>
       <path id="m982a9f40d5" d="M 0 0 
L -3.5 0 
" style="stroke: #000000; stroke-width: 0.25"/>
      </defs>
      <g>
       <use xlink:href="#m982a9f40d5" x="25.24" y="83.846075" style="stroke: #000000; stroke-width: 0.25"/>
      </g>
     </g>
     <g id="text_10">
      <!-- 0 -->
      <g transform="translate(17.959531 85.635528) scale(0.05 -0.05)">
       <use xlink:href="#ArialMT-30"/>
      </g>
     </g>
    </g>
    <g id="ytick_2">
     <g id="line2d_10">
      <g>
       <use xlink:href="#m982a9f40d5" x="25.24" y="63.113811" style="stroke: #000000; stroke-width: 0.25"/>
      </g>
     </g>
     <g id="text_11">
      <!-- 5 -->
      <g transform="translate(17.959531 64.903264) scale(0.05 -0.05)">
       <defs>
        <path id="ArialMT-35" d="M 266 1200 
L 856 1250 
Q 922 819 1161 601 
Q 1400 384 1738 384 
Q 2144 384 2425 690 
Q 2706 997 2706 1503 
Q 2706 1984 2436 2262 
Q 2166 2541 1728 2541 
Q 1456 2541 1237 2417 
Q 1019 2294 894 2097 
L 366 2166 
L 809 4519 
L 3088 4519 
L 3088 3981 
L 1259 3981 
L 1013 2750 
Q 1425 3038 1878 3038 
Q 2478 3038 2890 2622 
Q 3303 2206 3303 1553 
Q 3303 931 2941 478 
Q 2500 -78 1738 -78 
Q 1113 -78 717 272 
Q 322 622 266 1200 
z
" transform="scale(0.015625)"/>
       </defs>
       <use xlink:href="#ArialMT-35"/>
      </g>
     </g>
    </g>
    <g id="ytick_3">
     <g id="line2d_11">
      <g>
       <use xlink:href="#m982a9f40d5" x="25.24" y="42.381547" style="stroke: #000000; stroke-width: 0.25"/>
      </g>
     </g>
     <g id="text_12">
      <!-- 10 -->
      <g transform="translate(15.179063 44.171) scale(0.05 -0.05)">
       <use xlink:href="#ArialMT-31"/>
       <use xlink:href="#ArialMT-30" x="55.615234"/>
      </g>
     </g>
    </g>
    <g id="ytick_4">
     <g id="line2d_12">
      <g>
       <use xlink:href="#m982a9f40d5" x="25.24" y="21.649283" style="stroke: #000000; stroke-width: 0.25"/>
      </g>
     </g>
     <g id="text_13">
      <!-- 15 -->
      <g transform="translate(15.179063 23.438736) scale(0.05 -0.05)">
       <use xlink:href="#ArialMT-31"/>
       <use xlink:href="#ArialMT-35" x="55.615234"/>
      </g>
     </g>
    </g>
    <g id="text_14">
     <!-- Number infranormal regions [a.u.] -->
     <g transform="translate(9.91625 91.992288) rotate(-90) scale(0.06 -0.06)">
      <defs>
       <path id="ArialMT-4e" d="M 488 0 
L 488 4581 
L 1109 4581 
L 3516 984 
L 3516 4581 
L 4097 4581 
L 4097 0 
L 3475 0 
L 1069 3600 
L 1069 0 
L 488 0 
z
" transform="scale(0.015625)"/>
       <path id="ArialMT-75" d="M 2597 0 
L 2597 488 
Q 2209 -75 1544 -75 
Q 1250 -75 995 37 
Q 741 150 617 320 
Q 494 491 444 738 
Q 409 903 409 1263 
L 409 3319 
L 972 3319 
L 972 1478 
Q 972 1038 1006 884 
Q 1059 663 1231 536 
Q 1403 409 1656 409 
Q 1909 409 2131 539 
Q 2353 669 2445 892 
Q 2538 1116 2538 1541 
L 2538 3319 
L 3100 3319 
L 3100 0 
L 2597 0 
z
" transform="scale(0.015625)"/>
       <path id="ArialMT-6d" d="M 422 0 
L 422 3319 
L 925 3319 
L 925 2853 
Q 1081 3097 1340 3245 
Q 1600 3394 1931 3394 
Q 2300 3394 2536 3241 
Q 2772 3088 2869 2813 
Q 3263 3394 3894 3394 
Q 4388 3394 4653 3120 
Q 4919 2847 4919 2278 
L 4919 0 
L 4359 0 
L 4359 2091 
Q 4359 2428 4304 2576 
Q 4250 2725 4106 2815 
Q 3963 2906 3769 2906 
Q 3419 2906 3187 2673 
Q 2956 2441 2956 1928 
L 2956 0 
L 2394 0 
L 2394 2156 
Q 2394 2531 2256 2718 
Q 2119 2906 1806 2906 
Q 1569 2906 1367 2781 
Q 1166 2656 1075 2415 
Q 984 2175 984 1722 
L 984 0 
L 422 0 
z
" transform="scale(0.015625)"/>
       <path id="ArialMT-62" d="M 941 0 
L 419 0 
L 419 4581 
L 981 4581 
L 981 2947 
Q 1338 3394 1891 3394 
Q 2197 3394 2470 3270 
Q 2744 3147 2920 2923 
Q 3097 2700 3197 2384 
Q 3297 2069 3297 1709 
Q 3297 856 2875 390 
Q 2453 -75 1863 -75 
Q 1275 -75 941 416 
L 941 0 
z
M 934 1684 
Q 934 1088 1097 822 
Q 1363 388 1816 388 
Q 2184 388 2453 708 
Q 2722 1028 2722 1663 
Q 2722 2313 2464 2622 
Q 2206 2931 1841 2931 
Q 1472 2931 1203 2611 
Q 934 2291 934 1684 
z
" transform="scale(0.015625)"/>
       <path id="ArialMT-6e" d="M 422 0 
L 422 3319 
L 928 3319 
L 928 2847 
Q 1294 3394 1984 3394 
Q 2284 3394 2536 3286 
Q 2788 3178 2913 3003 
Q 3038 2828 3088 2588 
Q 3119 2431 3119 2041 
L 3119 0 
L 2556 0 
L 2556 2019 
Q 2556 2363 2490 2533 
Q 2425 2703 2258 2804 
Q 2091 2906 1866 2906 
Q 1506 2906 1245 2678 
Q 984 2450 984 1813 
L 984 0 
L 422 0 
z
" transform="scale(0.015625)"/>
       <path id="ArialMT-66" d="M 556 0 
L 556 2881 
L 59 2881 
L 59 3319 
L 556 3319 
L 556 3672 
Q 556 4006 616 4169 
Q 697 4388 901 4523 
Q 1106 4659 1475 4659 
Q 1713 4659 2000 4603 
L 1916 4113 
Q 1741 4144 1584 4144 
Q 1328 4144 1222 4034 
Q 1116 3925 1116 3625 
L 1116 3319 
L 1763 3319 
L 1763 2881 
L 1116 2881 
L 1116 0 
L 556 0 
z
" transform="scale(0.015625)"/>
       <path id="ArialMT-61" d="M 2588 409 
Q 2275 144 1986 34 
Q 1697 -75 1366 -75 
Q 819 -75 525 192 
Q 231 459 231 875 
Q 231 1119 342 1320 
Q 453 1522 633 1644 
Q 813 1766 1038 1828 
Q 1203 1872 1538 1913 
Q 2219 1994 2541 2106 
Q 2544 2222 2544 2253 
Q 2544 2597 2384 2738 
Q 2169 2928 1744 2928 
Q 1347 2928 1158 2789 
Q 969 2650 878 2297 
L 328 2372 
Q 403 2725 575 2942 
Q 747 3159 1072 3276 
Q 1397 3394 1825 3394 
Q 2250 3394 2515 3294 
Q 2781 3194 2906 3042 
Q 3031 2891 3081 2659 
Q 3109 2516 3109 2141 
L 3109 1391 
Q 3109 606 3145 398 
Q 3181 191 3288 0 
L 2700 0 
Q 2613 175 2588 409 
z
M 2541 1666 
Q 2234 1541 1622 1453 
Q 1275 1403 1131 1340 
Q 988 1278 909 1158 
Q 831 1038 831 891 
Q 831 666 1001 516 
Q 1172 366 1500 366 
Q 1825 366 2078 508 
Q 2331 650 2450 897 
Q 2541 1088 2541 1459 
L 2541 1666 
z
" transform="scale(0.015625)"/>
       <path id="ArialMT-6f" d="M 213 1659 
Q 213 2581 725 3025 
Q 1153 3394 1769 3394 
Q 2453 3394 2887 2945 
Q 3322 2497 3322 1706 
Q 3322 1066 3130 698 
Q 2938 331 2570 128 
Q 2203 -75 1769 -75 
Q 1072 -75 642 372 
Q 213 819 213 1659 
z
M 791 1659 
Q 791 1022 1069 705 
Q 1347 388 1769 388 
Q 2188 388 2466 706 
Q 2744 1025 2744 1678 
Q 2744 2294 2464 2611 
Q 2184 2928 1769 2928 
Q 1347 2928 1069 2612 
Q 791 2297 791 1659 
z
" transform="scale(0.015625)"/>
       <path id="ArialMT-6c" d="M 409 0 
L 409 4581 
L 972 4581 
L 972 0 
L 409 0 
z
" transform="scale(0.015625)"/>
       <path id="ArialMT-73" d="M 197 991 
L 753 1078 
Q 800 744 1014 566 
Q 1228 388 1613 388 
Q 2000 388 2187 545 
Q 2375 703 2375 916 
Q 2375 1106 2209 1216 
Q 2094 1291 1634 1406 
Q 1016 1563 777 1677 
Q 538 1791 414 1992 
Q 291 2194 291 2438 
Q 291 2659 392 2848 
Q 494 3038 669 3163 
Q 800 3259 1026 3326 
Q 1253 3394 1513 3394 
Q 1903 3394 2198 3281 
Q 2494 3169 2634 2976 
Q 2775 2784 2828 2463 
L 2278 2388 
Q 2241 2644 2061 2787 
Q 1881 2931 1553 2931 
Q 1166 2931 1000 2803 
Q 834 2675 834 2503 
Q 834 2394 903 2306 
Q 972 2216 1119 2156 
Q 1203 2125 1616 2013 
Q 2213 1853 2448 1751 
Q 2684 1650 2818 1456 
Q 2953 1263 2953 975 
Q 2953 694 2789 445 
Q 2625 197 2315 61 
Q 2006 -75 1616 -75 
Q 969 -75 630 194 
Q 291 463 197 991 
z
" transform="scale(0.015625)"/>
       <path id="ArialMT-2e" d="M 581 0 
L 581 641 
L 1222 641 
L 1222 0 
L 581 0 
z
" transform="scale(0.015625)"/>
      </defs>
      <use xlink:href="#ArialMT-4e"/>
      <use xlink:href="#ArialMT-75" x="72.216797"/>
      <use xlink:href="#ArialMT-6d" x="127.832031"/>
      <use xlink:href="#ArialMT-62" x="211.132812"/>
      <use xlink:href="#ArialMT-65" x="266.748047"/>
      <use xlink:href="#ArialMT-72" x="322.363281"/>
      <use xlink:href="#ArialMT-20" x="355.664062"/>
      <use xlink:href="#ArialMT-69" x="383.447266"/>
      <use xlink:href="#ArialMT-6e" x="405.664062"/>
      <use xlink:href="#ArialMT-66" x="461.279297"/>
      <use xlink:href="#ArialMT-72" x="489.0625"/>
      <use xlink:href="#ArialMT-61" x="522.363281"/>
      <use xlink:href="#ArialMT-6e" x="577.978516"/>
      <use xlink:href="#ArialMT-6f" x="633.59375"/>
      <use xlink:href="#ArialMT-72" x="689.208984"/>
      <use xlink:href="#ArialMT-6d" x="722.509766"/>
      <use xlink:href="#ArialMT-61" x="805.810547"/>
      <use xlink:href="#ArialMT-6c" x="861.425781"/>
      <use xlink:href="#ArialMT-20" x="883.642578"/>
      <use xlink:href="#ArialMT-72" x="911.425781"/>
      <use xlink:href="#ArialMT-65" x="944.726562"/>
      <use xlink:href="#ArialMT-67" x="1000.341797"/>
      <use xlink:href="#ArialMT-69" x="1055.957031"/>
      <use xlink:href="#ArialMT-6f" x="1078.173828"/>
      <use xlink:href="#ArialMT-6e" x="1133.789062"/>
      <use xlink:href="#ArialMT-73" x="1189.404297"/>
      <use xlink:href="#ArialMT-20" x="1239.404297"/>
      <use xlink:href="#ArialMT-5b" x="1267.1875"/>
      <use xlink:href="#ArialMT-61" x="1294.970703"/>
      <use xlink:href="#ArialMT-2e" x="1350.585938"/>
      <use xlink:href="#ArialMT-75" x="1378.369141"/>
      <use xlink:href="#ArialMT-2e" x="1433.984375"/>
      <use xlink:href="#ArialMT-5d" x="1461.767578"/>
     </g>
    </g>
   </g>
   <g id="line2d_13">
    <path d="M 30.933887 64.742116 
L 32.084167 64.86 
L 33.234447 64.977884 
L 34.384727 65.095767 
L 35.535008 65.213651 
L 36.685288 65.331535 
L 37.835568 65.449418 
L 38.985848 65.567302 
L 40.136128 65.685186 
L 41.286409 65.80307 
L 42.436689 65.920953 
L 43.586969 66.038837 
L 44.737249 66.156721 
L 45.887529 66.274604 
L 47.037809 66.392488 
L 48.18809 66.510372 
L 49.33837 66.628255 
L 50.48865 66.746139 
L 51.63893 66.864023 
L 52.78921 66.981907 
L 53.939491 67.09979 
L 55.089771 67.217674 
L 56.240051 67.335558 
L 57.390331 67.453441 
L 58.540611 67.571325 
L 59.690891 67.689209 
L 60.841172 67.807092 
L 61.991452 67.924976 
L 63.141732 68.04286 
L 64.292012 68.160744 
L 65.442292 68.278627 
L 66.592573 68.396511 
L 67.742853 68.514395 
L 68.893133 68.632278 
L 70.043413 68.750162 
L 71.193693 68.868046 
L 72.343973 68.985929 
L 73.494254 69.103813 
L 74.644534 69.221697 
L 75.794814 69.339581 
L 76.945094 69.457464 
L 78.095374 69.575348 
L 79.245655 69.693232 
L 80.395935 69.811115 
L 81.546215 69.928999 
L 82.696495 70.046883 
L 83.846775 70.164766 
L 84.997055 70.28265 
L 86.147336 70.400534 
L 87.297616 70.518417 
L 88.447896 70.636301 
L 89.598176 70.754185 
L 90.748456 70.872069 
L 91.898737 70.989952 
L 93.049017 71.107836 
L 94.199297 71.22572 
L 95.349577 71.343603 
L 96.499857 71.461487 
L 97.650137 71.579371 
L 98.800418 71.697254 
L 99.950698 71.815138 
L 101.100978 71.933022 
L 102.251258 72.050906 
L 103.401538 72.168789 
L 104.551819 72.286673 
L 105.702099 72.404557 
L 106.852379 72.52244 
L 108.002659 72.640324 
L 109.152939 72.758208 
L 110.303219 72.876091 
L 111.4535 72.993975 
L 112.60378 73.111859 
L 113.75406 73.229743 
L 114.90434 73.347626 
L 116.05462 73.46551 
L 117.204901 73.583394 
L 118.355181 73.701277 
L 119.505461 73.819161 
L 120.655741 73.937045 
L 121.806021 74.054928 
L 122.956301 74.172812 
L 124.106582 74.290696 
L 125.256862 74.408579 
L 126.407142 74.526463 
L 127.557422 74.644347 
L 128.707702 74.762231 
L 129.857983 74.880114 
L 131.008263 74.997998 
L 132.158543 75.115882 
L 133.308823 75.233765 
L 134.459103 75.351649 
L 135.609383 75.469533 
L 136.759664 75.587416 
L 137.909944 75.7053 
L 139.060224 75.823184 
L 140.210504 75.941068 
L 141.360784 76.058951 
L 142.511065 76.176835 
L 143.661345 76.294719 
L 144.811625 76.412602 
" clip-path="url(#pd501230eb8)" style="fill: none; stroke: #ff8c00; stroke-width: 0.75; stroke-linecap: square"/>
   </g>
   <g id="patch_3">
    <path d="M 25.24 89.218327 
L 25.24 5.4 
" style="fill: none; stroke: #000000; stroke-width: 0.25; stroke-linejoin: miter; stroke-linecap: square"/>
   </g>
   <g id="patch_4">
    <path d="M 25.24 89.218327 
L 150.505512 89.218327 
" style="fill: none; stroke: #000000; stroke-width: 0.25; stroke-linejoin: miter; stroke-linecap: square"/>
   </g>
   <g id="text_15">
    <g id="patch_5">
     <path d="M 28.997965 18.699023 
L 57.647965 18.699023 
Q 59.147965 18.699023 59.147965 17.199023 
L 59.147965 7.132617 
Q 59.147965 5.632617 57.647965 5.632617 
L 28.997965 5.632617 
Q 27.497965 5.632617 27.497965 7.132617 
L 27.497965 17.199023 
Q 27.497965 18.699023 28.997965 18.699023 
z
" style="fill: #c0c0c0; opacity: 0.4; stroke: #c0c0c0; stroke-linejoin: miter"/>
    </g>
    <!-- $r=-0.162$ -->
    <g transform="translate(28.997965 10.655273) scale(0.05 -0.05)">
     <defs>
      <path id="DejaVuSans-Oblique-72" d="M 2853 2969 
Q 2766 3016 2653 3041 
Q 2541 3066 2413 3066 
Q 1953 3066 1609 2717 
Q 1266 2369 1153 1784 
L 800 0 
L 225 0 
L 909 3500 
L 1484 3500 
L 1375 2956 
Q 1603 3259 1920 3421 
Q 2238 3584 2597 3584 
Q 2691 3584 2781 3573 
Q 2872 3563 2963 3538 
L 2853 2969 
z
" transform="scale(0.015625)"/>
      <path id="DejaVuSans-3d" d="M 678 2906 
L 4684 2906 
L 4684 2381 
L 678 2381 
L 678 2906 
z
M 678 1631 
L 4684 1631 
L 4684 1100 
L 678 1100 
L 678 1631 
z
" transform="scale(0.015625)"/>
      <path id="DejaVuSans-2212" d="M 678 2272 
L 4684 2272 
L 4684 1741 
L 678 1741 
L 678 2272 
z
" transform="scale(0.015625)"/>
      <path id="DejaVuSans-30" d="M 2034 4250 
Q 1547 4250 1301 3770 
Q 1056 3291 1056 2328 
Q 1056 1369 1301 889 
Q 1547 409 2034 409 
Q 2525 409 2770 889 
Q 3016 1369 3016 2328 
Q 3016 3291 2770 3770 
Q 2525 4250 2034 4250 
z
M 2034 4750 
Q 2819 4750 3233 4129 
Q 3647 3509 3647 2328 
Q 3647 1150 3233 529 
Q 2819 -91 2034 -91 
Q 1250 -91 836 529 
Q 422 1150 422 2328 
Q 422 3509 836 4129 
Q 1250 4750 2034 4750 
z
" transform="scale(0.015625)"/>
      <path id="DejaVuSans-2e" d="M 684 794 
L 1344 794 
L 1344 0 
L 684 0 
L 684 794 
z
" transform="scale(0.015625)"/>
      <path id="DejaVuSans-31" d="M 794 531 
L 1825 531 
L 1825 4091 
L 703 3866 
L 703 4441 
L 1819 4666 
L 2450 4666 
L 2450 531 
L 3481 531 
L 3481 0 
L 794 0 
L 794 531 
z
" transform="scale(0.015625)"/>
      <path id="DejaVuSans-36" d="M 2113 2584 
Q 1688 2584 1439 2293 
Q 1191 2003 1191 1497 
Q 1191 994 1439 701 
Q 1688 409 2113 409 
Q 2538 409 2786 701 
Q 3034 994 3034 1497 
Q 3034 2003 2786 2293 
Q 2538 2584 2113 2584 
z
M 3366 4563 
L 3366 3988 
Q 3128 4100 2886 4159 
Q 2644 4219 2406 4219 
Q 1781 4219 1451 3797 
Q 1122 3375 1075 2522 
Q 1259 2794 1537 2939 
Q 1816 3084 2150 3084 
Q 2853 3084 3261 2657 
Q 3669 2231 3669 1497 
Q 3669 778 3244 343 
Q 2819 -91 2113 -91 
Q 1303 -91 875 529 
Q 447 1150 447 2328 
Q 447 3434 972 4092 
Q 1497 4750 2381 4750 
Q 2619 4750 2861 4703 
Q 3103 4656 3366 4563 
z
" transform="scale(0.015625)"/>
      <path id="DejaVuSans-32" d="M 1228 531 
L 3431 531 
L 3431 0 
L 469 0 
L 469 531 
Q 828 903 1448 1529 
Q 2069 2156 2228 2338 
Q 2531 2678 2651 2914 
Q 2772 3150 2772 3378 
Q 2772 3750 2511 3984 
Q 2250 4219 1831 4219 
Q 1534 4219 1204 4116 
Q 875 4013 500 3803 
L 500 4441 
Q 881 4594 1212 4672 
Q 1544 4750 1819 4750 
Q 2544 4750 2975 4387 
Q 3406 4025 3406 3419 
Q 3406 3131 3298 2873 
Q 3191 2616 2906 2266 
Q 2828 2175 2409 1742 
Q 1991 1309 1228 531 
z
" transform="scale(0.015625)"/>
     </defs>
     <use xlink:href="#DejaVuSans-Oblique-72" transform="translate(0 0.78125)"/>
     <use xlink:href="#DejaVuSans-3d" transform="translate(60.595703 0.78125)"/>
     <use xlink:href="#DejaVuSans-2212" transform="translate(183.349609 0.78125)"/>
     <use xlink:href="#DejaVuSans-30" transform="translate(286.621094 0.78125)"/>
     <use xlink:href="#DejaVuSans-2e" transform="translate(350.244141 0.78125)"/>
     <use xlink:href="#DejaVuSans-31" transform="translate(382.03125 0.78125)"/>
     <use xlink:href="#DejaVuSans-36" transform="translate(445.654297 0.78125)"/>
     <use xlink:href="#DejaVuSans-32" transform="translate(509.277344 0.78125)"/>
    </g>
    <!-- $p=0.116$ -->
    <g transform="translate(28.997965 16.149023) scale(0.05 -0.05)">
     <defs>
      <path id="DejaVuSans-Oblique-70" d="M 3175 2156 
Q 3175 2616 2975 2859 
Q 2775 3103 2400 3103 
Q 2144 3103 1911 2972 
Q 1678 2841 1497 2591 
Q 1319 2344 1212 1994 
Q 1106 1644 1106 1300 
Q 1106 863 1306 627 
Q 1506 391 1875 391 
Q 2147 391 2380 519 
Q 2613 647 2778 891 
Q 2956 1147 3065 1494 
Q 3175 1841 3175 2156 
z
M 1394 2969 
Q 1625 3272 1939 3428 
Q 2253 3584 2638 3584 
Q 3175 3584 3472 3232 
Q 3769 2881 3769 2247 
Q 3769 1728 3584 1258 
Q 3400 788 3053 416 
Q 2822 169 2531 39 
Q 2241 -91 1919 -91 
Q 1547 -91 1294 64 
Q 1041 219 916 525 
L 556 -1331 
L -19 -1331 
L 922 3500 
L 1497 3500 
L 1394 2969 
z
" transform="scale(0.015625)"/>
     </defs>
     <use xlink:href="#DejaVuSans-Oblique-70" transform="translate(0 0.78125)"/>
     <use xlink:href="#DejaVuSans-3d" transform="translate(82.958984 0.78125)"/>
     <use xlink:href="#DejaVuSans-30" transform="translate(186.230469 0.78125)"/>
     <use xlink:href="#DejaVuSans-2e" transform="translate(249.853516 0.78125)"/>
     <use xlink:href="#DejaVuSans-31" transform="translate(281.640625 0.78125)"/>
     <use xlink:href="#DejaVuSans-31" transform="translate(345.263672 0.78125)"/>
     <use xlink:href="#DejaVuSans-36" transform="translate(408.886719 0.78125)"/>
    </g>
   </g>
  </g>
 </g>
 <defs>
  <clipPath id="pd501230eb8">
   <rect x="25.24" y="5.4" width="125.265512" height="83.818327"/>
  </clipPath>
 </defs>
</svg>
