<?xml version="1.0" encoding="utf-8" standalone="no"?>
<!DOCTYPE svg PUBLIC "-//W3C//DTD SVG 1.1//EN"
  "http://www.w3.org/Graphics/SVG/1.1/DTD/svg11.dtd">
<svg xmlns:xlink="http://www.w3.org/1999/xlink" width="155.905512pt" height="113.385827pt" viewBox="0 0 155.905512 113.385827" xmlns="http://www.w3.org/2000/svg" version="1.1">
 <metadata>
  <rdf:RDF xmlns:dc="http://purl.org/dc/elements/1.1/" xmlns:cc="http://creativecommons.org/ns#" xmlns:rdf="http://www.w3.org/1999/02/22-rdf-syntax-ns#">
   <cc:Work>
    <dc:type rdf:resource="http://purl.org/dc/dcmitype/StillImage"/>
    <dc:date>2025-08-14T15:35:23.889901</dc:date>
    <dc:format>image/svg+xml</dc:format>
    <dc:creator>
     <cc:Agent>
      <dc:title>Matplotlib v3.9.2, https://matplotlib.org/</dc:title>
     </cc:Agent>
    </dc:creator>
   </cc:Work>
  </rdf:RDF>
 </metadata>
 <defs>
  <style type="text/css">*{stroke-linejoin: round; stroke-linecap: butt}</style>
 </defs>
 <g id="figure_1">
  <g id="patch_1">
   <path d="M 0 113.385827 
L 155.905512 113.385827 
L 155.905512 0 
L 0 0 
z
" style="fill: #ffffff"/>
  </g>
  <g id="axes_1">
   <g id="patch_2">
    <path d="M 25.24 89.218327 
L 150.505512 89.218327 
L 150.505512 5.4 
L 25.24 5.4 
z
" style="fill: #ffffff"/>
   </g>
   <g id="PathCollection_1">
    <defs>
     <path id="C0_0_84abdf47c6" d="M 0 0.866025 
C 0.229673 0.866025 0.449969 0.774776 0.612372 0.612372 
C 0.774776 0.449969 0.866025 0.229673 0.866025 -0 
C 0.866025 -0.229673 0.774776 -0.449969 0.612372 -0.612372 
C 0.449969 -0.774776 0.229673 -0.866025 0 -0.866025 
C -0.229673 -0.866025 -0.449969 -0.774776 -0.612372 -0.612372 
C -0.774776 -0.449969 -0.866025 -0.229673 -0.866025 0 
C -0.866025 0.229673 -0.774776 0.449969 -0.612372 0.612372 
C -0.449969 0.774776 -0.229673 0.866025 0 0.866025 
z
"/>
    </defs>
    <g clip-path="url(#p604bf799f7)">
     <use xlink:href="#C0_0_84abdf47c6" x="135.01569" y="71.801532" style="fill: #ff8c00; fill-opacity: 0.8"/>
    </g>
    <g clip-path="url(#p604bf799f7)">
     <use xlink:href="#C0_0_84abdf47c6" x="142.362641" y="85.408403" style="fill: #ff8c00; fill-opacity: 0.8"/>
    </g>
    <g clip-path="url(#p604bf799f7)">
     <use xlink:href="#C0_0_84abdf47c6" x="142.362641" y="85.408403" style="fill: #ff8c00; fill-opacity: 0.8"/>
    </g>
    <g clip-path="url(#p604bf799f7)">
     <use xlink:href="#C0_0_84abdf47c6" x="70.117625" y="82.687029" style="fill: #ff8c00; fill-opacity: 0.8"/>
    </g>
    <g clip-path="url(#p604bf799f7)">
     <use xlink:href="#C0_0_84abdf47c6" x="139.913658" y="82.687029" style="fill: #ff8c00; fill-opacity: 0.8"/>
    </g>
    <g clip-path="url(#p604bf799f7)">
     <use xlink:href="#C0_0_84abdf47c6" x="142.362641" y="82.687029" style="fill: #ff8c00; fill-opacity: 0.8"/>
    </g>
    <g clip-path="url(#p604bf799f7)">
     <use xlink:href="#C0_0_84abdf47c6" x="141.138149" y="82.687029" style="fill: #ff8c00; fill-opacity: 0.8"/>
    </g>
    <g clip-path="url(#p604bf799f7)">
     <use xlink:href="#C0_0_84abdf47c6" x="121.546281" y="9.209924" style="fill: #ff8c00; fill-opacity: 0.8"/>
    </g>
    <g clip-path="url(#p604bf799f7)">
     <use xlink:href="#C0_0_84abdf47c6" x="121.546281" y="69.080157" style="fill: #ff8c00; fill-opacity: 0.8"/>
    </g>
    <g clip-path="url(#p604bf799f7)">
     <use xlink:href="#C0_0_84abdf47c6" x="94.607461" y="69.080157" style="fill: #ff8c00; fill-opacity: 0.8"/>
    </g>
    <g clip-path="url(#p604bf799f7)">
     <use xlink:href="#C0_0_84abdf47c6" x="94.607461" y="79.965654" style="fill: #ff8c00; fill-opacity: 0.8"/>
    </g>
    <g clip-path="url(#p604bf799f7)">
     <use xlink:href="#C0_0_84abdf47c6" x="34.607362" y="69.080157" style="fill: #ff8c00; fill-opacity: 0.8"/>
    </g>
    <g clip-path="url(#p604bf799f7)">
     <use xlink:href="#C0_0_84abdf47c6" x="68.893133" y="79.965654" style="fill: #ff8c00; fill-opacity: 0.8"/>
    </g>
    <g clip-path="url(#p604bf799f7)">
     <use xlink:href="#C0_0_84abdf47c6" x="141.138149" y="82.687029" style="fill: #ff8c00; fill-opacity: 0.8"/>
    </g>
    <g clip-path="url(#p604bf799f7)">
     <use xlink:href="#C0_0_84abdf47c6" x="141.138149" y="77.24428" style="fill: #ff8c00; fill-opacity: 0.8"/>
    </g>
    <g clip-path="url(#p604bf799f7)">
     <use xlink:href="#C0_0_84abdf47c6" x="109.301362" y="60.916035" style="fill: #ff8c00; fill-opacity: 0.8"/>
    </g>
    <g clip-path="url(#p604bf799f7)">
     <use xlink:href="#C0_0_84abdf47c6" x="126.444248" y="82.687029" style="fill: #ff8c00; fill-opacity: 0.8"/>
    </g>
    <g clip-path="url(#p604bf799f7)">
     <use xlink:href="#C0_0_84abdf47c6" x="120.321789" y="85.408403" style="fill: #ff8c00; fill-opacity: 0.8"/>
    </g>
    <g clip-path="url(#p604bf799f7)">
     <use xlink:href="#C0_0_84abdf47c6" x="81.138051" y="79.965654" style="fill: #ff8c00; fill-opacity: 0.8"/>
    </g>
    <g clip-path="url(#p604bf799f7)">
     <use xlink:href="#C0_0_84abdf47c6" x="139.913658" y="82.687029" style="fill: #ff8c00; fill-opacity: 0.8"/>
    </g>
    <g clip-path="url(#p604bf799f7)">
     <use xlink:href="#C0_0_84abdf47c6" x="144.811625" y="85.408403" style="fill: #ff8c00; fill-opacity: 0.8"/>
    </g>
    <g clip-path="url(#p604bf799f7)">
     <use xlink:href="#C0_0_84abdf47c6" x="144.811625" y="82.687029" style="fill: #ff8c00; fill-opacity: 0.8"/>
    </g>
    <g clip-path="url(#p604bf799f7)">
     <use xlink:href="#C0_0_84abdf47c6" x="100.72992" y="74.522906" style="fill: #ff8c00; fill-opacity: 0.8"/>
    </g>
    <g clip-path="url(#p604bf799f7)">
     <use xlink:href="#C0_0_84abdf47c6" x="88.485002" y="79.965654" style="fill: #ff8c00; fill-opacity: 0.8"/>
    </g>
    <g clip-path="url(#p604bf799f7)">
     <use xlink:href="#C0_0_84abdf47c6" x="92.158477" y="66.358783" style="fill: #ff8c00; fill-opacity: 0.8"/>
    </g>
    <g clip-path="url(#p604bf799f7)">
     <use xlink:href="#C0_0_84abdf47c6" x="92.158477" y="82.687029" style="fill: #ff8c00; fill-opacity: 0.8"/>
    </g>
    <g clip-path="url(#p604bf799f7)">
     <use xlink:href="#C0_0_84abdf47c6" x="144.811625" y="74.522906" style="fill: #ff8c00; fill-opacity: 0.8"/>
    </g>
    <g clip-path="url(#p604bf799f7)">
     <use xlink:href="#C0_0_84abdf47c6" x="144.811625" y="79.965654" style="fill: #ff8c00; fill-opacity: 0.8"/>
    </g>
    <g clip-path="url(#p604bf799f7)">
     <use xlink:href="#C0_0_84abdf47c6" x="144.811625" y="74.522906" style="fill: #ff8c00; fill-opacity: 0.8"/>
    </g>
    <g clip-path="url(#p604bf799f7)">
     <use xlink:href="#C0_0_84abdf47c6" x="75.015592" y="82.687029" style="fill: #ff8c00; fill-opacity: 0.8"/>
    </g>
    <g clip-path="url(#p604bf799f7)">
     <use xlink:href="#C0_0_84abdf47c6" x="101.954412" y="82.687029" style="fill: #ff8c00; fill-opacity: 0.8"/>
    </g>
    <g clip-path="url(#p604bf799f7)">
     <use xlink:href="#C0_0_84abdf47c6" x="61.546182" y="79.965654" style="fill: #ff8c00; fill-opacity: 0.8"/>
    </g>
    <g clip-path="url(#p604bf799f7)">
     <use xlink:href="#C0_0_84abdf47c6" x="132.566707" y="79.965654" style="fill: #ff8c00; fill-opacity: 0.8"/>
    </g>
    <g clip-path="url(#p604bf799f7)">
     <use xlink:href="#C0_0_84abdf47c6" x="83.587035" y="79.965654" style="fill: #ff8c00; fill-opacity: 0.8"/>
    </g>
    <g clip-path="url(#p604bf799f7)">
     <use xlink:href="#C0_0_84abdf47c6" x="109.301362" y="79.965654" style="fill: #ff8c00; fill-opacity: 0.8"/>
    </g>
    <g clip-path="url(#p604bf799f7)">
     <use xlink:href="#C0_0_84abdf47c6" x="105.627887" y="82.687029" style="fill: #ff8c00; fill-opacity: 0.8"/>
    </g>
    <g clip-path="url(#p604bf799f7)">
     <use xlink:href="#C0_0_84abdf47c6" x="133.791199" y="79.965654" style="fill: #ff8c00; fill-opacity: 0.8"/>
    </g>
    <g clip-path="url(#p604bf799f7)">
     <use xlink:href="#C0_0_84abdf47c6" x="123.995264" y="82.687029" style="fill: #ff8c00; fill-opacity: 0.8"/>
    </g>
    <g clip-path="url(#p604bf799f7)">
     <use xlink:href="#C0_0_84abdf47c6" x="75.015592" y="82.687029" style="fill: #ff8c00; fill-opacity: 0.8"/>
    </g>
    <g clip-path="url(#p604bf799f7)">
     <use xlink:href="#C0_0_84abdf47c6" x="97.056444" y="79.965654" style="fill: #ff8c00; fill-opacity: 0.8"/>
    </g>
    <g clip-path="url(#p604bf799f7)">
     <use xlink:href="#C0_0_84abdf47c6" x="136.240182" y="79.965654" style="fill: #ff8c00; fill-opacity: 0.8"/>
    </g>
    <g clip-path="url(#p604bf799f7)">
     <use xlink:href="#C0_0_84abdf47c6" x="130.117723" y="77.24428" style="fill: #ff8c00; fill-opacity: 0.8"/>
    </g>
    <g clip-path="url(#p604bf799f7)">
     <use xlink:href="#C0_0_84abdf47c6" x="130.117723" y="82.687029" style="fill: #ff8c00; fill-opacity: 0.8"/>
    </g>
    <g clip-path="url(#p604bf799f7)">
     <use xlink:href="#C0_0_84abdf47c6" x="137.464674" y="82.687029" style="fill: #ff8c00; fill-opacity: 0.8"/>
    </g>
    <g clip-path="url(#p604bf799f7)">
     <use xlink:href="#C0_0_84abdf47c6" x="137.464674" y="85.408403" style="fill: #ff8c00; fill-opacity: 0.8"/>
    </g>
    <g clip-path="url(#p604bf799f7)">
     <use xlink:href="#C0_0_84abdf47c6" x="141.138149" y="82.687029" style="fill: #ff8c00; fill-opacity: 0.8"/>
    </g>
    <g clip-path="url(#p604bf799f7)">
     <use xlink:href="#C0_0_84abdf47c6" x="144.811625" y="82.687029" style="fill: #ff8c00; fill-opacity: 0.8"/>
    </g>
    <g clip-path="url(#p604bf799f7)">
     <use xlink:href="#C0_0_84abdf47c6" x="75.015592" y="82.687029" style="fill: #ff8c00; fill-opacity: 0.8"/>
    </g>
    <g clip-path="url(#p604bf799f7)">
     <use xlink:href="#C0_0_84abdf47c6" x="130.117723" y="66.358783" style="fill: #ff8c00; fill-opacity: 0.8"/>
    </g>
    <g clip-path="url(#p604bf799f7)">
     <use xlink:href="#C0_0_84abdf47c6" x="52.974739" y="79.965654" style="fill: #ff8c00; fill-opacity: 0.8"/>
    </g>
    <g clip-path="url(#p604bf799f7)">
     <use xlink:href="#C0_0_84abdf47c6" x="94.607461" y="79.965654" style="fill: #ff8c00; fill-opacity: 0.8"/>
    </g>
    <g clip-path="url(#p604bf799f7)">
     <use xlink:href="#C0_0_84abdf47c6" x="52.974739" y="85.408403" style="fill: #ff8c00; fill-opacity: 0.8"/>
    </g>
    <g clip-path="url(#p604bf799f7)">
     <use xlink:href="#C0_0_84abdf47c6" x="63.995166" y="39.145041" style="fill: #ff8c00; fill-opacity: 0.8"/>
    </g>
    <g clip-path="url(#p604bf799f7)">
     <use xlink:href="#C0_0_84abdf47c6" x="63.995166" y="55.473286" style="fill: #ff8c00; fill-opacity: 0.8"/>
    </g>
    <g clip-path="url(#p604bf799f7)">
     <use xlink:href="#C0_0_84abdf47c6" x="121.546281" y="85.408403" style="fill: #ff8c00; fill-opacity: 0.8"/>
    </g>
    <g clip-path="url(#p604bf799f7)">
     <use xlink:href="#C0_0_84abdf47c6" x="65.219657" y="77.24428" style="fill: #ff8c00; fill-opacity: 0.8"/>
    </g>
    <g clip-path="url(#p604bf799f7)">
     <use xlink:href="#C0_0_84abdf47c6" x="65.219657" y="69.080157" style="fill: #ff8c00; fill-opacity: 0.8"/>
    </g>
    <g clip-path="url(#p604bf799f7)">
     <use xlink:href="#C0_0_84abdf47c6" x="65.219657" y="71.801532" style="fill: #ff8c00; fill-opacity: 0.8"/>
    </g>
    <g clip-path="url(#p604bf799f7)">
     <use xlink:href="#C0_0_84abdf47c6" x="76.240084" y="66.358783" style="fill: #ff8c00; fill-opacity: 0.8"/>
    </g>
    <g clip-path="url(#p604bf799f7)">
     <use xlink:href="#C0_0_84abdf47c6" x="99.505428" y="44.587789" style="fill: #ff8c00; fill-opacity: 0.8"/>
    </g>
    <g clip-path="url(#p604bf799f7)">
     <use xlink:href="#C0_0_84abdf47c6" x="63.995166" y="71.801532" style="fill: #ff8c00; fill-opacity: 0.8"/>
    </g>
    <g clip-path="url(#p604bf799f7)">
     <use xlink:href="#C0_0_84abdf47c6" x="77.464576" y="77.24428" style="fill: #ff8c00; fill-opacity: 0.8"/>
    </g>
    <g clip-path="url(#p604bf799f7)">
     <use xlink:href="#C0_0_84abdf47c6" x="144.811625" y="82.687029" style="fill: #ff8c00; fill-opacity: 0.8"/>
    </g>
    <g clip-path="url(#p604bf799f7)">
     <use xlink:href="#C0_0_84abdf47c6" x="82.362543" y="79.965654" style="fill: #ff8c00; fill-opacity: 0.8"/>
    </g>
    <g clip-path="url(#p604bf799f7)">
     <use xlink:href="#C0_0_84abdf47c6" x="40.729821" y="74.522906" style="fill: #ff8c00; fill-opacity: 0.8"/>
    </g>
    <g clip-path="url(#p604bf799f7)">
     <use xlink:href="#C0_0_84abdf47c6" x="136.240182" y="85.408403" style="fill: #ff8c00; fill-opacity: 0.8"/>
    </g>
    <g clip-path="url(#p604bf799f7)">
     <use xlink:href="#C0_0_84abdf47c6" x="126.444248" y="79.965654" style="fill: #ff8c00; fill-opacity: 0.8"/>
    </g>
    <g clip-path="url(#p604bf799f7)">
     <use xlink:href="#C0_0_84abdf47c6" x="70.117625" y="77.24428" style="fill: #ff8c00; fill-opacity: 0.8"/>
    </g>
    <g clip-path="url(#p604bf799f7)">
     <use xlink:href="#C0_0_84abdf47c6" x="65.219657" y="77.24428" style="fill: #ff8c00; fill-opacity: 0.8"/>
    </g>
    <g clip-path="url(#p604bf799f7)">
     <use xlink:href="#C0_0_84abdf47c6" x="32.158379" y="82.687029" style="fill: #ff8c00; fill-opacity: 0.8"/>
    </g>
    <g clip-path="url(#p604bf799f7)">
     <use xlink:href="#C0_0_84abdf47c6" x="75.015592" y="85.408403" style="fill: #ff8c00; fill-opacity: 0.8"/>
    </g>
    <g clip-path="url(#p604bf799f7)">
     <use xlink:href="#C0_0_84abdf47c6" x="75.015592" y="71.801532" style="fill: #ff8c00; fill-opacity: 0.8"/>
    </g>
    <g clip-path="url(#p604bf799f7)">
     <use xlink:href="#C0_0_84abdf47c6" x="108.076871" y="82.687029" style="fill: #ff8c00; fill-opacity: 0.8"/>
    </g>
    <g clip-path="url(#p604bf799f7)">
     <use xlink:href="#C0_0_84abdf47c6" x="123.995264" y="85.408403" style="fill: #ff8c00; fill-opacity: 0.8"/>
    </g>
    <g clip-path="url(#p604bf799f7)">
     <use xlink:href="#C0_0_84abdf47c6" x="38.280838" y="58.19466" style="fill: #ff8c00; fill-opacity: 0.8"/>
    </g>
    <g clip-path="url(#p604bf799f7)">
     <use xlink:href="#C0_0_84abdf47c6" x="144.811625" y="82.687029" style="fill: #ff8c00; fill-opacity: 0.8"/>
    </g>
    <g clip-path="url(#p604bf799f7)">
     <use xlink:href="#C0_0_84abdf47c6" x="108.076871" y="82.687029" style="fill: #ff8c00; fill-opacity: 0.8"/>
    </g>
    <g clip-path="url(#p604bf799f7)">
     <use xlink:href="#C0_0_84abdf47c6" x="108.076871" y="82.687029" style="fill: #ff8c00; fill-opacity: 0.8"/>
    </g>
    <g clip-path="url(#p604bf799f7)">
     <use xlink:href="#C0_0_84abdf47c6" x="125.219756" y="85.408403" style="fill: #ff8c00; fill-opacity: 0.8"/>
    </g>
    <g clip-path="url(#p604bf799f7)">
     <use xlink:href="#C0_0_84abdf47c6" x="37.056346" y="82.687029" style="fill: #ff8c00; fill-opacity: 0.8"/>
    </g>
    <g clip-path="url(#p604bf799f7)">
     <use xlink:href="#C0_0_84abdf47c6" x="87.26051" y="82.687029" style="fill: #ff8c00; fill-opacity: 0.8"/>
    </g>
    <g clip-path="url(#p604bf799f7)">
     <use xlink:href="#C0_0_84abdf47c6" x="81.138051" y="82.687029" style="fill: #ff8c00; fill-opacity: 0.8"/>
    </g>
    <g clip-path="url(#p604bf799f7)">
     <use xlink:href="#C0_0_84abdf47c6" x="97.056444" y="85.408403" style="fill: #ff8c00; fill-opacity: 0.8"/>
    </g>
    <g clip-path="url(#p604bf799f7)">
     <use xlink:href="#C0_0_84abdf47c6" x="97.056444" y="82.687029" style="fill: #ff8c00; fill-opacity: 0.8"/>
    </g>
    <g clip-path="url(#p604bf799f7)">
     <use xlink:href="#C0_0_84abdf47c6" x="142.362641" y="85.408403" style="fill: #ff8c00; fill-opacity: 0.8"/>
    </g>
    <g clip-path="url(#p604bf799f7)">
     <use xlink:href="#C0_0_84abdf47c6" x="48.076772" y="82.687029" style="fill: #ff8c00; fill-opacity: 0.8"/>
    </g>
    <g clip-path="url(#p604bf799f7)">
     <use xlink:href="#C0_0_84abdf47c6" x="133.791199" y="79.965654" style="fill: #ff8c00; fill-opacity: 0.8"/>
    </g>
    <g clip-path="url(#p604bf799f7)">
     <use xlink:href="#C0_0_84abdf47c6" x="122.770772" y="82.687029" style="fill: #ff8c00; fill-opacity: 0.8"/>
    </g>
    <g clip-path="url(#p604bf799f7)">
     <use xlink:href="#C0_0_84abdf47c6" x="114.19933" y="82.687029" style="fill: #ff8c00; fill-opacity: 0.8"/>
    </g>
    <g clip-path="url(#p604bf799f7)">
     <use xlink:href="#C0_0_84abdf47c6" x="127.66874" y="79.965654" style="fill: #ff8c00; fill-opacity: 0.8"/>
    </g>
    <g clip-path="url(#p604bf799f7)">
     <use xlink:href="#C0_0_84abdf47c6" x="84.811526" y="82.687029" style="fill: #ff8c00; fill-opacity: 0.8"/>
    </g>
    <g clip-path="url(#p604bf799f7)">
     <use xlink:href="#C0_0_84abdf47c6" x="121.546281" y="82.687029" style="fill: #ff8c00; fill-opacity: 0.8"/>
    </g>
    <g clip-path="url(#p604bf799f7)">
     <use xlink:href="#C0_0_84abdf47c6" x="39.50533" y="79.965654" style="fill: #ff8c00; fill-opacity: 0.8"/>
    </g>
    <g clip-path="url(#p604bf799f7)">
     <use xlink:href="#C0_0_84abdf47c6" x="92.158477" y="85.408403" style="fill: #ff8c00; fill-opacity: 0.8"/>
    </g>
    <g clip-path="url(#p604bf799f7)">
     <use xlink:href="#C0_0_84abdf47c6" x="105.627887" y="58.19466" style="fill: #ff8c00; fill-opacity: 0.8"/>
    </g>
    <g clip-path="url(#p604bf799f7)">
     <use xlink:href="#C0_0_84abdf47c6" x="89.709494" y="79.965654" style="fill: #ff8c00; fill-opacity: 0.8"/>
    </g>
    <g clip-path="url(#p604bf799f7)">
     <use xlink:href="#C0_0_84abdf47c6" x="143.587133" y="85.408403" style="fill: #ff8c00; fill-opacity: 0.8"/>
    </g>
    <g clip-path="url(#p604bf799f7)">
     <use xlink:href="#C0_0_84abdf47c6" x="100.72992" y="74.522906" style="fill: #ff8c00; fill-opacity: 0.8"/>
    </g>
    <g clip-path="url(#p604bf799f7)">
     <use xlink:href="#C0_0_84abdf47c6" x="127.66874" y="79.965654" style="fill: #ff8c00; fill-opacity: 0.8"/>
    </g>
    <g clip-path="url(#p604bf799f7)">
     <use xlink:href="#C0_0_84abdf47c6" x="127.66874" y="82.687029" style="fill: #ff8c00; fill-opacity: 0.8"/>
    </g>
    <g clip-path="url(#p604bf799f7)">
     <use xlink:href="#C0_0_84abdf47c6" x="84.811526" y="82.687029" style="fill: #ff8c00; fill-opacity: 0.8"/>
    </g>
    <g clip-path="url(#p604bf799f7)">
     <use xlink:href="#C0_0_84abdf47c6" x="55.423723" y="82.687029" style="fill: #ff8c00; fill-opacity: 0.8"/>
    </g>
    <g clip-path="url(#p604bf799f7)">
     <use xlink:href="#C0_0_84abdf47c6" x="104.403395" y="85.408403" style="fill: #ff8c00; fill-opacity: 0.8"/>
    </g>
    <g clip-path="url(#p604bf799f7)">
     <use xlink:href="#C0_0_84abdf47c6" x="123.995264" y="79.965654" style="fill: #ff8c00; fill-opacity: 0.8"/>
    </g>
    <g clip-path="url(#p604bf799f7)">
     <use xlink:href="#C0_0_84abdf47c6" x="92.158477" y="85.408403" style="fill: #ff8c00; fill-opacity: 0.8"/>
    </g>
    <g clip-path="url(#p604bf799f7)">
     <use xlink:href="#C0_0_84abdf47c6" x="75.015592" y="85.408403" style="fill: #ff8c00; fill-opacity: 0.8"/>
    </g>
    <g clip-path="url(#p604bf799f7)">
     <use xlink:href="#C0_0_84abdf47c6" x="119.097297" y="85.408403" style="fill: #ff8c00; fill-opacity: 0.8"/>
    </g>
    <g clip-path="url(#p604bf799f7)">
     <use xlink:href="#C0_0_84abdf47c6" x="119.097297" y="85.408403" style="fill: #ff8c00; fill-opacity: 0.8"/>
    </g>
    <g clip-path="url(#p604bf799f7)">
     <use xlink:href="#C0_0_84abdf47c6" x="30.933887" y="60.916035" style="fill: #ff8c00; fill-opacity: 0.8"/>
    </g>
    <g clip-path="url(#p604bf799f7)">
     <use xlink:href="#C0_0_84abdf47c6" x="108.076871" y="71.801532" style="fill: #ff8c00; fill-opacity: 0.8"/>
    </g>
    <g clip-path="url(#p604bf799f7)">
     <use xlink:href="#C0_0_84abdf47c6" x="67.668641" y="71.801532" style="fill: #ff8c00; fill-opacity: 0.8"/>
    </g>
    <g clip-path="url(#p604bf799f7)">
     <use xlink:href="#C0_0_84abdf47c6" x="119.097297" y="71.801532" style="fill: #ff8c00; fill-opacity: 0.8"/>
    </g>
    <g clip-path="url(#p604bf799f7)">
     <use xlink:href="#C0_0_84abdf47c6" x="119.097297" y="79.965654" style="fill: #ff8c00; fill-opacity: 0.8"/>
    </g>
    <g clip-path="url(#p604bf799f7)">
     <use xlink:href="#C0_0_84abdf47c6" x="32.158379" y="71.801532" style="fill: #ff8c00; fill-opacity: 0.8"/>
    </g>
    <g clip-path="url(#p604bf799f7)">
     <use xlink:href="#C0_0_84abdf47c6" x="75.015592" y="66.358783" style="fill: #ff8c00; fill-opacity: 0.8"/>
    </g>
    <g clip-path="url(#p604bf799f7)">
     <use xlink:href="#C0_0_84abdf47c6" x="120.321789" y="74.522906" style="fill: #ff8c00; fill-opacity: 0.8"/>
    </g>
    <g clip-path="url(#p604bf799f7)">
     <use xlink:href="#C0_0_84abdf47c6" x="32.158379" y="85.408403" style="fill: #ff8c00; fill-opacity: 0.8"/>
    </g>
    <g clip-path="url(#p604bf799f7)">
     <use xlink:href="#C0_0_84abdf47c6" x="57.872707" y="82.687029" style="fill: #ff8c00; fill-opacity: 0.8"/>
    </g>
    <g clip-path="url(#p604bf799f7)">
     <use xlink:href="#C0_0_84abdf47c6" x="115.423822" y="77.24428" style="fill: #ff8c00; fill-opacity: 0.8"/>
    </g>
    <g clip-path="url(#p604bf799f7)">
     <use xlink:href="#C0_0_84abdf47c6" x="104.403395" y="79.965654" style="fill: #ff8c00; fill-opacity: 0.8"/>
    </g>
    <g clip-path="url(#p604bf799f7)">
     <use xlink:href="#C0_0_84abdf47c6" x="104.403395" y="71.801532" style="fill: #ff8c00; fill-opacity: 0.8"/>
    </g>
    <g clip-path="url(#p604bf799f7)">
     <use xlink:href="#C0_0_84abdf47c6" x="104.403395" y="85.408403" style="fill: #ff8c00; fill-opacity: 0.8"/>
    </g>
    <g clip-path="url(#p604bf799f7)">
     <use xlink:href="#C0_0_84abdf47c6" x="144.811625" y="82.687029" style="fill: #ff8c00; fill-opacity: 0.8"/>
    </g>
    <g clip-path="url(#p604bf799f7)">
     <use xlink:href="#C0_0_84abdf47c6" x="81.138051" y="55.473286" style="fill: #ff8c00; fill-opacity: 0.8"/>
    </g>
    <g clip-path="url(#p604bf799f7)">
     <use xlink:href="#C0_0_84abdf47c6" x="70.117625" y="79.965654" style="fill: #ff8c00; fill-opacity: 0.8"/>
    </g>
    <g clip-path="url(#p604bf799f7)">
     <use xlink:href="#C0_0_84abdf47c6" x="132.566707" y="82.687029" style="fill: #ff8c00; fill-opacity: 0.8"/>
    </g>
    <g clip-path="url(#p604bf799f7)">
     <use xlink:href="#C0_0_84abdf47c6" x="135.01569" y="79.965654" style="fill: #ff8c00; fill-opacity: 0.8"/>
    </g>
    <g clip-path="url(#p604bf799f7)">
     <use xlink:href="#C0_0_84abdf47c6" x="78.689067" y="82.687029" style="fill: #ff8c00; fill-opacity: 0.8"/>
    </g>
    <g clip-path="url(#p604bf799f7)">
     <use xlink:href="#C0_0_84abdf47c6" x="46.85228" y="82.687029" style="fill: #ff8c00; fill-opacity: 0.8"/>
    </g>
    <g clip-path="url(#p604bf799f7)">
     <use xlink:href="#C0_0_84abdf47c6" x="138.689166" y="82.687029" style="fill: #ff8c00; fill-opacity: 0.8"/>
    </g>
    <g clip-path="url(#p604bf799f7)">
     <use xlink:href="#C0_0_84abdf47c6" x="114.19933" y="28.259544" style="fill: #ff8c00; fill-opacity: 0.8"/>
    </g>
   </g>
   <g id="PolyCollection_1">
    <path d="M 30.933887 69.784584 
L 30.933887 77.428738 
L 32.084167 77.443967 
L 33.234447 77.448167 
L 34.384727 77.469529 
L 35.535008 77.494686 
L 36.685288 77.507658 
L 37.835568 77.513111 
L 38.985848 77.518831 
L 40.136128 77.537089 
L 41.286409 77.558496 
L 42.436689 77.570657 
L 43.586969 77.593388 
L 44.737249 77.6144 
L 45.887529 77.629867 
L 47.037809 77.659187 
L 48.18809 77.675903 
L 49.33837 77.703377 
L 50.48865 77.722845 
L 51.63893 77.742707 
L 52.78921 77.760139 
L 53.939491 77.783363 
L 55.089771 77.803574 
L 56.240051 77.813878 
L 57.390331 77.832937 
L 58.540611 77.845361 
L 59.690891 77.867213 
L 60.841172 77.884205 
L 61.991452 77.911784 
L 63.141732 77.928449 
L 64.292012 77.95496 
L 65.442292 77.987683 
L 66.592573 78.0135 
L 67.742853 78.040338 
L 68.893133 78.067248 
L 70.043413 78.106302 
L 71.193693 78.134813 
L 72.343973 78.168878 
L 73.494254 78.202773 
L 74.644534 78.244419 
L 75.794814 78.278315 
L 76.945094 78.317821 
L 78.095374 78.361094 
L 79.245655 78.400772 
L 80.395935 78.431544 
L 81.546215 78.471207 
L 82.696495 78.507833 
L 83.846775 78.544605 
L 84.997055 78.589805 
L 86.147336 78.630985 
L 87.297616 78.669438 
L 88.447896 78.720321 
L 89.598176 78.77318 
L 90.748456 78.819474 
L 91.898737 78.867639 
L 93.049017 78.913765 
L 94.199297 78.969352 
L 95.349577 79.025091 
L 96.499857 79.074617 
L 97.650137 79.125406 
L 98.800418 79.181697 
L 99.950698 79.228564 
L 101.100978 79.282196 
L 102.251258 79.338484 
L 103.401538 79.399851 
L 104.551819 79.461162 
L 105.702099 79.515267 
L 106.852379 79.573956 
L 108.002659 79.640296 
L 109.152939 79.700497 
L 110.303219 79.768222 
L 111.4535 79.835705 
L 112.60378 79.91175 
L 113.75406 79.974629 
L 114.90434 80.049629 
L 116.05462 80.120464 
L 117.204901 80.193344 
L 118.355181 80.269892 
L 119.505461 80.344673 
L 120.655741 80.43016 
L 121.806021 80.509826 
L 122.956301 80.590063 
L 124.106582 80.673273 
L 125.256862 80.757608 
L 126.407142 80.843333 
L 127.557422 80.936214 
L 128.707702 81.025805 
L 129.857983 81.110267 
L 131.008263 81.200809 
L 132.158543 81.29765 
L 133.308823 81.390413 
L 134.459103 81.492744 
L 135.609383 81.588701 
L 136.759664 81.68533 
L 137.909944 81.773182 
L 139.060224 81.865603 
L 140.210504 81.961092 
L 141.360784 82.059384 
L 142.511065 82.163538 
L 143.661345 82.258453 
L 144.811625 82.359354 
L 144.811625 76.844781 
L 144.811625 76.844781 
L 143.661345 76.808625 
L 142.511065 76.792937 
L 141.360784 76.774465 
L 140.210504 76.753572 
L 139.060224 76.73506 
L 137.909944 76.710018 
L 136.759664 76.6881 
L 135.609383 76.660925 
L 134.459103 76.636752 
L 133.308823 76.616386 
L 132.158543 76.597265 
L 131.008263 76.565286 
L 129.857983 76.535001 
L 128.707702 76.504882 
L 127.557422 76.471433 
L 126.407142 76.445785 
L 125.256862 76.410864 
L 124.106582 76.362053 
L 122.956301 76.341485 
L 121.806021 76.321912 
L 120.655741 76.302375 
L 119.505461 76.263279 
L 118.355181 76.231005 
L 117.204901 76.196089 
L 116.05462 76.152043 
L 114.90434 76.124589 
L 113.75406 76.080516 
L 112.60378 76.04197 
L 111.4535 76.001838 
L 110.303219 75.961744 
L 109.152939 75.915198 
L 108.002659 75.867613 
L 106.852379 75.816484 
L 105.702099 75.756408 
L 104.551819 75.6974 
L 103.401538 75.651033 
L 102.251258 75.593305 
L 101.100978 75.536456 
L 99.950698 75.481604 
L 98.800418 75.42441 
L 97.650137 75.364721 
L 96.499857 75.306064 
L 95.349577 75.233896 
L 94.199297 75.166239 
L 93.049017 75.091117 
L 91.898737 75.016251 
L 90.748456 74.932942 
L 89.598176 74.867243 
L 88.447896 74.786812 
L 87.297616 74.705812 
L 86.147336 74.62141 
L 84.997055 74.543361 
L 83.846775 74.460966 
L 82.696495 74.374708 
L 81.546215 74.29328 
L 80.395935 74.203254 
L 79.245655 74.114217 
L 78.095374 74.023263 
L 76.945094 73.935414 
L 75.794814 73.84333 
L 74.644534 73.749796 
L 73.494254 73.650132 
L 72.343973 73.552896 
L 71.193693 73.459395 
L 70.043413 73.36558 
L 68.893133 73.266509 
L 67.742853 73.18489 
L 66.592573 73.080711 
L 65.442292 72.986704 
L 64.292012 72.879451 
L 63.141732 72.77946 
L 61.991452 72.676941 
L 60.841172 72.579296 
L 59.690891 72.475348 
L 58.540611 72.365432 
L 57.390331 72.248737 
L 56.240051 72.134776 
L 55.089771 72.01864 
L 53.939491 71.913435 
L 52.78921 71.810795 
L 51.63893 71.713522 
L 50.48865 71.608333 
L 49.33837 71.49764 
L 48.18809 71.395205 
L 47.037809 71.292919 
L 45.887529 71.199388 
L 44.737249 71.088163 
L 43.586969 70.983621 
L 42.436689 70.872778 
L 41.286409 70.762135 
L 40.136128 70.652339 
L 38.985848 70.539611 
L 37.835568 70.437429 
L 36.685288 70.325949 
L 35.535008 70.220455 
L 34.384727 70.113808 
L 33.234447 69.99759 
L 32.084167 69.892647 
L 30.933887 69.784584 
z
" clip-path="url(#p604bf799f7)" style="fill: #ff8c00; fill-opacity: 0.15"/>
   </g>
   <g id="matplotlib.axis_1">
    <g id="xtick_1">
     <g id="line2d_1">
      <defs>
       <path id="mb4f0b6a999" d="M 0 0 
L 0 3.5 
" style="stroke: #000000; stroke-width: 0.25"/>
      </defs>
      <g>
       <use xlink:href="#mb4f0b6a999" x="34.607362" y="89.218327" style="stroke: #000000; stroke-width: 0.25"/>
      </g>
     </g>
     <g id="text_1">
      <!-- 24 -->
      <g transform="translate(31.826894 97.297233) scale(0.05 -0.05)">
       <defs>
        <path id="ArialMT-32" d="M 3222 541 
L 3222 0 
L 194 0 
Q 188 203 259 391 
Q 375 700 629 1000 
Q 884 1300 1366 1694 
Q 2113 2306 2375 2664 
Q 2638 3022 2638 3341 
Q 2638 3675 2398 3904 
Q 2159 4134 1775 4134 
Q 1369 4134 1125 3890 
Q 881 3647 878 3216 
L 300 3275 
Q 359 3922 746 4261 
Q 1134 4600 1788 4600 
Q 2447 4600 2831 4234 
Q 3216 3869 3216 3328 
Q 3216 3053 3103 2787 
Q 2991 2522 2730 2228 
Q 2469 1934 1863 1422 
Q 1356 997 1212 845 
Q 1069 694 975 541 
L 3222 541 
z
" transform="scale(0.015625)"/>
        <path id="ArialMT-34" d="M 2069 0 
L 2069 1097 
L 81 1097 
L 81 1613 
L 2172 4581 
L 2631 4581 
L 2631 1613 
L 3250 1613 
L 3250 1097 
L 2631 1097 
L 2631 0 
L 2069 0 
z
M 2069 1613 
L 2069 3678 
L 634 1613 
L 2069 1613 
z
" transform="scale(0.015625)"/>
       </defs>
       <use xlink:href="#ArialMT-32"/>
       <use xlink:href="#ArialMT-34" x="55.615234"/>
      </g>
     </g>
    </g>
    <g id="xtick_2">
     <g id="line2d_2">
      <g>
       <use xlink:href="#mb4f0b6a999" x="51.750248" y="89.218327" style="stroke: #000000; stroke-width: 0.25"/>
      </g>
     </g>
     <g id="text_2">
      <!-- 26 -->
      <g transform="translate(48.969779 97.297233) scale(0.05 -0.05)">
       <defs>
        <path id="ArialMT-36" d="M 3184 3459 
L 2625 3416 
Q 2550 3747 2413 3897 
Q 2184 4138 1850 4138 
Q 1581 4138 1378 3988 
Q 1113 3794 959 3422 
Q 806 3050 800 2363 
Q 1003 2672 1297 2822 
Q 1591 2972 1913 2972 
Q 2475 2972 2870 2558 
Q 3266 2144 3266 1488 
Q 3266 1056 3080 686 
Q 2894 316 2569 119 
Q 2244 -78 1831 -78 
Q 1128 -78 684 439 
Q 241 956 241 2144 
Q 241 3472 731 4075 
Q 1159 4600 1884 4600 
Q 2425 4600 2770 4297 
Q 3116 3994 3184 3459 
z
M 888 1484 
Q 888 1194 1011 928 
Q 1134 663 1356 523 
Q 1578 384 1822 384 
Q 2178 384 2434 671 
Q 2691 959 2691 1453 
Q 2691 1928 2437 2201 
Q 2184 2475 1800 2475 
Q 1419 2475 1153 2201 
Q 888 1928 888 1484 
z
" transform="scale(0.015625)"/>
       </defs>
       <use xlink:href="#ArialMT-32"/>
       <use xlink:href="#ArialMT-36" x="55.615234"/>
      </g>
     </g>
    </g>
    <g id="xtick_3">
     <g id="line2d_3">
      <g>
       <use xlink:href="#mb4f0b6a999" x="68.893133" y="89.218327" style="stroke: #000000; stroke-width: 0.25"/>
      </g>
     </g>
     <g id="text_3">
      <!-- 28 -->
      <g transform="translate(66.112664 97.297233) scale(0.05 -0.05)">
       <defs>
        <path id="ArialMT-38" d="M 1131 2484 
Q 781 2613 612 2850 
Q 444 3088 444 3419 
Q 444 3919 803 4259 
Q 1163 4600 1759 4600 
Q 2359 4600 2725 4251 
Q 3091 3903 3091 3403 
Q 3091 3084 2923 2848 
Q 2756 2613 2416 2484 
Q 2838 2347 3058 2040 
Q 3278 1734 3278 1309 
Q 3278 722 2862 322 
Q 2447 -78 1769 -78 
Q 1091 -78 675 323 
Q 259 725 259 1325 
Q 259 1772 486 2073 
Q 713 2375 1131 2484 
z
M 1019 3438 
Q 1019 3113 1228 2906 
Q 1438 2700 1772 2700 
Q 2097 2700 2305 2904 
Q 2513 3109 2513 3406 
Q 2513 3716 2298 3927 
Q 2084 4138 1766 4138 
Q 1444 4138 1231 3931 
Q 1019 3725 1019 3438 
z
M 838 1322 
Q 838 1081 952 856 
Q 1066 631 1291 507 
Q 1516 384 1775 384 
Q 2178 384 2440 643 
Q 2703 903 2703 1303 
Q 2703 1709 2433 1975 
Q 2163 2241 1756 2241 
Q 1359 2241 1098 1978 
Q 838 1716 838 1322 
z
" transform="scale(0.015625)"/>
       </defs>
       <use xlink:href="#ArialMT-32"/>
       <use xlink:href="#ArialMT-38" x="55.615234"/>
      </g>
     </g>
    </g>
    <g id="xtick_4">
     <g id="line2d_4">
      <g>
       <use xlink:href="#mb4f0b6a999" x="86.036018" y="89.218327" style="stroke: #000000; stroke-width: 0.25"/>
      </g>
     </g>
     <g id="text_4">
      <!-- 30 -->
      <g transform="translate(83.255549 97.297233) scale(0.05 -0.05)">
       <defs>
        <path id="ArialMT-33" d="M 269 1209 
L 831 1284 
Q 928 806 1161 595 
Q 1394 384 1728 384 
Q 2125 384 2398 659 
Q 2672 934 2672 1341 
Q 2672 1728 2419 1979 
Q 2166 2231 1775 2231 
Q 1616 2231 1378 2169 
L 1441 2663 
Q 1497 2656 1531 2656 
Q 1891 2656 2178 2843 
Q 2466 3031 2466 3422 
Q 2466 3731 2256 3934 
Q 2047 4138 1716 4138 
Q 1388 4138 1169 3931 
Q 950 3725 888 3313 
L 325 3413 
Q 428 3978 793 4289 
Q 1159 4600 1703 4600 
Q 2078 4600 2393 4439 
Q 2709 4278 2876 4000 
Q 3044 3722 3044 3409 
Q 3044 3113 2884 2869 
Q 2725 2625 2413 2481 
Q 2819 2388 3044 2092 
Q 3269 1797 3269 1353 
Q 3269 753 2831 336 
Q 2394 -81 1725 -81 
Q 1122 -81 723 278 
Q 325 638 269 1209 
z
" transform="scale(0.015625)"/>
        <path id="ArialMT-30" d="M 266 2259 
Q 266 3072 433 3567 
Q 600 4063 929 4331 
Q 1259 4600 1759 4600 
Q 2128 4600 2406 4451 
Q 2684 4303 2865 4023 
Q 3047 3744 3150 3342 
Q 3253 2941 3253 2259 
Q 3253 1453 3087 958 
Q 2922 463 2592 192 
Q 2263 -78 1759 -78 
Q 1097 -78 719 397 
Q 266 969 266 2259 
z
M 844 2259 
Q 844 1131 1108 757 
Q 1372 384 1759 384 
Q 2147 384 2411 759 
Q 2675 1134 2675 2259 
Q 2675 3391 2411 3762 
Q 2147 4134 1753 4134 
Q 1366 4134 1134 3806 
Q 844 3388 844 2259 
z
" transform="scale(0.015625)"/>
       </defs>
       <use xlink:href="#ArialMT-33"/>
       <use xlink:href="#ArialMT-30" x="55.615234"/>
      </g>
     </g>
    </g>
    <g id="xtick_5">
     <g id="line2d_5">
      <g>
       <use xlink:href="#mb4f0b6a999" x="103.178903" y="89.218327" style="stroke: #000000; stroke-width: 0.25"/>
      </g>
     </g>
     <g id="text_5">
      <!-- 32 -->
      <g transform="translate(100.398435 97.297233) scale(0.05 -0.05)">
       <use xlink:href="#ArialMT-33"/>
       <use xlink:href="#ArialMT-32" x="55.615234"/>
      </g>
     </g>
    </g>
    <g id="xtick_6">
     <g id="line2d_6">
      <g>
       <use xlink:href="#mb4f0b6a999" x="120.321789" y="89.218327" style="stroke: #000000; stroke-width: 0.25"/>
      </g>
     </g>
     <g id="text_6">
      <!-- 34 -->
      <g transform="translate(117.54132 97.297233) scale(0.05 -0.05)">
       <use xlink:href="#ArialMT-33"/>
       <use xlink:href="#ArialMT-34" x="55.615234"/>
      </g>
     </g>
    </g>
    <g id="xtick_7">
     <g id="line2d_7">
      <g>
       <use xlink:href="#mb4f0b6a999" x="137.464674" y="89.218327" style="stroke: #000000; stroke-width: 0.25"/>
      </g>
     </g>
     <g id="text_7">
      <!-- 36 -->
      <g transform="translate(134.684205 97.297233) scale(0.05 -0.05)">
       <use xlink:href="#ArialMT-33"/>
       <use xlink:href="#ArialMT-36" x="55.615234"/>
      </g>
     </g>
    </g>
    <g id="text_8">
     <!-- Gestational age [weeks] -->
     <g transform="translate(55.856193 106.658796) scale(0.06 -0.06)">
      <defs>
       <path id="ArialMT-47" d="M 2638 1797 
L 2638 2334 
L 4578 2338 
L 4578 638 
Q 4131 281 3656 101 
Q 3181 -78 2681 -78 
Q 2006 -78 1454 211 
Q 903 500 622 1047 
Q 341 1594 341 2269 
Q 341 2938 620 3517 
Q 900 4097 1425 4378 
Q 1950 4659 2634 4659 
Q 3131 4659 3532 4498 
Q 3934 4338 4162 4050 
Q 4391 3763 4509 3300 
L 3963 3150 
Q 3859 3500 3706 3700 
Q 3553 3900 3268 4020 
Q 2984 4141 2638 4141 
Q 2222 4141 1919 4014 
Q 1616 3888 1430 3681 
Q 1244 3475 1141 3228 
Q 966 2803 966 2306 
Q 966 1694 1177 1281 
Q 1388 869 1791 669 
Q 2194 469 2647 469 
Q 3041 469 3416 620 
Q 3791 772 3984 944 
L 3984 1797 
L 2638 1797 
z
" transform="scale(0.015625)"/>
       <path id="ArialMT-65" d="M 2694 1069 
L 3275 997 
Q 3138 488 2766 206 
Q 2394 -75 1816 -75 
Q 1088 -75 661 373 
Q 234 822 234 1631 
Q 234 2469 665 2931 
Q 1097 3394 1784 3394 
Q 2450 3394 2872 2941 
Q 3294 2488 3294 1666 
Q 3294 1616 3291 1516 
L 816 1516 
Q 847 969 1125 678 
Q 1403 388 1819 388 
Q 2128 388 2347 550 
Q 2566 713 2694 1069 
z
M 847 1978 
L 2700 1978 
Q 2663 2397 2488 2606 
Q 2219 2931 1791 2931 
Q 1403 2931 1139 2672 
Q 875 2413 847 1978 
z
" transform="scale(0.015625)"/>
       <path id="ArialMT-73" d="M 197 991 
L 753 1078 
Q 800 744 1014 566 
Q 1228 388 1613 388 
Q 2000 388 2187 545 
Q 2375 703 2375 916 
Q 2375 1106 2209 1216 
Q 2094 1291 1634 1406 
Q 1016 1563 777 1677 
Q 538 1791 414 1992 
Q 291 2194 291 2438 
Q 291 2659 392 2848 
Q 494 3038 669 3163 
Q 800 3259 1026 3326 
Q 1253 3394 1513 3394 
Q 1903 3394 2198 3281 
Q 2494 3169 2634 2976 
Q 2775 2784 2828 2463 
L 2278 2388 
Q 2241 2644 2061 2787 
Q 1881 2931 1553 2931 
Q 1166 2931 1000 2803 
Q 834 2675 834 2503 
Q 834 2394 903 2306 
Q 972 2216 1119 2156 
Q 1203 2125 1616 2013 
Q 2213 1853 2448 1751 
Q 2684 1650 2818 1456 
Q 2953 1263 2953 975 
Q 2953 694 2789 445 
Q 2625 197 2315 61 
Q 2006 -75 1616 -75 
Q 969 -75 630 194 
Q 291 463 197 991 
z
" transform="scale(0.015625)"/>
       <path id="ArialMT-74" d="M 1650 503 
L 1731 6 
Q 1494 -44 1306 -44 
Q 1000 -44 831 53 
Q 663 150 594 308 
Q 525 466 525 972 
L 525 2881 
L 113 2881 
L 113 3319 
L 525 3319 
L 525 4141 
L 1084 4478 
L 1084 3319 
L 1650 3319 
L 1650 2881 
L 1084 2881 
L 1084 941 
Q 1084 700 1114 631 
Q 1144 563 1211 522 
Q 1278 481 1403 481 
Q 1497 481 1650 503 
z
" transform="scale(0.015625)"/>
       <path id="ArialMT-61" d="M 2588 409 
Q 2275 144 1986 34 
Q 1697 -75 1366 -75 
Q 819 -75 525 192 
Q 231 459 231 875 
Q 231 1119 342 1320 
Q 453 1522 633 1644 
Q 813 1766 1038 1828 
Q 1203 1872 1538 1913 
Q 2219 1994 2541 2106 
Q 2544 2222 2544 2253 
Q 2544 2597 2384 2738 
Q 2169 2928 1744 2928 
Q 1347 2928 1158 2789 
Q 969 2650 878 2297 
L 328 2372 
Q 403 2725 575 2942 
Q 747 3159 1072 3276 
Q 1397 3394 1825 3394 
Q 2250 3394 2515 3294 
Q 2781 3194 2906 3042 
Q 3031 2891 3081 2659 
Q 3109 2516 3109 2141 
L 3109 1391 
Q 3109 606 3145 398 
Q 3181 191 3288 0 
L 2700 0 
Q 2613 175 2588 409 
z
M 2541 1666 
Q 2234 1541 1622 1453 
Q 1275 1403 1131 1340 
Q 988 1278 909 1158 
Q 831 1038 831 891 
Q 831 666 1001 516 
Q 1172 366 1500 366 
Q 1825 366 2078 508 
Q 2331 650 2450 897 
Q 2541 1088 2541 1459 
L 2541 1666 
z
" transform="scale(0.015625)"/>
       <path id="ArialMT-69" d="M 425 3934 
L 425 4581 
L 988 4581 
L 988 3934 
L 425 3934 
z
M 425 0 
L 425 3319 
L 988 3319 
L 988 0 
L 425 0 
z
" transform="scale(0.015625)"/>
       <path id="ArialMT-6f" d="M 213 1659 
Q 213 2581 725 3025 
Q 1153 3394 1769 3394 
Q 2453 3394 2887 2945 
Q 3322 2497 3322 1706 
Q 3322 1066 3130 698 
Q 2938 331 2570 128 
Q 2203 -75 1769 -75 
Q 1072 -75 642 372 
Q 213 819 213 1659 
z
M 791 1659 
Q 791 1022 1069 705 
Q 1347 388 1769 388 
Q 2188 388 2466 706 
Q 2744 1025 2744 1678 
Q 2744 2294 2464 2611 
Q 2184 2928 1769 2928 
Q 1347 2928 1069 2612 
Q 791 2297 791 1659 
z
" transform="scale(0.015625)"/>
       <path id="ArialMT-6e" d="M 422 0 
L 422 3319 
L 928 3319 
L 928 2847 
Q 1294 3394 1984 3394 
Q 2284 3394 2536 3286 
Q 2788 3178 2913 3003 
Q 3038 2828 3088 2588 
Q 3119 2431 3119 2041 
L 3119 0 
L 2556 0 
L 2556 2019 
Q 2556 2363 2490 2533 
Q 2425 2703 2258 2804 
Q 2091 2906 1866 2906 
Q 1506 2906 1245 2678 
Q 984 2450 984 1813 
L 984 0 
L 422 0 
z
" transform="scale(0.015625)"/>
       <path id="ArialMT-6c" d="M 409 0 
L 409 4581 
L 972 4581 
L 972 0 
L 409 0 
z
" transform="scale(0.015625)"/>
       <path id="ArialMT-20" transform="scale(0.015625)"/>
       <path id="ArialMT-67" d="M 319 -275 
L 866 -356 
Q 900 -609 1056 -725 
Q 1266 -881 1628 -881 
Q 2019 -881 2231 -725 
Q 2444 -569 2519 -288 
Q 2563 -116 2559 434 
Q 2191 0 1641 0 
Q 956 0 581 494 
Q 206 988 206 1678 
Q 206 2153 378 2554 
Q 550 2956 876 3175 
Q 1203 3394 1644 3394 
Q 2231 3394 2613 2919 
L 2613 3319 
L 3131 3319 
L 3131 450 
Q 3131 -325 2973 -648 
Q 2816 -972 2473 -1159 
Q 2131 -1347 1631 -1347 
Q 1038 -1347 672 -1080 
Q 306 -813 319 -275 
z
M 784 1719 
Q 784 1066 1043 766 
Q 1303 466 1694 466 
Q 2081 466 2343 764 
Q 2606 1063 2606 1700 
Q 2606 2309 2336 2618 
Q 2066 2928 1684 2928 
Q 1309 2928 1046 2623 
Q 784 2319 784 1719 
z
" transform="scale(0.015625)"/>
       <path id="ArialMT-5b" d="M 434 -1272 
L 434 4581 
L 1675 4581 
L 1675 4116 
L 997 4116 
L 997 -806 
L 1675 -806 
L 1675 -1272 
L 434 -1272 
z
" transform="scale(0.015625)"/>
       <path id="ArialMT-77" d="M 1034 0 
L 19 3319 
L 600 3319 
L 1128 1403 
L 1325 691 
Q 1338 744 1497 1375 
L 2025 3319 
L 2603 3319 
L 3100 1394 
L 3266 759 
L 3456 1400 
L 4025 3319 
L 4572 3319 
L 3534 0 
L 2950 0 
L 2422 1988 
L 2294 2553 
L 1622 0 
L 1034 0 
z
" transform="scale(0.015625)"/>
       <path id="ArialMT-6b" d="M 425 0 
L 425 4581 
L 988 4581 
L 988 1969 
L 2319 3319 
L 3047 3319 
L 1778 2088 
L 3175 0 
L 2481 0 
L 1384 1697 
L 988 1316 
L 988 0 
L 425 0 
z
" transform="scale(0.015625)"/>
       <path id="ArialMT-5d" d="M 1363 -1272 
L 122 -1272 
L 122 -806 
L 800 -806 
L 800 4116 
L 122 4116 
L 122 4581 
L 1363 4581 
L 1363 -1272 
z
" transform="scale(0.015625)"/>
      </defs>
      <use xlink:href="#ArialMT-47"/>
      <use xlink:href="#ArialMT-65" x="77.783203"/>
      <use xlink:href="#ArialMT-73" x="133.398438"/>
      <use xlink:href="#ArialMT-74" x="183.398438"/>
      <use xlink:href="#ArialMT-61" x="211.181641"/>
      <use xlink:href="#ArialMT-74" x="266.796875"/>
      <use xlink:href="#ArialMT-69" x="294.580078"/>
      <use xlink:href="#ArialMT-6f" x="316.796875"/>
      <use xlink:href="#ArialMT-6e" x="372.412109"/>
      <use xlink:href="#ArialMT-61" x="428.027344"/>
      <use xlink:href="#ArialMT-6c" x="483.642578"/>
      <use xlink:href="#ArialMT-20" x="505.859375"/>
      <use xlink:href="#ArialMT-61" x="533.642578"/>
      <use xlink:href="#ArialMT-67" x="589.257812"/>
      <use xlink:href="#ArialMT-65" x="644.873047"/>
      <use xlink:href="#ArialMT-20" x="700.488281"/>
      <use xlink:href="#ArialMT-5b" x="728.271484"/>
      <use xlink:href="#ArialMT-77" x="756.054688"/>
      <use xlink:href="#ArialMT-65" x="828.271484"/>
      <use xlink:href="#ArialMT-65" x="883.886719"/>
      <use xlink:href="#ArialMT-6b" x="939.501953"/>
      <use xlink:href="#ArialMT-73" x="989.501953"/>
      <use xlink:href="#ArialMT-5d" x="1039.501953"/>
     </g>
    </g>
   </g>
   <g id="matplotlib.axis_2">
    <g id="ytick_1">
     <g id="line2d_8">
      <defs>
       <path id="mda0809e655" d="M 0 0 
L -3.5 0 
" style="stroke: #000000; stroke-width: 0.25"/>
      </defs>
      <g>
       <use xlink:href="#mda0809e655" x="25.24" y="85.408403" style="stroke: #000000; stroke-width: 0.25"/>
      </g>
     </g>
     <g id="text_9">
      <!-- 0 -->
      <g transform="translate(17.959531 87.197856) scale(0.05 -0.05)">
       <use xlink:href="#ArialMT-30"/>
      </g>
     </g>
    </g>
    <g id="ytick_2">
     <g id="line2d_9">
      <g>
       <use xlink:href="#mda0809e655" x="25.24" y="71.801532" style="stroke: #000000; stroke-width: 0.25"/>
      </g>
     </g>
     <g id="text_10">
      <!-- 5 -->
      <g transform="translate(17.959531 73.590985) scale(0.05 -0.05)">
       <defs>
        <path id="ArialMT-35" d="M 266 1200 
L 856 1250 
Q 922 819 1161 601 
Q 1400 384 1738 384 
Q 2144 384 2425 690 
Q 2706 997 2706 1503 
Q 2706 1984 2436 2262 
Q 2166 2541 1728 2541 
Q 1456 2541 1237 2417 
Q 1019 2294 894 2097 
L 366 2166 
L 809 4519 
L 3088 4519 
L 3088 3981 
L 1259 3981 
L 1013 2750 
Q 1425 3038 1878 3038 
Q 2478 3038 2890 2622 
Q 3303 2206 3303 1553 
Q 3303 931 2941 478 
Q 2500 -78 1738 -78 
Q 1113 -78 717 272 
Q 322 622 266 1200 
z
" transform="scale(0.015625)"/>
       </defs>
       <use xlink:href="#ArialMT-35"/>
      </g>
     </g>
    </g>
    <g id="ytick_3">
     <g id="line2d_10">
      <g>
       <use xlink:href="#mda0809e655" x="25.24" y="58.19466" style="stroke: #000000; stroke-width: 0.25"/>
      </g>
     </g>
     <g id="text_11">
      <!-- 10 -->
      <g transform="translate(15.179063 59.984113) scale(0.05 -0.05)">
       <defs>
        <path id="ArialMT-31" d="M 2384 0 
L 1822 0 
L 1822 3584 
Q 1619 3391 1289 3197 
Q 959 3003 697 2906 
L 697 3450 
Q 1169 3672 1522 3987 
Q 1875 4303 2022 4600 
L 2384 4600 
L 2384 0 
z
" transform="scale(0.015625)"/>
       </defs>
       <use xlink:href="#ArialMT-31"/>
       <use xlink:href="#ArialMT-30" x="55.615234"/>
      </g>
     </g>
    </g>
    <g id="ytick_4">
     <g id="line2d_11">
      <g>
       <use xlink:href="#mda0809e655" x="25.24" y="44.587789" style="stroke: #000000; stroke-width: 0.25"/>
      </g>
     </g>
     <g id="text_12">
      <!-- 15 -->
      <g transform="translate(15.179063 46.377242) scale(0.05 -0.05)">
       <use xlink:href="#ArialMT-31"/>
       <use xlink:href="#ArialMT-35" x="55.615234"/>
      </g>
     </g>
    </g>
    <g id="ytick_5">
     <g id="line2d_12">
      <g>
       <use xlink:href="#mda0809e655" x="25.24" y="30.980918" style="stroke: #000000; stroke-width: 0.25"/>
      </g>
     </g>
     <g id="text_13">
      <!-- 20 -->
      <g transform="translate(15.179063 32.770371) scale(0.05 -0.05)">
       <use xlink:href="#ArialMT-32"/>
       <use xlink:href="#ArialMT-30" x="55.615234"/>
      </g>
     </g>
    </g>
    <g id="ytick_6">
     <g id="line2d_13">
      <g>
       <use xlink:href="#mda0809e655" x="25.24" y="17.374047" style="stroke: #000000; stroke-width: 0.25"/>
      </g>
     </g>
     <g id="text_14">
      <!-- 25 -->
      <g transform="translate(15.179063 19.1635) scale(0.05 -0.05)">
       <use xlink:href="#ArialMT-32"/>
       <use xlink:href="#ArialMT-35" x="55.615234"/>
      </g>
     </g>
    </g>
    <g id="text_15">
     <!-- Number supranormal regions -->
     <g transform="translate(9.91625 86.15682) rotate(-90) scale(0.06 -0.06)">
      <defs>
       <path id="ArialMT-4e" d="M 488 0 
L 488 4581 
L 1109 4581 
L 3516 984 
L 3516 4581 
L 4097 4581 
L 4097 0 
L 3475 0 
L 1069 3600 
L 1069 0 
L 488 0 
z
" transform="scale(0.015625)"/>
       <path id="ArialMT-75" d="M 2597 0 
L 2597 488 
Q 2209 -75 1544 -75 
Q 1250 -75 995 37 
Q 741 150 617 320 
Q 494 491 444 738 
Q 409 903 409 1263 
L 409 3319 
L 972 3319 
L 972 1478 
Q 972 1038 1006 884 
Q 1059 663 1231 536 
Q 1403 409 1656 409 
Q 1909 409 2131 539 
Q 2353 669 2445 892 
Q 2538 1116 2538 1541 
L 2538 3319 
L 3100 3319 
L 3100 0 
L 2597 0 
z
" transform="scale(0.015625)"/>
       <path id="ArialMT-6d" d="M 422 0 
L 422 3319 
L 925 3319 
L 925 2853 
Q 1081 3097 1340 3245 
Q 1600 3394 1931 3394 
Q 2300 3394 2536 3241 
Q 2772 3088 2869 2813 
Q 3263 3394 3894 3394 
Q 4388 3394 4653 3120 
Q 4919 2847 4919 2278 
L 4919 0 
L 4359 0 
L 4359 2091 
Q 4359 2428 4304 2576 
Q 4250 2725 4106 2815 
Q 3963 2906 3769 2906 
Q 3419 2906 3187 2673 
Q 2956 2441 2956 1928 
L 2956 0 
L 2394 0 
L 2394 2156 
Q 2394 2531 2256 2718 
Q 2119 2906 1806 2906 
Q 1569 2906 1367 2781 
Q 1166 2656 1075 2415 
Q 984 2175 984 1722 
L 984 0 
L 422 0 
z
" transform="scale(0.015625)"/>
       <path id="ArialMT-62" d="M 941 0 
L 419 0 
L 419 4581 
L 981 4581 
L 981 2947 
Q 1338 3394 1891 3394 
Q 2197 3394 2470 3270 
Q 2744 3147 2920 2923 
Q 3097 2700 3197 2384 
Q 3297 2069 3297 1709 
Q 3297 856 2875 390 
Q 2453 -75 1863 -75 
Q 1275 -75 941 416 
L 941 0 
z
M 934 1684 
Q 934 1088 1097 822 
Q 1363 388 1816 388 
Q 2184 388 2453 708 
Q 2722 1028 2722 1663 
Q 2722 2313 2464 2622 
Q 2206 2931 1841 2931 
Q 1472 2931 1203 2611 
Q 934 2291 934 1684 
z
" transform="scale(0.015625)"/>
       <path id="ArialMT-72" d="M 416 0 
L 416 3319 
L 922 3319 
L 922 2816 
Q 1116 3169 1280 3281 
Q 1444 3394 1641 3394 
Q 1925 3394 2219 3213 
L 2025 2691 
Q 1819 2813 1613 2813 
Q 1428 2813 1281 2702 
Q 1134 2591 1072 2394 
Q 978 2094 978 1738 
L 978 0 
L 416 0 
z
" transform="scale(0.015625)"/>
       <path id="ArialMT-70" d="M 422 -1272 
L 422 3319 
L 934 3319 
L 934 2888 
Q 1116 3141 1344 3267 
Q 1572 3394 1897 3394 
Q 2322 3394 2647 3175 
Q 2972 2956 3137 2557 
Q 3303 2159 3303 1684 
Q 3303 1175 3120 767 
Q 2938 359 2589 142 
Q 2241 -75 1856 -75 
Q 1575 -75 1351 44 
Q 1128 163 984 344 
L 984 -1272 
L 422 -1272 
z
M 931 1641 
Q 931 1000 1190 694 
Q 1450 388 1819 388 
Q 2194 388 2461 705 
Q 2728 1022 2728 1688 
Q 2728 2322 2467 2637 
Q 2206 2953 1844 2953 
Q 1484 2953 1207 2617 
Q 931 2281 931 1641 
z
" transform="scale(0.015625)"/>
      </defs>
      <use xlink:href="#ArialMT-4e"/>
      <use xlink:href="#ArialMT-75" x="72.216797"/>
      <use xlink:href="#ArialMT-6d" x="127.832031"/>
      <use xlink:href="#ArialMT-62" x="211.132812"/>
      <use xlink:href="#ArialMT-65" x="266.748047"/>
      <use xlink:href="#ArialMT-72" x="322.363281"/>
      <use xlink:href="#ArialMT-20" x="355.664062"/>
      <use xlink:href="#ArialMT-73" x="383.447266"/>
      <use xlink:href="#ArialMT-75" x="433.447266"/>
      <use xlink:href="#ArialMT-70" x="489.0625"/>
      <use xlink:href="#ArialMT-72" x="544.677734"/>
      <use xlink:href="#ArialMT-61" x="577.978516"/>
      <use xlink:href="#ArialMT-6e" x="633.59375"/>
      <use xlink:href="#ArialMT-6f" x="689.208984"/>
      <use xlink:href="#ArialMT-72" x="744.824219"/>
      <use xlink:href="#ArialMT-6d" x="778.125"/>
      <use xlink:href="#ArialMT-61" x="861.425781"/>
      <use xlink:href="#ArialMT-6c" x="917.041016"/>
      <use xlink:href="#ArialMT-20" x="939.257812"/>
      <use xlink:href="#ArialMT-72" x="967.041016"/>
      <use xlink:href="#ArialMT-65" x="1000.341797"/>
      <use xlink:href="#ArialMT-67" x="1055.957031"/>
      <use xlink:href="#ArialMT-69" x="1111.572266"/>
      <use xlink:href="#ArialMT-6f" x="1133.789062"/>
      <use xlink:href="#ArialMT-6e" x="1189.404297"/>
      <use xlink:href="#ArialMT-73" x="1245.019531"/>
     </g>
    </g>
   </g>
   <g id="line2d_14">
    <path d="M 30.933887 73.806125 
L 32.084167 73.867463 
L 33.234447 73.928801 
L 34.384727 73.990139 
L 35.535008 74.051478 
L 36.685288 74.112816 
L 37.835568 74.174154 
L 38.985848 74.235493 
L 40.136128 74.296831 
L 41.286409 74.358169 
L 42.436689 74.419508 
L 43.586969 74.480846 
L 44.737249 74.542184 
L 45.887529 74.603523 
L 47.037809 74.664861 
L 48.18809 74.726199 
L 49.33837 74.787538 
L 50.48865 74.848876 
L 51.63893 74.910214 
L 52.78921 74.971552 
L 53.939491 75.032891 
L 55.089771 75.094229 
L 56.240051 75.155567 
L 57.390331 75.216906 
L 58.540611 75.278244 
L 59.690891 75.339582 
L 60.841172 75.400921 
L 61.991452 75.462259 
L 63.141732 75.523597 
L 64.292012 75.584936 
L 65.442292 75.646274 
L 66.592573 75.707612 
L 67.742853 75.768951 
L 68.893133 75.830289 
L 70.043413 75.891627 
L 71.193693 75.952966 
L 72.343973 76.014304 
L 73.494254 76.075642 
L 74.644534 76.13698 
L 75.794814 76.198319 
L 76.945094 76.259657 
L 78.095374 76.320995 
L 79.245655 76.382334 
L 80.395935 76.443672 
L 81.546215 76.50501 
L 82.696495 76.566349 
L 83.846775 76.627687 
L 84.997055 76.689025 
L 86.147336 76.750364 
L 87.297616 76.811702 
L 88.447896 76.87304 
L 89.598176 76.934379 
L 90.748456 76.995717 
L 91.898737 77.057055 
L 93.049017 77.118394 
L 94.199297 77.179732 
L 95.349577 77.24107 
L 96.499857 77.302408 
L 97.650137 77.363747 
L 98.800418 77.425085 
L 99.950698 77.486423 
L 101.100978 77.547762 
L 102.251258 77.6091 
L 103.401538 77.670438 
L 104.551819 77.731777 
L 105.702099 77.793115 
L 106.852379 77.854453 
L 108.002659 77.915792 
L 109.152939 77.97713 
L 110.303219 78.038468 
L 111.4535 78.099807 
L 112.60378 78.161145 
L 113.75406 78.222483 
L 114.90434 78.283822 
L 116.05462 78.34516 
L 117.204901 78.406498 
L 118.355181 78.467836 
L 119.505461 78.529175 
L 120.655741 78.590513 
L 121.806021 78.651851 
L 122.956301 78.71319 
L 124.106582 78.774528 
L 125.256862 78.835866 
L 126.407142 78.897205 
L 127.557422 78.958543 
L 128.707702 79.019881 
L 129.857983 79.08122 
L 131.008263 79.142558 
L 132.158543 79.203896 
L 133.308823 79.265235 
L 134.459103 79.326573 
L 135.609383 79.387911 
L 136.759664 79.44925 
L 137.909944 79.510588 
L 139.060224 79.571926 
L 140.210504 79.633264 
L 141.360784 79.694603 
L 142.511065 79.755941 
L 143.661345 79.817279 
L 144.811625 79.878618 
" clip-path="url(#p604bf799f7)" style="fill: none; stroke: #ff8c00; stroke-width: 0.75; stroke-linecap: square"/>
   </g>
   <g id="patch_3">
    <path d="M 25.24 89.218327 
L 25.24 5.4 
" style="fill: none; stroke: #000000; stroke-width: 0.25; stroke-linejoin: miter; stroke-linecap: square"/>
   </g>
   <g id="patch_4">
    <path d="M 25.24 89.218327 
L 150.505512 89.218327 
" style="fill: none; stroke: #000000; stroke-width: 0.25; stroke-linejoin: miter; stroke-linecap: square"/>
   </g>
   <g id="text_16">
    <g id="patch_5">
     <path d="M 28.997965 18.699023 
L 57.397965 18.699023 
Q 58.897965 18.699023 58.897965 17.199023 
L 58.897965 7.132617 
Q 58.897965 5.632617 57.397965 5.632617 
L 28.997965 5.632617 
Q 27.497965 5.632617 27.497965 7.132617 
L 27.497965 17.199023 
Q 27.497965 18.699023 28.997965 18.699023 
z
" style="fill: #c0c0c0; opacity: 0.4; stroke: #c0c0c0; stroke-linejoin: miter"/>
    </g>
    <!-- $r=-0.255$ -->
    <g transform="translate(28.997965 10.655273) scale(0.05 -0.05)">
     <defs>
      <path id="DejaVuSans-Oblique-72" d="M 2853 2969 
Q 2766 3016 2653 3041 
Q 2541 3066 2413 3066 
Q 1953 3066 1609 2717 
Q 1266 2369 1153 1784 
L 800 0 
L 225 0 
L 909 3500 
L 1484 3500 
L 1375 2956 
Q 1603 3259 1920 3421 
Q 2238 3584 2597 3584 
Q 2691 3584 2781 3573 
Q 2872 3563 2963 3538 
L 2853 2969 
z
" transform="scale(0.015625)"/>
      <path id="DejaVuSans-3d" d="M 678 2906 
L 4684 2906 
L 4684 2381 
L 678 2381 
L 678 2906 
z
M 678 1631 
L 4684 1631 
L 4684 1100 
L 678 1100 
L 678 1631 
z
" transform="scale(0.015625)"/>
      <path id="DejaVuSans-2212" d="M 678 2272 
L 4684 2272 
L 4684 1741 
L 678 1741 
L 678 2272 
z
" transform="scale(0.015625)"/>
      <path id="DejaVuSans-30" d="M 2034 4250 
Q 1547 4250 1301 3770 
Q 1056 3291 1056 2328 
Q 1056 1369 1301 889 
Q 1547 409 2034 409 
Q 2525 409 2770 889 
Q 3016 1369 3016 2328 
Q 3016 3291 2770 3770 
Q 2525 4250 2034 4250 
z
M 2034 4750 
Q 2819 4750 3233 4129 
Q 3647 3509 3647 2328 
Q 3647 1150 3233 529 
Q 2819 -91 2034 -91 
Q 1250 -91 836 529 
Q 422 1150 422 2328 
Q 422 3509 836 4129 
Q 1250 4750 2034 4750 
z
" transform="scale(0.015625)"/>
      <path id="DejaVuSans-2e" d="M 684 794 
L 1344 794 
L 1344 0 
L 684 0 
L 684 794 
z
" transform="scale(0.015625)"/>
      <path id="DejaVuSans-32" d="M 1228 531 
L 3431 531 
L 3431 0 
L 469 0 
L 469 531 
Q 828 903 1448 1529 
Q 2069 2156 2228 2338 
Q 2531 2678 2651 2914 
Q 2772 3150 2772 3378 
Q 2772 3750 2511 3984 
Q 2250 4219 1831 4219 
Q 1534 4219 1204 4116 
Q 875 4013 500 3803 
L 500 4441 
Q 881 4594 1212 4672 
Q 1544 4750 1819 4750 
Q 2544 4750 2975 4387 
Q 3406 4025 3406 3419 
Q 3406 3131 3298 2873 
Q 3191 2616 2906 2266 
Q 2828 2175 2409 1742 
Q 1991 1309 1228 531 
z
" transform="scale(0.015625)"/>
      <path id="DejaVuSans-35" d="M 691 4666 
L 3169 4666 
L 3169 4134 
L 1269 4134 
L 1269 2991 
Q 1406 3038 1543 3061 
Q 1681 3084 1819 3084 
Q 2600 3084 3056 2656 
Q 3513 2228 3513 1497 
Q 3513 744 3044 326 
Q 2575 -91 1722 -91 
Q 1428 -91 1123 -41 
Q 819 9 494 109 
L 494 744 
Q 775 591 1075 516 
Q 1375 441 1709 441 
Q 2250 441 2565 725 
Q 2881 1009 2881 1497 
Q 2881 1984 2565 2268 
Q 2250 2553 1709 2553 
Q 1456 2553 1204 2497 
Q 953 2441 691 2322 
L 691 4666 
z
" transform="scale(0.015625)"/>
     </defs>
     <use xlink:href="#DejaVuSans-Oblique-72" transform="translate(0 0.78125)"/>
     <use xlink:href="#DejaVuSans-3d" transform="translate(60.595703 0.78125)"/>
     <use xlink:href="#DejaVuSans-2212" transform="translate(183.349609 0.78125)"/>
     <use xlink:href="#DejaVuSans-30" transform="translate(286.621094 0.78125)"/>
     <use xlink:href="#DejaVuSans-2e" transform="translate(350.244141 0.78125)"/>
     <use xlink:href="#DejaVuSans-32" transform="translate(376.53125 0.78125)"/>
     <use xlink:href="#DejaVuSans-35" transform="translate(440.154297 0.78125)"/>
     <use xlink:href="#DejaVuSans-35" transform="translate(503.777344 0.78125)"/>
    </g>
    <!-- $p=0.003$ -->
    <g transform="translate(28.997965 16.149023) scale(0.05 -0.05)">
     <defs>
      <path id="DejaVuSans-Oblique-70" d="M 3175 2156 
Q 3175 2616 2975 2859 
Q 2775 3103 2400 3103 
Q 2144 3103 1911 2972 
Q 1678 2841 1497 2591 
Q 1319 2344 1212 1994 
Q 1106 1644 1106 1300 
Q 1106 863 1306 627 
Q 1506 391 1875 391 
Q 2147 391 2380 519 
Q 2613 647 2778 891 
Q 2956 1147 3065 1494 
Q 3175 1841 3175 2156 
z
M 1394 2969 
Q 1625 3272 1939 3428 
Q 2253 3584 2638 3584 
Q 3175 3584 3472 3232 
Q 3769 2881 3769 2247 
Q 3769 1728 3584 1258 
Q 3400 788 3053 416 
Q 2822 169 2531 39 
Q 2241 -91 1919 -91 
Q 1547 -91 1294 64 
Q 1041 219 916 525 
L 556 -1331 
L -19 -1331 
L 922 3500 
L 1497 3500 
L 1394 2969 
z
" transform="scale(0.015625)"/>
      <path id="DejaVuSans-33" d="M 2597 2516 
Q 3050 2419 3304 2112 
Q 3559 1806 3559 1356 
Q 3559 666 3084 287 
Q 2609 -91 1734 -91 
Q 1441 -91 1130 -33 
Q 819 25 488 141 
L 488 750 
Q 750 597 1062 519 
Q 1375 441 1716 441 
Q 2309 441 2620 675 
Q 2931 909 2931 1356 
Q 2931 1769 2642 2001 
Q 2353 2234 1838 2234 
L 1294 2234 
L 1294 2753 
L 1863 2753 
Q 2328 2753 2575 2939 
Q 2822 3125 2822 3475 
Q 2822 3834 2567 4026 
Q 2313 4219 1838 4219 
Q 1578 4219 1281 4162 
Q 984 4106 628 3988 
L 628 4550 
Q 988 4650 1302 4700 
Q 1616 4750 1894 4750 
Q 2613 4750 3031 4423 
Q 3450 4097 3450 3541 
Q 3450 3153 3228 2886 
Q 3006 2619 2597 2516 
z
" transform="scale(0.015625)"/>
     </defs>
     <use xlink:href="#DejaVuSans-Oblique-70" transform="translate(0 0.78125)"/>
     <use xlink:href="#DejaVuSans-3d" transform="translate(82.958984 0.78125)"/>
     <use xlink:href="#DejaVuSans-30" transform="translate(186.230469 0.78125)"/>
     <use xlink:href="#DejaVuSans-2e" transform="translate(249.853516 0.78125)"/>
     <use xlink:href="#DejaVuSans-30" transform="translate(281.640625 0.78125)"/>
     <use xlink:href="#DejaVuSans-30" transform="translate(345.263672 0.78125)"/>
     <use xlink:href="#DejaVuSans-33" transform="translate(408.886719 0.78125)"/>
    </g>
   </g>
  </g>
 </g>
 <defs>
  <clipPath id="p604bf799f7">
   <rect x="25.24" y="5.4" width="125.265512" height="83.818327"/>
  </clipPath>
 </defs>
</svg>
