<?xml version="1.0" encoding="utf-8" standalone="no"?>
<!DOCTYPE svg PUBLIC "-//W3C//DTD SVG 1.1//EN"
  "http://www.w3.org/Graphics/SVG/1.1/DTD/svg11.dtd">
<svg xmlns:xlink="http://www.w3.org/1999/xlink" width="432pt" height="288pt" viewBox="0 0 432 288" xmlns="http://www.w3.org/2000/svg" version="1.1">
 <metadata>
  <rdf:RDF xmlns:dc="http://purl.org/dc/elements/1.1/" xmlns:cc="http://creativecommons.org/ns#" xmlns:rdf="http://www.w3.org/1999/02/22-rdf-syntax-ns#">
   <cc:Work>
    <dc:type rdf:resource="http://purl.org/dc/dcmitype/StillImage"/>
    <dc:date>2024-11-26T15:18:13.458643</dc:date>
    <dc:format>image/svg+xml</dc:format>
    <dc:creator>
     <cc:Agent>
      <dc:title>Matplotlib v3.9.2, https://matplotlib.org/</dc:title>
     </cc:Agent>
    </dc:creator>
   </cc:Work>
  </rdf:RDF>
 </metadata>
 <defs>
  <style type="text/css">*{stroke-linejoin: round; stroke-linecap: butt}</style>
 </defs>
 <g id="figure_1">
  <g id="patch_1">
   <path d="M 0 288 
L 432 288 
L 432 0 
L 0 0 
z
" style="fill: #ffffff"/>
  </g>
  <g id="axes_1">
   <g id="patch_2">
    <path d="M 38.27 246.04 
L 421.2 246.04 
L 421.2 10.8 
L 38.27 10.8 
z
" style="fill: #ffffff"/>
   </g>
   <g id="PathCollection_1">
    <defs>
     <path id="C0_0_23bbfe546f" d="M 0 1.936492 
C 0.513564 1.936492 1.006162 1.732451 1.369306 1.369306 
C 1.732451 1.006162 1.936492 0.513564 1.936492 -0 
C 1.936492 -0.513564 1.732451 -1.006162 1.369306 -1.369306 
C 1.006162 -1.732451 0.513564 -1.936492 0 -1.936492 
C -0.513564 -1.936492 -1.006162 -1.732451 -1.369306 -1.369306 
C -1.732451 -1.006162 -1.936492 -0.513564 -1.936492 0 
C -1.936492 0.513564 -1.732451 1.006162 -1.369306 1.369306 
C -1.006162 1.732451 -0.513564 1.936492 0 1.936492 
z
"/>
    </defs>
    <g clip-path="url(#pd8d3b9e790)">
     <use xlink:href="#C0_0_23bbfe546f" x="368.191095" y="227.462163" style="fill: #ff8c00; fill-opacity: 0.8"/>
    </g>
    <g clip-path="url(#pd8d3b9e790)">
     <use xlink:href="#C0_0_23bbfe546f" x="368.191095" y="227.462163" style="fill: #ff8c00; fill-opacity: 0.8"/>
    </g>
    <g clip-path="url(#pd8d3b9e790)">
     <use xlink:href="#C0_0_23bbfe546f" x="344.455764" y="198.037958" style="fill: #ff8c00; fill-opacity: 0.8"/>
    </g>
    <g clip-path="url(#pd8d3b9e790)">
     <use xlink:href="#C0_0_23bbfe546f" x="356.32343" y="227.462163" style="fill: #ff8c00; fill-opacity: 0.8"/>
    </g>
    <g clip-path="url(#pd8d3b9e790)">
     <use xlink:href="#C0_0_23bbfe546f" x="162.484897" y="227.462163" style="fill: #ff8c00; fill-opacity: 0.8"/>
    </g>
    <g clip-path="url(#pd8d3b9e790)">
     <use xlink:href="#C0_0_23bbfe546f" x="387.970537" y="198.037958" style="fill: #ff8c00; fill-opacity: 0.8"/>
    </g>
    <g clip-path="url(#pd8d3b9e790)">
     <use xlink:href="#C0_0_23bbfe546f" x="403.794091" y="198.037958" style="fill: #ff8c00; fill-opacity: 0.8"/>
    </g>
    <g clip-path="url(#pd8d3b9e790)">
     <use xlink:href="#C0_0_23bbfe546f" x="241.602665" y="227.462163" style="fill: #ff8c00; fill-opacity: 0.8"/>
    </g>
    <g clip-path="url(#pd8d3b9e790)">
     <use xlink:href="#C0_0_23bbfe546f" x="182.264339" y="227.462163" style="fill: #ff8c00; fill-opacity: 0.8"/>
    </g>
    <g clip-path="url(#pd8d3b9e790)">
     <use xlink:href="#C0_0_23bbfe546f" x="134.793677" y="227.462163" style="fill: #ff8c00; fill-opacity: 0.8"/>
    </g>
    <g clip-path="url(#pd8d3b9e790)">
     <use xlink:href="#C0_0_23bbfe546f" x="336.543988" y="227.462163" style="fill: #ff8c00; fill-opacity: 0.8"/>
    </g>
    <g clip-path="url(#pd8d3b9e790)">
     <use xlink:href="#C0_0_23bbfe546f" x="403.794091" y="139.189548" style="fill: #ff8c00; fill-opacity: 0.8"/>
    </g>
    <g clip-path="url(#pd8d3b9e790)">
     <use xlink:href="#C0_0_23bbfe546f" x="261.382107" y="227.462163" style="fill: #ff8c00; fill-opacity: 0.8"/>
    </g>
    <g clip-path="url(#pd8d3b9e790)">
     <use xlink:href="#C0_0_23bbfe546f" x="304.89688" y="198.037958" style="fill: #ff8c00; fill-opacity: 0.8"/>
    </g>
    <g clip-path="url(#pd8d3b9e790)">
     <use xlink:href="#C0_0_23bbfe546f" x="399.838202" y="227.462163" style="fill: #ff8c00; fill-opacity: 0.8"/>
    </g>
    <g clip-path="url(#pd8d3b9e790)">
     <use xlink:href="#C0_0_23bbfe546f" x="376.102872" y="227.462163" style="fill: #ff8c00; fill-opacity: 0.8"/>
    </g>
    <g clip-path="url(#pd8d3b9e790)">
     <use xlink:href="#C0_0_23bbfe546f" x="221.823223" y="227.462163" style="fill: #ff8c00; fill-opacity: 0.8"/>
    </g>
    <g clip-path="url(#pd8d3b9e790)">
     <use xlink:href="#C0_0_23bbfe546f" x="336.543988" y="227.462163" style="fill: #ff8c00; fill-opacity: 0.8"/>
    </g>
    <g clip-path="url(#pd8d3b9e790)">
     <use xlink:href="#C0_0_23bbfe546f" x="348.411653" y="227.462163" style="fill: #ff8c00; fill-opacity: 0.8"/>
    </g>
    <g clip-path="url(#pd8d3b9e790)">
     <use xlink:href="#C0_0_23bbfe546f" x="55.675909" y="227.462163" style="fill: #ff8c00; fill-opacity: 0.8"/>
    </g>
    <g clip-path="url(#pd8d3b9e790)">
     <use xlink:href="#C0_0_23bbfe546f" x="340.499876" y="227.462163" style="fill: #ff8c00; fill-opacity: 0.8"/>
    </g>
    <g clip-path="url(#pd8d3b9e790)">
     <use xlink:href="#C0_0_23bbfe546f" x="142.705454" y="227.462163" style="fill: #ff8c00; fill-opacity: 0.8"/>
    </g>
    <g clip-path="url(#pd8d3b9e790)">
     <use xlink:href="#C0_0_23bbfe546f" x="403.794091" y="139.189548" style="fill: #ff8c00; fill-opacity: 0.8"/>
    </g>
    <g clip-path="url(#pd8d3b9e790)">
     <use xlink:href="#C0_0_23bbfe546f" x="178.30845" y="227.462163" style="fill: #ff8c00; fill-opacity: 0.8"/>
    </g>
    <g clip-path="url(#pd8d3b9e790)">
     <use xlink:href="#C0_0_23bbfe546f" x="332.588099" y="227.462163" style="fill: #ff8c00; fill-opacity: 0.8"/>
    </g>
    <g clip-path="url(#pd8d3b9e790)">
     <use xlink:href="#C0_0_23bbfe546f" x="285.117438" y="227.462163" style="fill: #ff8c00; fill-opacity: 0.8"/>
    </g>
    <g clip-path="url(#pd8d3b9e790)">
     <use xlink:href="#C0_0_23bbfe546f" x="178.30845" y="227.462163" style="fill: #ff8c00; fill-opacity: 0.8"/>
    </g>
    <g clip-path="url(#pd8d3b9e790)">
     <use xlink:href="#C0_0_23bbfe546f" x="233.690888" y="227.462163" style="fill: #ff8c00; fill-opacity: 0.8"/>
    </g>
    <g clip-path="url(#pd8d3b9e790)">
     <use xlink:href="#C0_0_23bbfe546f" x="146.661343" y="198.037958" style="fill: #ff8c00; fill-opacity: 0.8"/>
    </g>
    <g clip-path="url(#pd8d3b9e790)">
     <use xlink:href="#C0_0_23bbfe546f" x="142.705454" y="227.462163" style="fill: #ff8c00; fill-opacity: 0.8"/>
    </g>
    <g clip-path="url(#pd8d3b9e790)">
     <use xlink:href="#C0_0_23bbfe546f" x="178.30845" y="227.462163" style="fill: #ff8c00; fill-opacity: 0.8"/>
    </g>
    <g clip-path="url(#pd8d3b9e790)">
     <use xlink:href="#C0_0_23bbfe546f" x="202.043781" y="227.462163" style="fill: #ff8c00; fill-opacity: 0.8"/>
    </g>
    <g clip-path="url(#pd8d3b9e790)">
     <use xlink:href="#C0_0_23bbfe546f" x="241.602665" y="227.462163" style="fill: #ff8c00; fill-opacity: 0.8"/>
    </g>
    <g clip-path="url(#pd8d3b9e790)">
     <use xlink:href="#C0_0_23bbfe546f" x="328.632211" y="227.462163" style="fill: #ff8c00; fill-opacity: 0.8"/>
    </g>
    <g clip-path="url(#pd8d3b9e790)">
     <use xlink:href="#C0_0_23bbfe546f" x="162.484897" y="139.189548" style="fill: #ff8c00; fill-opacity: 0.8"/>
    </g>
    <g clip-path="url(#pd8d3b9e790)">
     <use xlink:href="#C0_0_23bbfe546f" x="395.882314" y="168.613753" style="fill: #ff8c00; fill-opacity: 0.8"/>
    </g>
    <g clip-path="url(#pd8d3b9e790)">
     <use xlink:href="#C0_0_23bbfe546f" x="403.794091" y="227.462163" style="fill: #ff8c00; fill-opacity: 0.8"/>
    </g>
    <g clip-path="url(#pd8d3b9e790)">
     <use xlink:href="#C0_0_23bbfe546f" x="186.220227" y="227.462163" style="fill: #ff8c00; fill-opacity: 0.8"/>
    </g>
    <g clip-path="url(#pd8d3b9e790)">
     <use xlink:href="#C0_0_23bbfe546f" x="348.411653" y="227.462163" style="fill: #ff8c00; fill-opacity: 0.8"/>
    </g>
    <g clip-path="url(#pd8d3b9e790)">
     <use xlink:href="#C0_0_23bbfe546f" x="289.073326" y="227.462163" style="fill: #ff8c00; fill-opacity: 0.8"/>
    </g>
    <g clip-path="url(#pd8d3b9e790)">
     <use xlink:href="#C0_0_23bbfe546f" x="67.543574" y="227.462163" style="fill: #ff8c00; fill-opacity: 0.8"/>
    </g>
    <g clip-path="url(#pd8d3b9e790)">
     <use xlink:href="#C0_0_23bbfe546f" x="328.632211" y="227.462163" style="fill: #ff8c00; fill-opacity: 0.8"/>
    </g>
    <g clip-path="url(#pd8d3b9e790)">
     <use xlink:href="#C0_0_23bbfe546f" x="328.632211" y="227.462163" style="fill: #ff8c00; fill-opacity: 0.8"/>
    </g>
    <g clip-path="url(#pd8d3b9e790)">
     <use xlink:href="#C0_0_23bbfe546f" x="63.587686" y="227.462163" style="fill: #ff8c00; fill-opacity: 0.8"/>
    </g>
    <g clip-path="url(#pd8d3b9e790)">
     <use xlink:href="#C0_0_23bbfe546f" x="158.529008" y="227.462163" style="fill: #ff8c00; fill-opacity: 0.8"/>
    </g>
    <g clip-path="url(#pd8d3b9e790)">
     <use xlink:href="#C0_0_23bbfe546f" x="249.514442" y="109.765343" style="fill: #ff8c00; fill-opacity: 0.8"/>
    </g>
    <g clip-path="url(#pd8d3b9e790)">
     <use xlink:href="#C0_0_23bbfe546f" x="249.514442" y="227.462163" style="fill: #ff8c00; fill-opacity: 0.8"/>
    </g>
    <g clip-path="url(#pd8d3b9e790)">
     <use xlink:href="#C0_0_23bbfe546f" x="391.926426" y="227.462163" style="fill: #ff8c00; fill-opacity: 0.8"/>
    </g>
    <g clip-path="url(#pd8d3b9e790)">
     <use xlink:href="#C0_0_23bbfe546f" x="146.661343" y="227.462163" style="fill: #ff8c00; fill-opacity: 0.8"/>
    </g>
    <g clip-path="url(#pd8d3b9e790)">
     <use xlink:href="#C0_0_23bbfe546f" x="344.455764" y="21.492727" style="fill: #ff8c00; fill-opacity: 0.8"/>
    </g>
    <g clip-path="url(#pd8d3b9e790)">
     <use xlink:href="#C0_0_23bbfe546f" x="257.426219" y="227.462163" style="fill: #ff8c00; fill-opacity: 0.8"/>
    </g>
    <g clip-path="url(#pd8d3b9e790)">
     <use xlink:href="#C0_0_23bbfe546f" x="233.690888" y="227.462163" style="fill: #ff8c00; fill-opacity: 0.8"/>
    </g>
    <g clip-path="url(#pd8d3b9e790)">
     <use xlink:href="#C0_0_23bbfe546f" x="277.205661" y="227.462163" style="fill: #ff8c00; fill-opacity: 0.8"/>
    </g>
    <g clip-path="url(#pd8d3b9e790)">
     <use xlink:href="#C0_0_23bbfe546f" x="142.705454" y="227.462163" style="fill: #ff8c00; fill-opacity: 0.8"/>
    </g>
    <g clip-path="url(#pd8d3b9e790)">
     <use xlink:href="#C0_0_23bbfe546f" x="198.087892" y="139.189548" style="fill: #ff8c00; fill-opacity: 0.8"/>
    </g>
    <g clip-path="url(#pd8d3b9e790)">
     <use xlink:href="#C0_0_23bbfe546f" x="261.382107" y="227.462163" style="fill: #ff8c00; fill-opacity: 0.8"/>
    </g>
    <g clip-path="url(#pd8d3b9e790)">
     <use xlink:href="#C0_0_23bbfe546f" x="107.102458" y="227.462163" style="fill: #ff8c00; fill-opacity: 0.8"/>
    </g>
    <g clip-path="url(#pd8d3b9e790)">
     <use xlink:href="#C0_0_23bbfe546f" x="241.602665" y="227.462163" style="fill: #ff8c00; fill-opacity: 0.8"/>
    </g>
    <g clip-path="url(#pd8d3b9e790)">
     <use xlink:href="#C0_0_23bbfe546f" x="372.146983" y="227.462163" style="fill: #ff8c00; fill-opacity: 0.8"/>
    </g>
    <g clip-path="url(#pd8d3b9e790)">
     <use xlink:href="#C0_0_23bbfe546f" x="91.278905" y="227.462163" style="fill: #ff8c00; fill-opacity: 0.8"/>
    </g>
    <g clip-path="url(#pd8d3b9e790)">
     <use xlink:href="#C0_0_23bbfe546f" x="387.970537" y="168.613753" style="fill: #ff8c00; fill-opacity: 0.8"/>
    </g>
    <g clip-path="url(#pd8d3b9e790)">
     <use xlink:href="#C0_0_23bbfe546f" x="395.882314" y="227.462163" style="fill: #ff8c00; fill-opacity: 0.8"/>
    </g>
    <g clip-path="url(#pd8d3b9e790)">
     <use xlink:href="#C0_0_23bbfe546f" x="249.514442" y="227.462163" style="fill: #ff8c00; fill-opacity: 0.8"/>
    </g>
    <g clip-path="url(#pd8d3b9e790)">
     <use xlink:href="#C0_0_23bbfe546f" x="265.337996" y="227.462163" style="fill: #ff8c00; fill-opacity: 0.8"/>
    </g>
    <g clip-path="url(#pd8d3b9e790)">
     <use xlink:href="#C0_0_23bbfe546f" x="380.05876" y="227.462163" style="fill: #ff8c00; fill-opacity: 0.8"/>
    </g>
    <g clip-path="url(#pd8d3b9e790)">
     <use xlink:href="#C0_0_23bbfe546f" x="107.102458" y="227.462163" style="fill: #ff8c00; fill-opacity: 0.8"/>
    </g>
    <g clip-path="url(#pd8d3b9e790)">
     <use xlink:href="#C0_0_23bbfe546f" x="324.676322" y="198.037958" style="fill: #ff8c00; fill-opacity: 0.8"/>
    </g>
    <g clip-path="url(#pd8d3b9e790)">
     <use xlink:href="#C0_0_23bbfe546f" x="376.102872" y="227.462163" style="fill: #ff8c00; fill-opacity: 0.8"/>
    </g>
    <g clip-path="url(#pd8d3b9e790)">
     <use xlink:href="#C0_0_23bbfe546f" x="391.926426" y="227.462163" style="fill: #ff8c00; fill-opacity: 0.8"/>
    </g>
    <g clip-path="url(#pd8d3b9e790)">
     <use xlink:href="#C0_0_23bbfe546f" x="198.087892" y="227.462163" style="fill: #ff8c00; fill-opacity: 0.8"/>
    </g>
    <g clip-path="url(#pd8d3b9e790)">
     <use xlink:href="#C0_0_23bbfe546f" x="146.661343" y="227.462163" style="fill: #ff8c00; fill-opacity: 0.8"/>
    </g>
    <g clip-path="url(#pd8d3b9e790)">
     <use xlink:href="#C0_0_23bbfe546f" x="217.867335" y="227.462163" style="fill: #ff8c00; fill-opacity: 0.8"/>
    </g>
    <g clip-path="url(#pd8d3b9e790)">
     <use xlink:href="#C0_0_23bbfe546f" x="178.30845" y="227.462163" style="fill: #ff8c00; fill-opacity: 0.8"/>
    </g>
    <g clip-path="url(#pd8d3b9e790)">
     <use xlink:href="#C0_0_23bbfe546f" x="289.073326" y="198.037958" style="fill: #ff8c00; fill-opacity: 0.8"/>
    </g>
    <g clip-path="url(#pd8d3b9e790)">
     <use xlink:href="#C0_0_23bbfe546f" x="178.30845" y="168.613753" style="fill: #ff8c00; fill-opacity: 0.8"/>
    </g>
    <g clip-path="url(#pd8d3b9e790)">
     <use xlink:href="#C0_0_23bbfe546f" x="368.191095" y="227.462163" style="fill: #ff8c00; fill-opacity: 0.8"/>
    </g>
    <g clip-path="url(#pd8d3b9e790)">
     <use xlink:href="#C0_0_23bbfe546f" x="395.882314" y="227.462163" style="fill: #ff8c00; fill-opacity: 0.8"/>
    </g>
    <g clip-path="url(#pd8d3b9e790)">
     <use xlink:href="#C0_0_23bbfe546f" x="328.632211" y="227.462163" style="fill: #ff8c00; fill-opacity: 0.8"/>
    </g>
    <g clip-path="url(#pd8d3b9e790)">
     <use xlink:href="#C0_0_23bbfe546f" x="225.779112" y="227.462163" style="fill: #ff8c00; fill-opacity: 0.8"/>
    </g>
    <g clip-path="url(#pd8d3b9e790)">
     <use xlink:href="#C0_0_23bbfe546f" x="403.794091" y="227.462163" style="fill: #ff8c00; fill-opacity: 0.8"/>
    </g>
    <g clip-path="url(#pd8d3b9e790)">
     <use xlink:href="#C0_0_23bbfe546f" x="348.411653" y="227.462163" style="fill: #ff8c00; fill-opacity: 0.8"/>
    </g>
    <g clip-path="url(#pd8d3b9e790)">
     <use xlink:href="#C0_0_23bbfe546f" x="380.05876" y="227.462163" style="fill: #ff8c00; fill-opacity: 0.8"/>
    </g>
    <g clip-path="url(#pd8d3b9e790)">
     <use xlink:href="#C0_0_23bbfe546f" x="356.32343" y="227.462163" style="fill: #ff8c00; fill-opacity: 0.8"/>
    </g>
    <g clip-path="url(#pd8d3b9e790)">
     <use xlink:href="#C0_0_23bbfe546f" x="257.426219" y="227.462163" style="fill: #ff8c00; fill-opacity: 0.8"/>
    </g>
    <g clip-path="url(#pd8d3b9e790)">
     <use xlink:href="#C0_0_23bbfe546f" x="391.926426" y="227.462163" style="fill: #ff8c00; fill-opacity: 0.8"/>
    </g>
    <g clip-path="url(#pd8d3b9e790)">
     <use xlink:href="#C0_0_23bbfe546f" x="364.235207" y="227.462163" style="fill: #ff8c00; fill-opacity: 0.8"/>
    </g>
    <g clip-path="url(#pd8d3b9e790)">
     <use xlink:href="#C0_0_23bbfe546f" x="277.205661" y="227.462163" style="fill: #ff8c00; fill-opacity: 0.8"/>
    </g>
    <g clip-path="url(#pd8d3b9e790)">
     <use xlink:href="#C0_0_23bbfe546f" x="403.794091" y="227.462163" style="fill: #ff8c00; fill-opacity: 0.8"/>
    </g>
    <g clip-path="url(#pd8d3b9e790)">
     <use xlink:href="#C0_0_23bbfe546f" x="233.690888" y="227.462163" style="fill: #ff8c00; fill-opacity: 0.8"/>
    </g>
    <g clip-path="url(#pd8d3b9e790)">
     <use xlink:href="#C0_0_23bbfe546f" x="209.955558" y="227.462163" style="fill: #ff8c00; fill-opacity: 0.8"/>
    </g>
    <g clip-path="url(#pd8d3b9e790)">
     <use xlink:href="#C0_0_23bbfe546f" x="285.117438" y="227.462163" style="fill: #ff8c00; fill-opacity: 0.8"/>
    </g>
    <g clip-path="url(#pd8d3b9e790)">
     <use xlink:href="#C0_0_23bbfe546f" x="356.32343" y="227.462163" style="fill: #ff8c00; fill-opacity: 0.8"/>
    </g>
   </g>
   <g id="PolyCollection_1">
    <path d="M 55.675909 211.213278 
L 55.675909 235.347273 
L 59.192254 235.054205 
L 62.7086 234.720765 
L 66.224945 234.394437 
L 69.74129 234.115473 
L 73.257635 233.784345 
L 76.773981 233.474219 
L 80.290326 233.163944 
L 83.806671 232.874187 
L 87.323017 232.556012 
L 90.839362 232.255572 
L 94.355707 231.956802 
L 97.872052 231.611594 
L 101.388398 231.311401 
L 104.904743 231.018021 
L 108.421088 230.760123 
L 111.937433 230.472517 
L 115.453779 230.218047 
L 118.970124 229.920141 
L 122.486469 229.639916 
L 126.002815 229.354326 
L 129.51916 229.093019 
L 133.035505 228.820381 
L 136.55185 228.55718 
L 140.068196 228.312244 
L 143.584541 228.074604 
L 147.100886 227.782974 
L 150.617231 227.509581 
L 154.133577 227.300908 
L 157.649922 227.035269 
L 161.166267 226.783462 
L 164.682612 226.532516 
L 168.198958 226.298243 
L 171.715303 226.057584 
L 175.231648 225.842358 
L 178.747994 225.641722 
L 182.264339 225.422221 
L 185.780684 225.209196 
L 189.297029 225.021232 
L 192.813375 224.808311 
L 196.32972 224.624696 
L 199.846065 224.448203 
L 203.36241 224.266289 
L 206.878756 224.059429 
L 210.395101 223.876242 
L 213.911446 223.689777 
L 217.427792 223.532885 
L 220.944137 223.394267 
L 224.460482 223.212213 
L 227.976827 223.055061 
L 231.493173 222.930681 
L 235.009518 222.806563 
L 238.525863 222.668 
L 242.042208 222.534944 
L 245.558554 222.410652 
L 249.074899 222.311572 
L 252.591244 222.211125 
L 256.10759 222.095472 
L 259.623935 221.983355 
L 263.14028 221.907589 
L 266.656625 221.832115 
L 270.172971 221.74787 
L 273.689316 221.694593 
L 277.205661 221.611522 
L 280.722006 221.524846 
L 284.238352 221.460054 
L 287.754697 221.43743 
L 291.271042 221.387905 
L 294.787388 221.376641 
L 298.303733 221.342039 
L 301.820078 221.302808 
L 305.336423 221.2651 
L 308.852769 221.245489 
L 312.369114 221.225514 
L 315.885459 221.223704 
L 319.401804 221.191486 
L 322.91815 221.177417 
L 326.434495 221.176999 
L 329.95084 221.18733 
L 333.467185 221.229865 
L 336.983531 221.221335 
L 340.499876 221.207077 
L 344.016221 221.185532 
L 347.532567 221.20288 
L 351.048912 221.190675 
L 354.565257 221.222424 
L 358.081602 221.226488 
L 361.597948 221.232637 
L 365.114293 221.23576 
L 368.630638 221.28239 
L 372.146983 221.278215 
L 375.663329 221.315786 
L 379.179674 221.34423 
L 382.696019 221.386273 
L 386.212365 221.393654 
L 389.72871 221.40699 
L 393.245055 221.453164 
L 396.7614 221.506789 
L 400.277746 221.511357 
L 403.794091 221.514582 
L 403.794091 198.282624 
L 403.794091 198.282624 
L 400.277746 198.604756 
L 396.7614 198.921846 
L 393.245055 199.250155 
L 389.72871 199.580207 
L 386.212365 199.880765 
L 382.696019 200.216005 
L 379.179674 200.510256 
L 375.663329 200.823827 
L 372.146983 201.141486 
L 368.630638 201.448542 
L 365.114293 201.747306 
L 361.597948 202.031245 
L 358.081602 202.364988 
L 354.565257 202.65159 
L 351.048912 202.966628 
L 347.532567 203.248919 
L 344.016221 203.549796 
L 340.499876 203.853455 
L 336.983531 204.138709 
L 333.467185 204.454335 
L 329.95084 204.74294 
L 326.434495 205.058713 
L 322.91815 205.325635 
L 319.401804 205.614132 
L 315.885459 205.886316 
L 312.369114 206.140422 
L 308.852769 206.419707 
L 305.336423 206.697637 
L 301.820078 206.984746 
L 298.303733 207.275078 
L 294.787388 207.565896 
L 291.271042 207.838682 
L 287.754697 208.117648 
L 284.238352 208.358543 
L 280.722006 208.586701 
L 277.205661 208.822733 
L 273.689316 209.017321 
L 270.172971 209.260646 
L 266.656625 209.449833 
L 263.14028 209.656234 
L 259.623935 209.847362 
L 256.10759 210.012602 
L 252.591244 210.186096 
L 249.074899 210.333663 
L 245.558554 210.527461 
L 242.042208 210.66121 
L 238.525863 210.863871 
L 235.009518 211.020164 
L 231.493173 211.11852 
L 227.976827 211.277801 
L 224.460482 211.451025 
L 220.944137 211.567628 
L 217.427792 211.710861 
L 213.911446 211.791124 
L 210.395101 211.838358 
L 206.878756 211.927496 
L 203.36241 211.973062 
L 199.846065 212.036615 
L 196.32972 212.101902 
L 192.813375 212.090373 
L 189.297029 212.140975 
L 185.780684 212.15322 
L 182.264339 212.11076 
L 178.747994 212.150068 
L 175.231648 212.168074 
L 171.715303 212.178722 
L 168.198958 212.148098 
L 164.682612 212.16475 
L 161.166267 212.178346 
L 157.649922 212.18559 
L 154.133577 212.191364 
L 150.617231 212.188286 
L 147.100886 212.168706 
L 143.584541 212.139282 
L 140.068196 212.113198 
L 136.55185 212.07924 
L 133.035505 212.056742 
L 129.51916 212.034211 
L 126.002815 211.98271 
L 122.486469 211.963498 
L 118.970124 211.945461 
L 115.453779 211.890822 
L 111.937433 211.894946 
L 108.421088 211.880684 
L 104.904743 211.859829 
L 101.388398 211.827666 
L 97.872052 211.788283 
L 94.355707 211.750309 
L 90.839362 211.690871 
L 87.323017 211.638566 
L 83.806671 211.597076 
L 80.290326 211.554363 
L 76.773981 211.497999 
L 73.257635 211.448605 
L 69.74129 211.381264 
L 66.224945 211.35644 
L 62.7086 211.290095 
L 59.192254 211.279491 
L 55.675909 211.213278 
z
" clip-path="url(#pd8d3b9e790)" style="fill: #ff8c00; fill-opacity: 0.15"/>
   </g>
   <g id="matplotlib.axis_1">
    <g id="xtick_1">
     <g id="line2d_1">
      <defs>
       <path id="md0d581a059" d="M 0 0 
L 0 3.5 
" style="stroke: #000000; stroke-width: 0.8"/>
      </defs>
      <g>
       <use xlink:href="#md0d581a059" x="47.764132" y="246.04" style="stroke: #000000; stroke-width: 0.8"/>
      </g>
     </g>
     <g id="text_1">
      <!-- 24 -->
      <g transform="translate(41.401632 260.638438) scale(0.1 -0.1)">
       <defs>
        <path id="DejaVuSans-32" d="M 1228 531 
L 3431 531 
L 3431 0 
L 469 0 
L 469 531 
Q 828 903 1448 1529 
Q 2069 2156 2228 2338 
Q 2531 2678 2651 2914 
Q 2772 3150 2772 3378 
Q 2772 3750 2511 3984 
Q 2250 4219 1831 4219 
Q 1534 4219 1204 4116 
Q 875 4013 500 3803 
L 500 4441 
Q 881 4594 1212 4672 
Q 1544 4750 1819 4750 
Q 2544 4750 2975 4387 
Q 3406 4025 3406 3419 
Q 3406 3131 3298 2873 
Q 3191 2616 2906 2266 
Q 2828 2175 2409 1742 
Q 1991 1309 1228 531 
z
" transform="scale(0.015625)"/>
        <path id="DejaVuSans-34" d="M 2419 4116 
L 825 1625 
L 2419 1625 
L 2419 4116 
z
M 2253 4666 
L 3047 4666 
L 3047 1625 
L 3713 1625 
L 3713 1100 
L 3047 1100 
L 3047 0 
L 2419 0 
L 2419 1100 
L 313 1100 
L 313 1709 
L 2253 4666 
z
" transform="scale(0.015625)"/>
       </defs>
       <use xlink:href="#DejaVuSans-32"/>
       <use xlink:href="#DejaVuSans-34" x="63.623047"/>
      </g>
     </g>
    </g>
    <g id="xtick_2">
     <g id="line2d_2">
      <g>
       <use xlink:href="#md0d581a059" x="103.14657" y="246.04" style="stroke: #000000; stroke-width: 0.8"/>
      </g>
     </g>
     <g id="text_2">
      <!-- 26 -->
      <g transform="translate(96.78407 260.638438) scale(0.1 -0.1)">
       <defs>
        <path id="DejaVuSans-36" d="M 2113 2584 
Q 1688 2584 1439 2293 
Q 1191 2003 1191 1497 
Q 1191 994 1439 701 
Q 1688 409 2113 409 
Q 2538 409 2786 701 
Q 3034 994 3034 1497 
Q 3034 2003 2786 2293 
Q 2538 2584 2113 2584 
z
M 3366 4563 
L 3366 3988 
Q 3128 4100 2886 4159 
Q 2644 4219 2406 4219 
Q 1781 4219 1451 3797 
Q 1122 3375 1075 2522 
Q 1259 2794 1537 2939 
Q 1816 3084 2150 3084 
Q 2853 3084 3261 2657 
Q 3669 2231 3669 1497 
Q 3669 778 3244 343 
Q 2819 -91 2113 -91 
Q 1303 -91 875 529 
Q 447 1150 447 2328 
Q 447 3434 972 4092 
Q 1497 4750 2381 4750 
Q 2619 4750 2861 4703 
Q 3103 4656 3366 4563 
z
" transform="scale(0.015625)"/>
       </defs>
       <use xlink:href="#DejaVuSans-32"/>
       <use xlink:href="#DejaVuSans-36" x="63.623047"/>
      </g>
     </g>
    </g>
    <g id="xtick_3">
     <g id="line2d_3">
      <g>
       <use xlink:href="#md0d581a059" x="158.529008" y="246.04" style="stroke: #000000; stroke-width: 0.8"/>
      </g>
     </g>
     <g id="text_3">
      <!-- 28 -->
      <g transform="translate(152.166508 260.638438) scale(0.1 -0.1)">
       <defs>
        <path id="DejaVuSans-38" d="M 2034 2216 
Q 1584 2216 1326 1975 
Q 1069 1734 1069 1313 
Q 1069 891 1326 650 
Q 1584 409 2034 409 
Q 2484 409 2743 651 
Q 3003 894 3003 1313 
Q 3003 1734 2745 1975 
Q 2488 2216 2034 2216 
z
M 1403 2484 
Q 997 2584 770 2862 
Q 544 3141 544 3541 
Q 544 4100 942 4425 
Q 1341 4750 2034 4750 
Q 2731 4750 3128 4425 
Q 3525 4100 3525 3541 
Q 3525 3141 3298 2862 
Q 3072 2584 2669 2484 
Q 3125 2378 3379 2068 
Q 3634 1759 3634 1313 
Q 3634 634 3220 271 
Q 2806 -91 2034 -91 
Q 1263 -91 848 271 
Q 434 634 434 1313 
Q 434 1759 690 2068 
Q 947 2378 1403 2484 
z
M 1172 3481 
Q 1172 3119 1398 2916 
Q 1625 2713 2034 2713 
Q 2441 2713 2670 2916 
Q 2900 3119 2900 3481 
Q 2900 3844 2670 4047 
Q 2441 4250 2034 4250 
Q 1625 4250 1398 4047 
Q 1172 3844 1172 3481 
z
" transform="scale(0.015625)"/>
       </defs>
       <use xlink:href="#DejaVuSans-32"/>
       <use xlink:href="#DejaVuSans-38" x="63.623047"/>
      </g>
     </g>
    </g>
    <g id="xtick_4">
     <g id="line2d_4">
      <g>
       <use xlink:href="#md0d581a059" x="213.911446" y="246.04" style="stroke: #000000; stroke-width: 0.8"/>
      </g>
     </g>
     <g id="text_4">
      <!-- 30 -->
      <g transform="translate(207.548946 260.638438) scale(0.1 -0.1)">
       <defs>
        <path id="DejaVuSans-33" d="M 2597 2516 
Q 3050 2419 3304 2112 
Q 3559 1806 3559 1356 
Q 3559 666 3084 287 
Q 2609 -91 1734 -91 
Q 1441 -91 1130 -33 
Q 819 25 488 141 
L 488 750 
Q 750 597 1062 519 
Q 1375 441 1716 441 
Q 2309 441 2620 675 
Q 2931 909 2931 1356 
Q 2931 1769 2642 2001 
Q 2353 2234 1838 2234 
L 1294 2234 
L 1294 2753 
L 1863 2753 
Q 2328 2753 2575 2939 
Q 2822 3125 2822 3475 
Q 2822 3834 2567 4026 
Q 2313 4219 1838 4219 
Q 1578 4219 1281 4162 
Q 984 4106 628 3988 
L 628 4550 
Q 988 4650 1302 4700 
Q 1616 4750 1894 4750 
Q 2613 4750 3031 4423 
Q 3450 4097 3450 3541 
Q 3450 3153 3228 2886 
Q 3006 2619 2597 2516 
z
" transform="scale(0.015625)"/>
        <path id="DejaVuSans-30" d="M 2034 4250 
Q 1547 4250 1301 3770 
Q 1056 3291 1056 2328 
Q 1056 1369 1301 889 
Q 1547 409 2034 409 
Q 2525 409 2770 889 
Q 3016 1369 3016 2328 
Q 3016 3291 2770 3770 
Q 2525 4250 2034 4250 
z
M 2034 4750 
Q 2819 4750 3233 4129 
Q 3647 3509 3647 2328 
Q 3647 1150 3233 529 
Q 2819 -91 2034 -91 
Q 1250 -91 836 529 
Q 422 1150 422 2328 
Q 422 3509 836 4129 
Q 1250 4750 2034 4750 
z
" transform="scale(0.015625)"/>
       </defs>
       <use xlink:href="#DejaVuSans-33"/>
       <use xlink:href="#DejaVuSans-30" x="63.623047"/>
      </g>
     </g>
    </g>
    <g id="xtick_5">
     <g id="line2d_5">
      <g>
       <use xlink:href="#md0d581a059" x="269.293884" y="246.04" style="stroke: #000000; stroke-width: 0.8"/>
      </g>
     </g>
     <g id="text_5">
      <!-- 32 -->
      <g transform="translate(262.931384 260.638438) scale(0.1 -0.1)">
       <use xlink:href="#DejaVuSans-33"/>
       <use xlink:href="#DejaVuSans-32" x="63.623047"/>
      </g>
     </g>
    </g>
    <g id="xtick_6">
     <g id="line2d_6">
      <g>
       <use xlink:href="#md0d581a059" x="324.676322" y="246.04" style="stroke: #000000; stroke-width: 0.8"/>
      </g>
     </g>
     <g id="text_6">
      <!-- 34 -->
      <g transform="translate(318.313822 260.638438) scale(0.1 -0.1)">
       <use xlink:href="#DejaVuSans-33"/>
       <use xlink:href="#DejaVuSans-34" x="63.623047"/>
      </g>
     </g>
    </g>
    <g id="xtick_7">
     <g id="line2d_7">
      <g>
       <use xlink:href="#md0d581a059" x="380.05876" y="246.04" style="stroke: #000000; stroke-width: 0.8"/>
      </g>
     </g>
     <g id="text_7">
      <!-- 36 -->
      <g transform="translate(373.69626 260.638438) scale(0.1 -0.1)">
       <use xlink:href="#DejaVuSans-33"/>
       <use xlink:href="#DejaVuSans-36" x="63.623047"/>
      </g>
     </g>
    </g>
    <g id="text_8">
     <!-- Gestational age [weeks] -->
     <g transform="translate(168.988125 274.316562) scale(0.1 -0.1)">
      <defs>
       <path id="DejaVuSans-47" d="M 3809 666 
L 3809 1919 
L 2778 1919 
L 2778 2438 
L 4434 2438 
L 4434 434 
Q 4069 175 3628 42 
Q 3188 -91 2688 -91 
Q 1594 -91 976 548 
Q 359 1188 359 2328 
Q 359 3472 976 4111 
Q 1594 4750 2688 4750 
Q 3144 4750 3555 4637 
Q 3966 4525 4313 4306 
L 4313 3634 
Q 3963 3931 3569 4081 
Q 3175 4231 2741 4231 
Q 1884 4231 1454 3753 
Q 1025 3275 1025 2328 
Q 1025 1384 1454 906 
Q 1884 428 2741 428 
Q 3075 428 3337 486 
Q 3600 544 3809 666 
z
" transform="scale(0.015625)"/>
       <path id="DejaVuSans-65" d="M 3597 1894 
L 3597 1613 
L 953 1613 
Q 991 1019 1311 708 
Q 1631 397 2203 397 
Q 2534 397 2845 478 
Q 3156 559 3463 722 
L 3463 178 
Q 3153 47 2828 -22 
Q 2503 -91 2169 -91 
Q 1331 -91 842 396 
Q 353 884 353 1716 
Q 353 2575 817 3079 
Q 1281 3584 2069 3584 
Q 2775 3584 3186 3129 
Q 3597 2675 3597 1894 
z
M 3022 2063 
Q 3016 2534 2758 2815 
Q 2500 3097 2075 3097 
Q 1594 3097 1305 2825 
Q 1016 2553 972 2059 
L 3022 2063 
z
" transform="scale(0.015625)"/>
       <path id="DejaVuSans-73" d="M 2834 3397 
L 2834 2853 
Q 2591 2978 2328 3040 
Q 2066 3103 1784 3103 
Q 1356 3103 1142 2972 
Q 928 2841 928 2578 
Q 928 2378 1081 2264 
Q 1234 2150 1697 2047 
L 1894 2003 
Q 2506 1872 2764 1633 
Q 3022 1394 3022 966 
Q 3022 478 2636 193 
Q 2250 -91 1575 -91 
Q 1294 -91 989 -36 
Q 684 19 347 128 
L 347 722 
Q 666 556 975 473 
Q 1284 391 1588 391 
Q 1994 391 2212 530 
Q 2431 669 2431 922 
Q 2431 1156 2273 1281 
Q 2116 1406 1581 1522 
L 1381 1569 
Q 847 1681 609 1914 
Q 372 2147 372 2553 
Q 372 3047 722 3315 
Q 1072 3584 1716 3584 
Q 2034 3584 2315 3537 
Q 2597 3491 2834 3397 
z
" transform="scale(0.015625)"/>
       <path id="DejaVuSans-74" d="M 1172 4494 
L 1172 3500 
L 2356 3500 
L 2356 3053 
L 1172 3053 
L 1172 1153 
Q 1172 725 1289 603 
Q 1406 481 1766 481 
L 2356 481 
L 2356 0 
L 1766 0 
Q 1100 0 847 248 
Q 594 497 594 1153 
L 594 3053 
L 172 3053 
L 172 3500 
L 594 3500 
L 594 4494 
L 1172 4494 
z
" transform="scale(0.015625)"/>
       <path id="DejaVuSans-61" d="M 2194 1759 
Q 1497 1759 1228 1600 
Q 959 1441 959 1056 
Q 959 750 1161 570 
Q 1363 391 1709 391 
Q 2188 391 2477 730 
Q 2766 1069 2766 1631 
L 2766 1759 
L 2194 1759 
z
M 3341 1997 
L 3341 0 
L 2766 0 
L 2766 531 
Q 2569 213 2275 61 
Q 1981 -91 1556 -91 
Q 1019 -91 701 211 
Q 384 513 384 1019 
Q 384 1609 779 1909 
Q 1175 2209 1959 2209 
L 2766 2209 
L 2766 2266 
Q 2766 2663 2505 2880 
Q 2244 3097 1772 3097 
Q 1472 3097 1187 3025 
Q 903 2953 641 2809 
L 641 3341 
Q 956 3463 1253 3523 
Q 1550 3584 1831 3584 
Q 2591 3584 2966 3190 
Q 3341 2797 3341 1997 
z
" transform="scale(0.015625)"/>
       <path id="DejaVuSans-69" d="M 603 3500 
L 1178 3500 
L 1178 0 
L 603 0 
L 603 3500 
z
M 603 4863 
L 1178 4863 
L 1178 4134 
L 603 4134 
L 603 4863 
z
" transform="scale(0.015625)"/>
       <path id="DejaVuSans-6f" d="M 1959 3097 
Q 1497 3097 1228 2736 
Q 959 2375 959 1747 
Q 959 1119 1226 758 
Q 1494 397 1959 397 
Q 2419 397 2687 759 
Q 2956 1122 2956 1747 
Q 2956 2369 2687 2733 
Q 2419 3097 1959 3097 
z
M 1959 3584 
Q 2709 3584 3137 3096 
Q 3566 2609 3566 1747 
Q 3566 888 3137 398 
Q 2709 -91 1959 -91 
Q 1206 -91 779 398 
Q 353 888 353 1747 
Q 353 2609 779 3096 
Q 1206 3584 1959 3584 
z
" transform="scale(0.015625)"/>
       <path id="DejaVuSans-6e" d="M 3513 2113 
L 3513 0 
L 2938 0 
L 2938 2094 
Q 2938 2591 2744 2837 
Q 2550 3084 2163 3084 
Q 1697 3084 1428 2787 
Q 1159 2491 1159 1978 
L 1159 0 
L 581 0 
L 581 3500 
L 1159 3500 
L 1159 2956 
Q 1366 3272 1645 3428 
Q 1925 3584 2291 3584 
Q 2894 3584 3203 3211 
Q 3513 2838 3513 2113 
z
" transform="scale(0.015625)"/>
       <path id="DejaVuSans-6c" d="M 603 4863 
L 1178 4863 
L 1178 0 
L 603 0 
L 603 4863 
z
" transform="scale(0.015625)"/>
       <path id="DejaVuSans-20" transform="scale(0.015625)"/>
       <path id="DejaVuSans-67" d="M 2906 1791 
Q 2906 2416 2648 2759 
Q 2391 3103 1925 3103 
Q 1463 3103 1205 2759 
Q 947 2416 947 1791 
Q 947 1169 1205 825 
Q 1463 481 1925 481 
Q 2391 481 2648 825 
Q 2906 1169 2906 1791 
z
M 3481 434 
Q 3481 -459 3084 -895 
Q 2688 -1331 1869 -1331 
Q 1566 -1331 1297 -1286 
Q 1028 -1241 775 -1147 
L 775 -588 
Q 1028 -725 1275 -790 
Q 1522 -856 1778 -856 
Q 2344 -856 2625 -561 
Q 2906 -266 2906 331 
L 2906 616 
Q 2728 306 2450 153 
Q 2172 0 1784 0 
Q 1141 0 747 490 
Q 353 981 353 1791 
Q 353 2603 747 3093 
Q 1141 3584 1784 3584 
Q 2172 3584 2450 3431 
Q 2728 3278 2906 2969 
L 2906 3500 
L 3481 3500 
L 3481 434 
z
" transform="scale(0.015625)"/>
       <path id="DejaVuSans-5b" d="M 550 4863 
L 1875 4863 
L 1875 4416 
L 1125 4416 
L 1125 -397 
L 1875 -397 
L 1875 -844 
L 550 -844 
L 550 4863 
z
" transform="scale(0.015625)"/>
       <path id="DejaVuSans-77" d="M 269 3500 
L 844 3500 
L 1563 769 
L 2278 3500 
L 2956 3500 
L 3675 769 
L 4391 3500 
L 4966 3500 
L 4050 0 
L 3372 0 
L 2619 2869 
L 1863 0 
L 1184 0 
L 269 3500 
z
" transform="scale(0.015625)"/>
       <path id="DejaVuSans-6b" d="M 581 4863 
L 1159 4863 
L 1159 1991 
L 2875 3500 
L 3609 3500 
L 1753 1863 
L 3688 0 
L 2938 0 
L 1159 1709 
L 1159 0 
L 581 0 
L 581 4863 
z
" transform="scale(0.015625)"/>
       <path id="DejaVuSans-5d" d="M 1947 4863 
L 1947 -844 
L 622 -844 
L 622 -397 
L 1369 -397 
L 1369 4416 
L 622 4416 
L 622 4863 
L 1947 4863 
z
" transform="scale(0.015625)"/>
      </defs>
      <use xlink:href="#DejaVuSans-47"/>
      <use xlink:href="#DejaVuSans-65" x="77.490234"/>
      <use xlink:href="#DejaVuSans-73" x="139.013672"/>
      <use xlink:href="#DejaVuSans-74" x="191.113281"/>
      <use xlink:href="#DejaVuSans-61" x="230.322266"/>
      <use xlink:href="#DejaVuSans-74" x="291.601562"/>
      <use xlink:href="#DejaVuSans-69" x="330.810547"/>
      <use xlink:href="#DejaVuSans-6f" x="358.59375"/>
      <use xlink:href="#DejaVuSans-6e" x="419.775391"/>
      <use xlink:href="#DejaVuSans-61" x="483.154297"/>
      <use xlink:href="#DejaVuSans-6c" x="544.433594"/>
      <use xlink:href="#DejaVuSans-20" x="572.216797"/>
      <use xlink:href="#DejaVuSans-61" x="604.003906"/>
      <use xlink:href="#DejaVuSans-67" x="665.283203"/>
      <use xlink:href="#DejaVuSans-65" x="728.759766"/>
      <use xlink:href="#DejaVuSans-20" x="790.283203"/>
      <use xlink:href="#DejaVuSans-5b" x="822.070312"/>
      <use xlink:href="#DejaVuSans-77" x="861.083984"/>
      <use xlink:href="#DejaVuSans-65" x="942.871094"/>
      <use xlink:href="#DejaVuSans-65" x="1004.394531"/>
      <use xlink:href="#DejaVuSans-6b" x="1065.917969"/>
      <use xlink:href="#DejaVuSans-73" x="1123.828125"/>
      <use xlink:href="#DejaVuSans-5d" x="1175.927734"/>
     </g>
    </g>
   </g>
   <g id="matplotlib.axis_2">
    <g id="ytick_1">
     <g id="line2d_8">
      <defs>
       <path id="mca39d51a7e" d="M 0 0 
L -3.5 0 
" style="stroke: #000000; stroke-width: 0.8"/>
      </defs>
      <g>
       <use xlink:href="#mca39d51a7e" x="38.27" y="227.462163" style="stroke: #000000; stroke-width: 0.8"/>
      </g>
     </g>
     <g id="text_9">
      <!-- 0 -->
      <g transform="translate(24.9075 231.261382) scale(0.1 -0.1)">
       <use xlink:href="#DejaVuSans-30"/>
      </g>
     </g>
    </g>
    <g id="ytick_2">
     <g id="line2d_9">
      <g>
       <use xlink:href="#mca39d51a7e" x="38.27" y="198.037958" style="stroke: #000000; stroke-width: 0.8"/>
      </g>
     </g>
     <g id="text_10">
      <!-- 1 -->
      <g transform="translate(24.9075 201.837177) scale(0.1 -0.1)">
       <defs>
        <path id="DejaVuSans-31" d="M 794 531 
L 1825 531 
L 1825 4091 
L 703 3866 
L 703 4441 
L 1819 4666 
L 2450 4666 
L 2450 531 
L 3481 531 
L 3481 0 
L 794 0 
L 794 531 
z
" transform="scale(0.015625)"/>
       </defs>
       <use xlink:href="#DejaVuSans-31"/>
      </g>
     </g>
    </g>
    <g id="ytick_3">
     <g id="line2d_10">
      <g>
       <use xlink:href="#mca39d51a7e" x="38.27" y="168.613753" style="stroke: #000000; stroke-width: 0.8"/>
      </g>
     </g>
     <g id="text_11">
      <!-- 2 -->
      <g transform="translate(24.9075 172.412972) scale(0.1 -0.1)">
       <use xlink:href="#DejaVuSans-32"/>
      </g>
     </g>
    </g>
    <g id="ytick_4">
     <g id="line2d_11">
      <g>
       <use xlink:href="#mca39d51a7e" x="38.27" y="139.189548" style="stroke: #000000; stroke-width: 0.8"/>
      </g>
     </g>
     <g id="text_12">
      <!-- 3 -->
      <g transform="translate(24.9075 142.988766) scale(0.1 -0.1)">
       <use xlink:href="#DejaVuSans-33"/>
      </g>
     </g>
    </g>
    <g id="ytick_5">
     <g id="line2d_12">
      <g>
       <use xlink:href="#mca39d51a7e" x="38.27" y="109.765343" style="stroke: #000000; stroke-width: 0.8"/>
      </g>
     </g>
     <g id="text_13">
      <!-- 4 -->
      <g transform="translate(24.9075 113.564561) scale(0.1 -0.1)">
       <use xlink:href="#DejaVuSans-34"/>
      </g>
     </g>
    </g>
    <g id="ytick_6">
     <g id="line2d_13">
      <g>
       <use xlink:href="#mca39d51a7e" x="38.27" y="80.341137" style="stroke: #000000; stroke-width: 0.8"/>
      </g>
     </g>
     <g id="text_14">
      <!-- 5 -->
      <g transform="translate(24.9075 84.140356) scale(0.1 -0.1)">
       <defs>
        <path id="DejaVuSans-35" d="M 691 4666 
L 3169 4666 
L 3169 4134 
L 1269 4134 
L 1269 2991 
Q 1406 3038 1543 3061 
Q 1681 3084 1819 3084 
Q 2600 3084 3056 2656 
Q 3513 2228 3513 1497 
Q 3513 744 3044 326 
Q 2575 -91 1722 -91 
Q 1428 -91 1123 -41 
Q 819 9 494 109 
L 494 744 
Q 775 591 1075 516 
Q 1375 441 1709 441 
Q 2250 441 2565 725 
Q 2881 1009 2881 1497 
Q 2881 1984 2565 2268 
Q 2250 2553 1709 2553 
Q 1456 2553 1204 2497 
Q 953 2441 691 2322 
L 691 4666 
z
" transform="scale(0.015625)"/>
       </defs>
       <use xlink:href="#DejaVuSans-35"/>
      </g>
     </g>
    </g>
    <g id="ytick_7">
     <g id="line2d_14">
      <g>
       <use xlink:href="#mca39d51a7e" x="38.27" y="50.916932" style="stroke: #000000; stroke-width: 0.8"/>
      </g>
     </g>
     <g id="text_15">
      <!-- 6 -->
      <g transform="translate(24.9075 54.716151) scale(0.1 -0.1)">
       <use xlink:href="#DejaVuSans-36"/>
      </g>
     </g>
    </g>
    <g id="ytick_8">
     <g id="line2d_15">
      <g>
       <use xlink:href="#mca39d51a7e" x="38.27" y="21.492727" style="stroke: #000000; stroke-width: 0.8"/>
      </g>
     </g>
     <g id="text_16">
      <!-- 7 -->
      <g transform="translate(24.9075 25.291946) scale(0.1 -0.1)">
       <defs>
        <path id="DejaVuSans-37" d="M 525 4666 
L 3525 4666 
L 3525 4397 
L 1831 0 
L 1172 0 
L 2766 4134 
L 525 4134 
L 525 4666 
z
" transform="scale(0.015625)"/>
       </defs>
       <use xlink:href="#DejaVuSans-37"/>
      </g>
     </g>
    </g>
    <g id="text_17">
     <!-- Infranormal regions per subject [a.u.] -->
     <g transform="translate(18.827813 221.97625) rotate(-90) scale(0.1 -0.1)">
      <defs>
       <path id="DejaVuSans-49" d="M 628 4666 
L 1259 4666 
L 1259 0 
L 628 0 
L 628 4666 
z
" transform="scale(0.015625)"/>
       <path id="DejaVuSans-66" d="M 2375 4863 
L 2375 4384 
L 1825 4384 
Q 1516 4384 1395 4259 
Q 1275 4134 1275 3809 
L 1275 3500 
L 2222 3500 
L 2222 3053 
L 1275 3053 
L 1275 0 
L 697 0 
L 697 3053 
L 147 3053 
L 147 3500 
L 697 3500 
L 697 3744 
Q 697 4328 969 4595 
Q 1241 4863 1831 4863 
L 2375 4863 
z
" transform="scale(0.015625)"/>
       <path id="DejaVuSans-72" d="M 2631 2963 
Q 2534 3019 2420 3045 
Q 2306 3072 2169 3072 
Q 1681 3072 1420 2755 
Q 1159 2438 1159 1844 
L 1159 0 
L 581 0 
L 581 3500 
L 1159 3500 
L 1159 2956 
Q 1341 3275 1631 3429 
Q 1922 3584 2338 3584 
Q 2397 3584 2469 3576 
Q 2541 3569 2628 3553 
L 2631 2963 
z
" transform="scale(0.015625)"/>
       <path id="DejaVuSans-6d" d="M 3328 2828 
Q 3544 3216 3844 3400 
Q 4144 3584 4550 3584 
Q 5097 3584 5394 3201 
Q 5691 2819 5691 2113 
L 5691 0 
L 5113 0 
L 5113 2094 
Q 5113 2597 4934 2840 
Q 4756 3084 4391 3084 
Q 3944 3084 3684 2787 
Q 3425 2491 3425 1978 
L 3425 0 
L 2847 0 
L 2847 2094 
Q 2847 2600 2669 2842 
Q 2491 3084 2119 3084 
Q 1678 3084 1418 2786 
Q 1159 2488 1159 1978 
L 1159 0 
L 581 0 
L 581 3500 
L 1159 3500 
L 1159 2956 
Q 1356 3278 1631 3431 
Q 1906 3584 2284 3584 
Q 2666 3584 2933 3390 
Q 3200 3197 3328 2828 
z
" transform="scale(0.015625)"/>
       <path id="DejaVuSans-70" d="M 1159 525 
L 1159 -1331 
L 581 -1331 
L 581 3500 
L 1159 3500 
L 1159 2969 
Q 1341 3281 1617 3432 
Q 1894 3584 2278 3584 
Q 2916 3584 3314 3078 
Q 3713 2572 3713 1747 
Q 3713 922 3314 415 
Q 2916 -91 2278 -91 
Q 1894 -91 1617 61 
Q 1341 213 1159 525 
z
M 3116 1747 
Q 3116 2381 2855 2742 
Q 2594 3103 2138 3103 
Q 1681 3103 1420 2742 
Q 1159 2381 1159 1747 
Q 1159 1113 1420 752 
Q 1681 391 2138 391 
Q 2594 391 2855 752 
Q 3116 1113 3116 1747 
z
" transform="scale(0.015625)"/>
       <path id="DejaVuSans-75" d="M 544 1381 
L 544 3500 
L 1119 3500 
L 1119 1403 
Q 1119 906 1312 657 
Q 1506 409 1894 409 
Q 2359 409 2629 706 
Q 2900 1003 2900 1516 
L 2900 3500 
L 3475 3500 
L 3475 0 
L 2900 0 
L 2900 538 
Q 2691 219 2414 64 
Q 2138 -91 1772 -91 
Q 1169 -91 856 284 
Q 544 659 544 1381 
z
M 1991 3584 
L 1991 3584 
z
" transform="scale(0.015625)"/>
       <path id="DejaVuSans-62" d="M 3116 1747 
Q 3116 2381 2855 2742 
Q 2594 3103 2138 3103 
Q 1681 3103 1420 2742 
Q 1159 2381 1159 1747 
Q 1159 1113 1420 752 
Q 1681 391 2138 391 
Q 2594 391 2855 752 
Q 3116 1113 3116 1747 
z
M 1159 2969 
Q 1341 3281 1617 3432 
Q 1894 3584 2278 3584 
Q 2916 3584 3314 3078 
Q 3713 2572 3713 1747 
Q 3713 922 3314 415 
Q 2916 -91 2278 -91 
Q 1894 -91 1617 61 
Q 1341 213 1159 525 
L 1159 0 
L 581 0 
L 581 4863 
L 1159 4863 
L 1159 2969 
z
" transform="scale(0.015625)"/>
       <path id="DejaVuSans-6a" d="M 603 3500 
L 1178 3500 
L 1178 -63 
Q 1178 -731 923 -1031 
Q 669 -1331 103 -1331 
L -116 -1331 
L -116 -844 
L 38 -844 
Q 366 -844 484 -692 
Q 603 -541 603 -63 
L 603 3500 
z
M 603 4863 
L 1178 4863 
L 1178 4134 
L 603 4134 
L 603 4863 
z
" transform="scale(0.015625)"/>
       <path id="DejaVuSans-63" d="M 3122 3366 
L 3122 2828 
Q 2878 2963 2633 3030 
Q 2388 3097 2138 3097 
Q 1578 3097 1268 2742 
Q 959 2388 959 1747 
Q 959 1106 1268 751 
Q 1578 397 2138 397 
Q 2388 397 2633 464 
Q 2878 531 3122 666 
L 3122 134 
Q 2881 22 2623 -34 
Q 2366 -91 2075 -91 
Q 1284 -91 818 406 
Q 353 903 353 1747 
Q 353 2603 823 3093 
Q 1294 3584 2113 3584 
Q 2378 3584 2631 3529 
Q 2884 3475 3122 3366 
z
" transform="scale(0.015625)"/>
       <path id="DejaVuSans-2e" d="M 684 794 
L 1344 794 
L 1344 0 
L 684 0 
L 684 794 
z
" transform="scale(0.015625)"/>
      </defs>
      <use xlink:href="#DejaVuSans-49"/>
      <use xlink:href="#DejaVuSans-6e" x="29.492188"/>
      <use xlink:href="#DejaVuSans-66" x="92.871094"/>
      <use xlink:href="#DejaVuSans-72" x="128.076172"/>
      <use xlink:href="#DejaVuSans-61" x="169.189453"/>
      <use xlink:href="#DejaVuSans-6e" x="230.46875"/>
      <use xlink:href="#DejaVuSans-6f" x="293.847656"/>
      <use xlink:href="#DejaVuSans-72" x="355.029297"/>
      <use xlink:href="#DejaVuSans-6d" x="394.392578"/>
      <use xlink:href="#DejaVuSans-61" x="491.804688"/>
      <use xlink:href="#DejaVuSans-6c" x="553.083984"/>
      <use xlink:href="#DejaVuSans-20" x="580.867188"/>
      <use xlink:href="#DejaVuSans-72" x="612.654297"/>
      <use xlink:href="#DejaVuSans-65" x="651.517578"/>
      <use xlink:href="#DejaVuSans-67" x="713.041016"/>
      <use xlink:href="#DejaVuSans-69" x="776.517578"/>
      <use xlink:href="#DejaVuSans-6f" x="804.300781"/>
      <use xlink:href="#DejaVuSans-6e" x="865.482422"/>
      <use xlink:href="#DejaVuSans-73" x="928.861328"/>
      <use xlink:href="#DejaVuSans-20" x="980.960938"/>
      <use xlink:href="#DejaVuSans-70" x="1012.748047"/>
      <use xlink:href="#DejaVuSans-65" x="1076.224609"/>
      <use xlink:href="#DejaVuSans-72" x="1137.748047"/>
      <use xlink:href="#DejaVuSans-20" x="1178.861328"/>
      <use xlink:href="#DejaVuSans-73" x="1210.648438"/>
      <use xlink:href="#DejaVuSans-75" x="1262.748047"/>
      <use xlink:href="#DejaVuSans-62" x="1326.126953"/>
      <use xlink:href="#DejaVuSans-6a" x="1389.603516"/>
      <use xlink:href="#DejaVuSans-65" x="1417.386719"/>
      <use xlink:href="#DejaVuSans-63" x="1478.910156"/>
      <use xlink:href="#DejaVuSans-74" x="1533.890625"/>
      <use xlink:href="#DejaVuSans-20" x="1573.099609"/>
      <use xlink:href="#DejaVuSans-5b" x="1604.886719"/>
      <use xlink:href="#DejaVuSans-61" x="1643.900391"/>
      <use xlink:href="#DejaVuSans-2e" x="1705.179688"/>
      <use xlink:href="#DejaVuSans-75" x="1736.966797"/>
      <use xlink:href="#DejaVuSans-2e" x="1800.345703"/>
      <use xlink:href="#DejaVuSans-5d" x="1832.132812"/>
     </g>
    </g>
   </g>
   <g id="line2d_16">
    <path d="M 55.675909 224.313651 
L 59.192254 224.17954 
L 62.7086 224.04543 
L 66.224945 223.91132 
L 69.74129 223.77721 
L 73.257635 223.6431 
L 76.773981 223.508989 
L 80.290326 223.374879 
L 83.806671 223.240769 
L 87.323017 223.106659 
L 90.839362 222.972549 
L 94.355707 222.838438 
L 97.872052 222.704328 
L 101.388398 222.570218 
L 104.904743 222.436108 
L 108.421088 222.301997 
L 111.937433 222.167887 
L 115.453779 222.033777 
L 118.970124 221.899667 
L 122.486469 221.765557 
L 126.002815 221.631446 
L 129.51916 221.497336 
L 133.035505 221.363226 
L 136.55185 221.229116 
L 140.068196 221.095005 
L 143.584541 220.960895 
L 147.100886 220.826785 
L 150.617231 220.692675 
L 154.133577 220.558565 
L 157.649922 220.424454 
L 161.166267 220.290344 
L 164.682612 220.156234 
L 168.198958 220.022124 
L 171.715303 219.888013 
L 175.231648 219.753903 
L 178.747994 219.619793 
L 182.264339 219.485683 
L 185.780684 219.351573 
L 189.297029 219.217462 
L 192.813375 219.083352 
L 196.32972 218.949242 
L 199.846065 218.815132 
L 203.36241 218.681022 
L 206.878756 218.546911 
L 210.395101 218.412801 
L 213.911446 218.278691 
L 217.427792 218.144581 
L 220.944137 218.01047 
L 224.460482 217.87636 
L 227.976827 217.74225 
L 231.493173 217.60814 
L 235.009518 217.47403 
L 238.525863 217.339919 
L 242.042208 217.205809 
L 245.558554 217.071699 
L 249.074899 216.937589 
L 252.591244 216.803478 
L 256.10759 216.669368 
L 259.623935 216.535258 
L 263.14028 216.401148 
L 266.656625 216.267038 
L 270.172971 216.132927 
L 273.689316 215.998817 
L 277.205661 215.864707 
L 280.722006 215.730597 
L 284.238352 215.596486 
L 287.754697 215.462376 
L 291.271042 215.328266 
L 294.787388 215.194156 
L 298.303733 215.060046 
L 301.820078 214.925935 
L 305.336423 214.791825 
L 308.852769 214.657715 
L 312.369114 214.523605 
L 315.885459 214.389495 
L 319.401804 214.255384 
L 322.91815 214.121274 
L 326.434495 213.987164 
L 329.95084 213.853054 
L 333.467185 213.718943 
L 336.983531 213.584833 
L 340.499876 213.450723 
L 344.016221 213.316613 
L 347.532567 213.182503 
L 351.048912 213.048392 
L 354.565257 212.914282 
L 358.081602 212.780172 
L 361.597948 212.646062 
L 365.114293 212.511951 
L 368.630638 212.377841 
L 372.146983 212.243731 
L 375.663329 212.109621 
L 379.179674 211.975511 
L 382.696019 211.8414 
L 386.212365 211.70729 
L 389.72871 211.57318 
L 393.245055 211.43907 
L 396.7614 211.304959 
L 400.277746 211.170849 
L 403.794091 211.036739 
" clip-path="url(#pd8d3b9e790)" style="fill: none; stroke: #ff8c00; stroke-width: 2.25; stroke-linecap: square"/>
   </g>
   <g id="patch_3">
    <path d="M 38.27 246.04 
L 38.27 10.8 
" style="fill: none; stroke: #000000; stroke-width: 0.8; stroke-linejoin: miter; stroke-linecap: square"/>
   </g>
   <g id="patch_4">
    <path d="M 38.27 246.04 
L 421.2 246.04 
" style="fill: none; stroke: #000000; stroke-width: 0.8; stroke-linejoin: miter; stroke-linecap: square"/>
   </g>
   <g id="text_18">
    <g id="patch_5">
     <path d="M 45.9286 37.011425 
L 88.4986 37.011425 
Q 91.1986 37.011425 91.1986 34.311425 
L 91.1986 15.523081 
Q 91.1986 12.823081 88.4986 12.823081 
L 45.9286 12.823081 
Q 43.2286 12.823081 43.2286 15.523081 
L 43.2286 34.311425 
Q 43.2286 37.011425 45.9286 37.011425 
z
" style="fill: #c0c0c0; opacity: 0.4; stroke: #000000; stroke-linejoin: miter"/>
    </g>
    <!-- $r=0.159$ -->
    <g transform="translate(45.9286 22.343394) scale(0.09 -0.09)">
     <defs>
      <path id="DejaVuSans-Oblique-72" d="M 2853 2969 
Q 2766 3016 2653 3041 
Q 2541 3066 2413 3066 
Q 1953 3066 1609 2717 
Q 1266 2369 1153 1784 
L 800 0 
L 225 0 
L 909 3500 
L 1484 3500 
L 1375 2956 
Q 1603 3259 1920 3421 
Q 2238 3584 2597 3584 
Q 2691 3584 2781 3573 
Q 2872 3563 2963 3538 
L 2853 2969 
z
" transform="scale(0.015625)"/>
      <path id="DejaVuSans-3d" d="M 678 2906 
L 4684 2906 
L 4684 2381 
L 678 2381 
L 678 2906 
z
M 678 1631 
L 4684 1631 
L 4684 1100 
L 678 1100 
L 678 1631 
z
" transform="scale(0.015625)"/>
      <path id="DejaVuSans-39" d="M 703 97 
L 703 672 
Q 941 559 1184 500 
Q 1428 441 1663 441 
Q 2288 441 2617 861 
Q 2947 1281 2994 2138 
Q 2813 1869 2534 1725 
Q 2256 1581 1919 1581 
Q 1219 1581 811 2004 
Q 403 2428 403 3163 
Q 403 3881 828 4315 
Q 1253 4750 1959 4750 
Q 2769 4750 3195 4129 
Q 3622 3509 3622 2328 
Q 3622 1225 3098 567 
Q 2575 -91 1691 -91 
Q 1453 -91 1209 -44 
Q 966 3 703 97 
z
M 1959 2075 
Q 2384 2075 2632 2365 
Q 2881 2656 2881 3163 
Q 2881 3666 2632 3958 
Q 2384 4250 1959 4250 
Q 1534 4250 1286 3958 
Q 1038 3666 1038 3163 
Q 1038 2656 1286 2365 
Q 1534 2075 1959 2075 
z
" transform="scale(0.015625)"/>
     </defs>
     <use xlink:href="#DejaVuSans-Oblique-72" transform="translate(0 0.78125)"/>
     <use xlink:href="#DejaVuSans-3d" transform="translate(60.595703 0.78125)"/>
     <use xlink:href="#DejaVuSans-30" transform="translate(163.867188 0.78125)"/>
     <use xlink:href="#DejaVuSans-2e" transform="translate(227.490234 0.78125)"/>
     <use xlink:href="#DejaVuSans-31" transform="translate(259.277344 0.78125)"/>
     <use xlink:href="#DejaVuSans-35" transform="translate(322.900391 0.78125)"/>
     <use xlink:href="#DejaVuSans-39" transform="translate(381.023438 0.78125)"/>
    </g>
    <!-- $p=0.130$ -->
    <g transform="translate(45.9286 32.421425) scale(0.09 -0.09)">
     <defs>
      <path id="DejaVuSans-Oblique-70" d="M 3175 2156 
Q 3175 2616 2975 2859 
Q 2775 3103 2400 3103 
Q 2144 3103 1911 2972 
Q 1678 2841 1497 2591 
Q 1319 2344 1212 1994 
Q 1106 1644 1106 1300 
Q 1106 863 1306 627 
Q 1506 391 1875 391 
Q 2147 391 2380 519 
Q 2613 647 2778 891 
Q 2956 1147 3065 1494 
Q 3175 1841 3175 2156 
z
M 1394 2969 
Q 1625 3272 1939 3428 
Q 2253 3584 2638 3584 
Q 3175 3584 3472 3232 
Q 3769 2881 3769 2247 
Q 3769 1728 3584 1258 
Q 3400 788 3053 416 
Q 2822 169 2531 39 
Q 2241 -91 1919 -91 
Q 1547 -91 1294 64 
Q 1041 219 916 525 
L 556 -1331 
L -19 -1331 
L 922 3500 
L 1497 3500 
L 1394 2969 
z
" transform="scale(0.015625)"/>
     </defs>
     <use xlink:href="#DejaVuSans-Oblique-70" transform="translate(0 0.78125)"/>
     <use xlink:href="#DejaVuSans-3d" transform="translate(82.958984 0.78125)"/>
     <use xlink:href="#DejaVuSans-30" transform="translate(186.230469 0.78125)"/>
     <use xlink:href="#DejaVuSans-2e" transform="translate(249.853516 0.78125)"/>
     <use xlink:href="#DejaVuSans-31" transform="translate(281.640625 0.78125)"/>
     <use xlink:href="#DejaVuSans-33" transform="translate(345.263672 0.78125)"/>
     <use xlink:href="#DejaVuSans-30" transform="translate(408.886719 0.78125)"/>
    </g>
   </g>
  </g>
 </g>
 <defs>
  <clipPath id="pd8d3b9e790">
   <rect x="38.27" y="10.8" width="382.93" height="235.24"/>
  </clipPath>
 </defs>
</svg>
