<?xml version="1.0" encoding="utf-8" standalone="no"?>
<!DOCTYPE svg PUBLIC "-//W3C//DTD SVG 1.1//EN"
  "http://www.w3.org/Graphics/SVG/1.1/DTD/svg11.dtd">
<svg xmlns:xlink="http://www.w3.org/1999/xlink" width="155.905512pt" height="113.385827pt" viewBox="0 0 155.905512 113.385827" xmlns="http://www.w3.org/2000/svg" version="1.1">
 <metadata>
  <rdf:RDF xmlns:dc="http://purl.org/dc/elements/1.1/" xmlns:cc="http://creativecommons.org/ns#" xmlns:rdf="http://www.w3.org/1999/02/22-rdf-syntax-ns#">
   <cc:Work>
    <dc:type rdf:resource="http://purl.org/dc/dcmitype/StillImage"/>
    <dc:date>2025-05-14T09:45:26.862314</dc:date>
    <dc:format>image/svg+xml</dc:format>
    <dc:creator>
     <cc:Agent>
      <dc:title>Matplotlib v3.9.2, https://matplotlib.org/</dc:title>
     </cc:Agent>
    </dc:creator>
   </cc:Work>
  </rdf:RDF>
 </metadata>
 <defs>
  <style type="text/css">*{stroke-linejoin: round; stroke-linecap: butt}</style>
 </defs>
 <g id="figure_1">
  <g id="patch_1">
   <path d="M 0 113.385827 
L 155.905512 113.385827 
L 155.905512 0 
L 0 0 
z
" style="fill: #ffffff"/>
  </g>
  <g id="axes_1">
   <g id="patch_2">
    <path d="M 25.4275 89.405827 
L 150.505512 89.405827 
L 150.505512 5.4 
L 25.4275 5.4 
z
" style="fill: #ffffff"/>
   </g>
   <g id="PathCollection_1">
    <defs>
     <path id="C0_0_98b9024c78" d="M 0 0.866025 
C 0.229673 0.866025 0.449969 0.774776 0.612372 0.612372 
C 0.774776 0.449969 0.866025 0.229673 0.866025 -0 
C 0.866025 -0.229673 0.774776 -0.449969 0.612372 -0.612372 
C 0.449969 -0.774776 0.229673 -0.866025 0 -0.866025 
C -0.229673 -0.866025 -0.449969 -0.774776 -0.612372 -0.612372 
C -0.774776 -0.449969 -0.866025 -0.229673 -0.866025 0 
C -0.866025 0.229673 -0.774776 0.449969 -0.612372 0.612372 
C -0.449969 0.774776 -0.229673 0.866025 0 0.866025 
z
"/>
    </defs>
    <g clip-path="url(#pbdce776ecf)">
     <use xlink:href="#C0_0_98b9024c78" x="92.209315" y="73.813606" style="fill: #ff8c00; fill-opacity: 0.8"/>
    </g>
    <g clip-path="url(#pbdce776ecf)">
     <use xlink:href="#C0_0_98b9024c78" x="92.209315" y="59.459126" style="fill: #ff8c00; fill-opacity: 0.8"/>
    </g>
    <g clip-path="url(#pbdce776ecf)">
     <use xlink:href="#C0_0_98b9024c78" x="104.08918" y="70.224986" style="fill: #ff8c00; fill-opacity: 0.8"/>
    </g>
    <g clip-path="url(#pbdce776ecf)">
     <use xlink:href="#C0_0_98b9024c78" x="65.055337" y="70.224986" style="fill: #ff8c00; fill-opacity: 0.8"/>
    </g>
    <g clip-path="url(#pbdce776ecf)">
     <use xlink:href="#C0_0_98b9024c78" x="92.209315" y="63.047746" style="fill: #ff8c00; fill-opacity: 0.8"/>
    </g>
    <g clip-path="url(#pbdce776ecf)">
     <use xlink:href="#C0_0_98b9024c78" x="78.632326" y="70.224986" style="fill: #ff8c00; fill-opacity: 0.8"/>
    </g>
    <g clip-path="url(#pbdce776ecf)">
     <use xlink:href="#C0_0_98b9024c78" x="107.483428" y="37.927407" style="fill: #ff8c00; fill-opacity: 0.8"/>
    </g>
    <g clip-path="url(#pbdce776ecf)">
     <use xlink:href="#C0_0_98b9024c78" x="63.358213" y="59.459126" style="fill: #ff8c00; fill-opacity: 0.8"/>
    </g>
    <g clip-path="url(#pbdce776ecf)">
     <use xlink:href="#C0_0_98b9024c78" x="82.026573" y="63.047746" style="fill: #ff8c00; fill-opacity: 0.8"/>
    </g>
    <g clip-path="url(#pbdce776ecf)">
     <use xlink:href="#C0_0_98b9024c78" x="83.723697" y="73.813606" style="fill: #ff8c00; fill-opacity: 0.8"/>
    </g>
    <g clip-path="url(#pbdce776ecf)">
     <use xlink:href="#C0_0_98b9024c78" x="100.694933" y="48.693267" style="fill: #ff8c00; fill-opacity: 0.8"/>
    </g>
    <g clip-path="url(#pbdce776ecf)">
     <use xlink:href="#C0_0_98b9024c78" x="71.843831" y="66.636366" style="fill: #ff8c00; fill-opacity: 0.8"/>
    </g>
    <g clip-path="url(#pbdce776ecf)">
     <use xlink:href="#C0_0_98b9024c78" x="80.32945" y="73.813606" style="fill: #ff8c00; fill-opacity: 0.8"/>
    </g>
    <g clip-path="url(#pbdce776ecf)">
     <use xlink:href="#C0_0_98b9024c78" x="85.42082" y="73.813606" style="fill: #ff8c00; fill-opacity: 0.8"/>
    </g>
    <g clip-path="url(#pbdce776ecf)">
     <use xlink:href="#C0_0_98b9024c78" x="144.820148" y="59.459126" style="fill: #ff8c00; fill-opacity: 0.8"/>
    </g>
    <g clip-path="url(#pbdce776ecf)">
     <use xlink:href="#C0_0_98b9024c78" x="127.848911" y="73.813606" style="fill: #ff8c00; fill-opacity: 0.8"/>
    </g>
    <g clip-path="url(#pbdce776ecf)">
     <use xlink:href="#C0_0_98b9024c78" x="58.266842" y="73.813606" style="fill: #ff8c00; fill-opacity: 0.8"/>
    </g>
    <g clip-path="url(#pbdce776ecf)">
     <use xlink:href="#C0_0_98b9024c78" x="58.266842" y="73.813606" style="fill: #ff8c00; fill-opacity: 0.8"/>
    </g>
    <g clip-path="url(#pbdce776ecf)">
     <use xlink:href="#C0_0_98b9024c78" x="117.666169" y="52.281886" style="fill: #ff8c00; fill-opacity: 0.8"/>
    </g>
    <g clip-path="url(#pbdce776ecf)">
     <use xlink:href="#C0_0_98b9024c78" x="90.512191" y="63.047746" style="fill: #ff8c00; fill-opacity: 0.8"/>
    </g>
    <g clip-path="url(#pbdce776ecf)">
     <use xlink:href="#C0_0_98b9024c78" x="59.963966" y="19.984307" style="fill: #ff8c00; fill-opacity: 0.8"/>
    </g>
    <g clip-path="url(#pbdce776ecf)">
     <use xlink:href="#C0_0_98b9024c78" x="65.055337" y="55.870506" style="fill: #ff8c00; fill-opacity: 0.8"/>
    </g>
    <g clip-path="url(#pbdce776ecf)">
     <use xlink:href="#C0_0_98b9024c78" x="66.75246" y="70.224986" style="fill: #ff8c00; fill-opacity: 0.8"/>
    </g>
    <g clip-path="url(#pbdce776ecf)">
     <use xlink:href="#C0_0_98b9024c78" x="92.209315" y="73.813606" style="fill: #ff8c00; fill-opacity: 0.8"/>
    </g>
    <g clip-path="url(#pbdce776ecf)">
     <use xlink:href="#C0_0_98b9024c78" x="51.478348" y="52.281886" style="fill: #ff8c00; fill-opacity: 0.8"/>
    </g>
    <g clip-path="url(#pbdce776ecf)">
     <use xlink:href="#C0_0_98b9024c78" x="80.32945" y="73.813606" style="fill: #ff8c00; fill-opacity: 0.8"/>
    </g>
    <g clip-path="url(#pbdce776ecf)">
     <use xlink:href="#C0_0_98b9024c78" x="92.209315" y="73.813606" style="fill: #ff8c00; fill-opacity: 0.8"/>
    </g>
    <g clip-path="url(#pbdce776ecf)">
     <use xlink:href="#C0_0_98b9024c78" x="129.546035" y="73.813606" style="fill: #ff8c00; fill-opacity: 0.8"/>
    </g>
    <g clip-path="url(#pbdce776ecf)">
     <use xlink:href="#C0_0_98b9024c78" x="114.271922" y="23.572927" style="fill: #ff8c00; fill-opacity: 0.8"/>
    </g>
    <g clip-path="url(#pbdce776ecf)">
     <use xlink:href="#C0_0_98b9024c78" x="37.901359" y="34.338787" style="fill: #ff8c00; fill-opacity: 0.8"/>
    </g>
    <g clip-path="url(#pbdce776ecf)">
     <use xlink:href="#C0_0_98b9024c78" x="117.666169" y="70.224986" style="fill: #ff8c00; fill-opacity: 0.8"/>
    </g>
    <g clip-path="url(#pbdce776ecf)">
     <use xlink:href="#C0_0_98b9024c78" x="93.906439" y="73.813606" style="fill: #ff8c00; fill-opacity: 0.8"/>
    </g>
    <g clip-path="url(#pbdce776ecf)">
     <use xlink:href="#C0_0_98b9024c78" x="83.723697" y="73.813606" style="fill: #ff8c00; fill-opacity: 0.8"/>
    </g>
    <g clip-path="url(#pbdce776ecf)">
     <use xlink:href="#C0_0_98b9024c78" x="83.723697" y="66.636366" style="fill: #ff8c00; fill-opacity: 0.8"/>
    </g>
    <g clip-path="url(#pbdce776ecf)">
     <use xlink:href="#C0_0_98b9024c78" x="80.32945" y="66.636366" style="fill: #ff8c00; fill-opacity: 0.8"/>
    </g>
    <g clip-path="url(#pbdce776ecf)">
     <use xlink:href="#C0_0_98b9024c78" x="87.117944" y="37.927407" style="fill: #ff8c00; fill-opacity: 0.8"/>
    </g>
    <g clip-path="url(#pbdce776ecf)">
     <use xlink:href="#C0_0_98b9024c78" x="70.146708" y="66.636366" style="fill: #ff8c00; fill-opacity: 0.8"/>
    </g>
    <g clip-path="url(#pbdce776ecf)">
     <use xlink:href="#C0_0_98b9024c78" x="70.146708" y="70.224986" style="fill: #ff8c00; fill-opacity: 0.8"/>
    </g>
    <g clip-path="url(#pbdce776ecf)">
     <use xlink:href="#C0_0_98b9024c78" x="58.266842" y="70.224986" style="fill: #ff8c00; fill-opacity: 0.8"/>
    </g>
    <g clip-path="url(#pbdce776ecf)">
     <use xlink:href="#C0_0_98b9024c78" x="83.723697" y="59.459126" style="fill: #ff8c00; fill-opacity: 0.8"/>
    </g>
    <g clip-path="url(#pbdce776ecf)">
     <use xlink:href="#C0_0_98b9024c78" x="54.872595" y="59.459126" style="fill: #ff8c00; fill-opacity: 0.8"/>
    </g>
    <g clip-path="url(#pbdce776ecf)">
     <use xlink:href="#C0_0_98b9024c78" x="70.146708" y="70.224986" style="fill: #ff8c00; fill-opacity: 0.8"/>
    </g>
    <g clip-path="url(#pbdce776ecf)">
     <use xlink:href="#C0_0_98b9024c78" x="102.392057" y="73.813606" style="fill: #ff8c00; fill-opacity: 0.8"/>
    </g>
    <g clip-path="url(#pbdce776ecf)">
     <use xlink:href="#C0_0_98b9024c78" x="44.689853" y="16.395687" style="fill: #ff8c00; fill-opacity: 0.8"/>
    </g>
    <g clip-path="url(#pbdce776ecf)">
     <use xlink:href="#C0_0_98b9024c78" x="97.300686" y="63.047746" style="fill: #ff8c00; fill-opacity: 0.8"/>
    </g>
    <g clip-path="url(#pbdce776ecf)">
     <use xlink:href="#C0_0_98b9024c78" x="73.540955" y="70.224986" style="fill: #ff8c00; fill-opacity: 0.8"/>
    </g>
    <g clip-path="url(#pbdce776ecf)">
     <use xlink:href="#C0_0_98b9024c78" x="31.112864" y="63.047746" style="fill: #ff8c00; fill-opacity: 0.8"/>
    </g>
    <g clip-path="url(#pbdce776ecf)">
     <use xlink:href="#C0_0_98b9024c78" x="134.637406" y="66.636366" style="fill: #ff8c00; fill-opacity: 0.8"/>
    </g>
    <g clip-path="url(#pbdce776ecf)">
     <use xlink:href="#C0_0_98b9024c78" x="76.935202" y="73.813606" style="fill: #ff8c00; fill-opacity: 0.8"/>
    </g>
    <g clip-path="url(#pbdce776ecf)">
     <use xlink:href="#C0_0_98b9024c78" x="66.75246" y="34.338787" style="fill: #ff8c00; fill-opacity: 0.8"/>
    </g>
    <g clip-path="url(#pbdce776ecf)">
     <use xlink:href="#C0_0_98b9024c78" x="46.386977" y="12.807067" style="fill: #ff8c00; fill-opacity: 0.8"/>
    </g>
    <g clip-path="url(#pbdce776ecf)">
     <use xlink:href="#C0_0_98b9024c78" x="46.386977" y="9.218447" style="fill: #ff8c00; fill-opacity: 0.8"/>
    </g>
    <g clip-path="url(#pbdce776ecf)">
     <use xlink:href="#C0_0_98b9024c78" x="80.32945" y="73.813606" style="fill: #ff8c00; fill-opacity: 0.8"/>
    </g>
    <g clip-path="url(#pbdce776ecf)">
     <use xlink:href="#C0_0_98b9024c78" x="95.603562" y="55.870506" style="fill: #ff8c00; fill-opacity: 0.8"/>
    </g>
    <g clip-path="url(#pbdce776ecf)">
     <use xlink:href="#C0_0_98b9024c78" x="90.512191" y="70.224986" style="fill: #ff8c00; fill-opacity: 0.8"/>
    </g>
    <g clip-path="url(#pbdce776ecf)">
     <use xlink:href="#C0_0_98b9024c78" x="66.75246" y="73.813606" style="fill: #ff8c00; fill-opacity: 0.8"/>
    </g>
    <g clip-path="url(#pbdce776ecf)">
     <use xlink:href="#C0_0_98b9024c78" x="65.055337" y="41.516027" style="fill: #ff8c00; fill-opacity: 0.8"/>
    </g>
    <g clip-path="url(#pbdce776ecf)">
     <use xlink:href="#C0_0_98b9024c78" x="83.723697" y="70.224986" style="fill: #ff8c00; fill-opacity: 0.8"/>
    </g>
    <g clip-path="url(#pbdce776ecf)">
     <use xlink:href="#C0_0_98b9024c78" x="75.238079" y="59.459126" style="fill: #ff8c00; fill-opacity: 0.8"/>
    </g>
    <g clip-path="url(#pbdce776ecf)">
     <use xlink:href="#C0_0_98b9024c78" x="82.026573" y="52.281886" style="fill: #ff8c00; fill-opacity: 0.8"/>
    </g>
    <g clip-path="url(#pbdce776ecf)">
     <use xlink:href="#C0_0_98b9024c78" x="75.238079" y="70.224986" style="fill: #ff8c00; fill-opacity: 0.8"/>
    </g>
    <g clip-path="url(#pbdce776ecf)">
     <use xlink:href="#C0_0_98b9024c78" x="90.512191" y="66.636366" style="fill: #ff8c00; fill-opacity: 0.8"/>
    </g>
    <g clip-path="url(#pbdce776ecf)">
     <use xlink:href="#C0_0_98b9024c78" x="65.055337" y="66.636366" style="fill: #ff8c00; fill-opacity: 0.8"/>
    </g>
    <g clip-path="url(#pbdce776ecf)">
     <use xlink:href="#C0_0_98b9024c78" x="82.026573" y="70.224986" style="fill: #ff8c00; fill-opacity: 0.8"/>
    </g>
    <g clip-path="url(#pbdce776ecf)">
     <use xlink:href="#C0_0_98b9024c78" x="78.632326" y="73.813606" style="fill: #ff8c00; fill-opacity: 0.8"/>
    </g>
    <g clip-path="url(#pbdce776ecf)">
     <use xlink:href="#C0_0_98b9024c78" x="119.363293" y="73.813606" style="fill: #ff8c00; fill-opacity: 0.8"/>
    </g>
    <g clip-path="url(#pbdce776ecf)">
     <use xlink:href="#C0_0_98b9024c78" x="87.117944" y="52.281886" style="fill: #ff8c00; fill-opacity: 0.8"/>
    </g>
    <g clip-path="url(#pbdce776ecf)">
     <use xlink:href="#C0_0_98b9024c78" x="95.603562" y="66.636366" style="fill: #ff8c00; fill-opacity: 0.8"/>
    </g>
    <g clip-path="url(#pbdce776ecf)">
     <use xlink:href="#C0_0_98b9024c78" x="121.060417" y="73.813606" style="fill: #ff8c00; fill-opacity: 0.8"/>
    </g>
    <g clip-path="url(#pbdce776ecf)">
     <use xlink:href="#C0_0_98b9024c78" x="71.843831" y="66.636366" style="fill: #ff8c00; fill-opacity: 0.8"/>
    </g>
    <g clip-path="url(#pbdce776ecf)">
     <use xlink:href="#C0_0_98b9024c78" x="83.723697" y="73.813606" style="fill: #ff8c00; fill-opacity: 0.8"/>
    </g>
    <g clip-path="url(#pbdce776ecf)">
     <use xlink:href="#C0_0_98b9024c78" x="83.723697" y="59.459126" style="fill: #ff8c00; fill-opacity: 0.8"/>
    </g>
    <g clip-path="url(#pbdce776ecf)">
     <use xlink:href="#C0_0_98b9024c78" x="102.392057" y="63.047746" style="fill: #ff8c00; fill-opacity: 0.8"/>
    </g>
    <g clip-path="url(#pbdce776ecf)">
     <use xlink:href="#C0_0_98b9024c78" x="105.786304" y="70.224986" style="fill: #ff8c00; fill-opacity: 0.8"/>
    </g>
    <g clip-path="url(#pbdce776ecf)">
     <use xlink:href="#C0_0_98b9024c78" x="75.238079" y="48.693267" style="fill: #ff8c00; fill-opacity: 0.8"/>
    </g>
    <g clip-path="url(#pbdce776ecf)">
     <use xlink:href="#C0_0_98b9024c78" x="54.872595" y="63.047746" style="fill: #ff8c00; fill-opacity: 0.8"/>
    </g>
    <g clip-path="url(#pbdce776ecf)">
     <use xlink:href="#C0_0_98b9024c78" x="42.99273" y="45.104647" style="fill: #ff8c00; fill-opacity: 0.8"/>
    </g>
    <g clip-path="url(#pbdce776ecf)">
     <use xlink:href="#C0_0_98b9024c78" x="105.786304" y="70.224986" style="fill: #ff8c00; fill-opacity: 0.8"/>
    </g>
    <g clip-path="url(#pbdce776ecf)">
     <use xlink:href="#C0_0_98b9024c78" x="92.209315" y="66.636366" style="fill: #ff8c00; fill-opacity: 0.8"/>
    </g>
    <g clip-path="url(#pbdce776ecf)">
     <use xlink:href="#C0_0_98b9024c78" x="71.843831" y="66.636366" style="fill: #ff8c00; fill-opacity: 0.8"/>
    </g>
    <g clip-path="url(#pbdce776ecf)">
     <use xlink:href="#C0_0_98b9024c78" x="71.843831" y="73.813606" style="fill: #ff8c00; fill-opacity: 0.8"/>
    </g>
    <g clip-path="url(#pbdce776ecf)">
     <use xlink:href="#C0_0_98b9024c78" x="78.632326" y="70.224986" style="fill: #ff8c00; fill-opacity: 0.8"/>
    </g>
    <g clip-path="url(#pbdce776ecf)">
     <use xlink:href="#C0_0_98b9024c78" x="82.026573" y="30.750167" style="fill: #ff8c00; fill-opacity: 0.8"/>
    </g>
    <g clip-path="url(#pbdce776ecf)">
     <use xlink:href="#C0_0_98b9024c78" x="75.238079" y="70.224986" style="fill: #ff8c00; fill-opacity: 0.8"/>
    </g>
    <g clip-path="url(#pbdce776ecf)">
     <use xlink:href="#C0_0_98b9024c78" x="59.963966" y="59.459126" style="fill: #ff8c00; fill-opacity: 0.8"/>
    </g>
    <g clip-path="url(#pbdce776ecf)">
     <use xlink:href="#C0_0_98b9024c78" x="93.906439" y="63.047746" style="fill: #ff8c00; fill-opacity: 0.8"/>
    </g>
    <g clip-path="url(#pbdce776ecf)">
     <use xlink:href="#C0_0_98b9024c78" x="63.358213" y="70.224986" style="fill: #ff8c00; fill-opacity: 0.8"/>
    </g>
    <g clip-path="url(#pbdce776ecf)">
     <use xlink:href="#C0_0_98b9024c78" x="83.723697" y="73.813606" style="fill: #ff8c00; fill-opacity: 0.8"/>
    </g>
    <g clip-path="url(#pbdce776ecf)">
     <use xlink:href="#C0_0_98b9024c78" x="83.723697" y="73.813606" style="fill: #ff8c00; fill-opacity: 0.8"/>
    </g>
    <g clip-path="url(#pbdce776ecf)">
     <use xlink:href="#C0_0_98b9024c78" x="109.180551" y="66.636366" style="fill: #ff8c00; fill-opacity: 0.8"/>
    </g>
    <g clip-path="url(#pbdce776ecf)">
     <use xlink:href="#C0_0_98b9024c78" x="80.32945" y="70.224986" style="fill: #ff8c00; fill-opacity: 0.8"/>
    </g>
    <g clip-path="url(#pbdce776ecf)">
     <use xlink:href="#C0_0_98b9024c78" x="58.266842" y="59.459126" style="fill: #ff8c00; fill-opacity: 0.8"/>
    </g>
   </g>
   <g id="PolyCollection_1">
    <path d="M 31.112864 41.49871 
L 31.112864 61.962926 
L 32.261423 62.010332 
L 33.409981 62.048504 
L 34.558539 62.082161 
L 35.707098 62.117285 
L 36.855656 62.19211 
L 38.004215 62.2348 
L 39.152773 62.259608 
L 40.301332 62.283576 
L 41.44989 62.349215 
L 42.598448 62.389402 
L 43.747007 62.425851 
L 44.895565 62.478969 
L 46.044124 62.535617 
L 47.192682 62.587681 
L 48.34124 62.61428 
L 49.489799 62.656359 
L 50.638357 62.683383 
L 51.786916 62.732472 
L 52.935474 62.779345 
L 54.084033 62.837189 
L 55.232591 62.888516 
L 56.381149 62.958631 
L 57.529708 62.996154 
L 58.678266 63.036092 
L 59.826825 63.102492 
L 60.975383 63.179168 
L 62.123941 63.218083 
L 63.2725 63.290769 
L 64.421058 63.369694 
L 65.569617 63.429924 
L 66.718175 63.506913 
L 67.866734 63.618414 
L 69.015292 63.687842 
L 70.16385 63.755446 
L 71.312409 63.843004 
L 72.460967 63.933245 
L 73.609526 64.02738 
L 74.758084 64.11733 
L 75.906643 64.234769 
L 77.055201 64.325026 
L 78.203759 64.453587 
L 79.352318 64.570294 
L 80.500876 64.70768 
L 81.649435 64.860269 
L 82.797993 65.021711 
L 83.946551 65.217603 
L 85.09511 65.421146 
L 86.243668 65.651754 
L 87.392227 65.892031 
L 88.540785 66.148078 
L 89.689344 66.406015 
L 90.837902 66.680819 
L 91.98646 66.993496 
L 93.135019 67.291521 
L 94.283577 67.592979 
L 95.432136 67.951949 
L 96.580694 68.294298 
L 97.729252 68.668048 
L 98.877811 69.019063 
L 100.026369 69.388947 
L 101.174928 69.757325 
L 102.323486 70.128864 
L 103.472045 70.503204 
L 104.620603 70.887285 
L 105.769161 71.276301 
L 106.91772 71.663069 
L 108.066278 72.052021 
L 109.214837 72.442396 
L 110.363395 72.888519 
L 111.511953 73.303944 
L 112.660512 73.697144 
L 113.80907 74.097955 
L 114.957629 74.530308 
L 116.106187 74.980315 
L 117.254746 75.407193 
L 118.403304 75.827776 
L 119.551862 76.248944 
L 120.700421 76.634501 
L 121.848979 77.062405 
L 122.997538 77.504045 
L 124.146096 77.92121 
L 125.294655 78.357471 
L 126.443213 78.800881 
L 127.591771 79.258314 
L 128.74033 79.674853 
L 129.888888 80.085309 
L 131.037447 80.490792 
L 132.186005 80.906028 
L 133.334563 81.319547 
L 134.483122 81.744945 
L 135.63168 82.138271 
L 136.780239 82.560201 
L 137.928797 82.992031 
L 139.077356 83.426406 
L 140.225914 83.864513 
L 141.374472 84.264565 
L 142.523031 84.688777 
L 143.671589 85.129873 
L 144.820148 85.58738 
L 144.820148 64.574287 
L 144.820148 64.574287 
L 143.671589 64.540993 
L 142.523031 64.495288 
L 141.374472 64.453914 
L 140.225914 64.417296 
L 139.077356 64.376709 
L 137.928797 64.301767 
L 136.780239 64.261188 
L 135.63168 64.22895 
L 134.483122 64.192706 
L 133.334563 64.17882 
L 132.186005 64.130847 
L 131.037447 64.083509 
L 129.888888 64.053125 
L 128.74033 64.003935 
L 127.591771 63.974536 
L 126.443213 63.933374 
L 125.294655 63.877958 
L 124.146096 63.799839 
L 122.997538 63.743278 
L 121.848979 63.672541 
L 120.700421 63.596207 
L 119.551862 63.547617 
L 118.403304 63.504105 
L 117.254746 63.437034 
L 116.106187 63.361869 
L 114.957629 63.309424 
L 113.80907 63.244481 
L 112.660512 63.183744 
L 111.511953 63.086118 
L 110.363395 63.020989 
L 109.214837 62.97531 
L 108.066278 62.864476 
L 106.91772 62.797349 
L 105.769161 62.697789 
L 104.620603 62.591521 
L 103.472045 62.495015 
L 102.323486 62.380831 
L 101.174928 62.273181 
L 100.026369 62.198746 
L 98.877811 62.117057 
L 97.729252 61.940063 
L 96.580694 61.823159 
L 95.432136 61.69931 
L 94.283577 61.547821 
L 93.135019 61.364931 
L 91.98646 61.164163 
L 90.837902 60.985993 
L 89.689344 60.788534 
L 88.540785 60.568949 
L 87.392227 60.32105 
L 86.243668 60.087264 
L 85.09511 59.826967 
L 83.946551 59.553373 
L 82.797993 59.249894 
L 81.649435 58.951545 
L 80.500876 58.644711 
L 79.352318 58.302559 
L 78.203759 57.990859 
L 77.055201 57.652596 
L 75.906643 57.318426 
L 74.758084 56.96507 
L 73.609526 56.604321 
L 72.460967 56.24361 
L 71.312409 55.877559 
L 70.16385 55.477164 
L 69.015292 55.107046 
L 67.866734 54.742738 
L 66.718175 54.346757 
L 65.569617 53.939636 
L 64.421058 53.520877 
L 63.2725 53.139401 
L 62.123941 52.746123 
L 60.975383 52.347031 
L 59.826825 51.928552 
L 58.678266 51.520934 
L 57.529708 51.101982 
L 56.381149 50.695269 
L 55.232591 50.281252 
L 54.084033 49.846305 
L 52.935474 49.419293 
L 51.786916 48.992346 
L 50.638357 48.580125 
L 49.489799 48.182193 
L 48.34124 47.752648 
L 47.192682 47.317234 
L 46.044124 46.897251 
L 44.895565 46.500873 
L 43.747007 46.096911 
L 42.598448 45.702874 
L 41.44989 45.296663 
L 40.301332 44.892953 
L 39.152773 44.464743 
L 38.004215 44.029506 
L 36.855656 43.61696 
L 35.707098 43.189789 
L 34.558539 42.763522 
L 33.409981 42.342692 
L 32.261423 41.92646 
L 31.112864 41.49871 
z
" clip-path="url(#pbdce776ecf)" style="fill: #ff8c00; fill-opacity: 0.15"/>
   </g>
   <g id="matplotlib.axis_1">
    <g id="xtick_1">
     <g id="line2d_1">
      <defs>
       <path id="ma08bd6960f" d="M 0 0 
L 0 3.5 
" style="stroke: #000000; stroke-width: 0.25"/>
      </defs>
      <g>
       <use xlink:href="#ma08bd6960f" x="41.295606" y="89.405827" style="stroke: #000000; stroke-width: 0.25"/>
      </g>
     </g>
     <g id="text_1">
      <!-- 70 -->
      <g transform="translate(38.515137 97.484733) scale(0.05 -0.05)">
       <defs>
        <path id="ArialMT-37" d="M 303 3981 
L 303 4522 
L 3269 4522 
L 3269 4084 
Q 2831 3619 2401 2847 
Q 1972 2075 1738 1259 
Q 1569 684 1522 0 
L 944 0 
Q 953 541 1156 1306 
Q 1359 2072 1739 2783 
Q 2119 3494 2547 3981 
L 303 3981 
z
" transform="scale(0.015625)"/>
        <path id="ArialMT-30" d="M 266 2259 
Q 266 3072 433 3567 
Q 600 4063 929 4331 
Q 1259 4600 1759 4600 
Q 2128 4600 2406 4451 
Q 2684 4303 2865 4023 
Q 3047 3744 3150 3342 
Q 3253 2941 3253 2259 
Q 3253 1453 3087 958 
Q 2922 463 2592 192 
Q 2263 -78 1759 -78 
Q 1097 -78 719 397 
Q 266 969 266 2259 
z
M 844 2259 
Q 844 1131 1108 757 
Q 1372 384 1759 384 
Q 2147 384 2411 759 
Q 2675 1134 2675 2259 
Q 2675 3391 2411 3762 
Q 2147 4134 1753 4134 
Q 1366 4134 1134 3806 
Q 844 3388 844 2259 
z
" transform="scale(0.015625)"/>
       </defs>
       <use xlink:href="#ArialMT-37"/>
       <use xlink:href="#ArialMT-30" x="55.615234"/>
      </g>
     </g>
    </g>
    <g id="xtick_2">
     <g id="line2d_2">
      <g>
       <use xlink:href="#ma08bd6960f" x="58.266842" y="89.405827" style="stroke: #000000; stroke-width: 0.25"/>
      </g>
     </g>
     <g id="text_2">
      <!-- 80 -->
      <g transform="translate(55.486374 97.484733) scale(0.05 -0.05)">
       <defs>
        <path id="ArialMT-38" d="M 1131 2484 
Q 781 2613 612 2850 
Q 444 3088 444 3419 
Q 444 3919 803 4259 
Q 1163 4600 1759 4600 
Q 2359 4600 2725 4251 
Q 3091 3903 3091 3403 
Q 3091 3084 2923 2848 
Q 2756 2613 2416 2484 
Q 2838 2347 3058 2040 
Q 3278 1734 3278 1309 
Q 3278 722 2862 322 
Q 2447 -78 1769 -78 
Q 1091 -78 675 323 
Q 259 725 259 1325 
Q 259 1772 486 2073 
Q 713 2375 1131 2484 
z
M 1019 3438 
Q 1019 3113 1228 2906 
Q 1438 2700 1772 2700 
Q 2097 2700 2305 2904 
Q 2513 3109 2513 3406 
Q 2513 3716 2298 3927 
Q 2084 4138 1766 4138 
Q 1444 4138 1231 3931 
Q 1019 3725 1019 3438 
z
M 838 1322 
Q 838 1081 952 856 
Q 1066 631 1291 507 
Q 1516 384 1775 384 
Q 2178 384 2440 643 
Q 2703 903 2703 1303 
Q 2703 1709 2433 1975 
Q 2163 2241 1756 2241 
Q 1359 2241 1098 1978 
Q 838 1716 838 1322 
z
" transform="scale(0.015625)"/>
       </defs>
       <use xlink:href="#ArialMT-38"/>
       <use xlink:href="#ArialMT-30" x="55.615234"/>
      </g>
     </g>
    </g>
    <g id="xtick_3">
     <g id="line2d_3">
      <g>
       <use xlink:href="#ma08bd6960f" x="75.238079" y="89.405827" style="stroke: #000000; stroke-width: 0.25"/>
      </g>
     </g>
     <g id="text_3">
      <!-- 90 -->
      <g transform="translate(72.45761 97.484733) scale(0.05 -0.05)">
       <defs>
        <path id="ArialMT-39" d="M 350 1059 
L 891 1109 
Q 959 728 1153 556 
Q 1347 384 1650 384 
Q 1909 384 2104 503 
Q 2300 622 2425 820 
Q 2550 1019 2634 1356 
Q 2719 1694 2719 2044 
Q 2719 2081 2716 2156 
Q 2547 1888 2255 1720 
Q 1963 1553 1622 1553 
Q 1053 1553 659 1965 
Q 266 2378 266 3053 
Q 266 3750 677 4175 
Q 1088 4600 1706 4600 
Q 2153 4600 2523 4359 
Q 2894 4119 3086 3673 
Q 3278 3228 3278 2384 
Q 3278 1506 3087 986 
Q 2897 466 2520 194 
Q 2144 -78 1638 -78 
Q 1100 -78 759 220 
Q 419 519 350 1059 
z
M 2653 3081 
Q 2653 3566 2395 3850 
Q 2138 4134 1775 4134 
Q 1400 4134 1122 3828 
Q 844 3522 844 3034 
Q 844 2597 1108 2323 
Q 1372 2050 1759 2050 
Q 2150 2050 2401 2323 
Q 2653 2597 2653 3081 
z
" transform="scale(0.015625)"/>
       </defs>
       <use xlink:href="#ArialMT-39"/>
       <use xlink:href="#ArialMT-30" x="55.615234"/>
      </g>
     </g>
    </g>
    <g id="xtick_4">
     <g id="line2d_4">
      <g>
       <use xlink:href="#ma08bd6960f" x="92.209315" y="89.405827" style="stroke: #000000; stroke-width: 0.25"/>
      </g>
     </g>
     <g id="text_4">
      <!-- 100 -->
      <g transform="translate(88.038612 97.484733) scale(0.05 -0.05)">
       <defs>
        <path id="ArialMT-31" d="M 2384 0 
L 1822 0 
L 1822 3584 
Q 1619 3391 1289 3197 
Q 959 3003 697 2906 
L 697 3450 
Q 1169 3672 1522 3987 
Q 1875 4303 2022 4600 
L 2384 4600 
L 2384 0 
z
" transform="scale(0.015625)"/>
       </defs>
       <use xlink:href="#ArialMT-31"/>
       <use xlink:href="#ArialMT-30" x="55.615234"/>
       <use xlink:href="#ArialMT-30" x="111.230469"/>
      </g>
     </g>
    </g>
    <g id="xtick_5">
     <g id="line2d_5">
      <g>
       <use xlink:href="#ma08bd6960f" x="109.180551" y="89.405827" style="stroke: #000000; stroke-width: 0.25"/>
      </g>
     </g>
     <g id="text_5">
      <!-- 110 -->
      <g transform="translate(105.194223 97.484733) scale(0.05 -0.05)">
       <use xlink:href="#ArialMT-31"/>
       <use xlink:href="#ArialMT-31" x="48.240234"/>
       <use xlink:href="#ArialMT-30" x="103.855469"/>
      </g>
     </g>
    </g>
    <g id="xtick_6">
     <g id="line2d_6">
      <g>
       <use xlink:href="#ma08bd6960f" x="126.151788" y="89.405827" style="stroke: #000000; stroke-width: 0.25"/>
      </g>
     </g>
     <g id="text_6">
      <!-- 120 -->
      <g transform="translate(121.981085 97.484733) scale(0.05 -0.05)">
       <defs>
        <path id="ArialMT-32" d="M 3222 541 
L 3222 0 
L 194 0 
Q 188 203 259 391 
Q 375 700 629 1000 
Q 884 1300 1366 1694 
Q 2113 2306 2375 2664 
Q 2638 3022 2638 3341 
Q 2638 3675 2398 3904 
Q 2159 4134 1775 4134 
Q 1369 4134 1125 3890 
Q 881 3647 878 3216 
L 300 3275 
Q 359 3922 746 4261 
Q 1134 4600 1788 4600 
Q 2447 4600 2831 4234 
Q 3216 3869 3216 3328 
Q 3216 3053 3103 2787 
Q 2991 2522 2730 2228 
Q 2469 1934 1863 1422 
Q 1356 997 1212 845 
Q 1069 694 975 541 
L 3222 541 
z
" transform="scale(0.015625)"/>
       </defs>
       <use xlink:href="#ArialMT-31"/>
       <use xlink:href="#ArialMT-32" x="55.615234"/>
       <use xlink:href="#ArialMT-30" x="111.230469"/>
      </g>
     </g>
    </g>
    <g id="xtick_7">
     <g id="line2d_7">
      <g>
       <use xlink:href="#ma08bd6960f" x="143.123024" y="89.405827" style="stroke: #000000; stroke-width: 0.25"/>
      </g>
     </g>
     <g id="text_7">
      <!-- 130 -->
      <g transform="translate(138.952321 97.484733) scale(0.05 -0.05)">
       <defs>
        <path id="ArialMT-33" d="M 269 1209 
L 831 1284 
Q 928 806 1161 595 
Q 1394 384 1728 384 
Q 2125 384 2398 659 
Q 2672 934 2672 1341 
Q 2672 1728 2419 1979 
Q 2166 2231 1775 2231 
Q 1616 2231 1378 2169 
L 1441 2663 
Q 1497 2656 1531 2656 
Q 1891 2656 2178 2843 
Q 2466 3031 2466 3422 
Q 2466 3731 2256 3934 
Q 2047 4138 1716 4138 
Q 1388 4138 1169 3931 
Q 950 3725 888 3313 
L 325 3413 
Q 428 3978 793 4289 
Q 1159 4600 1703 4600 
Q 2078 4600 2393 4439 
Q 2709 4278 2876 4000 
Q 3044 3722 3044 3409 
Q 3044 3113 2884 2869 
Q 2725 2625 2413 2481 
Q 2819 2388 3044 2092 
Q 3269 1797 3269 1353 
Q 3269 753 2831 336 
Q 2394 -81 1725 -81 
Q 1122 -81 723 278 
Q 325 638 269 1209 
z
" transform="scale(0.015625)"/>
       </defs>
       <use xlink:href="#ArialMT-31"/>
       <use xlink:href="#ArialMT-33" x="55.615234"/>
       <use xlink:href="#ArialMT-30" x="111.230469"/>
      </g>
     </g>
    </g>
    <g id="text_8">
     <!-- Full-scale IQ [a.u.] -->
     <g transform="translate(63.626662 106.850046) scale(0.06 -0.06)">
      <defs>
       <path id="ArialMT-46" d="M 525 0 
L 525 4581 
L 3616 4581 
L 3616 4041 
L 1131 4041 
L 1131 2622 
L 3281 2622 
L 3281 2081 
L 1131 2081 
L 1131 0 
L 525 0 
z
" transform="scale(0.015625)"/>
       <path id="ArialMT-75" d="M 2597 0 
L 2597 488 
Q 2209 -75 1544 -75 
Q 1250 -75 995 37 
Q 741 150 617 320 
Q 494 491 444 738 
Q 409 903 409 1263 
L 409 3319 
L 972 3319 
L 972 1478 
Q 972 1038 1006 884 
Q 1059 663 1231 536 
Q 1403 409 1656 409 
Q 1909 409 2131 539 
Q 2353 669 2445 892 
Q 2538 1116 2538 1541 
L 2538 3319 
L 3100 3319 
L 3100 0 
L 2597 0 
z
" transform="scale(0.015625)"/>
       <path id="ArialMT-6c" d="M 409 0 
L 409 4581 
L 972 4581 
L 972 0 
L 409 0 
z
" transform="scale(0.015625)"/>
       <path id="ArialMT-2d" d="M 203 1375 
L 203 1941 
L 1931 1941 
L 1931 1375 
L 203 1375 
z
" transform="scale(0.015625)"/>
       <path id="ArialMT-73" d="M 197 991 
L 753 1078 
Q 800 744 1014 566 
Q 1228 388 1613 388 
Q 2000 388 2187 545 
Q 2375 703 2375 916 
Q 2375 1106 2209 1216 
Q 2094 1291 1634 1406 
Q 1016 1563 777 1677 
Q 538 1791 414 1992 
Q 291 2194 291 2438 
Q 291 2659 392 2848 
Q 494 3038 669 3163 
Q 800 3259 1026 3326 
Q 1253 3394 1513 3394 
Q 1903 3394 2198 3281 
Q 2494 3169 2634 2976 
Q 2775 2784 2828 2463 
L 2278 2388 
Q 2241 2644 2061 2787 
Q 1881 2931 1553 2931 
Q 1166 2931 1000 2803 
Q 834 2675 834 2503 
Q 834 2394 903 2306 
Q 972 2216 1119 2156 
Q 1203 2125 1616 2013 
Q 2213 1853 2448 1751 
Q 2684 1650 2818 1456 
Q 2953 1263 2953 975 
Q 2953 694 2789 445 
Q 2625 197 2315 61 
Q 2006 -75 1616 -75 
Q 969 -75 630 194 
Q 291 463 197 991 
z
" transform="scale(0.015625)"/>
       <path id="ArialMT-63" d="M 2588 1216 
L 3141 1144 
Q 3050 572 2676 248 
Q 2303 -75 1759 -75 
Q 1078 -75 664 370 
Q 250 816 250 1647 
Q 250 2184 428 2587 
Q 606 2991 970 3192 
Q 1334 3394 1763 3394 
Q 2303 3394 2647 3120 
Q 2991 2847 3088 2344 
L 2541 2259 
Q 2463 2594 2264 2762 
Q 2066 2931 1784 2931 
Q 1359 2931 1093 2626 
Q 828 2322 828 1663 
Q 828 994 1084 691 
Q 1341 388 1753 388 
Q 2084 388 2306 591 
Q 2528 794 2588 1216 
z
" transform="scale(0.015625)"/>
       <path id="ArialMT-61" d="M 2588 409 
Q 2275 144 1986 34 
Q 1697 -75 1366 -75 
Q 819 -75 525 192 
Q 231 459 231 875 
Q 231 1119 342 1320 
Q 453 1522 633 1644 
Q 813 1766 1038 1828 
Q 1203 1872 1538 1913 
Q 2219 1994 2541 2106 
Q 2544 2222 2544 2253 
Q 2544 2597 2384 2738 
Q 2169 2928 1744 2928 
Q 1347 2928 1158 2789 
Q 969 2650 878 2297 
L 328 2372 
Q 403 2725 575 2942 
Q 747 3159 1072 3276 
Q 1397 3394 1825 3394 
Q 2250 3394 2515 3294 
Q 2781 3194 2906 3042 
Q 3031 2891 3081 2659 
Q 3109 2516 3109 2141 
L 3109 1391 
Q 3109 606 3145 398 
Q 3181 191 3288 0 
L 2700 0 
Q 2613 175 2588 409 
z
M 2541 1666 
Q 2234 1541 1622 1453 
Q 1275 1403 1131 1340 
Q 988 1278 909 1158 
Q 831 1038 831 891 
Q 831 666 1001 516 
Q 1172 366 1500 366 
Q 1825 366 2078 508 
Q 2331 650 2450 897 
Q 2541 1088 2541 1459 
L 2541 1666 
z
" transform="scale(0.015625)"/>
       <path id="ArialMT-65" d="M 2694 1069 
L 3275 997 
Q 3138 488 2766 206 
Q 2394 -75 1816 -75 
Q 1088 -75 661 373 
Q 234 822 234 1631 
Q 234 2469 665 2931 
Q 1097 3394 1784 3394 
Q 2450 3394 2872 2941 
Q 3294 2488 3294 1666 
Q 3294 1616 3291 1516 
L 816 1516 
Q 847 969 1125 678 
Q 1403 388 1819 388 
Q 2128 388 2347 550 
Q 2566 713 2694 1069 
z
M 847 1978 
L 2700 1978 
Q 2663 2397 2488 2606 
Q 2219 2931 1791 2931 
Q 1403 2931 1139 2672 
Q 875 2413 847 1978 
z
" transform="scale(0.015625)"/>
       <path id="ArialMT-20" transform="scale(0.015625)"/>
       <path id="ArialMT-49" d="M 597 0 
L 597 4581 
L 1203 4581 
L 1203 0 
L 597 0 
z
" transform="scale(0.015625)"/>
       <path id="ArialMT-51" d="M 3966 491 
Q 4388 200 4744 66 
L 4566 -356 
Q 4072 -178 3581 206 
Q 3072 -78 2456 -78 
Q 1834 -78 1328 222 
Q 822 522 548 1065 
Q 275 1609 275 2291 
Q 275 2969 550 3525 
Q 825 4081 1333 4372 
Q 1841 4663 2469 4663 
Q 3103 4663 3612 4361 
Q 4122 4059 4389 3517 
Q 4656 2975 4656 2294 
Q 4656 1728 4484 1276 
Q 4313 825 3966 491 
z
M 2631 1266 
Q 3156 1119 3497 828 
Q 4031 1316 4031 2294 
Q 4031 2850 3842 3265 
Q 3653 3681 3289 3911 
Q 2925 4141 2472 4141 
Q 1794 4141 1347 3677 
Q 900 3213 900 2291 
Q 900 1397 1342 919 
Q 1784 441 2472 441 
Q 2797 441 3084 563 
Q 2800 747 2484 825 
L 2631 1266 
z
" transform="scale(0.015625)"/>
       <path id="ArialMT-5b" d="M 434 -1272 
L 434 4581 
L 1675 4581 
L 1675 4116 
L 997 4116 
L 997 -806 
L 1675 -806 
L 1675 -1272 
L 434 -1272 
z
" transform="scale(0.015625)"/>
       <path id="ArialMT-2e" d="M 581 0 
L 581 641 
L 1222 641 
L 1222 0 
L 581 0 
z
" transform="scale(0.015625)"/>
       <path id="ArialMT-5d" d="M 1363 -1272 
L 122 -1272 
L 122 -806 
L 800 -806 
L 800 4116 
L 122 4116 
L 122 4581 
L 1363 4581 
L 1363 -1272 
z
" transform="scale(0.015625)"/>
      </defs>
      <use xlink:href="#ArialMT-46"/>
      <use xlink:href="#ArialMT-75" x="61.083984"/>
      <use xlink:href="#ArialMT-6c" x="116.699219"/>
      <use xlink:href="#ArialMT-6c" x="138.916016"/>
      <use xlink:href="#ArialMT-2d" x="161.132812"/>
      <use xlink:href="#ArialMT-73" x="194.433594"/>
      <use xlink:href="#ArialMT-63" x="244.433594"/>
      <use xlink:href="#ArialMT-61" x="294.433594"/>
      <use xlink:href="#ArialMT-6c" x="350.048828"/>
      <use xlink:href="#ArialMT-65" x="372.265625"/>
      <use xlink:href="#ArialMT-20" x="427.880859"/>
      <use xlink:href="#ArialMT-49" x="455.664062"/>
      <use xlink:href="#ArialMT-51" x="483.447266"/>
      <use xlink:href="#ArialMT-20" x="561.230469"/>
      <use xlink:href="#ArialMT-5b" x="589.013672"/>
      <use xlink:href="#ArialMT-61" x="616.796875"/>
      <use xlink:href="#ArialMT-2e" x="672.412109"/>
      <use xlink:href="#ArialMT-75" x="700.195312"/>
      <use xlink:href="#ArialMT-2e" x="755.810547"/>
      <use xlink:href="#ArialMT-5d" x="783.59375"/>
     </g>
    </g>
   </g>
   <g id="matplotlib.axis_2">
    <g id="ytick_1">
     <g id="line2d_8">
      <defs>
       <path id="mc1f116829a" d="M 0 0 
L -3.5 0 
" style="stroke: #000000; stroke-width: 0.25"/>
      </defs>
      <g>
       <use xlink:href="#mc1f116829a" x="25.4275" y="73.813606" style="stroke: #000000; stroke-width: 0.25"/>
      </g>
     </g>
     <g id="text_9">
      <!-- 0 -->
      <g transform="translate(18.147031 75.60306) scale(0.05 -0.05)">
       <use xlink:href="#ArialMT-30"/>
      </g>
     </g>
    </g>
    <g id="ytick_2">
     <g id="line2d_9">
      <g>
       <use xlink:href="#mc1f116829a" x="25.4275" y="55.870506" style="stroke: #000000; stroke-width: 0.25"/>
      </g>
     </g>
     <g id="text_10">
      <!-- 5 -->
      <g transform="translate(18.147031 57.65996) scale(0.05 -0.05)">
       <defs>
        <path id="ArialMT-35" d="M 266 1200 
L 856 1250 
Q 922 819 1161 601 
Q 1400 384 1738 384 
Q 2144 384 2425 690 
Q 2706 997 2706 1503 
Q 2706 1984 2436 2262 
Q 2166 2541 1728 2541 
Q 1456 2541 1237 2417 
Q 1019 2294 894 2097 
L 366 2166 
L 809 4519 
L 3088 4519 
L 3088 3981 
L 1259 3981 
L 1013 2750 
Q 1425 3038 1878 3038 
Q 2478 3038 2890 2622 
Q 3303 2206 3303 1553 
Q 3303 931 2941 478 
Q 2500 -78 1738 -78 
Q 1113 -78 717 272 
Q 322 622 266 1200 
z
" transform="scale(0.015625)"/>
       </defs>
       <use xlink:href="#ArialMT-35"/>
      </g>
     </g>
    </g>
    <g id="ytick_3">
     <g id="line2d_10">
      <g>
       <use xlink:href="#mc1f116829a" x="25.4275" y="37.927407" style="stroke: #000000; stroke-width: 0.25"/>
      </g>
     </g>
     <g id="text_11">
      <!-- 10 -->
      <g transform="translate(15.366562 39.71686) scale(0.05 -0.05)">
       <use xlink:href="#ArialMT-31"/>
       <use xlink:href="#ArialMT-30" x="55.615234"/>
      </g>
     </g>
    </g>
    <g id="ytick_4">
     <g id="line2d_11">
      <g>
       <use xlink:href="#mc1f116829a" x="25.4275" y="19.984307" style="stroke: #000000; stroke-width: 0.25"/>
      </g>
     </g>
     <g id="text_12">
      <!-- 15 -->
      <g transform="translate(15.366562 21.77376) scale(0.05 -0.05)">
       <use xlink:href="#ArialMT-31"/>
       <use xlink:href="#ArialMT-35" x="55.615234"/>
      </g>
     </g>
    </g>
    <g id="text_13">
     <!-- Number infranormal deviations [a.u.] -->
     <g transform="translate(10.174062 95.755413) rotate(-90) scale(0.06 -0.06)">
      <defs>
       <path id="ArialMT-4e" d="M 488 0 
L 488 4581 
L 1109 4581 
L 3516 984 
L 3516 4581 
L 4097 4581 
L 4097 0 
L 3475 0 
L 1069 3600 
L 1069 0 
L 488 0 
z
" transform="scale(0.015625)"/>
       <path id="ArialMT-6d" d="M 422 0 
L 422 3319 
L 925 3319 
L 925 2853 
Q 1081 3097 1340 3245 
Q 1600 3394 1931 3394 
Q 2300 3394 2536 3241 
Q 2772 3088 2869 2813 
Q 3263 3394 3894 3394 
Q 4388 3394 4653 3120 
Q 4919 2847 4919 2278 
L 4919 0 
L 4359 0 
L 4359 2091 
Q 4359 2428 4304 2576 
Q 4250 2725 4106 2815 
Q 3963 2906 3769 2906 
Q 3419 2906 3187 2673 
Q 2956 2441 2956 1928 
L 2956 0 
L 2394 0 
L 2394 2156 
Q 2394 2531 2256 2718 
Q 2119 2906 1806 2906 
Q 1569 2906 1367 2781 
Q 1166 2656 1075 2415 
Q 984 2175 984 1722 
L 984 0 
L 422 0 
z
" transform="scale(0.015625)"/>
       <path id="ArialMT-62" d="M 941 0 
L 419 0 
L 419 4581 
L 981 4581 
L 981 2947 
Q 1338 3394 1891 3394 
Q 2197 3394 2470 3270 
Q 2744 3147 2920 2923 
Q 3097 2700 3197 2384 
Q 3297 2069 3297 1709 
Q 3297 856 2875 390 
Q 2453 -75 1863 -75 
Q 1275 -75 941 416 
L 941 0 
z
M 934 1684 
Q 934 1088 1097 822 
Q 1363 388 1816 388 
Q 2184 388 2453 708 
Q 2722 1028 2722 1663 
Q 2722 2313 2464 2622 
Q 2206 2931 1841 2931 
Q 1472 2931 1203 2611 
Q 934 2291 934 1684 
z
" transform="scale(0.015625)"/>
       <path id="ArialMT-72" d="M 416 0 
L 416 3319 
L 922 3319 
L 922 2816 
Q 1116 3169 1280 3281 
Q 1444 3394 1641 3394 
Q 1925 3394 2219 3213 
L 2025 2691 
Q 1819 2813 1613 2813 
Q 1428 2813 1281 2702 
Q 1134 2591 1072 2394 
Q 978 2094 978 1738 
L 978 0 
L 416 0 
z
" transform="scale(0.015625)"/>
       <path id="ArialMT-69" d="M 425 3934 
L 425 4581 
L 988 4581 
L 988 3934 
L 425 3934 
z
M 425 0 
L 425 3319 
L 988 3319 
L 988 0 
L 425 0 
z
" transform="scale(0.015625)"/>
       <path id="ArialMT-6e" d="M 422 0 
L 422 3319 
L 928 3319 
L 928 2847 
Q 1294 3394 1984 3394 
Q 2284 3394 2536 3286 
Q 2788 3178 2913 3003 
Q 3038 2828 3088 2588 
Q 3119 2431 3119 2041 
L 3119 0 
L 2556 0 
L 2556 2019 
Q 2556 2363 2490 2533 
Q 2425 2703 2258 2804 
Q 2091 2906 1866 2906 
Q 1506 2906 1245 2678 
Q 984 2450 984 1813 
L 984 0 
L 422 0 
z
" transform="scale(0.015625)"/>
       <path id="ArialMT-66" d="M 556 0 
L 556 2881 
L 59 2881 
L 59 3319 
L 556 3319 
L 556 3672 
Q 556 4006 616 4169 
Q 697 4388 901 4523 
Q 1106 4659 1475 4659 
Q 1713 4659 2000 4603 
L 1916 4113 
Q 1741 4144 1584 4144 
Q 1328 4144 1222 4034 
Q 1116 3925 1116 3625 
L 1116 3319 
L 1763 3319 
L 1763 2881 
L 1116 2881 
L 1116 0 
L 556 0 
z
" transform="scale(0.015625)"/>
       <path id="ArialMT-6f" d="M 213 1659 
Q 213 2581 725 3025 
Q 1153 3394 1769 3394 
Q 2453 3394 2887 2945 
Q 3322 2497 3322 1706 
Q 3322 1066 3130 698 
Q 2938 331 2570 128 
Q 2203 -75 1769 -75 
Q 1072 -75 642 372 
Q 213 819 213 1659 
z
M 791 1659 
Q 791 1022 1069 705 
Q 1347 388 1769 388 
Q 2188 388 2466 706 
Q 2744 1025 2744 1678 
Q 2744 2294 2464 2611 
Q 2184 2928 1769 2928 
Q 1347 2928 1069 2612 
Q 791 2297 791 1659 
z
" transform="scale(0.015625)"/>
       <path id="ArialMT-64" d="M 2575 0 
L 2575 419 
Q 2259 -75 1647 -75 
Q 1250 -75 917 144 
Q 584 363 401 755 
Q 219 1147 219 1656 
Q 219 2153 384 2558 
Q 550 2963 881 3178 
Q 1213 3394 1622 3394 
Q 1922 3394 2156 3267 
Q 2391 3141 2538 2938 
L 2538 4581 
L 3097 4581 
L 3097 0 
L 2575 0 
z
M 797 1656 
Q 797 1019 1065 703 
Q 1334 388 1700 388 
Q 2069 388 2326 689 
Q 2584 991 2584 1609 
Q 2584 2291 2321 2609 
Q 2059 2928 1675 2928 
Q 1300 2928 1048 2622 
Q 797 2316 797 1656 
z
" transform="scale(0.015625)"/>
       <path id="ArialMT-76" d="M 1344 0 
L 81 3319 
L 675 3319 
L 1388 1331 
Q 1503 1009 1600 663 
Q 1675 925 1809 1294 
L 2547 3319 
L 3125 3319 
L 1869 0 
L 1344 0 
z
" transform="scale(0.015625)"/>
       <path id="ArialMT-74" d="M 1650 503 
L 1731 6 
Q 1494 -44 1306 -44 
Q 1000 -44 831 53 
Q 663 150 594 308 
Q 525 466 525 972 
L 525 2881 
L 113 2881 
L 113 3319 
L 525 3319 
L 525 4141 
L 1084 4478 
L 1084 3319 
L 1650 3319 
L 1650 2881 
L 1084 2881 
L 1084 941 
Q 1084 700 1114 631 
Q 1144 563 1211 522 
Q 1278 481 1403 481 
Q 1497 481 1650 503 
z
" transform="scale(0.015625)"/>
      </defs>
      <use xlink:href="#ArialMT-4e"/>
      <use xlink:href="#ArialMT-75" x="72.216797"/>
      <use xlink:href="#ArialMT-6d" x="127.832031"/>
      <use xlink:href="#ArialMT-62" x="211.132812"/>
      <use xlink:href="#ArialMT-65" x="266.748047"/>
      <use xlink:href="#ArialMT-72" x="322.363281"/>
      <use xlink:href="#ArialMT-20" x="355.664062"/>
      <use xlink:href="#ArialMT-69" x="383.447266"/>
      <use xlink:href="#ArialMT-6e" x="405.664062"/>
      <use xlink:href="#ArialMT-66" x="461.279297"/>
      <use xlink:href="#ArialMT-72" x="489.0625"/>
      <use xlink:href="#ArialMT-61" x="522.363281"/>
      <use xlink:href="#ArialMT-6e" x="577.978516"/>
      <use xlink:href="#ArialMT-6f" x="633.59375"/>
      <use xlink:href="#ArialMT-72" x="689.208984"/>
      <use xlink:href="#ArialMT-6d" x="722.509766"/>
      <use xlink:href="#ArialMT-61" x="805.810547"/>
      <use xlink:href="#ArialMT-6c" x="861.425781"/>
      <use xlink:href="#ArialMT-20" x="883.642578"/>
      <use xlink:href="#ArialMT-64" x="911.425781"/>
      <use xlink:href="#ArialMT-65" x="967.041016"/>
      <use xlink:href="#ArialMT-76" x="1022.65625"/>
      <use xlink:href="#ArialMT-69" x="1072.65625"/>
      <use xlink:href="#ArialMT-61" x="1094.873047"/>
      <use xlink:href="#ArialMT-74" x="1150.488281"/>
      <use xlink:href="#ArialMT-69" x="1178.271484"/>
      <use xlink:href="#ArialMT-6f" x="1200.488281"/>
      <use xlink:href="#ArialMT-6e" x="1256.103516"/>
      <use xlink:href="#ArialMT-73" x="1311.71875"/>
      <use xlink:href="#ArialMT-20" x="1361.71875"/>
      <use xlink:href="#ArialMT-5b" x="1389.501953"/>
      <use xlink:href="#ArialMT-61" x="1417.285156"/>
      <use xlink:href="#ArialMT-2e" x="1472.900391"/>
      <use xlink:href="#ArialMT-75" x="1500.683594"/>
      <use xlink:href="#ArialMT-2e" x="1556.298828"/>
      <use xlink:href="#ArialMT-5d" x="1584.082031"/>
     </g>
    </g>
   </g>
   <g id="line2d_12">
    <path d="M 31.112864 51.66298 
L 32.261423 51.897014 
L 33.409981 52.131049 
L 34.558539 52.365083 
L 35.707098 52.599117 
L 36.855656 52.833151 
L 38.004215 53.067185 
L 39.152773 53.301219 
L 40.301332 53.535254 
L 41.44989 53.769288 
L 42.598448 54.003322 
L 43.747007 54.237356 
L 44.895565 54.47139 
L 46.044124 54.705424 
L 47.192682 54.939458 
L 48.34124 55.173493 
L 49.489799 55.407527 
L 50.638357 55.641561 
L 51.786916 55.875595 
L 52.935474 56.109629 
L 54.084033 56.343663 
L 55.232591 56.577698 
L 56.381149 56.811732 
L 57.529708 57.045766 
L 58.678266 57.2798 
L 59.826825 57.513834 
L 60.975383 57.747868 
L 62.123941 57.981902 
L 63.2725 58.215937 
L 64.421058 58.449971 
L 65.569617 58.684005 
L 66.718175 58.918039 
L 67.866734 59.152073 
L 69.015292 59.386107 
L 70.16385 59.620142 
L 71.312409 59.854176 
L 72.460967 60.08821 
L 73.609526 60.322244 
L 74.758084 60.556278 
L 75.906643 60.790312 
L 77.055201 61.024346 
L 78.203759 61.258381 
L 79.352318 61.492415 
L 80.500876 61.726449 
L 81.649435 61.960483 
L 82.797993 62.194517 
L 83.946551 62.428551 
L 85.09511 62.662585 
L 86.243668 62.89662 
L 87.392227 63.130654 
L 88.540785 63.364688 
L 89.689344 63.598722 
L 90.837902 63.832756 
L 91.98646 64.06679 
L 93.135019 64.300825 
L 94.283577 64.534859 
L 95.432136 64.768893 
L 96.580694 65.002927 
L 97.729252 65.236961 
L 98.877811 65.470995 
L 100.026369 65.705029 
L 101.174928 65.939064 
L 102.323486 66.173098 
L 103.472045 66.407132 
L 104.620603 66.641166 
L 105.769161 66.8752 
L 106.91772 67.109234 
L 108.066278 67.343269 
L 109.214837 67.577303 
L 110.363395 67.811337 
L 111.511953 68.045371 
L 112.660512 68.279405 
L 113.80907 68.513439 
L 114.957629 68.747473 
L 116.106187 68.981508 
L 117.254746 69.215542 
L 118.403304 69.449576 
L 119.551862 69.68361 
L 120.700421 69.917644 
L 121.848979 70.151678 
L 122.997538 70.385712 
L 124.146096 70.619747 
L 125.294655 70.853781 
L 126.443213 71.087815 
L 127.591771 71.321849 
L 128.74033 71.555883 
L 129.888888 71.789917 
L 131.037447 72.023952 
L 132.186005 72.257986 
L 133.334563 72.49202 
L 134.483122 72.726054 
L 135.63168 72.960088 
L 136.780239 73.194122 
L 137.928797 73.428156 
L 139.077356 73.662191 
L 140.225914 73.896225 
L 141.374472 74.130259 
L 142.523031 74.364293 
L 143.671589 74.598327 
L 144.820148 74.832361 
" clip-path="url(#pbdce776ecf)" style="fill: none; stroke: #ff8c00; stroke-width: 0.75; stroke-linecap: square"/>
   </g>
   <g id="patch_3">
    <path d="M 25.4275 89.405827 
L 25.4275 5.4 
" style="fill: none; stroke: #000000; stroke-width: 0.25; stroke-linejoin: miter; stroke-linecap: square"/>
   </g>
   <g id="patch_4">
    <path d="M 25.4275 89.405827 
L 150.505512 89.405827 
" style="fill: none; stroke: #000000; stroke-width: 0.25; stroke-linejoin: miter; stroke-linecap: square"/>
   </g>
   <g id="text_14">
    <g id="patch_5">
     <path d="M 29.17984 18.702773 
L 57.57984 18.702773 
Q 59.07984 18.702773 59.07984 17.202773 
L 59.07984 7.136367 
Q 59.07984 5.636367 57.57984 5.636367 
L 29.17984 5.636367 
Q 27.67984 5.636367 27.67984 7.136367 
L 27.67984 17.202773 
Q 27.67984 18.702773 29.17984 18.702773 
z
" style="fill: #c0c0c0; opacity: 0.4; stroke: #c0c0c0; stroke-linejoin: miter"/>
    </g>
    <!-- $r=-0.227$ -->
    <g transform="translate(29.17984 10.659023) scale(0.05 -0.05)">
     <defs>
      <path id="DejaVuSans-Oblique-72" d="M 2853 2969 
Q 2766 3016 2653 3041 
Q 2541 3066 2413 3066 
Q 1953 3066 1609 2717 
Q 1266 2369 1153 1784 
L 800 0 
L 225 0 
L 909 3500 
L 1484 3500 
L 1375 2956 
Q 1603 3259 1920 3421 
Q 2238 3584 2597 3584 
Q 2691 3584 2781 3573 
Q 2872 3563 2963 3538 
L 2853 2969 
z
" transform="scale(0.015625)"/>
      <path id="DejaVuSans-3d" d="M 678 2906 
L 4684 2906 
L 4684 2381 
L 678 2381 
L 678 2906 
z
M 678 1631 
L 4684 1631 
L 4684 1100 
L 678 1100 
L 678 1631 
z
" transform="scale(0.015625)"/>
      <path id="DejaVuSans-2212" d="M 678 2272 
L 4684 2272 
L 4684 1741 
L 678 1741 
L 678 2272 
z
" transform="scale(0.015625)"/>
      <path id="DejaVuSans-30" d="M 2034 4250 
Q 1547 4250 1301 3770 
Q 1056 3291 1056 2328 
Q 1056 1369 1301 889 
Q 1547 409 2034 409 
Q 2525 409 2770 889 
Q 3016 1369 3016 2328 
Q 3016 3291 2770 3770 
Q 2525 4250 2034 4250 
z
M 2034 4750 
Q 2819 4750 3233 4129 
Q 3647 3509 3647 2328 
Q 3647 1150 3233 529 
Q 2819 -91 2034 -91 
Q 1250 -91 836 529 
Q 422 1150 422 2328 
Q 422 3509 836 4129 
Q 1250 4750 2034 4750 
z
" transform="scale(0.015625)"/>
      <path id="DejaVuSans-2e" d="M 684 794 
L 1344 794 
L 1344 0 
L 684 0 
L 684 794 
z
" transform="scale(0.015625)"/>
      <path id="DejaVuSans-32" d="M 1228 531 
L 3431 531 
L 3431 0 
L 469 0 
L 469 531 
Q 828 903 1448 1529 
Q 2069 2156 2228 2338 
Q 2531 2678 2651 2914 
Q 2772 3150 2772 3378 
Q 2772 3750 2511 3984 
Q 2250 4219 1831 4219 
Q 1534 4219 1204 4116 
Q 875 4013 500 3803 
L 500 4441 
Q 881 4594 1212 4672 
Q 1544 4750 1819 4750 
Q 2544 4750 2975 4387 
Q 3406 4025 3406 3419 
Q 3406 3131 3298 2873 
Q 3191 2616 2906 2266 
Q 2828 2175 2409 1742 
Q 1991 1309 1228 531 
z
" transform="scale(0.015625)"/>
      <path id="DejaVuSans-37" d="M 525 4666 
L 3525 4666 
L 3525 4397 
L 1831 0 
L 1172 0 
L 2766 4134 
L 525 4134 
L 525 4666 
z
" transform="scale(0.015625)"/>
     </defs>
     <use xlink:href="#DejaVuSans-Oblique-72" transform="translate(0 0.78125)"/>
     <use xlink:href="#DejaVuSans-3d" transform="translate(60.595703 0.78125)"/>
     <use xlink:href="#DejaVuSans-2212" transform="translate(183.349609 0.78125)"/>
     <use xlink:href="#DejaVuSans-30" transform="translate(286.621094 0.78125)"/>
     <use xlink:href="#DejaVuSans-2e" transform="translate(350.244141 0.78125)"/>
     <use xlink:href="#DejaVuSans-32" transform="translate(376.53125 0.78125)"/>
     <use xlink:href="#DejaVuSans-32" transform="translate(440.154297 0.78125)"/>
     <use xlink:href="#DejaVuSans-37" transform="translate(503.777344 0.78125)"/>
    </g>
    <!-- $p=0.030$ -->
    <g transform="translate(29.17984 16.152773) scale(0.05 -0.05)">
     <defs>
      <path id="DejaVuSans-Oblique-70" d="M 3175 2156 
Q 3175 2616 2975 2859 
Q 2775 3103 2400 3103 
Q 2144 3103 1911 2972 
Q 1678 2841 1497 2591 
Q 1319 2344 1212 1994 
Q 1106 1644 1106 1300 
Q 1106 863 1306 627 
Q 1506 391 1875 391 
Q 2147 391 2380 519 
Q 2613 647 2778 891 
Q 2956 1147 3065 1494 
Q 3175 1841 3175 2156 
z
M 1394 2969 
Q 1625 3272 1939 3428 
Q 2253 3584 2638 3584 
Q 3175 3584 3472 3232 
Q 3769 2881 3769 2247 
Q 3769 1728 3584 1258 
Q 3400 788 3053 416 
Q 2822 169 2531 39 
Q 2241 -91 1919 -91 
Q 1547 -91 1294 64 
Q 1041 219 916 525 
L 556 -1331 
L -19 -1331 
L 922 3500 
L 1497 3500 
L 1394 2969 
z
" transform="scale(0.015625)"/>
      <path id="DejaVuSans-33" d="M 2597 2516 
Q 3050 2419 3304 2112 
Q 3559 1806 3559 1356 
Q 3559 666 3084 287 
Q 2609 -91 1734 -91 
Q 1441 -91 1130 -33 
Q 819 25 488 141 
L 488 750 
Q 750 597 1062 519 
Q 1375 441 1716 441 
Q 2309 441 2620 675 
Q 2931 909 2931 1356 
Q 2931 1769 2642 2001 
Q 2353 2234 1838 2234 
L 1294 2234 
L 1294 2753 
L 1863 2753 
Q 2328 2753 2575 2939 
Q 2822 3125 2822 3475 
Q 2822 3834 2567 4026 
Q 2313 4219 1838 4219 
Q 1578 4219 1281 4162 
Q 984 4106 628 3988 
L 628 4550 
Q 988 4650 1302 4700 
Q 1616 4750 1894 4750 
Q 2613 4750 3031 4423 
Q 3450 4097 3450 3541 
Q 3450 3153 3228 2886 
Q 3006 2619 2597 2516 
z
" transform="scale(0.015625)"/>
     </defs>
     <use xlink:href="#DejaVuSans-Oblique-70" transform="translate(0 0.78125)"/>
     <use xlink:href="#DejaVuSans-3d" transform="translate(82.958984 0.78125)"/>
     <use xlink:href="#DejaVuSans-30" transform="translate(186.230469 0.78125)"/>
     <use xlink:href="#DejaVuSans-2e" transform="translate(249.853516 0.78125)"/>
     <use xlink:href="#DejaVuSans-30" transform="translate(281.640625 0.78125)"/>
     <use xlink:href="#DejaVuSans-33" transform="translate(345.263672 0.78125)"/>
     <use xlink:href="#DejaVuSans-30" transform="translate(408.886719 0.78125)"/>
    </g>
   </g>
  </g>
 </g>
 <defs>
  <clipPath id="pbdce776ecf">
   <rect x="25.4275" y="5.4" width="125.078012" height="84.005827"/>
  </clipPath>
 </defs>
</svg>
