<?xml version="1.0" encoding="utf-8" standalone="no"?>
<!DOCTYPE svg PUBLIC "-//W3C//DTD SVG 1.1//EN"
  "http://www.w3.org/Graphics/SVG/1.1/DTD/svg11.dtd">
<svg xmlns:xlink="http://www.w3.org/1999/xlink" width="155.905512pt" height="113.385827pt" viewBox="0 0 155.905512 113.385827" xmlns="http://www.w3.org/2000/svg" version="1.1">
 <metadata>
  <rdf:RDF xmlns:dc="http://purl.org/dc/elements/1.1/" xmlns:cc="http://creativecommons.org/ns#" xmlns:rdf="http://www.w3.org/1999/02/22-rdf-syntax-ns#">
   <cc:Work>
    <dc:type rdf:resource="http://purl.org/dc/dcmitype/StillImage"/>
    <dc:date>2025-08-06T16:48:56.482619</dc:date>
    <dc:format>image/svg+xml</dc:format>
    <dc:creator>
     <cc:Agent>
      <dc:title>Matplotlib v3.9.2, https://matplotlib.org/</dc:title>
     </cc:Agent>
    </dc:creator>
   </cc:Work>
  </rdf:RDF>
 </metadata>
 <defs>
  <style type="text/css">*{stroke-linejoin: round; stroke-linecap: butt}</style>
 </defs>
 <g id="figure_1">
  <g id="patch_1">
   <path d="M 0 113.385827 
L 155.905512 113.385827 
L 155.905512 0 
L 0 0 
z
" style="fill: #ffffff"/>
  </g>
  <g id="axes_1">
   <g id="patch_2">
    <path d="M 25.24 89.405827 
L 150.505512 89.405827 
L 150.505512 5.4 
L 25.24 5.4 
z
" style="fill: #ffffff"/>
   </g>
   <g id="PathCollection_1">
    <defs>
     <path id="C0_0_936b5595a3" d="M 0 0.866025 
C 0.229673 0.866025 0.449969 0.774776 0.612372 0.612372 
C 0.774776 0.449969 0.866025 0.229673 0.866025 -0 
C 0.866025 -0.229673 0.774776 -0.449969 0.612372 -0.612372 
C 0.449969 -0.774776 0.229673 -0.866025 0 -0.866025 
C -0.229673 -0.866025 -0.449969 -0.774776 -0.612372 -0.612372 
C -0.774776 -0.449969 -0.866025 -0.229673 -0.866025 0 
C -0.866025 0.229673 -0.774776 0.449969 -0.612372 0.612372 
C -0.449969 0.774776 -0.229673 0.866025 0 0.866025 
z
"/>
    </defs>
    <g clip-path="url(#p2ae429a504)">
     <use xlink:href="#C0_0_936b5595a3" x="92.121925" y="73.84705" style="fill: #ff8c00; fill-opacity: 0.8"/>
    </g>
    <g clip-path="url(#p2ae429a504)">
     <use xlink:href="#C0_0_936b5595a3" x="92.121925" y="59.485138" style="fill: #ff8c00; fill-opacity: 0.8"/>
    </g>
    <g clip-path="url(#p2ae429a504)">
     <use xlink:href="#C0_0_936b5595a3" x="104.019599" y="70.256572" style="fill: #ff8c00; fill-opacity: 0.8"/>
    </g>
    <g clip-path="url(#p2ae429a504)">
     <use xlink:href="#C0_0_936b5595a3" x="64.927242" y="70.256572" style="fill: #ff8c00; fill-opacity: 0.8"/>
    </g>
    <g clip-path="url(#p2ae429a504)">
     <use xlink:href="#C0_0_936b5595a3" x="92.121925" y="63.075616" style="fill: #ff8c00; fill-opacity: 0.8"/>
    </g>
    <g clip-path="url(#p2ae429a504)">
     <use xlink:href="#C0_0_936b5595a3" x="78.524583" y="70.256572" style="fill: #ff8c00; fill-opacity: 0.8"/>
    </g>
    <g clip-path="url(#p2ae429a504)">
     <use xlink:href="#C0_0_936b5595a3" x="107.418935" y="37.94227" style="fill: #ff8c00; fill-opacity: 0.8"/>
    </g>
    <g clip-path="url(#p2ae429a504)">
     <use xlink:href="#C0_0_936b5595a3" x="63.227574" y="59.485138" style="fill: #ff8c00; fill-opacity: 0.8"/>
    </g>
    <g clip-path="url(#p2ae429a504)">
     <use xlink:href="#C0_0_936b5595a3" x="81.923919" y="63.075616" style="fill: #ff8c00; fill-opacity: 0.8"/>
    </g>
    <g clip-path="url(#p2ae429a504)">
     <use xlink:href="#C0_0_936b5595a3" x="83.623587" y="73.84705" style="fill: #ff8c00; fill-opacity: 0.8"/>
    </g>
    <g clip-path="url(#p2ae429a504)">
     <use xlink:href="#C0_0_936b5595a3" x="100.620264" y="48.713704" style="fill: #ff8c00; fill-opacity: 0.8"/>
    </g>
    <g clip-path="url(#p2ae429a504)">
     <use xlink:href="#C0_0_936b5595a3" x="71.725912" y="66.666094" style="fill: #ff8c00; fill-opacity: 0.8"/>
    </g>
    <g clip-path="url(#p2ae429a504)">
     <use xlink:href="#C0_0_936b5595a3" x="80.224251" y="73.84705" style="fill: #ff8c00; fill-opacity: 0.8"/>
    </g>
    <g clip-path="url(#p2ae429a504)">
     <use xlink:href="#C0_0_936b5595a3" x="85.323254" y="73.84705" style="fill: #ff8c00; fill-opacity: 0.8"/>
    </g>
    <g clip-path="url(#p2ae429a504)">
     <use xlink:href="#C0_0_936b5595a3" x="144.811625" y="59.485138" style="fill: #ff8c00; fill-opacity: 0.8"/>
    </g>
    <g clip-path="url(#p2ae429a504)">
     <use xlink:href="#C0_0_936b5595a3" x="127.814948" y="73.84705" style="fill: #ff8c00; fill-opacity: 0.8"/>
    </g>
    <g clip-path="url(#p2ae429a504)">
     <use xlink:href="#C0_0_936b5595a3" x="58.128571" y="73.84705" style="fill: #ff8c00; fill-opacity: 0.8"/>
    </g>
    <g clip-path="url(#p2ae429a504)">
     <use xlink:href="#C0_0_936b5595a3" x="58.128571" y="73.84705" style="fill: #ff8c00; fill-opacity: 0.8"/>
    </g>
    <g clip-path="url(#p2ae429a504)">
     <use xlink:href="#C0_0_936b5595a3" x="117.616941" y="52.304182" style="fill: #ff8c00; fill-opacity: 0.8"/>
    </g>
    <g clip-path="url(#p2ae429a504)">
     <use xlink:href="#C0_0_936b5595a3" x="90.422258" y="63.075616" style="fill: #ff8c00; fill-opacity: 0.8"/>
    </g>
    <g clip-path="url(#p2ae429a504)">
     <use xlink:href="#C0_0_936b5595a3" x="59.828238" y="19.989881" style="fill: #ff8c00; fill-opacity: 0.8"/>
    </g>
    <g clip-path="url(#p2ae429a504)">
     <use xlink:href="#C0_0_936b5595a3" x="64.927242" y="55.89466" style="fill: #ff8c00; fill-opacity: 0.8"/>
    </g>
    <g clip-path="url(#p2ae429a504)">
     <use xlink:href="#C0_0_936b5595a3" x="66.626909" y="70.256572" style="fill: #ff8c00; fill-opacity: 0.8"/>
    </g>
    <g clip-path="url(#p2ae429a504)">
     <use xlink:href="#C0_0_936b5595a3" x="92.121925" y="73.84705" style="fill: #ff8c00; fill-opacity: 0.8"/>
    </g>
    <g clip-path="url(#p2ae429a504)">
     <use xlink:href="#C0_0_936b5595a3" x="51.3299" y="52.304182" style="fill: #ff8c00; fill-opacity: 0.8"/>
    </g>
    <g clip-path="url(#p2ae429a504)">
     <use xlink:href="#C0_0_936b5595a3" x="80.224251" y="73.84705" style="fill: #ff8c00; fill-opacity: 0.8"/>
    </g>
    <g clip-path="url(#p2ae429a504)">
     <use xlink:href="#C0_0_936b5595a3" x="92.121925" y="73.84705" style="fill: #ff8c00; fill-opacity: 0.8"/>
    </g>
    <g clip-path="url(#p2ae429a504)">
     <use xlink:href="#C0_0_936b5595a3" x="129.514615" y="73.84705" style="fill: #ff8c00; fill-opacity: 0.8"/>
    </g>
    <g clip-path="url(#p2ae429a504)">
     <use xlink:href="#C0_0_936b5595a3" x="114.217606" y="23.580359" style="fill: #ff8c00; fill-opacity: 0.8"/>
    </g>
    <g clip-path="url(#p2ae429a504)">
     <use xlink:href="#C0_0_936b5595a3" x="37.732558" y="34.351792" style="fill: #ff8c00; fill-opacity: 0.8"/>
    </g>
    <g clip-path="url(#p2ae429a504)">
     <use xlink:href="#C0_0_936b5595a3" x="117.616941" y="70.256572" style="fill: #ff8c00; fill-opacity: 0.8"/>
    </g>
    <g clip-path="url(#p2ae429a504)">
     <use xlink:href="#C0_0_936b5595a3" x="93.821593" y="73.84705" style="fill: #ff8c00; fill-opacity: 0.8"/>
    </g>
    <g clip-path="url(#p2ae429a504)">
     <use xlink:href="#C0_0_936b5595a3" x="83.623587" y="73.84705" style="fill: #ff8c00; fill-opacity: 0.8"/>
    </g>
    <g clip-path="url(#p2ae429a504)">
     <use xlink:href="#C0_0_936b5595a3" x="83.623587" y="66.666094" style="fill: #ff8c00; fill-opacity: 0.8"/>
    </g>
    <g clip-path="url(#p2ae429a504)">
     <use xlink:href="#C0_0_936b5595a3" x="80.224251" y="66.666094" style="fill: #ff8c00; fill-opacity: 0.8"/>
    </g>
    <g clip-path="url(#p2ae429a504)">
     <use xlink:href="#C0_0_936b5595a3" x="87.022922" y="37.94227" style="fill: #ff8c00; fill-opacity: 0.8"/>
    </g>
    <g clip-path="url(#p2ae429a504)">
     <use xlink:href="#C0_0_936b5595a3" x="70.026245" y="66.666094" style="fill: #ff8c00; fill-opacity: 0.8"/>
    </g>
    <g clip-path="url(#p2ae429a504)">
     <use xlink:href="#C0_0_936b5595a3" x="70.026245" y="70.256572" style="fill: #ff8c00; fill-opacity: 0.8"/>
    </g>
    <g clip-path="url(#p2ae429a504)">
     <use xlink:href="#C0_0_936b5595a3" x="58.128571" y="70.256572" style="fill: #ff8c00; fill-opacity: 0.8"/>
    </g>
    <g clip-path="url(#p2ae429a504)">
     <use xlink:href="#C0_0_936b5595a3" x="83.623587" y="59.485138" style="fill: #ff8c00; fill-opacity: 0.8"/>
    </g>
    <g clip-path="url(#p2ae429a504)">
     <use xlink:href="#C0_0_936b5595a3" x="54.729235" y="59.485138" style="fill: #ff8c00; fill-opacity: 0.8"/>
    </g>
    <g clip-path="url(#p2ae429a504)">
     <use xlink:href="#C0_0_936b5595a3" x="70.026245" y="70.256572" style="fill: #ff8c00; fill-opacity: 0.8"/>
    </g>
    <g clip-path="url(#p2ae429a504)">
     <use xlink:href="#C0_0_936b5595a3" x="102.319932" y="73.84705" style="fill: #ff8c00; fill-opacity: 0.8"/>
    </g>
    <g clip-path="url(#p2ae429a504)">
     <use xlink:href="#C0_0_936b5595a3" x="44.531229" y="16.399403" style="fill: #ff8c00; fill-opacity: 0.8"/>
    </g>
    <g clip-path="url(#p2ae429a504)">
     <use xlink:href="#C0_0_936b5595a3" x="97.220928" y="63.075616" style="fill: #ff8c00; fill-opacity: 0.8"/>
    </g>
    <g clip-path="url(#p2ae429a504)">
     <use xlink:href="#C0_0_936b5595a3" x="73.42558" y="70.256572" style="fill: #ff8c00; fill-opacity: 0.8"/>
    </g>
    <g clip-path="url(#p2ae429a504)">
     <use xlink:href="#C0_0_936b5595a3" x="30.933887" y="63.075616" style="fill: #ff8c00; fill-opacity: 0.8"/>
    </g>
    <g clip-path="url(#p2ae429a504)">
     <use xlink:href="#C0_0_936b5595a3" x="134.613619" y="66.666094" style="fill: #ff8c00; fill-opacity: 0.8"/>
    </g>
    <g clip-path="url(#p2ae429a504)">
     <use xlink:href="#C0_0_936b5595a3" x="76.824916" y="73.84705" style="fill: #ff8c00; fill-opacity: 0.8"/>
    </g>
    <g clip-path="url(#p2ae429a504)">
     <use xlink:href="#C0_0_936b5595a3" x="66.626909" y="34.351792" style="fill: #ff8c00; fill-opacity: 0.8"/>
    </g>
    <g clip-path="url(#p2ae429a504)">
     <use xlink:href="#C0_0_936b5595a3" x="46.230896" y="12.808925" style="fill: #ff8c00; fill-opacity: 0.8"/>
    </g>
    <g clip-path="url(#p2ae429a504)">
     <use xlink:href="#C0_0_936b5595a3" x="46.230896" y="9.218447" style="fill: #ff8c00; fill-opacity: 0.8"/>
    </g>
    <g clip-path="url(#p2ae429a504)">
     <use xlink:href="#C0_0_936b5595a3" x="80.224251" y="73.84705" style="fill: #ff8c00; fill-opacity: 0.8"/>
    </g>
    <g clip-path="url(#p2ae429a504)">
     <use xlink:href="#C0_0_936b5595a3" x="95.521261" y="55.89466" style="fill: #ff8c00; fill-opacity: 0.8"/>
    </g>
    <g clip-path="url(#p2ae429a504)">
     <use xlink:href="#C0_0_936b5595a3" x="90.422258" y="70.256572" style="fill: #ff8c00; fill-opacity: 0.8"/>
    </g>
    <g clip-path="url(#p2ae429a504)">
     <use xlink:href="#C0_0_936b5595a3" x="66.626909" y="73.84705" style="fill: #ff8c00; fill-opacity: 0.8"/>
    </g>
    <g clip-path="url(#p2ae429a504)">
     <use xlink:href="#C0_0_936b5595a3" x="64.927242" y="41.532748" style="fill: #ff8c00; fill-opacity: 0.8"/>
    </g>
    <g clip-path="url(#p2ae429a504)">
     <use xlink:href="#C0_0_936b5595a3" x="83.623587" y="70.256572" style="fill: #ff8c00; fill-opacity: 0.8"/>
    </g>
    <g clip-path="url(#p2ae429a504)">
     <use xlink:href="#C0_0_936b5595a3" x="75.125248" y="59.485138" style="fill: #ff8c00; fill-opacity: 0.8"/>
    </g>
    <g clip-path="url(#p2ae429a504)">
     <use xlink:href="#C0_0_936b5595a3" x="81.923919" y="52.304182" style="fill: #ff8c00; fill-opacity: 0.8"/>
    </g>
    <g clip-path="url(#p2ae429a504)">
     <use xlink:href="#C0_0_936b5595a3" x="75.125248" y="70.256572" style="fill: #ff8c00; fill-opacity: 0.8"/>
    </g>
    <g clip-path="url(#p2ae429a504)">
     <use xlink:href="#C0_0_936b5595a3" x="90.422258" y="66.666094" style="fill: #ff8c00; fill-opacity: 0.8"/>
    </g>
    <g clip-path="url(#p2ae429a504)">
     <use xlink:href="#C0_0_936b5595a3" x="64.927242" y="66.666094" style="fill: #ff8c00; fill-opacity: 0.8"/>
    </g>
    <g clip-path="url(#p2ae429a504)">
     <use xlink:href="#C0_0_936b5595a3" x="81.923919" y="70.256572" style="fill: #ff8c00; fill-opacity: 0.8"/>
    </g>
    <g clip-path="url(#p2ae429a504)">
     <use xlink:href="#C0_0_936b5595a3" x="78.524583" y="73.84705" style="fill: #ff8c00; fill-opacity: 0.8"/>
    </g>
    <g clip-path="url(#p2ae429a504)">
     <use xlink:href="#C0_0_936b5595a3" x="119.316609" y="73.84705" style="fill: #ff8c00; fill-opacity: 0.8"/>
    </g>
    <g clip-path="url(#p2ae429a504)">
     <use xlink:href="#C0_0_936b5595a3" x="87.022922" y="52.304182" style="fill: #ff8c00; fill-opacity: 0.8"/>
    </g>
    <g clip-path="url(#p2ae429a504)">
     <use xlink:href="#C0_0_936b5595a3" x="95.521261" y="66.666094" style="fill: #ff8c00; fill-opacity: 0.8"/>
    </g>
    <g clip-path="url(#p2ae429a504)">
     <use xlink:href="#C0_0_936b5595a3" x="121.016277" y="73.84705" style="fill: #ff8c00; fill-opacity: 0.8"/>
    </g>
    <g clip-path="url(#p2ae429a504)">
     <use xlink:href="#C0_0_936b5595a3" x="71.725912" y="66.666094" style="fill: #ff8c00; fill-opacity: 0.8"/>
    </g>
    <g clip-path="url(#p2ae429a504)">
     <use xlink:href="#C0_0_936b5595a3" x="83.623587" y="73.84705" style="fill: #ff8c00; fill-opacity: 0.8"/>
    </g>
    <g clip-path="url(#p2ae429a504)">
     <use xlink:href="#C0_0_936b5595a3" x="83.623587" y="59.485138" style="fill: #ff8c00; fill-opacity: 0.8"/>
    </g>
    <g clip-path="url(#p2ae429a504)">
     <use xlink:href="#C0_0_936b5595a3" x="102.319932" y="63.075616" style="fill: #ff8c00; fill-opacity: 0.8"/>
    </g>
    <g clip-path="url(#p2ae429a504)">
     <use xlink:href="#C0_0_936b5595a3" x="105.719267" y="70.256572" style="fill: #ff8c00; fill-opacity: 0.8"/>
    </g>
    <g clip-path="url(#p2ae429a504)">
     <use xlink:href="#C0_0_936b5595a3" x="75.125248" y="48.713704" style="fill: #ff8c00; fill-opacity: 0.8"/>
    </g>
    <g clip-path="url(#p2ae429a504)">
     <use xlink:href="#C0_0_936b5595a3" x="54.729235" y="63.075616" style="fill: #ff8c00; fill-opacity: 0.8"/>
    </g>
    <g clip-path="url(#p2ae429a504)">
     <use xlink:href="#C0_0_936b5595a3" x="42.831561" y="45.123226" style="fill: #ff8c00; fill-opacity: 0.8"/>
    </g>
    <g clip-path="url(#p2ae429a504)">
     <use xlink:href="#C0_0_936b5595a3" x="105.719267" y="70.256572" style="fill: #ff8c00; fill-opacity: 0.8"/>
    </g>
    <g clip-path="url(#p2ae429a504)">
     <use xlink:href="#C0_0_936b5595a3" x="92.121925" y="66.666094" style="fill: #ff8c00; fill-opacity: 0.8"/>
    </g>
    <g clip-path="url(#p2ae429a504)">
     <use xlink:href="#C0_0_936b5595a3" x="71.725912" y="66.666094" style="fill: #ff8c00; fill-opacity: 0.8"/>
    </g>
    <g clip-path="url(#p2ae429a504)">
     <use xlink:href="#C0_0_936b5595a3" x="71.725912" y="73.84705" style="fill: #ff8c00; fill-opacity: 0.8"/>
    </g>
    <g clip-path="url(#p2ae429a504)">
     <use xlink:href="#C0_0_936b5595a3" x="78.524583" y="70.256572" style="fill: #ff8c00; fill-opacity: 0.8"/>
    </g>
    <g clip-path="url(#p2ae429a504)">
     <use xlink:href="#C0_0_936b5595a3" x="81.923919" y="30.761314" style="fill: #ff8c00; fill-opacity: 0.8"/>
    </g>
    <g clip-path="url(#p2ae429a504)">
     <use xlink:href="#C0_0_936b5595a3" x="75.125248" y="70.256572" style="fill: #ff8c00; fill-opacity: 0.8"/>
    </g>
    <g clip-path="url(#p2ae429a504)">
     <use xlink:href="#C0_0_936b5595a3" x="59.828238" y="59.485138" style="fill: #ff8c00; fill-opacity: 0.8"/>
    </g>
    <g clip-path="url(#p2ae429a504)">
     <use xlink:href="#C0_0_936b5595a3" x="93.821593" y="63.075616" style="fill: #ff8c00; fill-opacity: 0.8"/>
    </g>
    <g clip-path="url(#p2ae429a504)">
     <use xlink:href="#C0_0_936b5595a3" x="63.227574" y="70.256572" style="fill: #ff8c00; fill-opacity: 0.8"/>
    </g>
    <g clip-path="url(#p2ae429a504)">
     <use xlink:href="#C0_0_936b5595a3" x="83.623587" y="73.84705" style="fill: #ff8c00; fill-opacity: 0.8"/>
    </g>
    <g clip-path="url(#p2ae429a504)">
     <use xlink:href="#C0_0_936b5595a3" x="83.623587" y="73.84705" style="fill: #ff8c00; fill-opacity: 0.8"/>
    </g>
    <g clip-path="url(#p2ae429a504)">
     <use xlink:href="#C0_0_936b5595a3" x="109.118603" y="66.666094" style="fill: #ff8c00; fill-opacity: 0.8"/>
    </g>
    <g clip-path="url(#p2ae429a504)">
     <use xlink:href="#C0_0_936b5595a3" x="80.224251" y="70.256572" style="fill: #ff8c00; fill-opacity: 0.8"/>
    </g>
    <g clip-path="url(#p2ae429a504)">
     <use xlink:href="#C0_0_936b5595a3" x="58.128571" y="59.485138" style="fill: #ff8c00; fill-opacity: 0.8"/>
    </g>
   </g>
   <g id="PolyCollection_1">
    <path d="M 30.933887 41.644942 
L 30.933887 61.918934 
L 32.084167 61.962974 
L 33.234447 61.991059 
L 34.384727 62.019203 
L 35.535008 62.039271 
L 36.685288 62.09595 
L 37.835568 62.128494 
L 38.985848 62.163994 
L 40.136128 62.210535 
L 41.286409 62.239706 
L 42.436689 62.297417 
L 43.586969 62.347838 
L 44.737249 62.41228 
L 45.887529 62.479594 
L 47.037809 62.521593 
L 48.18809 62.555079 
L 49.33837 62.614852 
L 50.48865 62.66463 
L 51.63893 62.731215 
L 52.78921 62.780217 
L 53.939491 62.83853 
L 55.089771 62.906061 
L 56.240051 62.97212 
L 57.390331 63.043599 
L 58.540611 63.106197 
L 59.690891 63.179523 
L 60.841172 63.244286 
L 61.991452 63.301255 
L 63.141732 63.352093 
L 64.292012 63.421736 
L 65.442292 63.516178 
L 66.592573 63.601014 
L 67.742853 63.66715 
L 68.893133 63.731667 
L 70.043413 63.806465 
L 71.193693 63.894935 
L 72.343973 63.972433 
L 73.494254 64.079088 
L 74.644534 64.17696 
L 75.794814 64.286807 
L 76.945094 64.407896 
L 78.095374 64.517466 
L 79.245655 64.630152 
L 80.395935 64.768589 
L 81.546215 64.927999 
L 82.696495 65.096134 
L 83.846775 65.298602 
L 84.997055 65.506269 
L 86.147336 65.730204 
L 87.297616 65.954968 
L 88.447896 66.210195 
L 89.598176 66.485177 
L 90.748456 66.759155 
L 91.898737 67.035624 
L 93.049017 67.326747 
L 94.199297 67.65268 
L 95.349577 67.977543 
L 96.499857 68.310798 
L 97.650137 68.670176 
L 98.800418 69.072164 
L 99.950698 69.441012 
L 101.100978 69.817251 
L 102.251258 70.188313 
L 103.401538 70.574359 
L 104.551819 70.973167 
L 105.702099 71.37583 
L 106.852379 71.779347 
L 108.002659 72.16676 
L 109.152939 72.563251 
L 110.303219 72.950001 
L 111.4535 73.334698 
L 112.60378 73.746116 
L 113.75406 74.161909 
L 114.90434 74.576724 
L 116.05462 75.006339 
L 117.204901 75.408707 
L 118.355181 75.845045 
L 119.505461 76.267585 
L 120.655741 76.688229 
L 121.806021 77.109337 
L 122.956301 77.512359 
L 124.106582 77.939681 
L 125.256862 78.359329 
L 126.407142 78.771913 
L 127.557422 79.178326 
L 128.707702 79.580544 
L 129.857983 80.003437 
L 131.008263 80.447387 
L 132.158543 80.871574 
L 133.308823 81.299308 
L 134.459103 81.735138 
L 135.609383 82.149321 
L 136.759664 82.589813 
L 137.909944 83.010281 
L 139.060224 83.447408 
L 140.210504 83.885611 
L 141.360784 84.318862 
L 142.511065 84.770865 
L 143.661345 85.162444 
L 144.811625 85.58738 
L 144.811625 64.642228 
L 144.811625 64.642228 
L 143.661345 64.596713 
L 142.511065 64.546898 
L 141.360784 64.501431 
L 140.210504 64.46136 
L 139.060224 64.43279 
L 137.909944 64.394318 
L 136.759664 64.3519 
L 135.609383 64.309381 
L 134.459103 64.27527 
L 133.308823 64.224399 
L 132.158543 64.19059 
L 131.008263 64.131707 
L 129.857983 64.094377 
L 128.707702 64.037943 
L 127.557422 64.011403 
L 126.407142 63.948617 
L 125.256862 63.875104 
L 124.106582 63.815326 
L 122.956301 63.765372 
L 121.806021 63.719566 
L 120.655741 63.669763 
L 119.505461 63.622501 
L 118.355181 63.571153 
L 117.204901 63.493834 
L 116.05462 63.415859 
L 114.90434 63.325078 
L 113.75406 63.254976 
L 112.60378 63.182235 
L 111.4535 63.116262 
L 110.303219 63.074616 
L 109.152939 62.987189 
L 108.002659 62.917709 
L 106.852379 62.828301 
L 105.702099 62.750979 
L 104.551819 62.646406 
L 103.401538 62.54913 
L 102.251258 62.44556 
L 101.100978 62.332503 
L 99.950698 62.208864 
L 98.800418 62.091431 
L 97.650137 61.956463 
L 96.499857 61.855495 
L 95.349577 61.703167 
L 94.199297 61.511862 
L 93.049017 61.34212 
L 91.898737 61.15344 
L 90.748456 60.968725 
L 89.598176 60.790966 
L 88.447896 60.579512 
L 87.297616 60.331749 
L 86.147336 60.068505 
L 84.997055 59.816663 
L 83.846775 59.548962 
L 82.696495 59.275791 
L 81.546215 58.991879 
L 80.395935 58.690569 
L 79.245655 58.385998 
L 78.095374 58.055758 
L 76.945094 57.755313 
L 75.794814 57.436175 
L 74.644534 57.082592 
L 73.494254 56.739455 
L 72.343973 56.377328 
L 71.193693 55.988554 
L 70.043413 55.626755 
L 68.893133 55.257102 
L 67.742853 54.846961 
L 66.592573 54.44472 
L 65.442292 54.068704 
L 64.292012 53.649745 
L 63.141732 53.259891 
L 61.991452 52.870881 
L 60.841172 52.477027 
L 59.690891 52.057595 
L 58.540611 51.667458 
L 57.390331 51.311489 
L 56.240051 50.890038 
L 55.089771 50.485556 
L 53.939491 50.098623 
L 52.78921 49.679948 
L 51.63893 49.252187 
L 50.48865 48.851661 
L 49.33837 48.444464 
L 48.18809 48.015396 
L 47.037809 47.596642 
L 45.887529 47.190035 
L 44.737249 46.758215 
L 43.586969 46.335843 
L 42.436689 45.895607 
L 41.286409 45.463032 
L 40.136128 45.024019 
L 38.985848 44.611997 
L 37.835568 44.213732 
L 36.685288 43.787205 
L 35.535008 43.351773 
L 34.384727 42.92344 
L 33.234447 42.495485 
L 32.084167 42.072804 
L 30.933887 41.644942 
z
" clip-path="url(#p2ae429a504)" style="fill: #ff8c00; fill-opacity: 0.15"/>
   </g>
   <g id="matplotlib.axis_1">
    <g id="xtick_1">
     <g id="line2d_1">
      <defs>
       <path id="m5f1accfb7b" d="M 0 0 
L 0 3.5 
" style="stroke: #000000; stroke-width: 0.25"/>
      </defs>
      <g>
       <use xlink:href="#m5f1accfb7b" x="41.131893" y="89.405827" style="stroke: #000000; stroke-width: 0.25"/>
      </g>
     </g>
     <g id="text_1">
      <!-- 70 -->
      <g transform="translate(38.351425 97.484733) scale(0.05 -0.05)">
       <defs>
        <path id="ArialMT-37" d="M 303 3981 
L 303 4522 
L 3269 4522 
L 3269 4084 
Q 2831 3619 2401 2847 
Q 1972 2075 1738 1259 
Q 1569 684 1522 0 
L 944 0 
Q 953 541 1156 1306 
Q 1359 2072 1739 2783 
Q 2119 3494 2547 3981 
L 303 3981 
z
" transform="scale(0.015625)"/>
        <path id="ArialMT-30" d="M 266 2259 
Q 266 3072 433 3567 
Q 600 4063 929 4331 
Q 1259 4600 1759 4600 
Q 2128 4600 2406 4451 
Q 2684 4303 2865 4023 
Q 3047 3744 3150 3342 
Q 3253 2941 3253 2259 
Q 3253 1453 3087 958 
Q 2922 463 2592 192 
Q 2263 -78 1759 -78 
Q 1097 -78 719 397 
Q 266 969 266 2259 
z
M 844 2259 
Q 844 1131 1108 757 
Q 1372 384 1759 384 
Q 2147 384 2411 759 
Q 2675 1134 2675 2259 
Q 2675 3391 2411 3762 
Q 2147 4134 1753 4134 
Q 1366 4134 1134 3806 
Q 844 3388 844 2259 
z
" transform="scale(0.015625)"/>
       </defs>
       <use xlink:href="#ArialMT-37"/>
       <use xlink:href="#ArialMT-30" x="55.615234"/>
      </g>
     </g>
    </g>
    <g id="xtick_2">
     <g id="line2d_2">
      <g>
       <use xlink:href="#m5f1accfb7b" x="58.128571" y="89.405827" style="stroke: #000000; stroke-width: 0.25"/>
      </g>
     </g>
     <g id="text_2">
      <!-- 80 -->
      <g transform="translate(55.348102 97.484733) scale(0.05 -0.05)">
       <defs>
        <path id="ArialMT-38" d="M 1131 2484 
Q 781 2613 612 2850 
Q 444 3088 444 3419 
Q 444 3919 803 4259 
Q 1163 4600 1759 4600 
Q 2359 4600 2725 4251 
Q 3091 3903 3091 3403 
Q 3091 3084 2923 2848 
Q 2756 2613 2416 2484 
Q 2838 2347 3058 2040 
Q 3278 1734 3278 1309 
Q 3278 722 2862 322 
Q 2447 -78 1769 -78 
Q 1091 -78 675 323 
Q 259 725 259 1325 
Q 259 1772 486 2073 
Q 713 2375 1131 2484 
z
M 1019 3438 
Q 1019 3113 1228 2906 
Q 1438 2700 1772 2700 
Q 2097 2700 2305 2904 
Q 2513 3109 2513 3406 
Q 2513 3716 2298 3927 
Q 2084 4138 1766 4138 
Q 1444 4138 1231 3931 
Q 1019 3725 1019 3438 
z
M 838 1322 
Q 838 1081 952 856 
Q 1066 631 1291 507 
Q 1516 384 1775 384 
Q 2178 384 2440 643 
Q 2703 903 2703 1303 
Q 2703 1709 2433 1975 
Q 2163 2241 1756 2241 
Q 1359 2241 1098 1978 
Q 838 1716 838 1322 
z
" transform="scale(0.015625)"/>
       </defs>
       <use xlink:href="#ArialMT-38"/>
       <use xlink:href="#ArialMT-30" x="55.615234"/>
      </g>
     </g>
    </g>
    <g id="xtick_3">
     <g id="line2d_3">
      <g>
       <use xlink:href="#m5f1accfb7b" x="75.125248" y="89.405827" style="stroke: #000000; stroke-width: 0.25"/>
      </g>
     </g>
     <g id="text_3">
      <!-- 90 -->
      <g transform="translate(72.344779 97.484733) scale(0.05 -0.05)">
       <defs>
        <path id="ArialMT-39" d="M 350 1059 
L 891 1109 
Q 959 728 1153 556 
Q 1347 384 1650 384 
Q 1909 384 2104 503 
Q 2300 622 2425 820 
Q 2550 1019 2634 1356 
Q 2719 1694 2719 2044 
Q 2719 2081 2716 2156 
Q 2547 1888 2255 1720 
Q 1963 1553 1622 1553 
Q 1053 1553 659 1965 
Q 266 2378 266 3053 
Q 266 3750 677 4175 
Q 1088 4600 1706 4600 
Q 2153 4600 2523 4359 
Q 2894 4119 3086 3673 
Q 3278 3228 3278 2384 
Q 3278 1506 3087 986 
Q 2897 466 2520 194 
Q 2144 -78 1638 -78 
Q 1100 -78 759 220 
Q 419 519 350 1059 
z
M 2653 3081 
Q 2653 3566 2395 3850 
Q 2138 4134 1775 4134 
Q 1400 4134 1122 3828 
Q 844 3522 844 3034 
Q 844 2597 1108 2323 
Q 1372 2050 1759 2050 
Q 2150 2050 2401 2323 
Q 2653 2597 2653 3081 
z
" transform="scale(0.015625)"/>
       </defs>
       <use xlink:href="#ArialMT-39"/>
       <use xlink:href="#ArialMT-30" x="55.615234"/>
      </g>
     </g>
    </g>
    <g id="xtick_4">
     <g id="line2d_4">
      <g>
       <use xlink:href="#m5f1accfb7b" x="92.121925" y="89.405827" style="stroke: #000000; stroke-width: 0.25"/>
      </g>
     </g>
     <g id="text_4">
      <!-- 100 -->
      <g transform="translate(87.951222 97.484733) scale(0.05 -0.05)">
       <defs>
        <path id="ArialMT-31" d="M 2384 0 
L 1822 0 
L 1822 3584 
Q 1619 3391 1289 3197 
Q 959 3003 697 2906 
L 697 3450 
Q 1169 3672 1522 3987 
Q 1875 4303 2022 4600 
L 2384 4600 
L 2384 0 
z
" transform="scale(0.015625)"/>
       </defs>
       <use xlink:href="#ArialMT-31"/>
       <use xlink:href="#ArialMT-30" x="55.615234"/>
       <use xlink:href="#ArialMT-30" x="111.230469"/>
      </g>
     </g>
    </g>
    <g id="xtick_5">
     <g id="line2d_5">
      <g>
       <use xlink:href="#m5f1accfb7b" x="109.118603" y="89.405827" style="stroke: #000000; stroke-width: 0.25"/>
      </g>
     </g>
     <g id="text_5">
      <!-- 110 -->
      <g transform="translate(105.132274 97.484733) scale(0.05 -0.05)">
       <use xlink:href="#ArialMT-31"/>
       <use xlink:href="#ArialMT-31" x="48.240234"/>
       <use xlink:href="#ArialMT-30" x="103.855469"/>
      </g>
     </g>
    </g>
    <g id="xtick_6">
     <g id="line2d_6">
      <g>
       <use xlink:href="#m5f1accfb7b" x="126.11528" y="89.405827" style="stroke: #000000; stroke-width: 0.25"/>
      </g>
     </g>
     <g id="text_6">
      <!-- 120 -->
      <g transform="translate(121.944577 97.484733) scale(0.05 -0.05)">
       <defs>
        <path id="ArialMT-32" d="M 3222 541 
L 3222 0 
L 194 0 
Q 188 203 259 391 
Q 375 700 629 1000 
Q 884 1300 1366 1694 
Q 2113 2306 2375 2664 
Q 2638 3022 2638 3341 
Q 2638 3675 2398 3904 
Q 2159 4134 1775 4134 
Q 1369 4134 1125 3890 
Q 881 3647 878 3216 
L 300 3275 
Q 359 3922 746 4261 
Q 1134 4600 1788 4600 
Q 2447 4600 2831 4234 
Q 3216 3869 3216 3328 
Q 3216 3053 3103 2787 
Q 2991 2522 2730 2228 
Q 2469 1934 1863 1422 
Q 1356 997 1212 845 
Q 1069 694 975 541 
L 3222 541 
z
" transform="scale(0.015625)"/>
       </defs>
       <use xlink:href="#ArialMT-31"/>
       <use xlink:href="#ArialMT-32" x="55.615234"/>
       <use xlink:href="#ArialMT-30" x="111.230469"/>
      </g>
     </g>
    </g>
    <g id="xtick_7">
     <g id="line2d_7">
      <g>
       <use xlink:href="#m5f1accfb7b" x="143.111957" y="89.405827" style="stroke: #000000; stroke-width: 0.25"/>
      </g>
     </g>
     <g id="text_7">
      <!-- 130 -->
      <g transform="translate(138.941254 97.484733) scale(0.05 -0.05)">
       <defs>
        <path id="ArialMT-33" d="M 269 1209 
L 831 1284 
Q 928 806 1161 595 
Q 1394 384 1728 384 
Q 2125 384 2398 659 
Q 2672 934 2672 1341 
Q 2672 1728 2419 1979 
Q 2166 2231 1775 2231 
Q 1616 2231 1378 2169 
L 1441 2663 
Q 1497 2656 1531 2656 
Q 1891 2656 2178 2843 
Q 2466 3031 2466 3422 
Q 2466 3731 2256 3934 
Q 2047 4138 1716 4138 
Q 1388 4138 1169 3931 
Q 950 3725 888 3313 
L 325 3413 
Q 428 3978 793 4289 
Q 1159 4600 1703 4600 
Q 2078 4600 2393 4439 
Q 2709 4278 2876 4000 
Q 3044 3722 3044 3409 
Q 3044 3113 2884 2869 
Q 2725 2625 2413 2481 
Q 2819 2388 3044 2092 
Q 3269 1797 3269 1353 
Q 3269 753 2831 336 
Q 2394 -81 1725 -81 
Q 1122 -81 723 278 
Q 325 638 269 1209 
z
" transform="scale(0.015625)"/>
       </defs>
       <use xlink:href="#ArialMT-31"/>
       <use xlink:href="#ArialMT-33" x="55.615234"/>
       <use xlink:href="#ArialMT-30" x="111.230469"/>
      </g>
     </g>
    </g>
    <g id="text_8">
     <!-- Full-scale IQ [a.u.] -->
     <g transform="translate(63.532912 106.850046) scale(0.06 -0.06)">
      <defs>
       <path id="ArialMT-46" d="M 525 0 
L 525 4581 
L 3616 4581 
L 3616 4041 
L 1131 4041 
L 1131 2622 
L 3281 2622 
L 3281 2081 
L 1131 2081 
L 1131 0 
L 525 0 
z
" transform="scale(0.015625)"/>
       <path id="ArialMT-75" d="M 2597 0 
L 2597 488 
Q 2209 -75 1544 -75 
Q 1250 -75 995 37 
Q 741 150 617 320 
Q 494 491 444 738 
Q 409 903 409 1263 
L 409 3319 
L 972 3319 
L 972 1478 
Q 972 1038 1006 884 
Q 1059 663 1231 536 
Q 1403 409 1656 409 
Q 1909 409 2131 539 
Q 2353 669 2445 892 
Q 2538 1116 2538 1541 
L 2538 3319 
L 3100 3319 
L 3100 0 
L 2597 0 
z
" transform="scale(0.015625)"/>
       <path id="ArialMT-6c" d="M 409 0 
L 409 4581 
L 972 4581 
L 972 0 
L 409 0 
z
" transform="scale(0.015625)"/>
       <path id="ArialMT-2d" d="M 203 1375 
L 203 1941 
L 1931 1941 
L 1931 1375 
L 203 1375 
z
" transform="scale(0.015625)"/>
       <path id="ArialMT-73" d="M 197 991 
L 753 1078 
Q 800 744 1014 566 
Q 1228 388 1613 388 
Q 2000 388 2187 545 
Q 2375 703 2375 916 
Q 2375 1106 2209 1216 
Q 2094 1291 1634 1406 
Q 1016 1563 777 1677 
Q 538 1791 414 1992 
Q 291 2194 291 2438 
Q 291 2659 392 2848 
Q 494 3038 669 3163 
Q 800 3259 1026 3326 
Q 1253 3394 1513 3394 
Q 1903 3394 2198 3281 
Q 2494 3169 2634 2976 
Q 2775 2784 2828 2463 
L 2278 2388 
Q 2241 2644 2061 2787 
Q 1881 2931 1553 2931 
Q 1166 2931 1000 2803 
Q 834 2675 834 2503 
Q 834 2394 903 2306 
Q 972 2216 1119 2156 
Q 1203 2125 1616 2013 
Q 2213 1853 2448 1751 
Q 2684 1650 2818 1456 
Q 2953 1263 2953 975 
Q 2953 694 2789 445 
Q 2625 197 2315 61 
Q 2006 -75 1616 -75 
Q 969 -75 630 194 
Q 291 463 197 991 
z
" transform="scale(0.015625)"/>
       <path id="ArialMT-63" d="M 2588 1216 
L 3141 1144 
Q 3050 572 2676 248 
Q 2303 -75 1759 -75 
Q 1078 -75 664 370 
Q 250 816 250 1647 
Q 250 2184 428 2587 
Q 606 2991 970 3192 
Q 1334 3394 1763 3394 
Q 2303 3394 2647 3120 
Q 2991 2847 3088 2344 
L 2541 2259 
Q 2463 2594 2264 2762 
Q 2066 2931 1784 2931 
Q 1359 2931 1093 2626 
Q 828 2322 828 1663 
Q 828 994 1084 691 
Q 1341 388 1753 388 
Q 2084 388 2306 591 
Q 2528 794 2588 1216 
z
" transform="scale(0.015625)"/>
       <path id="ArialMT-61" d="M 2588 409 
Q 2275 144 1986 34 
Q 1697 -75 1366 -75 
Q 819 -75 525 192 
Q 231 459 231 875 
Q 231 1119 342 1320 
Q 453 1522 633 1644 
Q 813 1766 1038 1828 
Q 1203 1872 1538 1913 
Q 2219 1994 2541 2106 
Q 2544 2222 2544 2253 
Q 2544 2597 2384 2738 
Q 2169 2928 1744 2928 
Q 1347 2928 1158 2789 
Q 969 2650 878 2297 
L 328 2372 
Q 403 2725 575 2942 
Q 747 3159 1072 3276 
Q 1397 3394 1825 3394 
Q 2250 3394 2515 3294 
Q 2781 3194 2906 3042 
Q 3031 2891 3081 2659 
Q 3109 2516 3109 2141 
L 3109 1391 
Q 3109 606 3145 398 
Q 3181 191 3288 0 
L 2700 0 
Q 2613 175 2588 409 
z
M 2541 1666 
Q 2234 1541 1622 1453 
Q 1275 1403 1131 1340 
Q 988 1278 909 1158 
Q 831 1038 831 891 
Q 831 666 1001 516 
Q 1172 366 1500 366 
Q 1825 366 2078 508 
Q 2331 650 2450 897 
Q 2541 1088 2541 1459 
L 2541 1666 
z
" transform="scale(0.015625)"/>
       <path id="ArialMT-65" d="M 2694 1069 
L 3275 997 
Q 3138 488 2766 206 
Q 2394 -75 1816 -75 
Q 1088 -75 661 373 
Q 234 822 234 1631 
Q 234 2469 665 2931 
Q 1097 3394 1784 3394 
Q 2450 3394 2872 2941 
Q 3294 2488 3294 1666 
Q 3294 1616 3291 1516 
L 816 1516 
Q 847 969 1125 678 
Q 1403 388 1819 388 
Q 2128 388 2347 550 
Q 2566 713 2694 1069 
z
M 847 1978 
L 2700 1978 
Q 2663 2397 2488 2606 
Q 2219 2931 1791 2931 
Q 1403 2931 1139 2672 
Q 875 2413 847 1978 
z
" transform="scale(0.015625)"/>
       <path id="ArialMT-20" transform="scale(0.015625)"/>
       <path id="ArialMT-49" d="M 597 0 
L 597 4581 
L 1203 4581 
L 1203 0 
L 597 0 
z
" transform="scale(0.015625)"/>
       <path id="ArialMT-51" d="M 3966 491 
Q 4388 200 4744 66 
L 4566 -356 
Q 4072 -178 3581 206 
Q 3072 -78 2456 -78 
Q 1834 -78 1328 222 
Q 822 522 548 1065 
Q 275 1609 275 2291 
Q 275 2969 550 3525 
Q 825 4081 1333 4372 
Q 1841 4663 2469 4663 
Q 3103 4663 3612 4361 
Q 4122 4059 4389 3517 
Q 4656 2975 4656 2294 
Q 4656 1728 4484 1276 
Q 4313 825 3966 491 
z
M 2631 1266 
Q 3156 1119 3497 828 
Q 4031 1316 4031 2294 
Q 4031 2850 3842 3265 
Q 3653 3681 3289 3911 
Q 2925 4141 2472 4141 
Q 1794 4141 1347 3677 
Q 900 3213 900 2291 
Q 900 1397 1342 919 
Q 1784 441 2472 441 
Q 2797 441 3084 563 
Q 2800 747 2484 825 
L 2631 1266 
z
" transform="scale(0.015625)"/>
       <path id="ArialMT-5b" d="M 434 -1272 
L 434 4581 
L 1675 4581 
L 1675 4116 
L 997 4116 
L 997 -806 
L 1675 -806 
L 1675 -1272 
L 434 -1272 
z
" transform="scale(0.015625)"/>
       <path id="ArialMT-2e" d="M 581 0 
L 581 641 
L 1222 641 
L 1222 0 
L 581 0 
z
" transform="scale(0.015625)"/>
       <path id="ArialMT-5d" d="M 1363 -1272 
L 122 -1272 
L 122 -806 
L 800 -806 
L 800 4116 
L 122 4116 
L 122 4581 
L 1363 4581 
L 1363 -1272 
z
" transform="scale(0.015625)"/>
      </defs>
      <use xlink:href="#ArialMT-46"/>
      <use xlink:href="#ArialMT-75" x="61.083984"/>
      <use xlink:href="#ArialMT-6c" x="116.699219"/>
      <use xlink:href="#ArialMT-6c" x="138.916016"/>
      <use xlink:href="#ArialMT-2d" x="161.132812"/>
      <use xlink:href="#ArialMT-73" x="194.433594"/>
      <use xlink:href="#ArialMT-63" x="244.433594"/>
      <use xlink:href="#ArialMT-61" x="294.433594"/>
      <use xlink:href="#ArialMT-6c" x="350.048828"/>
      <use xlink:href="#ArialMT-65" x="372.265625"/>
      <use xlink:href="#ArialMT-20" x="427.880859"/>
      <use xlink:href="#ArialMT-49" x="455.664062"/>
      <use xlink:href="#ArialMT-51" x="483.447266"/>
      <use xlink:href="#ArialMT-20" x="561.230469"/>
      <use xlink:href="#ArialMT-5b" x="589.013672"/>
      <use xlink:href="#ArialMT-61" x="616.796875"/>
      <use xlink:href="#ArialMT-2e" x="672.412109"/>
      <use xlink:href="#ArialMT-75" x="700.195312"/>
      <use xlink:href="#ArialMT-2e" x="755.810547"/>
      <use xlink:href="#ArialMT-5d" x="783.59375"/>
     </g>
    </g>
   </g>
   <g id="matplotlib.axis_2">
    <g id="ytick_1">
     <g id="line2d_8">
      <defs>
       <path id="m7327eec57e" d="M 0 0 
L -3.5 0 
" style="stroke: #000000; stroke-width: 0.25"/>
      </defs>
      <g>
       <use xlink:href="#m7327eec57e" x="25.24" y="73.84705" style="stroke: #000000; stroke-width: 0.25"/>
      </g>
     </g>
     <g id="text_9">
      <!-- 0 -->
      <g transform="translate(17.959531 75.636503) scale(0.05 -0.05)">
       <use xlink:href="#ArialMT-30"/>
      </g>
     </g>
    </g>
    <g id="ytick_2">
     <g id="line2d_9">
      <g>
       <use xlink:href="#m7327eec57e" x="25.24" y="55.89466" style="stroke: #000000; stroke-width: 0.25"/>
      </g>
     </g>
     <g id="text_10">
      <!-- 5 -->
      <g transform="translate(17.959531 57.684113) scale(0.05 -0.05)">
       <defs>
        <path id="ArialMT-35" d="M 266 1200 
L 856 1250 
Q 922 819 1161 601 
Q 1400 384 1738 384 
Q 2144 384 2425 690 
Q 2706 997 2706 1503 
Q 2706 1984 2436 2262 
Q 2166 2541 1728 2541 
Q 1456 2541 1237 2417 
Q 1019 2294 894 2097 
L 366 2166 
L 809 4519 
L 3088 4519 
L 3088 3981 
L 1259 3981 
L 1013 2750 
Q 1425 3038 1878 3038 
Q 2478 3038 2890 2622 
Q 3303 2206 3303 1553 
Q 3303 931 2941 478 
Q 2500 -78 1738 -78 
Q 1113 -78 717 272 
Q 322 622 266 1200 
z
" transform="scale(0.015625)"/>
       </defs>
       <use xlink:href="#ArialMT-35"/>
      </g>
     </g>
    </g>
    <g id="ytick_3">
     <g id="line2d_10">
      <g>
       <use xlink:href="#m7327eec57e" x="25.24" y="37.94227" style="stroke: #000000; stroke-width: 0.25"/>
      </g>
     </g>
     <g id="text_11">
      <!-- 10 -->
      <g transform="translate(15.179063 39.731724) scale(0.05 -0.05)">
       <use xlink:href="#ArialMT-31"/>
       <use xlink:href="#ArialMT-30" x="55.615234"/>
      </g>
     </g>
    </g>
    <g id="ytick_4">
     <g id="line2d_11">
      <g>
       <use xlink:href="#m7327eec57e" x="25.24" y="19.989881" style="stroke: #000000; stroke-width: 0.25"/>
      </g>
     </g>
     <g id="text_12">
      <!-- 15 -->
      <g transform="translate(15.179063 21.779334) scale(0.05 -0.05)">
       <use xlink:href="#ArialMT-31"/>
       <use xlink:href="#ArialMT-35" x="55.615234"/>
      </g>
     </g>
    </g>
    <g id="text_13">
     <!-- Number infranormal deviations -->
     <g transform="translate(9.986563 88.251663) rotate(-90) scale(0.06 -0.06)">
      <defs>
       <path id="ArialMT-4e" d="M 488 0 
L 488 4581 
L 1109 4581 
L 3516 984 
L 3516 4581 
L 4097 4581 
L 4097 0 
L 3475 0 
L 1069 3600 
L 1069 0 
L 488 0 
z
" transform="scale(0.015625)"/>
       <path id="ArialMT-6d" d="M 422 0 
L 422 3319 
L 925 3319 
L 925 2853 
Q 1081 3097 1340 3245 
Q 1600 3394 1931 3394 
Q 2300 3394 2536 3241 
Q 2772 3088 2869 2813 
Q 3263 3394 3894 3394 
Q 4388 3394 4653 3120 
Q 4919 2847 4919 2278 
L 4919 0 
L 4359 0 
L 4359 2091 
Q 4359 2428 4304 2576 
Q 4250 2725 4106 2815 
Q 3963 2906 3769 2906 
Q 3419 2906 3187 2673 
Q 2956 2441 2956 1928 
L 2956 0 
L 2394 0 
L 2394 2156 
Q 2394 2531 2256 2718 
Q 2119 2906 1806 2906 
Q 1569 2906 1367 2781 
Q 1166 2656 1075 2415 
Q 984 2175 984 1722 
L 984 0 
L 422 0 
z
" transform="scale(0.015625)"/>
       <path id="ArialMT-62" d="M 941 0 
L 419 0 
L 419 4581 
L 981 4581 
L 981 2947 
Q 1338 3394 1891 3394 
Q 2197 3394 2470 3270 
Q 2744 3147 2920 2923 
Q 3097 2700 3197 2384 
Q 3297 2069 3297 1709 
Q 3297 856 2875 390 
Q 2453 -75 1863 -75 
Q 1275 -75 941 416 
L 941 0 
z
M 934 1684 
Q 934 1088 1097 822 
Q 1363 388 1816 388 
Q 2184 388 2453 708 
Q 2722 1028 2722 1663 
Q 2722 2313 2464 2622 
Q 2206 2931 1841 2931 
Q 1472 2931 1203 2611 
Q 934 2291 934 1684 
z
" transform="scale(0.015625)"/>
       <path id="ArialMT-72" d="M 416 0 
L 416 3319 
L 922 3319 
L 922 2816 
Q 1116 3169 1280 3281 
Q 1444 3394 1641 3394 
Q 1925 3394 2219 3213 
L 2025 2691 
Q 1819 2813 1613 2813 
Q 1428 2813 1281 2702 
Q 1134 2591 1072 2394 
Q 978 2094 978 1738 
L 978 0 
L 416 0 
z
" transform="scale(0.015625)"/>
       <path id="ArialMT-69" d="M 425 3934 
L 425 4581 
L 988 4581 
L 988 3934 
L 425 3934 
z
M 425 0 
L 425 3319 
L 988 3319 
L 988 0 
L 425 0 
z
" transform="scale(0.015625)"/>
       <path id="ArialMT-6e" d="M 422 0 
L 422 3319 
L 928 3319 
L 928 2847 
Q 1294 3394 1984 3394 
Q 2284 3394 2536 3286 
Q 2788 3178 2913 3003 
Q 3038 2828 3088 2588 
Q 3119 2431 3119 2041 
L 3119 0 
L 2556 0 
L 2556 2019 
Q 2556 2363 2490 2533 
Q 2425 2703 2258 2804 
Q 2091 2906 1866 2906 
Q 1506 2906 1245 2678 
Q 984 2450 984 1813 
L 984 0 
L 422 0 
z
" transform="scale(0.015625)"/>
       <path id="ArialMT-66" d="M 556 0 
L 556 2881 
L 59 2881 
L 59 3319 
L 556 3319 
L 556 3672 
Q 556 4006 616 4169 
Q 697 4388 901 4523 
Q 1106 4659 1475 4659 
Q 1713 4659 2000 4603 
L 1916 4113 
Q 1741 4144 1584 4144 
Q 1328 4144 1222 4034 
Q 1116 3925 1116 3625 
L 1116 3319 
L 1763 3319 
L 1763 2881 
L 1116 2881 
L 1116 0 
L 556 0 
z
" transform="scale(0.015625)"/>
       <path id="ArialMT-6f" d="M 213 1659 
Q 213 2581 725 3025 
Q 1153 3394 1769 3394 
Q 2453 3394 2887 2945 
Q 3322 2497 3322 1706 
Q 3322 1066 3130 698 
Q 2938 331 2570 128 
Q 2203 -75 1769 -75 
Q 1072 -75 642 372 
Q 213 819 213 1659 
z
M 791 1659 
Q 791 1022 1069 705 
Q 1347 388 1769 388 
Q 2188 388 2466 706 
Q 2744 1025 2744 1678 
Q 2744 2294 2464 2611 
Q 2184 2928 1769 2928 
Q 1347 2928 1069 2612 
Q 791 2297 791 1659 
z
" transform="scale(0.015625)"/>
       <path id="ArialMT-64" d="M 2575 0 
L 2575 419 
Q 2259 -75 1647 -75 
Q 1250 -75 917 144 
Q 584 363 401 755 
Q 219 1147 219 1656 
Q 219 2153 384 2558 
Q 550 2963 881 3178 
Q 1213 3394 1622 3394 
Q 1922 3394 2156 3267 
Q 2391 3141 2538 2938 
L 2538 4581 
L 3097 4581 
L 3097 0 
L 2575 0 
z
M 797 1656 
Q 797 1019 1065 703 
Q 1334 388 1700 388 
Q 2069 388 2326 689 
Q 2584 991 2584 1609 
Q 2584 2291 2321 2609 
Q 2059 2928 1675 2928 
Q 1300 2928 1048 2622 
Q 797 2316 797 1656 
z
" transform="scale(0.015625)"/>
       <path id="ArialMT-76" d="M 1344 0 
L 81 3319 
L 675 3319 
L 1388 1331 
Q 1503 1009 1600 663 
Q 1675 925 1809 1294 
L 2547 3319 
L 3125 3319 
L 1869 0 
L 1344 0 
z
" transform="scale(0.015625)"/>
       <path id="ArialMT-74" d="M 1650 503 
L 1731 6 
Q 1494 -44 1306 -44 
Q 1000 -44 831 53 
Q 663 150 594 308 
Q 525 466 525 972 
L 525 2881 
L 113 2881 
L 113 3319 
L 525 3319 
L 525 4141 
L 1084 4478 
L 1084 3319 
L 1650 3319 
L 1650 2881 
L 1084 2881 
L 1084 941 
Q 1084 700 1114 631 
Q 1144 563 1211 522 
Q 1278 481 1403 481 
Q 1497 481 1650 503 
z
" transform="scale(0.015625)"/>
      </defs>
      <use xlink:href="#ArialMT-4e"/>
      <use xlink:href="#ArialMT-75" x="72.216797"/>
      <use xlink:href="#ArialMT-6d" x="127.832031"/>
      <use xlink:href="#ArialMT-62" x="211.132812"/>
      <use xlink:href="#ArialMT-65" x="266.748047"/>
      <use xlink:href="#ArialMT-72" x="322.363281"/>
      <use xlink:href="#ArialMT-20" x="355.664062"/>
      <use xlink:href="#ArialMT-69" x="383.447266"/>
      <use xlink:href="#ArialMT-6e" x="405.664062"/>
      <use xlink:href="#ArialMT-66" x="461.279297"/>
      <use xlink:href="#ArialMT-72" x="489.0625"/>
      <use xlink:href="#ArialMT-61" x="522.363281"/>
      <use xlink:href="#ArialMT-6e" x="577.978516"/>
      <use xlink:href="#ArialMT-6f" x="633.59375"/>
      <use xlink:href="#ArialMT-72" x="689.208984"/>
      <use xlink:href="#ArialMT-6d" x="722.509766"/>
      <use xlink:href="#ArialMT-61" x="805.810547"/>
      <use xlink:href="#ArialMT-6c" x="861.425781"/>
      <use xlink:href="#ArialMT-20" x="883.642578"/>
      <use xlink:href="#ArialMT-64" x="911.425781"/>
      <use xlink:href="#ArialMT-65" x="967.041016"/>
      <use xlink:href="#ArialMT-76" x="1022.65625"/>
      <use xlink:href="#ArialMT-69" x="1072.65625"/>
      <use xlink:href="#ArialMT-61" x="1094.873047"/>
      <use xlink:href="#ArialMT-74" x="1150.488281"/>
      <use xlink:href="#ArialMT-69" x="1178.271484"/>
      <use xlink:href="#ArialMT-6f" x="1200.488281"/>
      <use xlink:href="#ArialMT-6e" x="1256.103516"/>
      <use xlink:href="#ArialMT-73" x="1311.71875"/>
     </g>
    </g>
   </g>
   <g id="line2d_12">
    <path d="M 30.933887 51.684956 
L 32.084167 51.919111 
L 33.234447 52.153266 
L 34.384727 52.387422 
L 35.535008 52.621577 
L 36.685288 52.855732 
L 37.835568 53.089888 
L 38.985848 53.324043 
L 40.136128 53.558198 
L 41.286409 53.792354 
L 42.436689 54.026509 
L 43.586969 54.260664 
L 44.737249 54.49482 
L 45.887529 54.728975 
L 47.037809 54.96313 
L 48.18809 55.197286 
L 49.33837 55.431441 
L 50.48865 55.665596 
L 51.63893 55.899752 
L 52.78921 56.133907 
L 53.939491 56.368062 
L 55.089771 56.602217 
L 56.240051 56.836373 
L 57.390331 57.070528 
L 58.540611 57.304683 
L 59.690891 57.538839 
L 60.841172 57.772994 
L 61.991452 58.007149 
L 63.141732 58.241305 
L 64.292012 58.47546 
L 65.442292 58.709615 
L 66.592573 58.943771 
L 67.742853 59.177926 
L 68.893133 59.412081 
L 70.043413 59.646237 
L 71.193693 59.880392 
L 72.343973 60.114547 
L 73.494254 60.348703 
L 74.644534 60.582858 
L 75.794814 60.817013 
L 76.945094 61.051169 
L 78.095374 61.285324 
L 79.245655 61.519479 
L 80.395935 61.753635 
L 81.546215 61.98779 
L 82.696495 62.221945 
L 83.846775 62.456101 
L 84.997055 62.690256 
L 86.147336 62.924411 
L 87.297616 63.158566 
L 88.447896 63.392722 
L 89.598176 63.626877 
L 90.748456 63.861032 
L 91.898737 64.095188 
L 93.049017 64.329343 
L 94.199297 64.563498 
L 95.349577 64.797654 
L 96.499857 65.031809 
L 97.650137 65.265964 
L 98.800418 65.50012 
L 99.950698 65.734275 
L 101.100978 65.96843 
L 102.251258 66.202586 
L 103.401538 66.436741 
L 104.551819 66.670896 
L 105.702099 66.905052 
L 106.852379 67.139207 
L 108.002659 67.373362 
L 109.152939 67.607518 
L 110.303219 67.841673 
L 111.4535 68.075828 
L 112.60378 68.309984 
L 113.75406 68.544139 
L 114.90434 68.778294 
L 116.05462 69.01245 
L 117.204901 69.246605 
L 118.355181 69.48076 
L 119.505461 69.714915 
L 120.655741 69.949071 
L 121.806021 70.183226 
L 122.956301 70.417381 
L 124.106582 70.651537 
L 125.256862 70.885692 
L 126.407142 71.119847 
L 127.557422 71.354003 
L 128.707702 71.588158 
L 129.857983 71.822313 
L 131.008263 72.056469 
L 132.158543 72.290624 
L 133.308823 72.524779 
L 134.459103 72.758935 
L 135.609383 72.99309 
L 136.759664 73.227245 
L 137.909944 73.461401 
L 139.060224 73.695556 
L 140.210504 73.929711 
L 141.360784 74.163867 
L 142.511065 74.398022 
L 143.661345 74.632177 
L 144.811625 74.866333 
" clip-path="url(#p2ae429a504)" style="fill: none; stroke: #ff8c00; stroke-width: 0.75; stroke-linecap: square"/>
   </g>
   <g id="patch_3">
    <path d="M 25.24 89.405827 
L 25.24 5.4 
" style="fill: none; stroke: #000000; stroke-width: 0.25; stroke-linejoin: miter; stroke-linecap: square"/>
   </g>
   <g id="patch_4">
    <path d="M 25.24 89.405827 
L 150.505512 89.405827 
" style="fill: none; stroke: #000000; stroke-width: 0.25; stroke-linejoin: miter; stroke-linecap: square"/>
   </g>
   <g id="text_14">
    <g id="patch_5">
     <path d="M 28.997965 18.702773 
L 57.397965 18.702773 
Q 58.897965 18.702773 58.897965 17.202773 
L 58.897965 7.136367 
Q 58.897965 5.636367 57.397965 5.636367 
L 28.997965 5.636367 
Q 27.497965 5.636367 27.497965 7.136367 
L 27.497965 17.202773 
Q 27.497965 18.702773 28.997965 18.702773 
z
" style="fill: #c0c0c0; opacity: 0.4; stroke: #c0c0c0; stroke-linejoin: miter"/>
    </g>
    <!-- $r=-0.227$ -->
    <g transform="translate(28.997965 10.659023) scale(0.05 -0.05)">
     <defs>
      <path id="DejaVuSans-Oblique-72" d="M 2853 2969 
Q 2766 3016 2653 3041 
Q 2541 3066 2413 3066 
Q 1953 3066 1609 2717 
Q 1266 2369 1153 1784 
L 800 0 
L 225 0 
L 909 3500 
L 1484 3500 
L 1375 2956 
Q 1603 3259 1920 3421 
Q 2238 3584 2597 3584 
Q 2691 3584 2781 3573 
Q 2872 3563 2963 3538 
L 2853 2969 
z
" transform="scale(0.015625)"/>
      <path id="DejaVuSans-3d" d="M 678 2906 
L 4684 2906 
L 4684 2381 
L 678 2381 
L 678 2906 
z
M 678 1631 
L 4684 1631 
L 4684 1100 
L 678 1100 
L 678 1631 
z
" transform="scale(0.015625)"/>
      <path id="DejaVuSans-2212" d="M 678 2272 
L 4684 2272 
L 4684 1741 
L 678 1741 
L 678 2272 
z
" transform="scale(0.015625)"/>
      <path id="DejaVuSans-30" d="M 2034 4250 
Q 1547 4250 1301 3770 
Q 1056 3291 1056 2328 
Q 1056 1369 1301 889 
Q 1547 409 2034 409 
Q 2525 409 2770 889 
Q 3016 1369 3016 2328 
Q 3016 3291 2770 3770 
Q 2525 4250 2034 4250 
z
M 2034 4750 
Q 2819 4750 3233 4129 
Q 3647 3509 3647 2328 
Q 3647 1150 3233 529 
Q 2819 -91 2034 -91 
Q 1250 -91 836 529 
Q 422 1150 422 2328 
Q 422 3509 836 4129 
Q 1250 4750 2034 4750 
z
" transform="scale(0.015625)"/>
      <path id="DejaVuSans-2e" d="M 684 794 
L 1344 794 
L 1344 0 
L 684 0 
L 684 794 
z
" transform="scale(0.015625)"/>
      <path id="DejaVuSans-32" d="M 1228 531 
L 3431 531 
L 3431 0 
L 469 0 
L 469 531 
Q 828 903 1448 1529 
Q 2069 2156 2228 2338 
Q 2531 2678 2651 2914 
Q 2772 3150 2772 3378 
Q 2772 3750 2511 3984 
Q 2250 4219 1831 4219 
Q 1534 4219 1204 4116 
Q 875 4013 500 3803 
L 500 4441 
Q 881 4594 1212 4672 
Q 1544 4750 1819 4750 
Q 2544 4750 2975 4387 
Q 3406 4025 3406 3419 
Q 3406 3131 3298 2873 
Q 3191 2616 2906 2266 
Q 2828 2175 2409 1742 
Q 1991 1309 1228 531 
z
" transform="scale(0.015625)"/>
      <path id="DejaVuSans-37" d="M 525 4666 
L 3525 4666 
L 3525 4397 
L 1831 0 
L 1172 0 
L 2766 4134 
L 525 4134 
L 525 4666 
z
" transform="scale(0.015625)"/>
     </defs>
     <use xlink:href="#DejaVuSans-Oblique-72" transform="translate(0 0.78125)"/>
     <use xlink:href="#DejaVuSans-3d" transform="translate(60.595703 0.78125)"/>
     <use xlink:href="#DejaVuSans-2212" transform="translate(183.349609 0.78125)"/>
     <use xlink:href="#DejaVuSans-30" transform="translate(286.621094 0.78125)"/>
     <use xlink:href="#DejaVuSans-2e" transform="translate(350.244141 0.78125)"/>
     <use xlink:href="#DejaVuSans-32" transform="translate(376.53125 0.78125)"/>
     <use xlink:href="#DejaVuSans-32" transform="translate(440.154297 0.78125)"/>
     <use xlink:href="#DejaVuSans-37" transform="translate(503.777344 0.78125)"/>
    </g>
    <!-- $p=0.030$ -->
    <g transform="translate(28.997965 16.152773) scale(0.05 -0.05)">
     <defs>
      <path id="DejaVuSans-Oblique-70" d="M 3175 2156 
Q 3175 2616 2975 2859 
Q 2775 3103 2400 3103 
Q 2144 3103 1911 2972 
Q 1678 2841 1497 2591 
Q 1319 2344 1212 1994 
Q 1106 1644 1106 1300 
Q 1106 863 1306 627 
Q 1506 391 1875 391 
Q 2147 391 2380 519 
Q 2613 647 2778 891 
Q 2956 1147 3065 1494 
Q 3175 1841 3175 2156 
z
M 1394 2969 
Q 1625 3272 1939 3428 
Q 2253 3584 2638 3584 
Q 3175 3584 3472 3232 
Q 3769 2881 3769 2247 
Q 3769 1728 3584 1258 
Q 3400 788 3053 416 
Q 2822 169 2531 39 
Q 2241 -91 1919 -91 
Q 1547 -91 1294 64 
Q 1041 219 916 525 
L 556 -1331 
L -19 -1331 
L 922 3500 
L 1497 3500 
L 1394 2969 
z
" transform="scale(0.015625)"/>
      <path id="DejaVuSans-33" d="M 2597 2516 
Q 3050 2419 3304 2112 
Q 3559 1806 3559 1356 
Q 3559 666 3084 287 
Q 2609 -91 1734 -91 
Q 1441 -91 1130 -33 
Q 819 25 488 141 
L 488 750 
Q 750 597 1062 519 
Q 1375 441 1716 441 
Q 2309 441 2620 675 
Q 2931 909 2931 1356 
Q 2931 1769 2642 2001 
Q 2353 2234 1838 2234 
L 1294 2234 
L 1294 2753 
L 1863 2753 
Q 2328 2753 2575 2939 
Q 2822 3125 2822 3475 
Q 2822 3834 2567 4026 
Q 2313 4219 1838 4219 
Q 1578 4219 1281 4162 
Q 984 4106 628 3988 
L 628 4550 
Q 988 4650 1302 4700 
Q 1616 4750 1894 4750 
Q 2613 4750 3031 4423 
Q 3450 4097 3450 3541 
Q 3450 3153 3228 2886 
Q 3006 2619 2597 2516 
z
" transform="scale(0.015625)"/>
     </defs>
     <use xlink:href="#DejaVuSans-Oblique-70" transform="translate(0 0.78125)"/>
     <use xlink:href="#DejaVuSans-3d" transform="translate(82.958984 0.78125)"/>
     <use xlink:href="#DejaVuSans-30" transform="translate(186.230469 0.78125)"/>
     <use xlink:href="#DejaVuSans-2e" transform="translate(249.853516 0.78125)"/>
     <use xlink:href="#DejaVuSans-30" transform="translate(281.640625 0.78125)"/>
     <use xlink:href="#DejaVuSans-33" transform="translate(345.263672 0.78125)"/>
     <use xlink:href="#DejaVuSans-30" transform="translate(408.886719 0.78125)"/>
    </g>
   </g>
  </g>
 </g>
 <defs>
  <clipPath id="p2ae429a504">
   <rect x="25.24" y="5.4" width="125.265512" height="84.005827"/>
  </clipPath>
 </defs>
</svg>
