<?xml version="1.0" encoding="utf-8" standalone="no"?>
<!DOCTYPE svg PUBLIC "-//W3C//DTD SVG 1.1//EN"
  "http://www.w3.org/Graphics/SVG/1.1/DTD/svg11.dtd">
<svg xmlns:xlink="http://www.w3.org/1999/xlink" width="212.987656pt" height="717.268594pt" viewBox="0 0 212.987656 717.268594" xmlns="http://www.w3.org/2000/svg" version="1.1">
 <metadata>
  <rdf:RDF xmlns:dc="http://purl.org/dc/elements/1.1/" xmlns:cc="http://creativecommons.org/ns#" xmlns:rdf="http://www.w3.org/1999/02/22-rdf-syntax-ns#">
   <cc:Work>
    <dc:type rdf:resource="http://purl.org/dc/dcmitype/StillImage"/>
    <dc:date>2025-08-13T11:26:54.313775</dc:date>
    <dc:format>image/svg+xml</dc:format>
    <dc:creator>
     <cc:Agent>
      <dc:title>Matplotlib v3.9.2, https://matplotlib.org/</dc:title>
     </cc:Agent>
    </dc:creator>
   </cc:Work>
  </rdf:RDF>
 </metadata>
 <defs>
  <style type="text/css">*{stroke-linejoin: round; stroke-linecap: butt}</style>
 </defs>
 <g id="figure_1">
  <g id="patch_1">
   <path d="M 0 717.268594 
L 212.987656 717.268594 
L 212.987656 0 
L 0 0 
z
" style="fill: #ffffff"/>
  </g>
  <g id="axes_1">
   <g id="patch_2">
    <path d="M 31.158438 672.48 
L 198.558437 672.48 
L 198.558437 7.2 
L 31.158438 7.2 
z
" style="fill: #ffffff"/>
   </g>
   <g id="matplotlib.axis_1">
    <g id="xtick_1">
     <g id="text_1">
      <!-- 0 -->
      <g style="fill: #262626" transform="translate(27.543828 691.285156) scale(0.13 -0.13)">
       <defs>
        <path id="ArialMT-30" d="M 266 2259 
Q 266 3072 433 3567 
Q 600 4063 929 4331 
Q 1259 4600 1759 4600 
Q 2128 4600 2406 4451 
Q 2684 4303 2865 4023 
Q 3047 3744 3150 3342 
Q 3253 2941 3253 2259 
Q 3253 1453 3087 958 
Q 2922 463 2592 192 
Q 2263 -78 1759 -78 
Q 1097 -78 719 397 
Q 266 969 266 2259 
z
M 844 2259 
Q 844 1131 1108 757 
Q 1372 384 1759 384 
Q 2147 384 2411 759 
Q 2675 1134 2675 2259 
Q 2675 3391 2411 3762 
Q 2147 4134 1753 4134 
Q 1366 4134 1134 3806 
Q 844 3388 844 2259 
z
" transform="scale(0.015625)"/>
       </defs>
       <use xlink:href="#ArialMT-30"/>
      </g>
     </g>
    </g>
    <g id="xtick_2">
     <g id="text_2">
      <!-- 5 -->
      <g style="fill: #262626" transform="translate(69.393828 691.285156) scale(0.13 -0.13)">
       <defs>
        <path id="ArialMT-35" d="M 266 1200 
L 856 1250 
Q 922 819 1161 601 
Q 1400 384 1738 384 
Q 2144 384 2425 690 
Q 2706 997 2706 1503 
Q 2706 1984 2436 2262 
Q 2166 2541 1728 2541 
Q 1456 2541 1237 2417 
Q 1019 2294 894 2097 
L 366 2166 
L 809 4519 
L 3088 4519 
L 3088 3981 
L 1259 3981 
L 1013 2750 
Q 1425 3038 1878 3038 
Q 2478 3038 2890 2622 
Q 3303 2206 3303 1553 
Q 3303 931 2941 478 
Q 2500 -78 1738 -78 
Q 1113 -78 717 272 
Q 322 622 266 1200 
z
" transform="scale(0.015625)"/>
       </defs>
       <use xlink:href="#ArialMT-35"/>
      </g>
     </g>
    </g>
    <g id="xtick_3">
     <g id="text_3">
      <!-- 10 -->
      <g style="fill: #262626" transform="translate(107.629219 691.285156) scale(0.13 -0.13)">
       <defs>
        <path id="ArialMT-31" d="M 2384 0 
L 1822 0 
L 1822 3584 
Q 1619 3391 1289 3197 
Q 959 3003 697 2906 
L 697 3450 
Q 1169 3672 1522 3987 
Q 1875 4303 2022 4600 
L 2384 4600 
L 2384 0 
z
" transform="scale(0.015625)"/>
       </defs>
       <use xlink:href="#ArialMT-31"/>
       <use xlink:href="#ArialMT-30" x="55.615234"/>
      </g>
     </g>
    </g>
    <g id="xtick_4">
     <g id="text_4">
      <!-- 15 -->
      <g style="fill: #262626" transform="translate(149.479219 691.285156) scale(0.13 -0.13)">
       <use xlink:href="#ArialMT-31"/>
       <use xlink:href="#ArialMT-35" x="55.615234"/>
      </g>
     </g>
    </g>
    <g id="xtick_5">
     <g id="text_5">
      <!-- 20 -->
      <g style="fill: #262626" transform="translate(191.329219 691.285156) scale(0.13 -0.13)">
       <defs>
        <path id="ArialMT-32" d="M 3222 541 
L 3222 0 
L 194 0 
Q 188 203 259 391 
Q 375 700 629 1000 
Q 884 1300 1366 1694 
Q 2113 2306 2375 2664 
Q 2638 3022 2638 3341 
Q 2638 3675 2398 3904 
Q 2159 4134 1775 4134 
Q 1369 4134 1125 3890 
Q 881 3647 878 3216 
L 300 3275 
Q 359 3922 746 4261 
Q 1134 4600 1788 4600 
Q 2447 4600 2831 4234 
Q 3216 3869 3216 3328 
Q 3216 3053 3103 2787 
Q 2991 2522 2730 2228 
Q 2469 1934 1863 1422 
Q 1356 997 1212 845 
Q 1069 694 975 541 
L 3222 541 
z
" transform="scale(0.015625)"/>
       </defs>
       <use xlink:href="#ArialMT-32"/>
       <use xlink:href="#ArialMT-30" x="55.615234"/>
      </g>
     </g>
    </g>
    <g id="text_6">
     <!-- Subjects with deviations [%] -->
     <g style="fill: #262626" transform="translate(34.293984 707.3325) scale(0.13 -0.13)">
      <defs>
       <path id="ArialMT-53" d="M 288 1472 
L 859 1522 
Q 900 1178 1048 958 
Q 1197 738 1509 602 
Q 1822 466 2213 466 
Q 2559 466 2825 569 
Q 3091 672 3220 851 
Q 3350 1031 3350 1244 
Q 3350 1459 3225 1620 
Q 3100 1781 2813 1891 
Q 2628 1963 1997 2114 
Q 1366 2266 1113 2400 
Q 784 2572 623 2826 
Q 463 3081 463 3397 
Q 463 3744 659 4045 
Q 856 4347 1234 4503 
Q 1613 4659 2075 4659 
Q 2584 4659 2973 4495 
Q 3363 4331 3572 4012 
Q 3781 3694 3797 3291 
L 3216 3247 
Q 3169 3681 2898 3903 
Q 2628 4125 2100 4125 
Q 1550 4125 1298 3923 
Q 1047 3722 1047 3438 
Q 1047 3191 1225 3031 
Q 1400 2872 2139 2705 
Q 2878 2538 3153 2413 
Q 3553 2228 3743 1945 
Q 3934 1663 3934 1294 
Q 3934 928 3725 604 
Q 3516 281 3123 101 
Q 2731 -78 2241 -78 
Q 1619 -78 1198 103 
Q 778 284 539 648 
Q 300 1013 288 1472 
z
" transform="scale(0.015625)"/>
       <path id="ArialMT-75" d="M 2597 0 
L 2597 488 
Q 2209 -75 1544 -75 
Q 1250 -75 995 37 
Q 741 150 617 320 
Q 494 491 444 738 
Q 409 903 409 1263 
L 409 3319 
L 972 3319 
L 972 1478 
Q 972 1038 1006 884 
Q 1059 663 1231 536 
Q 1403 409 1656 409 
Q 1909 409 2131 539 
Q 2353 669 2445 892 
Q 2538 1116 2538 1541 
L 2538 3319 
L 3100 3319 
L 3100 0 
L 2597 0 
z
" transform="scale(0.015625)"/>
       <path id="ArialMT-62" d="M 941 0 
L 419 0 
L 419 4581 
L 981 4581 
L 981 2947 
Q 1338 3394 1891 3394 
Q 2197 3394 2470 3270 
Q 2744 3147 2920 2923 
Q 3097 2700 3197 2384 
Q 3297 2069 3297 1709 
Q 3297 856 2875 390 
Q 2453 -75 1863 -75 
Q 1275 -75 941 416 
L 941 0 
z
M 934 1684 
Q 934 1088 1097 822 
Q 1363 388 1816 388 
Q 2184 388 2453 708 
Q 2722 1028 2722 1663 
Q 2722 2313 2464 2622 
Q 2206 2931 1841 2931 
Q 1472 2931 1203 2611 
Q 934 2291 934 1684 
z
" transform="scale(0.015625)"/>
       <path id="ArialMT-6a" d="M 419 3928 
L 419 4581 
L 981 4581 
L 981 3928 
L 419 3928 
z
M -294 -1288 
L -188 -809 
Q -19 -853 78 -853 
Q 250 -853 334 -739 
Q 419 -625 419 -169 
L 419 3319 
L 981 3319 
L 981 -181 
Q 981 -794 822 -1034 
Q 619 -1347 147 -1347 
Q -81 -1347 -294 -1288 
z
" transform="scale(0.015625)"/>
       <path id="ArialMT-65" d="M 2694 1069 
L 3275 997 
Q 3138 488 2766 206 
Q 2394 -75 1816 -75 
Q 1088 -75 661 373 
Q 234 822 234 1631 
Q 234 2469 665 2931 
Q 1097 3394 1784 3394 
Q 2450 3394 2872 2941 
Q 3294 2488 3294 1666 
Q 3294 1616 3291 1516 
L 816 1516 
Q 847 969 1125 678 
Q 1403 388 1819 388 
Q 2128 388 2347 550 
Q 2566 713 2694 1069 
z
M 847 1978 
L 2700 1978 
Q 2663 2397 2488 2606 
Q 2219 2931 1791 2931 
Q 1403 2931 1139 2672 
Q 875 2413 847 1978 
z
" transform="scale(0.015625)"/>
       <path id="ArialMT-63" d="M 2588 1216 
L 3141 1144 
Q 3050 572 2676 248 
Q 2303 -75 1759 -75 
Q 1078 -75 664 370 
Q 250 816 250 1647 
Q 250 2184 428 2587 
Q 606 2991 970 3192 
Q 1334 3394 1763 3394 
Q 2303 3394 2647 3120 
Q 2991 2847 3088 2344 
L 2541 2259 
Q 2463 2594 2264 2762 
Q 2066 2931 1784 2931 
Q 1359 2931 1093 2626 
Q 828 2322 828 1663 
Q 828 994 1084 691 
Q 1341 388 1753 388 
Q 2084 388 2306 591 
Q 2528 794 2588 1216 
z
" transform="scale(0.015625)"/>
       <path id="ArialMT-74" d="M 1650 503 
L 1731 6 
Q 1494 -44 1306 -44 
Q 1000 -44 831 53 
Q 663 150 594 308 
Q 525 466 525 972 
L 525 2881 
L 113 2881 
L 113 3319 
L 525 3319 
L 525 4141 
L 1084 4478 
L 1084 3319 
L 1650 3319 
L 1650 2881 
L 1084 2881 
L 1084 941 
Q 1084 700 1114 631 
Q 1144 563 1211 522 
Q 1278 481 1403 481 
Q 1497 481 1650 503 
z
" transform="scale(0.015625)"/>
       <path id="ArialMT-73" d="M 197 991 
L 753 1078 
Q 800 744 1014 566 
Q 1228 388 1613 388 
Q 2000 388 2187 545 
Q 2375 703 2375 916 
Q 2375 1106 2209 1216 
Q 2094 1291 1634 1406 
Q 1016 1563 777 1677 
Q 538 1791 414 1992 
Q 291 2194 291 2438 
Q 291 2659 392 2848 
Q 494 3038 669 3163 
Q 800 3259 1026 3326 
Q 1253 3394 1513 3394 
Q 1903 3394 2198 3281 
Q 2494 3169 2634 2976 
Q 2775 2784 2828 2463 
L 2278 2388 
Q 2241 2644 2061 2787 
Q 1881 2931 1553 2931 
Q 1166 2931 1000 2803 
Q 834 2675 834 2503 
Q 834 2394 903 2306 
Q 972 2216 1119 2156 
Q 1203 2125 1616 2013 
Q 2213 1853 2448 1751 
Q 2684 1650 2818 1456 
Q 2953 1263 2953 975 
Q 2953 694 2789 445 
Q 2625 197 2315 61 
Q 2006 -75 1616 -75 
Q 969 -75 630 194 
Q 291 463 197 991 
z
" transform="scale(0.015625)"/>
       <path id="ArialMT-20" transform="scale(0.015625)"/>
       <path id="ArialMT-77" d="M 1034 0 
L 19 3319 
L 600 3319 
L 1128 1403 
L 1325 691 
Q 1338 744 1497 1375 
L 2025 3319 
L 2603 3319 
L 3100 1394 
L 3266 759 
L 3456 1400 
L 4025 3319 
L 4572 3319 
L 3534 0 
L 2950 0 
L 2422 1988 
L 2294 2553 
L 1622 0 
L 1034 0 
z
" transform="scale(0.015625)"/>
       <path id="ArialMT-69" d="M 425 3934 
L 425 4581 
L 988 4581 
L 988 3934 
L 425 3934 
z
M 425 0 
L 425 3319 
L 988 3319 
L 988 0 
L 425 0 
z
" transform="scale(0.015625)"/>
       <path id="ArialMT-68" d="M 422 0 
L 422 4581 
L 984 4581 
L 984 2938 
Q 1378 3394 1978 3394 
Q 2347 3394 2619 3248 
Q 2891 3103 3008 2847 
Q 3125 2591 3125 2103 
L 3125 0 
L 2563 0 
L 2563 2103 
Q 2563 2525 2380 2717 
Q 2197 2909 1863 2909 
Q 1613 2909 1392 2779 
Q 1172 2650 1078 2428 
Q 984 2206 984 1816 
L 984 0 
L 422 0 
z
" transform="scale(0.015625)"/>
       <path id="ArialMT-64" d="M 2575 0 
L 2575 419 
Q 2259 -75 1647 -75 
Q 1250 -75 917 144 
Q 584 363 401 755 
Q 219 1147 219 1656 
Q 219 2153 384 2558 
Q 550 2963 881 3178 
Q 1213 3394 1622 3394 
Q 1922 3394 2156 3267 
Q 2391 3141 2538 2938 
L 2538 4581 
L 3097 4581 
L 3097 0 
L 2575 0 
z
M 797 1656 
Q 797 1019 1065 703 
Q 1334 388 1700 388 
Q 2069 388 2326 689 
Q 2584 991 2584 1609 
Q 2584 2291 2321 2609 
Q 2059 2928 1675 2928 
Q 1300 2928 1048 2622 
Q 797 2316 797 1656 
z
" transform="scale(0.015625)"/>
       <path id="ArialMT-76" d="M 1344 0 
L 81 3319 
L 675 3319 
L 1388 1331 
Q 1503 1009 1600 663 
Q 1675 925 1809 1294 
L 2547 3319 
L 3125 3319 
L 1869 0 
L 1344 0 
z
" transform="scale(0.015625)"/>
       <path id="ArialMT-61" d="M 2588 409 
Q 2275 144 1986 34 
Q 1697 -75 1366 -75 
Q 819 -75 525 192 
Q 231 459 231 875 
Q 231 1119 342 1320 
Q 453 1522 633 1644 
Q 813 1766 1038 1828 
Q 1203 1872 1538 1913 
Q 2219 1994 2541 2106 
Q 2544 2222 2544 2253 
Q 2544 2597 2384 2738 
Q 2169 2928 1744 2928 
Q 1347 2928 1158 2789 
Q 969 2650 878 2297 
L 328 2372 
Q 403 2725 575 2942 
Q 747 3159 1072 3276 
Q 1397 3394 1825 3394 
Q 2250 3394 2515 3294 
Q 2781 3194 2906 3042 
Q 3031 2891 3081 2659 
Q 3109 2516 3109 2141 
L 3109 1391 
Q 3109 606 3145 398 
Q 3181 191 3288 0 
L 2700 0 
Q 2613 175 2588 409 
z
M 2541 1666 
Q 2234 1541 1622 1453 
Q 1275 1403 1131 1340 
Q 988 1278 909 1158 
Q 831 1038 831 891 
Q 831 666 1001 516 
Q 1172 366 1500 366 
Q 1825 366 2078 508 
Q 2331 650 2450 897 
Q 2541 1088 2541 1459 
L 2541 1666 
z
" transform="scale(0.015625)"/>
       <path id="ArialMT-6f" d="M 213 1659 
Q 213 2581 725 3025 
Q 1153 3394 1769 3394 
Q 2453 3394 2887 2945 
Q 3322 2497 3322 1706 
Q 3322 1066 3130 698 
Q 2938 331 2570 128 
Q 2203 -75 1769 -75 
Q 1072 -75 642 372 
Q 213 819 213 1659 
z
M 791 1659 
Q 791 1022 1069 705 
Q 1347 388 1769 388 
Q 2188 388 2466 706 
Q 2744 1025 2744 1678 
Q 2744 2294 2464 2611 
Q 2184 2928 1769 2928 
Q 1347 2928 1069 2612 
Q 791 2297 791 1659 
z
" transform="scale(0.015625)"/>
       <path id="ArialMT-6e" d="M 422 0 
L 422 3319 
L 928 3319 
L 928 2847 
Q 1294 3394 1984 3394 
Q 2284 3394 2536 3286 
Q 2788 3178 2913 3003 
Q 3038 2828 3088 2588 
Q 3119 2431 3119 2041 
L 3119 0 
L 2556 0 
L 2556 2019 
Q 2556 2363 2490 2533 
Q 2425 2703 2258 2804 
Q 2091 2906 1866 2906 
Q 1506 2906 1245 2678 
Q 984 2450 984 1813 
L 984 0 
L 422 0 
z
" transform="scale(0.015625)"/>
       <path id="ArialMT-5b" d="M 434 -1272 
L 434 4581 
L 1675 4581 
L 1675 4116 
L 997 4116 
L 997 -806 
L 1675 -806 
L 1675 -1272 
L 434 -1272 
z
" transform="scale(0.015625)"/>
       <path id="ArialMT-25" d="M 372 3481 
Q 372 3972 619 4315 
Q 866 4659 1334 4659 
Q 1766 4659 2048 4351 
Q 2331 4044 2331 3447 
Q 2331 2866 2045 2552 
Q 1759 2238 1341 2238 
Q 925 2238 648 2547 
Q 372 2856 372 3481 
z
M 1350 4272 
Q 1141 4272 1002 4090 
Q 863 3909 863 3425 
Q 863 2984 1003 2804 
Q 1144 2625 1350 2625 
Q 1563 2625 1702 2806 
Q 1841 2988 1841 3469 
Q 1841 3913 1700 4092 
Q 1559 4272 1350 4272 
z
M 1353 -169 
L 3859 4659 
L 4316 4659 
L 1819 -169 
L 1353 -169 
z
M 3334 1075 
Q 3334 1569 3581 1911 
Q 3828 2253 4300 2253 
Q 4731 2253 5014 1945 
Q 5297 1638 5297 1041 
Q 5297 459 5011 145 
Q 4725 -169 4303 -169 
Q 3888 -169 3611 142 
Q 3334 453 3334 1075 
z
M 4316 1866 
Q 4103 1866 3964 1684 
Q 3825 1503 3825 1019 
Q 3825 581 3965 400 
Q 4106 219 4313 219 
Q 4528 219 4667 400 
Q 4806 581 4806 1063 
Q 4806 1506 4665 1686 
Q 4525 1866 4316 1866 
z
" transform="scale(0.015625)"/>
       <path id="ArialMT-5d" d="M 1363 -1272 
L 122 -1272 
L 122 -806 
L 800 -806 
L 800 4116 
L 122 4116 
L 122 4581 
L 1363 4581 
L 1363 -1272 
z
" transform="scale(0.015625)"/>
      </defs>
      <use xlink:href="#ArialMT-53"/>
      <use xlink:href="#ArialMT-75" x="66.699219"/>
      <use xlink:href="#ArialMT-62" x="122.314453"/>
      <use xlink:href="#ArialMT-6a" x="177.929688"/>
      <use xlink:href="#ArialMT-65" x="200.146484"/>
      <use xlink:href="#ArialMT-63" x="255.761719"/>
      <use xlink:href="#ArialMT-74" x="305.761719"/>
      <use xlink:href="#ArialMT-73" x="333.544922"/>
      <use xlink:href="#ArialMT-20" x="383.544922"/>
      <use xlink:href="#ArialMT-77" x="411.328125"/>
      <use xlink:href="#ArialMT-69" x="483.544922"/>
      <use xlink:href="#ArialMT-74" x="505.761719"/>
      <use xlink:href="#ArialMT-68" x="533.544922"/>
      <use xlink:href="#ArialMT-20" x="589.160156"/>
      <use xlink:href="#ArialMT-64" x="616.943359"/>
      <use xlink:href="#ArialMT-65" x="672.558594"/>
      <use xlink:href="#ArialMT-76" x="728.173828"/>
      <use xlink:href="#ArialMT-69" x="778.173828"/>
      <use xlink:href="#ArialMT-61" x="800.390625"/>
      <use xlink:href="#ArialMT-74" x="856.005859"/>
      <use xlink:href="#ArialMT-69" x="883.789062"/>
      <use xlink:href="#ArialMT-6f" x="906.005859"/>
      <use xlink:href="#ArialMT-6e" x="961.621094"/>
      <use xlink:href="#ArialMT-73" x="1017.236328"/>
      <use xlink:href="#ArialMT-20" x="1067.236328"/>
      <use xlink:href="#ArialMT-5b" x="1095.019531"/>
      <use xlink:href="#ArialMT-25" x="1122.802734"/>
      <use xlink:href="#ArialMT-5d" x="1211.71875"/>
     </g>
    </g>
   </g>
   <g id="matplotlib.axis_2">
    <g id="ytick_1">
     <g id="text_7">
      <!-- 1 -->
      <g style="fill: #262626" transform="translate(14.429219 23.992724) scale(0.13 -0.13)">
       <use xlink:href="#ArialMT-31"/>
      </g>
     </g>
    </g>
    <g id="ytick_2">
     <g id="text_8">
      <!-- 2 -->
      <g style="fill: #262626" transform="translate(14.429219 43.416958) scale(0.13 -0.13)">
       <use xlink:href="#ArialMT-32"/>
      </g>
     </g>
    </g>
    <g id="ytick_3">
     <g id="text_9">
      <!-- 3 -->
      <g style="fill: #262626" transform="translate(14.429219 62.841191) scale(0.13 -0.13)">
       <defs>
        <path id="ArialMT-33" d="M 269 1209 
L 831 1284 
Q 928 806 1161 595 
Q 1394 384 1728 384 
Q 2125 384 2398 659 
Q 2672 934 2672 1341 
Q 2672 1728 2419 1979 
Q 2166 2231 1775 2231 
Q 1616 2231 1378 2169 
L 1441 2663 
Q 1497 2656 1531 2656 
Q 1891 2656 2178 2843 
Q 2466 3031 2466 3422 
Q 2466 3731 2256 3934 
Q 2047 4138 1716 4138 
Q 1388 4138 1169 3931 
Q 950 3725 888 3313 
L 325 3413 
Q 428 3978 793 4289 
Q 1159 4600 1703 4600 
Q 2078 4600 2393 4439 
Q 2709 4278 2876 4000 
Q 3044 3722 3044 3409 
Q 3044 3113 2884 2869 
Q 2725 2625 2413 2481 
Q 2819 2388 3044 2092 
Q 3269 1797 3269 1353 
Q 3269 753 2831 336 
Q 2394 -81 1725 -81 
Q 1122 -81 723 278 
Q 325 638 269 1209 
z
" transform="scale(0.015625)"/>
       </defs>
       <use xlink:href="#ArialMT-33"/>
      </g>
     </g>
    </g>
    <g id="ytick_4">
     <g id="text_10">
      <!-- 4 -->
      <g style="fill: #262626" transform="translate(14.429219 82.265425) scale(0.13 -0.13)">
       <defs>
        <path id="ArialMT-34" d="M 2069 0 
L 2069 1097 
L 81 1097 
L 81 1613 
L 2172 4581 
L 2631 4581 
L 2631 1613 
L 3250 1613 
L 3250 1097 
L 2631 1097 
L 2631 0 
L 2069 0 
z
M 2069 1613 
L 2069 3678 
L 634 1613 
L 2069 1613 
z
" transform="scale(0.015625)"/>
       </defs>
       <use xlink:href="#ArialMT-34"/>
      </g>
     </g>
    </g>
    <g id="ytick_5">
     <g id="text_11">
      <!-- 5 -->
      <g style="fill: #262626" transform="translate(14.429219 101.689658) scale(0.13 -0.13)">
       <use xlink:href="#ArialMT-35"/>
      </g>
     </g>
    </g>
    <g id="ytick_6">
     <g id="text_12">
      <!-- 6 -->
      <g style="fill: #262626" transform="translate(14.429219 121.113892) scale(0.13 -0.13)">
       <defs>
        <path id="ArialMT-36" d="M 3184 3459 
L 2625 3416 
Q 2550 3747 2413 3897 
Q 2184 4138 1850 4138 
Q 1581 4138 1378 3988 
Q 1113 3794 959 3422 
Q 806 3050 800 2363 
Q 1003 2672 1297 2822 
Q 1591 2972 1913 2972 
Q 2475 2972 2870 2558 
Q 3266 2144 3266 1488 
Q 3266 1056 3080 686 
Q 2894 316 2569 119 
Q 2244 -78 1831 -78 
Q 1128 -78 684 439 
Q 241 956 241 2144 
Q 241 3472 731 4075 
Q 1159 4600 1884 4600 
Q 2425 4600 2770 4297 
Q 3116 3994 3184 3459 
z
M 888 1484 
Q 888 1194 1011 928 
Q 1134 663 1356 523 
Q 1578 384 1822 384 
Q 2178 384 2434 671 
Q 2691 959 2691 1453 
Q 2691 1928 2437 2201 
Q 2184 2475 1800 2475 
Q 1419 2475 1153 2201 
Q 888 1928 888 1484 
z
" transform="scale(0.015625)"/>
       </defs>
       <use xlink:href="#ArialMT-36"/>
      </g>
     </g>
    </g>
    <g id="ytick_7">
     <g id="text_13">
      <!-- 7 -->
      <g style="fill: #262626" transform="translate(14.429219 140.538126) scale(0.13 -0.13)">
       <defs>
        <path id="ArialMT-37" d="M 303 3981 
L 303 4522 
L 3269 4522 
L 3269 4084 
Q 2831 3619 2401 2847 
Q 1972 2075 1738 1259 
Q 1569 684 1522 0 
L 944 0 
Q 953 541 1156 1306 
Q 1359 2072 1739 2783 
Q 2119 3494 2547 3981 
L 303 3981 
z
" transform="scale(0.015625)"/>
       </defs>
       <use xlink:href="#ArialMT-37"/>
      </g>
     </g>
    </g>
    <g id="ytick_8">
     <g id="text_14">
      <!-- 8 -->
      <g style="fill: #262626" transform="translate(14.429219 159.962359) scale(0.13 -0.13)">
       <defs>
        <path id="ArialMT-38" d="M 1131 2484 
Q 781 2613 612 2850 
Q 444 3088 444 3419 
Q 444 3919 803 4259 
Q 1163 4600 1759 4600 
Q 2359 4600 2725 4251 
Q 3091 3903 3091 3403 
Q 3091 3084 2923 2848 
Q 2756 2613 2416 2484 
Q 2838 2347 3058 2040 
Q 3278 1734 3278 1309 
Q 3278 722 2862 322 
Q 2447 -78 1769 -78 
Q 1091 -78 675 323 
Q 259 725 259 1325 
Q 259 1772 486 2073 
Q 713 2375 1131 2484 
z
M 1019 3438 
Q 1019 3113 1228 2906 
Q 1438 2700 1772 2700 
Q 2097 2700 2305 2904 
Q 2513 3109 2513 3406 
Q 2513 3716 2298 3927 
Q 2084 4138 1766 4138 
Q 1444 4138 1231 3931 
Q 1019 3725 1019 3438 
z
M 838 1322 
Q 838 1081 952 856 
Q 1066 631 1291 507 
Q 1516 384 1775 384 
Q 2178 384 2440 643 
Q 2703 903 2703 1303 
Q 2703 1709 2433 1975 
Q 2163 2241 1756 2241 
Q 1359 2241 1098 1978 
Q 838 1716 838 1322 
z
" transform="scale(0.015625)"/>
       </defs>
       <use xlink:href="#ArialMT-38"/>
      </g>
     </g>
    </g>
    <g id="ytick_9">
     <g id="text_15">
      <!-- 9 -->
      <g style="fill: #262626" transform="translate(14.429219 179.386593) scale(0.13 -0.13)">
       <defs>
        <path id="ArialMT-39" d="M 350 1059 
L 891 1109 
Q 959 728 1153 556 
Q 1347 384 1650 384 
Q 1909 384 2104 503 
Q 2300 622 2425 820 
Q 2550 1019 2634 1356 
Q 2719 1694 2719 2044 
Q 2719 2081 2716 2156 
Q 2547 1888 2255 1720 
Q 1963 1553 1622 1553 
Q 1053 1553 659 1965 
Q 266 2378 266 3053 
Q 266 3750 677 4175 
Q 1088 4600 1706 4600 
Q 2153 4600 2523 4359 
Q 2894 4119 3086 3673 
Q 3278 3228 3278 2384 
Q 3278 1506 3087 986 
Q 2897 466 2520 194 
Q 2144 -78 1638 -78 
Q 1100 -78 759 220 
Q 419 519 350 1059 
z
M 2653 3081 
Q 2653 3566 2395 3850 
Q 2138 4134 1775 4134 
Q 1400 4134 1122 3828 
Q 844 3522 844 3034 
Q 844 2597 1108 2323 
Q 1372 2050 1759 2050 
Q 2150 2050 2401 2323 
Q 2653 2597 2653 3081 
z
" transform="scale(0.015625)"/>
       </defs>
       <use xlink:href="#ArialMT-39"/>
      </g>
     </g>
    </g>
    <g id="ytick_10">
     <g id="text_16">
      <!-- 10 -->
      <g style="fill: #262626" transform="translate(7.2 198.810826) scale(0.13 -0.13)">
       <use xlink:href="#ArialMT-31"/>
       <use xlink:href="#ArialMT-30" x="55.615234"/>
      </g>
     </g>
    </g>
    <g id="ytick_11">
     <g id="text_17">
      <!-- 11 -->
      <g style="fill: #262626" transform="translate(8.15875 218.23506) scale(0.13 -0.13)">
       <use xlink:href="#ArialMT-31"/>
       <use xlink:href="#ArialMT-31" x="48.240234"/>
      </g>
     </g>
    </g>
    <g id="ytick_12">
     <g id="text_18">
      <!-- 12 -->
      <g style="fill: #262626" transform="translate(7.2 237.659293) scale(0.13 -0.13)">
       <use xlink:href="#ArialMT-31"/>
       <use xlink:href="#ArialMT-32" x="55.615234"/>
      </g>
     </g>
    </g>
    <g id="ytick_13">
     <g id="text_19">
      <!-- 13 -->
      <g style="fill: #262626" transform="translate(7.2 257.083527) scale(0.13 -0.13)">
       <use xlink:href="#ArialMT-31"/>
       <use xlink:href="#ArialMT-33" x="55.615234"/>
      </g>
     </g>
    </g>
    <g id="ytick_14">
     <g id="text_20">
      <!-- 14 -->
      <g style="fill: #262626" transform="translate(7.2 276.507761) scale(0.13 -0.13)">
       <use xlink:href="#ArialMT-31"/>
       <use xlink:href="#ArialMT-34" x="55.615234"/>
      </g>
     </g>
    </g>
    <g id="ytick_15">
     <g id="text_21">
      <!-- 15 -->
      <g style="fill: #262626" transform="translate(7.2 295.931994) scale(0.13 -0.13)">
       <use xlink:href="#ArialMT-31"/>
       <use xlink:href="#ArialMT-35" x="55.615234"/>
      </g>
     </g>
    </g>
    <g id="ytick_16">
     <g id="text_22">
      <!-- 16 -->
      <g style="fill: #262626" transform="translate(7.2 315.356228) scale(0.13 -0.13)">
       <use xlink:href="#ArialMT-31"/>
       <use xlink:href="#ArialMT-36" x="55.615234"/>
      </g>
     </g>
    </g>
    <g id="ytick_17">
     <g id="text_23">
      <!-- 17 -->
      <g style="fill: #262626" transform="translate(7.2 334.780461) scale(0.13 -0.13)">
       <use xlink:href="#ArialMT-31"/>
       <use xlink:href="#ArialMT-37" x="55.615234"/>
      </g>
     </g>
    </g>
    <g id="ytick_18">
     <g id="text_24">
      <!-- 18 -->
      <g style="fill: #262626" transform="translate(7.2 354.204695) scale(0.13 -0.13)">
       <use xlink:href="#ArialMT-31"/>
       <use xlink:href="#ArialMT-38" x="55.615234"/>
      </g>
     </g>
    </g>
    <g id="ytick_19">
     <g id="text_25">
      <!-- 19 -->
      <g style="fill: #262626" transform="translate(7.2 373.628928) scale(0.13 -0.13)">
       <use xlink:href="#ArialMT-31"/>
       <use xlink:href="#ArialMT-39" x="55.615234"/>
      </g>
     </g>
    </g>
    <g id="ytick_20">
     <g id="text_26">
      <!-- 20 -->
      <g style="fill: #262626" transform="translate(7.2 393.053162) scale(0.13 -0.13)">
       <use xlink:href="#ArialMT-32"/>
       <use xlink:href="#ArialMT-30" x="55.615234"/>
      </g>
     </g>
    </g>
    <g id="ytick_21">
     <g id="text_27">
      <!-- 21 -->
      <g style="fill: #262626" transform="translate(7.2 412.477396) scale(0.13 -0.13)">
       <use xlink:href="#ArialMT-32"/>
       <use xlink:href="#ArialMT-31" x="55.615234"/>
      </g>
     </g>
    </g>
    <g id="ytick_22">
     <g id="text_28">
      <!-- 22 -->
      <g style="fill: #262626" transform="translate(7.2 431.901629) scale(0.13 -0.13)">
       <use xlink:href="#ArialMT-32"/>
       <use xlink:href="#ArialMT-32" x="55.615234"/>
      </g>
     </g>
    </g>
    <g id="ytick_23">
     <g id="text_29">
      <!-- 23 -->
      <g style="fill: #262626" transform="translate(7.2 451.325863) scale(0.13 -0.13)">
       <use xlink:href="#ArialMT-32"/>
       <use xlink:href="#ArialMT-33" x="55.615234"/>
      </g>
     </g>
    </g>
    <g id="ytick_24">
     <g id="text_30">
      <!-- 24 -->
      <g style="fill: #262626" transform="translate(7.2 470.750096) scale(0.13 -0.13)">
       <use xlink:href="#ArialMT-32"/>
       <use xlink:href="#ArialMT-34" x="55.615234"/>
      </g>
     </g>
    </g>
    <g id="ytick_25">
     <g id="text_31">
      <!-- 25 -->
      <g style="fill: #262626" transform="translate(7.2 490.17433) scale(0.13 -0.13)">
       <use xlink:href="#ArialMT-32"/>
       <use xlink:href="#ArialMT-35" x="55.615234"/>
      </g>
     </g>
    </g>
    <g id="ytick_26">
     <g id="text_32">
      <!-- 26 -->
      <g style="fill: #262626" transform="translate(7.2 509.598564) scale(0.13 -0.13)">
       <use xlink:href="#ArialMT-32"/>
       <use xlink:href="#ArialMT-36" x="55.615234"/>
      </g>
     </g>
    </g>
    <g id="ytick_27">
     <g id="text_33">
      <!-- 27 -->
      <g style="fill: #262626" transform="translate(7.2 529.022797) scale(0.13 -0.13)">
       <use xlink:href="#ArialMT-32"/>
       <use xlink:href="#ArialMT-37" x="55.615234"/>
      </g>
     </g>
    </g>
    <g id="ytick_28">
     <g id="text_34">
      <!-- 28 -->
      <g style="fill: #262626" transform="translate(7.2 548.447031) scale(0.13 -0.13)">
       <use xlink:href="#ArialMT-32"/>
       <use xlink:href="#ArialMT-38" x="55.615234"/>
      </g>
     </g>
    </g>
    <g id="ytick_29">
     <g id="text_35">
      <!-- 29 -->
      <g style="fill: #262626" transform="translate(7.2 567.871264) scale(0.13 -0.13)">
       <use xlink:href="#ArialMT-32"/>
       <use xlink:href="#ArialMT-39" x="55.615234"/>
      </g>
     </g>
    </g>
    <g id="ytick_30">
     <g id="text_36">
      <!-- 30 -->
      <g style="fill: #262626" transform="translate(7.2 587.295498) scale(0.13 -0.13)">
       <use xlink:href="#ArialMT-33"/>
       <use xlink:href="#ArialMT-30" x="55.615234"/>
      </g>
     </g>
    </g>
    <g id="ytick_31">
     <g id="text_37">
      <!-- 31 -->
      <g style="fill: #262626" transform="translate(7.2 606.719731) scale(0.13 -0.13)">
       <use xlink:href="#ArialMT-33"/>
       <use xlink:href="#ArialMT-31" x="55.615234"/>
      </g>
     </g>
    </g>
    <g id="ytick_32">
     <g id="text_38">
      <!-- 32 -->
      <g style="fill: #262626" transform="translate(7.2 626.143965) scale(0.13 -0.13)">
       <use xlink:href="#ArialMT-33"/>
       <use xlink:href="#ArialMT-32" x="55.615234"/>
      </g>
     </g>
    </g>
    <g id="ytick_33">
     <g id="text_39">
      <!-- 33 -->
      <g style="fill: #262626" transform="translate(7.2 645.568199) scale(0.13 -0.13)">
       <use xlink:href="#ArialMT-33"/>
       <use xlink:href="#ArialMT-33" x="55.615234"/>
      </g>
     </g>
    </g>
    <g id="ytick_34">
     <g id="text_40">
      <!-- 34 -->
      <g style="fill: #262626" transform="translate(7.2 664.992432) scale(0.13 -0.13)">
       <use xlink:href="#ArialMT-33"/>
       <use xlink:href="#ArialMT-34" x="55.615234"/>
      </g>
     </g>
    </g>
   </g>
   <g id="patch_3">
    <path d="M 31.158438 12.056058 
L 31.158438 12.056058 
L 31.158438 15.698102 
L 31.158438 15.698102 
z
" clip-path="url(#p305e5da9cd)" style="fill: #696969; stroke: #ffffff; stroke-linejoin: miter"/>
   </g>
   <g id="patch_4">
    <path d="M 31.158438 31.480292 
L 31.158438 31.480292 
L 31.158438 35.122336 
L 31.158438 35.122336 
z
" clip-path="url(#p305e5da9cd)" style="fill: #696969; stroke: #ffffff; stroke-linejoin: miter"/>
   </g>
   <g id="patch_5">
    <path d="M 31.158438 50.904526 
L 39.769549 50.904526 
L 39.769549 54.546569 
L 31.158438 54.546569 
z
" clip-path="url(#p305e5da9cd)" style="fill: #696969; stroke: #ffffff; stroke-linejoin: miter"/>
   </g>
   <g id="patch_6">
    <path d="M 31.158438 70.328759 
L 34.602882 70.328759 
L 34.602882 73.970803 
L 31.158438 73.970803 
z
" clip-path="url(#p305e5da9cd)" style="fill: #696969; stroke: #ffffff; stroke-linejoin: miter"/>
   </g>
   <g id="patch_7">
    <path d="M 31.158438 89.752993 
L 31.158438 89.752993 
L 31.158438 93.395036 
L 31.158438 93.395036 
z
" clip-path="url(#p305e5da9cd)" style="fill: #696969; stroke: #ffffff; stroke-linejoin: miter"/>
   </g>
   <g id="patch_8">
    <path d="M 31.158438 109.177226 
L 53.547326 109.177226 
L 53.547326 112.81927 
L 31.158438 112.81927 
z
" clip-path="url(#p305e5da9cd)" style="fill: #696969; stroke: #ffffff; stroke-linejoin: miter"/>
   </g>
   <g id="patch_9">
    <path d="M 31.158438 128.60146 
L 31.158438 128.60146 
L 31.158438 132.243504 
L 31.158438 132.243504 
z
" clip-path="url(#p305e5da9cd)" style="fill: #696969; stroke: #ffffff; stroke-linejoin: miter"/>
   </g>
   <g id="patch_10">
    <path d="M 31.158438 148.025693 
L 44.936215 148.025693 
L 44.936215 151.667737 
L 31.158438 151.667737 
z
" clip-path="url(#p305e5da9cd)" style="fill: #696969; stroke: #ffffff; stroke-linejoin: miter"/>
   </g>
   <g id="patch_11">
    <path d="M 31.158438 167.449927 
L 72.491771 167.449927 
L 72.491771 171.091971 
L 31.158438 171.091971 
z
" clip-path="url(#p305e5da9cd)" style="fill: #696969; stroke: #ffffff; stroke-linejoin: miter"/>
   </g>
   <g id="patch_12">
    <path d="M 31.158438 186.874161 
L 67.325104 186.874161 
L 67.325104 190.516204 
L 31.158438 190.516204 
z
" clip-path="url(#p305e5da9cd)" style="fill: #696969; stroke: #ffffff; stroke-linejoin: miter"/>
   </g>
   <g id="patch_13">
    <path d="M 31.158438 206.298394 
L 53.547326 206.298394 
L 53.547326 209.940438 
L 31.158438 209.940438 
z
" clip-path="url(#p305e5da9cd)" style="fill: #696969; stroke: #ffffff; stroke-linejoin: miter"/>
   </g>
   <g id="patch_14">
    <path d="M 31.158438 225.722628 
L 31.158438 225.722628 
L 31.158438 229.364672 
L 31.158438 229.364672 
z
" clip-path="url(#p305e5da9cd)" style="fill: #696969; stroke: #ffffff; stroke-linejoin: miter"/>
   </g>
   <g id="patch_15">
    <path d="M 31.158438 245.146861 
L 63.88066 245.146861 
L 63.88066 248.788905 
L 31.158438 248.788905 
z
" clip-path="url(#p305e5da9cd)" style="fill: #696969; stroke: #ffffff; stroke-linejoin: miter"/>
   </g>
   <g id="patch_16">
    <path d="M 31.158438 264.571095 
L 48.38066 264.571095 
L 48.38066 268.213139 
L 31.158438 268.213139 
z
" clip-path="url(#p305e5da9cd)" style="fill: #696969; stroke: #ffffff; stroke-linejoin: miter"/>
   </g>
   <g id="patch_17">
    <path d="M 31.158438 283.995328 
L 55.269549 283.995328 
L 55.269549 287.637372 
L 31.158438 287.637372 
z
" clip-path="url(#p305e5da9cd)" style="fill: #696969; stroke: #ffffff; stroke-linejoin: miter"/>
   </g>
   <g id="patch_18">
    <path d="M 31.158438 303.419562 
L 46.658438 303.419562 
L 46.658438 307.061606 
L 31.158438 307.061606 
z
" clip-path="url(#p305e5da9cd)" style="fill: #696969; stroke: #ffffff; stroke-linejoin: miter"/>
   </g>
   <g id="patch_19">
    <path d="M 31.158438 322.843796 
L 31.158438 322.843796 
L 31.158438 326.485839 
L 31.158438 326.485839 
z
" clip-path="url(#p305e5da9cd)" style="fill: #696969; stroke: #ffffff; stroke-linejoin: miter"/>
   </g>
   <g id="patch_20">
    <path d="M 31.158438 342.268029 
L 46.658438 342.268029 
L 46.658438 345.910073 
L 31.158438 345.910073 
z
" clip-path="url(#p305e5da9cd)" style="fill: #696969; stroke: #ffffff; stroke-linejoin: miter"/>
   </g>
   <g id="patch_21">
    <path d="M 31.158438 361.692263 
L 31.158438 361.692263 
L 31.158438 365.334307 
L 31.158438 365.334307 
z
" clip-path="url(#p305e5da9cd)" style="fill: #696969; stroke: #ffffff; stroke-linejoin: miter"/>
   </g>
   <g id="patch_22">
    <path d="M 31.158438 381.116496 
L 34.602882 381.116496 
L 34.602882 384.75854 
L 31.158438 384.75854 
z
" clip-path="url(#p305e5da9cd)" style="fill: #696969; stroke: #ffffff; stroke-linejoin: miter"/>
   </g>
   <g id="patch_23">
    <path d="M 31.158438 400.54073 
L 55.269549 400.54073 
L 55.269549 404.182774 
L 31.158438 404.182774 
z
" clip-path="url(#p305e5da9cd)" style="fill: #696969; stroke: #ffffff; stroke-linejoin: miter"/>
   </g>
   <g id="patch_24">
    <path d="M 31.158438 419.964964 
L 63.88066 419.964964 
L 63.88066 423.607007 
L 31.158438 423.607007 
z
" clip-path="url(#p305e5da9cd)" style="fill: #696969; stroke: #ffffff; stroke-linejoin: miter"/>
   </g>
   <g id="patch_25">
    <path d="M 31.158438 439.389197 
L 53.547326 439.389197 
L 53.547326 443.031241 
L 31.158438 443.031241 
z
" clip-path="url(#p305e5da9cd)" style="fill: #696969; stroke: #ffffff; stroke-linejoin: miter"/>
   </g>
   <g id="patch_26">
    <path d="M 31.158438 458.813431 
L 50.102882 458.813431 
L 50.102882 462.455474 
L 31.158438 462.455474 
z
" clip-path="url(#p305e5da9cd)" style="fill: #696969; stroke: #ffffff; stroke-linejoin: miter"/>
   </g>
   <g id="patch_27">
    <path d="M 31.158438 478.237664 
L 67.325104 478.237664 
L 67.325104 481.879708 
L 31.158438 481.879708 
z
" clip-path="url(#p305e5da9cd)" style="fill: #696969; stroke: #ffffff; stroke-linejoin: miter"/>
   </g>
   <g id="patch_28">
    <path d="M 31.158438 497.661898 
L 56.991771 497.661898 
L 56.991771 501.303942 
L 31.158438 501.303942 
z
" clip-path="url(#p305e5da9cd)" style="fill: #696969; stroke: #ffffff; stroke-linejoin: miter"/>
   </g>
   <g id="patch_29">
    <path d="M 31.158438 517.086131 
L 41.491771 517.086131 
L 41.491771 520.728175 
L 31.158438 520.728175 
z
" clip-path="url(#p305e5da9cd)" style="fill: #696969; stroke: #ffffff; stroke-linejoin: miter"/>
   </g>
   <g id="patch_30">
    <path d="M 31.158438 536.510365 
L 31.158438 536.510365 
L 31.158438 540.152409 
L 31.158438 540.152409 
z
" clip-path="url(#p305e5da9cd)" style="fill: #696969; stroke: #ffffff; stroke-linejoin: miter"/>
   </g>
   <g id="patch_31">
    <path d="M 31.158438 555.934599 
L 44.936215 555.934599 
L 44.936215 559.576642 
L 31.158438 559.576642 
z
" clip-path="url(#p305e5da9cd)" style="fill: #696969; stroke: #ffffff; stroke-linejoin: miter"/>
   </g>
   <g id="patch_32">
    <path d="M 31.158438 575.358832 
L 48.38066 575.358832 
L 48.38066 579.000876 
L 31.158438 579.000876 
z
" clip-path="url(#p305e5da9cd)" style="fill: #696969; stroke: #ffffff; stroke-linejoin: miter"/>
   </g>
   <g id="patch_33">
    <path d="M 31.158438 594.783066 
L 67.325104 594.783066 
L 67.325104 598.425109 
L 31.158438 598.425109 
z
" clip-path="url(#p305e5da9cd)" style="fill: #696969; stroke: #ffffff; stroke-linejoin: miter"/>
   </g>
   <g id="patch_34">
    <path d="M 31.158438 614.207299 
L 32.88066 614.207299 
L 32.88066 617.849343 
L 31.158438 617.849343 
z
" clip-path="url(#p305e5da9cd)" style="fill: #696969; stroke: #ffffff; stroke-linejoin: miter"/>
   </g>
   <g id="patch_35">
    <path d="M 31.158438 633.631533 
L 31.158438 633.631533 
L 31.158438 637.273577 
L 31.158438 637.273577 
z
" clip-path="url(#p305e5da9cd)" style="fill: #696969; stroke: #ffffff; stroke-linejoin: miter"/>
   </g>
   <g id="patch_36">
    <path d="M 31.158438 653.055766 
L 63.88066 653.055766 
L 63.88066 656.69781 
L 31.158438 656.69781 
z
" clip-path="url(#p305e5da9cd)" style="fill: #696969; stroke: #ffffff; stroke-linejoin: miter"/>
   </g>
   <g id="patch_37">
    <path d="M 31.158438 15.698102 
L 31.158438 15.698102 
L 31.158438 19.340146 
L 31.158438 19.340146 
z
" clip-path="url(#p305e5da9cd)" style="fill: #d3d3d3; stroke: #ffffff; stroke-linejoin: miter"/>
   </g>
   <g id="patch_38">
    <path d="M 31.158438 35.122336 
L 31.158438 35.122336 
L 31.158438 38.76438 
L 31.158438 38.76438 
z
" clip-path="url(#p305e5da9cd)" style="fill: #d3d3d3; stroke: #ffffff; stroke-linejoin: miter"/>
   </g>
   <g id="patch_39">
    <path d="M 31.158438 54.546569 
L 56.991771 54.546569 
L 56.991771 58.188613 
L 31.158438 58.188613 
z
" clip-path="url(#p305e5da9cd)" style="fill: #d3d3d3; stroke: #ffffff; stroke-linejoin: miter"/>
   </g>
   <g id="patch_40">
    <path d="M 31.158438 73.970803 
L 32.88066 73.970803 
L 32.88066 77.612847 
L 31.158438 77.612847 
z
" clip-path="url(#p305e5da9cd)" style="fill: #d3d3d3; stroke: #ffffff; stroke-linejoin: miter"/>
   </g>
   <g id="patch_41">
    <path d="M 31.158438 93.395036 
L 31.158438 93.395036 
L 31.158438 97.03708 
L 31.158438 97.03708 
z
" clip-path="url(#p305e5da9cd)" style="fill: #d3d3d3; stroke: #ffffff; stroke-linejoin: miter"/>
   </g>
   <g id="patch_42">
    <path d="M 31.158438 112.81927 
L 58.713993 112.81927 
L 58.713993 116.461314 
L 31.158438 116.461314 
z
" clip-path="url(#p305e5da9cd)" style="fill: #d3d3d3; stroke: #ffffff; stroke-linejoin: miter"/>
   </g>
   <g id="patch_43">
    <path d="M 31.158438 132.243504 
L 31.158438 132.243504 
L 31.158438 135.885547 
L 31.158438 135.885547 
z
" clip-path="url(#p305e5da9cd)" style="fill: #d3d3d3; stroke: #ffffff; stroke-linejoin: miter"/>
   </g>
   <g id="patch_44">
    <path d="M 31.158438 151.667737 
L 55.269549 151.667737 
L 55.269549 155.309781 
L 31.158438 155.309781 
z
" clip-path="url(#p305e5da9cd)" style="fill: #d3d3d3; stroke: #ffffff; stroke-linejoin: miter"/>
   </g>
   <g id="patch_45">
    <path d="M 31.158438 171.091971 
L 75.936215 171.091971 
L 75.936215 174.734015 
L 31.158438 174.734015 
z
" clip-path="url(#p305e5da9cd)" style="fill: #d3d3d3; stroke: #ffffff; stroke-linejoin: miter"/>
   </g>
   <g id="patch_46">
    <path d="M 31.158438 190.516204 
L 63.88066 190.516204 
L 63.88066 194.158248 
L 31.158438 194.158248 
z
" clip-path="url(#p305e5da9cd)" style="fill: #d3d3d3; stroke: #ffffff; stroke-linejoin: miter"/>
   </g>
   <g id="patch_47">
    <path d="M 31.158438 209.940438 
L 79.38066 209.940438 
L 79.38066 213.582482 
L 31.158438 213.582482 
z
" clip-path="url(#p305e5da9cd)" style="fill: #d3d3d3; stroke: #ffffff; stroke-linejoin: miter"/>
   </g>
   <g id="patch_48">
    <path d="M 31.158438 229.364672 
L 32.88066 229.364672 
L 32.88066 233.006715 
L 31.158438 233.006715 
z
" clip-path="url(#p305e5da9cd)" style="fill: #d3d3d3; stroke: #ffffff; stroke-linejoin: miter"/>
   </g>
   <g id="patch_49">
    <path d="M 31.158438 248.788905 
L 67.325104 248.788905 
L 67.325104 252.430949 
L 31.158438 252.430949 
z
" clip-path="url(#p305e5da9cd)" style="fill: #d3d3d3; stroke: #ffffff; stroke-linejoin: miter"/>
   </g>
   <g id="patch_50">
    <path d="M 31.158438 268.213139 
L 55.269549 268.213139 
L 55.269549 271.855182 
L 31.158438 271.855182 
z
" clip-path="url(#p305e5da9cd)" style="fill: #d3d3d3; stroke: #ffffff; stroke-linejoin: miter"/>
   </g>
   <g id="patch_51">
    <path d="M 31.158438 287.637372 
L 41.491771 287.637372 
L 41.491771 291.279416 
L 31.158438 291.279416 
z
" clip-path="url(#p305e5da9cd)" style="fill: #d3d3d3; stroke: #ffffff; stroke-linejoin: miter"/>
   </g>
   <g id="patch_52">
    <path d="M 31.158438 307.061606 
L 65.602882 307.061606 
L 65.602882 310.70365 
L 31.158438 310.70365 
z
" clip-path="url(#p305e5da9cd)" style="fill: #d3d3d3; stroke: #ffffff; stroke-linejoin: miter"/>
   </g>
   <g id="patch_53">
    <path d="M 31.158438 326.485839 
L 31.158438 326.485839 
L 31.158438 330.127883 
L 31.158438 330.127883 
z
" clip-path="url(#p305e5da9cd)" style="fill: #d3d3d3; stroke: #ffffff; stroke-linejoin: miter"/>
   </g>
   <g id="patch_54">
    <path d="M 31.158438 345.910073 
L 56.991771 345.910073 
L 56.991771 349.552117 
L 31.158438 349.552117 
z
" clip-path="url(#p305e5da9cd)" style="fill: #d3d3d3; stroke: #ffffff; stroke-linejoin: miter"/>
   </g>
   <g id="patch_55">
    <path d="M 31.158438 365.334307 
L 31.158438 365.334307 
L 31.158438 368.97635 
L 31.158438 368.97635 
z
" clip-path="url(#p305e5da9cd)" style="fill: #d3d3d3; stroke: #ffffff; stroke-linejoin: miter"/>
   </g>
   <g id="patch_56">
    <path d="M 31.158438 384.75854 
L 39.769549 384.75854 
L 39.769549 388.400584 
L 31.158438 388.400584 
z
" clip-path="url(#p305e5da9cd)" style="fill: #d3d3d3; stroke: #ffffff; stroke-linejoin: miter"/>
   </g>
   <g id="patch_57">
    <path d="M 31.158438 404.182774 
L 70.769549 404.182774 
L 70.769549 407.824818 
L 31.158438 407.824818 
z
" clip-path="url(#p305e5da9cd)" style="fill: #d3d3d3; stroke: #ffffff; stroke-linejoin: miter"/>
   </g>
   <g id="patch_58">
    <path d="M 31.158438 423.607007 
L 70.769549 423.607007 
L 70.769549 427.249051 
L 31.158438 427.249051 
z
" clip-path="url(#p305e5da9cd)" style="fill: #d3d3d3; stroke: #ffffff; stroke-linejoin: miter"/>
   </g>
   <g id="patch_59">
    <path d="M 31.158438 443.031241 
L 51.825104 443.031241 
L 51.825104 446.673285 
L 31.158438 446.673285 
z
" clip-path="url(#p305e5da9cd)" style="fill: #d3d3d3; stroke: #ffffff; stroke-linejoin: miter"/>
   </g>
   <g id="patch_60">
    <path d="M 31.158438 462.455474 
L 62.158438 462.455474 
L 62.158438 466.097518 
L 31.158438 466.097518 
z
" clip-path="url(#p305e5da9cd)" style="fill: #d3d3d3; stroke: #ffffff; stroke-linejoin: miter"/>
   </g>
   <g id="patch_61">
    <path d="M 31.158438 481.879708 
L 63.88066 481.879708 
L 63.88066 485.521752 
L 31.158438 485.521752 
z
" clip-path="url(#p305e5da9cd)" style="fill: #d3d3d3; stroke: #ffffff; stroke-linejoin: miter"/>
   </g>
   <g id="patch_62">
    <path d="M 31.158438 501.303942 
L 56.991771 501.303942 
L 56.991771 504.945985 
L 31.158438 504.945985 
z
" clip-path="url(#p305e5da9cd)" style="fill: #d3d3d3; stroke: #ffffff; stroke-linejoin: miter"/>
   </g>
   <g id="patch_63">
    <path d="M 31.158438 520.728175 
L 50.102882 520.728175 
L 50.102882 524.370219 
L 31.158438 524.370219 
z
" clip-path="url(#p305e5da9cd)" style="fill: #d3d3d3; stroke: #ffffff; stroke-linejoin: miter"/>
   </g>
   <g id="patch_64">
    <path d="M 31.158438 540.152409 
L 31.158438 540.152409 
L 31.158438 543.794453 
L 31.158438 543.794453 
z
" clip-path="url(#p305e5da9cd)" style="fill: #d3d3d3; stroke: #ffffff; stroke-linejoin: miter"/>
   </g>
   <g id="patch_65">
    <path d="M 31.158438 559.576642 
L 53.547326 559.576642 
L 53.547326 563.218686 
L 31.158438 563.218686 
z
" clip-path="url(#p305e5da9cd)" style="fill: #d3d3d3; stroke: #ffffff; stroke-linejoin: miter"/>
   </g>
   <g id="patch_66">
    <path d="M 31.158438 579.000876 
L 62.158438 579.000876 
L 62.158438 582.64292 
L 31.158438 582.64292 
z
" clip-path="url(#p305e5da9cd)" style="fill: #d3d3d3; stroke: #ffffff; stroke-linejoin: miter"/>
   </g>
   <g id="patch_67">
    <path d="M 31.158438 598.425109 
L 67.325104 598.425109 
L 67.325104 602.067153 
L 31.158438 602.067153 
z
" clip-path="url(#p305e5da9cd)" style="fill: #d3d3d3; stroke: #ffffff; stroke-linejoin: miter"/>
   </g>
   <g id="patch_68">
    <path d="M 31.158438 617.849343 
L 56.991771 617.849343 
L 56.991771 621.491387 
L 31.158438 621.491387 
z
" clip-path="url(#p305e5da9cd)" style="fill: #d3d3d3; stroke: #ffffff; stroke-linejoin: miter"/>
   </g>
   <g id="patch_69">
    <path d="M 31.158438 637.273577 
L 31.158438 637.273577 
L 31.158438 640.91562 
L 31.158438 640.91562 
z
" clip-path="url(#p305e5da9cd)" style="fill: #d3d3d3; stroke: #ffffff; stroke-linejoin: miter"/>
   </g>
   <g id="patch_70">
    <path d="M 31.158438 656.69781 
L 60.436215 656.69781 
L 60.436215 660.339854 
L 31.158438 660.339854 
z
" clip-path="url(#p305e5da9cd)" style="fill: #d3d3d3; stroke: #ffffff; stroke-linejoin: miter"/>
   </g>
   <g id="patch_71">
    <path d="M 31.158438 19.340146 
L 31.158438 19.340146 
L 31.158438 22.98219 
L 31.158438 22.98219 
z
" clip-path="url(#p305e5da9cd)" style="fill: #0000cd; stroke: #ffffff; stroke-linejoin: miter"/>
   </g>
   <g id="patch_72">
    <path d="M 31.158438 38.76438 
L 31.158438 38.76438 
L 31.158438 42.406423 
L 31.158438 42.406423 
z
" clip-path="url(#p305e5da9cd)" style="fill: #0000cd; stroke: #ffffff; stroke-linejoin: miter"/>
   </g>
   <g id="patch_73">
    <path d="M 31.158438 58.188613 
L 56.143512 58.188613 
L 56.143512 61.830657 
L 31.158438 61.830657 
z
" clip-path="url(#p305e5da9cd)" style="fill: #0000cd; stroke: #ffffff; stroke-linejoin: miter"/>
   </g>
   <g id="patch_74">
    <path d="M 31.158438 77.612847 
L 43.650975 77.612847 
L 43.650975 81.254891 
L 31.158438 81.254891 
z
" clip-path="url(#p305e5da9cd)" style="fill: #0000cd; stroke: #ffffff; stroke-linejoin: miter"/>
   </g>
   <g id="patch_75">
    <path d="M 31.158438 97.03708 
L 31.158438 97.03708 
L 31.158438 100.679124 
L 31.158438 100.679124 
z
" clip-path="url(#p305e5da9cd)" style="fill: #0000cd; stroke: #ffffff; stroke-linejoin: miter"/>
   </g>
   <g id="patch_76">
    <path d="M 31.158438 116.461314 
L 68.636049 116.461314 
L 68.636049 120.103358 
L 31.158438 120.103358 
z
" clip-path="url(#p305e5da9cd)" style="fill: #0000cd; stroke: #ffffff; stroke-linejoin: miter"/>
   </g>
   <g id="patch_77">
    <path d="M 31.158438 135.885547 
L 31.158438 135.885547 
L 31.158438 139.527591 
L 31.158438 139.527591 
z
" clip-path="url(#p305e5da9cd)" style="fill: #0000cd; stroke: #ffffff; stroke-linejoin: miter"/>
   </g>
   <g id="patch_78">
    <path d="M 31.158438 155.309781 
L 56.143512 155.309781 
L 56.143512 158.951825 
L 31.158438 158.951825 
z
" clip-path="url(#p305e5da9cd)" style="fill: #0000cd; stroke: #ffffff; stroke-linejoin: miter"/>
   </g>
   <g id="patch_79">
    <path d="M 31.158438 174.734015 
L 131.098736 174.734015 
L 131.098736 178.376058 
L 31.158438 178.376058 
z
" clip-path="url(#p305e5da9cd)" style="fill: #0000cd; stroke: #ffffff; stroke-linejoin: miter"/>
   </g>
   <g id="patch_80">
    <path d="M 31.158438 194.158248 
L 68.636049 194.158248 
L 68.636049 197.800292 
L 31.158438 197.800292 
z
" clip-path="url(#p305e5da9cd)" style="fill: #0000cd; stroke: #ffffff; stroke-linejoin: miter"/>
   </g>
   <g id="patch_81">
    <path d="M 31.158438 213.582482 
L 68.636049 213.582482 
L 68.636049 217.224526 
L 31.158438 217.224526 
z
" clip-path="url(#p305e5da9cd)" style="fill: #0000cd; stroke: #ffffff; stroke-linejoin: miter"/>
   </g>
   <g id="patch_82">
    <path d="M 31.158438 233.006715 
L 43.650975 233.006715 
L 43.650975 236.648759 
L 31.158438 236.648759 
z
" clip-path="url(#p305e5da9cd)" style="fill: #0000cd; stroke: #ffffff; stroke-linejoin: miter"/>
   </g>
   <g id="patch_83">
    <path d="M 31.158438 252.430949 
L 118.606199 252.430949 
L 118.606199 256.072993 
L 31.158438 256.072993 
z
" clip-path="url(#p305e5da9cd)" style="fill: #0000cd; stroke: #ffffff; stroke-linejoin: miter"/>
   </g>
   <g id="patch_84">
    <path d="M 31.158438 271.855182 
L 68.636049 271.855182 
L 68.636049 275.497226 
L 31.158438 275.497226 
z
" clip-path="url(#p305e5da9cd)" style="fill: #0000cd; stroke: #ffffff; stroke-linejoin: miter"/>
   </g>
   <g id="patch_85">
    <path d="M 31.158438 291.279416 
L 81.128587 291.279416 
L 81.128587 294.92146 
L 31.158438 294.92146 
z
" clip-path="url(#p305e5da9cd)" style="fill: #0000cd; stroke: #ffffff; stroke-linejoin: miter"/>
   </g>
   <g id="patch_86">
    <path d="M 31.158438 310.70365 
L 56.143512 310.70365 
L 56.143512 314.345693 
L 31.158438 314.345693 
z
" clip-path="url(#p305e5da9cd)" style="fill: #0000cd; stroke: #ffffff; stroke-linejoin: miter"/>
   </g>
   <g id="patch_87">
    <path d="M 31.158438 330.127883 
L 31.158438 330.127883 
L 31.158438 333.769927 
L 31.158438 333.769927 
z
" clip-path="url(#p305e5da9cd)" style="fill: #0000cd; stroke: #ffffff; stroke-linejoin: miter"/>
   </g>
   <g id="patch_88">
    <path d="M 31.158438 349.552117 
L 81.128587 349.552117 
L 81.128587 353.194161 
L 31.158438 353.194161 
z
" clip-path="url(#p305e5da9cd)" style="fill: #0000cd; stroke: #ffffff; stroke-linejoin: miter"/>
   </g>
   <g id="patch_89">
    <path d="M 31.158438 368.97635 
L 31.158438 368.97635 
L 31.158438 372.618394 
L 31.158438 372.618394 
z
" clip-path="url(#p305e5da9cd)" style="fill: #0000cd; stroke: #ffffff; stroke-linejoin: miter"/>
   </g>
   <g id="patch_90">
    <path d="M 31.158438 388.400584 
L 43.650975 388.400584 
L 43.650975 392.042628 
L 31.158438 392.042628 
z
" clip-path="url(#p305e5da9cd)" style="fill: #0000cd; stroke: #ffffff; stroke-linejoin: miter"/>
   </g>
   <g id="patch_91">
    <path d="M 31.158438 407.824818 
L 68.636049 407.824818 
L 68.636049 411.466861 
L 31.158438 411.466861 
z
" clip-path="url(#p305e5da9cd)" style="fill: #0000cd; stroke: #ffffff; stroke-linejoin: miter"/>
   </g>
   <g id="patch_92">
    <path d="M 31.158438 427.249051 
L 81.128587 427.249051 
L 81.128587 430.891095 
L 31.158438 430.891095 
z
" clip-path="url(#p305e5da9cd)" style="fill: #0000cd; stroke: #ffffff; stroke-linejoin: miter"/>
   </g>
   <g id="patch_93">
    <path d="M 31.158438 446.673285 
L 68.636049 446.673285 
L 68.636049 450.315328 
L 31.158438 450.315328 
z
" clip-path="url(#p305e5da9cd)" style="fill: #0000cd; stroke: #ffffff; stroke-linejoin: miter"/>
   </g>
   <g id="patch_94">
    <path d="M 31.158438 466.097518 
L 56.143512 466.097518 
L 56.143512 469.739562 
L 31.158438 469.739562 
z
" clip-path="url(#p305e5da9cd)" style="fill: #0000cd; stroke: #ffffff; stroke-linejoin: miter"/>
   </g>
   <g id="patch_95">
    <path d="M 31.158438 485.521752 
L 181.068885 485.521752 
L 181.068885 489.163796 
L 31.158438 489.163796 
z
" clip-path="url(#p305e5da9cd)" style="fill: #0000cd; stroke: #ffffff; stroke-linejoin: miter"/>
   </g>
   <g id="patch_96">
    <path d="M 31.158438 504.945985 
L 56.143512 504.945985 
L 56.143512 508.588029 
L 31.158438 508.588029 
z
" clip-path="url(#p305e5da9cd)" style="fill: #0000cd; stroke: #ffffff; stroke-linejoin: miter"/>
   </g>
   <g id="patch_97">
    <path d="M 31.158438 524.370219 
L 56.143512 524.370219 
L 56.143512 528.012263 
L 31.158438 528.012263 
z
" clip-path="url(#p305e5da9cd)" style="fill: #0000cd; stroke: #ffffff; stroke-linejoin: miter"/>
   </g>
   <g id="patch_98">
    <path d="M 31.158438 543.794453 
L 31.158438 543.794453 
L 31.158438 547.436496 
L 31.158438 547.436496 
z
" clip-path="url(#p305e5da9cd)" style="fill: #0000cd; stroke: #ffffff; stroke-linejoin: miter"/>
   </g>
   <g id="patch_99">
    <path d="M 31.158438 563.218686 
L 68.636049 563.218686 
L 68.636049 566.86073 
L 31.158438 566.86073 
z
" clip-path="url(#p305e5da9cd)" style="fill: #0000cd; stroke: #ffffff; stroke-linejoin: miter"/>
   </g>
   <g id="patch_100">
    <path d="M 31.158438 582.64292 
L 43.650975 582.64292 
L 43.650975 586.284964 
L 31.158438 586.284964 
z
" clip-path="url(#p305e5da9cd)" style="fill: #0000cd; stroke: #ffffff; stroke-linejoin: miter"/>
   </g>
   <g id="patch_101">
    <path d="M 31.158438 602.067153 
L 81.128587 602.067153 
L 81.128587 605.709197 
L 31.158438 605.709197 
z
" clip-path="url(#p305e5da9cd)" style="fill: #0000cd; stroke: #ffffff; stroke-linejoin: miter"/>
   </g>
   <g id="patch_102">
    <path d="M 31.158438 621.491387 
L 43.650975 621.491387 
L 43.650975 625.133431 
L 31.158438 625.133431 
z
" clip-path="url(#p305e5da9cd)" style="fill: #0000cd; stroke: #ffffff; stroke-linejoin: miter"/>
   </g>
   <g id="patch_103">
    <path d="M 31.158438 640.91562 
L 31.158438 640.91562 
L 31.158438 644.557664 
L 31.158438 644.557664 
z
" clip-path="url(#p305e5da9cd)" style="fill: #0000cd; stroke: #ffffff; stroke-linejoin: miter"/>
   </g>
   <g id="patch_104">
    <path d="M 31.158438 660.339854 
L 106.113661 660.339854 
L 106.113661 663.981898 
L 31.158438 663.981898 
z
" clip-path="url(#p305e5da9cd)" style="fill: #0000cd; stroke: #ffffff; stroke-linejoin: miter"/>
   </g>
   <g id="patch_105">
    <path d="M 31.158438 22.98219 
L 31.158438 22.98219 
L 31.158438 26.624234 
L 31.158438 26.624234 
z
" clip-path="url(#p305e5da9cd)" style="fill: #ff0000; stroke: #ffffff; stroke-linejoin: miter"/>
   </g>
   <g id="patch_106">
    <path d="M 31.158438 42.406423 
L 31.158438 42.406423 
L 31.158438 46.048467 
L 31.158438 46.048467 
z
" clip-path="url(#p305e5da9cd)" style="fill: #ff0000; stroke: #ffffff; stroke-linejoin: miter"/>
   </g>
   <g id="patch_107">
    <path d="M 31.158438 61.830657 
L 56.143512 61.830657 
L 56.143512 65.472701 
L 31.158438 65.472701 
z
" clip-path="url(#p305e5da9cd)" style="fill: #ff0000; stroke: #ffffff; stroke-linejoin: miter"/>
   </g>
   <g id="patch_108">
    <path d="M 31.158438 81.254891 
L 31.158438 81.254891 
L 31.158438 84.896934 
L 31.158438 84.896934 
z
" clip-path="url(#p305e5da9cd)" style="fill: #ff0000; stroke: #ffffff; stroke-linejoin: miter"/>
   </g>
   <g id="patch_109">
    <path d="M 31.158438 100.679124 
L 31.158438 100.679124 
L 31.158438 104.321168 
L 31.158438 104.321168 
z
" clip-path="url(#p305e5da9cd)" style="fill: #ff0000; stroke: #ffffff; stroke-linejoin: miter"/>
   </g>
   <g id="patch_110">
    <path d="M 31.158438 120.103358 
L 43.650975 120.103358 
L 43.650975 123.745401 
L 31.158438 123.745401 
z
" clip-path="url(#p305e5da9cd)" style="fill: #ff0000; stroke: #ffffff; stroke-linejoin: miter"/>
   </g>
   <g id="patch_111">
    <path d="M 31.158438 139.527591 
L 31.158438 139.527591 
L 31.158438 143.169635 
L 31.158438 143.169635 
z
" clip-path="url(#p305e5da9cd)" style="fill: #ff0000; stroke: #ffffff; stroke-linejoin: miter"/>
   </g>
   <g id="patch_112">
    <path d="M 31.158438 158.951825 
L 43.650975 158.951825 
L 43.650975 162.593869 
L 31.158438 162.593869 
z
" clip-path="url(#p305e5da9cd)" style="fill: #ff0000; stroke: #ffffff; stroke-linejoin: miter"/>
   </g>
   <g id="patch_113">
    <path d="M 31.158438 178.376058 
L 56.143512 178.376058 
L 56.143512 182.018102 
L 31.158438 182.018102 
z
" clip-path="url(#p305e5da9cd)" style="fill: #ff0000; stroke: #ffffff; stroke-linejoin: miter"/>
   </g>
   <g id="patch_114">
    <path d="M 31.158438 197.800292 
L 56.143512 197.800292 
L 56.143512 201.442336 
L 31.158438 201.442336 
z
" clip-path="url(#p305e5da9cd)" style="fill: #ff0000; stroke: #ffffff; stroke-linejoin: miter"/>
   </g>
   <g id="patch_115">
    <path d="M 31.158438 217.224526 
L 31.158438 217.224526 
L 31.158438 220.866569 
L 31.158438 220.866569 
z
" clip-path="url(#p305e5da9cd)" style="fill: #ff0000; stroke: #ffffff; stroke-linejoin: miter"/>
   </g>
   <g id="patch_116">
    <path d="M 31.158438 236.648759 
L 31.158438 236.648759 
L 31.158438 240.290803 
L 31.158438 240.290803 
z
" clip-path="url(#p305e5da9cd)" style="fill: #ff0000; stroke: #ffffff; stroke-linejoin: miter"/>
   </g>
   <g id="patch_117">
    <path d="M 31.158438 256.072993 
L 56.143512 256.072993 
L 56.143512 259.715036 
L 31.158438 259.715036 
z
" clip-path="url(#p305e5da9cd)" style="fill: #ff0000; stroke: #ffffff; stroke-linejoin: miter"/>
   </g>
   <g id="patch_118">
    <path d="M 31.158438 275.497226 
L 31.158438 275.497226 
L 31.158438 279.13927 
L 31.158438 279.13927 
z
" clip-path="url(#p305e5da9cd)" style="fill: #ff0000; stroke: #ffffff; stroke-linejoin: miter"/>
   </g>
   <g id="patch_119">
    <path d="M 31.158438 294.92146 
L 68.636049 294.92146 
L 68.636049 298.563504 
L 31.158438 298.563504 
z
" clip-path="url(#p305e5da9cd)" style="fill: #ff0000; stroke: #ffffff; stroke-linejoin: miter"/>
   </g>
   <g id="patch_120">
    <path d="M 31.158438 314.345693 
L 93.621124 314.345693 
L 93.621124 317.987737 
L 31.158438 317.987737 
z
" clip-path="url(#p305e5da9cd)" style="fill: #ff0000; stroke: #ffffff; stroke-linejoin: miter"/>
   </g>
   <g id="patch_121">
    <path d="M 31.158438 333.769927 
L 31.158438 333.769927 
L 31.158438 337.411971 
L 31.158438 337.411971 
z
" clip-path="url(#p305e5da9cd)" style="fill: #ff0000; stroke: #ffffff; stroke-linejoin: miter"/>
   </g>
   <g id="patch_122">
    <path d="M 31.158438 353.194161 
L 43.650975 353.194161 
L 43.650975 356.836204 
L 31.158438 356.836204 
z
" clip-path="url(#p305e5da9cd)" style="fill: #ff0000; stroke: #ffffff; stroke-linejoin: miter"/>
   </g>
   <g id="patch_123">
    <path d="M 31.158438 372.618394 
L 31.158438 372.618394 
L 31.158438 376.260438 
L 31.158438 376.260438 
z
" clip-path="url(#p305e5da9cd)" style="fill: #ff0000; stroke: #ffffff; stroke-linejoin: miter"/>
   </g>
   <g id="patch_124">
    <path d="M 31.158438 392.042628 
L 31.158438 392.042628 
L 31.158438 395.684672 
L 31.158438 395.684672 
z
" clip-path="url(#p305e5da9cd)" style="fill: #ff0000; stroke: #ffffff; stroke-linejoin: miter"/>
   </g>
   <g id="patch_125">
    <path d="M 31.158438 411.466861 
L 93.621124 411.466861 
L 93.621124 415.108905 
L 31.158438 415.108905 
z
" clip-path="url(#p305e5da9cd)" style="fill: #ff0000; stroke: #ffffff; stroke-linejoin: miter"/>
   </g>
   <g id="patch_126">
    <path d="M 31.158438 430.891095 
L 56.143512 430.891095 
L 56.143512 434.533139 
L 31.158438 434.533139 
z
" clip-path="url(#p305e5da9cd)" style="fill: #ff0000; stroke: #ffffff; stroke-linejoin: miter"/>
   </g>
   <g id="patch_127">
    <path d="M 31.158438 450.315328 
L 56.143512 450.315328 
L 56.143512 453.957372 
L 31.158438 453.957372 
z
" clip-path="url(#p305e5da9cd)" style="fill: #ff0000; stroke: #ffffff; stroke-linejoin: miter"/>
   </g>
   <g id="patch_128">
    <path d="M 31.158438 469.739562 
L 43.650975 469.739562 
L 43.650975 473.381606 
L 31.158438 473.381606 
z
" clip-path="url(#p305e5da9cd)" style="fill: #ff0000; stroke: #ffffff; stroke-linejoin: miter"/>
   </g>
   <g id="patch_129">
    <path d="M 31.158438 489.163796 
L 43.650975 489.163796 
L 43.650975 492.805839 
L 31.158438 492.805839 
z
" clip-path="url(#p305e5da9cd)" style="fill: #ff0000; stroke: #ffffff; stroke-linejoin: miter"/>
   </g>
   <g id="patch_130">
    <path d="M 31.158438 508.588029 
L 81.128587 508.588029 
L 81.128587 512.230073 
L 31.158438 512.230073 
z
" clip-path="url(#p305e5da9cd)" style="fill: #ff0000; stroke: #ffffff; stroke-linejoin: miter"/>
   </g>
   <g id="patch_131">
    <path d="M 31.158438 528.012263 
L 31.158438 528.012263 
L 31.158438 531.654307 
L 31.158438 531.654307 
z
" clip-path="url(#p305e5da9cd)" style="fill: #ff0000; stroke: #ffffff; stroke-linejoin: miter"/>
   </g>
   <g id="patch_132">
    <path d="M 31.158438 547.436496 
L 31.158438 547.436496 
L 31.158438 551.07854 
L 31.158438 551.07854 
z
" clip-path="url(#p305e5da9cd)" style="fill: #ff0000; stroke: #ffffff; stroke-linejoin: miter"/>
   </g>
   <g id="patch_133">
    <path d="M 31.158438 566.86073 
L 31.158438 566.86073 
L 31.158438 570.502774 
L 31.158438 570.502774 
z
" clip-path="url(#p305e5da9cd)" style="fill: #ff0000; stroke: #ffffff; stroke-linejoin: miter"/>
   </g>
   <g id="patch_134">
    <path d="M 31.158438 586.284964 
L 43.650975 586.284964 
L 43.650975 589.927007 
L 31.158438 589.927007 
z
" clip-path="url(#p305e5da9cd)" style="fill: #ff0000; stroke: #ffffff; stroke-linejoin: miter"/>
   </g>
   <g id="patch_135">
    <path d="M 31.158438 605.709197 
L 56.143512 605.709197 
L 56.143512 609.351241 
L 31.158438 609.351241 
z
" clip-path="url(#p305e5da9cd)" style="fill: #ff0000; stroke: #ffffff; stroke-linejoin: miter"/>
   </g>
   <g id="patch_136">
    <path d="M 31.158438 625.133431 
L 56.143512 625.133431 
L 56.143512 628.775474 
L 31.158438 628.775474 
z
" clip-path="url(#p305e5da9cd)" style="fill: #ff0000; stroke: #ffffff; stroke-linejoin: miter"/>
   </g>
   <g id="patch_137">
    <path d="M 31.158438 644.557664 
L 31.158438 644.557664 
L 31.158438 648.199708 
L 31.158438 648.199708 
z
" clip-path="url(#p305e5da9cd)" style="fill: #ff0000; stroke: #ffffff; stroke-linejoin: miter"/>
   </g>
   <g id="patch_138">
    <path d="M 31.158438 663.981898 
L 56.143512 663.981898 
L 56.143512 667.623942 
L 31.158438 667.623942 
z
" clip-path="url(#p305e5da9cd)" style="fill: #ff0000; stroke: #ffffff; stroke-linejoin: miter"/>
   </g>
   <g id="patch_139">
    <path d="M 31.158438 672.48 
L 31.158438 7.2 
" style="fill: none; stroke: #262626; stroke-width: 1.25; stroke-linejoin: miter; stroke-linecap: square"/>
   </g>
   <g id="patch_140">
    <path d="M 31.158438 672.48 
L 198.558438 672.48 
" style="fill: none; stroke: #262626; stroke-width: 1.25; stroke-linejoin: miter; stroke-linecap: square"/>
   </g>
  </g>
 </g>
 <defs>
  <clipPath id="p305e5da9cd">
   <rect x="31.158438" y="7.2" width="167.4" height="665.28"/>
  </clipPath>
 </defs>
</svg>
