<?xml version="1.0" encoding="utf-8" standalone="no"?>
<!DOCTYPE svg PUBLIC "-//W3C//DTD SVG 1.1//EN"
  "http://www.w3.org/Graphics/SVG/1.1/DTD/svg11.dtd">
<svg xmlns:xlink="http://www.w3.org/1999/xlink" width="260.163437pt" height="258.463437pt" viewBox="0 0 260.163437 258.463437" xmlns="http://www.w3.org/2000/svg" version="1.1">
 <metadata>
  <rdf:RDF xmlns:dc="http://purl.org/dc/elements/1.1/" xmlns:cc="http://creativecommons.org/ns#" xmlns:rdf="http://www.w3.org/1999/02/22-rdf-syntax-ns#">
   <cc:Work>
    <dc:type rdf:resource="http://purl.org/dc/dcmitype/StillImage"/>
    <dc:date>2026-02-26T13:58:42.746528</dc:date>
    <dc:format>image/svg+xml</dc:format>
    <dc:creator>
     <cc:Agent>
      <dc:title>Matplotlib v3.9.2, https://matplotlib.org/</dc:title>
     </cc:Agent>
    </dc:creator>
   </cc:Work>
  </rdf:RDF>
 </metadata>
 <defs>
  <style type="text/css">*{stroke-linejoin: round; stroke-linecap: butt}</style>
 </defs>
 <g id="figure_1">
  <g id="patch_1">
   <path d="M 0 258.463437 
L 260.163437 258.463437 
L 260.163437 0 
L 0 0 
z
" style="fill: #ffffff"/>
  </g>
  <g id="axes_1">
   <g id="patch_2">
    <path d="M 85.563438 228.96 
L 252.963437 228.96 
L 252.963437 7.2 
L 85.563438 7.2 
z
" style="fill: #ffffff"/>
   </g>
   <g id="matplotlib.axis_1">
    <g id="xtick_1">
     <g id="text_1">
      <!-- Full-term -->
      <g style="fill: #262626" transform="translate(99.382273 248.480937) scale(0.14 -0.14)">
       <defs>
        <path id="ArialMT-46" d="M 525 0 
L 525 4581 
L 3616 4581 
L 3616 4041 
L 1131 4041 
L 1131 2622 
L 3281 2622 
L 3281 2081 
L 1131 2081 
L 1131 0 
L 525 0 
z
" transform="scale(0.015625)"/>
        <path id="ArialMT-75" d="M 2597 0 
L 2597 488 
Q 2209 -75 1544 -75 
Q 1250 -75 995 37 
Q 741 150 617 320 
Q 494 491 444 738 
Q 409 903 409 1263 
L 409 3319 
L 972 3319 
L 972 1478 
Q 972 1038 1006 884 
Q 1059 663 1231 536 
Q 1403 409 1656 409 
Q 1909 409 2131 539 
Q 2353 669 2445 892 
Q 2538 1116 2538 1541 
L 2538 3319 
L 3100 3319 
L 3100 0 
L 2597 0 
z
" transform="scale(0.015625)"/>
        <path id="ArialMT-6c" d="M 409 0 
L 409 4581 
L 972 4581 
L 972 0 
L 409 0 
z
" transform="scale(0.015625)"/>
        <path id="ArialMT-2d" d="M 203 1375 
L 203 1941 
L 1931 1941 
L 1931 1375 
L 203 1375 
z
" transform="scale(0.015625)"/>
        <path id="ArialMT-74" d="M 1650 503 
L 1731 6 
Q 1494 -44 1306 -44 
Q 1000 -44 831 53 
Q 663 150 594 308 
Q 525 466 525 972 
L 525 2881 
L 113 2881 
L 113 3319 
L 525 3319 
L 525 4141 
L 1084 4478 
L 1084 3319 
L 1650 3319 
L 1650 2881 
L 1084 2881 
L 1084 941 
Q 1084 700 1114 631 
Q 1144 563 1211 522 
Q 1278 481 1403 481 
Q 1497 481 1650 503 
z
" transform="scale(0.015625)"/>
        <path id="ArialMT-65" d="M 2694 1069 
L 3275 997 
Q 3138 488 2766 206 
Q 2394 -75 1816 -75 
Q 1088 -75 661 373 
Q 234 822 234 1631 
Q 234 2469 665 2931 
Q 1097 3394 1784 3394 
Q 2450 3394 2872 2941 
Q 3294 2488 3294 1666 
Q 3294 1616 3291 1516 
L 816 1516 
Q 847 969 1125 678 
Q 1403 388 1819 388 
Q 2128 388 2347 550 
Q 2566 713 2694 1069 
z
M 847 1978 
L 2700 1978 
Q 2663 2397 2488 2606 
Q 2219 2931 1791 2931 
Q 1403 2931 1139 2672 
Q 875 2413 847 1978 
z
" transform="scale(0.015625)"/>
        <path id="ArialMT-72" d="M 416 0 
L 416 3319 
L 922 3319 
L 922 2816 
Q 1116 3169 1280 3281 
Q 1444 3394 1641 3394 
Q 1925 3394 2219 3213 
L 2025 2691 
Q 1819 2813 1613 2813 
Q 1428 2813 1281 2702 
Q 1134 2591 1072 2394 
Q 978 2094 978 1738 
L 978 0 
L 416 0 
z
" transform="scale(0.015625)"/>
        <path id="ArialMT-6d" d="M 422 0 
L 422 3319 
L 925 3319 
L 925 2853 
Q 1081 3097 1340 3245 
Q 1600 3394 1931 3394 
Q 2300 3394 2536 3241 
Q 2772 3088 2869 2813 
Q 3263 3394 3894 3394 
Q 4388 3394 4653 3120 
Q 4919 2847 4919 2278 
L 4919 0 
L 4359 0 
L 4359 2091 
Q 4359 2428 4304 2576 
Q 4250 2725 4106 2815 
Q 3963 2906 3769 2906 
Q 3419 2906 3187 2673 
Q 2956 2441 2956 1928 
L 2956 0 
L 2394 0 
L 2394 2156 
Q 2394 2531 2256 2718 
Q 2119 2906 1806 2906 
Q 1569 2906 1367 2781 
Q 1166 2656 1075 2415 
Q 984 2175 984 1722 
L 984 0 
L 422 0 
z
" transform="scale(0.015625)"/>
       </defs>
       <use xlink:href="#ArialMT-46"/>
       <use xlink:href="#ArialMT-75" x="61.083984"/>
       <use xlink:href="#ArialMT-6c" x="116.699219"/>
       <use xlink:href="#ArialMT-6c" x="138.916016"/>
       <use xlink:href="#ArialMT-2d" x="161.132812"/>
       <use xlink:href="#ArialMT-74" x="194.433594"/>
       <use xlink:href="#ArialMT-65" x="222.216797"/>
       <use xlink:href="#ArialMT-72" x="277.832031"/>
       <use xlink:href="#ArialMT-6d" x="311.132812"/>
      </g>
     </g>
    </g>
    <g id="xtick_2">
     <g id="text_2">
      <!-- Preterm -->
      <g style="fill: #262626" transform="translate(186.644602 248.480937) scale(0.14 -0.14)">
       <defs>
        <path id="ArialMT-50" d="M 494 0 
L 494 4581 
L 2222 4581 
Q 2678 4581 2919 4538 
Q 3256 4481 3484 4323 
Q 3713 4166 3852 3881 
Q 3991 3597 3991 3256 
Q 3991 2672 3619 2267 
Q 3247 1863 2275 1863 
L 1100 1863 
L 1100 0 
L 494 0 
z
M 1100 2403 
L 2284 2403 
Q 2872 2403 3119 2622 
Q 3366 2841 3366 3238 
Q 3366 3525 3220 3729 
Q 3075 3934 2838 4000 
Q 2684 4041 2272 4041 
L 1100 4041 
L 1100 2403 
z
" transform="scale(0.015625)"/>
       </defs>
       <use xlink:href="#ArialMT-50"/>
       <use xlink:href="#ArialMT-72" x="66.699219"/>
       <use xlink:href="#ArialMT-65" x="100"/>
       <use xlink:href="#ArialMT-74" x="155.615234"/>
       <use xlink:href="#ArialMT-65" x="183.398438"/>
       <use xlink:href="#ArialMT-72" x="239.013672"/>
       <use xlink:href="#ArialMT-6d" x="272.314453"/>
      </g>
     </g>
    </g>
   </g>
   <g id="matplotlib.axis_2">
    <g id="ytick_1">
     <g id="text_3">
      <!-- −20000 -->
      <g style="fill: #262626" transform="translate(28.96 212.909598) scale(0.14 -0.14)">
       <defs>
        <path id="ArialMT-2212" d="M 3381 1997 
L 356 1997 
L 356 2522 
L 3381 2522 
L 3381 1997 
z
" transform="scale(0.015625)"/>
        <path id="ArialMT-32" d="M 3222 541 
L 3222 0 
L 194 0 
Q 188 203 259 391 
Q 375 700 629 1000 
Q 884 1300 1366 1694 
Q 2113 2306 2375 2664 
Q 2638 3022 2638 3341 
Q 2638 3675 2398 3904 
Q 2159 4134 1775 4134 
Q 1369 4134 1125 3890 
Q 881 3647 878 3216 
L 300 3275 
Q 359 3922 746 4261 
Q 1134 4600 1788 4600 
Q 2447 4600 2831 4234 
Q 3216 3869 3216 3328 
Q 3216 3053 3103 2787 
Q 2991 2522 2730 2228 
Q 2469 1934 1863 1422 
Q 1356 997 1212 845 
Q 1069 694 975 541 
L 3222 541 
z
" transform="scale(0.015625)"/>
        <path id="ArialMT-30" d="M 266 2259 
Q 266 3072 433 3567 
Q 600 4063 929 4331 
Q 1259 4600 1759 4600 
Q 2128 4600 2406 4451 
Q 2684 4303 2865 4023 
Q 3047 3744 3150 3342 
Q 3253 2941 3253 2259 
Q 3253 1453 3087 958 
Q 2922 463 2592 192 
Q 2263 -78 1759 -78 
Q 1097 -78 719 397 
Q 266 969 266 2259 
z
M 844 2259 
Q 844 1131 1108 757 
Q 1372 384 1759 384 
Q 2147 384 2411 759 
Q 2675 1134 2675 2259 
Q 2675 3391 2411 3762 
Q 2147 4134 1753 4134 
Q 1366 4134 1134 3806 
Q 844 3388 844 2259 
z
" transform="scale(0.015625)"/>
       </defs>
       <use xlink:href="#ArialMT-2212"/>
       <use xlink:href="#ArialMT-32" x="58.398438"/>
       <use xlink:href="#ArialMT-30" x="114.013672"/>
       <use xlink:href="#ArialMT-30" x="169.628906"/>
       <use xlink:href="#ArialMT-30" x="225.244141"/>
       <use xlink:href="#ArialMT-30" x="280.859375"/>
      </g>
     </g>
    </g>
    <g id="ytick_2">
     <g id="text_4">
      <!-- −10000 -->
      <g style="fill: #262626" transform="translate(28.96 166.620435) scale(0.14 -0.14)">
       <defs>
        <path id="ArialMT-31" d="M 2384 0 
L 1822 0 
L 1822 3584 
Q 1619 3391 1289 3197 
Q 959 3003 697 2906 
L 697 3450 
Q 1169 3672 1522 3987 
Q 1875 4303 2022 4600 
L 2384 4600 
L 2384 0 
z
" transform="scale(0.015625)"/>
       </defs>
       <use xlink:href="#ArialMT-2212"/>
       <use xlink:href="#ArialMT-31" x="58.398438"/>
       <use xlink:href="#ArialMT-30" x="114.013672"/>
       <use xlink:href="#ArialMT-30" x="169.628906"/>
       <use xlink:href="#ArialMT-30" x="225.244141"/>
       <use xlink:href="#ArialMT-30" x="280.859375"/>
      </g>
     </g>
    </g>
    <g id="ytick_3">
     <g id="text_5">
      <!-- 0 -->
      <g style="fill: #262626" transform="translate(68.278125 120.331272) scale(0.14 -0.14)">
       <use xlink:href="#ArialMT-30"/>
      </g>
     </g>
    </g>
    <g id="ytick_4">
     <g id="text_6">
      <!-- 10000 -->
      <g style="fill: #262626" transform="translate(37.136875 74.04211) scale(0.14 -0.14)">
       <use xlink:href="#ArialMT-31"/>
       <use xlink:href="#ArialMT-30" x="55.615234"/>
       <use xlink:href="#ArialMT-30" x="111.230469"/>
       <use xlink:href="#ArialMT-30" x="166.845703"/>
       <use xlink:href="#ArialMT-30" x="222.460938"/>
      </g>
     </g>
    </g>
    <g id="ytick_5">
     <g id="text_7">
      <!-- 20000 -->
      <g style="fill: #262626" transform="translate(37.136875 27.752947) scale(0.14 -0.14)">
       <use xlink:href="#ArialMT-32"/>
       <use xlink:href="#ArialMT-30" x="55.615234"/>
       <use xlink:href="#ArialMT-30" x="111.230469"/>
       <use xlink:href="#ArialMT-30" x="166.845703"/>
       <use xlink:href="#ArialMT-30" x="222.460938"/>
      </g>
     </g>
    </g>
    <g id="text_8">
     <!-- sGMV residuals [mm$^3$] -->
     <g style="fill: #262626" transform="translate(21.76 198.4) rotate(-90) scale(0.16 -0.16)">
      <defs>
       <path id="ArialMT-73" d="M 197 991 
L 753 1078 
Q 800 744 1014 566 
Q 1228 388 1613 388 
Q 2000 388 2187 545 
Q 2375 703 2375 916 
Q 2375 1106 2209 1216 
Q 2094 1291 1634 1406 
Q 1016 1563 777 1677 
Q 538 1791 414 1992 
Q 291 2194 291 2438 
Q 291 2659 392 2848 
Q 494 3038 669 3163 
Q 800 3259 1026 3326 
Q 1253 3394 1513 3394 
Q 1903 3394 2198 3281 
Q 2494 3169 2634 2976 
Q 2775 2784 2828 2463 
L 2278 2388 
Q 2241 2644 2061 2787 
Q 1881 2931 1553 2931 
Q 1166 2931 1000 2803 
Q 834 2675 834 2503 
Q 834 2394 903 2306 
Q 972 2216 1119 2156 
Q 1203 2125 1616 2013 
Q 2213 1853 2448 1751 
Q 2684 1650 2818 1456 
Q 2953 1263 2953 975 
Q 2953 694 2789 445 
Q 2625 197 2315 61 
Q 2006 -75 1616 -75 
Q 969 -75 630 194 
Q 291 463 197 991 
z
" transform="scale(0.015625)"/>
       <path id="ArialMT-47" d="M 2638 1797 
L 2638 2334 
L 4578 2338 
L 4578 638 
Q 4131 281 3656 101 
Q 3181 -78 2681 -78 
Q 2006 -78 1454 211 
Q 903 500 622 1047 
Q 341 1594 341 2269 
Q 341 2938 620 3517 
Q 900 4097 1425 4378 
Q 1950 4659 2634 4659 
Q 3131 4659 3532 4498 
Q 3934 4338 4162 4050 
Q 4391 3763 4509 3300 
L 3963 3150 
Q 3859 3500 3706 3700 
Q 3553 3900 3268 4020 
Q 2984 4141 2638 4141 
Q 2222 4141 1919 4014 
Q 1616 3888 1430 3681 
Q 1244 3475 1141 3228 
Q 966 2803 966 2306 
Q 966 1694 1177 1281 
Q 1388 869 1791 669 
Q 2194 469 2647 469 
Q 3041 469 3416 620 
Q 3791 772 3984 944 
L 3984 1797 
L 2638 1797 
z
" transform="scale(0.015625)"/>
       <path id="ArialMT-4d" d="M 475 0 
L 475 4581 
L 1388 4581 
L 2472 1338 
Q 2622 884 2691 659 
Q 2769 909 2934 1394 
L 4031 4581 
L 4847 4581 
L 4847 0 
L 4263 0 
L 4263 3834 
L 2931 0 
L 2384 0 
L 1059 3900 
L 1059 0 
L 475 0 
z
" transform="scale(0.015625)"/>
       <path id="ArialMT-56" d="M 1803 0 
L 28 4581 
L 684 4581 
L 1875 1253 
Q 2019 853 2116 503 
Q 2222 878 2363 1253 
L 3600 4581 
L 4219 4581 
L 2425 0 
L 1803 0 
z
" transform="scale(0.015625)"/>
       <path id="ArialMT-20" transform="scale(0.015625)"/>
       <path id="ArialMT-69" d="M 425 3934 
L 425 4581 
L 988 4581 
L 988 3934 
L 425 3934 
z
M 425 0 
L 425 3319 
L 988 3319 
L 988 0 
L 425 0 
z
" transform="scale(0.015625)"/>
       <path id="ArialMT-64" d="M 2575 0 
L 2575 419 
Q 2259 -75 1647 -75 
Q 1250 -75 917 144 
Q 584 363 401 755 
Q 219 1147 219 1656 
Q 219 2153 384 2558 
Q 550 2963 881 3178 
Q 1213 3394 1622 3394 
Q 1922 3394 2156 3267 
Q 2391 3141 2538 2938 
L 2538 4581 
L 3097 4581 
L 3097 0 
L 2575 0 
z
M 797 1656 
Q 797 1019 1065 703 
Q 1334 388 1700 388 
Q 2069 388 2326 689 
Q 2584 991 2584 1609 
Q 2584 2291 2321 2609 
Q 2059 2928 1675 2928 
Q 1300 2928 1048 2622 
Q 797 2316 797 1656 
z
" transform="scale(0.015625)"/>
       <path id="ArialMT-61" d="M 2588 409 
Q 2275 144 1986 34 
Q 1697 -75 1366 -75 
Q 819 -75 525 192 
Q 231 459 231 875 
Q 231 1119 342 1320 
Q 453 1522 633 1644 
Q 813 1766 1038 1828 
Q 1203 1872 1538 1913 
Q 2219 1994 2541 2106 
Q 2544 2222 2544 2253 
Q 2544 2597 2384 2738 
Q 2169 2928 1744 2928 
Q 1347 2928 1158 2789 
Q 969 2650 878 2297 
L 328 2372 
Q 403 2725 575 2942 
Q 747 3159 1072 3276 
Q 1397 3394 1825 3394 
Q 2250 3394 2515 3294 
Q 2781 3194 2906 3042 
Q 3031 2891 3081 2659 
Q 3109 2516 3109 2141 
L 3109 1391 
Q 3109 606 3145 398 
Q 3181 191 3288 0 
L 2700 0 
Q 2613 175 2588 409 
z
M 2541 1666 
Q 2234 1541 1622 1453 
Q 1275 1403 1131 1340 
Q 988 1278 909 1158 
Q 831 1038 831 891 
Q 831 666 1001 516 
Q 1172 366 1500 366 
Q 1825 366 2078 508 
Q 2331 650 2450 897 
Q 2541 1088 2541 1459 
L 2541 1666 
z
" transform="scale(0.015625)"/>
       <path id="ArialMT-5b" d="M 434 -1272 
L 434 4581 
L 1675 4581 
L 1675 4116 
L 997 4116 
L 997 -806 
L 1675 -806 
L 1675 -1272 
L 434 -1272 
z
" transform="scale(0.015625)"/>
       <path id="DejaVuSans-33" d="M 2597 2516 
Q 3050 2419 3304 2112 
Q 3559 1806 3559 1356 
Q 3559 666 3084 287 
Q 2609 -91 1734 -91 
Q 1441 -91 1130 -33 
Q 819 25 488 141 
L 488 750 
Q 750 597 1062 519 
Q 1375 441 1716 441 
Q 2309 441 2620 675 
Q 2931 909 2931 1356 
Q 2931 1769 2642 2001 
Q 2353 2234 1838 2234 
L 1294 2234 
L 1294 2753 
L 1863 2753 
Q 2328 2753 2575 2939 
Q 2822 3125 2822 3475 
Q 2822 3834 2567 4026 
Q 2313 4219 1838 4219 
Q 1578 4219 1281 4162 
Q 984 4106 628 3988 
L 628 4550 
Q 988 4650 1302 4700 
Q 1616 4750 1894 4750 
Q 2613 4750 3031 4423 
Q 3450 4097 3450 3541 
Q 3450 3153 3228 2886 
Q 3006 2619 2597 2516 
z
" transform="scale(0.015625)"/>
       <path id="ArialMT-5d" d="M 1363 -1272 
L 122 -1272 
L 122 -806 
L 800 -806 
L 800 4116 
L 122 4116 
L 122 4581 
L 1363 4581 
L 1363 -1272 
z
" transform="scale(0.015625)"/>
      </defs>
      <use xlink:href="#ArialMT-73" transform="translate(0 0.765625)"/>
      <use xlink:href="#ArialMT-47" transform="translate(50 0.765625)"/>
      <use xlink:href="#ArialMT-4d" transform="translate(127.783203 0.765625)"/>
      <use xlink:href="#ArialMT-56" transform="translate(211.083984 0.765625)"/>
      <use xlink:href="#ArialMT-20" transform="translate(277.783203 0.765625)"/>
      <use xlink:href="#ArialMT-72" transform="translate(305.566406 0.765625)"/>
      <use xlink:href="#ArialMT-65" transform="translate(338.867188 0.765625)"/>
      <use xlink:href="#ArialMT-73" transform="translate(394.482422 0.765625)"/>
      <use xlink:href="#ArialMT-69" transform="translate(444.482422 0.765625)"/>
      <use xlink:href="#ArialMT-64" transform="translate(466.699219 0.765625)"/>
      <use xlink:href="#ArialMT-75" transform="translate(522.314453 0.765625)"/>
      <use xlink:href="#ArialMT-61" transform="translate(577.929688 0.765625)"/>
      <use xlink:href="#ArialMT-6c" transform="translate(633.544922 0.765625)"/>
      <use xlink:href="#ArialMT-73" transform="translate(655.761719 0.765625)"/>
      <use xlink:href="#ArialMT-20" transform="translate(705.761719 0.765625)"/>
      <use xlink:href="#ArialMT-5b" transform="translate(733.544922 0.765625)"/>
      <use xlink:href="#ArialMT-6d" transform="translate(761.328125 0.765625)"/>
      <use xlink:href="#ArialMT-6d" transform="translate(844.628906 0.765625)"/>
      <use xlink:href="#DejaVuSans-33" transform="translate(928.886719 39.046875) scale(0.7)"/>
      <use xlink:href="#ArialMT-5d" transform="translate(976.157227 0.765625)"/>
     </g>
    </g>
   </g>
   <g id="PolyCollection_1">
    <defs>
     <path id="m202e73b216" d="M 127.112355 -90.68236 
L 126.869065 -90.68236 
L 126.813255 -92.034868 
L 126.741846 -93.387375 
L 126.655184 -94.739883 
L 126.555794 -96.09239 
L 126.448653 -97.444898 
L 126.340987 -98.797406 
L 126.241488 -100.149913 
L 126.158979 -101.502421 
L 126.100713 -102.854928 
L 126.070601 -104.207436 
L 126.06771 -105.559944 
L 126.085317 -106.912451 
L 126.110681 -108.264959 
L 126.125502 -109.617466 
L 126.106956 -110.969974 
L 126.029122 -112.322481 
L 125.864637 -113.674989 
L 125.586547 -115.027497 
L 125.170322 -116.380004 
L 124.596045 -117.732512 
L 123.850649 -119.085019 
L 122.929927 -120.437527 
L 121.839872 -121.790035 
L 120.596832 -123.142542 
L 119.226084 -124.49505 
L 117.758706 -125.847557 
L 116.2271 -127.200065 
L 114.659981 -128.552572 
L 113.078015 -129.90508 
L 111.491358 -131.257588 
L 109.900032 -132.610095 
L 108.297379 -133.962603 
L 106.67594 -135.31511 
L 105.034274 -136.667618 
L 103.382706 -138.020126 
L 101.746145 -139.372633 
L 100.162818 -140.725141 
L 98.678974 -142.077648 
L 97.34084 -143.430156 
L 96.186014 -144.782663 
L 95.236692 -146.135171 
L 94.496531 -147.487679 
L 93.951872 -148.840186 
L 93.576734 -150.192694 
L 93.339967 -151.545201 
L 93.212468 -152.897709 
L 93.172528 -154.250217 
L 93.20812 -155.602724 
L 93.315873 -156.955232 
L 93.497531 -158.307739 
L 93.755336 -159.660247 
L 94.088063 -161.012754 
L 94.489147 -162.365262 
L 94.947619 -163.71777 
L 95.451635 -165.070277 
L 95.993488 -166.422785 
L 96.574447 -167.775292 
L 97.207767 -169.1278 
L 97.918719 -170.480308 
L 98.741358 -171.832815 
L 99.71263 -173.185323 
L 100.865102 -174.53783 
L 102.219873 -175.890338 
L 103.78106 -177.242845 
L 105.532847 -178.595353 
L 107.439525 -179.947861 
L 109.448458 -181.300368 
L 111.495485 -182.652876 
L 113.511971 -184.005383 
L 115.432493 -185.357891 
L 117.202019 -186.710399 
L 118.781428 -188.062906 
L 120.150457 -189.415414 
L 121.307574 -190.767921 
L 122.266933 -192.120429 
L 123.053162 -193.472936 
L 123.695269 -194.825444 
L 124.221036 -196.177952 
L 124.653104 -197.530459 
L 125.007343 -198.882967 
L 125.293475 -200.235474 
L 125.517317 -201.587982 
L 125.683662 -202.94049 
L 125.798818 -204.292997 
L 125.872059 -205.645505 
L 125.91568 -206.998012 
L 125.94379 -208.35052 
L 125.970306 -209.703028 
L 126.006809 -211.055535 
L 126.060858 -212.408043 
L 126.135184 -213.76055 
L 126.227894 -215.113058 
L 126.333549 -216.465565 
L 126.444752 -217.818073 
L 126.553832 -219.170581 
L 126.654237 -220.523088 
L 126.741407 -221.875596 
L 126.81306 -223.228103 
L 126.868982 -224.580611 
L 127.112439 -224.580611 
L 127.112439 -224.580611 
L 127.168361 -223.228103 
L 127.240013 -221.875596 
L 127.327183 -220.523088 
L 127.427588 -219.170581 
L 127.536668 -217.818073 
L 127.647871 -216.465565 
L 127.753526 -215.113058 
L 127.846237 -213.76055 
L 127.920563 -212.408043 
L 127.974612 -211.055535 
L 128.011115 -209.703028 
L 128.03763 -208.35052 
L 128.06574 -206.998012 
L 128.109362 -205.645505 
L 128.182603 -204.292997 
L 128.297759 -202.94049 
L 128.464103 -201.587982 
L 128.687945 -200.235474 
L 128.974078 -198.882967 
L 129.328317 -197.530459 
L 129.760385 -196.177952 
L 130.286152 -194.825444 
L 130.928258 -193.472936 
L 131.714488 -192.120429 
L 132.673847 -190.767921 
L 133.830964 -189.415414 
L 135.199992 -188.062906 
L 136.779401 -186.710399 
L 138.548927 -185.357891 
L 140.469449 -184.005383 
L 142.485935 -182.652876 
L 144.532962 -181.300368 
L 146.541895 -179.947861 
L 148.448574 -178.595353 
L 150.20036 -177.242845 
L 151.761548 -175.890338 
L 153.116319 -174.53783 
L 154.268791 -173.185323 
L 155.240062 -171.832815 
L 156.062702 -170.480308 
L 156.773654 -169.1278 
L 157.406973 -167.775292 
L 157.987932 -166.422785 
L 158.529786 -165.070277 
L 159.033802 -163.71777 
L 159.492273 -162.365262 
L 159.893357 -161.012754 
L 160.226085 -159.660247 
L 160.483889 -158.307739 
L 160.665547 -156.955232 
L 160.773301 -155.602724 
L 160.808892 -154.250217 
L 160.768953 -152.897709 
L 160.641453 -151.545201 
L 160.404687 -150.192694 
L 160.029549 -148.840186 
L 159.484889 -147.487679 
L 158.744728 -146.135171 
L 157.795406 -144.782663 
L 156.640581 -143.430156 
L 155.302446 -142.077648 
L 153.818602 -140.725141 
L 152.235276 -139.372633 
L 150.598714 -138.020126 
L 148.947146 -136.667618 
L 147.30548 -135.31511 
L 145.684042 -133.962603 
L 144.081388 -132.610095 
L 142.490063 -131.257588 
L 140.903406 -129.90508 
L 139.321439 -128.552572 
L 137.75432 -127.200065 
L 136.222715 -125.847557 
L 134.755337 -124.49505 
L 133.384589 -123.142542 
L 132.141549 -121.790035 
L 131.051493 -120.437527 
L 130.130771 -119.085019 
L 129.385375 -117.732512 
L 128.811098 -116.380004 
L 128.394874 -115.027497 
L 128.116783 -113.674989 
L 127.952299 -112.322481 
L 127.874464 -110.969974 
L 127.855919 -109.617466 
L 127.870739 -108.264959 
L 127.896103 -106.912451 
L 127.913711 -105.559944 
L 127.910819 -104.207436 
L 127.880707 -102.854928 
L 127.822442 -101.502421 
L 127.739933 -100.149913 
L 127.640433 -98.797406 
L 127.532767 -97.444898 
L 127.425626 -96.09239 
L 127.326236 -94.739883 
L 127.239574 -93.387375 
L 127.168166 -92.034868 
L 127.112355 -90.68236 
z
" style="stroke: #4c4c4c; stroke-width: 0.5"/>
    </defs>
    <g clip-path="url(#pf6e4f7b5d6)">
     <use xlink:href="#m202e73b216" x="0" y="258.463437" style="fill: #5573cd; stroke: #4c4c4c; stroke-width: 0.5"/>
    </g>
   </g>
   <g id="PolyCollection_2">
    <defs>
     <path id="m9a1a80f87b" d="M 211.696688 -39.583438 
L 211.375641 -39.583438 
L 211.297556 -41.619801 
L 211.19205 -43.656165 
L 211.054379 -45.692528 
L 210.880831 -47.728892 
L 210.669342 -49.765256 
L 210.419907 -51.801619 
L 210.134612 -53.837983 
L 209.817138 -55.874347 
L 209.471681 -57.91071 
L 209.101419 -59.947074 
L 208.706794 -61.983438 
L 208.284047 -64.019801 
L 207.824524 -66.056165 
L 207.315165 -68.092528 
L 206.740391 -70.128892 
L 206.085247 -72.165256 
L 205.339261 -74.201619 
L 204.500156 -76.237983 
L 203.576423 -78.274347 
L 202.587881 -80.31071 
L 201.56374 -82.347074 
L 200.538237 -84.383438 
L 199.544516 -86.419801 
L 198.607901 -88.456165 
L 197.739896 -90.492528 
L 196.934201 -92.528892 
L 196.165664 -94.565256 
L 195.392601 -96.601619 
L 194.56236 -98.637983 
L 193.619467 -100.674347 
L 192.515297 -102.71071 
L 191.217854 -104.747074 
L 189.720087 -106.783438 
L 188.045162 -108.819801 
L 186.24739 -110.856165 
L 184.40811 -112.892528 
L 182.626729 -114.928892 
L 181.008138 -116.965256 
L 179.648673 -119.001619 
L 178.623265 -121.037983 
L 177.976312 -123.074347 
L 177.717983 -125.11071 
L 177.826416 -127.147074 
L 178.25487 -129.183438 
L 178.941878 -131.219801 
L 179.821964 -133.256165 
L 180.834784 -135.292528 
L 181.931301 -137.328892 
L 183.07658 -139.365256 
L 184.249645 -141.401619 
L 185.441318 -143.437983 
L 186.651012 -145.474347 
L 187.883264 -147.51071 
L 189.144449 -149.547074 
L 190.439888 -151.583438 
L 191.77147 -153.619801 
L 193.135957 -155.656165 
L 194.524165 -157.692528 
L 195.921252 -159.728892 
L 197.308112 -161.765256 
L 198.663699 -163.801619 
L 199.967796 -165.837983 
L 201.203607 -167.874347 
L 202.359606 -169.91071 
L 203.430227 -171.947074 
L 204.415353 -173.983438 
L 205.31884 -176.019801 
L 206.146557 -178.056165 
L 206.904457 -180.092528 
L 207.59713 -182.128892 
L 208.227065 -184.165256 
L 208.794645 -186.201619 
L 209.298697 -188.237983 
L 209.737357 -190.274347 
L 210.108965 -192.31071 
L 210.412817 -194.347074 
L 210.649674 -196.383438 
L 210.822023 -198.419801 
L 210.934162 -200.456165 
L 210.992177 -202.492528 
L 211.003855 -204.528892 
L 210.978543 -206.565256 
L 210.926889 -208.601619 
L 210.860409 -210.637983 
L 210.790834 -212.674347 
L 210.729245 -214.71071 
L 210.685098 -216.747074 
L 210.6653 -218.783438 
L 210.673531 -220.819801 
L 210.709976 -222.856165 
L 210.771561 -224.892528 
L 210.852637 -226.928892 
L 210.946016 -228.965256 
L 211.044111 -231.001619 
L 211.139989 -233.037983 
L 211.228147 -235.074347 
L 211.304921 -237.11071 
L 211.368528 -239.147074 
L 211.418818 -241.183438 
L 211.653511 -241.183438 
L 211.653511 -241.183438 
L 211.703802 -239.147074 
L 211.767409 -237.11071 
L 211.844183 -235.074347 
L 211.93234 -233.037983 
L 212.028218 -231.001619 
L 212.126313 -228.965256 
L 212.219692 -226.928892 
L 212.300769 -224.892528 
L 212.362353 -222.856165 
L 212.398799 -220.819801 
L 212.407029 -218.783438 
L 212.387231 -216.747074 
L 212.343084 -214.71071 
L 212.281496 -212.674347 
L 212.211921 -210.637983 
L 212.145441 -208.601619 
L 212.093786 -206.565256 
L 212.068474 -204.528892 
L 212.080153 -202.492528 
L 212.138167 -200.456165 
L 212.250307 -198.419801 
L 212.422656 -196.383438 
L 212.659513 -194.347074 
L 212.963365 -192.31071 
L 213.334973 -190.274347 
L 213.773632 -188.237983 
L 214.277685 -186.201619 
L 214.845264 -184.165256 
L 215.475199 -182.128892 
L 216.167872 -180.092528 
L 216.925773 -178.056165 
L 217.75349 -176.019801 
L 218.656977 -173.983438 
L 219.642102 -171.947074 
L 220.712723 -169.91071 
L 221.868722 -167.874347 
L 223.104534 -165.837983 
L 224.40863 -163.801619 
L 225.764218 -161.765256 
L 227.151078 -159.728892 
L 228.548164 -157.692528 
L 229.936373 -155.656165 
L 231.300859 -153.619801 
L 232.632442 -151.583438 
L 233.927881 -149.547074 
L 235.189066 -147.51071 
L 236.421318 -145.474347 
L 237.631012 -143.437983 
L 238.822684 -141.401619 
L 239.99575 -139.365256 
L 241.141029 -137.328892 
L 242.237546 -135.292528 
L 243.250366 -133.256165 
L 244.130451 -131.219801 
L 244.817459 -129.183438 
L 245.245914 -127.147074 
L 245.354347 -125.11071 
L 245.096018 -123.074347 
L 244.449064 -121.037983 
L 243.423656 -119.001619 
L 242.064191 -116.965256 
L 240.445601 -114.928892 
L 238.66422 -112.892528 
L 236.82494 -110.856165 
L 235.027168 -108.819801 
L 233.352243 -106.783438 
L 231.854476 -104.747074 
L 230.557032 -102.71071 
L 229.452862 -100.674347 
L 228.509969 -98.637983 
L 227.679728 -96.601619 
L 226.906666 -94.565256 
L 226.138128 -92.528892 
L 225.332433 -90.492528 
L 224.464428 -88.456165 
L 223.527813 -86.419801 
L 222.534093 -84.383438 
L 221.508589 -82.347074 
L 220.484449 -80.31071 
L 219.495907 -78.274347 
L 218.572174 -76.237983 
L 217.733068 -74.201619 
L 216.987082 -72.165256 
L 216.331939 -70.128892 
L 215.757165 -68.092528 
L 215.247805 -66.056165 
L 214.788283 -64.019801 
L 214.365536 -61.983438 
L 213.970911 -59.947074 
L 213.600649 -57.91071 
L 213.255192 -55.874347 
L 212.937717 -53.837983 
L 212.652423 -51.801619 
L 212.402988 -49.765256 
L 212.191499 -47.728892 
L 212.017951 -45.692528 
L 211.88028 -43.656165 
L 211.774774 -41.619801 
L 211.696688 -39.583438 
z
" style="stroke: #4c4c4c; stroke-width: 0.5"/>
    </defs>
    <g clip-path="url(#pf6e4f7b5d6)">
     <use xlink:href="#m9a1a80f87b" x="0" y="258.463437" style="fill: #df8920; stroke: #4c4c4c; stroke-width: 0.5"/>
    </g>
   </g>
   <g id="line2d_1">
    <path d="M 126.99071 134.421425 
L 126.99071 63.626785 
" clip-path="url(#pf6e4f7b5d6)" style="fill: none; stroke: #4c4c4c; stroke-width: 0.75; stroke-linecap: round"/>
   </g>
   <g id="line2d_2">
    <path d="M 126.99071 114.232619 
L 126.99071 88.516457 
" clip-path="url(#pf6e4f7b5d6)" style="fill: none; stroke: #4c4c4c; stroke-width: 2.25; stroke-linecap: round"/>
   </g>
   <g id="line2d_3">
    <path d="M 126.99071 102.055315 
" clip-path="url(#pf6e4f7b5d6)" style="fill: none; stroke: #4c4c4c; stroke-width: 1.5; stroke-linecap: round"/>
    <defs>
     <path id="mba6466bdfc" d="M 0.9375 0 
L -0.9375 -0 
" style="stroke: #ffffff; stroke-width: 0.45"/>
    </defs>
    <g clip-path="url(#pf6e4f7b5d6)">
     <use xlink:href="#mba6466bdfc" x="126.99071" y="102.055315" style="fill: #ffffff; stroke: #ffffff; stroke-width: 0.45"/>
    </g>
   </g>
   <g id="line2d_4">
    <path d="M 211.536165 189.924578 
L 211.536165 74.891072 
" clip-path="url(#pf6e4f7b5d6)" style="fill: none; stroke: #4c4c4c; stroke-width: 0.75; stroke-linecap: round"/>
   </g>
   <g id="line2d_5">
    <path d="M 211.536165 145.939541 
L 211.536165 115.563387 
" clip-path="url(#pf6e4f7b5d6)" style="fill: none; stroke: #4c4c4c; stroke-width: 2.25; stroke-linecap: round"/>
   </g>
   <g id="line2d_6">
    <path d="M 211.536165 134.551833 
" clip-path="url(#pf6e4f7b5d6)" style="fill: none; stroke: #4c4c4c; stroke-width: 1.5; stroke-linecap: round"/>
    <g clip-path="url(#pf6e4f7b5d6)">
     <use xlink:href="#mba6466bdfc" x="211.536165" y="134.551833" style="fill: #ffffff; stroke: #ffffff; stroke-width: 0.45"/>
    </g>
   </g>
   <g id="line2d_7">
    <path d="M 126.99071 50.321185 
L 126.99071 45.885985 
L 211.536165 45.885985 
L 211.536165 50.321185 
" style="fill: none; stroke: #333333; stroke-width: 0.5; stroke-linecap: round"/>
   </g>
   <g id="patch_3">
    <path d="M 85.563438 228.96 
L 85.563438 7.2 
" style="fill: none; stroke: #262626; stroke-width: 1.25; stroke-linejoin: miter; stroke-linecap: square"/>
   </g>
   <g id="patch_4">
    <path d="M 85.563438 228.96 
L 252.963437 228.96 
" style="fill: none; stroke: #262626; stroke-width: 1.25; stroke-linejoin: miter; stroke-linecap: square"/>
   </g>
   <g id="text_9">
    <!-- **** -->
    <g style="fill: #262626" transform="translate(158.365313 42.103485) scale(0.14 -0.14)">
     <defs>
      <path id="ArialMT-2a" d="M 200 3741 
L 344 4184 
Q 841 4009 1066 3881 
Q 1006 4447 1003 4659 
L 1456 4659 
Q 1447 4350 1384 3884 
Q 1706 4047 2122 4184 
L 2266 3741 
Q 1869 3609 1488 3566 
Q 1678 3400 2025 2975 
L 1650 2709 
Q 1469 2956 1222 3381 
Q 991 2941 816 2709 
L 447 2975 
Q 809 3422 966 3566 
Q 563 3644 200 3741 
z
" transform="scale(0.015625)"/>
     </defs>
     <use xlink:href="#ArialMT-2a"/>
     <use xlink:href="#ArialMT-2a" x="38.916016"/>
     <use xlink:href="#ArialMT-2a" x="77.832031"/>
     <use xlink:href="#ArialMT-2a" x="116.748047"/>
    </g>
   </g>
  </g>
 </g>
 <defs>
  <clipPath id="pf6e4f7b5d6">
   <rect x="85.563438" y="7.2" width="167.4" height="221.76"/>
  </clipPath>
 </defs>
</svg>
