<?xml version="1.0" encoding="utf-8" standalone="no"?>
<!DOCTYPE svg PUBLIC "-//W3C//DTD SVG 1.1//EN"
  "http://www.w3.org/Graphics/SVG/1.1/DTD/svg11.dtd">
<svg xmlns:xlink="http://www.w3.org/1999/xlink" width="267.94875pt" height="258.463437pt" viewBox="0 0 267.94875 258.463437" xmlns="http://www.w3.org/2000/svg" version="1.1">
 <metadata>
  <rdf:RDF xmlns:dc="http://purl.org/dc/elements/1.1/" xmlns:cc="http://creativecommons.org/ns#" xmlns:rdf="http://www.w3.org/1999/02/22-rdf-syntax-ns#">
   <cc:Work>
    <dc:type rdf:resource="http://purl.org/dc/dcmitype/StillImage"/>
    <dc:date>2026-02-04T11:48:19.243430</dc:date>
    <dc:format>image/svg+xml</dc:format>
    <dc:creator>
     <cc:Agent>
      <dc:title>Matplotlib v3.9.2, https://matplotlib.org/</dc:title>
     </cc:Agent>
    </dc:creator>
   </cc:Work>
  </rdf:RDF>
 </metadata>
 <defs>
  <style type="text/css">*{stroke-linejoin: round; stroke-linecap: butt}</style>
 </defs>
 <g id="figure_1">
  <g id="patch_1">
   <path d="M 0 258.463437 
L 267.94875 258.463437 
L 267.94875 0 
L 0 0 
z
" style="fill: #ffffff"/>
  </g>
  <g id="axes_1">
   <g id="patch_2">
    <path d="M 93.34875 228.96 
L 260.74875 228.96 
L 260.74875 7.2 
L 93.34875 7.2 
z
" style="fill: #ffffff"/>
   </g>
   <g id="matplotlib.axis_1">
    <g id="xtick_1">
     <g id="text_1">
      <!-- Full-term -->
      <g style="fill: #262626" transform="translate(107.167585 248.480937) scale(0.14 -0.14)">
       <defs>
        <path id="ArialMT-46" d="M 525 0 
L 525 4581 
L 3616 4581 
L 3616 4041 
L 1131 4041 
L 1131 2622 
L 3281 2622 
L 3281 2081 
L 1131 2081 
L 1131 0 
L 525 0 
z
" transform="scale(0.015625)"/>
        <path id="ArialMT-75" d="M 2597 0 
L 2597 488 
Q 2209 -75 1544 -75 
Q 1250 -75 995 37 
Q 741 150 617 320 
Q 494 491 444 738 
Q 409 903 409 1263 
L 409 3319 
L 972 3319 
L 972 1478 
Q 972 1038 1006 884 
Q 1059 663 1231 536 
Q 1403 409 1656 409 
Q 1909 409 2131 539 
Q 2353 669 2445 892 
Q 2538 1116 2538 1541 
L 2538 3319 
L 3100 3319 
L 3100 0 
L 2597 0 
z
" transform="scale(0.015625)"/>
        <path id="ArialMT-6c" d="M 409 0 
L 409 4581 
L 972 4581 
L 972 0 
L 409 0 
z
" transform="scale(0.015625)"/>
        <path id="ArialMT-2d" d="M 203 1375 
L 203 1941 
L 1931 1941 
L 1931 1375 
L 203 1375 
z
" transform="scale(0.015625)"/>
        <path id="ArialMT-74" d="M 1650 503 
L 1731 6 
Q 1494 -44 1306 -44 
Q 1000 -44 831 53 
Q 663 150 594 308 
Q 525 466 525 972 
L 525 2881 
L 113 2881 
L 113 3319 
L 525 3319 
L 525 4141 
L 1084 4478 
L 1084 3319 
L 1650 3319 
L 1650 2881 
L 1084 2881 
L 1084 941 
Q 1084 700 1114 631 
Q 1144 563 1211 522 
Q 1278 481 1403 481 
Q 1497 481 1650 503 
z
" transform="scale(0.015625)"/>
        <path id="ArialMT-65" d="M 2694 1069 
L 3275 997 
Q 3138 488 2766 206 
Q 2394 -75 1816 -75 
Q 1088 -75 661 373 
Q 234 822 234 1631 
Q 234 2469 665 2931 
Q 1097 3394 1784 3394 
Q 2450 3394 2872 2941 
Q 3294 2488 3294 1666 
Q 3294 1616 3291 1516 
L 816 1516 
Q 847 969 1125 678 
Q 1403 388 1819 388 
Q 2128 388 2347 550 
Q 2566 713 2694 1069 
z
M 847 1978 
L 2700 1978 
Q 2663 2397 2488 2606 
Q 2219 2931 1791 2931 
Q 1403 2931 1139 2672 
Q 875 2413 847 1978 
z
" transform="scale(0.015625)"/>
        <path id="ArialMT-72" d="M 416 0 
L 416 3319 
L 922 3319 
L 922 2816 
Q 1116 3169 1280 3281 
Q 1444 3394 1641 3394 
Q 1925 3394 2219 3213 
L 2025 2691 
Q 1819 2813 1613 2813 
Q 1428 2813 1281 2702 
Q 1134 2591 1072 2394 
Q 978 2094 978 1738 
L 978 0 
L 416 0 
z
" transform="scale(0.015625)"/>
        <path id="ArialMT-6d" d="M 422 0 
L 422 3319 
L 925 3319 
L 925 2853 
Q 1081 3097 1340 3245 
Q 1600 3394 1931 3394 
Q 2300 3394 2536 3241 
Q 2772 3088 2869 2813 
Q 3263 3394 3894 3394 
Q 4388 3394 4653 3120 
Q 4919 2847 4919 2278 
L 4919 0 
L 4359 0 
L 4359 2091 
Q 4359 2428 4304 2576 
Q 4250 2725 4106 2815 
Q 3963 2906 3769 2906 
Q 3419 2906 3187 2673 
Q 2956 2441 2956 1928 
L 2956 0 
L 2394 0 
L 2394 2156 
Q 2394 2531 2256 2718 
Q 2119 2906 1806 2906 
Q 1569 2906 1367 2781 
Q 1166 2656 1075 2415 
Q 984 2175 984 1722 
L 984 0 
L 422 0 
z
" transform="scale(0.015625)"/>
       </defs>
       <use xlink:href="#ArialMT-46"/>
       <use xlink:href="#ArialMT-75" x="61.083984"/>
       <use xlink:href="#ArialMT-6c" x="116.699219"/>
       <use xlink:href="#ArialMT-6c" x="138.916016"/>
       <use xlink:href="#ArialMT-2d" x="161.132812"/>
       <use xlink:href="#ArialMT-74" x="194.433594"/>
       <use xlink:href="#ArialMT-65" x="222.216797"/>
       <use xlink:href="#ArialMT-72" x="277.832031"/>
       <use xlink:href="#ArialMT-6d" x="311.132812"/>
      </g>
     </g>
    </g>
    <g id="xtick_2">
     <g id="text_2">
      <!-- Preterm -->
      <g style="fill: #262626" transform="translate(194.429915 248.480937) scale(0.14 -0.14)">
       <defs>
        <path id="ArialMT-50" d="M 494 0 
L 494 4581 
L 2222 4581 
Q 2678 4581 2919 4538 
Q 3256 4481 3484 4323 
Q 3713 4166 3852 3881 
Q 3991 3597 3991 3256 
Q 3991 2672 3619 2267 
Q 3247 1863 2275 1863 
L 1100 1863 
L 1100 0 
L 494 0 
z
M 1100 2403 
L 2284 2403 
Q 2872 2403 3119 2622 
Q 3366 2841 3366 3238 
Q 3366 3525 3220 3729 
Q 3075 3934 2838 4000 
Q 2684 4041 2272 4041 
L 1100 4041 
L 1100 2403 
z
" transform="scale(0.015625)"/>
       </defs>
       <use xlink:href="#ArialMT-50"/>
       <use xlink:href="#ArialMT-72" x="66.699219"/>
       <use xlink:href="#ArialMT-65" x="100"/>
       <use xlink:href="#ArialMT-74" x="155.615234"/>
       <use xlink:href="#ArialMT-65" x="183.398438"/>
       <use xlink:href="#ArialMT-72" x="239.013672"/>
       <use xlink:href="#ArialMT-6d" x="272.314453"/>
      </g>
     </g>
    </g>
   </g>
   <g id="matplotlib.axis_2">
    <g id="ytick_1">
     <g id="text_3">
      <!-- −150000 -->
      <g style="fill: #262626" transform="translate(28.96 219.363513) scale(0.14 -0.14)">
       <defs>
        <path id="ArialMT-2212" d="M 3381 1997 
L 356 1997 
L 356 2522 
L 3381 2522 
L 3381 1997 
z
" transform="scale(0.015625)"/>
        <path id="ArialMT-31" d="M 2384 0 
L 1822 0 
L 1822 3584 
Q 1619 3391 1289 3197 
Q 959 3003 697 2906 
L 697 3450 
Q 1169 3672 1522 3987 
Q 1875 4303 2022 4600 
L 2384 4600 
L 2384 0 
z
" transform="scale(0.015625)"/>
        <path id="ArialMT-35" d="M 266 1200 
L 856 1250 
Q 922 819 1161 601 
Q 1400 384 1738 384 
Q 2144 384 2425 690 
Q 2706 997 2706 1503 
Q 2706 1984 2436 2262 
Q 2166 2541 1728 2541 
Q 1456 2541 1237 2417 
Q 1019 2294 894 2097 
L 366 2166 
L 809 4519 
L 3088 4519 
L 3088 3981 
L 1259 3981 
L 1013 2750 
Q 1425 3038 1878 3038 
Q 2478 3038 2890 2622 
Q 3303 2206 3303 1553 
Q 3303 931 2941 478 
Q 2500 -78 1738 -78 
Q 1113 -78 717 272 
Q 322 622 266 1200 
z
" transform="scale(0.015625)"/>
        <path id="ArialMT-30" d="M 266 2259 
Q 266 3072 433 3567 
Q 600 4063 929 4331 
Q 1259 4600 1759 4600 
Q 2128 4600 2406 4451 
Q 2684 4303 2865 4023 
Q 3047 3744 3150 3342 
Q 3253 2941 3253 2259 
Q 3253 1453 3087 958 
Q 2922 463 2592 192 
Q 2263 -78 1759 -78 
Q 1097 -78 719 397 
Q 266 969 266 2259 
z
M 844 2259 
Q 844 1131 1108 757 
Q 1372 384 1759 384 
Q 2147 384 2411 759 
Q 2675 1134 2675 2259 
Q 2675 3391 2411 3762 
Q 2147 4134 1753 4134 
Q 1366 4134 1134 3806 
Q 844 3388 844 2259 
z
" transform="scale(0.015625)"/>
       </defs>
       <use xlink:href="#ArialMT-2212"/>
       <use xlink:href="#ArialMT-31" x="58.398438"/>
       <use xlink:href="#ArialMT-35" x="114.013672"/>
       <use xlink:href="#ArialMT-30" x="169.628906"/>
       <use xlink:href="#ArialMT-30" x="225.244141"/>
       <use xlink:href="#ArialMT-30" x="280.859375"/>
       <use xlink:href="#ArialMT-30" x="336.474609"/>
      </g>
     </g>
    </g>
    <g id="ytick_2">
     <g id="text_4">
      <!-- −100000 -->
      <g style="fill: #262626" transform="translate(28.96 186.162068) scale(0.14 -0.14)">
       <use xlink:href="#ArialMT-2212"/>
       <use xlink:href="#ArialMT-31" x="58.398438"/>
       <use xlink:href="#ArialMT-30" x="114.013672"/>
       <use xlink:href="#ArialMT-30" x="169.628906"/>
       <use xlink:href="#ArialMT-30" x="225.244141"/>
       <use xlink:href="#ArialMT-30" x="280.859375"/>
       <use xlink:href="#ArialMT-30" x="336.474609"/>
      </g>
     </g>
    </g>
    <g id="ytick_3">
     <g id="text_5">
      <!-- −50000 -->
      <g style="fill: #262626" transform="translate(36.745312 152.960624) scale(0.14 -0.14)">
       <use xlink:href="#ArialMT-2212"/>
       <use xlink:href="#ArialMT-35" x="58.398438"/>
       <use xlink:href="#ArialMT-30" x="114.013672"/>
       <use xlink:href="#ArialMT-30" x="169.628906"/>
       <use xlink:href="#ArialMT-30" x="225.244141"/>
       <use xlink:href="#ArialMT-30" x="280.859375"/>
      </g>
     </g>
    </g>
    <g id="ytick_4">
     <g id="text_6">
      <!-- 0 -->
      <g style="fill: #262626" transform="translate(76.063437 119.75918) scale(0.14 -0.14)">
       <use xlink:href="#ArialMT-30"/>
      </g>
     </g>
    </g>
    <g id="ytick_5">
     <g id="text_7">
      <!-- 50000 -->
      <g style="fill: #262626" transform="translate(44.922187 86.557735) scale(0.14 -0.14)">
       <use xlink:href="#ArialMT-35"/>
       <use xlink:href="#ArialMT-30" x="55.615234"/>
       <use xlink:href="#ArialMT-30" x="111.230469"/>
       <use xlink:href="#ArialMT-30" x="166.845703"/>
       <use xlink:href="#ArialMT-30" x="222.460938"/>
      </g>
     </g>
    </g>
    <g id="ytick_6">
     <g id="text_8">
      <!-- 100000 -->
      <g style="fill: #262626" transform="translate(37.136875 53.356291) scale(0.14 -0.14)">
       <use xlink:href="#ArialMT-31"/>
       <use xlink:href="#ArialMT-30" x="55.615234"/>
       <use xlink:href="#ArialMT-30" x="111.230469"/>
       <use xlink:href="#ArialMT-30" x="166.845703"/>
       <use xlink:href="#ArialMT-30" x="222.460938"/>
       <use xlink:href="#ArialMT-30" x="278.076172"/>
      </g>
     </g>
    </g>
    <g id="ytick_7">
     <g id="text_9">
      <!-- 150000 -->
      <g style="fill: #262626" transform="translate(37.136875 20.154846) scale(0.14 -0.14)">
       <use xlink:href="#ArialMT-31"/>
       <use xlink:href="#ArialMT-35" x="55.615234"/>
       <use xlink:href="#ArialMT-30" x="111.230469"/>
       <use xlink:href="#ArialMT-30" x="166.845703"/>
       <use xlink:href="#ArialMT-30" x="222.460938"/>
       <use xlink:href="#ArialMT-30" x="278.076172"/>
      </g>
     </g>
    </g>
    <g id="text_10">
     <!-- GMV residuals [mm$^3$] -->
     <g style="fill: #262626" transform="translate(21.76 194.4) rotate(-90) scale(0.16 -0.16)">
      <defs>
       <path id="ArialMT-47" d="M 2638 1797 
L 2638 2334 
L 4578 2338 
L 4578 638 
Q 4131 281 3656 101 
Q 3181 -78 2681 -78 
Q 2006 -78 1454 211 
Q 903 500 622 1047 
Q 341 1594 341 2269 
Q 341 2938 620 3517 
Q 900 4097 1425 4378 
Q 1950 4659 2634 4659 
Q 3131 4659 3532 4498 
Q 3934 4338 4162 4050 
Q 4391 3763 4509 3300 
L 3963 3150 
Q 3859 3500 3706 3700 
Q 3553 3900 3268 4020 
Q 2984 4141 2638 4141 
Q 2222 4141 1919 4014 
Q 1616 3888 1430 3681 
Q 1244 3475 1141 3228 
Q 966 2803 966 2306 
Q 966 1694 1177 1281 
Q 1388 869 1791 669 
Q 2194 469 2647 469 
Q 3041 469 3416 620 
Q 3791 772 3984 944 
L 3984 1797 
L 2638 1797 
z
" transform="scale(0.015625)"/>
       <path id="ArialMT-4d" d="M 475 0 
L 475 4581 
L 1388 4581 
L 2472 1338 
Q 2622 884 2691 659 
Q 2769 909 2934 1394 
L 4031 4581 
L 4847 4581 
L 4847 0 
L 4263 0 
L 4263 3834 
L 2931 0 
L 2384 0 
L 1059 3900 
L 1059 0 
L 475 0 
z
" transform="scale(0.015625)"/>
       <path id="ArialMT-56" d="M 1803 0 
L 28 4581 
L 684 4581 
L 1875 1253 
Q 2019 853 2116 503 
Q 2222 878 2363 1253 
L 3600 4581 
L 4219 4581 
L 2425 0 
L 1803 0 
z
" transform="scale(0.015625)"/>
       <path id="ArialMT-20" transform="scale(0.015625)"/>
       <path id="ArialMT-73" d="M 197 991 
L 753 1078 
Q 800 744 1014 566 
Q 1228 388 1613 388 
Q 2000 388 2187 545 
Q 2375 703 2375 916 
Q 2375 1106 2209 1216 
Q 2094 1291 1634 1406 
Q 1016 1563 777 1677 
Q 538 1791 414 1992 
Q 291 2194 291 2438 
Q 291 2659 392 2848 
Q 494 3038 669 3163 
Q 800 3259 1026 3326 
Q 1253 3394 1513 3394 
Q 1903 3394 2198 3281 
Q 2494 3169 2634 2976 
Q 2775 2784 2828 2463 
L 2278 2388 
Q 2241 2644 2061 2787 
Q 1881 2931 1553 2931 
Q 1166 2931 1000 2803 
Q 834 2675 834 2503 
Q 834 2394 903 2306 
Q 972 2216 1119 2156 
Q 1203 2125 1616 2013 
Q 2213 1853 2448 1751 
Q 2684 1650 2818 1456 
Q 2953 1263 2953 975 
Q 2953 694 2789 445 
Q 2625 197 2315 61 
Q 2006 -75 1616 -75 
Q 969 -75 630 194 
Q 291 463 197 991 
z
" transform="scale(0.015625)"/>
       <path id="ArialMT-69" d="M 425 3934 
L 425 4581 
L 988 4581 
L 988 3934 
L 425 3934 
z
M 425 0 
L 425 3319 
L 988 3319 
L 988 0 
L 425 0 
z
" transform="scale(0.015625)"/>
       <path id="ArialMT-64" d="M 2575 0 
L 2575 419 
Q 2259 -75 1647 -75 
Q 1250 -75 917 144 
Q 584 363 401 755 
Q 219 1147 219 1656 
Q 219 2153 384 2558 
Q 550 2963 881 3178 
Q 1213 3394 1622 3394 
Q 1922 3394 2156 3267 
Q 2391 3141 2538 2938 
L 2538 4581 
L 3097 4581 
L 3097 0 
L 2575 0 
z
M 797 1656 
Q 797 1019 1065 703 
Q 1334 388 1700 388 
Q 2069 388 2326 689 
Q 2584 991 2584 1609 
Q 2584 2291 2321 2609 
Q 2059 2928 1675 2928 
Q 1300 2928 1048 2622 
Q 797 2316 797 1656 
z
" transform="scale(0.015625)"/>
       <path id="ArialMT-61" d="M 2588 409 
Q 2275 144 1986 34 
Q 1697 -75 1366 -75 
Q 819 -75 525 192 
Q 231 459 231 875 
Q 231 1119 342 1320 
Q 453 1522 633 1644 
Q 813 1766 1038 1828 
Q 1203 1872 1538 1913 
Q 2219 1994 2541 2106 
Q 2544 2222 2544 2253 
Q 2544 2597 2384 2738 
Q 2169 2928 1744 2928 
Q 1347 2928 1158 2789 
Q 969 2650 878 2297 
L 328 2372 
Q 403 2725 575 2942 
Q 747 3159 1072 3276 
Q 1397 3394 1825 3394 
Q 2250 3394 2515 3294 
Q 2781 3194 2906 3042 
Q 3031 2891 3081 2659 
Q 3109 2516 3109 2141 
L 3109 1391 
Q 3109 606 3145 398 
Q 3181 191 3288 0 
L 2700 0 
Q 2613 175 2588 409 
z
M 2541 1666 
Q 2234 1541 1622 1453 
Q 1275 1403 1131 1340 
Q 988 1278 909 1158 
Q 831 1038 831 891 
Q 831 666 1001 516 
Q 1172 366 1500 366 
Q 1825 366 2078 508 
Q 2331 650 2450 897 
Q 2541 1088 2541 1459 
L 2541 1666 
z
" transform="scale(0.015625)"/>
       <path id="ArialMT-5b" d="M 434 -1272 
L 434 4581 
L 1675 4581 
L 1675 4116 
L 997 4116 
L 997 -806 
L 1675 -806 
L 1675 -1272 
L 434 -1272 
z
" transform="scale(0.015625)"/>
       <path id="DejaVuSans-33" d="M 2597 2516 
Q 3050 2419 3304 2112 
Q 3559 1806 3559 1356 
Q 3559 666 3084 287 
Q 2609 -91 1734 -91 
Q 1441 -91 1130 -33 
Q 819 25 488 141 
L 488 750 
Q 750 597 1062 519 
Q 1375 441 1716 441 
Q 2309 441 2620 675 
Q 2931 909 2931 1356 
Q 2931 1769 2642 2001 
Q 2353 2234 1838 2234 
L 1294 2234 
L 1294 2753 
L 1863 2753 
Q 2328 2753 2575 2939 
Q 2822 3125 2822 3475 
Q 2822 3834 2567 4026 
Q 2313 4219 1838 4219 
Q 1578 4219 1281 4162 
Q 984 4106 628 3988 
L 628 4550 
Q 988 4650 1302 4700 
Q 1616 4750 1894 4750 
Q 2613 4750 3031 4423 
Q 3450 4097 3450 3541 
Q 3450 3153 3228 2886 
Q 3006 2619 2597 2516 
z
" transform="scale(0.015625)"/>
       <path id="ArialMT-5d" d="M 1363 -1272 
L 122 -1272 
L 122 -806 
L 800 -806 
L 800 4116 
L 122 4116 
L 122 4581 
L 1363 4581 
L 1363 -1272 
z
" transform="scale(0.015625)"/>
      </defs>
      <use xlink:href="#ArialMT-47" transform="translate(0 0.765625)"/>
      <use xlink:href="#ArialMT-4d" transform="translate(77.783203 0.765625)"/>
      <use xlink:href="#ArialMT-56" transform="translate(161.083984 0.765625)"/>
      <use xlink:href="#ArialMT-20" transform="translate(227.783203 0.765625)"/>
      <use xlink:href="#ArialMT-72" transform="translate(255.566406 0.765625)"/>
      <use xlink:href="#ArialMT-65" transform="translate(288.867188 0.765625)"/>
      <use xlink:href="#ArialMT-73" transform="translate(344.482422 0.765625)"/>
      <use xlink:href="#ArialMT-69" transform="translate(394.482422 0.765625)"/>
      <use xlink:href="#ArialMT-64" transform="translate(416.699219 0.765625)"/>
      <use xlink:href="#ArialMT-75" transform="translate(472.314453 0.765625)"/>
      <use xlink:href="#ArialMT-61" transform="translate(527.929688 0.765625)"/>
      <use xlink:href="#ArialMT-6c" transform="translate(583.544922 0.765625)"/>
      <use xlink:href="#ArialMT-73" transform="translate(605.761719 0.765625)"/>
      <use xlink:href="#ArialMT-20" transform="translate(655.761719 0.765625)"/>
      <use xlink:href="#ArialMT-5b" transform="translate(683.544922 0.765625)"/>
      <use xlink:href="#ArialMT-6d" transform="translate(711.328125 0.765625)"/>
      <use xlink:href="#ArialMT-6d" transform="translate(794.628906 0.765625)"/>
      <use xlink:href="#DejaVuSans-33" transform="translate(878.886719 39.046875) scale(0.7)"/>
      <use xlink:href="#ArialMT-5d" transform="translate(926.157227 0.765625)"/>
     </g>
    </g>
   </g>
   <g id="PolyCollection_1">
    <defs>
     <path id="m0fcc5290b6" d="M 134.94167 -73.4157 
L 134.610376 -73.4157 
L 134.535789 -75.110323 
L 134.43683 -76.804947 
L 134.309481 -78.49957 
L 134.150425 -80.194194 
L 133.957439 -81.888818 
L 133.729656 -83.583441 
L 133.467609 -85.278065 
L 133.172988 -86.972689 
L 132.84813 -88.667312 
L 132.495299 -90.361936 
L 132.115934 -92.056559 
L 131.710028 -93.751183 
L 131.275856 -95.445807 
L 130.810141 -97.14043 
L 130.308697 -98.835054 
L 129.767414 -100.529677 
L 129.183377 -102.224301 
L 128.555825 -103.918925 
L 127.886718 -105.613548 
L 127.180729 -107.308172 
L 126.444671 -109.002796 
L 125.68647 -110.697419 
L 124.913903 -112.392043 
L 124.133392 -114.086666 
L 123.349035 -115.78129 
L 122.562044 -117.475914 
L 121.770583 -119.170537 
L 120.969967 -120.865161 
L 120.153104 -122.559784 
L 119.3111 -124.254408 
L 118.433953 -125.949032 
L 117.511317 -127.643655 
L 116.533351 -129.338279 
L 115.491653 -131.032903 
L 114.380301 -132.727526 
L 113.196977 -134.42215 
L 111.94415 -136.116773 
L 110.630273 -137.811397 
L 109.270879 -139.506021 
L 107.889437 -141.200644 
L 106.517739 -142.895268 
L 105.195529 -144.589891 
L 103.969138 -146.284515 
L 102.888953 -147.979139 
L 102.005775 -149.673762 
L 101.366371 -151.368386 
L 101.008742 -153.06301 
L 100.957841 -154.757633 
L 101.22242 -156.452257 
L 101.793619 -158.14688 
L 102.645592 -159.841504 
L 103.738146 -161.536128 
L 105.021047 -163.230751 
L 106.439351 -164.925375 
L 107.938969 -166.619998 
L 109.471658 -168.314622 
L 110.998709 -170.009246 
L 112.492886 -171.703869 
L 113.938457 -173.398493 
L 115.32953 -175.093117 
L 116.667199 -176.78774 
L 117.956209 -178.482364 
L 119.201831 -180.176987 
L 120.407531 -181.871611 
L 121.57373 -183.566235 
L 122.697654 -185.260858 
L 123.774017 -186.955482 
L 124.796155 -188.650105 
L 125.757207 -190.344729 
L 126.651073 -192.039353 
L 127.472998 -193.733976 
L 128.219829 -195.4286 
L 128.890051 -197.123224 
L 129.483728 -198.817847 
L 130.002471 -200.512471 
L 130.449452 -202.207094 
L 130.829444 -203.901718 
L 131.148833 -205.596342 
L 131.41553 -207.290965 
L 131.638743 -208.985589 
L 131.828595 -210.680212 
L 131.995581 -212.374836 
L 132.149915 -214.06946 
L 132.300829 -215.764083 
L 132.455879 -217.458707 
L 132.620374 -219.153331 
L 132.797003 -220.847954 
L 132.985732 -222.542578 
L 133.184021 -224.237201 
L 133.387329 -225.931825 
L 133.589849 -227.626449 
L 133.785355 -229.321072 
L 133.96802 -231.015696 
L 134.1331 -232.710319 
L 134.277368 -234.404943 
L 134.399292 -236.099567 
L 134.498946 -237.79419 
L 134.577734 -239.488814 
L 134.638001 -241.183438 
L 134.914045 -241.183438 
L 134.914045 -241.183438 
L 134.974311 -239.488814 
L 135.053099 -237.79419 
L 135.152753 -236.099567 
L 135.274677 -234.404943 
L 135.418945 -232.710319 
L 135.584025 -231.015696 
L 135.766691 -229.321072 
L 135.962196 -227.626449 
L 136.164717 -225.931825 
L 136.368025 -224.237201 
L 136.566314 -222.542578 
L 136.755043 -220.847954 
L 136.931671 -219.153331 
L 137.096167 -217.458707 
L 137.251217 -215.764083 
L 137.40213 -214.06946 
L 137.556465 -212.374836 
L 137.72345 -210.680212 
L 137.913302 -208.985589 
L 138.136516 -207.290965 
L 138.403212 -205.596342 
L 138.722601 -203.901718 
L 139.102594 -202.207094 
L 139.549575 -200.512471 
L 140.068318 -198.817847 
L 140.661994 -197.123224 
L 141.332216 -195.4286 
L 142.079048 -193.733976 
L 142.900973 -192.039353 
L 143.794838 -190.344729 
L 144.755891 -188.650105 
L 145.778028 -186.955482 
L 146.854391 -185.260858 
L 147.978315 -183.566235 
L 149.144515 -181.871611 
L 150.350215 -180.176987 
L 151.595837 -178.482364 
L 152.884847 -176.78774 
L 154.222516 -175.093117 
L 155.613588 -173.398493 
L 157.059159 -171.703869 
L 158.553337 -170.009246 
L 160.080388 -168.314622 
L 161.613077 -166.619998 
L 163.112695 -164.925375 
L 164.530998 -163.230751 
L 165.813899 -161.536128 
L 166.906453 -159.841504 
L 167.758426 -158.14688 
L 168.329626 -156.452257 
L 168.594205 -154.757633 
L 168.543303 -153.06301 
L 168.185675 -151.368386 
L 167.54627 -149.673762 
L 166.663093 -147.979139 
L 165.582907 -146.284515 
L 164.356516 -144.589891 
L 163.034306 -142.895268 
L 161.662608 -141.200644 
L 160.281167 -139.506021 
L 158.921772 -137.811397 
L 157.607895 -136.116773 
L 156.355069 -134.42215 
L 155.171744 -132.727526 
L 154.060392 -131.032903 
L 153.018694 -129.338279 
L 152.040728 -127.643655 
L 151.118093 -125.949032 
L 150.240946 -124.254408 
L 149.398942 -122.559784 
L 148.582079 -120.865161 
L 147.781462 -119.170537 
L 146.990002 -117.475914 
L 146.203011 -115.78129 
L 145.418654 -114.086666 
L 144.638142 -112.392043 
L 143.865576 -110.697419 
L 143.107374 -109.002796 
L 142.371317 -107.308172 
L 141.665328 -105.613548 
L 140.99622 -103.918925 
L 140.368669 -102.224301 
L 139.784632 -100.529677 
L 139.243349 -98.835054 
L 138.741904 -97.14043 
L 138.276189 -95.445807 
L 137.842017 -93.751183 
L 137.436112 -92.056559 
L 137.056746 -90.361936 
L 136.703916 -88.667312 
L 136.379057 -86.972689 
L 136.084436 -85.278065 
L 135.822389 -83.583441 
L 135.594606 -81.888818 
L 135.40162 -80.194194 
L 135.242565 -78.49957 
L 135.115216 -76.804947 
L 135.016257 -75.110323 
L 134.94167 -73.4157 
z
" style="stroke: #4c4c4c; stroke-width: 0.5"/>
    </defs>
    <g clip-path="url(#pe9a1baf54d)">
     <use xlink:href="#m0fcc5290b6" x="0" y="258.463437" style="fill: #5573cd; stroke: #4c4c4c; stroke-width: 0.5"/>
    </g>
   </g>
   <g id="PolyCollection_2">
    <defs>
     <path id="m43dc004f4e" d="M 219.43974 -39.583437 
L 219.203215 -39.583437 
L 219.156648 -41.59539 
L 219.098298 -43.607343 
L 219.0278 -45.619296 
L 218.945708 -47.631249 
L 218.853573 -49.643202 
L 218.753814 -51.655155 
L 218.649322 -53.667108 
L 218.542776 -55.679061 
L 218.435724 -57.691014 
L 218.327513 -59.702967 
L 218.214238 -61.71492 
L 218.087887 -63.726873 
L 217.93588 -65.738826 
L 217.741133 -67.750779 
L 217.482756 -69.762732 
L 217.13737 -71.774685 
L 216.680967 -73.786638 
L 216.091127 -75.798591 
L 215.349365 -77.810544 
L 214.443309 -79.822497 
L 213.368425 -81.83445 
L 212.12903 -83.846403 
L 210.738396 -85.858356 
L 209.217901 -87.870309 
L 207.595269 -89.882262 
L 205.902164 -91.894215 
L 204.171434 -93.906168 
L 202.434436 -95.918121 
L 200.718812 -97.930074 
L 199.047016 -99.942027 
L 197.43575 -101.95398 
L 195.896301 -103.965933 
L 194.43563 -105.977886 
L 193.057968 -107.989839 
L 191.766599 -110.001792 
L 190.565554 -112.013745 
L 189.460955 -114.025698 
L 188.461849 -116.037651 
L 187.580443 -118.049604 
L 186.831746 -120.061557 
L 186.232704 -122.07351 
L 185.800914 -124.085463 
L 185.553082 -126.097416 
L 185.503295 -128.109369 
L 185.661252 -130.121322 
L 186.030522 -132.133275 
L 186.60704 -134.145228 
L 187.378042 -136.157181 
L 188.32178 -138.169134 
L 189.408319 -140.181087 
L 190.601621 -142.19304 
L 191.862877 -144.204993 
L 193.154725 -146.216946 
L 194.445683 -148.228899 
L 195.71391 -150.240851 
L 196.949432 -152.252804 
L 198.154245 -154.264757 
L 199.340121 -156.27671 
L 200.524499 -158.288663 
L 201.725295 -160.300616 
L 202.955716 -162.312569 
L 204.220161 -164.324522 
L 205.51202 -166.336475 
L 206.813726 -168.348428 
L 208.098934 -170.360381 
L 209.336251 -172.372334 
L 210.493687 -174.384287 
L 211.542959 -176.39624 
L 212.462885 -178.408193 
L 213.241404 -180.420146 
L 213.876068 -182.432099 
L 214.37315 -184.444052 
L 214.745744 -186.456005 
L 215.011355 -188.467958 
L 215.189479 -190.479911 
L 215.29957 -192.491864 
L 215.359685 -194.503817 
L 215.385862 -196.51577 
L 215.392143 -198.527723 
L 215.391026 -200.539676 
L 215.394024 -202.551629 
L 215.412052 -204.563582 
L 215.455435 -206.575535 
L 215.533448 -208.587488 
L 215.653489 -210.599441 
L 215.820074 -212.611394 
L 216.033967 -214.623347 
L 216.291688 -216.6353 
L 216.585608 -218.647253 
L 216.904669 -220.659206 
L 217.235624 -222.671159 
L 217.564587 -224.683112 
L 217.878587 -226.695065 
L 218.166883 -228.707018 
L 218.421832 -230.718971 
L 218.63922 -232.730924 
L 218.818105 -234.742877 
L 218.96027 -236.75483 
L 219.069456 -238.766783 
L 219.573498 -238.766783 
L 219.573498 -238.766783 
L 219.682684 -236.75483 
L 219.82485 -234.742877 
L 220.003735 -232.730924 
L 220.221123 -230.718971 
L 220.476071 -228.707018 
L 220.764368 -226.695065 
L 221.078368 -224.683112 
L 221.40733 -222.671159 
L 221.738286 -220.659206 
L 222.057346 -218.647253 
L 222.351266 -216.6353 
L 222.608987 -214.623347 
L 222.822881 -212.611394 
L 222.989466 -210.599441 
L 223.109506 -208.587488 
L 223.18752 -206.575535 
L 223.230903 -204.563582 
L 223.248931 -202.551629 
L 223.251928 -200.539676 
L 223.250812 -198.527723 
L 223.257093 -196.51577 
L 223.283269 -194.503817 
L 223.343385 -192.491864 
L 223.453476 -190.479911 
L 223.631599 -188.467958 
L 223.897211 -186.456005 
L 224.269805 -184.444052 
L 224.766886 -182.432099 
L 225.401551 -180.420146 
L 226.18007 -178.408193 
L 227.099995 -176.39624 
L 228.149267 -174.384287 
L 229.306704 -172.372334 
L 230.54402 -170.360381 
L 231.829229 -168.348428 
L 233.130934 -166.336475 
L 234.422793 -164.324522 
L 235.687239 -162.312569 
L 236.91766 -160.300616 
L 238.118456 -158.288663 
L 239.302834 -156.27671 
L 240.48871 -154.264757 
L 241.693523 -152.252804 
L 242.929045 -150.240851 
L 244.197271 -148.228899 
L 245.48823 -146.216946 
L 246.780078 -144.204993 
L 248.041333 -142.19304 
L 249.234636 -140.181087 
L 250.321175 -138.169134 
L 251.264913 -136.157181 
L 252.035915 -134.145228 
L 252.612432 -132.133275 
L 252.981703 -130.121322 
L 253.139659 -128.109369 
L 253.089873 -126.097416 
L 252.84204 -124.085463 
L 252.410251 -122.07351 
L 251.811208 -120.061557 
L 251.062512 -118.049604 
L 250.181105 -116.037651 
L 249.181999 -114.025698 
L 248.077401 -112.013745 
L 246.876355 -110.001792 
L 245.584987 -107.989839 
L 244.207324 -105.977886 
L 242.746654 -103.965933 
L 241.207204 -101.95398 
L 239.595938 -99.942027 
L 237.924143 -97.930074 
L 236.208519 -95.918121 
L 234.47152 -93.906168 
L 232.74079 -91.894215 
L 231.047685 -89.882262 
L 229.425054 -87.870309 
L 227.904558 -85.858356 
L 226.513925 -83.846403 
L 225.274529 -81.83445 
L 224.199645 -79.822497 
L 223.293589 -77.810544 
L 222.551827 -75.798591 
L 221.961988 -73.786638 
L 221.505585 -71.774685 
L 221.160199 -69.762732 
L 220.901821 -67.750779 
L 220.707074 -65.738826 
L 220.555067 -63.726873 
L 220.428717 -61.71492 
L 220.315441 -59.702967 
L 220.20723 -57.691014 
L 220.100178 -55.679061 
L 219.993633 -53.667108 
L 219.88914 -51.655155 
L 219.789381 -49.643202 
L 219.697247 -47.631249 
L 219.615155 -45.619296 
L 219.544657 -43.607343 
L 219.486307 -41.59539 
L 219.43974 -39.583437 
z
" style="stroke: #4c4c4c; stroke-width: 0.5"/>
    </defs>
    <g clip-path="url(#pe9a1baf54d)">
     <use xlink:href="#m43dc004f4e" x="0" y="258.463437" style="fill: #df8920; stroke: #4c4c4c; stroke-width: 0.5"/>
    </g>
   </g>
   <g id="line2d_1">
    <path d="M 134.776023 158.15221 
L 134.776023 54.811634 
" clip-path="url(#pe9a1baf54d)" style="fill: none; stroke: #4c4c4c; stroke-width: 0.75; stroke-linecap: round"/>
   </g>
   <g id="line2d_2">
    <path d="M 134.776023 120.094805 
L 134.776023 92.958914 
" clip-path="url(#pe9a1baf54d)" style="fill: none; stroke: #4c4c4c; stroke-width: 2.25; stroke-linecap: round"/>
   </g>
   <g id="line2d_3">
    <path d="M 134.776023 105.691034 
" clip-path="url(#pe9a1baf54d)" style="fill: none; stroke: #4c4c4c; stroke-width: 1.5; stroke-linecap: round"/>
    <defs>
     <path id="m131227c1d3" d="M 0.9375 0 
L -0.9375 -0 
" style="stroke: #ffffff; stroke-width: 0.45"/>
    </defs>
    <g clip-path="url(#pe9a1baf54d)">
     <use xlink:href="#m131227c1d3" x="134.776023" y="105.691034" style="fill: #ffffff; stroke: #ffffff; stroke-width: 0.45"/>
    </g>
   </g>
   <g id="line2d_4">
    <path d="M 219.321477 195.553889 
L 219.321477 57.658785 
" clip-path="url(#pe9a1baf54d)" style="fill: none; stroke: #4c4c4c; stroke-width: 0.75; stroke-linecap: round"/>
   </g>
   <g id="line2d_5">
    <path d="M 219.321477 145.34489 
L 219.321477 108.069694 
" clip-path="url(#pe9a1baf54d)" style="fill: none; stroke: #4c4c4c; stroke-width: 2.25; stroke-linecap: round"/>
   </g>
   <g id="line2d_6">
    <path d="M 219.321477 128.748106 
" clip-path="url(#pe9a1baf54d)" style="fill: none; stroke: #4c4c4c; stroke-width: 1.5; stroke-linecap: round"/>
    <g clip-path="url(#pe9a1baf54d)">
     <use xlink:href="#m131227c1d3" x="219.321477" y="128.748106" style="fill: #ffffff; stroke: #ffffff; stroke-width: 0.45"/>
    </g>
   </g>
   <g id="line2d_7">
    <path d="M 134.776023 41.506034 
L 134.776023 37.070834 
L 219.321477 37.070834 
L 219.321477 41.506034 
" style="fill: none; stroke: #333333; stroke-width: 0.5; stroke-linecap: round"/>
   </g>
   <g id="patch_3">
    <path d="M 93.34875 228.96 
L 93.34875 7.2 
" style="fill: none; stroke: #262626; stroke-width: 1.25; stroke-linejoin: miter; stroke-linecap: square"/>
   </g>
   <g id="patch_4">
    <path d="M 93.34875 228.96 
L 260.74875 228.96 
" style="fill: none; stroke: #262626; stroke-width: 1.25; stroke-linejoin: miter; stroke-linecap: square"/>
   </g>
   <g id="text_11">
    <!-- **** -->
    <g style="fill: #262626" transform="translate(166.150625 33.288334) scale(0.14 -0.14)">
     <defs>
      <path id="ArialMT-2a" d="M 200 3741 
L 344 4184 
Q 841 4009 1066 3881 
Q 1006 4447 1003 4659 
L 1456 4659 
Q 1447 4350 1384 3884 
Q 1706 4047 2122 4184 
L 2266 3741 
Q 1869 3609 1488 3566 
Q 1678 3400 2025 2975 
L 1650 2709 
Q 1469 2956 1222 3381 
Q 991 2941 816 2709 
L 447 2975 
Q 809 3422 966 3566 
Q 563 3644 200 3741 
z
" transform="scale(0.015625)"/>
     </defs>
     <use xlink:href="#ArialMT-2a"/>
     <use xlink:href="#ArialMT-2a" x="38.916016"/>
     <use xlink:href="#ArialMT-2a" x="77.832031"/>
     <use xlink:href="#ArialMT-2a" x="116.748047"/>
    </g>
   </g>
  </g>
 </g>
 <defs>
  <clipPath id="pe9a1baf54d">
   <rect x="93.34875" y="7.2" width="167.4" height="221.76"/>
  </clipPath>
 </defs>
</svg>
