<?xml version="1.0" encoding="utf-8" standalone="no"?>
<!DOCTYPE svg PUBLIC "-//W3C//DTD SVG 1.1//EN"
  "http://www.w3.org/Graphics/SVG/1.1/DTD/svg11.dtd">
<svg xmlns:xlink="http://www.w3.org/1999/xlink" width="251.746875pt" height="255.719844pt" viewBox="0 0 251.746875 255.719844" xmlns="http://www.w3.org/2000/svg" version="1.1">
 <metadata>
  <rdf:RDF xmlns:dc="http://purl.org/dc/elements/1.1/" xmlns:cc="http://creativecommons.org/ns#" xmlns:rdf="http://www.w3.org/1999/02/22-rdf-syntax-ns#">
   <cc:Work>
    <dc:type rdf:resource="http://purl.org/dc/dcmitype/StillImage"/>
    <dc:date>2025-07-21T12:10:49.603891</dc:date>
    <dc:format>image/svg+xml</dc:format>
    <dc:creator>
     <cc:Agent>
      <dc:title>Matplotlib v3.9.2, https://matplotlib.org/</dc:title>
     </cc:Agent>
    </dc:creator>
   </cc:Work>
  </rdf:RDF>
 </metadata>
 <defs>
  <style type="text/css">*{stroke-linejoin: round; stroke-linecap: butt}</style>
 </defs>
 <g id="figure_1">
  <g id="patch_1">
   <path d="M -0 255.719844 
L 251.746875 255.719844 
L 251.746875 0 
L -0 0 
z
" style="fill: #ffffff"/>
  </g>
  <g id="axes_1">
   <g id="patch_2">
    <path d="M 77.146875 228.96 
L 244.546875 228.96 
L 244.546875 7.2 
L 77.146875 7.2 
z
" style="fill: #ffffff"/>
   </g>
   <g id="matplotlib.axis_1">
    <g id="xtick_1">
     <g id="text_1">
      <!-- Term -->
      <g style="fill: #262626" transform="translate(106.355554 246.333594) scale(0.11 -0.11)">
       <defs>
        <path id="ArialMT-54" d="M 1659 0 
L 1659 4041 
L 150 4041 
L 150 4581 
L 3781 4581 
L 3781 4041 
L 2266 4041 
L 2266 0 
L 1659 0 
z
" transform="scale(0.015625)"/>
        <path id="ArialMT-65" d="M 2694 1069 
L 3275 997 
Q 3138 488 2766 206 
Q 2394 -75 1816 -75 
Q 1088 -75 661 373 
Q 234 822 234 1631 
Q 234 2469 665 2931 
Q 1097 3394 1784 3394 
Q 2450 3394 2872 2941 
Q 3294 2488 3294 1666 
Q 3294 1616 3291 1516 
L 816 1516 
Q 847 969 1125 678 
Q 1403 388 1819 388 
Q 2128 388 2347 550 
Q 2566 713 2694 1069 
z
M 847 1978 
L 2700 1978 
Q 2663 2397 2488 2606 
Q 2219 2931 1791 2931 
Q 1403 2931 1139 2672 
Q 875 2413 847 1978 
z
" transform="scale(0.015625)"/>
        <path id="ArialMT-72" d="M 416 0 
L 416 3319 
L 922 3319 
L 922 2816 
Q 1116 3169 1280 3281 
Q 1444 3394 1641 3394 
Q 1925 3394 2219 3213 
L 2025 2691 
Q 1819 2813 1613 2813 
Q 1428 2813 1281 2702 
Q 1134 2591 1072 2394 
Q 978 2094 978 1738 
L 978 0 
L 416 0 
z
" transform="scale(0.015625)"/>
        <path id="ArialMT-6d" d="M 422 0 
L 422 3319 
L 925 3319 
L 925 2853 
Q 1081 3097 1340 3245 
Q 1600 3394 1931 3394 
Q 2300 3394 2536 3241 
Q 2772 3088 2869 2813 
Q 3263 3394 3894 3394 
Q 4388 3394 4653 3120 
Q 4919 2847 4919 2278 
L 4919 0 
L 4359 0 
L 4359 2091 
Q 4359 2428 4304 2576 
Q 4250 2725 4106 2815 
Q 3963 2906 3769 2906 
Q 3419 2906 3187 2673 
Q 2956 2441 2956 1928 
L 2956 0 
L 2394 0 
L 2394 2156 
Q 2394 2531 2256 2718 
Q 2119 2906 1806 2906 
Q 1569 2906 1367 2781 
Q 1166 2656 1075 2415 
Q 984 2175 984 1722 
L 984 0 
L 422 0 
z
" transform="scale(0.015625)"/>
       </defs>
       <use xlink:href="#ArialMT-54"/>
       <use xlink:href="#ArialMT-65" x="49.958984"/>
       <use xlink:href="#ArialMT-72" x="105.574219"/>
       <use xlink:href="#ArialMT-6d" x="138.875"/>
      </g>
     </g>
    </g>
    <g id="xtick_2">
     <g id="text_2">
      <!-- Preterm -->
      <g style="fill: #262626" transform="translate(183.561946 246.333594) scale(0.11 -0.11)">
       <defs>
        <path id="ArialMT-50" d="M 494 0 
L 494 4581 
L 2222 4581 
Q 2678 4581 2919 4538 
Q 3256 4481 3484 4323 
Q 3713 4166 3852 3881 
Q 3991 3597 3991 3256 
Q 3991 2672 3619 2267 
Q 3247 1863 2275 1863 
L 1100 1863 
L 1100 0 
L 494 0 
z
M 1100 2403 
L 2284 2403 
Q 2872 2403 3119 2622 
Q 3366 2841 3366 3238 
Q 3366 3525 3220 3729 
Q 3075 3934 2838 4000 
Q 2684 4041 2272 4041 
L 1100 4041 
L 1100 2403 
z
" transform="scale(0.015625)"/>
        <path id="ArialMT-74" d="M 1650 503 
L 1731 6 
Q 1494 -44 1306 -44 
Q 1000 -44 831 53 
Q 663 150 594 308 
Q 525 466 525 972 
L 525 2881 
L 113 2881 
L 113 3319 
L 525 3319 
L 525 4141 
L 1084 4478 
L 1084 3319 
L 1650 3319 
L 1650 2881 
L 1084 2881 
L 1084 941 
Q 1084 700 1114 631 
Q 1144 563 1211 522 
Q 1278 481 1403 481 
Q 1497 481 1650 503 
z
" transform="scale(0.015625)"/>
       </defs>
       <use xlink:href="#ArialMT-50"/>
       <use xlink:href="#ArialMT-72" x="66.699219"/>
       <use xlink:href="#ArialMT-65" x="100"/>
       <use xlink:href="#ArialMT-74" x="155.615234"/>
       <use xlink:href="#ArialMT-65" x="183.398438"/>
       <use xlink:href="#ArialMT-72" x="239.013672"/>
       <use xlink:href="#ArialMT-6d" x="272.314453"/>
      </g>
     </g>
    </g>
   </g>
   <g id="matplotlib.axis_2">
    <g id="ytick_1">
     <g id="text_3">
      <!-- −100000 -->
      <g style="fill: #262626" transform="translate(24.52 209.451191) scale(0.11 -0.11)">
       <defs>
        <path id="ArialMT-2212" d="M 3381 1997 
L 356 1997 
L 356 2522 
L 3381 2522 
L 3381 1997 
z
" transform="scale(0.015625)"/>
        <path id="ArialMT-31" d="M 2384 0 
L 1822 0 
L 1822 3584 
Q 1619 3391 1289 3197 
Q 959 3003 697 2906 
L 697 3450 
Q 1169 3672 1522 3987 
Q 1875 4303 2022 4600 
L 2384 4600 
L 2384 0 
z
" transform="scale(0.015625)"/>
        <path id="ArialMT-30" d="M 266 2259 
Q 266 3072 433 3567 
Q 600 4063 929 4331 
Q 1259 4600 1759 4600 
Q 2128 4600 2406 4451 
Q 2684 4303 2865 4023 
Q 3047 3744 3150 3342 
Q 3253 2941 3253 2259 
Q 3253 1453 3087 958 
Q 2922 463 2592 192 
Q 2263 -78 1759 -78 
Q 1097 -78 719 397 
Q 266 969 266 2259 
z
M 844 2259 
Q 844 1131 1108 757 
Q 1372 384 1759 384 
Q 2147 384 2411 759 
Q 2675 1134 2675 2259 
Q 2675 3391 2411 3762 
Q 2147 4134 1753 4134 
Q 1366 4134 1134 3806 
Q 844 3388 844 2259 
z
" transform="scale(0.015625)"/>
       </defs>
       <use xlink:href="#ArialMT-2212"/>
       <use xlink:href="#ArialMT-31" x="58.398438"/>
       <use xlink:href="#ArialMT-30" x="114.013672"/>
       <use xlink:href="#ArialMT-30" x="169.628906"/>
       <use xlink:href="#ArialMT-30" x="225.244141"/>
       <use xlink:href="#ArialMT-30" x="280.859375"/>
       <use xlink:href="#ArialMT-30" x="336.474609"/>
      </g>
     </g>
    </g>
    <g id="ytick_2">
     <g id="text_4">
      <!-- −50000 -->
      <g style="fill: #262626" transform="translate(30.637031 172.473846) scale(0.11 -0.11)">
       <defs>
        <path id="ArialMT-35" d="M 266 1200 
L 856 1250 
Q 922 819 1161 601 
Q 1400 384 1738 384 
Q 2144 384 2425 690 
Q 2706 997 2706 1503 
Q 2706 1984 2436 2262 
Q 2166 2541 1728 2541 
Q 1456 2541 1237 2417 
Q 1019 2294 894 2097 
L 366 2166 
L 809 4519 
L 3088 4519 
L 3088 3981 
L 1259 3981 
L 1013 2750 
Q 1425 3038 1878 3038 
Q 2478 3038 2890 2622 
Q 3303 2206 3303 1553 
Q 3303 931 2941 478 
Q 2500 -78 1738 -78 
Q 1113 -78 717 272 
Q 322 622 266 1200 
z
" transform="scale(0.015625)"/>
       </defs>
       <use xlink:href="#ArialMT-2212"/>
       <use xlink:href="#ArialMT-35" x="58.398438"/>
       <use xlink:href="#ArialMT-30" x="114.013672"/>
       <use xlink:href="#ArialMT-30" x="169.628906"/>
       <use xlink:href="#ArialMT-30" x="225.244141"/>
       <use xlink:href="#ArialMT-30" x="280.859375"/>
      </g>
     </g>
    </g>
    <g id="ytick_3">
     <g id="text_5">
      <!-- 0 -->
      <g style="fill: #262626" transform="translate(61.529844 135.496502) scale(0.11 -0.11)">
       <use xlink:href="#ArialMT-30"/>
      </g>
     </g>
    </g>
    <g id="ytick_4">
     <g id="text_6">
      <!-- 50000 -->
      <g style="fill: #262626" transform="translate(37.061719 98.519158) scale(0.11 -0.11)">
       <use xlink:href="#ArialMT-35"/>
       <use xlink:href="#ArialMT-30" x="55.615234"/>
       <use xlink:href="#ArialMT-30" x="111.230469"/>
       <use xlink:href="#ArialMT-30" x="166.845703"/>
       <use xlink:href="#ArialMT-30" x="222.460938"/>
      </g>
     </g>
    </g>
    <g id="ytick_5">
     <g id="text_7">
      <!-- 100000 -->
      <g style="fill: #262626" transform="translate(30.944688 61.541814) scale(0.11 -0.11)">
       <use xlink:href="#ArialMT-31"/>
       <use xlink:href="#ArialMT-30" x="55.615234"/>
       <use xlink:href="#ArialMT-30" x="111.230469"/>
       <use xlink:href="#ArialMT-30" x="166.845703"/>
       <use xlink:href="#ArialMT-30" x="222.460938"/>
       <use xlink:href="#ArialMT-30" x="278.076172"/>
      </g>
     </g>
    </g>
    <g id="ytick_6">
     <g id="text_8">
      <!-- 150000 -->
      <g style="fill: #262626" transform="translate(30.944688 24.564469) scale(0.11 -0.11)">
       <use xlink:href="#ArialMT-31"/>
       <use xlink:href="#ArialMT-35" x="55.615234"/>
       <use xlink:href="#ArialMT-30" x="111.230469"/>
       <use xlink:href="#ArialMT-30" x="166.845703"/>
       <use xlink:href="#ArialMT-30" x="222.460938"/>
       <use xlink:href="#ArialMT-30" x="278.076172"/>
      </g>
     </g>
    </g>
    <g id="text_9">
     <!-- GMV residuals [mm$^3$] -->
     <g style="fill: #262626" transform="translate(18.12 175.32) rotate(-90) scale(0.12 -0.12)">
      <defs>
       <path id="ArialMT-47" d="M 2638 1797 
L 2638 2334 
L 4578 2338 
L 4578 638 
Q 4131 281 3656 101 
Q 3181 -78 2681 -78 
Q 2006 -78 1454 211 
Q 903 500 622 1047 
Q 341 1594 341 2269 
Q 341 2938 620 3517 
Q 900 4097 1425 4378 
Q 1950 4659 2634 4659 
Q 3131 4659 3532 4498 
Q 3934 4338 4162 4050 
Q 4391 3763 4509 3300 
L 3963 3150 
Q 3859 3500 3706 3700 
Q 3553 3900 3268 4020 
Q 2984 4141 2638 4141 
Q 2222 4141 1919 4014 
Q 1616 3888 1430 3681 
Q 1244 3475 1141 3228 
Q 966 2803 966 2306 
Q 966 1694 1177 1281 
Q 1388 869 1791 669 
Q 2194 469 2647 469 
Q 3041 469 3416 620 
Q 3791 772 3984 944 
L 3984 1797 
L 2638 1797 
z
" transform="scale(0.015625)"/>
       <path id="ArialMT-4d" d="M 475 0 
L 475 4581 
L 1388 4581 
L 2472 1338 
Q 2622 884 2691 659 
Q 2769 909 2934 1394 
L 4031 4581 
L 4847 4581 
L 4847 0 
L 4263 0 
L 4263 3834 
L 2931 0 
L 2384 0 
L 1059 3900 
L 1059 0 
L 475 0 
z
" transform="scale(0.015625)"/>
       <path id="ArialMT-56" d="M 1803 0 
L 28 4581 
L 684 4581 
L 1875 1253 
Q 2019 853 2116 503 
Q 2222 878 2363 1253 
L 3600 4581 
L 4219 4581 
L 2425 0 
L 1803 0 
z
" transform="scale(0.015625)"/>
       <path id="ArialMT-20" transform="scale(0.015625)"/>
       <path id="ArialMT-73" d="M 197 991 
L 753 1078 
Q 800 744 1014 566 
Q 1228 388 1613 388 
Q 2000 388 2187 545 
Q 2375 703 2375 916 
Q 2375 1106 2209 1216 
Q 2094 1291 1634 1406 
Q 1016 1563 777 1677 
Q 538 1791 414 1992 
Q 291 2194 291 2438 
Q 291 2659 392 2848 
Q 494 3038 669 3163 
Q 800 3259 1026 3326 
Q 1253 3394 1513 3394 
Q 1903 3394 2198 3281 
Q 2494 3169 2634 2976 
Q 2775 2784 2828 2463 
L 2278 2388 
Q 2241 2644 2061 2787 
Q 1881 2931 1553 2931 
Q 1166 2931 1000 2803 
Q 834 2675 834 2503 
Q 834 2394 903 2306 
Q 972 2216 1119 2156 
Q 1203 2125 1616 2013 
Q 2213 1853 2448 1751 
Q 2684 1650 2818 1456 
Q 2953 1263 2953 975 
Q 2953 694 2789 445 
Q 2625 197 2315 61 
Q 2006 -75 1616 -75 
Q 969 -75 630 194 
Q 291 463 197 991 
z
" transform="scale(0.015625)"/>
       <path id="ArialMT-69" d="M 425 3934 
L 425 4581 
L 988 4581 
L 988 3934 
L 425 3934 
z
M 425 0 
L 425 3319 
L 988 3319 
L 988 0 
L 425 0 
z
" transform="scale(0.015625)"/>
       <path id="ArialMT-64" d="M 2575 0 
L 2575 419 
Q 2259 -75 1647 -75 
Q 1250 -75 917 144 
Q 584 363 401 755 
Q 219 1147 219 1656 
Q 219 2153 384 2558 
Q 550 2963 881 3178 
Q 1213 3394 1622 3394 
Q 1922 3394 2156 3267 
Q 2391 3141 2538 2938 
L 2538 4581 
L 3097 4581 
L 3097 0 
L 2575 0 
z
M 797 1656 
Q 797 1019 1065 703 
Q 1334 388 1700 388 
Q 2069 388 2326 689 
Q 2584 991 2584 1609 
Q 2584 2291 2321 2609 
Q 2059 2928 1675 2928 
Q 1300 2928 1048 2622 
Q 797 2316 797 1656 
z
" transform="scale(0.015625)"/>
       <path id="ArialMT-75" d="M 2597 0 
L 2597 488 
Q 2209 -75 1544 -75 
Q 1250 -75 995 37 
Q 741 150 617 320 
Q 494 491 444 738 
Q 409 903 409 1263 
L 409 3319 
L 972 3319 
L 972 1478 
Q 972 1038 1006 884 
Q 1059 663 1231 536 
Q 1403 409 1656 409 
Q 1909 409 2131 539 
Q 2353 669 2445 892 
Q 2538 1116 2538 1541 
L 2538 3319 
L 3100 3319 
L 3100 0 
L 2597 0 
z
" transform="scale(0.015625)"/>
       <path id="ArialMT-61" d="M 2588 409 
Q 2275 144 1986 34 
Q 1697 -75 1366 -75 
Q 819 -75 525 192 
Q 231 459 231 875 
Q 231 1119 342 1320 
Q 453 1522 633 1644 
Q 813 1766 1038 1828 
Q 1203 1872 1538 1913 
Q 2219 1994 2541 2106 
Q 2544 2222 2544 2253 
Q 2544 2597 2384 2738 
Q 2169 2928 1744 2928 
Q 1347 2928 1158 2789 
Q 969 2650 878 2297 
L 328 2372 
Q 403 2725 575 2942 
Q 747 3159 1072 3276 
Q 1397 3394 1825 3394 
Q 2250 3394 2515 3294 
Q 2781 3194 2906 3042 
Q 3031 2891 3081 2659 
Q 3109 2516 3109 2141 
L 3109 1391 
Q 3109 606 3145 398 
Q 3181 191 3288 0 
L 2700 0 
Q 2613 175 2588 409 
z
M 2541 1666 
Q 2234 1541 1622 1453 
Q 1275 1403 1131 1340 
Q 988 1278 909 1158 
Q 831 1038 831 891 
Q 831 666 1001 516 
Q 1172 366 1500 366 
Q 1825 366 2078 508 
Q 2331 650 2450 897 
Q 2541 1088 2541 1459 
L 2541 1666 
z
" transform="scale(0.015625)"/>
       <path id="ArialMT-6c" d="M 409 0 
L 409 4581 
L 972 4581 
L 972 0 
L 409 0 
z
" transform="scale(0.015625)"/>
       <path id="ArialMT-5b" d="M 434 -1272 
L 434 4581 
L 1675 4581 
L 1675 4116 
L 997 4116 
L 997 -806 
L 1675 -806 
L 1675 -1272 
L 434 -1272 
z
" transform="scale(0.015625)"/>
       <path id="DejaVuSans-33" d="M 2597 2516 
Q 3050 2419 3304 2112 
Q 3559 1806 3559 1356 
Q 3559 666 3084 287 
Q 2609 -91 1734 -91 
Q 1441 -91 1130 -33 
Q 819 25 488 141 
L 488 750 
Q 750 597 1062 519 
Q 1375 441 1716 441 
Q 2309 441 2620 675 
Q 2931 909 2931 1356 
Q 2931 1769 2642 2001 
Q 2353 2234 1838 2234 
L 1294 2234 
L 1294 2753 
L 1863 2753 
Q 2328 2753 2575 2939 
Q 2822 3125 2822 3475 
Q 2822 3834 2567 4026 
Q 2313 4219 1838 4219 
Q 1578 4219 1281 4162 
Q 984 4106 628 3988 
L 628 4550 
Q 988 4650 1302 4700 
Q 1616 4750 1894 4750 
Q 2613 4750 3031 4423 
Q 3450 4097 3450 3541 
Q 3450 3153 3228 2886 
Q 3006 2619 2597 2516 
z
" transform="scale(0.015625)"/>
       <path id="ArialMT-5d" d="M 1363 -1272 
L 122 -1272 
L 122 -806 
L 800 -806 
L 800 4116 
L 122 4116 
L 122 4581 
L 1363 4581 
L 1363 -1272 
z
" transform="scale(0.015625)"/>
      </defs>
      <use xlink:href="#ArialMT-47" transform="translate(0 0.765625)"/>
      <use xlink:href="#ArialMT-4d" transform="translate(77.783203 0.765625)"/>
      <use xlink:href="#ArialMT-56" transform="translate(161.083984 0.765625)"/>
      <use xlink:href="#ArialMT-20" transform="translate(227.783203 0.765625)"/>
      <use xlink:href="#ArialMT-72" transform="translate(255.566406 0.765625)"/>
      <use xlink:href="#ArialMT-65" transform="translate(288.867188 0.765625)"/>
      <use xlink:href="#ArialMT-73" transform="translate(344.482422 0.765625)"/>
      <use xlink:href="#ArialMT-69" transform="translate(394.482422 0.765625)"/>
      <use xlink:href="#ArialMT-64" transform="translate(416.699219 0.765625)"/>
      <use xlink:href="#ArialMT-75" transform="translate(472.314453 0.765625)"/>
      <use xlink:href="#ArialMT-61" transform="translate(527.929688 0.765625)"/>
      <use xlink:href="#ArialMT-6c" transform="translate(583.544922 0.765625)"/>
      <use xlink:href="#ArialMT-73" transform="translate(605.761719 0.765625)"/>
      <use xlink:href="#ArialMT-20" transform="translate(655.761719 0.765625)"/>
      <use xlink:href="#ArialMT-5b" transform="translate(683.544922 0.765625)"/>
      <use xlink:href="#ArialMT-6d" transform="translate(711.328125 0.765625)"/>
      <use xlink:href="#ArialMT-6d" transform="translate(794.628906 0.765625)"/>
      <use xlink:href="#DejaVuSans-33" transform="translate(878.886719 39.046875) scale(0.7)"/>
      <use xlink:href="#ArialMT-5d" transform="translate(926.157227 0.765625)"/>
     </g>
    </g>
   </g>
   <g id="PolyCollection_1">
    <defs>
     <path id="m14a2cf7e90" d="M 118.781587 -53.364402 
L 118.366708 -53.364402 
L 118.287733 -55.179144 
L 118.186862 -56.993886 
L 118.060998 -58.808628 
L 117.907482 -60.62337 
L 117.724313 -62.438112 
L 117.510318 -64.252854 
L 117.265255 -66.067596 
L 116.989799 -67.882338 
L 116.685437 -69.69708 
L 116.354267 -71.511822 
L 115.998724 -73.326564 
L 115.621278 -75.141306 
L 115.22412 -76.956048 
L 114.808866 -78.77079 
L 114.376283 -80.585532 
L 113.926032 -82.400274 
L 113.456411 -84.215016 
L 112.964104 -86.029758 
L 112.443928 -87.8445 
L 111.888628 -89.659242 
L 111.288774 -91.473984 
L 110.632832 -93.288726 
L 109.907502 -95.103469 
L 109.098378 -96.918211 
L 108.190956 -98.732953 
L 107.171953 -100.547695 
L 106.03085 -102.362437 
L 104.761493 -104.177179 
L 103.363584 -105.991921 
L 101.843852 -107.806663 
L 100.216755 -109.621405 
L 98.504601 -111.436147 
L 96.737066 -113.250889 
L 94.950145 -115.065631 
L 93.184645 -116.880373 
L 91.484344 -118.695115 
L 89.89396 -120.509857 
L 88.457024 -122.324599 
L 87.213756 -124.139341 
L 86.199011 -125.954083 
L 85.440377 -127.768825 
L 84.956525 -129.583567 
L 84.755966 -131.398309 
L 84.836374 -133.213051 
L 85.184645 -135.027793 
L 85.777796 -136.842535 
L 86.584732 -138.657277 
L 87.568769 -140.472019 
L 88.690678 -142.286761 
L 89.911907 -144.101503 
L 91.197579 -145.916245 
L 92.518859 -147.730987 
L 93.854382 -149.545729 
L 95.190544 -151.360471 
L 96.52064 -153.175213 
L 97.843032 -154.989955 
L 99.158663 -156.804697 
L 100.468381 -158.619439 
L 101.770537 -160.434181 
L 103.05929 -162.248923 
L 104.323936 -164.063665 
L 105.549364 -165.878407 
L 106.717553 -167.693149 
L 107.809838 -169.507891 
L 108.8095 -171.322633 
L 109.704221 -173.137375 
L 110.487939 -174.952117 
L 111.16177 -176.766859 
L 111.733856 -178.581601 
L 112.218168 -180.396343 
L 112.6325 -182.211086 
L 112.996019 -184.025828 
L 113.326808 -185.84057 
L 113.639796 -187.655312 
L 113.945385 -189.470054 
L 114.24896 -191.284796 
L 114.551255 -193.099538 
L 114.849424 -194.91428 
L 115.138557 -196.729022 
L 115.4133 -198.543764 
L 115.66928 -200.358506 
L 115.904094 -202.173248 
L 116.117738 -203.98799 
L 116.312463 -205.802732 
L 116.492178 -207.617474 
L 116.661568 -209.432216 
L 116.825154 -211.246958 
L 116.986477 -213.0617 
L 117.147558 -214.876442 
L 117.308698 -216.691184 
L 117.468613 -218.505926 
L 117.624824 -220.320668 
L 117.774201 -222.13541 
L 117.913537 -223.950152 
L 118.040045 -225.764894 
L 118.151718 -227.579636 
L 118.247504 -229.394378 
L 118.327327 -231.20912 
L 118.391956 -233.023862 
L 118.75634 -233.023862 
L 118.75634 -233.023862 
L 118.820969 -231.20912 
L 118.900791 -229.394378 
L 118.996578 -227.579636 
L 119.10825 -225.764894 
L 119.234758 -223.950152 
L 119.374094 -222.13541 
L 119.523471 -220.320668 
L 119.679682 -218.505926 
L 119.839597 -216.691184 
L 120.000738 -214.876442 
L 120.161818 -213.0617 
L 120.323141 -211.246958 
L 120.486727 -209.432216 
L 120.656118 -207.617474 
L 120.835832 -205.802732 
L 121.030558 -203.98799 
L 121.244201 -202.173248 
L 121.479016 -200.358506 
L 121.734995 -198.543764 
L 122.009738 -196.729022 
L 122.298871 -194.91428 
L 122.59704 -193.099538 
L 122.899335 -191.284796 
L 123.202911 -189.470054 
L 123.5085 -187.655312 
L 123.821487 -185.84057 
L 124.152277 -184.025828 
L 124.515796 -182.211086 
L 124.930127 -180.396343 
L 125.414439 -178.581601 
L 125.986526 -176.766859 
L 126.660357 -174.952117 
L 127.444074 -173.137375 
L 128.338796 -171.322633 
L 129.338458 -169.507891 
L 130.430742 -167.693149 
L 131.598932 -165.878407 
L 132.824359 -164.063665 
L 134.089006 -162.248923 
L 135.377759 -160.434181 
L 136.679914 -158.619439 
L 137.989633 -156.804697 
L 139.305264 -154.989955 
L 140.627655 -153.175213 
L 141.957751 -151.360471 
L 143.293913 -149.545729 
L 144.629437 -147.730987 
L 145.950716 -145.916245 
L 147.236388 -144.101503 
L 148.457617 -142.286761 
L 149.579526 -140.472019 
L 150.563563 -138.657277 
L 151.370499 -136.842535 
L 151.96365 -135.027793 
L 152.311921 -133.213051 
L 152.39233 -131.398309 
L 152.19177 -129.583567 
L 151.707918 -127.768825 
L 150.949284 -125.954083 
L 149.934539 -124.139341 
L 148.691271 -122.324599 
L 147.254335 -120.509857 
L 145.663952 -118.695115 
L 143.963651 -116.880373 
L 142.19815 -115.065631 
L 140.411229 -113.250889 
L 138.643695 -111.436147 
L 136.931541 -109.621405 
L 135.304443 -107.806663 
L 133.784711 -105.991921 
L 132.386802 -104.177179 
L 131.117446 -102.362437 
L 129.976342 -100.547695 
L 128.95734 -98.732953 
L 128.049917 -96.918211 
L 127.240793 -95.103469 
L 126.515463 -93.288726 
L 125.859521 -91.473984 
L 125.259667 -89.659242 
L 124.704368 -87.8445 
L 124.184192 -86.029758 
L 123.691884 -84.215016 
L 123.222264 -82.400274 
L 122.772012 -80.585532 
L 122.339429 -78.77079 
L 121.924175 -76.956048 
L 121.527017 -75.141306 
L 121.149571 -73.326564 
L 120.794029 -71.511822 
L 120.462859 -69.69708 
L 120.158497 -67.882338 
L 119.883041 -66.067596 
L 119.637977 -64.252854 
L 119.423983 -62.438112 
L 119.240813 -60.62337 
L 119.087297 -58.808628 
L 118.961434 -56.993886 
L 118.860562 -55.179144 
L 118.781587 -53.364402 
z
" style="stroke: #4c4c4c; stroke-width: 0.5"/>
    </defs>
    <g clip-path="url(#pb3a8c80e76)">
     <use xlink:href="#m14a2cf7e90" x="0" y="255.719844" style="fill: #5573cd; stroke: #4c4c4c; stroke-width: 0.5"/>
    </g>
   </g>
   <g id="PolyCollection_2">
    <defs>
     <path id="mec63166edb" d="M 203.687305 -36.839844 
L 202.5519 -36.839844 
L 202.338265 -38.876207 
L 202.059876 -40.912571 
L 201.702825 -42.948935 
L 201.252042 -44.985298 
L 200.691752 -47.021662 
L 200.006122 -49.058026 
L 199.180089 -51.094389 
L 198.200361 -53.130753 
L 197.056558 -55.167116 
L 195.742439 -57.20348 
L 194.257136 -59.239844 
L 192.606289 -61.276207 
L 190.802952 -63.312571 
L 188.868149 -65.348935 
L 186.830931 -67.385298 
L 184.727852 -69.421662 
L 182.60178 -71.458026 
L 180.500072 -73.494389 
L 178.472171 -75.530753 
L 176.566801 -77.567116 
L 174.828994 -79.60348 
L 173.29722 -81.639844 
L 172.000922 -83.676207 
L 170.958729 -85.712571 
L 170.177541 -87.748935 
L 169.652607 -89.785298 
L 169.368579 -91.821662 
L 169.30142 -93.858026 
L 169.420941 -95.894389 
L 169.693675 -97.930753 
L 170.085769 -99.967116 
L 170.565597 -102.00348 
L 171.105843 -104.039844 
L 171.684904 -106.076207 
L 172.287538 -108.112571 
L 172.904799 -110.148935 
L 173.533362 -112.185298 
L 174.174401 -114.221662 
L 174.832219 -116.258026 
L 175.512811 -118.294389 
L 176.222531 -120.330753 
L 176.966989 -122.367116 
L 177.750254 -124.40348 
L 178.574402 -126.439844 
L 179.439383 -128.476207 
L 180.343177 -130.512571 
L 181.282141 -132.548935 
L 182.251489 -134.585298 
L 183.245786 -136.621662 
L 184.259397 -138.658026 
L 185.286824 -140.694389 
L 186.322876 -142.730753 
L 187.362687 -144.767116 
L 188.401572 -146.80348 
L 189.434786 -148.839844 
L 190.457228 -150.876207 
L 191.463163 -152.912571 
L 192.446024 -154.948935 
L 193.398342 -156.985298 
L 194.311828 -159.021662 
L 195.177625 -161.058026 
L 195.986696 -163.094389 
L 196.730316 -165.130753 
L 197.400622 -167.167116 
L 197.991147 -169.20348 
L 198.497312 -171.239844 
L 198.916799 -173.276207 
L 199.249801 -175.312571 
L 199.499113 -177.348935 
L 199.670074 -179.385298 
L 199.770369 -181.421662 
L 199.809703 -183.458026 
L 199.799388 -185.494389 
L 199.751859 -187.530753 
L 199.680153 -189.567116 
L 199.597366 -191.60348 
L 199.516123 -193.639844 
L 199.448064 -195.676207 
L 199.403377 -197.712571 
L 199.390389 -199.748935 
L 199.415236 -201.785298 
L 199.481641 -203.821662 
L 199.590811 -205.858026 
L 199.741477 -207.894389 
L 199.930071 -209.930753 
L 200.151058 -211.967116 
L 200.397373 -214.00348 
L 200.660959 -216.039844 
L 200.933339 -218.076207 
L 201.206186 -220.112571 
L 201.471837 -222.148935 
L 201.723712 -224.185298 
L 201.956602 -226.221662 
L 202.166819 -228.258026 
L 202.352214 -230.294389 
L 202.512064 -232.330753 
L 202.64688 -234.367116 
L 202.758146 -236.40348 
L 202.848038 -238.439844 
L 203.391166 -238.439844 
L 203.391166 -238.439844 
L 203.481058 -236.40348 
L 203.592324 -234.367116 
L 203.72714 -232.330753 
L 203.886991 -230.294389 
L 204.072386 -228.258026 
L 204.282603 -226.221662 
L 204.515492 -224.185298 
L 204.767367 -222.148935 
L 205.033019 -220.112571 
L 205.305865 -218.076207 
L 205.578245 -216.039844 
L 205.841831 -214.00348 
L 206.088147 -211.967116 
L 206.309134 -209.930753 
L 206.497728 -207.894389 
L 206.648393 -205.858026 
L 206.757564 -203.821662 
L 206.823969 -201.785298 
L 206.848816 -199.748935 
L 206.835828 -197.712571 
L 206.791141 -195.676207 
L 206.723082 -193.639844 
L 206.641839 -191.60348 
L 206.559052 -189.567116 
L 206.487345 -187.530753 
L 206.439817 -185.494389 
L 206.429502 -183.458026 
L 206.468835 -181.421662 
L 206.56913 -179.385298 
L 206.740092 -177.348935 
L 206.989404 -175.312571 
L 207.322406 -173.276207 
L 207.741893 -171.239844 
L 208.248057 -169.20348 
L 208.838583 -167.167116 
L 209.508888 -165.130753 
L 210.252509 -163.094389 
L 211.06158 -161.058026 
L 211.927377 -159.021662 
L 212.840863 -156.985298 
L 213.79318 -154.948935 
L 214.776042 -152.912571 
L 215.781977 -150.876207 
L 216.804419 -148.839844 
L 217.837633 -146.80348 
L 218.876518 -144.767116 
L 219.916328 -142.730753 
L 220.952381 -140.694389 
L 221.979807 -138.658026 
L 222.993419 -136.621662 
L 223.987715 -134.585298 
L 224.957063 -132.548935 
L 225.896028 -130.512571 
L 226.799822 -128.476207 
L 227.664803 -126.439844 
L 228.48895 -124.40348 
L 229.272216 -122.367116 
L 230.016673 -120.330753 
L 230.726394 -118.294389 
L 231.406986 -116.258026 
L 232.064804 -114.221662 
L 232.705843 -112.185298 
L 233.334406 -110.148935 
L 233.951667 -108.112571 
L 234.554301 -106.076207 
L 235.133361 -104.039844 
L 235.673607 -102.00348 
L 236.153435 -99.967116 
L 236.545529 -97.930753 
L 236.818263 -95.894389 
L 236.937784 -93.858026 
L 236.870625 -91.821662 
L 236.586597 -89.785298 
L 236.061663 -87.748935 
L 235.280475 -85.712571 
L 234.238282 -83.676207 
L 232.941985 -81.639844 
L 231.410211 -79.60348 
L 229.672404 -77.567116 
L 227.767034 -75.530753 
L 225.739132 -73.494389 
L 223.637424 -71.458026 
L 221.511353 -69.421662 
L 219.408273 -67.385298 
L 217.371055 -65.348935 
L 215.436252 -63.312571 
L 213.632916 -61.276207 
L 211.982068 -59.239844 
L 210.496766 -57.20348 
L 209.182646 -55.167116 
L 208.038843 -53.130753 
L 207.059115 -51.094389 
L 206.233083 -49.058026 
L 205.547453 -47.021662 
L 204.987163 -44.985298 
L 204.536379 -42.948935 
L 204.179329 -40.912571 
L 203.90094 -38.876207 
L 203.687305 -36.839844 
z
" style="stroke: #4c4c4c; stroke-width: 0.5"/>
    </defs>
    <g clip-path="url(#pb3a8c80e76)">
     <use xlink:href="#mec63166edb" x="0" y="255.719844" style="fill: #df8920; stroke: #4c4c4c; stroke-width: 0.5"/>
    </g>
   </g>
   <g id="line2d_1">
    <path d="M 118.574148 168.980557 
L 118.574148 69.490318 
" clip-path="url(#pb3a8c80e76)" style="fill: none; stroke: #4c4c4c; stroke-width: 0.75; stroke-linecap: round"/>
   </g>
   <g id="line2d_2">
    <path d="M 118.574148 135.506548 
L 118.574148 107.868217 
" clip-path="url(#pb3a8c80e76)" style="fill: none; stroke: #4c4c4c; stroke-width: 2.25; stroke-linecap: round"/>
   </g>
   <g id="line2d_3">
    <path d="M 118.574148 122.605058 
" clip-path="url(#pb3a8c80e76)" style="fill: none; stroke: #4c4c4c; stroke-width: 1.5; stroke-linecap: round"/>
    <defs>
     <path id="mfa87ec2ff1" d="M 0.9375 0 
L -0.9375 -0 
" style="stroke: #ffffff; stroke-width: 0.45"/>
    </defs>
    <g clip-path="url(#pb3a8c80e76)">
     <use xlink:href="#mfa87ec2ff1" x="118.574148" y="122.605058" style="fill: #ffffff; stroke: #ffffff; stroke-width: 0.45"/>
    </g>
   </g>
   <g id="line2d_4">
    <path d="M 203.119602 189.250613 
L 203.119602 66.190153 
" clip-path="url(#pb3a8c80e76)" style="fill: none; stroke: #4c4c4c; stroke-width: 0.75; stroke-linecap: round"/>
   </g>
   <g id="line2d_5">
    <path d="M 203.119602 168.826882 
L 203.119602 125.494112 
" clip-path="url(#pb3a8c80e76)" style="fill: none; stroke: #4c4c4c; stroke-width: 2.25; stroke-linecap: round"/>
   </g>
   <g id="line2d_6">
    <path d="M 203.119602 150.057129 
" clip-path="url(#pb3a8c80e76)" style="fill: none; stroke: #4c4c4c; stroke-width: 1.5; stroke-linecap: round"/>
    <g clip-path="url(#pb3a8c80e76)">
     <use xlink:href="#mfa87ec2ff1" x="203.119602" y="150.057129" style="fill: #ffffff; stroke: #ffffff; stroke-width: 0.45"/>
    </g>
   </g>
   <g id="line2d_7">
    <path d="M 118.574148 52.884553 
L 118.574148 48.449353 
L 203.119602 48.449353 
L 203.119602 52.884553 
" style="fill: none; stroke: #333333; stroke-width: 0.5; stroke-linecap: round"/>
   </g>
   <g id="patch_3">
    <path d="M 77.146875 228.96 
L 77.146875 7.2 
" style="fill: none; stroke: #262626; stroke-width: 1.25; stroke-linejoin: miter; stroke-linecap: square"/>
   </g>
   <g id="patch_4">
    <path d="M 77.146875 228.96 
L 244.546875 228.96 
" style="fill: none; stroke: #262626; stroke-width: 1.25; stroke-linejoin: miter; stroke-linecap: square"/>
   </g>
   <g id="text_10">
    <!-- **** -->
    <g style="fill: #262626" transform="translate(151.505625 45.064353) scale(0.12 -0.12)">
     <defs>
      <path id="ArialMT-2a" d="M 200 3741 
L 344 4184 
Q 841 4009 1066 3881 
Q 1006 4447 1003 4659 
L 1456 4659 
Q 1447 4350 1384 3884 
Q 1706 4047 2122 4184 
L 2266 3741 
Q 1869 3609 1488 3566 
Q 1678 3400 2025 2975 
L 1650 2709 
Q 1469 2956 1222 3381 
Q 991 2941 816 2709 
L 447 2975 
Q 809 3422 966 3566 
Q 563 3644 200 3741 
z
" transform="scale(0.015625)"/>
     </defs>
     <use xlink:href="#ArialMT-2a"/>
     <use xlink:href="#ArialMT-2a" x="38.916016"/>
     <use xlink:href="#ArialMT-2a" x="77.832031"/>
     <use xlink:href="#ArialMT-2a" x="116.748047"/>
    </g>
   </g>
  </g>
 </g>
 <defs>
  <clipPath id="pb3a8c80e76">
   <rect x="77.146875" y="7.2" width="167.4" height="221.76"/>
  </clipPath>
 </defs>
</svg>
