<?xml version="1.0" encoding="utf-8" standalone="no"?>
<!DOCTYPE svg PUBLIC "-//W3C//DTD SVG 1.1//EN"
  "http://www.w3.org/Graphics/SVG/1.1/DTD/svg11.dtd">
<svg xmlns:xlink="http://www.w3.org/1999/xlink" width="245.322187pt" height="255.719844pt" viewBox="0 0 245.322187 255.719844" xmlns="http://www.w3.org/2000/svg" version="1.1">
 <metadata>
  <rdf:RDF xmlns:dc="http://purl.org/dc/elements/1.1/" xmlns:cc="http://creativecommons.org/ns#" xmlns:rdf="http://www.w3.org/1999/02/22-rdf-syntax-ns#">
   <cc:Work>
    <dc:type rdf:resource="http://purl.org/dc/dcmitype/StillImage"/>
    <dc:date>2025-05-20T11:49:20.168584</dc:date>
    <dc:format>image/svg+xml</dc:format>
    <dc:creator>
     <cc:Agent>
      <dc:title>Matplotlib v3.9.2, https://matplotlib.org/</dc:title>
     </cc:Agent>
    </dc:creator>
   </cc:Work>
  </rdf:RDF>
 </metadata>
 <defs>
  <style type="text/css">*{stroke-linejoin: round; stroke-linecap: butt}</style>
 </defs>
 <g id="figure_1">
  <g id="patch_1">
   <path d="M -0 255.719844 
L 245.322188 255.719844 
L 245.322188 0 
L -0 0 
z
" style="fill: #ffffff"/>
  </g>
  <g id="axes_1">
   <g id="patch_2">
    <path d="M 70.722188 228.96 
L 238.122188 228.96 
L 238.122188 7.2 
L 70.722188 7.2 
z
" style="fill: #ffffff"/>
   </g>
   <g id="matplotlib.axis_1">
    <g id="xtick_1">
     <g id="text_1">
      <!-- Term -->
      <g style="fill: #262626" transform="translate(99.930866 246.333594) scale(0.11 -0.11)">
       <defs>
        <path id="ArialMT-54" d="M 1659 0 
L 1659 4041 
L 150 4041 
L 150 4581 
L 3781 4581 
L 3781 4041 
L 2266 4041 
L 2266 0 
L 1659 0 
z
" transform="scale(0.015625)"/>
        <path id="ArialMT-65" d="M 2694 1069 
L 3275 997 
Q 3138 488 2766 206 
Q 2394 -75 1816 -75 
Q 1088 -75 661 373 
Q 234 822 234 1631 
Q 234 2469 665 2931 
Q 1097 3394 1784 3394 
Q 2450 3394 2872 2941 
Q 3294 2488 3294 1666 
Q 3294 1616 3291 1516 
L 816 1516 
Q 847 969 1125 678 
Q 1403 388 1819 388 
Q 2128 388 2347 550 
Q 2566 713 2694 1069 
z
M 847 1978 
L 2700 1978 
Q 2663 2397 2488 2606 
Q 2219 2931 1791 2931 
Q 1403 2931 1139 2672 
Q 875 2413 847 1978 
z
" transform="scale(0.015625)"/>
        <path id="ArialMT-72" d="M 416 0 
L 416 3319 
L 922 3319 
L 922 2816 
Q 1116 3169 1280 3281 
Q 1444 3394 1641 3394 
Q 1925 3394 2219 3213 
L 2025 2691 
Q 1819 2813 1613 2813 
Q 1428 2813 1281 2702 
Q 1134 2591 1072 2394 
Q 978 2094 978 1738 
L 978 0 
L 416 0 
z
" transform="scale(0.015625)"/>
        <path id="ArialMT-6d" d="M 422 0 
L 422 3319 
L 925 3319 
L 925 2853 
Q 1081 3097 1340 3245 
Q 1600 3394 1931 3394 
Q 2300 3394 2536 3241 
Q 2772 3088 2869 2813 
Q 3263 3394 3894 3394 
Q 4388 3394 4653 3120 
Q 4919 2847 4919 2278 
L 4919 0 
L 4359 0 
L 4359 2091 
Q 4359 2428 4304 2576 
Q 4250 2725 4106 2815 
Q 3963 2906 3769 2906 
Q 3419 2906 3187 2673 
Q 2956 2441 2956 1928 
L 2956 0 
L 2394 0 
L 2394 2156 
Q 2394 2531 2256 2718 
Q 2119 2906 1806 2906 
Q 1569 2906 1367 2781 
Q 1166 2656 1075 2415 
Q 984 2175 984 1722 
L 984 0 
L 422 0 
z
" transform="scale(0.015625)"/>
       </defs>
       <use xlink:href="#ArialMT-54"/>
       <use xlink:href="#ArialMT-65" x="49.958984"/>
       <use xlink:href="#ArialMT-72" x="105.574219"/>
       <use xlink:href="#ArialMT-6d" x="138.875"/>
      </g>
     </g>
    </g>
    <g id="xtick_2">
     <g id="text_2">
      <!-- Preterm -->
      <g style="fill: #262626" transform="translate(177.137259 246.333594) scale(0.11 -0.11)">
       <defs>
        <path id="ArialMT-50" d="M 494 0 
L 494 4581 
L 2222 4581 
Q 2678 4581 2919 4538 
Q 3256 4481 3484 4323 
Q 3713 4166 3852 3881 
Q 3991 3597 3991 3256 
Q 3991 2672 3619 2267 
Q 3247 1863 2275 1863 
L 1100 1863 
L 1100 0 
L 494 0 
z
M 1100 2403 
L 2284 2403 
Q 2872 2403 3119 2622 
Q 3366 2841 3366 3238 
Q 3366 3525 3220 3729 
Q 3075 3934 2838 4000 
Q 2684 4041 2272 4041 
L 1100 4041 
L 1100 2403 
z
" transform="scale(0.015625)"/>
        <path id="ArialMT-74" d="M 1650 503 
L 1731 6 
Q 1494 -44 1306 -44 
Q 1000 -44 831 53 
Q 663 150 594 308 
Q 525 466 525 972 
L 525 2881 
L 113 2881 
L 113 3319 
L 525 3319 
L 525 4141 
L 1084 4478 
L 1084 3319 
L 1650 3319 
L 1650 2881 
L 1084 2881 
L 1084 941 
Q 1084 700 1114 631 
Q 1144 563 1211 522 
Q 1278 481 1403 481 
Q 1497 481 1650 503 
z
" transform="scale(0.015625)"/>
       </defs>
       <use xlink:href="#ArialMT-50"/>
       <use xlink:href="#ArialMT-72" x="66.699219"/>
       <use xlink:href="#ArialMT-65" x="100"/>
       <use xlink:href="#ArialMT-74" x="155.615234"/>
       <use xlink:href="#ArialMT-65" x="183.398438"/>
       <use xlink:href="#ArialMT-72" x="239.013672"/>
       <use xlink:href="#ArialMT-6d" x="272.314453"/>
      </g>
     </g>
    </g>
   </g>
   <g id="matplotlib.axis_2">
    <g id="ytick_1">
     <g id="text_3">
      <!-- 300000 -->
      <g style="fill: #262626" transform="translate(24.52 200.453147) scale(0.11 -0.11)">
       <defs>
        <path id="ArialMT-33" d="M 269 1209 
L 831 1284 
Q 928 806 1161 595 
Q 1394 384 1728 384 
Q 2125 384 2398 659 
Q 2672 934 2672 1341 
Q 2672 1728 2419 1979 
Q 2166 2231 1775 2231 
Q 1616 2231 1378 2169 
L 1441 2663 
Q 1497 2656 1531 2656 
Q 1891 2656 2178 2843 
Q 2466 3031 2466 3422 
Q 2466 3731 2256 3934 
Q 2047 4138 1716 4138 
Q 1388 4138 1169 3931 
Q 950 3725 888 3313 
L 325 3413 
Q 428 3978 793 4289 
Q 1159 4600 1703 4600 
Q 2078 4600 2393 4439 
Q 2709 4278 2876 4000 
Q 3044 3722 3044 3409 
Q 3044 3113 2884 2869 
Q 2725 2625 2413 2481 
Q 2819 2388 3044 2092 
Q 3269 1797 3269 1353 
Q 3269 753 2831 336 
Q 2394 -81 1725 -81 
Q 1122 -81 723 278 
Q 325 638 269 1209 
z
" transform="scale(0.015625)"/>
        <path id="ArialMT-30" d="M 266 2259 
Q 266 3072 433 3567 
Q 600 4063 929 4331 
Q 1259 4600 1759 4600 
Q 2128 4600 2406 4451 
Q 2684 4303 2865 4023 
Q 3047 3744 3150 3342 
Q 3253 2941 3253 2259 
Q 3253 1453 3087 958 
Q 2922 463 2592 192 
Q 2263 -78 1759 -78 
Q 1097 -78 719 397 
Q 266 969 266 2259 
z
M 844 2259 
Q 844 1131 1108 757 
Q 1372 384 1759 384 
Q 2147 384 2411 759 
Q 2675 1134 2675 2259 
Q 2675 3391 2411 3762 
Q 2147 4134 1753 4134 
Q 1366 4134 1134 3806 
Q 844 3388 844 2259 
z
" transform="scale(0.015625)"/>
       </defs>
       <use xlink:href="#ArialMT-33"/>
       <use xlink:href="#ArialMT-30" x="55.615234"/>
       <use xlink:href="#ArialMT-30" x="111.230469"/>
       <use xlink:href="#ArialMT-30" x="166.845703"/>
       <use xlink:href="#ArialMT-30" x="222.460938"/>
       <use xlink:href="#ArialMT-30" x="278.076172"/>
      </g>
     </g>
    </g>
    <g id="ytick_2">
     <g id="text_4">
      <!-- 400000 -->
      <g style="fill: #262626" transform="translate(24.52 152.707413) scale(0.11 -0.11)">
       <defs>
        <path id="ArialMT-34" d="M 2069 0 
L 2069 1097 
L 81 1097 
L 81 1613 
L 2172 4581 
L 2631 4581 
L 2631 1613 
L 3250 1613 
L 3250 1097 
L 2631 1097 
L 2631 0 
L 2069 0 
z
M 2069 1613 
L 2069 3678 
L 634 1613 
L 2069 1613 
z
" transform="scale(0.015625)"/>
       </defs>
       <use xlink:href="#ArialMT-34"/>
       <use xlink:href="#ArialMT-30" x="55.615234"/>
       <use xlink:href="#ArialMT-30" x="111.230469"/>
       <use xlink:href="#ArialMT-30" x="166.845703"/>
       <use xlink:href="#ArialMT-30" x="222.460938"/>
       <use xlink:href="#ArialMT-30" x="278.076172"/>
      </g>
     </g>
    </g>
    <g id="ytick_3">
     <g id="text_5">
      <!-- 500000 -->
      <g style="fill: #262626" transform="translate(24.52 104.96168) scale(0.11 -0.11)">
       <defs>
        <path id="ArialMT-35" d="M 266 1200 
L 856 1250 
Q 922 819 1161 601 
Q 1400 384 1738 384 
Q 2144 384 2425 690 
Q 2706 997 2706 1503 
Q 2706 1984 2436 2262 
Q 2166 2541 1728 2541 
Q 1456 2541 1237 2417 
Q 1019 2294 894 2097 
L 366 2166 
L 809 4519 
L 3088 4519 
L 3088 3981 
L 1259 3981 
L 1013 2750 
Q 1425 3038 1878 3038 
Q 2478 3038 2890 2622 
Q 3303 2206 3303 1553 
Q 3303 931 2941 478 
Q 2500 -78 1738 -78 
Q 1113 -78 717 272 
Q 322 622 266 1200 
z
" transform="scale(0.015625)"/>
       </defs>
       <use xlink:href="#ArialMT-35"/>
       <use xlink:href="#ArialMT-30" x="55.615234"/>
       <use xlink:href="#ArialMT-30" x="111.230469"/>
       <use xlink:href="#ArialMT-30" x="166.845703"/>
       <use xlink:href="#ArialMT-30" x="222.460938"/>
       <use xlink:href="#ArialMT-30" x="278.076172"/>
      </g>
     </g>
    </g>
    <g id="ytick_4">
     <g id="text_6">
      <!-- 600000 -->
      <g style="fill: #262626" transform="translate(24.52 57.215946) scale(0.11 -0.11)">
       <defs>
        <path id="ArialMT-36" d="M 3184 3459 
L 2625 3416 
Q 2550 3747 2413 3897 
Q 2184 4138 1850 4138 
Q 1581 4138 1378 3988 
Q 1113 3794 959 3422 
Q 806 3050 800 2363 
Q 1003 2672 1297 2822 
Q 1591 2972 1913 2972 
Q 2475 2972 2870 2558 
Q 3266 2144 3266 1488 
Q 3266 1056 3080 686 
Q 2894 316 2569 119 
Q 2244 -78 1831 -78 
Q 1128 -78 684 439 
Q 241 956 241 2144 
Q 241 3472 731 4075 
Q 1159 4600 1884 4600 
Q 2425 4600 2770 4297 
Q 3116 3994 3184 3459 
z
M 888 1484 
Q 888 1194 1011 928 
Q 1134 663 1356 523 
Q 1578 384 1822 384 
Q 2178 384 2434 671 
Q 2691 959 2691 1453 
Q 2691 1928 2437 2201 
Q 2184 2475 1800 2475 
Q 1419 2475 1153 2201 
Q 888 1928 888 1484 
z
" transform="scale(0.015625)"/>
       </defs>
       <use xlink:href="#ArialMT-36"/>
       <use xlink:href="#ArialMT-30" x="55.615234"/>
       <use xlink:href="#ArialMT-30" x="111.230469"/>
       <use xlink:href="#ArialMT-30" x="166.845703"/>
       <use xlink:href="#ArialMT-30" x="222.460938"/>
       <use xlink:href="#ArialMT-30" x="278.076172"/>
      </g>
     </g>
    </g>
    <g id="text_7">
     <!-- WMV [mm$^3$] -->
     <g style="fill: #262626" transform="translate(18.12 150.66) rotate(-90) scale(0.12 -0.12)">
      <defs>
       <path id="ArialMT-57" d="M 1294 0 
L 78 4581 
L 700 4581 
L 1397 1578 
Q 1509 1106 1591 641 
Q 1766 1375 1797 1488 
L 2669 4581 
L 3400 4581 
L 4056 2263 
Q 4303 1400 4413 641 
Q 4500 1075 4641 1638 
L 5359 4581 
L 5969 4581 
L 4713 0 
L 4128 0 
L 3163 3491 
Q 3041 3928 3019 4028 
Q 2947 3713 2884 3491 
L 1913 0 
L 1294 0 
z
" transform="scale(0.015625)"/>
       <path id="ArialMT-4d" d="M 475 0 
L 475 4581 
L 1388 4581 
L 2472 1338 
Q 2622 884 2691 659 
Q 2769 909 2934 1394 
L 4031 4581 
L 4847 4581 
L 4847 0 
L 4263 0 
L 4263 3834 
L 2931 0 
L 2384 0 
L 1059 3900 
L 1059 0 
L 475 0 
z
" transform="scale(0.015625)"/>
       <path id="ArialMT-56" d="M 1803 0 
L 28 4581 
L 684 4581 
L 1875 1253 
Q 2019 853 2116 503 
Q 2222 878 2363 1253 
L 3600 4581 
L 4219 4581 
L 2425 0 
L 1803 0 
z
" transform="scale(0.015625)"/>
       <path id="ArialMT-20" transform="scale(0.015625)"/>
       <path id="ArialMT-5b" d="M 434 -1272 
L 434 4581 
L 1675 4581 
L 1675 4116 
L 997 4116 
L 997 -806 
L 1675 -806 
L 1675 -1272 
L 434 -1272 
z
" transform="scale(0.015625)"/>
       <path id="DejaVuSans-33" d="M 2597 2516 
Q 3050 2419 3304 2112 
Q 3559 1806 3559 1356 
Q 3559 666 3084 287 
Q 2609 -91 1734 -91 
Q 1441 -91 1130 -33 
Q 819 25 488 141 
L 488 750 
Q 750 597 1062 519 
Q 1375 441 1716 441 
Q 2309 441 2620 675 
Q 2931 909 2931 1356 
Q 2931 1769 2642 2001 
Q 2353 2234 1838 2234 
L 1294 2234 
L 1294 2753 
L 1863 2753 
Q 2328 2753 2575 2939 
Q 2822 3125 2822 3475 
Q 2822 3834 2567 4026 
Q 2313 4219 1838 4219 
Q 1578 4219 1281 4162 
Q 984 4106 628 3988 
L 628 4550 
Q 988 4650 1302 4700 
Q 1616 4750 1894 4750 
Q 2613 4750 3031 4423 
Q 3450 4097 3450 3541 
Q 3450 3153 3228 2886 
Q 3006 2619 2597 2516 
z
" transform="scale(0.015625)"/>
       <path id="ArialMT-5d" d="M 1363 -1272 
L 122 -1272 
L 122 -806 
L 800 -806 
L 800 4116 
L 122 4116 
L 122 4581 
L 1363 4581 
L 1363 -1272 
z
" transform="scale(0.015625)"/>
      </defs>
      <use xlink:href="#ArialMT-57" transform="translate(0 0.765625)"/>
      <use xlink:href="#ArialMT-4d" transform="translate(94.384766 0.765625)"/>
      <use xlink:href="#ArialMT-56" transform="translate(177.685547 0.765625)"/>
      <use xlink:href="#ArialMT-20" transform="translate(244.384766 0.765625)"/>
      <use xlink:href="#ArialMT-5b" transform="translate(272.167969 0.765625)"/>
      <use xlink:href="#ArialMT-6d" transform="translate(299.951172 0.765625)"/>
      <use xlink:href="#ArialMT-6d" transform="translate(383.251953 0.765625)"/>
      <use xlink:href="#DejaVuSans-33" transform="translate(467.509766 39.046875) scale(0.7)"/>
      <use xlink:href="#ArialMT-5d" transform="translate(514.780273 0.765625)"/>
     </g>
    </g>
   </g>
   <g id="PolyCollection_1">
    <defs>
     <path id="mc198ca2f42" d="M 112.351044 -36.769385 
L 111.947876 -36.769385 
L 111.878385 -38.791514 
L 111.793383 -40.813644 
L 111.692527 -42.835773 
L 111.576579 -44.857903 
L 111.447606 -46.880032 
L 111.309049 -48.902162 
L 111.165608 -50.924291 
L 111.022932 -52.946421 
L 110.887108 -54.96855 
L 110.764001 -56.990679 
L 110.658514 -59.012809 
L 110.57387 -61.034938 
L 110.511029 -63.057068 
L 110.468321 -65.079197 
L 110.441357 -67.101327 
L 110.423214 -69.123456 
L 110.404842 -71.145586 
L 110.375592 -73.167715 
L 110.323742 -75.189845 
L 110.23689 -77.211974 
L 110.102144 -79.234104 
L 109.906075 -81.256233 
L 109.634497 -83.278363 
L 109.272204 -85.300492 
L 108.802851 -87.322622 
L 108.209155 -89.344751 
L 107.473597 -91.366881 
L 106.579654 -93.38901 
L 105.513547 -95.41114 
L 104.266288 -97.433269 
L 102.83577 -99.455399 
L 101.228523 -101.477528 
L 99.460817 -103.499658 
L 97.558846 -105.521787 
L 95.557875 -107.543917 
L 93.500394 -109.566046 
L 91.433492 -111.588175 
L 89.405788 -113.610305 
L 87.464295 -115.632434 
L 85.651597 -117.654564 
L 84.003607 -119.676693 
L 82.54809 -121.698823 
L 81.303958 -123.720952 
L 80.281294 -125.743082 
L 79.481949 -127.765211 
L 78.900568 -129.787341 
L 78.525907 -131.80947 
L 78.342309 -133.8316 
L 78.331278 -135.853729 
L 78.473035 -137.875859 
L 78.747975 -139.897988 
L 79.137906 -141.920118 
L 79.626963 -143.942247 
L 80.202089 -145.964377 
L 80.853047 -147.986506 
L 81.572001 -150.008636 
L 82.352775 -152.030765 
L 83.189956 -154.052895 
L 84.078042 -156.075024 
L 85.010783 -158.097154 
L 85.980832 -160.119283 
L 86.979698 -162.141413 
L 87.997968 -164.163542 
L 89.025678 -166.185671 
L 90.052738 -168.207801 
L 91.069353 -170.22993 
L 92.066407 -172.25206 
L 93.035842 -174.274189 
L 93.971071 -176.296319 
L 94.867434 -178.318448 
L 95.722675 -180.340578 
L 96.537332 -182.362707 
L 97.314936 -184.384837 
L 98.061879 -186.406966 
L 98.786877 -188.429096 
L 99.500039 -190.451225 
L 100.211625 -192.473355 
L 100.930702 -194.495484 
L 101.663886 -196.517614 
L 102.414411 -198.539743 
L 103.181665 -200.561873 
L 103.961247 -202.584002 
L 104.745519 -204.606132 
L 105.524517 -206.628261 
L 106.28705 -208.650391 
L 107.021819 -210.67252 
L 107.718391 -212.69465 
L 108.367942 -214.716779 
L 108.963718 -216.738909 
L 109.501245 -218.761038 
L 109.978306 -220.783167 
L 110.39477 -222.805297 
L 110.752317 -224.827426 
L 111.054107 -226.849556 
L 111.304434 -228.871685 
L 111.508378 -230.893815 
L 111.671482 -232.915944 
L 111.799446 -234.938074 
L 111.897875 -236.960203 
L 112.401045 -236.960203 
L 112.401045 -236.960203 
L 112.499474 -234.938074 
L 112.627439 -232.915944 
L 112.790542 -230.893815 
L 112.994486 -228.871685 
L 113.244813 -226.849556 
L 113.546603 -224.827426 
L 113.90415 -222.805297 
L 114.320615 -220.783167 
L 114.797676 -218.761038 
L 115.335202 -216.738909 
L 115.930979 -214.716779 
L 116.580529 -212.69465 
L 117.277102 -210.67252 
L 118.011871 -208.650391 
L 118.774404 -206.628261 
L 119.553401 -204.606132 
L 120.337673 -202.584002 
L 121.117256 -200.561873 
L 121.884509 -198.539743 
L 122.635035 -196.517614 
L 123.368218 -194.495484 
L 124.087295 -192.473355 
L 124.798882 -190.451225 
L 125.512043 -188.429096 
L 126.237041 -186.406966 
L 126.983984 -184.384837 
L 127.761588 -182.362707 
L 128.576245 -180.340578 
L 129.431486 -178.318448 
L 130.32785 -176.296319 
L 131.263078 -174.274189 
L 132.232513 -172.25206 
L 133.229567 -170.22993 
L 134.246182 -168.207801 
L 135.273243 -166.185671 
L 136.300952 -164.163542 
L 137.319223 -162.141413 
L 138.318089 -160.119283 
L 139.288137 -158.097154 
L 140.220879 -156.075024 
L 141.108964 -154.052895 
L 141.946146 -152.030765 
L 142.726919 -150.008636 
L 143.445873 -147.986506 
L 144.096831 -145.964377 
L 144.671957 -143.942247 
L 145.161015 -141.920118 
L 145.550946 -139.897988 
L 145.825885 -137.875859 
L 145.967642 -135.853729 
L 145.956612 -133.8316 
L 145.773014 -131.80947 
L 145.398352 -129.787341 
L 144.816972 -127.765211 
L 144.017627 -125.743082 
L 142.994963 -123.720952 
L 141.75083 -121.698823 
L 140.295313 -119.676693 
L 138.647324 -117.654564 
L 136.834625 -115.632434 
L 134.893133 -113.610305 
L 132.865428 -111.588175 
L 130.798527 -109.566046 
L 128.741045 -107.543917 
L 126.740074 -105.521787 
L 124.838104 -103.499658 
L 123.070397 -101.477528 
L 121.46315 -99.455399 
L 120.032632 -97.433269 
L 118.785374 -95.41114 
L 117.719266 -93.38901 
L 116.825324 -91.366881 
L 116.089765 -89.344751 
L 115.49607 -87.322622 
L 115.026716 -85.300492 
L 114.664423 -83.278363 
L 114.392845 -81.256233 
L 114.196776 -79.234104 
L 114.06203 -77.211974 
L 113.975178 -75.189845 
L 113.923328 -73.167715 
L 113.894079 -71.145586 
L 113.875707 -69.123456 
L 113.857564 -67.101327 
L 113.8306 -65.079197 
L 113.787891 -63.057068 
L 113.72505 -61.034938 
L 113.640406 -59.012809 
L 113.534919 -56.990679 
L 113.411813 -54.96855 
L 113.275989 -52.946421 
L 113.133312 -50.924291 
L 112.989871 -48.902162 
L 112.851314 -46.880032 
L 112.722342 -44.857903 
L 112.606394 -42.835773 
L 112.505537 -40.813644 
L 112.420535 -38.791514 
L 112.351044 -36.769385 
z
" style="stroke: #4c4c4c; stroke-width: 0.5"/>
    </defs>
    <g clip-path="url(#p7a97b661fc)">
     <use xlink:href="#mc198ca2f42" x="0" y="255.719844" style="fill: #5573cd; stroke: #4c4c4c; stroke-width: 0.5"/>
    </g>
   </g>
   <g id="PolyCollection_2">
    <defs>
     <path id="m66d4c2aa50" d="M 197.093963 -49.084532 
L 196.295867 -49.084532 
L 196.145338 -50.885746 
L 195.948386 -52.68696 
L 195.694489 -54.488175 
L 195.371977 -56.289389 
L 194.968293 -58.090604 
L 194.470398 -59.891818 
L 193.865349 -61.693033 
L 193.141028 -63.494247 
L 192.287037 -65.295461 
L 191.29571 -67.096676 
L 190.163191 -68.89789 
L 188.890503 -70.699105 
L 187.484494 -72.500319 
L 185.958547 -74.301533 
L 184.332934 -76.102748 
L 182.634699 -77.903962 
L 180.896993 -79.705177 
L 179.157825 -81.506391 
L 177.458267 -83.307606 
L 175.840199 -85.10882 
L 174.34375 -86.910034 
L 173.004658 -88.711249 
L 171.851775 -90.512463 
L 170.904954 -92.313678 
L 170.17353 -94.114892 
L 169.655541 -95.916107 
L 169.337785 -97.717321 
L 169.196675 -99.518535 
L 169.199863 -101.31975 
L 169.308441 -103.120964 
L 169.479567 -104.922179 
L 169.669302 -106.723393 
L 169.83543 -108.524608 
L 169.940093 -110.325822 
L 169.952061 -112.127036 
L 169.848504 -113.928251 
L 169.616174 -115.729465 
L 169.251941 -117.53068 
L 168.762662 -119.331894 
L 168.164424 -121.133109 
L 167.481215 -122.934323 
L 166.74316 -124.735537 
L 165.98445 -126.536752 
L 165.241151 -128.337966 
L 164.549055 -130.139181 
L 163.941741 -131.940395 
L 163.44898 -133.74161 
L 163.095545 -135.542824 
L 162.900471 -137.344038 
L 162.876733 -139.145253 
L 163.03129 -140.946467 
L 163.365398 -142.747682 
L 163.875118 -144.548896 
L 164.551946 -146.350111 
L 165.383507 -148.151325 
L 166.354288 -149.952539 
L 167.446403 -151.753754 
L 168.640378 -153.554968 
L 169.915963 -155.356183 
L 171.252931 -157.157397 
L 172.631843 -158.958612 
L 174.03471 -160.759826 
L 175.445502 -162.56104 
L 176.850456 -164.362255 
L 178.238133 -166.163469 
L 179.599253 -167.964684 
L 180.926316 -169.765898 
L 182.213103 -171.567113 
L 183.454134 -173.368327 
L 184.644189 -175.169541 
L 185.777984 -176.970756 
L 186.850061 -178.77197 
L 187.854913 -180.573185 
L 188.787328 -182.374399 
L 189.642884 -184.175614 
L 190.418507 -185.976828 
L 191.112984 -187.778042 
L 191.727341 -189.579257 
L 192.264989 -191.380471 
L 192.731633 -193.181686 
L 193.134906 -194.9829 
L 193.483807 -196.784115 
L 193.787991 -198.585329 
L 194.057024 -200.386543 
L 194.299677 -202.187758 
L 194.523371 -203.988972 
L 194.733799 -205.790187 
L 194.934778 -207.591401 
L 195.128311 -209.392616 
L 195.314833 -211.19383 
L 195.493576 -212.995044 
L 195.663004 -214.796259 
L 195.821252 -216.597473 
L 195.966503 -218.398688 
L 196.097291 -220.199902 
L 196.212689 -222.001117 
L 196.312398 -223.802331 
L 196.396735 -225.603545 
L 196.466557 -227.40476 
L 196.923273 -227.40476 
L 196.923273 -227.40476 
L 196.993094 -225.603545 
L 197.077431 -223.802331 
L 197.17714 -222.001117 
L 197.292539 -220.199902 
L 197.423327 -218.398688 
L 197.568578 -216.597473 
L 197.726825 -214.796259 
L 197.896254 -212.995044 
L 198.074996 -211.19383 
L 198.261518 -209.392616 
L 198.455052 -207.591401 
L 198.656031 -205.790187 
L 198.866459 -203.988972 
L 199.090152 -202.187758 
L 199.332806 -200.386543 
L 199.601838 -198.585329 
L 199.906023 -196.784115 
L 200.254924 -194.9829 
L 200.658197 -193.181686 
L 201.12484 -191.380471 
L 201.662489 -189.579257 
L 202.276845 -187.778042 
L 202.971323 -185.976828 
L 203.746946 -184.175614 
L 204.602502 -182.374399 
L 205.534917 -180.573185 
L 206.539769 -178.77197 
L 207.611846 -176.970756 
L 208.745641 -175.169541 
L 209.935696 -173.368327 
L 211.176726 -171.567113 
L 212.463514 -169.765898 
L 213.790577 -167.964684 
L 215.151696 -166.163469 
L 216.539374 -164.362255 
L 217.944327 -162.56104 
L 219.35512 -160.759826 
L 220.757986 -158.958612 
L 222.136898 -157.157397 
L 223.473867 -155.356183 
L 224.749452 -153.554968 
L 225.943427 -151.753754 
L 227.035541 -149.952539 
L 228.006323 -148.151325 
L 228.837884 -146.350111 
L 229.514712 -144.548896 
L 230.024432 -142.747682 
L 230.358539 -140.946467 
L 230.513097 -139.145253 
L 230.489359 -137.344038 
L 230.294284 -135.542824 
L 229.940849 -133.74161 
L 229.448088 -131.940395 
L 228.840775 -130.139181 
L 228.148678 -128.337966 
L 227.405379 -126.536752 
L 226.64667 -124.735537 
L 225.908614 -122.934323 
L 225.225406 -121.133109 
L 224.627167 -119.331894 
L 224.137889 -117.53068 
L 223.773656 -115.729465 
L 223.541326 -113.928251 
L 223.437769 -112.127036 
L 223.449737 -110.325822 
L 223.554399 -108.524608 
L 223.720527 -106.723393 
L 223.910262 -104.922179 
L 224.081389 -103.120964 
L 224.189966 -101.31975 
L 224.193154 -99.518535 
L 224.052045 -97.717321 
L 223.734288 -95.916107 
L 223.2163 -94.114892 
L 222.484875 -92.313678 
L 221.538054 -90.512463 
L 220.385171 -88.711249 
L 219.04608 -86.910034 
L 217.549631 -85.10882 
L 215.931562 -83.307606 
L 214.232005 -81.506391 
L 212.492837 -79.705177 
L 210.75513 -77.903962 
L 209.056896 -76.102748 
L 207.431283 -74.301533 
L 205.905336 -72.500319 
L 204.499327 -70.699105 
L 203.226639 -68.89789 
L 202.09412 -67.096676 
L 201.102792 -65.295461 
L 200.248801 -63.494247 
L 199.524481 -61.693033 
L 198.919431 -59.891818 
L 198.421537 -58.090604 
L 198.017852 -56.289389 
L 197.695341 -54.488175 
L 197.441444 -52.68696 
L 197.244491 -50.885746 
L 197.093963 -49.084532 
z
" style="stroke: #4c4c4c; stroke-width: 0.5"/>
    </defs>
    <g clip-path="url(#p7a97b661fc)">
     <use xlink:href="#m66d4c2aa50" x="0" y="255.719844" style="fill: #df8920; stroke: #4c4c4c; stroke-width: 0.5"/>
    </g>
   </g>
   <g id="line2d_1">
    <path d="M 112.14946 164.222568 
L 112.14946 45.063541 
" clip-path="url(#p7a97b661fc)" style="fill: none; stroke: #4c4c4c; stroke-width: 0.75; stroke-linecap: round"/>
   </g>
   <g id="line2d_2">
    <path d="M 112.14946 130.992493 
L 112.14946 92.083539 
" clip-path="url(#p7a97b661fc)" style="fill: none; stroke: #4c4c4c; stroke-width: 2.25; stroke-linecap: round"/>
   </g>
   <g id="line2d_3">
    <path d="M 112.14946 112.960361 
" clip-path="url(#p7a97b661fc)" style="fill: none; stroke: #4c4c4c; stroke-width: 1.5; stroke-linecap: round"/>
    <defs>
     <path id="m9dbe1be894" d="M 0.9375 0 
L -0.9375 -0 
" style="stroke: #ffffff; stroke-width: 0.45"/>
    </defs>
    <g clip-path="url(#p7a97b661fc)">
     <use xlink:href="#m9dbe1be894" x="112.14946" y="112.960361" style="fill: #ffffff; stroke: #ffffff; stroke-width: 0.45"/>
    </g>
   </g>
   <g id="line2d_4">
    <path d="M 196.694915 180.23792 
L 196.694915 54.712476 
" clip-path="url(#p7a97b661fc)" style="fill: none; stroke: #4c4c4c; stroke-width: 0.75; stroke-linecap: round"/>
   </g>
   <g id="line2d_5">
    <path d="M 196.694915 154.582108 
L 196.694915 107.71036 
" clip-path="url(#p7a97b661fc)" style="fill: none; stroke: #4c4c4c; stroke-width: 2.25; stroke-linecap: round"/>
   </g>
   <g id="line2d_6">
    <path d="M 196.694915 124.816343 
" clip-path="url(#p7a97b661fc)" style="fill: none; stroke: #4c4c4c; stroke-width: 1.5; stroke-linecap: round"/>
    <g clip-path="url(#p7a97b661fc)">
     <use xlink:href="#m9dbe1be894" x="196.694915" y="124.816343" style="fill: #ffffff; stroke: #ffffff; stroke-width: 0.45"/>
    </g>
   </g>
   <g id="line2d_7">
    <path d="M 112.14946 31.850947 
L 112.14946 27.446749 
L 196.694915 27.446749 
L 196.694915 31.850947 
" style="fill: none; stroke: #333333; stroke-width: 0.5; stroke-linecap: round"/>
   </g>
   <g id="patch_3">
    <path d="M 70.722188 228.96 
L 70.722188 7.2 
" style="fill: none; stroke: #262626; stroke-width: 1.25; stroke-linejoin: miter; stroke-linecap: square"/>
   </g>
   <g id="patch_4">
    <path d="M 70.722187 228.96 
L 238.122188 228.96 
" style="fill: none; stroke: #262626; stroke-width: 1.25; stroke-linejoin: miter; stroke-linecap: square"/>
   </g>
   <g id="text_8">
    <!-- ** -->
    <g style="fill: #262626" transform="translate(149.751563 24.061749) scale(0.12 -0.12)">
     <defs>
      <path id="ArialMT-2a" d="M 200 3741 
L 344 4184 
Q 841 4009 1066 3881 
Q 1006 4447 1003 4659 
L 1456 4659 
Q 1447 4350 1384 3884 
Q 1706 4047 2122 4184 
L 2266 3741 
Q 1869 3609 1488 3566 
Q 1678 3400 2025 2975 
L 1650 2709 
Q 1469 2956 1222 3381 
Q 991 2941 816 2709 
L 447 2975 
Q 809 3422 966 3566 
Q 563 3644 200 3741 
z
" transform="scale(0.015625)"/>
     </defs>
     <use xlink:href="#ArialMT-2a"/>
     <use xlink:href="#ArialMT-2a" x="38.916016"/>
    </g>
   </g>
  </g>
 </g>
 <defs>
  <clipPath id="p7a97b661fc">
   <rect x="70.722188" y="7.2" width="167.4" height="221.76"/>
  </clipPath>
 </defs>
</svg>
