<?xml version="1.0" encoding="utf-8" standalone="no"?>
<!DOCTYPE svg PUBLIC "-//W3C//DTD SVG 1.1//EN"
  "http://www.w3.org/Graphics/SVG/1.1/DTD/svg11.dtd">
<svg xmlns:xlink="http://www.w3.org/1999/xlink" width="245.322187pt" height="255.719844pt" viewBox="0 0 245.322187 255.719844" xmlns="http://www.w3.org/2000/svg" version="1.1">
 <metadata>
  <rdf:RDF xmlns:dc="http://purl.org/dc/elements/1.1/" xmlns:cc="http://creativecommons.org/ns#" xmlns:rdf="http://www.w3.org/1999/02/22-rdf-syntax-ns#">
   <cc:Work>
    <dc:type rdf:resource="http://purl.org/dc/dcmitype/StillImage"/>
    <dc:date>2025-05-20T11:49:19.988443</dc:date>
    <dc:format>image/svg+xml</dc:format>
    <dc:creator>
     <cc:Agent>
      <dc:title>Matplotlib v3.9.2, https://matplotlib.org/</dc:title>
     </cc:Agent>
    </dc:creator>
   </cc:Work>
  </rdf:RDF>
 </metadata>
 <defs>
  <style type="text/css">*{stroke-linejoin: round; stroke-linecap: butt}</style>
 </defs>
 <g id="figure_1">
  <g id="patch_1">
   <path d="M -0 255.719844 
L 245.322188 255.719844 
L 245.322188 0 
L -0 0 
z
" style="fill: #ffffff"/>
  </g>
  <g id="axes_1">
   <g id="patch_2">
    <path d="M 70.722188 228.96 
L 238.122188 228.96 
L 238.122188 7.2 
L 70.722188 7.2 
z
" style="fill: #ffffff"/>
   </g>
   <g id="matplotlib.axis_1">
    <g id="xtick_1">
     <g id="text_1">
      <!-- Term -->
      <g style="fill: #262626" transform="translate(99.930866 246.333594) scale(0.11 -0.11)">
       <defs>
        <path id="ArialMT-54" d="M 1659 0 
L 1659 4041 
L 150 4041 
L 150 4581 
L 3781 4581 
L 3781 4041 
L 2266 4041 
L 2266 0 
L 1659 0 
z
" transform="scale(0.015625)"/>
        <path id="ArialMT-65" d="M 2694 1069 
L 3275 997 
Q 3138 488 2766 206 
Q 2394 -75 1816 -75 
Q 1088 -75 661 373 
Q 234 822 234 1631 
Q 234 2469 665 2931 
Q 1097 3394 1784 3394 
Q 2450 3394 2872 2941 
Q 3294 2488 3294 1666 
Q 3294 1616 3291 1516 
L 816 1516 
Q 847 969 1125 678 
Q 1403 388 1819 388 
Q 2128 388 2347 550 
Q 2566 713 2694 1069 
z
M 847 1978 
L 2700 1978 
Q 2663 2397 2488 2606 
Q 2219 2931 1791 2931 
Q 1403 2931 1139 2672 
Q 875 2413 847 1978 
z
" transform="scale(0.015625)"/>
        <path id="ArialMT-72" d="M 416 0 
L 416 3319 
L 922 3319 
L 922 2816 
Q 1116 3169 1280 3281 
Q 1444 3394 1641 3394 
Q 1925 3394 2219 3213 
L 2025 2691 
Q 1819 2813 1613 2813 
Q 1428 2813 1281 2702 
Q 1134 2591 1072 2394 
Q 978 2094 978 1738 
L 978 0 
L 416 0 
z
" transform="scale(0.015625)"/>
        <path id="ArialMT-6d" d="M 422 0 
L 422 3319 
L 925 3319 
L 925 2853 
Q 1081 3097 1340 3245 
Q 1600 3394 1931 3394 
Q 2300 3394 2536 3241 
Q 2772 3088 2869 2813 
Q 3263 3394 3894 3394 
Q 4388 3394 4653 3120 
Q 4919 2847 4919 2278 
L 4919 0 
L 4359 0 
L 4359 2091 
Q 4359 2428 4304 2576 
Q 4250 2725 4106 2815 
Q 3963 2906 3769 2906 
Q 3419 2906 3187 2673 
Q 2956 2441 2956 1928 
L 2956 0 
L 2394 0 
L 2394 2156 
Q 2394 2531 2256 2718 
Q 2119 2906 1806 2906 
Q 1569 2906 1367 2781 
Q 1166 2656 1075 2415 
Q 984 2175 984 1722 
L 984 0 
L 422 0 
z
" transform="scale(0.015625)"/>
       </defs>
       <use xlink:href="#ArialMT-54"/>
       <use xlink:href="#ArialMT-65" x="49.958984"/>
       <use xlink:href="#ArialMT-72" x="105.574219"/>
       <use xlink:href="#ArialMT-6d" x="138.875"/>
      </g>
     </g>
    </g>
    <g id="xtick_2">
     <g id="text_2">
      <!-- Preterm -->
      <g style="fill: #262626" transform="translate(177.137259 246.333594) scale(0.11 -0.11)">
       <defs>
        <path id="ArialMT-50" d="M 494 0 
L 494 4581 
L 2222 4581 
Q 2678 4581 2919 4538 
Q 3256 4481 3484 4323 
Q 3713 4166 3852 3881 
Q 3991 3597 3991 3256 
Q 3991 2672 3619 2267 
Q 3247 1863 2275 1863 
L 1100 1863 
L 1100 0 
L 494 0 
z
M 1100 2403 
L 2284 2403 
Q 2872 2403 3119 2622 
Q 3366 2841 3366 3238 
Q 3366 3525 3220 3729 
Q 3075 3934 2838 4000 
Q 2684 4041 2272 4041 
L 1100 4041 
L 1100 2403 
z
" transform="scale(0.015625)"/>
        <path id="ArialMT-74" d="M 1650 503 
L 1731 6 
Q 1494 -44 1306 -44 
Q 1000 -44 831 53 
Q 663 150 594 308 
Q 525 466 525 972 
L 525 2881 
L 113 2881 
L 113 3319 
L 525 3319 
L 525 4141 
L 1084 4478 
L 1084 3319 
L 1650 3319 
L 1650 2881 
L 1084 2881 
L 1084 941 
Q 1084 700 1114 631 
Q 1144 563 1211 522 
Q 1278 481 1403 481 
Q 1497 481 1650 503 
z
" transform="scale(0.015625)"/>
       </defs>
       <use xlink:href="#ArialMT-50"/>
       <use xlink:href="#ArialMT-72" x="66.699219"/>
       <use xlink:href="#ArialMT-65" x="100"/>
       <use xlink:href="#ArialMT-74" x="155.615234"/>
       <use xlink:href="#ArialMT-65" x="183.398438"/>
       <use xlink:href="#ArialMT-72" x="239.013672"/>
       <use xlink:href="#ArialMT-6d" x="272.314453"/>
      </g>
     </g>
    </g>
   </g>
   <g id="matplotlib.axis_2">
    <g id="ytick_1">
     <g id="text_3">
      <!-- 450000 -->
      <g style="fill: #262626" transform="translate(24.52 220.003002) scale(0.11 -0.11)">
       <defs>
        <path id="ArialMT-34" d="M 2069 0 
L 2069 1097 
L 81 1097 
L 81 1613 
L 2172 4581 
L 2631 4581 
L 2631 1613 
L 3250 1613 
L 3250 1097 
L 2631 1097 
L 2631 0 
L 2069 0 
z
M 2069 1613 
L 2069 3678 
L 634 1613 
L 2069 1613 
z
" transform="scale(0.015625)"/>
        <path id="ArialMT-35" d="M 266 1200 
L 856 1250 
Q 922 819 1161 601 
Q 1400 384 1738 384 
Q 2144 384 2425 690 
Q 2706 997 2706 1503 
Q 2706 1984 2436 2262 
Q 2166 2541 1728 2541 
Q 1456 2541 1237 2417 
Q 1019 2294 894 2097 
L 366 2166 
L 809 4519 
L 3088 4519 
L 3088 3981 
L 1259 3981 
L 1013 2750 
Q 1425 3038 1878 3038 
Q 2478 3038 2890 2622 
Q 3303 2206 3303 1553 
Q 3303 931 2941 478 
Q 2500 -78 1738 -78 
Q 1113 -78 717 272 
Q 322 622 266 1200 
z
" transform="scale(0.015625)"/>
        <path id="ArialMT-30" d="M 266 2259 
Q 266 3072 433 3567 
Q 600 4063 929 4331 
Q 1259 4600 1759 4600 
Q 2128 4600 2406 4451 
Q 2684 4303 2865 4023 
Q 3047 3744 3150 3342 
Q 3253 2941 3253 2259 
Q 3253 1453 3087 958 
Q 2922 463 2592 192 
Q 2263 -78 1759 -78 
Q 1097 -78 719 397 
Q 266 969 266 2259 
z
M 844 2259 
Q 844 1131 1108 757 
Q 1372 384 1759 384 
Q 2147 384 2411 759 
Q 2675 1134 2675 2259 
Q 2675 3391 2411 3762 
Q 2147 4134 1753 4134 
Q 1366 4134 1134 3806 
Q 844 3388 844 2259 
z
" transform="scale(0.015625)"/>
       </defs>
       <use xlink:href="#ArialMT-34"/>
       <use xlink:href="#ArialMT-35" x="55.615234"/>
       <use xlink:href="#ArialMT-30" x="111.230469"/>
       <use xlink:href="#ArialMT-30" x="166.845703"/>
       <use xlink:href="#ArialMT-30" x="222.460938"/>
       <use xlink:href="#ArialMT-30" x="278.076172"/>
      </g>
     </g>
    </g>
    <g id="ytick_2">
     <g id="text_4">
      <!-- 500000 -->
      <g style="fill: #262626" transform="translate(24.52 192.126136) scale(0.11 -0.11)">
       <use xlink:href="#ArialMT-35"/>
       <use xlink:href="#ArialMT-30" x="55.615234"/>
       <use xlink:href="#ArialMT-30" x="111.230469"/>
       <use xlink:href="#ArialMT-30" x="166.845703"/>
       <use xlink:href="#ArialMT-30" x="222.460938"/>
       <use xlink:href="#ArialMT-30" x="278.076172"/>
      </g>
     </g>
    </g>
    <g id="ytick_3">
     <g id="text_5">
      <!-- 550000 -->
      <g style="fill: #262626" transform="translate(24.52 164.249269) scale(0.11 -0.11)">
       <use xlink:href="#ArialMT-35"/>
       <use xlink:href="#ArialMT-35" x="55.615234"/>
       <use xlink:href="#ArialMT-30" x="111.230469"/>
       <use xlink:href="#ArialMT-30" x="166.845703"/>
       <use xlink:href="#ArialMT-30" x="222.460938"/>
       <use xlink:href="#ArialMT-30" x="278.076172"/>
      </g>
     </g>
    </g>
    <g id="ytick_4">
     <g id="text_6">
      <!-- 600000 -->
      <g style="fill: #262626" transform="translate(24.52 136.372403) scale(0.11 -0.11)">
       <defs>
        <path id="ArialMT-36" d="M 3184 3459 
L 2625 3416 
Q 2550 3747 2413 3897 
Q 2184 4138 1850 4138 
Q 1581 4138 1378 3988 
Q 1113 3794 959 3422 
Q 806 3050 800 2363 
Q 1003 2672 1297 2822 
Q 1591 2972 1913 2972 
Q 2475 2972 2870 2558 
Q 3266 2144 3266 1488 
Q 3266 1056 3080 686 
Q 2894 316 2569 119 
Q 2244 -78 1831 -78 
Q 1128 -78 684 439 
Q 241 956 241 2144 
Q 241 3472 731 4075 
Q 1159 4600 1884 4600 
Q 2425 4600 2770 4297 
Q 3116 3994 3184 3459 
z
M 888 1484 
Q 888 1194 1011 928 
Q 1134 663 1356 523 
Q 1578 384 1822 384 
Q 2178 384 2434 671 
Q 2691 959 2691 1453 
Q 2691 1928 2437 2201 
Q 2184 2475 1800 2475 
Q 1419 2475 1153 2201 
Q 888 1928 888 1484 
z
" transform="scale(0.015625)"/>
       </defs>
       <use xlink:href="#ArialMT-36"/>
       <use xlink:href="#ArialMT-30" x="55.615234"/>
       <use xlink:href="#ArialMT-30" x="111.230469"/>
       <use xlink:href="#ArialMT-30" x="166.845703"/>
       <use xlink:href="#ArialMT-30" x="222.460938"/>
       <use xlink:href="#ArialMT-30" x="278.076172"/>
      </g>
     </g>
    </g>
    <g id="ytick_5">
     <g id="text_7">
      <!-- 650000 -->
      <g style="fill: #262626" transform="translate(24.52 108.495537) scale(0.11 -0.11)">
       <use xlink:href="#ArialMT-36"/>
       <use xlink:href="#ArialMT-35" x="55.615234"/>
       <use xlink:href="#ArialMT-30" x="111.230469"/>
       <use xlink:href="#ArialMT-30" x="166.845703"/>
       <use xlink:href="#ArialMT-30" x="222.460938"/>
       <use xlink:href="#ArialMT-30" x="278.076172"/>
      </g>
     </g>
    </g>
    <g id="ytick_6">
     <g id="text_8">
      <!-- 700000 -->
      <g style="fill: #262626" transform="translate(24.52 80.61867) scale(0.11 -0.11)">
       <defs>
        <path id="ArialMT-37" d="M 303 3981 
L 303 4522 
L 3269 4522 
L 3269 4084 
Q 2831 3619 2401 2847 
Q 1972 2075 1738 1259 
Q 1569 684 1522 0 
L 944 0 
Q 953 541 1156 1306 
Q 1359 2072 1739 2783 
Q 2119 3494 2547 3981 
L 303 3981 
z
" transform="scale(0.015625)"/>
       </defs>
       <use xlink:href="#ArialMT-37"/>
       <use xlink:href="#ArialMT-30" x="55.615234"/>
       <use xlink:href="#ArialMT-30" x="111.230469"/>
       <use xlink:href="#ArialMT-30" x="166.845703"/>
       <use xlink:href="#ArialMT-30" x="222.460938"/>
       <use xlink:href="#ArialMT-30" x="278.076172"/>
      </g>
     </g>
    </g>
    <g id="ytick_7">
     <g id="text_9">
      <!-- 750000 -->
      <g style="fill: #262626" transform="translate(24.52 52.741804) scale(0.11 -0.11)">
       <use xlink:href="#ArialMT-37"/>
       <use xlink:href="#ArialMT-35" x="55.615234"/>
       <use xlink:href="#ArialMT-30" x="111.230469"/>
       <use xlink:href="#ArialMT-30" x="166.845703"/>
       <use xlink:href="#ArialMT-30" x="222.460938"/>
       <use xlink:href="#ArialMT-30" x="278.076172"/>
      </g>
     </g>
    </g>
    <g id="ytick_8">
     <g id="text_10">
      <!-- 800000 -->
      <g style="fill: #262626" transform="translate(24.52 24.864938) scale(0.11 -0.11)">
       <defs>
        <path id="ArialMT-38" d="M 1131 2484 
Q 781 2613 612 2850 
Q 444 3088 444 3419 
Q 444 3919 803 4259 
Q 1163 4600 1759 4600 
Q 2359 4600 2725 4251 
Q 3091 3903 3091 3403 
Q 3091 3084 2923 2848 
Q 2756 2613 2416 2484 
Q 2838 2347 3058 2040 
Q 3278 1734 3278 1309 
Q 3278 722 2862 322 
Q 2447 -78 1769 -78 
Q 1091 -78 675 323 
Q 259 725 259 1325 
Q 259 1772 486 2073 
Q 713 2375 1131 2484 
z
M 1019 3438 
Q 1019 3113 1228 2906 
Q 1438 2700 1772 2700 
Q 2097 2700 2305 2904 
Q 2513 3109 2513 3406 
Q 2513 3716 2298 3927 
Q 2084 4138 1766 4138 
Q 1444 4138 1231 3931 
Q 1019 3725 1019 3438 
z
M 838 1322 
Q 838 1081 952 856 
Q 1066 631 1291 507 
Q 1516 384 1775 384 
Q 2178 384 2440 643 
Q 2703 903 2703 1303 
Q 2703 1709 2433 1975 
Q 2163 2241 1756 2241 
Q 1359 2241 1098 1978 
Q 838 1716 838 1322 
z
" transform="scale(0.015625)"/>
       </defs>
       <use xlink:href="#ArialMT-38"/>
       <use xlink:href="#ArialMT-30" x="55.615234"/>
       <use xlink:href="#ArialMT-30" x="111.230469"/>
       <use xlink:href="#ArialMT-30" x="166.845703"/>
       <use xlink:href="#ArialMT-30" x="222.460938"/>
       <use xlink:href="#ArialMT-30" x="278.076172"/>
      </g>
     </g>
    </g>
    <g id="text_11">
     <!-- GMV [mm$^3$] -->
     <g style="fill: #262626" transform="translate(18.12 149.64) rotate(-90) scale(0.12 -0.12)">
      <defs>
       <path id="ArialMT-47" d="M 2638 1797 
L 2638 2334 
L 4578 2338 
L 4578 638 
Q 4131 281 3656 101 
Q 3181 -78 2681 -78 
Q 2006 -78 1454 211 
Q 903 500 622 1047 
Q 341 1594 341 2269 
Q 341 2938 620 3517 
Q 900 4097 1425 4378 
Q 1950 4659 2634 4659 
Q 3131 4659 3532 4498 
Q 3934 4338 4162 4050 
Q 4391 3763 4509 3300 
L 3963 3150 
Q 3859 3500 3706 3700 
Q 3553 3900 3268 4020 
Q 2984 4141 2638 4141 
Q 2222 4141 1919 4014 
Q 1616 3888 1430 3681 
Q 1244 3475 1141 3228 
Q 966 2803 966 2306 
Q 966 1694 1177 1281 
Q 1388 869 1791 669 
Q 2194 469 2647 469 
Q 3041 469 3416 620 
Q 3791 772 3984 944 
L 3984 1797 
L 2638 1797 
z
" transform="scale(0.015625)"/>
       <path id="ArialMT-4d" d="M 475 0 
L 475 4581 
L 1388 4581 
L 2472 1338 
Q 2622 884 2691 659 
Q 2769 909 2934 1394 
L 4031 4581 
L 4847 4581 
L 4847 0 
L 4263 0 
L 4263 3834 
L 2931 0 
L 2384 0 
L 1059 3900 
L 1059 0 
L 475 0 
z
" transform="scale(0.015625)"/>
       <path id="ArialMT-56" d="M 1803 0 
L 28 4581 
L 684 4581 
L 1875 1253 
Q 2019 853 2116 503 
Q 2222 878 2363 1253 
L 3600 4581 
L 4219 4581 
L 2425 0 
L 1803 0 
z
" transform="scale(0.015625)"/>
       <path id="ArialMT-20" transform="scale(0.015625)"/>
       <path id="ArialMT-5b" d="M 434 -1272 
L 434 4581 
L 1675 4581 
L 1675 4116 
L 997 4116 
L 997 -806 
L 1675 -806 
L 1675 -1272 
L 434 -1272 
z
" transform="scale(0.015625)"/>
       <path id="DejaVuSans-33" d="M 2597 2516 
Q 3050 2419 3304 2112 
Q 3559 1806 3559 1356 
Q 3559 666 3084 287 
Q 2609 -91 1734 -91 
Q 1441 -91 1130 -33 
Q 819 25 488 141 
L 488 750 
Q 750 597 1062 519 
Q 1375 441 1716 441 
Q 2309 441 2620 675 
Q 2931 909 2931 1356 
Q 2931 1769 2642 2001 
Q 2353 2234 1838 2234 
L 1294 2234 
L 1294 2753 
L 1863 2753 
Q 2328 2753 2575 2939 
Q 2822 3125 2822 3475 
Q 2822 3834 2567 4026 
Q 2313 4219 1838 4219 
Q 1578 4219 1281 4162 
Q 984 4106 628 3988 
L 628 4550 
Q 988 4650 1302 4700 
Q 1616 4750 1894 4750 
Q 2613 4750 3031 4423 
Q 3450 4097 3450 3541 
Q 3450 3153 3228 2886 
Q 3006 2619 2597 2516 
z
" transform="scale(0.015625)"/>
       <path id="ArialMT-5d" d="M 1363 -1272 
L 122 -1272 
L 122 -806 
L 800 -806 
L 800 4116 
L 122 4116 
L 122 4581 
L 1363 4581 
L 1363 -1272 
z
" transform="scale(0.015625)"/>
      </defs>
      <use xlink:href="#ArialMT-47" transform="translate(0 0.765625)"/>
      <use xlink:href="#ArialMT-4d" transform="translate(77.783203 0.765625)"/>
      <use xlink:href="#ArialMT-56" transform="translate(161.083984 0.765625)"/>
      <use xlink:href="#ArialMT-20" transform="translate(227.783203 0.765625)"/>
      <use xlink:href="#ArialMT-5b" transform="translate(255.566406 0.765625)"/>
      <use xlink:href="#ArialMT-6d" transform="translate(283.349609 0.765625)"/>
      <use xlink:href="#ArialMT-6d" transform="translate(366.650391 0.765625)"/>
      <use xlink:href="#DejaVuSans-33" transform="translate(450.908203 39.046875) scale(0.7)"/>
      <use xlink:href="#ArialMT-5d" transform="translate(498.178711 0.765625)"/>
     </g>
    </g>
   </g>
   <g id="PolyCollection_1">
    <defs>
     <path id="mafc1f641fe" d="M 112.351646 -48.348911 
L 111.947274 -48.348911 
L 111.870556 -50.269022 
L 111.77264 -52.189132 
L 111.65054 -54.109243 
L 111.501694 -56.029353 
L 111.324187 -57.949464 
L 111.116929 -59.869574 
L 110.879763 -61.789684 
L 110.613486 -63.709795 
L 110.319763 -65.629905 
L 110.000948 -67.550016 
L 109.659815 -69.470126 
L 109.299236 -71.390237 
L 108.921824 -73.310347 
L 108.529574 -75.230457 
L 108.123544 -77.150568 
L 107.703592 -79.070678 
L 107.268231 -80.990789 
L 106.814624 -82.910899 
L 106.338767 -84.83101 
L 105.835876 -86.75112 
L 105.300982 -88.67123 
L 104.729683 -90.591341 
L 104.118972 -92.511451 
L 103.468016 -94.431562 
L 102.778725 -96.351672 
L 102.055978 -98.271783 
L 101.307387 -100.191893 
L 100.542554 -102.112003 
L 99.771871 -104.032114 
L 99.005001 -105.952224 
L 98.24926 -107.872335 
L 97.508167 -109.792445 
L 96.780437 -111.712556 
L 96.059614 -113.632666 
L 95.334491 -115.552776 
L 94.590278 -117.472887 
L 93.81039 -119.392997 
L 92.978592 -121.313108 
L 92.081196 -123.233218 
L 91.108982 -125.153329 
L 90.058615 -127.073439 
L 88.933426 -128.993549 
L 87.743572 -130.91366 
L 86.505705 -132.83377 
L 85.24236 -134.753881 
L 83.981266 -136.673991 
L 82.754716 -138.594102 
L 81.599008 -140.514212 
L 80.553856 -142.434322 
L 79.661559 -144.354433 
L 78.965683 -146.274543 
L 78.50909 -148.194654 
L 78.331278 -150.114764 
L 78.465177 -152.034875 
L 78.933749 -153.954985 
L 79.746876 -155.875095 
L 80.89906 -157.795206 
L 82.368398 -159.715316 
L 84.117111 -161.635427 
L 86.093685 -163.555537 
L 88.236399 -165.475648 
L 90.477797 -167.395758 
L 92.749555 -169.315868 
L 94.987096 -171.235979 
L 97.133476 -173.156089 
L 99.142145 -175.0762 
L 100.978446 -176.99631 
L 102.619898 -178.916421 
L 104.055468 -180.836531 
L 105.284134 -182.756641 
L 106.313059 -184.676752 
L 107.155643 -186.596862 
L 107.829685 -188.516973 
L 108.355749 -190.437083 
L 108.755785 -192.357193 
L 109.052025 -194.277304 
L 109.266088 -196.197414 
L 109.418298 -198.117525 
L 109.527168 -200.037635 
L 109.60903 -201.957746 
L 109.677806 -203.877856 
L 109.744875 -205.797966 
L 109.819044 -207.718077 
L 109.906583 -209.638187 
L 110.011313 -211.558298 
L 110.134763 -213.478408 
L 110.276369 -215.398519 
L 110.433766 -217.318629 
L 110.603137 -219.238739 
L 110.779653 -221.15885 
L 110.957954 -223.07896 
L 111.13265 -224.999071 
L 111.298784 -226.919181 
L 111.45222 -228.839292 
L 111.589902 -230.759402 
L 111.709986 -232.679512 
L 111.811815 -234.599623 
L 111.895794 -236.519733 
L 111.963164 -238.439844 
L 112.335756 -238.439844 
L 112.335756 -238.439844 
L 112.403127 -236.519733 
L 112.487105 -234.599623 
L 112.588935 -232.679512 
L 112.709018 -230.759402 
L 112.846701 -228.839292 
L 113.000136 -226.919181 
L 113.16627 -224.999071 
L 113.340966 -223.07896 
L 113.519268 -221.15885 
L 113.695784 -219.238739 
L 113.865155 -217.318629 
L 114.022551 -215.398519 
L 114.164158 -213.478408 
L 114.287607 -211.558298 
L 114.392338 -209.638187 
L 114.479876 -207.718077 
L 114.554046 -205.797966 
L 114.621115 -203.877856 
L 114.68989 -201.957746 
L 114.771753 -200.037635 
L 114.880622 -198.117525 
L 115.032832 -196.197414 
L 115.246895 -194.277304 
L 115.543135 -192.357193 
L 115.943172 -190.437083 
L 116.469235 -188.516973 
L 117.143278 -186.596862 
L 117.985862 -184.676752 
L 119.014786 -182.756641 
L 120.243453 -180.836531 
L 121.679023 -178.916421 
L 123.320474 -176.99631 
L 125.156775 -175.0762 
L 127.165444 -173.156089 
L 129.311825 -171.235979 
L 131.549366 -169.315868 
L 133.821123 -167.395758 
L 136.062522 -165.475648 
L 138.205235 -163.555537 
L 140.18181 -161.635427 
L 141.930523 -159.715316 
L 143.399861 -157.795206 
L 144.552045 -155.875095 
L 145.365171 -153.954985 
L 145.833743 -152.034875 
L 145.967642 -150.114764 
L 145.78983 -148.194654 
L 145.333238 -146.274543 
L 144.637361 -144.354433 
L 143.745064 -142.434322 
L 142.699913 -140.514212 
L 141.544205 -138.594102 
L 140.317654 -136.673991 
L 139.056561 -134.753881 
L 137.793216 -132.83377 
L 136.555348 -130.91366 
L 135.365494 -128.993549 
L 134.240306 -127.073439 
L 133.189938 -125.153329 
L 132.217724 -123.233218 
L 131.320328 -121.313108 
L 130.488531 -119.392997 
L 129.708642 -117.472887 
L 128.96443 -115.552776 
L 128.239307 -113.632666 
L 127.518484 -111.712556 
L 126.790753 -109.792445 
L 126.049661 -107.872335 
L 125.29392 -105.952224 
L 124.527049 -104.032114 
L 123.756366 -102.112003 
L 122.991533 -100.191893 
L 122.242942 -98.271783 
L 121.520196 -96.351672 
L 120.830904 -94.431562 
L 120.179948 -92.511451 
L 119.569238 -90.591341 
L 118.997938 -88.67123 
L 118.463044 -86.75112 
L 117.960153 -84.83101 
L 117.484296 -82.910899 
L 117.030689 -80.990789 
L 116.595328 -79.070678 
L 116.175377 -77.150568 
L 115.769346 -75.230457 
L 115.377097 -73.310347 
L 114.999684 -71.390237 
L 114.639105 -69.470126 
L 114.297972 -67.550016 
L 113.979157 -65.629905 
L 113.685435 -63.709795 
L 113.419157 -61.789684 
L 113.181991 -59.869574 
L 112.974733 -57.949464 
L 112.797226 -56.029353 
L 112.648381 -54.109243 
L 112.52628 -52.189132 
L 112.428364 -50.269022 
L 112.351646 -48.348911 
z
" style="stroke: #4c4c4c; stroke-width: 0.5"/>
    </defs>
    <g clip-path="url(#pbc0534e21e)">
     <use xlink:href="#mafc1f641fe" x="0" y="255.719844" style="fill: #5573cd; stroke: #4c4c4c; stroke-width: 0.5"/>
    </g>
   </g>
   <g id="PolyCollection_2">
    <defs>
     <path id="m77343cb70c" d="M 197.235901 -36.839844 
L 196.153929 -36.839844 
L 195.947401 -38.872484 
L 195.678229 -40.905124 
L 195.333712 -42.937764 
L 194.900753 -44.970405 
L 194.366621 -47.003045 
L 193.719906 -49.035685 
L 192.951637 -51.068325 
L 192.056461 -53.100966 
L 191.033796 -55.133606 
L 189.888812 -57.166246 
L 188.633092 -59.198886 
L 187.284841 -61.231526 
L 185.868514 -63.264167 
L 184.413823 -65.296807 
L 182.954104 -67.329447 
L 181.524146 -69.362087 
L 180.15765 -71.394728 
L 178.884535 -73.427368 
L 177.7284 -75.460008 
L 176.704409 -77.492648 
L 175.817873 -79.525288 
L 175.063727 -81.557929 
L 174.42699 -83.590569 
L 173.884208 -85.623209 
L 173.405747 -87.655849 
L 172.958687 -89.68849 
L 172.51004 -91.72113 
L 172.029939 -93.75377 
L 171.494473 -95.78641 
L 170.887887 -97.81905 
L 170.203954 -99.851691 
L 169.446395 -101.884331 
L 168.62837 -103.916971 
L 167.771122 -105.949611 
L 166.901948 -107.982252 
L 166.051751 -110.014892 
L 165.252407 -112.047532 
L 164.534227 -114.080172 
L 163.923729 -116.112812 
L 163.441913 -118.145453 
L 163.103135 -120.178093 
L 162.914643 -122.210733 
L 162.876733 -124.243373 
L 162.983447 -126.276014 
L 163.223684 -128.308654 
L 163.582581 -130.341294 
L 164.042997 -132.373934 
L 164.586977 -134.406575 
L 165.197076 -136.439215 
L 165.857474 -138.471855 
L 166.554822 -140.504495 
L 167.278825 -142.537135 
L 168.022542 -144.569776 
L 168.782442 -146.602416 
L 169.558235 -148.635056 
L 170.352487 -150.667696 
L 171.170075 -152.700337 
L 172.017483 -154.732977 
L 172.901992 -156.765617 
L 173.830792 -158.798257 
L 174.810069 -160.830897 
L 175.844133 -162.863538 
L 176.934637 -164.896178 
L 178.079967 -166.928818 
L 179.274849 -168.961458 
L 180.510238 -170.994099 
L 181.773497 -173.026739 
L 183.048886 -175.059379 
L 184.318332 -177.092019 
L 185.562428 -179.124659 
L 186.761588 -181.1573 
L 187.897262 -183.18994 
L 188.95311 -185.22258 
L 189.916027 -187.25522 
L 190.776939 -189.287861 
L 191.531275 -191.320501 
L 192.179105 -193.353141 
L 192.724909 -195.385781 
L 193.177014 -197.418421 
L 193.546766 -199.451062 
L 193.847514 -201.483702 
L 194.093501 -203.516342 
L 194.298791 -205.548982 
L 194.476305 -207.581623 
L 194.637068 -209.614263 
L 194.789702 -211.646903 
L 194.940204 -213.679543 
L 195.091986 -215.712183 
L 195.246146 -217.744824 
L 195.401909 -219.777464 
L 195.557166 -221.810104 
L 195.709041 -223.842744 
L 195.85442 -225.875385 
L 195.990392 -227.908025 
L 196.114574 -229.940665 
L 196.225304 -231.973305 
L 196.321716 -234.005945 
L 196.403709 -236.038586 
L 196.471838 -238.071226 
L 196.917992 -238.071226 
L 196.917992 -238.071226 
L 196.986121 -236.038586 
L 197.068113 -234.005945 
L 197.164526 -231.973305 
L 197.275256 -229.940665 
L 197.399437 -227.908025 
L 197.535409 -225.875385 
L 197.680788 -223.842744 
L 197.832664 -221.810104 
L 197.987921 -219.777464 
L 198.143684 -217.744824 
L 198.297844 -215.712183 
L 198.449625 -213.679543 
L 198.600127 -211.646903 
L 198.752762 -209.614263 
L 198.913524 -207.581623 
L 199.091039 -205.548982 
L 199.296328 -203.516342 
L 199.542315 -201.483702 
L 199.843063 -199.451062 
L 200.212816 -197.418421 
L 200.664921 -195.385781 
L 201.210724 -193.353141 
L 201.858555 -191.320501 
L 202.612891 -189.287861 
L 203.473802 -187.25522 
L 204.43672 -185.22258 
L 205.492567 -183.18994 
L 206.628241 -181.1573 
L 207.827402 -179.124659 
L 209.071498 -177.092019 
L 210.340944 -175.059379 
L 211.616332 -173.026739 
L 212.879591 -170.994099 
L 214.114981 -168.961458 
L 215.309863 -166.928818 
L 216.455192 -164.896178 
L 217.545696 -162.863538 
L 218.57976 -160.830897 
L 219.559037 -158.798257 
L 220.487837 -156.765617 
L 221.372347 -154.732977 
L 222.219755 -152.700337 
L 223.037343 -150.667696 
L 223.831595 -148.635056 
L 224.607387 -146.602416 
L 225.367288 -144.569776 
L 226.111004 -142.537135 
L 226.835007 -140.504495 
L 227.532356 -138.471855 
L 228.192754 -136.439215 
L 228.802853 -134.406575 
L 229.346832 -132.373934 
L 229.807248 -130.341294 
L 230.166145 -128.308654 
L 230.406383 -126.276014 
L 230.513097 -124.243373 
L 230.475187 -122.210733 
L 230.286695 -120.178093 
L 229.947917 -118.145453 
L 229.4661 -116.112812 
L 228.855603 -114.080172 
L 228.137422 -112.047532 
L 227.338079 -110.014892 
L 226.487882 -107.982252 
L 225.618708 -105.949611 
L 224.761459 -103.916971 
L 223.943435 -101.884331 
L 223.185876 -99.851691 
L 222.501942 -97.81905 
L 221.895357 -95.78641 
L 221.359891 -93.75377 
L 220.87979 -91.72113 
L 220.431143 -89.68849 
L 219.984082 -87.655849 
L 219.505621 -85.623209 
L 218.96284 -83.590569 
L 218.326102 -81.557929 
L 217.571956 -79.525288 
L 216.685421 -77.492648 
L 215.66143 -75.460008 
L 214.505295 -73.427368 
L 213.23218 -71.394728 
L 211.865683 -69.362087 
L 210.435726 -67.329447 
L 208.976007 -65.296807 
L 207.521316 -63.264167 
L 206.104989 -61.231526 
L 204.756737 -59.198886 
L 203.501018 -57.166246 
L 202.356033 -55.133606 
L 201.333368 -53.100966 
L 200.438192 -51.068325 
L 199.669923 -49.035685 
L 199.023209 -47.003045 
L 198.489076 -44.970405 
L 198.056117 -42.937764 
L 197.711601 -40.905124 
L 197.442429 -38.872484 
L 197.235901 -36.839844 
z
" style="stroke: #4c4c4c; stroke-width: 0.5"/>
    </defs>
    <g clip-path="url(#pbc0534e21e)">
     <use xlink:href="#m77343cb70c" x="0" y="255.719844" style="fill: #df8920; stroke: #4c4c4c; stroke-width: 0.5"/>
    </g>
   </g>
   <g id="line2d_1">
    <path d="M 112.14946 170.687413 
L 112.14946 56.773403 
" clip-path="url(#pbc0534e21e)" style="fill: none; stroke: #4c4c4c; stroke-width: 0.75; stroke-linecap: round"/>
   </g>
   <g id="line2d_2">
    <path d="M 112.14946 131.234275 
L 112.14946 100.128468 
" clip-path="url(#pbc0534e21e)" style="fill: none; stroke: #4c4c4c; stroke-width: 2.25; stroke-linecap: round"/>
   </g>
   <g id="line2d_3">
    <path d="M 112.14946 110.678414 
" clip-path="url(#pbc0534e21e)" style="fill: none; stroke: #4c4c4c; stroke-width: 1.5; stroke-linecap: round"/>
    <defs>
     <path id="m2d2836ecec" d="M 0.9375 0 
L -0.9375 -0 
" style="stroke: #ffffff; stroke-width: 0.45"/>
    </defs>
    <g clip-path="url(#pbc0534e21e)">
     <use xlink:href="#m2d2836ecec" x="112.14946" y="110.678414" style="fill: #ffffff; stroke: #ffffff; stroke-width: 0.45"/>
    </g>
   </g>
   <g id="line2d_4">
    <path d="M 196.694915 189.282445 
L 196.694915 47.246173 
" clip-path="url(#pbc0534e21e)" style="fill: none; stroke: #4c4c4c; stroke-width: 0.75; stroke-linecap: round"/>
   </g>
   <g id="line2d_5">
    <path d="M 196.694915 154.676848 
L 196.694915 108.937532 
" clip-path="url(#pbc0534e21e)" style="fill: none; stroke: #4c4c4c; stroke-width: 2.25; stroke-linecap: round"/>
   </g>
   <g id="line2d_6">
    <path d="M 196.694915 134.424511 
" clip-path="url(#pbc0534e21e)" style="fill: none; stroke: #4c4c4c; stroke-width: 1.5; stroke-linecap: round"/>
    <g clip-path="url(#pbc0534e21e)">
     <use xlink:href="#m2d2836ecec" x="196.694915" y="134.424511" style="fill: #ffffff; stroke: #ffffff; stroke-width: 0.45"/>
    </g>
   </g>
   <g id="line2d_7">
    <path d="M 112.14946 33.940573 
L 112.14946 29.505373 
L 196.694915 29.505373 
L 196.694915 33.940573 
" style="fill: none; stroke: #333333; stroke-width: 0.5; stroke-linecap: round"/>
   </g>
   <g id="patch_3">
    <path d="M 70.722188 228.96 
L 70.722188 7.2 
" style="fill: none; stroke: #262626; stroke-width: 1.25; stroke-linejoin: miter; stroke-linecap: square"/>
   </g>
   <g id="patch_4">
    <path d="M 70.722187 228.96 
L 238.122188 228.96 
" style="fill: none; stroke: #262626; stroke-width: 1.25; stroke-linejoin: miter; stroke-linecap: square"/>
   </g>
   <g id="text_12">
    <!-- ** -->
    <g style="fill: #262626" transform="translate(149.751563 26.120373) scale(0.12 -0.12)">
     <defs>
      <path id="ArialMT-2a" d="M 200 3741 
L 344 4184 
Q 841 4009 1066 3881 
Q 1006 4447 1003 4659 
L 1456 4659 
Q 1447 4350 1384 3884 
Q 1706 4047 2122 4184 
L 2266 3741 
Q 1869 3609 1488 3566 
Q 1678 3400 2025 2975 
L 1650 2709 
Q 1469 2956 1222 3381 
Q 991 2941 816 2709 
L 447 2975 
Q 809 3422 966 3566 
Q 563 3644 200 3741 
z
" transform="scale(0.015625)"/>
     </defs>
     <use xlink:href="#ArialMT-2a"/>
     <use xlink:href="#ArialMT-2a" x="38.916016"/>
    </g>
   </g>
  </g>
 </g>
 <defs>
  <clipPath id="pbc0534e21e">
   <rect x="70.722188" y="7.2" width="167.4" height="221.76"/>
  </clipPath>
 </defs>
</svg>
