<?xml version="1.0" encoding="utf-8" standalone="no"?>
<!DOCTYPE svg PUBLIC "-//W3C//DTD SVG 1.1//EN"
  "http://www.w3.org/Graphics/SVG/1.1/DTD/svg11.dtd">
<svg xmlns:xlink="http://www.w3.org/1999/xlink" width="239.205156pt" height="255.719844pt" viewBox="0 0 239.205156 255.719844" xmlns="http://www.w3.org/2000/svg" version="1.1">
 <metadata>
  <rdf:RDF xmlns:dc="http://purl.org/dc/elements/1.1/" xmlns:cc="http://creativecommons.org/ns#" xmlns:rdf="http://www.w3.org/1999/02/22-rdf-syntax-ns#">
   <cc:Work>
    <dc:type rdf:resource="http://purl.org/dc/dcmitype/StillImage"/>
    <dc:date>2024-11-26T14:18:12.117044</dc:date>
    <dc:format>image/svg+xml</dc:format>
    <dc:creator>
     <cc:Agent>
      <dc:title>Matplotlib v3.9.2, https://matplotlib.org/</dc:title>
     </cc:Agent>
    </dc:creator>
   </cc:Work>
  </rdf:RDF>
 </metadata>
 <defs>
  <style type="text/css">*{stroke-linejoin: round; stroke-linecap: butt}</style>
 </defs>
 <g id="figure_1">
  <g id="patch_1">
   <path d="M 0 255.719844 
L 239.205156 255.719844 
L 239.205156 0 
L 0 0 
z
" style="fill: #ffffff"/>
  </g>
  <g id="axes_1">
   <g id="patch_2">
    <path d="M 64.605156 228.96 
L 232.005156 228.96 
L 232.005156 7.2 
L 64.605156 7.2 
z
" style="fill: #ffffff"/>
   </g>
   <g id="matplotlib.axis_1">
    <g id="xtick_1">
     <g id="text_1">
      <!-- Term -->
      <g style="fill: #262626" transform="translate(93.813835 246.333594) scale(0.11 -0.11)">
       <defs>
        <path id="ArialMT-54" d="M 1659 0 
L 1659 4041 
L 150 4041 
L 150 4581 
L 3781 4581 
L 3781 4041 
L 2266 4041 
L 2266 0 
L 1659 0 
z
" transform="scale(0.015625)"/>
        <path id="ArialMT-65" d="M 2694 1069 
L 3275 997 
Q 3138 488 2766 206 
Q 2394 -75 1816 -75 
Q 1088 -75 661 373 
Q 234 822 234 1631 
Q 234 2469 665 2931 
Q 1097 3394 1784 3394 
Q 2450 3394 2872 2941 
Q 3294 2488 3294 1666 
Q 3294 1616 3291 1516 
L 816 1516 
Q 847 969 1125 678 
Q 1403 388 1819 388 
Q 2128 388 2347 550 
Q 2566 713 2694 1069 
z
M 847 1978 
L 2700 1978 
Q 2663 2397 2488 2606 
Q 2219 2931 1791 2931 
Q 1403 2931 1139 2672 
Q 875 2413 847 1978 
z
" transform="scale(0.015625)"/>
        <path id="ArialMT-72" d="M 416 0 
L 416 3319 
L 922 3319 
L 922 2816 
Q 1116 3169 1280 3281 
Q 1444 3394 1641 3394 
Q 1925 3394 2219 3213 
L 2025 2691 
Q 1819 2813 1613 2813 
Q 1428 2813 1281 2702 
Q 1134 2591 1072 2394 
Q 978 2094 978 1738 
L 978 0 
L 416 0 
z
" transform="scale(0.015625)"/>
        <path id="ArialMT-6d" d="M 422 0 
L 422 3319 
L 925 3319 
L 925 2853 
Q 1081 3097 1340 3245 
Q 1600 3394 1931 3394 
Q 2300 3394 2536 3241 
Q 2772 3088 2869 2813 
Q 3263 3394 3894 3394 
Q 4388 3394 4653 3120 
Q 4919 2847 4919 2278 
L 4919 0 
L 4359 0 
L 4359 2091 
Q 4359 2428 4304 2576 
Q 4250 2725 4106 2815 
Q 3963 2906 3769 2906 
Q 3419 2906 3187 2673 
Q 2956 2441 2956 1928 
L 2956 0 
L 2394 0 
L 2394 2156 
Q 2394 2531 2256 2718 
Q 2119 2906 1806 2906 
Q 1569 2906 1367 2781 
Q 1166 2656 1075 2415 
Q 984 2175 984 1722 
L 984 0 
L 422 0 
z
" transform="scale(0.015625)"/>
       </defs>
       <use xlink:href="#ArialMT-54"/>
       <use xlink:href="#ArialMT-65" x="49.958984"/>
       <use xlink:href="#ArialMT-72" x="105.574219"/>
       <use xlink:href="#ArialMT-6d" x="138.875"/>
      </g>
     </g>
    </g>
    <g id="xtick_2">
     <g id="text_2">
      <!-- Preterm -->
      <g style="fill: #262626" transform="translate(171.020227 246.333594) scale(0.11 -0.11)">
       <defs>
        <path id="ArialMT-50" d="M 494 0 
L 494 4581 
L 2222 4581 
Q 2678 4581 2919 4538 
Q 3256 4481 3484 4323 
Q 3713 4166 3852 3881 
Q 3991 3597 3991 3256 
Q 3991 2672 3619 2267 
Q 3247 1863 2275 1863 
L 1100 1863 
L 1100 0 
L 494 0 
z
M 1100 2403 
L 2284 2403 
Q 2872 2403 3119 2622 
Q 3366 2841 3366 3238 
Q 3366 3525 3220 3729 
Q 3075 3934 2838 4000 
Q 2684 4041 2272 4041 
L 1100 4041 
L 1100 2403 
z
" transform="scale(0.015625)"/>
        <path id="ArialMT-74" d="M 1650 503 
L 1731 6 
Q 1494 -44 1306 -44 
Q 1000 -44 831 53 
Q 663 150 594 308 
Q 525 466 525 972 
L 525 2881 
L 113 2881 
L 113 3319 
L 525 3319 
L 525 4141 
L 1084 4478 
L 1084 3319 
L 1650 3319 
L 1650 2881 
L 1084 2881 
L 1084 941 
Q 1084 700 1114 631 
Q 1144 563 1211 522 
Q 1278 481 1403 481 
Q 1497 481 1650 503 
z
" transform="scale(0.015625)"/>
       </defs>
       <use xlink:href="#ArialMT-50"/>
       <use xlink:href="#ArialMT-72" x="66.699219"/>
       <use xlink:href="#ArialMT-65" x="100"/>
       <use xlink:href="#ArialMT-74" x="155.615234"/>
       <use xlink:href="#ArialMT-65" x="183.398438"/>
       <use xlink:href="#ArialMT-72" x="239.013672"/>
       <use xlink:href="#ArialMT-6d" x="272.314453"/>
      </g>
     </g>
    </g>
   </g>
   <g id="matplotlib.axis_2">
    <g id="ytick_1">
     <g id="text_3">
      <!-- 30000 -->
      <g style="fill: #262626" transform="translate(24.52 221.634144) scale(0.11 -0.11)">
       <defs>
        <path id="ArialMT-33" d="M 269 1209 
L 831 1284 
Q 928 806 1161 595 
Q 1394 384 1728 384 
Q 2125 384 2398 659 
Q 2672 934 2672 1341 
Q 2672 1728 2419 1979 
Q 2166 2231 1775 2231 
Q 1616 2231 1378 2169 
L 1441 2663 
Q 1497 2656 1531 2656 
Q 1891 2656 2178 2843 
Q 2466 3031 2466 3422 
Q 2466 3731 2256 3934 
Q 2047 4138 1716 4138 
Q 1388 4138 1169 3931 
Q 950 3725 888 3313 
L 325 3413 
Q 428 3978 793 4289 
Q 1159 4600 1703 4600 
Q 2078 4600 2393 4439 
Q 2709 4278 2876 4000 
Q 3044 3722 3044 3409 
Q 3044 3113 2884 2869 
Q 2725 2625 2413 2481 
Q 2819 2388 3044 2092 
Q 3269 1797 3269 1353 
Q 3269 753 2831 336 
Q 2394 -81 1725 -81 
Q 1122 -81 723 278 
Q 325 638 269 1209 
z
" transform="scale(0.015625)"/>
        <path id="ArialMT-30" d="M 266 2259 
Q 266 3072 433 3567 
Q 600 4063 929 4331 
Q 1259 4600 1759 4600 
Q 2128 4600 2406 4451 
Q 2684 4303 2865 4023 
Q 3047 3744 3150 3342 
Q 3253 2941 3253 2259 
Q 3253 1453 3087 958 
Q 2922 463 2592 192 
Q 2263 -78 1759 -78 
Q 1097 -78 719 397 
Q 266 969 266 2259 
z
M 844 2259 
Q 844 1131 1108 757 
Q 1372 384 1759 384 
Q 2147 384 2411 759 
Q 2675 1134 2675 2259 
Q 2675 3391 2411 3762 
Q 2147 4134 1753 4134 
Q 1366 4134 1134 3806 
Q 844 3388 844 2259 
z
" transform="scale(0.015625)"/>
       </defs>
       <use xlink:href="#ArialMT-33"/>
       <use xlink:href="#ArialMT-30" x="55.615234"/>
       <use xlink:href="#ArialMT-30" x="111.230469"/>
       <use xlink:href="#ArialMT-30" x="166.845703"/>
       <use xlink:href="#ArialMT-30" x="222.460938"/>
      </g>
     </g>
    </g>
    <g id="ytick_2">
     <g id="text_4">
      <!-- 40000 -->
      <g style="fill: #262626" transform="translate(24.52 181.389589) scale(0.11 -0.11)">
       <defs>
        <path id="ArialMT-34" d="M 2069 0 
L 2069 1097 
L 81 1097 
L 81 1613 
L 2172 4581 
L 2631 4581 
L 2631 1613 
L 3250 1613 
L 3250 1097 
L 2631 1097 
L 2631 0 
L 2069 0 
z
M 2069 1613 
L 2069 3678 
L 634 1613 
L 2069 1613 
z
" transform="scale(0.015625)"/>
       </defs>
       <use xlink:href="#ArialMT-34"/>
       <use xlink:href="#ArialMT-30" x="55.615234"/>
       <use xlink:href="#ArialMT-30" x="111.230469"/>
       <use xlink:href="#ArialMT-30" x="166.845703"/>
       <use xlink:href="#ArialMT-30" x="222.460938"/>
      </g>
     </g>
    </g>
    <g id="ytick_3">
     <g id="text_5">
      <!-- 50000 -->
      <g style="fill: #262626" transform="translate(24.52 141.145034) scale(0.11 -0.11)">
       <defs>
        <path id="ArialMT-35" d="M 266 1200 
L 856 1250 
Q 922 819 1161 601 
Q 1400 384 1738 384 
Q 2144 384 2425 690 
Q 2706 997 2706 1503 
Q 2706 1984 2436 2262 
Q 2166 2541 1728 2541 
Q 1456 2541 1237 2417 
Q 1019 2294 894 2097 
L 366 2166 
L 809 4519 
L 3088 4519 
L 3088 3981 
L 1259 3981 
L 1013 2750 
Q 1425 3038 1878 3038 
Q 2478 3038 2890 2622 
Q 3303 2206 3303 1553 
Q 3303 931 2941 478 
Q 2500 -78 1738 -78 
Q 1113 -78 717 272 
Q 322 622 266 1200 
z
" transform="scale(0.015625)"/>
       </defs>
       <use xlink:href="#ArialMT-35"/>
       <use xlink:href="#ArialMT-30" x="55.615234"/>
       <use xlink:href="#ArialMT-30" x="111.230469"/>
       <use xlink:href="#ArialMT-30" x="166.845703"/>
       <use xlink:href="#ArialMT-30" x="222.460938"/>
      </g>
     </g>
    </g>
    <g id="ytick_4">
     <g id="text_6">
      <!-- 60000 -->
      <g style="fill: #262626" transform="translate(24.52 100.900479) scale(0.11 -0.11)">
       <defs>
        <path id="ArialMT-36" d="M 3184 3459 
L 2625 3416 
Q 2550 3747 2413 3897 
Q 2184 4138 1850 4138 
Q 1581 4138 1378 3988 
Q 1113 3794 959 3422 
Q 806 3050 800 2363 
Q 1003 2672 1297 2822 
Q 1591 2972 1913 2972 
Q 2475 2972 2870 2558 
Q 3266 2144 3266 1488 
Q 3266 1056 3080 686 
Q 2894 316 2569 119 
Q 2244 -78 1831 -78 
Q 1128 -78 684 439 
Q 241 956 241 2144 
Q 241 3472 731 4075 
Q 1159 4600 1884 4600 
Q 2425 4600 2770 4297 
Q 3116 3994 3184 3459 
z
M 888 1484 
Q 888 1194 1011 928 
Q 1134 663 1356 523 
Q 1578 384 1822 384 
Q 2178 384 2434 671 
Q 2691 959 2691 1453 
Q 2691 1928 2437 2201 
Q 2184 2475 1800 2475 
Q 1419 2475 1153 2201 
Q 888 1928 888 1484 
z
" transform="scale(0.015625)"/>
       </defs>
       <use xlink:href="#ArialMT-36"/>
       <use xlink:href="#ArialMT-30" x="55.615234"/>
       <use xlink:href="#ArialMT-30" x="111.230469"/>
       <use xlink:href="#ArialMT-30" x="166.845703"/>
       <use xlink:href="#ArialMT-30" x="222.460938"/>
      </g>
     </g>
    </g>
    <g id="ytick_5">
     <g id="text_7">
      <!-- 70000 -->
      <g style="fill: #262626" transform="translate(24.52 60.655924) scale(0.11 -0.11)">
       <defs>
        <path id="ArialMT-37" d="M 303 3981 
L 303 4522 
L 3269 4522 
L 3269 4084 
Q 2831 3619 2401 2847 
Q 1972 2075 1738 1259 
Q 1569 684 1522 0 
L 944 0 
Q 953 541 1156 1306 
Q 1359 2072 1739 2783 
Q 2119 3494 2547 3981 
L 303 3981 
z
" transform="scale(0.015625)"/>
       </defs>
       <use xlink:href="#ArialMT-37"/>
       <use xlink:href="#ArialMT-30" x="55.615234"/>
       <use xlink:href="#ArialMT-30" x="111.230469"/>
       <use xlink:href="#ArialMT-30" x="166.845703"/>
       <use xlink:href="#ArialMT-30" x="222.460938"/>
      </g>
     </g>
    </g>
    <g id="ytick_6">
     <g id="text_8">
      <!-- 80000 -->
      <g style="fill: #262626" transform="translate(24.52 20.411369) scale(0.11 -0.11)">
       <defs>
        <path id="ArialMT-38" d="M 1131 2484 
Q 781 2613 612 2850 
Q 444 3088 444 3419 
Q 444 3919 803 4259 
Q 1163 4600 1759 4600 
Q 2359 4600 2725 4251 
Q 3091 3903 3091 3403 
Q 3091 3084 2923 2848 
Q 2756 2613 2416 2484 
Q 2838 2347 3058 2040 
Q 3278 1734 3278 1309 
Q 3278 722 2862 322 
Q 2447 -78 1769 -78 
Q 1091 -78 675 323 
Q 259 725 259 1325 
Q 259 1772 486 2073 
Q 713 2375 1131 2484 
z
M 1019 3438 
Q 1019 3113 1228 2906 
Q 1438 2700 1772 2700 
Q 2097 2700 2305 2904 
Q 2513 3109 2513 3406 
Q 2513 3716 2298 3927 
Q 2084 4138 1766 4138 
Q 1444 4138 1231 3931 
Q 1019 3725 1019 3438 
z
M 838 1322 
Q 838 1081 952 856 
Q 1066 631 1291 507 
Q 1516 384 1775 384 
Q 2178 384 2440 643 
Q 2703 903 2703 1303 
Q 2703 1709 2433 1975 
Q 2163 2241 1756 2241 
Q 1359 2241 1098 1978 
Q 838 1716 838 1322 
z
" transform="scale(0.015625)"/>
       </defs>
       <use xlink:href="#ArialMT-38"/>
       <use xlink:href="#ArialMT-30" x="55.615234"/>
       <use xlink:href="#ArialMT-30" x="111.230469"/>
       <use xlink:href="#ArialMT-30" x="166.845703"/>
       <use xlink:href="#ArialMT-30" x="222.460938"/>
      </g>
     </g>
    </g>
    <g id="text_9">
     <!-- sGMV [mm$^3$] -->
     <g style="fill: #262626" transform="translate(18.12 152.64) rotate(-90) scale(0.12 -0.12)">
      <defs>
       <path id="ArialMT-73" d="M 197 991 
L 753 1078 
Q 800 744 1014 566 
Q 1228 388 1613 388 
Q 2000 388 2187 545 
Q 2375 703 2375 916 
Q 2375 1106 2209 1216 
Q 2094 1291 1634 1406 
Q 1016 1563 777 1677 
Q 538 1791 414 1992 
Q 291 2194 291 2438 
Q 291 2659 392 2848 
Q 494 3038 669 3163 
Q 800 3259 1026 3326 
Q 1253 3394 1513 3394 
Q 1903 3394 2198 3281 
Q 2494 3169 2634 2976 
Q 2775 2784 2828 2463 
L 2278 2388 
Q 2241 2644 2061 2787 
Q 1881 2931 1553 2931 
Q 1166 2931 1000 2803 
Q 834 2675 834 2503 
Q 834 2394 903 2306 
Q 972 2216 1119 2156 
Q 1203 2125 1616 2013 
Q 2213 1853 2448 1751 
Q 2684 1650 2818 1456 
Q 2953 1263 2953 975 
Q 2953 694 2789 445 
Q 2625 197 2315 61 
Q 2006 -75 1616 -75 
Q 969 -75 630 194 
Q 291 463 197 991 
z
" transform="scale(0.015625)"/>
       <path id="ArialMT-47" d="M 2638 1797 
L 2638 2334 
L 4578 2338 
L 4578 638 
Q 4131 281 3656 101 
Q 3181 -78 2681 -78 
Q 2006 -78 1454 211 
Q 903 500 622 1047 
Q 341 1594 341 2269 
Q 341 2938 620 3517 
Q 900 4097 1425 4378 
Q 1950 4659 2634 4659 
Q 3131 4659 3532 4498 
Q 3934 4338 4162 4050 
Q 4391 3763 4509 3300 
L 3963 3150 
Q 3859 3500 3706 3700 
Q 3553 3900 3268 4020 
Q 2984 4141 2638 4141 
Q 2222 4141 1919 4014 
Q 1616 3888 1430 3681 
Q 1244 3475 1141 3228 
Q 966 2803 966 2306 
Q 966 1694 1177 1281 
Q 1388 869 1791 669 
Q 2194 469 2647 469 
Q 3041 469 3416 620 
Q 3791 772 3984 944 
L 3984 1797 
L 2638 1797 
z
" transform="scale(0.015625)"/>
       <path id="ArialMT-4d" d="M 475 0 
L 475 4581 
L 1388 4581 
L 2472 1338 
Q 2622 884 2691 659 
Q 2769 909 2934 1394 
L 4031 4581 
L 4847 4581 
L 4847 0 
L 4263 0 
L 4263 3834 
L 2931 0 
L 2384 0 
L 1059 3900 
L 1059 0 
L 475 0 
z
" transform="scale(0.015625)"/>
       <path id="ArialMT-56" d="M 1803 0 
L 28 4581 
L 684 4581 
L 1875 1253 
Q 2019 853 2116 503 
Q 2222 878 2363 1253 
L 3600 4581 
L 4219 4581 
L 2425 0 
L 1803 0 
z
" transform="scale(0.015625)"/>
       <path id="ArialMT-20" transform="scale(0.015625)"/>
       <path id="ArialMT-5b" d="M 434 -1272 
L 434 4581 
L 1675 4581 
L 1675 4116 
L 997 4116 
L 997 -806 
L 1675 -806 
L 1675 -1272 
L 434 -1272 
z
" transform="scale(0.015625)"/>
       <path id="DejaVuSans-33" d="M 2597 2516 
Q 3050 2419 3304 2112 
Q 3559 1806 3559 1356 
Q 3559 666 3084 287 
Q 2609 -91 1734 -91 
Q 1441 -91 1130 -33 
Q 819 25 488 141 
L 488 750 
Q 750 597 1062 519 
Q 1375 441 1716 441 
Q 2309 441 2620 675 
Q 2931 909 2931 1356 
Q 2931 1769 2642 2001 
Q 2353 2234 1838 2234 
L 1294 2234 
L 1294 2753 
L 1863 2753 
Q 2328 2753 2575 2939 
Q 2822 3125 2822 3475 
Q 2822 3834 2567 4026 
Q 2313 4219 1838 4219 
Q 1578 4219 1281 4162 
Q 984 4106 628 3988 
L 628 4550 
Q 988 4650 1302 4700 
Q 1616 4750 1894 4750 
Q 2613 4750 3031 4423 
Q 3450 4097 3450 3541 
Q 3450 3153 3228 2886 
Q 3006 2619 2597 2516 
z
" transform="scale(0.015625)"/>
       <path id="ArialMT-5d" d="M 1363 -1272 
L 122 -1272 
L 122 -806 
L 800 -806 
L 800 4116 
L 122 4116 
L 122 4581 
L 1363 4581 
L 1363 -1272 
z
" transform="scale(0.015625)"/>
      </defs>
      <use xlink:href="#ArialMT-73" transform="translate(0 0.765625)"/>
      <use xlink:href="#ArialMT-47" transform="translate(50 0.765625)"/>
      <use xlink:href="#ArialMT-4d" transform="translate(127.783203 0.765625)"/>
      <use xlink:href="#ArialMT-56" transform="translate(211.083984 0.765625)"/>
      <use xlink:href="#ArialMT-20" transform="translate(277.783203 0.765625)"/>
      <use xlink:href="#ArialMT-5b" transform="translate(305.566406 0.765625)"/>
      <use xlink:href="#ArialMT-6d" transform="translate(333.349609 0.765625)"/>
      <use xlink:href="#ArialMT-6d" transform="translate(416.650391 0.765625)"/>
      <use xlink:href="#DejaVuSans-33" transform="translate(500.908203 39.046875) scale(0.7)"/>
      <use xlink:href="#ArialMT-5d" transform="translate(548.178711 0.765625)"/>
     </g>
    </g>
   </g>
   <g id="PolyCollection_1">
    <defs>
     <path id="m209a871a17" d="M 106.233286 -76.190964 
L 105.831572 -76.190964 
L 105.759147 -77.671871 
L 105.669996 -79.152779 
L 105.563868 -80.633687 
L 105.441859 -82.114594 
L 105.306639 -83.595502 
L 105.162484 -85.076409 
L 105.015056 -86.557317 
L 104.870886 -88.038225 
L 104.736568 -89.519132 
L 104.617723 -91.00004 
L 104.517839 -92.480947 
L 104.437142 -93.961855 
L 104.371658 -95.442763 
L 104.312639 -96.92367 
L 104.246479 -98.404578 
L 104.155197 -99.885485 
L 104.017507 -101.366393 
L 103.81041 -102.847301 
L 103.511177 -104.328208 
L 103.099534 -105.809116 
L 102.55981 -107.290023 
L 101.882777 -108.770931 
L 101.066944 -110.251838 
L 100.119069 -111.732746 
L 99.053775 -113.213654 
L 97.892243 -114.694561 
L 96.6601 -116.175469 
L 95.384736 -117.656376 
L 94.092399 -119.137284 
L 92.805441 -120.618192 
L 91.540104 -122.099099 
L 90.305122 -123.580007 
L 89.101357 -125.060914 
L 87.922491 -126.541822 
L 86.756706 -128.02273 
L 85.589149 -129.503637 
L 84.404912 -130.984545 
L 83.192168 -132.465452 
L 81.945118 -133.94636 
L 80.666363 -135.427268 
L 79.368379 -136.908175 
L 78.073836 -138.389083 
L 76.814632 -139.86999 
L 75.629665 -141.350898 
L 74.561538 -142.831806 
L 73.652578 -144.312713 
L 72.940634 -145.793621 
L 72.455186 -147.274528 
L 72.214247 -148.755436 
L 72.222449 -150.236343 
L 72.470514 -151.717251 
L 72.936186 -153.198159 
L 73.586492 -154.679066 
L 74.381088 -156.159974 
L 75.27635 -157.640881 
L 76.229784 -159.121789 
L 77.204284 -160.602697 
L 78.171781 -162.083604 
L 79.11582 -163.564512 
L 80.032716 -165.045419 
L 80.931064 -166.526327 
L 81.829593 -168.007235 
L 82.753605 -169.488142 
L 83.730443 -170.96905 
L 84.784658 -172.449957 
L 85.933586 -173.930865 
L 87.184027 -175.411773 
L 88.530513 -176.89268 
L 89.955413 -178.373588 
L 91.430765 -179.854495 
L 92.921475 -181.335403 
L 94.389297 -182.816311 
L 95.796931 -184.297218 
L 97.111638 -185.778126 
L 98.307927 -187.259033 
L 99.369076 -188.739941 
L 100.287499 -190.220848 
L 101.064116 -191.701756 
L 101.707036 -193.182664 
L 102.229835 -194.663571 
L 102.649724 -196.144479 
L 102.985791 -197.625386 
L 103.257437 -199.106294 
L 103.483057 -200.587202 
L 103.678983 -202.068109 
L 103.858704 -203.549017 
L 104.032367 -205.029924 
L 104.206581 -206.510832 
L 104.384528 -207.99174 
L 104.566364 -209.472647 
L 104.749865 -210.953555 
L 104.931228 -212.434462 
L 105.105915 -213.91537 
L 105.269449 -215.396278 
L 105.418037 -216.877185 
L 105.549001 -218.358093 
L 105.660956 -219.839 
L 105.753791 -221.319908 
L 105.828479 -222.800815 
L 106.236379 -222.800815 
L 106.236379 -222.800815 
L 106.311067 -221.319908 
L 106.403902 -219.839 
L 106.515857 -218.358093 
L 106.646821 -216.877185 
L 106.795409 -215.396278 
L 106.958942 -213.91537 
L 107.13363 -212.434462 
L 107.314993 -210.953555 
L 107.498494 -209.472647 
L 107.68033 -207.99174 
L 107.858277 -206.510832 
L 108.032491 -205.029924 
L 108.206154 -203.549017 
L 108.385875 -202.068109 
L 108.581801 -200.587202 
L 108.807421 -199.106294 
L 109.079067 -197.625386 
L 109.415134 -196.144479 
L 109.835023 -194.663571 
L 110.357822 -193.182664 
L 111.000741 -191.701756 
L 111.777359 -190.220848 
L 112.695782 -188.739941 
L 113.756931 -187.259033 
L 114.95322 -185.778126 
L 116.267927 -184.297218 
L 117.675561 -182.816311 
L 119.143383 -181.335403 
L 120.634093 -179.854495 
L 122.109445 -178.373588 
L 123.534345 -176.89268 
L 124.880831 -175.411773 
L 126.131272 -173.930865 
L 127.2802 -172.449957 
L 128.334415 -170.96905 
L 129.311253 -169.488142 
L 130.235265 -168.007235 
L 131.133794 -166.526327 
L 132.032142 -165.045419 
L 132.949038 -163.564512 
L 133.893077 -162.083604 
L 134.860574 -160.602697 
L 135.835074 -159.121789 
L 136.788508 -157.640881 
L 137.68377 -156.159974 
L 138.478366 -154.679066 
L 139.128672 -153.198159 
L 139.594344 -151.717251 
L 139.842409 -150.236343 
L 139.850611 -148.755436 
L 139.609672 -147.274528 
L 139.124224 -145.793621 
L 138.41228 -144.312713 
L 137.50332 -142.831806 
L 136.435193 -141.350898 
L 135.250226 -139.86999 
L 133.991022 -138.389083 
L 132.696479 -136.908175 
L 131.398495 -135.427268 
L 130.119739 -133.94636 
L 128.87269 -132.465452 
L 127.659946 -130.984545 
L 126.475709 -129.503637 
L 125.308152 -128.02273 
L 124.142367 -126.541822 
L 122.963501 -125.060914 
L 121.759736 -123.580007 
L 120.524754 -122.099099 
L 119.259417 -120.618192 
L 117.972459 -119.137284 
L 116.680122 -117.656376 
L 115.404758 -116.175469 
L 114.172615 -114.694561 
L 113.011083 -113.213654 
L 111.945789 -111.732746 
L 110.997914 -110.251838 
L 110.182081 -108.770931 
L 109.505048 -107.290023 
L 108.965324 -105.809116 
L 108.553681 -104.328208 
L 108.254448 -102.847301 
L 108.047351 -101.366393 
L 107.909661 -99.885485 
L 107.818379 -98.404578 
L 107.752219 -96.92367 
L 107.6932 -95.442763 
L 107.627716 -93.961855 
L 107.547019 -92.480947 
L 107.447135 -91.00004 
L 107.32829 -89.519132 
L 107.193972 -88.038225 
L 107.049801 -86.557317 
L 106.902374 -85.076409 
L 106.758219 -83.595502 
L 106.622999 -82.114594 
L 106.50099 -80.633687 
L 106.394862 -79.152779 
L 106.30571 -77.671871 
L 106.233286 -76.190964 
z
" style="stroke: #4c4c4c; stroke-width: 1.25"/>
    </defs>
    <g clip-path="url(#pae43e9ce5e)">
     <use xlink:href="#m209a871a17" x="0" y="255.719844" style="fill: #5573cd; stroke: #4c4c4c; stroke-width: 1.25"/>
    </g>
   </g>
   <g id="PolyCollection_2">
    <defs>
     <path id="m47e3ba085d" d="M 191.030723 -36.839844 
L 190.125044 -36.839844 
L 189.950971 -38.876207 
L 189.726417 -40.912571 
L 189.442744 -42.948935 
L 189.091636 -44.985298 
L 188.665625 -47.021662 
L 188.15865 -49.058026 
L 187.566597 -51.094389 
L 186.8878 -53.130753 
L 186.12346 -55.167116 
L 185.277972 -57.20348 
L 184.359116 -59.239844 
L 183.378098 -61.276207 
L 182.349362 -63.312571 
L 181.290153 -65.348935 
L 180.219746 -67.385298 
L 179.158325 -69.421662 
L 178.125525 -71.458026 
L 177.138718 -73.494389 
L 176.211203 -75.530753 
L 175.350542 -77.567116 
L 174.557312 -79.60348 
L 173.824537 -81.639844 
L 173.138016 -83.676207 
L 172.477626 -85.712571 
L 171.819536 -87.748935 
L 171.139088 -89.785298 
L 170.413991 -91.821662 
L 169.627333 -93.858026 
L 168.769964 -95.894389 
L 167.841852 -97.930753 
L 166.852173 -99.967116 
L 165.818116 -102.00348 
L 164.762608 -104.039844 
L 163.711353 -106.076207 
L 162.689715 -108.112571 
L 161.719975 -110.148935 
L 160.819447 -112.185298 
L 159.999718 -114.221662 
L 159.267063 -116.258026 
L 158.623852 -118.294389 
L 158.07055 -120.330753 
L 157.607833 -122.367116 
L 157.238328 -124.40348 
L 156.967632 -126.439844 
L 156.80442 -128.476207 
L 156.759702 -130.512571 
L 156.845468 -132.548935 
L 157.073082 -134.585298 
L 157.451798 -136.621662 
L 157.987734 -138.658026 
L 158.683436 -140.694389 
L 159.538033 -142.730753 
L 160.547802 -144.767116 
L 161.70686 -146.80348 
L 163.007699 -148.839844 
L 164.441324 -150.876207 
L 165.996925 -152.912571 
L 167.661153 -154.948935 
L 169.417212 -156.985298 
L 171.244083 -159.021662 
L 173.116181 -161.058026 
L 175.003679 -163.094389 
L 176.873569 -165.130753 
L 178.691409 -167.167116 
L 180.423499 -169.20348 
L 182.039185 -171.239844 
L 183.512934 -173.276207 
L 184.825881 -175.312571 
L 185.966672 -177.348935 
L 186.931519 -179.385298 
L 187.723584 -181.421662 
L 188.351833 -183.458026 
L 188.829618 -185.494389 
L 189.173216 -187.530753 
L 189.400513 -189.567116 
L 189.529962 -191.60348 
L 189.579864 -193.639844 
L 189.56792 -195.676207 
L 189.510996 -197.712571 
L 189.424977 -199.748935 
L 189.324624 -201.785298 
L 189.22336 -203.821662 
L 189.132964 -205.858026 
L 189.063194 -207.894389 
L 189.021409 -209.930753 
L 189.012262 -211.967116 
L 189.037548 -214.00348 
L 189.096261 -216.039844 
L 189.184897 -218.076207 
L 189.297958 -220.112571 
L 189.428624 -222.148935 
L 189.569493 -224.185298 
L 189.713301 -226.221662 
L 189.853539 -228.258026 
L 189.984901 -230.294389 
L 190.103538 -232.330753 
L 190.207114 -234.367116 
L 190.294701 -236.40348 
L 190.366542 -238.439844 
L 190.789225 -238.439844 
L 190.789225 -238.439844 
L 190.861066 -236.40348 
L 190.948653 -234.367116 
L 191.052229 -232.330753 
L 191.170866 -230.294389 
L 191.302228 -228.258026 
L 191.442466 -226.221662 
L 191.586274 -224.185298 
L 191.727143 -222.148935 
L 191.857809 -220.112571 
L 191.97087 -218.076207 
L 192.059506 -216.039844 
L 192.118219 -214.00348 
L 192.143505 -211.967116 
L 192.134358 -209.930753 
L 192.092573 -207.894389 
L 192.022803 -205.858026 
L 191.932407 -203.821662 
L 191.831143 -201.785298 
L 191.730791 -199.748935 
L 191.644772 -197.712571 
L 191.587847 -195.676207 
L 191.575903 -193.639844 
L 191.625805 -191.60348 
L 191.755254 -189.567116 
L 191.982551 -187.530753 
L 192.326149 -185.494389 
L 192.803934 -183.458026 
L 193.432183 -181.421662 
L 194.224248 -179.385298 
L 195.189095 -177.348935 
L 196.329886 -175.312571 
L 197.642834 -173.276207 
L 199.116582 -171.239844 
L 200.732268 -169.20348 
L 202.464358 -167.167116 
L 204.282198 -165.130753 
L 206.152088 -163.094389 
L 208.039586 -161.058026 
L 209.911684 -159.021662 
L 211.738555 -156.985298 
L 213.494614 -154.948935 
L 215.158842 -152.912571 
L 216.714443 -150.876207 
L 218.148068 -148.839844 
L 219.448907 -146.80348 
L 220.607965 -144.767116 
L 221.617734 -142.730753 
L 222.472331 -140.694389 
L 223.168033 -138.658026 
L 223.703969 -136.621662 
L 224.082686 -134.585298 
L 224.310299 -132.548935 
L 224.396065 -130.512571 
L 224.351347 -128.476207 
L 224.188135 -126.439844 
L 223.917439 -124.40348 
L 223.547934 -122.367116 
L 223.085217 -120.330753 
L 222.531915 -118.294389 
L 221.888704 -116.258026 
L 221.156049 -114.221662 
L 220.33632 -112.185298 
L 219.435792 -110.148935 
L 218.466052 -108.112571 
L 217.444414 -106.076207 
L 216.393159 -104.039844 
L 215.337651 -102.00348 
L 214.303594 -99.967116 
L 213.313915 -97.930753 
L 212.385803 -95.894389 
L 211.528434 -93.858026 
L 210.741776 -91.821662 
L 210.016679 -89.785298 
L 209.336232 -87.748935 
L 208.678141 -85.712571 
L 208.017751 -83.676207 
L 207.33123 -81.639844 
L 206.598455 -79.60348 
L 205.805225 -77.567116 
L 204.944564 -75.530753 
L 204.017049 -73.494389 
L 203.030242 -71.458026 
L 201.997442 -69.421662 
L 200.936021 -67.385298 
L 199.865614 -65.348935 
L 198.806405 -63.312571 
L 197.777669 -61.276207 
L 196.796651 -59.239844 
L 195.877795 -57.20348 
L 195.032307 -55.167116 
L 194.267967 -53.130753 
L 193.58917 -51.094389 
L 192.997117 -49.058026 
L 192.490142 -47.021662 
L 192.064131 -44.985298 
L 191.713023 -42.948935 
L 191.42935 -40.912571 
L 191.204797 -38.876207 
L 191.030723 -36.839844 
z
" style="stroke: #4c4c4c; stroke-width: 1.25"/>
    </defs>
    <g clip-path="url(#pae43e9ce5e)">
     <use xlink:href="#m47e3ba085d" x="0" y="255.719844" style="fill: #df8920; stroke: #4c4c4c; stroke-width: 1.25"/>
    </g>
   </g>
   <g id="line2d_1">
    <path d="M 106.032429 136.133707 
L 106.032429 65.375731 
" clip-path="url(#pae43e9ce5e)" style="fill: none; stroke: #4c4c4c; stroke-width: 1.875; stroke-linecap: round"/>
   </g>
   <g id="line2d_2">
    <path d="M 106.032429 118.096098 
L 106.032429 93.1324 
" clip-path="url(#pae43e9ce5e)" style="fill: none; stroke: #4c4c4c; stroke-width: 5.625; stroke-linecap: round"/>
   </g>
   <g id="line2d_3">
    <path d="M 106.032429 104.243922 
" clip-path="url(#pae43e9ce5e)" style="fill: none; stroke: #4c4c4c; stroke-width: 1.5; stroke-linecap: round"/>
    <defs>
     <path id="mb839f1f205" d="M 2.34375 0 
L -2.34375 -0 
" style="stroke: #ffffff; stroke-width: 1.125"/>
    </defs>
    <g clip-path="url(#pae43e9ce5e)">
     <use xlink:href="#mb839f1f205" x="106.032429" y="104.243922" style="fill: #ffffff; stroke: #ffffff; stroke-width: 1.125"/>
    </g>
   </g>
   <g id="line2d_4">
    <path d="M 190.577884 192.10181 
L 190.577884 92.190678 
" clip-path="url(#pae43e9ce5e)" style="fill: none; stroke: #4c4c4c; stroke-width: 1.875; stroke-linecap: round"/>
   </g>
   <g id="line2d_5">
    <path d="M 190.577884 149.88829 
L 190.577884 114.513326 
" clip-path="url(#pae43e9ce5e)" style="fill: none; stroke: #4c4c4c; stroke-width: 5.625; stroke-linecap: round"/>
   </g>
   <g id="line2d_6">
    <path d="M 190.577884 129.107008 
" clip-path="url(#pae43e9ce5e)" style="fill: none; stroke: #4c4c4c; stroke-width: 1.5; stroke-linecap: round"/>
    <g clip-path="url(#pae43e9ce5e)">
     <use xlink:href="#mb839f1f205" x="190.577884" y="129.107008" style="fill: #ffffff; stroke: #ffffff; stroke-width: 1.125"/>
    </g>
   </g>
   <g id="line2d_7">
    <path d="M 106.032429 52.070131 
L 106.032429 47.634931 
L 190.577884 47.634931 
L 190.577884 52.070131 
" style="fill: none; stroke: #333333; stroke-width: 1.5; stroke-linecap: round"/>
   </g>
   <g id="patch_3">
    <path d="M 64.605156 228.96 
L 64.605156 7.2 
" style="fill: none; stroke: #262626; stroke-width: 1.25; stroke-linejoin: miter; stroke-linecap: square"/>
   </g>
   <g id="patch_4">
    <path d="M 64.605156 228.96 
L 232.005156 228.96 
" style="fill: none; stroke: #262626; stroke-width: 1.25; stroke-linejoin: miter; stroke-linecap: square"/>
   </g>
   <g id="text_10">
    <!-- **** -->
    <g style="fill: #262626" transform="translate(138.963906 44.249931) scale(0.12 -0.12)">
     <defs>
      <path id="ArialMT-2a" d="M 200 3741 
L 344 4184 
Q 841 4009 1066 3881 
Q 1006 4447 1003 4659 
L 1456 4659 
Q 1447 4350 1384 3884 
Q 1706 4047 2122 4184 
L 2266 3741 
Q 1869 3609 1488 3566 
Q 1678 3400 2025 2975 
L 1650 2709 
Q 1469 2956 1222 3381 
Q 991 2941 816 2709 
L 447 2975 
Q 809 3422 966 3566 
Q 563 3644 200 3741 
z
" transform="scale(0.015625)"/>
     </defs>
     <use xlink:href="#ArialMT-2a"/>
     <use xlink:href="#ArialMT-2a" x="38.916016"/>
     <use xlink:href="#ArialMT-2a" x="77.832031"/>
     <use xlink:href="#ArialMT-2a" x="116.748047"/>
    </g>
   </g>
  </g>
 </g>
 <defs>
  <clipPath id="pae43e9ce5e">
   <rect x="64.605156" y="7.2" width="167.4" height="221.76"/>
  </clipPath>
 </defs>
</svg>
