<?xml version="1.0" encoding="utf-8" standalone="no"?>
<!DOCTYPE svg PUBLIC "-//W3C//DTD SVG 1.1//EN"
  "http://www.w3.org/Graphics/SVG/1.1/DTD/svg11.dtd">
<svg xmlns:xlink="http://www.w3.org/1999/xlink" width="155.905512pt" height="113.385827pt" viewBox="0 0 155.905512 113.385827" xmlns="http://www.w3.org/2000/svg" version="1.1">
 <metadata>
  <rdf:RDF xmlns:dc="http://purl.org/dc/elements/1.1/" xmlns:cc="http://creativecommons.org/ns#" xmlns:rdf="http://www.w3.org/1999/02/22-rdf-syntax-ns#">
   <cc:Work>
    <dc:type rdf:resource="http://purl.org/dc/dcmitype/StillImage"/>
    <dc:date>2025-06-19T20:34:43.940096</dc:date>
    <dc:format>image/svg+xml</dc:format>
    <dc:creator>
     <cc:Agent>
      <dc:title>Matplotlib v3.9.2, https://matplotlib.org/</dc:title>
     </cc:Agent>
    </dc:creator>
   </cc:Work>
  </rdf:RDF>
 </metadata>
 <defs>
  <style type="text/css">*{stroke-linejoin: round; stroke-linecap: butt}</style>
 </defs>
 <g id="figure_1">
  <g id="patch_1">
   <path d="M 0 113.385827 
L 155.905512 113.385827 
L 155.905512 0 
L 0 0 
z
" style="fill: #ffffff"/>
  </g>
  <g id="axes_1">
   <g id="patch_2">
    <path d="M 28 89.405827 
L 150.505512 89.405827 
L 150.505512 5.4 
L 28 5.4 
z
" style="fill: #ffffff"/>
   </g>
   <g id="PathCollection_1">
    <defs>
     <path id="C0_0_aae9843a98" d="M 0 0.866025 
C 0.229673 0.866025 0.449969 0.774776 0.612372 0.612372 
C 0.774776 0.449969 0.866025 0.229673 0.866025 -0 
C 0.866025 -0.229673 0.774776 -0.449969 0.612372 -0.612372 
C 0.449969 -0.774776 0.229673 -0.866025 0 -0.866025 
C -0.229673 -0.866025 -0.449969 -0.774776 -0.612372 -0.612372 
C -0.774776 -0.449969 -0.866025 -0.229673 -0.866025 0 
C -0.866025 0.229673 -0.774776 0.449969 -0.612372 0.612372 
C -0.449969 0.774776 -0.229673 0.866025 0 0.866025 
z
"/>
    </defs>
    <g clip-path="url(#p6f2e4e8904)">
     <use xlink:href="#C0_0_aae9843a98" x="99.174495" y="48.675729" style="fill: #ff8c00; fill-opacity: 0.8"/>
    </g>
    <g clip-path="url(#p6f2e4e8904)">
     <use xlink:href="#C0_0_aae9843a98" x="57.525618" y="48.675729" style="fill: #ff8c00; fill-opacity: 0.8"/>
    </g>
    <g clip-path="url(#p6f2e4e8904)">
     <use xlink:href="#C0_0_aae9843a98" x="113.286803" y="39.76602" style="fill: #ff8c00; fill-opacity: 0.8"/>
    </g>
    <g clip-path="url(#p6f2e4e8904)">
     <use xlink:href="#C0_0_aae9843a98" x="60.664215" y="69.040778" style="fill: #ff8c00; fill-opacity: 0.8"/>
    </g>
    <g clip-path="url(#p6f2e4e8904)">
     <use xlink:href="#C0_0_aae9843a98" x="105.810431" y="48.675729" style="fill: #ff8c00; fill-opacity: 0.8"/>
    </g>
    <g clip-path="url(#p6f2e4e8904)">
     <use xlink:href="#C0_0_aae9843a98" x="62.580361" y="58.858253" style="fill: #ff8c00; fill-opacity: 0.8"/>
    </g>
    <g clip-path="url(#p6f2e4e8904)">
     <use xlink:href="#C0_0_aae9843a98" x="88.622089" y="37.220389" style="fill: #ff8c00; fill-opacity: 0.8"/>
    </g>
    <g clip-path="url(#p6f2e4e8904)">
     <use xlink:href="#C0_0_aae9843a98" x="76.119725" y="70.313593" style="fill: #ff8c00; fill-opacity: 0.8"/>
    </g>
    <g clip-path="url(#p6f2e4e8904)">
     <use xlink:href="#C0_0_aae9843a98" x="115.375712" y="56.312622" style="fill: #ff8c00; fill-opacity: 0.8"/>
    </g>
    <g clip-path="url(#p6f2e4e8904)">
     <use xlink:href="#C0_0_aae9843a98" x="131.534615" y="42.311651" style="fill: #ff8c00; fill-opacity: 0.8"/>
    </g>
    <g clip-path="url(#p6f2e4e8904)">
     <use xlink:href="#C0_0_aae9843a98" x="74.863417" y="63.949516" style="fill: #ff8c00; fill-opacity: 0.8"/>
    </g>
    <g clip-path="url(#p6f2e4e8904)">
     <use xlink:href="#C0_0_aae9843a98" x="79.280098" y="57.585438" style="fill: #ff8c00; fill-opacity: 0.8"/>
    </g>
    <g clip-path="url(#p6f2e4e8904)">
     <use xlink:href="#C0_0_aae9843a98" x="40.634928" y="53.766991" style="fill: #ff8c00; fill-opacity: 0.8"/>
    </g>
    <g clip-path="url(#p6f2e4e8904)">
     <use xlink:href="#C0_0_aae9843a98" x="89.388621" y="9.218447" style="fill: #ff8c00; fill-opacity: 0.8"/>
    </g>
    <g clip-path="url(#p6f2e4e8904)">
     <use xlink:href="#C0_0_aae9843a98" x="139.776447" y="21.946602" style="fill: #ff8c00; fill-opacity: 0.8"/>
    </g>
    <g clip-path="url(#p6f2e4e8904)">
     <use xlink:href="#C0_0_aae9843a98" x="52.946175" y="74.13204" style="fill: #ff8c00; fill-opacity: 0.8"/>
    </g>
    <g clip-path="url(#p6f2e4e8904)">
     <use xlink:href="#C0_0_aae9843a98" x="75.128648" y="29.583496" style="fill: #ff8c00; fill-opacity: 0.8"/>
    </g>
    <g clip-path="url(#p6f2e4e8904)">
     <use xlink:href="#C0_0_aae9843a98" x="71.934063" y="49.948545" style="fill: #ff8c00; fill-opacity: 0.8"/>
    </g>
    <g clip-path="url(#p6f2e4e8904)">
     <use xlink:href="#C0_0_aae9843a98" x="66.394149" y="72.859225" style="fill: #ff8c00; fill-opacity: 0.8"/>
    </g>
    <g clip-path="url(#p6f2e4e8904)">
     <use xlink:href="#C0_0_aae9843a98" x="82.166032" y="67.767962" style="fill: #ff8c00; fill-opacity: 0.8"/>
    </g>
    <g clip-path="url(#p6f2e4e8904)">
     <use xlink:href="#C0_0_aae9843a98" x="51.78034" y="48.675729" style="fill: #ff8c00; fill-opacity: 0.8"/>
    </g>
    <g clip-path="url(#p6f2e4e8904)">
     <use xlink:href="#C0_0_aae9843a98" x="52.332523" y="79.223302" style="fill: #ff8c00; fill-opacity: 0.8"/>
    </g>
    <g clip-path="url(#p6f2e4e8904)">
     <use xlink:href="#C0_0_aae9843a98" x="98.842116" y="57.585438" style="fill: #ff8c00; fill-opacity: 0.8"/>
    </g>
    <g clip-path="url(#p6f2e4e8904)">
     <use xlink:href="#C0_0_aae9843a98" x="66.215539" y="48.675729" style="fill: #ff8c00; fill-opacity: 0.8"/>
    </g>
    <g clip-path="url(#p6f2e4e8904)">
     <use xlink:href="#C0_0_aae9843a98" x="97.320442" y="20.673787" style="fill: #ff8c00; fill-opacity: 0.8"/>
    </g>
    <g clip-path="url(#p6f2e4e8904)">
     <use xlink:href="#C0_0_aae9843a98" x="98.351732" y="32.129127" style="fill: #ff8c00; fill-opacity: 0.8"/>
    </g>
    <g clip-path="url(#p6f2e4e8904)">
     <use xlink:href="#C0_0_aae9843a98" x="90.796682" y="29.583496" style="fill: #ff8c00; fill-opacity: 0.8"/>
    </g>
    <g clip-path="url(#p6f2e4e8904)">
     <use xlink:href="#C0_0_aae9843a98" x="58.89885" y="47.402913" style="fill: #ff8c00; fill-opacity: 0.8"/>
    </g>
    <g clip-path="url(#p6f2e4e8904)">
     <use xlink:href="#C0_0_aae9843a98" x="92.425379" y="55.039807" style="fill: #ff8c00; fill-opacity: 0.8"/>
    </g>
    <g clip-path="url(#p6f2e4e8904)">
     <use xlink:href="#C0_0_aae9843a98" x="69.588865" y="55.039807" style="fill: #ff8c00; fill-opacity: 0.8"/>
    </g>
    <g clip-path="url(#p6f2e4e8904)">
     <use xlink:href="#C0_0_aae9843a98" x="61.672988" y="57.585438" style="fill: #ff8c00; fill-opacity: 0.8"/>
    </g>
    <g clip-path="url(#p6f2e4e8904)">
     <use xlink:href="#C0_0_aae9843a98" x="105.551344" y="52.494176" style="fill: #ff8c00; fill-opacity: 0.8"/>
    </g>
    <g clip-path="url(#p6f2e4e8904)">
     <use xlink:href="#C0_0_aae9843a98" x="70.450879" y="65.222331" style="fill: #ff8c00; fill-opacity: 0.8"/>
    </g>
    <g clip-path="url(#p6f2e4e8904)">
     <use xlink:href="#C0_0_aae9843a98" x="60.028506" y="65.222331" style="fill: #ff8c00; fill-opacity: 0.8"/>
    </g>
    <g clip-path="url(#p6f2e4e8904)">
     <use xlink:href="#C0_0_aae9843a98" x="68.108158" y="55.039807" style="fill: #ff8c00; fill-opacity: 0.8"/>
    </g>
    <g clip-path="url(#p6f2e4e8904)">
     <use xlink:href="#C0_0_aae9843a98" x="106.99154" y="76.677671" style="fill: #ff8c00; fill-opacity: 0.8"/>
    </g>
    <g clip-path="url(#p6f2e4e8904)">
     <use xlink:href="#C0_0_aae9843a98" x="69.919472" y="65.222331" style="fill: #ff8c00; fill-opacity: 0.8"/>
    </g>
    <g clip-path="url(#p6f2e4e8904)">
     <use xlink:href="#C0_0_aae9843a98" x="93.635057" y="41.038836" style="fill: #ff8c00; fill-opacity: 0.8"/>
    </g>
    <g clip-path="url(#p6f2e4e8904)">
     <use xlink:href="#C0_0_aae9843a98" x="97.622194" y="84.314565" style="fill: #ff8c00; fill-opacity: 0.8"/>
    </g>
    <g clip-path="url(#p6f2e4e8904)">
     <use xlink:href="#C0_0_aae9843a98" x="81.004473" y="44.857282" style="fill: #ff8c00; fill-opacity: 0.8"/>
    </g>
    <g clip-path="url(#p6f2e4e8904)">
     <use xlink:href="#C0_0_aae9843a98" x="92.875124" y="16.85534" style="fill: #ff8c00; fill-opacity: 0.8"/>
    </g>
    <g clip-path="url(#p6f2e4e8904)">
     <use xlink:href="#C0_0_aae9843a98" x="88.525911" y="60.131069" style="fill: #ff8c00; fill-opacity: 0.8"/>
    </g>
    <g clip-path="url(#p6f2e4e8904)">
     <use xlink:href="#C0_0_aae9843a98" x="97.688394" y="83.041749" style="fill: #ff8c00; fill-opacity: 0.8"/>
    </g>
    <g clip-path="url(#p6f2e4e8904)">
     <use xlink:href="#C0_0_aae9843a98" x="99.606206" y="83.041749" style="fill: #ff8c00; fill-opacity: 0.8"/>
    </g>
    <g clip-path="url(#p6f2e4e8904)">
     <use xlink:href="#C0_0_aae9843a98" x="88.198364" y="57.585438" style="fill: #ff8c00; fill-opacity: 0.8"/>
    </g>
    <g clip-path="url(#p6f2e4e8904)">
     <use xlink:href="#C0_0_aae9843a98" x="90.583036" y="46.130098" style="fill: #ff8c00; fill-opacity: 0.8"/>
    </g>
    <g clip-path="url(#p6f2e4e8904)">
     <use xlink:href="#C0_0_aae9843a98" x="126.159519" y="49.948545" style="fill: #ff8c00; fill-opacity: 0.8"/>
    </g>
    <g clip-path="url(#p6f2e4e8904)">
     <use xlink:href="#C0_0_aae9843a98" x="47.615829" y="67.767962" style="fill: #ff8c00; fill-opacity: 0.8"/>
    </g>
    <g clip-path="url(#p6f2e4e8904)">
     <use xlink:href="#C0_0_aae9843a98" x="80.922966" y="69.040778" style="fill: #ff8c00; fill-opacity: 0.8"/>
    </g>
    <g clip-path="url(#p6f2e4e8904)">
     <use xlink:href="#C0_0_aae9843a98" x="95.641996" y="55.039807" style="fill: #ff8c00; fill-opacity: 0.8"/>
    </g>
    <g clip-path="url(#p6f2e4e8904)">
     <use xlink:href="#C0_0_aae9843a98" x="134.542199" y="61.403885" style="fill: #ff8c00; fill-opacity: 0.8"/>
    </g>
    <g clip-path="url(#p6f2e4e8904)">
     <use xlink:href="#C0_0_aae9843a98" x="66.113523" y="61.403885" style="fill: #ff8c00; fill-opacity: 0.8"/>
    </g>
    <g clip-path="url(#p6f2e4e8904)">
     <use xlink:href="#C0_0_aae9843a98" x="92.069" y="49.948545" style="fill: #ff8c00; fill-opacity: 0.8"/>
    </g>
    <g clip-path="url(#p6f2e4e8904)">
     <use xlink:href="#C0_0_aae9843a98" x="75.805259" y="69.040778" style="fill: #ff8c00; fill-opacity: 0.8"/>
    </g>
    <g clip-path="url(#p6f2e4e8904)">
     <use xlink:href="#C0_0_aae9843a98" x="87.218182" y="58.858253" style="fill: #ff8c00; fill-opacity: 0.8"/>
    </g>
    <g clip-path="url(#p6f2e4e8904)">
     <use xlink:href="#C0_0_aae9843a98" x="64.188394" y="28.31068" style="fill: #ff8c00; fill-opacity: 0.8"/>
    </g>
    <g clip-path="url(#p6f2e4e8904)">
     <use xlink:href="#C0_0_aae9843a98" x="130.85807" y="52.494176" style="fill: #ff8c00; fill-opacity: 0.8"/>
    </g>
    <g clip-path="url(#p6f2e4e8904)">
     <use xlink:href="#C0_0_aae9843a98" x="33.568432" y="46.130098" style="fill: #ff8c00; fill-opacity: 0.8"/>
    </g>
    <g clip-path="url(#p6f2e4e8904)">
     <use xlink:href="#C0_0_aae9843a98" x="123.561649" y="27.037864" style="fill: #ff8c00; fill-opacity: 0.8"/>
    </g>
    <g clip-path="url(#p6f2e4e8904)">
     <use xlink:href="#C0_0_aae9843a98" x="101.785568" y="55.039807" style="fill: #ff8c00; fill-opacity: 0.8"/>
    </g>
    <g clip-path="url(#p6f2e4e8904)">
     <use xlink:href="#C0_0_aae9843a98" x="94.434299" y="55.039807" style="fill: #ff8c00; fill-opacity: 0.8"/>
    </g>
    <g clip-path="url(#p6f2e4e8904)">
     <use xlink:href="#C0_0_aae9843a98" x="61.582067" y="41.038836" style="fill: #ff8c00; fill-opacity: 0.8"/>
    </g>
    <g clip-path="url(#p6f2e4e8904)">
     <use xlink:href="#C0_0_aae9843a98" x="144.937079" y="38.493204" style="fill: #ff8c00; fill-opacity: 0.8"/>
    </g>
    <g clip-path="url(#p6f2e4e8904)">
     <use xlink:href="#C0_0_aae9843a98" x="68.484441" y="76.677671" style="fill: #ff8c00; fill-opacity: 0.8"/>
    </g>
    <g clip-path="url(#p6f2e4e8904)">
     <use xlink:href="#C0_0_aae9843a98" x="67.833068" y="85.58738" style="fill: #ff8c00; fill-opacity: 0.8"/>
    </g>
    <g clip-path="url(#p6f2e4e8904)">
     <use xlink:href="#C0_0_aae9843a98" x="73.536396" y="48.675729" style="fill: #ff8c00; fill-opacity: 0.8"/>
    </g>
    <g clip-path="url(#p6f2e4e8904)">
     <use xlink:href="#C0_0_aae9843a98" x="52.140024" y="63.949516" style="fill: #ff8c00; fill-opacity: 0.8"/>
    </g>
    <g clip-path="url(#p6f2e4e8904)">
     <use xlink:href="#C0_0_aae9843a98" x="43.834761" y="63.949516" style="fill: #ff8c00; fill-opacity: 0.8"/>
    </g>
    <g clip-path="url(#p6f2e4e8904)">
     <use xlink:href="#C0_0_aae9843a98" x="128.791534" y="58.858253" style="fill: #ff8c00; fill-opacity: 0.8"/>
    </g>
    <g clip-path="url(#p6f2e4e8904)">
     <use xlink:href="#C0_0_aae9843a98" x="103.906721" y="56.312622" style="fill: #ff8c00; fill-opacity: 0.8"/>
    </g>
    <g clip-path="url(#p6f2e4e8904)">
     <use xlink:href="#C0_0_aae9843a98" x="61.128669" y="61.403885" style="fill: #ff8c00; fill-opacity: 0.8"/>
    </g>
    <g clip-path="url(#p6f2e4e8904)">
     <use xlink:href="#C0_0_aae9843a98" x="54.395648" y="72.859225" style="fill: #ff8c00; fill-opacity: 0.8"/>
    </g>
    <g clip-path="url(#p6f2e4e8904)">
     <use xlink:href="#C0_0_aae9843a98" x="61.87456" y="47.402913" style="fill: #ff8c00; fill-opacity: 0.8"/>
    </g>
    <g clip-path="url(#p6f2e4e8904)">
     <use xlink:href="#C0_0_aae9843a98" x="49.808477" y="55.039807" style="fill: #ff8c00; fill-opacity: 0.8"/>
    </g>
    <g clip-path="url(#p6f2e4e8904)">
     <use xlink:href="#C0_0_aae9843a98" x="100.83506" y="35.947573" style="fill: #ff8c00; fill-opacity: 0.8"/>
    </g>
    <g clip-path="url(#p6f2e4e8904)">
     <use xlink:href="#C0_0_aae9843a98" x="84.072573" y="57.585438" style="fill: #ff8c00; fill-opacity: 0.8"/>
    </g>
    <g clip-path="url(#p6f2e4e8904)">
     <use xlink:href="#C0_0_aae9843a98" x="74.105896" y="74.13204" style="fill: #ff8c00; fill-opacity: 0.8"/>
    </g>
   </g>
   <g id="PolyCollection_1">
    <path d="M 33.568432 57.373843 
L 33.568432 70.340825 
L 34.693368 70.030574 
L 35.818304 69.701109 
L 36.94324 69.389309 
L 38.068176 69.062219 
L 39.193112 68.760067 
L 40.318047 68.439296 
L 41.442983 68.115634 
L 42.567919 67.821622 
L 43.692855 67.507273 
L 44.817791 67.177171 
L 45.942726 66.841219 
L 47.067662 66.512513 
L 48.192598 66.196677 
L 49.317534 65.885606 
L 50.44247 65.55598 
L 51.567406 65.270627 
L 52.692341 64.963416 
L 53.817277 64.64544 
L 54.942213 64.356353 
L 56.067149 64.067687 
L 57.192085 63.759686 
L 58.317021 63.468553 
L 59.441956 63.177584 
L 60.566892 62.89327 
L 61.691828 62.589359 
L 62.816764 62.299376 
L 63.9417 62.008155 
L 65.066636 61.719091 
L 66.191571 61.428035 
L 67.316507 61.140952 
L 68.441443 60.873465 
L 69.566379 60.607537 
L 70.691315 60.334721 
L 71.816251 60.098962 
L 72.941186 59.880027 
L 74.066122 59.684683 
L 75.191058 59.459722 
L 76.315994 59.237399 
L 77.44093 59.004189 
L 78.565866 58.772733 
L 79.690801 58.571665 
L 80.815737 58.374002 
L 81.940673 58.159705 
L 83.065609 57.957093 
L 84.190545 57.784894 
L 85.315481 57.637599 
L 86.440416 57.467345 
L 87.565352 57.281801 
L 88.690288 57.125101 
L 89.815224 56.986652 
L 90.94016 56.795186 
L 92.065095 56.62451 
L 93.190031 56.48327 
L 94.314967 56.346104 
L 95.439903 56.199906 
L 96.564839 56.053479 
L 97.689775 55.917799 
L 98.81471 55.82755 
L 99.939646 55.704529 
L 101.064582 55.597906 
L 102.189518 55.45705 
L 103.314454 55.354078 
L 104.43939 55.233501 
L 105.564325 55.130072 
L 106.689261 55.017762 
L 107.814197 54.911626 
L 108.939133 54.783162 
L 110.064069 54.688739 
L 111.189005 54.572767 
L 112.31394 54.482905 
L 113.438876 54.3687 
L 114.563812 54.266968 
L 115.688748 54.17145 
L 116.813684 54.04383 
L 117.93862 53.956659 
L 119.063555 53.854611 
L 120.188491 53.790553 
L 121.313427 53.716194 
L 122.438363 53.618604 
L 123.563299 53.536867 
L 124.688235 53.45052 
L 125.81317 53.360494 
L 126.938106 53.26492 
L 128.063042 53.191133 
L 129.187978 53.113823 
L 130.312914 53.042398 
L 131.43785 52.95402 
L 132.562785 52.865997 
L 133.687721 52.778053 
L 134.812657 52.704843 
L 135.937593 52.6318 
L 137.062529 52.550774 
L 138.187464 52.463309 
L 139.3124 52.390764 
L 140.437336 52.311706 
L 141.562272 52.224551 
L 142.687208 52.127893 
L 143.812144 52.038247 
L 144.937079 51.953846 
L 144.937079 34.073161 
L 144.937079 34.073161 
L 143.812144 34.404396 
L 142.687208 34.748913 
L 141.562272 35.081279 
L 140.437336 35.410045 
L 139.3124 35.74713 
L 138.187464 36.064509 
L 137.062529 36.407991 
L 135.937593 36.748937 
L 134.812657 37.084927 
L 133.687721 37.425258 
L 132.562785 37.763361 
L 131.43785 38.098187 
L 130.312914 38.436537 
L 129.187978 38.764124 
L 128.063042 39.089863 
L 126.938106 39.44149 
L 125.81317 39.776521 
L 124.688235 40.095533 
L 123.563299 40.435531 
L 122.438363 40.763661 
L 121.313427 41.097493 
L 120.188491 41.419042 
L 119.063555 41.742516 
L 117.93862 42.056998 
L 116.813684 42.392981 
L 115.688748 42.691052 
L 114.563812 43.004765 
L 113.438876 43.307644 
L 112.31394 43.624608 
L 111.189005 43.932712 
L 110.064069 44.251115 
L 108.939133 44.574323 
L 107.814197 44.881976 
L 106.689261 45.188534 
L 105.564325 45.506833 
L 104.43939 45.839366 
L 103.314454 46.146138 
L 102.189518 46.435887 
L 101.064582 46.741294 
L 99.939646 47.021964 
L 98.81471 47.308025 
L 97.689775 47.614408 
L 96.564839 47.914986 
L 95.439903 48.197197 
L 94.314967 48.464111 
L 93.190031 48.760015 
L 92.065095 49.031797 
L 90.94016 49.297726 
L 89.815224 49.571759 
L 88.690288 49.83619 
L 87.565352 50.092242 
L 86.440416 50.362806 
L 85.315481 50.623012 
L 84.190545 50.883308 
L 83.065609 51.096019 
L 81.940673 51.29918 
L 80.815737 51.518574 
L 79.690801 51.736053 
L 78.565866 51.955491 
L 77.44093 52.177338 
L 76.315994 52.362748 
L 75.191058 52.564041 
L 74.066122 52.743508 
L 72.941186 52.929887 
L 71.816251 53.14015 
L 70.691315 53.320606 
L 69.566379 53.479986 
L 68.441443 53.644269 
L 67.316507 53.813354 
L 66.191571 53.979576 
L 65.066636 54.122714 
L 63.9417 54.269687 
L 62.816764 54.418608 
L 61.691828 54.554499 
L 60.566892 54.712447 
L 59.441956 54.864174 
L 58.317021 55.009843 
L 57.192085 55.146155 
L 56.067149 55.270338 
L 54.942213 55.389721 
L 53.817277 55.508772 
L 52.692341 55.615552 
L 51.567406 55.737197 
L 50.44247 55.863129 
L 49.317534 55.97765 
L 48.192598 56.09843 
L 47.067662 56.195747 
L 45.942726 56.290965 
L 44.817791 56.376263 
L 43.692855 56.494427 
L 42.567919 56.603811 
L 41.442983 56.713503 
L 40.318047 56.820217 
L 39.193112 56.919798 
L 38.068176 57.006994 
L 36.94324 57.096082 
L 35.818304 57.187001 
L 34.693368 57.281963 
L 33.568432 57.373843 
z
" clip-path="url(#p6f2e4e8904)" style="fill: #ff8c00; fill-opacity: 0.15"/>
   </g>
   <g id="matplotlib.axis_1">
    <g id="xtick_1">
     <g id="line2d_1">
      <defs>
       <path id="m2feb0abdd2" d="M 0 0 
L 0 3.5 
" style="stroke: #000000; stroke-width: 0.25"/>
      </defs>
      <g>
       <use xlink:href="#m2feb0abdd2" x="40.852027" y="89.405827" style="stroke: #000000; stroke-width: 0.25"/>
      </g>
     </g>
     <g id="text_1">
      <!-- −2 -->
      <g transform="translate(38.001636 97.484733) scale(0.05 -0.05)">
       <defs>
        <path id="ArialMT-2212" d="M 3381 1997 
L 356 1997 
L 356 2522 
L 3381 2522 
L 3381 1997 
z
" transform="scale(0.015625)"/>
        <path id="ArialMT-32" d="M 3222 541 
L 3222 0 
L 194 0 
Q 188 203 259 391 
Q 375 700 629 1000 
Q 884 1300 1366 1694 
Q 2113 2306 2375 2664 
Q 2638 3022 2638 3341 
Q 2638 3675 2398 3904 
Q 2159 4134 1775 4134 
Q 1369 4134 1125 3890 
Q 881 3647 878 3216 
L 300 3275 
Q 359 3922 746 4261 
Q 1134 4600 1788 4600 
Q 2447 4600 2831 4234 
Q 3216 3869 3216 3328 
Q 3216 3053 3103 2787 
Q 2991 2522 2730 2228 
Q 2469 1934 1863 1422 
Q 1356 997 1212 845 
Q 1069 694 975 541 
L 3222 541 
z
" transform="scale(0.015625)"/>
       </defs>
       <use xlink:href="#ArialMT-2212"/>
       <use xlink:href="#ArialMT-32" x="58.398438"/>
      </g>
     </g>
    </g>
    <g id="xtick_2">
     <g id="line2d_2">
      <g>
       <use xlink:href="#m2feb0abdd2" x="65.219479" y="89.405827" style="stroke: #000000; stroke-width: 0.25"/>
      </g>
     </g>
     <g id="text_2">
      <!-- −1 -->
      <g transform="translate(62.369089 97.484733) scale(0.05 -0.05)">
       <defs>
        <path id="ArialMT-31" d="M 2384 0 
L 1822 0 
L 1822 3584 
Q 1619 3391 1289 3197 
Q 959 3003 697 2906 
L 697 3450 
Q 1169 3672 1522 3987 
Q 1875 4303 2022 4600 
L 2384 4600 
L 2384 0 
z
" transform="scale(0.015625)"/>
       </defs>
       <use xlink:href="#ArialMT-2212"/>
       <use xlink:href="#ArialMT-31" x="58.398438"/>
      </g>
     </g>
    </g>
    <g id="xtick_3">
     <g id="line2d_3">
      <g>
       <use xlink:href="#m2feb0abdd2" x="89.586932" y="89.405827" style="stroke: #000000; stroke-width: 0.25"/>
      </g>
     </g>
     <g id="text_3">
      <!-- 0 -->
      <g transform="translate(88.196698 97.484733) scale(0.05 -0.05)">
       <defs>
        <path id="ArialMT-30" d="M 266 2259 
Q 266 3072 433 3567 
Q 600 4063 929 4331 
Q 1259 4600 1759 4600 
Q 2128 4600 2406 4451 
Q 2684 4303 2865 4023 
Q 3047 3744 3150 3342 
Q 3253 2941 3253 2259 
Q 3253 1453 3087 958 
Q 2922 463 2592 192 
Q 2263 -78 1759 -78 
Q 1097 -78 719 397 
Q 266 969 266 2259 
z
M 844 2259 
Q 844 1131 1108 757 
Q 1372 384 1759 384 
Q 2147 384 2411 759 
Q 2675 1134 2675 2259 
Q 2675 3391 2411 3762 
Q 2147 4134 1753 4134 
Q 1366 4134 1134 3806 
Q 844 3388 844 2259 
z
" transform="scale(0.015625)"/>
       </defs>
       <use xlink:href="#ArialMT-30"/>
      </g>
     </g>
    </g>
    <g id="xtick_4">
     <g id="line2d_4">
      <g>
       <use xlink:href="#m2feb0abdd2" x="113.954385" y="89.405827" style="stroke: #000000; stroke-width: 0.25"/>
      </g>
     </g>
     <g id="text_4">
      <!-- 1 -->
      <g transform="translate(112.564151 97.484733) scale(0.05 -0.05)">
       <use xlink:href="#ArialMT-31"/>
      </g>
     </g>
    </g>
    <g id="xtick_5">
     <g id="line2d_5">
      <g>
       <use xlink:href="#m2feb0abdd2" x="138.321838" y="89.405827" style="stroke: #000000; stroke-width: 0.25"/>
      </g>
     </g>
     <g id="text_5">
      <!-- 2 -->
      <g transform="translate(136.931604 97.484733) scale(0.05 -0.05)">
       <use xlink:href="#ArialMT-32"/>
      </g>
     </g>
    </g>
    <g id="text_6">
     <!-- SA PC1 [a.u.] -->
     <g transform="translate(71.242443 106.846296) scale(0.06 -0.06)">
      <defs>
       <path id="ArialMT-53" d="M 288 1472 
L 859 1522 
Q 900 1178 1048 958 
Q 1197 738 1509 602 
Q 1822 466 2213 466 
Q 2559 466 2825 569 
Q 3091 672 3220 851 
Q 3350 1031 3350 1244 
Q 3350 1459 3225 1620 
Q 3100 1781 2813 1891 
Q 2628 1963 1997 2114 
Q 1366 2266 1113 2400 
Q 784 2572 623 2826 
Q 463 3081 463 3397 
Q 463 3744 659 4045 
Q 856 4347 1234 4503 
Q 1613 4659 2075 4659 
Q 2584 4659 2973 4495 
Q 3363 4331 3572 4012 
Q 3781 3694 3797 3291 
L 3216 3247 
Q 3169 3681 2898 3903 
Q 2628 4125 2100 4125 
Q 1550 4125 1298 3923 
Q 1047 3722 1047 3438 
Q 1047 3191 1225 3031 
Q 1400 2872 2139 2705 
Q 2878 2538 3153 2413 
Q 3553 2228 3743 1945 
Q 3934 1663 3934 1294 
Q 3934 928 3725 604 
Q 3516 281 3123 101 
Q 2731 -78 2241 -78 
Q 1619 -78 1198 103 
Q 778 284 539 648 
Q 300 1013 288 1472 
z
" transform="scale(0.015625)"/>
       <path id="ArialMT-41" d="M -9 0 
L 1750 4581 
L 2403 4581 
L 4278 0 
L 3588 0 
L 3053 1388 
L 1138 1388 
L 634 0 
L -9 0 
z
M 1313 1881 
L 2866 1881 
L 2388 3150 
Q 2169 3728 2063 4100 
Q 1975 3659 1816 3225 
L 1313 1881 
z
" transform="scale(0.015625)"/>
       <path id="ArialMT-20" transform="scale(0.015625)"/>
       <path id="ArialMT-50" d="M 494 0 
L 494 4581 
L 2222 4581 
Q 2678 4581 2919 4538 
Q 3256 4481 3484 4323 
Q 3713 4166 3852 3881 
Q 3991 3597 3991 3256 
Q 3991 2672 3619 2267 
Q 3247 1863 2275 1863 
L 1100 1863 
L 1100 0 
L 494 0 
z
M 1100 2403 
L 2284 2403 
Q 2872 2403 3119 2622 
Q 3366 2841 3366 3238 
Q 3366 3525 3220 3729 
Q 3075 3934 2838 4000 
Q 2684 4041 2272 4041 
L 1100 4041 
L 1100 2403 
z
" transform="scale(0.015625)"/>
       <path id="ArialMT-43" d="M 3763 1606 
L 4369 1453 
Q 4178 706 3683 314 
Q 3188 -78 2472 -78 
Q 1731 -78 1267 223 
Q 803 525 561 1097 
Q 319 1669 319 2325 
Q 319 3041 592 3573 
Q 866 4106 1370 4382 
Q 1875 4659 2481 4659 
Q 3169 4659 3637 4309 
Q 4106 3959 4291 3325 
L 3694 3184 
Q 3534 3684 3231 3912 
Q 2928 4141 2469 4141 
Q 1941 4141 1586 3887 
Q 1231 3634 1087 3207 
Q 944 2781 944 2328 
Q 944 1744 1114 1308 
Q 1284 872 1643 656 
Q 2003 441 2422 441 
Q 2931 441 3284 734 
Q 3638 1028 3763 1606 
z
" transform="scale(0.015625)"/>
       <path id="ArialMT-5b" d="M 434 -1272 
L 434 4581 
L 1675 4581 
L 1675 4116 
L 997 4116 
L 997 -806 
L 1675 -806 
L 1675 -1272 
L 434 -1272 
z
" transform="scale(0.015625)"/>
       <path id="ArialMT-61" d="M 2588 409 
Q 2275 144 1986 34 
Q 1697 -75 1366 -75 
Q 819 -75 525 192 
Q 231 459 231 875 
Q 231 1119 342 1320 
Q 453 1522 633 1644 
Q 813 1766 1038 1828 
Q 1203 1872 1538 1913 
Q 2219 1994 2541 2106 
Q 2544 2222 2544 2253 
Q 2544 2597 2384 2738 
Q 2169 2928 1744 2928 
Q 1347 2928 1158 2789 
Q 969 2650 878 2297 
L 328 2372 
Q 403 2725 575 2942 
Q 747 3159 1072 3276 
Q 1397 3394 1825 3394 
Q 2250 3394 2515 3294 
Q 2781 3194 2906 3042 
Q 3031 2891 3081 2659 
Q 3109 2516 3109 2141 
L 3109 1391 
Q 3109 606 3145 398 
Q 3181 191 3288 0 
L 2700 0 
Q 2613 175 2588 409 
z
M 2541 1666 
Q 2234 1541 1622 1453 
Q 1275 1403 1131 1340 
Q 988 1278 909 1158 
Q 831 1038 831 891 
Q 831 666 1001 516 
Q 1172 366 1500 366 
Q 1825 366 2078 508 
Q 2331 650 2450 897 
Q 2541 1088 2541 1459 
L 2541 1666 
z
" transform="scale(0.015625)"/>
       <path id="ArialMT-2e" d="M 581 0 
L 581 641 
L 1222 641 
L 1222 0 
L 581 0 
z
" transform="scale(0.015625)"/>
       <path id="ArialMT-75" d="M 2597 0 
L 2597 488 
Q 2209 -75 1544 -75 
Q 1250 -75 995 37 
Q 741 150 617 320 
Q 494 491 444 738 
Q 409 903 409 1263 
L 409 3319 
L 972 3319 
L 972 1478 
Q 972 1038 1006 884 
Q 1059 663 1231 536 
Q 1403 409 1656 409 
Q 1909 409 2131 539 
Q 2353 669 2445 892 
Q 2538 1116 2538 1541 
L 2538 3319 
L 3100 3319 
L 3100 0 
L 2597 0 
z
" transform="scale(0.015625)"/>
       <path id="ArialMT-5d" d="M 1363 -1272 
L 122 -1272 
L 122 -806 
L 800 -806 
L 800 4116 
L 122 4116 
L 122 4581 
L 1363 4581 
L 1363 -1272 
z
" transform="scale(0.015625)"/>
      </defs>
      <use xlink:href="#ArialMT-53"/>
      <use xlink:href="#ArialMT-41" x="66.699219"/>
      <use xlink:href="#ArialMT-20" x="127.898438"/>
      <use xlink:href="#ArialMT-50" x="155.681641"/>
      <use xlink:href="#ArialMT-43" x="222.380859"/>
      <use xlink:href="#ArialMT-31" x="294.597656"/>
      <use xlink:href="#ArialMT-20" x="350.212891"/>
      <use xlink:href="#ArialMT-5b" x="377.996094"/>
      <use xlink:href="#ArialMT-61" x="405.779297"/>
      <use xlink:href="#ArialMT-2e" x="461.394531"/>
      <use xlink:href="#ArialMT-75" x="489.177734"/>
      <use xlink:href="#ArialMT-2e" x="544.792969"/>
      <use xlink:href="#ArialMT-5d" x="572.576172"/>
     </g>
    </g>
   </g>
   <g id="matplotlib.axis_2">
    <g id="ytick_1">
     <g id="line2d_6">
      <defs>
       <path id="m3d4c32a0aa" d="M 0 0 
L -3.5 0 
" style="stroke: #000000; stroke-width: 0.25"/>
      </defs>
      <g>
       <use xlink:href="#m3d4c32a0aa" x="28" y="86.860196" style="stroke: #000000; stroke-width: 0.25"/>
      </g>
     </g>
     <g id="text_7">
      <!-- 70 -->
      <g transform="translate(17.939062 88.649649) scale(0.05 -0.05)">
       <defs>
        <path id="ArialMT-37" d="M 303 3981 
L 303 4522 
L 3269 4522 
L 3269 4084 
Q 2831 3619 2401 2847 
Q 1972 2075 1738 1259 
Q 1569 684 1522 0 
L 944 0 
Q 953 541 1156 1306 
Q 1359 2072 1739 2783 
Q 2119 3494 2547 3981 
L 303 3981 
z
" transform="scale(0.015625)"/>
       </defs>
       <use xlink:href="#ArialMT-37"/>
       <use xlink:href="#ArialMT-30" x="55.615234"/>
      </g>
     </g>
    </g>
    <g id="ytick_2">
     <g id="line2d_7">
      <g>
       <use xlink:href="#m3d4c32a0aa" x="28" y="74.13204" style="stroke: #000000; stroke-width: 0.25"/>
      </g>
     </g>
     <g id="text_8">
      <!-- 80 -->
      <g transform="translate(17.939062 75.921493) scale(0.05 -0.05)">
       <defs>
        <path id="ArialMT-38" d="M 1131 2484 
Q 781 2613 612 2850 
Q 444 3088 444 3419 
Q 444 3919 803 4259 
Q 1163 4600 1759 4600 
Q 2359 4600 2725 4251 
Q 3091 3903 3091 3403 
Q 3091 3084 2923 2848 
Q 2756 2613 2416 2484 
Q 2838 2347 3058 2040 
Q 3278 1734 3278 1309 
Q 3278 722 2862 322 
Q 2447 -78 1769 -78 
Q 1091 -78 675 323 
Q 259 725 259 1325 
Q 259 1772 486 2073 
Q 713 2375 1131 2484 
z
M 1019 3438 
Q 1019 3113 1228 2906 
Q 1438 2700 1772 2700 
Q 2097 2700 2305 2904 
Q 2513 3109 2513 3406 
Q 2513 3716 2298 3927 
Q 2084 4138 1766 4138 
Q 1444 4138 1231 3931 
Q 1019 3725 1019 3438 
z
M 838 1322 
Q 838 1081 952 856 
Q 1066 631 1291 507 
Q 1516 384 1775 384 
Q 2178 384 2440 643 
Q 2703 903 2703 1303 
Q 2703 1709 2433 1975 
Q 2163 2241 1756 2241 
Q 1359 2241 1098 1978 
Q 838 1716 838 1322 
z
" transform="scale(0.015625)"/>
       </defs>
       <use xlink:href="#ArialMT-38"/>
       <use xlink:href="#ArialMT-30" x="55.615234"/>
      </g>
     </g>
    </g>
    <g id="ytick_3">
     <g id="line2d_8">
      <g>
       <use xlink:href="#m3d4c32a0aa" x="28" y="61.403885" style="stroke: #000000; stroke-width: 0.25"/>
      </g>
     </g>
     <g id="text_9">
      <!-- 90 -->
      <g transform="translate(17.939062 63.193338) scale(0.05 -0.05)">
       <defs>
        <path id="ArialMT-39" d="M 350 1059 
L 891 1109 
Q 959 728 1153 556 
Q 1347 384 1650 384 
Q 1909 384 2104 503 
Q 2300 622 2425 820 
Q 2550 1019 2634 1356 
Q 2719 1694 2719 2044 
Q 2719 2081 2716 2156 
Q 2547 1888 2255 1720 
Q 1963 1553 1622 1553 
Q 1053 1553 659 1965 
Q 266 2378 266 3053 
Q 266 3750 677 4175 
Q 1088 4600 1706 4600 
Q 2153 4600 2523 4359 
Q 2894 4119 3086 3673 
Q 3278 3228 3278 2384 
Q 3278 1506 3087 986 
Q 2897 466 2520 194 
Q 2144 -78 1638 -78 
Q 1100 -78 759 220 
Q 419 519 350 1059 
z
M 2653 3081 
Q 2653 3566 2395 3850 
Q 2138 4134 1775 4134 
Q 1400 4134 1122 3828 
Q 844 3522 844 3034 
Q 844 2597 1108 2323 
Q 1372 2050 1759 2050 
Q 2150 2050 2401 2323 
Q 2653 2597 2653 3081 
z
" transform="scale(0.015625)"/>
       </defs>
       <use xlink:href="#ArialMT-39"/>
       <use xlink:href="#ArialMT-30" x="55.615234"/>
      </g>
     </g>
    </g>
    <g id="ytick_4">
     <g id="line2d_9">
      <g>
       <use xlink:href="#m3d4c32a0aa" x="28" y="48.675729" style="stroke: #000000; stroke-width: 0.25"/>
      </g>
     </g>
     <g id="text_10">
      <!-- 100 -->
      <g transform="translate(15.158594 50.465182) scale(0.05 -0.05)">
       <use xlink:href="#ArialMT-31"/>
       <use xlink:href="#ArialMT-30" x="55.615234"/>
       <use xlink:href="#ArialMT-30" x="111.230469"/>
      </g>
     </g>
    </g>
    <g id="ytick_5">
     <g id="line2d_10">
      <g>
       <use xlink:href="#m3d4c32a0aa" x="28" y="35.947573" style="stroke: #000000; stroke-width: 0.25"/>
      </g>
     </g>
     <g id="text_11">
      <!-- 110 -->
      <g transform="translate(15.527344 37.737026) scale(0.05 -0.05)">
       <use xlink:href="#ArialMT-31"/>
       <use xlink:href="#ArialMT-31" x="48.240234"/>
       <use xlink:href="#ArialMT-30" x="103.855469"/>
      </g>
     </g>
    </g>
    <g id="ytick_6">
     <g id="line2d_11">
      <g>
       <use xlink:href="#m3d4c32a0aa" x="28" y="23.219418" style="stroke: #000000; stroke-width: 0.25"/>
      </g>
     </g>
     <g id="text_12">
      <!-- 120 -->
      <g transform="translate(15.158594 25.008871) scale(0.05 -0.05)">
       <use xlink:href="#ArialMT-31"/>
       <use xlink:href="#ArialMT-32" x="55.615234"/>
       <use xlink:href="#ArialMT-30" x="111.230469"/>
      </g>
     </g>
    </g>
    <g id="ytick_7">
     <g id="line2d_12">
      <g>
       <use xlink:href="#m3d4c32a0aa" x="28" y="10.491262" style="stroke: #000000; stroke-width: 0.25"/>
      </g>
     </g>
     <g id="text_13">
      <!-- 130 -->
      <g transform="translate(15.158594 12.280715) scale(0.05 -0.05)">
       <defs>
        <path id="ArialMT-33" d="M 269 1209 
L 831 1284 
Q 928 806 1161 595 
Q 1394 384 1728 384 
Q 2125 384 2398 659 
Q 2672 934 2672 1341 
Q 2672 1728 2419 1979 
Q 2166 2231 1775 2231 
Q 1616 2231 1378 2169 
L 1441 2663 
Q 1497 2656 1531 2656 
Q 1891 2656 2178 2843 
Q 2466 3031 2466 3422 
Q 2466 3731 2256 3934 
Q 2047 4138 1716 4138 
Q 1388 4138 1169 3931 
Q 950 3725 888 3313 
L 325 3413 
Q 428 3978 793 4289 
Q 1159 4600 1703 4600 
Q 2078 4600 2393 4439 
Q 2709 4278 2876 4000 
Q 3044 3722 3044 3409 
Q 3044 3113 2884 2869 
Q 2725 2625 2413 2481 
Q 2819 2388 3044 2092 
Q 3269 1797 3269 1353 
Q 3269 753 2831 336 
Q 2394 -81 1725 -81 
Q 1122 -81 723 278 
Q 325 638 269 1209 
z
" transform="scale(0.015625)"/>
       </defs>
       <use xlink:href="#ArialMT-31"/>
       <use xlink:href="#ArialMT-33" x="55.615234"/>
       <use xlink:href="#ArialMT-30" x="111.230469"/>
      </g>
     </g>
    </g>
    <g id="text_14">
     <!-- Full-scale IQ [a.u.] -->
     <g transform="translate(9.966094 71.742757) rotate(-90) scale(0.06 -0.06)">
      <defs>
       <path id="ArialMT-46" d="M 525 0 
L 525 4581 
L 3616 4581 
L 3616 4041 
L 1131 4041 
L 1131 2622 
L 3281 2622 
L 3281 2081 
L 1131 2081 
L 1131 0 
L 525 0 
z
" transform="scale(0.015625)"/>
       <path id="ArialMT-6c" d="M 409 0 
L 409 4581 
L 972 4581 
L 972 0 
L 409 0 
z
" transform="scale(0.015625)"/>
       <path id="ArialMT-2d" d="M 203 1375 
L 203 1941 
L 1931 1941 
L 1931 1375 
L 203 1375 
z
" transform="scale(0.015625)"/>
       <path id="ArialMT-73" d="M 197 991 
L 753 1078 
Q 800 744 1014 566 
Q 1228 388 1613 388 
Q 2000 388 2187 545 
Q 2375 703 2375 916 
Q 2375 1106 2209 1216 
Q 2094 1291 1634 1406 
Q 1016 1563 777 1677 
Q 538 1791 414 1992 
Q 291 2194 291 2438 
Q 291 2659 392 2848 
Q 494 3038 669 3163 
Q 800 3259 1026 3326 
Q 1253 3394 1513 3394 
Q 1903 3394 2198 3281 
Q 2494 3169 2634 2976 
Q 2775 2784 2828 2463 
L 2278 2388 
Q 2241 2644 2061 2787 
Q 1881 2931 1553 2931 
Q 1166 2931 1000 2803 
Q 834 2675 834 2503 
Q 834 2394 903 2306 
Q 972 2216 1119 2156 
Q 1203 2125 1616 2013 
Q 2213 1853 2448 1751 
Q 2684 1650 2818 1456 
Q 2953 1263 2953 975 
Q 2953 694 2789 445 
Q 2625 197 2315 61 
Q 2006 -75 1616 -75 
Q 969 -75 630 194 
Q 291 463 197 991 
z
" transform="scale(0.015625)"/>
       <path id="ArialMT-63" d="M 2588 1216 
L 3141 1144 
Q 3050 572 2676 248 
Q 2303 -75 1759 -75 
Q 1078 -75 664 370 
Q 250 816 250 1647 
Q 250 2184 428 2587 
Q 606 2991 970 3192 
Q 1334 3394 1763 3394 
Q 2303 3394 2647 3120 
Q 2991 2847 3088 2344 
L 2541 2259 
Q 2463 2594 2264 2762 
Q 2066 2931 1784 2931 
Q 1359 2931 1093 2626 
Q 828 2322 828 1663 
Q 828 994 1084 691 
Q 1341 388 1753 388 
Q 2084 388 2306 591 
Q 2528 794 2588 1216 
z
" transform="scale(0.015625)"/>
       <path id="ArialMT-65" d="M 2694 1069 
L 3275 997 
Q 3138 488 2766 206 
Q 2394 -75 1816 -75 
Q 1088 -75 661 373 
Q 234 822 234 1631 
Q 234 2469 665 2931 
Q 1097 3394 1784 3394 
Q 2450 3394 2872 2941 
Q 3294 2488 3294 1666 
Q 3294 1616 3291 1516 
L 816 1516 
Q 847 969 1125 678 
Q 1403 388 1819 388 
Q 2128 388 2347 550 
Q 2566 713 2694 1069 
z
M 847 1978 
L 2700 1978 
Q 2663 2397 2488 2606 
Q 2219 2931 1791 2931 
Q 1403 2931 1139 2672 
Q 875 2413 847 1978 
z
" transform="scale(0.015625)"/>
       <path id="ArialMT-49" d="M 597 0 
L 597 4581 
L 1203 4581 
L 1203 0 
L 597 0 
z
" transform="scale(0.015625)"/>
       <path id="ArialMT-51" d="M 3966 491 
Q 4388 200 4744 66 
L 4566 -356 
Q 4072 -178 3581 206 
Q 3072 -78 2456 -78 
Q 1834 -78 1328 222 
Q 822 522 548 1065 
Q 275 1609 275 2291 
Q 275 2969 550 3525 
Q 825 4081 1333 4372 
Q 1841 4663 2469 4663 
Q 3103 4663 3612 4361 
Q 4122 4059 4389 3517 
Q 4656 2975 4656 2294 
Q 4656 1728 4484 1276 
Q 4313 825 3966 491 
z
M 2631 1266 
Q 3156 1119 3497 828 
Q 4031 1316 4031 2294 
Q 4031 2850 3842 3265 
Q 3653 3681 3289 3911 
Q 2925 4141 2472 4141 
Q 1794 4141 1347 3677 
Q 900 3213 900 2291 
Q 900 1397 1342 919 
Q 1784 441 2472 441 
Q 2797 441 3084 563 
Q 2800 747 2484 825 
L 2631 1266 
z
" transform="scale(0.015625)"/>
      </defs>
      <use xlink:href="#ArialMT-46"/>
      <use xlink:href="#ArialMT-75" x="61.083984"/>
      <use xlink:href="#ArialMT-6c" x="116.699219"/>
      <use xlink:href="#ArialMT-6c" x="138.916016"/>
      <use xlink:href="#ArialMT-2d" x="161.132812"/>
      <use xlink:href="#ArialMT-73" x="194.433594"/>
      <use xlink:href="#ArialMT-63" x="244.433594"/>
      <use xlink:href="#ArialMT-61" x="294.433594"/>
      <use xlink:href="#ArialMT-6c" x="350.048828"/>
      <use xlink:href="#ArialMT-65" x="372.265625"/>
      <use xlink:href="#ArialMT-20" x="427.880859"/>
      <use xlink:href="#ArialMT-49" x="455.664062"/>
      <use xlink:href="#ArialMT-51" x="483.447266"/>
      <use xlink:href="#ArialMT-20" x="561.230469"/>
      <use xlink:href="#ArialMT-5b" x="589.013672"/>
      <use xlink:href="#ArialMT-61" x="616.796875"/>
      <use xlink:href="#ArialMT-2e" x="672.412109"/>
      <use xlink:href="#ArialMT-75" x="700.195312"/>
      <use xlink:href="#ArialMT-2e" x="755.810547"/>
      <use xlink:href="#ArialMT-5d" x="783.59375"/>
     </g>
    </g>
   </g>
   <g id="line2d_13">
    <path d="M 33.568432 63.795032 
L 34.693368 63.584114 
L 35.818304 63.373196 
L 36.94324 63.162278 
L 38.068176 62.951359 
L 39.193112 62.740441 
L 40.318047 62.529523 
L 41.442983 62.318605 
L 42.567919 62.107686 
L 43.692855 61.896768 
L 44.817791 61.68585 
L 45.942726 61.474932 
L 47.067662 61.264014 
L 48.192598 61.053095 
L 49.317534 60.842177 
L 50.44247 60.631259 
L 51.567406 60.420341 
L 52.692341 60.209423 
L 53.817277 59.998504 
L 54.942213 59.787586 
L 56.067149 59.576668 
L 57.192085 59.36575 
L 58.317021 59.154831 
L 59.441956 58.943913 
L 60.566892 58.732995 
L 61.691828 58.522077 
L 62.816764 58.311159 
L 63.9417 58.10024 
L 65.066636 57.889322 
L 66.191571 57.678404 
L 67.316507 57.467486 
L 68.441443 57.256568 
L 69.566379 57.045649 
L 70.691315 56.834731 
L 71.816251 56.623813 
L 72.941186 56.412895 
L 74.066122 56.201976 
L 75.191058 55.991058 
L 76.315994 55.78014 
L 77.44093 55.569222 
L 78.565866 55.358304 
L 79.690801 55.147385 
L 80.815737 54.936467 
L 81.940673 54.725549 
L 83.065609 54.514631 
L 84.190545 54.303713 
L 85.315481 54.092794 
L 86.440416 53.881876 
L 87.565352 53.670958 
L 88.690288 53.46004 
L 89.815224 53.249121 
L 90.94016 53.038203 
L 92.065095 52.827285 
L 93.190031 52.616367 
L 94.314967 52.405449 
L 95.439903 52.19453 
L 96.564839 51.983612 
L 97.689775 51.772694 
L 98.81471 51.561776 
L 99.939646 51.350858 
L 101.064582 51.139939 
L 102.189518 50.929021 
L 103.314454 50.718103 
L 104.43939 50.507185 
L 105.564325 50.296267 
L 106.689261 50.085348 
L 107.814197 49.87443 
L 108.939133 49.663512 
L 110.064069 49.452594 
L 111.189005 49.241675 
L 112.31394 49.030757 
L 113.438876 48.819839 
L 114.563812 48.608921 
L 115.688748 48.398003 
L 116.813684 48.187084 
L 117.93862 47.976166 
L 119.063555 47.765248 
L 120.188491 47.55433 
L 121.313427 47.343412 
L 122.438363 47.132493 
L 123.563299 46.921575 
L 124.688235 46.710657 
L 125.81317 46.499739 
L 126.938106 46.28882 
L 128.063042 46.077902 
L 129.187978 45.866984 
L 130.312914 45.656066 
L 131.43785 45.445148 
L 132.562785 45.234229 
L 133.687721 45.023311 
L 134.812657 44.812393 
L 135.937593 44.601475 
L 137.062529 44.390557 
L 138.187464 44.179638 
L 139.3124 43.96872 
L 140.437336 43.757802 
L 141.562272 43.546884 
L 142.687208 43.335965 
L 143.812144 43.125047 
L 144.937079 42.914129 
" clip-path="url(#p6f2e4e8904)" style="fill: none; stroke: #ff8c00; stroke-width: 0.75; stroke-linecap: square"/>
   </g>
   <g id="patch_3">
    <path d="M 28 89.405827 
L 28 5.4 
" style="fill: none; stroke: #000000; stroke-width: 0.25; stroke-linejoin: miter; stroke-linecap: square"/>
   </g>
   <g id="patch_4">
    <path d="M 28 89.405827 
L 150.505512 89.405827 
" style="fill: none; stroke: #000000; stroke-width: 0.25; stroke-linejoin: miter; stroke-linecap: square"/>
   </g>
   <g id="text_15">
    <g id="patch_5">
     <path d="M 31.675165 18.702773 
L 55.325165 18.702773 
Q 56.825165 18.702773 56.825165 17.202773 
L 56.825165 7.136367 
Q 56.825165 5.636367 55.325165 5.636367 
L 31.675165 5.636367 
Q 30.175165 5.636367 30.175165 7.136367 
L 30.175165 17.202773 
Q 30.175165 18.702773 31.675165 18.702773 
z
" style="fill: #c0c0c0; opacity: 0.4; stroke: #c0c0c0; stroke-linejoin: miter"/>
    </g>
    <!-- $r=0.274$ -->
    <g transform="translate(31.675165 10.659023) scale(0.05 -0.05)">
     <defs>
      <path id="DejaVuSans-Oblique-72" d="M 2853 2969 
Q 2766 3016 2653 3041 
Q 2541 3066 2413 3066 
Q 1953 3066 1609 2717 
Q 1266 2369 1153 1784 
L 800 0 
L 225 0 
L 909 3500 
L 1484 3500 
L 1375 2956 
Q 1603 3259 1920 3421 
Q 2238 3584 2597 3584 
Q 2691 3584 2781 3573 
Q 2872 3563 2963 3538 
L 2853 2969 
z
" transform="scale(0.015625)"/>
      <path id="DejaVuSans-3d" d="M 678 2906 
L 4684 2906 
L 4684 2381 
L 678 2381 
L 678 2906 
z
M 678 1631 
L 4684 1631 
L 4684 1100 
L 678 1100 
L 678 1631 
z
" transform="scale(0.015625)"/>
      <path id="DejaVuSans-30" d="M 2034 4250 
Q 1547 4250 1301 3770 
Q 1056 3291 1056 2328 
Q 1056 1369 1301 889 
Q 1547 409 2034 409 
Q 2525 409 2770 889 
Q 3016 1369 3016 2328 
Q 3016 3291 2770 3770 
Q 2525 4250 2034 4250 
z
M 2034 4750 
Q 2819 4750 3233 4129 
Q 3647 3509 3647 2328 
Q 3647 1150 3233 529 
Q 2819 -91 2034 -91 
Q 1250 -91 836 529 
Q 422 1150 422 2328 
Q 422 3509 836 4129 
Q 1250 4750 2034 4750 
z
" transform="scale(0.015625)"/>
      <path id="DejaVuSans-2e" d="M 684 794 
L 1344 794 
L 1344 0 
L 684 0 
L 684 794 
z
" transform="scale(0.015625)"/>
      <path id="DejaVuSans-32" d="M 1228 531 
L 3431 531 
L 3431 0 
L 469 0 
L 469 531 
Q 828 903 1448 1529 
Q 2069 2156 2228 2338 
Q 2531 2678 2651 2914 
Q 2772 3150 2772 3378 
Q 2772 3750 2511 3984 
Q 2250 4219 1831 4219 
Q 1534 4219 1204 4116 
Q 875 4013 500 3803 
L 500 4441 
Q 881 4594 1212 4672 
Q 1544 4750 1819 4750 
Q 2544 4750 2975 4387 
Q 3406 4025 3406 3419 
Q 3406 3131 3298 2873 
Q 3191 2616 2906 2266 
Q 2828 2175 2409 1742 
Q 1991 1309 1228 531 
z
" transform="scale(0.015625)"/>
      <path id="DejaVuSans-37" d="M 525 4666 
L 3525 4666 
L 3525 4397 
L 1831 0 
L 1172 0 
L 2766 4134 
L 525 4134 
L 525 4666 
z
" transform="scale(0.015625)"/>
      <path id="DejaVuSans-34" d="M 2419 4116 
L 825 1625 
L 2419 1625 
L 2419 4116 
z
M 2253 4666 
L 3047 4666 
L 3047 1625 
L 3713 1625 
L 3713 1100 
L 3047 1100 
L 3047 0 
L 2419 0 
L 2419 1100 
L 313 1100 
L 313 1709 
L 2253 4666 
z
" transform="scale(0.015625)"/>
     </defs>
     <use xlink:href="#DejaVuSans-Oblique-72" transform="translate(0 0.78125)"/>
     <use xlink:href="#DejaVuSans-3d" transform="translate(60.595703 0.78125)"/>
     <use xlink:href="#DejaVuSans-30" transform="translate(163.867188 0.78125)"/>
     <use xlink:href="#DejaVuSans-2e" transform="translate(227.490234 0.78125)"/>
     <use xlink:href="#DejaVuSans-32" transform="translate(253.777344 0.78125)"/>
     <use xlink:href="#DejaVuSans-37" transform="translate(317.400391 0.78125)"/>
     <use xlink:href="#DejaVuSans-34" transform="translate(381.023438 0.78125)"/>
    </g>
    <!-- $p=0.016$ -->
    <g transform="translate(31.675165 16.152773) scale(0.05 -0.05)">
     <defs>
      <path id="DejaVuSans-Oblique-70" d="M 3175 2156 
Q 3175 2616 2975 2859 
Q 2775 3103 2400 3103 
Q 2144 3103 1911 2972 
Q 1678 2841 1497 2591 
Q 1319 2344 1212 1994 
Q 1106 1644 1106 1300 
Q 1106 863 1306 627 
Q 1506 391 1875 391 
Q 2147 391 2380 519 
Q 2613 647 2778 891 
Q 2956 1147 3065 1494 
Q 3175 1841 3175 2156 
z
M 1394 2969 
Q 1625 3272 1939 3428 
Q 2253 3584 2638 3584 
Q 3175 3584 3472 3232 
Q 3769 2881 3769 2247 
Q 3769 1728 3584 1258 
Q 3400 788 3053 416 
Q 2822 169 2531 39 
Q 2241 -91 1919 -91 
Q 1547 -91 1294 64 
Q 1041 219 916 525 
L 556 -1331 
L -19 -1331 
L 922 3500 
L 1497 3500 
L 1394 2969 
z
" transform="scale(0.015625)"/>
      <path id="DejaVuSans-31" d="M 794 531 
L 1825 531 
L 1825 4091 
L 703 3866 
L 703 4441 
L 1819 4666 
L 2450 4666 
L 2450 531 
L 3481 531 
L 3481 0 
L 794 0 
L 794 531 
z
" transform="scale(0.015625)"/>
      <path id="DejaVuSans-36" d="M 2113 2584 
Q 1688 2584 1439 2293 
Q 1191 2003 1191 1497 
Q 1191 994 1439 701 
Q 1688 409 2113 409 
Q 2538 409 2786 701 
Q 3034 994 3034 1497 
Q 3034 2003 2786 2293 
Q 2538 2584 2113 2584 
z
M 3366 4563 
L 3366 3988 
Q 3128 4100 2886 4159 
Q 2644 4219 2406 4219 
Q 1781 4219 1451 3797 
Q 1122 3375 1075 2522 
Q 1259 2794 1537 2939 
Q 1816 3084 2150 3084 
Q 2853 3084 3261 2657 
Q 3669 2231 3669 1497 
Q 3669 778 3244 343 
Q 2819 -91 2113 -91 
Q 1303 -91 875 529 
Q 447 1150 447 2328 
Q 447 3434 972 4092 
Q 1497 4750 2381 4750 
Q 2619 4750 2861 4703 
Q 3103 4656 3366 4563 
z
" transform="scale(0.015625)"/>
     </defs>
     <use xlink:href="#DejaVuSans-Oblique-70" transform="translate(0 0.78125)"/>
     <use xlink:href="#DejaVuSans-3d" transform="translate(82.958984 0.78125)"/>
     <use xlink:href="#DejaVuSans-30" transform="translate(186.230469 0.78125)"/>
     <use xlink:href="#DejaVuSans-2e" transform="translate(249.853516 0.78125)"/>
     <use xlink:href="#DejaVuSans-30" transform="translate(281.640625 0.78125)"/>
     <use xlink:href="#DejaVuSans-31" transform="translate(345.263672 0.78125)"/>
     <use xlink:href="#DejaVuSans-36" transform="translate(408.886719 0.78125)"/>
    </g>
   </g>
  </g>
 </g>
 <defs>
  <clipPath id="p6f2e4e8904">
   <rect x="28" y="5.4" width="122.505512" height="84.005827"/>
  </clipPath>
 </defs>
</svg>
