<?xml version="1.0" encoding="utf-8" standalone="no"?>
<!DOCTYPE svg PUBLIC "-//W3C//DTD SVG 1.1//EN"
  "http://www.w3.org/Graphics/SVG/1.1/DTD/svg11.dtd">
<svg xmlns:xlink="http://www.w3.org/1999/xlink" width="155.905512pt" height="113.385827pt" viewBox="0 0 155.905512 113.385827" xmlns="http://www.w3.org/2000/svg" version="1.1">
 <metadata>
  <rdf:RDF xmlns:dc="http://purl.org/dc/elements/1.1/" xmlns:cc="http://creativecommons.org/ns#" xmlns:rdf="http://www.w3.org/1999/02/22-rdf-syntax-ns#">
   <cc:Work>
    <dc:type rdf:resource="http://purl.org/dc/dcmitype/StillImage"/>
    <dc:date>2025-08-06T16:31:57.639833</dc:date>
    <dc:format>image/svg+xml</dc:format>
    <dc:creator>
     <cc:Agent>
      <dc:title>Matplotlib v3.9.2, https://matplotlib.org/</dc:title>
     </cc:Agent>
    </dc:creator>
   </cc:Work>
  </rdf:RDF>
 </metadata>
 <defs>
  <style type="text/css">*{stroke-linejoin: round; stroke-linecap: butt}</style>
 </defs>
 <g id="figure_1">
  <g id="patch_1">
   <path d="M 0 113.385827 
L 155.905512 113.385827 
L 155.905512 0 
L 0 0 
z
" style="fill: #ffffff"/>
  </g>
  <g id="axes_1">
   <g id="patch_2">
    <path d="M 28 89.405827 
L 150.505512 89.405827 
L 150.505512 5.4 
L 28 5.4 
z
" style="fill: #ffffff"/>
   </g>
   <g id="PathCollection_1">
    <defs>
     <path id="C0_0_1d065974d3" d="M 0 0.866025 
C 0.229673 0.866025 0.449969 0.774776 0.612372 0.612372 
C 0.774776 0.449969 0.866025 0.229673 0.866025 -0 
C 0.866025 -0.229673 0.774776 -0.449969 0.612372 -0.612372 
C 0.449969 -0.774776 0.229673 -0.866025 0 -0.866025 
C -0.229673 -0.866025 -0.449969 -0.774776 -0.612372 -0.612372 
C -0.774776 -0.449969 -0.866025 -0.229673 -0.866025 0 
C -0.866025 0.229673 -0.774776 0.449969 -0.612372 0.612372 
C -0.449969 0.774776 -0.229673 0.866025 0 0.866025 
z
"/>
    </defs>
    <g clip-path="url(#pf63c19198a)">
     <use xlink:href="#C0_0_1d065974d3" x="107.904164" y="48.675729" style="fill: #ff8c00; fill-opacity: 0.8"/>
    </g>
    <g clip-path="url(#pf63c19198a)">
     <use xlink:href="#C0_0_1d065974d3" x="76.46039" y="48.675729" style="fill: #ff8c00; fill-opacity: 0.8"/>
    </g>
    <g clip-path="url(#pf63c19198a)">
     <use xlink:href="#C0_0_1d065974d3" x="129.042686" y="39.76602" style="fill: #ff8c00; fill-opacity: 0.8"/>
    </g>
    <g clip-path="url(#pf63c19198a)">
     <use xlink:href="#C0_0_1d065974d3" x="112.568872" y="69.040778" style="fill: #ff8c00; fill-opacity: 0.8"/>
    </g>
    <g clip-path="url(#pf63c19198a)">
     <use xlink:href="#C0_0_1d065974d3" x="66.652027" y="48.675729" style="fill: #ff8c00; fill-opacity: 0.8"/>
    </g>
    <g clip-path="url(#pf63c19198a)">
     <use xlink:href="#C0_0_1d065974d3" x="83.993317" y="58.858253" style="fill: #ff8c00; fill-opacity: 0.8"/>
    </g>
    <g clip-path="url(#pf63c19198a)">
     <use xlink:href="#C0_0_1d065974d3" x="45.231049" y="37.220389" style="fill: #ff8c00; fill-opacity: 0.8"/>
    </g>
    <g clip-path="url(#pf63c19198a)">
     <use xlink:href="#C0_0_1d065974d3" x="78.122497" y="70.313593" style="fill: #ff8c00; fill-opacity: 0.8"/>
    </g>
    <g clip-path="url(#pf63c19198a)">
     <use xlink:href="#C0_0_1d065974d3" x="66.04598" y="56.312622" style="fill: #ff8c00; fill-opacity: 0.8"/>
    </g>
    <g clip-path="url(#pf63c19198a)">
     <use xlink:href="#C0_0_1d065974d3" x="54.199093" y="42.311651" style="fill: #ff8c00; fill-opacity: 0.8"/>
    </g>
    <g clip-path="url(#pf63c19198a)">
     <use xlink:href="#C0_0_1d065974d3" x="98.604794" y="63.949516" style="fill: #ff8c00; fill-opacity: 0.8"/>
    </g>
    <g clip-path="url(#pf63c19198a)">
     <use xlink:href="#C0_0_1d065974d3" x="109.996814" y="57.585438" style="fill: #ff8c00; fill-opacity: 0.8"/>
    </g>
    <g clip-path="url(#pf63c19198a)">
     <use xlink:href="#C0_0_1d065974d3" x="134.446593" y="53.766991" style="fill: #ff8c00; fill-opacity: 0.8"/>
    </g>
    <g clip-path="url(#pf63c19198a)">
     <use xlink:href="#C0_0_1d065974d3" x="72.699694" y="9.218447" style="fill: #ff8c00; fill-opacity: 0.8"/>
    </g>
    <g clip-path="url(#pf63c19198a)">
     <use xlink:href="#C0_0_1d065974d3" x="110.371574" y="21.946602" style="fill: #ff8c00; fill-opacity: 0.8"/>
    </g>
    <g clip-path="url(#pf63c19198a)">
     <use xlink:href="#C0_0_1d065974d3" x="104.689479" y="74.13204" style="fill: #ff8c00; fill-opacity: 0.8"/>
    </g>
    <g clip-path="url(#pf63c19198a)">
     <use xlink:href="#C0_0_1d065974d3" x="55.493518" y="29.583496" style="fill: #ff8c00; fill-opacity: 0.8"/>
    </g>
    <g clip-path="url(#pf63c19198a)">
     <use xlink:href="#C0_0_1d065974d3" x="92.643556" y="49.948545" style="fill: #ff8c00; fill-opacity: 0.8"/>
    </g>
    <g clip-path="url(#pf63c19198a)">
     <use xlink:href="#C0_0_1d065974d3" x="36.113431" y="72.859225" style="fill: #ff8c00; fill-opacity: 0.8"/>
    </g>
    <g clip-path="url(#pf63c19198a)">
     <use xlink:href="#C0_0_1d065974d3" x="95.37866" y="67.767962" style="fill: #ff8c00; fill-opacity: 0.8"/>
    </g>
    <g clip-path="url(#pf63c19198a)">
     <use xlink:href="#C0_0_1d065974d3" x="111.014682" y="48.675729" style="fill: #ff8c00; fill-opacity: 0.8"/>
    </g>
    <g clip-path="url(#pf63c19198a)">
     <use xlink:href="#C0_0_1d065974d3" x="73.754506" y="79.223302" style="fill: #ff8c00; fill-opacity: 0.8"/>
    </g>
    <g clip-path="url(#pf63c19198a)">
     <use xlink:href="#C0_0_1d065974d3" x="90.77788" y="57.585438" style="fill: #ff8c00; fill-opacity: 0.8"/>
    </g>
    <g clip-path="url(#pf63c19198a)">
     <use xlink:href="#C0_0_1d065974d3" x="108.214516" y="48.675729" style="fill: #ff8c00; fill-opacity: 0.8"/>
    </g>
    <g clip-path="url(#pf63c19198a)">
     <use xlink:href="#C0_0_1d065974d3" x="144.560158" y="20.673787" style="fill: #ff8c00; fill-opacity: 0.8"/>
    </g>
    <g clip-path="url(#pf63c19198a)">
     <use xlink:href="#C0_0_1d065974d3" x="50.196252" y="32.129127" style="fill: #ff8c00; fill-opacity: 0.8"/>
    </g>
    <g clip-path="url(#pf63c19198a)">
     <use xlink:href="#C0_0_1d065974d3" x="99.151908" y="29.583496" style="fill: #ff8c00; fill-opacity: 0.8"/>
    </g>
    <g clip-path="url(#pf63c19198a)">
     <use xlink:href="#C0_0_1d065974d3" x="112.000464" y="47.402913" style="fill: #ff8c00; fill-opacity: 0.8"/>
    </g>
    <g clip-path="url(#pf63c19198a)">
     <use xlink:href="#C0_0_1d065974d3" x="105.353199" y="55.039807" style="fill: #ff8c00; fill-opacity: 0.8"/>
    </g>
    <g clip-path="url(#pf63c19198a)">
     <use xlink:href="#C0_0_1d065974d3" x="87.434654" y="55.039807" style="fill: #ff8c00; fill-opacity: 0.8"/>
    </g>
    <g clip-path="url(#pf63c19198a)">
     <use xlink:href="#C0_0_1d065974d3" x="67.172664" y="57.585438" style="fill: #ff8c00; fill-opacity: 0.8"/>
    </g>
    <g clip-path="url(#pf63c19198a)">
     <use xlink:href="#C0_0_1d065974d3" x="42.355083" y="52.494176" style="fill: #ff8c00; fill-opacity: 0.8"/>
    </g>
    <g clip-path="url(#pf63c19198a)">
     <use xlink:href="#C0_0_1d065974d3" x="67.051672" y="65.222331" style="fill: #ff8c00; fill-opacity: 0.8"/>
    </g>
    <g clip-path="url(#pf63c19198a)">
     <use xlink:href="#C0_0_1d065974d3" x="100.703461" y="65.222331" style="fill: #ff8c00; fill-opacity: 0.8"/>
    </g>
    <g clip-path="url(#pf63c19198a)">
     <use xlink:href="#C0_0_1d065974d3" x="65.025721" y="55.039807" style="fill: #ff8c00; fill-opacity: 0.8"/>
    </g>
    <g clip-path="url(#pf63c19198a)">
     <use xlink:href="#C0_0_1d065974d3" x="66.483395" y="76.677671" style="fill: #ff8c00; fill-opacity: 0.8"/>
    </g>
    <g clip-path="url(#pf63c19198a)">
     <use xlink:href="#C0_0_1d065974d3" x="103.613532" y="65.222331" style="fill: #ff8c00; fill-opacity: 0.8"/>
    </g>
    <g clip-path="url(#pf63c19198a)">
     <use xlink:href="#C0_0_1d065974d3" x="129.225029" y="41.038836" style="fill: #ff8c00; fill-opacity: 0.8"/>
    </g>
    <g clip-path="url(#pf63c19198a)">
     <use xlink:href="#C0_0_1d065974d3" x="42.01074" y="84.314565" style="fill: #ff8c00; fill-opacity: 0.8"/>
    </g>
    <g clip-path="url(#pf63c19198a)">
     <use xlink:href="#C0_0_1d065974d3" x="79.242384" y="44.857282" style="fill: #ff8c00; fill-opacity: 0.8"/>
    </g>
    <g clip-path="url(#pf63c19198a)">
     <use xlink:href="#C0_0_1d065974d3" x="107.705167" y="16.85534" style="fill: #ff8c00; fill-opacity: 0.8"/>
    </g>
    <g clip-path="url(#pf63c19198a)">
     <use xlink:href="#C0_0_1d065974d3" x="122.270236" y="60.131069" style="fill: #ff8c00; fill-opacity: 0.8"/>
    </g>
    <g clip-path="url(#pf63c19198a)">
     <use xlink:href="#C0_0_1d065974d3" x="33.568432" y="83.041749" style="fill: #ff8c00; fill-opacity: 0.8"/>
    </g>
    <g clip-path="url(#pf63c19198a)">
     <use xlink:href="#C0_0_1d065974d3" x="38.85218" y="83.041749" style="fill: #ff8c00; fill-opacity: 0.8"/>
    </g>
    <g clip-path="url(#pf63c19198a)">
     <use xlink:href="#C0_0_1d065974d3" x="127.734" y="57.585438" style="fill: #ff8c00; fill-opacity: 0.8"/>
    </g>
    <g clip-path="url(#pf63c19198a)">
     <use xlink:href="#C0_0_1d065974d3" x="62.635381" y="46.130098" style="fill: #ff8c00; fill-opacity: 0.8"/>
    </g>
    <g clip-path="url(#pf63c19198a)">
     <use xlink:href="#C0_0_1d065974d3" x="82.22987" y="49.948545" style="fill: #ff8c00; fill-opacity: 0.8"/>
    </g>
    <g clip-path="url(#pf63c19198a)">
     <use xlink:href="#C0_0_1d065974d3" x="120.408078" y="67.767962" style="fill: #ff8c00; fill-opacity: 0.8"/>
    </g>
    <g clip-path="url(#pf63c19198a)">
     <use xlink:href="#C0_0_1d065974d3" x="66.594612" y="69.040778" style="fill: #ff8c00; fill-opacity: 0.8"/>
    </g>
    <g clip-path="url(#pf63c19198a)">
     <use xlink:href="#C0_0_1d065974d3" x="67.136264" y="55.039807" style="fill: #ff8c00; fill-opacity: 0.8"/>
    </g>
    <g clip-path="url(#pf63c19198a)">
     <use xlink:href="#C0_0_1d065974d3" x="79.110128" y="61.403885" style="fill: #ff8c00; fill-opacity: 0.8"/>
    </g>
    <g clip-path="url(#pf63c19198a)">
     <use xlink:href="#C0_0_1d065974d3" x="107.267933" y="61.403885" style="fill: #ff8c00; fill-opacity: 0.8"/>
    </g>
    <g clip-path="url(#pf63c19198a)">
     <use xlink:href="#C0_0_1d065974d3" x="57.952082" y="49.948545" style="fill: #ff8c00; fill-opacity: 0.8"/>
    </g>
    <g clip-path="url(#pf63c19198a)">
     <use xlink:href="#C0_0_1d065974d3" x="118.763393" y="69.040778" style="fill: #ff8c00; fill-opacity: 0.8"/>
    </g>
    <g clip-path="url(#pf63c19198a)">
     <use xlink:href="#C0_0_1d065974d3" x="134.544161" y="58.858253" style="fill: #ff8c00; fill-opacity: 0.8"/>
    </g>
    <g clip-path="url(#pf63c19198a)">
     <use xlink:href="#C0_0_1d065974d3" x="104.603777" y="28.31068" style="fill: #ff8c00; fill-opacity: 0.8"/>
    </g>
    <g clip-path="url(#pf63c19198a)">
     <use xlink:href="#C0_0_1d065974d3" x="51.863297" y="52.494176" style="fill: #ff8c00; fill-opacity: 0.8"/>
    </g>
    <g clip-path="url(#pf63c19198a)">
     <use xlink:href="#C0_0_1d065974d3" x="69.28302" y="46.130098" style="fill: #ff8c00; fill-opacity: 0.8"/>
    </g>
    <g clip-path="url(#pf63c19198a)">
     <use xlink:href="#C0_0_1d065974d3" x="144.937079" y="27.037864" style="fill: #ff8c00; fill-opacity: 0.8"/>
    </g>
    <g clip-path="url(#pf63c19198a)">
     <use xlink:href="#C0_0_1d065974d3" x="139.478541" y="55.039807" style="fill: #ff8c00; fill-opacity: 0.8"/>
    </g>
    <g clip-path="url(#pf63c19198a)">
     <use xlink:href="#C0_0_1d065974d3" x="62.665473" y="55.039807" style="fill: #ff8c00; fill-opacity: 0.8"/>
    </g>
    <g clip-path="url(#pf63c19198a)">
     <use xlink:href="#C0_0_1d065974d3" x="76.913214" y="41.038836" style="fill: #ff8c00; fill-opacity: 0.8"/>
    </g>
    <g clip-path="url(#pf63c19198a)">
     <use xlink:href="#C0_0_1d065974d3" x="90.734111" y="38.493204" style="fill: #ff8c00; fill-opacity: 0.8"/>
    </g>
    <g clip-path="url(#pf63c19198a)">
     <use xlink:href="#C0_0_1d065974d3" x="89.915869" y="76.677671" style="fill: #ff8c00; fill-opacity: 0.8"/>
    </g>
    <g clip-path="url(#pf63c19198a)">
     <use xlink:href="#C0_0_1d065974d3" x="49.609254" y="85.58738" style="fill: #ff8c00; fill-opacity: 0.8"/>
    </g>
    <g clip-path="url(#pf63c19198a)">
     <use xlink:href="#C0_0_1d065974d3" x="106.80972" y="48.675729" style="fill: #ff8c00; fill-opacity: 0.8"/>
    </g>
    <g clip-path="url(#pf63c19198a)">
     <use xlink:href="#C0_0_1d065974d3" x="72.464653" y="63.949516" style="fill: #ff8c00; fill-opacity: 0.8"/>
    </g>
    <g clip-path="url(#pf63c19198a)">
     <use xlink:href="#C0_0_1d065974d3" x="139.16438" y="63.949516" style="fill: #ff8c00; fill-opacity: 0.8"/>
    </g>
    <g clip-path="url(#pf63c19198a)">
     <use xlink:href="#C0_0_1d065974d3" x="62.934779" y="58.858253" style="fill: #ff8c00; fill-opacity: 0.8"/>
    </g>
    <g clip-path="url(#pf63c19198a)">
     <use xlink:href="#C0_0_1d065974d3" x="38.808435" y="56.312622" style="fill: #ff8c00; fill-opacity: 0.8"/>
    </g>
    <g clip-path="url(#pf63c19198a)">
     <use xlink:href="#C0_0_1d065974d3" x="73.524818" y="61.403885" style="fill: #ff8c00; fill-opacity: 0.8"/>
    </g>
    <g clip-path="url(#pf63c19198a)">
     <use xlink:href="#C0_0_1d065974d3" x="74.425799" y="72.859225" style="fill: #ff8c00; fill-opacity: 0.8"/>
    </g>
    <g clip-path="url(#pf63c19198a)">
     <use xlink:href="#C0_0_1d065974d3" x="67.997453" y="47.402913" style="fill: #ff8c00; fill-opacity: 0.8"/>
    </g>
    <g clip-path="url(#pf63c19198a)">
     <use xlink:href="#C0_0_1d065974d3" x="128.501396" y="55.039807" style="fill: #ff8c00; fill-opacity: 0.8"/>
    </g>
    <g clip-path="url(#pf63c19198a)">
     <use xlink:href="#C0_0_1d065974d3" x="84.007444" y="35.947573" style="fill: #ff8c00; fill-opacity: 0.8"/>
    </g>
    <g clip-path="url(#pf63c19198a)">
     <use xlink:href="#C0_0_1d065974d3" x="142.746734" y="57.585438" style="fill: #ff8c00; fill-opacity: 0.8"/>
    </g>
    <g clip-path="url(#pf63c19198a)">
     <use xlink:href="#C0_0_1d065974d3" x="54.691266" y="74.13204" style="fill: #ff8c00; fill-opacity: 0.8"/>
    </g>
   </g>
   <g id="PolyCollection_1">
    <path d="M 33.568432 53.327057 
L 33.568432 68.851211 
L 34.693368 68.575027 
L 35.818304 68.310389 
L 36.94324 68.037755 
L 38.068176 67.77699 
L 39.193112 67.523831 
L 40.318047 67.283392 
L 41.442983 67.023675 
L 42.567919 66.738235 
L 43.692855 66.465062 
L 44.817791 66.205548 
L 45.942726 65.936288 
L 47.067662 65.70529 
L 48.192598 65.475803 
L 49.317534 65.23224 
L 50.44247 64.985296 
L 51.567406 64.746855 
L 52.692341 64.497409 
L 53.817277 64.226454 
L 54.942213 63.977174 
L 56.067149 63.735899 
L 57.192085 63.486822 
L 58.317021 63.234343 
L 59.441956 62.984209 
L 60.566892 62.750971 
L 61.691828 62.531129 
L 62.816764 62.289554 
L 63.9417 62.03316 
L 65.066636 61.794966 
L 66.191571 61.565726 
L 67.316507 61.340554 
L 68.441443 61.107006 
L 69.566379 60.855258 
L 70.691315 60.638783 
L 71.816251 60.411326 
L 72.941186 60.196542 
L 74.066122 59.976836 
L 75.191058 59.779462 
L 76.315994 59.587869 
L 77.44093 59.403169 
L 78.565866 59.231565 
L 79.690801 59.030683 
L 80.815737 58.834244 
L 81.940673 58.663394 
L 83.065609 58.481696 
L 84.190545 58.307884 
L 85.315481 58.144936 
L 86.440416 57.976735 
L 87.565352 57.835424 
L 88.690288 57.690876 
L 89.815224 57.534552 
L 90.94016 57.372881 
L 92.065095 57.229579 
L 93.190031 57.1063 
L 94.314967 57.00259 
L 95.439903 56.863227 
L 96.564839 56.751493 
L 97.689775 56.639369 
L 98.81471 56.531773 
L 99.939646 56.427802 
L 101.064582 56.323669 
L 102.189518 56.227467 
L 103.314454 56.171729 
L 104.43939 56.079258 
L 105.564325 56.010263 
L 106.689261 55.928646 
L 107.814197 55.867475 
L 108.939133 55.827717 
L 110.064069 55.767619 
L 111.189005 55.679744 
L 112.31394 55.624455 
L 113.438876 55.554536 
L 114.563812 55.509256 
L 115.688748 55.444309 
L 116.813684 55.396826 
L 117.93862 55.360755 
L 119.063555 55.314302 
L 120.188491 55.29161 
L 121.313427 55.256025 
L 122.438363 55.223338 
L 123.563299 55.174026 
L 124.688235 55.121695 
L 125.81317 55.108577 
L 126.938106 55.063057 
L 128.063042 55.033911 
L 129.187978 55.017156 
L 130.312914 55.000247 
L 131.43785 54.978622 
L 132.562785 54.94889 
L 133.687721 54.926642 
L 134.812657 54.929825 
L 135.937593 54.917241 
L 137.062529 54.880203 
L 138.187464 54.844402 
L 139.3124 54.828045 
L 140.437336 54.811791 
L 141.562272 54.795064 
L 142.687208 54.779945 
L 143.812144 54.765875 
L 144.937079 54.743012 
L 144.937079 39.585606 
L 144.937079 39.585606 
L 143.812144 39.825 
L 142.687208 40.081331 
L 141.562272 40.341089 
L 140.437336 40.594252 
L 139.3124 40.851551 
L 138.187464 41.109018 
L 137.062529 41.354309 
L 135.937593 41.62079 
L 134.812657 41.883859 
L 133.687721 42.152524 
L 132.562785 42.412666 
L 131.43785 42.664577 
L 130.312914 42.902757 
L 129.187978 43.17994 
L 128.063042 43.421494 
L 126.938106 43.67177 
L 125.81317 43.928461 
L 124.688235 44.177832 
L 123.563299 44.419266 
L 122.438363 44.665137 
L 121.313427 44.920456 
L 120.188491 45.151857 
L 119.063555 45.400033 
L 117.93862 45.652435 
L 116.813684 45.897979 
L 115.688748 46.15285 
L 114.563812 46.403697 
L 113.438876 46.626368 
L 112.31394 46.845571 
L 111.189005 47.065579 
L 110.064069 47.294804 
L 108.939133 47.517606 
L 107.814197 47.723415 
L 106.689261 47.942467 
L 105.564325 48.15932 
L 104.43939 48.372344 
L 103.314454 48.578298 
L 102.189518 48.769006 
L 101.064582 48.973025 
L 99.939646 49.165747 
L 98.81471 49.348147 
L 97.689775 49.543939 
L 96.564839 49.70824 
L 95.439903 49.888762 
L 94.314967 50.060844 
L 93.190031 50.229735 
L 92.065095 50.39083 
L 90.94016 50.540514 
L 89.815224 50.68018 
L 88.690288 50.82666 
L 87.565352 50.955162 
L 86.440416 51.091047 
L 85.315481 51.217742 
L 84.190545 51.343899 
L 83.065609 51.456877 
L 81.940673 51.574453 
L 80.815737 51.682879 
L 79.690801 51.770294 
L 78.565866 51.85987 
L 77.44093 51.93829 
L 76.315994 52.018899 
L 75.191058 52.104166 
L 74.066122 52.163312 
L 72.941186 52.220209 
L 71.816251 52.294545 
L 70.691315 52.360586 
L 69.566379 52.42409 
L 68.441443 52.470426 
L 67.316507 52.512411 
L 66.191571 52.547334 
L 65.066636 52.569077 
L 63.9417 52.621846 
L 62.816764 52.681859 
L 61.691828 52.704646 
L 60.566892 52.738231 
L 59.441956 52.773284 
L 58.317021 52.799888 
L 57.192085 52.838304 
L 56.067149 52.863114 
L 54.942213 52.892953 
L 53.817277 52.909658 
L 52.692341 52.934601 
L 51.567406 52.953574 
L 50.44247 52.990352 
L 49.317534 53.018611 
L 48.192598 53.047703 
L 47.067662 53.092631 
L 45.942726 53.119768 
L 44.817791 53.142699 
L 43.692855 53.163562 
L 42.567919 53.178777 
L 41.442983 53.194899 
L 40.318047 53.210356 
L 39.193112 53.229565 
L 38.068176 53.23469 
L 36.94324 53.253118 
L 35.818304 53.269889 
L 34.693368 53.292495 
L 33.568432 53.327057 
z
" clip-path="url(#pf63c19198a)" style="fill: #ff8c00; fill-opacity: 0.15"/>
   </g>
   <g id="matplotlib.axis_1">
    <g id="xtick_1">
     <g id="line2d_1">
      <defs>
       <path id="m829077595e" d="M 0 0 
L 0 3.5 
" style="stroke: #000000; stroke-width: 0.25"/>
      </defs>
      <g>
       <use xlink:href="#m829077595e" x="35.552101" y="89.405827" style="stroke: #000000; stroke-width: 0.25"/>
      </g>
     </g>
     <g id="text_1">
      <!-- −2 -->
      <g transform="translate(32.701711 97.484733) scale(0.05 -0.05)">
       <defs>
        <path id="ArialMT-2212" d="M 3381 1997 
L 356 1997 
L 356 2522 
L 3381 2522 
L 3381 1997 
z
" transform="scale(0.015625)"/>
        <path id="ArialMT-32" d="M 3222 541 
L 3222 0 
L 194 0 
Q 188 203 259 391 
Q 375 700 629 1000 
Q 884 1300 1366 1694 
Q 2113 2306 2375 2664 
Q 2638 3022 2638 3341 
Q 2638 3675 2398 3904 
Q 2159 4134 1775 4134 
Q 1369 4134 1125 3890 
Q 881 3647 878 3216 
L 300 3275 
Q 359 3922 746 4261 
Q 1134 4600 1788 4600 
Q 2447 4600 2831 4234 
Q 3216 3869 3216 3328 
Q 3216 3053 3103 2787 
Q 2991 2522 2730 2228 
Q 2469 1934 1863 1422 
Q 1356 997 1212 845 
Q 1069 694 975 541 
L 3222 541 
z
" transform="scale(0.015625)"/>
       </defs>
       <use xlink:href="#ArialMT-2212"/>
       <use xlink:href="#ArialMT-32" x="58.398438"/>
      </g>
     </g>
    </g>
    <g id="xtick_2">
     <g id="line2d_2">
      <g>
       <use xlink:href="#m829077595e" x="64.803265" y="89.405827" style="stroke: #000000; stroke-width: 0.25"/>
      </g>
     </g>
     <g id="text_2">
      <!-- −1 -->
      <g transform="translate(61.952874 97.484733) scale(0.05 -0.05)">
       <defs>
        <path id="ArialMT-31" d="M 2384 0 
L 1822 0 
L 1822 3584 
Q 1619 3391 1289 3197 
Q 959 3003 697 2906 
L 697 3450 
Q 1169 3672 1522 3987 
Q 1875 4303 2022 4600 
L 2384 4600 
L 2384 0 
z
" transform="scale(0.015625)"/>
       </defs>
       <use xlink:href="#ArialMT-2212"/>
       <use xlink:href="#ArialMT-31" x="58.398438"/>
      </g>
     </g>
    </g>
    <g id="xtick_3">
     <g id="line2d_3">
      <g>
       <use xlink:href="#m829077595e" x="94.054428" y="89.405827" style="stroke: #000000; stroke-width: 0.25"/>
      </g>
     </g>
     <g id="text_3">
      <!-- 0 -->
      <g transform="translate(92.664194 97.484733) scale(0.05 -0.05)">
       <defs>
        <path id="ArialMT-30" d="M 266 2259 
Q 266 3072 433 3567 
Q 600 4063 929 4331 
Q 1259 4600 1759 4600 
Q 2128 4600 2406 4451 
Q 2684 4303 2865 4023 
Q 3047 3744 3150 3342 
Q 3253 2941 3253 2259 
Q 3253 1453 3087 958 
Q 2922 463 2592 192 
Q 2263 -78 1759 -78 
Q 1097 -78 719 397 
Q 266 969 266 2259 
z
M 844 2259 
Q 844 1131 1108 757 
Q 1372 384 1759 384 
Q 2147 384 2411 759 
Q 2675 1134 2675 2259 
Q 2675 3391 2411 3762 
Q 2147 4134 1753 4134 
Q 1366 4134 1134 3806 
Q 844 3388 844 2259 
z
" transform="scale(0.015625)"/>
       </defs>
       <use xlink:href="#ArialMT-30"/>
      </g>
     </g>
    </g>
    <g id="xtick_4">
     <g id="line2d_4">
      <g>
       <use xlink:href="#m829077595e" x="123.305591" y="89.405827" style="stroke: #000000; stroke-width: 0.25"/>
      </g>
     </g>
     <g id="text_4">
      <!-- 1 -->
      <g transform="translate(121.915357 97.484733) scale(0.05 -0.05)">
       <use xlink:href="#ArialMT-31"/>
      </g>
     </g>
    </g>
    <g id="text_5">
     <!-- CTh PC1 [a.u.] -->
     <g transform="translate(69.412443 106.846296) scale(0.06 -0.06)">
      <defs>
       <path id="ArialMT-43" d="M 3763 1606 
L 4369 1453 
Q 4178 706 3683 314 
Q 3188 -78 2472 -78 
Q 1731 -78 1267 223 
Q 803 525 561 1097 
Q 319 1669 319 2325 
Q 319 3041 592 3573 
Q 866 4106 1370 4382 
Q 1875 4659 2481 4659 
Q 3169 4659 3637 4309 
Q 4106 3959 4291 3325 
L 3694 3184 
Q 3534 3684 3231 3912 
Q 2928 4141 2469 4141 
Q 1941 4141 1586 3887 
Q 1231 3634 1087 3207 
Q 944 2781 944 2328 
Q 944 1744 1114 1308 
Q 1284 872 1643 656 
Q 2003 441 2422 441 
Q 2931 441 3284 734 
Q 3638 1028 3763 1606 
z
" transform="scale(0.015625)"/>
       <path id="ArialMT-54" d="M 1659 0 
L 1659 4041 
L 150 4041 
L 150 4581 
L 3781 4581 
L 3781 4041 
L 2266 4041 
L 2266 0 
L 1659 0 
z
" transform="scale(0.015625)"/>
       <path id="ArialMT-68" d="M 422 0 
L 422 4581 
L 984 4581 
L 984 2938 
Q 1378 3394 1978 3394 
Q 2347 3394 2619 3248 
Q 2891 3103 3008 2847 
Q 3125 2591 3125 2103 
L 3125 0 
L 2563 0 
L 2563 2103 
Q 2563 2525 2380 2717 
Q 2197 2909 1863 2909 
Q 1613 2909 1392 2779 
Q 1172 2650 1078 2428 
Q 984 2206 984 1816 
L 984 0 
L 422 0 
z
" transform="scale(0.015625)"/>
       <path id="ArialMT-20" transform="scale(0.015625)"/>
       <path id="ArialMT-50" d="M 494 0 
L 494 4581 
L 2222 4581 
Q 2678 4581 2919 4538 
Q 3256 4481 3484 4323 
Q 3713 4166 3852 3881 
Q 3991 3597 3991 3256 
Q 3991 2672 3619 2267 
Q 3247 1863 2275 1863 
L 1100 1863 
L 1100 0 
L 494 0 
z
M 1100 2403 
L 2284 2403 
Q 2872 2403 3119 2622 
Q 3366 2841 3366 3238 
Q 3366 3525 3220 3729 
Q 3075 3934 2838 4000 
Q 2684 4041 2272 4041 
L 1100 4041 
L 1100 2403 
z
" transform="scale(0.015625)"/>
       <path id="ArialMT-5b" d="M 434 -1272 
L 434 4581 
L 1675 4581 
L 1675 4116 
L 997 4116 
L 997 -806 
L 1675 -806 
L 1675 -1272 
L 434 -1272 
z
" transform="scale(0.015625)"/>
       <path id="ArialMT-61" d="M 2588 409 
Q 2275 144 1986 34 
Q 1697 -75 1366 -75 
Q 819 -75 525 192 
Q 231 459 231 875 
Q 231 1119 342 1320 
Q 453 1522 633 1644 
Q 813 1766 1038 1828 
Q 1203 1872 1538 1913 
Q 2219 1994 2541 2106 
Q 2544 2222 2544 2253 
Q 2544 2597 2384 2738 
Q 2169 2928 1744 2928 
Q 1347 2928 1158 2789 
Q 969 2650 878 2297 
L 328 2372 
Q 403 2725 575 2942 
Q 747 3159 1072 3276 
Q 1397 3394 1825 3394 
Q 2250 3394 2515 3294 
Q 2781 3194 2906 3042 
Q 3031 2891 3081 2659 
Q 3109 2516 3109 2141 
L 3109 1391 
Q 3109 606 3145 398 
Q 3181 191 3288 0 
L 2700 0 
Q 2613 175 2588 409 
z
M 2541 1666 
Q 2234 1541 1622 1453 
Q 1275 1403 1131 1340 
Q 988 1278 909 1158 
Q 831 1038 831 891 
Q 831 666 1001 516 
Q 1172 366 1500 366 
Q 1825 366 2078 508 
Q 2331 650 2450 897 
Q 2541 1088 2541 1459 
L 2541 1666 
z
" transform="scale(0.015625)"/>
       <path id="ArialMT-2e" d="M 581 0 
L 581 641 
L 1222 641 
L 1222 0 
L 581 0 
z
" transform="scale(0.015625)"/>
       <path id="ArialMT-75" d="M 2597 0 
L 2597 488 
Q 2209 -75 1544 -75 
Q 1250 -75 995 37 
Q 741 150 617 320 
Q 494 491 444 738 
Q 409 903 409 1263 
L 409 3319 
L 972 3319 
L 972 1478 
Q 972 1038 1006 884 
Q 1059 663 1231 536 
Q 1403 409 1656 409 
Q 1909 409 2131 539 
Q 2353 669 2445 892 
Q 2538 1116 2538 1541 
L 2538 3319 
L 3100 3319 
L 3100 0 
L 2597 0 
z
" transform="scale(0.015625)"/>
       <path id="ArialMT-5d" d="M 1363 -1272 
L 122 -1272 
L 122 -806 
L 800 -806 
L 800 4116 
L 122 4116 
L 122 4581 
L 1363 4581 
L 1363 -1272 
z
" transform="scale(0.015625)"/>
      </defs>
      <use xlink:href="#ArialMT-43"/>
      <use xlink:href="#ArialMT-54" x="72.216797"/>
      <use xlink:href="#ArialMT-68" x="133.300781"/>
      <use xlink:href="#ArialMT-20" x="188.916016"/>
      <use xlink:href="#ArialMT-50" x="216.699219"/>
      <use xlink:href="#ArialMT-43" x="283.398438"/>
      <use xlink:href="#ArialMT-31" x="355.615234"/>
      <use xlink:href="#ArialMT-20" x="411.230469"/>
      <use xlink:href="#ArialMT-5b" x="439.013672"/>
      <use xlink:href="#ArialMT-61" x="466.796875"/>
      <use xlink:href="#ArialMT-2e" x="522.412109"/>
      <use xlink:href="#ArialMT-75" x="550.195312"/>
      <use xlink:href="#ArialMT-2e" x="605.810547"/>
      <use xlink:href="#ArialMT-5d" x="633.59375"/>
     </g>
    </g>
   </g>
   <g id="matplotlib.axis_2">
    <g id="ytick_1">
     <g id="line2d_5">
      <defs>
       <path id="m388de12d5e" d="M 0 0 
L -3.5 0 
" style="stroke: #000000; stroke-width: 0.25"/>
      </defs>
      <g>
       <use xlink:href="#m388de12d5e" x="28" y="86.860196" style="stroke: #000000; stroke-width: 0.25"/>
      </g>
     </g>
     <g id="text_6">
      <!-- 70 -->
      <g transform="translate(17.939062 88.649649) scale(0.05 -0.05)">
       <defs>
        <path id="ArialMT-37" d="M 303 3981 
L 303 4522 
L 3269 4522 
L 3269 4084 
Q 2831 3619 2401 2847 
Q 1972 2075 1738 1259 
Q 1569 684 1522 0 
L 944 0 
Q 953 541 1156 1306 
Q 1359 2072 1739 2783 
Q 2119 3494 2547 3981 
L 303 3981 
z
" transform="scale(0.015625)"/>
       </defs>
       <use xlink:href="#ArialMT-37"/>
       <use xlink:href="#ArialMT-30" x="55.615234"/>
      </g>
     </g>
    </g>
    <g id="ytick_2">
     <g id="line2d_6">
      <g>
       <use xlink:href="#m388de12d5e" x="28" y="74.13204" style="stroke: #000000; stroke-width: 0.25"/>
      </g>
     </g>
     <g id="text_7">
      <!-- 80 -->
      <g transform="translate(17.939062 75.921493) scale(0.05 -0.05)">
       <defs>
        <path id="ArialMT-38" d="M 1131 2484 
Q 781 2613 612 2850 
Q 444 3088 444 3419 
Q 444 3919 803 4259 
Q 1163 4600 1759 4600 
Q 2359 4600 2725 4251 
Q 3091 3903 3091 3403 
Q 3091 3084 2923 2848 
Q 2756 2613 2416 2484 
Q 2838 2347 3058 2040 
Q 3278 1734 3278 1309 
Q 3278 722 2862 322 
Q 2447 -78 1769 -78 
Q 1091 -78 675 323 
Q 259 725 259 1325 
Q 259 1772 486 2073 
Q 713 2375 1131 2484 
z
M 1019 3438 
Q 1019 3113 1228 2906 
Q 1438 2700 1772 2700 
Q 2097 2700 2305 2904 
Q 2513 3109 2513 3406 
Q 2513 3716 2298 3927 
Q 2084 4138 1766 4138 
Q 1444 4138 1231 3931 
Q 1019 3725 1019 3438 
z
M 838 1322 
Q 838 1081 952 856 
Q 1066 631 1291 507 
Q 1516 384 1775 384 
Q 2178 384 2440 643 
Q 2703 903 2703 1303 
Q 2703 1709 2433 1975 
Q 2163 2241 1756 2241 
Q 1359 2241 1098 1978 
Q 838 1716 838 1322 
z
" transform="scale(0.015625)"/>
       </defs>
       <use xlink:href="#ArialMT-38"/>
       <use xlink:href="#ArialMT-30" x="55.615234"/>
      </g>
     </g>
    </g>
    <g id="ytick_3">
     <g id="line2d_7">
      <g>
       <use xlink:href="#m388de12d5e" x="28" y="61.403885" style="stroke: #000000; stroke-width: 0.25"/>
      </g>
     </g>
     <g id="text_8">
      <!-- 90 -->
      <g transform="translate(17.939062 63.193338) scale(0.05 -0.05)">
       <defs>
        <path id="ArialMT-39" d="M 350 1059 
L 891 1109 
Q 959 728 1153 556 
Q 1347 384 1650 384 
Q 1909 384 2104 503 
Q 2300 622 2425 820 
Q 2550 1019 2634 1356 
Q 2719 1694 2719 2044 
Q 2719 2081 2716 2156 
Q 2547 1888 2255 1720 
Q 1963 1553 1622 1553 
Q 1053 1553 659 1965 
Q 266 2378 266 3053 
Q 266 3750 677 4175 
Q 1088 4600 1706 4600 
Q 2153 4600 2523 4359 
Q 2894 4119 3086 3673 
Q 3278 3228 3278 2384 
Q 3278 1506 3087 986 
Q 2897 466 2520 194 
Q 2144 -78 1638 -78 
Q 1100 -78 759 220 
Q 419 519 350 1059 
z
M 2653 3081 
Q 2653 3566 2395 3850 
Q 2138 4134 1775 4134 
Q 1400 4134 1122 3828 
Q 844 3522 844 3034 
Q 844 2597 1108 2323 
Q 1372 2050 1759 2050 
Q 2150 2050 2401 2323 
Q 2653 2597 2653 3081 
z
" transform="scale(0.015625)"/>
       </defs>
       <use xlink:href="#ArialMT-39"/>
       <use xlink:href="#ArialMT-30" x="55.615234"/>
      </g>
     </g>
    </g>
    <g id="ytick_4">
     <g id="line2d_8">
      <g>
       <use xlink:href="#m388de12d5e" x="28" y="48.675729" style="stroke: #000000; stroke-width: 0.25"/>
      </g>
     </g>
     <g id="text_9">
      <!-- 100 -->
      <g transform="translate(15.158594 50.465182) scale(0.05 -0.05)">
       <use xlink:href="#ArialMT-31"/>
       <use xlink:href="#ArialMT-30" x="55.615234"/>
       <use xlink:href="#ArialMT-30" x="111.230469"/>
      </g>
     </g>
    </g>
    <g id="ytick_5">
     <g id="line2d_9">
      <g>
       <use xlink:href="#m388de12d5e" x="28" y="35.947573" style="stroke: #000000; stroke-width: 0.25"/>
      </g>
     </g>
     <g id="text_10">
      <!-- 110 -->
      <g transform="translate(15.527344 37.737026) scale(0.05 -0.05)">
       <use xlink:href="#ArialMT-31"/>
       <use xlink:href="#ArialMT-31" x="48.240234"/>
       <use xlink:href="#ArialMT-30" x="103.855469"/>
      </g>
     </g>
    </g>
    <g id="ytick_6">
     <g id="line2d_10">
      <g>
       <use xlink:href="#m388de12d5e" x="28" y="23.219418" style="stroke: #000000; stroke-width: 0.25"/>
      </g>
     </g>
     <g id="text_11">
      <!-- 120 -->
      <g transform="translate(15.158594 25.008871) scale(0.05 -0.05)">
       <use xlink:href="#ArialMT-31"/>
       <use xlink:href="#ArialMT-32" x="55.615234"/>
       <use xlink:href="#ArialMT-30" x="111.230469"/>
      </g>
     </g>
    </g>
    <g id="ytick_7">
     <g id="line2d_11">
      <g>
       <use xlink:href="#m388de12d5e" x="28" y="10.491262" style="stroke: #000000; stroke-width: 0.25"/>
      </g>
     </g>
     <g id="text_12">
      <!-- 130 -->
      <g transform="translate(15.158594 12.280715) scale(0.05 -0.05)">
       <defs>
        <path id="ArialMT-33" d="M 269 1209 
L 831 1284 
Q 928 806 1161 595 
Q 1394 384 1728 384 
Q 2125 384 2398 659 
Q 2672 934 2672 1341 
Q 2672 1728 2419 1979 
Q 2166 2231 1775 2231 
Q 1616 2231 1378 2169 
L 1441 2663 
Q 1497 2656 1531 2656 
Q 1891 2656 2178 2843 
Q 2466 3031 2466 3422 
Q 2466 3731 2256 3934 
Q 2047 4138 1716 4138 
Q 1388 4138 1169 3931 
Q 950 3725 888 3313 
L 325 3413 
Q 428 3978 793 4289 
Q 1159 4600 1703 4600 
Q 2078 4600 2393 4439 
Q 2709 4278 2876 4000 
Q 3044 3722 3044 3409 
Q 3044 3113 2884 2869 
Q 2725 2625 2413 2481 
Q 2819 2388 3044 2092 
Q 3269 1797 3269 1353 
Q 3269 753 2831 336 
Q 2394 -81 1725 -81 
Q 1122 -81 723 278 
Q 325 638 269 1209 
z
" transform="scale(0.015625)"/>
       </defs>
       <use xlink:href="#ArialMT-31"/>
       <use xlink:href="#ArialMT-33" x="55.615234"/>
       <use xlink:href="#ArialMT-30" x="111.230469"/>
      </g>
     </g>
    </g>
    <g id="text_13">
     <!-- Full-scale IQ [a.u.] -->
     <g transform="translate(9.966094 71.742757) rotate(-90) scale(0.06 -0.06)">
      <defs>
       <path id="ArialMT-46" d="M 525 0 
L 525 4581 
L 3616 4581 
L 3616 4041 
L 1131 4041 
L 1131 2622 
L 3281 2622 
L 3281 2081 
L 1131 2081 
L 1131 0 
L 525 0 
z
" transform="scale(0.015625)"/>
       <path id="ArialMT-6c" d="M 409 0 
L 409 4581 
L 972 4581 
L 972 0 
L 409 0 
z
" transform="scale(0.015625)"/>
       <path id="ArialMT-2d" d="M 203 1375 
L 203 1941 
L 1931 1941 
L 1931 1375 
L 203 1375 
z
" transform="scale(0.015625)"/>
       <path id="ArialMT-73" d="M 197 991 
L 753 1078 
Q 800 744 1014 566 
Q 1228 388 1613 388 
Q 2000 388 2187 545 
Q 2375 703 2375 916 
Q 2375 1106 2209 1216 
Q 2094 1291 1634 1406 
Q 1016 1563 777 1677 
Q 538 1791 414 1992 
Q 291 2194 291 2438 
Q 291 2659 392 2848 
Q 494 3038 669 3163 
Q 800 3259 1026 3326 
Q 1253 3394 1513 3394 
Q 1903 3394 2198 3281 
Q 2494 3169 2634 2976 
Q 2775 2784 2828 2463 
L 2278 2388 
Q 2241 2644 2061 2787 
Q 1881 2931 1553 2931 
Q 1166 2931 1000 2803 
Q 834 2675 834 2503 
Q 834 2394 903 2306 
Q 972 2216 1119 2156 
Q 1203 2125 1616 2013 
Q 2213 1853 2448 1751 
Q 2684 1650 2818 1456 
Q 2953 1263 2953 975 
Q 2953 694 2789 445 
Q 2625 197 2315 61 
Q 2006 -75 1616 -75 
Q 969 -75 630 194 
Q 291 463 197 991 
z
" transform="scale(0.015625)"/>
       <path id="ArialMT-63" d="M 2588 1216 
L 3141 1144 
Q 3050 572 2676 248 
Q 2303 -75 1759 -75 
Q 1078 -75 664 370 
Q 250 816 250 1647 
Q 250 2184 428 2587 
Q 606 2991 970 3192 
Q 1334 3394 1763 3394 
Q 2303 3394 2647 3120 
Q 2991 2847 3088 2344 
L 2541 2259 
Q 2463 2594 2264 2762 
Q 2066 2931 1784 2931 
Q 1359 2931 1093 2626 
Q 828 2322 828 1663 
Q 828 994 1084 691 
Q 1341 388 1753 388 
Q 2084 388 2306 591 
Q 2528 794 2588 1216 
z
" transform="scale(0.015625)"/>
       <path id="ArialMT-65" d="M 2694 1069 
L 3275 997 
Q 3138 488 2766 206 
Q 2394 -75 1816 -75 
Q 1088 -75 661 373 
Q 234 822 234 1631 
Q 234 2469 665 2931 
Q 1097 3394 1784 3394 
Q 2450 3394 2872 2941 
Q 3294 2488 3294 1666 
Q 3294 1616 3291 1516 
L 816 1516 
Q 847 969 1125 678 
Q 1403 388 1819 388 
Q 2128 388 2347 550 
Q 2566 713 2694 1069 
z
M 847 1978 
L 2700 1978 
Q 2663 2397 2488 2606 
Q 2219 2931 1791 2931 
Q 1403 2931 1139 2672 
Q 875 2413 847 1978 
z
" transform="scale(0.015625)"/>
       <path id="ArialMT-49" d="M 597 0 
L 597 4581 
L 1203 4581 
L 1203 0 
L 597 0 
z
" transform="scale(0.015625)"/>
       <path id="ArialMT-51" d="M 3966 491 
Q 4388 200 4744 66 
L 4566 -356 
Q 4072 -178 3581 206 
Q 3072 -78 2456 -78 
Q 1834 -78 1328 222 
Q 822 522 548 1065 
Q 275 1609 275 2291 
Q 275 2969 550 3525 
Q 825 4081 1333 4372 
Q 1841 4663 2469 4663 
Q 3103 4663 3612 4361 
Q 4122 4059 4389 3517 
Q 4656 2975 4656 2294 
Q 4656 1728 4484 1276 
Q 4313 825 3966 491 
z
M 2631 1266 
Q 3156 1119 3497 828 
Q 4031 1316 4031 2294 
Q 4031 2850 3842 3265 
Q 3653 3681 3289 3911 
Q 2925 4141 2472 4141 
Q 1794 4141 1347 3677 
Q 900 3213 900 2291 
Q 900 1397 1342 919 
Q 1784 441 2472 441 
Q 2797 441 3084 563 
Q 2800 747 2484 825 
L 2631 1266 
z
" transform="scale(0.015625)"/>
      </defs>
      <use xlink:href="#ArialMT-46"/>
      <use xlink:href="#ArialMT-75" x="61.083984"/>
      <use xlink:href="#ArialMT-6c" x="116.699219"/>
      <use xlink:href="#ArialMT-6c" x="138.916016"/>
      <use xlink:href="#ArialMT-2d" x="161.132812"/>
      <use xlink:href="#ArialMT-73" x="194.433594"/>
      <use xlink:href="#ArialMT-63" x="244.433594"/>
      <use xlink:href="#ArialMT-61" x="294.433594"/>
      <use xlink:href="#ArialMT-6c" x="350.048828"/>
      <use xlink:href="#ArialMT-65" x="372.265625"/>
      <use xlink:href="#ArialMT-20" x="427.880859"/>
      <use xlink:href="#ArialMT-49" x="455.664062"/>
      <use xlink:href="#ArialMT-51" x="483.447266"/>
      <use xlink:href="#ArialMT-20" x="561.230469"/>
      <use xlink:href="#ArialMT-5b" x="589.013672"/>
      <use xlink:href="#ArialMT-61" x="616.796875"/>
      <use xlink:href="#ArialMT-2e" x="672.412109"/>
      <use xlink:href="#ArialMT-75" x="700.195312"/>
      <use xlink:href="#ArialMT-2e" x="755.810547"/>
      <use xlink:href="#ArialMT-5d" x="783.59375"/>
     </g>
    </g>
   </g>
   <g id="line2d_12">
    <path d="M 33.568432 61.393528 
L 34.693368 61.248629 
L 35.818304 61.10373 
L 36.94324 60.958831 
L 38.068176 60.813931 
L 39.193112 60.669032 
L 40.318047 60.524133 
L 41.442983 60.379234 
L 42.567919 60.234335 
L 43.692855 60.089436 
L 44.817791 59.944537 
L 45.942726 59.799638 
L 47.067662 59.654739 
L 48.192598 59.50984 
L 49.317534 59.36494 
L 50.44247 59.220041 
L 51.567406 59.075142 
L 52.692341 58.930243 
L 53.817277 58.785344 
L 54.942213 58.640445 
L 56.067149 58.495546 
L 57.192085 58.350647 
L 58.317021 58.205748 
L 59.441956 58.060848 
L 60.566892 57.915949 
L 61.691828 57.77105 
L 62.816764 57.626151 
L 63.9417 57.481252 
L 65.066636 57.336353 
L 66.191571 57.191454 
L 67.316507 57.046555 
L 68.441443 56.901656 
L 69.566379 56.756757 
L 70.691315 56.611857 
L 71.816251 56.466958 
L 72.941186 56.322059 
L 74.066122 56.17716 
L 75.191058 56.032261 
L 76.315994 55.887362 
L 77.44093 55.742463 
L 78.565866 55.597564 
L 79.690801 55.452665 
L 80.815737 55.307765 
L 81.940673 55.162866 
L 83.065609 55.017967 
L 84.190545 54.873068 
L 85.315481 54.728169 
L 86.440416 54.58327 
L 87.565352 54.438371 
L 88.690288 54.293472 
L 89.815224 54.148573 
L 90.94016 54.003673 
L 92.065095 53.858774 
L 93.190031 53.713875 
L 94.314967 53.568976 
L 95.439903 53.424077 
L 96.564839 53.279178 
L 97.689775 53.134279 
L 98.81471 52.98938 
L 99.939646 52.844481 
L 101.064582 52.699582 
L 102.189518 52.554682 
L 103.314454 52.409783 
L 104.43939 52.264884 
L 105.564325 52.119985 
L 106.689261 51.975086 
L 107.814197 51.830187 
L 108.939133 51.685288 
L 110.064069 51.540389 
L 111.189005 51.39549 
L 112.31394 51.25059 
L 113.438876 51.105691 
L 114.563812 50.960792 
L 115.688748 50.815893 
L 116.813684 50.670994 
L 117.93862 50.526095 
L 119.063555 50.381196 
L 120.188491 50.236297 
L 121.313427 50.091398 
L 122.438363 49.946499 
L 123.563299 49.801599 
L 124.688235 49.6567 
L 125.81317 49.511801 
L 126.938106 49.366902 
L 128.063042 49.222003 
L 129.187978 49.077104 
L 130.312914 48.932205 
L 131.43785 48.787306 
L 132.562785 48.642407 
L 133.687721 48.497507 
L 134.812657 48.352608 
L 135.937593 48.207709 
L 137.062529 48.06281 
L 138.187464 47.917911 
L 139.3124 47.773012 
L 140.437336 47.628113 
L 141.562272 47.483214 
L 142.687208 47.338315 
L 143.812144 47.193415 
L 144.937079 47.048516 
" clip-path="url(#pf63c19198a)" style="fill: none; stroke: #ff8c00; stroke-width: 0.75; stroke-linecap: square"/>
   </g>
   <g id="patch_3">
    <path d="M 28 89.405827 
L 28 5.4 
" style="fill: none; stroke: #000000; stroke-width: 0.25; stroke-linejoin: miter; stroke-linecap: square"/>
   </g>
   <g id="patch_4">
    <path d="M 28 89.405827 
L 150.505512 89.405827 
" style="fill: none; stroke: #000000; stroke-width: 0.25; stroke-linejoin: miter; stroke-linecap: square"/>
   </g>
   <g id="text_14">
    <g id="patch_5">
     <path d="M 31.675165 18.702773 
L 55.325165 18.702773 
Q 56.825165 18.702773 56.825165 17.202773 
L 56.825165 7.136367 
Q 56.825165 5.636367 55.325165 5.636367 
L 31.675165 5.636367 
Q 30.175165 5.636367 30.175165 7.136367 
L 30.175165 17.202773 
Q 30.175165 18.702773 31.675165 18.702773 
z
" style="fill: #c0c0c0; opacity: 0.4; stroke: #c0c0c0; stroke-linejoin: miter"/>
    </g>
    <!-- $r=0.183$ -->
    <g transform="translate(31.675165 10.659023) scale(0.05 -0.05)">
     <defs>
      <path id="DejaVuSans-Oblique-72" d="M 2853 2969 
Q 2766 3016 2653 3041 
Q 2541 3066 2413 3066 
Q 1953 3066 1609 2717 
Q 1266 2369 1153 1784 
L 800 0 
L 225 0 
L 909 3500 
L 1484 3500 
L 1375 2956 
Q 1603 3259 1920 3421 
Q 2238 3584 2597 3584 
Q 2691 3584 2781 3573 
Q 2872 3563 2963 3538 
L 2853 2969 
z
" transform="scale(0.015625)"/>
      <path id="DejaVuSans-3d" d="M 678 2906 
L 4684 2906 
L 4684 2381 
L 678 2381 
L 678 2906 
z
M 678 1631 
L 4684 1631 
L 4684 1100 
L 678 1100 
L 678 1631 
z
" transform="scale(0.015625)"/>
      <path id="DejaVuSans-30" d="M 2034 4250 
Q 1547 4250 1301 3770 
Q 1056 3291 1056 2328 
Q 1056 1369 1301 889 
Q 1547 409 2034 409 
Q 2525 409 2770 889 
Q 3016 1369 3016 2328 
Q 3016 3291 2770 3770 
Q 2525 4250 2034 4250 
z
M 2034 4750 
Q 2819 4750 3233 4129 
Q 3647 3509 3647 2328 
Q 3647 1150 3233 529 
Q 2819 -91 2034 -91 
Q 1250 -91 836 529 
Q 422 1150 422 2328 
Q 422 3509 836 4129 
Q 1250 4750 2034 4750 
z
" transform="scale(0.015625)"/>
      <path id="DejaVuSans-2e" d="M 684 794 
L 1344 794 
L 1344 0 
L 684 0 
L 684 794 
z
" transform="scale(0.015625)"/>
      <path id="DejaVuSans-31" d="M 794 531 
L 1825 531 
L 1825 4091 
L 703 3866 
L 703 4441 
L 1819 4666 
L 2450 4666 
L 2450 531 
L 3481 531 
L 3481 0 
L 794 0 
L 794 531 
z
" transform="scale(0.015625)"/>
      <path id="DejaVuSans-38" d="M 2034 2216 
Q 1584 2216 1326 1975 
Q 1069 1734 1069 1313 
Q 1069 891 1326 650 
Q 1584 409 2034 409 
Q 2484 409 2743 651 
Q 3003 894 3003 1313 
Q 3003 1734 2745 1975 
Q 2488 2216 2034 2216 
z
M 1403 2484 
Q 997 2584 770 2862 
Q 544 3141 544 3541 
Q 544 4100 942 4425 
Q 1341 4750 2034 4750 
Q 2731 4750 3128 4425 
Q 3525 4100 3525 3541 
Q 3525 3141 3298 2862 
Q 3072 2584 2669 2484 
Q 3125 2378 3379 2068 
Q 3634 1759 3634 1313 
Q 3634 634 3220 271 
Q 2806 -91 2034 -91 
Q 1263 -91 848 271 
Q 434 634 434 1313 
Q 434 1759 690 2068 
Q 947 2378 1403 2484 
z
M 1172 3481 
Q 1172 3119 1398 2916 
Q 1625 2713 2034 2713 
Q 2441 2713 2670 2916 
Q 2900 3119 2900 3481 
Q 2900 3844 2670 4047 
Q 2441 4250 2034 4250 
Q 1625 4250 1398 4047 
Q 1172 3844 1172 3481 
z
" transform="scale(0.015625)"/>
      <path id="DejaVuSans-33" d="M 2597 2516 
Q 3050 2419 3304 2112 
Q 3559 1806 3559 1356 
Q 3559 666 3084 287 
Q 2609 -91 1734 -91 
Q 1441 -91 1130 -33 
Q 819 25 488 141 
L 488 750 
Q 750 597 1062 519 
Q 1375 441 1716 441 
Q 2309 441 2620 675 
Q 2931 909 2931 1356 
Q 2931 1769 2642 2001 
Q 2353 2234 1838 2234 
L 1294 2234 
L 1294 2753 
L 1863 2753 
Q 2328 2753 2575 2939 
Q 2822 3125 2822 3475 
Q 2822 3834 2567 4026 
Q 2313 4219 1838 4219 
Q 1578 4219 1281 4162 
Q 984 4106 628 3988 
L 628 4550 
Q 988 4650 1302 4700 
Q 1616 4750 1894 4750 
Q 2613 4750 3031 4423 
Q 3450 4097 3450 3541 
Q 3450 3153 3228 2886 
Q 3006 2619 2597 2516 
z
" transform="scale(0.015625)"/>
     </defs>
     <use xlink:href="#DejaVuSans-Oblique-72" transform="translate(0 0.78125)"/>
     <use xlink:href="#DejaVuSans-3d" transform="translate(60.595703 0.78125)"/>
     <use xlink:href="#DejaVuSans-30" transform="translate(163.867188 0.78125)"/>
     <use xlink:href="#DejaVuSans-2e" transform="translate(227.490234 0.78125)"/>
     <use xlink:href="#DejaVuSans-31" transform="translate(259.277344 0.78125)"/>
     <use xlink:href="#DejaVuSans-38" transform="translate(322.900391 0.78125)"/>
     <use xlink:href="#DejaVuSans-33" transform="translate(386.523438 0.78125)"/>
    </g>
    <!-- $p=0.111$ -->
    <g transform="translate(31.675165 16.152773) scale(0.05 -0.05)">
     <defs>
      <path id="DejaVuSans-Oblique-70" d="M 3175 2156 
Q 3175 2616 2975 2859 
Q 2775 3103 2400 3103 
Q 2144 3103 1911 2972 
Q 1678 2841 1497 2591 
Q 1319 2344 1212 1994 
Q 1106 1644 1106 1300 
Q 1106 863 1306 627 
Q 1506 391 1875 391 
Q 2147 391 2380 519 
Q 2613 647 2778 891 
Q 2956 1147 3065 1494 
Q 3175 1841 3175 2156 
z
M 1394 2969 
Q 1625 3272 1939 3428 
Q 2253 3584 2638 3584 
Q 3175 3584 3472 3232 
Q 3769 2881 3769 2247 
Q 3769 1728 3584 1258 
Q 3400 788 3053 416 
Q 2822 169 2531 39 
Q 2241 -91 1919 -91 
Q 1547 -91 1294 64 
Q 1041 219 916 525 
L 556 -1331 
L -19 -1331 
L 922 3500 
L 1497 3500 
L 1394 2969 
z
" transform="scale(0.015625)"/>
     </defs>
     <use xlink:href="#DejaVuSans-Oblique-70" transform="translate(0 0.78125)"/>
     <use xlink:href="#DejaVuSans-3d" transform="translate(82.958984 0.78125)"/>
     <use xlink:href="#DejaVuSans-30" transform="translate(186.230469 0.78125)"/>
     <use xlink:href="#DejaVuSans-2e" transform="translate(249.853516 0.78125)"/>
     <use xlink:href="#DejaVuSans-31" transform="translate(281.640625 0.78125)"/>
     <use xlink:href="#DejaVuSans-31" transform="translate(345.263672 0.78125)"/>
     <use xlink:href="#DejaVuSans-31" transform="translate(408.886719 0.78125)"/>
    </g>
   </g>
  </g>
 </g>
 <defs>
  <clipPath id="pf63c19198a">
   <rect x="28" y="5.4" width="122.505512" height="84.005827"/>
  </clipPath>
 </defs>
</svg>
