<?xml version="1.0" encoding="utf-8" standalone="no"?>
<!DOCTYPE svg PUBLIC "-//W3C//DTD SVG 1.1//EN"
  "http://www.w3.org/Graphics/SVG/1.1/DTD/svg11.dtd">
<svg xmlns:xlink="http://www.w3.org/1999/xlink" width="155.905512pt" height="113.385827pt" viewBox="0 0 155.905512 113.385827" xmlns="http://www.w3.org/2000/svg" version="1.1">
 <metadata>
  <rdf:RDF xmlns:dc="http://purl.org/dc/elements/1.1/" xmlns:cc="http://creativecommons.org/ns#" xmlns:rdf="http://www.w3.org/1999/02/22-rdf-syntax-ns#">
   <cc:Work>
    <dc:type rdf:resource="http://purl.org/dc/dcmitype/StillImage"/>
    <dc:date>2025-08-13T11:27:43.755888</dc:date>
    <dc:format>image/svg+xml</dc:format>
    <dc:creator>
     <cc:Agent>
      <dc:title>Matplotlib v3.9.2, https://matplotlib.org/</dc:title>
     </cc:Agent>
    </dc:creator>
   </cc:Work>
  </rdf:RDF>
 </metadata>
 <defs>
  <style type="text/css">*{stroke-linejoin: round; stroke-linecap: butt}</style>
 </defs>
 <g id="figure_1">
  <g id="patch_1">
   <path d="M 0 113.385827 
L 155.905512 113.385827 
L 155.905512 0 
L 0 0 
z
" style="fill: #ffffff"/>
  </g>
  <g id="axes_1">
   <g id="patch_2">
    <path d="M 25.36 89.405827 
L 150.505512 89.405827 
L 150.505512 5.4 
L 25.36 5.4 
z
" style="fill: #ffffff"/>
   </g>
   <g id="PathCollection_1">
    <defs>
     <path id="C0_0_6046aa7565" d="M 0 0.866025 
C 0.229673 0.866025 0.449969 0.774776 0.612372 0.612372 
C 0.774776 0.449969 0.866025 0.229673 0.866025 -0 
C 0.866025 -0.229673 0.774776 -0.449969 0.612372 -0.612372 
C 0.449969 -0.774776 0.229673 -0.866025 0 -0.866025 
C -0.229673 -0.866025 -0.449969 -0.774776 -0.612372 -0.612372 
C -0.774776 -0.449969 -0.866025 -0.229673 -0.866025 0 
C -0.866025 0.229673 -0.774776 0.449969 -0.612372 0.612372 
C -0.449969 0.774776 -0.229673 0.866025 0 0.866025 
z
"/>
    </defs>
    <g clip-path="url(#p58796c995a)">
     <use xlink:href="#C0_0_6046aa7565" x="86.036612" y="34.613065" style="fill: #ff8c00; fill-opacity: 0.8"/>
    </g>
    <g clip-path="url(#p58796c995a)">
     <use xlink:href="#C0_0_6046aa7565" x="86.036612" y="56.175035" style="fill: #ff8c00; fill-opacity: 0.8"/>
    </g>
    <g clip-path="url(#p58796c995a)">
     <use xlink:href="#C0_0_6046aa7565" x="99.309621" y="20.117725" style="fill: #ff8c00; fill-opacity: 0.8"/>
    </g>
    <g clip-path="url(#p58796c995a)">
     <use xlink:href="#C0_0_6046aa7565" x="55.698306" y="31.41433" style="fill: #ff8c00; fill-opacity: 0.8"/>
    </g>
    <g clip-path="url(#p58796c995a)">
     <use xlink:href="#C0_0_6046aa7565" x="86.036612" y="62.900934" style="fill: #ff8c00; fill-opacity: 0.8"/>
    </g>
    <g clip-path="url(#p58796c995a)">
     <use xlink:href="#C0_0_6046aa7565" x="70.867459" y="51.009474" style="fill: #ff8c00; fill-opacity: 0.8"/>
    </g>
    <g clip-path="url(#p58796c995a)">
     <use xlink:href="#C0_0_6046aa7565" x="103.101909" y="77.589963" style="fill: #ff8c00; fill-opacity: 0.8"/>
    </g>
    <g clip-path="url(#p58796c995a)">
     <use xlink:href="#C0_0_6046aa7565" x="53.802162" y="55.035277" style="fill: #ff8c00; fill-opacity: 0.8"/>
    </g>
    <g clip-path="url(#p58796c995a)">
     <use xlink:href="#C0_0_6046aa7565" x="74.659747" y="63.316519" style="fill: #ff8c00; fill-opacity: 0.8"/>
    </g>
    <g clip-path="url(#p58796c995a)">
     <use xlink:href="#C0_0_6046aa7565" x="95.517332" y="71.440297" style="fill: #ff8c00; fill-opacity: 0.8"/>
    </g>
    <g clip-path="url(#p58796c995a)">
     <use xlink:href="#C0_0_6046aa7565" x="63.282882" y="40.989931" style="fill: #ff8c00; fill-opacity: 0.8"/>
    </g>
    <g clip-path="url(#p58796c995a)">
     <use xlink:href="#C0_0_6046aa7565" x="72.763603" y="33.17807" style="fill: #ff8c00; fill-opacity: 0.8"/>
    </g>
    <g clip-path="url(#p58796c995a)">
     <use xlink:href="#C0_0_6046aa7565" x="78.452035" y="16.412098" style="fill: #ff8c00; fill-opacity: 0.8"/>
    </g>
    <g clip-path="url(#p58796c995a)">
     <use xlink:href="#C0_0_6046aa7565" x="144.817079" y="58.753861" style="fill: #ff8c00; fill-opacity: 0.8"/>
    </g>
    <g clip-path="url(#p58796c995a)">
     <use xlink:href="#C0_0_6046aa7565" x="125.855638" y="32.921085" style="fill: #ff8c00; fill-opacity: 0.8"/>
    </g>
    <g clip-path="url(#p58796c995a)">
     <use xlink:href="#C0_0_6046aa7565" x="48.113729" y="36.817474" style="fill: #ff8c00; fill-opacity: 0.8"/>
    </g>
    <g clip-path="url(#p58796c995a)">
     <use xlink:href="#C0_0_6046aa7565" x="114.478774" y="70.552669" style="fill: #ff8c00; fill-opacity: 0.8"/>
    </g>
    <g clip-path="url(#p58796c995a)">
     <use xlink:href="#C0_0_6046aa7565" x="84.140468" y="45.077737" style="fill: #ff8c00; fill-opacity: 0.8"/>
    </g>
    <g clip-path="url(#p58796c995a)">
     <use xlink:href="#C0_0_6046aa7565" x="50.009874" y="83.842195" style="fill: #ff8c00; fill-opacity: 0.8"/>
    </g>
    <g clip-path="url(#p58796c995a)">
     <use xlink:href="#C0_0_6046aa7565" x="57.59445" y="43.202191" style="fill: #ff8c00; fill-opacity: 0.8"/>
    </g>
    <g clip-path="url(#p58796c995a)">
     <use xlink:href="#C0_0_6046aa7565" x="86.036612" y="32.480086" style="fill: #ff8c00; fill-opacity: 0.8"/>
    </g>
    <g clip-path="url(#p58796c995a)">
     <use xlink:href="#C0_0_6046aa7565" x="40.529153" y="58.030543" style="fill: #ff8c00; fill-opacity: 0.8"/>
    </g>
    <g clip-path="url(#p58796c995a)">
     <use xlink:href="#C0_0_6046aa7565" x="72.763603" y="46.357089" style="fill: #ff8c00; fill-opacity: 0.8"/>
    </g>
    <g clip-path="url(#p58796c995a)">
     <use xlink:href="#C0_0_6046aa7565" x="86.036612" y="34.400246" style="fill: #ff8c00; fill-opacity: 0.8"/>
    </g>
    <g clip-path="url(#p58796c995a)">
     <use xlink:href="#C0_0_6046aa7565" x="127.751782" y="9.476913" style="fill: #ff8c00; fill-opacity: 0.8"/>
    </g>
    <g clip-path="url(#p58796c995a)">
     <use xlink:href="#C0_0_6046aa7565" x="110.686485" y="74.185169" style="fill: #ff8c00; fill-opacity: 0.8"/>
    </g>
    <g clip-path="url(#p58796c995a)">
     <use xlink:href="#C0_0_6046aa7565" x="114.478774" y="40.614758" style="fill: #ff8c00; fill-opacity: 0.8"/>
    </g>
    <g clip-path="url(#p58796c995a)">
     <use xlink:href="#C0_0_6046aa7565" x="87.932756" y="31.804105" style="fill: #ff8c00; fill-opacity: 0.8"/>
    </g>
    <g clip-path="url(#p58796c995a)">
     <use xlink:href="#C0_0_6046aa7565" x="76.555891" y="36.36234" style="fill: #ff8c00; fill-opacity: 0.8"/>
    </g>
    <g clip-path="url(#p58796c995a)">
     <use xlink:href="#C0_0_6046aa7565" x="76.555891" y="48.649642" style="fill: #ff8c00; fill-opacity: 0.8"/>
    </g>
    <g clip-path="url(#p58796c995a)">
     <use xlink:href="#C0_0_6046aa7565" x="72.763603" y="62.543917" style="fill: #ff8c00; fill-opacity: 0.8"/>
    </g>
    <g clip-path="url(#p58796c995a)">
     <use xlink:href="#C0_0_6046aa7565" x="80.348179" y="79.562101" style="fill: #ff8c00; fill-opacity: 0.8"/>
    </g>
    <g clip-path="url(#p58796c995a)">
     <use xlink:href="#C0_0_6046aa7565" x="61.386738" y="62.626885" style="fill: #ff8c00; fill-opacity: 0.8"/>
    </g>
    <g clip-path="url(#p58796c995a)">
     <use xlink:href="#C0_0_6046aa7565" x="61.386738" y="39.55081" style="fill: #ff8c00; fill-opacity: 0.8"/>
    </g>
    <g clip-path="url(#p58796c995a)">
     <use xlink:href="#C0_0_6046aa7565" x="76.555891" y="64.016142" style="fill: #ff8c00; fill-opacity: 0.8"/>
    </g>
    <g clip-path="url(#p58796c995a)">
     <use xlink:href="#C0_0_6046aa7565" x="44.321441" y="63.01657" style="fill: #ff8c00; fill-opacity: 0.8"/>
    </g>
    <g clip-path="url(#p58796c995a)">
     <use xlink:href="#C0_0_6046aa7565" x="61.386738" y="37.555284" style="fill: #ff8c00; fill-opacity: 0.8"/>
    </g>
    <g clip-path="url(#p58796c995a)">
     <use xlink:href="#C0_0_6046aa7565" x="97.413476" y="19.992687" style="fill: #ff8c00; fill-opacity: 0.8"/>
    </g>
    <g clip-path="url(#p58796c995a)">
     <use xlink:href="#C0_0_6046aa7565" x="32.944576" y="79.798228" style="fill: #ff8c00; fill-opacity: 0.8"/>
    </g>
    <g clip-path="url(#p58796c995a)">
     <use xlink:href="#C0_0_6046aa7565" x="91.725044" y="54.267336" style="fill: #ff8c00; fill-opacity: 0.8"/>
    </g>
    <g clip-path="url(#p58796c995a)">
     <use xlink:href="#C0_0_6046aa7565" x="133.440215" y="34.749523" style="fill: #ff8c00; fill-opacity: 0.8"/>
    </g>
    <g clip-path="url(#p58796c995a)">
     <use xlink:href="#C0_0_6046aa7565" x="68.971315" y="24.761804" style="fill: #ff8c00; fill-opacity: 0.8"/>
    </g>
    <g clip-path="url(#p58796c995a)">
     <use xlink:href="#C0_0_6046aa7565" x="34.840721" y="85.58738" style="fill: #ff8c00; fill-opacity: 0.8"/>
    </g>
    <g clip-path="url(#p58796c995a)">
     <use xlink:href="#C0_0_6046aa7565" x="34.840721" y="81.96415" style="fill: #ff8c00; fill-opacity: 0.8"/>
    </g>
    <g clip-path="url(#p58796c995a)">
     <use xlink:href="#C0_0_6046aa7565" x="72.763603" y="21.015131" style="fill: #ff8c00; fill-opacity: 0.8"/>
    </g>
    <g clip-path="url(#p58796c995a)">
     <use xlink:href="#C0_0_6046aa7565" x="89.8289" y="65.655273" style="fill: #ff8c00; fill-opacity: 0.8"/>
    </g>
    <g clip-path="url(#p58796c995a)">
     <use xlink:href="#C0_0_6046aa7565" x="84.140468" y="52.218724" style="fill: #ff8c00; fill-opacity: 0.8"/>
    </g>
    <g clip-path="url(#p58796c995a)">
     <use xlink:href="#C0_0_6046aa7565" x="57.59445" y="26.038744" style="fill: #ff8c00; fill-opacity: 0.8"/>
    </g>
    <g clip-path="url(#p58796c995a)">
     <use xlink:href="#C0_0_6046aa7565" x="55.698306" y="62.940305" style="fill: #ff8c00; fill-opacity: 0.8"/>
    </g>
    <g clip-path="url(#p58796c995a)">
     <use xlink:href="#C0_0_6046aa7565" x="76.555891" y="62.568877" style="fill: #ff8c00; fill-opacity: 0.8"/>
    </g>
    <g clip-path="url(#p58796c995a)">
     <use xlink:href="#C0_0_6046aa7565" x="67.075171" y="54.358028" style="fill: #ff8c00; fill-opacity: 0.8"/>
    </g>
    <g clip-path="url(#p58796c995a)">
     <use xlink:href="#C0_0_6046aa7565" x="67.075171" y="35.049348" style="fill: #ff8c00; fill-opacity: 0.8"/>
    </g>
    <g clip-path="url(#p58796c995a)">
     <use xlink:href="#C0_0_6046aa7565" x="84.140468" y="68.866756" style="fill: #ff8c00; fill-opacity: 0.8"/>
    </g>
    <g clip-path="url(#p58796c995a)">
     <use xlink:href="#C0_0_6046aa7565" x="55.698306" y="27.166555" style="fill: #ff8c00; fill-opacity: 0.8"/>
    </g>
    <g clip-path="url(#p58796c995a)">
     <use xlink:href="#C0_0_6046aa7565" x="70.867459" y="16.345193" style="fill: #ff8c00; fill-opacity: 0.8"/>
    </g>
    <g clip-path="url(#p58796c995a)">
     <use xlink:href="#C0_0_6046aa7565" x="116.374918" y="36.876242" style="fill: #ff8c00; fill-opacity: 0.8"/>
    </g>
    <g clip-path="url(#p58796c995a)">
     <use xlink:href="#C0_0_6046aa7565" x="80.348179" y="73.042024" style="fill: #ff8c00; fill-opacity: 0.8"/>
    </g>
    <g clip-path="url(#p58796c995a)">
     <use xlink:href="#C0_0_6046aa7565" x="89.8289" y="61.09678" style="fill: #ff8c00; fill-opacity: 0.8"/>
    </g>
    <g clip-path="url(#p58796c995a)">
     <use xlink:href="#C0_0_6046aa7565" x="118.271062" y="9.218447" style="fill: #ff8c00; fill-opacity: 0.8"/>
    </g>
    <g clip-path="url(#p58796c995a)">
     <use xlink:href="#C0_0_6046aa7565" x="76.555891" y="12.961536" style="fill: #ff8c00; fill-opacity: 0.8"/>
    </g>
    <g clip-path="url(#p58796c995a)">
     <use xlink:href="#C0_0_6046aa7565" x="76.555891" y="65.634638" style="fill: #ff8c00; fill-opacity: 0.8"/>
    </g>
    <g clip-path="url(#p58796c995a)">
     <use xlink:href="#C0_0_6046aa7565" x="97.413476" y="55.86452" style="fill: #ff8c00; fill-opacity: 0.8"/>
    </g>
    <g clip-path="url(#p58796c995a)">
     <use xlink:href="#C0_0_6046aa7565" x="101.205765" y="46.387102" style="fill: #ff8c00; fill-opacity: 0.8"/>
    </g>
    <g clip-path="url(#p58796c995a)">
     <use xlink:href="#C0_0_6046aa7565" x="44.321441" y="46.948196" style="fill: #ff8c00; fill-opacity: 0.8"/>
    </g>
    <g clip-path="url(#p58796c995a)">
     <use xlink:href="#C0_0_6046aa7565" x="31.048432" y="74.587692" style="fill: #ff8c00; fill-opacity: 0.8"/>
    </g>
    <g clip-path="url(#p58796c995a)">
     <use xlink:href="#C0_0_6046aa7565" x="86.036612" y="35.363559" style="fill: #ff8c00; fill-opacity: 0.8"/>
    </g>
    <g clip-path="url(#p58796c995a)">
     <use xlink:href="#C0_0_6046aa7565" x="63.282882" y="58.915036" style="fill: #ff8c00; fill-opacity: 0.8"/>
    </g>
    <g clip-path="url(#p58796c995a)">
     <use xlink:href="#C0_0_6046aa7565" x="63.282882" y="13.176966" style="fill: #ff8c00; fill-opacity: 0.8"/>
    </g>
    <g clip-path="url(#p58796c995a)">
     <use xlink:href="#C0_0_6046aa7565" x="70.867459" y="65.449966" style="fill: #ff8c00; fill-opacity: 0.8"/>
    </g>
    <g clip-path="url(#p58796c995a)">
     <use xlink:href="#C0_0_6046aa7565" x="74.659747" y="81.994148" style="fill: #ff8c00; fill-opacity: 0.8"/>
    </g>
    <g clip-path="url(#p58796c995a)">
     <use xlink:href="#C0_0_6046aa7565" x="67.075171" y="58.188048" style="fill: #ff8c00; fill-opacity: 0.8"/>
    </g>
    <g clip-path="url(#p58796c995a)">
     <use xlink:href="#C0_0_6046aa7565" x="50.009874" y="57.570217" style="fill: #ff8c00; fill-opacity: 0.8"/>
    </g>
    <g clip-path="url(#p58796c995a)">
     <use xlink:href="#C0_0_6046aa7565" x="87.932756" y="61.978333" style="fill: #ff8c00; fill-opacity: 0.8"/>
    </g>
    <g clip-path="url(#p58796c995a)">
     <use xlink:href="#C0_0_6046aa7565" x="76.555891" y="20.488904" style="fill: #ff8c00; fill-opacity: 0.8"/>
    </g>
    <g clip-path="url(#p58796c995a)">
     <use xlink:href="#C0_0_6046aa7565" x="104.998053" y="50.999786" style="fill: #ff8c00; fill-opacity: 0.8"/>
    </g>
    <g clip-path="url(#p58796c995a)">
     <use xlink:href="#C0_0_6046aa7565" x="72.763603" y="10.720434" style="fill: #ff8c00; fill-opacity: 0.8"/>
    </g>
    <g clip-path="url(#p58796c995a)">
     <use xlink:href="#C0_0_6046aa7565" x="48.113729" y="71.102798" style="fill: #ff8c00; fill-opacity: 0.8"/>
    </g>
   </g>
   <g id="PolyCollection_1">
    <path d="M 31.048432 47.824019 
L 31.048432 67.029955 
L 32.197611 66.611087 
L 33.346789 66.236256 
L 34.495967 65.839648 
L 35.645145 65.4375 
L 36.794324 65.043971 
L 37.943502 64.634667 
L 39.09268 64.212824 
L 40.241858 63.802567 
L 41.391037 63.41368 
L 42.540215 62.99865 
L 43.689393 62.619103 
L 44.838571 62.245663 
L 45.98775 61.844731 
L 47.136928 61.465045 
L 48.286106 61.084741 
L 49.435284 60.680674 
L 50.584463 60.280146 
L 51.733641 59.91947 
L 52.882819 59.52817 
L 54.031997 59.126346 
L 55.181176 58.76526 
L 56.330354 58.393744 
L 57.479532 58.037189 
L 58.62871 57.687042 
L 59.777889 57.361066 
L 60.927067 57.007174 
L 62.076245 56.671766 
L 63.225423 56.336311 
L 64.374602 56.011768 
L 65.52378 55.728194 
L 66.672958 55.429489 
L 67.822136 55.104004 
L 68.971315 54.835773 
L 70.120493 54.582004 
L 71.269671 54.297748 
L 72.418849 54.015353 
L 73.568028 53.781496 
L 74.717206 53.558249 
L 75.866384 53.335099 
L 77.015562 53.114059 
L 78.164741 52.902827 
L 79.313919 52.689263 
L 80.463097 52.493034 
L 81.612276 52.295806 
L 82.761454 52.102402 
L 83.910632 51.926807 
L 85.05981 51.794602 
L 86.208989 51.651794 
L 87.358167 51.5086 
L 88.507345 51.359993 
L 89.656523 51.225287 
L 90.805702 51.108434 
L 91.95488 51.021003 
L 93.104058 50.912844 
L 94.253236 50.804856 
L 95.402415 50.698902 
L 96.551593 50.569939 
L 97.700771 50.504982 
L 98.849949 50.432934 
L 99.999128 50.384607 
L 101.148306 50.287479 
L 102.297484 50.210199 
L 103.446662 50.15291 
L 104.595841 50.080523 
L 105.745019 50.027891 
L 106.894197 49.958589 
L 108.043375 49.922335 
L 109.192554 49.866224 
L 110.341732 49.827717 
L 111.49091 49.781354 
L 112.640088 49.732529 
L 113.789267 49.675211 
L 114.938445 49.638961 
L 116.087623 49.601497 
L 117.236801 49.585935 
L 118.38598 49.55107 
L 119.535158 49.539852 
L 120.684336 49.486967 
L 121.833514 49.459863 
L 122.982693 49.401251 
L 124.131871 49.412578 
L 125.281049 49.325563 
L 126.430227 49.312288 
L 127.579406 49.306814 
L 128.728584 49.27113 
L 129.877762 49.259063 
L 131.02694 49.253705 
L 132.176119 49.220003 
L 133.325297 49.197942 
L 134.474475 49.171084 
L 135.623653 49.141208 
L 136.772832 49.094279 
L 137.92201 49.067614 
L 139.071188 49.03947 
L 140.220366 48.990783 
L 141.369545 48.962578 
L 142.518723 48.916636 
L 143.667901 48.876802 
L 144.817079 48.887158 
L 144.817079 21.124417 
L 144.817079 21.124417 
L 143.667901 21.552381 
L 142.518723 21.995267 
L 141.369545 22.436772 
L 140.220366 22.850765 
L 139.071188 23.303117 
L 137.92201 23.725584 
L 136.772832 24.139368 
L 135.623653 24.545551 
L 134.474475 24.985136 
L 133.325297 25.420218 
L 132.176119 25.871498 
L 131.02694 26.301759 
L 129.877762 26.721399 
L 128.728584 27.147642 
L 127.579406 27.587791 
L 126.430227 28.01623 
L 125.281049 28.446934 
L 124.131871 28.88043 
L 122.982693 29.348386 
L 121.833514 29.750799 
L 120.684336 30.180233 
L 119.535158 30.593548 
L 118.38598 31.020207 
L 117.236801 31.447625 
L 116.087623 31.882509 
L 114.938445 32.317697 
L 113.789267 32.711529 
L 112.640088 33.16837 
L 111.49091 33.596585 
L 110.341732 34.008705 
L 109.192554 34.414597 
L 108.043375 34.836211 
L 106.894197 35.242725 
L 105.745019 35.648366 
L 104.595841 36.061527 
L 103.446662 36.460531 
L 102.297484 36.832865 
L 101.148306 37.24631 
L 99.999128 37.646552 
L 98.849949 38.034329 
L 97.700771 38.439835 
L 96.551593 38.858151 
L 95.402415 39.238607 
L 94.253236 39.617348 
L 93.104058 39.960129 
L 91.95488 40.311357 
L 90.805702 40.692352 
L 89.656523 41.031911 
L 88.507345 41.38436 
L 87.358167 41.707858 
L 86.208989 42.033627 
L 85.05981 42.323171 
L 83.910632 42.584108 
L 82.761454 42.894098 
L 81.612276 43.138821 
L 80.463097 43.420257 
L 79.313919 43.693153 
L 78.164741 43.976338 
L 77.015562 44.241747 
L 75.866384 44.449121 
L 74.717206 44.665591 
L 73.568028 44.856082 
L 72.418849 45.058709 
L 71.269671 45.200295 
L 70.120493 45.389935 
L 68.971315 45.560424 
L 67.822136 45.725174 
L 66.672958 45.855186 
L 65.52378 45.950862 
L 64.374602 46.092081 
L 63.225423 46.199772 
L 62.076245 46.298191 
L 60.927067 46.410605 
L 59.777889 46.506243 
L 58.62871 46.534485 
L 57.479532 46.603053 
L 56.330354 46.706909 
L 55.181176 46.823743 
L 54.031997 46.88167 
L 52.882819 46.946679 
L 51.733641 47.009876 
L 50.584463 47.053193 
L 49.435284 47.103109 
L 48.286106 47.160709 
L 47.136928 47.222915 
L 45.98775 47.286339 
L 44.838571 47.334464 
L 43.689393 47.401176 
L 42.540215 47.461193 
L 41.391037 47.509055 
L 40.241858 47.546182 
L 39.09268 47.580088 
L 37.943502 47.62385 
L 36.794324 47.643659 
L 35.645145 47.643201 
L 34.495967 47.70193 
L 33.346789 47.722032 
L 32.197611 47.789092 
L 31.048432 47.824019 
z
" clip-path="url(#p58796c995a)" style="fill: #ff8c00; fill-opacity: 0.15"/>
   </g>
   <g id="matplotlib.axis_1">
    <g id="xtick_1">
     <g id="line2d_1">
      <defs>
       <path id="m6c82c00891" d="M 0 0 
L 0 3.5 
" style="stroke: #000000; stroke-width: 0.25"/>
      </defs>
      <g>
       <use xlink:href="#m6c82c00891" x="29.152288" y="89.405827" style="stroke: #000000; stroke-width: 0.25"/>
      </g>
     </g>
     <g id="text_1">
      <!-- 70 -->
      <g transform="translate(26.371819 97.484733) scale(0.05 -0.05)">
       <defs>
        <path id="ArialMT-37" d="M 303 3981 
L 303 4522 
L 3269 4522 
L 3269 4084 
Q 2831 3619 2401 2847 
Q 1972 2075 1738 1259 
Q 1569 684 1522 0 
L 944 0 
Q 953 541 1156 1306 
Q 1359 2072 1739 2783 
Q 2119 3494 2547 3981 
L 303 3981 
z
" transform="scale(0.015625)"/>
        <path id="ArialMT-30" d="M 266 2259 
Q 266 3072 433 3567 
Q 600 4063 929 4331 
Q 1259 4600 1759 4600 
Q 2128 4600 2406 4451 
Q 2684 4303 2865 4023 
Q 3047 3744 3150 3342 
Q 3253 2941 3253 2259 
Q 3253 1453 3087 958 
Q 2922 463 2592 192 
Q 2263 -78 1759 -78 
Q 1097 -78 719 397 
Q 266 969 266 2259 
z
M 844 2259 
Q 844 1131 1108 757 
Q 1372 384 1759 384 
Q 2147 384 2411 759 
Q 2675 1134 2675 2259 
Q 2675 3391 2411 3762 
Q 2147 4134 1753 4134 
Q 1366 4134 1134 3806 
Q 844 3388 844 2259 
z
" transform="scale(0.015625)"/>
       </defs>
       <use xlink:href="#ArialMT-37"/>
       <use xlink:href="#ArialMT-30" x="55.615234"/>
      </g>
     </g>
    </g>
    <g id="xtick_2">
     <g id="line2d_2">
      <g>
       <use xlink:href="#m6c82c00891" x="48.113729" y="89.405827" style="stroke: #000000; stroke-width: 0.25"/>
      </g>
     </g>
     <g id="text_2">
      <!-- 80 -->
      <g transform="translate(45.333261 97.484733) scale(0.05 -0.05)">
       <defs>
        <path id="ArialMT-38" d="M 1131 2484 
Q 781 2613 612 2850 
Q 444 3088 444 3419 
Q 444 3919 803 4259 
Q 1163 4600 1759 4600 
Q 2359 4600 2725 4251 
Q 3091 3903 3091 3403 
Q 3091 3084 2923 2848 
Q 2756 2613 2416 2484 
Q 2838 2347 3058 2040 
Q 3278 1734 3278 1309 
Q 3278 722 2862 322 
Q 2447 -78 1769 -78 
Q 1091 -78 675 323 
Q 259 725 259 1325 
Q 259 1772 486 2073 
Q 713 2375 1131 2484 
z
M 1019 3438 
Q 1019 3113 1228 2906 
Q 1438 2700 1772 2700 
Q 2097 2700 2305 2904 
Q 2513 3109 2513 3406 
Q 2513 3716 2298 3927 
Q 2084 4138 1766 4138 
Q 1444 4138 1231 3931 
Q 1019 3725 1019 3438 
z
M 838 1322 
Q 838 1081 952 856 
Q 1066 631 1291 507 
Q 1516 384 1775 384 
Q 2178 384 2440 643 
Q 2703 903 2703 1303 
Q 2703 1709 2433 1975 
Q 2163 2241 1756 2241 
Q 1359 2241 1098 1978 
Q 838 1716 838 1322 
z
" transform="scale(0.015625)"/>
       </defs>
       <use xlink:href="#ArialMT-38"/>
       <use xlink:href="#ArialMT-30" x="55.615234"/>
      </g>
     </g>
    </g>
    <g id="xtick_3">
     <g id="line2d_3">
      <g>
       <use xlink:href="#m6c82c00891" x="67.075171" y="89.405827" style="stroke: #000000; stroke-width: 0.25"/>
      </g>
     </g>
     <g id="text_3">
      <!-- 90 -->
      <g transform="translate(64.294702 97.484733) scale(0.05 -0.05)">
       <defs>
        <path id="ArialMT-39" d="M 350 1059 
L 891 1109 
Q 959 728 1153 556 
Q 1347 384 1650 384 
Q 1909 384 2104 503 
Q 2300 622 2425 820 
Q 2550 1019 2634 1356 
Q 2719 1694 2719 2044 
Q 2719 2081 2716 2156 
Q 2547 1888 2255 1720 
Q 1963 1553 1622 1553 
Q 1053 1553 659 1965 
Q 266 2378 266 3053 
Q 266 3750 677 4175 
Q 1088 4600 1706 4600 
Q 2153 4600 2523 4359 
Q 2894 4119 3086 3673 
Q 3278 3228 3278 2384 
Q 3278 1506 3087 986 
Q 2897 466 2520 194 
Q 2144 -78 1638 -78 
Q 1100 -78 759 220 
Q 419 519 350 1059 
z
M 2653 3081 
Q 2653 3566 2395 3850 
Q 2138 4134 1775 4134 
Q 1400 4134 1122 3828 
Q 844 3522 844 3034 
Q 844 2597 1108 2323 
Q 1372 2050 1759 2050 
Q 2150 2050 2401 2323 
Q 2653 2597 2653 3081 
z
" transform="scale(0.015625)"/>
       </defs>
       <use xlink:href="#ArialMT-39"/>
       <use xlink:href="#ArialMT-30" x="55.615234"/>
      </g>
     </g>
    </g>
    <g id="xtick_4">
     <g id="line2d_4">
      <g>
       <use xlink:href="#m6c82c00891" x="86.036612" y="89.405827" style="stroke: #000000; stroke-width: 0.25"/>
      </g>
     </g>
     <g id="text_4">
      <!-- 100 -->
      <g transform="translate(81.865909 97.484733) scale(0.05 -0.05)">
       <defs>
        <path id="ArialMT-31" d="M 2384 0 
L 1822 0 
L 1822 3584 
Q 1619 3391 1289 3197 
Q 959 3003 697 2906 
L 697 3450 
Q 1169 3672 1522 3987 
Q 1875 4303 2022 4600 
L 2384 4600 
L 2384 0 
z
" transform="scale(0.015625)"/>
       </defs>
       <use xlink:href="#ArialMT-31"/>
       <use xlink:href="#ArialMT-30" x="55.615234"/>
       <use xlink:href="#ArialMT-30" x="111.230469"/>
      </g>
     </g>
    </g>
    <g id="xtick_5">
     <g id="line2d_5">
      <g>
       <use xlink:href="#m6c82c00891" x="104.998053" y="89.405827" style="stroke: #000000; stroke-width: 0.25"/>
      </g>
     </g>
     <g id="text_5">
      <!-- 110 -->
      <g transform="translate(101.011725 97.484733) scale(0.05 -0.05)">
       <use xlink:href="#ArialMT-31"/>
       <use xlink:href="#ArialMT-31" x="48.240234"/>
       <use xlink:href="#ArialMT-30" x="103.855469"/>
      </g>
     </g>
    </g>
    <g id="xtick_6">
     <g id="line2d_6">
      <g>
       <use xlink:href="#m6c82c00891" x="123.959494" y="89.405827" style="stroke: #000000; stroke-width: 0.25"/>
      </g>
     </g>
     <g id="text_6">
      <!-- 120 -->
      <g transform="translate(119.788791 97.484733) scale(0.05 -0.05)">
       <defs>
        <path id="ArialMT-32" d="M 3222 541 
L 3222 0 
L 194 0 
Q 188 203 259 391 
Q 375 700 629 1000 
Q 884 1300 1366 1694 
Q 2113 2306 2375 2664 
Q 2638 3022 2638 3341 
Q 2638 3675 2398 3904 
Q 2159 4134 1775 4134 
Q 1369 4134 1125 3890 
Q 881 3647 878 3216 
L 300 3275 
Q 359 3922 746 4261 
Q 1134 4600 1788 4600 
Q 2447 4600 2831 4234 
Q 3216 3869 3216 3328 
Q 3216 3053 3103 2787 
Q 2991 2522 2730 2228 
Q 2469 1934 1863 1422 
Q 1356 997 1212 845 
Q 1069 694 975 541 
L 3222 541 
z
" transform="scale(0.015625)"/>
       </defs>
       <use xlink:href="#ArialMT-31"/>
       <use xlink:href="#ArialMT-32" x="55.615234"/>
       <use xlink:href="#ArialMT-30" x="111.230469"/>
      </g>
     </g>
    </g>
    <g id="xtick_7">
     <g id="line2d_7">
      <g>
       <use xlink:href="#m6c82c00891" x="142.920935" y="89.405827" style="stroke: #000000; stroke-width: 0.25"/>
      </g>
     </g>
     <g id="text_7">
      <!-- 130 -->
      <g transform="translate(138.750232 97.484733) scale(0.05 -0.05)">
       <defs>
        <path id="ArialMT-33" d="M 269 1209 
L 831 1284 
Q 928 806 1161 595 
Q 1394 384 1728 384 
Q 2125 384 2398 659 
Q 2672 934 2672 1341 
Q 2672 1728 2419 1979 
Q 2166 2231 1775 2231 
Q 1616 2231 1378 2169 
L 1441 2663 
Q 1497 2656 1531 2656 
Q 1891 2656 2178 2843 
Q 2466 3031 2466 3422 
Q 2466 3731 2256 3934 
Q 2047 4138 1716 4138 
Q 1388 4138 1169 3931 
Q 950 3725 888 3313 
L 325 3413 
Q 428 3978 793 4289 
Q 1159 4600 1703 4600 
Q 2078 4600 2393 4439 
Q 2709 4278 2876 4000 
Q 3044 3722 3044 3409 
Q 3044 3113 2884 2869 
Q 2725 2625 2413 2481 
Q 2819 2388 3044 2092 
Q 3269 1797 3269 1353 
Q 3269 753 2831 336 
Q 2394 -81 1725 -81 
Q 1122 -81 723 278 
Q 325 638 269 1209 
z
" transform="scale(0.015625)"/>
       </defs>
       <use xlink:href="#ArialMT-31"/>
       <use xlink:href="#ArialMT-33" x="55.615234"/>
       <use xlink:href="#ArialMT-30" x="111.230469"/>
      </g>
     </g>
    </g>
    <g id="text_8">
     <!-- Full-scale IQ -->
     <g transform="translate(71.096662 106.773171) scale(0.06 -0.06)">
      <defs>
       <path id="ArialMT-46" d="M 525 0 
L 525 4581 
L 3616 4581 
L 3616 4041 
L 1131 4041 
L 1131 2622 
L 3281 2622 
L 3281 2081 
L 1131 2081 
L 1131 0 
L 525 0 
z
" transform="scale(0.015625)"/>
       <path id="ArialMT-75" d="M 2597 0 
L 2597 488 
Q 2209 -75 1544 -75 
Q 1250 -75 995 37 
Q 741 150 617 320 
Q 494 491 444 738 
Q 409 903 409 1263 
L 409 3319 
L 972 3319 
L 972 1478 
Q 972 1038 1006 884 
Q 1059 663 1231 536 
Q 1403 409 1656 409 
Q 1909 409 2131 539 
Q 2353 669 2445 892 
Q 2538 1116 2538 1541 
L 2538 3319 
L 3100 3319 
L 3100 0 
L 2597 0 
z
" transform="scale(0.015625)"/>
       <path id="ArialMT-6c" d="M 409 0 
L 409 4581 
L 972 4581 
L 972 0 
L 409 0 
z
" transform="scale(0.015625)"/>
       <path id="ArialMT-2d" d="M 203 1375 
L 203 1941 
L 1931 1941 
L 1931 1375 
L 203 1375 
z
" transform="scale(0.015625)"/>
       <path id="ArialMT-73" d="M 197 991 
L 753 1078 
Q 800 744 1014 566 
Q 1228 388 1613 388 
Q 2000 388 2187 545 
Q 2375 703 2375 916 
Q 2375 1106 2209 1216 
Q 2094 1291 1634 1406 
Q 1016 1563 777 1677 
Q 538 1791 414 1992 
Q 291 2194 291 2438 
Q 291 2659 392 2848 
Q 494 3038 669 3163 
Q 800 3259 1026 3326 
Q 1253 3394 1513 3394 
Q 1903 3394 2198 3281 
Q 2494 3169 2634 2976 
Q 2775 2784 2828 2463 
L 2278 2388 
Q 2241 2644 2061 2787 
Q 1881 2931 1553 2931 
Q 1166 2931 1000 2803 
Q 834 2675 834 2503 
Q 834 2394 903 2306 
Q 972 2216 1119 2156 
Q 1203 2125 1616 2013 
Q 2213 1853 2448 1751 
Q 2684 1650 2818 1456 
Q 2953 1263 2953 975 
Q 2953 694 2789 445 
Q 2625 197 2315 61 
Q 2006 -75 1616 -75 
Q 969 -75 630 194 
Q 291 463 197 991 
z
" transform="scale(0.015625)"/>
       <path id="ArialMT-63" d="M 2588 1216 
L 3141 1144 
Q 3050 572 2676 248 
Q 2303 -75 1759 -75 
Q 1078 -75 664 370 
Q 250 816 250 1647 
Q 250 2184 428 2587 
Q 606 2991 970 3192 
Q 1334 3394 1763 3394 
Q 2303 3394 2647 3120 
Q 2991 2847 3088 2344 
L 2541 2259 
Q 2463 2594 2264 2762 
Q 2066 2931 1784 2931 
Q 1359 2931 1093 2626 
Q 828 2322 828 1663 
Q 828 994 1084 691 
Q 1341 388 1753 388 
Q 2084 388 2306 591 
Q 2528 794 2588 1216 
z
" transform="scale(0.015625)"/>
       <path id="ArialMT-61" d="M 2588 409 
Q 2275 144 1986 34 
Q 1697 -75 1366 -75 
Q 819 -75 525 192 
Q 231 459 231 875 
Q 231 1119 342 1320 
Q 453 1522 633 1644 
Q 813 1766 1038 1828 
Q 1203 1872 1538 1913 
Q 2219 1994 2541 2106 
Q 2544 2222 2544 2253 
Q 2544 2597 2384 2738 
Q 2169 2928 1744 2928 
Q 1347 2928 1158 2789 
Q 969 2650 878 2297 
L 328 2372 
Q 403 2725 575 2942 
Q 747 3159 1072 3276 
Q 1397 3394 1825 3394 
Q 2250 3394 2515 3294 
Q 2781 3194 2906 3042 
Q 3031 2891 3081 2659 
Q 3109 2516 3109 2141 
L 3109 1391 
Q 3109 606 3145 398 
Q 3181 191 3288 0 
L 2700 0 
Q 2613 175 2588 409 
z
M 2541 1666 
Q 2234 1541 1622 1453 
Q 1275 1403 1131 1340 
Q 988 1278 909 1158 
Q 831 1038 831 891 
Q 831 666 1001 516 
Q 1172 366 1500 366 
Q 1825 366 2078 508 
Q 2331 650 2450 897 
Q 2541 1088 2541 1459 
L 2541 1666 
z
" transform="scale(0.015625)"/>
       <path id="ArialMT-65" d="M 2694 1069 
L 3275 997 
Q 3138 488 2766 206 
Q 2394 -75 1816 -75 
Q 1088 -75 661 373 
Q 234 822 234 1631 
Q 234 2469 665 2931 
Q 1097 3394 1784 3394 
Q 2450 3394 2872 2941 
Q 3294 2488 3294 1666 
Q 3294 1616 3291 1516 
L 816 1516 
Q 847 969 1125 678 
Q 1403 388 1819 388 
Q 2128 388 2347 550 
Q 2566 713 2694 1069 
z
M 847 1978 
L 2700 1978 
Q 2663 2397 2488 2606 
Q 2219 2931 1791 2931 
Q 1403 2931 1139 2672 
Q 875 2413 847 1978 
z
" transform="scale(0.015625)"/>
       <path id="ArialMT-20" transform="scale(0.015625)"/>
       <path id="ArialMT-49" d="M 597 0 
L 597 4581 
L 1203 4581 
L 1203 0 
L 597 0 
z
" transform="scale(0.015625)"/>
       <path id="ArialMT-51" d="M 3966 491 
Q 4388 200 4744 66 
L 4566 -356 
Q 4072 -178 3581 206 
Q 3072 -78 2456 -78 
Q 1834 -78 1328 222 
Q 822 522 548 1065 
Q 275 1609 275 2291 
Q 275 2969 550 3525 
Q 825 4081 1333 4372 
Q 1841 4663 2469 4663 
Q 3103 4663 3612 4361 
Q 4122 4059 4389 3517 
Q 4656 2975 4656 2294 
Q 4656 1728 4484 1276 
Q 4313 825 3966 491 
z
M 2631 1266 
Q 3156 1119 3497 828 
Q 4031 1316 4031 2294 
Q 4031 2850 3842 3265 
Q 3653 3681 3289 3911 
Q 2925 4141 2472 4141 
Q 1794 4141 1347 3677 
Q 900 3213 900 2291 
Q 900 1397 1342 919 
Q 1784 441 2472 441 
Q 2797 441 3084 563 
Q 2800 747 2484 825 
L 2631 1266 
z
" transform="scale(0.015625)"/>
      </defs>
      <use xlink:href="#ArialMT-46"/>
      <use xlink:href="#ArialMT-75" x="61.083984"/>
      <use xlink:href="#ArialMT-6c" x="116.699219"/>
      <use xlink:href="#ArialMT-6c" x="138.916016"/>
      <use xlink:href="#ArialMT-2d" x="161.132812"/>
      <use xlink:href="#ArialMT-73" x="194.433594"/>
      <use xlink:href="#ArialMT-63" x="244.433594"/>
      <use xlink:href="#ArialMT-61" x="294.433594"/>
      <use xlink:href="#ArialMT-6c" x="350.048828"/>
      <use xlink:href="#ArialMT-65" x="372.265625"/>
      <use xlink:href="#ArialMT-20" x="427.880859"/>
      <use xlink:href="#ArialMT-49" x="455.664062"/>
      <use xlink:href="#ArialMT-51" x="483.447266"/>
     </g>
    </g>
   </g>
   <g id="matplotlib.axis_2">
    <g id="ytick_1">
     <g id="line2d_8">
      <defs>
       <path id="md8d55f509a" d="M 0 0 
L -3.5 0 
" style="stroke: #000000; stroke-width: 0.25"/>
      </defs>
      <g>
       <use xlink:href="#md8d55f509a" x="25.36" y="84.227117" style="stroke: #000000; stroke-width: 0.25"/>
      </g>
     </g>
     <g id="text_9">
      <!-- −2 -->
      <g transform="translate(15.159219 86.01657) scale(0.05 -0.05)">
       <defs>
        <path id="ArialMT-2212" d="M 3381 1997 
L 356 1997 
L 356 2522 
L 3381 2522 
L 3381 1997 
z
" transform="scale(0.015625)"/>
       </defs>
       <use xlink:href="#ArialMT-2212"/>
       <use xlink:href="#ArialMT-32" x="58.398438"/>
      </g>
     </g>
    </g>
    <g id="ytick_2">
     <g id="line2d_9">
      <g>
       <use xlink:href="#md8d55f509a" x="25.36" y="64.168687" style="stroke: #000000; stroke-width: 0.25"/>
      </g>
     </g>
     <g id="text_10">
      <!-- −1 -->
      <g transform="translate(15.159219 65.95814) scale(0.05 -0.05)">
       <use xlink:href="#ArialMT-2212"/>
       <use xlink:href="#ArialMT-31" x="58.398438"/>
      </g>
     </g>
    </g>
    <g id="ytick_3">
     <g id="line2d_10">
      <g>
       <use xlink:href="#md8d55f509a" x="25.36" y="44.110258" style="stroke: #000000; stroke-width: 0.25"/>
      </g>
     </g>
     <g id="text_11">
      <!-- 0 -->
      <g transform="translate(18.079531 45.899711) scale(0.05 -0.05)">
       <use xlink:href="#ArialMT-30"/>
      </g>
     </g>
    </g>
    <g id="ytick_4">
     <g id="line2d_11">
      <g>
       <use xlink:href="#md8d55f509a" x="25.36" y="24.051829" style="stroke: #000000; stroke-width: 0.25"/>
      </g>
     </g>
     <g id="text_12">
      <!-- 1 -->
      <g transform="translate(18.079531 25.841282) scale(0.05 -0.05)">
       <use xlink:href="#ArialMT-31"/>
      </g>
     </g>
    </g>
    <g id="text_13">
     <!-- CTh PC1 -->
     <g transform="translate(9.966719 59.739476) rotate(-90) scale(0.06 -0.06)">
      <defs>
       <path id="ArialMT-43" d="M 3763 1606 
L 4369 1453 
Q 4178 706 3683 314 
Q 3188 -78 2472 -78 
Q 1731 -78 1267 223 
Q 803 525 561 1097 
Q 319 1669 319 2325 
Q 319 3041 592 3573 
Q 866 4106 1370 4382 
Q 1875 4659 2481 4659 
Q 3169 4659 3637 4309 
Q 4106 3959 4291 3325 
L 3694 3184 
Q 3534 3684 3231 3912 
Q 2928 4141 2469 4141 
Q 1941 4141 1586 3887 
Q 1231 3634 1087 3207 
Q 944 2781 944 2328 
Q 944 1744 1114 1308 
Q 1284 872 1643 656 
Q 2003 441 2422 441 
Q 2931 441 3284 734 
Q 3638 1028 3763 1606 
z
" transform="scale(0.015625)"/>
       <path id="ArialMT-54" d="M 1659 0 
L 1659 4041 
L 150 4041 
L 150 4581 
L 3781 4581 
L 3781 4041 
L 2266 4041 
L 2266 0 
L 1659 0 
z
" transform="scale(0.015625)"/>
       <path id="ArialMT-68" d="M 422 0 
L 422 4581 
L 984 4581 
L 984 2938 
Q 1378 3394 1978 3394 
Q 2347 3394 2619 3248 
Q 2891 3103 3008 2847 
Q 3125 2591 3125 2103 
L 3125 0 
L 2563 0 
L 2563 2103 
Q 2563 2525 2380 2717 
Q 2197 2909 1863 2909 
Q 1613 2909 1392 2779 
Q 1172 2650 1078 2428 
Q 984 2206 984 1816 
L 984 0 
L 422 0 
z
" transform="scale(0.015625)"/>
       <path id="ArialMT-50" d="M 494 0 
L 494 4581 
L 2222 4581 
Q 2678 4581 2919 4538 
Q 3256 4481 3484 4323 
Q 3713 4166 3852 3881 
Q 3991 3597 3991 3256 
Q 3991 2672 3619 2267 
Q 3247 1863 2275 1863 
L 1100 1863 
L 1100 0 
L 494 0 
z
M 1100 2403 
L 2284 2403 
Q 2872 2403 3119 2622 
Q 3366 2841 3366 3238 
Q 3366 3525 3220 3729 
Q 3075 3934 2838 4000 
Q 2684 4041 2272 4041 
L 1100 4041 
L 1100 2403 
z
" transform="scale(0.015625)"/>
      </defs>
      <use xlink:href="#ArialMT-43"/>
      <use xlink:href="#ArialMT-54" x="72.216797"/>
      <use xlink:href="#ArialMT-68" x="133.300781"/>
      <use xlink:href="#ArialMT-20" x="188.916016"/>
      <use xlink:href="#ArialMT-50" x="216.699219"/>
      <use xlink:href="#ArialMT-43" x="283.398438"/>
      <use xlink:href="#ArialMT-31" x="355.615234"/>
     </g>
    </g>
   </g>
   <g id="line2d_12">
    <path d="M 31.048432 58.136813 
L 32.197611 57.902489 
L 33.346789 57.668165 
L 34.495967 57.433841 
L 35.645145 57.199517 
L 36.794324 56.965193 
L 37.943502 56.730869 
L 39.09268 56.496545 
L 40.241858 56.262221 
L 41.391037 56.027897 
L 42.540215 55.793574 
L 43.689393 55.55925 
L 44.838571 55.324926 
L 45.98775 55.090602 
L 47.136928 54.856278 
L 48.286106 54.621954 
L 49.435284 54.38763 
L 50.584463 54.153306 
L 51.733641 53.918982 
L 52.882819 53.684659 
L 54.031997 53.450335 
L 55.181176 53.216011 
L 56.330354 52.981687 
L 57.479532 52.747363 
L 58.62871 52.513039 
L 59.777889 52.278715 
L 60.927067 52.044391 
L 62.076245 51.810067 
L 63.225423 51.575744 
L 64.374602 51.34142 
L 65.52378 51.107096 
L 66.672958 50.872772 
L 67.822136 50.638448 
L 68.971315 50.404124 
L 70.120493 50.1698 
L 71.269671 49.935476 
L 72.418849 49.701152 
L 73.568028 49.466828 
L 74.717206 49.232505 
L 75.866384 48.998181 
L 77.015562 48.763857 
L 78.164741 48.529533 
L 79.313919 48.295209 
L 80.463097 48.060885 
L 81.612276 47.826561 
L 82.761454 47.592237 
L 83.910632 47.357913 
L 85.05981 47.12359 
L 86.208989 46.889266 
L 87.358167 46.654942 
L 88.507345 46.420618 
L 89.656523 46.186294 
L 90.805702 45.95197 
L 91.95488 45.717646 
L 93.104058 45.483322 
L 94.253236 45.248998 
L 95.402415 45.014674 
L 96.551593 44.780351 
L 97.700771 44.546027 
L 98.849949 44.311703 
L 99.999128 44.077379 
L 101.148306 43.843055 
L 102.297484 43.608731 
L 103.446662 43.374407 
L 104.595841 43.140083 
L 105.745019 42.905759 
L 106.894197 42.671436 
L 108.043375 42.437112 
L 109.192554 42.202788 
L 110.341732 41.968464 
L 111.49091 41.73414 
L 112.640088 41.499816 
L 113.789267 41.265492 
L 114.938445 41.031168 
L 116.087623 40.796844 
L 117.236801 40.56252 
L 118.38598 40.328197 
L 119.535158 40.093873 
L 120.684336 39.859549 
L 121.833514 39.625225 
L 122.982693 39.390901 
L 124.131871 39.156577 
L 125.281049 38.922253 
L 126.430227 38.687929 
L 127.579406 38.453605 
L 128.728584 38.219282 
L 129.877762 37.984958 
L 131.02694 37.750634 
L 132.176119 37.51631 
L 133.325297 37.281986 
L 134.474475 37.047662 
L 135.623653 36.813338 
L 136.772832 36.579014 
L 137.92201 36.34469 
L 139.071188 36.110367 
L 140.220366 35.876043 
L 141.369545 35.641719 
L 142.518723 35.407395 
L 143.667901 35.173071 
L 144.817079 34.938747 
" clip-path="url(#p58796c995a)" style="fill: none; stroke: #ff8c00; stroke-width: 0.75; stroke-linecap: square"/>
   </g>
   <g id="patch_3">
    <path d="M 25.36 89.405827 
L 25.36 5.4 
" style="fill: none; stroke: #000000; stroke-width: 0.25; stroke-linejoin: miter; stroke-linecap: square"/>
   </g>
   <g id="patch_4">
    <path d="M 25.36 89.405827 
L 150.505512 89.405827 
" style="fill: none; stroke: #000000; stroke-width: 0.25; stroke-linejoin: miter; stroke-linecap: square"/>
   </g>
   <g id="text_14">
    <g id="patch_5">
     <path d="M 29.114365 18.702773 
L 52.764365 18.702773 
Q 54.264365 18.702773 54.264365 17.202773 
L 54.264365 7.136367 
Q 54.264365 5.636367 52.764365 5.636367 
L 29.114365 5.636367 
Q 27.614365 5.636367 27.614365 7.136367 
L 27.614365 17.202773 
Q 27.614365 18.702773 29.114365 18.702773 
z
" style="fill: #c0c0c0; opacity: 0.4; stroke: #c0c0c0; stroke-linejoin: miter"/>
    </g>
    <!-- $r=0.183$ -->
    <g transform="translate(29.114365 10.659023) scale(0.05 -0.05)">
     <defs>
      <path id="DejaVuSans-Oblique-72" d="M 2853 2969 
Q 2766 3016 2653 3041 
Q 2541 3066 2413 3066 
Q 1953 3066 1609 2717 
Q 1266 2369 1153 1784 
L 800 0 
L 225 0 
L 909 3500 
L 1484 3500 
L 1375 2956 
Q 1603 3259 1920 3421 
Q 2238 3584 2597 3584 
Q 2691 3584 2781 3573 
Q 2872 3563 2963 3538 
L 2853 2969 
z
" transform="scale(0.015625)"/>
      <path id="DejaVuSans-3d" d="M 678 2906 
L 4684 2906 
L 4684 2381 
L 678 2381 
L 678 2906 
z
M 678 1631 
L 4684 1631 
L 4684 1100 
L 678 1100 
L 678 1631 
z
" transform="scale(0.015625)"/>
      <path id="DejaVuSans-30" d="M 2034 4250 
Q 1547 4250 1301 3770 
Q 1056 3291 1056 2328 
Q 1056 1369 1301 889 
Q 1547 409 2034 409 
Q 2525 409 2770 889 
Q 3016 1369 3016 2328 
Q 3016 3291 2770 3770 
Q 2525 4250 2034 4250 
z
M 2034 4750 
Q 2819 4750 3233 4129 
Q 3647 3509 3647 2328 
Q 3647 1150 3233 529 
Q 2819 -91 2034 -91 
Q 1250 -91 836 529 
Q 422 1150 422 2328 
Q 422 3509 836 4129 
Q 1250 4750 2034 4750 
z
" transform="scale(0.015625)"/>
      <path id="DejaVuSans-2e" d="M 684 794 
L 1344 794 
L 1344 0 
L 684 0 
L 684 794 
z
" transform="scale(0.015625)"/>
      <path id="DejaVuSans-31" d="M 794 531 
L 1825 531 
L 1825 4091 
L 703 3866 
L 703 4441 
L 1819 4666 
L 2450 4666 
L 2450 531 
L 3481 531 
L 3481 0 
L 794 0 
L 794 531 
z
" transform="scale(0.015625)"/>
      <path id="DejaVuSans-38" d="M 2034 2216 
Q 1584 2216 1326 1975 
Q 1069 1734 1069 1313 
Q 1069 891 1326 650 
Q 1584 409 2034 409 
Q 2484 409 2743 651 
Q 3003 894 3003 1313 
Q 3003 1734 2745 1975 
Q 2488 2216 2034 2216 
z
M 1403 2484 
Q 997 2584 770 2862 
Q 544 3141 544 3541 
Q 544 4100 942 4425 
Q 1341 4750 2034 4750 
Q 2731 4750 3128 4425 
Q 3525 4100 3525 3541 
Q 3525 3141 3298 2862 
Q 3072 2584 2669 2484 
Q 3125 2378 3379 2068 
Q 3634 1759 3634 1313 
Q 3634 634 3220 271 
Q 2806 -91 2034 -91 
Q 1263 -91 848 271 
Q 434 634 434 1313 
Q 434 1759 690 2068 
Q 947 2378 1403 2484 
z
M 1172 3481 
Q 1172 3119 1398 2916 
Q 1625 2713 2034 2713 
Q 2441 2713 2670 2916 
Q 2900 3119 2900 3481 
Q 2900 3844 2670 4047 
Q 2441 4250 2034 4250 
Q 1625 4250 1398 4047 
Q 1172 3844 1172 3481 
z
" transform="scale(0.015625)"/>
      <path id="DejaVuSans-33" d="M 2597 2516 
Q 3050 2419 3304 2112 
Q 3559 1806 3559 1356 
Q 3559 666 3084 287 
Q 2609 -91 1734 -91 
Q 1441 -91 1130 -33 
Q 819 25 488 141 
L 488 750 
Q 750 597 1062 519 
Q 1375 441 1716 441 
Q 2309 441 2620 675 
Q 2931 909 2931 1356 
Q 2931 1769 2642 2001 
Q 2353 2234 1838 2234 
L 1294 2234 
L 1294 2753 
L 1863 2753 
Q 2328 2753 2575 2939 
Q 2822 3125 2822 3475 
Q 2822 3834 2567 4026 
Q 2313 4219 1838 4219 
Q 1578 4219 1281 4162 
Q 984 4106 628 3988 
L 628 4550 
Q 988 4650 1302 4700 
Q 1616 4750 1894 4750 
Q 2613 4750 3031 4423 
Q 3450 4097 3450 3541 
Q 3450 3153 3228 2886 
Q 3006 2619 2597 2516 
z
" transform="scale(0.015625)"/>
     </defs>
     <use xlink:href="#DejaVuSans-Oblique-72" transform="translate(0 0.78125)"/>
     <use xlink:href="#DejaVuSans-3d" transform="translate(60.595703 0.78125)"/>
     <use xlink:href="#DejaVuSans-30" transform="translate(163.867188 0.78125)"/>
     <use xlink:href="#DejaVuSans-2e" transform="translate(227.490234 0.78125)"/>
     <use xlink:href="#DejaVuSans-31" transform="translate(259.277344 0.78125)"/>
     <use xlink:href="#DejaVuSans-38" transform="translate(322.900391 0.78125)"/>
     <use xlink:href="#DejaVuSans-33" transform="translate(386.523438 0.78125)"/>
    </g>
    <!-- $p=0.111$ -->
    <g transform="translate(29.114365 16.152773) scale(0.05 -0.05)">
     <defs>
      <path id="DejaVuSans-Oblique-70" d="M 3175 2156 
Q 3175 2616 2975 2859 
Q 2775 3103 2400 3103 
Q 2144 3103 1911 2972 
Q 1678 2841 1497 2591 
Q 1319 2344 1212 1994 
Q 1106 1644 1106 1300 
Q 1106 863 1306 627 
Q 1506 391 1875 391 
Q 2147 391 2380 519 
Q 2613 647 2778 891 
Q 2956 1147 3065 1494 
Q 3175 1841 3175 2156 
z
M 1394 2969 
Q 1625 3272 1939 3428 
Q 2253 3584 2638 3584 
Q 3175 3584 3472 3232 
Q 3769 2881 3769 2247 
Q 3769 1728 3584 1258 
Q 3400 788 3053 416 
Q 2822 169 2531 39 
Q 2241 -91 1919 -91 
Q 1547 -91 1294 64 
Q 1041 219 916 525 
L 556 -1331 
L -19 -1331 
L 922 3500 
L 1497 3500 
L 1394 2969 
z
" transform="scale(0.015625)"/>
     </defs>
     <use xlink:href="#DejaVuSans-Oblique-70" transform="translate(0 0.78125)"/>
     <use xlink:href="#DejaVuSans-3d" transform="translate(82.958984 0.78125)"/>
     <use xlink:href="#DejaVuSans-30" transform="translate(186.230469 0.78125)"/>
     <use xlink:href="#DejaVuSans-2e" transform="translate(249.853516 0.78125)"/>
     <use xlink:href="#DejaVuSans-31" transform="translate(281.640625 0.78125)"/>
     <use xlink:href="#DejaVuSans-31" transform="translate(345.263672 0.78125)"/>
     <use xlink:href="#DejaVuSans-31" transform="translate(408.886719 0.78125)"/>
    </g>
   </g>
  </g>
 </g>
 <defs>
  <clipPath id="p58796c995a">
   <rect x="25.36" y="5.4" width="125.145512" height="84.005827"/>
  </clipPath>
 </defs>
</svg>
