<?xml version="1.0" encoding="utf-8" standalone="no"?>
<!DOCTYPE svg PUBLIC "-//W3C//DTD SVG 1.1//EN"
  "http://www.w3.org/Graphics/SVG/1.1/DTD/svg11.dtd">
<svg xmlns:xlink="http://www.w3.org/1999/xlink" width="239.512812pt" height="255.719844pt" viewBox="0 0 239.512812 255.719844" xmlns="http://www.w3.org/2000/svg" version="1.1">
 <metadata>
  <rdf:RDF xmlns:dc="http://purl.org/dc/elements/1.1/" xmlns:cc="http://creativecommons.org/ns#" xmlns:rdf="http://www.w3.org/1999/02/22-rdf-syntax-ns#">
   <cc:Work>
    <dc:type rdf:resource="http://purl.org/dc/dcmitype/StillImage"/>
    <dc:date>2025-08-05T10:37:05.149964</dc:date>
    <dc:format>image/svg+xml</dc:format>
    <dc:creator>
     <cc:Agent>
      <dc:title>Matplotlib v3.9.2, https://matplotlib.org/</dc:title>
     </cc:Agent>
    </dc:creator>
   </cc:Work>
  </rdf:RDF>
 </metadata>
 <defs>
  <style type="text/css">*{stroke-linejoin: round; stroke-linecap: butt}</style>
 </defs>
 <g id="figure_1">
  <g id="patch_1">
   <path d="M 0 255.719844 
L 239.512813 255.719844 
L 239.512813 0 
L 0 0 
z
" style="fill: #ffffff"/>
  </g>
  <g id="axes_1">
   <g id="patch_2">
    <path d="M 64.912813 228.96 
L 232.312813 228.96 
L 232.312813 7.2 
L 64.912813 7.2 
z
" style="fill: #ffffff"/>
   </g>
   <g id="matplotlib.axis_1">
    <g id="xtick_1">
     <g id="text_1">
      <!-- Term -->
      <g style="fill: #262626" transform="translate(94.121491 246.333594) scale(0.11 -0.11)">
       <defs>
        <path id="ArialMT-54" d="M 1659 0 
L 1659 4041 
L 150 4041 
L 150 4581 
L 3781 4581 
L 3781 4041 
L 2266 4041 
L 2266 0 
L 1659 0 
z
" transform="scale(0.015625)"/>
        <path id="ArialMT-65" d="M 2694 1069 
L 3275 997 
Q 3138 488 2766 206 
Q 2394 -75 1816 -75 
Q 1088 -75 661 373 
Q 234 822 234 1631 
Q 234 2469 665 2931 
Q 1097 3394 1784 3394 
Q 2450 3394 2872 2941 
Q 3294 2488 3294 1666 
Q 3294 1616 3291 1516 
L 816 1516 
Q 847 969 1125 678 
Q 1403 388 1819 388 
Q 2128 388 2347 550 
Q 2566 713 2694 1069 
z
M 847 1978 
L 2700 1978 
Q 2663 2397 2488 2606 
Q 2219 2931 1791 2931 
Q 1403 2931 1139 2672 
Q 875 2413 847 1978 
z
" transform="scale(0.015625)"/>
        <path id="ArialMT-72" d="M 416 0 
L 416 3319 
L 922 3319 
L 922 2816 
Q 1116 3169 1280 3281 
Q 1444 3394 1641 3394 
Q 1925 3394 2219 3213 
L 2025 2691 
Q 1819 2813 1613 2813 
Q 1428 2813 1281 2702 
Q 1134 2591 1072 2394 
Q 978 2094 978 1738 
L 978 0 
L 416 0 
z
" transform="scale(0.015625)"/>
        <path id="ArialMT-6d" d="M 422 0 
L 422 3319 
L 925 3319 
L 925 2853 
Q 1081 3097 1340 3245 
Q 1600 3394 1931 3394 
Q 2300 3394 2536 3241 
Q 2772 3088 2869 2813 
Q 3263 3394 3894 3394 
Q 4388 3394 4653 3120 
Q 4919 2847 4919 2278 
L 4919 0 
L 4359 0 
L 4359 2091 
Q 4359 2428 4304 2576 
Q 4250 2725 4106 2815 
Q 3963 2906 3769 2906 
Q 3419 2906 3187 2673 
Q 2956 2441 2956 1928 
L 2956 0 
L 2394 0 
L 2394 2156 
Q 2394 2531 2256 2718 
Q 2119 2906 1806 2906 
Q 1569 2906 1367 2781 
Q 1166 2656 1075 2415 
Q 984 2175 984 1722 
L 984 0 
L 422 0 
z
" transform="scale(0.015625)"/>
       </defs>
       <use xlink:href="#ArialMT-54"/>
       <use xlink:href="#ArialMT-65" x="49.958984"/>
       <use xlink:href="#ArialMT-72" x="105.574219"/>
       <use xlink:href="#ArialMT-6d" x="138.875"/>
      </g>
     </g>
    </g>
    <g id="xtick_2">
     <g id="text_2">
      <!-- Preterm -->
      <g style="fill: #262626" transform="translate(171.327884 246.333594) scale(0.11 -0.11)">
       <defs>
        <path id="ArialMT-50" d="M 494 0 
L 494 4581 
L 2222 4581 
Q 2678 4581 2919 4538 
Q 3256 4481 3484 4323 
Q 3713 4166 3852 3881 
Q 3991 3597 3991 3256 
Q 3991 2672 3619 2267 
Q 3247 1863 2275 1863 
L 1100 1863 
L 1100 0 
L 494 0 
z
M 1100 2403 
L 2284 2403 
Q 2872 2403 3119 2622 
Q 3366 2841 3366 3238 
Q 3366 3525 3220 3729 
Q 3075 3934 2838 4000 
Q 2684 4041 2272 4041 
L 1100 4041 
L 1100 2403 
z
" transform="scale(0.015625)"/>
        <path id="ArialMT-74" d="M 1650 503 
L 1731 6 
Q 1494 -44 1306 -44 
Q 1000 -44 831 53 
Q 663 150 594 308 
Q 525 466 525 972 
L 525 2881 
L 113 2881 
L 113 3319 
L 525 3319 
L 525 4141 
L 1084 4478 
L 1084 3319 
L 1650 3319 
L 1650 2881 
L 1084 2881 
L 1084 941 
Q 1084 700 1114 631 
Q 1144 563 1211 522 
Q 1278 481 1403 481 
Q 1497 481 1650 503 
z
" transform="scale(0.015625)"/>
       </defs>
       <use xlink:href="#ArialMT-50"/>
       <use xlink:href="#ArialMT-72" x="66.699219"/>
       <use xlink:href="#ArialMT-65" x="100"/>
       <use xlink:href="#ArialMT-74" x="155.615234"/>
       <use xlink:href="#ArialMT-65" x="183.398438"/>
       <use xlink:href="#ArialMT-72" x="239.013672"/>
       <use xlink:href="#ArialMT-6d" x="272.314453"/>
      </g>
     </g>
    </g>
   </g>
   <g id="matplotlib.axis_2">
    <g id="ytick_1">
     <g id="line2d_1">
      <path d="M 64.912813 201.222083 
L 232.312813 201.222083 
" clip-path="url(#p61d7345c22)" style="fill: none; stroke: #cccccc; stroke-linecap: round"/>
     </g>
     <g id="text_3">
      <!-- −4000 -->
      <g style="fill: #262626" transform="translate(24.52 205.15888) scale(0.11 -0.11)">
       <defs>
        <path id="ArialMT-2212" d="M 3381 1997 
L 356 1997 
L 356 2522 
L 3381 2522 
L 3381 1997 
z
" transform="scale(0.015625)"/>
        <path id="ArialMT-34" d="M 2069 0 
L 2069 1097 
L 81 1097 
L 81 1613 
L 2172 4581 
L 2631 4581 
L 2631 1613 
L 3250 1613 
L 3250 1097 
L 2631 1097 
L 2631 0 
L 2069 0 
z
M 2069 1613 
L 2069 3678 
L 634 1613 
L 2069 1613 
z
" transform="scale(0.015625)"/>
        <path id="ArialMT-30" d="M 266 2259 
Q 266 3072 433 3567 
Q 600 4063 929 4331 
Q 1259 4600 1759 4600 
Q 2128 4600 2406 4451 
Q 2684 4303 2865 4023 
Q 3047 3744 3150 3342 
Q 3253 2941 3253 2259 
Q 3253 1453 3087 958 
Q 2922 463 2592 192 
Q 2263 -78 1759 -78 
Q 1097 -78 719 397 
Q 266 969 266 2259 
z
M 844 2259 
Q 844 1131 1108 757 
Q 1372 384 1759 384 
Q 2147 384 2411 759 
Q 2675 1134 2675 2259 
Q 2675 3391 2411 3762 
Q 2147 4134 1753 4134 
Q 1366 4134 1134 3806 
Q 844 3388 844 2259 
z
" transform="scale(0.015625)"/>
       </defs>
       <use xlink:href="#ArialMT-2212"/>
       <use xlink:href="#ArialMT-34" x="58.398438"/>
       <use xlink:href="#ArialMT-30" x="114.013672"/>
       <use xlink:href="#ArialMT-30" x="169.628906"/>
       <use xlink:href="#ArialMT-30" x="225.244141"/>
      </g>
     </g>
    </g>
    <g id="ytick_2">
     <g id="line2d_2">
      <path d="M 64.912813 156.186096 
L 232.312813 156.186096 
" clip-path="url(#p61d7345c22)" style="fill: none; stroke: #cccccc; stroke-linecap: round"/>
     </g>
     <g id="text_4">
      <!-- −2000 -->
      <g style="fill: #262626" transform="translate(24.52 160.122892) scale(0.11 -0.11)">
       <defs>
        <path id="ArialMT-32" d="M 3222 541 
L 3222 0 
L 194 0 
Q 188 203 259 391 
Q 375 700 629 1000 
Q 884 1300 1366 1694 
Q 2113 2306 2375 2664 
Q 2638 3022 2638 3341 
Q 2638 3675 2398 3904 
Q 2159 4134 1775 4134 
Q 1369 4134 1125 3890 
Q 881 3647 878 3216 
L 300 3275 
Q 359 3922 746 4261 
Q 1134 4600 1788 4600 
Q 2447 4600 2831 4234 
Q 3216 3869 3216 3328 
Q 3216 3053 3103 2787 
Q 2991 2522 2730 2228 
Q 2469 1934 1863 1422 
Q 1356 997 1212 845 
Q 1069 694 975 541 
L 3222 541 
z
" transform="scale(0.015625)"/>
       </defs>
       <use xlink:href="#ArialMT-2212"/>
       <use xlink:href="#ArialMT-32" x="58.398438"/>
       <use xlink:href="#ArialMT-30" x="114.013672"/>
       <use xlink:href="#ArialMT-30" x="169.628906"/>
       <use xlink:href="#ArialMT-30" x="225.244141"/>
      </g>
     </g>
    </g>
    <g id="ytick_3">
     <g id="line2d_3">
      <path d="M 64.912813 111.150108 
L 232.312813 111.150108 
" clip-path="url(#p61d7345c22)" style="fill: none; stroke: #cccccc; stroke-linecap: round"/>
     </g>
     <g id="text_5">
      <!-- 0 -->
      <g style="fill: #262626" transform="translate(49.295781 115.086905) scale(0.11 -0.11)">
       <use xlink:href="#ArialMT-30"/>
      </g>
     </g>
    </g>
    <g id="ytick_4">
     <g id="line2d_4">
      <path d="M 64.912813 66.114121 
L 232.312813 66.114121 
" clip-path="url(#p61d7345c22)" style="fill: none; stroke: #cccccc; stroke-linecap: round"/>
     </g>
     <g id="text_6">
      <!-- 2000 -->
      <g style="fill: #262626" transform="translate(30.944688 70.050918) scale(0.11 -0.11)">
       <use xlink:href="#ArialMT-32"/>
       <use xlink:href="#ArialMT-30" x="55.615234"/>
       <use xlink:href="#ArialMT-30" x="111.230469"/>
       <use xlink:href="#ArialMT-30" x="166.845703"/>
      </g>
     </g>
    </g>
    <g id="ytick_5">
     <g id="line2d_5">
      <path d="M 64.912813 21.078133 
L 232.312813 21.078133 
" clip-path="url(#p61d7345c22)" style="fill: none; stroke: #cccccc; stroke-linecap: round"/>
     </g>
     <g id="text_7">
      <!-- 4000 -->
      <g style="fill: #262626" transform="translate(30.944688 25.01493) scale(0.11 -0.11)">
       <use xlink:href="#ArialMT-34"/>
       <use xlink:href="#ArialMT-30" x="55.615234"/>
       <use xlink:href="#ArialMT-30" x="111.230469"/>
       <use xlink:href="#ArialMT-30" x="166.845703"/>
      </g>
     </g>
    </g>
    <g id="text_8">
     <!-- sGMV residuals [mm$^3$] -->
     <g style="fill: #262626" transform="translate(18.12 178.32) rotate(-90) scale(0.12 -0.12)">
      <defs>
       <path id="ArialMT-73" d="M 197 991 
L 753 1078 
Q 800 744 1014 566 
Q 1228 388 1613 388 
Q 2000 388 2187 545 
Q 2375 703 2375 916 
Q 2375 1106 2209 1216 
Q 2094 1291 1634 1406 
Q 1016 1563 777 1677 
Q 538 1791 414 1992 
Q 291 2194 291 2438 
Q 291 2659 392 2848 
Q 494 3038 669 3163 
Q 800 3259 1026 3326 
Q 1253 3394 1513 3394 
Q 1903 3394 2198 3281 
Q 2494 3169 2634 2976 
Q 2775 2784 2828 2463 
L 2278 2388 
Q 2241 2644 2061 2787 
Q 1881 2931 1553 2931 
Q 1166 2931 1000 2803 
Q 834 2675 834 2503 
Q 834 2394 903 2306 
Q 972 2216 1119 2156 
Q 1203 2125 1616 2013 
Q 2213 1853 2448 1751 
Q 2684 1650 2818 1456 
Q 2953 1263 2953 975 
Q 2953 694 2789 445 
Q 2625 197 2315 61 
Q 2006 -75 1616 -75 
Q 969 -75 630 194 
Q 291 463 197 991 
z
" transform="scale(0.015625)"/>
       <path id="ArialMT-47" d="M 2638 1797 
L 2638 2334 
L 4578 2338 
L 4578 638 
Q 4131 281 3656 101 
Q 3181 -78 2681 -78 
Q 2006 -78 1454 211 
Q 903 500 622 1047 
Q 341 1594 341 2269 
Q 341 2938 620 3517 
Q 900 4097 1425 4378 
Q 1950 4659 2634 4659 
Q 3131 4659 3532 4498 
Q 3934 4338 4162 4050 
Q 4391 3763 4509 3300 
L 3963 3150 
Q 3859 3500 3706 3700 
Q 3553 3900 3268 4020 
Q 2984 4141 2638 4141 
Q 2222 4141 1919 4014 
Q 1616 3888 1430 3681 
Q 1244 3475 1141 3228 
Q 966 2803 966 2306 
Q 966 1694 1177 1281 
Q 1388 869 1791 669 
Q 2194 469 2647 469 
Q 3041 469 3416 620 
Q 3791 772 3984 944 
L 3984 1797 
L 2638 1797 
z
" transform="scale(0.015625)"/>
       <path id="ArialMT-4d" d="M 475 0 
L 475 4581 
L 1388 4581 
L 2472 1338 
Q 2622 884 2691 659 
Q 2769 909 2934 1394 
L 4031 4581 
L 4847 4581 
L 4847 0 
L 4263 0 
L 4263 3834 
L 2931 0 
L 2384 0 
L 1059 3900 
L 1059 0 
L 475 0 
z
" transform="scale(0.015625)"/>
       <path id="ArialMT-56" d="M 1803 0 
L 28 4581 
L 684 4581 
L 1875 1253 
Q 2019 853 2116 503 
Q 2222 878 2363 1253 
L 3600 4581 
L 4219 4581 
L 2425 0 
L 1803 0 
z
" transform="scale(0.015625)"/>
       <path id="ArialMT-20" transform="scale(0.015625)"/>
       <path id="ArialMT-69" d="M 425 3934 
L 425 4581 
L 988 4581 
L 988 3934 
L 425 3934 
z
M 425 0 
L 425 3319 
L 988 3319 
L 988 0 
L 425 0 
z
" transform="scale(0.015625)"/>
       <path id="ArialMT-64" d="M 2575 0 
L 2575 419 
Q 2259 -75 1647 -75 
Q 1250 -75 917 144 
Q 584 363 401 755 
Q 219 1147 219 1656 
Q 219 2153 384 2558 
Q 550 2963 881 3178 
Q 1213 3394 1622 3394 
Q 1922 3394 2156 3267 
Q 2391 3141 2538 2938 
L 2538 4581 
L 3097 4581 
L 3097 0 
L 2575 0 
z
M 797 1656 
Q 797 1019 1065 703 
Q 1334 388 1700 388 
Q 2069 388 2326 689 
Q 2584 991 2584 1609 
Q 2584 2291 2321 2609 
Q 2059 2928 1675 2928 
Q 1300 2928 1048 2622 
Q 797 2316 797 1656 
z
" transform="scale(0.015625)"/>
       <path id="ArialMT-75" d="M 2597 0 
L 2597 488 
Q 2209 -75 1544 -75 
Q 1250 -75 995 37 
Q 741 150 617 320 
Q 494 491 444 738 
Q 409 903 409 1263 
L 409 3319 
L 972 3319 
L 972 1478 
Q 972 1038 1006 884 
Q 1059 663 1231 536 
Q 1403 409 1656 409 
Q 1909 409 2131 539 
Q 2353 669 2445 892 
Q 2538 1116 2538 1541 
L 2538 3319 
L 3100 3319 
L 3100 0 
L 2597 0 
z
" transform="scale(0.015625)"/>
       <path id="ArialMT-61" d="M 2588 409 
Q 2275 144 1986 34 
Q 1697 -75 1366 -75 
Q 819 -75 525 192 
Q 231 459 231 875 
Q 231 1119 342 1320 
Q 453 1522 633 1644 
Q 813 1766 1038 1828 
Q 1203 1872 1538 1913 
Q 2219 1994 2541 2106 
Q 2544 2222 2544 2253 
Q 2544 2597 2384 2738 
Q 2169 2928 1744 2928 
Q 1347 2928 1158 2789 
Q 969 2650 878 2297 
L 328 2372 
Q 403 2725 575 2942 
Q 747 3159 1072 3276 
Q 1397 3394 1825 3394 
Q 2250 3394 2515 3294 
Q 2781 3194 2906 3042 
Q 3031 2891 3081 2659 
Q 3109 2516 3109 2141 
L 3109 1391 
Q 3109 606 3145 398 
Q 3181 191 3288 0 
L 2700 0 
Q 2613 175 2588 409 
z
M 2541 1666 
Q 2234 1541 1622 1453 
Q 1275 1403 1131 1340 
Q 988 1278 909 1158 
Q 831 1038 831 891 
Q 831 666 1001 516 
Q 1172 366 1500 366 
Q 1825 366 2078 508 
Q 2331 650 2450 897 
Q 2541 1088 2541 1459 
L 2541 1666 
z
" transform="scale(0.015625)"/>
       <path id="ArialMT-6c" d="M 409 0 
L 409 4581 
L 972 4581 
L 972 0 
L 409 0 
z
" transform="scale(0.015625)"/>
       <path id="ArialMT-5b" d="M 434 -1272 
L 434 4581 
L 1675 4581 
L 1675 4116 
L 997 4116 
L 997 -806 
L 1675 -806 
L 1675 -1272 
L 434 -1272 
z
" transform="scale(0.015625)"/>
       <path id="DejaVuSans-33" d="M 2597 2516 
Q 3050 2419 3304 2112 
Q 3559 1806 3559 1356 
Q 3559 666 3084 287 
Q 2609 -91 1734 -91 
Q 1441 -91 1130 -33 
Q 819 25 488 141 
L 488 750 
Q 750 597 1062 519 
Q 1375 441 1716 441 
Q 2309 441 2620 675 
Q 2931 909 2931 1356 
Q 2931 1769 2642 2001 
Q 2353 2234 1838 2234 
L 1294 2234 
L 1294 2753 
L 1863 2753 
Q 2328 2753 2575 2939 
Q 2822 3125 2822 3475 
Q 2822 3834 2567 4026 
Q 2313 4219 1838 4219 
Q 1578 4219 1281 4162 
Q 984 4106 628 3988 
L 628 4550 
Q 988 4650 1302 4700 
Q 1616 4750 1894 4750 
Q 2613 4750 3031 4423 
Q 3450 4097 3450 3541 
Q 3450 3153 3228 2886 
Q 3006 2619 2597 2516 
z
" transform="scale(0.015625)"/>
       <path id="ArialMT-5d" d="M 1363 -1272 
L 122 -1272 
L 122 -806 
L 800 -806 
L 800 4116 
L 122 4116 
L 122 4581 
L 1363 4581 
L 1363 -1272 
z
" transform="scale(0.015625)"/>
      </defs>
      <use xlink:href="#ArialMT-73" transform="translate(0 0.765625)"/>
      <use xlink:href="#ArialMT-47" transform="translate(50 0.765625)"/>
      <use xlink:href="#ArialMT-4d" transform="translate(127.783203 0.765625)"/>
      <use xlink:href="#ArialMT-56" transform="translate(211.083984 0.765625)"/>
      <use xlink:href="#ArialMT-20" transform="translate(277.783203 0.765625)"/>
      <use xlink:href="#ArialMT-72" transform="translate(305.566406 0.765625)"/>
      <use xlink:href="#ArialMT-65" transform="translate(338.867188 0.765625)"/>
      <use xlink:href="#ArialMT-73" transform="translate(394.482422 0.765625)"/>
      <use xlink:href="#ArialMT-69" transform="translate(444.482422 0.765625)"/>
      <use xlink:href="#ArialMT-64" transform="translate(466.699219 0.765625)"/>
      <use xlink:href="#ArialMT-75" transform="translate(522.314453 0.765625)"/>
      <use xlink:href="#ArialMT-61" transform="translate(577.929688 0.765625)"/>
      <use xlink:href="#ArialMT-6c" transform="translate(633.544922 0.765625)"/>
      <use xlink:href="#ArialMT-73" transform="translate(655.761719 0.765625)"/>
      <use xlink:href="#ArialMT-20" transform="translate(705.761719 0.765625)"/>
      <use xlink:href="#ArialMT-5b" transform="translate(733.544922 0.765625)"/>
      <use xlink:href="#ArialMT-6d" transform="translate(761.328125 0.765625)"/>
      <use xlink:href="#ArialMT-6d" transform="translate(844.628906 0.765625)"/>
      <use xlink:href="#DejaVuSans-33" transform="translate(928.886719 39.046875) scale(0.7)"/>
      <use xlink:href="#ArialMT-5d" transform="translate(976.157227 0.765625)"/>
     </g>
    </g>
   </g>
   <g id="PolyCollection_1">
    <defs>
     <path id="m3fa523fb2e" d="M 106.36954 -54.865531 
L 106.31063 -54.865531 
L 106.292748 -56.621892 
L 106.268497 -58.378253 
L 106.238047 -60.134613 
L 106.202648 -61.890974 
L 106.164389 -63.647335 
L 106.125386 -65.403695 
L 106.08649 -67.160056 
L 106.045868 -68.916416 
L 105.997974 -70.672777 
L 105.933383 -72.429138 
L 105.839713 -74.185498 
L 105.703466 -75.941859 
L 105.512386 -77.69822 
L 105.257753 -79.45458 
L 104.936134 -81.210941 
L 104.550196 -82.967301 
L 104.108282 -84.723662 
L 103.6226 -86.480023 
L 103.106087 -88.236383 
L 102.568505 -89.992744 
L 102.012856 -91.749105 
L 101.433543 -93.505465 
L 100.817433 -95.261826 
L 100.148012 -97.018186 
L 99.411448 -98.774547 
L 98.602245 -100.530908 
L 97.725965 -102.287268 
L 96.7975 -104.043629 
L 95.835208 -105.79999 
L 94.853011 -107.55635 
L 93.853509 -109.312711 
L 92.824729 -111.069071 
L 91.741853 -112.825432 
L 90.573584 -114.581793 
L 89.29147 -116.338153 
L 87.879752 -118.094514 
L 86.343122 -119.850875 
L 84.710106 -121.607235 
L 83.03074 -123.363596 
L 81.368696 -125.119956 
L 79.789742 -126.876317 
L 78.349698 -128.632678 
L 77.085265 -130.389038 
L 76.010143 -132.145399 
L 75.117095 -133.90176 
L 74.384842 -135.65812 
L 73.787545 -137.414481 
L 73.304249 -139.170841 
L 72.925954 -140.927202 
L 72.658674 -142.683563 
L 72.521903 -144.439923 
L 72.543173 -146.196284 
L 72.750568 -147.952645 
L 73.165576 -149.709005 
L 73.798181 -151.465366 
L 74.644765 -153.221726 
L 75.688143 -154.978087 
L 76.898594 -156.734448 
L 78.235468 -158.490808 
L 79.649994 -160.247169 
L 81.090354 -162.00353 
L 82.509121 -163.75989 
L 83.87145 -165.516251 
L 85.161027 -167.272611 
L 86.381013 -169.028972 
L 87.549075 -170.785333 
L 88.688301 -172.541693 
L 89.817612 -174.298054 
L 90.945409 -176.054415 
L 92.068439 -177.810775 
L 93.175338 -179.567136 
L 94.252366 -181.323496 
L 95.288296 -183.079857 
L 96.276519 -184.836218 
L 97.214194 -186.592578 
L 98.099813 -188.348939 
L 98.931068 -190.1053 
L 99.704249 -191.86166 
L 100.415312 -193.618021 
L 101.061744 -195.374381 
L 101.644089 -197.130742 
L 102.166373 -198.887103 
L 102.635371 -200.643463 
L 103.059179 -202.399824 
L 103.445754 -204.156185 
L 103.801894 -205.912545 
L 104.132784 -207.668906 
L 104.441935 -209.425266 
L 104.731257 -211.181627 
L 105.001123 -212.937988 
L 105.250438 -214.694348 
L 105.476883 -216.450709 
L 105.677482 -218.20707 
L 105.84944 -219.96343 
L 105.991072 -221.719791 
L 106.102486 -223.476151 
L 106.18579 -225.232512 
L 106.244772 -226.988873 
L 106.284209 -228.745233 
L 106.395962 -228.745233 
L 106.395962 -228.745233 
L 106.435399 -226.988873 
L 106.494381 -225.232512 
L 106.577684 -223.476151 
L 106.689098 -221.719791 
L 106.830731 -219.96343 
L 107.002689 -218.20707 
L 107.203287 -216.450709 
L 107.429733 -214.694348 
L 107.679047 -212.937988 
L 107.948913 -211.181627 
L 108.238235 -209.425266 
L 108.547386 -207.668906 
L 108.878277 -205.912545 
L 109.234417 -204.156185 
L 109.620991 -202.399824 
L 110.044799 -200.643463 
L 110.513798 -198.887103 
L 111.036082 -197.130742 
L 111.618426 -195.374381 
L 112.264859 -193.618021 
L 112.975922 -191.86166 
L 113.749103 -190.1053 
L 114.580357 -188.348939 
L 115.465977 -186.592578 
L 116.403651 -184.836218 
L 117.391875 -183.079857 
L 118.427805 -181.323496 
L 119.504832 -179.567136 
L 120.611732 -177.810775 
L 121.734761 -176.054415 
L 122.862558 -174.298054 
L 123.991869 -172.541693 
L 125.131095 -170.785333 
L 126.299158 -169.028972 
L 127.519143 -167.272611 
L 128.808721 -165.516251 
L 130.171049 -163.75989 
L 131.589816 -162.00353 
L 133.030177 -160.247169 
L 134.444703 -158.490808 
L 135.781576 -156.734448 
L 136.992028 -154.978087 
L 138.035405 -153.221726 
L 138.881989 -151.465366 
L 139.514594 -149.709005 
L 139.929603 -147.952645 
L 140.136997 -146.196284 
L 140.158267 -144.439923 
L 140.021496 -142.683563 
L 139.754216 -140.927202 
L 139.375922 -139.170841 
L 138.892626 -137.414481 
L 138.295328 -135.65812 
L 137.563075 -133.90176 
L 136.670027 -132.145399 
L 135.594905 -130.389038 
L 134.330472 -128.632678 
L 132.890428 -126.876317 
L 131.311475 -125.119956 
L 129.64943 -123.363596 
L 127.970064 -121.607235 
L 126.337049 -119.850875 
L 124.800419 -118.094514 
L 123.3887 -116.338153 
L 122.106586 -114.581793 
L 120.938318 -112.825432 
L 119.855442 -111.069071 
L 118.826661 -109.312711 
L 117.827159 -107.55635 
L 116.844963 -105.79999 
L 115.88267 -104.043629 
L 114.954206 -102.287268 
L 114.077926 -100.530908 
L 113.268723 -98.774547 
L 112.532158 -97.018186 
L 111.862737 -95.261826 
L 111.246627 -93.505465 
L 110.667314 -91.749105 
L 110.111665 -89.992744 
L 109.574083 -88.236383 
L 109.05757 -86.480023 
L 108.571888 -84.723662 
L 108.129974 -82.967301 
L 107.744036 -81.210941 
L 107.422418 -79.45458 
L 107.167785 -77.69822 
L 106.976704 -75.941859 
L 106.840458 -74.185498 
L 106.746787 -72.429138 
L 106.682197 -70.672777 
L 106.634302 -68.916416 
L 106.59368 -67.160056 
L 106.554785 -65.403695 
L 106.515782 -63.647335 
L 106.477523 -61.890974 
L 106.442124 -60.134613 
L 106.411674 -58.378253 
L 106.387422 -56.621892 
L 106.36954 -54.865531 
z
" style="stroke: #4c4c4c; stroke-width: 0.5"/>
    </defs>
    <g clip-path="url(#p61d7345c22)">
     <use xlink:href="#m3fa523fb2e" x="0" y="255.719844" style="fill: #5573cd; stroke: #4c4c4c; stroke-width: 0.5"/>
    </g>
   </g>
   <g id="PolyCollection_2">
    <defs>
     <path id="m7830eb8bd3" d="M 191.026763 -36.64659 
L 190.744317 -36.64659 
L 190.680878 -38.643913 
L 190.596109 -40.641235 
L 190.485897 -42.638558 
L 190.346409 -44.63588 
L 190.174467 -46.633203 
L 189.96789 -48.630525 
L 189.725783 -50.627848 
L 189.448696 -52.62517 
L 189.138609 -54.622493 
L 188.798761 -56.619815 
L 188.433321 -58.617138 
L 188.046983 -60.61446 
L 187.644554 -62.611783 
L 187.230636 -64.609105 
L 186.809459 -66.606428 
L 186.384885 -68.60375 
L 185.96057 -70.601073 
L 185.540187 -72.598396 
L 185.127593 -74.595718 
L 184.726835 -76.593041 
L 184.341873 -78.590363 
L 183.976007 -80.587686 
L 183.631051 -82.585008 
L 183.306355 -84.582331 
L 182.997884 -86.579653 
L 182.697529 -88.576976 
L 182.392845 -90.574298 
L 182.067346 -92.571621 
L 181.701414 -94.568943 
L 181.273784 -96.566266 
L 180.763482 -98.563588 
L 180.152039 -100.560911 
L 179.42571 -102.558233 
L 178.577439 -104.555556 
L 177.608264 -106.552878 
L 176.527936 -108.550201 
L 175.354562 -110.547523 
L 174.113226 -112.544846 
L 172.833688 -114.542168 
L 171.547398 -116.539491 
L 170.284188 -118.536813 
L 169.069117 -120.534136 
L 167.919895 -122.531458 
L 166.845282 -124.528781 
L 165.844732 -126.526103 
L 164.909383 -128.523426 
L 164.024329 -130.520749 
L 163.171934 -132.518071 
L 162.335818 -134.515394 
L 161.504979 -136.512716 
L 160.677457 -138.510039 
L 159.862898 -140.507361 
L 159.083467 -142.504684 
L 158.372741 -144.502006 
L 157.772535 -146.499329 
L 157.327989 -148.496651 
L 157.081624 -150.493974 
L 157.067358 -152.491296 
L 157.305532 -154.488619 
L 157.79987 -156.485941 
L 158.536913 -158.483264 
L 159.487996 -160.480586 
L 160.613325 -162.477909 
L 161.86733 -164.475231 
L 163.2043 -166.472554 
L 164.583319 -168.469876 
L 165.971791 -170.467199 
L 167.3472 -172.464521 
L 168.697092 -174.461844 
L 170.017623 -176.459166 
L 171.311178 -178.456489 
L 172.583601 -180.453811 
L 173.84156 -182.451134 
L 175.090378 -184.448456 
L 176.332526 -186.445779 
L 177.566839 -188.443102 
L 178.788393 -190.440424 
L 179.988924 -192.437747 
L 181.157662 -194.435069 
L 182.282425 -196.432392 
L 183.350828 -198.429714 
L 184.351475 -200.427037 
L 185.274988 -202.424359 
L 186.114767 -204.421682 
L 186.867393 -206.419004 
L 187.532649 -208.416327 
L 188.113196 -210.413649 
L 188.613984 -212.410972 
L 189.041519 -214.408294 
L 189.403132 -216.405617 
L 189.706336 -218.402939 
L 189.95837 -220.400262 
L 190.16592 -222.397584 
L 190.335028 -224.394907 
L 190.471102 -226.392229 
L 190.579003 -228.389552 
L 190.663123 -230.386874 
L 190.727456 -232.384197 
L 190.77562 -234.381519 
L 190.995459 -234.381519 
L 190.995459 -234.381519 
L 191.043623 -232.384197 
L 191.107957 -230.386874 
L 191.192077 -228.389552 
L 191.299977 -226.392229 
L 191.436052 -224.394907 
L 191.605159 -222.397584 
L 191.81271 -220.400262 
L 192.064743 -218.402939 
L 192.367948 -216.405617 
L 192.72956 -214.408294 
L 193.157096 -212.410972 
L 193.657883 -210.413649 
L 194.238431 -208.416327 
L 194.903687 -206.419004 
L 195.656312 -204.421682 
L 196.496092 -202.424359 
L 197.419605 -200.427037 
L 198.420252 -198.429714 
L 199.488655 -196.432392 
L 200.613417 -194.435069 
L 201.782156 -192.437747 
L 202.982687 -190.440424 
L 204.20424 -188.443102 
L 205.438553 -186.445779 
L 206.680701 -184.448456 
L 207.929519 -182.451134 
L 209.187479 -180.453811 
L 210.459902 -178.456489 
L 211.753456 -176.459166 
L 213.073988 -174.461844 
L 214.423879 -172.464521 
L 215.799288 -170.467199 
L 217.187761 -168.469876 
L 218.566779 -166.472554 
L 219.90375 -164.475231 
L 221.157755 -162.477909 
L 222.283083 -160.480586 
L 223.234166 -158.483264 
L 223.971209 -156.485941 
L 224.465547 -154.488619 
L 224.703722 -152.491296 
L 224.689455 -150.493974 
L 224.443091 -148.496651 
L 223.998544 -146.499329 
L 223.398339 -144.502006 
L 222.687613 -142.504684 
L 221.908182 -140.507361 
L 221.093623 -138.510039 
L 220.2661 -136.512716 
L 219.435262 -134.515394 
L 218.599146 -132.518071 
L 217.746751 -130.520749 
L 216.861696 -128.523426 
L 215.926348 -126.526103 
L 214.925798 -124.528781 
L 213.851184 -122.531458 
L 212.701962 -120.534136 
L 211.486892 -118.536813 
L 210.223682 -116.539491 
L 208.937391 -114.542168 
L 207.657854 -112.544846 
L 206.416518 -110.547523 
L 205.243143 -108.550201 
L 204.162815 -106.552878 
L 203.193641 -104.555556 
L 202.345369 -102.558233 
L 201.619041 -100.560911 
L 201.007597 -98.563588 
L 200.497296 -96.566266 
L 200.069665 -94.568943 
L 199.703734 -92.571621 
L 199.378235 -90.574298 
L 199.07355 -88.576976 
L 198.773195 -86.579653 
L 198.464725 -84.582331 
L 198.140029 -82.585008 
L 197.795072 -80.587686 
L 197.429207 -78.590363 
L 197.044244 -76.593041 
L 196.643486 -74.595718 
L 196.230893 -72.598396 
L 195.810509 -70.601073 
L 195.386195 -68.60375 
L 194.961621 -66.606428 
L 194.540443 -64.609105 
L 194.126526 -62.611783 
L 193.724097 -60.61446 
L 193.337758 -58.617138 
L 192.972318 -56.619815 
L 192.632471 -54.622493 
L 192.322384 -52.62517 
L 192.045296 -50.627848 
L 191.80319 -48.630525 
L 191.596613 -46.633203 
L 191.42467 -44.63588 
L 191.285183 -42.638558 
L 191.17497 -40.641235 
L 191.090201 -38.643913 
L 191.026763 -36.64659 
z
" style="stroke: #4c4c4c; stroke-width: 0.5"/>
    </defs>
    <g clip-path="url(#p61d7345c22)">
     <use xlink:href="#m7830eb8bd3" x="0" y="255.719844" style="fill: #df8920; stroke: #4c4c4c; stroke-width: 0.5"/>
    </g>
   </g>
   <g id="line2d_6">
    <path d="M 106.340085 173.902975 
L 106.340085 47.79921 
" clip-path="url(#p61d7345c22)" style="fill: none; stroke: #4c4c4c; stroke-width: 0.75; stroke-linecap: round"/>
   </g>
   <g id="line2d_7">
    <path d="M 106.340085 127.101638 
L 106.340085 95.106261 
" clip-path="url(#p61d7345c22)" style="fill: none; stroke: #4c4c4c; stroke-width: 2.25; stroke-linecap: round"/>
   </g>
   <g id="line2d_8">
    <path d="M 106.340085 110.545606 
" clip-path="url(#p61d7345c22)" style="fill: none; stroke: #4c4c4c; stroke-width: 1.5; stroke-linecap: round"/>
    <defs>
     <path id="m1a96d67dcd" d="M 0.9375 0 
L -0.9375 -0 
" style="stroke: #ffffff; stroke-width: 0.45"/>
    </defs>
    <g clip-path="url(#p61d7345c22)">
     <use xlink:href="#m1a96d67dcd" x="106.340085" y="110.545606" style="fill: #ffffff; stroke: #ffffff; stroke-width: 0.45"/>
    </g>
   </g>
   <g id="line2d_9">
    <path d="M 190.88554 189.974368 
L 190.88554 44.703675 
" clip-path="url(#p61d7345c22)" style="fill: none; stroke: #4c4c4c; stroke-width: 0.75; stroke-linecap: round"/>
   </g>
   <g id="line2d_10">
    <path d="M 190.88554 132.294933 
L 190.88554 92.9021 
" clip-path="url(#p61d7345c22)" style="fill: none; stroke: #4c4c4c; stroke-width: 2.25; stroke-linecap: round"/>
   </g>
   <g id="line2d_11">
    <path d="M 190.88554 106.984573 
" clip-path="url(#p61d7345c22)" style="fill: none; stroke: #4c4c4c; stroke-width: 1.5; stroke-linecap: round"/>
    <g clip-path="url(#p61d7345c22)">
     <use xlink:href="#m1a96d67dcd" x="190.88554" y="106.984573" style="fill: #ffffff; stroke: #ffffff; stroke-width: 0.45"/>
    </g>
   </g>
   <g id="line2d_12">
    <path d="M 106.340085 31.65317 
L 106.340085 27.303001 
L 190.88554 27.303001 
L 190.88554 31.65317 
" style="fill: none; stroke: #333333; stroke-width: 0.5; stroke-linecap: round"/>
   </g>
   <g id="patch_3">
    <path d="M 64.912813 228.96 
L 64.912813 7.2 
" style="fill: none; stroke: #cccccc; stroke-width: 1.25; stroke-linejoin: miter; stroke-linecap: square"/>
   </g>
   <g id="patch_4">
    <path d="M 64.912813 228.96 
L 232.312813 228.96 
" style="fill: none; stroke: #cccccc; stroke-width: 1.25; stroke-linejoin: miter; stroke-linecap: square"/>
   </g>
   <g id="text_9">
    <!-- ns -->
    <g style="fill: #262626" transform="translate(142.27625 23.918001) scale(0.12 -0.12)">
     <defs>
      <path id="ArialMT-6e" d="M 422 0 
L 422 3319 
L 928 3319 
L 928 2847 
Q 1294 3394 1984 3394 
Q 2284 3394 2536 3286 
Q 2788 3178 2913 3003 
Q 3038 2828 3088 2588 
Q 3119 2431 3119 2041 
L 3119 0 
L 2556 0 
L 2556 2019 
Q 2556 2363 2490 2533 
Q 2425 2703 2258 2804 
Q 2091 2906 1866 2906 
Q 1506 2906 1245 2678 
Q 984 2450 984 1813 
L 984 0 
L 422 0 
z
" transform="scale(0.015625)"/>
     </defs>
     <use xlink:href="#ArialMT-6e"/>
     <use xlink:href="#ArialMT-73" x="55.615234"/>
    </g>
   </g>
  </g>
 </g>
 <defs>
  <clipPath id="p61d7345c22">
   <rect x="64.912813" y="7.2" width="167.4" height="221.76"/>
  </clipPath>
 </defs>
</svg>
