<?xml version="1.0" encoding="utf-8" standalone="no"?>
<!DOCTYPE svg PUBLIC "-//W3C//DTD SVG 1.1//EN"
  "http://www.w3.org/Graphics/SVG/1.1/DTD/svg11.dtd">
<svg xmlns:xlink="http://www.w3.org/1999/xlink" width="155.905512pt" height="113.385827pt" viewBox="0 0 155.905512 113.385827" xmlns="http://www.w3.org/2000/svg" version="1.1">
 <metadata>
  <rdf:RDF xmlns:dc="http://purl.org/dc/elements/1.1/" xmlns:cc="http://creativecommons.org/ns#" xmlns:rdf="http://www.w3.org/1999/02/22-rdf-syntax-ns#">
   <cc:Work>
    <dc:type rdf:resource="http://purl.org/dc/dcmitype/StillImage"/>
    <dc:date>2025-06-11T15:42:14.115308</dc:date>
    <dc:format>image/svg+xml</dc:format>
    <dc:creator>
     <cc:Agent>
      <dc:title>Matplotlib v3.9.2, https://matplotlib.org/</dc:title>
     </cc:Agent>
    </dc:creator>
   </cc:Work>
  </rdf:RDF>
 </metadata>
 <defs>
  <style type="text/css">*{stroke-linejoin: round; stroke-linecap: butt}</style>
 </defs>
 <g id="figure_1">
  <g id="patch_1">
   <path d="M 0 113.385827 
L 155.905512 113.385827 
L 155.905512 0 
L 0 0 
z
" style="fill: #ffffff"/>
  </g>
  <g id="axes_1">
   <g id="patch_2">
    <path d="M 26.8075 89.218327 
L 150.505512 89.218327 
L 150.505512 5.4 
L 26.8075 5.4 
z
" style="fill: #ffffff"/>
   </g>
   <g id="PathCollection_1">
    <defs>
     <path id="C0_0_9b91db623c" d="M 0 0.866025 
C 0.229673 0.866025 0.449969 0.774776 0.612372 0.612372 
C 0.774776 0.449969 0.866025 0.229673 0.866025 -0 
C 0.866025 -0.229673 0.774776 -0.449969 0.612372 -0.612372 
C 0.449969 -0.774776 0.229673 -0.866025 0 -0.866025 
C -0.229673 -0.866025 -0.449969 -0.774776 -0.612372 -0.612372 
C -0.774776 -0.449969 -0.866025 -0.229673 -0.866025 0 
C -0.866025 0.229673 -0.774776 0.449969 -0.612372 0.612372 
C -0.449969 0.774776 -0.229673 0.866025 0 0.866025 
z
"/>
    </defs>
    <g clip-path="url(#p8213f5aab8)">
     <use xlink:href="#C0_0_9b91db623c" x="72.913123" y="48.651878" style="fill: #ff8c00; fill-opacity: 0.8"/>
    </g>
    <g clip-path="url(#p8213f5aab8)">
     <use xlink:href="#C0_0_9b91db623c" x="57.169739" y="55.011779" style="fill: #ff8c00; fill-opacity: 0.8"/>
    </g>
    <g clip-path="url(#p8213f5aab8)">
     <use xlink:href="#C0_0_9b91db623c" x="36.928246" y="62.567218" style="fill: #ff8c00; fill-opacity: 0.8"/>
    </g>
    <g clip-path="url(#p8213f5aab8)">
     <use xlink:href="#C0_0_9b91db623c" x="63.916904" y="65.034609" style="fill: #ff8c00; fill-opacity: 0.8"/>
    </g>
    <g clip-path="url(#p8213f5aab8)">
     <use xlink:href="#C0_0_9b91db623c" x="66.165958" y="67.097803" style="fill: #ff8c00; fill-opacity: 0.8"/>
    </g>
    <g clip-path="url(#p8213f5aab8)">
     <use xlink:href="#C0_0_9b91db623c" x="68.415013" y="85.408403" style="fill: #ff8c00; fill-opacity: 0.8"/>
    </g>
    <g clip-path="url(#p8213f5aab8)">
     <use xlink:href="#C0_0_9b91db623c" x="54.920685" y="9.209924" style="fill: #ff8c00; fill-opacity: 0.8"/>
    </g>
    <g clip-path="url(#p8213f5aab8)">
     <use xlink:href="#C0_0_9b91db623c" x="54.920685" y="12.337897" style="fill: #ff8c00; fill-opacity: 0.8"/>
    </g>
    <g clip-path="url(#p8213f5aab8)">
     <use xlink:href="#C0_0_9b91db623c" x="75.162177" y="25.7732" style="fill: #ff8c00; fill-opacity: 0.8"/>
    </g>
    <g clip-path="url(#p8213f5aab8)">
     <use xlink:href="#C0_0_9b91db623c" x="75.162177" y="40.471616" style="fill: #ff8c00; fill-opacity: 0.8"/>
    </g>
    <g clip-path="url(#p8213f5aab8)">
     <use xlink:href="#C0_0_9b91db623c" x="41.426356" y="11.8212" style="fill: #ff8c00; fill-opacity: 0.8"/>
    </g>
    <g clip-path="url(#p8213f5aab8)">
     <use xlink:href="#C0_0_9b91db623c" x="68.415013" y="58.450799" style="fill: #ff8c00; fill-opacity: 0.8"/>
    </g>
    <g clip-path="url(#p8213f5aab8)">
     <use xlink:href="#C0_0_9b91db623c" x="90.905561" y="61.464331" style="fill: #ff8c00; fill-opacity: 0.8"/>
    </g>
    <g clip-path="url(#p8213f5aab8)">
     <use xlink:href="#C0_0_9b91db623c" x="90.905561" y="56.081242" style="fill: #ff8c00; fill-opacity: 0.8"/>
    </g>
    <g clip-path="url(#p8213f5aab8)">
     <use xlink:href="#C0_0_9b91db623c" x="66.165958" y="81.013268" style="fill: #ff8c00; fill-opacity: 0.8"/>
    </g>
    <g clip-path="url(#p8213f5aab8)">
     <use xlink:href="#C0_0_9b91db623c" x="54.920685" y="52.505123" style="fill: #ff8c00; fill-opacity: 0.8"/>
    </g>
    <g clip-path="url(#p8213f5aab8)">
     <use xlink:href="#C0_0_9b91db623c" x="43.675411" y="44.515017" style="fill: #ff8c00; fill-opacity: 0.8"/>
    </g>
    <g clip-path="url(#p8213f5aab8)">
     <use xlink:href="#C0_0_9b91db623c" x="66.165958" y="58.029991" style="fill: #ff8c00; fill-opacity: 0.8"/>
    </g>
    <g clip-path="url(#p8213f5aab8)">
     <use xlink:href="#C0_0_9b91db623c" x="88.656506" y="47.983964" style="fill: #ff8c00; fill-opacity: 0.8"/>
    </g>
    <g clip-path="url(#p8213f5aab8)">
     <use xlink:href="#C0_0_9b91db623c" x="66.165958" y="64.137591" style="fill: #ff8c00; fill-opacity: 0.8"/>
    </g>
    <g clip-path="url(#p8213f5aab8)">
     <use xlink:href="#C0_0_9b91db623c" x="68.415013" y="19.252449" style="fill: #ff8c00; fill-opacity: 0.8"/>
    </g>
    <g clip-path="url(#p8213f5aab8)">
     <use xlink:href="#C0_0_9b91db623c" x="61.667849" y="67.391895" style="fill: #ff8c00; fill-opacity: 0.8"/>
    </g>
    <g clip-path="url(#p8213f5aab8)">
     <use xlink:href="#C0_0_9b91db623c" x="68.415013" y="14.283" style="fill: #ff8c00; fill-opacity: 0.8"/>
    </g>
    <g clip-path="url(#p8213f5aab8)">
     <use xlink:href="#C0_0_9b91db623c" x="68.415013" y="31.577537" style="fill: #ff8c00; fill-opacity: 0.8"/>
    </g>
    <g clip-path="url(#p8213f5aab8)">
     <use xlink:href="#C0_0_9b91db623c" x="63.916904" y="33.166694" style="fill: #ff8c00; fill-opacity: 0.8"/>
    </g>
    <g clip-path="url(#p8213f5aab8)">
     <use xlink:href="#C0_0_9b91db623c" x="63.916904" y="72.580621" style="fill: #ff8c00; fill-opacity: 0.8"/>
    </g>
    <g clip-path="url(#p8213f5aab8)">
     <use xlink:href="#C0_0_9b91db623c" x="81.909342" y="36.430873" style="fill: #ff8c00; fill-opacity: 0.8"/>
    </g>
    <g clip-path="url(#p8213f5aab8)">
     <use xlink:href="#C0_0_9b91db623c" x="66.165958" y="28.442709" style="fill: #ff8c00; fill-opacity: 0.8"/>
    </g>
    <g clip-path="url(#p8213f5aab8)">
     <use xlink:href="#C0_0_9b91db623c" x="102.150834" y="56.577405" style="fill: #ff8c00; fill-opacity: 0.8"/>
    </g>
    <g clip-path="url(#p8213f5aab8)">
     <use xlink:href="#C0_0_9b91db623c" x="54.920685" y="65.134793" style="fill: #ff8c00; fill-opacity: 0.8"/>
    </g>
    <g clip-path="url(#p8213f5aab8)">
     <use xlink:href="#C0_0_9b91db623c" x="63.916904" y="77.762506" style="fill: #ff8c00; fill-opacity: 0.8"/>
    </g>
    <g clip-path="url(#p8213f5aab8)">
     <use xlink:href="#C0_0_9b91db623c" x="72.913123" y="25.538117" style="fill: #ff8c00; fill-opacity: 0.8"/>
    </g>
    <g clip-path="url(#p8213f5aab8)">
     <use xlink:href="#C0_0_9b91db623c" x="59.418794" y="44.101768" style="fill: #ff8c00; fill-opacity: 0.8"/>
    </g>
    <g clip-path="url(#p8213f5aab8)">
     <use xlink:href="#C0_0_9b91db623c" x="59.418794" y="71.904469" style="fill: #ff8c00; fill-opacity: 0.8"/>
    </g>
    <g clip-path="url(#p8213f5aab8)">
     <use xlink:href="#C0_0_9b91db623c" x="97.652725" y="26.120983" style="fill: #ff8c00; fill-opacity: 0.8"/>
    </g>
    <g clip-path="url(#p8213f5aab8)">
     <use xlink:href="#C0_0_9b91db623c" x="97.652725" y="39.528057" style="fill: #ff8c00; fill-opacity: 0.8"/>
    </g>
    <g clip-path="url(#p8213f5aab8)">
     <use xlink:href="#C0_0_9b91db623c" x="48.17352" y="51.161997" style="fill: #ff8c00; fill-opacity: 0.8"/>
    </g>
    <g clip-path="url(#p8213f5aab8)">
     <use xlink:href="#C0_0_9b91db623c" x="41.426356" y="61.387358" style="fill: #ff8c00; fill-opacity: 0.8"/>
    </g>
    <g clip-path="url(#p8213f5aab8)">
     <use xlink:href="#C0_0_9b91db623c" x="72.913123" y="19.99902" style="fill: #ff8c00; fill-opacity: 0.8"/>
    </g>
    <g clip-path="url(#p8213f5aab8)">
     <use xlink:href="#C0_0_9b91db623c" x="59.418794" y="73.422093" style="fill: #ff8c00; fill-opacity: 0.8"/>
    </g>
    <g clip-path="url(#p8213f5aab8)">
     <use xlink:href="#C0_0_9b91db623c" x="68.415013" y="49.172401" style="fill: #ff8c00; fill-opacity: 0.8"/>
    </g>
    <g clip-path="url(#p8213f5aab8)">
     <use xlink:href="#C0_0_9b91db623c" x="36.928246" y="9.726311" style="fill: #ff8c00; fill-opacity: 0.8"/>
    </g>
    <g clip-path="url(#p8213f5aab8)">
     <use xlink:href="#C0_0_9b91db623c" x="36.928246" y="12.005635" style="fill: #ff8c00; fill-opacity: 0.8"/>
    </g>
    <g clip-path="url(#p8213f5aab8)">
     <use xlink:href="#C0_0_9b91db623c" x="75.162177" y="55.689848" style="fill: #ff8c00; fill-opacity: 0.8"/>
    </g>
    <g clip-path="url(#p8213f5aab8)">
     <use xlink:href="#C0_0_9b91db623c" x="45.924465" y="64.826294" style="fill: #ff8c00; fill-opacity: 0.8"/>
    </g>
    <g clip-path="url(#p8213f5aab8)">
     <use xlink:href="#C0_0_9b91db623c" x="45.924465" y="26.434793" style="fill: #ff8c00; fill-opacity: 0.8"/>
    </g>
    <g clip-path="url(#p8213f5aab8)">
     <use xlink:href="#C0_0_9b91db623c" x="45.924465" y="40.696314" style="fill: #ff8c00; fill-opacity: 0.8"/>
    </g>
    <g clip-path="url(#p8213f5aab8)">
     <use xlink:href="#C0_0_9b91db623c" x="61.667849" y="13.460318" style="fill: #ff8c00; fill-opacity: 0.8"/>
    </g>
    <g clip-path="url(#p8213f5aab8)">
     <use xlink:href="#C0_0_9b91db623c" x="88.656506" y="10.287915" style="fill: #ff8c00; fill-opacity: 0.8"/>
    </g>
    <g clip-path="url(#p8213f5aab8)">
     <use xlink:href="#C0_0_9b91db623c" x="77.411232" y="22.777601" style="fill: #ff8c00; fill-opacity: 0.8"/>
    </g>
    <g clip-path="url(#p8213f5aab8)">
     <use xlink:href="#C0_0_9b91db623c" x="81.909342" y="15.11607" style="fill: #ff8c00; fill-opacity: 0.8"/>
    </g>
    <g clip-path="url(#p8213f5aab8)">
     <use xlink:href="#C0_0_9b91db623c" x="75.162177" y="22.977772" style="fill: #ff8c00; fill-opacity: 0.8"/>
    </g>
    <g clip-path="url(#p8213f5aab8)">
     <use xlink:href="#C0_0_9b91db623c" x="68.415013" y="39.658145" style="fill: #ff8c00; fill-opacity: 0.8"/>
    </g>
    <g clip-path="url(#p8213f5aab8)">
     <use xlink:href="#C0_0_9b91db623c" x="41.426356" y="17.532267" style="fill: #ff8c00; fill-opacity: 0.8"/>
    </g>
    <g clip-path="url(#p8213f5aab8)">
     <use xlink:href="#C0_0_9b91db623c" x="32.430137" y="19.131406" style="fill: #ff8c00; fill-opacity: 0.8"/>
    </g>
    <g clip-path="url(#p8213f5aab8)">
     <use xlink:href="#C0_0_9b91db623c" x="63.916904" y="37.892963" style="fill: #ff8c00; fill-opacity: 0.8"/>
    </g>
    <g clip-path="url(#p8213f5aab8)">
     <use xlink:href="#C0_0_9b91db623c" x="63.916904" y="15.415939" style="fill: #ff8c00; fill-opacity: 0.8"/>
    </g>
    <g clip-path="url(#p8213f5aab8)">
     <use xlink:href="#C0_0_9b91db623c" x="75.162177" y="74.743961" style="fill: #ff8c00; fill-opacity: 0.8"/>
    </g>
    <g clip-path="url(#p8213f5aab8)">
     <use xlink:href="#C0_0_9b91db623c" x="66.165958" y="47.229766" style="fill: #ff8c00; fill-opacity: 0.8"/>
    </g>
    <g clip-path="url(#p8213f5aab8)">
     <use xlink:href="#C0_0_9b91db623c" x="122.392327" y="19.079784" style="fill: #ff8c00; fill-opacity: 0.8"/>
    </g>
    <g clip-path="url(#p8213f5aab8)">
     <use xlink:href="#C0_0_9b91db623c" x="59.418794" y="52.170066" style="fill: #ff8c00; fill-opacity: 0.8"/>
    </g>
    <g clip-path="url(#p8213f5aab8)">
     <use xlink:href="#C0_0_9b91db623c" x="59.418794" y="39.70848" style="fill: #ff8c00; fill-opacity: 0.8"/>
    </g>
    <g clip-path="url(#p8213f5aab8)">
     <use xlink:href="#C0_0_9b91db623c" x="41.426356" y="24.540201" style="fill: #ff8c00; fill-opacity: 0.8"/>
    </g>
    <g clip-path="url(#p8213f5aab8)">
     <use xlink:href="#C0_0_9b91db623c" x="41.426356" y="59.049055" style="fill: #ff8c00; fill-opacity: 0.8"/>
    </g>
    <g clip-path="url(#p8213f5aab8)">
     <use xlink:href="#C0_0_9b91db623c" x="70.664068" y="62.314075" style="fill: #ff8c00; fill-opacity: 0.8"/>
    </g>
    <g clip-path="url(#p8213f5aab8)">
     <use xlink:href="#C0_0_9b91db623c" x="63.916904" y="31.669609" style="fill: #ff8c00; fill-opacity: 0.8"/>
    </g>
    <g clip-path="url(#p8213f5aab8)">
     <use xlink:href="#C0_0_9b91db623c" x="63.916904" y="74.102554" style="fill: #ff8c00; fill-opacity: 0.8"/>
    </g>
    <g clip-path="url(#p8213f5aab8)">
     <use xlink:href="#C0_0_9b91db623c" x="52.67163" y="57.581467" style="fill: #ff8c00; fill-opacity: 0.8"/>
    </g>
    <g clip-path="url(#p8213f5aab8)">
     <use xlink:href="#C0_0_9b91db623c" x="66.165958" y="46.707091" style="fill: #ff8c00; fill-opacity: 0.8"/>
    </g>
    <g clip-path="url(#p8213f5aab8)">
     <use xlink:href="#C0_0_9b91db623c" x="75.162177" y="61.621293" style="fill: #ff8c00; fill-opacity: 0.8"/>
    </g>
    <g clip-path="url(#p8213f5aab8)">
     <use xlink:href="#C0_0_9b91db623c" x="104.399889" y="36.888736" style="fill: #ff8c00; fill-opacity: 0.8"/>
    </g>
    <g clip-path="url(#p8213f5aab8)">
     <use xlink:href="#C0_0_9b91db623c" x="72.913123" y="45.843992" style="fill: #ff8c00; fill-opacity: 0.8"/>
    </g>
    <g clip-path="url(#p8213f5aab8)">
     <use xlink:href="#C0_0_9b91db623c" x="144.882875" y="10.115707" style="fill: #ff8c00; fill-opacity: 0.8"/>
    </g>
    <g clip-path="url(#p8213f5aab8)">
     <use xlink:href="#C0_0_9b91db623c" x="79.660287" y="26.909298" style="fill: #ff8c00; fill-opacity: 0.8"/>
    </g>
    <g clip-path="url(#p8213f5aab8)">
     <use xlink:href="#C0_0_9b91db623c" x="75.162177" y="51.85319" style="fill: #ff8c00; fill-opacity: 0.8"/>
    </g>
    <g clip-path="url(#p8213f5aab8)">
     <use xlink:href="#C0_0_9b91db623c" x="99.90178" y="22.786474" style="fill: #ff8c00; fill-opacity: 0.8"/>
    </g>
    <g clip-path="url(#p8213f5aab8)">
     <use xlink:href="#C0_0_9b91db623c" x="75.162177" y="66.738561" style="fill: #ff8c00; fill-opacity: 0.8"/>
    </g>
    <g clip-path="url(#p8213f5aab8)">
     <use xlink:href="#C0_0_9b91db623c" x="75.162177" y="73.070362" style="fill: #ff8c00; fill-opacity: 0.8"/>
    </g>
    <g clip-path="url(#p8213f5aab8)">
     <use xlink:href="#C0_0_9b91db623c" x="57.169739" y="47.659753" style="fill: #ff8c00; fill-opacity: 0.8"/>
    </g>
    <g clip-path="url(#p8213f5aab8)">
     <use xlink:href="#C0_0_9b91db623c" x="63.916904" y="52.937456" style="fill: #ff8c00; fill-opacity: 0.8"/>
    </g>
    <g clip-path="url(#p8213f5aab8)">
     <use xlink:href="#C0_0_9b91db623c" x="66.165958" y="35.553909" style="fill: #ff8c00; fill-opacity: 0.8"/>
    </g>
    <g clip-path="url(#p8213f5aab8)">
     <use xlink:href="#C0_0_9b91db623c" x="66.165958" y="49.079724" style="fill: #ff8c00; fill-opacity: 0.8"/>
    </g>
    <g clip-path="url(#p8213f5aab8)">
     <use xlink:href="#C0_0_9b91db623c" x="81.909342" y="42.990981" style="fill: #ff8c00; fill-opacity: 0.8"/>
    </g>
    <g clip-path="url(#p8213f5aab8)">
     <use xlink:href="#C0_0_9b91db623c" x="81.909342" y="54.000177" style="fill: #ff8c00; fill-opacity: 0.8"/>
    </g>
    <g clip-path="url(#p8213f5aab8)">
     <use xlink:href="#C0_0_9b91db623c" x="95.40367" y="16.197339" style="fill: #ff8c00; fill-opacity: 0.8"/>
    </g>
    <g clip-path="url(#p8213f5aab8)">
     <use xlink:href="#C0_0_9b91db623c" x="54.920685" y="18.2321" style="fill: #ff8c00; fill-opacity: 0.8"/>
    </g>
    <g clip-path="url(#p8213f5aab8)">
     <use xlink:href="#C0_0_9b91db623c" x="54.920685" y="29.767997" style="fill: #ff8c00; fill-opacity: 0.8"/>
    </g>
    <g clip-path="url(#p8213f5aab8)">
     <use xlink:href="#C0_0_9b91db623c" x="79.660287" y="23.824269" style="fill: #ff8c00; fill-opacity: 0.8"/>
    </g>
    <g clip-path="url(#p8213f5aab8)">
     <use xlink:href="#C0_0_9b91db623c" x="57.169739" y="77.960056" style="fill: #ff8c00; fill-opacity: 0.8"/>
    </g>
    <g clip-path="url(#p8213f5aab8)">
     <use xlink:href="#C0_0_9b91db623c" x="84.158396" y="18.241607" style="fill: #ff8c00; fill-opacity: 0.8"/>
    </g>
    <g clip-path="url(#p8213f5aab8)">
     <use xlink:href="#C0_0_9b91db623c" x="72.913123" y="38.236618" style="fill: #ff8c00; fill-opacity: 0.8"/>
    </g>
    <g clip-path="url(#p8213f5aab8)">
     <use xlink:href="#C0_0_9b91db623c" x="54.920685" y="10.173934" style="fill: #ff8c00; fill-opacity: 0.8"/>
    </g>
    <g clip-path="url(#p8213f5aab8)">
     <use xlink:href="#C0_0_9b91db623c" x="135.886656" y="27.054345" style="fill: #ff8c00; fill-opacity: 0.8"/>
    </g>
    <g clip-path="url(#p8213f5aab8)">
     <use xlink:href="#C0_0_9b91db623c" x="72.913123" y="21.297466" style="fill: #ff8c00; fill-opacity: 0.8"/>
    </g>
    <g clip-path="url(#p8213f5aab8)">
     <use xlink:href="#C0_0_9b91db623c" x="72.913123" y="43.700203" style="fill: #ff8c00; fill-opacity: 0.8"/>
    </g>
    <g clip-path="url(#p8213f5aab8)">
     <use xlink:href="#C0_0_9b91db623c" x="75.162177" y="66.112688" style="fill: #ff8c00; fill-opacity: 0.8"/>
    </g>
   </g>
   <g id="PolyCollection_1">
    <path d="M 32.430137 37.163588 
L 32.430137 56.161115 
L 33.566023 55.830293 
L 34.701909 55.481325 
L 35.837796 55.137474 
L 36.973682 54.783115 
L 38.109568 54.454174 
L 39.245454 54.131427 
L 40.381341 53.766071 
L 41.517227 53.406139 
L 42.653113 53.04617 
L 43.788999 52.732123 
L 44.924886 52.405115 
L 46.060772 52.070243 
L 47.196658 51.740891 
L 48.332544 51.451832 
L 49.468431 51.145573 
L 50.604317 50.799219 
L 51.740203 50.511314 
L 52.876089 50.180776 
L 54.011976 49.903693 
L 55.147862 49.577871 
L 56.283748 49.29394 
L 57.419634 48.981575 
L 58.55552 48.707969 
L 59.691407 48.435555 
L 60.827293 48.156137 
L 61.963179 47.873965 
L 63.099065 47.617197 
L 64.234952 47.366834 
L 65.370838 47.148903 
L 66.506724 46.931808 
L 67.64261 46.737081 
L 68.778497 46.533172 
L 69.914383 46.355745 
L 71.050269 46.227915 
L 72.186155 46.065997 
L 73.322042 45.95836 
L 74.457928 45.83211 
L 75.593814 45.727742 
L 76.7297 45.697833 
L 77.865587 45.664039 
L 79.001473 45.639385 
L 80.137359 45.644208 
L 81.273245 45.678836 
L 82.409132 45.688383 
L 83.545018 45.719168 
L 84.680904 45.754483 
L 85.81679 45.797171 
L 86.952677 45.869235 
L 88.088563 45.909322 
L 89.224449 45.977277 
L 90.360335 46.071828 
L 91.496222 46.165352 
L 92.632108 46.236131 
L 93.767994 46.348967 
L 94.90388 46.41191 
L 96.039766 46.47849 
L 97.175653 46.577462 
L 98.311539 46.672616 
L 99.447425 46.779897 
L 100.583311 46.862381 
L 101.719198 46.938423 
L 102.855084 47.033024 
L 103.99097 47.165167 
L 105.126856 47.253146 
L 106.262743 47.35579 
L 107.398629 47.450311 
L 108.534515 47.585741 
L 109.670401 47.691319 
L 110.806288 47.797105 
L 111.942174 47.916005 
L 113.07806 48.060677 
L 114.213946 48.192383 
L 115.349833 48.310272 
L 116.485719 48.44849 
L 117.621605 48.57289 
L 118.757491 48.699416 
L 119.893378 48.809915 
L 121.029264 48.980908 
L 122.16515 49.082994 
L 123.301036 49.188284 
L 124.436923 49.307094 
L 125.572809 49.426354 
L 126.708695 49.52794 
L 127.844581 49.625625 
L 128.980468 49.74952 
L 130.116354 49.863027 
L 131.25224 49.996791 
L 132.388126 50.120426 
L 133.524012 50.250017 
L 134.659899 50.363191 
L 135.795785 50.49211 
L 136.931671 50.630082 
L 138.067557 50.778314 
L 139.203444 50.918751 
L 140.33933 51.035084 
L 141.475216 51.143899 
L 142.611102 51.27513 
L 143.746989 51.42965 
L 144.882875 51.589091 
L 144.882875 18.982218 
L 144.882875 18.982218 
L 143.746989 19.355014 
L 142.611102 19.734594 
L 141.475216 20.078165 
L 140.33933 20.411853 
L 139.203444 20.753813 
L 138.067557 21.121816 
L 136.931671 21.468759 
L 135.795785 21.79277 
L 134.659899 22.149841 
L 133.524012 22.491859 
L 132.388126 22.831189 
L 131.25224 23.171723 
L 130.116354 23.508193 
L 128.980468 23.844604 
L 127.844581 24.180872 
L 126.708695 24.534232 
L 125.572809 24.88871 
L 124.436923 25.232583 
L 123.301036 25.563508 
L 122.16515 25.909997 
L 121.029264 26.247935 
L 119.893378 26.602804 
L 118.757491 26.935412 
L 117.621605 27.262864 
L 116.485719 27.629083 
L 115.349833 27.964707 
L 114.213946 28.276175 
L 113.07806 28.621296 
L 111.942174 28.91726 
L 110.806288 29.27527 
L 109.670401 29.612865 
L 108.534515 29.920809 
L 107.398629 30.254496 
L 106.262743 30.600894 
L 105.126856 30.899903 
L 103.99097 31.236854 
L 102.855084 31.575086 
L 101.719198 31.887843 
L 100.583311 32.200314 
L 99.447425 32.486827 
L 98.311539 32.812525 
L 97.175653 33.102155 
L 96.039766 33.410163 
L 94.90388 33.703307 
L 93.767994 33.975229 
L 92.632108 34.248711 
L 91.496222 34.516389 
L 90.360335 34.800557 
L 89.224449 35.054137 
L 88.088563 35.301915 
L 86.952677 35.533329 
L 85.81679 35.760116 
L 84.680904 35.966039 
L 83.545018 36.19847 
L 82.409132 36.395728 
L 81.273245 36.594195 
L 80.137359 36.798693 
L 79.001473 36.973623 
L 77.865587 37.172544 
L 76.7297 37.374596 
L 75.593814 37.532471 
L 74.457928 37.653463 
L 73.322042 37.786419 
L 72.186155 37.902289 
L 71.050269 38.042249 
L 69.914383 38.15491 
L 68.778497 38.248102 
L 67.64261 38.335093 
L 66.506724 38.406308 
L 65.370838 38.504355 
L 64.234952 38.542626 
L 63.099065 38.592387 
L 61.963179 38.686464 
L 60.827293 38.713632 
L 59.691407 38.72599 
L 58.55552 38.724044 
L 57.419634 38.730225 
L 56.283748 38.685559 
L 55.147862 38.679105 
L 54.011976 38.643124 
L 52.876089 38.611755 
L 51.740203 38.568509 
L 50.604317 38.529052 
L 49.468431 38.486089 
L 48.332544 38.434911 
L 47.196658 38.360145 
L 46.060772 38.316929 
L 44.924886 38.227467 
L 43.788999 38.136282 
L 42.653113 38.040082 
L 41.517227 37.979371 
L 40.381341 37.898227 
L 39.245454 37.800318 
L 38.109568 37.701781 
L 36.973682 37.587975 
L 35.837796 37.502246 
L 34.701909 37.389669 
L 33.566023 37.290383 
L 32.430137 37.163588 
z
" clip-path="url(#p8213f5aab8)" style="fill: #ff8c00; fill-opacity: 0.15"/>
   </g>
   <g id="matplotlib.axis_1">
    <g id="xtick_1">
     <g id="line2d_1">
      <defs>
       <path id="m34c0549c8e" d="M 0 0 
L 0 3.5 
" style="stroke: #000000; stroke-width: 0.25"/>
      </defs>
      <g>
       <use xlink:href="#m34c0549c8e" x="32.430137" y="89.218327" style="stroke: #000000; stroke-width: 0.25"/>
      </g>
     </g>
     <g id="text_1">
      <!-- 15 -->
      <g transform="translate(29.649668 97.297233) scale(0.05 -0.05)">
       <defs>
        <path id="ArialMT-31" d="M 2384 0 
L 1822 0 
L 1822 3584 
Q 1619 3391 1289 3197 
Q 959 3003 697 2906 
L 697 3450 
Q 1169 3672 1522 3987 
Q 1875 4303 2022 4600 
L 2384 4600 
L 2384 0 
z
" transform="scale(0.015625)"/>
        <path id="ArialMT-35" d="M 266 1200 
L 856 1250 
Q 922 819 1161 601 
Q 1400 384 1738 384 
Q 2144 384 2425 690 
Q 2706 997 2706 1503 
Q 2706 1984 2436 2262 
Q 2166 2541 1728 2541 
Q 1456 2541 1237 2417 
Q 1019 2294 894 2097 
L 366 2166 
L 809 4519 
L 3088 4519 
L 3088 3981 
L 1259 3981 
L 1013 2750 
Q 1425 3038 1878 3038 
Q 2478 3038 2890 2622 
Q 3303 2206 3303 1553 
Q 3303 931 2941 478 
Q 2500 -78 1738 -78 
Q 1113 -78 717 272 
Q 322 622 266 1200 
z
" transform="scale(0.015625)"/>
       </defs>
       <use xlink:href="#ArialMT-31"/>
       <use xlink:href="#ArialMT-35" x="55.615234"/>
      </g>
     </g>
    </g>
    <g id="xtick_2">
     <g id="line2d_2">
      <g>
       <use xlink:href="#m34c0549c8e" x="54.920685" y="89.218327" style="stroke: #000000; stroke-width: 0.25"/>
      </g>
     </g>
     <g id="text_2">
      <!-- 20 -->
      <g transform="translate(52.140216 97.297233) scale(0.05 -0.05)">
       <defs>
        <path id="ArialMT-32" d="M 3222 541 
L 3222 0 
L 194 0 
Q 188 203 259 391 
Q 375 700 629 1000 
Q 884 1300 1366 1694 
Q 2113 2306 2375 2664 
Q 2638 3022 2638 3341 
Q 2638 3675 2398 3904 
Q 2159 4134 1775 4134 
Q 1369 4134 1125 3890 
Q 881 3647 878 3216 
L 300 3275 
Q 359 3922 746 4261 
Q 1134 4600 1788 4600 
Q 2447 4600 2831 4234 
Q 3216 3869 3216 3328 
Q 3216 3053 3103 2787 
Q 2991 2522 2730 2228 
Q 2469 1934 1863 1422 
Q 1356 997 1212 845 
Q 1069 694 975 541 
L 3222 541 
z
" transform="scale(0.015625)"/>
        <path id="ArialMT-30" d="M 266 2259 
Q 266 3072 433 3567 
Q 600 4063 929 4331 
Q 1259 4600 1759 4600 
Q 2128 4600 2406 4451 
Q 2684 4303 2865 4023 
Q 3047 3744 3150 3342 
Q 3253 2941 3253 2259 
Q 3253 1453 3087 958 
Q 2922 463 2592 192 
Q 2263 -78 1759 -78 
Q 1097 -78 719 397 
Q 266 969 266 2259 
z
M 844 2259 
Q 844 1131 1108 757 
Q 1372 384 1759 384 
Q 2147 384 2411 759 
Q 2675 1134 2675 2259 
Q 2675 3391 2411 3762 
Q 2147 4134 1753 4134 
Q 1366 4134 1134 3806 
Q 844 3388 844 2259 
z
" transform="scale(0.015625)"/>
       </defs>
       <use xlink:href="#ArialMT-32"/>
       <use xlink:href="#ArialMT-30" x="55.615234"/>
      </g>
     </g>
    </g>
    <g id="xtick_3">
     <g id="line2d_3">
      <g>
       <use xlink:href="#m34c0549c8e" x="77.411232" y="89.218327" style="stroke: #000000; stroke-width: 0.25"/>
      </g>
     </g>
     <g id="text_3">
      <!-- 25 -->
      <g transform="translate(74.630763 97.297233) scale(0.05 -0.05)">
       <use xlink:href="#ArialMT-32"/>
       <use xlink:href="#ArialMT-35" x="55.615234"/>
      </g>
     </g>
    </g>
    <g id="xtick_4">
     <g id="line2d_4">
      <g>
       <use xlink:href="#m34c0549c8e" x="99.90178" y="89.218327" style="stroke: #000000; stroke-width: 0.25"/>
      </g>
     </g>
     <g id="text_4">
      <!-- 30 -->
      <g transform="translate(97.121311 97.297233) scale(0.05 -0.05)">
       <defs>
        <path id="ArialMT-33" d="M 269 1209 
L 831 1284 
Q 928 806 1161 595 
Q 1394 384 1728 384 
Q 2125 384 2398 659 
Q 2672 934 2672 1341 
Q 2672 1728 2419 1979 
Q 2166 2231 1775 2231 
Q 1616 2231 1378 2169 
L 1441 2663 
Q 1497 2656 1531 2656 
Q 1891 2656 2178 2843 
Q 2466 3031 2466 3422 
Q 2466 3731 2256 3934 
Q 2047 4138 1716 4138 
Q 1388 4138 1169 3931 
Q 950 3725 888 3313 
L 325 3413 
Q 428 3978 793 4289 
Q 1159 4600 1703 4600 
Q 2078 4600 2393 4439 
Q 2709 4278 2876 4000 
Q 3044 3722 3044 3409 
Q 3044 3113 2884 2869 
Q 2725 2625 2413 2481 
Q 2819 2388 3044 2092 
Q 3269 1797 3269 1353 
Q 3269 753 2831 336 
Q 2394 -81 1725 -81 
Q 1122 -81 723 278 
Q 325 638 269 1209 
z
" transform="scale(0.015625)"/>
       </defs>
       <use xlink:href="#ArialMT-33"/>
       <use xlink:href="#ArialMT-30" x="55.615234"/>
      </g>
     </g>
    </g>
    <g id="xtick_5">
     <g id="line2d_5">
      <g>
       <use xlink:href="#m34c0549c8e" x="122.392327" y="89.218327" style="stroke: #000000; stroke-width: 0.25"/>
      </g>
     </g>
     <g id="text_5">
      <!-- 35 -->
      <g transform="translate(119.611859 97.297233) scale(0.05 -0.05)">
       <use xlink:href="#ArialMT-33"/>
       <use xlink:href="#ArialMT-35" x="55.615234"/>
      </g>
     </g>
    </g>
    <g id="xtick_6">
     <g id="line2d_6">
      <g>
       <use xlink:href="#m34c0549c8e" x="144.882875" y="89.218327" style="stroke: #000000; stroke-width: 0.25"/>
      </g>
     </g>
     <g id="text_6">
      <!-- 40 -->
      <g transform="translate(142.102406 97.297233) scale(0.05 -0.05)">
       <defs>
        <path id="ArialMT-34" d="M 2069 0 
L 2069 1097 
L 81 1097 
L 81 1613 
L 2172 4581 
L 2631 4581 
L 2631 1613 
L 3250 1613 
L 3250 1097 
L 2631 1097 
L 2631 0 
L 2069 0 
z
M 2069 1613 
L 2069 3678 
L 634 1613 
L 2069 1613 
z
" transform="scale(0.015625)"/>
       </defs>
       <use xlink:href="#ArialMT-34"/>
       <use xlink:href="#ArialMT-30" x="55.615234"/>
      </g>
     </g>
    </g>
    <g id="text_7">
     <!-- Age of last continuous full-time education [years] -->
     <g transform="translate(24.125568 106.658796) scale(0.06 -0.06)">
      <defs>
       <path id="ArialMT-41" d="M -9 0 
L 1750 4581 
L 2403 4581 
L 4278 0 
L 3588 0 
L 3053 1388 
L 1138 1388 
L 634 0 
L -9 0 
z
M 1313 1881 
L 2866 1881 
L 2388 3150 
Q 2169 3728 2063 4100 
Q 1975 3659 1816 3225 
L 1313 1881 
z
" transform="scale(0.015625)"/>
       <path id="ArialMT-67" d="M 319 -275 
L 866 -356 
Q 900 -609 1056 -725 
Q 1266 -881 1628 -881 
Q 2019 -881 2231 -725 
Q 2444 -569 2519 -288 
Q 2563 -116 2559 434 
Q 2191 0 1641 0 
Q 956 0 581 494 
Q 206 988 206 1678 
Q 206 2153 378 2554 
Q 550 2956 876 3175 
Q 1203 3394 1644 3394 
Q 2231 3394 2613 2919 
L 2613 3319 
L 3131 3319 
L 3131 450 
Q 3131 -325 2973 -648 
Q 2816 -972 2473 -1159 
Q 2131 -1347 1631 -1347 
Q 1038 -1347 672 -1080 
Q 306 -813 319 -275 
z
M 784 1719 
Q 784 1066 1043 766 
Q 1303 466 1694 466 
Q 2081 466 2343 764 
Q 2606 1063 2606 1700 
Q 2606 2309 2336 2618 
Q 2066 2928 1684 2928 
Q 1309 2928 1046 2623 
Q 784 2319 784 1719 
z
" transform="scale(0.015625)"/>
       <path id="ArialMT-65" d="M 2694 1069 
L 3275 997 
Q 3138 488 2766 206 
Q 2394 -75 1816 -75 
Q 1088 -75 661 373 
Q 234 822 234 1631 
Q 234 2469 665 2931 
Q 1097 3394 1784 3394 
Q 2450 3394 2872 2941 
Q 3294 2488 3294 1666 
Q 3294 1616 3291 1516 
L 816 1516 
Q 847 969 1125 678 
Q 1403 388 1819 388 
Q 2128 388 2347 550 
Q 2566 713 2694 1069 
z
M 847 1978 
L 2700 1978 
Q 2663 2397 2488 2606 
Q 2219 2931 1791 2931 
Q 1403 2931 1139 2672 
Q 875 2413 847 1978 
z
" transform="scale(0.015625)"/>
       <path id="ArialMT-20" transform="scale(0.015625)"/>
       <path id="ArialMT-6f" d="M 213 1659 
Q 213 2581 725 3025 
Q 1153 3394 1769 3394 
Q 2453 3394 2887 2945 
Q 3322 2497 3322 1706 
Q 3322 1066 3130 698 
Q 2938 331 2570 128 
Q 2203 -75 1769 -75 
Q 1072 -75 642 372 
Q 213 819 213 1659 
z
M 791 1659 
Q 791 1022 1069 705 
Q 1347 388 1769 388 
Q 2188 388 2466 706 
Q 2744 1025 2744 1678 
Q 2744 2294 2464 2611 
Q 2184 2928 1769 2928 
Q 1347 2928 1069 2612 
Q 791 2297 791 1659 
z
" transform="scale(0.015625)"/>
       <path id="ArialMT-66" d="M 556 0 
L 556 2881 
L 59 2881 
L 59 3319 
L 556 3319 
L 556 3672 
Q 556 4006 616 4169 
Q 697 4388 901 4523 
Q 1106 4659 1475 4659 
Q 1713 4659 2000 4603 
L 1916 4113 
Q 1741 4144 1584 4144 
Q 1328 4144 1222 4034 
Q 1116 3925 1116 3625 
L 1116 3319 
L 1763 3319 
L 1763 2881 
L 1116 2881 
L 1116 0 
L 556 0 
z
" transform="scale(0.015625)"/>
       <path id="ArialMT-6c" d="M 409 0 
L 409 4581 
L 972 4581 
L 972 0 
L 409 0 
z
" transform="scale(0.015625)"/>
       <path id="ArialMT-61" d="M 2588 409 
Q 2275 144 1986 34 
Q 1697 -75 1366 -75 
Q 819 -75 525 192 
Q 231 459 231 875 
Q 231 1119 342 1320 
Q 453 1522 633 1644 
Q 813 1766 1038 1828 
Q 1203 1872 1538 1913 
Q 2219 1994 2541 2106 
Q 2544 2222 2544 2253 
Q 2544 2597 2384 2738 
Q 2169 2928 1744 2928 
Q 1347 2928 1158 2789 
Q 969 2650 878 2297 
L 328 2372 
Q 403 2725 575 2942 
Q 747 3159 1072 3276 
Q 1397 3394 1825 3394 
Q 2250 3394 2515 3294 
Q 2781 3194 2906 3042 
Q 3031 2891 3081 2659 
Q 3109 2516 3109 2141 
L 3109 1391 
Q 3109 606 3145 398 
Q 3181 191 3288 0 
L 2700 0 
Q 2613 175 2588 409 
z
M 2541 1666 
Q 2234 1541 1622 1453 
Q 1275 1403 1131 1340 
Q 988 1278 909 1158 
Q 831 1038 831 891 
Q 831 666 1001 516 
Q 1172 366 1500 366 
Q 1825 366 2078 508 
Q 2331 650 2450 897 
Q 2541 1088 2541 1459 
L 2541 1666 
z
" transform="scale(0.015625)"/>
       <path id="ArialMT-73" d="M 197 991 
L 753 1078 
Q 800 744 1014 566 
Q 1228 388 1613 388 
Q 2000 388 2187 545 
Q 2375 703 2375 916 
Q 2375 1106 2209 1216 
Q 2094 1291 1634 1406 
Q 1016 1563 777 1677 
Q 538 1791 414 1992 
Q 291 2194 291 2438 
Q 291 2659 392 2848 
Q 494 3038 669 3163 
Q 800 3259 1026 3326 
Q 1253 3394 1513 3394 
Q 1903 3394 2198 3281 
Q 2494 3169 2634 2976 
Q 2775 2784 2828 2463 
L 2278 2388 
Q 2241 2644 2061 2787 
Q 1881 2931 1553 2931 
Q 1166 2931 1000 2803 
Q 834 2675 834 2503 
Q 834 2394 903 2306 
Q 972 2216 1119 2156 
Q 1203 2125 1616 2013 
Q 2213 1853 2448 1751 
Q 2684 1650 2818 1456 
Q 2953 1263 2953 975 
Q 2953 694 2789 445 
Q 2625 197 2315 61 
Q 2006 -75 1616 -75 
Q 969 -75 630 194 
Q 291 463 197 991 
z
" transform="scale(0.015625)"/>
       <path id="ArialMT-74" d="M 1650 503 
L 1731 6 
Q 1494 -44 1306 -44 
Q 1000 -44 831 53 
Q 663 150 594 308 
Q 525 466 525 972 
L 525 2881 
L 113 2881 
L 113 3319 
L 525 3319 
L 525 4141 
L 1084 4478 
L 1084 3319 
L 1650 3319 
L 1650 2881 
L 1084 2881 
L 1084 941 
Q 1084 700 1114 631 
Q 1144 563 1211 522 
Q 1278 481 1403 481 
Q 1497 481 1650 503 
z
" transform="scale(0.015625)"/>
       <path id="ArialMT-63" d="M 2588 1216 
L 3141 1144 
Q 3050 572 2676 248 
Q 2303 -75 1759 -75 
Q 1078 -75 664 370 
Q 250 816 250 1647 
Q 250 2184 428 2587 
Q 606 2991 970 3192 
Q 1334 3394 1763 3394 
Q 2303 3394 2647 3120 
Q 2991 2847 3088 2344 
L 2541 2259 
Q 2463 2594 2264 2762 
Q 2066 2931 1784 2931 
Q 1359 2931 1093 2626 
Q 828 2322 828 1663 
Q 828 994 1084 691 
Q 1341 388 1753 388 
Q 2084 388 2306 591 
Q 2528 794 2588 1216 
z
" transform="scale(0.015625)"/>
       <path id="ArialMT-6e" d="M 422 0 
L 422 3319 
L 928 3319 
L 928 2847 
Q 1294 3394 1984 3394 
Q 2284 3394 2536 3286 
Q 2788 3178 2913 3003 
Q 3038 2828 3088 2588 
Q 3119 2431 3119 2041 
L 3119 0 
L 2556 0 
L 2556 2019 
Q 2556 2363 2490 2533 
Q 2425 2703 2258 2804 
Q 2091 2906 1866 2906 
Q 1506 2906 1245 2678 
Q 984 2450 984 1813 
L 984 0 
L 422 0 
z
" transform="scale(0.015625)"/>
       <path id="ArialMT-69" d="M 425 3934 
L 425 4581 
L 988 4581 
L 988 3934 
L 425 3934 
z
M 425 0 
L 425 3319 
L 988 3319 
L 988 0 
L 425 0 
z
" transform="scale(0.015625)"/>
       <path id="ArialMT-75" d="M 2597 0 
L 2597 488 
Q 2209 -75 1544 -75 
Q 1250 -75 995 37 
Q 741 150 617 320 
Q 494 491 444 738 
Q 409 903 409 1263 
L 409 3319 
L 972 3319 
L 972 1478 
Q 972 1038 1006 884 
Q 1059 663 1231 536 
Q 1403 409 1656 409 
Q 1909 409 2131 539 
Q 2353 669 2445 892 
Q 2538 1116 2538 1541 
L 2538 3319 
L 3100 3319 
L 3100 0 
L 2597 0 
z
" transform="scale(0.015625)"/>
       <path id="ArialMT-2d" d="M 203 1375 
L 203 1941 
L 1931 1941 
L 1931 1375 
L 203 1375 
z
" transform="scale(0.015625)"/>
       <path id="ArialMT-6d" d="M 422 0 
L 422 3319 
L 925 3319 
L 925 2853 
Q 1081 3097 1340 3245 
Q 1600 3394 1931 3394 
Q 2300 3394 2536 3241 
Q 2772 3088 2869 2813 
Q 3263 3394 3894 3394 
Q 4388 3394 4653 3120 
Q 4919 2847 4919 2278 
L 4919 0 
L 4359 0 
L 4359 2091 
Q 4359 2428 4304 2576 
Q 4250 2725 4106 2815 
Q 3963 2906 3769 2906 
Q 3419 2906 3187 2673 
Q 2956 2441 2956 1928 
L 2956 0 
L 2394 0 
L 2394 2156 
Q 2394 2531 2256 2718 
Q 2119 2906 1806 2906 
Q 1569 2906 1367 2781 
Q 1166 2656 1075 2415 
Q 984 2175 984 1722 
L 984 0 
L 422 0 
z
" transform="scale(0.015625)"/>
       <path id="ArialMT-64" d="M 2575 0 
L 2575 419 
Q 2259 -75 1647 -75 
Q 1250 -75 917 144 
Q 584 363 401 755 
Q 219 1147 219 1656 
Q 219 2153 384 2558 
Q 550 2963 881 3178 
Q 1213 3394 1622 3394 
Q 1922 3394 2156 3267 
Q 2391 3141 2538 2938 
L 2538 4581 
L 3097 4581 
L 3097 0 
L 2575 0 
z
M 797 1656 
Q 797 1019 1065 703 
Q 1334 388 1700 388 
Q 2069 388 2326 689 
Q 2584 991 2584 1609 
Q 2584 2291 2321 2609 
Q 2059 2928 1675 2928 
Q 1300 2928 1048 2622 
Q 797 2316 797 1656 
z
" transform="scale(0.015625)"/>
       <path id="ArialMT-5b" d="M 434 -1272 
L 434 4581 
L 1675 4581 
L 1675 4116 
L 997 4116 
L 997 -806 
L 1675 -806 
L 1675 -1272 
L 434 -1272 
z
" transform="scale(0.015625)"/>
       <path id="ArialMT-79" d="M 397 -1278 
L 334 -750 
Q 519 -800 656 -800 
Q 844 -800 956 -737 
Q 1069 -675 1141 -563 
Q 1194 -478 1313 -144 
Q 1328 -97 1363 -6 
L 103 3319 
L 709 3319 
L 1400 1397 
Q 1534 1031 1641 628 
Q 1738 1016 1872 1384 
L 2581 3319 
L 3144 3319 
L 1881 -56 
Q 1678 -603 1566 -809 
Q 1416 -1088 1222 -1217 
Q 1028 -1347 759 -1347 
Q 597 -1347 397 -1278 
z
" transform="scale(0.015625)"/>
       <path id="ArialMT-72" d="M 416 0 
L 416 3319 
L 922 3319 
L 922 2816 
Q 1116 3169 1280 3281 
Q 1444 3394 1641 3394 
Q 1925 3394 2219 3213 
L 2025 2691 
Q 1819 2813 1613 2813 
Q 1428 2813 1281 2702 
Q 1134 2591 1072 2394 
Q 978 2094 978 1738 
L 978 0 
L 416 0 
z
" transform="scale(0.015625)"/>
       <path id="ArialMT-5d" d="M 1363 -1272 
L 122 -1272 
L 122 -806 
L 800 -806 
L 800 4116 
L 122 4116 
L 122 4581 
L 1363 4581 
L 1363 -1272 
z
" transform="scale(0.015625)"/>
      </defs>
      <use xlink:href="#ArialMT-41"/>
      <use xlink:href="#ArialMT-67" x="66.699219"/>
      <use xlink:href="#ArialMT-65" x="122.314453"/>
      <use xlink:href="#ArialMT-20" x="177.929688"/>
      <use xlink:href="#ArialMT-6f" x="205.712891"/>
      <use xlink:href="#ArialMT-66" x="261.328125"/>
      <use xlink:href="#ArialMT-20" x="289.111328"/>
      <use xlink:href="#ArialMT-6c" x="316.894531"/>
      <use xlink:href="#ArialMT-61" x="339.111328"/>
      <use xlink:href="#ArialMT-73" x="394.726562"/>
      <use xlink:href="#ArialMT-74" x="444.726562"/>
      <use xlink:href="#ArialMT-20" x="472.509766"/>
      <use xlink:href="#ArialMT-63" x="500.292969"/>
      <use xlink:href="#ArialMT-6f" x="550.292969"/>
      <use xlink:href="#ArialMT-6e" x="605.908203"/>
      <use xlink:href="#ArialMT-74" x="661.523438"/>
      <use xlink:href="#ArialMT-69" x="689.306641"/>
      <use xlink:href="#ArialMT-6e" x="711.523438"/>
      <use xlink:href="#ArialMT-75" x="767.138672"/>
      <use xlink:href="#ArialMT-6f" x="822.753906"/>
      <use xlink:href="#ArialMT-75" x="878.369141"/>
      <use xlink:href="#ArialMT-73" x="933.984375"/>
      <use xlink:href="#ArialMT-20" x="983.984375"/>
      <use xlink:href="#ArialMT-66" x="1011.767578"/>
      <use xlink:href="#ArialMT-75" x="1039.550781"/>
      <use xlink:href="#ArialMT-6c" x="1095.166016"/>
      <use xlink:href="#ArialMT-6c" x="1117.382812"/>
      <use xlink:href="#ArialMT-2d" x="1139.599609"/>
      <use xlink:href="#ArialMT-74" x="1172.900391"/>
      <use xlink:href="#ArialMT-69" x="1200.683594"/>
      <use xlink:href="#ArialMT-6d" x="1222.900391"/>
      <use xlink:href="#ArialMT-65" x="1306.201172"/>
      <use xlink:href="#ArialMT-20" x="1361.816406"/>
      <use xlink:href="#ArialMT-65" x="1389.599609"/>
      <use xlink:href="#ArialMT-64" x="1445.214844"/>
      <use xlink:href="#ArialMT-75" x="1500.830078"/>
      <use xlink:href="#ArialMT-63" x="1556.445312"/>
      <use xlink:href="#ArialMT-61" x="1606.445312"/>
      <use xlink:href="#ArialMT-74" x="1662.060547"/>
      <use xlink:href="#ArialMT-69" x="1689.84375"/>
      <use xlink:href="#ArialMT-6f" x="1712.060547"/>
      <use xlink:href="#ArialMT-6e" x="1767.675781"/>
      <use xlink:href="#ArialMT-20" x="1823.291016"/>
      <use xlink:href="#ArialMT-5b" x="1851.074219"/>
      <use xlink:href="#ArialMT-79" x="1878.857422"/>
      <use xlink:href="#ArialMT-65" x="1928.857422"/>
      <use xlink:href="#ArialMT-61" x="1984.472656"/>
      <use xlink:href="#ArialMT-72" x="2040.087891"/>
      <use xlink:href="#ArialMT-73" x="2073.388672"/>
      <use xlink:href="#ArialMT-5d" x="2123.388672"/>
     </g>
    </g>
   </g>
   <g id="matplotlib.axis_2">
    <g id="ytick_1">
     <g id="line2d_7">
      <defs>
       <path id="mefff462089" d="M 0 0 
L -3.5 0 
" style="stroke: #000000; stroke-width: 0.25"/>
      </defs>
      <g>
       <use xlink:href="#mefff462089" x="26.8075" y="76.041792" style="stroke: #000000; stroke-width: 0.25"/>
      </g>
     </g>
     <g id="text_8">
      <!-- 0.2 -->
      <g transform="translate(15.3575 77.831245) scale(0.05 -0.05)">
       <defs>
        <path id="ArialMT-2e" d="M 581 0 
L 581 641 
L 1222 641 
L 1222 0 
L 581 0 
z
" transform="scale(0.015625)"/>
       </defs>
       <use xlink:href="#ArialMT-30"/>
       <use xlink:href="#ArialMT-2e" x="55.615234"/>
       <use xlink:href="#ArialMT-32" x="83.398438"/>
      </g>
     </g>
    </g>
    <g id="ytick_2">
     <g id="line2d_8">
      <g>
       <use xlink:href="#mefff462089" x="26.8075" y="59.333825" style="stroke: #000000; stroke-width: 0.25"/>
      </g>
     </g>
     <g id="text_9">
      <!-- 0.4 -->
      <g transform="translate(15.3575 61.123278) scale(0.05 -0.05)">
       <use xlink:href="#ArialMT-30"/>
       <use xlink:href="#ArialMT-2e" x="55.615234"/>
       <use xlink:href="#ArialMT-34" x="83.398438"/>
      </g>
     </g>
    </g>
    <g id="ytick_3">
     <g id="line2d_9">
      <g>
       <use xlink:href="#mefff462089" x="26.8075" y="42.625858" style="stroke: #000000; stroke-width: 0.25"/>
      </g>
     </g>
     <g id="text_10">
      <!-- 0.6 -->
      <g transform="translate(15.3575 44.415311) scale(0.05 -0.05)">
       <defs>
        <path id="ArialMT-36" d="M 3184 3459 
L 2625 3416 
Q 2550 3747 2413 3897 
Q 2184 4138 1850 4138 
Q 1581 4138 1378 3988 
Q 1113 3794 959 3422 
Q 806 3050 800 2363 
Q 1003 2672 1297 2822 
Q 1591 2972 1913 2972 
Q 2475 2972 2870 2558 
Q 3266 2144 3266 1488 
Q 3266 1056 3080 686 
Q 2894 316 2569 119 
Q 2244 -78 1831 -78 
Q 1128 -78 684 439 
Q 241 956 241 2144 
Q 241 3472 731 4075 
Q 1159 4600 1884 4600 
Q 2425 4600 2770 4297 
Q 3116 3994 3184 3459 
z
M 888 1484 
Q 888 1194 1011 928 
Q 1134 663 1356 523 
Q 1578 384 1822 384 
Q 2178 384 2434 671 
Q 2691 959 2691 1453 
Q 2691 1928 2437 2201 
Q 2184 2475 1800 2475 
Q 1419 2475 1153 2201 
Q 888 1928 888 1484 
z
" transform="scale(0.015625)"/>
       </defs>
       <use xlink:href="#ArialMT-30"/>
       <use xlink:href="#ArialMT-2e" x="55.615234"/>
       <use xlink:href="#ArialMT-36" x="83.398438"/>
      </g>
     </g>
    </g>
    <g id="ytick_4">
     <g id="line2d_10">
      <g>
       <use xlink:href="#mefff462089" x="26.8075" y="25.917891" style="stroke: #000000; stroke-width: 0.25"/>
      </g>
     </g>
     <g id="text_11">
      <!-- 0.8 -->
      <g transform="translate(15.3575 27.707344) scale(0.05 -0.05)">
       <defs>
        <path id="ArialMT-38" d="M 1131 2484 
Q 781 2613 612 2850 
Q 444 3088 444 3419 
Q 444 3919 803 4259 
Q 1163 4600 1759 4600 
Q 2359 4600 2725 4251 
Q 3091 3903 3091 3403 
Q 3091 3084 2923 2848 
Q 2756 2613 2416 2484 
Q 2838 2347 3058 2040 
Q 3278 1734 3278 1309 
Q 3278 722 2862 322 
Q 2447 -78 1769 -78 
Q 1091 -78 675 323 
Q 259 725 259 1325 
Q 259 1772 486 2073 
Q 713 2375 1131 2484 
z
M 1019 3438 
Q 1019 3113 1228 2906 
Q 1438 2700 1772 2700 
Q 2097 2700 2305 2904 
Q 2513 3109 2513 3406 
Q 2513 3716 2298 3927 
Q 2084 4138 1766 4138 
Q 1444 4138 1231 3931 
Q 1019 3725 1019 3438 
z
M 838 1322 
Q 838 1081 952 856 
Q 1066 631 1291 507 
Q 1516 384 1775 384 
Q 2178 384 2440 643 
Q 2703 903 2703 1303 
Q 2703 1709 2433 1975 
Q 2163 2241 1756 2241 
Q 1359 2241 1098 1978 
Q 838 1716 838 1322 
z
" transform="scale(0.015625)"/>
       </defs>
       <use xlink:href="#ArialMT-30"/>
       <use xlink:href="#ArialMT-2e" x="55.615234"/>
       <use xlink:href="#ArialMT-38" x="83.398438"/>
      </g>
     </g>
    </g>
    <g id="ytick_5">
     <g id="line2d_11">
      <g>
       <use xlink:href="#mefff462089" x="26.8075" y="9.209924" style="stroke: #000000; stroke-width: 0.25"/>
      </g>
     </g>
     <g id="text_12">
      <!-- 1.0 -->
      <g transform="translate(15.3575 10.999377) scale(0.05 -0.05)">
       <use xlink:href="#ArialMT-31"/>
       <use xlink:href="#ArialMT-2e" x="55.615234"/>
       <use xlink:href="#ArialMT-30" x="83.398438"/>
      </g>
     </g>
    </g>
    <g id="text_13">
     <!-- Deviation score of mean CTh [a.u.] -->
     <g transform="translate(10.165 93.661038) rotate(-90) scale(0.06 -0.06)">
      <defs>
       <path id="ArialMT-44" d="M 494 0 
L 494 4581 
L 2072 4581 
Q 2606 4581 2888 4516 
Q 3281 4425 3559 4188 
Q 3922 3881 4101 3404 
Q 4281 2928 4281 2316 
Q 4281 1794 4159 1391 
Q 4038 988 3847 723 
Q 3656 459 3429 307 
Q 3203 156 2883 78 
Q 2563 0 2147 0 
L 494 0 
z
M 1100 541 
L 2078 541 
Q 2531 541 2789 625 
Q 3047 709 3200 863 
Q 3416 1078 3536 1442 
Q 3656 1806 3656 2325 
Q 3656 3044 3420 3430 
Q 3184 3816 2847 3947 
Q 2603 4041 2063 4041 
L 1100 4041 
L 1100 541 
z
" transform="scale(0.015625)"/>
       <path id="ArialMT-76" d="M 1344 0 
L 81 3319 
L 675 3319 
L 1388 1331 
Q 1503 1009 1600 663 
Q 1675 925 1809 1294 
L 2547 3319 
L 3125 3319 
L 1869 0 
L 1344 0 
z
" transform="scale(0.015625)"/>
       <path id="ArialMT-43" d="M 3763 1606 
L 4369 1453 
Q 4178 706 3683 314 
Q 3188 -78 2472 -78 
Q 1731 -78 1267 223 
Q 803 525 561 1097 
Q 319 1669 319 2325 
Q 319 3041 592 3573 
Q 866 4106 1370 4382 
Q 1875 4659 2481 4659 
Q 3169 4659 3637 4309 
Q 4106 3959 4291 3325 
L 3694 3184 
Q 3534 3684 3231 3912 
Q 2928 4141 2469 4141 
Q 1941 4141 1586 3887 
Q 1231 3634 1087 3207 
Q 944 2781 944 2328 
Q 944 1744 1114 1308 
Q 1284 872 1643 656 
Q 2003 441 2422 441 
Q 2931 441 3284 734 
Q 3638 1028 3763 1606 
z
" transform="scale(0.015625)"/>
       <path id="ArialMT-54" d="M 1659 0 
L 1659 4041 
L 150 4041 
L 150 4581 
L 3781 4581 
L 3781 4041 
L 2266 4041 
L 2266 0 
L 1659 0 
z
" transform="scale(0.015625)"/>
       <path id="ArialMT-68" d="M 422 0 
L 422 4581 
L 984 4581 
L 984 2938 
Q 1378 3394 1978 3394 
Q 2347 3394 2619 3248 
Q 2891 3103 3008 2847 
Q 3125 2591 3125 2103 
L 3125 0 
L 2563 0 
L 2563 2103 
Q 2563 2525 2380 2717 
Q 2197 2909 1863 2909 
Q 1613 2909 1392 2779 
Q 1172 2650 1078 2428 
Q 984 2206 984 1816 
L 984 0 
L 422 0 
z
" transform="scale(0.015625)"/>
      </defs>
      <use xlink:href="#ArialMT-44"/>
      <use xlink:href="#ArialMT-65" x="72.216797"/>
      <use xlink:href="#ArialMT-76" x="127.832031"/>
      <use xlink:href="#ArialMT-69" x="177.832031"/>
      <use xlink:href="#ArialMT-61" x="200.048828"/>
      <use xlink:href="#ArialMT-74" x="255.664062"/>
      <use xlink:href="#ArialMT-69" x="283.447266"/>
      <use xlink:href="#ArialMT-6f" x="305.664062"/>
      <use xlink:href="#ArialMT-6e" x="361.279297"/>
      <use xlink:href="#ArialMT-20" x="416.894531"/>
      <use xlink:href="#ArialMT-73" x="444.677734"/>
      <use xlink:href="#ArialMT-63" x="494.677734"/>
      <use xlink:href="#ArialMT-6f" x="544.677734"/>
      <use xlink:href="#ArialMT-72" x="600.292969"/>
      <use xlink:href="#ArialMT-65" x="633.59375"/>
      <use xlink:href="#ArialMT-20" x="689.208984"/>
      <use xlink:href="#ArialMT-6f" x="716.992188"/>
      <use xlink:href="#ArialMT-66" x="772.607422"/>
      <use xlink:href="#ArialMT-20" x="800.390625"/>
      <use xlink:href="#ArialMT-6d" x="828.173828"/>
      <use xlink:href="#ArialMT-65" x="911.474609"/>
      <use xlink:href="#ArialMT-61" x="967.089844"/>
      <use xlink:href="#ArialMT-6e" x="1022.705078"/>
      <use xlink:href="#ArialMT-20" x="1078.320312"/>
      <use xlink:href="#ArialMT-43" x="1106.103516"/>
      <use xlink:href="#ArialMT-54" x="1178.320312"/>
      <use xlink:href="#ArialMT-68" x="1239.404297"/>
      <use xlink:href="#ArialMT-20" x="1295.019531"/>
      <use xlink:href="#ArialMT-5b" x="1322.802734"/>
      <use xlink:href="#ArialMT-61" x="1350.585938"/>
      <use xlink:href="#ArialMT-2e" x="1406.201172"/>
      <use xlink:href="#ArialMT-75" x="1433.984375"/>
      <use xlink:href="#ArialMT-2e" x="1489.599609"/>
      <use xlink:href="#ArialMT-5d" x="1517.382812"/>
     </g>
    </g>
   </g>
   <g id="line2d_12">
    <path d="M 32.430137 46.873663 
L 33.566023 46.72834 
L 34.701909 46.583018 
L 35.837796 46.437696 
L 36.973682 46.292374 
L 38.109568 46.147051 
L 39.245454 46.001729 
L 40.381341 45.856407 
L 41.517227 45.711084 
L 42.653113 45.565762 
L 43.788999 45.42044 
L 44.924886 45.275118 
L 46.060772 45.129795 
L 47.196658 44.984473 
L 48.332544 44.839151 
L 49.468431 44.693828 
L 50.604317 44.548506 
L 51.740203 44.403184 
L 52.876089 44.257862 
L 54.011976 44.112539 
L 55.147862 43.967217 
L 56.283748 43.821895 
L 57.419634 43.676572 
L 58.55552 43.53125 
L 59.691407 43.385928 
L 60.827293 43.240606 
L 61.963179 43.095283 
L 63.099065 42.949961 
L 64.234952 42.804639 
L 65.370838 42.659316 
L 66.506724 42.513994 
L 67.64261 42.368672 
L 68.778497 42.22335 
L 69.914383 42.078027 
L 71.050269 41.932705 
L 72.186155 41.787383 
L 73.322042 41.64206 
L 74.457928 41.496738 
L 75.593814 41.351416 
L 76.7297 41.206094 
L 77.865587 41.060771 
L 79.001473 40.915449 
L 80.137359 40.770127 
L 81.273245 40.624805 
L 82.409132 40.479482 
L 83.545018 40.33416 
L 84.680904 40.188838 
L 85.81679 40.043515 
L 86.952677 39.898193 
L 88.088563 39.752871 
L 89.224449 39.607549 
L 90.360335 39.462226 
L 91.496222 39.316904 
L 92.632108 39.171582 
L 93.767994 39.026259 
L 94.90388 38.880937 
L 96.039766 38.735615 
L 97.175653 38.590293 
L 98.311539 38.44497 
L 99.447425 38.299648 
L 100.583311 38.154326 
L 101.719198 38.009003 
L 102.855084 37.863681 
L 103.99097 37.718359 
L 105.126856 37.573037 
L 106.262743 37.427714 
L 107.398629 37.282392 
L 108.534515 37.13707 
L 109.670401 36.991747 
L 110.806288 36.846425 
L 111.942174 36.701103 
L 113.07806 36.555781 
L 114.213946 36.410458 
L 115.349833 36.265136 
L 116.485719 36.119814 
L 117.621605 35.974491 
L 118.757491 35.829169 
L 119.893378 35.683847 
L 121.029264 35.538525 
L 122.16515 35.393202 
L 123.301036 35.24788 
L 124.436923 35.102558 
L 125.572809 34.957235 
L 126.708695 34.811913 
L 127.844581 34.666591 
L 128.980468 34.521269 
L 130.116354 34.375946 
L 131.25224 34.230624 
L 132.388126 34.085302 
L 133.524012 33.939979 
L 134.659899 33.794657 
L 135.795785 33.649335 
L 136.931671 33.504013 
L 138.067557 33.35869 
L 139.203444 33.213368 
L 140.33933 33.068046 
L 141.475216 32.922724 
L 142.611102 32.777401 
L 143.746989 32.632079 
L 144.882875 32.486757 
" clip-path="url(#p8213f5aab8)" style="fill: none; stroke: #ff8c00; stroke-width: 0.75; stroke-linecap: square"/>
   </g>
   <g id="patch_3">
    <path d="M 26.8075 89.218327 
L 26.8075 5.4 
" style="fill: none; stroke: #000000; stroke-width: 0.25; stroke-linejoin: miter; stroke-linecap: square"/>
   </g>
   <g id="patch_4">
    <path d="M 26.8075 89.218327 
L 150.505512 89.218327 
" style="fill: none; stroke: #000000; stroke-width: 0.25; stroke-linejoin: miter; stroke-linecap: square"/>
   </g>
   <g id="text_14">
    <g id="patch_5">
     <path d="M 30.51844 18.699023 
L 54.16844 18.699023 
Q 55.66844 18.699023 55.66844 17.199023 
L 55.66844 7.132617 
Q 55.66844 5.632617 54.16844 5.632617 
L 30.51844 5.632617 
Q 29.01844 5.632617 29.01844 7.132617 
L 29.01844 17.199023 
Q 29.01844 18.699023 30.51844 18.699023 
z
" style="fill: #c0c0c0; opacity: 0.4; stroke: #c0c0c0; stroke-linejoin: miter"/>
    </g>
    <!-- $r=0.064$ -->
    <g transform="translate(30.51844 10.655273) scale(0.05 -0.05)">
     <defs>
      <path id="DejaVuSans-Oblique-72" d="M 2853 2969 
Q 2766 3016 2653 3041 
Q 2541 3066 2413 3066 
Q 1953 3066 1609 2717 
Q 1266 2369 1153 1784 
L 800 0 
L 225 0 
L 909 3500 
L 1484 3500 
L 1375 2956 
Q 1603 3259 1920 3421 
Q 2238 3584 2597 3584 
Q 2691 3584 2781 3573 
Q 2872 3563 2963 3538 
L 2853 2969 
z
" transform="scale(0.015625)"/>
      <path id="DejaVuSans-3d" d="M 678 2906 
L 4684 2906 
L 4684 2381 
L 678 2381 
L 678 2906 
z
M 678 1631 
L 4684 1631 
L 4684 1100 
L 678 1100 
L 678 1631 
z
" transform="scale(0.015625)"/>
      <path id="DejaVuSans-30" d="M 2034 4250 
Q 1547 4250 1301 3770 
Q 1056 3291 1056 2328 
Q 1056 1369 1301 889 
Q 1547 409 2034 409 
Q 2525 409 2770 889 
Q 3016 1369 3016 2328 
Q 3016 3291 2770 3770 
Q 2525 4250 2034 4250 
z
M 2034 4750 
Q 2819 4750 3233 4129 
Q 3647 3509 3647 2328 
Q 3647 1150 3233 529 
Q 2819 -91 2034 -91 
Q 1250 -91 836 529 
Q 422 1150 422 2328 
Q 422 3509 836 4129 
Q 1250 4750 2034 4750 
z
" transform="scale(0.015625)"/>
      <path id="DejaVuSans-2e" d="M 684 794 
L 1344 794 
L 1344 0 
L 684 0 
L 684 794 
z
" transform="scale(0.015625)"/>
      <path id="DejaVuSans-36" d="M 2113 2584 
Q 1688 2584 1439 2293 
Q 1191 2003 1191 1497 
Q 1191 994 1439 701 
Q 1688 409 2113 409 
Q 2538 409 2786 701 
Q 3034 994 3034 1497 
Q 3034 2003 2786 2293 
Q 2538 2584 2113 2584 
z
M 3366 4563 
L 3366 3988 
Q 3128 4100 2886 4159 
Q 2644 4219 2406 4219 
Q 1781 4219 1451 3797 
Q 1122 3375 1075 2522 
Q 1259 2794 1537 2939 
Q 1816 3084 2150 3084 
Q 2853 3084 3261 2657 
Q 3669 2231 3669 1497 
Q 3669 778 3244 343 
Q 2819 -91 2113 -91 
Q 1303 -91 875 529 
Q 447 1150 447 2328 
Q 447 3434 972 4092 
Q 1497 4750 2381 4750 
Q 2619 4750 2861 4703 
Q 3103 4656 3366 4563 
z
" transform="scale(0.015625)"/>
      <path id="DejaVuSans-34" d="M 2419 4116 
L 825 1625 
L 2419 1625 
L 2419 4116 
z
M 2253 4666 
L 3047 4666 
L 3047 1625 
L 3713 1625 
L 3713 1100 
L 3047 1100 
L 3047 0 
L 2419 0 
L 2419 1100 
L 313 1100 
L 313 1709 
L 2253 4666 
z
" transform="scale(0.015625)"/>
     </defs>
     <use xlink:href="#DejaVuSans-Oblique-72" transform="translate(0 0.78125)"/>
     <use xlink:href="#DejaVuSans-3d" transform="translate(60.595703 0.78125)"/>
     <use xlink:href="#DejaVuSans-30" transform="translate(163.867188 0.78125)"/>
     <use xlink:href="#DejaVuSans-2e" transform="translate(227.490234 0.78125)"/>
     <use xlink:href="#DejaVuSans-30" transform="translate(259.277344 0.78125)"/>
     <use xlink:href="#DejaVuSans-36" transform="translate(322.900391 0.78125)"/>
     <use xlink:href="#DejaVuSans-34" transform="translate(386.523438 0.78125)"/>
    </g>
    <!-- $p=0.538$ -->
    <g transform="translate(30.51844 16.149023) scale(0.05 -0.05)">
     <defs>
      <path id="DejaVuSans-Oblique-70" d="M 3175 2156 
Q 3175 2616 2975 2859 
Q 2775 3103 2400 3103 
Q 2144 3103 1911 2972 
Q 1678 2841 1497 2591 
Q 1319 2344 1212 1994 
Q 1106 1644 1106 1300 
Q 1106 863 1306 627 
Q 1506 391 1875 391 
Q 2147 391 2380 519 
Q 2613 647 2778 891 
Q 2956 1147 3065 1494 
Q 3175 1841 3175 2156 
z
M 1394 2969 
Q 1625 3272 1939 3428 
Q 2253 3584 2638 3584 
Q 3175 3584 3472 3232 
Q 3769 2881 3769 2247 
Q 3769 1728 3584 1258 
Q 3400 788 3053 416 
Q 2822 169 2531 39 
Q 2241 -91 1919 -91 
Q 1547 -91 1294 64 
Q 1041 219 916 525 
L 556 -1331 
L -19 -1331 
L 922 3500 
L 1497 3500 
L 1394 2969 
z
" transform="scale(0.015625)"/>
      <path id="DejaVuSans-35" d="M 691 4666 
L 3169 4666 
L 3169 4134 
L 1269 4134 
L 1269 2991 
Q 1406 3038 1543 3061 
Q 1681 3084 1819 3084 
Q 2600 3084 3056 2656 
Q 3513 2228 3513 1497 
Q 3513 744 3044 326 
Q 2575 -91 1722 -91 
Q 1428 -91 1123 -41 
Q 819 9 494 109 
L 494 744 
Q 775 591 1075 516 
Q 1375 441 1709 441 
Q 2250 441 2565 725 
Q 2881 1009 2881 1497 
Q 2881 1984 2565 2268 
Q 2250 2553 1709 2553 
Q 1456 2553 1204 2497 
Q 953 2441 691 2322 
L 691 4666 
z
" transform="scale(0.015625)"/>
      <path id="DejaVuSans-33" d="M 2597 2516 
Q 3050 2419 3304 2112 
Q 3559 1806 3559 1356 
Q 3559 666 3084 287 
Q 2609 -91 1734 -91 
Q 1441 -91 1130 -33 
Q 819 25 488 141 
L 488 750 
Q 750 597 1062 519 
Q 1375 441 1716 441 
Q 2309 441 2620 675 
Q 2931 909 2931 1356 
Q 2931 1769 2642 2001 
Q 2353 2234 1838 2234 
L 1294 2234 
L 1294 2753 
L 1863 2753 
Q 2328 2753 2575 2939 
Q 2822 3125 2822 3475 
Q 2822 3834 2567 4026 
Q 2313 4219 1838 4219 
Q 1578 4219 1281 4162 
Q 984 4106 628 3988 
L 628 4550 
Q 988 4650 1302 4700 
Q 1616 4750 1894 4750 
Q 2613 4750 3031 4423 
Q 3450 4097 3450 3541 
Q 3450 3153 3228 2886 
Q 3006 2619 2597 2516 
z
" transform="scale(0.015625)"/>
      <path id="DejaVuSans-38" d="M 2034 2216 
Q 1584 2216 1326 1975 
Q 1069 1734 1069 1313 
Q 1069 891 1326 650 
Q 1584 409 2034 409 
Q 2484 409 2743 651 
Q 3003 894 3003 1313 
Q 3003 1734 2745 1975 
Q 2488 2216 2034 2216 
z
M 1403 2484 
Q 997 2584 770 2862 
Q 544 3141 544 3541 
Q 544 4100 942 4425 
Q 1341 4750 2034 4750 
Q 2731 4750 3128 4425 
Q 3525 4100 3525 3541 
Q 3525 3141 3298 2862 
Q 3072 2584 2669 2484 
Q 3125 2378 3379 2068 
Q 3634 1759 3634 1313 
Q 3634 634 3220 271 
Q 2806 -91 2034 -91 
Q 1263 -91 848 271 
Q 434 634 434 1313 
Q 434 1759 690 2068 
Q 947 2378 1403 2484 
z
M 1172 3481 
Q 1172 3119 1398 2916 
Q 1625 2713 2034 2713 
Q 2441 2713 2670 2916 
Q 2900 3119 2900 3481 
Q 2900 3844 2670 4047 
Q 2441 4250 2034 4250 
Q 1625 4250 1398 4047 
Q 1172 3844 1172 3481 
z
" transform="scale(0.015625)"/>
     </defs>
     <use xlink:href="#DejaVuSans-Oblique-70" transform="translate(0 0.78125)"/>
     <use xlink:href="#DejaVuSans-3d" transform="translate(82.958984 0.78125)"/>
     <use xlink:href="#DejaVuSans-30" transform="translate(186.230469 0.78125)"/>
     <use xlink:href="#DejaVuSans-2e" transform="translate(249.853516 0.78125)"/>
     <use xlink:href="#DejaVuSans-35" transform="translate(281.640625 0.78125)"/>
     <use xlink:href="#DejaVuSans-33" transform="translate(345.263672 0.78125)"/>
     <use xlink:href="#DejaVuSans-38" transform="translate(408.886719 0.78125)"/>
    </g>
   </g>
  </g>
 </g>
 <defs>
  <clipPath id="p8213f5aab8">
   <rect x="26.8075" y="5.4" width="123.698012" height="83.818327"/>
  </clipPath>
 </defs>
</svg>
