<?xml version="1.0" encoding="utf-8" standalone="no"?>
<!DOCTYPE svg PUBLIC "-//W3C//DTD SVG 1.1//EN"
  "http://www.w3.org/Graphics/SVG/1.1/DTD/svg11.dtd">
<svg xmlns:xlink="http://www.w3.org/1999/xlink" width="155.905512pt" height="113.385827pt" viewBox="0 0 155.905512 113.385827" xmlns="http://www.w3.org/2000/svg" version="1.1">
 <metadata>
  <rdf:RDF xmlns:dc="http://purl.org/dc/elements/1.1/" xmlns:cc="http://creativecommons.org/ns#" xmlns:rdf="http://www.w3.org/1999/02/22-rdf-syntax-ns#">
   <cc:Work>
    <dc:type rdf:resource="http://purl.org/dc/dcmitype/StillImage"/>
    <dc:date>2025-06-11T15:42:14.679951</dc:date>
    <dc:format>image/svg+xml</dc:format>
    <dc:creator>
     <cc:Agent>
      <dc:title>Matplotlib v3.9.2, https://matplotlib.org/</dc:title>
     </cc:Agent>
    </dc:creator>
   </cc:Work>
  </rdf:RDF>
 </metadata>
 <defs>
  <style type="text/css">*{stroke-linejoin: round; stroke-linecap: butt}</style>
 </defs>
 <g id="figure_1">
  <g id="patch_1">
   <path d="M 0 113.385827 
L 155.905512 113.385827 
L 155.905512 0 
L 0 0 
z
" style="fill: #ffffff"/>
  </g>
  <g id="axes_1">
   <g id="patch_2">
    <path d="M 25.4275 89.218327 
L 150.505512 89.218327 
L 150.505512 5.4 
L 25.4275 5.4 
z
" style="fill: #ffffff"/>
   </g>
   <g id="PathCollection_1">
    <defs>
     <path id="C0_0_b6373d3e02" d="M 0 0.866025 
C 0.229673 0.866025 0.449969 0.774776 0.612372 0.612372 
C 0.774776 0.449969 0.866025 0.229673 0.866025 -0 
C 0.866025 -0.229673 0.774776 -0.449969 0.612372 -0.612372 
C 0.449969 -0.774776 0.229673 -0.866025 0 -0.866025 
C -0.229673 -0.866025 -0.449969 -0.774776 -0.612372 -0.612372 
C -0.774776 -0.449969 -0.866025 -0.229673 -0.866025 0 
C -0.866025 0.229673 -0.774776 0.449969 -0.612372 0.612372 
C -0.449969 0.774776 -0.229673 0.866025 0 0.866025 
z
"/>
    </defs>
    <g clip-path="url(#p305b118e00)">
     <use xlink:href="#C0_0_b6373d3e02" x="72.047486" y="65.956504" style="fill: #ff8c00; fill-opacity: 0.8"/>
    </g>
    <g clip-path="url(#p305b118e00)">
     <use xlink:href="#C0_0_b6373d3e02" x="56.128467" y="78.292718" style="fill: #ff8c00; fill-opacity: 0.8"/>
    </g>
    <g clip-path="url(#p305b118e00)">
     <use xlink:href="#C0_0_b6373d3e02" x="35.661156" y="75.825475" style="fill: #ff8c00; fill-opacity: 0.8"/>
    </g>
    <g clip-path="url(#p305b118e00)">
     <use xlink:href="#C0_0_b6373d3e02" x="62.950904" y="75.825475" style="fill: #ff8c00; fill-opacity: 0.8"/>
    </g>
    <g clip-path="url(#p305b118e00)">
     <use xlink:href="#C0_0_b6373d3e02" x="65.225049" y="75.825475" style="fill: #ff8c00; fill-opacity: 0.8"/>
    </g>
    <g clip-path="url(#p305b118e00)">
     <use xlink:href="#C0_0_b6373d3e02" x="67.499195" y="75.825475" style="fill: #ff8c00; fill-opacity: 0.8"/>
    </g>
    <g clip-path="url(#p305b118e00)">
     <use xlink:href="#C0_0_b6373d3e02" x="53.854321" y="9.209924" style="fill: #ff8c00; fill-opacity: 0.8"/>
    </g>
    <g clip-path="url(#p305b118e00)">
     <use xlink:href="#C0_0_b6373d3e02" x="53.854321" y="63.489262" style="fill: #ff8c00; fill-opacity: 0.8"/>
    </g>
    <g clip-path="url(#p305b118e00)">
     <use xlink:href="#C0_0_b6373d3e02" x="74.321632" y="63.489262" style="fill: #ff8c00; fill-opacity: 0.8"/>
    </g>
    <g clip-path="url(#p305b118e00)">
     <use xlink:href="#C0_0_b6373d3e02" x="74.321632" y="73.358232" style="fill: #ff8c00; fill-opacity: 0.8"/>
    </g>
    <g clip-path="url(#p305b118e00)">
     <use xlink:href="#C0_0_b6373d3e02" x="40.209447" y="63.489262" style="fill: #ff8c00; fill-opacity: 0.8"/>
    </g>
    <g clip-path="url(#p305b118e00)">
     <use xlink:href="#C0_0_b6373d3e02" x="67.499195" y="73.358232" style="fill: #ff8c00; fill-opacity: 0.8"/>
    </g>
    <g clip-path="url(#p305b118e00)">
     <use xlink:href="#C0_0_b6373d3e02" x="90.240652" y="75.825475" style="fill: #ff8c00; fill-opacity: 0.8"/>
    </g>
    <g clip-path="url(#p305b118e00)">
     <use xlink:href="#C0_0_b6373d3e02" x="90.240652" y="70.89099" style="fill: #ff8c00; fill-opacity: 0.8"/>
    </g>
    <g clip-path="url(#p305b118e00)">
     <use xlink:href="#C0_0_b6373d3e02" x="65.225049" y="75.825475" style="fill: #ff8c00; fill-opacity: 0.8"/>
    </g>
    <g clip-path="url(#p305b118e00)">
     <use xlink:href="#C0_0_b6373d3e02" x="53.854321" y="78.292718" style="fill: #ff8c00; fill-opacity: 0.8"/>
    </g>
    <g clip-path="url(#p305b118e00)">
     <use xlink:href="#C0_0_b6373d3e02" x="42.483593" y="73.358232" style="fill: #ff8c00; fill-opacity: 0.8"/>
    </g>
    <g clip-path="url(#p305b118e00)">
     <use xlink:href="#C0_0_b6373d3e02" x="65.225049" y="75.825475" style="fill: #ff8c00; fill-opacity: 0.8"/>
    </g>
    <g clip-path="url(#p305b118e00)">
     <use xlink:href="#C0_0_b6373d3e02" x="87.966506" y="78.292718" style="fill: #ff8c00; fill-opacity: 0.8"/>
    </g>
    <g clip-path="url(#p305b118e00)">
     <use xlink:href="#C0_0_b6373d3e02" x="65.225049" y="75.825475" style="fill: #ff8c00; fill-opacity: 0.8"/>
    </g>
    <g clip-path="url(#p305b118e00)">
     <use xlink:href="#C0_0_b6373d3e02" x="67.499195" y="68.423747" style="fill: #ff8c00; fill-opacity: 0.8"/>
    </g>
    <g clip-path="url(#p305b118e00)">
     <use xlink:href="#C0_0_b6373d3e02" x="60.676758" y="73.358232" style="fill: #ff8c00; fill-opacity: 0.8"/>
    </g>
    <g clip-path="url(#p305b118e00)">
     <use xlink:href="#C0_0_b6373d3e02" x="67.499195" y="61.022019" style="fill: #ff8c00; fill-opacity: 0.8"/>
    </g>
    <g clip-path="url(#p305b118e00)">
     <use xlink:href="#C0_0_b6373d3e02" x="67.499195" y="75.825475" style="fill: #ff8c00; fill-opacity: 0.8"/>
    </g>
    <g clip-path="url(#p305b118e00)">
     <use xlink:href="#C0_0_b6373d3e02" x="62.950904" y="68.423747" style="fill: #ff8c00; fill-opacity: 0.8"/>
    </g>
    <g clip-path="url(#p305b118e00)">
     <use xlink:href="#C0_0_b6373d3e02" x="62.950904" y="73.358232" style="fill: #ff8c00; fill-opacity: 0.8"/>
    </g>
    <g clip-path="url(#p305b118e00)">
     <use xlink:href="#C0_0_b6373d3e02" x="81.144069" y="75.825475" style="fill: #ff8c00; fill-opacity: 0.8"/>
    </g>
    <g clip-path="url(#p305b118e00)">
     <use xlink:href="#C0_0_b6373d3e02" x="65.225049" y="73.358232" style="fill: #ff8c00; fill-opacity: 0.8"/>
    </g>
    <g clip-path="url(#p305b118e00)">
     <use xlink:href="#C0_0_b6373d3e02" x="101.61138" y="73.358232" style="fill: #ff8c00; fill-opacity: 0.8"/>
    </g>
    <g clip-path="url(#p305b118e00)">
     <use xlink:href="#C0_0_b6373d3e02" x="53.854321" y="75.825475" style="fill: #ff8c00; fill-opacity: 0.8"/>
    </g>
    <g clip-path="url(#p305b118e00)">
     <use xlink:href="#C0_0_b6373d3e02" x="62.950904" y="75.825475" style="fill: #ff8c00; fill-opacity: 0.8"/>
    </g>
    <g clip-path="url(#p305b118e00)">
     <use xlink:href="#C0_0_b6373d3e02" x="72.047486" y="73.358232" style="fill: #ff8c00; fill-opacity: 0.8"/>
    </g>
    <g clip-path="url(#p305b118e00)">
     <use xlink:href="#C0_0_b6373d3e02" x="58.402612" y="70.89099" style="fill: #ff8c00; fill-opacity: 0.8"/>
    </g>
    <g clip-path="url(#p305b118e00)">
     <use xlink:href="#C0_0_b6373d3e02" x="58.402612" y="75.825475" style="fill: #ff8c00; fill-opacity: 0.8"/>
    </g>
    <g clip-path="url(#p305b118e00)">
     <use xlink:href="#C0_0_b6373d3e02" x="97.063089" y="75.825475" style="fill: #ff8c00; fill-opacity: 0.8"/>
    </g>
    <g clip-path="url(#p305b118e00)">
     <use xlink:href="#C0_0_b6373d3e02" x="97.063089" y="78.292718" style="fill: #ff8c00; fill-opacity: 0.8"/>
    </g>
    <g clip-path="url(#p305b118e00)">
     <use xlink:href="#C0_0_b6373d3e02" x="47.031884" y="75.825475" style="fill: #ff8c00; fill-opacity: 0.8"/>
    </g>
    <g clip-path="url(#p305b118e00)">
     <use xlink:href="#C0_0_b6373d3e02" x="40.209447" y="75.825475" style="fill: #ff8c00; fill-opacity: 0.8"/>
    </g>
    <g clip-path="url(#p305b118e00)">
     <use xlink:href="#C0_0_b6373d3e02" x="72.047486" y="61.022019" style="fill: #ff8c00; fill-opacity: 0.8"/>
    </g>
    <g clip-path="url(#p305b118e00)">
     <use xlink:href="#C0_0_b6373d3e02" x="58.402612" y="73.358232" style="fill: #ff8c00; fill-opacity: 0.8"/>
    </g>
    <g clip-path="url(#p305b118e00)">
     <use xlink:href="#C0_0_b6373d3e02" x="67.499195" y="78.292718" style="fill: #ff8c00; fill-opacity: 0.8"/>
    </g>
    <g clip-path="url(#p305b118e00)">
     <use xlink:href="#C0_0_b6373d3e02" x="35.661156" y="36.349593" style="fill: #ff8c00; fill-opacity: 0.8"/>
    </g>
    <g clip-path="url(#p305b118e00)">
     <use xlink:href="#C0_0_b6373d3e02" x="35.661156" y="51.153049" style="fill: #ff8c00; fill-opacity: 0.8"/>
    </g>
    <g clip-path="url(#p305b118e00)">
     <use xlink:href="#C0_0_b6373d3e02" x="74.321632" y="78.292718" style="fill: #ff8c00; fill-opacity: 0.8"/>
    </g>
    <g clip-path="url(#p305b118e00)">
     <use xlink:href="#C0_0_b6373d3e02" x="44.757738" y="70.89099" style="fill: #ff8c00; fill-opacity: 0.8"/>
    </g>
    <g clip-path="url(#p305b118e00)">
     <use xlink:href="#C0_0_b6373d3e02" x="44.757738" y="63.489262" style="fill: #ff8c00; fill-opacity: 0.8"/>
    </g>
    <g clip-path="url(#p305b118e00)">
     <use xlink:href="#C0_0_b6373d3e02" x="44.757738" y="65.956504" style="fill: #ff8c00; fill-opacity: 0.8"/>
    </g>
    <g clip-path="url(#p305b118e00)">
     <use xlink:href="#C0_0_b6373d3e02" x="60.676758" y="41.284078" style="fill: #ff8c00; fill-opacity: 0.8"/>
    </g>
    <g clip-path="url(#p305b118e00)">
     <use xlink:href="#C0_0_b6373d3e02" x="87.966506" y="65.956504" style="fill: #ff8c00; fill-opacity: 0.8"/>
    </g>
    <g clip-path="url(#p305b118e00)">
     <use xlink:href="#C0_0_b6373d3e02" x="76.595778" y="73.358232" style="fill: #ff8c00; fill-opacity: 0.8"/>
    </g>
    <g clip-path="url(#p305b118e00)">
     <use xlink:href="#C0_0_b6373d3e02" x="81.144069" y="68.423747" style="fill: #ff8c00; fill-opacity: 0.8"/>
    </g>
    <g clip-path="url(#p305b118e00)">
     <use xlink:href="#C0_0_b6373d3e02" x="74.321632" y="78.292718" style="fill: #ff8c00; fill-opacity: 0.8"/>
    </g>
    <g clip-path="url(#p305b118e00)">
     <use xlink:href="#C0_0_b6373d3e02" x="67.499195" y="73.358232" style="fill: #ff8c00; fill-opacity: 0.8"/>
    </g>
    <g clip-path="url(#p305b118e00)">
     <use xlink:href="#C0_0_b6373d3e02" x="40.209447" y="70.89099" style="fill: #ff8c00; fill-opacity: 0.8"/>
    </g>
    <g clip-path="url(#p305b118e00)">
     <use xlink:href="#C0_0_b6373d3e02" x="31.112864" y="70.89099" style="fill: #ff8c00; fill-opacity: 0.8"/>
    </g>
    <g clip-path="url(#p305b118e00)">
     <use xlink:href="#C0_0_b6373d3e02" x="62.950904" y="78.292718" style="fill: #ff8c00; fill-opacity: 0.8"/>
    </g>
    <g clip-path="url(#p305b118e00)">
     <use xlink:href="#C0_0_b6373d3e02" x="62.950904" y="65.956504" style="fill: #ff8c00; fill-opacity: 0.8"/>
    </g>
    <g clip-path="url(#p305b118e00)">
     <use xlink:href="#C0_0_b6373d3e02" x="74.321632" y="75.825475" style="fill: #ff8c00; fill-opacity: 0.8"/>
    </g>
    <g clip-path="url(#p305b118e00)">
     <use xlink:href="#C0_0_b6373d3e02" x="65.225049" y="78.292718" style="fill: #ff8c00; fill-opacity: 0.8"/>
    </g>
    <g clip-path="url(#p305b118e00)">
     <use xlink:href="#C0_0_b6373d3e02" x="122.078691" y="53.620291" style="fill: #ff8c00; fill-opacity: 0.8"/>
    </g>
    <g clip-path="url(#p305b118e00)">
     <use xlink:href="#C0_0_b6373d3e02" x="58.402612" y="78.292718" style="fill: #ff8c00; fill-opacity: 0.8"/>
    </g>
    <g clip-path="url(#p305b118e00)">
     <use xlink:href="#C0_0_b6373d3e02" x="58.402612" y="75.825475" style="fill: #ff8c00; fill-opacity: 0.8"/>
    </g>
    <g clip-path="url(#p305b118e00)">
     <use xlink:href="#C0_0_b6373d3e02" x="40.209447" y="78.292718" style="fill: #ff8c00; fill-opacity: 0.8"/>
    </g>
    <g clip-path="url(#p305b118e00)">
     <use xlink:href="#C0_0_b6373d3e02" x="40.209447" y="75.825475" style="fill: #ff8c00; fill-opacity: 0.8"/>
    </g>
    <g clip-path="url(#p305b118e00)">
     <use xlink:href="#C0_0_b6373d3e02" x="69.773341" y="78.292718" style="fill: #ff8c00; fill-opacity: 0.8"/>
    </g>
    <g clip-path="url(#p305b118e00)">
     <use xlink:href="#C0_0_b6373d3e02" x="62.950904" y="75.825475" style="fill: #ff8c00; fill-opacity: 0.8"/>
    </g>
    <g clip-path="url(#p305b118e00)">
     <use xlink:href="#C0_0_b6373d3e02" x="62.950904" y="75.825475" style="fill: #ff8c00; fill-opacity: 0.8"/>
    </g>
    <g clip-path="url(#p305b118e00)">
     <use xlink:href="#C0_0_b6373d3e02" x="51.580175" y="75.825475" style="fill: #ff8c00; fill-opacity: 0.8"/>
    </g>
    <g clip-path="url(#p305b118e00)">
     <use xlink:href="#C0_0_b6373d3e02" x="65.225049" y="73.358232" style="fill: #ff8c00; fill-opacity: 0.8"/>
    </g>
    <g clip-path="url(#p305b118e00)">
     <use xlink:href="#C0_0_b6373d3e02" x="74.321632" y="75.825475" style="fill: #ff8c00; fill-opacity: 0.8"/>
    </g>
    <g clip-path="url(#p305b118e00)">
     <use xlink:href="#C0_0_b6373d3e02" x="103.885526" y="75.825475" style="fill: #ff8c00; fill-opacity: 0.8"/>
    </g>
    <g clip-path="url(#p305b118e00)">
     <use xlink:href="#C0_0_b6373d3e02" x="72.047486" y="78.292718" style="fill: #ff8c00; fill-opacity: 0.8"/>
    </g>
    <g clip-path="url(#p305b118e00)">
     <use xlink:href="#C0_0_b6373d3e02" x="144.820148" y="53.620291" style="fill: #ff8c00; fill-opacity: 0.8"/>
    </g>
    <g clip-path="url(#p305b118e00)">
     <use xlink:href="#C0_0_b6373d3e02" x="78.869923" y="73.358232" style="fill: #ff8c00; fill-opacity: 0.8"/>
    </g>
    <g clip-path="url(#p305b118e00)">
     <use xlink:href="#C0_0_b6373d3e02" x="74.321632" y="78.292718" style="fill: #ff8c00; fill-opacity: 0.8"/>
    </g>
    <g clip-path="url(#p305b118e00)">
     <use xlink:href="#C0_0_b6373d3e02" x="99.337234" y="68.423747" style="fill: #ff8c00; fill-opacity: 0.8"/>
    </g>
    <g clip-path="url(#p305b118e00)">
     <use xlink:href="#C0_0_b6373d3e02" x="74.321632" y="73.358232" style="fill: #ff8c00; fill-opacity: 0.8"/>
    </g>
    <g clip-path="url(#p305b118e00)">
     <use xlink:href="#C0_0_b6373d3e02" x="74.321632" y="75.825475" style="fill: #ff8c00; fill-opacity: 0.8"/>
    </g>
    <g clip-path="url(#p305b118e00)">
     <use xlink:href="#C0_0_b6373d3e02" x="56.128467" y="75.825475" style="fill: #ff8c00; fill-opacity: 0.8"/>
    </g>
    <g clip-path="url(#p305b118e00)">
     <use xlink:href="#C0_0_b6373d3e02" x="62.950904" y="78.292718" style="fill: #ff8c00; fill-opacity: 0.8"/>
    </g>
    <g clip-path="url(#p305b118e00)">
     <use xlink:href="#C0_0_b6373d3e02" x="65.225049" y="73.358232" style="fill: #ff8c00; fill-opacity: 0.8"/>
    </g>
    <g clip-path="url(#p305b118e00)">
     <use xlink:href="#C0_0_b6373d3e02" x="65.225049" y="78.292718" style="fill: #ff8c00; fill-opacity: 0.8"/>
    </g>
    <g clip-path="url(#p305b118e00)">
     <use xlink:href="#C0_0_b6373d3e02" x="81.144069" y="78.292718" style="fill: #ff8c00; fill-opacity: 0.8"/>
    </g>
    <g clip-path="url(#p305b118e00)">
     <use xlink:href="#C0_0_b6373d3e02" x="81.144069" y="78.292718" style="fill: #ff8c00; fill-opacity: 0.8"/>
    </g>
    <g clip-path="url(#p305b118e00)">
     <use xlink:href="#C0_0_b6373d3e02" x="94.788943" y="65.956504" style="fill: #ff8c00; fill-opacity: 0.8"/>
    </g>
    <g clip-path="url(#p305b118e00)">
     <use xlink:href="#C0_0_b6373d3e02" x="53.854321" y="65.956504" style="fill: #ff8c00; fill-opacity: 0.8"/>
    </g>
    <g clip-path="url(#p305b118e00)">
     <use xlink:href="#C0_0_b6373d3e02" x="53.854321" y="73.358232" style="fill: #ff8c00; fill-opacity: 0.8"/>
    </g>
    <g clip-path="url(#p305b118e00)">
     <use xlink:href="#C0_0_b6373d3e02" x="78.869923" y="68.423747" style="fill: #ff8c00; fill-opacity: 0.8"/>
    </g>
    <g clip-path="url(#p305b118e00)">
     <use xlink:href="#C0_0_b6373d3e02" x="56.128467" y="75.825475" style="fill: #ff8c00; fill-opacity: 0.8"/>
    </g>
    <g clip-path="url(#p305b118e00)">
     <use xlink:href="#C0_0_b6373d3e02" x="83.418215" y="70.89099" style="fill: #ff8c00; fill-opacity: 0.8"/>
    </g>
    <g clip-path="url(#p305b118e00)">
     <use xlink:href="#C0_0_b6373d3e02" x="72.047486" y="75.825475" style="fill: #ff8c00; fill-opacity: 0.8"/>
    </g>
    <g clip-path="url(#p305b118e00)">
     <use xlink:href="#C0_0_b6373d3e02" x="53.854321" y="51.153049" style="fill: #ff8c00; fill-opacity: 0.8"/>
    </g>
    <g clip-path="url(#p305b118e00)">
     <use xlink:href="#C0_0_b6373d3e02" x="135.723565" y="73.358232" style="fill: #ff8c00; fill-opacity: 0.8"/>
    </g>
    <g clip-path="url(#p305b118e00)">
     <use xlink:href="#C0_0_b6373d3e02" x="72.047486" y="73.358232" style="fill: #ff8c00; fill-opacity: 0.8"/>
    </g>
    <g clip-path="url(#p305b118e00)">
     <use xlink:href="#C0_0_b6373d3e02" x="72.047486" y="75.825475" style="fill: #ff8c00; fill-opacity: 0.8"/>
    </g>
    <g clip-path="url(#p305b118e00)">
     <use xlink:href="#C0_0_b6373d3e02" x="74.321632" y="75.825475" style="fill: #ff8c00; fill-opacity: 0.8"/>
    </g>
   </g>
   <g id="PolyCollection_1">
    <path d="M 31.112864 63.585502 
L 31.112864 75.321347 
L 32.261423 75.242438 
L 33.409981 75.152778 
L 34.558539 75.048587 
L 35.707098 74.955533 
L 36.855656 74.875603 
L 38.004215 74.788448 
L 39.152773 74.701454 
L 40.301332 74.612574 
L 41.44989 74.53855 
L 42.598448 74.45987 
L 43.747007 74.377667 
L 44.895565 74.305907 
L 46.044124 74.228914 
L 47.192682 74.150166 
L 48.34124 74.068812 
L 49.489799 73.984206 
L 50.638357 73.90728 
L 51.786916 73.830567 
L 52.935474 73.754338 
L 54.084033 73.676046 
L 55.232591 73.591444 
L 56.381149 73.513286 
L 57.529708 73.44364 
L 58.678266 73.386024 
L 59.826825 73.338167 
L 60.975383 73.288894 
L 62.123941 73.239074 
L 63.2725 73.194653 
L 64.421058 73.158463 
L 65.569617 73.142356 
L 66.718175 73.128376 
L 67.866734 73.123689 
L 69.015292 73.143365 
L 70.16385 73.17666 
L 71.312409 73.229052 
L 72.460967 73.302801 
L 73.609526 73.378324 
L 74.758084 73.466001 
L 75.906643 73.577539 
L 77.055201 73.706399 
L 78.203759 73.835918 
L 79.352318 73.980586 
L 80.500876 74.14127 
L 81.649435 74.309874 
L 82.797993 74.477731 
L 83.946551 74.650318 
L 85.09511 74.812766 
L 86.243668 74.995835 
L 87.392227 75.168376 
L 88.540785 75.33545 
L 89.689344 75.520862 
L 90.837902 75.716522 
L 91.98646 75.889377 
L 93.135019 76.088266 
L 94.283577 76.271156 
L 95.432136 76.476401 
L 96.580694 76.68374 
L 97.729252 76.883956 
L 98.877811 77.095089 
L 100.026369 77.287599 
L 101.174928 77.470606 
L 102.323486 77.666293 
L 103.472045 77.865834 
L 104.620603 78.066159 
L 105.769161 78.272713 
L 106.91772 78.474937 
L 108.066278 78.685795 
L 109.214837 78.879777 
L 110.363395 79.082644 
L 111.511953 79.299803 
L 112.660512 79.500246 
L 113.80907 79.699263 
L 114.957629 79.897884 
L 116.106187 80.130119 
L 117.254746 80.33219 
L 118.403304 80.557306 
L 119.551862 80.775618 
L 120.700421 80.969025 
L 121.848979 81.166597 
L 122.997538 81.3714 
L 124.146096 81.578392 
L 125.294655 81.809606 
L 126.443213 82.035287 
L 127.591771 82.239621 
L 128.74033 82.44175 
L 129.888888 82.631423 
L 131.037447 82.843074 
L 132.186005 83.043719 
L 133.334563 83.240809 
L 134.483122 83.463469 
L 135.63168 83.688815 
L 136.780239 83.914499 
L 137.928797 84.130564 
L 139.077356 84.343624 
L 140.225914 84.561869 
L 141.374472 84.769333 
L 142.523031 84.982396 
L 143.671589 85.195285 
L 144.820148 85.408403 
L 144.820148 65.041288 
L 144.820148 65.041288 
L 143.671589 65.135308 
L 142.523031 65.229295 
L 141.374472 65.313912 
L 140.225914 65.417236 
L 139.077356 65.509011 
L 137.928797 65.600497 
L 136.780239 65.689539 
L 135.63168 65.78416 
L 134.483122 65.875161 
L 133.334563 65.959944 
L 132.186005 66.045474 
L 131.037447 66.131231 
L 129.888888 66.216839 
L 128.74033 66.309334 
L 127.591771 66.412493 
L 126.443213 66.501846 
L 125.294655 66.593574 
L 124.146096 66.679371 
L 122.997538 66.763918 
L 121.848979 66.867454 
L 120.700421 66.960934 
L 119.551862 67.046528 
L 118.403304 67.129137 
L 117.254746 67.226144 
L 116.106187 67.313431 
L 114.957629 67.398926 
L 113.80907 67.492721 
L 112.660512 67.581761 
L 111.511953 67.676119 
L 110.363395 67.764814 
L 109.214837 67.848265 
L 108.066278 67.932063 
L 106.91772 68.011387 
L 105.769161 68.099144 
L 104.620603 68.190553 
L 103.472045 68.279359 
L 102.323486 68.375188 
L 101.174928 68.478761 
L 100.026369 68.547989 
L 98.877811 68.634589 
L 97.729252 68.717729 
L 96.580694 68.795461 
L 95.432136 68.863901 
L 94.283577 68.929359 
L 93.135019 69.00375 
L 91.98646 69.070649 
L 90.837902 69.134067 
L 89.689344 69.18202 
L 88.540785 69.236729 
L 87.392227 69.289475 
L 86.243668 69.348207 
L 85.09511 69.393027 
L 83.946551 69.431544 
L 82.797993 69.450421 
L 81.649435 69.494859 
L 80.500876 69.509511 
L 79.352318 69.51741 
L 78.203759 69.53482 
L 77.055201 69.530915 
L 75.906643 69.500985 
L 74.758084 69.474999 
L 73.609526 69.45043 
L 72.460967 69.407491 
L 71.312409 69.364144 
L 70.16385 69.288917 
L 69.015292 69.211955 
L 67.866734 69.125466 
L 66.718175 69.033319 
L 65.569617 68.950868 
L 64.421058 68.853961 
L 63.2725 68.706848 
L 62.123941 68.548646 
L 60.975383 68.408972 
L 59.826825 68.273563 
L 58.678266 68.112815 
L 57.529708 67.973707 
L 56.381149 67.798809 
L 55.232591 67.641619 
L 54.084033 67.47698 
L 52.935474 67.293257 
L 51.786916 67.125479 
L 50.638357 66.94407 
L 49.489799 66.763531 
L 48.34124 66.574851 
L 47.192682 66.388297 
L 46.044124 66.214932 
L 44.895565 66.024022 
L 43.747007 65.829352 
L 42.598448 65.632748 
L 41.44989 65.419631 
L 40.301332 65.224322 
L 39.152773 65.026159 
L 38.004215 64.830624 
L 36.855656 64.616453 
L 35.707098 64.40382 
L 34.558539 64.207918 
L 33.409981 64.024678 
L 32.261423 63.819992 
L 31.112864 63.585502 
z
" clip-path="url(#p305b118e00)" style="fill: #ff8c00; fill-opacity: 0.15"/>
   </g>
   <g id="matplotlib.axis_1">
    <g id="xtick_1">
     <g id="line2d_1">
      <defs>
       <path id="m3871d785a6" d="M 0 0 
L 0 3.5 
" style="stroke: #000000; stroke-width: 0.25"/>
      </defs>
      <g>
       <use xlink:href="#m3871d785a6" x="31.112864" y="89.218327" style="stroke: #000000; stroke-width: 0.25"/>
      </g>
     </g>
     <g id="text_1">
      <!-- 15 -->
      <g transform="translate(28.332395 97.297233) scale(0.05 -0.05)">
       <defs>
        <path id="ArialMT-31" d="M 2384 0 
L 1822 0 
L 1822 3584 
Q 1619 3391 1289 3197 
Q 959 3003 697 2906 
L 697 3450 
Q 1169 3672 1522 3987 
Q 1875 4303 2022 4600 
L 2384 4600 
L 2384 0 
z
" transform="scale(0.015625)"/>
        <path id="ArialMT-35" d="M 266 1200 
L 856 1250 
Q 922 819 1161 601 
Q 1400 384 1738 384 
Q 2144 384 2425 690 
Q 2706 997 2706 1503 
Q 2706 1984 2436 2262 
Q 2166 2541 1728 2541 
Q 1456 2541 1237 2417 
Q 1019 2294 894 2097 
L 366 2166 
L 809 4519 
L 3088 4519 
L 3088 3981 
L 1259 3981 
L 1013 2750 
Q 1425 3038 1878 3038 
Q 2478 3038 2890 2622 
Q 3303 2206 3303 1553 
Q 3303 931 2941 478 
Q 2500 -78 1738 -78 
Q 1113 -78 717 272 
Q 322 622 266 1200 
z
" transform="scale(0.015625)"/>
       </defs>
       <use xlink:href="#ArialMT-31"/>
       <use xlink:href="#ArialMT-35" x="55.615234"/>
      </g>
     </g>
    </g>
    <g id="xtick_2">
     <g id="line2d_2">
      <g>
       <use xlink:href="#m3871d785a6" x="53.854321" y="89.218327" style="stroke: #000000; stroke-width: 0.25"/>
      </g>
     </g>
     <g id="text_2">
      <!-- 20 -->
      <g transform="translate(51.073852 97.297233) scale(0.05 -0.05)">
       <defs>
        <path id="ArialMT-32" d="M 3222 541 
L 3222 0 
L 194 0 
Q 188 203 259 391 
Q 375 700 629 1000 
Q 884 1300 1366 1694 
Q 2113 2306 2375 2664 
Q 2638 3022 2638 3341 
Q 2638 3675 2398 3904 
Q 2159 4134 1775 4134 
Q 1369 4134 1125 3890 
Q 881 3647 878 3216 
L 300 3275 
Q 359 3922 746 4261 
Q 1134 4600 1788 4600 
Q 2447 4600 2831 4234 
Q 3216 3869 3216 3328 
Q 3216 3053 3103 2787 
Q 2991 2522 2730 2228 
Q 2469 1934 1863 1422 
Q 1356 997 1212 845 
Q 1069 694 975 541 
L 3222 541 
z
" transform="scale(0.015625)"/>
        <path id="ArialMT-30" d="M 266 2259 
Q 266 3072 433 3567 
Q 600 4063 929 4331 
Q 1259 4600 1759 4600 
Q 2128 4600 2406 4451 
Q 2684 4303 2865 4023 
Q 3047 3744 3150 3342 
Q 3253 2941 3253 2259 
Q 3253 1453 3087 958 
Q 2922 463 2592 192 
Q 2263 -78 1759 -78 
Q 1097 -78 719 397 
Q 266 969 266 2259 
z
M 844 2259 
Q 844 1131 1108 757 
Q 1372 384 1759 384 
Q 2147 384 2411 759 
Q 2675 1134 2675 2259 
Q 2675 3391 2411 3762 
Q 2147 4134 1753 4134 
Q 1366 4134 1134 3806 
Q 844 3388 844 2259 
z
" transform="scale(0.015625)"/>
       </defs>
       <use xlink:href="#ArialMT-32"/>
       <use xlink:href="#ArialMT-30" x="55.615234"/>
      </g>
     </g>
    </g>
    <g id="xtick_3">
     <g id="line2d_3">
      <g>
       <use xlink:href="#m3871d785a6" x="76.595778" y="89.218327" style="stroke: #000000; stroke-width: 0.25"/>
      </g>
     </g>
     <g id="text_3">
      <!-- 25 -->
      <g transform="translate(73.815309 97.297233) scale(0.05 -0.05)">
       <use xlink:href="#ArialMT-32"/>
       <use xlink:href="#ArialMT-35" x="55.615234"/>
      </g>
     </g>
    </g>
    <g id="xtick_4">
     <g id="line2d_4">
      <g>
       <use xlink:href="#m3871d785a6" x="99.337234" y="89.218327" style="stroke: #000000; stroke-width: 0.25"/>
      </g>
     </g>
     <g id="text_4">
      <!-- 30 -->
      <g transform="translate(96.556766 97.297233) scale(0.05 -0.05)">
       <defs>
        <path id="ArialMT-33" d="M 269 1209 
L 831 1284 
Q 928 806 1161 595 
Q 1394 384 1728 384 
Q 2125 384 2398 659 
Q 2672 934 2672 1341 
Q 2672 1728 2419 1979 
Q 2166 2231 1775 2231 
Q 1616 2231 1378 2169 
L 1441 2663 
Q 1497 2656 1531 2656 
Q 1891 2656 2178 2843 
Q 2466 3031 2466 3422 
Q 2466 3731 2256 3934 
Q 2047 4138 1716 4138 
Q 1388 4138 1169 3931 
Q 950 3725 888 3313 
L 325 3413 
Q 428 3978 793 4289 
Q 1159 4600 1703 4600 
Q 2078 4600 2393 4439 
Q 2709 4278 2876 4000 
Q 3044 3722 3044 3409 
Q 3044 3113 2884 2869 
Q 2725 2625 2413 2481 
Q 2819 2388 3044 2092 
Q 3269 1797 3269 1353 
Q 3269 753 2831 336 
Q 2394 -81 1725 -81 
Q 1122 -81 723 278 
Q 325 638 269 1209 
z
" transform="scale(0.015625)"/>
       </defs>
       <use xlink:href="#ArialMT-33"/>
       <use xlink:href="#ArialMT-30" x="55.615234"/>
      </g>
     </g>
    </g>
    <g id="xtick_5">
     <g id="line2d_5">
      <g>
       <use xlink:href="#m3871d785a6" x="122.078691" y="89.218327" style="stroke: #000000; stroke-width: 0.25"/>
      </g>
     </g>
     <g id="text_5">
      <!-- 35 -->
      <g transform="translate(119.298222 97.297233) scale(0.05 -0.05)">
       <use xlink:href="#ArialMT-33"/>
       <use xlink:href="#ArialMT-35" x="55.615234"/>
      </g>
     </g>
    </g>
    <g id="xtick_6">
     <g id="line2d_6">
      <g>
       <use xlink:href="#m3871d785a6" x="144.820148" y="89.218327" style="stroke: #000000; stroke-width: 0.25"/>
      </g>
     </g>
     <g id="text_6">
      <!-- 40 -->
      <g transform="translate(142.039679 97.297233) scale(0.05 -0.05)">
       <defs>
        <path id="ArialMT-34" d="M 2069 0 
L 2069 1097 
L 81 1097 
L 81 1613 
L 2172 4581 
L 2631 4581 
L 2631 1613 
L 3250 1613 
L 3250 1097 
L 2631 1097 
L 2631 0 
L 2069 0 
z
M 2069 1613 
L 2069 3678 
L 634 1613 
L 2069 1613 
z
" transform="scale(0.015625)"/>
       </defs>
       <use xlink:href="#ArialMT-34"/>
       <use xlink:href="#ArialMT-30" x="55.615234"/>
      </g>
     </g>
    </g>
    <g id="text_7">
     <!-- Age of last continuous full-time education [years] -->
     <g transform="translate(23.435568 106.658796) scale(0.06 -0.06)">
      <defs>
       <path id="ArialMT-41" d="M -9 0 
L 1750 4581 
L 2403 4581 
L 4278 0 
L 3588 0 
L 3053 1388 
L 1138 1388 
L 634 0 
L -9 0 
z
M 1313 1881 
L 2866 1881 
L 2388 3150 
Q 2169 3728 2063 4100 
Q 1975 3659 1816 3225 
L 1313 1881 
z
" transform="scale(0.015625)"/>
       <path id="ArialMT-67" d="M 319 -275 
L 866 -356 
Q 900 -609 1056 -725 
Q 1266 -881 1628 -881 
Q 2019 -881 2231 -725 
Q 2444 -569 2519 -288 
Q 2563 -116 2559 434 
Q 2191 0 1641 0 
Q 956 0 581 494 
Q 206 988 206 1678 
Q 206 2153 378 2554 
Q 550 2956 876 3175 
Q 1203 3394 1644 3394 
Q 2231 3394 2613 2919 
L 2613 3319 
L 3131 3319 
L 3131 450 
Q 3131 -325 2973 -648 
Q 2816 -972 2473 -1159 
Q 2131 -1347 1631 -1347 
Q 1038 -1347 672 -1080 
Q 306 -813 319 -275 
z
M 784 1719 
Q 784 1066 1043 766 
Q 1303 466 1694 466 
Q 2081 466 2343 764 
Q 2606 1063 2606 1700 
Q 2606 2309 2336 2618 
Q 2066 2928 1684 2928 
Q 1309 2928 1046 2623 
Q 784 2319 784 1719 
z
" transform="scale(0.015625)"/>
       <path id="ArialMT-65" d="M 2694 1069 
L 3275 997 
Q 3138 488 2766 206 
Q 2394 -75 1816 -75 
Q 1088 -75 661 373 
Q 234 822 234 1631 
Q 234 2469 665 2931 
Q 1097 3394 1784 3394 
Q 2450 3394 2872 2941 
Q 3294 2488 3294 1666 
Q 3294 1616 3291 1516 
L 816 1516 
Q 847 969 1125 678 
Q 1403 388 1819 388 
Q 2128 388 2347 550 
Q 2566 713 2694 1069 
z
M 847 1978 
L 2700 1978 
Q 2663 2397 2488 2606 
Q 2219 2931 1791 2931 
Q 1403 2931 1139 2672 
Q 875 2413 847 1978 
z
" transform="scale(0.015625)"/>
       <path id="ArialMT-20" transform="scale(0.015625)"/>
       <path id="ArialMT-6f" d="M 213 1659 
Q 213 2581 725 3025 
Q 1153 3394 1769 3394 
Q 2453 3394 2887 2945 
Q 3322 2497 3322 1706 
Q 3322 1066 3130 698 
Q 2938 331 2570 128 
Q 2203 -75 1769 -75 
Q 1072 -75 642 372 
Q 213 819 213 1659 
z
M 791 1659 
Q 791 1022 1069 705 
Q 1347 388 1769 388 
Q 2188 388 2466 706 
Q 2744 1025 2744 1678 
Q 2744 2294 2464 2611 
Q 2184 2928 1769 2928 
Q 1347 2928 1069 2612 
Q 791 2297 791 1659 
z
" transform="scale(0.015625)"/>
       <path id="ArialMT-66" d="M 556 0 
L 556 2881 
L 59 2881 
L 59 3319 
L 556 3319 
L 556 3672 
Q 556 4006 616 4169 
Q 697 4388 901 4523 
Q 1106 4659 1475 4659 
Q 1713 4659 2000 4603 
L 1916 4113 
Q 1741 4144 1584 4144 
Q 1328 4144 1222 4034 
Q 1116 3925 1116 3625 
L 1116 3319 
L 1763 3319 
L 1763 2881 
L 1116 2881 
L 1116 0 
L 556 0 
z
" transform="scale(0.015625)"/>
       <path id="ArialMT-6c" d="M 409 0 
L 409 4581 
L 972 4581 
L 972 0 
L 409 0 
z
" transform="scale(0.015625)"/>
       <path id="ArialMT-61" d="M 2588 409 
Q 2275 144 1986 34 
Q 1697 -75 1366 -75 
Q 819 -75 525 192 
Q 231 459 231 875 
Q 231 1119 342 1320 
Q 453 1522 633 1644 
Q 813 1766 1038 1828 
Q 1203 1872 1538 1913 
Q 2219 1994 2541 2106 
Q 2544 2222 2544 2253 
Q 2544 2597 2384 2738 
Q 2169 2928 1744 2928 
Q 1347 2928 1158 2789 
Q 969 2650 878 2297 
L 328 2372 
Q 403 2725 575 2942 
Q 747 3159 1072 3276 
Q 1397 3394 1825 3394 
Q 2250 3394 2515 3294 
Q 2781 3194 2906 3042 
Q 3031 2891 3081 2659 
Q 3109 2516 3109 2141 
L 3109 1391 
Q 3109 606 3145 398 
Q 3181 191 3288 0 
L 2700 0 
Q 2613 175 2588 409 
z
M 2541 1666 
Q 2234 1541 1622 1453 
Q 1275 1403 1131 1340 
Q 988 1278 909 1158 
Q 831 1038 831 891 
Q 831 666 1001 516 
Q 1172 366 1500 366 
Q 1825 366 2078 508 
Q 2331 650 2450 897 
Q 2541 1088 2541 1459 
L 2541 1666 
z
" transform="scale(0.015625)"/>
       <path id="ArialMT-73" d="M 197 991 
L 753 1078 
Q 800 744 1014 566 
Q 1228 388 1613 388 
Q 2000 388 2187 545 
Q 2375 703 2375 916 
Q 2375 1106 2209 1216 
Q 2094 1291 1634 1406 
Q 1016 1563 777 1677 
Q 538 1791 414 1992 
Q 291 2194 291 2438 
Q 291 2659 392 2848 
Q 494 3038 669 3163 
Q 800 3259 1026 3326 
Q 1253 3394 1513 3394 
Q 1903 3394 2198 3281 
Q 2494 3169 2634 2976 
Q 2775 2784 2828 2463 
L 2278 2388 
Q 2241 2644 2061 2787 
Q 1881 2931 1553 2931 
Q 1166 2931 1000 2803 
Q 834 2675 834 2503 
Q 834 2394 903 2306 
Q 972 2216 1119 2156 
Q 1203 2125 1616 2013 
Q 2213 1853 2448 1751 
Q 2684 1650 2818 1456 
Q 2953 1263 2953 975 
Q 2953 694 2789 445 
Q 2625 197 2315 61 
Q 2006 -75 1616 -75 
Q 969 -75 630 194 
Q 291 463 197 991 
z
" transform="scale(0.015625)"/>
       <path id="ArialMT-74" d="M 1650 503 
L 1731 6 
Q 1494 -44 1306 -44 
Q 1000 -44 831 53 
Q 663 150 594 308 
Q 525 466 525 972 
L 525 2881 
L 113 2881 
L 113 3319 
L 525 3319 
L 525 4141 
L 1084 4478 
L 1084 3319 
L 1650 3319 
L 1650 2881 
L 1084 2881 
L 1084 941 
Q 1084 700 1114 631 
Q 1144 563 1211 522 
Q 1278 481 1403 481 
Q 1497 481 1650 503 
z
" transform="scale(0.015625)"/>
       <path id="ArialMT-63" d="M 2588 1216 
L 3141 1144 
Q 3050 572 2676 248 
Q 2303 -75 1759 -75 
Q 1078 -75 664 370 
Q 250 816 250 1647 
Q 250 2184 428 2587 
Q 606 2991 970 3192 
Q 1334 3394 1763 3394 
Q 2303 3394 2647 3120 
Q 2991 2847 3088 2344 
L 2541 2259 
Q 2463 2594 2264 2762 
Q 2066 2931 1784 2931 
Q 1359 2931 1093 2626 
Q 828 2322 828 1663 
Q 828 994 1084 691 
Q 1341 388 1753 388 
Q 2084 388 2306 591 
Q 2528 794 2588 1216 
z
" transform="scale(0.015625)"/>
       <path id="ArialMT-6e" d="M 422 0 
L 422 3319 
L 928 3319 
L 928 2847 
Q 1294 3394 1984 3394 
Q 2284 3394 2536 3286 
Q 2788 3178 2913 3003 
Q 3038 2828 3088 2588 
Q 3119 2431 3119 2041 
L 3119 0 
L 2556 0 
L 2556 2019 
Q 2556 2363 2490 2533 
Q 2425 2703 2258 2804 
Q 2091 2906 1866 2906 
Q 1506 2906 1245 2678 
Q 984 2450 984 1813 
L 984 0 
L 422 0 
z
" transform="scale(0.015625)"/>
       <path id="ArialMT-69" d="M 425 3934 
L 425 4581 
L 988 4581 
L 988 3934 
L 425 3934 
z
M 425 0 
L 425 3319 
L 988 3319 
L 988 0 
L 425 0 
z
" transform="scale(0.015625)"/>
       <path id="ArialMT-75" d="M 2597 0 
L 2597 488 
Q 2209 -75 1544 -75 
Q 1250 -75 995 37 
Q 741 150 617 320 
Q 494 491 444 738 
Q 409 903 409 1263 
L 409 3319 
L 972 3319 
L 972 1478 
Q 972 1038 1006 884 
Q 1059 663 1231 536 
Q 1403 409 1656 409 
Q 1909 409 2131 539 
Q 2353 669 2445 892 
Q 2538 1116 2538 1541 
L 2538 3319 
L 3100 3319 
L 3100 0 
L 2597 0 
z
" transform="scale(0.015625)"/>
       <path id="ArialMT-2d" d="M 203 1375 
L 203 1941 
L 1931 1941 
L 1931 1375 
L 203 1375 
z
" transform="scale(0.015625)"/>
       <path id="ArialMT-6d" d="M 422 0 
L 422 3319 
L 925 3319 
L 925 2853 
Q 1081 3097 1340 3245 
Q 1600 3394 1931 3394 
Q 2300 3394 2536 3241 
Q 2772 3088 2869 2813 
Q 3263 3394 3894 3394 
Q 4388 3394 4653 3120 
Q 4919 2847 4919 2278 
L 4919 0 
L 4359 0 
L 4359 2091 
Q 4359 2428 4304 2576 
Q 4250 2725 4106 2815 
Q 3963 2906 3769 2906 
Q 3419 2906 3187 2673 
Q 2956 2441 2956 1928 
L 2956 0 
L 2394 0 
L 2394 2156 
Q 2394 2531 2256 2718 
Q 2119 2906 1806 2906 
Q 1569 2906 1367 2781 
Q 1166 2656 1075 2415 
Q 984 2175 984 1722 
L 984 0 
L 422 0 
z
" transform="scale(0.015625)"/>
       <path id="ArialMT-64" d="M 2575 0 
L 2575 419 
Q 2259 -75 1647 -75 
Q 1250 -75 917 144 
Q 584 363 401 755 
Q 219 1147 219 1656 
Q 219 2153 384 2558 
Q 550 2963 881 3178 
Q 1213 3394 1622 3394 
Q 1922 3394 2156 3267 
Q 2391 3141 2538 2938 
L 2538 4581 
L 3097 4581 
L 3097 0 
L 2575 0 
z
M 797 1656 
Q 797 1019 1065 703 
Q 1334 388 1700 388 
Q 2069 388 2326 689 
Q 2584 991 2584 1609 
Q 2584 2291 2321 2609 
Q 2059 2928 1675 2928 
Q 1300 2928 1048 2622 
Q 797 2316 797 1656 
z
" transform="scale(0.015625)"/>
       <path id="ArialMT-5b" d="M 434 -1272 
L 434 4581 
L 1675 4581 
L 1675 4116 
L 997 4116 
L 997 -806 
L 1675 -806 
L 1675 -1272 
L 434 -1272 
z
" transform="scale(0.015625)"/>
       <path id="ArialMT-79" d="M 397 -1278 
L 334 -750 
Q 519 -800 656 -800 
Q 844 -800 956 -737 
Q 1069 -675 1141 -563 
Q 1194 -478 1313 -144 
Q 1328 -97 1363 -6 
L 103 3319 
L 709 3319 
L 1400 1397 
Q 1534 1031 1641 628 
Q 1738 1016 1872 1384 
L 2581 3319 
L 3144 3319 
L 1881 -56 
Q 1678 -603 1566 -809 
Q 1416 -1088 1222 -1217 
Q 1028 -1347 759 -1347 
Q 597 -1347 397 -1278 
z
" transform="scale(0.015625)"/>
       <path id="ArialMT-72" d="M 416 0 
L 416 3319 
L 922 3319 
L 922 2816 
Q 1116 3169 1280 3281 
Q 1444 3394 1641 3394 
Q 1925 3394 2219 3213 
L 2025 2691 
Q 1819 2813 1613 2813 
Q 1428 2813 1281 2702 
Q 1134 2591 1072 2394 
Q 978 2094 978 1738 
L 978 0 
L 416 0 
z
" transform="scale(0.015625)"/>
       <path id="ArialMT-5d" d="M 1363 -1272 
L 122 -1272 
L 122 -806 
L 800 -806 
L 800 4116 
L 122 4116 
L 122 4581 
L 1363 4581 
L 1363 -1272 
z
" transform="scale(0.015625)"/>
      </defs>
      <use xlink:href="#ArialMT-41"/>
      <use xlink:href="#ArialMT-67" x="66.699219"/>
      <use xlink:href="#ArialMT-65" x="122.314453"/>
      <use xlink:href="#ArialMT-20" x="177.929688"/>
      <use xlink:href="#ArialMT-6f" x="205.712891"/>
      <use xlink:href="#ArialMT-66" x="261.328125"/>
      <use xlink:href="#ArialMT-20" x="289.111328"/>
      <use xlink:href="#ArialMT-6c" x="316.894531"/>
      <use xlink:href="#ArialMT-61" x="339.111328"/>
      <use xlink:href="#ArialMT-73" x="394.726562"/>
      <use xlink:href="#ArialMT-74" x="444.726562"/>
      <use xlink:href="#ArialMT-20" x="472.509766"/>
      <use xlink:href="#ArialMT-63" x="500.292969"/>
      <use xlink:href="#ArialMT-6f" x="550.292969"/>
      <use xlink:href="#ArialMT-6e" x="605.908203"/>
      <use xlink:href="#ArialMT-74" x="661.523438"/>
      <use xlink:href="#ArialMT-69" x="689.306641"/>
      <use xlink:href="#ArialMT-6e" x="711.523438"/>
      <use xlink:href="#ArialMT-75" x="767.138672"/>
      <use xlink:href="#ArialMT-6f" x="822.753906"/>
      <use xlink:href="#ArialMT-75" x="878.369141"/>
      <use xlink:href="#ArialMT-73" x="933.984375"/>
      <use xlink:href="#ArialMT-20" x="983.984375"/>
      <use xlink:href="#ArialMT-66" x="1011.767578"/>
      <use xlink:href="#ArialMT-75" x="1039.550781"/>
      <use xlink:href="#ArialMT-6c" x="1095.166016"/>
      <use xlink:href="#ArialMT-6c" x="1117.382812"/>
      <use xlink:href="#ArialMT-2d" x="1139.599609"/>
      <use xlink:href="#ArialMT-74" x="1172.900391"/>
      <use xlink:href="#ArialMT-69" x="1200.683594"/>
      <use xlink:href="#ArialMT-6d" x="1222.900391"/>
      <use xlink:href="#ArialMT-65" x="1306.201172"/>
      <use xlink:href="#ArialMT-20" x="1361.816406"/>
      <use xlink:href="#ArialMT-65" x="1389.599609"/>
      <use xlink:href="#ArialMT-64" x="1445.214844"/>
      <use xlink:href="#ArialMT-75" x="1500.830078"/>
      <use xlink:href="#ArialMT-63" x="1556.445312"/>
      <use xlink:href="#ArialMT-61" x="1606.445312"/>
      <use xlink:href="#ArialMT-74" x="1662.060547"/>
      <use xlink:href="#ArialMT-69" x="1689.84375"/>
      <use xlink:href="#ArialMT-6f" x="1712.060547"/>
      <use xlink:href="#ArialMT-6e" x="1767.675781"/>
      <use xlink:href="#ArialMT-20" x="1823.291016"/>
      <use xlink:href="#ArialMT-5b" x="1851.074219"/>
      <use xlink:href="#ArialMT-79" x="1878.857422"/>
      <use xlink:href="#ArialMT-65" x="1928.857422"/>
      <use xlink:href="#ArialMT-61" x="1984.472656"/>
      <use xlink:href="#ArialMT-72" x="2040.087891"/>
      <use xlink:href="#ArialMT-73" x="2073.388672"/>
      <use xlink:href="#ArialMT-5d" x="2123.388672"/>
     </g>
    </g>
   </g>
   <g id="matplotlib.axis_2">
    <g id="ytick_1">
     <g id="line2d_7">
      <defs>
       <path id="m47b979f424" d="M 0 0 
L -3.5 0 
" style="stroke: #000000; stroke-width: 0.25"/>
      </defs>
      <g>
       <use xlink:href="#m47b979f424" x="25.4275" y="78.292718" style="stroke: #000000; stroke-width: 0.25"/>
      </g>
     </g>
     <g id="text_8">
      <!-- 0 -->
      <g transform="translate(18.147031 80.082171) scale(0.05 -0.05)">
       <use xlink:href="#ArialMT-30"/>
      </g>
     </g>
    </g>
    <g id="ytick_2">
     <g id="line2d_8">
      <g>
       <use xlink:href="#m47b979f424" x="25.4275" y="65.956504" style="stroke: #000000; stroke-width: 0.25"/>
      </g>
     </g>
     <g id="text_9">
      <!-- 5 -->
      <g transform="translate(18.147031 67.745958) scale(0.05 -0.05)">
       <use xlink:href="#ArialMT-35"/>
      </g>
     </g>
    </g>
    <g id="ytick_3">
     <g id="line2d_9">
      <g>
       <use xlink:href="#m47b979f424" x="25.4275" y="53.620291" style="stroke: #000000; stroke-width: 0.25"/>
      </g>
     </g>
     <g id="text_10">
      <!-- 10 -->
      <g transform="translate(15.366562 55.409744) scale(0.05 -0.05)">
       <use xlink:href="#ArialMT-31"/>
       <use xlink:href="#ArialMT-30" x="55.615234"/>
      </g>
     </g>
    </g>
    <g id="ytick_4">
     <g id="line2d_10">
      <g>
       <use xlink:href="#m47b979f424" x="25.4275" y="41.284078" style="stroke: #000000; stroke-width: 0.25"/>
      </g>
     </g>
     <g id="text_11">
      <!-- 15 -->
      <g transform="translate(15.366562 43.073531) scale(0.05 -0.05)">
       <use xlink:href="#ArialMT-31"/>
       <use xlink:href="#ArialMT-35" x="55.615234"/>
      </g>
     </g>
    </g>
    <g id="ytick_5">
     <g id="line2d_11">
      <g>
       <use xlink:href="#m47b979f424" x="25.4275" y="28.947865" style="stroke: #000000; stroke-width: 0.25"/>
      </g>
     </g>
     <g id="text_12">
      <!-- 20 -->
      <g transform="translate(15.366562 30.737318) scale(0.05 -0.05)">
       <use xlink:href="#ArialMT-32"/>
       <use xlink:href="#ArialMT-30" x="55.615234"/>
      </g>
     </g>
    </g>
    <g id="ytick_6">
     <g id="line2d_12">
      <g>
       <use xlink:href="#m47b979f424" x="25.4275" y="16.611652" style="stroke: #000000; stroke-width: 0.25"/>
      </g>
     </g>
     <g id="text_13">
      <!-- 25 -->
      <g transform="translate(15.366562 18.401105) scale(0.05 -0.05)">
       <use xlink:href="#ArialMT-32"/>
       <use xlink:href="#ArialMT-35" x="55.615234"/>
      </g>
     </g>
    </g>
    <g id="text_14">
     <!-- Number supranormal deviations [a.u.] -->
     <g transform="translate(10.174062 97.329945) rotate(-90) scale(0.06 -0.06)">
      <defs>
       <path id="ArialMT-4e" d="M 488 0 
L 488 4581 
L 1109 4581 
L 3516 984 
L 3516 4581 
L 4097 4581 
L 4097 0 
L 3475 0 
L 1069 3600 
L 1069 0 
L 488 0 
z
" transform="scale(0.015625)"/>
       <path id="ArialMT-62" d="M 941 0 
L 419 0 
L 419 4581 
L 981 4581 
L 981 2947 
Q 1338 3394 1891 3394 
Q 2197 3394 2470 3270 
Q 2744 3147 2920 2923 
Q 3097 2700 3197 2384 
Q 3297 2069 3297 1709 
Q 3297 856 2875 390 
Q 2453 -75 1863 -75 
Q 1275 -75 941 416 
L 941 0 
z
M 934 1684 
Q 934 1088 1097 822 
Q 1363 388 1816 388 
Q 2184 388 2453 708 
Q 2722 1028 2722 1663 
Q 2722 2313 2464 2622 
Q 2206 2931 1841 2931 
Q 1472 2931 1203 2611 
Q 934 2291 934 1684 
z
" transform="scale(0.015625)"/>
       <path id="ArialMT-70" d="M 422 -1272 
L 422 3319 
L 934 3319 
L 934 2888 
Q 1116 3141 1344 3267 
Q 1572 3394 1897 3394 
Q 2322 3394 2647 3175 
Q 2972 2956 3137 2557 
Q 3303 2159 3303 1684 
Q 3303 1175 3120 767 
Q 2938 359 2589 142 
Q 2241 -75 1856 -75 
Q 1575 -75 1351 44 
Q 1128 163 984 344 
L 984 -1272 
L 422 -1272 
z
M 931 1641 
Q 931 1000 1190 694 
Q 1450 388 1819 388 
Q 2194 388 2461 705 
Q 2728 1022 2728 1688 
Q 2728 2322 2467 2637 
Q 2206 2953 1844 2953 
Q 1484 2953 1207 2617 
Q 931 2281 931 1641 
z
" transform="scale(0.015625)"/>
       <path id="ArialMT-76" d="M 1344 0 
L 81 3319 
L 675 3319 
L 1388 1331 
Q 1503 1009 1600 663 
Q 1675 925 1809 1294 
L 2547 3319 
L 3125 3319 
L 1869 0 
L 1344 0 
z
" transform="scale(0.015625)"/>
       <path id="ArialMT-2e" d="M 581 0 
L 581 641 
L 1222 641 
L 1222 0 
L 581 0 
z
" transform="scale(0.015625)"/>
      </defs>
      <use xlink:href="#ArialMT-4e"/>
      <use xlink:href="#ArialMT-75" x="72.216797"/>
      <use xlink:href="#ArialMT-6d" x="127.832031"/>
      <use xlink:href="#ArialMT-62" x="211.132812"/>
      <use xlink:href="#ArialMT-65" x="266.748047"/>
      <use xlink:href="#ArialMT-72" x="322.363281"/>
      <use xlink:href="#ArialMT-20" x="355.664062"/>
      <use xlink:href="#ArialMT-73" x="383.447266"/>
      <use xlink:href="#ArialMT-75" x="433.447266"/>
      <use xlink:href="#ArialMT-70" x="489.0625"/>
      <use xlink:href="#ArialMT-72" x="544.677734"/>
      <use xlink:href="#ArialMT-61" x="577.978516"/>
      <use xlink:href="#ArialMT-6e" x="633.59375"/>
      <use xlink:href="#ArialMT-6f" x="689.208984"/>
      <use xlink:href="#ArialMT-72" x="744.824219"/>
      <use xlink:href="#ArialMT-6d" x="778.125"/>
      <use xlink:href="#ArialMT-61" x="861.425781"/>
      <use xlink:href="#ArialMT-6c" x="917.041016"/>
      <use xlink:href="#ArialMT-20" x="939.257812"/>
      <use xlink:href="#ArialMT-64" x="967.041016"/>
      <use xlink:href="#ArialMT-65" x="1022.65625"/>
      <use xlink:href="#ArialMT-76" x="1078.271484"/>
      <use xlink:href="#ArialMT-69" x="1128.271484"/>
      <use xlink:href="#ArialMT-61" x="1150.488281"/>
      <use xlink:href="#ArialMT-74" x="1206.103516"/>
      <use xlink:href="#ArialMT-69" x="1233.886719"/>
      <use xlink:href="#ArialMT-6f" x="1256.103516"/>
      <use xlink:href="#ArialMT-6e" x="1311.71875"/>
      <use xlink:href="#ArialMT-73" x="1367.333984"/>
      <use xlink:href="#ArialMT-20" x="1417.333984"/>
      <use xlink:href="#ArialMT-5b" x="1445.117188"/>
      <use xlink:href="#ArialMT-61" x="1472.900391"/>
      <use xlink:href="#ArialMT-2e" x="1528.515625"/>
      <use xlink:href="#ArialMT-75" x="1556.298828"/>
      <use xlink:href="#ArialMT-2e" x="1611.914062"/>
      <use xlink:href="#ArialMT-5d" x="1639.697266"/>
     </g>
    </g>
   </g>
   <g id="line2d_13">
    <path d="M 31.112864 70.220693 
L 32.261423 70.252915 
L 33.409981 70.285138 
L 34.558539 70.31736 
L 35.707098 70.349582 
L 36.855656 70.381804 
L 38.004215 70.414026 
L 39.152773 70.446249 
L 40.301332 70.478471 
L 41.44989 70.510693 
L 42.598448 70.542915 
L 43.747007 70.575137 
L 44.895565 70.607359 
L 46.044124 70.639582 
L 47.192682 70.671804 
L 48.34124 70.704026 
L 49.489799 70.736248 
L 50.638357 70.76847 
L 51.786916 70.800692 
L 52.935474 70.832915 
L 54.084033 70.865137 
L 55.232591 70.897359 
L 56.381149 70.929581 
L 57.529708 70.961803 
L 58.678266 70.994025 
L 59.826825 71.026248 
L 60.975383 71.05847 
L 62.123941 71.090692 
L 63.2725 71.122914 
L 64.421058 71.155136 
L 65.569617 71.187358 
L 66.718175 71.219581 
L 67.866734 71.251803 
L 69.015292 71.284025 
L 70.16385 71.316247 
L 71.312409 71.348469 
L 72.460967 71.380692 
L 73.609526 71.412914 
L 74.758084 71.445136 
L 75.906643 71.477358 
L 77.055201 71.50958 
L 78.203759 71.541802 
L 79.352318 71.574025 
L 80.500876 71.606247 
L 81.649435 71.638469 
L 82.797993 71.670691 
L 83.946551 71.702913 
L 85.09511 71.735135 
L 86.243668 71.767358 
L 87.392227 71.79958 
L 88.540785 71.831802 
L 89.689344 71.864024 
L 90.837902 71.896246 
L 91.98646 71.928468 
L 93.135019 71.960691 
L 94.283577 71.992913 
L 95.432136 72.025135 
L 96.580694 72.057357 
L 97.729252 72.089579 
L 98.877811 72.121801 
L 100.026369 72.154024 
L 101.174928 72.186246 
L 102.323486 72.218468 
L 103.472045 72.25069 
L 104.620603 72.282912 
L 105.769161 72.315135 
L 106.91772 72.347357 
L 108.066278 72.379579 
L 109.214837 72.411801 
L 110.363395 72.444023 
L 111.511953 72.476245 
L 112.660512 72.508468 
L 113.80907 72.54069 
L 114.957629 72.572912 
L 116.106187 72.605134 
L 117.254746 72.637356 
L 118.403304 72.669578 
L 119.551862 72.701801 
L 120.700421 72.734023 
L 121.848979 72.766245 
L 122.997538 72.798467 
L 124.146096 72.830689 
L 125.294655 72.862911 
L 126.443213 72.895134 
L 127.591771 72.927356 
L 128.74033 72.959578 
L 129.888888 72.9918 
L 131.037447 73.024022 
L 132.186005 73.056244 
L 133.334563 73.088467 
L 134.483122 73.120689 
L 135.63168 73.152911 
L 136.780239 73.185133 
L 137.928797 73.217355 
L 139.077356 73.249578 
L 140.225914 73.2818 
L 141.374472 73.314022 
L 142.523031 73.346244 
L 143.671589 73.378466 
L 144.820148 73.410688 
" clip-path="url(#p305b118e00)" style="fill: none; stroke: #ff8c00; stroke-width: 0.75; stroke-linecap: square"/>
   </g>
   <g id="patch_3">
    <path d="M 25.4275 89.218327 
L 25.4275 5.4 
" style="fill: none; stroke: #000000; stroke-width: 0.25; stroke-linejoin: miter; stroke-linecap: square"/>
   </g>
   <g id="patch_4">
    <path d="M 25.4275 89.218327 
L 150.505512 89.218327 
" style="fill: none; stroke: #000000; stroke-width: 0.25; stroke-linejoin: miter; stroke-linecap: square"/>
   </g>
   <g id="text_15">
    <g id="patch_5">
     <path d="M 29.17984 18.699023 
L 57.82984 18.699023 
Q 59.32984 18.699023 59.32984 17.199023 
L 59.32984 7.132617 
Q 59.32984 5.632617 57.82984 5.632617 
L 29.17984 5.632617 
Q 27.67984 5.632617 27.67984 7.132617 
L 27.67984 17.199023 
Q 27.67984 18.699023 29.17984 18.699023 
z
" style="fill: #c0c0c0; opacity: 0.4; stroke: #c0c0c0; stroke-linejoin: miter"/>
    </g>
    <!-- $r=-0.083$ -->
    <g transform="translate(29.17984 10.655273) scale(0.05 -0.05)">
     <defs>
      <path id="DejaVuSans-Oblique-72" d="M 2853 2969 
Q 2766 3016 2653 3041 
Q 2541 3066 2413 3066 
Q 1953 3066 1609 2717 
Q 1266 2369 1153 1784 
L 800 0 
L 225 0 
L 909 3500 
L 1484 3500 
L 1375 2956 
Q 1603 3259 1920 3421 
Q 2238 3584 2597 3584 
Q 2691 3584 2781 3573 
Q 2872 3563 2963 3538 
L 2853 2969 
z
" transform="scale(0.015625)"/>
      <path id="DejaVuSans-3d" d="M 678 2906 
L 4684 2906 
L 4684 2381 
L 678 2381 
L 678 2906 
z
M 678 1631 
L 4684 1631 
L 4684 1100 
L 678 1100 
L 678 1631 
z
" transform="scale(0.015625)"/>
      <path id="DejaVuSans-2212" d="M 678 2272 
L 4684 2272 
L 4684 1741 
L 678 1741 
L 678 2272 
z
" transform="scale(0.015625)"/>
      <path id="DejaVuSans-30" d="M 2034 4250 
Q 1547 4250 1301 3770 
Q 1056 3291 1056 2328 
Q 1056 1369 1301 889 
Q 1547 409 2034 409 
Q 2525 409 2770 889 
Q 3016 1369 3016 2328 
Q 3016 3291 2770 3770 
Q 2525 4250 2034 4250 
z
M 2034 4750 
Q 2819 4750 3233 4129 
Q 3647 3509 3647 2328 
Q 3647 1150 3233 529 
Q 2819 -91 2034 -91 
Q 1250 -91 836 529 
Q 422 1150 422 2328 
Q 422 3509 836 4129 
Q 1250 4750 2034 4750 
z
" transform="scale(0.015625)"/>
      <path id="DejaVuSans-2e" d="M 684 794 
L 1344 794 
L 1344 0 
L 684 0 
L 684 794 
z
" transform="scale(0.015625)"/>
      <path id="DejaVuSans-38" d="M 2034 2216 
Q 1584 2216 1326 1975 
Q 1069 1734 1069 1313 
Q 1069 891 1326 650 
Q 1584 409 2034 409 
Q 2484 409 2743 651 
Q 3003 894 3003 1313 
Q 3003 1734 2745 1975 
Q 2488 2216 2034 2216 
z
M 1403 2484 
Q 997 2584 770 2862 
Q 544 3141 544 3541 
Q 544 4100 942 4425 
Q 1341 4750 2034 4750 
Q 2731 4750 3128 4425 
Q 3525 4100 3525 3541 
Q 3525 3141 3298 2862 
Q 3072 2584 2669 2484 
Q 3125 2378 3379 2068 
Q 3634 1759 3634 1313 
Q 3634 634 3220 271 
Q 2806 -91 2034 -91 
Q 1263 -91 848 271 
Q 434 634 434 1313 
Q 434 1759 690 2068 
Q 947 2378 1403 2484 
z
M 1172 3481 
Q 1172 3119 1398 2916 
Q 1625 2713 2034 2713 
Q 2441 2713 2670 2916 
Q 2900 3119 2900 3481 
Q 2900 3844 2670 4047 
Q 2441 4250 2034 4250 
Q 1625 4250 1398 4047 
Q 1172 3844 1172 3481 
z
" transform="scale(0.015625)"/>
      <path id="DejaVuSans-33" d="M 2597 2516 
Q 3050 2419 3304 2112 
Q 3559 1806 3559 1356 
Q 3559 666 3084 287 
Q 2609 -91 1734 -91 
Q 1441 -91 1130 -33 
Q 819 25 488 141 
L 488 750 
Q 750 597 1062 519 
Q 1375 441 1716 441 
Q 2309 441 2620 675 
Q 2931 909 2931 1356 
Q 2931 1769 2642 2001 
Q 2353 2234 1838 2234 
L 1294 2234 
L 1294 2753 
L 1863 2753 
Q 2328 2753 2575 2939 
Q 2822 3125 2822 3475 
Q 2822 3834 2567 4026 
Q 2313 4219 1838 4219 
Q 1578 4219 1281 4162 
Q 984 4106 628 3988 
L 628 4550 
Q 988 4650 1302 4700 
Q 1616 4750 1894 4750 
Q 2613 4750 3031 4423 
Q 3450 4097 3450 3541 
Q 3450 3153 3228 2886 
Q 3006 2619 2597 2516 
z
" transform="scale(0.015625)"/>
     </defs>
     <use xlink:href="#DejaVuSans-Oblique-72" transform="translate(0 0.78125)"/>
     <use xlink:href="#DejaVuSans-3d" transform="translate(60.595703 0.78125)"/>
     <use xlink:href="#DejaVuSans-2212" transform="translate(183.349609 0.78125)"/>
     <use xlink:href="#DejaVuSans-30" transform="translate(286.621094 0.78125)"/>
     <use xlink:href="#DejaVuSans-2e" transform="translate(350.244141 0.78125)"/>
     <use xlink:href="#DejaVuSans-30" transform="translate(382.03125 0.78125)"/>
     <use xlink:href="#DejaVuSans-38" transform="translate(445.654297 0.78125)"/>
     <use xlink:href="#DejaVuSans-33" transform="translate(509.277344 0.78125)"/>
    </g>
    <!-- $p=0.422$ -->
    <g transform="translate(29.17984 16.149023) scale(0.05 -0.05)">
     <defs>
      <path id="DejaVuSans-Oblique-70" d="M 3175 2156 
Q 3175 2616 2975 2859 
Q 2775 3103 2400 3103 
Q 2144 3103 1911 2972 
Q 1678 2841 1497 2591 
Q 1319 2344 1212 1994 
Q 1106 1644 1106 1300 
Q 1106 863 1306 627 
Q 1506 391 1875 391 
Q 2147 391 2380 519 
Q 2613 647 2778 891 
Q 2956 1147 3065 1494 
Q 3175 1841 3175 2156 
z
M 1394 2969 
Q 1625 3272 1939 3428 
Q 2253 3584 2638 3584 
Q 3175 3584 3472 3232 
Q 3769 2881 3769 2247 
Q 3769 1728 3584 1258 
Q 3400 788 3053 416 
Q 2822 169 2531 39 
Q 2241 -91 1919 -91 
Q 1547 -91 1294 64 
Q 1041 219 916 525 
L 556 -1331 
L -19 -1331 
L 922 3500 
L 1497 3500 
L 1394 2969 
z
" transform="scale(0.015625)"/>
      <path id="DejaVuSans-34" d="M 2419 4116 
L 825 1625 
L 2419 1625 
L 2419 4116 
z
M 2253 4666 
L 3047 4666 
L 3047 1625 
L 3713 1625 
L 3713 1100 
L 3047 1100 
L 3047 0 
L 2419 0 
L 2419 1100 
L 313 1100 
L 313 1709 
L 2253 4666 
z
" transform="scale(0.015625)"/>
      <path id="DejaVuSans-32" d="M 1228 531 
L 3431 531 
L 3431 0 
L 469 0 
L 469 531 
Q 828 903 1448 1529 
Q 2069 2156 2228 2338 
Q 2531 2678 2651 2914 
Q 2772 3150 2772 3378 
Q 2772 3750 2511 3984 
Q 2250 4219 1831 4219 
Q 1534 4219 1204 4116 
Q 875 4013 500 3803 
L 500 4441 
Q 881 4594 1212 4672 
Q 1544 4750 1819 4750 
Q 2544 4750 2975 4387 
Q 3406 4025 3406 3419 
Q 3406 3131 3298 2873 
Q 3191 2616 2906 2266 
Q 2828 2175 2409 1742 
Q 1991 1309 1228 531 
z
" transform="scale(0.015625)"/>
     </defs>
     <use xlink:href="#DejaVuSans-Oblique-70" transform="translate(0 0.78125)"/>
     <use xlink:href="#DejaVuSans-3d" transform="translate(82.958984 0.78125)"/>
     <use xlink:href="#DejaVuSans-30" transform="translate(186.230469 0.78125)"/>
     <use xlink:href="#DejaVuSans-2e" transform="translate(249.853516 0.78125)"/>
     <use xlink:href="#DejaVuSans-34" transform="translate(281.640625 0.78125)"/>
     <use xlink:href="#DejaVuSans-32" transform="translate(345.263672 0.78125)"/>
     <use xlink:href="#DejaVuSans-32" transform="translate(408.886719 0.78125)"/>
    </g>
   </g>
  </g>
 </g>
 <defs>
  <clipPath id="p305b118e00">
   <rect x="25.4275" y="5.4" width="125.078012" height="83.818327"/>
  </clipPath>
 </defs>
</svg>
