<?xml version="1.0" encoding="utf-8" standalone="no"?>
<!DOCTYPE svg PUBLIC "-//W3C//DTD SVG 1.1//EN"
  "http://www.w3.org/Graphics/SVG/1.1/DTD/svg11.dtd">
<svg xmlns:xlink="http://www.w3.org/1999/xlink" width="155.905512pt" height="113.385827pt" viewBox="0 0 155.905512 113.385827" xmlns="http://www.w3.org/2000/svg" version="1.1">
 <metadata>
  <rdf:RDF xmlns:dc="http://purl.org/dc/elements/1.1/" xmlns:cc="http://creativecommons.org/ns#" xmlns:rdf="http://www.w3.org/1999/02/22-rdf-syntax-ns#">
   <cc:Work>
    <dc:type rdf:resource="http://purl.org/dc/dcmitype/StillImage"/>
    <dc:date>2025-06-11T09:26:09.128169</dc:date>
    <dc:format>image/svg+xml</dc:format>
    <dc:creator>
     <cc:Agent>
      <dc:title>Matplotlib v3.9.2, https://matplotlib.org/</dc:title>
     </cc:Agent>
    </dc:creator>
   </cc:Work>
  </rdf:RDF>
 </metadata>
 <defs>
  <style type="text/css">*{stroke-linejoin: round; stroke-linecap: butt}</style>
 </defs>
 <g id="figure_1">
  <g id="patch_1">
   <path d="M 0 113.385827 
L 155.905512 113.385827 
L 155.905512 0 
L 0 0 
z
" style="fill: #ffffff"/>
  </g>
  <g id="axes_1">
   <g id="patch_2">
    <path d="M 25.4275 89.218327 
L 150.505512 89.218327 
L 150.505512 5.4 
L 25.4275 5.4 
z
" style="fill: #ffffff"/>
   </g>
   <g id="PathCollection_1">
    <defs>
     <path id="C0_0_48c622e568" d="M 0 0.866025 
C 0.229673 0.866025 0.449969 0.774776 0.612372 0.612372 
C 0.774776 0.449969 0.866025 0.229673 0.866025 -0 
C 0.866025 -0.229673 0.774776 -0.449969 0.612372 -0.612372 
C 0.449969 -0.774776 0.229673 -0.866025 0 -0.866025 
C -0.229673 -0.866025 -0.449969 -0.774776 -0.612372 -0.612372 
C -0.774776 -0.449969 -0.866025 -0.229673 -0.866025 0 
C -0.866025 0.229673 -0.774776 0.449969 -0.612372 0.612372 
C -0.449969 0.774776 -0.229673 0.866025 0 0.866025 
z
"/>
    </defs>
    <g clip-path="url(#pb48073b778)">
     <use xlink:href="#C0_0_48c622e568" x="72.047486" y="71.139091" style="fill: #ff8c00; fill-opacity: 0.8"/>
    </g>
    <g clip-path="url(#pb48073b778)">
     <use xlink:href="#C0_0_48c622e568" x="56.128467" y="84.601953" style="fill: #ff8c00; fill-opacity: 0.8"/>
    </g>
    <g clip-path="url(#pb48073b778)">
     <use xlink:href="#C0_0_48c622e568" x="35.661156" y="81.90938" style="fill: #ff8c00; fill-opacity: 0.8"/>
    </g>
    <g clip-path="url(#pb48073b778)">
     <use xlink:href="#C0_0_48c622e568" x="62.950904" y="81.90938" style="fill: #ff8c00; fill-opacity: 0.8"/>
    </g>
    <g clip-path="url(#pb48073b778)">
     <use xlink:href="#C0_0_48c622e568" x="65.225049" y="81.90938" style="fill: #ff8c00; fill-opacity: 0.8"/>
    </g>
    <g clip-path="url(#pb48073b778)">
     <use xlink:href="#C0_0_48c622e568" x="67.499195" y="81.90938" style="fill: #ff8c00; fill-opacity: 0.8"/>
    </g>
    <g clip-path="url(#pb48073b778)">
     <use xlink:href="#C0_0_48c622e568" x="53.854321" y="9.209924" style="fill: #ff8c00; fill-opacity: 0.8"/>
    </g>
    <g clip-path="url(#pb48073b778)">
     <use xlink:href="#C0_0_48c622e568" x="53.854321" y="68.446518" style="fill: #ff8c00; fill-opacity: 0.8"/>
    </g>
    <g clip-path="url(#pb48073b778)">
     <use xlink:href="#C0_0_48c622e568" x="74.321632" y="68.446518" style="fill: #ff8c00; fill-opacity: 0.8"/>
    </g>
    <g clip-path="url(#pb48073b778)">
     <use xlink:href="#C0_0_48c622e568" x="74.321632" y="79.216808" style="fill: #ff8c00; fill-opacity: 0.8"/>
    </g>
    <g clip-path="url(#pb48073b778)">
     <use xlink:href="#C0_0_48c622e568" x="40.209447" y="68.446518" style="fill: #ff8c00; fill-opacity: 0.8"/>
    </g>
    <g clip-path="url(#pb48073b778)">
     <use xlink:href="#C0_0_48c622e568" x="67.499195" y="79.216808" style="fill: #ff8c00; fill-opacity: 0.8"/>
    </g>
    <g clip-path="url(#pb48073b778)">
     <use xlink:href="#C0_0_48c622e568" x="90.240652" y="81.90938" style="fill: #ff8c00; fill-opacity: 0.8"/>
    </g>
    <g clip-path="url(#pb48073b778)">
     <use xlink:href="#C0_0_48c622e568" x="90.240652" y="76.524235" style="fill: #ff8c00; fill-opacity: 0.8"/>
    </g>
    <g clip-path="url(#pb48073b778)">
     <use xlink:href="#C0_0_48c622e568" x="65.225049" y="81.90938" style="fill: #ff8c00; fill-opacity: 0.8"/>
    </g>
    <g clip-path="url(#pb48073b778)">
     <use xlink:href="#C0_0_48c622e568" x="53.854321" y="84.601953" style="fill: #ff8c00; fill-opacity: 0.8"/>
    </g>
    <g clip-path="url(#pb48073b778)">
     <use xlink:href="#C0_0_48c622e568" x="42.483593" y="79.216808" style="fill: #ff8c00; fill-opacity: 0.8"/>
    </g>
    <g clip-path="url(#pb48073b778)">
     <use xlink:href="#C0_0_48c622e568" x="65.225049" y="81.90938" style="fill: #ff8c00; fill-opacity: 0.8"/>
    </g>
    <g clip-path="url(#pb48073b778)">
     <use xlink:href="#C0_0_48c622e568" x="87.966506" y="84.601953" style="fill: #ff8c00; fill-opacity: 0.8"/>
    </g>
    <g clip-path="url(#pb48073b778)">
     <use xlink:href="#C0_0_48c622e568" x="65.225049" y="81.90938" style="fill: #ff8c00; fill-opacity: 0.8"/>
    </g>
    <g clip-path="url(#pb48073b778)">
     <use xlink:href="#C0_0_48c622e568" x="67.499195" y="73.831663" style="fill: #ff8c00; fill-opacity: 0.8"/>
    </g>
    <g clip-path="url(#pb48073b778)">
     <use xlink:href="#C0_0_48c622e568" x="60.676758" y="79.216808" style="fill: #ff8c00; fill-opacity: 0.8"/>
    </g>
    <g clip-path="url(#pb48073b778)">
     <use xlink:href="#C0_0_48c622e568" x="67.499195" y="65.753946" style="fill: #ff8c00; fill-opacity: 0.8"/>
    </g>
    <g clip-path="url(#pb48073b778)">
     <use xlink:href="#C0_0_48c622e568" x="67.499195" y="81.90938" style="fill: #ff8c00; fill-opacity: 0.8"/>
    </g>
    <g clip-path="url(#pb48073b778)">
     <use xlink:href="#C0_0_48c622e568" x="62.950904" y="73.831663" style="fill: #ff8c00; fill-opacity: 0.8"/>
    </g>
    <g clip-path="url(#pb48073b778)">
     <use xlink:href="#C0_0_48c622e568" x="62.950904" y="79.216808" style="fill: #ff8c00; fill-opacity: 0.8"/>
    </g>
    <g clip-path="url(#pb48073b778)">
     <use xlink:href="#C0_0_48c622e568" x="81.144069" y="81.90938" style="fill: #ff8c00; fill-opacity: 0.8"/>
    </g>
    <g clip-path="url(#pb48073b778)">
     <use xlink:href="#C0_0_48c622e568" x="65.225049" y="79.216808" style="fill: #ff8c00; fill-opacity: 0.8"/>
    </g>
    <g clip-path="url(#pb48073b778)">
     <use xlink:href="#C0_0_48c622e568" x="101.61138" y="79.216808" style="fill: #ff8c00; fill-opacity: 0.8"/>
    </g>
    <g clip-path="url(#pb48073b778)">
     <use xlink:href="#C0_0_48c622e568" x="53.854321" y="81.90938" style="fill: #ff8c00; fill-opacity: 0.8"/>
    </g>
    <g clip-path="url(#pb48073b778)">
     <use xlink:href="#C0_0_48c622e568" x="62.950904" y="81.90938" style="fill: #ff8c00; fill-opacity: 0.8"/>
    </g>
    <g clip-path="url(#pb48073b778)">
     <use xlink:href="#C0_0_48c622e568" x="72.047486" y="79.216808" style="fill: #ff8c00; fill-opacity: 0.8"/>
    </g>
    <g clip-path="url(#pb48073b778)">
     <use xlink:href="#C0_0_48c622e568" x="58.402612" y="76.524235" style="fill: #ff8c00; fill-opacity: 0.8"/>
    </g>
    <g clip-path="url(#pb48073b778)">
     <use xlink:href="#C0_0_48c622e568" x="58.402612" y="81.90938" style="fill: #ff8c00; fill-opacity: 0.8"/>
    </g>
    <g clip-path="url(#pb48073b778)">
     <use xlink:href="#C0_0_48c622e568" x="97.063089" y="81.90938" style="fill: #ff8c00; fill-opacity: 0.8"/>
    </g>
    <g clip-path="url(#pb48073b778)">
     <use xlink:href="#C0_0_48c622e568" x="97.063089" y="84.601953" style="fill: #ff8c00; fill-opacity: 0.8"/>
    </g>
    <g clip-path="url(#pb48073b778)">
     <use xlink:href="#C0_0_48c622e568" x="47.031884" y="81.90938" style="fill: #ff8c00; fill-opacity: 0.8"/>
    </g>
    <g clip-path="url(#pb48073b778)">
     <use xlink:href="#C0_0_48c622e568" x="40.209447" y="81.90938" style="fill: #ff8c00; fill-opacity: 0.8"/>
    </g>
    <g clip-path="url(#pb48073b778)">
     <use xlink:href="#C0_0_48c622e568" x="72.047486" y="65.753946" style="fill: #ff8c00; fill-opacity: 0.8"/>
    </g>
    <g clip-path="url(#pb48073b778)">
     <use xlink:href="#C0_0_48c622e568" x="58.402612" y="79.216808" style="fill: #ff8c00; fill-opacity: 0.8"/>
    </g>
    <g clip-path="url(#pb48073b778)">
     <use xlink:href="#C0_0_48c622e568" x="67.499195" y="84.601953" style="fill: #ff8c00; fill-opacity: 0.8"/>
    </g>
    <g clip-path="url(#pb48073b778)">
     <use xlink:href="#C0_0_48c622e568" x="35.661156" y="38.828221" style="fill: #ff8c00; fill-opacity: 0.8"/>
    </g>
    <g clip-path="url(#pb48073b778)">
     <use xlink:href="#C0_0_48c622e568" x="35.661156" y="54.983656" style="fill: #ff8c00; fill-opacity: 0.8"/>
    </g>
    <g clip-path="url(#pb48073b778)">
     <use xlink:href="#C0_0_48c622e568" x="74.321632" y="84.601953" style="fill: #ff8c00; fill-opacity: 0.8"/>
    </g>
    <g clip-path="url(#pb48073b778)">
     <use xlink:href="#C0_0_48c622e568" x="44.757738" y="76.524235" style="fill: #ff8c00; fill-opacity: 0.8"/>
    </g>
    <g clip-path="url(#pb48073b778)">
     <use xlink:href="#C0_0_48c622e568" x="44.757738" y="68.446518" style="fill: #ff8c00; fill-opacity: 0.8"/>
    </g>
    <g clip-path="url(#pb48073b778)">
     <use xlink:href="#C0_0_48c622e568" x="44.757738" y="71.139091" style="fill: #ff8c00; fill-opacity: 0.8"/>
    </g>
    <g clip-path="url(#pb48073b778)">
     <use xlink:href="#C0_0_48c622e568" x="60.676758" y="44.213366" style="fill: #ff8c00; fill-opacity: 0.8"/>
    </g>
    <g clip-path="url(#pb48073b778)">
     <use xlink:href="#C0_0_48c622e568" x="87.966506" y="71.139091" style="fill: #ff8c00; fill-opacity: 0.8"/>
    </g>
    <g clip-path="url(#pb48073b778)">
     <use xlink:href="#C0_0_48c622e568" x="76.595778" y="79.216808" style="fill: #ff8c00; fill-opacity: 0.8"/>
    </g>
    <g clip-path="url(#pb48073b778)">
     <use xlink:href="#C0_0_48c622e568" x="81.144069" y="73.831663" style="fill: #ff8c00; fill-opacity: 0.8"/>
    </g>
    <g clip-path="url(#pb48073b778)">
     <use xlink:href="#C0_0_48c622e568" x="74.321632" y="84.601953" style="fill: #ff8c00; fill-opacity: 0.8"/>
    </g>
    <g clip-path="url(#pb48073b778)">
     <use xlink:href="#C0_0_48c622e568" x="67.499195" y="79.216808" style="fill: #ff8c00; fill-opacity: 0.8"/>
    </g>
    <g clip-path="url(#pb48073b778)">
     <use xlink:href="#C0_0_48c622e568" x="40.209447" y="76.524235" style="fill: #ff8c00; fill-opacity: 0.8"/>
    </g>
    <g clip-path="url(#pb48073b778)">
     <use xlink:href="#C0_0_48c622e568" x="31.112864" y="76.524235" style="fill: #ff8c00; fill-opacity: 0.8"/>
    </g>
    <g clip-path="url(#pb48073b778)">
     <use xlink:href="#C0_0_48c622e568" x="62.950904" y="84.601953" style="fill: #ff8c00; fill-opacity: 0.8"/>
    </g>
    <g clip-path="url(#pb48073b778)">
     <use xlink:href="#C0_0_48c622e568" x="62.950904" y="71.139091" style="fill: #ff8c00; fill-opacity: 0.8"/>
    </g>
    <g clip-path="url(#pb48073b778)">
     <use xlink:href="#C0_0_48c622e568" x="74.321632" y="81.90938" style="fill: #ff8c00; fill-opacity: 0.8"/>
    </g>
    <g clip-path="url(#pb48073b778)">
     <use xlink:href="#C0_0_48c622e568" x="65.225049" y="84.601953" style="fill: #ff8c00; fill-opacity: 0.8"/>
    </g>
    <g clip-path="url(#pb48073b778)">
     <use xlink:href="#C0_0_48c622e568" x="122.078691" y="57.676228" style="fill: #ff8c00; fill-opacity: 0.8"/>
    </g>
    <g clip-path="url(#pb48073b778)">
     <use xlink:href="#C0_0_48c622e568" x="58.402612" y="84.601953" style="fill: #ff8c00; fill-opacity: 0.8"/>
    </g>
    <g clip-path="url(#pb48073b778)">
     <use xlink:href="#C0_0_48c622e568" x="58.402612" y="81.90938" style="fill: #ff8c00; fill-opacity: 0.8"/>
    </g>
    <g clip-path="url(#pb48073b778)">
     <use xlink:href="#C0_0_48c622e568" x="40.209447" y="84.601953" style="fill: #ff8c00; fill-opacity: 0.8"/>
    </g>
    <g clip-path="url(#pb48073b778)">
     <use xlink:href="#C0_0_48c622e568" x="40.209447" y="81.90938" style="fill: #ff8c00; fill-opacity: 0.8"/>
    </g>
    <g clip-path="url(#pb48073b778)">
     <use xlink:href="#C0_0_48c622e568" x="69.773341" y="84.601953" style="fill: #ff8c00; fill-opacity: 0.8"/>
    </g>
    <g clip-path="url(#pb48073b778)">
     <use xlink:href="#C0_0_48c622e568" x="62.950904" y="81.90938" style="fill: #ff8c00; fill-opacity: 0.8"/>
    </g>
    <g clip-path="url(#pb48073b778)">
     <use xlink:href="#C0_0_48c622e568" x="62.950904" y="81.90938" style="fill: #ff8c00; fill-opacity: 0.8"/>
    </g>
    <g clip-path="url(#pb48073b778)">
     <use xlink:href="#C0_0_48c622e568" x="51.580175" y="81.90938" style="fill: #ff8c00; fill-opacity: 0.8"/>
    </g>
    <g clip-path="url(#pb48073b778)">
     <use xlink:href="#C0_0_48c622e568" x="65.225049" y="79.216808" style="fill: #ff8c00; fill-opacity: 0.8"/>
    </g>
    <g clip-path="url(#pb48073b778)">
     <use xlink:href="#C0_0_48c622e568" x="74.321632" y="81.90938" style="fill: #ff8c00; fill-opacity: 0.8"/>
    </g>
    <g clip-path="url(#pb48073b778)">
     <use xlink:href="#C0_0_48c622e568" x="103.885526" y="81.90938" style="fill: #ff8c00; fill-opacity: 0.8"/>
    </g>
    <g clip-path="url(#pb48073b778)">
     <use xlink:href="#C0_0_48c622e568" x="72.047486" y="84.601953" style="fill: #ff8c00; fill-opacity: 0.8"/>
    </g>
    <g clip-path="url(#pb48073b778)">
     <use xlink:href="#C0_0_48c622e568" x="144.820148" y="57.676228" style="fill: #ff8c00; fill-opacity: 0.8"/>
    </g>
    <g clip-path="url(#pb48073b778)">
     <use xlink:href="#C0_0_48c622e568" x="78.869923" y="79.216808" style="fill: #ff8c00; fill-opacity: 0.8"/>
    </g>
    <g clip-path="url(#pb48073b778)">
     <use xlink:href="#C0_0_48c622e568" x="74.321632" y="84.601953" style="fill: #ff8c00; fill-opacity: 0.8"/>
    </g>
    <g clip-path="url(#pb48073b778)">
     <use xlink:href="#C0_0_48c622e568" x="99.337234" y="73.831663" style="fill: #ff8c00; fill-opacity: 0.8"/>
    </g>
    <g clip-path="url(#pb48073b778)">
     <use xlink:href="#C0_0_48c622e568" x="74.321632" y="79.216808" style="fill: #ff8c00; fill-opacity: 0.8"/>
    </g>
    <g clip-path="url(#pb48073b778)">
     <use xlink:href="#C0_0_48c622e568" x="74.321632" y="81.90938" style="fill: #ff8c00; fill-opacity: 0.8"/>
    </g>
    <g clip-path="url(#pb48073b778)">
     <use xlink:href="#C0_0_48c622e568" x="56.128467" y="81.90938" style="fill: #ff8c00; fill-opacity: 0.8"/>
    </g>
    <g clip-path="url(#pb48073b778)">
     <use xlink:href="#C0_0_48c622e568" x="62.950904" y="84.601953" style="fill: #ff8c00; fill-opacity: 0.8"/>
    </g>
    <g clip-path="url(#pb48073b778)">
     <use xlink:href="#C0_0_48c622e568" x="65.225049" y="79.216808" style="fill: #ff8c00; fill-opacity: 0.8"/>
    </g>
    <g clip-path="url(#pb48073b778)">
     <use xlink:href="#C0_0_48c622e568" x="65.225049" y="84.601953" style="fill: #ff8c00; fill-opacity: 0.8"/>
    </g>
    <g clip-path="url(#pb48073b778)">
     <use xlink:href="#C0_0_48c622e568" x="81.144069" y="84.601953" style="fill: #ff8c00; fill-opacity: 0.8"/>
    </g>
    <g clip-path="url(#pb48073b778)">
     <use xlink:href="#C0_0_48c622e568" x="81.144069" y="84.601953" style="fill: #ff8c00; fill-opacity: 0.8"/>
    </g>
    <g clip-path="url(#pb48073b778)">
     <use xlink:href="#C0_0_48c622e568" x="94.788943" y="71.139091" style="fill: #ff8c00; fill-opacity: 0.8"/>
    </g>
    <g clip-path="url(#pb48073b778)">
     <use xlink:href="#C0_0_48c622e568" x="53.854321" y="71.139091" style="fill: #ff8c00; fill-opacity: 0.8"/>
    </g>
    <g clip-path="url(#pb48073b778)">
     <use xlink:href="#C0_0_48c622e568" x="53.854321" y="79.216808" style="fill: #ff8c00; fill-opacity: 0.8"/>
    </g>
    <g clip-path="url(#pb48073b778)">
     <use xlink:href="#C0_0_48c622e568" x="78.869923" y="73.831663" style="fill: #ff8c00; fill-opacity: 0.8"/>
    </g>
    <g clip-path="url(#pb48073b778)">
     <use xlink:href="#C0_0_48c622e568" x="56.128467" y="81.90938" style="fill: #ff8c00; fill-opacity: 0.8"/>
    </g>
    <g clip-path="url(#pb48073b778)">
     <use xlink:href="#C0_0_48c622e568" x="83.418215" y="76.524235" style="fill: #ff8c00; fill-opacity: 0.8"/>
    </g>
    <g clip-path="url(#pb48073b778)">
     <use xlink:href="#C0_0_48c622e568" x="72.047486" y="81.90938" style="fill: #ff8c00; fill-opacity: 0.8"/>
    </g>
    <g clip-path="url(#pb48073b778)">
     <use xlink:href="#C0_0_48c622e568" x="53.854321" y="54.983656" style="fill: #ff8c00; fill-opacity: 0.8"/>
    </g>
    <g clip-path="url(#pb48073b778)">
     <use xlink:href="#C0_0_48c622e568" x="135.723565" y="79.216808" style="fill: #ff8c00; fill-opacity: 0.8"/>
    </g>
    <g clip-path="url(#pb48073b778)">
     <use xlink:href="#C0_0_48c622e568" x="72.047486" y="79.216808" style="fill: #ff8c00; fill-opacity: 0.8"/>
    </g>
    <g clip-path="url(#pb48073b778)">
     <use xlink:href="#C0_0_48c622e568" x="72.047486" y="81.90938" style="fill: #ff8c00; fill-opacity: 0.8"/>
    </g>
    <g clip-path="url(#pb48073b778)">
     <use xlink:href="#C0_0_48c622e568" x="74.321632" y="81.90938" style="fill: #ff8c00; fill-opacity: 0.8"/>
    </g>
    <g clip-path="url(#pb48073b778)">
     <use xlink:href="#C0_0_48c622e568" x="72.047486" y="76.524235" style="fill: #ff8c00; fill-opacity: 0.8"/>
    </g>
    <g clip-path="url(#pb48073b778)">
     <use xlink:href="#C0_0_48c622e568" x="53.854321" y="81.90938" style="fill: #ff8c00; fill-opacity: 0.8"/>
    </g>
    <g clip-path="url(#pb48073b778)">
     <use xlink:href="#C0_0_48c622e568" x="53.854321" y="79.216808" style="fill: #ff8c00; fill-opacity: 0.8"/>
    </g>
    <g clip-path="url(#pb48073b778)">
     <use xlink:href="#C0_0_48c622e568" x="74.321632" y="79.216808" style="fill: #ff8c00; fill-opacity: 0.8"/>
    </g>
    <g clip-path="url(#pb48073b778)">
     <use xlink:href="#C0_0_48c622e568" x="74.321632" y="79.216808" style="fill: #ff8c00; fill-opacity: 0.8"/>
    </g>
    <g clip-path="url(#pb48073b778)">
     <use xlink:href="#C0_0_48c622e568" x="67.499195" y="81.90938" style="fill: #ff8c00; fill-opacity: 0.8"/>
    </g>
    <g clip-path="url(#pb48073b778)">
     <use xlink:href="#C0_0_48c622e568" x="53.854321" y="81.90938" style="fill: #ff8c00; fill-opacity: 0.8"/>
    </g>
    <g clip-path="url(#pb48073b778)">
     <use xlink:href="#C0_0_48c622e568" x="42.483593" y="76.524235" style="fill: #ff8c00; fill-opacity: 0.8"/>
    </g>
    <g clip-path="url(#pb48073b778)">
     <use xlink:href="#C0_0_48c622e568" x="67.499195" y="79.216808" style="fill: #ff8c00; fill-opacity: 0.8"/>
    </g>
    <g clip-path="url(#pb48073b778)">
     <use xlink:href="#C0_0_48c622e568" x="60.676758" y="81.90938" style="fill: #ff8c00; fill-opacity: 0.8"/>
    </g>
    <g clip-path="url(#pb48073b778)">
     <use xlink:href="#C0_0_48c622e568" x="67.499195" y="73.831663" style="fill: #ff8c00; fill-opacity: 0.8"/>
    </g>
    <g clip-path="url(#pb48073b778)">
     <use xlink:href="#C0_0_48c622e568" x="67.499195" y="76.524235" style="fill: #ff8c00; fill-opacity: 0.8"/>
    </g>
    <g clip-path="url(#pb48073b778)">
     <use xlink:href="#C0_0_48c622e568" x="81.144069" y="73.831663" style="fill: #ff8c00; fill-opacity: 0.8"/>
    </g>
    <g clip-path="url(#pb48073b778)">
     <use xlink:href="#C0_0_48c622e568" x="53.854321" y="81.90938" style="fill: #ff8c00; fill-opacity: 0.8"/>
    </g>
    <g clip-path="url(#pb48073b778)">
     <use xlink:href="#C0_0_48c622e568" x="62.950904" y="76.524235" style="fill: #ff8c00; fill-opacity: 0.8"/>
    </g>
    <g clip-path="url(#pb48073b778)">
     <use xlink:href="#C0_0_48c622e568" x="72.047486" y="81.90938" style="fill: #ff8c00; fill-opacity: 0.8"/>
    </g>
    <g clip-path="url(#pb48073b778)">
     <use xlink:href="#C0_0_48c622e568" x="58.402612" y="81.90938" style="fill: #ff8c00; fill-opacity: 0.8"/>
    </g>
    <g clip-path="url(#pb48073b778)">
     <use xlink:href="#C0_0_48c622e568" x="58.402612" y="81.90938" style="fill: #ff8c00; fill-opacity: 0.8"/>
    </g>
    <g clip-path="url(#pb48073b778)">
     <use xlink:href="#C0_0_48c622e568" x="97.063089" y="79.216808" style="fill: #ff8c00; fill-opacity: 0.8"/>
    </g>
    <g clip-path="url(#pb48073b778)">
     <use xlink:href="#C0_0_48c622e568" x="97.063089" y="81.90938" style="fill: #ff8c00; fill-opacity: 0.8"/>
    </g>
    <g clip-path="url(#pb48073b778)">
     <use xlink:href="#C0_0_48c622e568" x="40.209447" y="81.90938" style="fill: #ff8c00; fill-opacity: 0.8"/>
    </g>
    <g clip-path="url(#pb48073b778)">
     <use xlink:href="#C0_0_48c622e568" x="72.047486" y="81.90938" style="fill: #ff8c00; fill-opacity: 0.8"/>
    </g>
    <g clip-path="url(#pb48073b778)">
     <use xlink:href="#C0_0_48c622e568" x="58.402612" y="73.831663" style="fill: #ff8c00; fill-opacity: 0.8"/>
    </g>
    <g clip-path="url(#pb48073b778)">
     <use xlink:href="#C0_0_48c622e568" x="67.499195" y="57.676228" style="fill: #ff8c00; fill-opacity: 0.8"/>
    </g>
    <g clip-path="url(#pb48073b778)">
     <use xlink:href="#C0_0_48c622e568" x="35.661156" y="68.446518" style="fill: #ff8c00; fill-opacity: 0.8"/>
    </g>
    <g clip-path="url(#pb48073b778)">
     <use xlink:href="#C0_0_48c622e568" x="35.661156" y="71.139091" style="fill: #ff8c00; fill-opacity: 0.8"/>
    </g>
    <g clip-path="url(#pb48073b778)">
     <use xlink:href="#C0_0_48c622e568" x="74.321632" y="81.90938" style="fill: #ff8c00; fill-opacity: 0.8"/>
    </g>
    <g clip-path="url(#pb48073b778)">
     <use xlink:href="#C0_0_48c622e568" x="60.676758" y="81.90938" style="fill: #ff8c00; fill-opacity: 0.8"/>
    </g>
    <g clip-path="url(#pb48073b778)">
     <use xlink:href="#C0_0_48c622e568" x="87.966506" y="73.831663" style="fill: #ff8c00; fill-opacity: 0.8"/>
    </g>
    <g clip-path="url(#pb48073b778)">
     <use xlink:href="#C0_0_48c622e568" x="76.595778" y="79.216808" style="fill: #ff8c00; fill-opacity: 0.8"/>
    </g>
    <g clip-path="url(#pb48073b778)">
     <use xlink:href="#C0_0_48c622e568" x="81.144069" y="60.368801" style="fill: #ff8c00; fill-opacity: 0.8"/>
    </g>
    <g clip-path="url(#pb48073b778)">
     <use xlink:href="#C0_0_48c622e568" x="67.499195" y="71.139091" style="fill: #ff8c00; fill-opacity: 0.8"/>
    </g>
    <g clip-path="url(#pb48073b778)">
     <use xlink:href="#C0_0_48c622e568" x="40.209447" y="71.139091" style="fill: #ff8c00; fill-opacity: 0.8"/>
    </g>
    <g clip-path="url(#pb48073b778)">
     <use xlink:href="#C0_0_48c622e568" x="31.112864" y="68.446518" style="fill: #ff8c00; fill-opacity: 0.8"/>
    </g>
    <g clip-path="url(#pb48073b778)">
     <use xlink:href="#C0_0_48c622e568" x="62.950904" y="79.216808" style="fill: #ff8c00; fill-opacity: 0.8"/>
    </g>
    <g clip-path="url(#pb48073b778)">
     <use xlink:href="#C0_0_48c622e568" x="62.950904" y="71.139091" style="fill: #ff8c00; fill-opacity: 0.8"/>
    </g>
    <g clip-path="url(#pb48073b778)">
     <use xlink:href="#C0_0_48c622e568" x="65.225049" y="73.831663" style="fill: #ff8c00; fill-opacity: 0.8"/>
    </g>
    <g clip-path="url(#pb48073b778)">
     <use xlink:href="#C0_0_48c622e568" x="122.078691" y="71.139091" style="fill: #ff8c00; fill-opacity: 0.8"/>
    </g>
    <g clip-path="url(#pb48073b778)">
     <use xlink:href="#C0_0_48c622e568" x="58.402612" y="81.90938" style="fill: #ff8c00; fill-opacity: 0.8"/>
    </g>
    <g clip-path="url(#pb48073b778)">
     <use xlink:href="#C0_0_48c622e568" x="58.402612" y="79.216808" style="fill: #ff8c00; fill-opacity: 0.8"/>
    </g>
    <g clip-path="url(#pb48073b778)">
     <use xlink:href="#C0_0_48c622e568" x="62.950904" y="73.831663" style="fill: #ff8c00; fill-opacity: 0.8"/>
    </g>
    <g clip-path="url(#pb48073b778)">
     <use xlink:href="#C0_0_48c622e568" x="51.580175" y="81.90938" style="fill: #ff8c00; fill-opacity: 0.8"/>
    </g>
    <g clip-path="url(#pb48073b778)">
     <use xlink:href="#C0_0_48c622e568" x="65.225049" y="81.90938" style="fill: #ff8c00; fill-opacity: 0.8"/>
    </g>
    <g clip-path="url(#pb48073b778)">
     <use xlink:href="#C0_0_48c622e568" x="74.321632" y="79.216808" style="fill: #ff8c00; fill-opacity: 0.8"/>
    </g>
    <g clip-path="url(#pb48073b778)">
     <use xlink:href="#C0_0_48c622e568" x="72.047486" y="79.216808" style="fill: #ff8c00; fill-opacity: 0.8"/>
    </g>
    <g clip-path="url(#pb48073b778)">
     <use xlink:href="#C0_0_48c622e568" x="144.820148" y="79.216808" style="fill: #ff8c00; fill-opacity: 0.8"/>
    </g>
    <g clip-path="url(#pb48073b778)">
     <use xlink:href="#C0_0_48c622e568" x="78.869923" y="68.446518" style="fill: #ff8c00; fill-opacity: 0.8"/>
    </g>
    <g clip-path="url(#pb48073b778)">
     <use xlink:href="#C0_0_48c622e568" x="99.337234" y="81.90938" style="fill: #ff8c00; fill-opacity: 0.8"/>
    </g>
    <g clip-path="url(#pb48073b778)">
     <use xlink:href="#C0_0_48c622e568" x="74.321632" y="81.90938" style="fill: #ff8c00; fill-opacity: 0.8"/>
    </g>
    <g clip-path="url(#pb48073b778)">
     <use xlink:href="#C0_0_48c622e568" x="74.321632" y="81.90938" style="fill: #ff8c00; fill-opacity: 0.8"/>
    </g>
    <g clip-path="url(#pb48073b778)">
     <use xlink:href="#C0_0_48c622e568" x="56.128467" y="81.90938" style="fill: #ff8c00; fill-opacity: 0.8"/>
    </g>
    <g clip-path="url(#pb48073b778)">
     <use xlink:href="#C0_0_48c622e568" x="65.225049" y="81.90938" style="fill: #ff8c00; fill-opacity: 0.8"/>
    </g>
    <g clip-path="url(#pb48073b778)">
     <use xlink:href="#C0_0_48c622e568" x="65.225049" y="81.90938" style="fill: #ff8c00; fill-opacity: 0.8"/>
    </g>
    <g clip-path="url(#pb48073b778)">
     <use xlink:href="#C0_0_48c622e568" x="94.788943" y="81.90938" style="fill: #ff8c00; fill-opacity: 0.8"/>
    </g>
    <g clip-path="url(#pb48073b778)">
     <use xlink:href="#C0_0_48c622e568" x="53.854321" y="76.524235" style="fill: #ff8c00; fill-opacity: 0.8"/>
    </g>
    <g clip-path="url(#pb48073b778)">
     <use xlink:href="#C0_0_48c622e568" x="53.854321" y="76.524235" style="fill: #ff8c00; fill-opacity: 0.8"/>
    </g>
    <g clip-path="url(#pb48073b778)">
     <use xlink:href="#C0_0_48c622e568" x="78.869923" y="79.216808" style="fill: #ff8c00; fill-opacity: 0.8"/>
    </g>
    <g clip-path="url(#pb48073b778)">
     <use xlink:href="#C0_0_48c622e568" x="56.128467" y="81.90938" style="fill: #ff8c00; fill-opacity: 0.8"/>
    </g>
    <g clip-path="url(#pb48073b778)">
     <use xlink:href="#C0_0_48c622e568" x="53.854321" y="81.90938" style="fill: #ff8c00; fill-opacity: 0.8"/>
    </g>
    <g clip-path="url(#pb48073b778)">
     <use xlink:href="#C0_0_48c622e568" x="135.723565" y="63.061373" style="fill: #ff8c00; fill-opacity: 0.8"/>
    </g>
    <g clip-path="url(#pb48073b778)">
     <use xlink:href="#C0_0_48c622e568" x="72.047486" y="79.216808" style="fill: #ff8c00; fill-opacity: 0.8"/>
    </g>
    <g clip-path="url(#pb48073b778)">
     <use xlink:href="#C0_0_48c622e568" x="74.321632" y="76.524235" style="fill: #ff8c00; fill-opacity: 0.8"/>
    </g>
   </g>
   <g id="PolyCollection_1">
    <path d="M 31.112864 72.43798 
L 31.112864 80.508972 
L 32.261423 80.423293 
L 33.409981 80.346779 
L 34.558539 80.258521 
L 35.707098 80.172417 
L 36.855656 80.086427 
L 38.004215 80.011563 
L 39.152773 79.927441 
L 40.301332 79.845294 
L 41.44989 79.760529 
L 42.598448 79.6811 
L 43.747007 79.610599 
L 44.895565 79.543427 
L 46.044124 79.456659 
L 47.192682 79.390268 
L 48.34124 79.320228 
L 49.489799 79.252058 
L 50.638357 79.167665 
L 51.786916 79.102911 
L 52.935474 79.043361 
L 54.084033 78.975527 
L 55.232591 78.906758 
L 56.381149 78.847452 
L 57.529708 78.787389 
L 58.678266 78.732388 
L 59.826825 78.681789 
L 60.975383 78.627751 
L 62.123941 78.581832 
L 63.2725 78.541549 
L 64.421058 78.514342 
L 65.569617 78.489781 
L 66.718175 78.470604 
L 67.866734 78.457313 
L 69.015292 78.447275 
L 70.16385 78.442631 
L 71.312409 78.461723 
L 72.460967 78.48903 
L 73.609526 78.513855 
L 74.758084 78.564969 
L 75.906643 78.610951 
L 77.055201 78.656621 
L 78.203759 78.72638 
L 79.352318 78.798974 
L 80.500876 78.877482 
L 81.649435 78.974082 
L 82.797993 79.050238 
L 83.946551 79.137936 
L 85.09511 79.227082 
L 86.243668 79.314832 
L 87.392227 79.413419 
L 88.540785 79.518471 
L 89.689344 79.608551 
L 90.837902 79.713802 
L 91.98646 79.826595 
L 93.135019 79.921941 
L 94.283577 80.04718 
L 95.432136 80.172406 
L 96.580694 80.271577 
L 97.729252 80.394737 
L 98.877811 80.502906 
L 100.026369 80.619066 
L 101.174928 80.719048 
L 102.323486 80.832991 
L 103.472045 80.95952 
L 104.620603 81.090478 
L 105.769161 81.218329 
L 106.91772 81.333112 
L 108.066278 81.455442 
L 109.214837 81.579716 
L 110.363395 81.700083 
L 111.511953 81.814427 
L 112.660512 81.948729 
L 113.80907 82.059732 
L 114.957629 82.181122 
L 116.106187 82.306971 
L 117.254746 82.441126 
L 118.403304 82.553352 
L 119.551862 82.683597 
L 120.700421 82.819707 
L 121.848979 82.940902 
L 122.997538 83.064544 
L 124.146096 83.195272 
L 125.294655 83.311773 
L 126.443213 83.434885 
L 127.591771 83.552326 
L 128.74033 83.679065 
L 129.888888 83.79985 
L 131.037447 83.93226 
L 132.186005 84.066554 
L 133.334563 84.188323 
L 134.483122 84.317931 
L 135.63168 84.44246 
L 136.780239 84.56086 
L 137.928797 84.682254 
L 139.077356 84.810419 
L 140.225914 84.94396 
L 141.374472 85.067113 
L 142.523031 85.181904 
L 143.671589 85.29513 
L 144.820148 85.408403 
L 144.820148 71.55931 
L 144.820148 71.55931 
L 143.671589 71.64844 
L 142.523031 71.73454 
L 141.374472 71.815017 
L 140.225914 71.90502 
L 139.077356 71.990369 
L 137.928797 72.07164 
L 136.780239 72.153784 
L 135.63168 72.24077 
L 134.483122 72.318817 
L 133.334563 72.403172 
L 132.186005 72.491036 
L 131.037447 72.582691 
L 129.888888 72.667515 
L 128.74033 72.746863 
L 127.591771 72.835264 
L 126.443213 72.914219 
L 125.294655 73.00499 
L 124.146096 73.085651 
L 122.997538 73.175867 
L 121.848979 73.257901 
L 120.700421 73.338118 
L 119.551862 73.415571 
L 118.403304 73.495057 
L 117.254746 73.56709 
L 116.106187 73.653302 
L 114.957629 73.729921 
L 113.80907 73.815736 
L 112.660512 73.886716 
L 111.511953 73.955394 
L 110.363395 74.030649 
L 109.214837 74.110851 
L 108.066278 74.184441 
L 106.91772 74.263286 
L 105.769161 74.342182 
L 104.620603 74.406508 
L 103.472045 74.483239 
L 102.323486 74.5559 
L 101.174928 74.634013 
L 100.026369 74.696601 
L 98.877811 74.761389 
L 97.729252 74.838782 
L 96.580694 74.908012 
L 95.432136 74.969223 
L 94.283577 75.038951 
L 93.135019 75.100207 
L 91.98646 75.163449 
L 90.837902 75.22986 
L 89.689344 75.296942 
L 88.540785 75.353152 
L 87.392227 75.406016 
L 86.243668 75.447671 
L 85.09511 75.497735 
L 83.946551 75.530916 
L 82.797993 75.58205 
L 81.649435 75.625399 
L 80.500876 75.665295 
L 79.352318 75.695761 
L 78.203759 75.718678 
L 77.055201 75.737135 
L 75.906643 75.75159 
L 74.758084 75.744086 
L 73.609526 75.742608 
L 72.460967 75.74198 
L 71.312409 75.723848 
L 70.16385 75.69427 
L 69.015292 75.659706 
L 67.866734 75.610686 
L 66.718175 75.563717 
L 65.569617 75.51963 
L 64.421058 75.459444 
L 63.2725 75.384596 
L 62.123941 75.319008 
L 60.975383 75.250884 
L 59.826825 75.163869 
L 58.678266 75.074755 
L 57.529708 75.003292 
L 56.381149 74.913641 
L 55.232591 74.817733 
L 54.084033 74.722422 
L 52.935474 74.621766 
L 51.786916 74.510585 
L 50.638357 74.405813 
L 49.489799 74.304869 
L 48.34124 74.200085 
L 47.192682 74.082795 
L 46.044124 73.970936 
L 44.895565 73.856249 
L 43.747007 73.738593 
L 42.598448 73.630767 
L 41.44989 73.518612 
L 40.301332 73.395796 
L 39.152773 73.275178 
L 38.004215 73.162873 
L 36.855656 73.048069 
L 35.707098 72.920178 
L 34.558539 72.812079 
L 33.409981 72.684686 
L 32.261423 72.5489 
L 31.112864 72.43798 
z
" clip-path="url(#pb48073b778)" style="fill: #ff8c00; fill-opacity: 0.15"/>
   </g>
   <g id="matplotlib.axis_1">
    <g id="xtick_1">
     <g id="line2d_1">
      <defs>
       <path id="m0f91ebd98d" d="M 0 0 
L 0 3.5 
" style="stroke: #000000; stroke-width: 0.25"/>
      </defs>
      <g>
       <use xlink:href="#m0f91ebd98d" x="31.112864" y="89.218327" style="stroke: #000000; stroke-width: 0.25"/>
      </g>
     </g>
     <g id="text_1">
      <!-- 15 -->
      <g transform="translate(28.332395 97.297233) scale(0.05 -0.05)">
       <defs>
        <path id="ArialMT-31" d="M 2384 0 
L 1822 0 
L 1822 3584 
Q 1619 3391 1289 3197 
Q 959 3003 697 2906 
L 697 3450 
Q 1169 3672 1522 3987 
Q 1875 4303 2022 4600 
L 2384 4600 
L 2384 0 
z
" transform="scale(0.015625)"/>
        <path id="ArialMT-35" d="M 266 1200 
L 856 1250 
Q 922 819 1161 601 
Q 1400 384 1738 384 
Q 2144 384 2425 690 
Q 2706 997 2706 1503 
Q 2706 1984 2436 2262 
Q 2166 2541 1728 2541 
Q 1456 2541 1237 2417 
Q 1019 2294 894 2097 
L 366 2166 
L 809 4519 
L 3088 4519 
L 3088 3981 
L 1259 3981 
L 1013 2750 
Q 1425 3038 1878 3038 
Q 2478 3038 2890 2622 
Q 3303 2206 3303 1553 
Q 3303 931 2941 478 
Q 2500 -78 1738 -78 
Q 1113 -78 717 272 
Q 322 622 266 1200 
z
" transform="scale(0.015625)"/>
       </defs>
       <use xlink:href="#ArialMT-31"/>
       <use xlink:href="#ArialMT-35" x="55.615234"/>
      </g>
     </g>
    </g>
    <g id="xtick_2">
     <g id="line2d_2">
      <g>
       <use xlink:href="#m0f91ebd98d" x="53.854321" y="89.218327" style="stroke: #000000; stroke-width: 0.25"/>
      </g>
     </g>
     <g id="text_2">
      <!-- 20 -->
      <g transform="translate(51.073852 97.297233) scale(0.05 -0.05)">
       <defs>
        <path id="ArialMT-32" d="M 3222 541 
L 3222 0 
L 194 0 
Q 188 203 259 391 
Q 375 700 629 1000 
Q 884 1300 1366 1694 
Q 2113 2306 2375 2664 
Q 2638 3022 2638 3341 
Q 2638 3675 2398 3904 
Q 2159 4134 1775 4134 
Q 1369 4134 1125 3890 
Q 881 3647 878 3216 
L 300 3275 
Q 359 3922 746 4261 
Q 1134 4600 1788 4600 
Q 2447 4600 2831 4234 
Q 3216 3869 3216 3328 
Q 3216 3053 3103 2787 
Q 2991 2522 2730 2228 
Q 2469 1934 1863 1422 
Q 1356 997 1212 845 
Q 1069 694 975 541 
L 3222 541 
z
" transform="scale(0.015625)"/>
        <path id="ArialMT-30" d="M 266 2259 
Q 266 3072 433 3567 
Q 600 4063 929 4331 
Q 1259 4600 1759 4600 
Q 2128 4600 2406 4451 
Q 2684 4303 2865 4023 
Q 3047 3744 3150 3342 
Q 3253 2941 3253 2259 
Q 3253 1453 3087 958 
Q 2922 463 2592 192 
Q 2263 -78 1759 -78 
Q 1097 -78 719 397 
Q 266 969 266 2259 
z
M 844 2259 
Q 844 1131 1108 757 
Q 1372 384 1759 384 
Q 2147 384 2411 759 
Q 2675 1134 2675 2259 
Q 2675 3391 2411 3762 
Q 2147 4134 1753 4134 
Q 1366 4134 1134 3806 
Q 844 3388 844 2259 
z
" transform="scale(0.015625)"/>
       </defs>
       <use xlink:href="#ArialMT-32"/>
       <use xlink:href="#ArialMT-30" x="55.615234"/>
      </g>
     </g>
    </g>
    <g id="xtick_3">
     <g id="line2d_3">
      <g>
       <use xlink:href="#m0f91ebd98d" x="76.595778" y="89.218327" style="stroke: #000000; stroke-width: 0.25"/>
      </g>
     </g>
     <g id="text_3">
      <!-- 25 -->
      <g transform="translate(73.815309 97.297233) scale(0.05 -0.05)">
       <use xlink:href="#ArialMT-32"/>
       <use xlink:href="#ArialMT-35" x="55.615234"/>
      </g>
     </g>
    </g>
    <g id="xtick_4">
     <g id="line2d_4">
      <g>
       <use xlink:href="#m0f91ebd98d" x="99.337234" y="89.218327" style="stroke: #000000; stroke-width: 0.25"/>
      </g>
     </g>
     <g id="text_4">
      <!-- 30 -->
      <g transform="translate(96.556766 97.297233) scale(0.05 -0.05)">
       <defs>
        <path id="ArialMT-33" d="M 269 1209 
L 831 1284 
Q 928 806 1161 595 
Q 1394 384 1728 384 
Q 2125 384 2398 659 
Q 2672 934 2672 1341 
Q 2672 1728 2419 1979 
Q 2166 2231 1775 2231 
Q 1616 2231 1378 2169 
L 1441 2663 
Q 1497 2656 1531 2656 
Q 1891 2656 2178 2843 
Q 2466 3031 2466 3422 
Q 2466 3731 2256 3934 
Q 2047 4138 1716 4138 
Q 1388 4138 1169 3931 
Q 950 3725 888 3313 
L 325 3413 
Q 428 3978 793 4289 
Q 1159 4600 1703 4600 
Q 2078 4600 2393 4439 
Q 2709 4278 2876 4000 
Q 3044 3722 3044 3409 
Q 3044 3113 2884 2869 
Q 2725 2625 2413 2481 
Q 2819 2388 3044 2092 
Q 3269 1797 3269 1353 
Q 3269 753 2831 336 
Q 2394 -81 1725 -81 
Q 1122 -81 723 278 
Q 325 638 269 1209 
z
" transform="scale(0.015625)"/>
       </defs>
       <use xlink:href="#ArialMT-33"/>
       <use xlink:href="#ArialMT-30" x="55.615234"/>
      </g>
     </g>
    </g>
    <g id="xtick_5">
     <g id="line2d_5">
      <g>
       <use xlink:href="#m0f91ebd98d" x="122.078691" y="89.218327" style="stroke: #000000; stroke-width: 0.25"/>
      </g>
     </g>
     <g id="text_5">
      <!-- 35 -->
      <g transform="translate(119.298222 97.297233) scale(0.05 -0.05)">
       <use xlink:href="#ArialMT-33"/>
       <use xlink:href="#ArialMT-35" x="55.615234"/>
      </g>
     </g>
    </g>
    <g id="xtick_6">
     <g id="line2d_6">
      <g>
       <use xlink:href="#m0f91ebd98d" x="144.820148" y="89.218327" style="stroke: #000000; stroke-width: 0.25"/>
      </g>
     </g>
     <g id="text_6">
      <!-- 40 -->
      <g transform="translate(142.039679 97.297233) scale(0.05 -0.05)">
       <defs>
        <path id="ArialMT-34" d="M 2069 0 
L 2069 1097 
L 81 1097 
L 81 1613 
L 2172 4581 
L 2631 4581 
L 2631 1613 
L 3250 1613 
L 3250 1097 
L 2631 1097 
L 2631 0 
L 2069 0 
z
M 2069 1613 
L 2069 3678 
L 634 1613 
L 2069 1613 
z
" transform="scale(0.015625)"/>
       </defs>
       <use xlink:href="#ArialMT-34"/>
       <use xlink:href="#ArialMT-30" x="55.615234"/>
      </g>
     </g>
    </g>
    <g id="text_7">
     <!-- Age of last continuous full-time education [years] -->
     <g transform="translate(23.435568 106.658796) scale(0.06 -0.06)">
      <defs>
       <path id="ArialMT-41" d="M -9 0 
L 1750 4581 
L 2403 4581 
L 4278 0 
L 3588 0 
L 3053 1388 
L 1138 1388 
L 634 0 
L -9 0 
z
M 1313 1881 
L 2866 1881 
L 2388 3150 
Q 2169 3728 2063 4100 
Q 1975 3659 1816 3225 
L 1313 1881 
z
" transform="scale(0.015625)"/>
       <path id="ArialMT-67" d="M 319 -275 
L 866 -356 
Q 900 -609 1056 -725 
Q 1266 -881 1628 -881 
Q 2019 -881 2231 -725 
Q 2444 -569 2519 -288 
Q 2563 -116 2559 434 
Q 2191 0 1641 0 
Q 956 0 581 494 
Q 206 988 206 1678 
Q 206 2153 378 2554 
Q 550 2956 876 3175 
Q 1203 3394 1644 3394 
Q 2231 3394 2613 2919 
L 2613 3319 
L 3131 3319 
L 3131 450 
Q 3131 -325 2973 -648 
Q 2816 -972 2473 -1159 
Q 2131 -1347 1631 -1347 
Q 1038 -1347 672 -1080 
Q 306 -813 319 -275 
z
M 784 1719 
Q 784 1066 1043 766 
Q 1303 466 1694 466 
Q 2081 466 2343 764 
Q 2606 1063 2606 1700 
Q 2606 2309 2336 2618 
Q 2066 2928 1684 2928 
Q 1309 2928 1046 2623 
Q 784 2319 784 1719 
z
" transform="scale(0.015625)"/>
       <path id="ArialMT-65" d="M 2694 1069 
L 3275 997 
Q 3138 488 2766 206 
Q 2394 -75 1816 -75 
Q 1088 -75 661 373 
Q 234 822 234 1631 
Q 234 2469 665 2931 
Q 1097 3394 1784 3394 
Q 2450 3394 2872 2941 
Q 3294 2488 3294 1666 
Q 3294 1616 3291 1516 
L 816 1516 
Q 847 969 1125 678 
Q 1403 388 1819 388 
Q 2128 388 2347 550 
Q 2566 713 2694 1069 
z
M 847 1978 
L 2700 1978 
Q 2663 2397 2488 2606 
Q 2219 2931 1791 2931 
Q 1403 2931 1139 2672 
Q 875 2413 847 1978 
z
" transform="scale(0.015625)"/>
       <path id="ArialMT-20" transform="scale(0.015625)"/>
       <path id="ArialMT-6f" d="M 213 1659 
Q 213 2581 725 3025 
Q 1153 3394 1769 3394 
Q 2453 3394 2887 2945 
Q 3322 2497 3322 1706 
Q 3322 1066 3130 698 
Q 2938 331 2570 128 
Q 2203 -75 1769 -75 
Q 1072 -75 642 372 
Q 213 819 213 1659 
z
M 791 1659 
Q 791 1022 1069 705 
Q 1347 388 1769 388 
Q 2188 388 2466 706 
Q 2744 1025 2744 1678 
Q 2744 2294 2464 2611 
Q 2184 2928 1769 2928 
Q 1347 2928 1069 2612 
Q 791 2297 791 1659 
z
" transform="scale(0.015625)"/>
       <path id="ArialMT-66" d="M 556 0 
L 556 2881 
L 59 2881 
L 59 3319 
L 556 3319 
L 556 3672 
Q 556 4006 616 4169 
Q 697 4388 901 4523 
Q 1106 4659 1475 4659 
Q 1713 4659 2000 4603 
L 1916 4113 
Q 1741 4144 1584 4144 
Q 1328 4144 1222 4034 
Q 1116 3925 1116 3625 
L 1116 3319 
L 1763 3319 
L 1763 2881 
L 1116 2881 
L 1116 0 
L 556 0 
z
" transform="scale(0.015625)"/>
       <path id="ArialMT-6c" d="M 409 0 
L 409 4581 
L 972 4581 
L 972 0 
L 409 0 
z
" transform="scale(0.015625)"/>
       <path id="ArialMT-61" d="M 2588 409 
Q 2275 144 1986 34 
Q 1697 -75 1366 -75 
Q 819 -75 525 192 
Q 231 459 231 875 
Q 231 1119 342 1320 
Q 453 1522 633 1644 
Q 813 1766 1038 1828 
Q 1203 1872 1538 1913 
Q 2219 1994 2541 2106 
Q 2544 2222 2544 2253 
Q 2544 2597 2384 2738 
Q 2169 2928 1744 2928 
Q 1347 2928 1158 2789 
Q 969 2650 878 2297 
L 328 2372 
Q 403 2725 575 2942 
Q 747 3159 1072 3276 
Q 1397 3394 1825 3394 
Q 2250 3394 2515 3294 
Q 2781 3194 2906 3042 
Q 3031 2891 3081 2659 
Q 3109 2516 3109 2141 
L 3109 1391 
Q 3109 606 3145 398 
Q 3181 191 3288 0 
L 2700 0 
Q 2613 175 2588 409 
z
M 2541 1666 
Q 2234 1541 1622 1453 
Q 1275 1403 1131 1340 
Q 988 1278 909 1158 
Q 831 1038 831 891 
Q 831 666 1001 516 
Q 1172 366 1500 366 
Q 1825 366 2078 508 
Q 2331 650 2450 897 
Q 2541 1088 2541 1459 
L 2541 1666 
z
" transform="scale(0.015625)"/>
       <path id="ArialMT-73" d="M 197 991 
L 753 1078 
Q 800 744 1014 566 
Q 1228 388 1613 388 
Q 2000 388 2187 545 
Q 2375 703 2375 916 
Q 2375 1106 2209 1216 
Q 2094 1291 1634 1406 
Q 1016 1563 777 1677 
Q 538 1791 414 1992 
Q 291 2194 291 2438 
Q 291 2659 392 2848 
Q 494 3038 669 3163 
Q 800 3259 1026 3326 
Q 1253 3394 1513 3394 
Q 1903 3394 2198 3281 
Q 2494 3169 2634 2976 
Q 2775 2784 2828 2463 
L 2278 2388 
Q 2241 2644 2061 2787 
Q 1881 2931 1553 2931 
Q 1166 2931 1000 2803 
Q 834 2675 834 2503 
Q 834 2394 903 2306 
Q 972 2216 1119 2156 
Q 1203 2125 1616 2013 
Q 2213 1853 2448 1751 
Q 2684 1650 2818 1456 
Q 2953 1263 2953 975 
Q 2953 694 2789 445 
Q 2625 197 2315 61 
Q 2006 -75 1616 -75 
Q 969 -75 630 194 
Q 291 463 197 991 
z
" transform="scale(0.015625)"/>
       <path id="ArialMT-74" d="M 1650 503 
L 1731 6 
Q 1494 -44 1306 -44 
Q 1000 -44 831 53 
Q 663 150 594 308 
Q 525 466 525 972 
L 525 2881 
L 113 2881 
L 113 3319 
L 525 3319 
L 525 4141 
L 1084 4478 
L 1084 3319 
L 1650 3319 
L 1650 2881 
L 1084 2881 
L 1084 941 
Q 1084 700 1114 631 
Q 1144 563 1211 522 
Q 1278 481 1403 481 
Q 1497 481 1650 503 
z
" transform="scale(0.015625)"/>
       <path id="ArialMT-63" d="M 2588 1216 
L 3141 1144 
Q 3050 572 2676 248 
Q 2303 -75 1759 -75 
Q 1078 -75 664 370 
Q 250 816 250 1647 
Q 250 2184 428 2587 
Q 606 2991 970 3192 
Q 1334 3394 1763 3394 
Q 2303 3394 2647 3120 
Q 2991 2847 3088 2344 
L 2541 2259 
Q 2463 2594 2264 2762 
Q 2066 2931 1784 2931 
Q 1359 2931 1093 2626 
Q 828 2322 828 1663 
Q 828 994 1084 691 
Q 1341 388 1753 388 
Q 2084 388 2306 591 
Q 2528 794 2588 1216 
z
" transform="scale(0.015625)"/>
       <path id="ArialMT-6e" d="M 422 0 
L 422 3319 
L 928 3319 
L 928 2847 
Q 1294 3394 1984 3394 
Q 2284 3394 2536 3286 
Q 2788 3178 2913 3003 
Q 3038 2828 3088 2588 
Q 3119 2431 3119 2041 
L 3119 0 
L 2556 0 
L 2556 2019 
Q 2556 2363 2490 2533 
Q 2425 2703 2258 2804 
Q 2091 2906 1866 2906 
Q 1506 2906 1245 2678 
Q 984 2450 984 1813 
L 984 0 
L 422 0 
z
" transform="scale(0.015625)"/>
       <path id="ArialMT-69" d="M 425 3934 
L 425 4581 
L 988 4581 
L 988 3934 
L 425 3934 
z
M 425 0 
L 425 3319 
L 988 3319 
L 988 0 
L 425 0 
z
" transform="scale(0.015625)"/>
       <path id="ArialMT-75" d="M 2597 0 
L 2597 488 
Q 2209 -75 1544 -75 
Q 1250 -75 995 37 
Q 741 150 617 320 
Q 494 491 444 738 
Q 409 903 409 1263 
L 409 3319 
L 972 3319 
L 972 1478 
Q 972 1038 1006 884 
Q 1059 663 1231 536 
Q 1403 409 1656 409 
Q 1909 409 2131 539 
Q 2353 669 2445 892 
Q 2538 1116 2538 1541 
L 2538 3319 
L 3100 3319 
L 3100 0 
L 2597 0 
z
" transform="scale(0.015625)"/>
       <path id="ArialMT-2d" d="M 203 1375 
L 203 1941 
L 1931 1941 
L 1931 1375 
L 203 1375 
z
" transform="scale(0.015625)"/>
       <path id="ArialMT-6d" d="M 422 0 
L 422 3319 
L 925 3319 
L 925 2853 
Q 1081 3097 1340 3245 
Q 1600 3394 1931 3394 
Q 2300 3394 2536 3241 
Q 2772 3088 2869 2813 
Q 3263 3394 3894 3394 
Q 4388 3394 4653 3120 
Q 4919 2847 4919 2278 
L 4919 0 
L 4359 0 
L 4359 2091 
Q 4359 2428 4304 2576 
Q 4250 2725 4106 2815 
Q 3963 2906 3769 2906 
Q 3419 2906 3187 2673 
Q 2956 2441 2956 1928 
L 2956 0 
L 2394 0 
L 2394 2156 
Q 2394 2531 2256 2718 
Q 2119 2906 1806 2906 
Q 1569 2906 1367 2781 
Q 1166 2656 1075 2415 
Q 984 2175 984 1722 
L 984 0 
L 422 0 
z
" transform="scale(0.015625)"/>
       <path id="ArialMT-64" d="M 2575 0 
L 2575 419 
Q 2259 -75 1647 -75 
Q 1250 -75 917 144 
Q 584 363 401 755 
Q 219 1147 219 1656 
Q 219 2153 384 2558 
Q 550 2963 881 3178 
Q 1213 3394 1622 3394 
Q 1922 3394 2156 3267 
Q 2391 3141 2538 2938 
L 2538 4581 
L 3097 4581 
L 3097 0 
L 2575 0 
z
M 797 1656 
Q 797 1019 1065 703 
Q 1334 388 1700 388 
Q 2069 388 2326 689 
Q 2584 991 2584 1609 
Q 2584 2291 2321 2609 
Q 2059 2928 1675 2928 
Q 1300 2928 1048 2622 
Q 797 2316 797 1656 
z
" transform="scale(0.015625)"/>
       <path id="ArialMT-5b" d="M 434 -1272 
L 434 4581 
L 1675 4581 
L 1675 4116 
L 997 4116 
L 997 -806 
L 1675 -806 
L 1675 -1272 
L 434 -1272 
z
" transform="scale(0.015625)"/>
       <path id="ArialMT-79" d="M 397 -1278 
L 334 -750 
Q 519 -800 656 -800 
Q 844 -800 956 -737 
Q 1069 -675 1141 -563 
Q 1194 -478 1313 -144 
Q 1328 -97 1363 -6 
L 103 3319 
L 709 3319 
L 1400 1397 
Q 1534 1031 1641 628 
Q 1738 1016 1872 1384 
L 2581 3319 
L 3144 3319 
L 1881 -56 
Q 1678 -603 1566 -809 
Q 1416 -1088 1222 -1217 
Q 1028 -1347 759 -1347 
Q 597 -1347 397 -1278 
z
" transform="scale(0.015625)"/>
       <path id="ArialMT-72" d="M 416 0 
L 416 3319 
L 922 3319 
L 922 2816 
Q 1116 3169 1280 3281 
Q 1444 3394 1641 3394 
Q 1925 3394 2219 3213 
L 2025 2691 
Q 1819 2813 1613 2813 
Q 1428 2813 1281 2702 
Q 1134 2591 1072 2394 
Q 978 2094 978 1738 
L 978 0 
L 416 0 
z
" transform="scale(0.015625)"/>
       <path id="ArialMT-5d" d="M 1363 -1272 
L 122 -1272 
L 122 -806 
L 800 -806 
L 800 4116 
L 122 4116 
L 122 4581 
L 1363 4581 
L 1363 -1272 
z
" transform="scale(0.015625)"/>
      </defs>
      <use xlink:href="#ArialMT-41"/>
      <use xlink:href="#ArialMT-67" x="66.699219"/>
      <use xlink:href="#ArialMT-65" x="122.314453"/>
      <use xlink:href="#ArialMT-20" x="177.929688"/>
      <use xlink:href="#ArialMT-6f" x="205.712891"/>
      <use xlink:href="#ArialMT-66" x="261.328125"/>
      <use xlink:href="#ArialMT-20" x="289.111328"/>
      <use xlink:href="#ArialMT-6c" x="316.894531"/>
      <use xlink:href="#ArialMT-61" x="339.111328"/>
      <use xlink:href="#ArialMT-73" x="394.726562"/>
      <use xlink:href="#ArialMT-74" x="444.726562"/>
      <use xlink:href="#ArialMT-20" x="472.509766"/>
      <use xlink:href="#ArialMT-63" x="500.292969"/>
      <use xlink:href="#ArialMT-6f" x="550.292969"/>
      <use xlink:href="#ArialMT-6e" x="605.908203"/>
      <use xlink:href="#ArialMT-74" x="661.523438"/>
      <use xlink:href="#ArialMT-69" x="689.306641"/>
      <use xlink:href="#ArialMT-6e" x="711.523438"/>
      <use xlink:href="#ArialMT-75" x="767.138672"/>
      <use xlink:href="#ArialMT-6f" x="822.753906"/>
      <use xlink:href="#ArialMT-75" x="878.369141"/>
      <use xlink:href="#ArialMT-73" x="933.984375"/>
      <use xlink:href="#ArialMT-20" x="983.984375"/>
      <use xlink:href="#ArialMT-66" x="1011.767578"/>
      <use xlink:href="#ArialMT-75" x="1039.550781"/>
      <use xlink:href="#ArialMT-6c" x="1095.166016"/>
      <use xlink:href="#ArialMT-6c" x="1117.382812"/>
      <use xlink:href="#ArialMT-2d" x="1139.599609"/>
      <use xlink:href="#ArialMT-74" x="1172.900391"/>
      <use xlink:href="#ArialMT-69" x="1200.683594"/>
      <use xlink:href="#ArialMT-6d" x="1222.900391"/>
      <use xlink:href="#ArialMT-65" x="1306.201172"/>
      <use xlink:href="#ArialMT-20" x="1361.816406"/>
      <use xlink:href="#ArialMT-65" x="1389.599609"/>
      <use xlink:href="#ArialMT-64" x="1445.214844"/>
      <use xlink:href="#ArialMT-75" x="1500.830078"/>
      <use xlink:href="#ArialMT-63" x="1556.445312"/>
      <use xlink:href="#ArialMT-61" x="1606.445312"/>
      <use xlink:href="#ArialMT-74" x="1662.060547"/>
      <use xlink:href="#ArialMT-69" x="1689.84375"/>
      <use xlink:href="#ArialMT-6f" x="1712.060547"/>
      <use xlink:href="#ArialMT-6e" x="1767.675781"/>
      <use xlink:href="#ArialMT-20" x="1823.291016"/>
      <use xlink:href="#ArialMT-5b" x="1851.074219"/>
      <use xlink:href="#ArialMT-79" x="1878.857422"/>
      <use xlink:href="#ArialMT-65" x="1928.857422"/>
      <use xlink:href="#ArialMT-61" x="1984.472656"/>
      <use xlink:href="#ArialMT-72" x="2040.087891"/>
      <use xlink:href="#ArialMT-73" x="2073.388672"/>
      <use xlink:href="#ArialMT-5d" x="2123.388672"/>
     </g>
    </g>
   </g>
   <g id="matplotlib.axis_2">
    <g id="ytick_1">
     <g id="line2d_7">
      <defs>
       <path id="ma93130d794" d="M 0 0 
L -3.5 0 
" style="stroke: #000000; stroke-width: 0.25"/>
      </defs>
      <g>
       <use xlink:href="#ma93130d794" x="25.4275" y="84.601953" style="stroke: #000000; stroke-width: 0.25"/>
      </g>
     </g>
     <g id="text_8">
      <!-- 0 -->
      <g transform="translate(18.147031 86.391406) scale(0.05 -0.05)">
       <use xlink:href="#ArialMT-30"/>
      </g>
     </g>
    </g>
    <g id="ytick_2">
     <g id="line2d_8">
      <g>
       <use xlink:href="#ma93130d794" x="25.4275" y="71.139091" style="stroke: #000000; stroke-width: 0.25"/>
      </g>
     </g>
     <g id="text_9">
      <!-- 5 -->
      <g transform="translate(18.147031 72.928544) scale(0.05 -0.05)">
       <use xlink:href="#ArialMT-35"/>
      </g>
     </g>
    </g>
    <g id="ytick_3">
     <g id="line2d_9">
      <g>
       <use xlink:href="#ma93130d794" x="25.4275" y="57.676228" style="stroke: #000000; stroke-width: 0.25"/>
      </g>
     </g>
     <g id="text_10">
      <!-- 10 -->
      <g transform="translate(15.366562 59.465681) scale(0.05 -0.05)">
       <use xlink:href="#ArialMT-31"/>
       <use xlink:href="#ArialMT-30" x="55.615234"/>
      </g>
     </g>
    </g>
    <g id="ytick_4">
     <g id="line2d_10">
      <g>
       <use xlink:href="#ma93130d794" x="25.4275" y="44.213366" style="stroke: #000000; stroke-width: 0.25"/>
      </g>
     </g>
     <g id="text_11">
      <!-- 15 -->
      <g transform="translate(15.366562 46.002819) scale(0.05 -0.05)">
       <use xlink:href="#ArialMT-31"/>
       <use xlink:href="#ArialMT-35" x="55.615234"/>
      </g>
     </g>
    </g>
    <g id="ytick_5">
     <g id="line2d_11">
      <g>
       <use xlink:href="#ma93130d794" x="25.4275" y="30.750504" style="stroke: #000000; stroke-width: 0.25"/>
      </g>
     </g>
     <g id="text_12">
      <!-- 20 -->
      <g transform="translate(15.366562 32.539957) scale(0.05 -0.05)">
       <use xlink:href="#ArialMT-32"/>
       <use xlink:href="#ArialMT-30" x="55.615234"/>
      </g>
     </g>
    </g>
    <g id="ytick_6">
     <g id="line2d_12">
      <g>
       <use xlink:href="#ma93130d794" x="25.4275" y="17.287641" style="stroke: #000000; stroke-width: 0.25"/>
      </g>
     </g>
     <g id="text_13">
      <!-- 25 -->
      <g transform="translate(15.366562 19.077094) scale(0.05 -0.05)">
       <use xlink:href="#ArialMT-32"/>
       <use xlink:href="#ArialMT-35" x="55.615234"/>
      </g>
     </g>
    </g>
    <g id="text_14">
     <!-- Number supranormal deviations [a.u.] -->
     <g transform="translate(10.174062 97.329945) rotate(-90) scale(0.06 -0.06)">
      <defs>
       <path id="ArialMT-4e" d="M 488 0 
L 488 4581 
L 1109 4581 
L 3516 984 
L 3516 4581 
L 4097 4581 
L 4097 0 
L 3475 0 
L 1069 3600 
L 1069 0 
L 488 0 
z
" transform="scale(0.015625)"/>
       <path id="ArialMT-62" d="M 941 0 
L 419 0 
L 419 4581 
L 981 4581 
L 981 2947 
Q 1338 3394 1891 3394 
Q 2197 3394 2470 3270 
Q 2744 3147 2920 2923 
Q 3097 2700 3197 2384 
Q 3297 2069 3297 1709 
Q 3297 856 2875 390 
Q 2453 -75 1863 -75 
Q 1275 -75 941 416 
L 941 0 
z
M 934 1684 
Q 934 1088 1097 822 
Q 1363 388 1816 388 
Q 2184 388 2453 708 
Q 2722 1028 2722 1663 
Q 2722 2313 2464 2622 
Q 2206 2931 1841 2931 
Q 1472 2931 1203 2611 
Q 934 2291 934 1684 
z
" transform="scale(0.015625)"/>
       <path id="ArialMT-70" d="M 422 -1272 
L 422 3319 
L 934 3319 
L 934 2888 
Q 1116 3141 1344 3267 
Q 1572 3394 1897 3394 
Q 2322 3394 2647 3175 
Q 2972 2956 3137 2557 
Q 3303 2159 3303 1684 
Q 3303 1175 3120 767 
Q 2938 359 2589 142 
Q 2241 -75 1856 -75 
Q 1575 -75 1351 44 
Q 1128 163 984 344 
L 984 -1272 
L 422 -1272 
z
M 931 1641 
Q 931 1000 1190 694 
Q 1450 388 1819 388 
Q 2194 388 2461 705 
Q 2728 1022 2728 1688 
Q 2728 2322 2467 2637 
Q 2206 2953 1844 2953 
Q 1484 2953 1207 2617 
Q 931 2281 931 1641 
z
" transform="scale(0.015625)"/>
       <path id="ArialMT-76" d="M 1344 0 
L 81 3319 
L 675 3319 
L 1388 1331 
Q 1503 1009 1600 663 
Q 1675 925 1809 1294 
L 2547 3319 
L 3125 3319 
L 1869 0 
L 1344 0 
z
" transform="scale(0.015625)"/>
       <path id="ArialMT-2e" d="M 581 0 
L 581 641 
L 1222 641 
L 1222 0 
L 581 0 
z
" transform="scale(0.015625)"/>
      </defs>
      <use xlink:href="#ArialMT-4e"/>
      <use xlink:href="#ArialMT-75" x="72.216797"/>
      <use xlink:href="#ArialMT-6d" x="127.832031"/>
      <use xlink:href="#ArialMT-62" x="211.132812"/>
      <use xlink:href="#ArialMT-65" x="266.748047"/>
      <use xlink:href="#ArialMT-72" x="322.363281"/>
      <use xlink:href="#ArialMT-20" x="355.664062"/>
      <use xlink:href="#ArialMT-73" x="383.447266"/>
      <use xlink:href="#ArialMT-75" x="433.447266"/>
      <use xlink:href="#ArialMT-70" x="489.0625"/>
      <use xlink:href="#ArialMT-72" x="544.677734"/>
      <use xlink:href="#ArialMT-61" x="577.978516"/>
      <use xlink:href="#ArialMT-6e" x="633.59375"/>
      <use xlink:href="#ArialMT-6f" x="689.208984"/>
      <use xlink:href="#ArialMT-72" x="744.824219"/>
      <use xlink:href="#ArialMT-6d" x="778.125"/>
      <use xlink:href="#ArialMT-61" x="861.425781"/>
      <use xlink:href="#ArialMT-6c" x="917.041016"/>
      <use xlink:href="#ArialMT-20" x="939.257812"/>
      <use xlink:href="#ArialMT-64" x="967.041016"/>
      <use xlink:href="#ArialMT-65" x="1022.65625"/>
      <use xlink:href="#ArialMT-76" x="1078.271484"/>
      <use xlink:href="#ArialMT-69" x="1128.271484"/>
      <use xlink:href="#ArialMT-61" x="1150.488281"/>
      <use xlink:href="#ArialMT-74" x="1206.103516"/>
      <use xlink:href="#ArialMT-69" x="1233.886719"/>
      <use xlink:href="#ArialMT-6f" x="1256.103516"/>
      <use xlink:href="#ArialMT-6e" x="1311.71875"/>
      <use xlink:href="#ArialMT-73" x="1367.333984"/>
      <use xlink:href="#ArialMT-20" x="1417.333984"/>
      <use xlink:href="#ArialMT-5b" x="1445.117188"/>
      <use xlink:href="#ArialMT-61" x="1472.900391"/>
      <use xlink:href="#ArialMT-2e" x="1528.515625"/>
      <use xlink:href="#ArialMT-75" x="1556.298828"/>
      <use xlink:href="#ArialMT-2e" x="1611.914062"/>
      <use xlink:href="#ArialMT-5d" x="1639.697266"/>
     </g>
    </g>
   </g>
   <g id="line2d_13">
    <path d="M 31.112864 76.822471 
L 32.261423 76.831195 
L 33.409981 76.839919 
L 34.558539 76.848642 
L 35.707098 76.857366 
L 36.855656 76.86609 
L 38.004215 76.874814 
L 39.152773 76.883537 
L 40.301332 76.892261 
L 41.44989 76.900985 
L 42.598448 76.909709 
L 43.747007 76.918432 
L 44.895565 76.927156 
L 46.044124 76.93588 
L 47.192682 76.944604 
L 48.34124 76.953327 
L 49.489799 76.962051 
L 50.638357 76.970775 
L 51.786916 76.979499 
L 52.935474 76.988222 
L 54.084033 76.996946 
L 55.232591 77.00567 
L 56.381149 77.014394 
L 57.529708 77.023117 
L 58.678266 77.031841 
L 59.826825 77.040565 
L 60.975383 77.049289 
L 62.123941 77.058012 
L 63.2725 77.066736 
L 64.421058 77.07546 
L 65.569617 77.084184 
L 66.718175 77.092907 
L 67.866734 77.101631 
L 69.015292 77.110355 
L 70.16385 77.119079 
L 71.312409 77.127802 
L 72.460967 77.136526 
L 73.609526 77.14525 
L 74.758084 77.153974 
L 75.906643 77.162697 
L 77.055201 77.171421 
L 78.203759 77.180145 
L 79.352318 77.188869 
L 80.500876 77.197593 
L 81.649435 77.206316 
L 82.797993 77.21504 
L 83.946551 77.223764 
L 85.09511 77.232488 
L 86.243668 77.241211 
L 87.392227 77.249935 
L 88.540785 77.258659 
L 89.689344 77.267383 
L 90.837902 77.276106 
L 91.98646 77.28483 
L 93.135019 77.293554 
L 94.283577 77.302278 
L 95.432136 77.311001 
L 96.580694 77.319725 
L 97.729252 77.328449 
L 98.877811 77.337173 
L 100.026369 77.345896 
L 101.174928 77.35462 
L 102.323486 77.363344 
L 103.472045 77.372068 
L 104.620603 77.380791 
L 105.769161 77.389515 
L 106.91772 77.398239 
L 108.066278 77.406963 
L 109.214837 77.415686 
L 110.363395 77.42441 
L 111.511953 77.433134 
L 112.660512 77.441858 
L 113.80907 77.450581 
L 114.957629 77.459305 
L 116.106187 77.468029 
L 117.254746 77.476753 
L 118.403304 77.485476 
L 119.551862 77.4942 
L 120.700421 77.502924 
L 121.848979 77.511648 
L 122.997538 77.520371 
L 124.146096 77.529095 
L 125.294655 77.537819 
L 126.443213 77.546543 
L 127.591771 77.555267 
L 128.74033 77.56399 
L 129.888888 77.572714 
L 131.037447 77.581438 
L 132.186005 77.590162 
L 133.334563 77.598885 
L 134.483122 77.607609 
L 135.63168 77.616333 
L 136.780239 77.625057 
L 137.928797 77.63378 
L 139.077356 77.642504 
L 140.225914 77.651228 
L 141.374472 77.659952 
L 142.523031 77.668675 
L 143.671589 77.677399 
L 144.820148 77.686123 
" clip-path="url(#pb48073b778)" style="fill: none; stroke: #ff8c00; stroke-width: 0.75; stroke-linecap: square"/>
   </g>
   <g id="patch_3">
    <path d="M 25.4275 89.218327 
L 25.4275 5.4 
" style="fill: none; stroke: #000000; stroke-width: 0.25; stroke-linejoin: miter; stroke-linecap: square"/>
   </g>
   <g id="patch_4">
    <path d="M 25.4275 89.218327 
L 150.505512 89.218327 
" style="fill: none; stroke: #000000; stroke-width: 0.25; stroke-linejoin: miter; stroke-linecap: square"/>
   </g>
   <g id="text_15">
    <g id="patch_5">
     <path d="M 29.17984 18.699023 
L 57.82984 18.699023 
Q 59.32984 18.699023 59.32984 17.199023 
L 59.32984 7.132617 
Q 59.32984 5.632617 57.82984 5.632617 
L 29.17984 5.632617 
Q 27.67984 5.632617 27.67984 7.132617 
L 27.67984 17.199023 
Q 27.67984 18.699023 29.17984 18.699023 
z
" style="fill: #c0c0c0; opacity: 0.4; stroke: #c0c0c0; stroke-linejoin: miter"/>
    </g>
    <!-- $r=-0.028$ -->
    <g transform="translate(29.17984 10.655273) scale(0.05 -0.05)">
     <defs>
      <path id="DejaVuSans-Oblique-72" d="M 2853 2969 
Q 2766 3016 2653 3041 
Q 2541 3066 2413 3066 
Q 1953 3066 1609 2717 
Q 1266 2369 1153 1784 
L 800 0 
L 225 0 
L 909 3500 
L 1484 3500 
L 1375 2956 
Q 1603 3259 1920 3421 
Q 2238 3584 2597 3584 
Q 2691 3584 2781 3573 
Q 2872 3563 2963 3538 
L 2853 2969 
z
" transform="scale(0.015625)"/>
      <path id="DejaVuSans-3d" d="M 678 2906 
L 4684 2906 
L 4684 2381 
L 678 2381 
L 678 2906 
z
M 678 1631 
L 4684 1631 
L 4684 1100 
L 678 1100 
L 678 1631 
z
" transform="scale(0.015625)"/>
      <path id="DejaVuSans-2212" d="M 678 2272 
L 4684 2272 
L 4684 1741 
L 678 1741 
L 678 2272 
z
" transform="scale(0.015625)"/>
      <path id="DejaVuSans-30" d="M 2034 4250 
Q 1547 4250 1301 3770 
Q 1056 3291 1056 2328 
Q 1056 1369 1301 889 
Q 1547 409 2034 409 
Q 2525 409 2770 889 
Q 3016 1369 3016 2328 
Q 3016 3291 2770 3770 
Q 2525 4250 2034 4250 
z
M 2034 4750 
Q 2819 4750 3233 4129 
Q 3647 3509 3647 2328 
Q 3647 1150 3233 529 
Q 2819 -91 2034 -91 
Q 1250 -91 836 529 
Q 422 1150 422 2328 
Q 422 3509 836 4129 
Q 1250 4750 2034 4750 
z
" transform="scale(0.015625)"/>
      <path id="DejaVuSans-2e" d="M 684 794 
L 1344 794 
L 1344 0 
L 684 0 
L 684 794 
z
" transform="scale(0.015625)"/>
      <path id="DejaVuSans-32" d="M 1228 531 
L 3431 531 
L 3431 0 
L 469 0 
L 469 531 
Q 828 903 1448 1529 
Q 2069 2156 2228 2338 
Q 2531 2678 2651 2914 
Q 2772 3150 2772 3378 
Q 2772 3750 2511 3984 
Q 2250 4219 1831 4219 
Q 1534 4219 1204 4116 
Q 875 4013 500 3803 
L 500 4441 
Q 881 4594 1212 4672 
Q 1544 4750 1819 4750 
Q 2544 4750 2975 4387 
Q 3406 4025 3406 3419 
Q 3406 3131 3298 2873 
Q 3191 2616 2906 2266 
Q 2828 2175 2409 1742 
Q 1991 1309 1228 531 
z
" transform="scale(0.015625)"/>
      <path id="DejaVuSans-38" d="M 2034 2216 
Q 1584 2216 1326 1975 
Q 1069 1734 1069 1313 
Q 1069 891 1326 650 
Q 1584 409 2034 409 
Q 2484 409 2743 651 
Q 3003 894 3003 1313 
Q 3003 1734 2745 1975 
Q 2488 2216 2034 2216 
z
M 1403 2484 
Q 997 2584 770 2862 
Q 544 3141 544 3541 
Q 544 4100 942 4425 
Q 1341 4750 2034 4750 
Q 2731 4750 3128 4425 
Q 3525 4100 3525 3541 
Q 3525 3141 3298 2862 
Q 3072 2584 2669 2484 
Q 3125 2378 3379 2068 
Q 3634 1759 3634 1313 
Q 3634 634 3220 271 
Q 2806 -91 2034 -91 
Q 1263 -91 848 271 
Q 434 634 434 1313 
Q 434 1759 690 2068 
Q 947 2378 1403 2484 
z
M 1172 3481 
Q 1172 3119 1398 2916 
Q 1625 2713 2034 2713 
Q 2441 2713 2670 2916 
Q 2900 3119 2900 3481 
Q 2900 3844 2670 4047 
Q 2441 4250 2034 4250 
Q 1625 4250 1398 4047 
Q 1172 3844 1172 3481 
z
" transform="scale(0.015625)"/>
     </defs>
     <use xlink:href="#DejaVuSans-Oblique-72" transform="translate(0 0.78125)"/>
     <use xlink:href="#DejaVuSans-3d" transform="translate(60.595703 0.78125)"/>
     <use xlink:href="#DejaVuSans-2212" transform="translate(183.349609 0.78125)"/>
     <use xlink:href="#DejaVuSans-30" transform="translate(286.621094 0.78125)"/>
     <use xlink:href="#DejaVuSans-2e" transform="translate(350.244141 0.78125)"/>
     <use xlink:href="#DejaVuSans-30" transform="translate(382.03125 0.78125)"/>
     <use xlink:href="#DejaVuSans-32" transform="translate(445.654297 0.78125)"/>
     <use xlink:href="#DejaVuSans-38" transform="translate(509.277344 0.78125)"/>
    </g>
    <!-- $p=0.730$ -->
    <g transform="translate(29.17984 16.149023) scale(0.05 -0.05)">
     <defs>
      <path id="DejaVuSans-Oblique-70" d="M 3175 2156 
Q 3175 2616 2975 2859 
Q 2775 3103 2400 3103 
Q 2144 3103 1911 2972 
Q 1678 2841 1497 2591 
Q 1319 2344 1212 1994 
Q 1106 1644 1106 1300 
Q 1106 863 1306 627 
Q 1506 391 1875 391 
Q 2147 391 2380 519 
Q 2613 647 2778 891 
Q 2956 1147 3065 1494 
Q 3175 1841 3175 2156 
z
M 1394 2969 
Q 1625 3272 1939 3428 
Q 2253 3584 2638 3584 
Q 3175 3584 3472 3232 
Q 3769 2881 3769 2247 
Q 3769 1728 3584 1258 
Q 3400 788 3053 416 
Q 2822 169 2531 39 
Q 2241 -91 1919 -91 
Q 1547 -91 1294 64 
Q 1041 219 916 525 
L 556 -1331 
L -19 -1331 
L 922 3500 
L 1497 3500 
L 1394 2969 
z
" transform="scale(0.015625)"/>
      <path id="DejaVuSans-37" d="M 525 4666 
L 3525 4666 
L 3525 4397 
L 1831 0 
L 1172 0 
L 2766 4134 
L 525 4134 
L 525 4666 
z
" transform="scale(0.015625)"/>
      <path id="DejaVuSans-33" d="M 2597 2516 
Q 3050 2419 3304 2112 
Q 3559 1806 3559 1356 
Q 3559 666 3084 287 
Q 2609 -91 1734 -91 
Q 1441 -91 1130 -33 
Q 819 25 488 141 
L 488 750 
Q 750 597 1062 519 
Q 1375 441 1716 441 
Q 2309 441 2620 675 
Q 2931 909 2931 1356 
Q 2931 1769 2642 2001 
Q 2353 2234 1838 2234 
L 1294 2234 
L 1294 2753 
L 1863 2753 
Q 2328 2753 2575 2939 
Q 2822 3125 2822 3475 
Q 2822 3834 2567 4026 
Q 2313 4219 1838 4219 
Q 1578 4219 1281 4162 
Q 984 4106 628 3988 
L 628 4550 
Q 988 4650 1302 4700 
Q 1616 4750 1894 4750 
Q 2613 4750 3031 4423 
Q 3450 4097 3450 3541 
Q 3450 3153 3228 2886 
Q 3006 2619 2597 2516 
z
" transform="scale(0.015625)"/>
     </defs>
     <use xlink:href="#DejaVuSans-Oblique-70" transform="translate(0 0.78125)"/>
     <use xlink:href="#DejaVuSans-3d" transform="translate(82.958984 0.78125)"/>
     <use xlink:href="#DejaVuSans-30" transform="translate(186.230469 0.78125)"/>
     <use xlink:href="#DejaVuSans-2e" transform="translate(249.853516 0.78125)"/>
     <use xlink:href="#DejaVuSans-37" transform="translate(273.890625 0.78125)"/>
     <use xlink:href="#DejaVuSans-33" transform="translate(337.513672 0.78125)"/>
     <use xlink:href="#DejaVuSans-30" transform="translate(401.136719 0.78125)"/>
    </g>
   </g>
  </g>
 </g>
 <defs>
  <clipPath id="pb48073b778">
   <rect x="25.4275" y="5.4" width="125.078012" height="83.818327"/>
  </clipPath>
 </defs>
</svg>
