<?xml version="1.0" encoding="utf-8" standalone="no"?>
<!DOCTYPE svg PUBLIC "-//W3C//DTD SVG 1.1//EN"
  "http://www.w3.org/Graphics/SVG/1.1/DTD/svg11.dtd">
<svg xmlns:xlink="http://www.w3.org/1999/xlink" width="155.905512pt" height="113.385827pt" viewBox="0 0 155.905512 113.385827" xmlns="http://www.w3.org/2000/svg" version="1.1">
 <metadata>
  <rdf:RDF xmlns:dc="http://purl.org/dc/elements/1.1/" xmlns:cc="http://creativecommons.org/ns#" xmlns:rdf="http://www.w3.org/1999/02/22-rdf-syntax-ns#">
   <cc:Work>
    <dc:type rdf:resource="http://purl.org/dc/dcmitype/StillImage"/>
    <dc:date>2025-06-11T09:26:07.681139</dc:date>
    <dc:format>image/svg+xml</dc:format>
    <dc:creator>
     <cc:Agent>
      <dc:title>Matplotlib v3.9.2, https://matplotlib.org/</dc:title>
     </cc:Agent>
    </dc:creator>
   </cc:Work>
  </rdf:RDF>
 </metadata>
 <defs>
  <style type="text/css">*{stroke-linejoin: round; stroke-linecap: butt}</style>
 </defs>
 <g id="figure_1">
  <g id="patch_1">
   <path d="M 0 113.385827 
L 155.905512 113.385827 
L 155.905512 0 
L 0 0 
z
" style="fill: #ffffff"/>
  </g>
  <g id="axes_1">
   <g id="patch_2">
    <path d="M 25.36 89.218327 
L 150.505512 89.218327 
L 150.505512 5.4 
L 25.36 5.4 
z
" style="fill: #ffffff"/>
   </g>
   <g id="PathCollection_1">
    <defs>
     <path id="C0_0_8996603027" d="M 0 0.866025 
C 0.229673 0.866025 0.449969 0.774776 0.612372 0.612372 
C 0.774776 0.449969 0.866025 0.229673 0.866025 -0 
C 0.866025 -0.229673 0.774776 -0.449969 0.612372 -0.612372 
C 0.449969 -0.774776 0.229673 -0.866025 0 -0.866025 
C -0.229673 -0.866025 -0.449969 -0.774776 -0.612372 -0.612372 
C -0.774776 -0.449969 -0.866025 -0.229673 -0.866025 0 
C -0.866025 0.229673 -0.774776 0.449969 -0.612372 0.612372 
C -0.449969 0.774776 -0.229673 0.866025 0 0.866025 
z
"/>
    </defs>
    <g clip-path="url(#p3a1f79ff01)">
     <use xlink:href="#C0_0_8996603027" x="72.005145" y="54.634028" style="fill: #ff8c00; fill-opacity: 0.8"/>
    </g>
    <g clip-path="url(#p3a1f79ff01)">
     <use xlink:href="#C0_0_8996603027" x="56.077535" y="60.810283" style="fill: #ff8c00; fill-opacity: 0.8"/>
    </g>
    <g clip-path="url(#p3a1f79ff01)">
     <use xlink:href="#C0_0_8996603027" x="35.599178" y="65.796856" style="fill: #ff8c00; fill-opacity: 0.8"/>
    </g>
    <g clip-path="url(#p3a1f79ff01)">
     <use xlink:href="#C0_0_8996603027" x="62.903654" y="75.696613" style="fill: #ff8c00; fill-opacity: 0.8"/>
    </g>
    <g clip-path="url(#p3a1f79ff01)">
     <use xlink:href="#C0_0_8996603027" x="65.179026" y="75.582873" style="fill: #ff8c00; fill-opacity: 0.8"/>
    </g>
    <g clip-path="url(#p3a1f79ff01)">
     <use xlink:href="#C0_0_8996603027" x="67.454399" y="85.408403" style="fill: #ff8c00; fill-opacity: 0.8"/>
    </g>
    <g clip-path="url(#p3a1f79ff01)">
     <use xlink:href="#C0_0_8996603027" x="53.802162" y="9.209924" style="fill: #ff8c00; fill-opacity: 0.8"/>
    </g>
    <g clip-path="url(#p3a1f79ff01)">
     <use xlink:href="#C0_0_8996603027" x="53.802162" y="26.269282" style="fill: #ff8c00; fill-opacity: 0.8"/>
    </g>
    <g clip-path="url(#p3a1f79ff01)">
     <use xlink:href="#C0_0_8996603027" x="74.280518" y="32.233143" style="fill: #ff8c00; fill-opacity: 0.8"/>
    </g>
    <g clip-path="url(#p3a1f79ff01)">
     <use xlink:href="#C0_0_8996603027" x="74.280518" y="38.666068" style="fill: #ff8c00; fill-opacity: 0.8"/>
    </g>
    <g clip-path="url(#p3a1f79ff01)">
     <use xlink:href="#C0_0_8996603027" x="40.149924" y="34.934287" style="fill: #ff8c00; fill-opacity: 0.8"/>
    </g>
    <g clip-path="url(#p3a1f79ff01)">
     <use xlink:href="#C0_0_8996603027" x="67.454399" y="47.552394" style="fill: #ff8c00; fill-opacity: 0.8"/>
    </g>
    <g clip-path="url(#p3a1f79ff01)">
     <use xlink:href="#C0_0_8996603027" x="90.208129" y="47.87955" style="fill: #ff8c00; fill-opacity: 0.8"/>
    </g>
    <g clip-path="url(#p3a1f79ff01)">
     <use xlink:href="#C0_0_8996603027" x="90.208129" y="45.279753" style="fill: #ff8c00; fill-opacity: 0.8"/>
    </g>
    <g clip-path="url(#p3a1f79ff01)">
     <use xlink:href="#C0_0_8996603027" x="65.179026" y="81.187018" style="fill: #ff8c00; fill-opacity: 0.8"/>
    </g>
    <g clip-path="url(#p3a1f79ff01)">
     <use xlink:href="#C0_0_8996603027" x="53.802162" y="47.903608" style="fill: #ff8c00; fill-opacity: 0.8"/>
    </g>
    <g clip-path="url(#p3a1f79ff01)">
     <use xlink:href="#C0_0_8996603027" x="42.425297" y="50.175662" style="fill: #ff8c00; fill-opacity: 0.8"/>
    </g>
    <g clip-path="url(#p3a1f79ff01)">
     <use xlink:href="#C0_0_8996603027" x="65.179026" y="71.321371" style="fill: #ff8c00; fill-opacity: 0.8"/>
    </g>
    <g clip-path="url(#p3a1f79ff01)">
     <use xlink:href="#C0_0_8996603027" x="87.932756" y="64.991632" style="fill: #ff8c00; fill-opacity: 0.8"/>
    </g>
    <g clip-path="url(#p3a1f79ff01)">
     <use xlink:href="#C0_0_8996603027" x="65.179026" y="72.442208" style="fill: #ff8c00; fill-opacity: 0.8"/>
    </g>
    <g clip-path="url(#p3a1f79ff01)">
     <use xlink:href="#C0_0_8996603027" x="67.454399" y="28.512198" style="fill: #ff8c00; fill-opacity: 0.8"/>
    </g>
    <g clip-path="url(#p3a1f79ff01)">
     <use xlink:href="#C0_0_8996603027" x="60.628281" y="72.136159" style="fill: #ff8c00; fill-opacity: 0.8"/>
    </g>
    <g clip-path="url(#p3a1f79ff01)">
     <use xlink:href="#C0_0_8996603027" x="67.454399" y="29.086226" style="fill: #ff8c00; fill-opacity: 0.8"/>
    </g>
    <g clip-path="url(#p3a1f79ff01)">
     <use xlink:href="#C0_0_8996603027" x="67.454399" y="42.534838" style="fill: #ff8c00; fill-opacity: 0.8"/>
    </g>
    <g clip-path="url(#p3a1f79ff01)">
     <use xlink:href="#C0_0_8996603027" x="62.903654" y="51.323942" style="fill: #ff8c00; fill-opacity: 0.8"/>
    </g>
    <g clip-path="url(#p3a1f79ff01)">
     <use xlink:href="#C0_0_8996603027" x="62.903654" y="77.292421" style="fill: #ff8c00; fill-opacity: 0.8"/>
    </g>
    <g clip-path="url(#p3a1f79ff01)">
     <use xlink:href="#C0_0_8996603027" x="81.106637" y="49.78973" style="fill: #ff8c00; fill-opacity: 0.8"/>
    </g>
    <g clip-path="url(#p3a1f79ff01)">
     <use xlink:href="#C0_0_8996603027" x="65.179026" y="30.244214" style="fill: #ff8c00; fill-opacity: 0.8"/>
    </g>
    <g clip-path="url(#p3a1f79ff01)">
     <use xlink:href="#C0_0_8996603027" x="101.584994" y="70.891303" style="fill: #ff8c00; fill-opacity: 0.8"/>
    </g>
    <g clip-path="url(#p3a1f79ff01)">
     <use xlink:href="#C0_0_8996603027" x="53.802162" y="68.791345" style="fill: #ff8c00; fill-opacity: 0.8"/>
    </g>
    <g clip-path="url(#p3a1f79ff01)">
     <use xlink:href="#C0_0_8996603027" x="62.903654" y="78.553626" style="fill: #ff8c00; fill-opacity: 0.8"/>
    </g>
    <g clip-path="url(#p3a1f79ff01)">
     <use xlink:href="#C0_0_8996603027" x="72.005145" y="45.726889" style="fill: #ff8c00; fill-opacity: 0.8"/>
    </g>
    <g clip-path="url(#p3a1f79ff01)">
     <use xlink:href="#C0_0_8996603027" x="58.352908" y="48.268034" style="fill: #ff8c00; fill-opacity: 0.8"/>
    </g>
    <g clip-path="url(#p3a1f79ff01)">
     <use xlink:href="#C0_0_8996603027" x="58.352908" y="64.582441" style="fill: #ff8c00; fill-opacity: 0.8"/>
    </g>
    <g clip-path="url(#p3a1f79ff01)">
     <use xlink:href="#C0_0_8996603027" x="97.034248" y="48.129371" style="fill: #ff8c00; fill-opacity: 0.8"/>
    </g>
    <g clip-path="url(#p3a1f79ff01)">
     <use xlink:href="#C0_0_8996603027" x="97.034248" y="56.3522" style="fill: #ff8c00; fill-opacity: 0.8"/>
    </g>
    <g clip-path="url(#p3a1f79ff01)">
     <use xlink:href="#C0_0_8996603027" x="46.976043" y="69.259607" style="fill: #ff8c00; fill-opacity: 0.8"/>
    </g>
    <g clip-path="url(#p3a1f79ff01)">
     <use xlink:href="#C0_0_8996603027" x="40.149924" y="70.8174" style="fill: #ff8c00; fill-opacity: 0.8"/>
    </g>
    <g clip-path="url(#p3a1f79ff01)">
     <use xlink:href="#C0_0_8996603027" x="72.005145" y="27.863495" style="fill: #ff8c00; fill-opacity: 0.8"/>
    </g>
    <g clip-path="url(#p3a1f79ff01)">
     <use xlink:href="#C0_0_8996603027" x="58.352908" y="59.371259" style="fill: #ff8c00; fill-opacity: 0.8"/>
    </g>
    <g clip-path="url(#p3a1f79ff01)">
     <use xlink:href="#C0_0_8996603027" x="67.454399" y="52.817168" style="fill: #ff8c00; fill-opacity: 0.8"/>
    </g>
    <g clip-path="url(#p3a1f79ff01)">
     <use xlink:href="#C0_0_8996603027" x="35.599178" y="14.969203" style="fill: #ff8c00; fill-opacity: 0.8"/>
    </g>
    <g clip-path="url(#p3a1f79ff01)">
     <use xlink:href="#C0_0_8996603027" x="35.599178" y="24.350149" style="fill: #ff8c00; fill-opacity: 0.8"/>
    </g>
    <g clip-path="url(#p3a1f79ff01)">
     <use xlink:href="#C0_0_8996603027" x="74.280518" y="57.369492" style="fill: #ff8c00; fill-opacity: 0.8"/>
    </g>
    <g clip-path="url(#p3a1f79ff01)">
     <use xlink:href="#C0_0_8996603027" x="44.70067" y="49.57594" style="fill: #ff8c00; fill-opacity: 0.8"/>
    </g>
    <g clip-path="url(#p3a1f79ff01)">
     <use xlink:href="#C0_0_8996603027" x="44.70067" y="31.091436" style="fill: #ff8c00; fill-opacity: 0.8"/>
    </g>
    <g clip-path="url(#p3a1f79ff01)">
     <use xlink:href="#C0_0_8996603027" x="44.70067" y="39.026145" style="fill: #ff8c00; fill-opacity: 0.8"/>
    </g>
    <g clip-path="url(#p3a1f79ff01)">
     <use xlink:href="#C0_0_8996603027" x="60.628281" y="20.09044" style="fill: #ff8c00; fill-opacity: 0.8"/>
    </g>
    <g clip-path="url(#p3a1f79ff01)">
     <use xlink:href="#C0_0_8996603027" x="87.932756" y="22.077942" style="fill: #ff8c00; fill-opacity: 0.8"/>
    </g>
    <g clip-path="url(#p3a1f79ff01)">
     <use xlink:href="#C0_0_8996603027" x="76.555891" y="35.072762" style="fill: #ff8c00; fill-opacity: 0.8"/>
    </g>
    <g clip-path="url(#p3a1f79ff01)">
     <use xlink:href="#C0_0_8996603027" x="81.106637" y="28.184525" style="fill: #ff8c00; fill-opacity: 0.8"/>
    </g>
    <g clip-path="url(#p3a1f79ff01)">
     <use xlink:href="#C0_0_8996603027" x="74.280518" y="39.273735" style="fill: #ff8c00; fill-opacity: 0.8"/>
    </g>
    <g clip-path="url(#p3a1f79ff01)">
     <use xlink:href="#C0_0_8996603027" x="67.454399" y="36.994253" style="fill: #ff8c00; fill-opacity: 0.8"/>
    </g>
    <g clip-path="url(#p3a1f79ff01)">
     <use xlink:href="#C0_0_8996603027" x="40.149924" y="34.51034" style="fill: #ff8c00; fill-opacity: 0.8"/>
    </g>
    <g clip-path="url(#p3a1f79ff01)">
     <use xlink:href="#C0_0_8996603027" x="31.048432" y="39.322787" style="fill: #ff8c00; fill-opacity: 0.8"/>
    </g>
    <g clip-path="url(#p3a1f79ff01)">
     <use xlink:href="#C0_0_8996603027" x="62.903654" y="44.946741" style="fill: #ff8c00; fill-opacity: 0.8"/>
    </g>
    <g clip-path="url(#p3a1f79ff01)">
     <use xlink:href="#C0_0_8996603027" x="62.903654" y="29.552849" style="fill: #ff8c00; fill-opacity: 0.8"/>
    </g>
    <g clip-path="url(#p3a1f79ff01)">
     <use xlink:href="#C0_0_8996603027" x="74.280518" y="71.002714" style="fill: #ff8c00; fill-opacity: 0.8"/>
    </g>
    <g clip-path="url(#p3a1f79ff01)">
     <use xlink:href="#C0_0_8996603027" x="65.179026" y="57.15256" style="fill: #ff8c00; fill-opacity: 0.8"/>
    </g>
    <g clip-path="url(#p3a1f79ff01)">
     <use xlink:href="#C0_0_8996603027" x="122.06335" y="24.803313" style="fill: #ff8c00; fill-opacity: 0.8"/>
    </g>
    <g clip-path="url(#p3a1f79ff01)">
     <use xlink:href="#C0_0_8996603027" x="58.352908" y="55.646203" style="fill: #ff8c00; fill-opacity: 0.8"/>
    </g>
    <g clip-path="url(#p3a1f79ff01)">
     <use xlink:href="#C0_0_8996603027" x="58.352908" y="55.107401" style="fill: #ff8c00; fill-opacity: 0.8"/>
    </g>
    <g clip-path="url(#p3a1f79ff01)">
     <use xlink:href="#C0_0_8996603027" x="40.149924" y="48.121438" style="fill: #ff8c00; fill-opacity: 0.8"/>
    </g>
    <g clip-path="url(#p3a1f79ff01)">
     <use xlink:href="#C0_0_8996603027" x="40.149924" y="69.222406" style="fill: #ff8c00; fill-opacity: 0.8"/>
    </g>
    <g clip-path="url(#p3a1f79ff01)">
     <use xlink:href="#C0_0_8996603027" x="69.729772" y="54.134793" style="fill: #ff8c00; fill-opacity: 0.8"/>
    </g>
    <g clip-path="url(#p3a1f79ff01)">
     <use xlink:href="#C0_0_8996603027" x="62.903654" y="44.94517" style="fill: #ff8c00; fill-opacity: 0.8"/>
    </g>
    <g clip-path="url(#p3a1f79ff01)">
     <use xlink:href="#C0_0_8996603027" x="62.903654" y="69.414822" style="fill: #ff8c00; fill-opacity: 0.8"/>
    </g>
    <g clip-path="url(#p3a1f79ff01)">
     <use xlink:href="#C0_0_8996603027" x="51.526789" y="60.796545" style="fill: #ff8c00; fill-opacity: 0.8"/>
    </g>
    <g clip-path="url(#p3a1f79ff01)">
     <use xlink:href="#C0_0_8996603027" x="65.179026" y="61.02852" style="fill: #ff8c00; fill-opacity: 0.8"/>
    </g>
    <g clip-path="url(#p3a1f79ff01)">
     <use xlink:href="#C0_0_8996603027" x="74.280518" y="64.152178" style="fill: #ff8c00; fill-opacity: 0.8"/>
    </g>
    <g clip-path="url(#p3a1f79ff01)">
     <use xlink:href="#C0_0_8996603027" x="103.860366" y="50.432503" style="fill: #ff8c00; fill-opacity: 0.8"/>
    </g>
    <g clip-path="url(#p3a1f79ff01)">
     <use xlink:href="#C0_0_8996603027" x="72.005145" y="49.72812" style="fill: #ff8c00; fill-opacity: 0.8"/>
    </g>
    <g clip-path="url(#p3a1f79ff01)">
     <use xlink:href="#C0_0_8996603027" x="144.817079" y="21.097289" style="fill: #ff8c00; fill-opacity: 0.8"/>
    </g>
    <g clip-path="url(#p3a1f79ff01)">
     <use xlink:href="#C0_0_8996603027" x="78.831264" y="45.697461" style="fill: #ff8c00; fill-opacity: 0.8"/>
    </g>
    <g clip-path="url(#p3a1f79ff01)">
     <use xlink:href="#C0_0_8996603027" x="74.280518" y="56.322758" style="fill: #ff8c00; fill-opacity: 0.8"/>
    </g>
    <g clip-path="url(#p3a1f79ff01)">
     <use xlink:href="#C0_0_8996603027" x="99.309621" y="44.250028" style="fill: #ff8c00; fill-opacity: 0.8"/>
    </g>
    <g clip-path="url(#p3a1f79ff01)">
     <use xlink:href="#C0_0_8996603027" x="74.280518" y="64.892283" style="fill: #ff8c00; fill-opacity: 0.8"/>
    </g>
    <g clip-path="url(#p3a1f79ff01)">
     <use xlink:href="#C0_0_8996603027" x="74.280518" y="68.874459" style="fill: #ff8c00; fill-opacity: 0.8"/>
    </g>
    <g clip-path="url(#p3a1f79ff01)">
     <use xlink:href="#C0_0_8996603027" x="56.077535" y="45.743863" style="fill: #ff8c00; fill-opacity: 0.8"/>
    </g>
    <g clip-path="url(#p3a1f79ff01)">
     <use xlink:href="#C0_0_8996603027" x="62.903654" y="41.950946" style="fill: #ff8c00; fill-opacity: 0.8"/>
    </g>
    <g clip-path="url(#p3a1f79ff01)">
     <use xlink:href="#C0_0_8996603027" x="65.179026" y="39.89146" style="fill: #ff8c00; fill-opacity: 0.8"/>
    </g>
    <g clip-path="url(#p3a1f79ff01)">
     <use xlink:href="#C0_0_8996603027" x="65.179026" y="56.297842" style="fill: #ff8c00; fill-opacity: 0.8"/>
    </g>
    <g clip-path="url(#p3a1f79ff01)">
     <use xlink:href="#C0_0_8996603027" x="81.106637" y="62.644042" style="fill: #ff8c00; fill-opacity: 0.8"/>
    </g>
    <g clip-path="url(#p3a1f79ff01)">
     <use xlink:href="#C0_0_8996603027" x="81.106637" y="66.30823" style="fill: #ff8c00; fill-opacity: 0.8"/>
    </g>
    <g clip-path="url(#p3a1f79ff01)">
     <use xlink:href="#C0_0_8996603027" x="94.758875" y="27.795791" style="fill: #ff8c00; fill-opacity: 0.8"/>
    </g>
    <g clip-path="url(#p3a1f79ff01)">
     <use xlink:href="#C0_0_8996603027" x="53.802162" y="27.026328" style="fill: #ff8c00; fill-opacity: 0.8"/>
    </g>
    <g clip-path="url(#p3a1f79ff01)">
     <use xlink:href="#C0_0_8996603027" x="53.802162" y="39.22861" style="fill: #ff8c00; fill-opacity: 0.8"/>
    </g>
    <g clip-path="url(#p3a1f79ff01)">
     <use xlink:href="#C0_0_8996603027" x="78.831264" y="31.930057" style="fill: #ff8c00; fill-opacity: 0.8"/>
    </g>
    <g clip-path="url(#p3a1f79ff01)">
     <use xlink:href="#C0_0_8996603027" x="56.077535" y="66.729254" style="fill: #ff8c00; fill-opacity: 0.8"/>
    </g>
    <g clip-path="url(#p3a1f79ff01)">
     <use xlink:href="#C0_0_8996603027" x="83.38201" y="32.447623" style="fill: #ff8c00; fill-opacity: 0.8"/>
    </g>
    <g clip-path="url(#p3a1f79ff01)">
     <use xlink:href="#C0_0_8996603027" x="72.005145" y="47.627405" style="fill: #ff8c00; fill-opacity: 0.8"/>
    </g>
    <g clip-path="url(#p3a1f79ff01)">
     <use xlink:href="#C0_0_8996603027" x="53.802162" y="20.042006" style="fill: #ff8c00; fill-opacity: 0.8"/>
    </g>
    <g clip-path="url(#p3a1f79ff01)">
     <use xlink:href="#C0_0_8996603027" x="135.715588" y="48.145748" style="fill: #ff8c00; fill-opacity: 0.8"/>
    </g>
    <g clip-path="url(#p3a1f79ff01)">
     <use xlink:href="#C0_0_8996603027" x="72.005145" y="34.187866" style="fill: #ff8c00; fill-opacity: 0.8"/>
    </g>
    <g clip-path="url(#p3a1f79ff01)">
     <use xlink:href="#C0_0_8996603027" x="72.005145" y="56.212606" style="fill: #ff8c00; fill-opacity: 0.8"/>
    </g>
    <g clip-path="url(#p3a1f79ff01)">
     <use xlink:href="#C0_0_8996603027" x="74.280518" y="68.241503" style="fill: #ff8c00; fill-opacity: 0.8"/>
    </g>
    <g clip-path="url(#p3a1f79ff01)">
     <use xlink:href="#C0_0_8996603027" x="72.005145" y="60.570823" style="fill: #ff8c00; fill-opacity: 0.8"/>
    </g>
    <g clip-path="url(#p3a1f79ff01)">
     <use xlink:href="#C0_0_8996603027" x="53.802162" y="52.024744" style="fill: #ff8c00; fill-opacity: 0.8"/>
    </g>
    <g clip-path="url(#p3a1f79ff01)">
     <use xlink:href="#C0_0_8996603027" x="53.802162" y="50.83427" style="fill: #ff8c00; fill-opacity: 0.8"/>
    </g>
    <g clip-path="url(#p3a1f79ff01)">
     <use xlink:href="#C0_0_8996603027" x="74.280518" y="64.270178" style="fill: #ff8c00; fill-opacity: 0.8"/>
    </g>
    <g clip-path="url(#p3a1f79ff01)">
     <use xlink:href="#C0_0_8996603027" x="74.280518" y="55.19923" style="fill: #ff8c00; fill-opacity: 0.8"/>
    </g>
    <g clip-path="url(#p3a1f79ff01)">
     <use xlink:href="#C0_0_8996603027" x="67.454399" y="68.920143" style="fill: #ff8c00; fill-opacity: 0.8"/>
    </g>
    <g clip-path="url(#p3a1f79ff01)">
     <use xlink:href="#C0_0_8996603027" x="53.802162" y="77.252845" style="fill: #ff8c00; fill-opacity: 0.8"/>
    </g>
    <g clip-path="url(#p3a1f79ff01)">
     <use xlink:href="#C0_0_8996603027" x="42.425297" y="60.243068" style="fill: #ff8c00; fill-opacity: 0.8"/>
    </g>
    <g clip-path="url(#p3a1f79ff01)">
     <use xlink:href="#C0_0_8996603027" x="67.454399" y="66.608822" style="fill: #ff8c00; fill-opacity: 0.8"/>
    </g>
    <g clip-path="url(#p3a1f79ff01)">
     <use xlink:href="#C0_0_8996603027" x="60.628281" y="62.876551" style="fill: #ff8c00; fill-opacity: 0.8"/>
    </g>
    <g clip-path="url(#p3a1f79ff01)">
     <use xlink:href="#C0_0_8996603027" x="67.454399" y="69.978961" style="fill: #ff8c00; fill-opacity: 0.8"/>
    </g>
    <g clip-path="url(#p3a1f79ff01)">
     <use xlink:href="#C0_0_8996603027" x="67.454399" y="67.516612" style="fill: #ff8c00; fill-opacity: 0.8"/>
    </g>
    <g clip-path="url(#p3a1f79ff01)">
     <use xlink:href="#C0_0_8996603027" x="81.106637" y="63.007115" style="fill: #ff8c00; fill-opacity: 0.8"/>
    </g>
    <g clip-path="url(#p3a1f79ff01)">
     <use xlink:href="#C0_0_8996603027" x="53.802162" y="75.569152" style="fill: #ff8c00; fill-opacity: 0.8"/>
    </g>
    <g clip-path="url(#p3a1f79ff01)">
     <use xlink:href="#C0_0_8996603027" x="62.903654" y="58.590074" style="fill: #ff8c00; fill-opacity: 0.8"/>
    </g>
    <g clip-path="url(#p3a1f79ff01)">
     <use xlink:href="#C0_0_8996603027" x="72.005145" y="58.443014" style="fill: #ff8c00; fill-opacity: 0.8"/>
    </g>
    <g clip-path="url(#p3a1f79ff01)">
     <use xlink:href="#C0_0_8996603027" x="58.352908" y="67.227642" style="fill: #ff8c00; fill-opacity: 0.8"/>
    </g>
    <g clip-path="url(#p3a1f79ff01)">
     <use xlink:href="#C0_0_8996603027" x="58.352908" y="81.802194" style="fill: #ff8c00; fill-opacity: 0.8"/>
    </g>
    <g clip-path="url(#p3a1f79ff01)">
     <use xlink:href="#C0_0_8996603027" x="97.034248" y="58.79368" style="fill: #ff8c00; fill-opacity: 0.8"/>
    </g>
    <g clip-path="url(#p3a1f79ff01)">
     <use xlink:href="#C0_0_8996603027" x="97.034248" y="78.835358" style="fill: #ff8c00; fill-opacity: 0.8"/>
    </g>
    <g clip-path="url(#p3a1f79ff01)">
     <use xlink:href="#C0_0_8996603027" x="40.149924" y="72.101205" style="fill: #ff8c00; fill-opacity: 0.8"/>
    </g>
    <g clip-path="url(#p3a1f79ff01)">
     <use xlink:href="#C0_0_8996603027" x="72.005145" y="80.420788" style="fill: #ff8c00; fill-opacity: 0.8"/>
    </g>
    <g clip-path="url(#p3a1f79ff01)">
     <use xlink:href="#C0_0_8996603027" x="58.352908" y="50.746509" style="fill: #ff8c00; fill-opacity: 0.8"/>
    </g>
    <g clip-path="url(#p3a1f79ff01)">
     <use xlink:href="#C0_0_8996603027" x="67.454399" y="37.64309" style="fill: #ff8c00; fill-opacity: 0.8"/>
    </g>
    <g clip-path="url(#p3a1f79ff01)">
     <use xlink:href="#C0_0_8996603027" x="35.599178" y="43.66278" style="fill: #ff8c00; fill-opacity: 0.8"/>
    </g>
    <g clip-path="url(#p3a1f79ff01)">
     <use xlink:href="#C0_0_8996603027" x="35.599178" y="46.313659" style="fill: #ff8c00; fill-opacity: 0.8"/>
    </g>
    <g clip-path="url(#p3a1f79ff01)">
     <use xlink:href="#C0_0_8996603027" x="74.280518" y="70.29202" style="fill: #ff8c00; fill-opacity: 0.8"/>
    </g>
    <g clip-path="url(#p3a1f79ff01)">
     <use xlink:href="#C0_0_8996603027" x="60.628281" y="65.128345" style="fill: #ff8c00; fill-opacity: 0.8"/>
    </g>
    <g clip-path="url(#p3a1f79ff01)">
     <use xlink:href="#C0_0_8996603027" x="87.932756" y="58.488196" style="fill: #ff8c00; fill-opacity: 0.8"/>
    </g>
    <g clip-path="url(#p3a1f79ff01)">
     <use xlink:href="#C0_0_8996603027" x="76.555891" y="62.972604" style="fill: #ff8c00; fill-opacity: 0.8"/>
    </g>
    <g clip-path="url(#p3a1f79ff01)">
     <use xlink:href="#C0_0_8996603027" x="81.106637" y="46.235956" style="fill: #ff8c00; fill-opacity: 0.8"/>
    </g>
    <g clip-path="url(#p3a1f79ff01)">
     <use xlink:href="#C0_0_8996603027" x="67.454399" y="63.332496" style="fill: #ff8c00; fill-opacity: 0.8"/>
    </g>
    <g clip-path="url(#p3a1f79ff01)">
     <use xlink:href="#C0_0_8996603027" x="40.149924" y="46.826368" style="fill: #ff8c00; fill-opacity: 0.8"/>
    </g>
    <g clip-path="url(#p3a1f79ff01)">
     <use xlink:href="#C0_0_8996603027" x="31.048432" y="63.642996" style="fill: #ff8c00; fill-opacity: 0.8"/>
    </g>
    <g clip-path="url(#p3a1f79ff01)">
     <use xlink:href="#C0_0_8996603027" x="62.903654" y="67.158598" style="fill: #ff8c00; fill-opacity: 0.8"/>
    </g>
    <g clip-path="url(#p3a1f79ff01)">
     <use xlink:href="#C0_0_8996603027" x="62.903654" y="49.152073" style="fill: #ff8c00; fill-opacity: 0.8"/>
    </g>
    <g clip-path="url(#p3a1f79ff01)">
     <use xlink:href="#C0_0_8996603027" x="65.179026" y="45.82783" style="fill: #ff8c00; fill-opacity: 0.8"/>
    </g>
    <g clip-path="url(#p3a1f79ff01)">
     <use xlink:href="#C0_0_8996603027" x="122.06335" y="58.331705" style="fill: #ff8c00; fill-opacity: 0.8"/>
    </g>
    <g clip-path="url(#p3a1f79ff01)">
     <use xlink:href="#C0_0_8996603027" x="58.352908" y="72.156394" style="fill: #ff8c00; fill-opacity: 0.8"/>
    </g>
    <g clip-path="url(#p3a1f79ff01)">
     <use xlink:href="#C0_0_8996603027" x="58.352908" y="64.805979" style="fill: #ff8c00; fill-opacity: 0.8"/>
    </g>
    <g clip-path="url(#p3a1f79ff01)">
     <use xlink:href="#C0_0_8996603027" x="62.903654" y="53.371201" style="fill: #ff8c00; fill-opacity: 0.8"/>
    </g>
    <g clip-path="url(#p3a1f79ff01)">
     <use xlink:href="#C0_0_8996603027" x="51.526789" y="73.828884" style="fill: #ff8c00; fill-opacity: 0.8"/>
    </g>
    <g clip-path="url(#p3a1f79ff01)">
     <use xlink:href="#C0_0_8996603027" x="65.179026" y="59.547921" style="fill: #ff8c00; fill-opacity: 0.8"/>
    </g>
    <g clip-path="url(#p3a1f79ff01)">
     <use xlink:href="#C0_0_8996603027" x="74.280518" y="66.101633" style="fill: #ff8c00; fill-opacity: 0.8"/>
    </g>
    <g clip-path="url(#p3a1f79ff01)">
     <use xlink:href="#C0_0_8996603027" x="72.005145" y="70.461374" style="fill: #ff8c00; fill-opacity: 0.8"/>
    </g>
    <g clip-path="url(#p3a1f79ff01)">
     <use xlink:href="#C0_0_8996603027" x="144.817079" y="58.85399" style="fill: #ff8c00; fill-opacity: 0.8"/>
    </g>
    <g clip-path="url(#p3a1f79ff01)">
     <use xlink:href="#C0_0_8996603027" x="78.831264" y="56.3768" style="fill: #ff8c00; fill-opacity: 0.8"/>
    </g>
    <g clip-path="url(#p3a1f79ff01)">
     <use xlink:href="#C0_0_8996603027" x="99.309621" y="74.259498" style="fill: #ff8c00; fill-opacity: 0.8"/>
    </g>
    <g clip-path="url(#p3a1f79ff01)">
     <use xlink:href="#C0_0_8996603027" x="74.280518" y="82.511922" style="fill: #ff8c00; fill-opacity: 0.8"/>
    </g>
    <g clip-path="url(#p3a1f79ff01)">
     <use xlink:href="#C0_0_8996603027" x="74.280518" y="83.043595" style="fill: #ff8c00; fill-opacity: 0.8"/>
    </g>
    <g clip-path="url(#p3a1f79ff01)">
     <use xlink:href="#C0_0_8996603027" x="56.077535" y="72.721174" style="fill: #ff8c00; fill-opacity: 0.8"/>
    </g>
    <g clip-path="url(#p3a1f79ff01)">
     <use xlink:href="#C0_0_8996603027" x="65.179026" y="71.473926" style="fill: #ff8c00; fill-opacity: 0.8"/>
    </g>
    <g clip-path="url(#p3a1f79ff01)">
     <use xlink:href="#C0_0_8996603027" x="65.179026" y="63.31855" style="fill: #ff8c00; fill-opacity: 0.8"/>
    </g>
    <g clip-path="url(#p3a1f79ff01)">
     <use xlink:href="#C0_0_8996603027" x="94.758875" y="72.954704" style="fill: #ff8c00; fill-opacity: 0.8"/>
    </g>
    <g clip-path="url(#p3a1f79ff01)">
     <use xlink:href="#C0_0_8996603027" x="53.802162" y="47.510796" style="fill: #ff8c00; fill-opacity: 0.8"/>
    </g>
    <g clip-path="url(#p3a1f79ff01)">
     <use xlink:href="#C0_0_8996603027" x="53.802162" y="66.611919" style="fill: #ff8c00; fill-opacity: 0.8"/>
    </g>
    <g clip-path="url(#p3a1f79ff01)">
     <use xlink:href="#C0_0_8996603027" x="78.831264" y="59.215159" style="fill: #ff8c00; fill-opacity: 0.8"/>
    </g>
    <g clip-path="url(#p3a1f79ff01)">
     <use xlink:href="#C0_0_8996603027" x="56.077535" y="61.974585" style="fill: #ff8c00; fill-opacity: 0.8"/>
    </g>
    <g clip-path="url(#p3a1f79ff01)">
     <use xlink:href="#C0_0_8996603027" x="53.802162" y="72.697856" style="fill: #ff8c00; fill-opacity: 0.8"/>
    </g>
    <g clip-path="url(#p3a1f79ff01)">
     <use xlink:href="#C0_0_8996603027" x="135.715588" y="43.591991" style="fill: #ff8c00; fill-opacity: 0.8"/>
    </g>
    <g clip-path="url(#p3a1f79ff01)">
     <use xlink:href="#C0_0_8996603027" x="72.005145" y="66.206668" style="fill: #ff8c00; fill-opacity: 0.8"/>
    </g>
    <g clip-path="url(#p3a1f79ff01)">
     <use xlink:href="#C0_0_8996603027" x="74.280518" y="58.593581" style="fill: #ff8c00; fill-opacity: 0.8"/>
    </g>
   </g>
   <g id="PolyCollection_1">
    <path d="M 31.048432 49.479092 
L 31.048432 61.356354 
L 32.197611 61.164644 
L 33.346789 61.002243 
L 34.495967 60.845829 
L 35.645145 60.705117 
L 36.794324 60.539696 
L 37.943502 60.397377 
L 39.09268 60.208399 
L 40.241858 60.057181 
L 41.391037 59.892853 
L 42.540215 59.730573 
L 43.689393 59.560878 
L 44.838571 59.423062 
L 45.98775 59.268715 
L 47.136928 59.10504 
L 48.286106 58.945308 
L 49.435284 58.811797 
L 50.584463 58.660927 
L 51.733641 58.52903 
L 52.882819 58.386572 
L 54.031997 58.256127 
L 55.181176 58.135686 
L 56.330354 57.997938 
L 57.479532 57.873822 
L 58.62871 57.775448 
L 59.777889 57.646408 
L 60.927067 57.562596 
L 62.076245 57.469996 
L 63.225423 57.385132 
L 64.374602 57.299766 
L 65.52378 57.225474 
L 66.672958 57.17341 
L 67.822136 57.125226 
L 68.971315 57.092551 
L 70.120493 57.079915 
L 71.269671 57.086549 
L 72.418849 57.088818 
L 73.568028 57.115541 
L 74.717206 57.147395 
L 75.866384 57.199577 
L 77.015562 57.244388 
L 78.164741 57.30421 
L 79.313919 57.368965 
L 80.463097 57.433088 
L 81.612276 57.487977 
L 82.761454 57.552188 
L 83.910632 57.612625 
L 85.05981 57.681119 
L 86.208989 57.771005 
L 87.358167 57.87387 
L 88.507345 57.966388 
L 89.656523 58.078523 
L 90.805702 58.206731 
L 91.95488 58.320089 
L 93.104058 58.429949 
L 94.253236 58.549141 
L 95.402415 58.673569 
L 96.551593 58.797998 
L 97.700771 58.935275 
L 98.849949 59.055524 
L 99.999128 59.165318 
L 101.148306 59.294506 
L 102.297484 59.418639 
L 103.446662 59.514489 
L 104.595841 59.648061 
L 105.745019 59.78457 
L 106.894197 59.933351 
L 108.043375 60.08044 
L 109.192554 60.205799 
L 110.341732 60.337816 
L 111.49091 60.45806 
L 112.640088 60.59623 
L 113.789267 60.727896 
L 114.938445 60.854257 
L 116.087623 60.975251 
L 117.236801 61.11007 
L 118.38598 61.236271 
L 119.535158 61.368199 
L 120.684336 61.49333 
L 121.833514 61.607588 
L 122.982693 61.733901 
L 124.131871 61.878143 
L 125.281049 62.046804 
L 126.430227 62.17793 
L 127.579406 62.300163 
L 128.728584 62.428683 
L 129.877762 62.566473 
L 131.02694 62.6944 
L 132.176119 62.827518 
L 133.325297 62.968047 
L 134.474475 63.123924 
L 135.623653 63.269869 
L 136.772832 63.410579 
L 137.92201 63.529246 
L 139.071188 63.642458 
L 140.220366 63.772405 
L 141.369545 63.907598 
L 142.518723 64.053197 
L 143.667901 64.187185 
L 144.817079 64.342595 
L 144.817079 42.043154 
L 144.817079 42.043154 
L 143.667901 42.219721 
L 142.518723 42.42575 
L 141.369545 42.593971 
L 140.220366 42.794914 
L 139.071188 42.993535 
L 137.92201 43.189228 
L 136.772832 43.361831 
L 135.623653 43.533308 
L 134.474475 43.709047 
L 133.325297 43.888117 
L 132.176119 44.088805 
L 131.02694 44.255975 
L 129.877762 44.440913 
L 128.728584 44.636383 
L 127.579406 44.824159 
L 126.430227 44.992753 
L 125.281049 45.173209 
L 124.131871 45.349714 
L 122.982693 45.518005 
L 121.833514 45.673864 
L 120.684336 45.856836 
L 119.535158 46.044293 
L 118.38598 46.223464 
L 117.236801 46.412822 
L 116.087623 46.567283 
L 114.938445 46.741298 
L 113.789267 46.926088 
L 112.640088 47.101888 
L 111.49091 47.288684 
L 110.341732 47.471515 
L 109.192554 47.632507 
L 108.043375 47.791493 
L 106.894197 47.958985 
L 105.745019 48.125119 
L 104.595841 48.284253 
L 103.446662 48.439811 
L 102.297484 48.609253 
L 101.148306 48.783909 
L 99.999128 48.953692 
L 98.849949 49.114585 
L 97.700771 49.293324 
L 96.551593 49.436841 
L 95.402415 49.588552 
L 94.253236 49.768402 
L 93.104058 49.925018 
L 91.95488 50.078632 
L 90.805702 50.214444 
L 89.656523 50.365838 
L 88.507345 50.524169 
L 87.358167 50.675142 
L 86.208989 50.789143 
L 85.05981 50.901482 
L 83.910632 51.020839 
L 82.761454 51.161339 
L 81.612276 51.276045 
L 80.463097 51.356415 
L 79.313919 51.462069 
L 78.164741 51.574656 
L 77.015562 51.657487 
L 75.866384 51.740813 
L 74.717206 51.823645 
L 73.568028 51.893693 
L 72.418849 51.944527 
L 71.269671 51.989195 
L 70.120493 52.02497 
L 68.971315 52.041889 
L 67.822136 52.046416 
L 66.672958 52.067338 
L 65.52378 52.062751 
L 64.374602 52.058188 
L 63.225423 52.042176 
L 62.076245 52.022082 
L 60.927067 51.985296 
L 59.777889 51.940813 
L 58.62871 51.885076 
L 57.479532 51.810748 
L 56.330354 51.738099 
L 55.181176 51.681149 
L 54.031997 51.614055 
L 52.882819 51.557201 
L 51.733641 51.483535 
L 50.584463 51.393071 
L 49.435284 51.289208 
L 48.286106 51.173502 
L 47.136928 51.078994 
L 45.98775 50.986281 
L 44.838571 50.896556 
L 43.689393 50.789767 
L 42.540215 50.681805 
L 41.391037 50.568562 
L 40.241858 50.452764 
L 39.09268 50.341048 
L 37.943502 50.237861 
L 36.794324 50.105525 
L 35.645145 49.982289 
L 34.495967 49.855897 
L 33.346789 49.733791 
L 32.197611 49.593647 
L 31.048432 49.479092 
z
" clip-path="url(#p3a1f79ff01)" style="fill: #ff8c00; fill-opacity: 0.15"/>
   </g>
   <g id="matplotlib.axis_1">
    <g id="xtick_1">
     <g id="line2d_1">
      <defs>
       <path id="m67a429e7bd" d="M 0 0 
L 0 3.5 
" style="stroke: #000000; stroke-width: 0.25"/>
      </defs>
      <g>
       <use xlink:href="#m67a429e7bd" x="31.048432" y="89.218327" style="stroke: #000000; stroke-width: 0.25"/>
      </g>
     </g>
     <g id="text_1">
      <!-- 15 -->
      <g transform="translate(28.267964 97.297233) scale(0.05 -0.05)">
       <defs>
        <path id="ArialMT-31" d="M 2384 0 
L 1822 0 
L 1822 3584 
Q 1619 3391 1289 3197 
Q 959 3003 697 2906 
L 697 3450 
Q 1169 3672 1522 3987 
Q 1875 4303 2022 4600 
L 2384 4600 
L 2384 0 
z
" transform="scale(0.015625)"/>
        <path id="ArialMT-35" d="M 266 1200 
L 856 1250 
Q 922 819 1161 601 
Q 1400 384 1738 384 
Q 2144 384 2425 690 
Q 2706 997 2706 1503 
Q 2706 1984 2436 2262 
Q 2166 2541 1728 2541 
Q 1456 2541 1237 2417 
Q 1019 2294 894 2097 
L 366 2166 
L 809 4519 
L 3088 4519 
L 3088 3981 
L 1259 3981 
L 1013 2750 
Q 1425 3038 1878 3038 
Q 2478 3038 2890 2622 
Q 3303 2206 3303 1553 
Q 3303 931 2941 478 
Q 2500 -78 1738 -78 
Q 1113 -78 717 272 
Q 322 622 266 1200 
z
" transform="scale(0.015625)"/>
       </defs>
       <use xlink:href="#ArialMT-31"/>
       <use xlink:href="#ArialMT-35" x="55.615234"/>
      </g>
     </g>
    </g>
    <g id="xtick_2">
     <g id="line2d_2">
      <g>
       <use xlink:href="#m67a429e7bd" x="53.802162" y="89.218327" style="stroke: #000000; stroke-width: 0.25"/>
      </g>
     </g>
     <g id="text_2">
      <!-- 20 -->
      <g transform="translate(51.021693 97.297233) scale(0.05 -0.05)">
       <defs>
        <path id="ArialMT-32" d="M 3222 541 
L 3222 0 
L 194 0 
Q 188 203 259 391 
Q 375 700 629 1000 
Q 884 1300 1366 1694 
Q 2113 2306 2375 2664 
Q 2638 3022 2638 3341 
Q 2638 3675 2398 3904 
Q 2159 4134 1775 4134 
Q 1369 4134 1125 3890 
Q 881 3647 878 3216 
L 300 3275 
Q 359 3922 746 4261 
Q 1134 4600 1788 4600 
Q 2447 4600 2831 4234 
Q 3216 3869 3216 3328 
Q 3216 3053 3103 2787 
Q 2991 2522 2730 2228 
Q 2469 1934 1863 1422 
Q 1356 997 1212 845 
Q 1069 694 975 541 
L 3222 541 
z
" transform="scale(0.015625)"/>
        <path id="ArialMT-30" d="M 266 2259 
Q 266 3072 433 3567 
Q 600 4063 929 4331 
Q 1259 4600 1759 4600 
Q 2128 4600 2406 4451 
Q 2684 4303 2865 4023 
Q 3047 3744 3150 3342 
Q 3253 2941 3253 2259 
Q 3253 1453 3087 958 
Q 2922 463 2592 192 
Q 2263 -78 1759 -78 
Q 1097 -78 719 397 
Q 266 969 266 2259 
z
M 844 2259 
Q 844 1131 1108 757 
Q 1372 384 1759 384 
Q 2147 384 2411 759 
Q 2675 1134 2675 2259 
Q 2675 3391 2411 3762 
Q 2147 4134 1753 4134 
Q 1366 4134 1134 3806 
Q 844 3388 844 2259 
z
" transform="scale(0.015625)"/>
       </defs>
       <use xlink:href="#ArialMT-32"/>
       <use xlink:href="#ArialMT-30" x="55.615234"/>
      </g>
     </g>
    </g>
    <g id="xtick_3">
     <g id="line2d_3">
      <g>
       <use xlink:href="#m67a429e7bd" x="76.555891" y="89.218327" style="stroke: #000000; stroke-width: 0.25"/>
      </g>
     </g>
     <g id="text_3">
      <!-- 25 -->
      <g transform="translate(73.775422 97.297233) scale(0.05 -0.05)">
       <use xlink:href="#ArialMT-32"/>
       <use xlink:href="#ArialMT-35" x="55.615234"/>
      </g>
     </g>
    </g>
    <g id="xtick_4">
     <g id="line2d_4">
      <g>
       <use xlink:href="#m67a429e7bd" x="99.309621" y="89.218327" style="stroke: #000000; stroke-width: 0.25"/>
      </g>
     </g>
     <g id="text_4">
      <!-- 30 -->
      <g transform="translate(96.529152 97.297233) scale(0.05 -0.05)">
       <defs>
        <path id="ArialMT-33" d="M 269 1209 
L 831 1284 
Q 928 806 1161 595 
Q 1394 384 1728 384 
Q 2125 384 2398 659 
Q 2672 934 2672 1341 
Q 2672 1728 2419 1979 
Q 2166 2231 1775 2231 
Q 1616 2231 1378 2169 
L 1441 2663 
Q 1497 2656 1531 2656 
Q 1891 2656 2178 2843 
Q 2466 3031 2466 3422 
Q 2466 3731 2256 3934 
Q 2047 4138 1716 4138 
Q 1388 4138 1169 3931 
Q 950 3725 888 3313 
L 325 3413 
Q 428 3978 793 4289 
Q 1159 4600 1703 4600 
Q 2078 4600 2393 4439 
Q 2709 4278 2876 4000 
Q 3044 3722 3044 3409 
Q 3044 3113 2884 2869 
Q 2725 2625 2413 2481 
Q 2819 2388 3044 2092 
Q 3269 1797 3269 1353 
Q 3269 753 2831 336 
Q 2394 -81 1725 -81 
Q 1122 -81 723 278 
Q 325 638 269 1209 
z
" transform="scale(0.015625)"/>
       </defs>
       <use xlink:href="#ArialMT-33"/>
       <use xlink:href="#ArialMT-30" x="55.615234"/>
      </g>
     </g>
    </g>
    <g id="xtick_5">
     <g id="line2d_5">
      <g>
       <use xlink:href="#m67a429e7bd" x="122.06335" y="89.218327" style="stroke: #000000; stroke-width: 0.25"/>
      </g>
     </g>
     <g id="text_5">
      <!-- 35 -->
      <g transform="translate(119.282881 97.297233) scale(0.05 -0.05)">
       <use xlink:href="#ArialMT-33"/>
       <use xlink:href="#ArialMT-35" x="55.615234"/>
      </g>
     </g>
    </g>
    <g id="xtick_6">
     <g id="line2d_6">
      <g>
       <use xlink:href="#m67a429e7bd" x="144.817079" y="89.218327" style="stroke: #000000; stroke-width: 0.25"/>
      </g>
     </g>
     <g id="text_6">
      <!-- 40 -->
      <g transform="translate(142.036611 97.297233) scale(0.05 -0.05)">
       <defs>
        <path id="ArialMT-34" d="M 2069 0 
L 2069 1097 
L 81 1097 
L 81 1613 
L 2172 4581 
L 2631 4581 
L 2631 1613 
L 3250 1613 
L 3250 1097 
L 2631 1097 
L 2631 0 
L 2069 0 
z
M 2069 1613 
L 2069 3678 
L 634 1613 
L 2069 1613 
z
" transform="scale(0.015625)"/>
       </defs>
       <use xlink:href="#ArialMT-34"/>
       <use xlink:href="#ArialMT-30" x="55.615234"/>
      </g>
     </g>
    </g>
    <g id="text_7">
     <!-- Age of last continuous full-time education [years] -->
     <g transform="translate(23.401818 106.658796) scale(0.06 -0.06)">
      <defs>
       <path id="ArialMT-41" d="M -9 0 
L 1750 4581 
L 2403 4581 
L 4278 0 
L 3588 0 
L 3053 1388 
L 1138 1388 
L 634 0 
L -9 0 
z
M 1313 1881 
L 2866 1881 
L 2388 3150 
Q 2169 3728 2063 4100 
Q 1975 3659 1816 3225 
L 1313 1881 
z
" transform="scale(0.015625)"/>
       <path id="ArialMT-67" d="M 319 -275 
L 866 -356 
Q 900 -609 1056 -725 
Q 1266 -881 1628 -881 
Q 2019 -881 2231 -725 
Q 2444 -569 2519 -288 
Q 2563 -116 2559 434 
Q 2191 0 1641 0 
Q 956 0 581 494 
Q 206 988 206 1678 
Q 206 2153 378 2554 
Q 550 2956 876 3175 
Q 1203 3394 1644 3394 
Q 2231 3394 2613 2919 
L 2613 3319 
L 3131 3319 
L 3131 450 
Q 3131 -325 2973 -648 
Q 2816 -972 2473 -1159 
Q 2131 -1347 1631 -1347 
Q 1038 -1347 672 -1080 
Q 306 -813 319 -275 
z
M 784 1719 
Q 784 1066 1043 766 
Q 1303 466 1694 466 
Q 2081 466 2343 764 
Q 2606 1063 2606 1700 
Q 2606 2309 2336 2618 
Q 2066 2928 1684 2928 
Q 1309 2928 1046 2623 
Q 784 2319 784 1719 
z
" transform="scale(0.015625)"/>
       <path id="ArialMT-65" d="M 2694 1069 
L 3275 997 
Q 3138 488 2766 206 
Q 2394 -75 1816 -75 
Q 1088 -75 661 373 
Q 234 822 234 1631 
Q 234 2469 665 2931 
Q 1097 3394 1784 3394 
Q 2450 3394 2872 2941 
Q 3294 2488 3294 1666 
Q 3294 1616 3291 1516 
L 816 1516 
Q 847 969 1125 678 
Q 1403 388 1819 388 
Q 2128 388 2347 550 
Q 2566 713 2694 1069 
z
M 847 1978 
L 2700 1978 
Q 2663 2397 2488 2606 
Q 2219 2931 1791 2931 
Q 1403 2931 1139 2672 
Q 875 2413 847 1978 
z
" transform="scale(0.015625)"/>
       <path id="ArialMT-20" transform="scale(0.015625)"/>
       <path id="ArialMT-6f" d="M 213 1659 
Q 213 2581 725 3025 
Q 1153 3394 1769 3394 
Q 2453 3394 2887 2945 
Q 3322 2497 3322 1706 
Q 3322 1066 3130 698 
Q 2938 331 2570 128 
Q 2203 -75 1769 -75 
Q 1072 -75 642 372 
Q 213 819 213 1659 
z
M 791 1659 
Q 791 1022 1069 705 
Q 1347 388 1769 388 
Q 2188 388 2466 706 
Q 2744 1025 2744 1678 
Q 2744 2294 2464 2611 
Q 2184 2928 1769 2928 
Q 1347 2928 1069 2612 
Q 791 2297 791 1659 
z
" transform="scale(0.015625)"/>
       <path id="ArialMT-66" d="M 556 0 
L 556 2881 
L 59 2881 
L 59 3319 
L 556 3319 
L 556 3672 
Q 556 4006 616 4169 
Q 697 4388 901 4523 
Q 1106 4659 1475 4659 
Q 1713 4659 2000 4603 
L 1916 4113 
Q 1741 4144 1584 4144 
Q 1328 4144 1222 4034 
Q 1116 3925 1116 3625 
L 1116 3319 
L 1763 3319 
L 1763 2881 
L 1116 2881 
L 1116 0 
L 556 0 
z
" transform="scale(0.015625)"/>
       <path id="ArialMT-6c" d="M 409 0 
L 409 4581 
L 972 4581 
L 972 0 
L 409 0 
z
" transform="scale(0.015625)"/>
       <path id="ArialMT-61" d="M 2588 409 
Q 2275 144 1986 34 
Q 1697 -75 1366 -75 
Q 819 -75 525 192 
Q 231 459 231 875 
Q 231 1119 342 1320 
Q 453 1522 633 1644 
Q 813 1766 1038 1828 
Q 1203 1872 1538 1913 
Q 2219 1994 2541 2106 
Q 2544 2222 2544 2253 
Q 2544 2597 2384 2738 
Q 2169 2928 1744 2928 
Q 1347 2928 1158 2789 
Q 969 2650 878 2297 
L 328 2372 
Q 403 2725 575 2942 
Q 747 3159 1072 3276 
Q 1397 3394 1825 3394 
Q 2250 3394 2515 3294 
Q 2781 3194 2906 3042 
Q 3031 2891 3081 2659 
Q 3109 2516 3109 2141 
L 3109 1391 
Q 3109 606 3145 398 
Q 3181 191 3288 0 
L 2700 0 
Q 2613 175 2588 409 
z
M 2541 1666 
Q 2234 1541 1622 1453 
Q 1275 1403 1131 1340 
Q 988 1278 909 1158 
Q 831 1038 831 891 
Q 831 666 1001 516 
Q 1172 366 1500 366 
Q 1825 366 2078 508 
Q 2331 650 2450 897 
Q 2541 1088 2541 1459 
L 2541 1666 
z
" transform="scale(0.015625)"/>
       <path id="ArialMT-73" d="M 197 991 
L 753 1078 
Q 800 744 1014 566 
Q 1228 388 1613 388 
Q 2000 388 2187 545 
Q 2375 703 2375 916 
Q 2375 1106 2209 1216 
Q 2094 1291 1634 1406 
Q 1016 1563 777 1677 
Q 538 1791 414 1992 
Q 291 2194 291 2438 
Q 291 2659 392 2848 
Q 494 3038 669 3163 
Q 800 3259 1026 3326 
Q 1253 3394 1513 3394 
Q 1903 3394 2198 3281 
Q 2494 3169 2634 2976 
Q 2775 2784 2828 2463 
L 2278 2388 
Q 2241 2644 2061 2787 
Q 1881 2931 1553 2931 
Q 1166 2931 1000 2803 
Q 834 2675 834 2503 
Q 834 2394 903 2306 
Q 972 2216 1119 2156 
Q 1203 2125 1616 2013 
Q 2213 1853 2448 1751 
Q 2684 1650 2818 1456 
Q 2953 1263 2953 975 
Q 2953 694 2789 445 
Q 2625 197 2315 61 
Q 2006 -75 1616 -75 
Q 969 -75 630 194 
Q 291 463 197 991 
z
" transform="scale(0.015625)"/>
       <path id="ArialMT-74" d="M 1650 503 
L 1731 6 
Q 1494 -44 1306 -44 
Q 1000 -44 831 53 
Q 663 150 594 308 
Q 525 466 525 972 
L 525 2881 
L 113 2881 
L 113 3319 
L 525 3319 
L 525 4141 
L 1084 4478 
L 1084 3319 
L 1650 3319 
L 1650 2881 
L 1084 2881 
L 1084 941 
Q 1084 700 1114 631 
Q 1144 563 1211 522 
Q 1278 481 1403 481 
Q 1497 481 1650 503 
z
" transform="scale(0.015625)"/>
       <path id="ArialMT-63" d="M 2588 1216 
L 3141 1144 
Q 3050 572 2676 248 
Q 2303 -75 1759 -75 
Q 1078 -75 664 370 
Q 250 816 250 1647 
Q 250 2184 428 2587 
Q 606 2991 970 3192 
Q 1334 3394 1763 3394 
Q 2303 3394 2647 3120 
Q 2991 2847 3088 2344 
L 2541 2259 
Q 2463 2594 2264 2762 
Q 2066 2931 1784 2931 
Q 1359 2931 1093 2626 
Q 828 2322 828 1663 
Q 828 994 1084 691 
Q 1341 388 1753 388 
Q 2084 388 2306 591 
Q 2528 794 2588 1216 
z
" transform="scale(0.015625)"/>
       <path id="ArialMT-6e" d="M 422 0 
L 422 3319 
L 928 3319 
L 928 2847 
Q 1294 3394 1984 3394 
Q 2284 3394 2536 3286 
Q 2788 3178 2913 3003 
Q 3038 2828 3088 2588 
Q 3119 2431 3119 2041 
L 3119 0 
L 2556 0 
L 2556 2019 
Q 2556 2363 2490 2533 
Q 2425 2703 2258 2804 
Q 2091 2906 1866 2906 
Q 1506 2906 1245 2678 
Q 984 2450 984 1813 
L 984 0 
L 422 0 
z
" transform="scale(0.015625)"/>
       <path id="ArialMT-69" d="M 425 3934 
L 425 4581 
L 988 4581 
L 988 3934 
L 425 3934 
z
M 425 0 
L 425 3319 
L 988 3319 
L 988 0 
L 425 0 
z
" transform="scale(0.015625)"/>
       <path id="ArialMT-75" d="M 2597 0 
L 2597 488 
Q 2209 -75 1544 -75 
Q 1250 -75 995 37 
Q 741 150 617 320 
Q 494 491 444 738 
Q 409 903 409 1263 
L 409 3319 
L 972 3319 
L 972 1478 
Q 972 1038 1006 884 
Q 1059 663 1231 536 
Q 1403 409 1656 409 
Q 1909 409 2131 539 
Q 2353 669 2445 892 
Q 2538 1116 2538 1541 
L 2538 3319 
L 3100 3319 
L 3100 0 
L 2597 0 
z
" transform="scale(0.015625)"/>
       <path id="ArialMT-2d" d="M 203 1375 
L 203 1941 
L 1931 1941 
L 1931 1375 
L 203 1375 
z
" transform="scale(0.015625)"/>
       <path id="ArialMT-6d" d="M 422 0 
L 422 3319 
L 925 3319 
L 925 2853 
Q 1081 3097 1340 3245 
Q 1600 3394 1931 3394 
Q 2300 3394 2536 3241 
Q 2772 3088 2869 2813 
Q 3263 3394 3894 3394 
Q 4388 3394 4653 3120 
Q 4919 2847 4919 2278 
L 4919 0 
L 4359 0 
L 4359 2091 
Q 4359 2428 4304 2576 
Q 4250 2725 4106 2815 
Q 3963 2906 3769 2906 
Q 3419 2906 3187 2673 
Q 2956 2441 2956 1928 
L 2956 0 
L 2394 0 
L 2394 2156 
Q 2394 2531 2256 2718 
Q 2119 2906 1806 2906 
Q 1569 2906 1367 2781 
Q 1166 2656 1075 2415 
Q 984 2175 984 1722 
L 984 0 
L 422 0 
z
" transform="scale(0.015625)"/>
       <path id="ArialMT-64" d="M 2575 0 
L 2575 419 
Q 2259 -75 1647 -75 
Q 1250 -75 917 144 
Q 584 363 401 755 
Q 219 1147 219 1656 
Q 219 2153 384 2558 
Q 550 2963 881 3178 
Q 1213 3394 1622 3394 
Q 1922 3394 2156 3267 
Q 2391 3141 2538 2938 
L 2538 4581 
L 3097 4581 
L 3097 0 
L 2575 0 
z
M 797 1656 
Q 797 1019 1065 703 
Q 1334 388 1700 388 
Q 2069 388 2326 689 
Q 2584 991 2584 1609 
Q 2584 2291 2321 2609 
Q 2059 2928 1675 2928 
Q 1300 2928 1048 2622 
Q 797 2316 797 1656 
z
" transform="scale(0.015625)"/>
       <path id="ArialMT-5b" d="M 434 -1272 
L 434 4581 
L 1675 4581 
L 1675 4116 
L 997 4116 
L 997 -806 
L 1675 -806 
L 1675 -1272 
L 434 -1272 
z
" transform="scale(0.015625)"/>
       <path id="ArialMT-79" d="M 397 -1278 
L 334 -750 
Q 519 -800 656 -800 
Q 844 -800 956 -737 
Q 1069 -675 1141 -563 
Q 1194 -478 1313 -144 
Q 1328 -97 1363 -6 
L 103 3319 
L 709 3319 
L 1400 1397 
Q 1534 1031 1641 628 
Q 1738 1016 1872 1384 
L 2581 3319 
L 3144 3319 
L 1881 -56 
Q 1678 -603 1566 -809 
Q 1416 -1088 1222 -1217 
Q 1028 -1347 759 -1347 
Q 597 -1347 397 -1278 
z
" transform="scale(0.015625)"/>
       <path id="ArialMT-72" d="M 416 0 
L 416 3319 
L 922 3319 
L 922 2816 
Q 1116 3169 1280 3281 
Q 1444 3394 1641 3394 
Q 1925 3394 2219 3213 
L 2025 2691 
Q 1819 2813 1613 2813 
Q 1428 2813 1281 2702 
Q 1134 2591 1072 2394 
Q 978 2094 978 1738 
L 978 0 
L 416 0 
z
" transform="scale(0.015625)"/>
       <path id="ArialMT-5d" d="M 1363 -1272 
L 122 -1272 
L 122 -806 
L 800 -806 
L 800 4116 
L 122 4116 
L 122 4581 
L 1363 4581 
L 1363 -1272 
z
" transform="scale(0.015625)"/>
      </defs>
      <use xlink:href="#ArialMT-41"/>
      <use xlink:href="#ArialMT-67" x="66.699219"/>
      <use xlink:href="#ArialMT-65" x="122.314453"/>
      <use xlink:href="#ArialMT-20" x="177.929688"/>
      <use xlink:href="#ArialMT-6f" x="205.712891"/>
      <use xlink:href="#ArialMT-66" x="261.328125"/>
      <use xlink:href="#ArialMT-20" x="289.111328"/>
      <use xlink:href="#ArialMT-6c" x="316.894531"/>
      <use xlink:href="#ArialMT-61" x="339.111328"/>
      <use xlink:href="#ArialMT-73" x="394.726562"/>
      <use xlink:href="#ArialMT-74" x="444.726562"/>
      <use xlink:href="#ArialMT-20" x="472.509766"/>
      <use xlink:href="#ArialMT-63" x="500.292969"/>
      <use xlink:href="#ArialMT-6f" x="550.292969"/>
      <use xlink:href="#ArialMT-6e" x="605.908203"/>
      <use xlink:href="#ArialMT-74" x="661.523438"/>
      <use xlink:href="#ArialMT-69" x="689.306641"/>
      <use xlink:href="#ArialMT-6e" x="711.523438"/>
      <use xlink:href="#ArialMT-75" x="767.138672"/>
      <use xlink:href="#ArialMT-6f" x="822.753906"/>
      <use xlink:href="#ArialMT-75" x="878.369141"/>
      <use xlink:href="#ArialMT-73" x="933.984375"/>
      <use xlink:href="#ArialMT-20" x="983.984375"/>
      <use xlink:href="#ArialMT-66" x="1011.767578"/>
      <use xlink:href="#ArialMT-75" x="1039.550781"/>
      <use xlink:href="#ArialMT-6c" x="1095.166016"/>
      <use xlink:href="#ArialMT-6c" x="1117.382812"/>
      <use xlink:href="#ArialMT-2d" x="1139.599609"/>
      <use xlink:href="#ArialMT-74" x="1172.900391"/>
      <use xlink:href="#ArialMT-69" x="1200.683594"/>
      <use xlink:href="#ArialMT-6d" x="1222.900391"/>
      <use xlink:href="#ArialMT-65" x="1306.201172"/>
      <use xlink:href="#ArialMT-20" x="1361.816406"/>
      <use xlink:href="#ArialMT-65" x="1389.599609"/>
      <use xlink:href="#ArialMT-64" x="1445.214844"/>
      <use xlink:href="#ArialMT-75" x="1500.830078"/>
      <use xlink:href="#ArialMT-63" x="1556.445312"/>
      <use xlink:href="#ArialMT-61" x="1606.445312"/>
      <use xlink:href="#ArialMT-74" x="1662.060547"/>
      <use xlink:href="#ArialMT-69" x="1689.84375"/>
      <use xlink:href="#ArialMT-6f" x="1712.060547"/>
      <use xlink:href="#ArialMT-6e" x="1767.675781"/>
      <use xlink:href="#ArialMT-20" x="1823.291016"/>
      <use xlink:href="#ArialMT-5b" x="1851.074219"/>
      <use xlink:href="#ArialMT-79" x="1878.857422"/>
      <use xlink:href="#ArialMT-65" x="1928.857422"/>
      <use xlink:href="#ArialMT-61" x="1984.472656"/>
      <use xlink:href="#ArialMT-72" x="2040.087891"/>
      <use xlink:href="#ArialMT-73" x="2073.388672"/>
      <use xlink:href="#ArialMT-5d" x="2123.388672"/>
     </g>
    </g>
   </g>
   <g id="matplotlib.axis_2">
    <g id="ytick_1">
     <g id="line2d_7">
      <defs>
       <path id="mf4d6d3abec" d="M 0 0 
L -3.5 0 
" style="stroke: #000000; stroke-width: 0.25"/>
      </defs>
      <g>
       <use xlink:href="#mf4d6d3abec" x="25.36" y="85.691647" style="stroke: #000000; stroke-width: 0.25"/>
      </g>
     </g>
     <g id="text_8">
      <!-- −2 -->
      <g transform="translate(15.159219 87.4811) scale(0.05 -0.05)">
       <defs>
        <path id="ArialMT-2212" d="M 3381 1997 
L 356 1997 
L 356 2522 
L 3381 2522 
L 3381 1997 
z
" transform="scale(0.015625)"/>
       </defs>
       <use xlink:href="#ArialMT-2212"/>
       <use xlink:href="#ArialMT-32" x="58.398438"/>
      </g>
     </g>
    </g>
    <g id="ytick_2">
     <g id="line2d_8">
      <g>
       <use xlink:href="#mf4d6d3abec" x="25.36" y="70.04036" style="stroke: #000000; stroke-width: 0.25"/>
      </g>
     </g>
     <g id="text_9">
      <!-- −1 -->
      <g transform="translate(15.159219 71.829813) scale(0.05 -0.05)">
       <use xlink:href="#ArialMT-2212"/>
       <use xlink:href="#ArialMT-31" x="58.398438"/>
      </g>
     </g>
    </g>
    <g id="ytick_3">
     <g id="line2d_9">
      <g>
       <use xlink:href="#mf4d6d3abec" x="25.36" y="54.389072" style="stroke: #000000; stroke-width: 0.25"/>
      </g>
     </g>
     <g id="text_10">
      <!-- 0 -->
      <g transform="translate(18.079531 56.178525) scale(0.05 -0.05)">
       <use xlink:href="#ArialMT-30"/>
      </g>
     </g>
    </g>
    <g id="ytick_4">
     <g id="line2d_10">
      <g>
       <use xlink:href="#mf4d6d3abec" x="25.36" y="38.737785" style="stroke: #000000; stroke-width: 0.25"/>
      </g>
     </g>
     <g id="text_11">
      <!-- 1 -->
      <g transform="translate(18.079531 40.527238) scale(0.05 -0.05)">
       <use xlink:href="#ArialMT-31"/>
      </g>
     </g>
    </g>
    <g id="ytick_5">
     <g id="line2d_11">
      <g>
       <use xlink:href="#mf4d6d3abec" x="25.36" y="23.086498" style="stroke: #000000; stroke-width: 0.25"/>
      </g>
     </g>
     <g id="text_12">
      <!-- 2 -->
      <g transform="translate(18.079531 24.875951) scale(0.05 -0.05)">
       <use xlink:href="#ArialMT-32"/>
      </g>
     </g>
    </g>
    <g id="ytick_6">
     <g id="line2d_12">
      <g>
       <use xlink:href="#mf4d6d3abec" x="25.36" y="7.43521" style="stroke: #000000; stroke-width: 0.25"/>
      </g>
     </g>
     <g id="text_13">
      <!-- 3 -->
      <g transform="translate(18.079531 9.224663) scale(0.05 -0.05)">
       <use xlink:href="#ArialMT-33"/>
      </g>
     </g>
    </g>
    <g id="text_14">
     <!-- CTh PC1 [a.u.] -->
     <g transform="translate(9.966719 67.149476) rotate(-90) scale(0.06 -0.06)">
      <defs>
       <path id="ArialMT-43" d="M 3763 1606 
L 4369 1453 
Q 4178 706 3683 314 
Q 3188 -78 2472 -78 
Q 1731 -78 1267 223 
Q 803 525 561 1097 
Q 319 1669 319 2325 
Q 319 3041 592 3573 
Q 866 4106 1370 4382 
Q 1875 4659 2481 4659 
Q 3169 4659 3637 4309 
Q 4106 3959 4291 3325 
L 3694 3184 
Q 3534 3684 3231 3912 
Q 2928 4141 2469 4141 
Q 1941 4141 1586 3887 
Q 1231 3634 1087 3207 
Q 944 2781 944 2328 
Q 944 1744 1114 1308 
Q 1284 872 1643 656 
Q 2003 441 2422 441 
Q 2931 441 3284 734 
Q 3638 1028 3763 1606 
z
" transform="scale(0.015625)"/>
       <path id="ArialMT-54" d="M 1659 0 
L 1659 4041 
L 150 4041 
L 150 4581 
L 3781 4581 
L 3781 4041 
L 2266 4041 
L 2266 0 
L 1659 0 
z
" transform="scale(0.015625)"/>
       <path id="ArialMT-68" d="M 422 0 
L 422 4581 
L 984 4581 
L 984 2938 
Q 1378 3394 1978 3394 
Q 2347 3394 2619 3248 
Q 2891 3103 3008 2847 
Q 3125 2591 3125 2103 
L 3125 0 
L 2563 0 
L 2563 2103 
Q 2563 2525 2380 2717 
Q 2197 2909 1863 2909 
Q 1613 2909 1392 2779 
Q 1172 2650 1078 2428 
Q 984 2206 984 1816 
L 984 0 
L 422 0 
z
" transform="scale(0.015625)"/>
       <path id="ArialMT-50" d="M 494 0 
L 494 4581 
L 2222 4581 
Q 2678 4581 2919 4538 
Q 3256 4481 3484 4323 
Q 3713 4166 3852 3881 
Q 3991 3597 3991 3256 
Q 3991 2672 3619 2267 
Q 3247 1863 2275 1863 
L 1100 1863 
L 1100 0 
L 494 0 
z
M 1100 2403 
L 2284 2403 
Q 2872 2403 3119 2622 
Q 3366 2841 3366 3238 
Q 3366 3525 3220 3729 
Q 3075 3934 2838 4000 
Q 2684 4041 2272 4041 
L 1100 4041 
L 1100 2403 
z
" transform="scale(0.015625)"/>
       <path id="ArialMT-2e" d="M 581 0 
L 581 641 
L 1222 641 
L 1222 0 
L 581 0 
z
" transform="scale(0.015625)"/>
      </defs>
      <use xlink:href="#ArialMT-43"/>
      <use xlink:href="#ArialMT-54" x="72.216797"/>
      <use xlink:href="#ArialMT-68" x="133.300781"/>
      <use xlink:href="#ArialMT-20" x="188.916016"/>
      <use xlink:href="#ArialMT-50" x="216.699219"/>
      <use xlink:href="#ArialMT-43" x="283.398438"/>
      <use xlink:href="#ArialMT-31" x="355.615234"/>
      <use xlink:href="#ArialMT-20" x="411.230469"/>
      <use xlink:href="#ArialMT-5b" x="439.013672"/>
      <use xlink:href="#ArialMT-61" x="466.796875"/>
      <use xlink:href="#ArialMT-2e" x="522.412109"/>
      <use xlink:href="#ArialMT-75" x="550.195312"/>
      <use xlink:href="#ArialMT-2e" x="605.810547"/>
      <use xlink:href="#ArialMT-5d" x="633.59375"/>
     </g>
    </g>
   </g>
   <g id="line2d_13">
    <path d="M 31.048432 55.591138 
L 32.197611 55.56004 
L 33.346789 55.528943 
L 34.495967 55.497845 
L 35.645145 55.466748 
L 36.794324 55.43565 
L 37.943502 55.404552 
L 39.09268 55.373455 
L 40.241858 55.342357 
L 41.391037 55.31126 
L 42.540215 55.280162 
L 43.689393 55.249065 
L 44.838571 55.217967 
L 45.98775 55.186869 
L 47.136928 55.155772 
L 48.286106 55.124674 
L 49.435284 55.093577 
L 50.584463 55.062479 
L 51.733641 55.031382 
L 52.882819 55.000284 
L 54.031997 54.969186 
L 55.181176 54.938089 
L 56.330354 54.906991 
L 57.479532 54.875894 
L 58.62871 54.844796 
L 59.777889 54.813698 
L 60.927067 54.782601 
L 62.076245 54.751503 
L 63.225423 54.720406 
L 64.374602 54.689308 
L 65.52378 54.658211 
L 66.672958 54.627113 
L 67.822136 54.596015 
L 68.971315 54.564918 
L 70.120493 54.53382 
L 71.269671 54.502723 
L 72.418849 54.471625 
L 73.568028 54.440527 
L 74.717206 54.40943 
L 75.866384 54.378332 
L 77.015562 54.347235 
L 78.164741 54.316137 
L 79.313919 54.28504 
L 80.463097 54.253942 
L 81.612276 54.222844 
L 82.761454 54.191747 
L 83.910632 54.160649 
L 85.05981 54.129552 
L 86.208989 54.098454 
L 87.358167 54.067356 
L 88.507345 54.036259 
L 89.656523 54.005161 
L 90.805702 53.974064 
L 91.95488 53.942966 
L 93.104058 53.911869 
L 94.253236 53.880771 
L 95.402415 53.849673 
L 96.551593 53.818576 
L 97.700771 53.787478 
L 98.849949 53.756381 
L 99.999128 53.725283 
L 101.148306 53.694186 
L 102.297484 53.663088 
L 103.446662 53.63199 
L 104.595841 53.600893 
L 105.745019 53.569795 
L 106.894197 53.538698 
L 108.043375 53.5076 
L 109.192554 53.476502 
L 110.341732 53.445405 
L 111.49091 53.414307 
L 112.640088 53.38321 
L 113.789267 53.352112 
L 114.938445 53.321015 
L 116.087623 53.289917 
L 117.236801 53.258819 
L 118.38598 53.227722 
L 119.535158 53.196624 
L 120.684336 53.165527 
L 121.833514 53.134429 
L 122.982693 53.103331 
L 124.131871 53.072234 
L 125.281049 53.041136 
L 126.430227 53.010039 
L 127.579406 52.978941 
L 128.728584 52.947844 
L 129.877762 52.916746 
L 131.02694 52.885648 
L 132.176119 52.854551 
L 133.325297 52.823453 
L 134.474475 52.792356 
L 135.623653 52.761258 
L 136.772832 52.730161 
L 137.92201 52.699063 
L 139.071188 52.667965 
L 140.220366 52.636868 
L 141.369545 52.60577 
L 142.518723 52.574673 
L 143.667901 52.543575 
L 144.817079 52.512477 
" clip-path="url(#p3a1f79ff01)" style="fill: none; stroke: #ff8c00; stroke-width: 0.75; stroke-linecap: square"/>
   </g>
   <g id="patch_3">
    <path d="M 25.36 89.218327 
L 25.36 5.4 
" style="fill: none; stroke: #000000; stroke-width: 0.25; stroke-linejoin: miter; stroke-linecap: square"/>
   </g>
   <g id="patch_4">
    <path d="M 25.36 89.218327 
L 150.505512 89.218327 
" style="fill: none; stroke: #000000; stroke-width: 0.25; stroke-linejoin: miter; stroke-linecap: square"/>
   </g>
   <g id="text_15">
    <g id="patch_5">
     <path d="M 29.114365 18.699023 
L 52.614365 18.699023 
Q 54.114365 18.699023 54.114365 17.199023 
L 54.114365 7.132617 
Q 54.114365 5.632617 52.614365 5.632617 
L 29.114365 5.632617 
Q 27.614365 5.632617 27.614365 7.132617 
L 27.614365 17.199023 
Q 27.614365 18.699023 29.114365 18.699023 
z
" style="fill: #c0c0c0; opacity: 0.4; stroke: #c0c0c0; stroke-linejoin: miter"/>
    </g>
    <!-- $r=0.013$ -->
    <g transform="translate(29.114365 10.655273) scale(0.05 -0.05)">
     <defs>
      <path id="DejaVuSans-Oblique-72" d="M 2853 2969 
Q 2766 3016 2653 3041 
Q 2541 3066 2413 3066 
Q 1953 3066 1609 2717 
Q 1266 2369 1153 1784 
L 800 0 
L 225 0 
L 909 3500 
L 1484 3500 
L 1375 2956 
Q 1603 3259 1920 3421 
Q 2238 3584 2597 3584 
Q 2691 3584 2781 3573 
Q 2872 3563 2963 3538 
L 2853 2969 
z
" transform="scale(0.015625)"/>
      <path id="DejaVuSans-3d" d="M 678 2906 
L 4684 2906 
L 4684 2381 
L 678 2381 
L 678 2906 
z
M 678 1631 
L 4684 1631 
L 4684 1100 
L 678 1100 
L 678 1631 
z
" transform="scale(0.015625)"/>
      <path id="DejaVuSans-30" d="M 2034 4250 
Q 1547 4250 1301 3770 
Q 1056 3291 1056 2328 
Q 1056 1369 1301 889 
Q 1547 409 2034 409 
Q 2525 409 2770 889 
Q 3016 1369 3016 2328 
Q 3016 3291 2770 3770 
Q 2525 4250 2034 4250 
z
M 2034 4750 
Q 2819 4750 3233 4129 
Q 3647 3509 3647 2328 
Q 3647 1150 3233 529 
Q 2819 -91 2034 -91 
Q 1250 -91 836 529 
Q 422 1150 422 2328 
Q 422 3509 836 4129 
Q 1250 4750 2034 4750 
z
" transform="scale(0.015625)"/>
      <path id="DejaVuSans-2e" d="M 684 794 
L 1344 794 
L 1344 0 
L 684 0 
L 684 794 
z
" transform="scale(0.015625)"/>
      <path id="DejaVuSans-31" d="M 794 531 
L 1825 531 
L 1825 4091 
L 703 3866 
L 703 4441 
L 1819 4666 
L 2450 4666 
L 2450 531 
L 3481 531 
L 3481 0 
L 794 0 
L 794 531 
z
" transform="scale(0.015625)"/>
      <path id="DejaVuSans-33" d="M 2597 2516 
Q 3050 2419 3304 2112 
Q 3559 1806 3559 1356 
Q 3559 666 3084 287 
Q 2609 -91 1734 -91 
Q 1441 -91 1130 -33 
Q 819 25 488 141 
L 488 750 
Q 750 597 1062 519 
Q 1375 441 1716 441 
Q 2309 441 2620 675 
Q 2931 909 2931 1356 
Q 2931 1769 2642 2001 
Q 2353 2234 1838 2234 
L 1294 2234 
L 1294 2753 
L 1863 2753 
Q 2328 2753 2575 2939 
Q 2822 3125 2822 3475 
Q 2822 3834 2567 4026 
Q 2313 4219 1838 4219 
Q 1578 4219 1281 4162 
Q 984 4106 628 3988 
L 628 4550 
Q 988 4650 1302 4700 
Q 1616 4750 1894 4750 
Q 2613 4750 3031 4423 
Q 3450 4097 3450 3541 
Q 3450 3153 3228 2886 
Q 3006 2619 2597 2516 
z
" transform="scale(0.015625)"/>
     </defs>
     <use xlink:href="#DejaVuSans-Oblique-72" transform="translate(0 0.78125)"/>
     <use xlink:href="#DejaVuSans-3d" transform="translate(60.595703 0.78125)"/>
     <use xlink:href="#DejaVuSans-30" transform="translate(163.867188 0.78125)"/>
     <use xlink:href="#DejaVuSans-2e" transform="translate(227.490234 0.78125)"/>
     <use xlink:href="#DejaVuSans-30" transform="translate(259.277344 0.78125)"/>
     <use xlink:href="#DejaVuSans-31" transform="translate(322.900391 0.78125)"/>
     <use xlink:href="#DejaVuSans-33" transform="translate(386.523438 0.78125)"/>
    </g>
    <!-- $p=0.875$ -->
    <g transform="translate(29.114365 16.149023) scale(0.05 -0.05)">
     <defs>
      <path id="DejaVuSans-Oblique-70" d="M 3175 2156 
Q 3175 2616 2975 2859 
Q 2775 3103 2400 3103 
Q 2144 3103 1911 2972 
Q 1678 2841 1497 2591 
Q 1319 2344 1212 1994 
Q 1106 1644 1106 1300 
Q 1106 863 1306 627 
Q 1506 391 1875 391 
Q 2147 391 2380 519 
Q 2613 647 2778 891 
Q 2956 1147 3065 1494 
Q 3175 1841 3175 2156 
z
M 1394 2969 
Q 1625 3272 1939 3428 
Q 2253 3584 2638 3584 
Q 3175 3584 3472 3232 
Q 3769 2881 3769 2247 
Q 3769 1728 3584 1258 
Q 3400 788 3053 416 
Q 2822 169 2531 39 
Q 2241 -91 1919 -91 
Q 1547 -91 1294 64 
Q 1041 219 916 525 
L 556 -1331 
L -19 -1331 
L 922 3500 
L 1497 3500 
L 1394 2969 
z
" transform="scale(0.015625)"/>
      <path id="DejaVuSans-38" d="M 2034 2216 
Q 1584 2216 1326 1975 
Q 1069 1734 1069 1313 
Q 1069 891 1326 650 
Q 1584 409 2034 409 
Q 2484 409 2743 651 
Q 3003 894 3003 1313 
Q 3003 1734 2745 1975 
Q 2488 2216 2034 2216 
z
M 1403 2484 
Q 997 2584 770 2862 
Q 544 3141 544 3541 
Q 544 4100 942 4425 
Q 1341 4750 2034 4750 
Q 2731 4750 3128 4425 
Q 3525 4100 3525 3541 
Q 3525 3141 3298 2862 
Q 3072 2584 2669 2484 
Q 3125 2378 3379 2068 
Q 3634 1759 3634 1313 
Q 3634 634 3220 271 
Q 2806 -91 2034 -91 
Q 1263 -91 848 271 
Q 434 634 434 1313 
Q 434 1759 690 2068 
Q 947 2378 1403 2484 
z
M 1172 3481 
Q 1172 3119 1398 2916 
Q 1625 2713 2034 2713 
Q 2441 2713 2670 2916 
Q 2900 3119 2900 3481 
Q 2900 3844 2670 4047 
Q 2441 4250 2034 4250 
Q 1625 4250 1398 4047 
Q 1172 3844 1172 3481 
z
" transform="scale(0.015625)"/>
      <path id="DejaVuSans-37" d="M 525 4666 
L 3525 4666 
L 3525 4397 
L 1831 0 
L 1172 0 
L 2766 4134 
L 525 4134 
L 525 4666 
z
" transform="scale(0.015625)"/>
      <path id="DejaVuSans-35" d="M 691 4666 
L 3169 4666 
L 3169 4134 
L 1269 4134 
L 1269 2991 
Q 1406 3038 1543 3061 
Q 1681 3084 1819 3084 
Q 2600 3084 3056 2656 
Q 3513 2228 3513 1497 
Q 3513 744 3044 326 
Q 2575 -91 1722 -91 
Q 1428 -91 1123 -41 
Q 819 9 494 109 
L 494 744 
Q 775 591 1075 516 
Q 1375 441 1709 441 
Q 2250 441 2565 725 
Q 2881 1009 2881 1497 
Q 2881 1984 2565 2268 
Q 2250 2553 1709 2553 
Q 1456 2553 1204 2497 
Q 953 2441 691 2322 
L 691 4666 
z
" transform="scale(0.015625)"/>
     </defs>
     <use xlink:href="#DejaVuSans-Oblique-70" transform="translate(0 0.78125)"/>
     <use xlink:href="#DejaVuSans-3d" transform="translate(82.958984 0.78125)"/>
     <use xlink:href="#DejaVuSans-30" transform="translate(186.230469 0.78125)"/>
     <use xlink:href="#DejaVuSans-2e" transform="translate(249.853516 0.78125)"/>
     <use xlink:href="#DejaVuSans-38" transform="translate(279.015625 0.78125)"/>
     <use xlink:href="#DejaVuSans-37" transform="translate(342.638672 0.78125)"/>
     <use xlink:href="#DejaVuSans-35" transform="translate(406.261719 0.78125)"/>
    </g>
   </g>
  </g>
 </g>
 <defs>
  <clipPath id="p3a1f79ff01">
   <rect x="25.36" y="5.4" width="125.145512" height="83.818327"/>
  </clipPath>
 </defs>
</svg>
