<?xml version="1.0" encoding="utf-8" standalone="no"?>
<!DOCTYPE svg PUBLIC "-//W3C//DTD SVG 1.1//EN"
  "http://www.w3.org/Graphics/SVG/1.1/DTD/svg11.dtd">
<svg xmlns:xlink="http://www.w3.org/1999/xlink" width="155.905512pt" height="113.385827pt" viewBox="0 0 155.905512 113.385827" xmlns="http://www.w3.org/2000/svg" version="1.1">
 <metadata>
  <rdf:RDF xmlns:dc="http://purl.org/dc/elements/1.1/" xmlns:cc="http://creativecommons.org/ns#" xmlns:rdf="http://www.w3.org/1999/02/22-rdf-syntax-ns#">
   <cc:Work>
    <dc:type rdf:resource="http://purl.org/dc/dcmitype/StillImage"/>
    <dc:date>2025-06-11T15:42:12.819269</dc:date>
    <dc:format>image/svg+xml</dc:format>
    <dc:creator>
     <cc:Agent>
      <dc:title>Matplotlib v3.9.2, https://matplotlib.org/</dc:title>
     </cc:Agent>
    </dc:creator>
   </cc:Work>
  </rdf:RDF>
 </metadata>
 <defs>
  <style type="text/css">*{stroke-linejoin: round; stroke-linecap: butt}</style>
 </defs>
 <g id="figure_1">
  <g id="patch_1">
   <path d="M 0 113.385827 
L 155.905512 113.385827 
L 155.905512 0 
L 0 0 
z
" style="fill: #ffffff"/>
  </g>
  <g id="axes_1">
   <g id="patch_2">
    <path d="M 25.36 89.218327 
L 150.505512 89.218327 
L 150.505512 5.758541 
L 25.36 5.758541 
z
" style="fill: #ffffff"/>
   </g>
   <g id="PathCollection_1">
    <defs>
     <path id="C0_0_400e67510d" d="M 0 0.866025 
C 0.229673 0.866025 0.449969 0.774776 0.612372 0.612372 
C 0.774776 0.449969 0.866025 0.229673 0.866025 -0 
C 0.866025 -0.229673 0.774776 -0.449969 0.612372 -0.612372 
C 0.449969 -0.774776 0.229673 -0.866025 0 -0.866025 
C -0.229673 -0.866025 -0.449969 -0.774776 -0.612372 -0.612372 
C -0.774776 -0.449969 -0.866025 -0.229673 -0.866025 0 
C -0.866025 0.229673 -0.774776 0.449969 -0.612372 0.612372 
C -0.449969 0.774776 -0.229673 0.866025 0 0.866025 
z
"/>
    </defs>
    <g clip-path="url(#p75f6a18c74)">
     <use xlink:href="#C0_0_400e67510d" x="72.005145" y="55.192599" style="fill: #ff8c00; fill-opacity: 0.8"/>
    </g>
    <g clip-path="url(#p75f6a18c74)">
     <use xlink:href="#C0_0_400e67510d" x="56.077535" y="61.022469" style="fill: #ff8c00; fill-opacity: 0.8"/>
    </g>
    <g clip-path="url(#p75f6a18c74)">
     <use xlink:href="#C0_0_400e67510d" x="35.599178" y="65.81961" style="fill: #ff8c00; fill-opacity: 0.8"/>
    </g>
    <g clip-path="url(#p75f6a18c74)">
     <use xlink:href="#C0_0_400e67510d" x="62.903654" y="75.437129" style="fill: #ff8c00; fill-opacity: 0.8"/>
    </g>
    <g clip-path="url(#p75f6a18c74)">
     <use xlink:href="#C0_0_400e67510d" x="65.179026" y="75.425949" style="fill: #ff8c00; fill-opacity: 0.8"/>
    </g>
    <g clip-path="url(#p75f6a18c74)">
     <use xlink:href="#C0_0_400e67510d" x="67.454399" y="85.4247" style="fill: #ff8c00; fill-opacity: 0.8"/>
    </g>
    <g clip-path="url(#p75f6a18c74)">
     <use xlink:href="#C0_0_400e67510d" x="53.802162" y="9.552167" style="fill: #ff8c00; fill-opacity: 0.8"/>
    </g>
    <g clip-path="url(#p75f6a18c74)">
     <use xlink:href="#C0_0_400e67510d" x="53.802162" y="26.428262" style="fill: #ff8c00; fill-opacity: 0.8"/>
    </g>
    <g clip-path="url(#p75f6a18c74)">
     <use xlink:href="#C0_0_400e67510d" x="74.280518" y="32.56754" style="fill: #ff8c00; fill-opacity: 0.8"/>
    </g>
    <g clip-path="url(#p75f6a18c74)">
     <use xlink:href="#C0_0_400e67510d" x="74.280518" y="39.048405" style="fill: #ff8c00; fill-opacity: 0.8"/>
    </g>
    <g clip-path="url(#p75f6a18c74)">
     <use xlink:href="#C0_0_400e67510d" x="40.149924" y="34.960551" style="fill: #ff8c00; fill-opacity: 0.8"/>
    </g>
    <g clip-path="url(#p75f6a18c74)">
     <use xlink:href="#C0_0_400e67510d" x="67.454399" y="47.78034" style="fill: #ff8c00; fill-opacity: 0.8"/>
    </g>
    <g clip-path="url(#p75f6a18c74)">
     <use xlink:href="#C0_0_400e67510d" x="90.208129" y="48.294318" style="fill: #ff8c00; fill-opacity: 0.8"/>
    </g>
    <g clip-path="url(#p75f6a18c74)">
     <use xlink:href="#C0_0_400e67510d" x="90.208129" y="45.59646" style="fill: #ff8c00; fill-opacity: 0.8"/>
    </g>
    <g clip-path="url(#p75f6a18c74)">
     <use xlink:href="#C0_0_400e67510d" x="65.179026" y="81.012773" style="fill: #ff8c00; fill-opacity: 0.8"/>
    </g>
    <g clip-path="url(#p75f6a18c74)">
     <use xlink:href="#C0_0_400e67510d" x="53.802162" y="48.165626" style="fill: #ff8c00; fill-opacity: 0.8"/>
    </g>
    <g clip-path="url(#p75f6a18c74)">
     <use xlink:href="#C0_0_400e67510d" x="42.425297" y="50.545984" style="fill: #ff8c00; fill-opacity: 0.8"/>
    </g>
    <g clip-path="url(#p75f6a18c74)">
     <use xlink:href="#C0_0_400e67510d" x="65.179026" y="71.152768" style="fill: #ff8c00; fill-opacity: 0.8"/>
    </g>
    <g clip-path="url(#p75f6a18c74)">
     <use xlink:href="#C0_0_400e67510d" x="87.932756" y="64.894666" style="fill: #ff8c00; fill-opacity: 0.8"/>
    </g>
    <g clip-path="url(#p75f6a18c74)">
     <use xlink:href="#C0_0_400e67510d" x="65.179026" y="72.515176" style="fill: #ff8c00; fill-opacity: 0.8"/>
    </g>
    <g clip-path="url(#p75f6a18c74)">
     <use xlink:href="#C0_0_400e67510d" x="67.454399" y="28.898495" style="fill: #ff8c00; fill-opacity: 0.8"/>
    </g>
    <g clip-path="url(#p75f6a18c74)">
     <use xlink:href="#C0_0_400e67510d" x="60.628281" y="72.103078" style="fill: #ff8c00; fill-opacity: 0.8"/>
    </g>
    <g clip-path="url(#p75f6a18c74)">
     <use xlink:href="#C0_0_400e67510d" x="67.454399" y="29.205953" style="fill: #ff8c00; fill-opacity: 0.8"/>
    </g>
    <g clip-path="url(#p75f6a18c74)">
     <use xlink:href="#C0_0_400e67510d" x="67.454399" y="42.695971" style="fill: #ff8c00; fill-opacity: 0.8"/>
    </g>
    <g clip-path="url(#p75f6a18c74)">
     <use xlink:href="#C0_0_400e67510d" x="62.903654" y="51.032806" style="fill: #ff8c00; fill-opacity: 0.8"/>
    </g>
    <g clip-path="url(#p75f6a18c74)">
     <use xlink:href="#C0_0_400e67510d" x="62.903654" y="77.377969" style="fill: #ff8c00; fill-opacity: 0.8"/>
    </g>
    <g clip-path="url(#p75f6a18c74)">
     <use xlink:href="#C0_0_400e67510d" x="81.106637" y="49.6288" style="fill: #ff8c00; fill-opacity: 0.8"/>
    </g>
    <g clip-path="url(#p75f6a18c74)">
     <use xlink:href="#C0_0_400e67510d" x="65.179026" y="30.459035" style="fill: #ff8c00; fill-opacity: 0.8"/>
    </g>
    <g clip-path="url(#p75f6a18c74)">
     <use xlink:href="#C0_0_400e67510d" x="101.584994" y="70.712192" style="fill: #ff8c00; fill-opacity: 0.8"/>
    </g>
    <g clip-path="url(#p75f6a18c74)">
     <use xlink:href="#C0_0_400e67510d" x="53.802162" y="68.732296" style="fill: #ff8c00; fill-opacity: 0.8"/>
    </g>
    <g clip-path="url(#p75f6a18c74)">
     <use xlink:href="#C0_0_400e67510d" x="62.903654" y="78.390501" style="fill: #ff8c00; fill-opacity: 0.8"/>
    </g>
    <g clip-path="url(#p75f6a18c74)">
     <use xlink:href="#C0_0_400e67510d" x="72.005145" y="46.037015" style="fill: #ff8c00; fill-opacity: 0.8"/>
    </g>
    <g clip-path="url(#p75f6a18c74)">
     <use xlink:href="#C0_0_400e67510d" x="58.352908" y="48.759887" style="fill: #ff8c00; fill-opacity: 0.8"/>
    </g>
    <g clip-path="url(#p75f6a18c74)">
     <use xlink:href="#C0_0_400e67510d" x="58.352908" y="64.879531" style="fill: #ff8c00; fill-opacity: 0.8"/>
    </g>
    <g clip-path="url(#p75f6a18c74)">
     <use xlink:href="#C0_0_400e67510d" x="97.034248" y="48.121026" style="fill: #ff8c00; fill-opacity: 0.8"/>
    </g>
    <g clip-path="url(#p75f6a18c74)">
     <use xlink:href="#C0_0_400e67510d" x="97.034248" y="56.529165" style="fill: #ff8c00; fill-opacity: 0.8"/>
    </g>
    <g clip-path="url(#p75f6a18c74)">
     <use xlink:href="#C0_0_400e67510d" x="46.976043" y="69.193578" style="fill: #ff8c00; fill-opacity: 0.8"/>
    </g>
    <g clip-path="url(#p75f6a18c74)">
     <use xlink:href="#C0_0_400e67510d" x="40.149924" y="70.70747" style="fill: #ff8c00; fill-opacity: 0.8"/>
    </g>
    <g clip-path="url(#p75f6a18c74)">
     <use xlink:href="#C0_0_400e67510d" x="72.005145" y="28.244153" style="fill: #ff8c00; fill-opacity: 0.8"/>
    </g>
    <g clip-path="url(#p75f6a18c74)">
     <use xlink:href="#C0_0_400e67510d" x="58.352908" y="59.712178" style="fill: #ff8c00; fill-opacity: 0.8"/>
    </g>
    <g clip-path="url(#p75f6a18c74)">
     <use xlink:href="#C0_0_400e67510d" x="67.454399" y="53.157832" style="fill: #ff8c00; fill-opacity: 0.8"/>
    </g>
    <g clip-path="url(#p75f6a18c74)">
     <use xlink:href="#C0_0_400e67510d" x="35.599178" y="15.462017" style="fill: #ff8c00; fill-opacity: 0.8"/>
    </g>
    <g clip-path="url(#p75f6a18c74)">
     <use xlink:href="#C0_0_400e67510d" x="35.599178" y="24.978684" style="fill: #ff8c00; fill-opacity: 0.8"/>
    </g>
    <g clip-path="url(#p75f6a18c74)">
     <use xlink:href="#C0_0_400e67510d" x="74.280518" y="57.811641" style="fill: #ff8c00; fill-opacity: 0.8"/>
    </g>
    <g clip-path="url(#p75f6a18c74)">
     <use xlink:href="#C0_0_400e67510d" x="44.70067" y="49.904043" style="fill: #ff8c00; fill-opacity: 0.8"/>
    </g>
    <g clip-path="url(#p75f6a18c74)">
     <use xlink:href="#C0_0_400e67510d" x="44.70067" y="31.510815" style="fill: #ff8c00; fill-opacity: 0.8"/>
    </g>
    <g clip-path="url(#p75f6a18c74)">
     <use xlink:href="#C0_0_400e67510d" x="44.70067" y="39.313255" style="fill: #ff8c00; fill-opacity: 0.8"/>
    </g>
    <g clip-path="url(#p75f6a18c74)">
     <use xlink:href="#C0_0_400e67510d" x="60.628281" y="20.537605" style="fill: #ff8c00; fill-opacity: 0.8"/>
    </g>
    <g clip-path="url(#p75f6a18c74)">
     <use xlink:href="#C0_0_400e67510d" x="87.932756" y="22.460568" style="fill: #ff8c00; fill-opacity: 0.8"/>
    </g>
    <g clip-path="url(#p75f6a18c74)">
     <use xlink:href="#C0_0_400e67510d" x="76.555891" y="35.292133" style="fill: #ff8c00; fill-opacity: 0.8"/>
    </g>
    <g clip-path="url(#p75f6a18c74)">
     <use xlink:href="#C0_0_400e67510d" x="81.106637" y="28.486001" style="fill: #ff8c00; fill-opacity: 0.8"/>
    </g>
    <g clip-path="url(#p75f6a18c74)">
     <use xlink:href="#C0_0_400e67510d" x="74.280518" y="39.637045" style="fill: #ff8c00; fill-opacity: 0.8"/>
    </g>
    <g clip-path="url(#p75f6a18c74)">
     <use xlink:href="#C0_0_400e67510d" x="67.454399" y="37.323263" style="fill: #ff8c00; fill-opacity: 0.8"/>
    </g>
    <g clip-path="url(#p75f6a18c74)">
     <use xlink:href="#C0_0_400e67510d" x="40.149924" y="34.867346" style="fill: #ff8c00; fill-opacity: 0.8"/>
    </g>
    <g clip-path="url(#p75f6a18c74)">
     <use xlink:href="#C0_0_400e67510d" x="31.048432" y="39.351253" style="fill: #ff8c00; fill-opacity: 0.8"/>
    </g>
    <g clip-path="url(#p75f6a18c74)">
     <use xlink:href="#C0_0_400e67510d" x="62.903654" y="45.114738" style="fill: #ff8c00; fill-opacity: 0.8"/>
    </g>
    <g clip-path="url(#p75f6a18c74)">
     <use xlink:href="#C0_0_400e67510d" x="62.903654" y="29.783493" style="fill: #ff8c00; fill-opacity: 0.8"/>
    </g>
    <g clip-path="url(#p75f6a18c74)">
     <use xlink:href="#C0_0_400e67510d" x="74.280518" y="71.235334" style="fill: #ff8c00; fill-opacity: 0.8"/>
    </g>
    <g clip-path="url(#p75f6a18c74)">
     <use xlink:href="#C0_0_400e67510d" x="65.179026" y="57.166291" style="fill: #ff8c00; fill-opacity: 0.8"/>
    </g>
    <g clip-path="url(#p75f6a18c74)">
     <use xlink:href="#C0_0_400e67510d" x="122.06335" y="25.3527" style="fill: #ff8c00; fill-opacity: 0.8"/>
    </g>
    <g clip-path="url(#p75f6a18c74)">
     <use xlink:href="#C0_0_400e67510d" x="58.352908" y="55.9377" style="fill: #ff8c00; fill-opacity: 0.8"/>
    </g>
    <g clip-path="url(#p75f6a18c74)">
     <use xlink:href="#C0_0_400e67510d" x="58.352908" y="55.2964" style="fill: #ff8c00; fill-opacity: 0.8"/>
    </g>
    <g clip-path="url(#p75f6a18c74)">
     <use xlink:href="#C0_0_400e67510d" x="40.149924" y="48.078267" style="fill: #ff8c00; fill-opacity: 0.8"/>
    </g>
    <g clip-path="url(#p75f6a18c74)">
     <use xlink:href="#C0_0_400e67510d" x="40.149924" y="69.281622" style="fill: #ff8c00; fill-opacity: 0.8"/>
    </g>
    <g clip-path="url(#p75f6a18c74)">
     <use xlink:href="#C0_0_400e67510d" x="69.729772" y="54.489596" style="fill: #ff8c00; fill-opacity: 0.8"/>
    </g>
    <g clip-path="url(#p75f6a18c74)">
     <use xlink:href="#C0_0_400e67510d" x="62.903654" y="45.101225" style="fill: #ff8c00; fill-opacity: 0.8"/>
    </g>
    <g clip-path="url(#p75f6a18c74)">
     <use xlink:href="#C0_0_400e67510d" x="62.903654" y="69.562297" style="fill: #ff8c00; fill-opacity: 0.8"/>
    </g>
    <g clip-path="url(#p75f6a18c74)">
     <use xlink:href="#C0_0_400e67510d" x="51.526789" y="60.775425" style="fill: #ff8c00; fill-opacity: 0.8"/>
    </g>
    <g clip-path="url(#p75f6a18c74)">
     <use xlink:href="#C0_0_400e67510d" x="65.179026" y="61.131477" style="fill: #ff8c00; fill-opacity: 0.8"/>
    </g>
    <g clip-path="url(#p75f6a18c74)">
     <use xlink:href="#C0_0_400e67510d" x="74.280518" y="64.224525" style="fill: #ff8c00; fill-opacity: 0.8"/>
    </g>
    <g clip-path="url(#p75f6a18c74)">
     <use xlink:href="#C0_0_400e67510d" x="103.860366" y="50.40094" style="fill: #ff8c00; fill-opacity: 0.8"/>
    </g>
    <g clip-path="url(#p75f6a18c74)">
     <use xlink:href="#C0_0_400e67510d" x="72.005145" y="49.888221" style="fill: #ff8c00; fill-opacity: 0.8"/>
    </g>
    <g clip-path="url(#p75f6a18c74)">
     <use xlink:href="#C0_0_400e67510d" x="144.817079" y="21.383167" style="fill: #ff8c00; fill-opacity: 0.8"/>
    </g>
    <g clip-path="url(#p75f6a18c74)">
     <use xlink:href="#C0_0_400e67510d" x="78.831264" y="45.812898" style="fill: #ff8c00; fill-opacity: 0.8"/>
    </g>
    <g clip-path="url(#p75f6a18c74)">
     <use xlink:href="#C0_0_400e67510d" x="74.280518" y="56.534357" style="fill: #ff8c00; fill-opacity: 0.8"/>
    </g>
    <g clip-path="url(#p75f6a18c74)">
     <use xlink:href="#C0_0_400e67510d" x="99.309621" y="44.421339" style="fill: #ff8c00; fill-opacity: 0.8"/>
    </g>
    <g clip-path="url(#p75f6a18c74)">
     <use xlink:href="#C0_0_400e67510d" x="74.280518" y="64.912498" style="fill: #ff8c00; fill-opacity: 0.8"/>
    </g>
    <g clip-path="url(#p75f6a18c74)">
     <use xlink:href="#C0_0_400e67510d" x="74.280518" y="68.999586" style="fill: #ff8c00; fill-opacity: 0.8"/>
    </g>
    <g clip-path="url(#p75f6a18c74)">
     <use xlink:href="#C0_0_400e67510d" x="56.077535" y="46.075779" style="fill: #ff8c00; fill-opacity: 0.8"/>
    </g>
    <g clip-path="url(#p75f6a18c74)">
     <use xlink:href="#C0_0_400e67510d" x="62.903654" y="42.459571" style="fill: #ff8c00; fill-opacity: 0.8"/>
    </g>
    <g clip-path="url(#p75f6a18c74)">
     <use xlink:href="#C0_0_400e67510d" x="65.179026" y="40.178174" style="fill: #ff8c00; fill-opacity: 0.8"/>
    </g>
    <g clip-path="url(#p75f6a18c74)">
     <use xlink:href="#C0_0_400e67510d" x="65.179026" y="56.273056" style="fill: #ff8c00; fill-opacity: 0.8"/>
    </g>
    <g clip-path="url(#p75f6a18c74)">
     <use xlink:href="#C0_0_400e67510d" x="81.106637" y="62.352811" style="fill: #ff8c00; fill-opacity: 0.8"/>
    </g>
    <g clip-path="url(#p75f6a18c74)">
     <use xlink:href="#C0_0_400e67510d" x="81.106637" y="66.247812" style="fill: #ff8c00; fill-opacity: 0.8"/>
    </g>
    <g clip-path="url(#p75f6a18c74)">
     <use xlink:href="#C0_0_400e67510d" x="94.758875" y="28.177381" style="fill: #ff8c00; fill-opacity: 0.8"/>
    </g>
    <g clip-path="url(#p75f6a18c74)">
     <use xlink:href="#C0_0_400e67510d" x="53.802162" y="27.360869" style="fill: #ff8c00; fill-opacity: 0.8"/>
    </g>
    <g clip-path="url(#p75f6a18c74)">
     <use xlink:href="#C0_0_400e67510d" x="53.802162" y="39.477339" style="fill: #ff8c00; fill-opacity: 0.8"/>
    </g>
    <g clip-path="url(#p75f6a18c74)">
     <use xlink:href="#C0_0_400e67510d" x="78.831264" y="32.157778" style="fill: #ff8c00; fill-opacity: 0.8"/>
    </g>
    <g clip-path="url(#p75f6a18c74)">
     <use xlink:href="#C0_0_400e67510d" x="56.077535" y="66.987874" style="fill: #ff8c00; fill-opacity: 0.8"/>
    </g>
    <g clip-path="url(#p75f6a18c74)">
     <use xlink:href="#C0_0_400e67510d" x="83.38201" y="32.888874" style="fill: #ff8c00; fill-opacity: 0.8"/>
    </g>
    <g clip-path="url(#p75f6a18c74)">
     <use xlink:href="#C0_0_400e67510d" x="72.005145" y="47.912932" style="fill: #ff8c00; fill-opacity: 0.8"/>
    </g>
    <g clip-path="url(#p75f6a18c74)">
     <use xlink:href="#C0_0_400e67510d" x="53.802162" y="20.389354" style="fill: #ff8c00; fill-opacity: 0.8"/>
    </g>
    <g clip-path="url(#p75f6a18c74)">
     <use xlink:href="#C0_0_400e67510d" x="135.715588" y="48.013607" style="fill: #ff8c00; fill-opacity: 0.8"/>
    </g>
    <g clip-path="url(#p75f6a18c74)">
     <use xlink:href="#C0_0_400e67510d" x="72.005145" y="34.415632" style="fill: #ff8c00; fill-opacity: 0.8"/>
    </g>
    <g clip-path="url(#p75f6a18c74)">
     <use xlink:href="#C0_0_400e67510d" x="72.005145" y="56.384585" style="fill: #ff8c00; fill-opacity: 0.8"/>
    </g>
    <g clip-path="url(#p75f6a18c74)">
     <use xlink:href="#C0_0_400e67510d" x="74.280518" y="68.245598" style="fill: #ff8c00; fill-opacity: 0.8"/>
    </g>
   </g>
   <g id="PolyCollection_1">
    <path d="M 31.048432 43.265898 
L 31.048432 59.222709 
L 32.197611 58.993762 
L 33.346789 58.763708 
L 34.495967 58.511703 
L 35.645145 58.292305 
L 36.794324 58.071581 
L 37.943502 57.83386 
L 39.09268 57.610242 
L 40.241858 57.38586 
L 41.391037 57.16431 
L 42.540215 56.918955 
L 43.689393 56.673177 
L 44.838571 56.437534 
L 45.98775 56.223188 
L 47.136928 56.013531 
L 48.286106 55.793803 
L 49.435284 55.588043 
L 50.584463 55.402965 
L 51.733641 55.190233 
L 52.882819 54.982777 
L 54.031997 54.799969 
L 55.181176 54.582364 
L 56.330354 54.396507 
L 57.479532 54.195357 
L 58.62871 54.013983 
L 59.777889 53.83927 
L 60.927067 53.657732 
L 62.076245 53.514514 
L 63.225423 53.364034 
L 64.374602 53.231711 
L 65.52378 53.14362 
L 66.672958 53.028164 
L 67.822136 52.940718 
L 68.971315 52.849195 
L 70.120493 52.780104 
L 71.269671 52.714548 
L 72.418849 52.695527 
L 73.568028 52.67046 
L 74.717206 52.658048 
L 75.866384 52.67223 
L 77.015562 52.708639 
L 78.164741 52.789745 
L 79.313919 52.836873 
L 80.463097 52.940645 
L 81.612276 53.030787 
L 82.761454 53.088324 
L 83.910632 53.185427 
L 85.05981 53.284833 
L 86.208989 53.407874 
L 87.358167 53.53624 
L 88.507345 53.691418 
L 89.656523 53.796771 
L 90.805702 53.95352 
L 91.95488 54.094365 
L 93.104058 54.259961 
L 94.253236 54.389958 
L 95.402415 54.52524 
L 96.551593 54.649371 
L 97.700771 54.847324 
L 98.849949 55.007903 
L 99.999128 55.12066 
L 101.148306 55.260448 
L 102.297484 55.356315 
L 103.446662 55.499905 
L 104.595841 55.655589 
L 105.745019 55.829599 
L 106.894197 55.981082 
L 108.043375 56.138731 
L 109.192554 56.286272 
L 110.341732 56.456052 
L 111.49091 56.586267 
L 112.640088 56.705216 
L 113.789267 56.846971 
L 114.938445 56.995523 
L 116.087623 57.179798 
L 117.236801 57.344258 
L 118.38598 57.503343 
L 119.535158 57.66178 
L 120.684336 57.798851 
L 121.833514 57.928538 
L 122.982693 58.039444 
L 124.131871 58.166177 
L 125.281049 58.346384 
L 126.430227 58.540426 
L 127.579406 58.710126 
L 128.728584 58.847098 
L 129.877762 59.011474 
L 131.02694 59.165541 
L 132.176119 59.346509 
L 133.325297 59.521758 
L 134.474475 59.709108 
L 135.623653 59.84417 
L 136.772832 60.000841 
L 137.92201 60.164597 
L 139.071188 60.348228 
L 140.220366 60.532941 
L 141.369545 60.683581 
L 142.518723 60.848814 
L 143.667901 61.01208 
L 144.817079 61.154165 
L 144.817079 32.433746 
L 144.817079 32.433746 
L 143.667901 32.69047 
L 142.518723 32.965686 
L 141.369545 33.222129 
L 140.220366 33.480423 
L 139.071188 33.73212 
L 137.92201 33.986286 
L 136.772832 34.229962 
L 135.623653 34.479266 
L 134.474475 34.728795 
L 133.325297 34.991139 
L 132.176119 35.257566 
L 131.02694 35.4971 
L 129.877762 35.725586 
L 128.728584 35.943431 
L 127.579406 36.209161 
L 126.430227 36.476448 
L 125.281049 36.735747 
L 124.131871 36.985876 
L 122.982693 37.225659 
L 121.833514 37.482003 
L 120.684336 37.718993 
L 119.535158 37.968346 
L 118.38598 38.212464 
L 117.236801 38.449878 
L 116.087623 38.69774 
L 114.938445 38.910128 
L 113.789267 39.129534 
L 112.640088 39.387798 
L 111.49091 39.647786 
L 110.341732 39.883392 
L 109.192554 40.126156 
L 108.043375 40.349584 
L 106.894197 40.576963 
L 105.745019 40.798981 
L 104.595841 41.043157 
L 103.446662 41.282883 
L 102.297484 41.488781 
L 101.148306 41.70524 
L 99.999128 41.946947 
L 98.849949 42.13236 
L 97.700771 42.347794 
L 96.551593 42.567461 
L 95.402415 42.779932 
L 94.253236 42.99539 
L 93.104058 43.190374 
L 91.95488 43.392757 
L 90.805702 43.597316 
L 89.656523 43.799709 
L 88.507345 43.989442 
L 87.358167 44.161243 
L 86.208989 44.325972 
L 85.05981 44.510288 
L 83.910632 44.682291 
L 82.761454 44.8263 
L 81.612276 44.979792 
L 80.463097 45.112304 
L 79.313919 45.215483 
L 78.164741 45.362227 
L 77.015562 45.514596 
L 75.866384 45.630786 
L 74.717206 45.729916 
L 73.568028 45.830347 
L 72.418849 45.91655 
L 71.269671 45.984327 
L 70.120493 46.030293 
L 68.971315 46.090447 
L 67.822136 46.117454 
L 66.672958 46.141564 
L 65.52378 46.147738 
L 64.374602 46.152873 
L 63.225423 46.131226 
L 62.076245 46.121904 
L 60.927067 46.121704 
L 59.777889 46.088618 
L 58.62871 46.056189 
L 57.479532 45.989782 
L 56.330354 45.917433 
L 55.181176 45.825684 
L 54.031997 45.759692 
L 52.882819 45.693408 
L 51.733641 45.579532 
L 50.584463 45.502243 
L 49.435284 45.380223 
L 48.286106 45.263591 
L 47.136928 45.122204 
L 45.98775 45.002478 
L 44.838571 44.881453 
L 43.689393 44.751963 
L 42.540215 44.636907 
L 41.391037 44.528695 
L 40.241858 44.390671 
L 39.09268 44.248819 
L 37.943502 44.115665 
L 36.794324 43.971959 
L 35.645145 43.84368 
L 34.495967 43.702131 
L 33.346789 43.55963 
L 32.197611 43.426198 
L 31.048432 43.265898 
z
" clip-path="url(#p75f6a18c74)" style="fill: #ff8c00; fill-opacity: 0.15"/>
   </g>
   <g id="matplotlib.axis_1">
    <g id="xtick_1">
     <g id="line2d_1">
      <defs>
       <path id="m7cf6ce9467" d="M 0 0 
L 0 3.5 
" style="stroke: #000000; stroke-width: 0.25"/>
      </defs>
      <g>
       <use xlink:href="#m7cf6ce9467" x="31.048432" y="89.218327" style="stroke: #000000; stroke-width: 0.25"/>
      </g>
     </g>
     <g id="text_1">
      <!-- 15 -->
      <g transform="translate(28.267964 97.297233) scale(0.05 -0.05)">
       <defs>
        <path id="ArialMT-31" d="M 2384 0 
L 1822 0 
L 1822 3584 
Q 1619 3391 1289 3197 
Q 959 3003 697 2906 
L 697 3450 
Q 1169 3672 1522 3987 
Q 1875 4303 2022 4600 
L 2384 4600 
L 2384 0 
z
" transform="scale(0.015625)"/>
        <path id="ArialMT-35" d="M 266 1200 
L 856 1250 
Q 922 819 1161 601 
Q 1400 384 1738 384 
Q 2144 384 2425 690 
Q 2706 997 2706 1503 
Q 2706 1984 2436 2262 
Q 2166 2541 1728 2541 
Q 1456 2541 1237 2417 
Q 1019 2294 894 2097 
L 366 2166 
L 809 4519 
L 3088 4519 
L 3088 3981 
L 1259 3981 
L 1013 2750 
Q 1425 3038 1878 3038 
Q 2478 3038 2890 2622 
Q 3303 2206 3303 1553 
Q 3303 931 2941 478 
Q 2500 -78 1738 -78 
Q 1113 -78 717 272 
Q 322 622 266 1200 
z
" transform="scale(0.015625)"/>
       </defs>
       <use xlink:href="#ArialMT-31"/>
       <use xlink:href="#ArialMT-35" x="55.615234"/>
      </g>
     </g>
    </g>
    <g id="xtick_2">
     <g id="line2d_2">
      <g>
       <use xlink:href="#m7cf6ce9467" x="53.802162" y="89.218327" style="stroke: #000000; stroke-width: 0.25"/>
      </g>
     </g>
     <g id="text_2">
      <!-- 20 -->
      <g transform="translate(51.021693 97.297233) scale(0.05 -0.05)">
       <defs>
        <path id="ArialMT-32" d="M 3222 541 
L 3222 0 
L 194 0 
Q 188 203 259 391 
Q 375 700 629 1000 
Q 884 1300 1366 1694 
Q 2113 2306 2375 2664 
Q 2638 3022 2638 3341 
Q 2638 3675 2398 3904 
Q 2159 4134 1775 4134 
Q 1369 4134 1125 3890 
Q 881 3647 878 3216 
L 300 3275 
Q 359 3922 746 4261 
Q 1134 4600 1788 4600 
Q 2447 4600 2831 4234 
Q 3216 3869 3216 3328 
Q 3216 3053 3103 2787 
Q 2991 2522 2730 2228 
Q 2469 1934 1863 1422 
Q 1356 997 1212 845 
Q 1069 694 975 541 
L 3222 541 
z
" transform="scale(0.015625)"/>
        <path id="ArialMT-30" d="M 266 2259 
Q 266 3072 433 3567 
Q 600 4063 929 4331 
Q 1259 4600 1759 4600 
Q 2128 4600 2406 4451 
Q 2684 4303 2865 4023 
Q 3047 3744 3150 3342 
Q 3253 2941 3253 2259 
Q 3253 1453 3087 958 
Q 2922 463 2592 192 
Q 2263 -78 1759 -78 
Q 1097 -78 719 397 
Q 266 969 266 2259 
z
M 844 2259 
Q 844 1131 1108 757 
Q 1372 384 1759 384 
Q 2147 384 2411 759 
Q 2675 1134 2675 2259 
Q 2675 3391 2411 3762 
Q 2147 4134 1753 4134 
Q 1366 4134 1134 3806 
Q 844 3388 844 2259 
z
" transform="scale(0.015625)"/>
       </defs>
       <use xlink:href="#ArialMT-32"/>
       <use xlink:href="#ArialMT-30" x="55.615234"/>
      </g>
     </g>
    </g>
    <g id="xtick_3">
     <g id="line2d_3">
      <g>
       <use xlink:href="#m7cf6ce9467" x="76.555891" y="89.218327" style="stroke: #000000; stroke-width: 0.25"/>
      </g>
     </g>
     <g id="text_3">
      <!-- 25 -->
      <g transform="translate(73.775422 97.297233) scale(0.05 -0.05)">
       <use xlink:href="#ArialMT-32"/>
       <use xlink:href="#ArialMT-35" x="55.615234"/>
      </g>
     </g>
    </g>
    <g id="xtick_4">
     <g id="line2d_4">
      <g>
       <use xlink:href="#m7cf6ce9467" x="99.309621" y="89.218327" style="stroke: #000000; stroke-width: 0.25"/>
      </g>
     </g>
     <g id="text_4">
      <!-- 30 -->
      <g transform="translate(96.529152 97.297233) scale(0.05 -0.05)">
       <defs>
        <path id="ArialMT-33" d="M 269 1209 
L 831 1284 
Q 928 806 1161 595 
Q 1394 384 1728 384 
Q 2125 384 2398 659 
Q 2672 934 2672 1341 
Q 2672 1728 2419 1979 
Q 2166 2231 1775 2231 
Q 1616 2231 1378 2169 
L 1441 2663 
Q 1497 2656 1531 2656 
Q 1891 2656 2178 2843 
Q 2466 3031 2466 3422 
Q 2466 3731 2256 3934 
Q 2047 4138 1716 4138 
Q 1388 4138 1169 3931 
Q 950 3725 888 3313 
L 325 3413 
Q 428 3978 793 4289 
Q 1159 4600 1703 4600 
Q 2078 4600 2393 4439 
Q 2709 4278 2876 4000 
Q 3044 3722 3044 3409 
Q 3044 3113 2884 2869 
Q 2725 2625 2413 2481 
Q 2819 2388 3044 2092 
Q 3269 1797 3269 1353 
Q 3269 753 2831 336 
Q 2394 -81 1725 -81 
Q 1122 -81 723 278 
Q 325 638 269 1209 
z
" transform="scale(0.015625)"/>
       </defs>
       <use xlink:href="#ArialMT-33"/>
       <use xlink:href="#ArialMT-30" x="55.615234"/>
      </g>
     </g>
    </g>
    <g id="xtick_5">
     <g id="line2d_5">
      <g>
       <use xlink:href="#m7cf6ce9467" x="122.06335" y="89.218327" style="stroke: #000000; stroke-width: 0.25"/>
      </g>
     </g>
     <g id="text_5">
      <!-- 35 -->
      <g transform="translate(119.282881 97.297233) scale(0.05 -0.05)">
       <use xlink:href="#ArialMT-33"/>
       <use xlink:href="#ArialMT-35" x="55.615234"/>
      </g>
     </g>
    </g>
    <g id="xtick_6">
     <g id="line2d_6">
      <g>
       <use xlink:href="#m7cf6ce9467" x="144.817079" y="89.218327" style="stroke: #000000; stroke-width: 0.25"/>
      </g>
     </g>
     <g id="text_6">
      <!-- 40 -->
      <g transform="translate(142.036611 97.297233) scale(0.05 -0.05)">
       <defs>
        <path id="ArialMT-34" d="M 2069 0 
L 2069 1097 
L 81 1097 
L 81 1613 
L 2172 4581 
L 2631 4581 
L 2631 1613 
L 3250 1613 
L 3250 1097 
L 2631 1097 
L 2631 0 
L 2069 0 
z
M 2069 1613 
L 2069 3678 
L 634 1613 
L 2069 1613 
z
" transform="scale(0.015625)"/>
       </defs>
       <use xlink:href="#ArialMT-34"/>
       <use xlink:href="#ArialMT-30" x="55.615234"/>
      </g>
     </g>
    </g>
    <g id="text_7">
     <!-- Age of last continuous full-time education [years] -->
     <g transform="translate(23.401818 106.658796) scale(0.06 -0.06)">
      <defs>
       <path id="ArialMT-41" d="M -9 0 
L 1750 4581 
L 2403 4581 
L 4278 0 
L 3588 0 
L 3053 1388 
L 1138 1388 
L 634 0 
L -9 0 
z
M 1313 1881 
L 2866 1881 
L 2388 3150 
Q 2169 3728 2063 4100 
Q 1975 3659 1816 3225 
L 1313 1881 
z
" transform="scale(0.015625)"/>
       <path id="ArialMT-67" d="M 319 -275 
L 866 -356 
Q 900 -609 1056 -725 
Q 1266 -881 1628 -881 
Q 2019 -881 2231 -725 
Q 2444 -569 2519 -288 
Q 2563 -116 2559 434 
Q 2191 0 1641 0 
Q 956 0 581 494 
Q 206 988 206 1678 
Q 206 2153 378 2554 
Q 550 2956 876 3175 
Q 1203 3394 1644 3394 
Q 2231 3394 2613 2919 
L 2613 3319 
L 3131 3319 
L 3131 450 
Q 3131 -325 2973 -648 
Q 2816 -972 2473 -1159 
Q 2131 -1347 1631 -1347 
Q 1038 -1347 672 -1080 
Q 306 -813 319 -275 
z
M 784 1719 
Q 784 1066 1043 766 
Q 1303 466 1694 466 
Q 2081 466 2343 764 
Q 2606 1063 2606 1700 
Q 2606 2309 2336 2618 
Q 2066 2928 1684 2928 
Q 1309 2928 1046 2623 
Q 784 2319 784 1719 
z
" transform="scale(0.015625)"/>
       <path id="ArialMT-65" d="M 2694 1069 
L 3275 997 
Q 3138 488 2766 206 
Q 2394 -75 1816 -75 
Q 1088 -75 661 373 
Q 234 822 234 1631 
Q 234 2469 665 2931 
Q 1097 3394 1784 3394 
Q 2450 3394 2872 2941 
Q 3294 2488 3294 1666 
Q 3294 1616 3291 1516 
L 816 1516 
Q 847 969 1125 678 
Q 1403 388 1819 388 
Q 2128 388 2347 550 
Q 2566 713 2694 1069 
z
M 847 1978 
L 2700 1978 
Q 2663 2397 2488 2606 
Q 2219 2931 1791 2931 
Q 1403 2931 1139 2672 
Q 875 2413 847 1978 
z
" transform="scale(0.015625)"/>
       <path id="ArialMT-20" transform="scale(0.015625)"/>
       <path id="ArialMT-6f" d="M 213 1659 
Q 213 2581 725 3025 
Q 1153 3394 1769 3394 
Q 2453 3394 2887 2945 
Q 3322 2497 3322 1706 
Q 3322 1066 3130 698 
Q 2938 331 2570 128 
Q 2203 -75 1769 -75 
Q 1072 -75 642 372 
Q 213 819 213 1659 
z
M 791 1659 
Q 791 1022 1069 705 
Q 1347 388 1769 388 
Q 2188 388 2466 706 
Q 2744 1025 2744 1678 
Q 2744 2294 2464 2611 
Q 2184 2928 1769 2928 
Q 1347 2928 1069 2612 
Q 791 2297 791 1659 
z
" transform="scale(0.015625)"/>
       <path id="ArialMT-66" d="M 556 0 
L 556 2881 
L 59 2881 
L 59 3319 
L 556 3319 
L 556 3672 
Q 556 4006 616 4169 
Q 697 4388 901 4523 
Q 1106 4659 1475 4659 
Q 1713 4659 2000 4603 
L 1916 4113 
Q 1741 4144 1584 4144 
Q 1328 4144 1222 4034 
Q 1116 3925 1116 3625 
L 1116 3319 
L 1763 3319 
L 1763 2881 
L 1116 2881 
L 1116 0 
L 556 0 
z
" transform="scale(0.015625)"/>
       <path id="ArialMT-6c" d="M 409 0 
L 409 4581 
L 972 4581 
L 972 0 
L 409 0 
z
" transform="scale(0.015625)"/>
       <path id="ArialMT-61" d="M 2588 409 
Q 2275 144 1986 34 
Q 1697 -75 1366 -75 
Q 819 -75 525 192 
Q 231 459 231 875 
Q 231 1119 342 1320 
Q 453 1522 633 1644 
Q 813 1766 1038 1828 
Q 1203 1872 1538 1913 
Q 2219 1994 2541 2106 
Q 2544 2222 2544 2253 
Q 2544 2597 2384 2738 
Q 2169 2928 1744 2928 
Q 1347 2928 1158 2789 
Q 969 2650 878 2297 
L 328 2372 
Q 403 2725 575 2942 
Q 747 3159 1072 3276 
Q 1397 3394 1825 3394 
Q 2250 3394 2515 3294 
Q 2781 3194 2906 3042 
Q 3031 2891 3081 2659 
Q 3109 2516 3109 2141 
L 3109 1391 
Q 3109 606 3145 398 
Q 3181 191 3288 0 
L 2700 0 
Q 2613 175 2588 409 
z
M 2541 1666 
Q 2234 1541 1622 1453 
Q 1275 1403 1131 1340 
Q 988 1278 909 1158 
Q 831 1038 831 891 
Q 831 666 1001 516 
Q 1172 366 1500 366 
Q 1825 366 2078 508 
Q 2331 650 2450 897 
Q 2541 1088 2541 1459 
L 2541 1666 
z
" transform="scale(0.015625)"/>
       <path id="ArialMT-73" d="M 197 991 
L 753 1078 
Q 800 744 1014 566 
Q 1228 388 1613 388 
Q 2000 388 2187 545 
Q 2375 703 2375 916 
Q 2375 1106 2209 1216 
Q 2094 1291 1634 1406 
Q 1016 1563 777 1677 
Q 538 1791 414 1992 
Q 291 2194 291 2438 
Q 291 2659 392 2848 
Q 494 3038 669 3163 
Q 800 3259 1026 3326 
Q 1253 3394 1513 3394 
Q 1903 3394 2198 3281 
Q 2494 3169 2634 2976 
Q 2775 2784 2828 2463 
L 2278 2388 
Q 2241 2644 2061 2787 
Q 1881 2931 1553 2931 
Q 1166 2931 1000 2803 
Q 834 2675 834 2503 
Q 834 2394 903 2306 
Q 972 2216 1119 2156 
Q 1203 2125 1616 2013 
Q 2213 1853 2448 1751 
Q 2684 1650 2818 1456 
Q 2953 1263 2953 975 
Q 2953 694 2789 445 
Q 2625 197 2315 61 
Q 2006 -75 1616 -75 
Q 969 -75 630 194 
Q 291 463 197 991 
z
" transform="scale(0.015625)"/>
       <path id="ArialMT-74" d="M 1650 503 
L 1731 6 
Q 1494 -44 1306 -44 
Q 1000 -44 831 53 
Q 663 150 594 308 
Q 525 466 525 972 
L 525 2881 
L 113 2881 
L 113 3319 
L 525 3319 
L 525 4141 
L 1084 4478 
L 1084 3319 
L 1650 3319 
L 1650 2881 
L 1084 2881 
L 1084 941 
Q 1084 700 1114 631 
Q 1144 563 1211 522 
Q 1278 481 1403 481 
Q 1497 481 1650 503 
z
" transform="scale(0.015625)"/>
       <path id="ArialMT-63" d="M 2588 1216 
L 3141 1144 
Q 3050 572 2676 248 
Q 2303 -75 1759 -75 
Q 1078 -75 664 370 
Q 250 816 250 1647 
Q 250 2184 428 2587 
Q 606 2991 970 3192 
Q 1334 3394 1763 3394 
Q 2303 3394 2647 3120 
Q 2991 2847 3088 2344 
L 2541 2259 
Q 2463 2594 2264 2762 
Q 2066 2931 1784 2931 
Q 1359 2931 1093 2626 
Q 828 2322 828 1663 
Q 828 994 1084 691 
Q 1341 388 1753 388 
Q 2084 388 2306 591 
Q 2528 794 2588 1216 
z
" transform="scale(0.015625)"/>
       <path id="ArialMT-6e" d="M 422 0 
L 422 3319 
L 928 3319 
L 928 2847 
Q 1294 3394 1984 3394 
Q 2284 3394 2536 3286 
Q 2788 3178 2913 3003 
Q 3038 2828 3088 2588 
Q 3119 2431 3119 2041 
L 3119 0 
L 2556 0 
L 2556 2019 
Q 2556 2363 2490 2533 
Q 2425 2703 2258 2804 
Q 2091 2906 1866 2906 
Q 1506 2906 1245 2678 
Q 984 2450 984 1813 
L 984 0 
L 422 0 
z
" transform="scale(0.015625)"/>
       <path id="ArialMT-69" d="M 425 3934 
L 425 4581 
L 988 4581 
L 988 3934 
L 425 3934 
z
M 425 0 
L 425 3319 
L 988 3319 
L 988 0 
L 425 0 
z
" transform="scale(0.015625)"/>
       <path id="ArialMT-75" d="M 2597 0 
L 2597 488 
Q 2209 -75 1544 -75 
Q 1250 -75 995 37 
Q 741 150 617 320 
Q 494 491 444 738 
Q 409 903 409 1263 
L 409 3319 
L 972 3319 
L 972 1478 
Q 972 1038 1006 884 
Q 1059 663 1231 536 
Q 1403 409 1656 409 
Q 1909 409 2131 539 
Q 2353 669 2445 892 
Q 2538 1116 2538 1541 
L 2538 3319 
L 3100 3319 
L 3100 0 
L 2597 0 
z
" transform="scale(0.015625)"/>
       <path id="ArialMT-2d" d="M 203 1375 
L 203 1941 
L 1931 1941 
L 1931 1375 
L 203 1375 
z
" transform="scale(0.015625)"/>
       <path id="ArialMT-6d" d="M 422 0 
L 422 3319 
L 925 3319 
L 925 2853 
Q 1081 3097 1340 3245 
Q 1600 3394 1931 3394 
Q 2300 3394 2536 3241 
Q 2772 3088 2869 2813 
Q 3263 3394 3894 3394 
Q 4388 3394 4653 3120 
Q 4919 2847 4919 2278 
L 4919 0 
L 4359 0 
L 4359 2091 
Q 4359 2428 4304 2576 
Q 4250 2725 4106 2815 
Q 3963 2906 3769 2906 
Q 3419 2906 3187 2673 
Q 2956 2441 2956 1928 
L 2956 0 
L 2394 0 
L 2394 2156 
Q 2394 2531 2256 2718 
Q 2119 2906 1806 2906 
Q 1569 2906 1367 2781 
Q 1166 2656 1075 2415 
Q 984 2175 984 1722 
L 984 0 
L 422 0 
z
" transform="scale(0.015625)"/>
       <path id="ArialMT-64" d="M 2575 0 
L 2575 419 
Q 2259 -75 1647 -75 
Q 1250 -75 917 144 
Q 584 363 401 755 
Q 219 1147 219 1656 
Q 219 2153 384 2558 
Q 550 2963 881 3178 
Q 1213 3394 1622 3394 
Q 1922 3394 2156 3267 
Q 2391 3141 2538 2938 
L 2538 4581 
L 3097 4581 
L 3097 0 
L 2575 0 
z
M 797 1656 
Q 797 1019 1065 703 
Q 1334 388 1700 388 
Q 2069 388 2326 689 
Q 2584 991 2584 1609 
Q 2584 2291 2321 2609 
Q 2059 2928 1675 2928 
Q 1300 2928 1048 2622 
Q 797 2316 797 1656 
z
" transform="scale(0.015625)"/>
       <path id="ArialMT-5b" d="M 434 -1272 
L 434 4581 
L 1675 4581 
L 1675 4116 
L 997 4116 
L 997 -806 
L 1675 -806 
L 1675 -1272 
L 434 -1272 
z
" transform="scale(0.015625)"/>
       <path id="ArialMT-79" d="M 397 -1278 
L 334 -750 
Q 519 -800 656 -800 
Q 844 -800 956 -737 
Q 1069 -675 1141 -563 
Q 1194 -478 1313 -144 
Q 1328 -97 1363 -6 
L 103 3319 
L 709 3319 
L 1400 1397 
Q 1534 1031 1641 628 
Q 1738 1016 1872 1384 
L 2581 3319 
L 3144 3319 
L 1881 -56 
Q 1678 -603 1566 -809 
Q 1416 -1088 1222 -1217 
Q 1028 -1347 759 -1347 
Q 597 -1347 397 -1278 
z
" transform="scale(0.015625)"/>
       <path id="ArialMT-72" d="M 416 0 
L 416 3319 
L 922 3319 
L 922 2816 
Q 1116 3169 1280 3281 
Q 1444 3394 1641 3394 
Q 1925 3394 2219 3213 
L 2025 2691 
Q 1819 2813 1613 2813 
Q 1428 2813 1281 2702 
Q 1134 2591 1072 2394 
Q 978 2094 978 1738 
L 978 0 
L 416 0 
z
" transform="scale(0.015625)"/>
       <path id="ArialMT-5d" d="M 1363 -1272 
L 122 -1272 
L 122 -806 
L 800 -806 
L 800 4116 
L 122 4116 
L 122 4581 
L 1363 4581 
L 1363 -1272 
z
" transform="scale(0.015625)"/>
      </defs>
      <use xlink:href="#ArialMT-41"/>
      <use xlink:href="#ArialMT-67" x="66.699219"/>
      <use xlink:href="#ArialMT-65" x="122.314453"/>
      <use xlink:href="#ArialMT-20" x="177.929688"/>
      <use xlink:href="#ArialMT-6f" x="205.712891"/>
      <use xlink:href="#ArialMT-66" x="261.328125"/>
      <use xlink:href="#ArialMT-20" x="289.111328"/>
      <use xlink:href="#ArialMT-6c" x="316.894531"/>
      <use xlink:href="#ArialMT-61" x="339.111328"/>
      <use xlink:href="#ArialMT-73" x="394.726562"/>
      <use xlink:href="#ArialMT-74" x="444.726562"/>
      <use xlink:href="#ArialMT-20" x="472.509766"/>
      <use xlink:href="#ArialMT-63" x="500.292969"/>
      <use xlink:href="#ArialMT-6f" x="550.292969"/>
      <use xlink:href="#ArialMT-6e" x="605.908203"/>
      <use xlink:href="#ArialMT-74" x="661.523438"/>
      <use xlink:href="#ArialMT-69" x="689.306641"/>
      <use xlink:href="#ArialMT-6e" x="711.523438"/>
      <use xlink:href="#ArialMT-75" x="767.138672"/>
      <use xlink:href="#ArialMT-6f" x="822.753906"/>
      <use xlink:href="#ArialMT-75" x="878.369141"/>
      <use xlink:href="#ArialMT-73" x="933.984375"/>
      <use xlink:href="#ArialMT-20" x="983.984375"/>
      <use xlink:href="#ArialMT-66" x="1011.767578"/>
      <use xlink:href="#ArialMT-75" x="1039.550781"/>
      <use xlink:href="#ArialMT-6c" x="1095.166016"/>
      <use xlink:href="#ArialMT-6c" x="1117.382812"/>
      <use xlink:href="#ArialMT-2d" x="1139.599609"/>
      <use xlink:href="#ArialMT-74" x="1172.900391"/>
      <use xlink:href="#ArialMT-69" x="1200.683594"/>
      <use xlink:href="#ArialMT-6d" x="1222.900391"/>
      <use xlink:href="#ArialMT-65" x="1306.201172"/>
      <use xlink:href="#ArialMT-20" x="1361.816406"/>
      <use xlink:href="#ArialMT-65" x="1389.599609"/>
      <use xlink:href="#ArialMT-64" x="1445.214844"/>
      <use xlink:href="#ArialMT-75" x="1500.830078"/>
      <use xlink:href="#ArialMT-63" x="1556.445312"/>
      <use xlink:href="#ArialMT-61" x="1606.445312"/>
      <use xlink:href="#ArialMT-74" x="1662.060547"/>
      <use xlink:href="#ArialMT-69" x="1689.84375"/>
      <use xlink:href="#ArialMT-6f" x="1712.060547"/>
      <use xlink:href="#ArialMT-6e" x="1767.675781"/>
      <use xlink:href="#ArialMT-20" x="1823.291016"/>
      <use xlink:href="#ArialMT-5b" x="1851.074219"/>
      <use xlink:href="#ArialMT-79" x="1878.857422"/>
      <use xlink:href="#ArialMT-65" x="1928.857422"/>
      <use xlink:href="#ArialMT-61" x="1984.472656"/>
      <use xlink:href="#ArialMT-72" x="2040.087891"/>
      <use xlink:href="#ArialMT-73" x="2073.388672"/>
      <use xlink:href="#ArialMT-5d" x="2123.388672"/>
     </g>
    </g>
   </g>
   <g id="matplotlib.axis_2">
    <g id="ytick_1">
     <g id="line2d_7">
      <defs>
       <path id="me0eed36ad3" d="M 0 0 
L -3.5 0 
" style="stroke: #000000; stroke-width: 0.25"/>
      </defs>
      <g>
       <use xlink:href="#me0eed36ad3" x="25.36" y="84.770254" style="stroke: #000000; stroke-width: 0.25"/>
      </g>
     </g>
     <g id="text_8">
      <!-- −2 -->
      <g transform="translate(15.159219 86.559707) scale(0.05 -0.05)">
       <defs>
        <path id="ArialMT-2212" d="M 3381 1997 
L 356 1997 
L 356 2522 
L 3381 2522 
L 3381 1997 
z
" transform="scale(0.015625)"/>
       </defs>
       <use xlink:href="#ArialMT-2212"/>
       <use xlink:href="#ArialMT-32" x="58.398438"/>
      </g>
     </g>
    </g>
    <g id="ytick_2">
     <g id="line2d_8">
      <g>
       <use xlink:href="#me0eed36ad3" x="25.36" y="69.220557" style="stroke: #000000; stroke-width: 0.25"/>
      </g>
     </g>
     <g id="text_9">
      <!-- −1 -->
      <g transform="translate(15.159219 71.01001) scale(0.05 -0.05)">
       <use xlink:href="#ArialMT-2212"/>
       <use xlink:href="#ArialMT-31" x="58.398438"/>
      </g>
     </g>
    </g>
    <g id="ytick_3">
     <g id="line2d_9">
      <g>
       <use xlink:href="#me0eed36ad3" x="25.36" y="53.67086" style="stroke: #000000; stroke-width: 0.25"/>
      </g>
     </g>
     <g id="text_10">
      <!-- 0 -->
      <g transform="translate(18.079531 55.460313) scale(0.05 -0.05)">
       <use xlink:href="#ArialMT-30"/>
      </g>
     </g>
    </g>
    <g id="ytick_4">
     <g id="line2d_10">
      <g>
       <use xlink:href="#me0eed36ad3" x="25.36" y="38.121163" style="stroke: #000000; stroke-width: 0.25"/>
      </g>
     </g>
     <g id="text_11">
      <!-- 1 -->
      <g transform="translate(18.079531 39.910616) scale(0.05 -0.05)">
       <use xlink:href="#ArialMT-31"/>
      </g>
     </g>
    </g>
    <g id="ytick_5">
     <g id="line2d_11">
      <g>
       <use xlink:href="#me0eed36ad3" x="25.36" y="22.571465" style="stroke: #000000; stroke-width: 0.25"/>
      </g>
     </g>
     <g id="text_12">
      <!-- 2 -->
      <g transform="translate(18.079531 24.360918) scale(0.05 -0.05)">
       <use xlink:href="#ArialMT-32"/>
      </g>
     </g>
    </g>
    <g id="ytick_6">
     <g id="line2d_12">
      <g>
       <use xlink:href="#me0eed36ad3" x="25.36" y="7.021768" style="stroke: #000000; stroke-width: 0.25"/>
      </g>
     </g>
     <g id="text_13">
      <!-- 3 -->
      <g transform="translate(18.079531 8.811221) scale(0.05 -0.05)">
       <use xlink:href="#ArialMT-33"/>
      </g>
     </g>
    </g>
    <g id="text_14">
     <!-- CTh PC1 [a.u.] -->
     <g transform="translate(9.966719 67.328746) rotate(-90) scale(0.06 -0.06)">
      <defs>
       <path id="ArialMT-43" d="M 3763 1606 
L 4369 1453 
Q 4178 706 3683 314 
Q 3188 -78 2472 -78 
Q 1731 -78 1267 223 
Q 803 525 561 1097 
Q 319 1669 319 2325 
Q 319 3041 592 3573 
Q 866 4106 1370 4382 
Q 1875 4659 2481 4659 
Q 3169 4659 3637 4309 
Q 4106 3959 4291 3325 
L 3694 3184 
Q 3534 3684 3231 3912 
Q 2928 4141 2469 4141 
Q 1941 4141 1586 3887 
Q 1231 3634 1087 3207 
Q 944 2781 944 2328 
Q 944 1744 1114 1308 
Q 1284 872 1643 656 
Q 2003 441 2422 441 
Q 2931 441 3284 734 
Q 3638 1028 3763 1606 
z
" transform="scale(0.015625)"/>
       <path id="ArialMT-54" d="M 1659 0 
L 1659 4041 
L 150 4041 
L 150 4581 
L 3781 4581 
L 3781 4041 
L 2266 4041 
L 2266 0 
L 1659 0 
z
" transform="scale(0.015625)"/>
       <path id="ArialMT-68" d="M 422 0 
L 422 4581 
L 984 4581 
L 984 2938 
Q 1378 3394 1978 3394 
Q 2347 3394 2619 3248 
Q 2891 3103 3008 2847 
Q 3125 2591 3125 2103 
L 3125 0 
L 2563 0 
L 2563 2103 
Q 2563 2525 2380 2717 
Q 2197 2909 1863 2909 
Q 1613 2909 1392 2779 
Q 1172 2650 1078 2428 
Q 984 2206 984 1816 
L 984 0 
L 422 0 
z
" transform="scale(0.015625)"/>
       <path id="ArialMT-50" d="M 494 0 
L 494 4581 
L 2222 4581 
Q 2678 4581 2919 4538 
Q 3256 4481 3484 4323 
Q 3713 4166 3852 3881 
Q 3991 3597 3991 3256 
Q 3991 2672 3619 2267 
Q 3247 1863 2275 1863 
L 1100 1863 
L 1100 0 
L 494 0 
z
M 1100 2403 
L 2284 2403 
Q 2872 2403 3119 2622 
Q 3366 2841 3366 3238 
Q 3366 3525 3220 3729 
Q 3075 3934 2838 4000 
Q 2684 4041 2272 4041 
L 1100 4041 
L 1100 2403 
z
" transform="scale(0.015625)"/>
       <path id="ArialMT-2e" d="M 581 0 
L 581 641 
L 1222 641 
L 1222 0 
L 581 0 
z
" transform="scale(0.015625)"/>
      </defs>
      <use xlink:href="#ArialMT-43"/>
      <use xlink:href="#ArialMT-54" x="72.216797"/>
      <use xlink:href="#ArialMT-68" x="133.300781"/>
      <use xlink:href="#ArialMT-20" x="188.916016"/>
      <use xlink:href="#ArialMT-50" x="216.699219"/>
      <use xlink:href="#ArialMT-43" x="283.398438"/>
      <use xlink:href="#ArialMT-31" x="355.615234"/>
      <use xlink:href="#ArialMT-20" x="411.230469"/>
      <use xlink:href="#ArialMT-5b" x="439.013672"/>
      <use xlink:href="#ArialMT-61" x="466.796875"/>
      <use xlink:href="#ArialMT-2e" x="522.412109"/>
      <use xlink:href="#ArialMT-75" x="550.195312"/>
      <use xlink:href="#ArialMT-2e" x="605.810547"/>
      <use xlink:href="#ArialMT-5d" x="633.59375"/>
     </g>
    </g>
   </g>
   <g id="line2d_13">
    <path d="M 31.048432 51.55561 
L 32.197611 51.488453 
L 33.346789 51.421297 
L 34.495967 51.35414 
L 35.645145 51.286984 
L 36.794324 51.219827 
L 37.943502 51.152671 
L 39.09268 51.085514 
L 40.241858 51.018358 
L 41.391037 50.951201 
L 42.540215 50.884045 
L 43.689393 50.816888 
L 44.838571 50.749732 
L 45.98775 50.682575 
L 47.136928 50.615419 
L 48.286106 50.548262 
L 49.435284 50.481106 
L 50.584463 50.413949 
L 51.733641 50.346793 
L 52.882819 50.279636 
L 54.031997 50.21248 
L 55.181176 50.145323 
L 56.330354 50.078167 
L 57.479532 50.01101 
L 58.62871 49.943854 
L 59.777889 49.876697 
L 60.927067 49.809541 
L 62.076245 49.742384 
L 63.225423 49.675228 
L 64.374602 49.608071 
L 65.52378 49.540915 
L 66.672958 49.473758 
L 67.822136 49.406602 
L 68.971315 49.339445 
L 70.120493 49.272288 
L 71.269671 49.205132 
L 72.418849 49.137975 
L 73.568028 49.070819 
L 74.717206 49.003662 
L 75.866384 48.936506 
L 77.015562 48.869349 
L 78.164741 48.802193 
L 79.313919 48.735036 
L 80.463097 48.66788 
L 81.612276 48.600723 
L 82.761454 48.533567 
L 83.910632 48.46641 
L 85.05981 48.399254 
L 86.208989 48.332097 
L 87.358167 48.264941 
L 88.507345 48.197784 
L 89.656523 48.130628 
L 90.805702 48.063471 
L 91.95488 47.996315 
L 93.104058 47.929158 
L 94.253236 47.862002 
L 95.402415 47.794845 
L 96.551593 47.727689 
L 97.700771 47.660532 
L 98.849949 47.593376 
L 99.999128 47.526219 
L 101.148306 47.459063 
L 102.297484 47.391906 
L 103.446662 47.32475 
L 104.595841 47.257593 
L 105.745019 47.190437 
L 106.894197 47.12328 
L 108.043375 47.056124 
L 109.192554 46.988967 
L 110.341732 46.921811 
L 111.49091 46.854654 
L 112.640088 46.787498 
L 113.789267 46.720341 
L 114.938445 46.653185 
L 116.087623 46.586028 
L 117.236801 46.518872 
L 118.38598 46.451715 
L 119.535158 46.384559 
L 120.684336 46.317402 
L 121.833514 46.250246 
L 122.982693 46.183089 
L 124.131871 46.115933 
L 125.281049 46.048776 
L 126.430227 45.98162 
L 127.579406 45.914463 
L 128.728584 45.847307 
L 129.877762 45.78015 
L 131.02694 45.712994 
L 132.176119 45.645837 
L 133.325297 45.578681 
L 134.474475 45.511524 
L 135.623653 45.444368 
L 136.772832 45.377211 
L 137.92201 45.310055 
L 139.071188 45.242898 
L 140.220366 45.175742 
L 141.369545 45.108585 
L 142.518723 45.041429 
L 143.667901 44.974272 
L 144.817079 44.907116 
" clip-path="url(#p75f6a18c74)" style="fill: none; stroke: #ff8c00; stroke-width: 0.75; stroke-linecap: square"/>
   </g>
   <g id="patch_3">
    <path d="M 25.36 89.218327 
L 25.36 5.758541 
" style="fill: none; stroke: #000000; stroke-width: 0.25; stroke-linejoin: miter; stroke-linecap: square"/>
   </g>
   <g id="patch_4">
    <path d="M 25.36 89.218327 
L 150.505512 89.218327 
" style="fill: none; stroke: #000000; stroke-width: 0.25; stroke-linejoin: miter; stroke-linecap: square"/>
   </g>
   <g id="text_15">
    <g id="patch_5">
     <path d="M 29.114365 19.050393 
L 52.364365 19.050393 
Q 53.864365 19.050393 53.864365 17.550393 
L 53.864365 7.483986 
Q 53.864365 5.983986 52.364365 5.983986 
L 29.114365 5.983986 
Q 27.614365 5.983986 27.614365 7.483986 
L 27.614365 17.550393 
Q 27.614365 19.050393 29.114365 19.050393 
z
" style="fill: #c0c0c0; opacity: 0.4; stroke: #c0c0c0; stroke-linejoin: miter"/>
    </g>
    <!-- $r=0.027$ -->
    <g transform="translate(29.114365 11.006643) scale(0.05 -0.05)">
     <defs>
      <path id="DejaVuSans-Oblique-72" d="M 2853 2969 
Q 2766 3016 2653 3041 
Q 2541 3066 2413 3066 
Q 1953 3066 1609 2717 
Q 1266 2369 1153 1784 
L 800 0 
L 225 0 
L 909 3500 
L 1484 3500 
L 1375 2956 
Q 1603 3259 1920 3421 
Q 2238 3584 2597 3584 
Q 2691 3584 2781 3573 
Q 2872 3563 2963 3538 
L 2853 2969 
z
" transform="scale(0.015625)"/>
      <path id="DejaVuSans-3d" d="M 678 2906 
L 4684 2906 
L 4684 2381 
L 678 2381 
L 678 2906 
z
M 678 1631 
L 4684 1631 
L 4684 1100 
L 678 1100 
L 678 1631 
z
" transform="scale(0.015625)"/>
      <path id="DejaVuSans-30" d="M 2034 4250 
Q 1547 4250 1301 3770 
Q 1056 3291 1056 2328 
Q 1056 1369 1301 889 
Q 1547 409 2034 409 
Q 2525 409 2770 889 
Q 3016 1369 3016 2328 
Q 3016 3291 2770 3770 
Q 2525 4250 2034 4250 
z
M 2034 4750 
Q 2819 4750 3233 4129 
Q 3647 3509 3647 2328 
Q 3647 1150 3233 529 
Q 2819 -91 2034 -91 
Q 1250 -91 836 529 
Q 422 1150 422 2328 
Q 422 3509 836 4129 
Q 1250 4750 2034 4750 
z
" transform="scale(0.015625)"/>
      <path id="DejaVuSans-2e" d="M 684 794 
L 1344 794 
L 1344 0 
L 684 0 
L 684 794 
z
" transform="scale(0.015625)"/>
      <path id="DejaVuSans-32" d="M 1228 531 
L 3431 531 
L 3431 0 
L 469 0 
L 469 531 
Q 828 903 1448 1529 
Q 2069 2156 2228 2338 
Q 2531 2678 2651 2914 
Q 2772 3150 2772 3378 
Q 2772 3750 2511 3984 
Q 2250 4219 1831 4219 
Q 1534 4219 1204 4116 
Q 875 4013 500 3803 
L 500 4441 
Q 881 4594 1212 4672 
Q 1544 4750 1819 4750 
Q 2544 4750 2975 4387 
Q 3406 4025 3406 3419 
Q 3406 3131 3298 2873 
Q 3191 2616 2906 2266 
Q 2828 2175 2409 1742 
Q 1991 1309 1228 531 
z
" transform="scale(0.015625)"/>
      <path id="DejaVuSans-37" d="M 525 4666 
L 3525 4666 
L 3525 4397 
L 1831 0 
L 1172 0 
L 2766 4134 
L 525 4134 
L 525 4666 
z
" transform="scale(0.015625)"/>
     </defs>
     <use xlink:href="#DejaVuSans-Oblique-72" transform="translate(0 0.78125)"/>
     <use xlink:href="#DejaVuSans-3d" transform="translate(60.595703 0.78125)"/>
     <use xlink:href="#DejaVuSans-30" transform="translate(163.867188 0.78125)"/>
     <use xlink:href="#DejaVuSans-2e" transform="translate(227.490234 0.78125)"/>
     <use xlink:href="#DejaVuSans-30" transform="translate(259.277344 0.78125)"/>
     <use xlink:href="#DejaVuSans-32" transform="translate(322.900391 0.78125)"/>
     <use xlink:href="#DejaVuSans-37" transform="translate(386.523438 0.78125)"/>
    </g>
    <!-- $p=0.797$ -->
    <g transform="translate(29.114365 16.500393) scale(0.05 -0.05)">
     <defs>
      <path id="DejaVuSans-Oblique-70" d="M 3175 2156 
Q 3175 2616 2975 2859 
Q 2775 3103 2400 3103 
Q 2144 3103 1911 2972 
Q 1678 2841 1497 2591 
Q 1319 2344 1212 1994 
Q 1106 1644 1106 1300 
Q 1106 863 1306 627 
Q 1506 391 1875 391 
Q 2147 391 2380 519 
Q 2613 647 2778 891 
Q 2956 1147 3065 1494 
Q 3175 1841 3175 2156 
z
M 1394 2969 
Q 1625 3272 1939 3428 
Q 2253 3584 2638 3584 
Q 3175 3584 3472 3232 
Q 3769 2881 3769 2247 
Q 3769 1728 3584 1258 
Q 3400 788 3053 416 
Q 2822 169 2531 39 
Q 2241 -91 1919 -91 
Q 1547 -91 1294 64 
Q 1041 219 916 525 
L 556 -1331 
L -19 -1331 
L 922 3500 
L 1497 3500 
L 1394 2969 
z
" transform="scale(0.015625)"/>
      <path id="DejaVuSans-39" d="M 703 97 
L 703 672 
Q 941 559 1184 500 
Q 1428 441 1663 441 
Q 2288 441 2617 861 
Q 2947 1281 2994 2138 
Q 2813 1869 2534 1725 
Q 2256 1581 1919 1581 
Q 1219 1581 811 2004 
Q 403 2428 403 3163 
Q 403 3881 828 4315 
Q 1253 4750 1959 4750 
Q 2769 4750 3195 4129 
Q 3622 3509 3622 2328 
Q 3622 1225 3098 567 
Q 2575 -91 1691 -91 
Q 1453 -91 1209 -44 
Q 966 3 703 97 
z
M 1959 2075 
Q 2384 2075 2632 2365 
Q 2881 2656 2881 3163 
Q 2881 3666 2632 3958 
Q 2384 4250 1959 4250 
Q 1534 4250 1286 3958 
Q 1038 3666 1038 3163 
Q 1038 2656 1286 2365 
Q 1534 2075 1959 2075 
z
" transform="scale(0.015625)"/>
     </defs>
     <use xlink:href="#DejaVuSans-Oblique-70" transform="translate(0 0.78125)"/>
     <use xlink:href="#DejaVuSans-3d" transform="translate(82.958984 0.78125)"/>
     <use xlink:href="#DejaVuSans-30" transform="translate(186.230469 0.78125)"/>
     <use xlink:href="#DejaVuSans-2e" transform="translate(249.853516 0.78125)"/>
     <use xlink:href="#DejaVuSans-37" transform="translate(273.890625 0.78125)"/>
     <use xlink:href="#DejaVuSans-39" transform="translate(337.513672 0.78125)"/>
     <use xlink:href="#DejaVuSans-37" transform="translate(401.136719 0.78125)"/>
    </g>
   </g>
  </g>
 </g>
 <defs>
  <clipPath id="p75f6a18c74">
   <rect x="25.36" y="5.758541" width="125.145512" height="83.459786"/>
  </clipPath>
 </defs>
</svg>
