<?xml version="1.0" encoding="utf-8" standalone="no"?>
<!DOCTYPE svg PUBLIC "-//W3C//DTD SVG 1.1//EN"
  "http://www.w3.org/Graphics/SVG/1.1/DTD/svg11.dtd">
<svg xmlns:xlink="http://www.w3.org/1999/xlink" width="155.905512pt" height="113.385827pt" viewBox="0 0 155.905512 113.385827" xmlns="http://www.w3.org/2000/svg" version="1.1">
 <metadata>
  <rdf:RDF xmlns:dc="http://purl.org/dc/elements/1.1/" xmlns:cc="http://creativecommons.org/ns#" xmlns:rdf="http://www.w3.org/1999/02/22-rdf-syntax-ns#">
   <cc:Work>
    <dc:type rdf:resource="http://purl.org/dc/dcmitype/StillImage"/>
    <dc:date>2025-06-11T09:26:08.113035</dc:date>
    <dc:format>image/svg+xml</dc:format>
    <dc:creator>
     <cc:Agent>
      <dc:title>Matplotlib v3.9.2, https://matplotlib.org/</dc:title>
     </cc:Agent>
    </dc:creator>
   </cc:Work>
  </rdf:RDF>
 </metadata>
 <defs>
  <style type="text/css">*{stroke-linejoin: round; stroke-linecap: butt}</style>
 </defs>
 <g id="figure_1">
  <g id="patch_1">
   <path d="M 0 113.385827 
L 155.905512 113.385827 
L 155.905512 0 
L 0 0 
z
" style="fill: #ffffff"/>
  </g>
  <g id="axes_1">
   <g id="patch_2">
    <path d="M 25.36 89.218327 
L 150.505512 89.218327 
L 150.505512 5.4 
L 25.36 5.4 
z
" style="fill: #ffffff"/>
   </g>
   <g id="PathCollection_1">
    <defs>
     <path id="C0_0_e83ea63d64" d="M 0 0.866025 
C 0.229673 0.866025 0.449969 0.774776 0.612372 0.612372 
C 0.774776 0.449969 0.866025 0.229673 0.866025 -0 
C 0.866025 -0.229673 0.774776 -0.449969 0.612372 -0.612372 
C 0.449969 -0.774776 0.229673 -0.866025 0 -0.866025 
C -0.229673 -0.866025 -0.449969 -0.774776 -0.612372 -0.612372 
C -0.774776 -0.449969 -0.866025 -0.229673 -0.866025 0 
C -0.866025 0.229673 -0.774776 0.449969 -0.612372 0.612372 
C -0.449969 0.774776 -0.229673 0.866025 0 0.866025 
z
"/>
    </defs>
    <g clip-path="url(#p8dc3b39490)">
     <use xlink:href="#C0_0_e83ea63d64" x="72.005145" y="53.817402" style="fill: #ff8c00; fill-opacity: 0.8"/>
    </g>
    <g clip-path="url(#p8dc3b39490)">
     <use xlink:href="#C0_0_e83ea63d64" x="56.077535" y="53.933804" style="fill: #ff8c00; fill-opacity: 0.8"/>
    </g>
    <g clip-path="url(#p8dc3b39490)">
     <use xlink:href="#C0_0_e83ea63d64" x="35.599178" y="72.74765" style="fill: #ff8c00; fill-opacity: 0.8"/>
    </g>
    <g clip-path="url(#p8dc3b39490)">
     <use xlink:href="#C0_0_e83ea63d64" x="62.903654" y="65.075452" style="fill: #ff8c00; fill-opacity: 0.8"/>
    </g>
    <g clip-path="url(#p8dc3b39490)">
     <use xlink:href="#C0_0_e83ea63d64" x="65.179026" y="63.751175" style="fill: #ff8c00; fill-opacity: 0.8"/>
    </g>
    <g clip-path="url(#p8dc3b39490)">
     <use xlink:href="#C0_0_e83ea63d64" x="67.454399" y="69.60031" style="fill: #ff8c00; fill-opacity: 0.8"/>
    </g>
    <g clip-path="url(#p8dc3b39490)">
     <use xlink:href="#C0_0_e83ea63d64" x="53.802162" y="66.347011" style="fill: #ff8c00; fill-opacity: 0.8"/>
    </g>
    <g clip-path="url(#p8dc3b39490)">
     <use xlink:href="#C0_0_e83ea63d64" x="53.802162" y="20.151004" style="fill: #ff8c00; fill-opacity: 0.8"/>
    </g>
    <g clip-path="url(#p8dc3b39490)">
     <use xlink:href="#C0_0_e83ea63d64" x="74.280518" y="42.417764" style="fill: #ff8c00; fill-opacity: 0.8"/>
    </g>
    <g clip-path="url(#p8dc3b39490)">
     <use xlink:href="#C0_0_e83ea63d64" x="74.280518" y="18.182563" style="fill: #ff8c00; fill-opacity: 0.8"/>
    </g>
    <g clip-path="url(#p8dc3b39490)">
     <use xlink:href="#C0_0_e83ea63d64" x="40.149924" y="82.968368" style="fill: #ff8c00; fill-opacity: 0.8"/>
    </g>
    <g clip-path="url(#p8dc3b39490)">
     <use xlink:href="#C0_0_e83ea63d64" x="67.454399" y="46.596558" style="fill: #ff8c00; fill-opacity: 0.8"/>
    </g>
    <g clip-path="url(#p8dc3b39490)">
     <use xlink:href="#C0_0_e83ea63d64" x="90.208129" y="27.371955" style="fill: #ff8c00; fill-opacity: 0.8"/>
    </g>
    <g clip-path="url(#p8dc3b39490)">
     <use xlink:href="#C0_0_e83ea63d64" x="90.208129" y="47.145125" style="fill: #ff8c00; fill-opacity: 0.8"/>
    </g>
    <g clip-path="url(#p8dc3b39490)">
     <use xlink:href="#C0_0_e83ea63d64" x="65.179026" y="67.964895" style="fill: #ff8c00; fill-opacity: 0.8"/>
    </g>
    <g clip-path="url(#p8dc3b39490)">
     <use xlink:href="#C0_0_e83ea63d64" x="53.802162" y="41.510322" style="fill: #ff8c00; fill-opacity: 0.8"/>
    </g>
    <g clip-path="url(#p8dc3b39490)">
     <use xlink:href="#C0_0_e83ea63d64" x="42.425297" y="55.993372" style="fill: #ff8c00; fill-opacity: 0.8"/>
    </g>
    <g clip-path="url(#p8dc3b39490)">
     <use xlink:href="#C0_0_e83ea63d64" x="65.179026" y="62.963136" style="fill: #ff8c00; fill-opacity: 0.8"/>
    </g>
    <g clip-path="url(#p8dc3b39490)">
     <use xlink:href="#C0_0_e83ea63d64" x="87.932756" y="47.175068" style="fill: #ff8c00; fill-opacity: 0.8"/>
    </g>
    <g clip-path="url(#p8dc3b39490)">
     <use xlink:href="#C0_0_e83ea63d64" x="65.179026" y="30.167166" style="fill: #ff8c00; fill-opacity: 0.8"/>
    </g>
    <g clip-path="url(#p8dc3b39490)">
     <use xlink:href="#C0_0_e83ea63d64" x="67.454399" y="30.983112" style="fill: #ff8c00; fill-opacity: 0.8"/>
    </g>
    <g clip-path="url(#p8dc3b39490)">
     <use xlink:href="#C0_0_e83ea63d64" x="60.628281" y="50.265587" style="fill: #ff8c00; fill-opacity: 0.8"/>
    </g>
    <g clip-path="url(#p8dc3b39490)">
     <use xlink:href="#C0_0_e83ea63d64" x="67.454399" y="9.850952" style="fill: #ff8c00; fill-opacity: 0.8"/>
    </g>
    <g clip-path="url(#p8dc3b39490)">
     <use xlink:href="#C0_0_e83ea63d64" x="67.454399" y="31.753486" style="fill: #ff8c00; fill-opacity: 0.8"/>
    </g>
    <g clip-path="url(#p8dc3b39490)">
     <use xlink:href="#C0_0_e83ea63d64" x="62.903654" y="67.78758" style="fill: #ff8c00; fill-opacity: 0.8"/>
    </g>
    <g clip-path="url(#p8dc3b39490)">
     <use xlink:href="#C0_0_e83ea63d64" x="62.903654" y="65.935256" style="fill: #ff8c00; fill-opacity: 0.8"/>
    </g>
    <g clip-path="url(#p8dc3b39490)">
     <use xlink:href="#C0_0_e83ea63d64" x="81.106637" y="44.357168" style="fill: #ff8c00; fill-opacity: 0.8"/>
    </g>
    <g clip-path="url(#p8dc3b39490)">
     <use xlink:href="#C0_0_e83ea63d64" x="65.179026" y="46.32763" style="fill: #ff8c00; fill-opacity: 0.8"/>
    </g>
    <g clip-path="url(#p8dc3b39490)">
     <use xlink:href="#C0_0_e83ea63d64" x="101.584994" y="66.223171" style="fill: #ff8c00; fill-opacity: 0.8"/>
    </g>
    <g clip-path="url(#p8dc3b39490)">
     <use xlink:href="#C0_0_e83ea63d64" x="53.802162" y="52.291173" style="fill: #ff8c00; fill-opacity: 0.8"/>
    </g>
    <g clip-path="url(#p8dc3b39490)">
     <use xlink:href="#C0_0_e83ea63d64" x="62.903654" y="80.54915" style="fill: #ff8c00; fill-opacity: 0.8"/>
    </g>
    <g clip-path="url(#p8dc3b39490)">
     <use xlink:href="#C0_0_e83ea63d64" x="72.005145" y="22.609497" style="fill: #ff8c00; fill-opacity: 0.8"/>
    </g>
    <g clip-path="url(#p8dc3b39490)">
     <use xlink:href="#C0_0_e83ea63d64" x="58.352908" y="30.143629" style="fill: #ff8c00; fill-opacity: 0.8"/>
    </g>
    <g clip-path="url(#p8dc3b39490)">
     <use xlink:href="#C0_0_e83ea63d64" x="58.352908" y="31.548697" style="fill: #ff8c00; fill-opacity: 0.8"/>
    </g>
    <g clip-path="url(#p8dc3b39490)">
     <use xlink:href="#C0_0_e83ea63d64" x="97.034248" y="39.844314" style="fill: #ff8c00; fill-opacity: 0.8"/>
    </g>
    <g clip-path="url(#p8dc3b39490)">
     <use xlink:href="#C0_0_e83ea63d64" x="97.034248" y="50.589416" style="fill: #ff8c00; fill-opacity: 0.8"/>
    </g>
    <g clip-path="url(#p8dc3b39490)">
     <use xlink:href="#C0_0_e83ea63d64" x="46.976043" y="62.983268" style="fill: #ff8c00; fill-opacity: 0.8"/>
    </g>
    <g clip-path="url(#p8dc3b39490)">
     <use xlink:href="#C0_0_e83ea63d64" x="40.149924" y="57.437049" style="fill: #ff8c00; fill-opacity: 0.8"/>
    </g>
    <g clip-path="url(#p8dc3b39490)">
     <use xlink:href="#C0_0_e83ea63d64" x="72.005145" y="47.949226" style="fill: #ff8c00; fill-opacity: 0.8"/>
    </g>
    <g clip-path="url(#p8dc3b39490)">
     <use xlink:href="#C0_0_e83ea63d64" x="58.352908" y="78.783675" style="fill: #ff8c00; fill-opacity: 0.8"/>
    </g>
    <g clip-path="url(#p8dc3b39490)">
     <use xlink:href="#C0_0_e83ea63d64" x="67.454399" y="51.680407" style="fill: #ff8c00; fill-opacity: 0.8"/>
    </g>
    <g clip-path="url(#p8dc3b39490)">
     <use xlink:href="#C0_0_e83ea63d64" x="35.599178" y="40.154598" style="fill: #ff8c00; fill-opacity: 0.8"/>
    </g>
    <g clip-path="url(#p8dc3b39490)">
     <use xlink:href="#C0_0_e83ea63d64" x="35.599178" y="48.152616" style="fill: #ff8c00; fill-opacity: 0.8"/>
    </g>
    <g clip-path="url(#p8dc3b39490)">
     <use xlink:href="#C0_0_e83ea63d64" x="74.280518" y="29.116371" style="fill: #ff8c00; fill-opacity: 0.8"/>
    </g>
    <g clip-path="url(#p8dc3b39490)">
     <use xlink:href="#C0_0_e83ea63d64" x="44.70067" y="44.692106" style="fill: #ff8c00; fill-opacity: 0.8"/>
    </g>
    <g clip-path="url(#p8dc3b39490)">
     <use xlink:href="#C0_0_e83ea63d64" x="44.70067" y="46.362414" style="fill: #ff8c00; fill-opacity: 0.8"/>
    </g>
    <g clip-path="url(#p8dc3b39490)">
     <use xlink:href="#C0_0_e83ea63d64" x="44.70067" y="51.053899" style="fill: #ff8c00; fill-opacity: 0.8"/>
    </g>
    <g clip-path="url(#p8dc3b39490)">
     <use xlink:href="#C0_0_e83ea63d64" x="60.628281" y="23.416608" style="fill: #ff8c00; fill-opacity: 0.8"/>
    </g>
    <g clip-path="url(#p8dc3b39490)">
     <use xlink:href="#C0_0_e83ea63d64" x="87.932756" y="51.933981" style="fill: #ff8c00; fill-opacity: 0.8"/>
    </g>
    <g clip-path="url(#p8dc3b39490)">
     <use xlink:href="#C0_0_e83ea63d64" x="76.555891" y="29.591415" style="fill: #ff8c00; fill-opacity: 0.8"/>
    </g>
    <g clip-path="url(#p8dc3b39490)">
     <use xlink:href="#C0_0_e83ea63d64" x="81.106637" y="60.473351" style="fill: #ff8c00; fill-opacity: 0.8"/>
    </g>
    <g clip-path="url(#p8dc3b39490)">
     <use xlink:href="#C0_0_e83ea63d64" x="74.280518" y="18.464012" style="fill: #ff8c00; fill-opacity: 0.8"/>
    </g>
    <g clip-path="url(#p8dc3b39490)">
     <use xlink:href="#C0_0_e83ea63d64" x="67.454399" y="9.209924" style="fill: #ff8c00; fill-opacity: 0.8"/>
    </g>
    <g clip-path="url(#p8dc3b39490)">
     <use xlink:href="#C0_0_e83ea63d64" x="40.149924" y="59.124899" style="fill: #ff8c00; fill-opacity: 0.8"/>
    </g>
    <g clip-path="url(#p8dc3b39490)">
     <use xlink:href="#C0_0_e83ea63d64" x="31.048432" y="59.444019" style="fill: #ff8c00; fill-opacity: 0.8"/>
    </g>
    <g clip-path="url(#p8dc3b39490)">
     <use xlink:href="#C0_0_e83ea63d64" x="62.903654" y="16.125475" style="fill: #ff8c00; fill-opacity: 0.8"/>
    </g>
    <g clip-path="url(#p8dc3b39490)">
     <use xlink:href="#C0_0_e83ea63d64" x="62.903654" y="63.978606" style="fill: #ff8c00; fill-opacity: 0.8"/>
    </g>
    <g clip-path="url(#p8dc3b39490)">
     <use xlink:href="#C0_0_e83ea63d64" x="74.280518" y="56.206418" style="fill: #ff8c00; fill-opacity: 0.8"/>
    </g>
    <g clip-path="url(#p8dc3b39490)">
     <use xlink:href="#C0_0_e83ea63d64" x="65.179026" y="35.147112" style="fill: #ff8c00; fill-opacity: 0.8"/>
    </g>
    <g clip-path="url(#p8dc3b39490)">
     <use xlink:href="#C0_0_e83ea63d64" x="122.06335" y="59.322025" style="fill: #ff8c00; fill-opacity: 0.8"/>
    </g>
    <g clip-path="url(#p8dc3b39490)">
     <use xlink:href="#C0_0_e83ea63d64" x="58.352908" y="37.409685" style="fill: #ff8c00; fill-opacity: 0.8"/>
    </g>
    <g clip-path="url(#p8dc3b39490)">
     <use xlink:href="#C0_0_e83ea63d64" x="58.352908" y="32.474767" style="fill: #ff8c00; fill-opacity: 0.8"/>
    </g>
    <g clip-path="url(#p8dc3b39490)">
     <use xlink:href="#C0_0_e83ea63d64" x="40.149924" y="59.196643" style="fill: #ff8c00; fill-opacity: 0.8"/>
    </g>
    <g clip-path="url(#p8dc3b39490)">
     <use xlink:href="#C0_0_e83ea63d64" x="40.149924" y="62.405205" style="fill: #ff8c00; fill-opacity: 0.8"/>
    </g>
    <g clip-path="url(#p8dc3b39490)">
     <use xlink:href="#C0_0_e83ea63d64" x="69.729772" y="40.284281" style="fill: #ff8c00; fill-opacity: 0.8"/>
    </g>
    <g clip-path="url(#p8dc3b39490)">
     <use xlink:href="#C0_0_e83ea63d64" x="62.903654" y="49.58553" style="fill: #ff8c00; fill-opacity: 0.8"/>
    </g>
    <g clip-path="url(#p8dc3b39490)">
     <use xlink:href="#C0_0_e83ea63d64" x="62.903654" y="47.082082" style="fill: #ff8c00; fill-opacity: 0.8"/>
    </g>
    <g clip-path="url(#p8dc3b39490)">
     <use xlink:href="#C0_0_e83ea63d64" x="51.526789" y="22.843923" style="fill: #ff8c00; fill-opacity: 0.8"/>
    </g>
    <g clip-path="url(#p8dc3b39490)">
     <use xlink:href="#C0_0_e83ea63d64" x="65.179026" y="29.651781" style="fill: #ff8c00; fill-opacity: 0.8"/>
    </g>
    <g clip-path="url(#p8dc3b39490)">
     <use xlink:href="#C0_0_e83ea63d64" x="74.280518" y="61.833702" style="fill: #ff8c00; fill-opacity: 0.8"/>
    </g>
    <g clip-path="url(#p8dc3b39490)">
     <use xlink:href="#C0_0_e83ea63d64" x="103.860366" y="27.503394" style="fill: #ff8c00; fill-opacity: 0.8"/>
    </g>
    <g clip-path="url(#p8dc3b39490)">
     <use xlink:href="#C0_0_e83ea63d64" x="72.005145" y="40.318422" style="fill: #ff8c00; fill-opacity: 0.8"/>
    </g>
    <g clip-path="url(#p8dc3b39490)">
     <use xlink:href="#C0_0_e83ea63d64" x="144.817079" y="39.058118" style="fill: #ff8c00; fill-opacity: 0.8"/>
    </g>
    <g clip-path="url(#p8dc3b39490)">
     <use xlink:href="#C0_0_e83ea63d64" x="78.831264" y="38.128555" style="fill: #ff8c00; fill-opacity: 0.8"/>
    </g>
    <g clip-path="url(#p8dc3b39490)">
     <use xlink:href="#C0_0_e83ea63d64" x="74.280518" y="32.116094" style="fill: #ff8c00; fill-opacity: 0.8"/>
    </g>
    <g clip-path="url(#p8dc3b39490)">
     <use xlink:href="#C0_0_e83ea63d64" x="99.309621" y="37.99516" style="fill: #ff8c00; fill-opacity: 0.8"/>
    </g>
    <g clip-path="url(#p8dc3b39490)">
     <use xlink:href="#C0_0_e83ea63d64" x="74.280518" y="57.74731" style="fill: #ff8c00; fill-opacity: 0.8"/>
    </g>
    <g clip-path="url(#p8dc3b39490)">
     <use xlink:href="#C0_0_e83ea63d64" x="74.280518" y="51.463269" style="fill: #ff8c00; fill-opacity: 0.8"/>
    </g>
    <g clip-path="url(#p8dc3b39490)">
     <use xlink:href="#C0_0_e83ea63d64" x="56.077535" y="13.444676" style="fill: #ff8c00; fill-opacity: 0.8"/>
    </g>
    <g clip-path="url(#p8dc3b39490)">
     <use xlink:href="#C0_0_e83ea63d64" x="62.903654" y="23.369595" style="fill: #ff8c00; fill-opacity: 0.8"/>
    </g>
    <g clip-path="url(#p8dc3b39490)">
     <use xlink:href="#C0_0_e83ea63d64" x="65.179026" y="18.260838" style="fill: #ff8c00; fill-opacity: 0.8"/>
    </g>
    <g clip-path="url(#p8dc3b39490)">
     <use xlink:href="#C0_0_e83ea63d64" x="65.179026" y="47.400431" style="fill: #ff8c00; fill-opacity: 0.8"/>
    </g>
    <g clip-path="url(#p8dc3b39490)">
     <use xlink:href="#C0_0_e83ea63d64" x="81.106637" y="62.41439" style="fill: #ff8c00; fill-opacity: 0.8"/>
    </g>
    <g clip-path="url(#p8dc3b39490)">
     <use xlink:href="#C0_0_e83ea63d64" x="81.106637" y="34.934507" style="fill: #ff8c00; fill-opacity: 0.8"/>
    </g>
    <g clip-path="url(#p8dc3b39490)">
     <use xlink:href="#C0_0_e83ea63d64" x="94.758875" y="13.513723" style="fill: #ff8c00; fill-opacity: 0.8"/>
    </g>
    <g clip-path="url(#p8dc3b39490)">
     <use xlink:href="#C0_0_e83ea63d64" x="53.802162" y="19.426125" style="fill: #ff8c00; fill-opacity: 0.8"/>
    </g>
    <g clip-path="url(#p8dc3b39490)">
     <use xlink:href="#C0_0_e83ea63d64" x="53.802162" y="28.199988" style="fill: #ff8c00; fill-opacity: 0.8"/>
    </g>
    <g clip-path="url(#p8dc3b39490)">
     <use xlink:href="#C0_0_e83ea63d64" x="78.831264" y="19.299627" style="fill: #ff8c00; fill-opacity: 0.8"/>
    </g>
    <g clip-path="url(#p8dc3b39490)">
     <use xlink:href="#C0_0_e83ea63d64" x="56.077535" y="62.597859" style="fill: #ff8c00; fill-opacity: 0.8"/>
    </g>
    <g clip-path="url(#p8dc3b39490)">
     <use xlink:href="#C0_0_e83ea63d64" x="83.38201" y="12.633156" style="fill: #ff8c00; fill-opacity: 0.8"/>
    </g>
    <g clip-path="url(#p8dc3b39490)">
     <use xlink:href="#C0_0_e83ea63d64" x="72.005145" y="16.268466" style="fill: #ff8c00; fill-opacity: 0.8"/>
    </g>
    <g clip-path="url(#p8dc3b39490)">
     <use xlink:href="#C0_0_e83ea63d64" x="53.802162" y="46.703547" style="fill: #ff8c00; fill-opacity: 0.8"/>
    </g>
    <g clip-path="url(#p8dc3b39490)">
     <use xlink:href="#C0_0_e83ea63d64" x="135.715588" y="82.102317" style="fill: #ff8c00; fill-opacity: 0.8"/>
    </g>
    <g clip-path="url(#p8dc3b39490)">
     <use xlink:href="#C0_0_e83ea63d64" x="72.005145" y="48.947838" style="fill: #ff8c00; fill-opacity: 0.8"/>
    </g>
    <g clip-path="url(#p8dc3b39490)">
     <use xlink:href="#C0_0_e83ea63d64" x="72.005145" y="54.50875" style="fill: #ff8c00; fill-opacity: 0.8"/>
    </g>
    <g clip-path="url(#p8dc3b39490)">
     <use xlink:href="#C0_0_e83ea63d64" x="74.280518" y="58.264585" style="fill: #ff8c00; fill-opacity: 0.8"/>
    </g>
    <g clip-path="url(#p8dc3b39490)">
     <use xlink:href="#C0_0_e83ea63d64" x="72.005145" y="75.333271" style="fill: #ff8c00; fill-opacity: 0.8"/>
    </g>
    <g clip-path="url(#p8dc3b39490)">
     <use xlink:href="#C0_0_e83ea63d64" x="53.802162" y="74.0667" style="fill: #ff8c00; fill-opacity: 0.8"/>
    </g>
    <g clip-path="url(#p8dc3b39490)">
     <use xlink:href="#C0_0_e83ea63d64" x="53.802162" y="65.311528" style="fill: #ff8c00; fill-opacity: 0.8"/>
    </g>
    <g clip-path="url(#p8dc3b39490)">
     <use xlink:href="#C0_0_e83ea63d64" x="74.280518" y="83.206708" style="fill: #ff8c00; fill-opacity: 0.8"/>
    </g>
    <g clip-path="url(#p8dc3b39490)">
     <use xlink:href="#C0_0_e83ea63d64" x="74.280518" y="80.582786" style="fill: #ff8c00; fill-opacity: 0.8"/>
    </g>
    <g clip-path="url(#p8dc3b39490)">
     <use xlink:href="#C0_0_e83ea63d64" x="67.454399" y="79.367408" style="fill: #ff8c00; fill-opacity: 0.8"/>
    </g>
    <g clip-path="url(#p8dc3b39490)">
     <use xlink:href="#C0_0_e83ea63d64" x="53.802162" y="75.223044" style="fill: #ff8c00; fill-opacity: 0.8"/>
    </g>
    <g clip-path="url(#p8dc3b39490)">
     <use xlink:href="#C0_0_e83ea63d64" x="42.425297" y="82.26137" style="fill: #ff8c00; fill-opacity: 0.8"/>
    </g>
    <g clip-path="url(#p8dc3b39490)">
     <use xlink:href="#C0_0_e83ea63d64" x="67.454399" y="71.640405" style="fill: #ff8c00; fill-opacity: 0.8"/>
    </g>
    <g clip-path="url(#p8dc3b39490)">
     <use xlink:href="#C0_0_e83ea63d64" x="60.628281" y="79.859" style="fill: #ff8c00; fill-opacity: 0.8"/>
    </g>
    <g clip-path="url(#p8dc3b39490)">
     <use xlink:href="#C0_0_e83ea63d64" x="67.454399" y="76.080333" style="fill: #ff8c00; fill-opacity: 0.8"/>
    </g>
    <g clip-path="url(#p8dc3b39490)">
     <use xlink:href="#C0_0_e83ea63d64" x="67.454399" y="79.035035" style="fill: #ff8c00; fill-opacity: 0.8"/>
    </g>
    <g clip-path="url(#p8dc3b39490)">
     <use xlink:href="#C0_0_e83ea63d64" x="81.106637" y="82.107606" style="fill: #ff8c00; fill-opacity: 0.8"/>
    </g>
    <g clip-path="url(#p8dc3b39490)">
     <use xlink:href="#C0_0_e83ea63d64" x="53.802162" y="71.915525" style="fill: #ff8c00; fill-opacity: 0.8"/>
    </g>
    <g clip-path="url(#p8dc3b39490)">
     <use xlink:href="#C0_0_e83ea63d64" x="62.903654" y="83.262439" style="fill: #ff8c00; fill-opacity: 0.8"/>
    </g>
    <g clip-path="url(#p8dc3b39490)">
     <use xlink:href="#C0_0_e83ea63d64" x="72.005145" y="57.131687" style="fill: #ff8c00; fill-opacity: 0.8"/>
    </g>
    <g clip-path="url(#p8dc3b39490)">
     <use xlink:href="#C0_0_e83ea63d64" x="58.352908" y="77.189714" style="fill: #ff8c00; fill-opacity: 0.8"/>
    </g>
    <g clip-path="url(#p8dc3b39490)">
     <use xlink:href="#C0_0_e83ea63d64" x="58.352908" y="75.873228" style="fill: #ff8c00; fill-opacity: 0.8"/>
    </g>
    <g clip-path="url(#p8dc3b39490)">
     <use xlink:href="#C0_0_e83ea63d64" x="97.034248" y="65.12613" style="fill: #ff8c00; fill-opacity: 0.8"/>
    </g>
    <g clip-path="url(#p8dc3b39490)">
     <use xlink:href="#C0_0_e83ea63d64" x="97.034248" y="68.013537" style="fill: #ff8c00; fill-opacity: 0.8"/>
    </g>
    <g clip-path="url(#p8dc3b39490)">
     <use xlink:href="#C0_0_e83ea63d64" x="40.149924" y="72.966307" style="fill: #ff8c00; fill-opacity: 0.8"/>
    </g>
    <g clip-path="url(#p8dc3b39490)">
     <use xlink:href="#C0_0_e83ea63d64" x="72.005145" y="76.35478" style="fill: #ff8c00; fill-opacity: 0.8"/>
    </g>
    <g clip-path="url(#p8dc3b39490)">
     <use xlink:href="#C0_0_e83ea63d64" x="58.352908" y="85.408403" style="fill: #ff8c00; fill-opacity: 0.8"/>
    </g>
    <g clip-path="url(#p8dc3b39490)">
     <use xlink:href="#C0_0_e83ea63d64" x="67.454399" y="83.573167" style="fill: #ff8c00; fill-opacity: 0.8"/>
    </g>
    <g clip-path="url(#p8dc3b39490)">
     <use xlink:href="#C0_0_e83ea63d64" x="35.599178" y="83.365242" style="fill: #ff8c00; fill-opacity: 0.8"/>
    </g>
    <g clip-path="url(#p8dc3b39490)">
     <use xlink:href="#C0_0_e83ea63d64" x="35.599178" y="83.930564" style="fill: #ff8c00; fill-opacity: 0.8"/>
    </g>
    <g clip-path="url(#p8dc3b39490)">
     <use xlink:href="#C0_0_e83ea63d64" x="74.280518" y="75.214819" style="fill: #ff8c00; fill-opacity: 0.8"/>
    </g>
    <g clip-path="url(#p8dc3b39490)">
     <use xlink:href="#C0_0_e83ea63d64" x="60.628281" y="70.963749" style="fill: #ff8c00; fill-opacity: 0.8"/>
    </g>
    <g clip-path="url(#p8dc3b39490)">
     <use xlink:href="#C0_0_e83ea63d64" x="87.932756" y="79.939695" style="fill: #ff8c00; fill-opacity: 0.8"/>
    </g>
    <g clip-path="url(#p8dc3b39490)">
     <use xlink:href="#C0_0_e83ea63d64" x="76.555891" y="78.240513" style="fill: #ff8c00; fill-opacity: 0.8"/>
    </g>
    <g clip-path="url(#p8dc3b39490)">
     <use xlink:href="#C0_0_e83ea63d64" x="81.106637" y="85.021486" style="fill: #ff8c00; fill-opacity: 0.8"/>
    </g>
    <g clip-path="url(#p8dc3b39490)">
     <use xlink:href="#C0_0_e83ea63d64" x="67.454399" y="55.177929" style="fill: #ff8c00; fill-opacity: 0.8"/>
    </g>
    <g clip-path="url(#p8dc3b39490)">
     <use xlink:href="#C0_0_e83ea63d64" x="40.149924" y="81.562069" style="fill: #ff8c00; fill-opacity: 0.8"/>
    </g>
    <g clip-path="url(#p8dc3b39490)">
     <use xlink:href="#C0_0_e83ea63d64" x="31.048432" y="81.809594" style="fill: #ff8c00; fill-opacity: 0.8"/>
    </g>
    <g clip-path="url(#p8dc3b39490)">
     <use xlink:href="#C0_0_e83ea63d64" x="62.903654" y="78.121561" style="fill: #ff8c00; fill-opacity: 0.8"/>
    </g>
    <g clip-path="url(#p8dc3b39490)">
     <use xlink:href="#C0_0_e83ea63d64" x="62.903654" y="84.194106" style="fill: #ff8c00; fill-opacity: 0.8"/>
    </g>
    <g clip-path="url(#p8dc3b39490)">
     <use xlink:href="#C0_0_e83ea63d64" x="65.179026" y="73.746995" style="fill: #ff8c00; fill-opacity: 0.8"/>
    </g>
    <g clip-path="url(#p8dc3b39490)">
     <use xlink:href="#C0_0_e83ea63d64" x="122.06335" y="78.806979" style="fill: #ff8c00; fill-opacity: 0.8"/>
    </g>
    <g clip-path="url(#p8dc3b39490)">
     <use xlink:href="#C0_0_e83ea63d64" x="58.352908" y="77.440402" style="fill: #ff8c00; fill-opacity: 0.8"/>
    </g>
    <g clip-path="url(#p8dc3b39490)">
     <use xlink:href="#C0_0_e83ea63d64" x="58.352908" y="75.77971" style="fill: #ff8c00; fill-opacity: 0.8"/>
    </g>
    <g clip-path="url(#p8dc3b39490)">
     <use xlink:href="#C0_0_e83ea63d64" x="62.903654" y="81.651961" style="fill: #ff8c00; fill-opacity: 0.8"/>
    </g>
    <g clip-path="url(#p8dc3b39490)">
     <use xlink:href="#C0_0_e83ea63d64" x="51.526789" y="60.51414" style="fill: #ff8c00; fill-opacity: 0.8"/>
    </g>
    <g clip-path="url(#p8dc3b39490)">
     <use xlink:href="#C0_0_e83ea63d64" x="65.179026" y="58.436682" style="fill: #ff8c00; fill-opacity: 0.8"/>
    </g>
    <g clip-path="url(#p8dc3b39490)">
     <use xlink:href="#C0_0_e83ea63d64" x="74.280518" y="82.04363" style="fill: #ff8c00; fill-opacity: 0.8"/>
    </g>
    <g clip-path="url(#p8dc3b39490)">
     <use xlink:href="#C0_0_e83ea63d64" x="72.005145" y="81.937298" style="fill: #ff8c00; fill-opacity: 0.8"/>
    </g>
    <g clip-path="url(#p8dc3b39490)">
     <use xlink:href="#C0_0_e83ea63d64" x="144.817079" y="75.441881" style="fill: #ff8c00; fill-opacity: 0.8"/>
    </g>
    <g clip-path="url(#p8dc3b39490)">
     <use xlink:href="#C0_0_e83ea63d64" x="78.831264" y="80.382751" style="fill: #ff8c00; fill-opacity: 0.8"/>
    </g>
    <g clip-path="url(#p8dc3b39490)">
     <use xlink:href="#C0_0_e83ea63d64" x="99.309621" y="77.342052" style="fill: #ff8c00; fill-opacity: 0.8"/>
    </g>
    <g clip-path="url(#p8dc3b39490)">
     <use xlink:href="#C0_0_e83ea63d64" x="74.280518" y="81.451568" style="fill: #ff8c00; fill-opacity: 0.8"/>
    </g>
    <g clip-path="url(#p8dc3b39490)">
     <use xlink:href="#C0_0_e83ea63d64" x="74.280518" y="79.515587" style="fill: #ff8c00; fill-opacity: 0.8"/>
    </g>
    <g clip-path="url(#p8dc3b39490)">
     <use xlink:href="#C0_0_e83ea63d64" x="56.077535" y="75.970987" style="fill: #ff8c00; fill-opacity: 0.8"/>
    </g>
    <g clip-path="url(#p8dc3b39490)">
     <use xlink:href="#C0_0_e83ea63d64" x="65.179026" y="73.588103" style="fill: #ff8c00; fill-opacity: 0.8"/>
    </g>
    <g clip-path="url(#p8dc3b39490)">
     <use xlink:href="#C0_0_e83ea63d64" x="65.179026" y="79.396538" style="fill: #ff8c00; fill-opacity: 0.8"/>
    </g>
    <g clip-path="url(#p8dc3b39490)">
     <use xlink:href="#C0_0_e83ea63d64" x="94.758875" y="69.376786" style="fill: #ff8c00; fill-opacity: 0.8"/>
    </g>
    <g clip-path="url(#p8dc3b39490)">
     <use xlink:href="#C0_0_e83ea63d64" x="53.802162" y="70.787588" style="fill: #ff8c00; fill-opacity: 0.8"/>
    </g>
    <g clip-path="url(#p8dc3b39490)">
     <use xlink:href="#C0_0_e83ea63d64" x="53.802162" y="72.948861" style="fill: #ff8c00; fill-opacity: 0.8"/>
    </g>
    <g clip-path="url(#p8dc3b39490)">
     <use xlink:href="#C0_0_e83ea63d64" x="78.831264" y="64.356439" style="fill: #ff8c00; fill-opacity: 0.8"/>
    </g>
    <g clip-path="url(#p8dc3b39490)">
     <use xlink:href="#C0_0_e83ea63d64" x="56.077535" y="83.558747" style="fill: #ff8c00; fill-opacity: 0.8"/>
    </g>
    <g clip-path="url(#p8dc3b39490)">
     <use xlink:href="#C0_0_e83ea63d64" x="53.802162" y="81.254289" style="fill: #ff8c00; fill-opacity: 0.8"/>
    </g>
    <g clip-path="url(#p8dc3b39490)">
     <use xlink:href="#C0_0_e83ea63d64" x="135.715588" y="84.689082" style="fill: #ff8c00; fill-opacity: 0.8"/>
    </g>
    <g clip-path="url(#p8dc3b39490)">
     <use xlink:href="#C0_0_e83ea63d64" x="72.005145" y="81.781091" style="fill: #ff8c00; fill-opacity: 0.8"/>
    </g>
    <g clip-path="url(#p8dc3b39490)">
     <use xlink:href="#C0_0_e83ea63d64" x="74.280518" y="82.507197" style="fill: #ff8c00; fill-opacity: 0.8"/>
    </g>
   </g>
   <g id="PolyCollection_1">
    <path d="M 31.048432 52.128896 
L 31.048432 65.565386 
L 32.197611 65.331262 
L 33.346789 65.0782 
L 34.495967 64.83885 
L 35.645145 64.617312 
L 36.794324 64.396162 
L 37.943502 64.198175 
L 39.09268 63.972819 
L 40.241858 63.752101 
L 41.391037 63.552251 
L 42.540215 63.335128 
L 43.689393 63.153486 
L 44.838571 62.938349 
L 45.98775 62.734771 
L 47.136928 62.55268 
L 48.286106 62.376787 
L 49.435284 62.184748 
L 50.584463 62.020292 
L 51.733641 61.878173 
L 52.882819 61.707307 
L 54.031997 61.572689 
L 55.181176 61.417456 
L 56.330354 61.252732 
L 57.479532 61.135328 
L 58.62871 61.001714 
L 59.777889 60.886967 
L 60.927067 60.788694 
L 62.076245 60.716434 
L 63.225423 60.632996 
L 64.374602 60.557955 
L 65.52378 60.508592 
L 66.672958 60.461871 
L 67.822136 60.413175 
L 68.971315 60.387491 
L 70.120493 60.350842 
L 71.269671 60.322538 
L 72.418849 60.329212 
L 73.568028 60.331235 
L 74.717206 60.340004 
L 75.866384 60.361617 
L 77.015562 60.355009 
L 78.164741 60.362252 
L 79.313919 60.38939 
L 80.463097 60.41602 
L 81.612276 60.452731 
L 82.761454 60.510753 
L 83.910632 60.574482 
L 85.05981 60.640996 
L 86.208989 60.701416 
L 87.358167 60.778365 
L 88.507345 60.844526 
L 89.656523 60.887772 
L 90.805702 60.941208 
L 91.95488 61.010475 
L 93.104058 61.080213 
L 94.253236 61.158128 
L 95.402415 61.252156 
L 96.551593 61.348561 
L 97.700771 61.443402 
L 98.849949 61.547622 
L 99.999128 61.630356 
L 101.148306 61.713415 
L 102.297484 61.796353 
L 103.446662 61.895039 
L 104.595841 61.965881 
L 105.745019 62.066706 
L 106.894197 62.179088 
L 108.043375 62.267883 
L 109.192554 62.357391 
L 110.341732 62.459148 
L 111.49091 62.567799 
L 112.640088 62.700289 
L 113.789267 62.820212 
L 114.938445 62.934349 
L 116.087623 63.022579 
L 117.236801 63.148476 
L 118.38598 63.267599 
L 119.535158 63.350921 
L 120.684336 63.483896 
L 121.833514 63.577218 
L 122.982693 63.681614 
L 124.131871 63.793863 
L 125.281049 63.919511 
L 126.430227 64.029399 
L 127.579406 64.14251 
L 128.728584 64.252429 
L 129.877762 64.352088 
L 131.02694 64.481124 
L 132.176119 64.59526 
L 133.325297 64.709268 
L 134.474475 64.813157 
L 135.623653 64.923779 
L 136.772832 65.031774 
L 137.92201 65.139111 
L 139.071188 65.246674 
L 140.220366 65.370904 
L 141.369545 65.499818 
L 142.518723 65.615293 
L 143.667901 65.732875 
L 144.817079 65.851397 
L 144.817079 38.97588 
L 144.817079 38.97588 
L 143.667901 39.232827 
L 142.518723 39.489253 
L 141.369545 39.725144 
L 140.220366 39.966064 
L 139.071188 40.198084 
L 137.92201 40.438904 
L 136.772832 40.681549 
L 135.623653 40.927878 
L 134.474475 41.203546 
L 133.325297 41.454189 
L 132.176119 41.7291 
L 131.02694 42.00886 
L 129.877762 42.283449 
L 128.728584 42.543924 
L 127.579406 42.784998 
L 126.430227 43.01925 
L 125.281049 43.277439 
L 124.131871 43.553277 
L 122.982693 43.776571 
L 121.833514 44.03037 
L 120.684336 44.268421 
L 119.535158 44.513861 
L 118.38598 44.761405 
L 117.236801 45.017788 
L 116.087623 45.282207 
L 114.938445 45.543829 
L 113.789267 45.776489 
L 112.640088 46.036198 
L 111.49091 46.285642 
L 110.341732 46.517762 
L 109.192554 46.757883 
L 108.043375 46.990544 
L 106.894197 47.21773 
L 105.745019 47.432765 
L 104.595841 47.665004 
L 103.446662 47.931084 
L 102.297484 48.182044 
L 101.148306 48.422467 
L 99.999128 48.686539 
L 98.849949 48.90841 
L 97.700771 49.098427 
L 96.551593 49.301179 
L 95.402415 49.542253 
L 94.253236 49.750794 
L 93.104058 49.981793 
L 91.95488 50.214286 
L 90.805702 50.437887 
L 89.656523 50.638502 
L 88.507345 50.835979 
L 87.358167 51.011301 
L 86.208989 51.20998 
L 85.05981 51.457003 
L 83.910632 51.663223 
L 82.761454 51.847735 
L 81.612276 52.023935 
L 80.463097 52.232685 
L 79.313919 52.419384 
L 78.164741 52.590457 
L 77.015562 52.73079 
L 75.866384 52.897592 
L 74.717206 53.059034 
L 73.568028 53.202983 
L 72.418849 53.329031 
L 71.269671 53.452355 
L 70.120493 53.564447 
L 68.971315 53.644584 
L 67.822136 53.725064 
L 66.672958 53.777674 
L 65.52378 53.807902 
L 64.374602 53.868856 
L 63.225423 53.895101 
L 62.076245 53.898914 
L 60.927067 53.915212 
L 59.777889 53.890743 
L 58.62871 53.868138 
L 57.479532 53.820691 
L 56.330354 53.784019 
L 55.181176 53.746169 
L 54.031997 53.732625 
L 52.882819 53.665751 
L 51.733641 53.59512 
L 50.584463 53.530699 
L 49.435284 53.484942 
L 48.286106 53.418829 
L 47.136928 53.348173 
L 45.98775 53.271761 
L 44.838571 53.213357 
L 43.689393 53.14393 
L 42.540215 53.061178 
L 41.391037 52.989548 
L 40.241858 52.898451 
L 39.09268 52.812383 
L 37.943502 52.716091 
L 36.794324 52.617095 
L 35.645145 52.53425 
L 34.495967 52.43422 
L 33.346789 52.331873 
L 32.197611 52.22676 
L 31.048432 52.128896 
z
" clip-path="url(#p8dc3b39490)" style="fill: #ff8c00; fill-opacity: 0.15"/>
   </g>
   <g id="matplotlib.axis_1">
    <g id="xtick_1">
     <g id="line2d_1">
      <defs>
       <path id="m2843ead5ea" d="M 0 0 
L 0 3.5 
" style="stroke: #000000; stroke-width: 0.25"/>
      </defs>
      <g>
       <use xlink:href="#m2843ead5ea" x="31.048432" y="89.218327" style="stroke: #000000; stroke-width: 0.25"/>
      </g>
     </g>
     <g id="text_1">
      <!-- 15 -->
      <g transform="translate(28.267964 97.297233) scale(0.05 -0.05)">
       <defs>
        <path id="ArialMT-31" d="M 2384 0 
L 1822 0 
L 1822 3584 
Q 1619 3391 1289 3197 
Q 959 3003 697 2906 
L 697 3450 
Q 1169 3672 1522 3987 
Q 1875 4303 2022 4600 
L 2384 4600 
L 2384 0 
z
" transform="scale(0.015625)"/>
        <path id="ArialMT-35" d="M 266 1200 
L 856 1250 
Q 922 819 1161 601 
Q 1400 384 1738 384 
Q 2144 384 2425 690 
Q 2706 997 2706 1503 
Q 2706 1984 2436 2262 
Q 2166 2541 1728 2541 
Q 1456 2541 1237 2417 
Q 1019 2294 894 2097 
L 366 2166 
L 809 4519 
L 3088 4519 
L 3088 3981 
L 1259 3981 
L 1013 2750 
Q 1425 3038 1878 3038 
Q 2478 3038 2890 2622 
Q 3303 2206 3303 1553 
Q 3303 931 2941 478 
Q 2500 -78 1738 -78 
Q 1113 -78 717 272 
Q 322 622 266 1200 
z
" transform="scale(0.015625)"/>
       </defs>
       <use xlink:href="#ArialMT-31"/>
       <use xlink:href="#ArialMT-35" x="55.615234"/>
      </g>
     </g>
    </g>
    <g id="xtick_2">
     <g id="line2d_2">
      <g>
       <use xlink:href="#m2843ead5ea" x="53.802162" y="89.218327" style="stroke: #000000; stroke-width: 0.25"/>
      </g>
     </g>
     <g id="text_2">
      <!-- 20 -->
      <g transform="translate(51.021693 97.297233) scale(0.05 -0.05)">
       <defs>
        <path id="ArialMT-32" d="M 3222 541 
L 3222 0 
L 194 0 
Q 188 203 259 391 
Q 375 700 629 1000 
Q 884 1300 1366 1694 
Q 2113 2306 2375 2664 
Q 2638 3022 2638 3341 
Q 2638 3675 2398 3904 
Q 2159 4134 1775 4134 
Q 1369 4134 1125 3890 
Q 881 3647 878 3216 
L 300 3275 
Q 359 3922 746 4261 
Q 1134 4600 1788 4600 
Q 2447 4600 2831 4234 
Q 3216 3869 3216 3328 
Q 3216 3053 3103 2787 
Q 2991 2522 2730 2228 
Q 2469 1934 1863 1422 
Q 1356 997 1212 845 
Q 1069 694 975 541 
L 3222 541 
z
" transform="scale(0.015625)"/>
        <path id="ArialMT-30" d="M 266 2259 
Q 266 3072 433 3567 
Q 600 4063 929 4331 
Q 1259 4600 1759 4600 
Q 2128 4600 2406 4451 
Q 2684 4303 2865 4023 
Q 3047 3744 3150 3342 
Q 3253 2941 3253 2259 
Q 3253 1453 3087 958 
Q 2922 463 2592 192 
Q 2263 -78 1759 -78 
Q 1097 -78 719 397 
Q 266 969 266 2259 
z
M 844 2259 
Q 844 1131 1108 757 
Q 1372 384 1759 384 
Q 2147 384 2411 759 
Q 2675 1134 2675 2259 
Q 2675 3391 2411 3762 
Q 2147 4134 1753 4134 
Q 1366 4134 1134 3806 
Q 844 3388 844 2259 
z
" transform="scale(0.015625)"/>
       </defs>
       <use xlink:href="#ArialMT-32"/>
       <use xlink:href="#ArialMT-30" x="55.615234"/>
      </g>
     </g>
    </g>
    <g id="xtick_3">
     <g id="line2d_3">
      <g>
       <use xlink:href="#m2843ead5ea" x="76.555891" y="89.218327" style="stroke: #000000; stroke-width: 0.25"/>
      </g>
     </g>
     <g id="text_3">
      <!-- 25 -->
      <g transform="translate(73.775422 97.297233) scale(0.05 -0.05)">
       <use xlink:href="#ArialMT-32"/>
       <use xlink:href="#ArialMT-35" x="55.615234"/>
      </g>
     </g>
    </g>
    <g id="xtick_4">
     <g id="line2d_4">
      <g>
       <use xlink:href="#m2843ead5ea" x="99.309621" y="89.218327" style="stroke: #000000; stroke-width: 0.25"/>
      </g>
     </g>
     <g id="text_4">
      <!-- 30 -->
      <g transform="translate(96.529152 97.297233) scale(0.05 -0.05)">
       <defs>
        <path id="ArialMT-33" d="M 269 1209 
L 831 1284 
Q 928 806 1161 595 
Q 1394 384 1728 384 
Q 2125 384 2398 659 
Q 2672 934 2672 1341 
Q 2672 1728 2419 1979 
Q 2166 2231 1775 2231 
Q 1616 2231 1378 2169 
L 1441 2663 
Q 1497 2656 1531 2656 
Q 1891 2656 2178 2843 
Q 2466 3031 2466 3422 
Q 2466 3731 2256 3934 
Q 2047 4138 1716 4138 
Q 1388 4138 1169 3931 
Q 950 3725 888 3313 
L 325 3413 
Q 428 3978 793 4289 
Q 1159 4600 1703 4600 
Q 2078 4600 2393 4439 
Q 2709 4278 2876 4000 
Q 3044 3722 3044 3409 
Q 3044 3113 2884 2869 
Q 2725 2625 2413 2481 
Q 2819 2388 3044 2092 
Q 3269 1797 3269 1353 
Q 3269 753 2831 336 
Q 2394 -81 1725 -81 
Q 1122 -81 723 278 
Q 325 638 269 1209 
z
" transform="scale(0.015625)"/>
       </defs>
       <use xlink:href="#ArialMT-33"/>
       <use xlink:href="#ArialMT-30" x="55.615234"/>
      </g>
     </g>
    </g>
    <g id="xtick_5">
     <g id="line2d_5">
      <g>
       <use xlink:href="#m2843ead5ea" x="122.06335" y="89.218327" style="stroke: #000000; stroke-width: 0.25"/>
      </g>
     </g>
     <g id="text_5">
      <!-- 35 -->
      <g transform="translate(119.282881 97.297233) scale(0.05 -0.05)">
       <use xlink:href="#ArialMT-33"/>
       <use xlink:href="#ArialMT-35" x="55.615234"/>
      </g>
     </g>
    </g>
    <g id="xtick_6">
     <g id="line2d_6">
      <g>
       <use xlink:href="#m2843ead5ea" x="144.817079" y="89.218327" style="stroke: #000000; stroke-width: 0.25"/>
      </g>
     </g>
     <g id="text_6">
      <!-- 40 -->
      <g transform="translate(142.036611 97.297233) scale(0.05 -0.05)">
       <defs>
        <path id="ArialMT-34" d="M 2069 0 
L 2069 1097 
L 81 1097 
L 81 1613 
L 2172 4581 
L 2631 4581 
L 2631 1613 
L 3250 1613 
L 3250 1097 
L 2631 1097 
L 2631 0 
L 2069 0 
z
M 2069 1613 
L 2069 3678 
L 634 1613 
L 2069 1613 
z
" transform="scale(0.015625)"/>
       </defs>
       <use xlink:href="#ArialMT-34"/>
       <use xlink:href="#ArialMT-30" x="55.615234"/>
      </g>
     </g>
    </g>
    <g id="text_7">
     <!-- Age of last continuous full-time education [years] -->
     <g transform="translate(23.401818 106.658796) scale(0.06 -0.06)">
      <defs>
       <path id="ArialMT-41" d="M -9 0 
L 1750 4581 
L 2403 4581 
L 4278 0 
L 3588 0 
L 3053 1388 
L 1138 1388 
L 634 0 
L -9 0 
z
M 1313 1881 
L 2866 1881 
L 2388 3150 
Q 2169 3728 2063 4100 
Q 1975 3659 1816 3225 
L 1313 1881 
z
" transform="scale(0.015625)"/>
       <path id="ArialMT-67" d="M 319 -275 
L 866 -356 
Q 900 -609 1056 -725 
Q 1266 -881 1628 -881 
Q 2019 -881 2231 -725 
Q 2444 -569 2519 -288 
Q 2563 -116 2559 434 
Q 2191 0 1641 0 
Q 956 0 581 494 
Q 206 988 206 1678 
Q 206 2153 378 2554 
Q 550 2956 876 3175 
Q 1203 3394 1644 3394 
Q 2231 3394 2613 2919 
L 2613 3319 
L 3131 3319 
L 3131 450 
Q 3131 -325 2973 -648 
Q 2816 -972 2473 -1159 
Q 2131 -1347 1631 -1347 
Q 1038 -1347 672 -1080 
Q 306 -813 319 -275 
z
M 784 1719 
Q 784 1066 1043 766 
Q 1303 466 1694 466 
Q 2081 466 2343 764 
Q 2606 1063 2606 1700 
Q 2606 2309 2336 2618 
Q 2066 2928 1684 2928 
Q 1309 2928 1046 2623 
Q 784 2319 784 1719 
z
" transform="scale(0.015625)"/>
       <path id="ArialMT-65" d="M 2694 1069 
L 3275 997 
Q 3138 488 2766 206 
Q 2394 -75 1816 -75 
Q 1088 -75 661 373 
Q 234 822 234 1631 
Q 234 2469 665 2931 
Q 1097 3394 1784 3394 
Q 2450 3394 2872 2941 
Q 3294 2488 3294 1666 
Q 3294 1616 3291 1516 
L 816 1516 
Q 847 969 1125 678 
Q 1403 388 1819 388 
Q 2128 388 2347 550 
Q 2566 713 2694 1069 
z
M 847 1978 
L 2700 1978 
Q 2663 2397 2488 2606 
Q 2219 2931 1791 2931 
Q 1403 2931 1139 2672 
Q 875 2413 847 1978 
z
" transform="scale(0.015625)"/>
       <path id="ArialMT-20" transform="scale(0.015625)"/>
       <path id="ArialMT-6f" d="M 213 1659 
Q 213 2581 725 3025 
Q 1153 3394 1769 3394 
Q 2453 3394 2887 2945 
Q 3322 2497 3322 1706 
Q 3322 1066 3130 698 
Q 2938 331 2570 128 
Q 2203 -75 1769 -75 
Q 1072 -75 642 372 
Q 213 819 213 1659 
z
M 791 1659 
Q 791 1022 1069 705 
Q 1347 388 1769 388 
Q 2188 388 2466 706 
Q 2744 1025 2744 1678 
Q 2744 2294 2464 2611 
Q 2184 2928 1769 2928 
Q 1347 2928 1069 2612 
Q 791 2297 791 1659 
z
" transform="scale(0.015625)"/>
       <path id="ArialMT-66" d="M 556 0 
L 556 2881 
L 59 2881 
L 59 3319 
L 556 3319 
L 556 3672 
Q 556 4006 616 4169 
Q 697 4388 901 4523 
Q 1106 4659 1475 4659 
Q 1713 4659 2000 4603 
L 1916 4113 
Q 1741 4144 1584 4144 
Q 1328 4144 1222 4034 
Q 1116 3925 1116 3625 
L 1116 3319 
L 1763 3319 
L 1763 2881 
L 1116 2881 
L 1116 0 
L 556 0 
z
" transform="scale(0.015625)"/>
       <path id="ArialMT-6c" d="M 409 0 
L 409 4581 
L 972 4581 
L 972 0 
L 409 0 
z
" transform="scale(0.015625)"/>
       <path id="ArialMT-61" d="M 2588 409 
Q 2275 144 1986 34 
Q 1697 -75 1366 -75 
Q 819 -75 525 192 
Q 231 459 231 875 
Q 231 1119 342 1320 
Q 453 1522 633 1644 
Q 813 1766 1038 1828 
Q 1203 1872 1538 1913 
Q 2219 1994 2541 2106 
Q 2544 2222 2544 2253 
Q 2544 2597 2384 2738 
Q 2169 2928 1744 2928 
Q 1347 2928 1158 2789 
Q 969 2650 878 2297 
L 328 2372 
Q 403 2725 575 2942 
Q 747 3159 1072 3276 
Q 1397 3394 1825 3394 
Q 2250 3394 2515 3294 
Q 2781 3194 2906 3042 
Q 3031 2891 3081 2659 
Q 3109 2516 3109 2141 
L 3109 1391 
Q 3109 606 3145 398 
Q 3181 191 3288 0 
L 2700 0 
Q 2613 175 2588 409 
z
M 2541 1666 
Q 2234 1541 1622 1453 
Q 1275 1403 1131 1340 
Q 988 1278 909 1158 
Q 831 1038 831 891 
Q 831 666 1001 516 
Q 1172 366 1500 366 
Q 1825 366 2078 508 
Q 2331 650 2450 897 
Q 2541 1088 2541 1459 
L 2541 1666 
z
" transform="scale(0.015625)"/>
       <path id="ArialMT-73" d="M 197 991 
L 753 1078 
Q 800 744 1014 566 
Q 1228 388 1613 388 
Q 2000 388 2187 545 
Q 2375 703 2375 916 
Q 2375 1106 2209 1216 
Q 2094 1291 1634 1406 
Q 1016 1563 777 1677 
Q 538 1791 414 1992 
Q 291 2194 291 2438 
Q 291 2659 392 2848 
Q 494 3038 669 3163 
Q 800 3259 1026 3326 
Q 1253 3394 1513 3394 
Q 1903 3394 2198 3281 
Q 2494 3169 2634 2976 
Q 2775 2784 2828 2463 
L 2278 2388 
Q 2241 2644 2061 2787 
Q 1881 2931 1553 2931 
Q 1166 2931 1000 2803 
Q 834 2675 834 2503 
Q 834 2394 903 2306 
Q 972 2216 1119 2156 
Q 1203 2125 1616 2013 
Q 2213 1853 2448 1751 
Q 2684 1650 2818 1456 
Q 2953 1263 2953 975 
Q 2953 694 2789 445 
Q 2625 197 2315 61 
Q 2006 -75 1616 -75 
Q 969 -75 630 194 
Q 291 463 197 991 
z
" transform="scale(0.015625)"/>
       <path id="ArialMT-74" d="M 1650 503 
L 1731 6 
Q 1494 -44 1306 -44 
Q 1000 -44 831 53 
Q 663 150 594 308 
Q 525 466 525 972 
L 525 2881 
L 113 2881 
L 113 3319 
L 525 3319 
L 525 4141 
L 1084 4478 
L 1084 3319 
L 1650 3319 
L 1650 2881 
L 1084 2881 
L 1084 941 
Q 1084 700 1114 631 
Q 1144 563 1211 522 
Q 1278 481 1403 481 
Q 1497 481 1650 503 
z
" transform="scale(0.015625)"/>
       <path id="ArialMT-63" d="M 2588 1216 
L 3141 1144 
Q 3050 572 2676 248 
Q 2303 -75 1759 -75 
Q 1078 -75 664 370 
Q 250 816 250 1647 
Q 250 2184 428 2587 
Q 606 2991 970 3192 
Q 1334 3394 1763 3394 
Q 2303 3394 2647 3120 
Q 2991 2847 3088 2344 
L 2541 2259 
Q 2463 2594 2264 2762 
Q 2066 2931 1784 2931 
Q 1359 2931 1093 2626 
Q 828 2322 828 1663 
Q 828 994 1084 691 
Q 1341 388 1753 388 
Q 2084 388 2306 591 
Q 2528 794 2588 1216 
z
" transform="scale(0.015625)"/>
       <path id="ArialMT-6e" d="M 422 0 
L 422 3319 
L 928 3319 
L 928 2847 
Q 1294 3394 1984 3394 
Q 2284 3394 2536 3286 
Q 2788 3178 2913 3003 
Q 3038 2828 3088 2588 
Q 3119 2431 3119 2041 
L 3119 0 
L 2556 0 
L 2556 2019 
Q 2556 2363 2490 2533 
Q 2425 2703 2258 2804 
Q 2091 2906 1866 2906 
Q 1506 2906 1245 2678 
Q 984 2450 984 1813 
L 984 0 
L 422 0 
z
" transform="scale(0.015625)"/>
       <path id="ArialMT-69" d="M 425 3934 
L 425 4581 
L 988 4581 
L 988 3934 
L 425 3934 
z
M 425 0 
L 425 3319 
L 988 3319 
L 988 0 
L 425 0 
z
" transform="scale(0.015625)"/>
       <path id="ArialMT-75" d="M 2597 0 
L 2597 488 
Q 2209 -75 1544 -75 
Q 1250 -75 995 37 
Q 741 150 617 320 
Q 494 491 444 738 
Q 409 903 409 1263 
L 409 3319 
L 972 3319 
L 972 1478 
Q 972 1038 1006 884 
Q 1059 663 1231 536 
Q 1403 409 1656 409 
Q 1909 409 2131 539 
Q 2353 669 2445 892 
Q 2538 1116 2538 1541 
L 2538 3319 
L 3100 3319 
L 3100 0 
L 2597 0 
z
" transform="scale(0.015625)"/>
       <path id="ArialMT-2d" d="M 203 1375 
L 203 1941 
L 1931 1941 
L 1931 1375 
L 203 1375 
z
" transform="scale(0.015625)"/>
       <path id="ArialMT-6d" d="M 422 0 
L 422 3319 
L 925 3319 
L 925 2853 
Q 1081 3097 1340 3245 
Q 1600 3394 1931 3394 
Q 2300 3394 2536 3241 
Q 2772 3088 2869 2813 
Q 3263 3394 3894 3394 
Q 4388 3394 4653 3120 
Q 4919 2847 4919 2278 
L 4919 0 
L 4359 0 
L 4359 2091 
Q 4359 2428 4304 2576 
Q 4250 2725 4106 2815 
Q 3963 2906 3769 2906 
Q 3419 2906 3187 2673 
Q 2956 2441 2956 1928 
L 2956 0 
L 2394 0 
L 2394 2156 
Q 2394 2531 2256 2718 
Q 2119 2906 1806 2906 
Q 1569 2906 1367 2781 
Q 1166 2656 1075 2415 
Q 984 2175 984 1722 
L 984 0 
L 422 0 
z
" transform="scale(0.015625)"/>
       <path id="ArialMT-64" d="M 2575 0 
L 2575 419 
Q 2259 -75 1647 -75 
Q 1250 -75 917 144 
Q 584 363 401 755 
Q 219 1147 219 1656 
Q 219 2153 384 2558 
Q 550 2963 881 3178 
Q 1213 3394 1622 3394 
Q 1922 3394 2156 3267 
Q 2391 3141 2538 2938 
L 2538 4581 
L 3097 4581 
L 3097 0 
L 2575 0 
z
M 797 1656 
Q 797 1019 1065 703 
Q 1334 388 1700 388 
Q 2069 388 2326 689 
Q 2584 991 2584 1609 
Q 2584 2291 2321 2609 
Q 2059 2928 1675 2928 
Q 1300 2928 1048 2622 
Q 797 2316 797 1656 
z
" transform="scale(0.015625)"/>
       <path id="ArialMT-5b" d="M 434 -1272 
L 434 4581 
L 1675 4581 
L 1675 4116 
L 997 4116 
L 997 -806 
L 1675 -806 
L 1675 -1272 
L 434 -1272 
z
" transform="scale(0.015625)"/>
       <path id="ArialMT-79" d="M 397 -1278 
L 334 -750 
Q 519 -800 656 -800 
Q 844 -800 956 -737 
Q 1069 -675 1141 -563 
Q 1194 -478 1313 -144 
Q 1328 -97 1363 -6 
L 103 3319 
L 709 3319 
L 1400 1397 
Q 1534 1031 1641 628 
Q 1738 1016 1872 1384 
L 2581 3319 
L 3144 3319 
L 1881 -56 
Q 1678 -603 1566 -809 
Q 1416 -1088 1222 -1217 
Q 1028 -1347 759 -1347 
Q 597 -1347 397 -1278 
z
" transform="scale(0.015625)"/>
       <path id="ArialMT-72" d="M 416 0 
L 416 3319 
L 922 3319 
L 922 2816 
Q 1116 3169 1280 3281 
Q 1444 3394 1641 3394 
Q 1925 3394 2219 3213 
L 2025 2691 
Q 1819 2813 1613 2813 
Q 1428 2813 1281 2702 
Q 1134 2591 1072 2394 
Q 978 2094 978 1738 
L 978 0 
L 416 0 
z
" transform="scale(0.015625)"/>
       <path id="ArialMT-5d" d="M 1363 -1272 
L 122 -1272 
L 122 -806 
L 800 -806 
L 800 4116 
L 122 4116 
L 122 4581 
L 1363 4581 
L 1363 -1272 
z
" transform="scale(0.015625)"/>
      </defs>
      <use xlink:href="#ArialMT-41"/>
      <use xlink:href="#ArialMT-67" x="66.699219"/>
      <use xlink:href="#ArialMT-65" x="122.314453"/>
      <use xlink:href="#ArialMT-20" x="177.929688"/>
      <use xlink:href="#ArialMT-6f" x="205.712891"/>
      <use xlink:href="#ArialMT-66" x="261.328125"/>
      <use xlink:href="#ArialMT-20" x="289.111328"/>
      <use xlink:href="#ArialMT-6c" x="316.894531"/>
      <use xlink:href="#ArialMT-61" x="339.111328"/>
      <use xlink:href="#ArialMT-73" x="394.726562"/>
      <use xlink:href="#ArialMT-74" x="444.726562"/>
      <use xlink:href="#ArialMT-20" x="472.509766"/>
      <use xlink:href="#ArialMT-63" x="500.292969"/>
      <use xlink:href="#ArialMT-6f" x="550.292969"/>
      <use xlink:href="#ArialMT-6e" x="605.908203"/>
      <use xlink:href="#ArialMT-74" x="661.523438"/>
      <use xlink:href="#ArialMT-69" x="689.306641"/>
      <use xlink:href="#ArialMT-6e" x="711.523438"/>
      <use xlink:href="#ArialMT-75" x="767.138672"/>
      <use xlink:href="#ArialMT-6f" x="822.753906"/>
      <use xlink:href="#ArialMT-75" x="878.369141"/>
      <use xlink:href="#ArialMT-73" x="933.984375"/>
      <use xlink:href="#ArialMT-20" x="983.984375"/>
      <use xlink:href="#ArialMT-66" x="1011.767578"/>
      <use xlink:href="#ArialMT-75" x="1039.550781"/>
      <use xlink:href="#ArialMT-6c" x="1095.166016"/>
      <use xlink:href="#ArialMT-6c" x="1117.382812"/>
      <use xlink:href="#ArialMT-2d" x="1139.599609"/>
      <use xlink:href="#ArialMT-74" x="1172.900391"/>
      <use xlink:href="#ArialMT-69" x="1200.683594"/>
      <use xlink:href="#ArialMT-6d" x="1222.900391"/>
      <use xlink:href="#ArialMT-65" x="1306.201172"/>
      <use xlink:href="#ArialMT-20" x="1361.816406"/>
      <use xlink:href="#ArialMT-65" x="1389.599609"/>
      <use xlink:href="#ArialMT-64" x="1445.214844"/>
      <use xlink:href="#ArialMT-75" x="1500.830078"/>
      <use xlink:href="#ArialMT-63" x="1556.445312"/>
      <use xlink:href="#ArialMT-61" x="1606.445312"/>
      <use xlink:href="#ArialMT-74" x="1662.060547"/>
      <use xlink:href="#ArialMT-69" x="1689.84375"/>
      <use xlink:href="#ArialMT-6f" x="1712.060547"/>
      <use xlink:href="#ArialMT-6e" x="1767.675781"/>
      <use xlink:href="#ArialMT-20" x="1823.291016"/>
      <use xlink:href="#ArialMT-5b" x="1851.074219"/>
      <use xlink:href="#ArialMT-79" x="1878.857422"/>
      <use xlink:href="#ArialMT-65" x="1928.857422"/>
      <use xlink:href="#ArialMT-61" x="1984.472656"/>
      <use xlink:href="#ArialMT-72" x="2040.087891"/>
      <use xlink:href="#ArialMT-73" x="2073.388672"/>
      <use xlink:href="#ArialMT-5d" x="2123.388672"/>
     </g>
    </g>
   </g>
   <g id="matplotlib.axis_2">
    <g id="ytick_1">
     <g id="line2d_7">
      <defs>
       <path id="m8e44cfb87e" d="M 0 0 
L -3.5 0 
" style="stroke: #000000; stroke-width: 0.25"/>
      </defs>
      <g>
       <use xlink:href="#m8e44cfb87e" x="25.36" y="78.123234" style="stroke: #000000; stroke-width: 0.25"/>
      </g>
     </g>
     <g id="text_8">
      <!-- −2 -->
      <g transform="translate(15.159219 79.912687) scale(0.05 -0.05)">
       <defs>
        <path id="ArialMT-2212" d="M 3381 1997 
L 356 1997 
L 356 2522 
L 3381 2522 
L 3381 1997 
z
" transform="scale(0.015625)"/>
       </defs>
       <use xlink:href="#ArialMT-2212"/>
       <use xlink:href="#ArialMT-32" x="58.398438"/>
      </g>
     </g>
    </g>
    <g id="ytick_2">
     <g id="line2d_8">
      <g>
       <use xlink:href="#m8e44cfb87e" x="25.36" y="61.435602" style="stroke: #000000; stroke-width: 0.25"/>
      </g>
     </g>
     <g id="text_9">
      <!-- −1 -->
      <g transform="translate(15.159219 63.225055) scale(0.05 -0.05)">
       <use xlink:href="#ArialMT-2212"/>
       <use xlink:href="#ArialMT-31" x="58.398438"/>
      </g>
     </g>
    </g>
    <g id="ytick_3">
     <g id="line2d_9">
      <g>
       <use xlink:href="#m8e44cfb87e" x="25.36" y="44.747971" style="stroke: #000000; stroke-width: 0.25"/>
      </g>
     </g>
     <g id="text_10">
      <!-- 0 -->
      <g transform="translate(18.079531 46.537424) scale(0.05 -0.05)">
       <use xlink:href="#ArialMT-30"/>
      </g>
     </g>
    </g>
    <g id="ytick_4">
     <g id="line2d_10">
      <g>
       <use xlink:href="#m8e44cfb87e" x="25.36" y="28.060339" style="stroke: #000000; stroke-width: 0.25"/>
      </g>
     </g>
     <g id="text_11">
      <!-- 1 -->
      <g transform="translate(18.079531 29.849792) scale(0.05 -0.05)">
       <use xlink:href="#ArialMT-31"/>
      </g>
     </g>
    </g>
    <g id="ytick_5">
     <g id="line2d_11">
      <g>
       <use xlink:href="#m8e44cfb87e" x="25.36" y="11.372708" style="stroke: #000000; stroke-width: 0.25"/>
      </g>
     </g>
     <g id="text_12">
      <!-- 2 -->
      <g transform="translate(18.079531 13.162161) scale(0.05 -0.05)">
       <use xlink:href="#ArialMT-32"/>
      </g>
     </g>
    </g>
    <g id="text_13">
     <!-- SA PC1 [a.u.] -->
     <g transform="translate(9.966719 65.319476) rotate(-90) scale(0.06 -0.06)">
      <defs>
       <path id="ArialMT-53" d="M 288 1472 
L 859 1522 
Q 900 1178 1048 958 
Q 1197 738 1509 602 
Q 1822 466 2213 466 
Q 2559 466 2825 569 
Q 3091 672 3220 851 
Q 3350 1031 3350 1244 
Q 3350 1459 3225 1620 
Q 3100 1781 2813 1891 
Q 2628 1963 1997 2114 
Q 1366 2266 1113 2400 
Q 784 2572 623 2826 
Q 463 3081 463 3397 
Q 463 3744 659 4045 
Q 856 4347 1234 4503 
Q 1613 4659 2075 4659 
Q 2584 4659 2973 4495 
Q 3363 4331 3572 4012 
Q 3781 3694 3797 3291 
L 3216 3247 
Q 3169 3681 2898 3903 
Q 2628 4125 2100 4125 
Q 1550 4125 1298 3923 
Q 1047 3722 1047 3438 
Q 1047 3191 1225 3031 
Q 1400 2872 2139 2705 
Q 2878 2538 3153 2413 
Q 3553 2228 3743 1945 
Q 3934 1663 3934 1294 
Q 3934 928 3725 604 
Q 3516 281 3123 101 
Q 2731 -78 2241 -78 
Q 1619 -78 1198 103 
Q 778 284 539 648 
Q 300 1013 288 1472 
z
" transform="scale(0.015625)"/>
       <path id="ArialMT-50" d="M 494 0 
L 494 4581 
L 2222 4581 
Q 2678 4581 2919 4538 
Q 3256 4481 3484 4323 
Q 3713 4166 3852 3881 
Q 3991 3597 3991 3256 
Q 3991 2672 3619 2267 
Q 3247 1863 2275 1863 
L 1100 1863 
L 1100 0 
L 494 0 
z
M 1100 2403 
L 2284 2403 
Q 2872 2403 3119 2622 
Q 3366 2841 3366 3238 
Q 3366 3525 3220 3729 
Q 3075 3934 2838 4000 
Q 2684 4041 2272 4041 
L 1100 4041 
L 1100 2403 
z
" transform="scale(0.015625)"/>
       <path id="ArialMT-43" d="M 3763 1606 
L 4369 1453 
Q 4178 706 3683 314 
Q 3188 -78 2472 -78 
Q 1731 -78 1267 223 
Q 803 525 561 1097 
Q 319 1669 319 2325 
Q 319 3041 592 3573 
Q 866 4106 1370 4382 
Q 1875 4659 2481 4659 
Q 3169 4659 3637 4309 
Q 4106 3959 4291 3325 
L 3694 3184 
Q 3534 3684 3231 3912 
Q 2928 4141 2469 4141 
Q 1941 4141 1586 3887 
Q 1231 3634 1087 3207 
Q 944 2781 944 2328 
Q 944 1744 1114 1308 
Q 1284 872 1643 656 
Q 2003 441 2422 441 
Q 2931 441 3284 734 
Q 3638 1028 3763 1606 
z
" transform="scale(0.015625)"/>
       <path id="ArialMT-2e" d="M 581 0 
L 581 641 
L 1222 641 
L 1222 0 
L 581 0 
z
" transform="scale(0.015625)"/>
      </defs>
      <use xlink:href="#ArialMT-53"/>
      <use xlink:href="#ArialMT-41" x="66.699219"/>
      <use xlink:href="#ArialMT-20" x="127.898438"/>
      <use xlink:href="#ArialMT-50" x="155.681641"/>
      <use xlink:href="#ArialMT-43" x="222.380859"/>
      <use xlink:href="#ArialMT-31" x="294.597656"/>
      <use xlink:href="#ArialMT-20" x="350.212891"/>
      <use xlink:href="#ArialMT-5b" x="377.996094"/>
      <use xlink:href="#ArialMT-61" x="405.779297"/>
      <use xlink:href="#ArialMT-2e" x="461.394531"/>
      <use xlink:href="#ArialMT-75" x="489.177734"/>
      <use xlink:href="#ArialMT-2e" x="544.792969"/>
      <use xlink:href="#ArialMT-5d" x="572.576172"/>
     </g>
    </g>
   </g>
   <g id="line2d_12">
    <path d="M 31.048432 58.654696 
L 32.197611 58.608124 
L 33.346789 58.561552 
L 34.495967 58.51498 
L 35.645145 58.468408 
L 36.794324 58.421836 
L 37.943502 58.375263 
L 39.09268 58.328691 
L 40.241858 58.282119 
L 41.391037 58.235547 
L 42.540215 58.188975 
L 43.689393 58.142403 
L 44.838571 58.09583 
L 45.98775 58.049258 
L 47.136928 58.002686 
L 48.286106 57.956114 
L 49.435284 57.909542 
L 50.584463 57.86297 
L 51.733641 57.816398 
L 52.882819 57.769825 
L 54.031997 57.723253 
L 55.181176 57.676681 
L 56.330354 57.630109 
L 57.479532 57.583537 
L 58.62871 57.536965 
L 59.777889 57.490392 
L 60.927067 57.44382 
L 62.076245 57.397248 
L 63.225423 57.350676 
L 64.374602 57.304104 
L 65.52378 57.257532 
L 66.672958 57.210959 
L 67.822136 57.164387 
L 68.971315 57.117815 
L 70.120493 57.071243 
L 71.269671 57.024671 
L 72.418849 56.978099 
L 73.568028 56.931526 
L 74.717206 56.884954 
L 75.866384 56.838382 
L 77.015562 56.79181 
L 78.164741 56.745238 
L 79.313919 56.698666 
L 80.463097 56.652094 
L 81.612276 56.605521 
L 82.761454 56.558949 
L 83.910632 56.512377 
L 85.05981 56.465805 
L 86.208989 56.419233 
L 87.358167 56.372661 
L 88.507345 56.326088 
L 89.656523 56.279516 
L 90.805702 56.232944 
L 91.95488 56.186372 
L 93.104058 56.1398 
L 94.253236 56.093228 
L 95.402415 56.046655 
L 96.551593 56.000083 
L 97.700771 55.953511 
L 98.849949 55.906939 
L 99.999128 55.860367 
L 101.148306 55.813795 
L 102.297484 55.767223 
L 103.446662 55.72065 
L 104.595841 55.674078 
L 105.745019 55.627506 
L 106.894197 55.580934 
L 108.043375 55.534362 
L 109.192554 55.48779 
L 110.341732 55.441217 
L 111.49091 55.394645 
L 112.640088 55.348073 
L 113.789267 55.301501 
L 114.938445 55.254929 
L 116.087623 55.208357 
L 117.236801 55.161784 
L 118.38598 55.115212 
L 119.535158 55.06864 
L 120.684336 55.022068 
L 121.833514 54.975496 
L 122.982693 54.928924 
L 124.131871 54.882352 
L 125.281049 54.835779 
L 126.430227 54.789207 
L 127.579406 54.742635 
L 128.728584 54.696063 
L 129.877762 54.649491 
L 131.02694 54.602919 
L 132.176119 54.556346 
L 133.325297 54.509774 
L 134.474475 54.463202 
L 135.623653 54.41663 
L 136.772832 54.370058 
L 137.92201 54.323486 
L 139.071188 54.276913 
L 140.220366 54.230341 
L 141.369545 54.183769 
L 142.518723 54.137197 
L 143.667901 54.090625 
L 144.817079 54.044053 
" clip-path="url(#p8dc3b39490)" style="fill: none; stroke: #ff8c00; stroke-width: 0.75; stroke-linecap: square"/>
   </g>
   <g id="patch_3">
    <path d="M 25.36 89.218327 
L 25.36 5.4 
" style="fill: none; stroke: #000000; stroke-width: 0.25; stroke-linejoin: miter; stroke-linecap: square"/>
   </g>
   <g id="patch_4">
    <path d="M 25.36 89.218327 
L 150.505512 89.218327 
" style="fill: none; stroke: #000000; stroke-width: 0.25; stroke-linejoin: miter; stroke-linecap: square"/>
   </g>
   <g id="text_14">
    <g id="patch_5">
     <path d="M 29.114365 18.699023 
L 52.764365 18.699023 
Q 54.264365 18.699023 54.264365 17.199023 
L 54.264365 7.132617 
Q 54.264365 5.632617 52.764365 5.632617 
L 29.114365 5.632617 
Q 27.614365 5.632617 27.614365 7.132617 
L 27.614365 17.199023 
Q 27.614365 18.699023 29.114365 18.699023 
z
" style="fill: #c0c0c0; opacity: 0.4; stroke: #c0c0c0; stroke-linejoin: miter"/>
    </g>
    <!-- $r=0.076$ -->
    <g transform="translate(29.114365 10.655273) scale(0.05 -0.05)">
     <defs>
      <path id="DejaVuSans-Oblique-72" d="M 2853 2969 
Q 2766 3016 2653 3041 
Q 2541 3066 2413 3066 
Q 1953 3066 1609 2717 
Q 1266 2369 1153 1784 
L 800 0 
L 225 0 
L 909 3500 
L 1484 3500 
L 1375 2956 
Q 1603 3259 1920 3421 
Q 2238 3584 2597 3584 
Q 2691 3584 2781 3573 
Q 2872 3563 2963 3538 
L 2853 2969 
z
" transform="scale(0.015625)"/>
      <path id="DejaVuSans-3d" d="M 678 2906 
L 4684 2906 
L 4684 2381 
L 678 2381 
L 678 2906 
z
M 678 1631 
L 4684 1631 
L 4684 1100 
L 678 1100 
L 678 1631 
z
" transform="scale(0.015625)"/>
      <path id="DejaVuSans-30" d="M 2034 4250 
Q 1547 4250 1301 3770 
Q 1056 3291 1056 2328 
Q 1056 1369 1301 889 
Q 1547 409 2034 409 
Q 2525 409 2770 889 
Q 3016 1369 3016 2328 
Q 3016 3291 2770 3770 
Q 2525 4250 2034 4250 
z
M 2034 4750 
Q 2819 4750 3233 4129 
Q 3647 3509 3647 2328 
Q 3647 1150 3233 529 
Q 2819 -91 2034 -91 
Q 1250 -91 836 529 
Q 422 1150 422 2328 
Q 422 3509 836 4129 
Q 1250 4750 2034 4750 
z
" transform="scale(0.015625)"/>
      <path id="DejaVuSans-2e" d="M 684 794 
L 1344 794 
L 1344 0 
L 684 0 
L 684 794 
z
" transform="scale(0.015625)"/>
      <path id="DejaVuSans-37" d="M 525 4666 
L 3525 4666 
L 3525 4397 
L 1831 0 
L 1172 0 
L 2766 4134 
L 525 4134 
L 525 4666 
z
" transform="scale(0.015625)"/>
      <path id="DejaVuSans-36" d="M 2113 2584 
Q 1688 2584 1439 2293 
Q 1191 2003 1191 1497 
Q 1191 994 1439 701 
Q 1688 409 2113 409 
Q 2538 409 2786 701 
Q 3034 994 3034 1497 
Q 3034 2003 2786 2293 
Q 2538 2584 2113 2584 
z
M 3366 4563 
L 3366 3988 
Q 3128 4100 2886 4159 
Q 2644 4219 2406 4219 
Q 1781 4219 1451 3797 
Q 1122 3375 1075 2522 
Q 1259 2794 1537 2939 
Q 1816 3084 2150 3084 
Q 2853 3084 3261 2657 
Q 3669 2231 3669 1497 
Q 3669 778 3244 343 
Q 2819 -91 2113 -91 
Q 1303 -91 875 529 
Q 447 1150 447 2328 
Q 447 3434 972 4092 
Q 1497 4750 2381 4750 
Q 2619 4750 2861 4703 
Q 3103 4656 3366 4563 
z
" transform="scale(0.015625)"/>
     </defs>
     <use xlink:href="#DejaVuSans-Oblique-72" transform="translate(0 0.78125)"/>
     <use xlink:href="#DejaVuSans-3d" transform="translate(60.595703 0.78125)"/>
     <use xlink:href="#DejaVuSans-30" transform="translate(163.867188 0.78125)"/>
     <use xlink:href="#DejaVuSans-2e" transform="translate(227.490234 0.78125)"/>
     <use xlink:href="#DejaVuSans-30" transform="translate(259.277344 0.78125)"/>
     <use xlink:href="#DejaVuSans-37" transform="translate(322.900391 0.78125)"/>
     <use xlink:href="#DejaVuSans-36" transform="translate(386.523438 0.78125)"/>
    </g>
    <!-- $p=0.340$ -->
    <g transform="translate(29.114365 16.149023) scale(0.05 -0.05)">
     <defs>
      <path id="DejaVuSans-Oblique-70" d="M 3175 2156 
Q 3175 2616 2975 2859 
Q 2775 3103 2400 3103 
Q 2144 3103 1911 2972 
Q 1678 2841 1497 2591 
Q 1319 2344 1212 1994 
Q 1106 1644 1106 1300 
Q 1106 863 1306 627 
Q 1506 391 1875 391 
Q 2147 391 2380 519 
Q 2613 647 2778 891 
Q 2956 1147 3065 1494 
Q 3175 1841 3175 2156 
z
M 1394 2969 
Q 1625 3272 1939 3428 
Q 2253 3584 2638 3584 
Q 3175 3584 3472 3232 
Q 3769 2881 3769 2247 
Q 3769 1728 3584 1258 
Q 3400 788 3053 416 
Q 2822 169 2531 39 
Q 2241 -91 1919 -91 
Q 1547 -91 1294 64 
Q 1041 219 916 525 
L 556 -1331 
L -19 -1331 
L 922 3500 
L 1497 3500 
L 1394 2969 
z
" transform="scale(0.015625)"/>
      <path id="DejaVuSans-33" d="M 2597 2516 
Q 3050 2419 3304 2112 
Q 3559 1806 3559 1356 
Q 3559 666 3084 287 
Q 2609 -91 1734 -91 
Q 1441 -91 1130 -33 
Q 819 25 488 141 
L 488 750 
Q 750 597 1062 519 
Q 1375 441 1716 441 
Q 2309 441 2620 675 
Q 2931 909 2931 1356 
Q 2931 1769 2642 2001 
Q 2353 2234 1838 2234 
L 1294 2234 
L 1294 2753 
L 1863 2753 
Q 2328 2753 2575 2939 
Q 2822 3125 2822 3475 
Q 2822 3834 2567 4026 
Q 2313 4219 1838 4219 
Q 1578 4219 1281 4162 
Q 984 4106 628 3988 
L 628 4550 
Q 988 4650 1302 4700 
Q 1616 4750 1894 4750 
Q 2613 4750 3031 4423 
Q 3450 4097 3450 3541 
Q 3450 3153 3228 2886 
Q 3006 2619 2597 2516 
z
" transform="scale(0.015625)"/>
      <path id="DejaVuSans-34" d="M 2419 4116 
L 825 1625 
L 2419 1625 
L 2419 4116 
z
M 2253 4666 
L 3047 4666 
L 3047 1625 
L 3713 1625 
L 3713 1100 
L 3047 1100 
L 3047 0 
L 2419 0 
L 2419 1100 
L 313 1100 
L 313 1709 
L 2253 4666 
z
" transform="scale(0.015625)"/>
     </defs>
     <use xlink:href="#DejaVuSans-Oblique-70" transform="translate(0 0.78125)"/>
     <use xlink:href="#DejaVuSans-3d" transform="translate(82.958984 0.78125)"/>
     <use xlink:href="#DejaVuSans-30" transform="translate(186.230469 0.78125)"/>
     <use xlink:href="#DejaVuSans-2e" transform="translate(249.853516 0.78125)"/>
     <use xlink:href="#DejaVuSans-33" transform="translate(281.640625 0.78125)"/>
     <use xlink:href="#DejaVuSans-34" transform="translate(345.263672 0.78125)"/>
     <use xlink:href="#DejaVuSans-30" transform="translate(408.886719 0.78125)"/>
    </g>
   </g>
  </g>
 </g>
 <defs>
  <clipPath id="p8dc3b39490">
   <rect x="25.36" y="5.4" width="125.145512" height="83.818327"/>
  </clipPath>
 </defs>
</svg>
