<?xml version="1.0" encoding="utf-8" standalone="no"?>
<!DOCTYPE svg PUBLIC "-//W3C//DTD SVG 1.1//EN"
  "http://www.w3.org/Graphics/SVG/1.1/DTD/svg11.dtd">
<svg xmlns:xlink="http://www.w3.org/1999/xlink" width="245.629844pt" height="255.719844pt" viewBox="0 0 245.629844 255.719844" xmlns="http://www.w3.org/2000/svg" version="1.1">
 <metadata>
  <rdf:RDF xmlns:dc="http://purl.org/dc/elements/1.1/" xmlns:cc="http://creativecommons.org/ns#" xmlns:rdf="http://www.w3.org/1999/02/22-rdf-syntax-ns#">
   <cc:Work>
    <dc:type rdf:resource="http://purl.org/dc/dcmitype/StillImage"/>
    <dc:date>2025-08-06T16:31:03.570145</dc:date>
    <dc:format>image/svg+xml</dc:format>
    <dc:creator>
     <cc:Agent>
      <dc:title>Matplotlib v3.9.2, https://matplotlib.org/</dc:title>
     </cc:Agent>
    </dc:creator>
   </cc:Work>
  </rdf:RDF>
 </metadata>
 <defs>
  <style type="text/css">*{stroke-linejoin: round; stroke-linecap: butt}</style>
 </defs>
 <g id="figure_1">
  <g id="patch_1">
   <path d="M 0 255.719844 
L 245.629844 255.719844 
L 245.629844 0 
L 0 0 
z
" style="fill: #ffffff"/>
  </g>
  <g id="axes_1">
   <g id="patch_2">
    <path d="M 71.029844 228.96 
L 238.429844 228.96 
L 238.429844 7.2 
L 71.029844 7.2 
z
" style="fill: #ffffff"/>
   </g>
   <g id="matplotlib.axis_1">
    <g id="xtick_1">
     <g id="text_1">
      <!-- Term -->
      <g style="fill: #262626" transform="translate(100.238523 246.333594) scale(0.11 -0.11)">
       <defs>
        <path id="ArialMT-54" d="M 1659 0 
L 1659 4041 
L 150 4041 
L 150 4581 
L 3781 4581 
L 3781 4041 
L 2266 4041 
L 2266 0 
L 1659 0 
z
" transform="scale(0.015625)"/>
        <path id="ArialMT-65" d="M 2694 1069 
L 3275 997 
Q 3138 488 2766 206 
Q 2394 -75 1816 -75 
Q 1088 -75 661 373 
Q 234 822 234 1631 
Q 234 2469 665 2931 
Q 1097 3394 1784 3394 
Q 2450 3394 2872 2941 
Q 3294 2488 3294 1666 
Q 3294 1616 3291 1516 
L 816 1516 
Q 847 969 1125 678 
Q 1403 388 1819 388 
Q 2128 388 2347 550 
Q 2566 713 2694 1069 
z
M 847 1978 
L 2700 1978 
Q 2663 2397 2488 2606 
Q 2219 2931 1791 2931 
Q 1403 2931 1139 2672 
Q 875 2413 847 1978 
z
" transform="scale(0.015625)"/>
        <path id="ArialMT-72" d="M 416 0 
L 416 3319 
L 922 3319 
L 922 2816 
Q 1116 3169 1280 3281 
Q 1444 3394 1641 3394 
Q 1925 3394 2219 3213 
L 2025 2691 
Q 1819 2813 1613 2813 
Q 1428 2813 1281 2702 
Q 1134 2591 1072 2394 
Q 978 2094 978 1738 
L 978 0 
L 416 0 
z
" transform="scale(0.015625)"/>
        <path id="ArialMT-6d" d="M 422 0 
L 422 3319 
L 925 3319 
L 925 2853 
Q 1081 3097 1340 3245 
Q 1600 3394 1931 3394 
Q 2300 3394 2536 3241 
Q 2772 3088 2869 2813 
Q 3263 3394 3894 3394 
Q 4388 3394 4653 3120 
Q 4919 2847 4919 2278 
L 4919 0 
L 4359 0 
L 4359 2091 
Q 4359 2428 4304 2576 
Q 4250 2725 4106 2815 
Q 3963 2906 3769 2906 
Q 3419 2906 3187 2673 
Q 2956 2441 2956 1928 
L 2956 0 
L 2394 0 
L 2394 2156 
Q 2394 2531 2256 2718 
Q 2119 2906 1806 2906 
Q 1569 2906 1367 2781 
Q 1166 2656 1075 2415 
Q 984 2175 984 1722 
L 984 0 
L 422 0 
z
" transform="scale(0.015625)"/>
       </defs>
       <use xlink:href="#ArialMT-54"/>
       <use xlink:href="#ArialMT-65" x="49.958984"/>
       <use xlink:href="#ArialMT-72" x="105.574219"/>
       <use xlink:href="#ArialMT-6d" x="138.875"/>
      </g>
     </g>
    </g>
    <g id="xtick_2">
     <g id="text_2">
      <!-- Preterm -->
      <g style="fill: #262626" transform="translate(177.444915 246.333594) scale(0.11 -0.11)">
       <defs>
        <path id="ArialMT-50" d="M 494 0 
L 494 4581 
L 2222 4581 
Q 2678 4581 2919 4538 
Q 3256 4481 3484 4323 
Q 3713 4166 3852 3881 
Q 3991 3597 3991 3256 
Q 3991 2672 3619 2267 
Q 3247 1863 2275 1863 
L 1100 1863 
L 1100 0 
L 494 0 
z
M 1100 2403 
L 2284 2403 
Q 2872 2403 3119 2622 
Q 3366 2841 3366 3238 
Q 3366 3525 3220 3729 
Q 3075 3934 2838 4000 
Q 2684 4041 2272 4041 
L 1100 4041 
L 1100 2403 
z
" transform="scale(0.015625)"/>
        <path id="ArialMT-74" d="M 1650 503 
L 1731 6 
Q 1494 -44 1306 -44 
Q 1000 -44 831 53 
Q 663 150 594 308 
Q 525 466 525 972 
L 525 2881 
L 113 2881 
L 113 3319 
L 525 3319 
L 525 4141 
L 1084 4478 
L 1084 3319 
L 1650 3319 
L 1650 2881 
L 1084 2881 
L 1084 941 
Q 1084 700 1114 631 
Q 1144 563 1211 522 
Q 1278 481 1403 481 
Q 1497 481 1650 503 
z
" transform="scale(0.015625)"/>
       </defs>
       <use xlink:href="#ArialMT-50"/>
       <use xlink:href="#ArialMT-72" x="66.699219"/>
       <use xlink:href="#ArialMT-65" x="100"/>
       <use xlink:href="#ArialMT-74" x="155.615234"/>
       <use xlink:href="#ArialMT-65" x="183.398438"/>
       <use xlink:href="#ArialMT-72" x="239.013672"/>
       <use xlink:href="#ArialMT-6d" x="272.314453"/>
      </g>
     </g>
    </g>
   </g>
   <g id="matplotlib.axis_2">
    <g id="ytick_1">
     <g id="text_3">
      <!-- −20000 -->
      <g style="fill: #262626" transform="translate(24.52 231.339943) scale(0.11 -0.11)">
       <defs>
        <path id="ArialMT-2212" d="M 3381 1997 
L 356 1997 
L 356 2522 
L 3381 2522 
L 3381 1997 
z
" transform="scale(0.015625)"/>
        <path id="ArialMT-32" d="M 3222 541 
L 3222 0 
L 194 0 
Q 188 203 259 391 
Q 375 700 629 1000 
Q 884 1300 1366 1694 
Q 2113 2306 2375 2664 
Q 2638 3022 2638 3341 
Q 2638 3675 2398 3904 
Q 2159 4134 1775 4134 
Q 1369 4134 1125 3890 
Q 881 3647 878 3216 
L 300 3275 
Q 359 3922 746 4261 
Q 1134 4600 1788 4600 
Q 2447 4600 2831 4234 
Q 3216 3869 3216 3328 
Q 3216 3053 3103 2787 
Q 2991 2522 2730 2228 
Q 2469 1934 1863 1422 
Q 1356 997 1212 845 
Q 1069 694 975 541 
L 3222 541 
z
" transform="scale(0.015625)"/>
        <path id="ArialMT-30" d="M 266 2259 
Q 266 3072 433 3567 
Q 600 4063 929 4331 
Q 1259 4600 1759 4600 
Q 2128 4600 2406 4451 
Q 2684 4303 2865 4023 
Q 3047 3744 3150 3342 
Q 3253 2941 3253 2259 
Q 3253 1453 3087 958 
Q 2922 463 2592 192 
Q 2263 -78 1759 -78 
Q 1097 -78 719 397 
Q 266 969 266 2259 
z
M 844 2259 
Q 844 1131 1108 757 
Q 1372 384 1759 384 
Q 2147 384 2411 759 
Q 2675 1134 2675 2259 
Q 2675 3391 2411 3762 
Q 2147 4134 1753 4134 
Q 1366 4134 1134 3806 
Q 844 3388 844 2259 
z
" transform="scale(0.015625)"/>
       </defs>
       <use xlink:href="#ArialMT-2212"/>
       <use xlink:href="#ArialMT-32" x="58.398438"/>
       <use xlink:href="#ArialMT-30" x="114.013672"/>
       <use xlink:href="#ArialMT-30" x="169.628906"/>
       <use xlink:href="#ArialMT-30" x="225.244141"/>
       <use xlink:href="#ArialMT-30" x="280.859375"/>
      </g>
     </g>
    </g>
    <g id="ytick_2">
     <g id="text_4">
      <!-- −15000 -->
      <g style="fill: #262626" transform="translate(24.52 202.766417) scale(0.11 -0.11)">
       <defs>
        <path id="ArialMT-31" d="M 2384 0 
L 1822 0 
L 1822 3584 
Q 1619 3391 1289 3197 
Q 959 3003 697 2906 
L 697 3450 
Q 1169 3672 1522 3987 
Q 1875 4303 2022 4600 
L 2384 4600 
L 2384 0 
z
" transform="scale(0.015625)"/>
        <path id="ArialMT-35" d="M 266 1200 
L 856 1250 
Q 922 819 1161 601 
Q 1400 384 1738 384 
Q 2144 384 2425 690 
Q 2706 997 2706 1503 
Q 2706 1984 2436 2262 
Q 2166 2541 1728 2541 
Q 1456 2541 1237 2417 
Q 1019 2294 894 2097 
L 366 2166 
L 809 4519 
L 3088 4519 
L 3088 3981 
L 1259 3981 
L 1013 2750 
Q 1425 3038 1878 3038 
Q 2478 3038 2890 2622 
Q 3303 2206 3303 1553 
Q 3303 931 2941 478 
Q 2500 -78 1738 -78 
Q 1113 -78 717 272 
Q 322 622 266 1200 
z
" transform="scale(0.015625)"/>
       </defs>
       <use xlink:href="#ArialMT-2212"/>
       <use xlink:href="#ArialMT-31" x="58.398438"/>
       <use xlink:href="#ArialMT-35" x="114.013672"/>
       <use xlink:href="#ArialMT-30" x="169.628906"/>
       <use xlink:href="#ArialMT-30" x="225.244141"/>
       <use xlink:href="#ArialMT-30" x="280.859375"/>
      </g>
     </g>
    </g>
    <g id="ytick_3">
     <g id="text_5">
      <!-- −10000 -->
      <g style="fill: #262626" transform="translate(24.52 174.192891) scale(0.11 -0.11)">
       <use xlink:href="#ArialMT-2212"/>
       <use xlink:href="#ArialMT-31" x="58.398438"/>
       <use xlink:href="#ArialMT-30" x="114.013672"/>
       <use xlink:href="#ArialMT-30" x="169.628906"/>
       <use xlink:href="#ArialMT-30" x="225.244141"/>
       <use xlink:href="#ArialMT-30" x="280.859375"/>
      </g>
     </g>
    </g>
    <g id="ytick_4">
     <g id="text_6">
      <!-- −5000 -->
      <g style="fill: #262626" transform="translate(30.637031 145.619364) scale(0.11 -0.11)">
       <use xlink:href="#ArialMT-2212"/>
       <use xlink:href="#ArialMT-35" x="58.398438"/>
       <use xlink:href="#ArialMT-30" x="114.013672"/>
       <use xlink:href="#ArialMT-30" x="169.628906"/>
       <use xlink:href="#ArialMT-30" x="225.244141"/>
      </g>
     </g>
    </g>
    <g id="ytick_5">
     <g id="text_7">
      <!-- 0 -->
      <g style="fill: #262626" transform="translate(55.412813 117.045838) scale(0.11 -0.11)">
       <use xlink:href="#ArialMT-30"/>
      </g>
     </g>
    </g>
    <g id="ytick_6">
     <g id="text_8">
      <!-- 5000 -->
      <g style="fill: #262626" transform="translate(37.061719 88.472311) scale(0.11 -0.11)">
       <use xlink:href="#ArialMT-35"/>
       <use xlink:href="#ArialMT-30" x="55.615234"/>
       <use xlink:href="#ArialMT-30" x="111.230469"/>
       <use xlink:href="#ArialMT-30" x="166.845703"/>
      </g>
     </g>
    </g>
    <g id="ytick_7">
     <g id="text_9">
      <!-- 10000 -->
      <g style="fill: #262626" transform="translate(30.944687 59.898785) scale(0.11 -0.11)">
       <use xlink:href="#ArialMT-31"/>
       <use xlink:href="#ArialMT-30" x="55.615234"/>
       <use xlink:href="#ArialMT-30" x="111.230469"/>
       <use xlink:href="#ArialMT-30" x="166.845703"/>
       <use xlink:href="#ArialMT-30" x="222.460938"/>
      </g>
     </g>
    </g>
    <g id="ytick_8">
     <g id="text_10">
      <!-- 15000 -->
      <g style="fill: #262626" transform="translate(30.944687 31.325259) scale(0.11 -0.11)">
       <use xlink:href="#ArialMT-31"/>
       <use xlink:href="#ArialMT-35" x="55.615234"/>
       <use xlink:href="#ArialMT-30" x="111.230469"/>
       <use xlink:href="#ArialMT-30" x="166.845703"/>
       <use xlink:href="#ArialMT-30" x="222.460938"/>
      </g>
     </g>
    </g>
    <g id="text_11">
     <!-- sGMV residuals [mm$^3$] -->
     <g style="fill: #262626" transform="translate(18.12 178.32) rotate(-90) scale(0.12 -0.12)">
      <defs>
       <path id="ArialMT-73" d="M 197 991 
L 753 1078 
Q 800 744 1014 566 
Q 1228 388 1613 388 
Q 2000 388 2187 545 
Q 2375 703 2375 916 
Q 2375 1106 2209 1216 
Q 2094 1291 1634 1406 
Q 1016 1563 777 1677 
Q 538 1791 414 1992 
Q 291 2194 291 2438 
Q 291 2659 392 2848 
Q 494 3038 669 3163 
Q 800 3259 1026 3326 
Q 1253 3394 1513 3394 
Q 1903 3394 2198 3281 
Q 2494 3169 2634 2976 
Q 2775 2784 2828 2463 
L 2278 2388 
Q 2241 2644 2061 2787 
Q 1881 2931 1553 2931 
Q 1166 2931 1000 2803 
Q 834 2675 834 2503 
Q 834 2394 903 2306 
Q 972 2216 1119 2156 
Q 1203 2125 1616 2013 
Q 2213 1853 2448 1751 
Q 2684 1650 2818 1456 
Q 2953 1263 2953 975 
Q 2953 694 2789 445 
Q 2625 197 2315 61 
Q 2006 -75 1616 -75 
Q 969 -75 630 194 
Q 291 463 197 991 
z
" transform="scale(0.015625)"/>
       <path id="ArialMT-47" d="M 2638 1797 
L 2638 2334 
L 4578 2338 
L 4578 638 
Q 4131 281 3656 101 
Q 3181 -78 2681 -78 
Q 2006 -78 1454 211 
Q 903 500 622 1047 
Q 341 1594 341 2269 
Q 341 2938 620 3517 
Q 900 4097 1425 4378 
Q 1950 4659 2634 4659 
Q 3131 4659 3532 4498 
Q 3934 4338 4162 4050 
Q 4391 3763 4509 3300 
L 3963 3150 
Q 3859 3500 3706 3700 
Q 3553 3900 3268 4020 
Q 2984 4141 2638 4141 
Q 2222 4141 1919 4014 
Q 1616 3888 1430 3681 
Q 1244 3475 1141 3228 
Q 966 2803 966 2306 
Q 966 1694 1177 1281 
Q 1388 869 1791 669 
Q 2194 469 2647 469 
Q 3041 469 3416 620 
Q 3791 772 3984 944 
L 3984 1797 
L 2638 1797 
z
" transform="scale(0.015625)"/>
       <path id="ArialMT-4d" d="M 475 0 
L 475 4581 
L 1388 4581 
L 2472 1338 
Q 2622 884 2691 659 
Q 2769 909 2934 1394 
L 4031 4581 
L 4847 4581 
L 4847 0 
L 4263 0 
L 4263 3834 
L 2931 0 
L 2384 0 
L 1059 3900 
L 1059 0 
L 475 0 
z
" transform="scale(0.015625)"/>
       <path id="ArialMT-56" d="M 1803 0 
L 28 4581 
L 684 4581 
L 1875 1253 
Q 2019 853 2116 503 
Q 2222 878 2363 1253 
L 3600 4581 
L 4219 4581 
L 2425 0 
L 1803 0 
z
" transform="scale(0.015625)"/>
       <path id="ArialMT-20" transform="scale(0.015625)"/>
       <path id="ArialMT-69" d="M 425 3934 
L 425 4581 
L 988 4581 
L 988 3934 
L 425 3934 
z
M 425 0 
L 425 3319 
L 988 3319 
L 988 0 
L 425 0 
z
" transform="scale(0.015625)"/>
       <path id="ArialMT-64" d="M 2575 0 
L 2575 419 
Q 2259 -75 1647 -75 
Q 1250 -75 917 144 
Q 584 363 401 755 
Q 219 1147 219 1656 
Q 219 2153 384 2558 
Q 550 2963 881 3178 
Q 1213 3394 1622 3394 
Q 1922 3394 2156 3267 
Q 2391 3141 2538 2938 
L 2538 4581 
L 3097 4581 
L 3097 0 
L 2575 0 
z
M 797 1656 
Q 797 1019 1065 703 
Q 1334 388 1700 388 
Q 2069 388 2326 689 
Q 2584 991 2584 1609 
Q 2584 2291 2321 2609 
Q 2059 2928 1675 2928 
Q 1300 2928 1048 2622 
Q 797 2316 797 1656 
z
" transform="scale(0.015625)"/>
       <path id="ArialMT-75" d="M 2597 0 
L 2597 488 
Q 2209 -75 1544 -75 
Q 1250 -75 995 37 
Q 741 150 617 320 
Q 494 491 444 738 
Q 409 903 409 1263 
L 409 3319 
L 972 3319 
L 972 1478 
Q 972 1038 1006 884 
Q 1059 663 1231 536 
Q 1403 409 1656 409 
Q 1909 409 2131 539 
Q 2353 669 2445 892 
Q 2538 1116 2538 1541 
L 2538 3319 
L 3100 3319 
L 3100 0 
L 2597 0 
z
" transform="scale(0.015625)"/>
       <path id="ArialMT-61" d="M 2588 409 
Q 2275 144 1986 34 
Q 1697 -75 1366 -75 
Q 819 -75 525 192 
Q 231 459 231 875 
Q 231 1119 342 1320 
Q 453 1522 633 1644 
Q 813 1766 1038 1828 
Q 1203 1872 1538 1913 
Q 2219 1994 2541 2106 
Q 2544 2222 2544 2253 
Q 2544 2597 2384 2738 
Q 2169 2928 1744 2928 
Q 1347 2928 1158 2789 
Q 969 2650 878 2297 
L 328 2372 
Q 403 2725 575 2942 
Q 747 3159 1072 3276 
Q 1397 3394 1825 3394 
Q 2250 3394 2515 3294 
Q 2781 3194 2906 3042 
Q 3031 2891 3081 2659 
Q 3109 2516 3109 2141 
L 3109 1391 
Q 3109 606 3145 398 
Q 3181 191 3288 0 
L 2700 0 
Q 2613 175 2588 409 
z
M 2541 1666 
Q 2234 1541 1622 1453 
Q 1275 1403 1131 1340 
Q 988 1278 909 1158 
Q 831 1038 831 891 
Q 831 666 1001 516 
Q 1172 366 1500 366 
Q 1825 366 2078 508 
Q 2331 650 2450 897 
Q 2541 1088 2541 1459 
L 2541 1666 
z
" transform="scale(0.015625)"/>
       <path id="ArialMT-6c" d="M 409 0 
L 409 4581 
L 972 4581 
L 972 0 
L 409 0 
z
" transform="scale(0.015625)"/>
       <path id="ArialMT-5b" d="M 434 -1272 
L 434 4581 
L 1675 4581 
L 1675 4116 
L 997 4116 
L 997 -806 
L 1675 -806 
L 1675 -1272 
L 434 -1272 
z
" transform="scale(0.015625)"/>
       <path id="DejaVuSans-33" d="M 2597 2516 
Q 3050 2419 3304 2112 
Q 3559 1806 3559 1356 
Q 3559 666 3084 287 
Q 2609 -91 1734 -91 
Q 1441 -91 1130 -33 
Q 819 25 488 141 
L 488 750 
Q 750 597 1062 519 
Q 1375 441 1716 441 
Q 2309 441 2620 675 
Q 2931 909 2931 1356 
Q 2931 1769 2642 2001 
Q 2353 2234 1838 2234 
L 1294 2234 
L 1294 2753 
L 1863 2753 
Q 2328 2753 2575 2939 
Q 2822 3125 2822 3475 
Q 2822 3834 2567 4026 
Q 2313 4219 1838 4219 
Q 1578 4219 1281 4162 
Q 984 4106 628 3988 
L 628 4550 
Q 988 4650 1302 4700 
Q 1616 4750 1894 4750 
Q 2613 4750 3031 4423 
Q 3450 4097 3450 3541 
Q 3450 3153 3228 2886 
Q 3006 2619 2597 2516 
z
" transform="scale(0.015625)"/>
       <path id="ArialMT-5d" d="M 1363 -1272 
L 122 -1272 
L 122 -806 
L 800 -806 
L 800 4116 
L 122 4116 
L 122 4581 
L 1363 4581 
L 1363 -1272 
z
" transform="scale(0.015625)"/>
      </defs>
      <use xlink:href="#ArialMT-73" transform="translate(0 0.765625)"/>
      <use xlink:href="#ArialMT-47" transform="translate(50 0.765625)"/>
      <use xlink:href="#ArialMT-4d" transform="translate(127.783203 0.765625)"/>
      <use xlink:href="#ArialMT-56" transform="translate(211.083984 0.765625)"/>
      <use xlink:href="#ArialMT-20" transform="translate(277.783203 0.765625)"/>
      <use xlink:href="#ArialMT-72" transform="translate(305.566406 0.765625)"/>
      <use xlink:href="#ArialMT-65" transform="translate(338.867188 0.765625)"/>
      <use xlink:href="#ArialMT-73" transform="translate(394.482422 0.765625)"/>
      <use xlink:href="#ArialMT-69" transform="translate(444.482422 0.765625)"/>
      <use xlink:href="#ArialMT-64" transform="translate(466.699219 0.765625)"/>
      <use xlink:href="#ArialMT-75" transform="translate(522.314453 0.765625)"/>
      <use xlink:href="#ArialMT-61" transform="translate(577.929688 0.765625)"/>
      <use xlink:href="#ArialMT-6c" transform="translate(633.544922 0.765625)"/>
      <use xlink:href="#ArialMT-73" transform="translate(655.761719 0.765625)"/>
      <use xlink:href="#ArialMT-20" transform="translate(705.761719 0.765625)"/>
      <use xlink:href="#ArialMT-5b" transform="translate(733.544922 0.765625)"/>
      <use xlink:href="#ArialMT-6d" transform="translate(761.328125 0.765625)"/>
      <use xlink:href="#ArialMT-6d" transform="translate(844.628906 0.765625)"/>
      <use xlink:href="#DejaVuSans-33" transform="translate(928.886719 39.046875) scale(0.7)"/>
      <use xlink:href="#ArialMT-5d" transform="translate(976.157227 0.765625)"/>
     </g>
    </g>
   </g>
   <g id="PolyCollection_1">
    <defs>
     <path id="ma2f38a2c70" d="M 112.57133 -55.549173 
L 112.342903 -55.549173 
L 112.293557 -57.306824 
L 112.231003 -59.064474 
L 112.155316 -60.822124 
L 112.06814 -62.579775 
L 111.97289 -64.337425 
L 111.874657 -66.095076 
L 111.779728 -67.852726 
L 111.694741 -69.610376 
L 111.625587 -71.368027 
L 111.576277 -73.125677 
L 111.548017 -74.883328 
L 111.538739 -76.640978 
L 111.543238 -78.398629 
L 111.553906 -80.156279 
L 111.561939 -81.913929 
L 111.55872 -83.67158 
L 111.537052 -85.42923 
L 111.491944 -87.186881 
L 111.42075 -88.944531 
L 111.322627 -90.702181 
L 111.19746 -92.459832 
L 111.044514 -94.217482 
L 110.861156 -95.975133 
L 110.641971 -97.732783 
L 110.378476 -99.490434 
L 110.059552 -101.248084 
L 109.672498 -103.005734 
L 109.204539 -104.763385 
L 108.644519 -106.521035 
L 107.984483 -108.278686 
L 107.220889 -110.036336 
L 106.355248 -111.793986 
L 105.394087 -113.551637 
L 104.348211 -115.309287 
L 103.231364 -117.066938 
L 102.058449 -118.824588 
L 100.843552 -120.582239 
L 99.598056 -122.339889 
L 98.329154 -124.097539 
L 97.039051 -125.85519 
L 95.725087 -127.61284 
L 94.380922 -129.370491 
L 92.998725 -131.128141 
L 91.572151 -132.885791 
L 90.099659 -134.643442 
L 88.587623 -136.401092 
L 87.052636 -138.158743 
L 85.522499 -139.916393 
L 84.035583 -141.674043 
L 82.638486 -143.431694 
L 81.38214 -145.189344 
L 80.316766 -146.946995 
L 79.486228 -148.704645 
L 78.922531 -150.462296 
L 78.641275 -152.219946 
L 78.638935 -153.977596 
L 78.892637 -155.735247 
L 79.362775 -157.492897 
L 79.998233 -159.250548 
L 80.743431 -161.008198 
L 81.545884 -162.765848 
L 82.362857 -164.523499 
L 83.165853 -166.281149 
L 83.942262 -168.0388 
L 84.694174 -169.79645 
L 85.43498 -171.554101 
L 86.184819 -173.311751 
L 86.965933 -175.069401 
L 87.7988 -176.827052 
L 88.699528 -178.584702 
L 89.678588 -180.342353 
L 90.74066 -182.100003 
L 91.885214 -183.857653 
L 93.107402 -185.615304 
L 94.398913 -187.372954 
L 95.748546 -189.130605 
L 97.142435 -190.888255 
L 98.564002 -192.645905 
L 99.993868 -194.403556 
L 101.410024 -196.161206 
L 102.788538 -197.918857 
L 104.104931 -199.676507 
L 105.336134 -201.434158 
L 106.462698 -203.191808 
L 107.470791 -204.949458 
L 108.353491 -206.707109 
L 109.111068 -208.464759 
L 109.750175 -210.22241 
L 110.282174 -211.98006 
L 110.721034 -213.73771 
L 111.081264 -215.495361 
L 111.376299 -217.253011 
L 111.617564 -219.010662 
L 111.814197 -220.768312 
L 111.9733 -222.525963 
L 112.100457 -224.283613 
L 112.200299 -226.041263 
L 112.276934 -227.798914 
L 112.334198 -229.556564 
L 112.580035 -229.556564 
L 112.580035 -229.556564 
L 112.637299 -227.798914 
L 112.713934 -226.041263 
L 112.813775 -224.283613 
L 112.940933 -222.525963 
L 113.100036 -220.768312 
L 113.296669 -219.010662 
L 113.537934 -217.253011 
L 113.832969 -215.495361 
L 114.193199 -213.73771 
L 114.632059 -211.98006 
L 115.164058 -210.22241 
L 115.803165 -208.464759 
L 116.560742 -206.707109 
L 117.443442 -204.949458 
L 118.451535 -203.191808 
L 119.578099 -201.434158 
L 120.809302 -199.676507 
L 122.125695 -197.918857 
L 123.504209 -196.161206 
L 124.920365 -194.403556 
L 126.350231 -192.645905 
L 127.771798 -190.888255 
L 129.165687 -189.130605 
L 130.51532 -187.372954 
L 131.80683 -185.615304 
L 133.029019 -183.857653 
L 134.173573 -182.100003 
L 135.235645 -180.342353 
L 136.214705 -178.584702 
L 137.115433 -176.827052 
L 137.9483 -175.069401 
L 138.729414 -173.311751 
L 139.479253 -171.554101 
L 140.220059 -169.79645 
L 140.971971 -168.0388 
L 141.74838 -166.281149 
L 142.551376 -164.523499 
L 143.368349 -162.765848 
L 144.170802 -161.008198 
L 144.916 -159.250548 
L 145.551458 -157.492897 
L 146.021596 -155.735247 
L 146.275298 -153.977596 
L 146.272958 -152.219946 
L 145.991702 -150.462296 
L 145.428005 -148.704645 
L 144.597467 -146.946995 
L 143.532093 -145.189344 
L 142.275747 -143.431694 
L 140.87865 -141.674043 
L 139.391734 -139.916393 
L 137.861597 -138.158743 
L 136.32661 -136.401092 
L 134.814574 -134.643442 
L 133.342082 -132.885791 
L 131.915508 -131.128141 
L 130.533311 -129.370491 
L 129.189146 -127.61284 
L 127.875182 -125.85519 
L 126.585079 -124.097539 
L 125.316177 -122.339889 
L 124.070681 -120.582239 
L 122.855784 -118.824588 
L 121.682869 -117.066938 
L 120.566022 -115.309287 
L 119.520146 -113.551637 
L 118.558985 -111.793986 
L 117.693344 -110.036336 
L 116.92975 -108.278686 
L 116.269714 -106.521035 
L 115.709694 -104.763385 
L 115.241735 -103.005734 
L 114.854681 -101.248084 
L 114.535757 -99.490434 
L 114.272262 -97.732783 
L 114.053077 -95.975133 
L 113.869719 -94.217482 
L 113.716773 -92.459832 
L 113.591606 -90.702181 
L 113.493483 -88.944531 
L 113.422289 -87.186881 
L 113.377181 -85.42923 
L 113.355513 -83.67158 
L 113.352294 -81.913929 
L 113.360327 -80.156279 
L 113.370995 -78.398629 
L 113.375493 -76.640978 
L 113.366216 -74.883328 
L 113.337956 -73.125677 
L 113.288646 -71.368027 
L 113.219492 -69.610376 
L 113.134505 -67.852726 
L 113.039576 -66.095076 
L 112.941343 -64.337425 
L 112.846093 -62.579775 
L 112.758917 -60.822124 
L 112.68323 -59.064474 
L 112.620675 -57.306824 
L 112.57133 -55.549173 
z
" style="stroke: #4c4c4c; stroke-width: 0.5"/>
    </defs>
    <g clip-path="url(#pb9646c20b1)">
     <use xlink:href="#ma2f38a2c70" x="0" y="255.719844" style="fill: #5573cd; stroke: #4c4c4c; stroke-width: 0.5"/>
    </g>
   </g>
   <g id="PolyCollection_2">
    <defs>
     <path id="m99eeaf3798" d="M 197.339915 -36.69244 
L 196.665227 -36.69244 
L 196.527596 -38.699025 
L 196.34822 -40.70561 
L 196.120048 -42.712195 
L 195.836604 -44.71878 
L 195.492486 -46.725365 
L 195.083811 -48.73195 
L 194.608506 -50.738535 
L 194.066419 -52.74512 
L 193.45922 -54.751705 
L 192.79011 -56.75829 
L 192.063425 -58.764875 
L 191.284219 -60.77146 
L 190.457936 -62.778045 
L 189.59024 -64.78463 
L 188.687049 -66.791215 
L 187.754732 -68.7978 
L 186.800385 -70.804385 
L 185.832079 -72.810971 
L 184.85894 -74.817556 
L 183.89098 -76.824141 
L 182.938612 -78.830726 
L 182.011883 -80.837311 
L 181.119487 -82.843896 
L 180.267675 -84.850481 
L 179.459215 -86.857066 
L 178.692552 -88.863651 
L 177.96131 -90.870236 
L 177.254294 -92.876821 
L 176.556054 -94.883406 
L 175.8481 -96.889991 
L 175.110711 -98.896576 
L 174.32525 -100.903161 
L 173.476743 -102.909746 
L 172.556431 -104.916331 
L 171.563921 -106.922916 
L 170.508566 -108.929501 
L 169.409801 -110.936086 
L 168.296274 -112.942671 
L 167.203807 -114.949256 
L 166.172424 -116.955842 
L 165.24282 -118.962427 
L 164.452743 -120.969012 
L 163.833794 -122.975597 
L 163.409009 -124.982182 
L 163.191526 -126.988767 
L 163.184389 -128.995352 
L 163.381432 -131.001937 
L 163.769017 -133.008522 
L 164.328326 -135.015107 
L 165.037864 -137.021692 
L 165.875863 -139.028277 
L 166.822295 -141.034862 
L 167.860288 -143.041447 
L 168.97683 -145.048032 
L 170.162704 -147.054617 
L 171.411725 -149.061202 
L 172.719428 -151.067787 
L 174.081446 -153.074372 
L 175.491862 -155.080957 
L 176.941842 -157.087542 
L 178.418817 -159.094127 
L 179.906382 -161.100713 
L 181.38495 -163.107298 
L 182.83305 -165.113883 
L 184.229048 -167.120468 
L 185.552964 -169.127053 
L 186.788075 -171.133638 
L 187.922052 -173.140223 
L 188.947472 -175.146808 
L 189.861704 -177.153393 
L 190.666294 -179.159978 
L 191.366034 -181.166563 
L 191.967949 -183.173148 
L 192.480403 -185.179733 
L 192.912441 -187.186318 
L 193.273408 -189.192903 
L 193.572802 -191.199488 
L 193.820258 -193.206073 
L 194.025556 -195.212658 
L 194.198541 -197.219243 
L 194.348922 -199.225828 
L 194.485915 -201.232413 
L 194.617799 -203.238998 
L 194.751448 -205.245584 
L 194.89192 -207.252169 
L 195.042198 -209.258754 
L 195.203108 -211.265339 
L 195.373469 -213.271924 
L 195.550423 -215.278509 
L 195.729922 -217.285094 
L 195.907295 -219.291679 
L 196.077822 -221.298264 
L 196.23724 -223.304849 
L 196.382138 -225.311434 
L 196.510186 -227.318019 
L 196.620223 -229.324604 
L 196.71219 -231.331189 
L 196.786961 -233.337774 
L 196.846105 -235.344359 
L 197.159037 -235.344359 
L 197.159037 -235.344359 
L 197.218181 -233.337774 
L 197.292952 -231.331189 
L 197.384919 -229.324604 
L 197.494956 -227.318019 
L 197.623004 -225.311434 
L 197.767902 -223.304849 
L 197.92732 -221.298264 
L 198.097847 -219.291679 
L 198.27522 -217.285094 
L 198.454719 -215.278509 
L 198.631673 -213.271924 
L 198.802034 -211.265339 
L 198.962944 -209.258754 
L 199.113222 -207.252169 
L 199.253694 -205.245584 
L 199.387343 -203.238998 
L 199.519227 -201.232413 
L 199.65622 -199.225828 
L 199.806601 -197.219243 
L 199.979586 -195.212658 
L 200.184884 -193.206073 
L 200.43234 -191.199488 
L 200.731734 -189.192903 
L 201.092701 -187.186318 
L 201.524739 -185.179733 
L 202.037193 -183.173148 
L 202.639108 -181.166563 
L 203.338848 -179.159978 
L 204.143438 -177.153393 
L 205.05767 -175.146808 
L 206.08309 -173.140223 
L 207.217067 -171.133638 
L 208.452179 -169.127053 
L 209.776094 -167.120468 
L 211.172092 -165.113883 
L 212.620192 -163.107298 
L 214.09876 -161.100713 
L 215.586325 -159.094127 
L 217.0633 -157.087542 
L 218.51328 -155.080957 
L 219.923696 -153.074372 
L 221.285714 -151.067787 
L 222.593418 -149.061202 
L 223.842438 -147.054617 
L 225.028312 -145.048032 
L 226.144854 -143.041447 
L 227.182847 -141.034862 
L 228.129279 -139.028277 
L 228.967278 -137.021692 
L 229.676816 -135.015107 
L 230.236125 -133.008522 
L 230.62371 -131.001937 
L 230.820753 -128.995352 
L 230.813616 -126.988767 
L 230.596133 -124.982182 
L 230.171348 -122.975597 
L 229.552399 -120.969012 
L 228.762322 -118.962427 
L 227.832718 -116.955842 
L 226.801335 -114.949256 
L 225.708868 -112.942671 
L 224.595341 -110.936086 
L 223.496576 -108.929501 
L 222.441221 -106.922916 
L 221.448711 -104.916331 
L 220.528399 -102.909746 
L 219.679892 -100.903161 
L 218.894431 -98.896576 
L 218.157042 -96.889991 
L 217.449088 -94.883406 
L 216.750848 -92.876821 
L 216.043832 -90.870236 
L 215.31259 -88.863651 
L 214.545927 -86.857066 
L 213.737467 -84.850481 
L 212.885655 -82.843896 
L 211.993259 -80.837311 
L 211.06653 -78.830726 
L 210.114162 -76.824141 
L 209.146202 -74.817556 
L 208.173063 -72.810971 
L 207.204757 -70.804385 
L 206.25041 -68.7978 
L 205.318093 -66.791215 
L 204.414902 -64.78463 
L 203.547206 -62.778045 
L 202.720923 -60.77146 
L 201.941717 -58.764875 
L 201.215032 -56.75829 
L 200.545922 -54.751705 
L 199.938723 -52.74512 
L 199.396636 -50.738535 
L 198.921331 -48.73195 
L 198.512656 -46.725365 
L 198.168539 -44.71878 
L 197.885094 -42.712195 
L 197.656922 -40.70561 
L 197.477546 -38.699025 
L 197.339915 -36.69244 
z
" style="stroke: #4c4c4c; stroke-width: 0.5"/>
    </defs>
    <g clip-path="url(#pb9646c20b1)">
     <use xlink:href="#m99eeaf3798" x="0" y="255.719844" style="fill: #df8920; stroke: #4c4c4c; stroke-width: 0.5"/>
    </g>
   </g>
   <g id="line2d_1">
    <path d="M 112.457116 159.744635 
L 112.457116 44.838043 
" clip-path="url(#pb9646c20b1)" style="fill: none; stroke: #4c4c4c; stroke-width: 0.75; stroke-linecap: round"/>
   </g>
   <g id="line2d_2">
    <path d="M 112.457116 113.669453 
L 112.457116 82.27297 
" clip-path="url(#pb9646c20b1)" style="fill: none; stroke: #4c4c4c; stroke-width: 2.25; stroke-linecap: round"/>
   </g>
   <g id="line2d_3">
    <path d="M 112.457116 100.311326 
" clip-path="url(#pb9646c20b1)" style="fill: none; stroke: #4c4c4c; stroke-width: 1.5; stroke-linecap: round"/>
    <defs>
     <path id="m3a90f50ba9" d="M 0.9375 0 
L -0.9375 -0 
" style="stroke: #ffffff; stroke-width: 0.45"/>
    </defs>
    <g clip-path="url(#pb9646c20b1)">
     <use xlink:href="#m3a90f50ba9" x="112.457116" y="100.311326" style="fill: #ffffff; stroke: #ffffff; stroke-width: 0.45"/>
    </g>
   </g>
   <g id="line2d_4">
    <path d="M 197.002571 193.745938 
L 197.002571 57.037445 
" clip-path="url(#pb9646c20b1)" style="fill: none; stroke: #4c4c4c; stroke-width: 0.75; stroke-linecap: round"/>
   </g>
   <g id="line2d_5">
    <path d="M 197.002571 153.448419 
L 197.002571 112.457298 
" clip-path="url(#pb9646c20b1)" style="fill: none; stroke: #4c4c4c; stroke-width: 2.25; stroke-linecap: round"/>
   </g>
   <g id="line2d_6">
    <path d="M 197.002571 131.628639 
" clip-path="url(#pb9646c20b1)" style="fill: none; stroke: #4c4c4c; stroke-width: 1.5; stroke-linecap: round"/>
    <g clip-path="url(#pb9646c20b1)">
     <use xlink:href="#m3a90f50ba9" x="197.002571" y="131.628639" style="fill: #ffffff; stroke: #ffffff; stroke-width: 0.45"/>
    </g>
   </g>
   <g id="line2d_7">
    <path d="M 112.457116 31.727017 
L 112.457116 27.356674 
L 197.002571 27.356674 
L 197.002571 31.727017 
" style="fill: none; stroke: #333333; stroke-width: 0.5; stroke-linecap: round"/>
   </g>
   <g id="patch_3">
    <path d="M 71.029844 228.96 
L 71.029844 7.2 
" style="fill: none; stroke: #262626; stroke-width: 1.25; stroke-linejoin: miter; stroke-linecap: square"/>
   </g>
   <g id="patch_4">
    <path d="M 71.029844 228.96 
L 238.429844 228.96 
" style="fill: none; stroke: #262626; stroke-width: 1.25; stroke-linejoin: miter; stroke-linecap: square"/>
   </g>
   <g id="text_12">
    <!-- **** -->
    <g style="fill: #262626" transform="translate(145.388594 23.971674) scale(0.12 -0.12)">
     <defs>
      <path id="ArialMT-2a" d="M 200 3741 
L 344 4184 
Q 841 4009 1066 3881 
Q 1006 4447 1003 4659 
L 1456 4659 
Q 1447 4350 1384 3884 
Q 1706 4047 2122 4184 
L 2266 3741 
Q 1869 3609 1488 3566 
Q 1678 3400 2025 2975 
L 1650 2709 
Q 1469 2956 1222 3381 
Q 991 2941 816 2709 
L 447 2975 
Q 809 3422 966 3566 
Q 563 3644 200 3741 
z
" transform="scale(0.015625)"/>
     </defs>
     <use xlink:href="#ArialMT-2a"/>
     <use xlink:href="#ArialMT-2a" x="38.916016"/>
     <use xlink:href="#ArialMT-2a" x="77.832031"/>
     <use xlink:href="#ArialMT-2a" x="116.748047"/>
    </g>
   </g>
  </g>
 </g>
 <defs>
  <clipPath id="pb9646c20b1">
   <rect x="71.029844" y="7.2" width="167.4" height="221.76"/>
  </clipPath>
 </defs>
</svg>
