<?xml version="1.0" encoding="utf-8" standalone="no"?>
<!DOCTYPE svg PUBLIC "-//W3C//DTD SVG 1.1//EN"
  "http://www.w3.org/Graphics/SVG/1.1/DTD/svg11.dtd">
<svg xmlns:xlink="http://www.w3.org/1999/xlink" width="247.82625pt" height="254.805312pt" viewBox="0 0 247.82625 254.805312" xmlns="http://www.w3.org/2000/svg" version="1.1">
 <metadata>
  <rdf:RDF xmlns:dc="http://purl.org/dc/elements/1.1/" xmlns:cc="http://creativecommons.org/ns#" xmlns:rdf="http://www.w3.org/1999/02/22-rdf-syntax-ns#">
   <cc:Work>
    <dc:type rdf:resource="http://purl.org/dc/dcmitype/StillImage"/>
    <dc:date>2025-08-13T11:21:58.551581</dc:date>
    <dc:format>image/svg+xml</dc:format>
    <dc:creator>
     <cc:Agent>
      <dc:title>Matplotlib v3.9.2, https://matplotlib.org/</dc:title>
     </cc:Agent>
    </dc:creator>
   </cc:Work>
  </rdf:RDF>
 </metadata>
 <defs>
  <style type="text/css">*{stroke-linejoin: round; stroke-linecap: butt}</style>
 </defs>
 <g id="figure_1">
  <g id="patch_1">
   <path d="M 0 254.805312 
L 247.82625 254.805312 
L 247.82625 0 
L 0 0 
z
" style="fill: #ffffff"/>
  </g>
  <g id="axes_1">
   <g id="patch_2">
    <path d="M 73.22625 228.96 
L 240.62625 228.96 
L 240.62625 7.2 
L 73.22625 7.2 
z
" style="fill: #ffffff"/>
   </g>
   <g id="matplotlib.axis_1">
    <g id="xtick_1">
     <g id="text_1">
      <!-- Full-term -->
      <g style="fill: #262626" transform="translate(94.93321 245.617812) scale(0.1 -0.1)">
       <defs>
        <path id="ArialMT-46" d="M 525 0 
L 525 4581 
L 3616 4581 
L 3616 4041 
L 1131 4041 
L 1131 2622 
L 3281 2622 
L 3281 2081 
L 1131 2081 
L 1131 0 
L 525 0 
z
" transform="scale(0.015625)"/>
        <path id="ArialMT-75" d="M 2597 0 
L 2597 488 
Q 2209 -75 1544 -75 
Q 1250 -75 995 37 
Q 741 150 617 320 
Q 494 491 444 738 
Q 409 903 409 1263 
L 409 3319 
L 972 3319 
L 972 1478 
Q 972 1038 1006 884 
Q 1059 663 1231 536 
Q 1403 409 1656 409 
Q 1909 409 2131 539 
Q 2353 669 2445 892 
Q 2538 1116 2538 1541 
L 2538 3319 
L 3100 3319 
L 3100 0 
L 2597 0 
z
" transform="scale(0.015625)"/>
        <path id="ArialMT-6c" d="M 409 0 
L 409 4581 
L 972 4581 
L 972 0 
L 409 0 
z
" transform="scale(0.015625)"/>
        <path id="ArialMT-2d" d="M 203 1375 
L 203 1941 
L 1931 1941 
L 1931 1375 
L 203 1375 
z
" transform="scale(0.015625)"/>
        <path id="ArialMT-74" d="M 1650 503 
L 1731 6 
Q 1494 -44 1306 -44 
Q 1000 -44 831 53 
Q 663 150 594 308 
Q 525 466 525 972 
L 525 2881 
L 113 2881 
L 113 3319 
L 525 3319 
L 525 4141 
L 1084 4478 
L 1084 3319 
L 1650 3319 
L 1650 2881 
L 1084 2881 
L 1084 941 
Q 1084 700 1114 631 
Q 1144 563 1211 522 
Q 1278 481 1403 481 
Q 1497 481 1650 503 
z
" transform="scale(0.015625)"/>
        <path id="ArialMT-65" d="M 2694 1069 
L 3275 997 
Q 3138 488 2766 206 
Q 2394 -75 1816 -75 
Q 1088 -75 661 373 
Q 234 822 234 1631 
Q 234 2469 665 2931 
Q 1097 3394 1784 3394 
Q 2450 3394 2872 2941 
Q 3294 2488 3294 1666 
Q 3294 1616 3291 1516 
L 816 1516 
Q 847 969 1125 678 
Q 1403 388 1819 388 
Q 2128 388 2347 550 
Q 2566 713 2694 1069 
z
M 847 1978 
L 2700 1978 
Q 2663 2397 2488 2606 
Q 2219 2931 1791 2931 
Q 1403 2931 1139 2672 
Q 875 2413 847 1978 
z
" transform="scale(0.015625)"/>
        <path id="ArialMT-72" d="M 416 0 
L 416 3319 
L 922 3319 
L 922 2816 
Q 1116 3169 1280 3281 
Q 1444 3394 1641 3394 
Q 1925 3394 2219 3213 
L 2025 2691 
Q 1819 2813 1613 2813 
Q 1428 2813 1281 2702 
Q 1134 2591 1072 2394 
Q 978 2094 978 1738 
L 978 0 
L 416 0 
z
" transform="scale(0.015625)"/>
        <path id="ArialMT-6d" d="M 422 0 
L 422 3319 
L 925 3319 
L 925 2853 
Q 1081 3097 1340 3245 
Q 1600 3394 1931 3394 
Q 2300 3394 2536 3241 
Q 2772 3088 2869 2813 
Q 3263 3394 3894 3394 
Q 4388 3394 4653 3120 
Q 4919 2847 4919 2278 
L 4919 0 
L 4359 0 
L 4359 2091 
Q 4359 2428 4304 2576 
Q 4250 2725 4106 2815 
Q 3963 2906 3769 2906 
Q 3419 2906 3187 2673 
Q 2956 2441 2956 1928 
L 2956 0 
L 2394 0 
L 2394 2156 
Q 2394 2531 2256 2718 
Q 2119 2906 1806 2906 
Q 1569 2906 1367 2781 
Q 1166 2656 1075 2415 
Q 984 2175 984 1722 
L 984 0 
L 422 0 
z
" transform="scale(0.015625)"/>
       </defs>
       <use xlink:href="#ArialMT-46"/>
       <use xlink:href="#ArialMT-75" x="61.083984"/>
       <use xlink:href="#ArialMT-6c" x="116.699219"/>
       <use xlink:href="#ArialMT-6c" x="138.916016"/>
       <use xlink:href="#ArialMT-2d" x="161.132812"/>
       <use xlink:href="#ArialMT-74" x="194.433594"/>
       <use xlink:href="#ArialMT-65" x="222.216797"/>
       <use xlink:href="#ArialMT-72" x="277.832031"/>
       <use xlink:href="#ArialMT-6d" x="311.132812"/>
      </g>
     </g>
    </g>
    <g id="xtick_2">
     <g id="text_2">
      <!-- Preterm -->
      <g style="fill: #262626" transform="translate(181.41929 245.617812) scale(0.1 -0.1)">
       <defs>
        <path id="ArialMT-50" d="M 494 0 
L 494 4581 
L 2222 4581 
Q 2678 4581 2919 4538 
Q 3256 4481 3484 4323 
Q 3713 4166 3852 3881 
Q 3991 3597 3991 3256 
Q 3991 2672 3619 2267 
Q 3247 1863 2275 1863 
L 1100 1863 
L 1100 0 
L 494 0 
z
M 1100 2403 
L 2284 2403 
Q 2872 2403 3119 2622 
Q 3366 2841 3366 3238 
Q 3366 3525 3220 3729 
Q 3075 3934 2838 4000 
Q 2684 4041 2272 4041 
L 1100 4041 
L 1100 2403 
z
" transform="scale(0.015625)"/>
       </defs>
       <use xlink:href="#ArialMT-50"/>
       <use xlink:href="#ArialMT-72" x="66.699219"/>
       <use xlink:href="#ArialMT-65" x="100"/>
       <use xlink:href="#ArialMT-74" x="155.615234"/>
       <use xlink:href="#ArialMT-65" x="183.398438"/>
       <use xlink:href="#ArialMT-72" x="239.013672"/>
       <use xlink:href="#ArialMT-6d" x="272.314453"/>
      </g>
     </g>
    </g>
   </g>
   <g id="matplotlib.axis_2">
    <g id="ytick_1">
     <g id="text_3">
      <!-- −150000 -->
      <g style="fill: #262626" transform="translate(24.52 222.063336) scale(0.1 -0.1)">
       <defs>
        <path id="ArialMT-2212" d="M 3381 1997 
L 356 1997 
L 356 2522 
L 3381 2522 
L 3381 1997 
z
" transform="scale(0.015625)"/>
        <path id="ArialMT-31" d="M 2384 0 
L 1822 0 
L 1822 3584 
Q 1619 3391 1289 3197 
Q 959 3003 697 2906 
L 697 3450 
Q 1169 3672 1522 3987 
Q 1875 4303 2022 4600 
L 2384 4600 
L 2384 0 
z
" transform="scale(0.015625)"/>
        <path id="ArialMT-35" d="M 266 1200 
L 856 1250 
Q 922 819 1161 601 
Q 1400 384 1738 384 
Q 2144 384 2425 690 
Q 2706 997 2706 1503 
Q 2706 1984 2436 2262 
Q 2166 2541 1728 2541 
Q 1456 2541 1237 2417 
Q 1019 2294 894 2097 
L 366 2166 
L 809 4519 
L 3088 4519 
L 3088 3981 
L 1259 3981 
L 1013 2750 
Q 1425 3038 1878 3038 
Q 2478 3038 2890 2622 
Q 3303 2206 3303 1553 
Q 3303 931 2941 478 
Q 2500 -78 1738 -78 
Q 1113 -78 717 272 
Q 322 622 266 1200 
z
" transform="scale(0.015625)"/>
        <path id="ArialMT-30" d="M 266 2259 
Q 266 3072 433 3567 
Q 600 4063 929 4331 
Q 1259 4600 1759 4600 
Q 2128 4600 2406 4451 
Q 2684 4303 2865 4023 
Q 3047 3744 3150 3342 
Q 3253 2941 3253 2259 
Q 3253 1453 3087 958 
Q 2922 463 2592 192 
Q 2263 -78 1759 -78 
Q 1097 -78 719 397 
Q 266 969 266 2259 
z
M 844 2259 
Q 844 1131 1108 757 
Q 1372 384 1759 384 
Q 2147 384 2411 759 
Q 2675 1134 2675 2259 
Q 2675 3391 2411 3762 
Q 2147 4134 1753 4134 
Q 1366 4134 1134 3806 
Q 844 3388 844 2259 
z
" transform="scale(0.015625)"/>
       </defs>
       <use xlink:href="#ArialMT-2212"/>
       <use xlink:href="#ArialMT-31" x="58.398438"/>
       <use xlink:href="#ArialMT-35" x="114.013672"/>
       <use xlink:href="#ArialMT-30" x="169.628906"/>
       <use xlink:href="#ArialMT-30" x="225.244141"/>
       <use xlink:href="#ArialMT-30" x="280.859375"/>
       <use xlink:href="#ArialMT-30" x="336.474609"/>
      </g>
     </g>
    </g>
    <g id="ytick_2">
     <g id="text_4">
      <!-- −100000 -->
      <g style="fill: #262626" transform="translate(24.52 190.216546) scale(0.1 -0.1)">
       <use xlink:href="#ArialMT-2212"/>
       <use xlink:href="#ArialMT-31" x="58.398438"/>
       <use xlink:href="#ArialMT-30" x="114.013672"/>
       <use xlink:href="#ArialMT-30" x="169.628906"/>
       <use xlink:href="#ArialMT-30" x="225.244141"/>
       <use xlink:href="#ArialMT-30" x="280.859375"/>
       <use xlink:href="#ArialMT-30" x="336.474609"/>
      </g>
     </g>
    </g>
    <g id="ytick_3">
     <g id="text_5">
      <!-- −50000 -->
      <g style="fill: #262626" transform="translate(30.080938 158.369755) scale(0.1 -0.1)">
       <use xlink:href="#ArialMT-2212"/>
       <use xlink:href="#ArialMT-35" x="58.398438"/>
       <use xlink:href="#ArialMT-30" x="114.013672"/>
       <use xlink:href="#ArialMT-30" x="169.628906"/>
       <use xlink:href="#ArialMT-30" x="225.244141"/>
       <use xlink:href="#ArialMT-30" x="280.859375"/>
      </g>
     </g>
    </g>
    <g id="ytick_4">
     <g id="text_6">
      <!-- 0 -->
      <g style="fill: #262626" transform="translate(58.165313 126.522965) scale(0.1 -0.1)">
       <use xlink:href="#ArialMT-30"/>
      </g>
     </g>
    </g>
    <g id="ytick_5">
     <g id="text_7">
      <!-- 50000 -->
      <g style="fill: #262626" transform="translate(35.921563 94.676174) scale(0.1 -0.1)">
       <use xlink:href="#ArialMT-35"/>
       <use xlink:href="#ArialMT-30" x="55.615234"/>
       <use xlink:href="#ArialMT-30" x="111.230469"/>
       <use xlink:href="#ArialMT-30" x="166.845703"/>
       <use xlink:href="#ArialMT-30" x="222.460938"/>
      </g>
     </g>
    </g>
    <g id="ytick_6">
     <g id="text_8">
      <!-- 100000 -->
      <g style="fill: #262626" transform="translate(30.360625 62.829384) scale(0.1 -0.1)">
       <use xlink:href="#ArialMT-31"/>
       <use xlink:href="#ArialMT-30" x="55.615234"/>
       <use xlink:href="#ArialMT-30" x="111.230469"/>
       <use xlink:href="#ArialMT-30" x="166.845703"/>
       <use xlink:href="#ArialMT-30" x="222.460938"/>
       <use xlink:href="#ArialMT-30" x="278.076172"/>
      </g>
     </g>
    </g>
    <g id="ytick_7">
     <g id="text_9">
      <!-- 150000 -->
      <g style="fill: #262626" transform="translate(30.360625 30.982593) scale(0.1 -0.1)">
       <use xlink:href="#ArialMT-31"/>
       <use xlink:href="#ArialMT-35" x="55.615234"/>
       <use xlink:href="#ArialMT-30" x="111.230469"/>
       <use xlink:href="#ArialMT-30" x="166.845703"/>
       <use xlink:href="#ArialMT-30" x="222.460938"/>
       <use xlink:href="#ArialMT-30" x="278.076172"/>
      </g>
     </g>
    </g>
    <g id="text_10">
     <!-- GMV residuals [mm$^3$] -->
     <g style="fill: #262626" transform="translate(18.12 175.32) rotate(-90) scale(0.12 -0.12)">
      <defs>
       <path id="ArialMT-47" d="M 2638 1797 
L 2638 2334 
L 4578 2338 
L 4578 638 
Q 4131 281 3656 101 
Q 3181 -78 2681 -78 
Q 2006 -78 1454 211 
Q 903 500 622 1047 
Q 341 1594 341 2269 
Q 341 2938 620 3517 
Q 900 4097 1425 4378 
Q 1950 4659 2634 4659 
Q 3131 4659 3532 4498 
Q 3934 4338 4162 4050 
Q 4391 3763 4509 3300 
L 3963 3150 
Q 3859 3500 3706 3700 
Q 3553 3900 3268 4020 
Q 2984 4141 2638 4141 
Q 2222 4141 1919 4014 
Q 1616 3888 1430 3681 
Q 1244 3475 1141 3228 
Q 966 2803 966 2306 
Q 966 1694 1177 1281 
Q 1388 869 1791 669 
Q 2194 469 2647 469 
Q 3041 469 3416 620 
Q 3791 772 3984 944 
L 3984 1797 
L 2638 1797 
z
" transform="scale(0.015625)"/>
       <path id="ArialMT-4d" d="M 475 0 
L 475 4581 
L 1388 4581 
L 2472 1338 
Q 2622 884 2691 659 
Q 2769 909 2934 1394 
L 4031 4581 
L 4847 4581 
L 4847 0 
L 4263 0 
L 4263 3834 
L 2931 0 
L 2384 0 
L 1059 3900 
L 1059 0 
L 475 0 
z
" transform="scale(0.015625)"/>
       <path id="ArialMT-56" d="M 1803 0 
L 28 4581 
L 684 4581 
L 1875 1253 
Q 2019 853 2116 503 
Q 2222 878 2363 1253 
L 3600 4581 
L 4219 4581 
L 2425 0 
L 1803 0 
z
" transform="scale(0.015625)"/>
       <path id="ArialMT-20" transform="scale(0.015625)"/>
       <path id="ArialMT-73" d="M 197 991 
L 753 1078 
Q 800 744 1014 566 
Q 1228 388 1613 388 
Q 2000 388 2187 545 
Q 2375 703 2375 916 
Q 2375 1106 2209 1216 
Q 2094 1291 1634 1406 
Q 1016 1563 777 1677 
Q 538 1791 414 1992 
Q 291 2194 291 2438 
Q 291 2659 392 2848 
Q 494 3038 669 3163 
Q 800 3259 1026 3326 
Q 1253 3394 1513 3394 
Q 1903 3394 2198 3281 
Q 2494 3169 2634 2976 
Q 2775 2784 2828 2463 
L 2278 2388 
Q 2241 2644 2061 2787 
Q 1881 2931 1553 2931 
Q 1166 2931 1000 2803 
Q 834 2675 834 2503 
Q 834 2394 903 2306 
Q 972 2216 1119 2156 
Q 1203 2125 1616 2013 
Q 2213 1853 2448 1751 
Q 2684 1650 2818 1456 
Q 2953 1263 2953 975 
Q 2953 694 2789 445 
Q 2625 197 2315 61 
Q 2006 -75 1616 -75 
Q 969 -75 630 194 
Q 291 463 197 991 
z
" transform="scale(0.015625)"/>
       <path id="ArialMT-69" d="M 425 3934 
L 425 4581 
L 988 4581 
L 988 3934 
L 425 3934 
z
M 425 0 
L 425 3319 
L 988 3319 
L 988 0 
L 425 0 
z
" transform="scale(0.015625)"/>
       <path id="ArialMT-64" d="M 2575 0 
L 2575 419 
Q 2259 -75 1647 -75 
Q 1250 -75 917 144 
Q 584 363 401 755 
Q 219 1147 219 1656 
Q 219 2153 384 2558 
Q 550 2963 881 3178 
Q 1213 3394 1622 3394 
Q 1922 3394 2156 3267 
Q 2391 3141 2538 2938 
L 2538 4581 
L 3097 4581 
L 3097 0 
L 2575 0 
z
M 797 1656 
Q 797 1019 1065 703 
Q 1334 388 1700 388 
Q 2069 388 2326 689 
Q 2584 991 2584 1609 
Q 2584 2291 2321 2609 
Q 2059 2928 1675 2928 
Q 1300 2928 1048 2622 
Q 797 2316 797 1656 
z
" transform="scale(0.015625)"/>
       <path id="ArialMT-61" d="M 2588 409 
Q 2275 144 1986 34 
Q 1697 -75 1366 -75 
Q 819 -75 525 192 
Q 231 459 231 875 
Q 231 1119 342 1320 
Q 453 1522 633 1644 
Q 813 1766 1038 1828 
Q 1203 1872 1538 1913 
Q 2219 1994 2541 2106 
Q 2544 2222 2544 2253 
Q 2544 2597 2384 2738 
Q 2169 2928 1744 2928 
Q 1347 2928 1158 2789 
Q 969 2650 878 2297 
L 328 2372 
Q 403 2725 575 2942 
Q 747 3159 1072 3276 
Q 1397 3394 1825 3394 
Q 2250 3394 2515 3294 
Q 2781 3194 2906 3042 
Q 3031 2891 3081 2659 
Q 3109 2516 3109 2141 
L 3109 1391 
Q 3109 606 3145 398 
Q 3181 191 3288 0 
L 2700 0 
Q 2613 175 2588 409 
z
M 2541 1666 
Q 2234 1541 1622 1453 
Q 1275 1403 1131 1340 
Q 988 1278 909 1158 
Q 831 1038 831 891 
Q 831 666 1001 516 
Q 1172 366 1500 366 
Q 1825 366 2078 508 
Q 2331 650 2450 897 
Q 2541 1088 2541 1459 
L 2541 1666 
z
" transform="scale(0.015625)"/>
       <path id="ArialMT-5b" d="M 434 -1272 
L 434 4581 
L 1675 4581 
L 1675 4116 
L 997 4116 
L 997 -806 
L 1675 -806 
L 1675 -1272 
L 434 -1272 
z
" transform="scale(0.015625)"/>
       <path id="DejaVuSans-33" d="M 2597 2516 
Q 3050 2419 3304 2112 
Q 3559 1806 3559 1356 
Q 3559 666 3084 287 
Q 2609 -91 1734 -91 
Q 1441 -91 1130 -33 
Q 819 25 488 141 
L 488 750 
Q 750 597 1062 519 
Q 1375 441 1716 441 
Q 2309 441 2620 675 
Q 2931 909 2931 1356 
Q 2931 1769 2642 2001 
Q 2353 2234 1838 2234 
L 1294 2234 
L 1294 2753 
L 1863 2753 
Q 2328 2753 2575 2939 
Q 2822 3125 2822 3475 
Q 2822 3834 2567 4026 
Q 2313 4219 1838 4219 
Q 1578 4219 1281 4162 
Q 984 4106 628 3988 
L 628 4550 
Q 988 4650 1302 4700 
Q 1616 4750 1894 4750 
Q 2613 4750 3031 4423 
Q 3450 4097 3450 3541 
Q 3450 3153 3228 2886 
Q 3006 2619 2597 2516 
z
" transform="scale(0.015625)"/>
       <path id="ArialMT-5d" d="M 1363 -1272 
L 122 -1272 
L 122 -806 
L 800 -806 
L 800 4116 
L 122 4116 
L 122 4581 
L 1363 4581 
L 1363 -1272 
z
" transform="scale(0.015625)"/>
      </defs>
      <use xlink:href="#ArialMT-47" transform="translate(0 0.765625)"/>
      <use xlink:href="#ArialMT-4d" transform="translate(77.783203 0.765625)"/>
      <use xlink:href="#ArialMT-56" transform="translate(161.083984 0.765625)"/>
      <use xlink:href="#ArialMT-20" transform="translate(227.783203 0.765625)"/>
      <use xlink:href="#ArialMT-72" transform="translate(255.566406 0.765625)"/>
      <use xlink:href="#ArialMT-65" transform="translate(288.867188 0.765625)"/>
      <use xlink:href="#ArialMT-73" transform="translate(344.482422 0.765625)"/>
      <use xlink:href="#ArialMT-69" transform="translate(394.482422 0.765625)"/>
      <use xlink:href="#ArialMT-64" transform="translate(416.699219 0.765625)"/>
      <use xlink:href="#ArialMT-75" transform="translate(472.314453 0.765625)"/>
      <use xlink:href="#ArialMT-61" transform="translate(527.929688 0.765625)"/>
      <use xlink:href="#ArialMT-6c" transform="translate(583.544922 0.765625)"/>
      <use xlink:href="#ArialMT-73" transform="translate(605.761719 0.765625)"/>
      <use xlink:href="#ArialMT-20" transform="translate(655.761719 0.765625)"/>
      <use xlink:href="#ArialMT-5b" transform="translate(683.544922 0.765625)"/>
      <use xlink:href="#ArialMT-6d" transform="translate(711.328125 0.765625)"/>
      <use xlink:href="#ArialMT-6d" transform="translate(794.628906 0.765625)"/>
      <use xlink:href="#DejaVuSans-33" transform="translate(878.886719 39.046875) scale(0.7)"/>
      <use xlink:href="#ArialMT-5d" transform="translate(926.157227 0.765625)"/>
     </g>
    </g>
   </g>
   <g id="PolyCollection_1">
    <defs>
     <path id="m98c200fad4" d="M 114.770432 -38.700646 
L 114.536614 -38.700646 
L 114.488658 -40.708976 
L 114.428072 -42.717306 
L 114.354399 -44.725636 
L 114.268172 -46.733966 
L 114.170969 -48.742296 
L 114.065213 -50.750626 
L 113.953674 -52.758956 
L 113.838673 -54.767285 
L 113.721099 -56.775615 
L 113.599406 -58.783945 
L 113.468837 -60.792275 
L 113.321088 -62.800605 
L 113.144621 -64.808935 
L 112.925679 -66.817265 
L 112.649914 -68.825595 
L 112.304401 -70.833925 
L 111.879681 -72.842255 
L 111.371417 -74.850585 
L 110.781318 -76.858915 
L 110.117069 -78.867245 
L 109.391238 -80.875575 
L 108.619271 -82.883905 
L 107.816939 -84.892235 
L 106.997664 -86.900565 
L 106.170213 -88.908895 
L 105.337172 -90.917225 
L 104.494483 -92.925555 
L 103.632124 -94.933885 
L 102.735795 -96.942215 
L 101.789335 -98.950545 
L 100.777436 -100.958875 
L 99.688223 -102.967205 
L 98.515337 -104.975535 
L 97.259252 -106.983865 
L 95.927756 -108.992195 
L 94.535621 -111.000525 
L 93.103626 -113.008855 
L 91.657096 -115.017184 
L 90.224118 -117.025514 
L 88.833563 -119.033844 
L 87.513043 -121.042174 
L 86.286917 -123.050504 
L 85.17456 -125.058834 
L 84.189132 -127.067164 
L 83.337095 -129.075494 
L 82.618689 -131.083824 
L 82.029384 -133.092154 
L 81.562168 -135.100484 
L 81.210299 -137.108814 
L 80.970008 -139.117144 
L 80.842582 -141.125474 
L 80.835341 -143.133804 
L 80.961189 -145.142134 
L 81.236679 -147.150464 
L 81.678828 -149.158794 
L 82.301187 -151.167124 
L 83.10985 -153.175454 
L 84.100185 -155.183784 
L 85.254975 -157.192114 
L 86.544495 -159.200444 
L 87.928655 -161.208774 
L 89.361043 -163.217104 
L 90.794242 -165.225434 
L 92.185583 -167.233764 
L 93.502343 -169.242094 
L 94.725451 -171.250424 
L 95.851042 -173.258754 
L 96.889588 -175.267084 
L 97.862779 -177.275413 
L 98.798777 -179.283743 
L 99.726738 -181.292073 
L 100.671628 -183.300403 
L 101.650189 -185.308733 
L 102.668669 -187.317063 
L 103.722485 -189.325393 
L 104.797629 -191.333723 
L 105.87333 -193.342053 
L 106.92536 -195.350383 
L 107.929371 -197.358713 
L 108.863802 -199.367043 
L 109.712036 -201.375373 
L 110.463692 -203.383703 
L 111.115032 -205.392033 
L 111.668569 -207.400363 
L 112.132023 -209.408693 
L 112.5168 -211.417023 
L 112.836253 -213.425353 
L 113.103937 -215.433683 
L 113.332131 -217.442013 
L 113.530795 -219.450343 
L 113.70708 -221.458673 
L 113.865366 -223.467003 
L 114.007734 -225.475333 
L 114.134696 -227.483663 
L 114.245987 -229.491993 
L 114.341251 -231.500323 
L 114.420522 -233.508653 
L 114.484459 -235.516983 
L 114.534351 -237.525312 
L 114.772694 -237.525312 
L 114.772694 -237.525312 
L 114.822586 -235.516983 
L 114.886523 -233.508653 
L 114.965795 -231.500323 
L 115.061059 -229.491993 
L 115.172349 -227.483663 
L 115.299311 -225.475333 
L 115.44168 -223.467003 
L 115.599966 -221.458673 
L 115.776251 -219.450343 
L 115.974915 -217.442013 
L 116.203108 -215.433683 
L 116.470792 -213.425353 
L 116.790245 -211.417023 
L 117.175023 -209.408693 
L 117.638476 -207.400363 
L 118.192014 -205.392033 
L 118.843354 -203.383703 
L 119.59501 -201.375373 
L 120.443244 -199.367043 
L 121.377674 -197.358713 
L 122.381686 -195.350383 
L 123.433716 -193.342053 
L 124.509417 -191.333723 
L 125.58456 -189.325393 
L 126.638377 -187.317063 
L 127.656857 -185.308733 
L 128.635418 -183.300403 
L 129.580307 -181.292073 
L 130.508269 -179.283743 
L 131.444266 -177.275413 
L 132.417458 -175.267084 
L 133.456004 -173.258754 
L 134.581595 -171.250424 
L 135.804702 -169.242094 
L 137.121462 -167.233764 
L 138.512804 -165.225434 
L 139.946002 -163.217104 
L 141.37839 -161.208774 
L 142.762551 -159.200444 
L 144.05207 -157.192114 
L 145.206861 -155.183784 
L 146.197195 -153.175454 
L 147.005858 -151.167124 
L 147.628217 -149.158794 
L 148.070366 -147.150464 
L 148.345856 -145.142134 
L 148.471705 -143.133804 
L 148.464464 -141.125474 
L 148.337037 -139.117144 
L 148.096746 -137.108814 
L 147.744877 -135.100484 
L 147.277661 -133.092154 
L 146.688356 -131.083824 
L 145.96995 -129.075494 
L 145.117914 -127.067164 
L 144.132485 -125.058834 
L 143.020129 -123.050504 
L 141.794003 -121.042174 
L 140.473482 -119.033844 
L 139.082928 -117.025514 
L 137.649949 -115.017184 
L 136.203419 -113.008855 
L 134.771425 -111.000525 
L 133.37929 -108.992195 
L 132.047793 -106.983865 
L 130.791708 -104.975535 
L 129.618822 -102.967205 
L 128.52961 -100.958875 
L 127.51771 -98.950545 
L 126.571251 -96.942215 
L 125.674922 -94.933885 
L 124.812562 -92.925555 
L 123.969874 -90.917225 
L 123.136833 -88.908895 
L 122.309382 -86.900565 
L 121.490107 -84.892235 
L 120.687775 -82.883905 
L 119.915807 -80.875575 
L 119.189976 -78.867245 
L 118.525728 -76.858915 
L 117.935628 -74.850585 
L 117.427364 -72.842255 
L 117.002644 -70.833925 
L 116.657131 -68.825595 
L 116.381366 -66.817265 
L 116.162424 -64.808935 
L 115.985958 -62.800605 
L 115.838208 -60.792275 
L 115.707639 -58.783945 
L 115.585947 -56.775615 
L 115.468372 -54.767285 
L 115.353371 -52.758956 
L 115.241832 -50.750626 
L 115.136077 -48.742296 
L 115.038873 -46.733966 
L 114.952647 -44.725636 
L 114.878974 -42.717306 
L 114.818387 -40.708976 
L 114.770432 -38.700646 
z
" style="stroke: #4c4c4c; stroke-width: 0.5"/>
    </defs>
    <g clip-path="url(#p571e3e6b7f)">
     <use xlink:href="#m98c200fad4" x="0" y="254.805312" style="fill: #5573cd; stroke: #4c4c4c; stroke-width: 0.5"/>
    </g>
   </g>
   <g id="PolyCollection_2">
    <defs>
     <path id="mc01eb9cb49" d="M 199.347166 -35.925312 
L 199.050789 -35.925312 
L 198.995754 -37.850776 
L 198.925933 -39.77624 
L 198.839088 -41.701703 
L 198.732841 -43.627167 
L 198.60447 -45.552631 
L 198.450513 -47.478094 
L 198.266215 -49.403558 
L 198.044826 -51.329022 
L 197.776838 -53.254485 
L 197.449319 -55.179949 
L 197.045508 -57.105413 
L 196.544891 -59.030876 
L 195.92391 -60.95634 
L 195.157435 -62.881804 
L 194.22098 -64.807267 
L 193.093516 -66.732731 
L 191.760597 -68.658195 
L 190.217383 -70.583658 
L 188.471088 -72.509122 
L 186.542399 -74.434585 
L 184.465521 -76.360049 
L 182.28668 -78.285513 
L 180.061165 -80.210976 
L 177.849216 -82.13644 
L 175.711274 -84.061904 
L 173.703235 -85.987367 
L 171.872328 -87.912831 
L 170.254164 -89.838295 
L 168.871258 -91.763758 
L 167.733106 -93.689222 
L 166.837632 -95.614686 
L 166.173608 -97.540149 
L 165.723544 -99.465613 
L 165.46656 -101.391077 
L 165.380795 -103.31654 
L 165.445106 -105.242004 
L 165.639969 -107.167468 
L 165.947685 -109.092931 
L 166.352087 -111.018395 
L 166.838039 -112.943858 
L 167.390977 -114.869322 
L 167.99669 -116.794786 
L 168.64144 -118.720249 
L 169.312414 -120.645713 
L 169.998382 -122.571177 
L 170.690424 -124.49664 
L 171.382523 -126.422104 
L 172.071888 -128.347568 
L 172.758915 -130.273031 
L 173.446786 -132.198495 
L 174.14077 -134.123959 
L 174.847353 -136.049422 
L 175.573362 -137.974886 
L 176.325191 -139.90035 
L 177.108241 -141.825813 
L 177.926587 -143.751277 
L 178.782842 -145.676741 
L 179.678145 -147.602204 
L 180.612174 -149.527668 
L 181.583104 -151.453131 
L 182.587465 -153.378595 
L 183.619908 -155.304059 
L 184.672946 -157.229522 
L 185.736748 -159.154986 
L 186.799122 -161.08045 
L 187.845761 -163.005913 
L 188.860826 -164.931377 
L 189.827852 -166.856841 
L 190.730909 -168.782304 
L 191.555881 -170.707768 
L 192.291704 -172.633232 
L 192.931378 -174.558695 
L 193.472613 -176.484159 
L 193.918004 -178.409623 
L 194.274734 -180.335086 
L 194.553854 -182.26055 
L 194.769254 -184.186014 
L 194.936486 -186.111477 
L 195.071562 -188.036941 
L 195.189881 -189.962404 
L 195.30533 -191.887868 
L 195.429605 -193.813332 
L 195.571749 -195.738795 
L 195.737874 -197.664259 
L 195.931066 -199.589723 
L 196.151444 -201.515186 
L 196.396389 -203.44065 
L 196.660933 -205.366114 
L 196.938309 -207.291577 
L 197.220631 -209.217041 
L 197.499636 -211.142505 
L 197.767429 -213.067968 
L 198.017142 -214.993432 
L 198.243428 -216.918896 
L 198.442754 -218.844359 
L 198.613463 -220.769823 
L 198.755639 -222.695287 
L 198.870815 -224.62075 
L 198.961585 -226.546214 
L 199.436369 -226.546214 
L 199.436369 -226.546214 
L 199.527139 -224.62075 
L 199.642316 -222.695287 
L 199.784492 -220.769823 
L 199.955201 -218.844359 
L 200.154526 -216.918896 
L 200.380813 -214.993432 
L 200.630526 -213.067968 
L 200.898319 -211.142505 
L 201.177323 -209.217041 
L 201.459645 -207.291577 
L 201.737022 -205.366114 
L 202.001566 -203.44065 
L 202.246511 -201.515186 
L 202.466889 -199.589723 
L 202.660081 -197.664259 
L 202.826206 -195.738795 
L 202.968349 -193.813332 
L 203.092625 -191.887868 
L 203.208074 -189.962404 
L 203.326393 -188.036941 
L 203.461469 -186.111477 
L 203.6287 -184.186014 
L 203.844101 -182.26055 
L 204.123221 -180.335086 
L 204.479951 -178.409623 
L 204.925341 -176.484159 
L 205.466576 -174.558695 
L 206.106251 -172.633232 
L 206.842074 -170.707768 
L 207.667045 -168.782304 
L 208.570102 -166.856841 
L 209.537129 -164.931377 
L 210.552194 -163.005913 
L 211.598833 -161.08045 
L 212.661206 -159.154986 
L 213.725009 -157.229522 
L 214.778046 -155.304059 
L 215.81049 -153.378595 
L 216.81485 -151.453131 
L 217.78578 -149.527668 
L 218.71981 -147.602204 
L 219.615113 -145.676741 
L 220.471367 -143.751277 
L 221.289713 -141.825813 
L 222.072764 -139.90035 
L 222.824593 -137.974886 
L 223.550602 -136.049422 
L 224.257185 -134.123959 
L 224.951168 -132.198495 
L 225.63904 -130.273031 
L 226.326067 -128.347568 
L 227.015432 -126.422104 
L 227.707531 -124.49664 
L 228.399573 -122.571177 
L 229.085541 -120.645713 
L 229.756515 -118.720249 
L 230.401265 -116.794786 
L 231.006977 -114.869322 
L 231.559915 -112.943858 
L 232.045868 -111.018395 
L 232.45027 -109.092931 
L 232.757985 -107.167468 
L 232.952848 -105.242004 
L 233.017159 -103.31654 
L 232.931395 -101.391077 
L 232.674411 -99.465613 
L 232.224347 -97.540149 
L 231.560322 -95.614686 
L 230.664849 -93.689222 
L 229.526697 -91.763758 
L 228.14379 -89.838295 
L 226.525626 -87.912831 
L 224.69472 -85.987367 
L 222.68668 -84.061904 
L 220.548738 -82.13644 
L 218.336789 -80.210976 
L 216.111275 -78.285513 
L 213.932434 -76.360049 
L 211.855555 -74.434585 
L 209.926866 -72.509122 
L 208.180572 -70.583658 
L 206.637358 -68.658195 
L 205.304439 -66.732731 
L 204.176975 -64.807267 
L 203.24052 -62.881804 
L 202.474045 -60.95634 
L 201.853064 -59.030876 
L 201.352446 -57.105413 
L 200.948636 -55.179949 
L 200.621116 -53.254485 
L 200.353128 -51.329022 
L 200.131739 -49.403558 
L 199.947442 -47.478094 
L 199.793485 -45.552631 
L 199.665113 -43.627167 
L 199.558867 -41.701703 
L 199.472021 -39.77624 
L 199.4022 -37.850776 
L 199.347166 -35.925312 
z
" style="stroke: #4c4c4c; stroke-width: 0.5"/>
    </defs>
    <g clip-path="url(#p571e3e6b7f)">
     <use xlink:href="#mc01eb9cb49" x="0" y="254.805312" style="fill: #df8920; stroke: #4c4c4c; stroke-width: 0.5"/>
    </g>
   </g>
   <g id="line2d_1">
    <path d="M 114.653523 171.250946 
L 114.653523 56.831464 
" clip-path="url(#p571e3e6b7f)" style="fill: none; stroke: #4c4c4c; stroke-width: 0.75; stroke-linecap: round"/>
   </g>
   <g id="line2d_2">
    <path d="M 114.653523 131.716679 
L 114.653523 96.285111 
" clip-path="url(#p571e3e6b7f)" style="fill: none; stroke: #4c4c4c; stroke-width: 2.25; stroke-linecap: round"/>
   </g>
   <g id="line2d_3">
    <path d="M 114.653523 113.834635 
" clip-path="url(#p571e3e6b7f)" style="fill: none; stroke: #4c4c4c; stroke-width: 1.5; stroke-linecap: round"/>
    <defs>
     <path id="ma2031f23f4" d="M 0.9375 0 
L -0.9375 -0 
" style="stroke: #ffffff; stroke-width: 0.45"/>
    </defs>
    <g clip-path="url(#p571e3e6b7f)">
     <use xlink:href="#ma2031f23f4" x="114.653523" y="113.834635" style="fill: #ffffff; stroke: #ffffff; stroke-width: 0.45"/>
    </g>
   </g>
   <g id="line2d_4">
    <path d="M 199.198977 194.425357 
L 199.198977 52.713742 
" clip-path="url(#p571e3e6b7f)" style="fill: none; stroke: #4c4c4c; stroke-width: 0.75; stroke-linecap: round"/>
   </g>
   <g id="line2d_5">
    <path d="M 199.198977 159.242064 
L 199.198977 115.004578 
" clip-path="url(#p571e3e6b7f)" style="fill: none; stroke: #4c4c4c; stroke-width: 2.25; stroke-linecap: round"/>
   </g>
   <g id="line2d_6">
    <path d="M 199.198977 138.14217 
" clip-path="url(#p571e3e6b7f)" style="fill: none; stroke: #4c4c4c; stroke-width: 1.5; stroke-linecap: round"/>
    <g clip-path="url(#p571e3e6b7f)">
     <use xlink:href="#ma2031f23f4" x="199.198977" y="138.14217" style="fill: #ffffff; stroke: #ffffff; stroke-width: 0.45"/>
    </g>
   </g>
   <g id="line2d_7">
    <path d="M 114.653523 39.408142 
L 114.653523 34.972942 
L 199.198977 34.972942 
L 199.198977 39.408142 
" style="fill: none; stroke: #333333; stroke-width: 0.5; stroke-linecap: round"/>
   </g>
   <g id="patch_3">
    <path d="M 73.22625 228.96 
L 73.22625 7.2 
" style="fill: none; stroke: #262626; stroke-width: 1.25; stroke-linejoin: miter; stroke-linecap: square"/>
   </g>
   <g id="patch_4">
    <path d="M 73.22625 228.96 
L 240.62625 228.96 
" style="fill: none; stroke: #262626; stroke-width: 1.25; stroke-linejoin: miter; stroke-linecap: square"/>
   </g>
   <g id="text_11">
    <!-- **** -->
    <g style="fill: #262626" transform="translate(149.141875 31.985442) scale(0.1 -0.1)">
     <defs>
      <path id="ArialMT-2a" d="M 200 3741 
L 344 4184 
Q 841 4009 1066 3881 
Q 1006 4447 1003 4659 
L 1456 4659 
Q 1447 4350 1384 3884 
Q 1706 4047 2122 4184 
L 2266 3741 
Q 1869 3609 1488 3566 
Q 1678 3400 2025 2975 
L 1650 2709 
Q 1469 2956 1222 3381 
Q 991 2941 816 2709 
L 447 2975 
Q 809 3422 966 3566 
Q 563 3644 200 3741 
z
" transform="scale(0.015625)"/>
     </defs>
     <use xlink:href="#ArialMT-2a"/>
     <use xlink:href="#ArialMT-2a" x="38.916016"/>
     <use xlink:href="#ArialMT-2a" x="77.832031"/>
     <use xlink:href="#ArialMT-2a" x="116.748047"/>
    </g>
   </g>
  </g>
 </g>
 <defs>
  <clipPath id="p571e3e6b7f">
   <rect x="73.22625" y="7.2" width="167.4" height="221.76"/>
  </clipPath>
 </defs>
</svg>
