<?xml version="1.0" encoding="utf-8" standalone="no"?>
<!DOCTYPE svg PUBLIC "-//W3C//DTD SVG 1.1//EN"
  "http://www.w3.org/Graphics/SVG/1.1/DTD/svg11.dtd">
<svg xmlns:xlink="http://www.w3.org/1999/xlink" width="242.265312pt" height="254.805312pt" viewBox="0 0 242.265312 254.805312" xmlns="http://www.w3.org/2000/svg" version="1.1">
 <metadata>
  <rdf:RDF xmlns:dc="http://purl.org/dc/elements/1.1/" xmlns:cc="http://creativecommons.org/ns#" xmlns:rdf="http://www.w3.org/1999/02/22-rdf-syntax-ns#">
   <cc:Work>
    <dc:type rdf:resource="http://purl.org/dc/dcmitype/StillImage"/>
    <dc:date>2025-08-13T11:21:58.770809</dc:date>
    <dc:format>image/svg+xml</dc:format>
    <dc:creator>
     <cc:Agent>
      <dc:title>Matplotlib v3.9.2, https://matplotlib.org/</dc:title>
     </cc:Agent>
    </dc:creator>
   </cc:Work>
  </rdf:RDF>
 </metadata>
 <defs>
  <style type="text/css">*{stroke-linejoin: round; stroke-linecap: butt}</style>
 </defs>
 <g id="figure_1">
  <g id="patch_1">
   <path d="M -0 254.805312 
L 242.265313 254.805312 
L 242.265313 0 
L -0 0 
z
" style="fill: #ffffff"/>
  </g>
  <g id="axes_1">
   <g id="patch_2">
    <path d="M 67.665313 228.96 
L 235.065313 228.96 
L 235.065313 7.2 
L 67.665313 7.2 
z
" style="fill: #ffffff"/>
   </g>
   <g id="matplotlib.axis_1">
    <g id="xtick_1">
     <g id="text_1">
      <!-- Full-term -->
      <g style="fill: #262626" transform="translate(89.372273 245.617812) scale(0.1 -0.1)">
       <defs>
        <path id="ArialMT-46" d="M 525 0 
L 525 4581 
L 3616 4581 
L 3616 4041 
L 1131 4041 
L 1131 2622 
L 3281 2622 
L 3281 2081 
L 1131 2081 
L 1131 0 
L 525 0 
z
" transform="scale(0.015625)"/>
        <path id="ArialMT-75" d="M 2597 0 
L 2597 488 
Q 2209 -75 1544 -75 
Q 1250 -75 995 37 
Q 741 150 617 320 
Q 494 491 444 738 
Q 409 903 409 1263 
L 409 3319 
L 972 3319 
L 972 1478 
Q 972 1038 1006 884 
Q 1059 663 1231 536 
Q 1403 409 1656 409 
Q 1909 409 2131 539 
Q 2353 669 2445 892 
Q 2538 1116 2538 1541 
L 2538 3319 
L 3100 3319 
L 3100 0 
L 2597 0 
z
" transform="scale(0.015625)"/>
        <path id="ArialMT-6c" d="M 409 0 
L 409 4581 
L 972 4581 
L 972 0 
L 409 0 
z
" transform="scale(0.015625)"/>
        <path id="ArialMT-2d" d="M 203 1375 
L 203 1941 
L 1931 1941 
L 1931 1375 
L 203 1375 
z
" transform="scale(0.015625)"/>
        <path id="ArialMT-74" d="M 1650 503 
L 1731 6 
Q 1494 -44 1306 -44 
Q 1000 -44 831 53 
Q 663 150 594 308 
Q 525 466 525 972 
L 525 2881 
L 113 2881 
L 113 3319 
L 525 3319 
L 525 4141 
L 1084 4478 
L 1084 3319 
L 1650 3319 
L 1650 2881 
L 1084 2881 
L 1084 941 
Q 1084 700 1114 631 
Q 1144 563 1211 522 
Q 1278 481 1403 481 
Q 1497 481 1650 503 
z
" transform="scale(0.015625)"/>
        <path id="ArialMT-65" d="M 2694 1069 
L 3275 997 
Q 3138 488 2766 206 
Q 2394 -75 1816 -75 
Q 1088 -75 661 373 
Q 234 822 234 1631 
Q 234 2469 665 2931 
Q 1097 3394 1784 3394 
Q 2450 3394 2872 2941 
Q 3294 2488 3294 1666 
Q 3294 1616 3291 1516 
L 816 1516 
Q 847 969 1125 678 
Q 1403 388 1819 388 
Q 2128 388 2347 550 
Q 2566 713 2694 1069 
z
M 847 1978 
L 2700 1978 
Q 2663 2397 2488 2606 
Q 2219 2931 1791 2931 
Q 1403 2931 1139 2672 
Q 875 2413 847 1978 
z
" transform="scale(0.015625)"/>
        <path id="ArialMT-72" d="M 416 0 
L 416 3319 
L 922 3319 
L 922 2816 
Q 1116 3169 1280 3281 
Q 1444 3394 1641 3394 
Q 1925 3394 2219 3213 
L 2025 2691 
Q 1819 2813 1613 2813 
Q 1428 2813 1281 2702 
Q 1134 2591 1072 2394 
Q 978 2094 978 1738 
L 978 0 
L 416 0 
z
" transform="scale(0.015625)"/>
        <path id="ArialMT-6d" d="M 422 0 
L 422 3319 
L 925 3319 
L 925 2853 
Q 1081 3097 1340 3245 
Q 1600 3394 1931 3394 
Q 2300 3394 2536 3241 
Q 2772 3088 2869 2813 
Q 3263 3394 3894 3394 
Q 4388 3394 4653 3120 
Q 4919 2847 4919 2278 
L 4919 0 
L 4359 0 
L 4359 2091 
Q 4359 2428 4304 2576 
Q 4250 2725 4106 2815 
Q 3963 2906 3769 2906 
Q 3419 2906 3187 2673 
Q 2956 2441 2956 1928 
L 2956 0 
L 2394 0 
L 2394 2156 
Q 2394 2531 2256 2718 
Q 2119 2906 1806 2906 
Q 1569 2906 1367 2781 
Q 1166 2656 1075 2415 
Q 984 2175 984 1722 
L 984 0 
L 422 0 
z
" transform="scale(0.015625)"/>
       </defs>
       <use xlink:href="#ArialMT-46"/>
       <use xlink:href="#ArialMT-75" x="61.083984"/>
       <use xlink:href="#ArialMT-6c" x="116.699219"/>
       <use xlink:href="#ArialMT-6c" x="138.916016"/>
       <use xlink:href="#ArialMT-2d" x="161.132812"/>
       <use xlink:href="#ArialMT-74" x="194.433594"/>
       <use xlink:href="#ArialMT-65" x="222.216797"/>
       <use xlink:href="#ArialMT-72" x="277.832031"/>
       <use xlink:href="#ArialMT-6d" x="311.132812"/>
      </g>
     </g>
    </g>
    <g id="xtick_2">
     <g id="text_2">
      <!-- Preterm -->
      <g style="fill: #262626" transform="translate(175.858352 245.617812) scale(0.1 -0.1)">
       <defs>
        <path id="ArialMT-50" d="M 494 0 
L 494 4581 
L 2222 4581 
Q 2678 4581 2919 4538 
Q 3256 4481 3484 4323 
Q 3713 4166 3852 3881 
Q 3991 3597 3991 3256 
Q 3991 2672 3619 2267 
Q 3247 1863 2275 1863 
L 1100 1863 
L 1100 0 
L 494 0 
z
M 1100 2403 
L 2284 2403 
Q 2872 2403 3119 2622 
Q 3366 2841 3366 3238 
Q 3366 3525 3220 3729 
Q 3075 3934 2838 4000 
Q 2684 4041 2272 4041 
L 1100 4041 
L 1100 2403 
z
" transform="scale(0.015625)"/>
       </defs>
       <use xlink:href="#ArialMT-50"/>
       <use xlink:href="#ArialMT-72" x="66.699219"/>
       <use xlink:href="#ArialMT-65" x="100"/>
       <use xlink:href="#ArialMT-74" x="155.615234"/>
       <use xlink:href="#ArialMT-65" x="183.398438"/>
       <use xlink:href="#ArialMT-72" x="239.013672"/>
       <use xlink:href="#ArialMT-6d" x="272.314453"/>
      </g>
     </g>
    </g>
   </g>
   <g id="matplotlib.axis_2">
    <g id="ytick_1">
     <g id="text_3">
      <!-- −20000 -->
      <g style="fill: #262626" transform="translate(24.52 230.976855) scale(0.1 -0.1)">
       <defs>
        <path id="ArialMT-2212" d="M 3381 1997 
L 356 1997 
L 356 2522 
L 3381 2522 
L 3381 1997 
z
" transform="scale(0.015625)"/>
        <path id="ArialMT-32" d="M 3222 541 
L 3222 0 
L 194 0 
Q 188 203 259 391 
Q 375 700 629 1000 
Q 884 1300 1366 1694 
Q 2113 2306 2375 2664 
Q 2638 3022 2638 3341 
Q 2638 3675 2398 3904 
Q 2159 4134 1775 4134 
Q 1369 4134 1125 3890 
Q 881 3647 878 3216 
L 300 3275 
Q 359 3922 746 4261 
Q 1134 4600 1788 4600 
Q 2447 4600 2831 4234 
Q 3216 3869 3216 3328 
Q 3216 3053 3103 2787 
Q 2991 2522 2730 2228 
Q 2469 1934 1863 1422 
Q 1356 997 1212 845 
Q 1069 694 975 541 
L 3222 541 
z
" transform="scale(0.015625)"/>
        <path id="ArialMT-30" d="M 266 2259 
Q 266 3072 433 3567 
Q 600 4063 929 4331 
Q 1259 4600 1759 4600 
Q 2128 4600 2406 4451 
Q 2684 4303 2865 4023 
Q 3047 3744 3150 3342 
Q 3253 2941 3253 2259 
Q 3253 1453 3087 958 
Q 2922 463 2592 192 
Q 2263 -78 1759 -78 
Q 1097 -78 719 397 
Q 266 969 266 2259 
z
M 844 2259 
Q 844 1131 1108 757 
Q 1372 384 1759 384 
Q 2147 384 2411 759 
Q 2675 1134 2675 2259 
Q 2675 3391 2411 3762 
Q 2147 4134 1753 4134 
Q 1366 4134 1134 3806 
Q 844 3388 844 2259 
z
" transform="scale(0.015625)"/>
       </defs>
       <use xlink:href="#ArialMT-2212"/>
       <use xlink:href="#ArialMT-32" x="58.398438"/>
       <use xlink:href="#ArialMT-30" x="114.013672"/>
       <use xlink:href="#ArialMT-30" x="169.628906"/>
       <use xlink:href="#ArialMT-30" x="225.244141"/>
       <use xlink:href="#ArialMT-30" x="280.859375"/>
      </g>
     </g>
    </g>
    <g id="ytick_2">
     <g id="text_4">
      <!-- −15000 -->
      <g style="fill: #262626" transform="translate(24.52 202.30794) scale(0.1 -0.1)">
       <defs>
        <path id="ArialMT-31" d="M 2384 0 
L 1822 0 
L 1822 3584 
Q 1619 3391 1289 3197 
Q 959 3003 697 2906 
L 697 3450 
Q 1169 3672 1522 3987 
Q 1875 4303 2022 4600 
L 2384 4600 
L 2384 0 
z
" transform="scale(0.015625)"/>
        <path id="ArialMT-35" d="M 266 1200 
L 856 1250 
Q 922 819 1161 601 
Q 1400 384 1738 384 
Q 2144 384 2425 690 
Q 2706 997 2706 1503 
Q 2706 1984 2436 2262 
Q 2166 2541 1728 2541 
Q 1456 2541 1237 2417 
Q 1019 2294 894 2097 
L 366 2166 
L 809 4519 
L 3088 4519 
L 3088 3981 
L 1259 3981 
L 1013 2750 
Q 1425 3038 1878 3038 
Q 2478 3038 2890 2622 
Q 3303 2206 3303 1553 
Q 3303 931 2941 478 
Q 2500 -78 1738 -78 
Q 1113 -78 717 272 
Q 322 622 266 1200 
z
" transform="scale(0.015625)"/>
       </defs>
       <use xlink:href="#ArialMT-2212"/>
       <use xlink:href="#ArialMT-31" x="58.398438"/>
       <use xlink:href="#ArialMT-35" x="114.013672"/>
       <use xlink:href="#ArialMT-30" x="169.628906"/>
       <use xlink:href="#ArialMT-30" x="225.244141"/>
       <use xlink:href="#ArialMT-30" x="280.859375"/>
      </g>
     </g>
    </g>
    <g id="ytick_3">
     <g id="text_5">
      <!-- −10000 -->
      <g style="fill: #262626" transform="translate(24.52 173.639026) scale(0.1 -0.1)">
       <use xlink:href="#ArialMT-2212"/>
       <use xlink:href="#ArialMT-31" x="58.398438"/>
       <use xlink:href="#ArialMT-30" x="114.013672"/>
       <use xlink:href="#ArialMT-30" x="169.628906"/>
       <use xlink:href="#ArialMT-30" x="225.244141"/>
       <use xlink:href="#ArialMT-30" x="280.859375"/>
      </g>
     </g>
    </g>
    <g id="ytick_4">
     <g id="text_6">
      <!-- −5000 -->
      <g style="fill: #262626" transform="translate(30.080938 144.970111) scale(0.1 -0.1)">
       <use xlink:href="#ArialMT-2212"/>
       <use xlink:href="#ArialMT-35" x="58.398438"/>
       <use xlink:href="#ArialMT-30" x="114.013672"/>
       <use xlink:href="#ArialMT-30" x="169.628906"/>
       <use xlink:href="#ArialMT-30" x="225.244141"/>
      </g>
     </g>
    </g>
    <g id="ytick_5">
     <g id="text_7">
      <!-- 0 -->
      <g style="fill: #262626" transform="translate(52.604375 116.301196) scale(0.1 -0.1)">
       <use xlink:href="#ArialMT-30"/>
      </g>
     </g>
    </g>
    <g id="ytick_6">
     <g id="text_8">
      <!-- 5000 -->
      <g style="fill: #262626" transform="translate(35.921563 87.632281) scale(0.1 -0.1)">
       <use xlink:href="#ArialMT-35"/>
       <use xlink:href="#ArialMT-30" x="55.615234"/>
       <use xlink:href="#ArialMT-30" x="111.230469"/>
       <use xlink:href="#ArialMT-30" x="166.845703"/>
      </g>
     </g>
    </g>
    <g id="ytick_7">
     <g id="text_9">
      <!-- 10000 -->
      <g style="fill: #262626" transform="translate(30.360625 58.963366) scale(0.1 -0.1)">
       <use xlink:href="#ArialMT-31"/>
       <use xlink:href="#ArialMT-30" x="55.615234"/>
       <use xlink:href="#ArialMT-30" x="111.230469"/>
       <use xlink:href="#ArialMT-30" x="166.845703"/>
       <use xlink:href="#ArialMT-30" x="222.460938"/>
      </g>
     </g>
    </g>
    <g id="ytick_8">
     <g id="text_10">
      <!-- 15000 -->
      <g style="fill: #262626" transform="translate(30.360625 30.294451) scale(0.1 -0.1)">
       <use xlink:href="#ArialMT-31"/>
       <use xlink:href="#ArialMT-35" x="55.615234"/>
       <use xlink:href="#ArialMT-30" x="111.230469"/>
       <use xlink:href="#ArialMT-30" x="166.845703"/>
       <use xlink:href="#ArialMT-30" x="222.460938"/>
      </g>
     </g>
    </g>
    <g id="text_11">
     <!-- sGMV residuals [mm$^3$] -->
     <g style="fill: #262626" transform="translate(18.12 178.32) rotate(-90) scale(0.12 -0.12)">
      <defs>
       <path id="ArialMT-73" d="M 197 991 
L 753 1078 
Q 800 744 1014 566 
Q 1228 388 1613 388 
Q 2000 388 2187 545 
Q 2375 703 2375 916 
Q 2375 1106 2209 1216 
Q 2094 1291 1634 1406 
Q 1016 1563 777 1677 
Q 538 1791 414 1992 
Q 291 2194 291 2438 
Q 291 2659 392 2848 
Q 494 3038 669 3163 
Q 800 3259 1026 3326 
Q 1253 3394 1513 3394 
Q 1903 3394 2198 3281 
Q 2494 3169 2634 2976 
Q 2775 2784 2828 2463 
L 2278 2388 
Q 2241 2644 2061 2787 
Q 1881 2931 1553 2931 
Q 1166 2931 1000 2803 
Q 834 2675 834 2503 
Q 834 2394 903 2306 
Q 972 2216 1119 2156 
Q 1203 2125 1616 2013 
Q 2213 1853 2448 1751 
Q 2684 1650 2818 1456 
Q 2953 1263 2953 975 
Q 2953 694 2789 445 
Q 2625 197 2315 61 
Q 2006 -75 1616 -75 
Q 969 -75 630 194 
Q 291 463 197 991 
z
" transform="scale(0.015625)"/>
       <path id="ArialMT-47" d="M 2638 1797 
L 2638 2334 
L 4578 2338 
L 4578 638 
Q 4131 281 3656 101 
Q 3181 -78 2681 -78 
Q 2006 -78 1454 211 
Q 903 500 622 1047 
Q 341 1594 341 2269 
Q 341 2938 620 3517 
Q 900 4097 1425 4378 
Q 1950 4659 2634 4659 
Q 3131 4659 3532 4498 
Q 3934 4338 4162 4050 
Q 4391 3763 4509 3300 
L 3963 3150 
Q 3859 3500 3706 3700 
Q 3553 3900 3268 4020 
Q 2984 4141 2638 4141 
Q 2222 4141 1919 4014 
Q 1616 3888 1430 3681 
Q 1244 3475 1141 3228 
Q 966 2803 966 2306 
Q 966 1694 1177 1281 
Q 1388 869 1791 669 
Q 2194 469 2647 469 
Q 3041 469 3416 620 
Q 3791 772 3984 944 
L 3984 1797 
L 2638 1797 
z
" transform="scale(0.015625)"/>
       <path id="ArialMT-4d" d="M 475 0 
L 475 4581 
L 1388 4581 
L 2472 1338 
Q 2622 884 2691 659 
Q 2769 909 2934 1394 
L 4031 4581 
L 4847 4581 
L 4847 0 
L 4263 0 
L 4263 3834 
L 2931 0 
L 2384 0 
L 1059 3900 
L 1059 0 
L 475 0 
z
" transform="scale(0.015625)"/>
       <path id="ArialMT-56" d="M 1803 0 
L 28 4581 
L 684 4581 
L 1875 1253 
Q 2019 853 2116 503 
Q 2222 878 2363 1253 
L 3600 4581 
L 4219 4581 
L 2425 0 
L 1803 0 
z
" transform="scale(0.015625)"/>
       <path id="ArialMT-20" transform="scale(0.015625)"/>
       <path id="ArialMT-69" d="M 425 3934 
L 425 4581 
L 988 4581 
L 988 3934 
L 425 3934 
z
M 425 0 
L 425 3319 
L 988 3319 
L 988 0 
L 425 0 
z
" transform="scale(0.015625)"/>
       <path id="ArialMT-64" d="M 2575 0 
L 2575 419 
Q 2259 -75 1647 -75 
Q 1250 -75 917 144 
Q 584 363 401 755 
Q 219 1147 219 1656 
Q 219 2153 384 2558 
Q 550 2963 881 3178 
Q 1213 3394 1622 3394 
Q 1922 3394 2156 3267 
Q 2391 3141 2538 2938 
L 2538 4581 
L 3097 4581 
L 3097 0 
L 2575 0 
z
M 797 1656 
Q 797 1019 1065 703 
Q 1334 388 1700 388 
Q 2069 388 2326 689 
Q 2584 991 2584 1609 
Q 2584 2291 2321 2609 
Q 2059 2928 1675 2928 
Q 1300 2928 1048 2622 
Q 797 2316 797 1656 
z
" transform="scale(0.015625)"/>
       <path id="ArialMT-61" d="M 2588 409 
Q 2275 144 1986 34 
Q 1697 -75 1366 -75 
Q 819 -75 525 192 
Q 231 459 231 875 
Q 231 1119 342 1320 
Q 453 1522 633 1644 
Q 813 1766 1038 1828 
Q 1203 1872 1538 1913 
Q 2219 1994 2541 2106 
Q 2544 2222 2544 2253 
Q 2544 2597 2384 2738 
Q 2169 2928 1744 2928 
Q 1347 2928 1158 2789 
Q 969 2650 878 2297 
L 328 2372 
Q 403 2725 575 2942 
Q 747 3159 1072 3276 
Q 1397 3394 1825 3394 
Q 2250 3394 2515 3294 
Q 2781 3194 2906 3042 
Q 3031 2891 3081 2659 
Q 3109 2516 3109 2141 
L 3109 1391 
Q 3109 606 3145 398 
Q 3181 191 3288 0 
L 2700 0 
Q 2613 175 2588 409 
z
M 2541 1666 
Q 2234 1541 1622 1453 
Q 1275 1403 1131 1340 
Q 988 1278 909 1158 
Q 831 1038 831 891 
Q 831 666 1001 516 
Q 1172 366 1500 366 
Q 1825 366 2078 508 
Q 2331 650 2450 897 
Q 2541 1088 2541 1459 
L 2541 1666 
z
" transform="scale(0.015625)"/>
       <path id="ArialMT-5b" d="M 434 -1272 
L 434 4581 
L 1675 4581 
L 1675 4116 
L 997 4116 
L 997 -806 
L 1675 -806 
L 1675 -1272 
L 434 -1272 
z
" transform="scale(0.015625)"/>
       <path id="DejaVuSans-33" d="M 2597 2516 
Q 3050 2419 3304 2112 
Q 3559 1806 3559 1356 
Q 3559 666 3084 287 
Q 2609 -91 1734 -91 
Q 1441 -91 1130 -33 
Q 819 25 488 141 
L 488 750 
Q 750 597 1062 519 
Q 1375 441 1716 441 
Q 2309 441 2620 675 
Q 2931 909 2931 1356 
Q 2931 1769 2642 2001 
Q 2353 2234 1838 2234 
L 1294 2234 
L 1294 2753 
L 1863 2753 
Q 2328 2753 2575 2939 
Q 2822 3125 2822 3475 
Q 2822 3834 2567 4026 
Q 2313 4219 1838 4219 
Q 1578 4219 1281 4162 
Q 984 4106 628 3988 
L 628 4550 
Q 988 4650 1302 4700 
Q 1616 4750 1894 4750 
Q 2613 4750 3031 4423 
Q 3450 4097 3450 3541 
Q 3450 3153 3228 2886 
Q 3006 2619 2597 2516 
z
" transform="scale(0.015625)"/>
       <path id="ArialMT-5d" d="M 1363 -1272 
L 122 -1272 
L 122 -806 
L 800 -806 
L 800 4116 
L 122 4116 
L 122 4581 
L 1363 4581 
L 1363 -1272 
z
" transform="scale(0.015625)"/>
      </defs>
      <use xlink:href="#ArialMT-73" transform="translate(0 0.765625)"/>
      <use xlink:href="#ArialMT-47" transform="translate(50 0.765625)"/>
      <use xlink:href="#ArialMT-4d" transform="translate(127.783203 0.765625)"/>
      <use xlink:href="#ArialMT-56" transform="translate(211.083984 0.765625)"/>
      <use xlink:href="#ArialMT-20" transform="translate(277.783203 0.765625)"/>
      <use xlink:href="#ArialMT-72" transform="translate(305.566406 0.765625)"/>
      <use xlink:href="#ArialMT-65" transform="translate(338.867188 0.765625)"/>
      <use xlink:href="#ArialMT-73" transform="translate(394.482422 0.765625)"/>
      <use xlink:href="#ArialMT-69" transform="translate(444.482422 0.765625)"/>
      <use xlink:href="#ArialMT-64" transform="translate(466.699219 0.765625)"/>
      <use xlink:href="#ArialMT-75" transform="translate(522.314453 0.765625)"/>
      <use xlink:href="#ArialMT-61" transform="translate(577.929688 0.765625)"/>
      <use xlink:href="#ArialMT-6c" transform="translate(633.544922 0.765625)"/>
      <use xlink:href="#ArialMT-73" transform="translate(655.761719 0.765625)"/>
      <use xlink:href="#ArialMT-20" transform="translate(705.761719 0.765625)"/>
      <use xlink:href="#ArialMT-5b" transform="translate(733.544922 0.765625)"/>
      <use xlink:href="#ArialMT-6d" transform="translate(761.328125 0.765625)"/>
      <use xlink:href="#ArialMT-6d" transform="translate(844.628906 0.765625)"/>
      <use xlink:href="#DejaVuSans-33" transform="translate(928.886719 39.046875) scale(0.7)"/>
      <use xlink:href="#ArialMT-5d" transform="translate(976.157227 0.765625)"/>
     </g>
    </g>
   </g>
   <g id="PolyCollection_1">
    <defs>
     <path id="mc584ff52fd" d="M 109.206799 -54.730751 
L 108.978372 -54.730751 
L 108.929026 -56.494269 
L 108.866472 -58.257787 
L 108.790785 -60.021305 
L 108.703609 -61.784823 
L 108.608359 -63.548341 
L 108.510126 -65.311859 
L 108.415197 -67.075377 
L 108.330209 -68.838895 
L 108.261056 -70.602414 
L 108.211746 -72.365932 
L 108.183486 -74.12945 
L 108.174208 -75.892968 
L 108.178706 -77.656486 
L 108.189375 -79.420004 
L 108.197408 -81.183522 
L 108.194189 -82.94704 
L 108.172521 -84.710558 
L 108.127413 -86.474076 
L 108.056218 -88.237594 
L 107.958095 -90.001112 
L 107.832929 -91.76463 
L 107.679982 -93.528148 
L 107.496625 -95.291667 
L 107.277439 -97.055185 
L 107.013945 -98.818703 
L 106.695021 -100.582221 
L 106.307967 -102.345739 
L 105.840008 -104.109257 
L 105.279988 -105.872775 
L 104.619952 -107.636293 
L 103.856358 -109.399811 
L 102.990717 -111.163329 
L 102.029556 -112.926847 
L 100.98368 -114.690365 
L 99.866833 -116.453883 
L 98.693918 -118.217401 
L 97.47902 -119.98092 
L 96.233524 -121.744438 
L 94.964623 -123.507956 
L 93.67452 -125.271474 
L 92.360556 -127.034992 
L 91.01639 -128.79851 
L 89.634194 -130.562028 
L 88.207619 -132.325546 
L 86.735127 -134.089064 
L 85.223092 -135.852582 
L 83.688105 -137.6161 
L 82.157968 -139.379618 
L 80.671052 -141.143136 
L 79.273955 -142.906654 
L 78.017609 -144.670173 
L 76.952234 -146.433691 
L 76.121697 -148.197209 
L 75.558 -149.960727 
L 75.276744 -151.724245 
L 75.274403 -153.487763 
L 75.528106 -155.251281 
L 75.998243 -157.014799 
L 76.633702 -158.778317 
L 77.378899 -160.541835 
L 78.181353 -162.305353 
L 78.998326 -164.068871 
L 79.801321 -165.832389 
L 80.577731 -167.595907 
L 81.329642 -169.359426 
L 82.070448 -171.122944 
L 82.820288 -172.886462 
L 83.601402 -174.64998 
L 84.434268 -176.413498 
L 85.334997 -178.177016 
L 86.314057 -179.940534 
L 87.376129 -181.704052 
L 88.520683 -183.46757 
L 89.742871 -185.231088 
L 91.034382 -186.994606 
L 92.384015 -188.758124 
L 93.777904 -190.521642 
L 95.199471 -192.28516 
L 96.629337 -194.048679 
L 98.045493 -195.812197 
L 99.424006 -197.575715 
L 100.740399 -199.339233 
L 101.971603 -201.102751 
L 103.098167 -202.866269 
L 104.106259 -204.629787 
L 104.988959 -206.393305 
L 105.746537 -208.156823 
L 106.385643 -209.920341 
L 106.917643 -211.683859 
L 107.356503 -213.447377 
L 107.716732 -215.210895 
L 108.011768 -216.974413 
L 108.253033 -218.737932 
L 108.449666 -220.50145 
L 108.608768 -222.264968 
L 108.735926 -224.028486 
L 108.835768 -225.792004 
L 108.912403 -227.555522 
L 108.969667 -229.31904 
L 109.215503 -229.31904 
L 109.215503 -229.31904 
L 109.272768 -227.555522 
L 109.349403 -225.792004 
L 109.449244 -224.028486 
L 109.576402 -222.264968 
L 109.735505 -220.50145 
L 109.932138 -218.737932 
L 110.173403 -216.974413 
L 110.468438 -215.210895 
L 110.828667 -213.447377 
L 111.267527 -211.683859 
L 111.799527 -209.920341 
L 112.438634 -208.156823 
L 113.196211 -206.393305 
L 114.078911 -204.629787 
L 115.087003 -202.866269 
L 116.213568 -201.102751 
L 117.444771 -199.339233 
L 118.761164 -197.575715 
L 120.139678 -195.812197 
L 121.555833 -194.048679 
L 122.9857 -192.28516 
L 124.407267 -190.521642 
L 125.801156 -188.758124 
L 127.150789 -186.994606 
L 128.442299 -185.231088 
L 129.664488 -183.46757 
L 130.809042 -181.704052 
L 131.871114 -179.940534 
L 132.850174 -178.177016 
L 133.750902 -176.413498 
L 134.583769 -174.64998 
L 135.364883 -172.886462 
L 136.114722 -171.122944 
L 136.855528 -169.359426 
L 137.607439 -167.595907 
L 138.383849 -165.832389 
L 139.186845 -164.068871 
L 140.003817 -162.305353 
L 140.806271 -160.541835 
L 141.551469 -158.778317 
L 142.186927 -157.014799 
L 142.657064 -155.251281 
L 142.910767 -153.487763 
L 142.908427 -151.724245 
L 142.627171 -149.960727 
L 142.063474 -148.197209 
L 141.232936 -146.433691 
L 140.167562 -144.670173 
L 138.911216 -142.906654 
L 137.514119 -141.143136 
L 136.027203 -139.379618 
L 134.497065 -137.6161 
L 132.962078 -135.852582 
L 131.450043 -134.089064 
L 129.977551 -132.325546 
L 128.550977 -130.562028 
L 127.16878 -128.79851 
L 125.824615 -127.034992 
L 124.510651 -125.271474 
L 123.220547 -123.507956 
L 121.951646 -121.744438 
L 120.70615 -119.98092 
L 119.491253 -118.217401 
L 118.318337 -116.453883 
L 117.201491 -114.690365 
L 116.155615 -112.926847 
L 115.194454 -111.163329 
L 114.328813 -109.399811 
L 113.565219 -107.636293 
L 112.905182 -105.872775 
L 112.345163 -104.109257 
L 111.877204 -102.345739 
L 111.49015 -100.582221 
L 111.171226 -98.818703 
L 110.907731 -97.055185 
L 110.688545 -95.291667 
L 110.505188 -93.528148 
L 110.352242 -91.76463 
L 110.227075 -90.001112 
L 110.128952 -88.237594 
L 110.057758 -86.474076 
L 110.01265 -84.710558 
L 109.990982 -82.94704 
L 109.987762 -81.183522 
L 109.995796 -79.420004 
L 110.006464 -77.656486 
L 110.010962 -75.892968 
L 110.001685 -74.12945 
L 109.973425 -72.365932 
L 109.924115 -70.602414 
L 109.854961 -68.838895 
L 109.769974 -67.075377 
L 109.675045 -65.311859 
L 109.576812 -63.548341 
L 109.481562 -61.784823 
L 109.394385 -60.021305 
L 109.318699 -58.257787 
L 109.256144 -56.494269 
L 109.206799 -54.730751 
z
" style="stroke: #4c4c4c; stroke-width: 0.5"/>
    </defs>
    <g clip-path="url(#p41cdf68589)">
     <use xlink:href="#mc584ff52fd" x="0" y="254.805312" style="fill: #5573cd; stroke: #4c4c4c; stroke-width: 0.5"/>
    </g>
   </g>
   <g id="PolyCollection_2">
    <defs>
     <path id="mbd7c8a2bc3" d="M 193.975383 -35.811067 
L 193.300696 -35.811067 
L 193.163064 -37.824351 
L 192.983689 -39.837634 
L 192.755517 -41.850918 
L 192.472072 -43.864202 
L 192.127955 -45.877486 
L 191.71928 -47.890769 
L 191.243975 -49.904053 
L 190.701888 -51.917337 
L 190.094689 -53.930621 
L 189.425578 -55.943904 
L 188.698894 -57.957188 
L 187.919688 -59.970472 
L 187.093405 -61.983756 
L 186.225709 -63.997039 
L 185.322518 -66.010323 
L 184.3902 -68.023607 
L 183.435853 -70.03689 
L 182.467547 -72.050174 
L 181.494409 -74.063458 
L 180.526449 -76.076742 
L 179.574081 -78.090025 
L 178.647352 -80.103309 
L 177.754955 -82.116593 
L 176.903144 -84.129877 
L 176.094684 -86.14316 
L 175.32802 -88.156444 
L 174.596779 -90.169728 
L 173.889763 -92.183012 
L 173.191523 -94.196295 
L 172.483569 -96.209579 
L 171.74618 -98.222863 
L 170.960719 -100.236146 
L 170.112211 -102.24943 
L 169.1919 -104.262714 
L 168.19939 -106.275998 
L 167.144035 -108.289281 
L 166.04527 -110.302565 
L 164.931743 -112.315849 
L 163.839276 -114.329133 
L 162.807893 -116.342416 
L 161.878288 -118.3557 
L 161.088212 -120.368984 
L 160.469262 -122.382268 
L 160.044478 -124.395551 
L 159.826995 -126.408835 
L 159.819858 -128.422119 
L 160.016901 -130.435403 
L 160.404486 -132.448686 
L 160.963794 -134.46197 
L 161.673333 -136.475254 
L 162.511332 -138.488537 
L 163.457763 -140.501821 
L 164.495757 -142.515105 
L 165.612299 -144.528389 
L 166.798173 -146.541672 
L 168.047193 -148.554956 
L 169.354896 -150.56824 
L 170.716915 -152.581524 
L 172.127331 -154.594807 
L 173.57731 -156.608091 
L 175.054286 -158.621375 
L 176.541851 -160.634659 
L 178.020419 -162.647942 
L 179.468519 -164.661226 
L 180.864517 -166.67451 
L 182.188432 -168.687793 
L 183.423544 -170.701077 
L 184.557521 -172.714361 
L 185.582941 -174.727645 
L 186.497173 -176.740928 
L 187.301763 -178.754212 
L 188.001503 -180.767496 
L 188.603417 -182.78078 
L 189.115871 -184.794063 
L 189.547909 -186.807347 
L 189.908877 -188.820631 
L 190.208271 -190.833915 
L 190.455727 -192.847198 
L 190.661024 -194.860482 
L 190.83401 -196.873766 
L 190.984391 -198.887049 
L 191.121383 -200.900333 
L 191.253268 -202.913617 
L 191.386916 -204.926901 
L 191.527389 -206.940184 
L 191.677666 -208.953468 
L 191.838577 -210.966752 
L 192.008938 -212.980036 
L 192.185892 -214.993319 
L 192.365391 -217.006603 
L 192.542764 -219.019887 
L 192.713291 -221.033171 
L 192.872709 -223.046454 
L 193.017606 -225.059738 
L 193.145655 -227.073022 
L 193.255692 -229.086306 
L 193.347659 -231.099589 
L 193.42243 -233.112873 
L 193.481574 -235.126157 
L 193.794506 -235.126157 
L 193.794506 -235.126157 
L 193.85365 -233.112873 
L 193.92842 -231.099589 
L 194.020388 -229.086306 
L 194.130425 -227.073022 
L 194.258473 -225.059738 
L 194.40337 -223.046454 
L 194.562789 -221.033171 
L 194.733316 -219.019887 
L 194.910689 -217.006603 
L 195.090187 -214.993319 
L 195.267141 -212.980036 
L 195.437503 -210.966752 
L 195.598413 -208.953468 
L 195.74869 -206.940184 
L 195.889163 -204.926901 
L 196.022812 -202.913617 
L 196.154696 -200.900333 
L 196.291689 -198.887049 
L 196.44207 -196.873766 
L 196.615055 -194.860482 
L 196.820352 -192.847198 
L 197.067809 -190.833915 
L 197.367203 -188.820631 
L 197.72817 -186.807347 
L 198.160208 -184.794063 
L 198.672662 -182.78078 
L 199.274577 -180.767496 
L 199.974316 -178.754212 
L 200.778907 -176.740928 
L 201.693139 -174.727645 
L 202.718558 -172.714361 
L 203.852536 -170.701077 
L 205.087647 -168.687793 
L 206.411563 -166.67451 
L 207.807561 -164.661226 
L 209.255661 -162.647942 
L 210.734229 -160.634659 
L 212.221794 -158.621375 
L 213.698769 -156.608091 
L 215.148749 -154.594807 
L 216.559165 -152.581524 
L 217.921183 -150.56824 
L 219.228886 -148.554956 
L 220.477907 -146.541672 
L 221.663781 -144.528389 
L 222.780323 -142.515105 
L 223.818316 -140.501821 
L 224.764748 -138.488537 
L 225.602747 -136.475254 
L 226.312285 -134.46197 
L 226.871594 -132.448686 
L 227.259179 -130.435403 
L 227.456222 -128.422119 
L 227.449084 -126.408835 
L 227.231601 -124.395551 
L 226.806817 -122.382268 
L 226.187868 -120.368984 
L 225.397791 -118.3557 
L 224.468186 -116.342416 
L 223.436804 -114.329133 
L 222.344337 -112.315849 
L 221.230809 -110.302565 
L 220.132045 -108.289281 
L 219.07669 -106.275998 
L 218.08418 -104.262714 
L 217.163868 -102.24943 
L 216.315361 -100.236146 
L 215.5299 -98.222863 
L 214.792511 -96.209579 
L 214.084557 -94.196295 
L 213.386317 -92.183012 
L 212.6793 -90.169728 
L 211.948059 -88.156444 
L 211.181395 -86.14316 
L 210.372936 -84.129877 
L 209.521124 -82.116593 
L 208.628728 -80.103309 
L 207.701999 -78.090025 
L 206.74963 -76.076742 
L 205.78167 -74.063458 
L 204.808532 -72.050174 
L 203.840226 -70.03689 
L 202.885879 -68.023607 
L 201.953562 -66.010323 
L 201.050371 -63.997039 
L 200.182675 -61.983756 
L 199.356391 -59.970472 
L 198.577186 -57.957188 
L 197.850501 -55.943904 
L 197.181391 -53.930621 
L 196.574192 -51.917337 
L 196.032105 -49.904053 
L 195.5568 -47.890769 
L 195.148124 -45.877486 
L 194.804007 -43.864202 
L 194.520563 -41.850918 
L 194.292391 -39.837634 
L 194.113015 -37.824351 
L 193.975383 -35.811067 
z
" style="stroke: #4c4c4c; stroke-width: 0.5"/>
    </defs>
    <g clip-path="url(#p41cdf68589)">
     <use xlink:href="#mbd7c8a2bc3" x="0" y="254.805312" style="fill: #df8920; stroke: #4c4c4c; stroke-width: 0.5"/>
    </g>
   </g>
   <g id="line2d_1">
    <path d="M 109.092585 159.51357 
L 109.092585 44.223379 
" clip-path="url(#p41cdf68589)" style="fill: none; stroke: #4c4c4c; stroke-width: 0.75; stroke-linecap: round"/>
   </g>
   <g id="line2d_2">
    <path d="M 109.092585 113.284573 
L 109.092585 81.783277 
" clip-path="url(#p41cdf68589)" style="fill: none; stroke: #4c4c4c; stroke-width: 2.25; stroke-linecap: round"/>
   </g>
   <g id="line2d_3">
    <path d="M 109.092585 99.881851 
" clip-path="url(#p41cdf68589)" style="fill: none; stroke: #4c4c4c; stroke-width: 1.5; stroke-linecap: round"/>
    <defs>
     <path id="madbc8981d4" d="M 0.9375 0 
L -0.9375 -0 
" style="stroke: #ffffff; stroke-width: 0.45"/>
    </defs>
    <g clip-path="url(#p41cdf68589)">
     <use xlink:href="#madbc8981d4" x="109.092585" y="99.881851" style="fill: #ffffff; stroke: #ffffff; stroke-width: 0.45"/>
    </g>
   </g>
   <g id="line2d_4">
    <path d="M 193.63804 193.628381 
L 193.63804 56.463507 
" clip-path="url(#p41cdf68589)" style="fill: none; stroke: #4c4c4c; stroke-width: 0.75; stroke-linecap: round"/>
   </g>
   <g id="line2d_5">
    <path d="M 193.63804 153.196335 
L 193.63804 112.068371 
" clip-path="url(#p41cdf68589)" style="fill: none; stroke: #4c4c4c; stroke-width: 2.25; stroke-linecap: round"/>
   </g>
   <g id="line2d_6">
    <path d="M 193.63804 131.303713 
" clip-path="url(#p41cdf68589)" style="fill: none; stroke: #4c4c4c; stroke-width: 1.5; stroke-linecap: round"/>
    <g clip-path="url(#p41cdf68589)">
     <use xlink:href="#madbc8981d4" x="193.63804" y="131.303713" style="fill: #ffffff; stroke: #ffffff; stroke-width: 0.45"/>
    </g>
   </g>
   <g id="line2d_7">
    <path d="M 109.092585 31.068583 
L 109.092585 26.683651 
L 193.63804 26.683651 
L 193.63804 31.068583 
" style="fill: none; stroke: #333333; stroke-width: 0.5; stroke-linecap: round"/>
   </g>
   <g id="patch_3">
    <path d="M 67.665313 228.96 
L 67.665313 7.2 
" style="fill: none; stroke: #262626; stroke-width: 1.25; stroke-linejoin: miter; stroke-linecap: square"/>
   </g>
   <g id="patch_4">
    <path d="M 67.665312 228.96 
L 235.065313 228.96 
" style="fill: none; stroke: #262626; stroke-width: 1.25; stroke-linejoin: miter; stroke-linecap: square"/>
   </g>
   <g id="text_12">
    <!-- **** -->
    <g style="fill: #262626" transform="translate(143.580938 23.696151) scale(0.1 -0.1)">
     <defs>
      <path id="ArialMT-2a" d="M 200 3741 
L 344 4184 
Q 841 4009 1066 3881 
Q 1006 4447 1003 4659 
L 1456 4659 
Q 1447 4350 1384 3884 
Q 1706 4047 2122 4184 
L 2266 3741 
Q 1869 3609 1488 3566 
Q 1678 3400 2025 2975 
L 1650 2709 
Q 1469 2956 1222 3381 
Q 991 2941 816 2709 
L 447 2975 
Q 809 3422 966 3566 
Q 563 3644 200 3741 
z
" transform="scale(0.015625)"/>
     </defs>
     <use xlink:href="#ArialMT-2a"/>
     <use xlink:href="#ArialMT-2a" x="38.916016"/>
     <use xlink:href="#ArialMT-2a" x="77.832031"/>
     <use xlink:href="#ArialMT-2a" x="116.748047"/>
    </g>
   </g>
  </g>
 </g>
 <defs>
  <clipPath id="p41cdf68589">
   <rect x="67.665313" y="7.2" width="167.4" height="221.76"/>
  </clipPath>
 </defs>
</svg>
