<?xml version="1.0" encoding="utf-8" standalone="no"?>
<!DOCTYPE svg PUBLIC "-//W3C//DTD SVG 1.1//EN"
  "http://www.w3.org/Graphics/SVG/1.1/DTD/svg11.dtd">
<svg xmlns:xlink="http://www.w3.org/1999/xlink" width="155.905512pt" height="113.385827pt" viewBox="0 0 155.905512 113.385827" xmlns="http://www.w3.org/2000/svg" version="1.1">
 <metadata>
  <rdf:RDF xmlns:dc="http://purl.org/dc/elements/1.1/" xmlns:cc="http://creativecommons.org/ns#" xmlns:rdf="http://www.w3.org/1999/02/22-rdf-syntax-ns#">
   <cc:Work>
    <dc:type rdf:resource="http://purl.org/dc/dcmitype/StillImage"/>
    <dc:date>2025-07-21T14:03:38.899750</dc:date>
    <dc:format>image/svg+xml</dc:format>
    <dc:creator>
     <cc:Agent>
      <dc:title>Matplotlib v3.9.2, https://matplotlib.org/</dc:title>
     </cc:Agent>
    </dc:creator>
   </cc:Work>
  </rdf:RDF>
 </metadata>
 <defs>
  <style type="text/css">*{stroke-linejoin: round; stroke-linecap: butt}</style>
 </defs>
 <g id="figure_1">
  <g id="patch_1">
   <path d="M 0 113.385827 
L 155.905512 113.385827 
L 155.905512 0 
L 0 0 
z
" style="fill: #ffffff"/>
  </g>
  <g id="axes_1">
   <g id="patch_2">
    <path d="M 25.36 89.218327 
L 150.505512 89.218327 
L 150.505512 5.4 
L 25.36 5.4 
z
" style="fill: #ffffff"/>
   </g>
   <g id="PathCollection_1">
    <defs>
     <path id="C0_0_f9edee155d" d="M 0 0.866025 
C 0.229673 0.866025 0.449969 0.774776 0.612372 0.612372 
C 0.774776 0.449969 0.866025 0.229673 0.866025 -0 
C 0.866025 -0.229673 0.774776 -0.449969 0.612372 -0.612372 
C 0.449969 -0.774776 0.229673 -0.866025 0 -0.866025 
C -0.229673 -0.866025 -0.449969 -0.774776 -0.612372 -0.612372 
C -0.774776 -0.449969 -0.866025 -0.229673 -0.866025 0 
C -0.866025 0.229673 -0.774776 0.449969 -0.612372 0.612372 
C -0.449969 0.774776 -0.229673 0.866025 0 0.866025 
z
"/>
    </defs>
    <g clip-path="url(#p542c59705b)">
     <use xlink:href="#C0_0_f9edee155d" x="31.048432" y="40.520705" style="fill: #ff8c00; fill-opacity: 0.8"/>
    </g>
    <g clip-path="url(#p542c59705b)">
     <use xlink:href="#C0_0_f9edee155d" x="59.490594" y="69.016885" style="fill: #ff8c00; fill-opacity: 0.8"/>
    </g>
    <g clip-path="url(#p542c59705b)">
     <use xlink:href="#C0_0_f9edee155d" x="31.048432" y="30.865058" style="fill: #ff8c00; fill-opacity: 0.8"/>
    </g>
    <g clip-path="url(#p542c59705b)">
     <use xlink:href="#C0_0_f9edee155d" x="31.048432" y="66.869456" style="fill: #ff8c00; fill-opacity: 0.8"/>
    </g>
    <g clip-path="url(#p542c59705b)">
     <use xlink:href="#C0_0_f9edee155d" x="59.490594" y="35.980395" style="fill: #ff8c00; fill-opacity: 0.8"/>
    </g>
    <g clip-path="url(#p542c59705b)">
     <use xlink:href="#C0_0_f9edee155d" x="31.048432" y="65.558428" style="fill: #ff8c00; fill-opacity: 0.8"/>
    </g>
    <g clip-path="url(#p542c59705b)">
     <use xlink:href="#C0_0_f9edee155d" x="31.048432" y="47.740666" style="fill: #ff8c00; fill-opacity: 0.8"/>
    </g>
    <g clip-path="url(#p542c59705b)">
     <use xlink:href="#C0_0_f9edee155d" x="116.374918" y="56.294789" style="fill: #ff8c00; fill-opacity: 0.8"/>
    </g>
    <g clip-path="url(#p542c59705b)">
     <use xlink:href="#C0_0_f9edee155d" x="31.048432" y="29.435825" style="fill: #ff8c00; fill-opacity: 0.8"/>
    </g>
    <g clip-path="url(#p542c59705b)">
     <use xlink:href="#C0_0_f9edee155d" x="59.490594" y="41.889792" style="fill: #ff8c00; fill-opacity: 0.8"/>
    </g>
    <g clip-path="url(#p542c59705b)">
     <use xlink:href="#C0_0_f9edee155d" x="87.932756" y="18.379896" style="fill: #ff8c00; fill-opacity: 0.8"/>
    </g>
    <g clip-path="url(#p542c59705b)">
     <use xlink:href="#C0_0_f9edee155d" x="59.490594" y="57.154355" style="fill: #ff8c00; fill-opacity: 0.8"/>
    </g>
    <g clip-path="url(#p542c59705b)">
     <use xlink:href="#C0_0_f9edee155d" x="59.490594" y="54.13246" style="fill: #ff8c00; fill-opacity: 0.8"/>
    </g>
    <g clip-path="url(#p542c59705b)">
     <use xlink:href="#C0_0_f9edee155d" x="59.490594" y="80.573503" style="fill: #ff8c00; fill-opacity: 0.8"/>
    </g>
    <g clip-path="url(#p542c59705b)">
     <use xlink:href="#C0_0_f9edee155d" x="59.490594" y="47.216205" style="fill: #ff8c00; fill-opacity: 0.8"/>
    </g>
    <g clip-path="url(#p542c59705b)">
     <use xlink:href="#C0_0_f9edee155d" x="31.048432" y="12.740831" style="fill: #ff8c00; fill-opacity: 0.8"/>
    </g>
    <g clip-path="url(#p542c59705b)">
     <use xlink:href="#C0_0_f9edee155d" x="59.490594" y="72.150143" style="fill: #ff8c00; fill-opacity: 0.8"/>
    </g>
    <g clip-path="url(#p542c59705b)">
     <use xlink:href="#C0_0_f9edee155d" x="59.490594" y="67.362202" style="fill: #ff8c00; fill-opacity: 0.8"/>
    </g>
    <g clip-path="url(#p542c59705b)">
     <use xlink:href="#C0_0_f9edee155d" x="59.490594" y="56.972884" style="fill: #ff8c00; fill-opacity: 0.8"/>
    </g>
    <g clip-path="url(#p542c59705b)">
     <use xlink:href="#C0_0_f9edee155d" x="87.932756" y="59.158621" style="fill: #ff8c00; fill-opacity: 0.8"/>
    </g>
    <g clip-path="url(#p542c59705b)">
     <use xlink:href="#C0_0_f9edee155d" x="59.490594" y="62.949032" style="fill: #ff8c00; fill-opacity: 0.8"/>
    </g>
    <g clip-path="url(#p542c59705b)">
     <use xlink:href="#C0_0_f9edee155d" x="31.048432" y="12.585364" style="fill: #ff8c00; fill-opacity: 0.8"/>
    </g>
    <g clip-path="url(#p542c59705b)">
     <use xlink:href="#C0_0_f9edee155d" x="31.048432" y="52.157903" style="fill: #ff8c00; fill-opacity: 0.8"/>
    </g>
    <g clip-path="url(#p542c59705b)">
     <use xlink:href="#C0_0_f9edee155d" x="31.048432" y="72.947807" style="fill: #ff8c00; fill-opacity: 0.8"/>
    </g>
    <g clip-path="url(#p542c59705b)">
     <use xlink:href="#C0_0_f9edee155d" x="144.817079" y="72.570004" style="fill: #ff8c00; fill-opacity: 0.8"/>
    </g>
    <g clip-path="url(#p542c59705b)">
     <use xlink:href="#C0_0_f9edee155d" x="116.374918" y="40.748119" style="fill: #ff8c00; fill-opacity: 0.8"/>
    </g>
    <g clip-path="url(#p542c59705b)">
     <use xlink:href="#C0_0_f9edee155d" x="31.048432" y="63.071238" style="fill: #ff8c00; fill-opacity: 0.8"/>
    </g>
    <g clip-path="url(#p542c59705b)">
     <use xlink:href="#C0_0_f9edee155d" x="31.048432" y="41.789249" style="fill: #ff8c00; fill-opacity: 0.8"/>
    </g>
    <g clip-path="url(#p542c59705b)">
     <use xlink:href="#C0_0_f9edee155d" x="59.490594" y="41.08364" style="fill: #ff8c00; fill-opacity: 0.8"/>
    </g>
    <g clip-path="url(#p542c59705b)">
     <use xlink:href="#C0_0_f9edee155d" x="59.490594" y="75.65286" style="fill: #ff8c00; fill-opacity: 0.8"/>
    </g>
    <g clip-path="url(#p542c59705b)">
     <use xlink:href="#C0_0_f9edee155d" x="31.048432" y="46.252809" style="fill: #ff8c00; fill-opacity: 0.8"/>
    </g>
    <g clip-path="url(#p542c59705b)">
     <use xlink:href="#C0_0_f9edee155d" x="31.048432" y="68.07732" style="fill: #ff8c00; fill-opacity: 0.8"/>
    </g>
    <g clip-path="url(#p542c59705b)">
     <use xlink:href="#C0_0_f9edee155d" x="59.490594" y="45.138453" style="fill: #ff8c00; fill-opacity: 0.8"/>
    </g>
    <g clip-path="url(#p542c59705b)">
     <use xlink:href="#C0_0_f9edee155d" x="87.932756" y="55.649526" style="fill: #ff8c00; fill-opacity: 0.8"/>
    </g>
    <g clip-path="url(#p542c59705b)">
     <use xlink:href="#C0_0_f9edee155d" x="31.048432" y="60.763206" style="fill: #ff8c00; fill-opacity: 0.8"/>
    </g>
    <g clip-path="url(#p542c59705b)">
     <use xlink:href="#C0_0_f9edee155d" x="59.490594" y="66.179253" style="fill: #ff8c00; fill-opacity: 0.8"/>
    </g>
    <g clip-path="url(#p542c59705b)">
     <use xlink:href="#C0_0_f9edee155d" x="31.048432" y="50.295907" style="fill: #ff8c00; fill-opacity: 0.8"/>
    </g>
    <g clip-path="url(#p542c59705b)">
     <use xlink:href="#C0_0_f9edee155d" x="59.490594" y="60.173416" style="fill: #ff8c00; fill-opacity: 0.8"/>
    </g>
    <g clip-path="url(#p542c59705b)">
     <use xlink:href="#C0_0_f9edee155d" x="59.490594" y="67.304409" style="fill: #ff8c00; fill-opacity: 0.8"/>
    </g>
    <g clip-path="url(#p542c59705b)">
     <use xlink:href="#C0_0_f9edee155d" x="59.490594" y="60.257559" style="fill: #ff8c00; fill-opacity: 0.8"/>
    </g>
    <g clip-path="url(#p542c59705b)">
     <use xlink:href="#C0_0_f9edee155d" x="59.490594" y="61.776307" style="fill: #ff8c00; fill-opacity: 0.8"/>
    </g>
    <g clip-path="url(#p542c59705b)">
     <use xlink:href="#C0_0_f9edee155d" x="31.048432" y="35.172279" style="fill: #ff8c00; fill-opacity: 0.8"/>
    </g>
    <g clip-path="url(#p542c59705b)">
     <use xlink:href="#C0_0_f9edee155d" x="31.048432" y="60.537005" style="fill: #ff8c00; fill-opacity: 0.8"/>
    </g>
    <g clip-path="url(#p542c59705b)">
     <use xlink:href="#C0_0_f9edee155d" x="31.048432" y="44.310791" style="fill: #ff8c00; fill-opacity: 0.8"/>
    </g>
    <g clip-path="url(#p542c59705b)">
     <use xlink:href="#C0_0_f9edee155d" x="116.374918" y="41.58279" style="fill: #ff8c00; fill-opacity: 0.8"/>
    </g>
    <g clip-path="url(#p542c59705b)">
     <use xlink:href="#C0_0_f9edee155d" x="31.048432" y="52.952642" style="fill: #ff8c00; fill-opacity: 0.8"/>
    </g>
    <g clip-path="url(#p542c59705b)">
     <use xlink:href="#C0_0_f9edee155d" x="31.048432" y="37.614258" style="fill: #ff8c00; fill-opacity: 0.8"/>
    </g>
    <g clip-path="url(#p542c59705b)">
     <use xlink:href="#C0_0_f9edee155d" x="59.490594" y="63.951117" style="fill: #ff8c00; fill-opacity: 0.8"/>
    </g>
    <g clip-path="url(#p542c59705b)">
     <use xlink:href="#C0_0_f9edee155d" x="31.048432" y="44.830738" style="fill: #ff8c00; fill-opacity: 0.8"/>
    </g>
    <g clip-path="url(#p542c59705b)">
     <use xlink:href="#C0_0_f9edee155d" x="59.490594" y="47.806471" style="fill: #ff8c00; fill-opacity: 0.8"/>
    </g>
    <g clip-path="url(#p542c59705b)">
     <use xlink:href="#C0_0_f9edee155d" x="31.048432" y="37.961412" style="fill: #ff8c00; fill-opacity: 0.8"/>
    </g>
    <g clip-path="url(#p542c59705b)">
     <use xlink:href="#C0_0_f9edee155d" x="116.374918" y="41.537496" style="fill: #ff8c00; fill-opacity: 0.8"/>
    </g>
    <g clip-path="url(#p542c59705b)">
     <use xlink:href="#C0_0_f9edee155d" x="31.048432" y="40.225328" style="fill: #ff8c00; fill-opacity: 0.8"/>
    </g>
    <g clip-path="url(#p542c59705b)">
     <use xlink:href="#C0_0_f9edee155d" x="31.048432" y="48.030579" style="fill: #ff8c00; fill-opacity: 0.8"/>
    </g>
    <g clip-path="url(#p542c59705b)">
     <use xlink:href="#C0_0_f9edee155d" x="59.490594" y="46.398985" style="fill: #ff8c00; fill-opacity: 0.8"/>
    </g>
    <g clip-path="url(#p542c59705b)">
     <use xlink:href="#C0_0_f9edee155d" x="87.932756" y="22.057539" style="fill: #ff8c00; fill-opacity: 0.8"/>
    </g>
    <g clip-path="url(#p542c59705b)">
     <use xlink:href="#C0_0_f9edee155d" x="31.048432" y="75.797168" style="fill: #ff8c00; fill-opacity: 0.8"/>
    </g>
    <g clip-path="url(#p542c59705b)">
     <use xlink:href="#C0_0_f9edee155d" x="31.048432" y="53.008409" style="fill: #ff8c00; fill-opacity: 0.8"/>
    </g>
    <g clip-path="url(#p542c59705b)">
     <use xlink:href="#C0_0_f9edee155d" x="59.490594" y="42.937642" style="fill: #ff8c00; fill-opacity: 0.8"/>
    </g>
    <g clip-path="url(#p542c59705b)">
     <use xlink:href="#C0_0_f9edee155d" x="31.048432" y="16.322106" style="fill: #ff8c00; fill-opacity: 0.8"/>
    </g>
    <g clip-path="url(#p542c59705b)">
     <use xlink:href="#C0_0_f9edee155d" x="31.048432" y="72.672652" style="fill: #ff8c00; fill-opacity: 0.8"/>
    </g>
    <g clip-path="url(#p542c59705b)">
     <use xlink:href="#C0_0_f9edee155d" x="59.490594" y="63.141037" style="fill: #ff8c00; fill-opacity: 0.8"/>
    </g>
    <g clip-path="url(#p542c59705b)">
     <use xlink:href="#C0_0_f9edee155d" x="31.048432" y="45.382288" style="fill: #ff8c00; fill-opacity: 0.8"/>
    </g>
    <g clip-path="url(#p542c59705b)">
     <use xlink:href="#C0_0_f9edee155d" x="59.490594" y="44.502185" style="fill: #ff8c00; fill-opacity: 0.8"/>
    </g>
    <g clip-path="url(#p542c59705b)">
     <use xlink:href="#C0_0_f9edee155d" x="31.048432" y="48.70122" style="fill: #ff8c00; fill-opacity: 0.8"/>
    </g>
    <g clip-path="url(#p542c59705b)">
     <use xlink:href="#C0_0_f9edee155d" x="31.048432" y="64.458211" style="fill: #ff8c00; fill-opacity: 0.8"/>
    </g>
    <g clip-path="url(#p542c59705b)">
     <use xlink:href="#C0_0_f9edee155d" x="59.490594" y="18.842789" style="fill: #ff8c00; fill-opacity: 0.8"/>
    </g>
    <g clip-path="url(#p542c59705b)">
     <use xlink:href="#C0_0_f9edee155d" x="59.490594" y="85.408403" style="fill: #ff8c00; fill-opacity: 0.8"/>
    </g>
    <g clip-path="url(#p542c59705b)">
     <use xlink:href="#C0_0_f9edee155d" x="31.048432" y="23.835003" style="fill: #ff8c00; fill-opacity: 0.8"/>
    </g>
    <g clip-path="url(#p542c59705b)">
     <use xlink:href="#C0_0_f9edee155d" x="31.048432" y="45.578161" style="fill: #ff8c00; fill-opacity: 0.8"/>
    </g>
    <g clip-path="url(#p542c59705b)">
     <use xlink:href="#C0_0_f9edee155d" x="31.048432" y="38.734208" style="fill: #ff8c00; fill-opacity: 0.8"/>
    </g>
    <g clip-path="url(#p542c59705b)">
     <use xlink:href="#C0_0_f9edee155d" x="116.374918" y="43.763949" style="fill: #ff8c00; fill-opacity: 0.8"/>
    </g>
    <g clip-path="url(#p542c59705b)">
     <use xlink:href="#C0_0_f9edee155d" x="31.048432" y="66.241461" style="fill: #ff8c00; fill-opacity: 0.8"/>
    </g>
    <g clip-path="url(#p542c59705b)">
     <use xlink:href="#C0_0_f9edee155d" x="59.490594" y="9.209924" style="fill: #ff8c00; fill-opacity: 0.8"/>
    </g>
    <g clip-path="url(#p542c59705b)">
     <use xlink:href="#C0_0_f9edee155d" x="59.490594" y="68.742088" style="fill: #ff8c00; fill-opacity: 0.8"/>
    </g>
    <g clip-path="url(#p542c59705b)">
     <use xlink:href="#C0_0_f9edee155d" x="31.048432" y="61.518854" style="fill: #ff8c00; fill-opacity: 0.8"/>
    </g>
    <g clip-path="url(#p542c59705b)">
     <use xlink:href="#C0_0_f9edee155d" x="59.490594" y="53.959802" style="fill: #ff8c00; fill-opacity: 0.8"/>
    </g>
    <g clip-path="url(#p542c59705b)">
     <use xlink:href="#C0_0_f9edee155d" x="31.048432" y="61.964524" style="fill: #ff8c00; fill-opacity: 0.8"/>
    </g>
    <g clip-path="url(#p542c59705b)">
     <use xlink:href="#C0_0_f9edee155d" x="31.048432" y="58.062304" style="fill: #ff8c00; fill-opacity: 0.8"/>
    </g>
    <g clip-path="url(#p542c59705b)">
     <use xlink:href="#C0_0_f9edee155d" x="87.932756" y="72.701711" style="fill: #ff8c00; fill-opacity: 0.8"/>
    </g>
    <g clip-path="url(#p542c59705b)">
     <use xlink:href="#C0_0_f9edee155d" x="59.490594" y="78.384176" style="fill: #ff8c00; fill-opacity: 0.8"/>
    </g>
    <g clip-path="url(#p542c59705b)">
     <use xlink:href="#C0_0_f9edee155d" x="31.048432" y="20.256714" style="fill: #ff8c00; fill-opacity: 0.8"/>
    </g>
    <g clip-path="url(#p542c59705b)">
     <use xlink:href="#C0_0_f9edee155d" x="31.048432" y="37.282914" style="fill: #ff8c00; fill-opacity: 0.8"/>
    </g>
    <g clip-path="url(#p542c59705b)">
     <use xlink:href="#C0_0_f9edee155d" x="31.048432" y="66.551677" style="fill: #ff8c00; fill-opacity: 0.8"/>
    </g>
    <g clip-path="url(#p542c59705b)">
     <use xlink:href="#C0_0_f9edee155d" x="31.048432" y="71.158412" style="fill: #ff8c00; fill-opacity: 0.8"/>
    </g>
    <g clip-path="url(#p542c59705b)">
     <use xlink:href="#C0_0_f9edee155d" x="31.048432" y="66.041337" style="fill: #ff8c00; fill-opacity: 0.8"/>
    </g>
    <g clip-path="url(#p542c59705b)">
     <use xlink:href="#C0_0_f9edee155d" x="87.932756" y="45.486854" style="fill: #ff8c00; fill-opacity: 0.8"/>
    </g>
    <g clip-path="url(#p542c59705b)">
     <use xlink:href="#C0_0_f9edee155d" x="31.048432" y="74.296957" style="fill: #ff8c00; fill-opacity: 0.8"/>
    </g>
    <g clip-path="url(#p542c59705b)">
     <use xlink:href="#C0_0_f9edee155d" x="31.048432" y="39.384546" style="fill: #ff8c00; fill-opacity: 0.8"/>
    </g>
    <g clip-path="url(#p542c59705b)">
     <use xlink:href="#C0_0_f9edee155d" x="31.048432" y="50.853447" style="fill: #ff8c00; fill-opacity: 0.8"/>
    </g>
    <g clip-path="url(#p542c59705b)">
     <use xlink:href="#C0_0_f9edee155d" x="31.048432" y="57.672651" style="fill: #ff8c00; fill-opacity: 0.8"/>
    </g>
   </g>
   <g id="PolyCollection_1">
    <path d="M 31.048432 46.834922 
L 31.048432 55.299389 
L 32.197611 55.247865 
L 33.346789 55.216829 
L 34.495967 55.160542 
L 35.645145 55.132607 
L 36.794324 55.088852 
L 37.943502 55.051929 
L 39.09268 55.017304 
L 40.241858 55.007473 
L 41.391037 54.986223 
L 42.540215 54.978861 
L 43.689393 54.962583 
L 44.838571 54.968594 
L 45.98775 54.9481 
L 47.136928 54.952646 
L 48.286106 54.954536 
L 49.435284 54.966657 
L 50.584463 54.985879 
L 51.733641 55.042134 
L 52.882819 55.068449 
L 54.031997 55.123222 
L 55.181176 55.188323 
L 56.330354 55.246095 
L 57.479532 55.323328 
L 58.62871 55.391115 
L 59.777889 55.47829 
L 60.927067 55.556482 
L 62.076245 55.662152 
L 63.225423 55.770169 
L 64.374602 55.873997 
L 65.52378 55.985526 
L 66.672958 56.114075 
L 67.822136 56.226992 
L 68.971315 56.329474 
L 70.120493 56.462394 
L 71.269671 56.599294 
L 72.418849 56.745732 
L 73.568028 56.881888 
L 74.717206 56.997966 
L 75.866384 57.141442 
L 77.015562 57.288284 
L 78.164741 57.404041 
L 79.313919 57.547689 
L 80.463097 57.707338 
L 81.612276 57.871108 
L 82.761454 58.011826 
L 83.910632 58.165236 
L 85.05981 58.327755 
L 86.208989 58.504583 
L 87.358167 58.665715 
L 88.507345 58.828855 
L 89.656523 58.979619 
L 90.805702 59.15493 
L 91.95488 59.330295 
L 93.104058 59.507335 
L 94.253236 59.680135 
L 95.402415 59.857775 
L 96.551593 60.028629 
L 97.700771 60.19001 
L 98.849949 60.362611 
L 99.999128 60.539443 
L 101.148306 60.72444 
L 102.297484 60.889847 
L 103.446662 61.063385 
L 104.595841 61.207964 
L 105.745019 61.362051 
L 106.894197 61.526173 
L 108.043375 61.709341 
L 109.192554 61.881887 
L 110.341732 62.046009 
L 111.49091 62.200663 
L 112.640088 62.366261 
L 113.789267 62.516876 
L 114.938445 62.683335 
L 116.087623 62.873077 
L 117.236801 63.038004 
L 118.38598 63.206845 
L 119.535158 63.400068 
L 120.684336 63.563582 
L 121.833514 63.737226 
L 122.982693 63.900102 
L 124.131871 64.050811 
L 125.281049 64.213669 
L 126.430227 64.389861 
L 127.579406 64.565008 
L 128.728584 64.742757 
L 129.877762 64.893301 
L 131.02694 65.076371 
L 132.176119 65.260604 
L 133.325297 65.437224 
L 134.474475 65.600838 
L 135.623653 65.773827 
L 136.772832 65.973744 
L 137.92201 66.139289 
L 139.071188 66.322423 
L 140.220366 66.473506 
L 141.369545 66.660892 
L 142.518723 66.852663 
L 143.667901 67.021533 
L 144.817079 67.194112 
L 144.817079 41.260228 
L 144.817079 41.260228 
L 143.667901 41.366166 
L 142.518723 41.475855 
L 141.369545 41.604523 
L 140.220366 41.719497 
L 139.071188 41.845195 
L 137.92201 41.978062 
L 136.772832 42.08297 
L 135.623653 42.172434 
L 134.474475 42.293467 
L 133.325297 42.404868 
L 132.176119 42.502802 
L 131.02694 42.609511 
L 129.877762 42.714727 
L 128.728584 42.817405 
L 127.579406 42.940201 
L 126.430227 43.058127 
L 125.281049 43.164053 
L 124.131871 43.279891 
L 122.982693 43.376557 
L 121.833514 43.467007 
L 120.684336 43.575533 
L 119.535158 43.6851 
L 118.38598 43.786062 
L 117.236801 43.906166 
L 116.087623 44.01279 
L 114.938445 44.13596 
L 113.789267 44.259709 
L 112.640088 44.34758 
L 111.49091 44.462522 
L 110.341732 44.553656 
L 109.192554 44.657639 
L 108.043375 44.780902 
L 106.894197 44.88698 
L 105.745019 44.996581 
L 104.595841 45.105369 
L 103.446662 45.203493 
L 102.297484 45.309549 
L 101.148306 45.426592 
L 99.999128 45.542549 
L 98.849949 45.637117 
L 97.700771 45.734872 
L 96.551593 45.835707 
L 95.402415 45.949253 
L 94.253236 46.044979 
L 93.104058 46.108411 
L 91.95488 46.199542 
L 90.805702 46.292819 
L 89.656523 46.38035 
L 88.507345 46.507903 
L 87.358167 46.595606 
L 86.208989 46.694634 
L 85.05981 46.756496 
L 83.910632 46.862792 
L 82.761454 46.969769 
L 81.612276 47.045186 
L 80.463097 47.1198 
L 79.313919 47.184581 
L 78.164741 47.267613 
L 77.015562 47.337372 
L 75.866384 47.403218 
L 74.717206 47.483919 
L 73.568028 47.553855 
L 72.418849 47.61916 
L 71.269671 47.66685 
L 70.120493 47.722935 
L 68.971315 47.755267 
L 67.822136 47.799357 
L 66.672958 47.871925 
L 65.52378 47.943671 
L 64.374602 47.99652 
L 63.225423 48.037189 
L 62.076245 48.071959 
L 60.927067 48.078548 
L 59.777889 48.089392 
L 58.62871 48.087814 
L 57.479532 48.089422 
L 56.330354 48.110858 
L 55.181176 48.112136 
L 54.031997 48.083749 
L 52.882819 48.077004 
L 51.733641 48.051249 
L 50.584463 48.017833 
L 49.435284 48.010747 
L 48.286106 47.959832 
L 47.136928 47.925986 
L 45.98775 47.890704 
L 44.838571 47.852646 
L 43.689393 47.815219 
L 42.540215 47.748353 
L 41.391037 47.666582 
L 40.241858 47.578784 
L 39.09268 47.506418 
L 37.943502 47.436716 
L 36.794324 47.361595 
L 35.645145 47.262866 
L 34.495967 47.141651 
L 33.346789 47.033828 
L 32.197611 46.949694 
L 31.048432 46.834922 
z
" clip-path="url(#p542c59705b)" style="fill: #ff8c00; fill-opacity: 0.15"/>
   </g>
   <g id="matplotlib.axis_1">
    <g id="xtick_1">
     <g id="line2d_1">
      <defs>
       <path id="me8558080b2" d="M 0 0 
L 0 3.5 
" style="stroke: #000000; stroke-width: 0.25"/>
      </defs>
      <g>
       <use xlink:href="#me8558080b2" x="31.048432" y="89.218327" style="stroke: #000000; stroke-width: 0.25"/>
      </g>
     </g>
     <g id="text_1">
      <!-- 0 -->
      <g transform="translate(29.658198 97.297233) scale(0.05 -0.05)">
       <defs>
        <path id="ArialMT-30" d="M 266 2259 
Q 266 3072 433 3567 
Q 600 4063 929 4331 
Q 1259 4600 1759 4600 
Q 2128 4600 2406 4451 
Q 2684 4303 2865 4023 
Q 3047 3744 3150 3342 
Q 3253 2941 3253 2259 
Q 3253 1453 3087 958 
Q 2922 463 2592 192 
Q 2263 -78 1759 -78 
Q 1097 -78 719 397 
Q 266 969 266 2259 
z
M 844 2259 
Q 844 1131 1108 757 
Q 1372 384 1759 384 
Q 2147 384 2411 759 
Q 2675 1134 2675 2259 
Q 2675 3391 2411 3762 
Q 2147 4134 1753 4134 
Q 1366 4134 1134 3806 
Q 844 3388 844 2259 
z
" transform="scale(0.015625)"/>
       </defs>
       <use xlink:href="#ArialMT-30"/>
      </g>
     </g>
    </g>
    <g id="xtick_2">
     <g id="line2d_2">
      <g>
       <use xlink:href="#me8558080b2" x="59.490594" y="89.218327" style="stroke: #000000; stroke-width: 0.25"/>
      </g>
     </g>
     <g id="text_2">
      <!-- 1 -->
      <g transform="translate(58.10036 97.297233) scale(0.05 -0.05)">
       <defs>
        <path id="ArialMT-31" d="M 2384 0 
L 1822 0 
L 1822 3584 
Q 1619 3391 1289 3197 
Q 959 3003 697 2906 
L 697 3450 
Q 1169 3672 1522 3987 
Q 1875 4303 2022 4600 
L 2384 4600 
L 2384 0 
z
" transform="scale(0.015625)"/>
       </defs>
       <use xlink:href="#ArialMT-31"/>
      </g>
     </g>
    </g>
    <g id="xtick_3">
     <g id="line2d_3">
      <g>
       <use xlink:href="#me8558080b2" x="87.932756" y="89.218327" style="stroke: #000000; stroke-width: 0.25"/>
      </g>
     </g>
     <g id="text_3">
      <!-- 2 -->
      <g transform="translate(86.542522 97.297233) scale(0.05 -0.05)">
       <defs>
        <path id="ArialMT-32" d="M 3222 541 
L 3222 0 
L 194 0 
Q 188 203 259 391 
Q 375 700 629 1000 
Q 884 1300 1366 1694 
Q 2113 2306 2375 2664 
Q 2638 3022 2638 3341 
Q 2638 3675 2398 3904 
Q 2159 4134 1775 4134 
Q 1369 4134 1125 3890 
Q 881 3647 878 3216 
L 300 3275 
Q 359 3922 746 4261 
Q 1134 4600 1788 4600 
Q 2447 4600 2831 4234 
Q 3216 3869 3216 3328 
Q 3216 3053 3103 2787 
Q 2991 2522 2730 2228 
Q 2469 1934 1863 1422 
Q 1356 997 1212 845 
Q 1069 694 975 541 
L 3222 541 
z
" transform="scale(0.015625)"/>
       </defs>
       <use xlink:href="#ArialMT-32"/>
      </g>
     </g>
    </g>
    <g id="xtick_4">
     <g id="line2d_4">
      <g>
       <use xlink:href="#me8558080b2" x="116.374918" y="89.218327" style="stroke: #000000; stroke-width: 0.25"/>
      </g>
     </g>
     <g id="text_4">
      <!-- 3 -->
      <g transform="translate(114.984683 97.297233) scale(0.05 -0.05)">
       <defs>
        <path id="ArialMT-33" d="M 269 1209 
L 831 1284 
Q 928 806 1161 595 
Q 1394 384 1728 384 
Q 2125 384 2398 659 
Q 2672 934 2672 1341 
Q 2672 1728 2419 1979 
Q 2166 2231 1775 2231 
Q 1616 2231 1378 2169 
L 1441 2663 
Q 1497 2656 1531 2656 
Q 1891 2656 2178 2843 
Q 2466 3031 2466 3422 
Q 2466 3731 2256 3934 
Q 2047 4138 1716 4138 
Q 1388 4138 1169 3931 
Q 950 3725 888 3313 
L 325 3413 
Q 428 3978 793 4289 
Q 1159 4600 1703 4600 
Q 2078 4600 2393 4439 
Q 2709 4278 2876 4000 
Q 3044 3722 3044 3409 
Q 3044 3113 2884 2869 
Q 2725 2625 2413 2481 
Q 2819 2388 3044 2092 
Q 3269 1797 3269 1353 
Q 3269 753 2831 336 
Q 2394 -81 1725 -81 
Q 1122 -81 723 278 
Q 325 638 269 1209 
z
" transform="scale(0.015625)"/>
       </defs>
       <use xlink:href="#ArialMT-33"/>
      </g>
     </g>
    </g>
    <g id="xtick_5">
     <g id="line2d_5">
      <g>
       <use xlink:href="#me8558080b2" x="144.817079" y="89.218327" style="stroke: #000000; stroke-width: 0.25"/>
      </g>
     </g>
     <g id="text_5">
      <!-- 4 -->
      <g transform="translate(143.426845 97.297233) scale(0.05 -0.05)">
       <defs>
        <path id="ArialMT-34" d="M 2069 0 
L 2069 1097 
L 81 1097 
L 81 1613 
L 2172 4581 
L 2631 4581 
L 2631 1613 
L 3250 1613 
L 3250 1097 
L 2631 1097 
L 2631 0 
L 2069 0 
z
M 2069 1613 
L 2069 3678 
L 634 1613 
L 2069 1613 
z
" transform="scale(0.015625)"/>
       </defs>
       <use xlink:href="#ArialMT-34"/>
      </g>
     </g>
    </g>
    <g id="text_6">
     <!-- Parent-infant relationship index [a.u.] -->
     <g transform="translate(39.073537 106.658796) scale(0.06 -0.06)">
      <defs>
       <path id="ArialMT-50" d="M 494 0 
L 494 4581 
L 2222 4581 
Q 2678 4581 2919 4538 
Q 3256 4481 3484 4323 
Q 3713 4166 3852 3881 
Q 3991 3597 3991 3256 
Q 3991 2672 3619 2267 
Q 3247 1863 2275 1863 
L 1100 1863 
L 1100 0 
L 494 0 
z
M 1100 2403 
L 2284 2403 
Q 2872 2403 3119 2622 
Q 3366 2841 3366 3238 
Q 3366 3525 3220 3729 
Q 3075 3934 2838 4000 
Q 2684 4041 2272 4041 
L 1100 4041 
L 1100 2403 
z
" transform="scale(0.015625)"/>
       <path id="ArialMT-61" d="M 2588 409 
Q 2275 144 1986 34 
Q 1697 -75 1366 -75 
Q 819 -75 525 192 
Q 231 459 231 875 
Q 231 1119 342 1320 
Q 453 1522 633 1644 
Q 813 1766 1038 1828 
Q 1203 1872 1538 1913 
Q 2219 1994 2541 2106 
Q 2544 2222 2544 2253 
Q 2544 2597 2384 2738 
Q 2169 2928 1744 2928 
Q 1347 2928 1158 2789 
Q 969 2650 878 2297 
L 328 2372 
Q 403 2725 575 2942 
Q 747 3159 1072 3276 
Q 1397 3394 1825 3394 
Q 2250 3394 2515 3294 
Q 2781 3194 2906 3042 
Q 3031 2891 3081 2659 
Q 3109 2516 3109 2141 
L 3109 1391 
Q 3109 606 3145 398 
Q 3181 191 3288 0 
L 2700 0 
Q 2613 175 2588 409 
z
M 2541 1666 
Q 2234 1541 1622 1453 
Q 1275 1403 1131 1340 
Q 988 1278 909 1158 
Q 831 1038 831 891 
Q 831 666 1001 516 
Q 1172 366 1500 366 
Q 1825 366 2078 508 
Q 2331 650 2450 897 
Q 2541 1088 2541 1459 
L 2541 1666 
z
" transform="scale(0.015625)"/>
       <path id="ArialMT-72" d="M 416 0 
L 416 3319 
L 922 3319 
L 922 2816 
Q 1116 3169 1280 3281 
Q 1444 3394 1641 3394 
Q 1925 3394 2219 3213 
L 2025 2691 
Q 1819 2813 1613 2813 
Q 1428 2813 1281 2702 
Q 1134 2591 1072 2394 
Q 978 2094 978 1738 
L 978 0 
L 416 0 
z
" transform="scale(0.015625)"/>
       <path id="ArialMT-65" d="M 2694 1069 
L 3275 997 
Q 3138 488 2766 206 
Q 2394 -75 1816 -75 
Q 1088 -75 661 373 
Q 234 822 234 1631 
Q 234 2469 665 2931 
Q 1097 3394 1784 3394 
Q 2450 3394 2872 2941 
Q 3294 2488 3294 1666 
Q 3294 1616 3291 1516 
L 816 1516 
Q 847 969 1125 678 
Q 1403 388 1819 388 
Q 2128 388 2347 550 
Q 2566 713 2694 1069 
z
M 847 1978 
L 2700 1978 
Q 2663 2397 2488 2606 
Q 2219 2931 1791 2931 
Q 1403 2931 1139 2672 
Q 875 2413 847 1978 
z
" transform="scale(0.015625)"/>
       <path id="ArialMT-6e" d="M 422 0 
L 422 3319 
L 928 3319 
L 928 2847 
Q 1294 3394 1984 3394 
Q 2284 3394 2536 3286 
Q 2788 3178 2913 3003 
Q 3038 2828 3088 2588 
Q 3119 2431 3119 2041 
L 3119 0 
L 2556 0 
L 2556 2019 
Q 2556 2363 2490 2533 
Q 2425 2703 2258 2804 
Q 2091 2906 1866 2906 
Q 1506 2906 1245 2678 
Q 984 2450 984 1813 
L 984 0 
L 422 0 
z
" transform="scale(0.015625)"/>
       <path id="ArialMT-74" d="M 1650 503 
L 1731 6 
Q 1494 -44 1306 -44 
Q 1000 -44 831 53 
Q 663 150 594 308 
Q 525 466 525 972 
L 525 2881 
L 113 2881 
L 113 3319 
L 525 3319 
L 525 4141 
L 1084 4478 
L 1084 3319 
L 1650 3319 
L 1650 2881 
L 1084 2881 
L 1084 941 
Q 1084 700 1114 631 
Q 1144 563 1211 522 
Q 1278 481 1403 481 
Q 1497 481 1650 503 
z
" transform="scale(0.015625)"/>
       <path id="ArialMT-2d" d="M 203 1375 
L 203 1941 
L 1931 1941 
L 1931 1375 
L 203 1375 
z
" transform="scale(0.015625)"/>
       <path id="ArialMT-69" d="M 425 3934 
L 425 4581 
L 988 4581 
L 988 3934 
L 425 3934 
z
M 425 0 
L 425 3319 
L 988 3319 
L 988 0 
L 425 0 
z
" transform="scale(0.015625)"/>
       <path id="ArialMT-66" d="M 556 0 
L 556 2881 
L 59 2881 
L 59 3319 
L 556 3319 
L 556 3672 
Q 556 4006 616 4169 
Q 697 4388 901 4523 
Q 1106 4659 1475 4659 
Q 1713 4659 2000 4603 
L 1916 4113 
Q 1741 4144 1584 4144 
Q 1328 4144 1222 4034 
Q 1116 3925 1116 3625 
L 1116 3319 
L 1763 3319 
L 1763 2881 
L 1116 2881 
L 1116 0 
L 556 0 
z
" transform="scale(0.015625)"/>
       <path id="ArialMT-20" transform="scale(0.015625)"/>
       <path id="ArialMT-6c" d="M 409 0 
L 409 4581 
L 972 4581 
L 972 0 
L 409 0 
z
" transform="scale(0.015625)"/>
       <path id="ArialMT-6f" d="M 213 1659 
Q 213 2581 725 3025 
Q 1153 3394 1769 3394 
Q 2453 3394 2887 2945 
Q 3322 2497 3322 1706 
Q 3322 1066 3130 698 
Q 2938 331 2570 128 
Q 2203 -75 1769 -75 
Q 1072 -75 642 372 
Q 213 819 213 1659 
z
M 791 1659 
Q 791 1022 1069 705 
Q 1347 388 1769 388 
Q 2188 388 2466 706 
Q 2744 1025 2744 1678 
Q 2744 2294 2464 2611 
Q 2184 2928 1769 2928 
Q 1347 2928 1069 2612 
Q 791 2297 791 1659 
z
" transform="scale(0.015625)"/>
       <path id="ArialMT-73" d="M 197 991 
L 753 1078 
Q 800 744 1014 566 
Q 1228 388 1613 388 
Q 2000 388 2187 545 
Q 2375 703 2375 916 
Q 2375 1106 2209 1216 
Q 2094 1291 1634 1406 
Q 1016 1563 777 1677 
Q 538 1791 414 1992 
Q 291 2194 291 2438 
Q 291 2659 392 2848 
Q 494 3038 669 3163 
Q 800 3259 1026 3326 
Q 1253 3394 1513 3394 
Q 1903 3394 2198 3281 
Q 2494 3169 2634 2976 
Q 2775 2784 2828 2463 
L 2278 2388 
Q 2241 2644 2061 2787 
Q 1881 2931 1553 2931 
Q 1166 2931 1000 2803 
Q 834 2675 834 2503 
Q 834 2394 903 2306 
Q 972 2216 1119 2156 
Q 1203 2125 1616 2013 
Q 2213 1853 2448 1751 
Q 2684 1650 2818 1456 
Q 2953 1263 2953 975 
Q 2953 694 2789 445 
Q 2625 197 2315 61 
Q 2006 -75 1616 -75 
Q 969 -75 630 194 
Q 291 463 197 991 
z
" transform="scale(0.015625)"/>
       <path id="ArialMT-68" d="M 422 0 
L 422 4581 
L 984 4581 
L 984 2938 
Q 1378 3394 1978 3394 
Q 2347 3394 2619 3248 
Q 2891 3103 3008 2847 
Q 3125 2591 3125 2103 
L 3125 0 
L 2563 0 
L 2563 2103 
Q 2563 2525 2380 2717 
Q 2197 2909 1863 2909 
Q 1613 2909 1392 2779 
Q 1172 2650 1078 2428 
Q 984 2206 984 1816 
L 984 0 
L 422 0 
z
" transform="scale(0.015625)"/>
       <path id="ArialMT-70" d="M 422 -1272 
L 422 3319 
L 934 3319 
L 934 2888 
Q 1116 3141 1344 3267 
Q 1572 3394 1897 3394 
Q 2322 3394 2647 3175 
Q 2972 2956 3137 2557 
Q 3303 2159 3303 1684 
Q 3303 1175 3120 767 
Q 2938 359 2589 142 
Q 2241 -75 1856 -75 
Q 1575 -75 1351 44 
Q 1128 163 984 344 
L 984 -1272 
L 422 -1272 
z
M 931 1641 
Q 931 1000 1190 694 
Q 1450 388 1819 388 
Q 2194 388 2461 705 
Q 2728 1022 2728 1688 
Q 2728 2322 2467 2637 
Q 2206 2953 1844 2953 
Q 1484 2953 1207 2617 
Q 931 2281 931 1641 
z
" transform="scale(0.015625)"/>
       <path id="ArialMT-64" d="M 2575 0 
L 2575 419 
Q 2259 -75 1647 -75 
Q 1250 -75 917 144 
Q 584 363 401 755 
Q 219 1147 219 1656 
Q 219 2153 384 2558 
Q 550 2963 881 3178 
Q 1213 3394 1622 3394 
Q 1922 3394 2156 3267 
Q 2391 3141 2538 2938 
L 2538 4581 
L 3097 4581 
L 3097 0 
L 2575 0 
z
M 797 1656 
Q 797 1019 1065 703 
Q 1334 388 1700 388 
Q 2069 388 2326 689 
Q 2584 991 2584 1609 
Q 2584 2291 2321 2609 
Q 2059 2928 1675 2928 
Q 1300 2928 1048 2622 
Q 797 2316 797 1656 
z
" transform="scale(0.015625)"/>
       <path id="ArialMT-78" d="M 47 0 
L 1259 1725 
L 138 3319 
L 841 3319 
L 1350 2541 
Q 1494 2319 1581 2169 
Q 1719 2375 1834 2534 
L 2394 3319 
L 3066 3319 
L 1919 1756 
L 3153 0 
L 2463 0 
L 1781 1031 
L 1600 1309 
L 728 0 
L 47 0 
z
" transform="scale(0.015625)"/>
       <path id="ArialMT-5b" d="M 434 -1272 
L 434 4581 
L 1675 4581 
L 1675 4116 
L 997 4116 
L 997 -806 
L 1675 -806 
L 1675 -1272 
L 434 -1272 
z
" transform="scale(0.015625)"/>
       <path id="ArialMT-2e" d="M 581 0 
L 581 641 
L 1222 641 
L 1222 0 
L 581 0 
z
" transform="scale(0.015625)"/>
       <path id="ArialMT-75" d="M 2597 0 
L 2597 488 
Q 2209 -75 1544 -75 
Q 1250 -75 995 37 
Q 741 150 617 320 
Q 494 491 444 738 
Q 409 903 409 1263 
L 409 3319 
L 972 3319 
L 972 1478 
Q 972 1038 1006 884 
Q 1059 663 1231 536 
Q 1403 409 1656 409 
Q 1909 409 2131 539 
Q 2353 669 2445 892 
Q 2538 1116 2538 1541 
L 2538 3319 
L 3100 3319 
L 3100 0 
L 2597 0 
z
" transform="scale(0.015625)"/>
       <path id="ArialMT-5d" d="M 1363 -1272 
L 122 -1272 
L 122 -806 
L 800 -806 
L 800 4116 
L 122 4116 
L 122 4581 
L 1363 4581 
L 1363 -1272 
z
" transform="scale(0.015625)"/>
      </defs>
      <use xlink:href="#ArialMT-50"/>
      <use xlink:href="#ArialMT-61" x="66.699219"/>
      <use xlink:href="#ArialMT-72" x="122.314453"/>
      <use xlink:href="#ArialMT-65" x="155.615234"/>
      <use xlink:href="#ArialMT-6e" x="211.230469"/>
      <use xlink:href="#ArialMT-74" x="266.845703"/>
      <use xlink:href="#ArialMT-2d" x="294.628906"/>
      <use xlink:href="#ArialMT-69" x="327.929688"/>
      <use xlink:href="#ArialMT-6e" x="350.146484"/>
      <use xlink:href="#ArialMT-66" x="405.761719"/>
      <use xlink:href="#ArialMT-61" x="433.544922"/>
      <use xlink:href="#ArialMT-6e" x="489.160156"/>
      <use xlink:href="#ArialMT-74" x="544.775391"/>
      <use xlink:href="#ArialMT-20" x="572.558594"/>
      <use xlink:href="#ArialMT-72" x="600.341797"/>
      <use xlink:href="#ArialMT-65" x="633.642578"/>
      <use xlink:href="#ArialMT-6c" x="689.257812"/>
      <use xlink:href="#ArialMT-61" x="711.474609"/>
      <use xlink:href="#ArialMT-74" x="767.089844"/>
      <use xlink:href="#ArialMT-69" x="794.873047"/>
      <use xlink:href="#ArialMT-6f" x="817.089844"/>
      <use xlink:href="#ArialMT-6e" x="872.705078"/>
      <use xlink:href="#ArialMT-73" x="928.320312"/>
      <use xlink:href="#ArialMT-68" x="978.320312"/>
      <use xlink:href="#ArialMT-69" x="1033.935547"/>
      <use xlink:href="#ArialMT-70" x="1056.152344"/>
      <use xlink:href="#ArialMT-20" x="1111.767578"/>
      <use xlink:href="#ArialMT-69" x="1139.550781"/>
      <use xlink:href="#ArialMT-6e" x="1161.767578"/>
      <use xlink:href="#ArialMT-64" x="1217.382812"/>
      <use xlink:href="#ArialMT-65" x="1272.998047"/>
      <use xlink:href="#ArialMT-78" x="1328.613281"/>
      <use xlink:href="#ArialMT-20" x="1378.613281"/>
      <use xlink:href="#ArialMT-5b" x="1406.396484"/>
      <use xlink:href="#ArialMT-61" x="1434.179688"/>
      <use xlink:href="#ArialMT-2e" x="1489.794922"/>
      <use xlink:href="#ArialMT-75" x="1517.578125"/>
      <use xlink:href="#ArialMT-2e" x="1573.193359"/>
      <use xlink:href="#ArialMT-5d" x="1600.976562"/>
     </g>
    </g>
   </g>
   <g id="matplotlib.axis_2">
    <g id="ytick_1">
     <g id="line2d_6">
      <defs>
       <path id="mfcf42703fe" d="M 0 0 
L -3.5 0 
" style="stroke: #000000; stroke-width: 0.25"/>
      </defs>
      <g>
       <use xlink:href="#mfcf42703fe" x="25.36" y="80.424964" style="stroke: #000000; stroke-width: 0.25"/>
      </g>
     </g>
     <g id="text_7">
      <!-- −2 -->
      <g transform="translate(15.159219 82.214417) scale(0.05 -0.05)">
       <defs>
        <path id="ArialMT-2212" d="M 3381 1997 
L 356 1997 
L 356 2522 
L 3381 2522 
L 3381 1997 
z
" transform="scale(0.015625)"/>
       </defs>
       <use xlink:href="#ArialMT-2212"/>
       <use xlink:href="#ArialMT-32" x="58.398438"/>
      </g>
     </g>
    </g>
    <g id="ytick_2">
     <g id="line2d_7">
      <g>
       <use xlink:href="#mfcf42703fe" x="25.36" y="63.752742" style="stroke: #000000; stroke-width: 0.25"/>
      </g>
     </g>
     <g id="text_8">
      <!-- −1 -->
      <g transform="translate(15.159219 65.542195) scale(0.05 -0.05)">
       <use xlink:href="#ArialMT-2212"/>
       <use xlink:href="#ArialMT-31" x="58.398438"/>
      </g>
     </g>
    </g>
    <g id="ytick_3">
     <g id="line2d_8">
      <g>
       <use xlink:href="#mfcf42703fe" x="25.36" y="47.08052" style="stroke: #000000; stroke-width: 0.25"/>
      </g>
     </g>
     <g id="text_9">
      <!-- 0 -->
      <g transform="translate(18.079531 48.869973) scale(0.05 -0.05)">
       <use xlink:href="#ArialMT-30"/>
      </g>
     </g>
    </g>
    <g id="ytick_4">
     <g id="line2d_9">
      <g>
       <use xlink:href="#mfcf42703fe" x="25.36" y="30.408298" style="stroke: #000000; stroke-width: 0.25"/>
      </g>
     </g>
     <g id="text_10">
      <!-- 1 -->
      <g transform="translate(18.079531 32.197751) scale(0.05 -0.05)">
       <use xlink:href="#ArialMT-31"/>
      </g>
     </g>
    </g>
    <g id="ytick_5">
     <g id="line2d_10">
      <g>
       <use xlink:href="#mfcf42703fe" x="25.36" y="13.736075" style="stroke: #000000; stroke-width: 0.25"/>
      </g>
     </g>
     <g id="text_11">
      <!-- 2 -->
      <g transform="translate(18.079531 15.525528) scale(0.05 -0.05)">
       <use xlink:href="#ArialMT-32"/>
      </g>
     </g>
    </g>
    <g id="text_12">
     <!-- SA PC1 [a.u.] -->
     <g transform="translate(9.966719 65.319476) rotate(-90) scale(0.06 -0.06)">
      <defs>
       <path id="ArialMT-53" d="M 288 1472 
L 859 1522 
Q 900 1178 1048 958 
Q 1197 738 1509 602 
Q 1822 466 2213 466 
Q 2559 466 2825 569 
Q 3091 672 3220 851 
Q 3350 1031 3350 1244 
Q 3350 1459 3225 1620 
Q 3100 1781 2813 1891 
Q 2628 1963 1997 2114 
Q 1366 2266 1113 2400 
Q 784 2572 623 2826 
Q 463 3081 463 3397 
Q 463 3744 659 4045 
Q 856 4347 1234 4503 
Q 1613 4659 2075 4659 
Q 2584 4659 2973 4495 
Q 3363 4331 3572 4012 
Q 3781 3694 3797 3291 
L 3216 3247 
Q 3169 3681 2898 3903 
Q 2628 4125 2100 4125 
Q 1550 4125 1298 3923 
Q 1047 3722 1047 3438 
Q 1047 3191 1225 3031 
Q 1400 2872 2139 2705 
Q 2878 2538 3153 2413 
Q 3553 2228 3743 1945 
Q 3934 1663 3934 1294 
Q 3934 928 3725 604 
Q 3516 281 3123 101 
Q 2731 -78 2241 -78 
Q 1619 -78 1198 103 
Q 778 284 539 648 
Q 300 1013 288 1472 
z
" transform="scale(0.015625)"/>
       <path id="ArialMT-41" d="M -9 0 
L 1750 4581 
L 2403 4581 
L 4278 0 
L 3588 0 
L 3053 1388 
L 1138 1388 
L 634 0 
L -9 0 
z
M 1313 1881 
L 2866 1881 
L 2388 3150 
Q 2169 3728 2063 4100 
Q 1975 3659 1816 3225 
L 1313 1881 
z
" transform="scale(0.015625)"/>
       <path id="ArialMT-43" d="M 3763 1606 
L 4369 1453 
Q 4178 706 3683 314 
Q 3188 -78 2472 -78 
Q 1731 -78 1267 223 
Q 803 525 561 1097 
Q 319 1669 319 2325 
Q 319 3041 592 3573 
Q 866 4106 1370 4382 
Q 1875 4659 2481 4659 
Q 3169 4659 3637 4309 
Q 4106 3959 4291 3325 
L 3694 3184 
Q 3534 3684 3231 3912 
Q 2928 4141 2469 4141 
Q 1941 4141 1586 3887 
Q 1231 3634 1087 3207 
Q 944 2781 944 2328 
Q 944 1744 1114 1308 
Q 1284 872 1643 656 
Q 2003 441 2422 441 
Q 2931 441 3284 734 
Q 3638 1028 3763 1606 
z
" transform="scale(0.015625)"/>
      </defs>
      <use xlink:href="#ArialMT-53"/>
      <use xlink:href="#ArialMT-41" x="66.699219"/>
      <use xlink:href="#ArialMT-20" x="127.898438"/>
      <use xlink:href="#ArialMT-50" x="155.681641"/>
      <use xlink:href="#ArialMT-43" x="222.380859"/>
      <use xlink:href="#ArialMT-31" x="294.597656"/>
      <use xlink:href="#ArialMT-20" x="350.212891"/>
      <use xlink:href="#ArialMT-5b" x="377.996094"/>
      <use xlink:href="#ArialMT-61" x="405.779297"/>
      <use xlink:href="#ArialMT-2e" x="461.394531"/>
      <use xlink:href="#ArialMT-75" x="489.177734"/>
      <use xlink:href="#ArialMT-2e" x="544.792969"/>
      <use xlink:href="#ArialMT-5d" x="572.576172"/>
     </g>
    </g>
   </g>
   <g id="line2d_11">
    <path d="M 31.048432 51.077073 
L 32.197611 51.107863 
L 33.346789 51.138654 
L 34.495967 51.169444 
L 35.645145 51.200235 
L 36.794324 51.231026 
L 37.943502 51.261816 
L 39.09268 51.292607 
L 40.241858 51.323397 
L 41.391037 51.354188 
L 42.540215 51.384978 
L 43.689393 51.415769 
L 44.838571 51.446559 
L 45.98775 51.47735 
L 47.136928 51.50814 
L 48.286106 51.538931 
L 49.435284 51.569721 
L 50.584463 51.600512 
L 51.733641 51.631302 
L 52.882819 51.662093 
L 54.031997 51.692883 
L 55.181176 51.723674 
L 56.330354 51.754464 
L 57.479532 51.785255 
L 58.62871 51.816045 
L 59.777889 51.846836 
L 60.927067 51.877627 
L 62.076245 51.908417 
L 63.225423 51.939208 
L 64.374602 51.969998 
L 65.52378 52.000789 
L 66.672958 52.031579 
L 67.822136 52.06237 
L 68.971315 52.09316 
L 70.120493 52.123951 
L 71.269671 52.154741 
L 72.418849 52.185532 
L 73.568028 52.216322 
L 74.717206 52.247113 
L 75.866384 52.277903 
L 77.015562 52.308694 
L 78.164741 52.339484 
L 79.313919 52.370275 
L 80.463097 52.401065 
L 81.612276 52.431856 
L 82.761454 52.462646 
L 83.910632 52.493437 
L 85.05981 52.524227 
L 86.208989 52.555018 
L 87.358167 52.585809 
L 88.507345 52.616599 
L 89.656523 52.64739 
L 90.805702 52.67818 
L 91.95488 52.708971 
L 93.104058 52.739761 
L 94.253236 52.770552 
L 95.402415 52.801342 
L 96.551593 52.832133 
L 97.700771 52.862923 
L 98.849949 52.893714 
L 99.999128 52.924504 
L 101.148306 52.955295 
L 102.297484 52.986085 
L 103.446662 53.016876 
L 104.595841 53.047666 
L 105.745019 53.078457 
L 106.894197 53.109247 
L 108.043375 53.140038 
L 109.192554 53.170828 
L 110.341732 53.201619 
L 111.49091 53.232409 
L 112.640088 53.2632 
L 113.789267 53.293991 
L 114.938445 53.324781 
L 116.087623 53.355572 
L 117.236801 53.386362 
L 118.38598 53.417153 
L 119.535158 53.447943 
L 120.684336 53.478734 
L 121.833514 53.509524 
L 122.982693 53.540315 
L 124.131871 53.571105 
L 125.281049 53.601896 
L 126.430227 53.632686 
L 127.579406 53.663477 
L 128.728584 53.694267 
L 129.877762 53.725058 
L 131.02694 53.755848 
L 132.176119 53.786639 
L 133.325297 53.817429 
L 134.474475 53.84822 
L 135.623653 53.87901 
L 136.772832 53.909801 
L 137.92201 53.940591 
L 139.071188 53.971382 
L 140.220366 54.002173 
L 141.369545 54.032963 
L 142.518723 54.063754 
L 143.667901 54.094544 
L 144.817079 54.125335 
" clip-path="url(#p542c59705b)" style="fill: none; stroke: #ff8c00; stroke-width: 0.75; stroke-linecap: square"/>
   </g>
   <g id="patch_3">
    <path d="M 25.36 89.218327 
L 25.36 5.4 
" style="fill: none; stroke: #000000; stroke-width: 0.25; stroke-linejoin: miter; stroke-linecap: square"/>
   </g>
   <g id="patch_4">
    <path d="M 25.36 89.218327 
L 150.505512 89.218327 
" style="fill: none; stroke: #000000; stroke-width: 0.25; stroke-linejoin: miter; stroke-linecap: square"/>
   </g>
   <g id="text_13">
    <g id="patch_5">
     <path d="M 29.114365 18.699023 
L 57.764365 18.699023 
Q 59.264365 18.699023 59.264365 17.199023 
L 59.264365 7.132617 
Q 59.264365 5.632617 57.764365 5.632617 
L 29.114365 5.632617 
Q 27.614365 5.632617 27.614365 7.132617 
L 27.614365 17.199023 
Q 27.614365 18.699023 29.114365 18.699023 
z
" style="fill: #c0c0c0; opacity: 0.4; stroke: #c0c0c0; stroke-linejoin: miter"/>
    </g>
    <!-- $r=-0.076$ -->
    <g transform="translate(29.114365 10.655273) scale(0.05 -0.05)">
     <defs>
      <path id="DejaVuSans-Oblique-72" d="M 2853 2969 
Q 2766 3016 2653 3041 
Q 2541 3066 2413 3066 
Q 1953 3066 1609 2717 
Q 1266 2369 1153 1784 
L 800 0 
L 225 0 
L 909 3500 
L 1484 3500 
L 1375 2956 
Q 1603 3259 1920 3421 
Q 2238 3584 2597 3584 
Q 2691 3584 2781 3573 
Q 2872 3563 2963 3538 
L 2853 2969 
z
" transform="scale(0.015625)"/>
      <path id="DejaVuSans-3d" d="M 678 2906 
L 4684 2906 
L 4684 2381 
L 678 2381 
L 678 2906 
z
M 678 1631 
L 4684 1631 
L 4684 1100 
L 678 1100 
L 678 1631 
z
" transform="scale(0.015625)"/>
      <path id="DejaVuSans-2212" d="M 678 2272 
L 4684 2272 
L 4684 1741 
L 678 1741 
L 678 2272 
z
" transform="scale(0.015625)"/>
      <path id="DejaVuSans-30" d="M 2034 4250 
Q 1547 4250 1301 3770 
Q 1056 3291 1056 2328 
Q 1056 1369 1301 889 
Q 1547 409 2034 409 
Q 2525 409 2770 889 
Q 3016 1369 3016 2328 
Q 3016 3291 2770 3770 
Q 2525 4250 2034 4250 
z
M 2034 4750 
Q 2819 4750 3233 4129 
Q 3647 3509 3647 2328 
Q 3647 1150 3233 529 
Q 2819 -91 2034 -91 
Q 1250 -91 836 529 
Q 422 1150 422 2328 
Q 422 3509 836 4129 
Q 1250 4750 2034 4750 
z
" transform="scale(0.015625)"/>
      <path id="DejaVuSans-2e" d="M 684 794 
L 1344 794 
L 1344 0 
L 684 0 
L 684 794 
z
" transform="scale(0.015625)"/>
      <path id="DejaVuSans-37" d="M 525 4666 
L 3525 4666 
L 3525 4397 
L 1831 0 
L 1172 0 
L 2766 4134 
L 525 4134 
L 525 4666 
z
" transform="scale(0.015625)"/>
      <path id="DejaVuSans-36" d="M 2113 2584 
Q 1688 2584 1439 2293 
Q 1191 2003 1191 1497 
Q 1191 994 1439 701 
Q 1688 409 2113 409 
Q 2538 409 2786 701 
Q 3034 994 3034 1497 
Q 3034 2003 2786 2293 
Q 2538 2584 2113 2584 
z
M 3366 4563 
L 3366 3988 
Q 3128 4100 2886 4159 
Q 2644 4219 2406 4219 
Q 1781 4219 1451 3797 
Q 1122 3375 1075 2522 
Q 1259 2794 1537 2939 
Q 1816 3084 2150 3084 
Q 2853 3084 3261 2657 
Q 3669 2231 3669 1497 
Q 3669 778 3244 343 
Q 2819 -91 2113 -91 
Q 1303 -91 875 529 
Q 447 1150 447 2328 
Q 447 3434 972 4092 
Q 1497 4750 2381 4750 
Q 2619 4750 2861 4703 
Q 3103 4656 3366 4563 
z
" transform="scale(0.015625)"/>
     </defs>
     <use xlink:href="#DejaVuSans-Oblique-72" transform="translate(0 0.78125)"/>
     <use xlink:href="#DejaVuSans-3d" transform="translate(60.595703 0.78125)"/>
     <use xlink:href="#DejaVuSans-2212" transform="translate(183.349609 0.78125)"/>
     <use xlink:href="#DejaVuSans-30" transform="translate(286.621094 0.78125)"/>
     <use xlink:href="#DejaVuSans-2e" transform="translate(350.244141 0.78125)"/>
     <use xlink:href="#DejaVuSans-30" transform="translate(382.03125 0.78125)"/>
     <use xlink:href="#DejaVuSans-37" transform="translate(445.654297 0.78125)"/>
     <use xlink:href="#DejaVuSans-36" transform="translate(509.277344 0.78125)"/>
    </g>
    <!-- $p=0.474$ -->
    <g transform="translate(29.114365 16.149023) scale(0.05 -0.05)">
     <defs>
      <path id="DejaVuSans-Oblique-70" d="M 3175 2156 
Q 3175 2616 2975 2859 
Q 2775 3103 2400 3103 
Q 2144 3103 1911 2972 
Q 1678 2841 1497 2591 
Q 1319 2344 1212 1994 
Q 1106 1644 1106 1300 
Q 1106 863 1306 627 
Q 1506 391 1875 391 
Q 2147 391 2380 519 
Q 2613 647 2778 891 
Q 2956 1147 3065 1494 
Q 3175 1841 3175 2156 
z
M 1394 2969 
Q 1625 3272 1939 3428 
Q 2253 3584 2638 3584 
Q 3175 3584 3472 3232 
Q 3769 2881 3769 2247 
Q 3769 1728 3584 1258 
Q 3400 788 3053 416 
Q 2822 169 2531 39 
Q 2241 -91 1919 -91 
Q 1547 -91 1294 64 
Q 1041 219 916 525 
L 556 -1331 
L -19 -1331 
L 922 3500 
L 1497 3500 
L 1394 2969 
z
" transform="scale(0.015625)"/>
      <path id="DejaVuSans-34" d="M 2419 4116 
L 825 1625 
L 2419 1625 
L 2419 4116 
z
M 2253 4666 
L 3047 4666 
L 3047 1625 
L 3713 1625 
L 3713 1100 
L 3047 1100 
L 3047 0 
L 2419 0 
L 2419 1100 
L 313 1100 
L 313 1709 
L 2253 4666 
z
" transform="scale(0.015625)"/>
     </defs>
     <use xlink:href="#DejaVuSans-Oblique-70" transform="translate(0 0.78125)"/>
     <use xlink:href="#DejaVuSans-3d" transform="translate(82.958984 0.78125)"/>
     <use xlink:href="#DejaVuSans-30" transform="translate(186.230469 0.78125)"/>
     <use xlink:href="#DejaVuSans-2e" transform="translate(249.853516 0.78125)"/>
     <use xlink:href="#DejaVuSans-34" transform="translate(281.640625 0.78125)"/>
     <use xlink:href="#DejaVuSans-37" transform="translate(345.263672 0.78125)"/>
     <use xlink:href="#DejaVuSans-34" transform="translate(408.886719 0.78125)"/>
    </g>
   </g>
  </g>
 </g>
 <defs>
  <clipPath id="p542c59705b">
   <rect x="25.36" y="5.4" width="125.145512" height="83.818327"/>
  </clipPath>
 </defs>
</svg>
