<?xml version="1.0" encoding="utf-8" standalone="no"?>
<!DOCTYPE svg PUBLIC "-//W3C//DTD SVG 1.1//EN"
  "http://www.w3.org/Graphics/SVG/1.1/DTD/svg11.dtd">
<svg xmlns:xlink="http://www.w3.org/1999/xlink" width="155.905512pt" height="113.385827pt" viewBox="0 0 155.905512 113.385827" xmlns="http://www.w3.org/2000/svg" version="1.1">
 <metadata>
  <rdf:RDF xmlns:dc="http://purl.org/dc/elements/1.1/" xmlns:cc="http://creativecommons.org/ns#" xmlns:rdf="http://www.w3.org/1999/02/22-rdf-syntax-ns#">
   <cc:Work>
    <dc:type rdf:resource="http://purl.org/dc/dcmitype/StillImage"/>
    <dc:date>2026-02-25T13:49:56.921399</dc:date>
    <dc:format>image/svg+xml</dc:format>
    <dc:creator>
     <cc:Agent>
      <dc:title>Matplotlib v3.9.2, https://matplotlib.org/</dc:title>
     </cc:Agent>
    </dc:creator>
   </cc:Work>
  </rdf:RDF>
 </metadata>
 <defs>
  <style type="text/css">*{stroke-linejoin: round; stroke-linecap: butt}</style>
 </defs>
 <g id="figure_1">
  <g id="patch_1">
   <path d="M 0 113.385827 
L 155.905512 113.385827 
L 155.905512 0 
L 0 0 
z
" style="fill: #ffffff"/>
  </g>
  <g id="axes_1">
   <g id="patch_2">
    <path d="M 25.18 89.405827 
L 150.505512 89.405827 
L 150.505512 5.4 
L 25.18 5.4 
z
" style="fill: #ffffff"/>
   </g>
   <g id="matplotlib.axis_1">
    <g id="xtick_1">
     <g id="text_1">
      <!-- 0 -->
      <g style="fill: #262626" transform="translate(29.48638 97.484733) scale(0.05 -0.05)">
       <defs>
        <path id="ArialMT-30" d="M 266 2259 
Q 266 3072 433 3567 
Q 600 4063 929 4331 
Q 1259 4600 1759 4600 
Q 2128 4600 2406 4451 
Q 2684 4303 2865 4023 
Q 3047 3744 3150 3342 
Q 3253 2941 3253 2259 
Q 3253 1453 3087 958 
Q 2922 463 2592 192 
Q 2263 -78 1759 -78 
Q 1097 -78 719 397 
Q 266 969 266 2259 
z
M 844 2259 
Q 844 1131 1108 757 
Q 1372 384 1759 384 
Q 2147 384 2411 759 
Q 2675 1134 2675 2259 
Q 2675 3391 2411 3762 
Q 2147 4134 1753 4134 
Q 1366 4134 1134 3806 
Q 844 3388 844 2259 
z
" transform="scale(0.015625)"/>
       </defs>
       <use xlink:href="#ArialMT-30"/>
      </g>
     </g>
    </g>
    <g id="xtick_2">
     <g id="text_2">
      <!-- 1 -->
      <g style="fill: #262626" transform="translate(57.969451 97.484733) scale(0.05 -0.05)">
       <defs>
        <path id="ArialMT-31" d="M 2384 0 
L 1822 0 
L 1822 3584 
Q 1619 3391 1289 3197 
Q 959 3003 697 2906 
L 697 3450 
Q 1169 3672 1522 3987 
Q 1875 4303 2022 4600 
L 2384 4600 
L 2384 0 
z
" transform="scale(0.015625)"/>
       </defs>
       <use xlink:href="#ArialMT-31"/>
      </g>
     </g>
    </g>
    <g id="xtick_3">
     <g id="text_3">
      <!-- 2 -->
      <g style="fill: #262626" transform="translate(86.452522 97.484733) scale(0.05 -0.05)">
       <defs>
        <path id="ArialMT-32" d="M 3222 541 
L 3222 0 
L 194 0 
Q 188 203 259 391 
Q 375 700 629 1000 
Q 884 1300 1366 1694 
Q 2113 2306 2375 2664 
Q 2638 3022 2638 3341 
Q 2638 3675 2398 3904 
Q 2159 4134 1775 4134 
Q 1369 4134 1125 3890 
Q 881 3647 878 3216 
L 300 3275 
Q 359 3922 746 4261 
Q 1134 4600 1788 4600 
Q 2447 4600 2831 4234 
Q 3216 3869 3216 3328 
Q 3216 3053 3103 2787 
Q 2991 2522 2730 2228 
Q 2469 1934 1863 1422 
Q 1356 997 1212 845 
Q 1069 694 975 541 
L 3222 541 
z
" transform="scale(0.015625)"/>
       </defs>
       <use xlink:href="#ArialMT-32"/>
      </g>
     </g>
    </g>
    <g id="xtick_4">
     <g id="text_4">
      <!-- 3 -->
      <g style="fill: #262626" transform="translate(114.935592 97.484733) scale(0.05 -0.05)">
       <defs>
        <path id="ArialMT-33" d="M 269 1209 
L 831 1284 
Q 928 806 1161 595 
Q 1394 384 1728 384 
Q 2125 384 2398 659 
Q 2672 934 2672 1341 
Q 2672 1728 2419 1979 
Q 2166 2231 1775 2231 
Q 1616 2231 1378 2169 
L 1441 2663 
Q 1497 2656 1531 2656 
Q 1891 2656 2178 2843 
Q 2466 3031 2466 3422 
Q 2466 3731 2256 3934 
Q 2047 4138 1716 4138 
Q 1388 4138 1169 3931 
Q 950 3725 888 3313 
L 325 3413 
Q 428 3978 793 4289 
Q 1159 4600 1703 4600 
Q 2078 4600 2393 4439 
Q 2709 4278 2876 4000 
Q 3044 3722 3044 3409 
Q 3044 3113 2884 2869 
Q 2725 2625 2413 2481 
Q 2819 2388 3044 2092 
Q 3269 1797 3269 1353 
Q 3269 753 2831 336 
Q 2394 -81 1725 -81 
Q 1122 -81 723 278 
Q 325 638 269 1209 
z
" transform="scale(0.015625)"/>
       </defs>
       <use xlink:href="#ArialMT-33"/>
      </g>
     </g>
    </g>
    <g id="xtick_5">
     <g id="text_5">
      <!-- 4 -->
      <g style="fill: #262626" transform="translate(143.418663 97.484733) scale(0.05 -0.05)">
       <defs>
        <path id="ArialMT-34" d="M 2069 0 
L 2069 1097 
L 81 1097 
L 81 1613 
L 2172 4581 
L 2631 4581 
L 2631 1613 
L 3250 1613 
L 3250 1097 
L 2631 1097 
L 2631 0 
L 2069 0 
z
M 2069 1613 
L 2069 3678 
L 634 1613 
L 2069 1613 
z
" transform="scale(0.015625)"/>
       </defs>
       <use xlink:href="#ArialMT-34"/>
      </g>
     </g>
    </g>
    <g id="text_6">
     <!-- Parent-infant relationship index -->
     <g style="fill: #262626" transform="translate(46.487287 106.846296) scale(0.06 -0.06)">
      <defs>
       <path id="ArialMT-50" d="M 494 0 
L 494 4581 
L 2222 4581 
Q 2678 4581 2919 4538 
Q 3256 4481 3484 4323 
Q 3713 4166 3852 3881 
Q 3991 3597 3991 3256 
Q 3991 2672 3619 2267 
Q 3247 1863 2275 1863 
L 1100 1863 
L 1100 0 
L 494 0 
z
M 1100 2403 
L 2284 2403 
Q 2872 2403 3119 2622 
Q 3366 2841 3366 3238 
Q 3366 3525 3220 3729 
Q 3075 3934 2838 4000 
Q 2684 4041 2272 4041 
L 1100 4041 
L 1100 2403 
z
" transform="scale(0.015625)"/>
       <path id="ArialMT-61" d="M 2588 409 
Q 2275 144 1986 34 
Q 1697 -75 1366 -75 
Q 819 -75 525 192 
Q 231 459 231 875 
Q 231 1119 342 1320 
Q 453 1522 633 1644 
Q 813 1766 1038 1828 
Q 1203 1872 1538 1913 
Q 2219 1994 2541 2106 
Q 2544 2222 2544 2253 
Q 2544 2597 2384 2738 
Q 2169 2928 1744 2928 
Q 1347 2928 1158 2789 
Q 969 2650 878 2297 
L 328 2372 
Q 403 2725 575 2942 
Q 747 3159 1072 3276 
Q 1397 3394 1825 3394 
Q 2250 3394 2515 3294 
Q 2781 3194 2906 3042 
Q 3031 2891 3081 2659 
Q 3109 2516 3109 2141 
L 3109 1391 
Q 3109 606 3145 398 
Q 3181 191 3288 0 
L 2700 0 
Q 2613 175 2588 409 
z
M 2541 1666 
Q 2234 1541 1622 1453 
Q 1275 1403 1131 1340 
Q 988 1278 909 1158 
Q 831 1038 831 891 
Q 831 666 1001 516 
Q 1172 366 1500 366 
Q 1825 366 2078 508 
Q 2331 650 2450 897 
Q 2541 1088 2541 1459 
L 2541 1666 
z
" transform="scale(0.015625)"/>
       <path id="ArialMT-72" d="M 416 0 
L 416 3319 
L 922 3319 
L 922 2816 
Q 1116 3169 1280 3281 
Q 1444 3394 1641 3394 
Q 1925 3394 2219 3213 
L 2025 2691 
Q 1819 2813 1613 2813 
Q 1428 2813 1281 2702 
Q 1134 2591 1072 2394 
Q 978 2094 978 1738 
L 978 0 
L 416 0 
z
" transform="scale(0.015625)"/>
       <path id="ArialMT-65" d="M 2694 1069 
L 3275 997 
Q 3138 488 2766 206 
Q 2394 -75 1816 -75 
Q 1088 -75 661 373 
Q 234 822 234 1631 
Q 234 2469 665 2931 
Q 1097 3394 1784 3394 
Q 2450 3394 2872 2941 
Q 3294 2488 3294 1666 
Q 3294 1616 3291 1516 
L 816 1516 
Q 847 969 1125 678 
Q 1403 388 1819 388 
Q 2128 388 2347 550 
Q 2566 713 2694 1069 
z
M 847 1978 
L 2700 1978 
Q 2663 2397 2488 2606 
Q 2219 2931 1791 2931 
Q 1403 2931 1139 2672 
Q 875 2413 847 1978 
z
" transform="scale(0.015625)"/>
       <path id="ArialMT-6e" d="M 422 0 
L 422 3319 
L 928 3319 
L 928 2847 
Q 1294 3394 1984 3394 
Q 2284 3394 2536 3286 
Q 2788 3178 2913 3003 
Q 3038 2828 3088 2588 
Q 3119 2431 3119 2041 
L 3119 0 
L 2556 0 
L 2556 2019 
Q 2556 2363 2490 2533 
Q 2425 2703 2258 2804 
Q 2091 2906 1866 2906 
Q 1506 2906 1245 2678 
Q 984 2450 984 1813 
L 984 0 
L 422 0 
z
" transform="scale(0.015625)"/>
       <path id="ArialMT-74" d="M 1650 503 
L 1731 6 
Q 1494 -44 1306 -44 
Q 1000 -44 831 53 
Q 663 150 594 308 
Q 525 466 525 972 
L 525 2881 
L 113 2881 
L 113 3319 
L 525 3319 
L 525 4141 
L 1084 4478 
L 1084 3319 
L 1650 3319 
L 1650 2881 
L 1084 2881 
L 1084 941 
Q 1084 700 1114 631 
Q 1144 563 1211 522 
Q 1278 481 1403 481 
Q 1497 481 1650 503 
z
" transform="scale(0.015625)"/>
       <path id="ArialMT-2d" d="M 203 1375 
L 203 1941 
L 1931 1941 
L 1931 1375 
L 203 1375 
z
" transform="scale(0.015625)"/>
       <path id="ArialMT-69" d="M 425 3934 
L 425 4581 
L 988 4581 
L 988 3934 
L 425 3934 
z
M 425 0 
L 425 3319 
L 988 3319 
L 988 0 
L 425 0 
z
" transform="scale(0.015625)"/>
       <path id="ArialMT-66" d="M 556 0 
L 556 2881 
L 59 2881 
L 59 3319 
L 556 3319 
L 556 3672 
Q 556 4006 616 4169 
Q 697 4388 901 4523 
Q 1106 4659 1475 4659 
Q 1713 4659 2000 4603 
L 1916 4113 
Q 1741 4144 1584 4144 
Q 1328 4144 1222 4034 
Q 1116 3925 1116 3625 
L 1116 3319 
L 1763 3319 
L 1763 2881 
L 1116 2881 
L 1116 0 
L 556 0 
z
" transform="scale(0.015625)"/>
       <path id="ArialMT-20" transform="scale(0.015625)"/>
       <path id="ArialMT-6c" d="M 409 0 
L 409 4581 
L 972 4581 
L 972 0 
L 409 0 
z
" transform="scale(0.015625)"/>
       <path id="ArialMT-6f" d="M 213 1659 
Q 213 2581 725 3025 
Q 1153 3394 1769 3394 
Q 2453 3394 2887 2945 
Q 3322 2497 3322 1706 
Q 3322 1066 3130 698 
Q 2938 331 2570 128 
Q 2203 -75 1769 -75 
Q 1072 -75 642 372 
Q 213 819 213 1659 
z
M 791 1659 
Q 791 1022 1069 705 
Q 1347 388 1769 388 
Q 2188 388 2466 706 
Q 2744 1025 2744 1678 
Q 2744 2294 2464 2611 
Q 2184 2928 1769 2928 
Q 1347 2928 1069 2612 
Q 791 2297 791 1659 
z
" transform="scale(0.015625)"/>
       <path id="ArialMT-73" d="M 197 991 
L 753 1078 
Q 800 744 1014 566 
Q 1228 388 1613 388 
Q 2000 388 2187 545 
Q 2375 703 2375 916 
Q 2375 1106 2209 1216 
Q 2094 1291 1634 1406 
Q 1016 1563 777 1677 
Q 538 1791 414 1992 
Q 291 2194 291 2438 
Q 291 2659 392 2848 
Q 494 3038 669 3163 
Q 800 3259 1026 3326 
Q 1253 3394 1513 3394 
Q 1903 3394 2198 3281 
Q 2494 3169 2634 2976 
Q 2775 2784 2828 2463 
L 2278 2388 
Q 2241 2644 2061 2787 
Q 1881 2931 1553 2931 
Q 1166 2931 1000 2803 
Q 834 2675 834 2503 
Q 834 2394 903 2306 
Q 972 2216 1119 2156 
Q 1203 2125 1616 2013 
Q 2213 1853 2448 1751 
Q 2684 1650 2818 1456 
Q 2953 1263 2953 975 
Q 2953 694 2789 445 
Q 2625 197 2315 61 
Q 2006 -75 1616 -75 
Q 969 -75 630 194 
Q 291 463 197 991 
z
" transform="scale(0.015625)"/>
       <path id="ArialMT-68" d="M 422 0 
L 422 4581 
L 984 4581 
L 984 2938 
Q 1378 3394 1978 3394 
Q 2347 3394 2619 3248 
Q 2891 3103 3008 2847 
Q 3125 2591 3125 2103 
L 3125 0 
L 2563 0 
L 2563 2103 
Q 2563 2525 2380 2717 
Q 2197 2909 1863 2909 
Q 1613 2909 1392 2779 
Q 1172 2650 1078 2428 
Q 984 2206 984 1816 
L 984 0 
L 422 0 
z
" transform="scale(0.015625)"/>
       <path id="ArialMT-70" d="M 422 -1272 
L 422 3319 
L 934 3319 
L 934 2888 
Q 1116 3141 1344 3267 
Q 1572 3394 1897 3394 
Q 2322 3394 2647 3175 
Q 2972 2956 3137 2557 
Q 3303 2159 3303 1684 
Q 3303 1175 3120 767 
Q 2938 359 2589 142 
Q 2241 -75 1856 -75 
Q 1575 -75 1351 44 
Q 1128 163 984 344 
L 984 -1272 
L 422 -1272 
z
M 931 1641 
Q 931 1000 1190 694 
Q 1450 388 1819 388 
Q 2194 388 2461 705 
Q 2728 1022 2728 1688 
Q 2728 2322 2467 2637 
Q 2206 2953 1844 2953 
Q 1484 2953 1207 2617 
Q 931 2281 931 1641 
z
" transform="scale(0.015625)"/>
       <path id="ArialMT-64" d="M 2575 0 
L 2575 419 
Q 2259 -75 1647 -75 
Q 1250 -75 917 144 
Q 584 363 401 755 
Q 219 1147 219 1656 
Q 219 2153 384 2558 
Q 550 2963 881 3178 
Q 1213 3394 1622 3394 
Q 1922 3394 2156 3267 
Q 2391 3141 2538 2938 
L 2538 4581 
L 3097 4581 
L 3097 0 
L 2575 0 
z
M 797 1656 
Q 797 1019 1065 703 
Q 1334 388 1700 388 
Q 2069 388 2326 689 
Q 2584 991 2584 1609 
Q 2584 2291 2321 2609 
Q 2059 2928 1675 2928 
Q 1300 2928 1048 2622 
Q 797 2316 797 1656 
z
" transform="scale(0.015625)"/>
       <path id="ArialMT-78" d="M 47 0 
L 1259 1725 
L 138 3319 
L 841 3319 
L 1350 2541 
Q 1494 2319 1581 2169 
Q 1719 2375 1834 2534 
L 2394 3319 
L 3066 3319 
L 1919 1756 
L 3153 0 
L 2463 0 
L 1781 1031 
L 1600 1309 
L 728 0 
L 47 0 
z
" transform="scale(0.015625)"/>
      </defs>
      <use xlink:href="#ArialMT-50"/>
      <use xlink:href="#ArialMT-61" x="66.699219"/>
      <use xlink:href="#ArialMT-72" x="122.314453"/>
      <use xlink:href="#ArialMT-65" x="155.615234"/>
      <use xlink:href="#ArialMT-6e" x="211.230469"/>
      <use xlink:href="#ArialMT-74" x="266.845703"/>
      <use xlink:href="#ArialMT-2d" x="294.628906"/>
      <use xlink:href="#ArialMT-69" x="327.929688"/>
      <use xlink:href="#ArialMT-6e" x="350.146484"/>
      <use xlink:href="#ArialMT-66" x="405.761719"/>
      <use xlink:href="#ArialMT-61" x="433.544922"/>
      <use xlink:href="#ArialMT-6e" x="489.160156"/>
      <use xlink:href="#ArialMT-74" x="544.775391"/>
      <use xlink:href="#ArialMT-20" x="572.558594"/>
      <use xlink:href="#ArialMT-72" x="600.341797"/>
      <use xlink:href="#ArialMT-65" x="633.642578"/>
      <use xlink:href="#ArialMT-6c" x="689.257812"/>
      <use xlink:href="#ArialMT-61" x="711.474609"/>
      <use xlink:href="#ArialMT-74" x="767.089844"/>
      <use xlink:href="#ArialMT-69" x="794.873047"/>
      <use xlink:href="#ArialMT-6f" x="817.089844"/>
      <use xlink:href="#ArialMT-6e" x="872.705078"/>
      <use xlink:href="#ArialMT-73" x="928.320312"/>
      <use xlink:href="#ArialMT-68" x="978.320312"/>
      <use xlink:href="#ArialMT-69" x="1033.935547"/>
      <use xlink:href="#ArialMT-70" x="1056.152344"/>
      <use xlink:href="#ArialMT-20" x="1111.767578"/>
      <use xlink:href="#ArialMT-69" x="1139.550781"/>
      <use xlink:href="#ArialMT-6e" x="1161.767578"/>
      <use xlink:href="#ArialMT-64" x="1217.382812"/>
      <use xlink:href="#ArialMT-65" x="1272.998047"/>
      <use xlink:href="#ArialMT-78" x="1328.613281"/>
     </g>
    </g>
   </g>
   <g id="matplotlib.axis_2">
    <g id="ytick_1">
     <g id="text_7">
      <!-- −2 -->
      <g style="fill: #262626" transform="translate(14.979219 86.146698) scale(0.05 -0.05)">
       <defs>
        <path id="ArialMT-2212" d="M 3381 1997 
L 356 1997 
L 356 2522 
L 3381 2522 
L 3381 1997 
z
" transform="scale(0.015625)"/>
       </defs>
       <use xlink:href="#ArialMT-2212"/>
       <use xlink:href="#ArialMT-32" x="58.398438"/>
      </g>
     </g>
    </g>
    <g id="ytick_2">
     <g id="text_8">
      <!-- −1 -->
      <g style="fill: #262626" transform="translate(14.979219 68.007142) scale(0.05 -0.05)">
       <use xlink:href="#ArialMT-2212"/>
       <use xlink:href="#ArialMT-31" x="58.398438"/>
      </g>
     </g>
    </g>
    <g id="ytick_3">
     <g id="text_9">
      <!-- 0 -->
      <g style="fill: #262626" transform="translate(17.899531 49.867586) scale(0.05 -0.05)">
       <use xlink:href="#ArialMT-30"/>
      </g>
     </g>
    </g>
    <g id="ytick_4">
     <g id="text_10">
      <!-- 1 -->
      <g style="fill: #262626" transform="translate(17.899531 31.72803) scale(0.05 -0.05)">
       <use xlink:href="#ArialMT-31"/>
      </g>
     </g>
    </g>
    <g id="ytick_5">
     <g id="text_11">
      <!-- 2 -->
      <g style="fill: #262626" transform="translate(17.899531 13.588475) scale(0.05 -0.05)">
       <use xlink:href="#ArialMT-32"/>
      </g>
     </g>
    </g>
    <g id="text_12">
     <!-- CTh PC1 -->
     <g style="fill: #262626" transform="translate(9.786719 59.739476) rotate(-90) scale(0.06 -0.06)">
      <defs>
       <path id="ArialMT-43" d="M 3763 1606 
L 4369 1453 
Q 4178 706 3683 314 
Q 3188 -78 2472 -78 
Q 1731 -78 1267 223 
Q 803 525 561 1097 
Q 319 1669 319 2325 
Q 319 3041 592 3573 
Q 866 4106 1370 4382 
Q 1875 4659 2481 4659 
Q 3169 4659 3637 4309 
Q 4106 3959 4291 3325 
L 3694 3184 
Q 3534 3684 3231 3912 
Q 2928 4141 2469 4141 
Q 1941 4141 1586 3887 
Q 1231 3634 1087 3207 
Q 944 2781 944 2328 
Q 944 1744 1114 1308 
Q 1284 872 1643 656 
Q 2003 441 2422 441 
Q 2931 441 3284 734 
Q 3638 1028 3763 1606 
z
" transform="scale(0.015625)"/>
       <path id="ArialMT-54" d="M 1659 0 
L 1659 4041 
L 150 4041 
L 150 4581 
L 3781 4581 
L 3781 4041 
L 2266 4041 
L 2266 0 
L 1659 0 
z
" transform="scale(0.015625)"/>
      </defs>
      <use xlink:href="#ArialMT-43"/>
      <use xlink:href="#ArialMT-54" x="72.216797"/>
      <use xlink:href="#ArialMT-68" x="133.300781"/>
      <use xlink:href="#ArialMT-20" x="188.916016"/>
      <use xlink:href="#ArialMT-50" x="216.699219"/>
      <use xlink:href="#ArialMT-43" x="283.398438"/>
      <use xlink:href="#ArialMT-31" x="355.615234"/>
     </g>
    </g>
   </g>
   <g id="PathCollection_1">
    <defs>
     <path id="C0_0_150cbbee1f" d="M 0 1.414214 
C 0.375054 1.414214 0.734797 1.265203 1 1 
C 1.265203 0.734797 1.414214 0.375054 1.414214 -0 
C 1.414214 -0.375054 1.265203 -0.734797 1 -1 
C 0.734797 -1.265203 0.375054 -1.414214 0 -1.414214 
C -0.375054 -1.414214 -0.734797 -1.265203 -1 -1 
C -1.265203 -0.734797 -1.414214 -0.375054 -1.414214 0 
C -1.414214 0.375054 -1.265203 0.734797 -1 1 
C -0.734797 1.265203 -0.375054 1.414214 0 1.414214 
z
"/>
    </defs>
    <g clip-path="url(#p48486b5dba)">
     <use xlink:href="#C0_0_150cbbee1f" x="30.876614" y="39.489481" style="fill: #98c6ea; fill-opacity: 0.8"/>
    </g>
    <g clip-path="url(#p48486b5dba)">
     <use xlink:href="#C0_0_150cbbee1f" x="59.359685" y="58.988743" style="fill: #98c6ea; fill-opacity: 0.8"/>
    </g>
    <g clip-path="url(#p48486b5dba)">
     <use xlink:href="#C0_0_150cbbee1f" x="30.876614" y="26.380827" style="fill: #98c6ea; fill-opacity: 0.8"/>
    </g>
    <g clip-path="url(#p48486b5dba)">
     <use xlink:href="#C0_0_150cbbee1f" x="30.876614" y="36.596751" style="fill: #98c6ea; fill-opacity: 0.8"/>
    </g>
    <g clip-path="url(#p48486b5dba)">
     <use xlink:href="#C0_0_150cbbee1f" x="59.359685" y="65.071214" style="fill: #98c6ea; fill-opacity: 0.8"/>
    </g>
    <g clip-path="url(#p48486b5dba)">
     <use xlink:href="#C0_0_150cbbee1f" x="30.876614" y="54.317341" style="fill: #98c6ea; fill-opacity: 0.8"/>
    </g>
    <g clip-path="url(#p48486b5dba)">
     <use xlink:href="#C0_0_150cbbee1f" x="30.876614" y="78.355029" style="fill: #98c6ea; fill-opacity: 0.8"/>
    </g>
    <g clip-path="url(#p48486b5dba)">
     <use xlink:href="#C0_0_150cbbee1f" x="116.325827" y="57.958019" style="fill: #98c6ea; fill-opacity: 0.8"/>
    </g>
    <g clip-path="url(#p48486b5dba)">
     <use xlink:href="#C0_0_150cbbee1f" x="30.876614" y="65.447043" style="fill: #98c6ea; fill-opacity: 0.8"/>
    </g>
    <g clip-path="url(#p48486b5dba)">
     <use xlink:href="#C0_0_150cbbee1f" x="59.359685" y="9.218447" style="fill: #98c6ea; fill-opacity: 0.8"/>
    </g>
    <g clip-path="url(#p48486b5dba)">
     <use xlink:href="#C0_0_150cbbee1f" x="87.842756" y="72.793666" style="fill: #98c6ea; fill-opacity: 0.8"/>
    </g>
    <g clip-path="url(#p48486b5dba)">
     <use xlink:href="#C0_0_150cbbee1f" x="59.359685" y="45.25631" style="fill: #98c6ea; fill-opacity: 0.8"/>
    </g>
    <g clip-path="url(#p48486b5dba)">
     <use xlink:href="#C0_0_150cbbee1f" x="59.359685" y="38.191764" style="fill: #98c6ea; fill-opacity: 0.8"/>
    </g>
    <g clip-path="url(#p48486b5dba)">
     <use xlink:href="#C0_0_150cbbee1f" x="59.359685" y="23.029696" style="fill: #98c6ea; fill-opacity: 0.8"/>
    </g>
    <g clip-path="url(#p48486b5dba)">
     <use xlink:href="#C0_0_150cbbee1f" x="59.359685" y="61.320868" style="fill: #98c6ea; fill-opacity: 0.8"/>
    </g>
    <g clip-path="url(#p48486b5dba)">
     <use xlink:href="#C0_0_150cbbee1f" x="30.876614" y="37.959364" style="fill: #98c6ea; fill-opacity: 0.8"/>
    </g>
    <g clip-path="url(#p48486b5dba)">
     <use xlink:href="#C0_0_150cbbee1f" x="59.359685" y="41.483007" style="fill: #98c6ea; fill-opacity: 0.8"/>
    </g>
    <g clip-path="url(#p48486b5dba)">
     <use xlink:href="#C0_0_150cbbee1f" x="59.359685" y="41.364124" style="fill: #98c6ea; fill-opacity: 0.8"/>
    </g>
    <g clip-path="url(#p48486b5dba)">
     <use xlink:href="#C0_0_150cbbee1f" x="59.359685" y="71.990952" style="fill: #98c6ea; fill-opacity: 0.8"/>
    </g>
    <g clip-path="url(#p48486b5dba)">
     <use xlink:href="#C0_0_150cbbee1f" x="87.842756" y="48.953059" style="fill: #98c6ea; fill-opacity: 0.8"/>
    </g>
    <g clip-path="url(#p48486b5dba)">
     <use xlink:href="#C0_0_150cbbee1f" x="59.359685" y="84.009147" style="fill: #98c6ea; fill-opacity: 0.8"/>
    </g>
    <g clip-path="url(#p48486b5dba)">
     <use xlink:href="#C0_0_150cbbee1f" x="30.876614" y="65.005045" style="fill: #98c6ea; fill-opacity: 0.8"/>
    </g>
    <g clip-path="url(#p48486b5dba)">
     <use xlink:href="#C0_0_150cbbee1f" x="30.876614" y="47.256936" style="fill: #98c6ea; fill-opacity: 0.8"/>
    </g>
    <g clip-path="url(#p48486b5dba)">
     <use xlink:href="#C0_0_150cbbee1f" x="30.876614" y="37.560552" style="fill: #98c6ea; fill-opacity: 0.8"/>
    </g>
    <g clip-path="url(#p48486b5dba)">
     <use xlink:href="#C0_0_150cbbee1f" x="144.808898" y="60.666746" style="fill: #98c6ea; fill-opacity: 0.8"/>
    </g>
    <g clip-path="url(#p48486b5dba)">
     <use xlink:href="#C0_0_150cbbee1f" x="116.325827" y="50.110023" style="fill: #98c6ea; fill-opacity: 0.8"/>
    </g>
    <g clip-path="url(#p48486b5dba)">
     <use xlink:href="#C0_0_150cbbee1f" x="30.876614" y="39.297022" style="fill: #98c6ea; fill-opacity: 0.8"/>
    </g>
    <g clip-path="url(#p48486b5dba)">
     <use xlink:href="#C0_0_150cbbee1f" x="30.876614" y="16.75796" style="fill: #98c6ea; fill-opacity: 0.8"/>
    </g>
    <g clip-path="url(#p48486b5dba)">
     <use xlink:href="#C0_0_150cbbee1f" x="59.359685" y="75.275952" style="fill: #98c6ea; fill-opacity: 0.8"/>
    </g>
    <g clip-path="url(#p48486b5dba)">
     <use xlink:href="#C0_0_150cbbee1f" x="59.359685" y="74.166494" style="fill: #98c6ea; fill-opacity: 0.8"/>
    </g>
    <g clip-path="url(#p48486b5dba)">
     <use xlink:href="#C0_0_150cbbee1f" x="30.876614" y="44.917027" style="fill: #98c6ea; fill-opacity: 0.8"/>
    </g>
    <g clip-path="url(#p48486b5dba)">
     <use xlink:href="#C0_0_150cbbee1f" x="30.876614" y="36.949239" style="fill: #98c6ea; fill-opacity: 0.8"/>
    </g>
    <g clip-path="url(#p48486b5dba)">
     <use xlink:href="#C0_0_150cbbee1f" x="59.359685" y="41.071414" style="fill: #98c6ea; fill-opacity: 0.8"/>
    </g>
    <g clip-path="url(#p48486b5dba)">
     <use xlink:href="#C0_0_150cbbee1f" x="87.842756" y="69.833001" style="fill: #98c6ea; fill-opacity: 0.8"/>
    </g>
    <g clip-path="url(#p48486b5dba)">
     <use xlink:href="#C0_0_150cbbee1f" x="30.876614" y="52.183261" style="fill: #98c6ea; fill-opacity: 0.8"/>
    </g>
    <g clip-path="url(#p48486b5dba)">
     <use xlink:href="#C0_0_150cbbee1f" x="59.359685" y="64.748351" style="fill: #98c6ea; fill-opacity: 0.8"/>
    </g>
    <g clip-path="url(#p48486b5dba)">
     <use xlink:href="#C0_0_150cbbee1f" x="30.876614" y="34.526339" style="fill: #98c6ea; fill-opacity: 0.8"/>
    </g>
    <g clip-path="url(#p48486b5dba)">
     <use xlink:href="#C0_0_150cbbee1f" x="59.359685" y="64.823382" style="fill: #98c6ea; fill-opacity: 0.8"/>
    </g>
    <g clip-path="url(#p48486b5dba)">
     <use xlink:href="#C0_0_150cbbee1f" x="59.359685" y="43.954861" style="fill: #98c6ea; fill-opacity: 0.8"/>
    </g>
    <g clip-path="url(#p48486b5dba)">
     <use xlink:href="#C0_0_150cbbee1f" x="59.359685" y="36.159907" style="fill: #98c6ea; fill-opacity: 0.8"/>
    </g>
    <g clip-path="url(#p48486b5dba)">
     <use xlink:href="#C0_0_150cbbee1f" x="59.359685" y="66.079737" style="fill: #98c6ea; fill-opacity: 0.8"/>
    </g>
    <g clip-path="url(#p48486b5dba)">
     <use xlink:href="#C0_0_150cbbee1f" x="30.876614" y="65.175788" style="fill: #98c6ea; fill-opacity: 0.8"/>
    </g>
    <g clip-path="url(#p48486b5dba)">
     <use xlink:href="#C0_0_150cbbee1f" x="30.876614" y="42.150235" style="fill: #98c6ea; fill-opacity: 0.8"/>
    </g>
    <g clip-path="url(#p48486b5dba)">
     <use xlink:href="#C0_0_150cbbee1f" x="30.876614" y="26.26775" style="fill: #98c6ea; fill-opacity: 0.8"/>
    </g>
    <g clip-path="url(#p48486b5dba)">
     <use xlink:href="#C0_0_150cbbee1f" x="116.325827" y="80.352042" style="fill: #98c6ea; fill-opacity: 0.8"/>
    </g>
    <g clip-path="url(#p48486b5dba)">
     <use xlink:href="#C0_0_150cbbee1f" x="30.876614" y="57.263543" style="fill: #98c6ea; fill-opacity: 0.8"/>
    </g>
    <g clip-path="url(#p48486b5dba)">
     <use xlink:href="#C0_0_150cbbee1f" x="30.876614" y="42.807344" style="fill: #98c6ea; fill-opacity: 0.8"/>
    </g>
    <g clip-path="url(#p48486b5dba)">
     <use xlink:href="#C0_0_150cbbee1f" x="59.359685" y="50.666192" style="fill: #98c6ea; fill-opacity: 0.8"/>
    </g>
    <g clip-path="url(#p48486b5dba)">
     <use xlink:href="#C0_0_150cbbee1f" x="30.876614" y="39.612886" style="fill: #98c6ea; fill-opacity: 0.8"/>
    </g>
    <g clip-path="url(#p48486b5dba)">
     <use xlink:href="#C0_0_150cbbee1f" x="59.359685" y="30.580634" style="fill: #98c6ea; fill-opacity: 0.8"/>
    </g>
    <g clip-path="url(#p48486b5dba)">
     <use xlink:href="#C0_0_150cbbee1f" x="30.876614" y="79.415825" style="fill: #98c6ea; fill-opacity: 0.8"/>
    </g>
    <g clip-path="url(#p48486b5dba)">
     <use xlink:href="#C0_0_150cbbee1f" x="116.325827" y="85.58738" style="fill: #98c6ea; fill-opacity: 0.8"/>
    </g>
    <g clip-path="url(#p48486b5dba)">
     <use xlink:href="#C0_0_150cbbee1f" x="30.876614" y="82.310764" style="fill: #98c6ea; fill-opacity: 0.8"/>
    </g>
    <g clip-path="url(#p48486b5dba)">
     <use xlink:href="#C0_0_150cbbee1f" x="30.876614" y="27.192383" style="fill: #98c6ea; fill-opacity: 0.8"/>
    </g>
    <g clip-path="url(#p48486b5dba)">
     <use xlink:href="#C0_0_150cbbee1f" x="59.359685" y="67.562062" style="fill: #98c6ea; fill-opacity: 0.8"/>
    </g>
    <g clip-path="url(#p48486b5dba)">
     <use xlink:href="#C0_0_150cbbee1f" x="87.842756" y="55.410909" style="fill: #98c6ea; fill-opacity: 0.8"/>
    </g>
    <g clip-path="url(#p48486b5dba)">
     <use xlink:href="#C0_0_150cbbee1f" x="30.876614" y="31.735416" style="fill: #98c6ea; fill-opacity: 0.8"/>
    </g>
    <g clip-path="url(#p48486b5dba)">
     <use xlink:href="#C0_0_150cbbee1f" x="30.876614" y="65.106819" style="fill: #98c6ea; fill-opacity: 0.8"/>
    </g>
    <g clip-path="url(#p48486b5dba)">
     <use xlink:href="#C0_0_150cbbee1f" x="59.359685" y="64.770924" style="fill: #98c6ea; fill-opacity: 0.8"/>
    </g>
    <g clip-path="url(#p48486b5dba)">
     <use xlink:href="#C0_0_150cbbee1f" x="30.876614" y="57.345558" style="fill: #98c6ea; fill-opacity: 0.8"/>
    </g>
    <g clip-path="url(#p48486b5dba)">
     <use xlink:href="#C0_0_150cbbee1f" x="30.876614" y="68.2453" style="fill: #98c6ea; fill-opacity: 0.8"/>
    </g>
    <g clip-path="url(#p48486b5dba)">
     <use xlink:href="#C0_0_150cbbee1f" x="59.359685" y="39.884028" style="fill: #98c6ea; fill-opacity: 0.8"/>
    </g>
    <g clip-path="url(#p48486b5dba)">
     <use xlink:href="#C0_0_150cbbee1f" x="30.876614" y="70.466321" style="fill: #98c6ea; fill-opacity: 0.8"/>
    </g>
    <g clip-path="url(#p48486b5dba)">
     <use xlink:href="#C0_0_150cbbee1f" x="59.359685" y="45.405179" style="fill: #98c6ea; fill-opacity: 0.8"/>
    </g>
    <g clip-path="url(#p48486b5dba)">
     <use xlink:href="#C0_0_150cbbee1f" x="30.876614" y="22.969191" style="fill: #98c6ea; fill-opacity: 0.8"/>
    </g>
    <g clip-path="url(#p48486b5dba)">
     <use xlink:href="#C0_0_150cbbee1f" x="30.876614" y="41.536154" style="fill: #98c6ea; fill-opacity: 0.8"/>
    </g>
    <g clip-path="url(#p48486b5dba)">
     <use xlink:href="#C0_0_150cbbee1f" x="59.359685" y="74.242166" style="fill: #98c6ea; fill-opacity: 0.8"/>
    </g>
    <g clip-path="url(#p48486b5dba)">
     <use xlink:href="#C0_0_150cbbee1f" x="59.359685" y="63.439654" style="fill: #98c6ea; fill-opacity: 0.8"/>
    </g>
    <g clip-path="url(#p48486b5dba)">
     <use xlink:href="#C0_0_150cbbee1f" x="30.876614" y="16.524219" style="fill: #98c6ea; fill-opacity: 0.8"/>
    </g>
    <g clip-path="url(#p48486b5dba)">
     <use xlink:href="#C0_0_150cbbee1f" x="30.876614" y="60.049763" style="fill: #98c6ea; fill-opacity: 0.8"/>
    </g>
    <g clip-path="url(#p48486b5dba)">
     <use xlink:href="#C0_0_150cbbee1f" x="30.876614" y="19.909228" style="fill: #98c6ea; fill-opacity: 0.8"/>
    </g>
    <g clip-path="url(#p48486b5dba)">
     <use xlink:href="#C0_0_150cbbee1f" x="116.325827" y="67.543401" style="fill: #98c6ea; fill-opacity: 0.8"/>
    </g>
    <g clip-path="url(#p48486b5dba)">
     <use xlink:href="#C0_0_150cbbee1f" x="30.876614" y="58.707933" style="fill: #98c6ea; fill-opacity: 0.8"/>
    </g>
    <g clip-path="url(#p48486b5dba)">
     <use xlink:href="#C0_0_150cbbee1f" x="59.359685" y="50.137165" style="fill: #98c6ea; fill-opacity: 0.8"/>
    </g>
    <g clip-path="url(#p48486b5dba)">
     <use xlink:href="#C0_0_150cbbee1f" x="59.359685" y="72.494407" style="fill: #98c6ea; fill-opacity: 0.8"/>
    </g>
    <g clip-path="url(#p48486b5dba)">
     <use xlink:href="#C0_0_150cbbee1f" x="30.876614" y="50.644582" style="fill: #98c6ea; fill-opacity: 0.8"/>
    </g>
    <g clip-path="url(#p48486b5dba)">
     <use xlink:href="#C0_0_150cbbee1f" x="59.359685" y="46.363887" style="fill: #98c6ea; fill-opacity: 0.8"/>
    </g>
    <g clip-path="url(#p48486b5dba)">
     <use xlink:href="#C0_0_150cbbee1f" x="30.876614" y="75.639968" style="fill: #98c6ea; fill-opacity: 0.8"/>
    </g>
    <g clip-path="url(#p48486b5dba)">
     <use xlink:href="#C0_0_150cbbee1f" x="30.876614" y="40.16818" style="fill: #98c6ea; fill-opacity: 0.8"/>
    </g>
    <g clip-path="url(#p48486b5dba)">
     <use xlink:href="#C0_0_150cbbee1f" x="87.842756" y="61.466624" style="fill: #98c6ea; fill-opacity: 0.8"/>
    </g>
    <g clip-path="url(#p48486b5dba)">
     <use xlink:href="#C0_0_150cbbee1f" x="59.359685" y="20.10405" style="fill: #98c6ea; fill-opacity: 0.8"/>
    </g>
    <g clip-path="url(#p48486b5dba)">
     <use xlink:href="#C0_0_150cbbee1f" x="30.876614" y="67.376395" style="fill: #98c6ea; fill-opacity: 0.8"/>
    </g>
    <g clip-path="url(#p48486b5dba)">
     <use xlink:href="#C0_0_150cbbee1f" x="30.876614" y="82.337892" style="fill: #98c6ea; fill-opacity: 0.8"/>
    </g>
    <g clip-path="url(#p48486b5dba)">
     <use xlink:href="#C0_0_150cbbee1f" x="30.876614" y="60.809183" style="fill: #98c6ea; fill-opacity: 0.8"/>
    </g>
    <g clip-path="url(#p48486b5dba)">
     <use xlink:href="#C0_0_150cbbee1f" x="30.876614" y="60.250456" style="fill: #98c6ea; fill-opacity: 0.8"/>
    </g>
    <g clip-path="url(#p48486b5dba)">
     <use xlink:href="#C0_0_150cbbee1f" x="30.876614" y="64.236874" style="fill: #98c6ea; fill-opacity: 0.8"/>
    </g>
    <g clip-path="url(#p48486b5dba)">
     <use xlink:href="#C0_0_150cbbee1f" x="87.842756" y="32.766692" style="fill: #98c6ea; fill-opacity: 0.8"/>
    </g>
    <g clip-path="url(#p48486b5dba)">
     <use xlink:href="#C0_0_150cbbee1f" x="30.876614" y="26.716497" style="fill: #98c6ea; fill-opacity: 0.8"/>
    </g>
    <g clip-path="url(#p48486b5dba)">
     <use xlink:href="#C0_0_150cbbee1f" x="30.876614" y="54.308581" style="fill: #98c6ea; fill-opacity: 0.8"/>
    </g>
    <g clip-path="url(#p48486b5dba)">
     <use xlink:href="#C0_0_150cbbee1f" x="30.876614" y="17.88252" style="fill: #98c6ea; fill-opacity: 0.8"/>
    </g>
    <g clip-path="url(#p48486b5dba)">
     <use xlink:href="#C0_0_150cbbee1f" x="30.876614" y="72.488454" style="fill: #98c6ea; fill-opacity: 0.8"/>
    </g>
   </g>
   <g id="PolyCollection_1">
    <defs>
     <path id="ma201318eec" d="M 30.876614 -69.305345 
L 30.876614 -59.871034 
L 32.027445 -59.754044 
L 33.178276 -59.63636 
L 34.329108 -59.548724 
L 35.479939 -59.424716 
L 36.63077 -59.33336 
L 37.781601 -59.218223 
L 38.932432 -59.1017 
L 40.083263 -58.978299 
L 41.234094 -58.858231 
L 42.384926 -58.723169 
L 43.535757 -58.586893 
L 44.686588 -58.446841 
L 45.837419 -58.305446 
L 46.98825 -58.14215 
L 48.139081 -57.996378 
L 49.289913 -57.843967 
L 50.440744 -57.666216 
L 51.591575 -57.525282 
L 52.742406 -57.337637 
L 53.893237 -57.150516 
L 55.044068 -56.954257 
L 56.194899 -56.745942 
L 57.345731 -56.543281 
L 58.496562 -56.329679 
L 59.647393 -56.107857 
L 60.798224 -55.906012 
L 61.949055 -55.68036 
L 63.099886 -55.425561 
L 64.250717 -55.171209 
L 65.401549 -54.941299 
L 66.55238 -54.703184 
L 67.703211 -54.471899 
L 68.854042 -54.201147 
L 70.004873 -53.9138 
L 71.155704 -53.635793 
L 72.306535 -53.347091 
L 73.457367 -53.073888 
L 74.608198 -52.798899 
L 75.759029 -52.513887 
L 76.90986 -52.200817 
L 78.060691 -51.893935 
L 79.211522 -51.625447 
L 80.362353 -51.35955 
L 81.513185 -51.08611 
L 82.664016 -50.773005 
L 83.814847 -50.473005 
L 84.965678 -50.174621 
L 86.116509 -49.864158 
L 87.26734 -49.563373 
L 88.418171 -49.241043 
L 89.569003 -48.920041 
L 90.719834 -48.605534 
L 91.870665 -48.289902 
L 93.021496 -47.977739 
L 94.172327 -47.653801 
L 95.323158 -47.324257 
L 96.47399 -47.042345 
L 97.624821 -46.726107 
L 98.775652 -46.422513 
L 99.926483 -46.111454 
L 101.077314 -45.779314 
L 102.228145 -45.453968 
L 103.378976 -45.114364 
L 104.529808 -44.791085 
L 105.680639 -44.471349 
L 106.83147 -44.142446 
L 107.982301 -43.809785 
L 109.133132 -43.477463 
L 110.283963 -43.165014 
L 111.434794 -42.837702 
L 112.585626 -42.507784 
L 113.736457 -42.183037 
L 114.887288 -41.848463 
L 116.038119 -41.518733 
L 117.18895 -41.170887 
L 118.339781 -40.837884 
L 119.490612 -40.504398 
L 120.641444 -40.166151 
L 121.792275 -39.833266 
L 122.943106 -39.498698 
L 124.093937 -39.162457 
L 125.244768 -38.825964 
L 126.395599 -38.476981 
L 127.54643 -38.138536 
L 128.697262 -37.831242 
L 129.848093 -37.481938 
L 130.998924 -37.14295 
L 132.149755 -36.803198 
L 133.300586 -36.46781 
L 134.451417 -36.133319 
L 135.602248 -35.796869 
L 136.75308 -35.460267 
L 137.903911 -35.123508 
L 139.054742 -34.786792 
L 140.205573 -34.450034 
L 141.356404 -34.11384 
L 142.507235 -33.784282 
L 143.658066 -33.458726 
L 144.808898 -33.137352 
L 144.808898 -57.22621 
L 144.808898 -57.22621 
L 143.658066 -57.268592 
L 142.507235 -57.326447 
L 141.356404 -57.391573 
L 140.205573 -57.451978 
L 139.054742 -57.497893 
L 137.903911 -57.550569 
L 136.75308 -57.612438 
L 135.602248 -57.668318 
L 134.451417 -57.733176 
L 133.300586 -57.783373 
L 132.149755 -57.842025 
L 130.998924 -57.914777 
L 129.848093 -57.969159 
L 128.697262 -58.038901 
L 127.54643 -58.097153 
L 126.395599 -58.15118 
L 125.244768 -58.20353 
L 124.093937 -58.274458 
L 122.943106 -58.319338 
L 121.792275 -58.394225 
L 120.641444 -58.439635 
L 119.490612 -58.51258 
L 118.339781 -58.575682 
L 117.18895 -58.665365 
L 116.038119 -58.714112 
L 114.887288 -58.794998 
L 113.736457 -58.861519 
L 112.585626 -58.917507 
L 111.434794 -58.988911 
L 110.283963 -59.045365 
L 109.133132 -59.1037 
L 107.982301 -59.168505 
L 106.83147 -59.24993 
L 105.680639 -59.330964 
L 104.529808 -59.400296 
L 103.378976 -59.471696 
L 102.228145 -59.532587 
L 101.077314 -59.600851 
L 99.926483 -59.664495 
L 98.775652 -59.744923 
L 97.624821 -59.817173 
L 96.47399 -59.889251 
L 95.323158 -59.955499 
L 94.172327 -60.003954 
L 93.021496 -60.083383 
L 91.870665 -60.160092 
L 90.719834 -60.240245 
L 89.569003 -60.317411 
L 88.418171 -60.393474 
L 87.26734 -60.489828 
L 86.116509 -60.586102 
L 84.965678 -60.696724 
L 83.814847 -60.79341 
L 82.664016 -60.886224 
L 81.513185 -60.965575 
L 80.362353 -61.053737 
L 79.211522 -61.173525 
L 78.060691 -61.285183 
L 76.90986 -61.376923 
L 75.759029 -61.487415 
L 74.608198 -61.623724 
L 73.457367 -61.723469 
L 72.306535 -61.826036 
L 71.155704 -61.940138 
L 70.004873 -62.077222 
L 68.854042 -62.20446 
L 67.703211 -62.350958 
L 66.55238 -62.505726 
L 65.401549 -62.637756 
L 64.250717 -62.798664 
L 63.099886 -62.961557 
L 61.949055 -63.129293 
L 60.798224 -63.310946 
L 59.647393 -63.484987 
L 58.496562 -63.658911 
L 57.345731 -63.869709 
L 56.194899 -64.047777 
L 55.044068 -64.247529 
L 53.893237 -64.425127 
L 52.742406 -64.615415 
L 51.591575 -64.835892 
L 50.440744 -65.041759 
L 49.289913 -65.255764 
L 48.139081 -65.452688 
L 46.98825 -65.679369 
L 45.837419 -65.890933 
L 44.686588 -66.121807 
L 43.535757 -66.357189 
L 42.384926 -66.606659 
L 41.234094 -66.857238 
L 40.083263 -67.110872 
L 38.932432 -67.361817 
L 37.781601 -67.636511 
L 36.63077 -67.889026 
L 35.479939 -68.159137 
L 34.329108 -68.436001 
L 33.178276 -68.71067 
L 32.027445 -68.995893 
L 30.876614 -69.305345 
z
" style="stroke: #ffffff; stroke-opacity: 0.15"/>
    </defs>
    <g clip-path="url(#p48486b5dba)">
     <use xlink:href="#ma201318eec" x="0" y="113.385827" style="fill: #98c6ea; fill-opacity: 0.15; stroke: #ffffff; stroke-opacity: 0.15"/>
    </g>
   </g>
   <g id="line2d_1">
    <path d="M 30.876614 48.764799 
L 32.027445 48.959228 
L 33.178276 49.153657 
L 34.329108 49.348085 
L 35.479939 49.542514 
L 36.63077 49.736943 
L 37.781601 49.931371 
L 38.932432 50.1258 
L 40.083263 50.320229 
L 41.234094 50.514657 
L 42.384926 50.709086 
L 43.535757 50.903514 
L 44.686588 51.097943 
L 45.837419 51.292372 
L 46.98825 51.4868 
L 48.139081 51.681229 
L 49.289913 51.875658 
L 50.440744 52.070086 
L 51.591575 52.264515 
L 52.742406 52.458944 
L 53.893237 52.653372 
L 55.044068 52.847801 
L 56.194899 53.04223 
L 57.345731 53.236658 
L 58.496562 53.431087 
L 59.647393 53.625515 
L 60.798224 53.819944 
L 61.949055 54.014373 
L 63.099886 54.208801 
L 64.250717 54.40323 
L 65.401549 54.597659 
L 66.55238 54.792087 
L 67.703211 54.986516 
L 68.854042 55.180945 
L 70.004873 55.375373 
L 71.155704 55.569802 
L 72.306535 55.764231 
L 73.457367 55.958659 
L 74.608198 56.153088 
L 75.759029 56.347517 
L 76.90986 56.541945 
L 78.060691 56.736374 
L 79.211522 56.930802 
L 80.362353 57.125231 
L 81.513185 57.31966 
L 82.664016 57.514088 
L 83.814847 57.708517 
L 84.965678 57.902946 
L 86.116509 58.097374 
L 87.26734 58.291803 
L 88.418171 58.486232 
L 89.569003 58.68066 
L 90.719834 58.875089 
L 91.870665 59.069518 
L 93.021496 59.263946 
L 94.172327 59.458375 
L 95.323158 59.652803 
L 96.47399 59.847232 
L 97.624821 60.041661 
L 98.775652 60.236089 
L 99.926483 60.430518 
L 101.077314 60.624947 
L 102.228145 60.819375 
L 103.378976 61.013804 
L 104.529808 61.208233 
L 105.680639 61.402661 
L 106.83147 61.59709 
L 107.982301 61.791519 
L 109.133132 61.985947 
L 110.283963 62.180376 
L 111.434794 62.374804 
L 112.585626 62.569233 
L 113.736457 62.763662 
L 114.887288 62.95809 
L 116.038119 63.152519 
L 117.18895 63.346948 
L 118.339781 63.541376 
L 119.490612 63.735805 
L 120.641444 63.930234 
L 121.792275 64.124662 
L 122.943106 64.319091 
L 124.093937 64.51352 
L 125.244768 64.707948 
L 126.395599 64.902377 
L 127.54643 65.096806 
L 128.697262 65.291234 
L 129.848093 65.485663 
L 130.998924 65.680091 
L 132.149755 65.87452 
L 133.300586 66.068949 
L 134.451417 66.263377 
L 135.602248 66.457806 
L 136.75308 66.652235 
L 137.903911 66.846663 
L 139.054742 67.041092 
L 140.205573 67.235521 
L 141.356404 67.429949 
L 142.507235 67.624378 
L 143.658066 67.818807 
L 144.808898 68.013235 
" clip-path="url(#p48486b5dba)" style="fill: none; stroke: #98c6ea; stroke-width: 1.5; stroke-linecap: round"/>
   </g>
   <g id="patch_3">
    <path d="M 25.18 89.405827 
L 25.18 5.4 
" style="fill: none; stroke: #262626; stroke-width: 0.25; stroke-linejoin: miter; stroke-linecap: square"/>
   </g>
   <g id="patch_4">
    <path d="M 25.18 89.405827 
L 150.505512 89.405827 
" style="fill: none; stroke: #262626; stroke-width: 0.25; stroke-linejoin: miter; stroke-linecap: square"/>
   </g>
   <g id="text_13">
    <g id="patch_5">
     <path d="M 28.939765 18.702773 
L 57.339765 18.702773 
Q 58.839765 18.702773 58.839765 17.202773 
L 58.839765 7.136367 
Q 58.839765 5.636367 57.339765 5.636367 
L 28.939765 5.636367 
Q 27.439765 5.636367 27.439765 7.136367 
L 27.439765 17.202773 
Q 27.439765 18.702773 28.939765 18.702773 
z
" style="fill: #c0c0c0; opacity: 0.4; stroke: #c0c0c0; stroke-linejoin: miter"/>
    </g>
    <!-- $r=-0.211$ -->
    <g style="fill: #262626" transform="translate(28.939765 10.659023) scale(0.05 -0.05)">
     <defs>
      <path id="DejaVuSans-Oblique-72" d="M 2853 2969 
Q 2766 3016 2653 3041 
Q 2541 3066 2413 3066 
Q 1953 3066 1609 2717 
Q 1266 2369 1153 1784 
L 800 0 
L 225 0 
L 909 3500 
L 1484 3500 
L 1375 2956 
Q 1603 3259 1920 3421 
Q 2238 3584 2597 3584 
Q 2691 3584 2781 3573 
Q 2872 3563 2963 3538 
L 2853 2969 
z
" transform="scale(0.015625)"/>
      <path id="DejaVuSans-3d" d="M 678 2906 
L 4684 2906 
L 4684 2381 
L 678 2381 
L 678 2906 
z
M 678 1631 
L 4684 1631 
L 4684 1100 
L 678 1100 
L 678 1631 
z
" transform="scale(0.015625)"/>
      <path id="DejaVuSans-2212" d="M 678 2272 
L 4684 2272 
L 4684 1741 
L 678 1741 
L 678 2272 
z
" transform="scale(0.015625)"/>
      <path id="DejaVuSans-30" d="M 2034 4250 
Q 1547 4250 1301 3770 
Q 1056 3291 1056 2328 
Q 1056 1369 1301 889 
Q 1547 409 2034 409 
Q 2525 409 2770 889 
Q 3016 1369 3016 2328 
Q 3016 3291 2770 3770 
Q 2525 4250 2034 4250 
z
M 2034 4750 
Q 2819 4750 3233 4129 
Q 3647 3509 3647 2328 
Q 3647 1150 3233 529 
Q 2819 -91 2034 -91 
Q 1250 -91 836 529 
Q 422 1150 422 2328 
Q 422 3509 836 4129 
Q 1250 4750 2034 4750 
z
" transform="scale(0.015625)"/>
      <path id="DejaVuSans-2e" d="M 684 794 
L 1344 794 
L 1344 0 
L 684 0 
L 684 794 
z
" transform="scale(0.015625)"/>
      <path id="DejaVuSans-32" d="M 1228 531 
L 3431 531 
L 3431 0 
L 469 0 
L 469 531 
Q 828 903 1448 1529 
Q 2069 2156 2228 2338 
Q 2531 2678 2651 2914 
Q 2772 3150 2772 3378 
Q 2772 3750 2511 3984 
Q 2250 4219 1831 4219 
Q 1534 4219 1204 4116 
Q 875 4013 500 3803 
L 500 4441 
Q 881 4594 1212 4672 
Q 1544 4750 1819 4750 
Q 2544 4750 2975 4387 
Q 3406 4025 3406 3419 
Q 3406 3131 3298 2873 
Q 3191 2616 2906 2266 
Q 2828 2175 2409 1742 
Q 1991 1309 1228 531 
z
" transform="scale(0.015625)"/>
      <path id="DejaVuSans-31" d="M 794 531 
L 1825 531 
L 1825 4091 
L 703 3866 
L 703 4441 
L 1819 4666 
L 2450 4666 
L 2450 531 
L 3481 531 
L 3481 0 
L 794 0 
L 794 531 
z
" transform="scale(0.015625)"/>
     </defs>
     <use xlink:href="#DejaVuSans-Oblique-72" transform="translate(0 0.78125)"/>
     <use xlink:href="#DejaVuSans-3d" transform="translate(60.595703 0.78125)"/>
     <use xlink:href="#DejaVuSans-2212" transform="translate(183.349609 0.78125)"/>
     <use xlink:href="#DejaVuSans-30" transform="translate(286.621094 0.78125)"/>
     <use xlink:href="#DejaVuSans-2e" transform="translate(350.244141 0.78125)"/>
     <use xlink:href="#DejaVuSans-32" transform="translate(376.53125 0.78125)"/>
     <use xlink:href="#DejaVuSans-31" transform="translate(440.154297 0.78125)"/>
     <use xlink:href="#DejaVuSans-31" transform="translate(503.777344 0.78125)"/>
    </g>
    <!-- $p=0.044$ -->
    <g style="fill: #262626" transform="translate(28.939765 16.152773) scale(0.05 -0.05)">
     <defs>
      <path id="DejaVuSans-Oblique-70" d="M 3175 2156 
Q 3175 2616 2975 2859 
Q 2775 3103 2400 3103 
Q 2144 3103 1911 2972 
Q 1678 2841 1497 2591 
Q 1319 2344 1212 1994 
Q 1106 1644 1106 1300 
Q 1106 863 1306 627 
Q 1506 391 1875 391 
Q 2147 391 2380 519 
Q 2613 647 2778 891 
Q 2956 1147 3065 1494 
Q 3175 1841 3175 2156 
z
M 1394 2969 
Q 1625 3272 1939 3428 
Q 2253 3584 2638 3584 
Q 3175 3584 3472 3232 
Q 3769 2881 3769 2247 
Q 3769 1728 3584 1258 
Q 3400 788 3053 416 
Q 2822 169 2531 39 
Q 2241 -91 1919 -91 
Q 1547 -91 1294 64 
Q 1041 219 916 525 
L 556 -1331 
L -19 -1331 
L 922 3500 
L 1497 3500 
L 1394 2969 
z
" transform="scale(0.015625)"/>
      <path id="DejaVuSans-34" d="M 2419 4116 
L 825 1625 
L 2419 1625 
L 2419 4116 
z
M 2253 4666 
L 3047 4666 
L 3047 1625 
L 3713 1625 
L 3713 1100 
L 3047 1100 
L 3047 0 
L 2419 0 
L 2419 1100 
L 313 1100 
L 313 1709 
L 2253 4666 
z
" transform="scale(0.015625)"/>
     </defs>
     <use xlink:href="#DejaVuSans-Oblique-70" transform="translate(0 0.78125)"/>
     <use xlink:href="#DejaVuSans-3d" transform="translate(82.958984 0.78125)"/>
     <use xlink:href="#DejaVuSans-30" transform="translate(186.230469 0.78125)"/>
     <use xlink:href="#DejaVuSans-2e" transform="translate(249.853516 0.78125)"/>
     <use xlink:href="#DejaVuSans-30" transform="translate(281.640625 0.78125)"/>
     <use xlink:href="#DejaVuSans-34" transform="translate(345.263672 0.78125)"/>
     <use xlink:href="#DejaVuSans-34" transform="translate(408.886719 0.78125)"/>
    </g>
   </g>
  </g>
 </g>
 <defs>
  <clipPath id="p48486b5dba">
   <rect x="25.18" y="5.4" width="125.325512" height="84.005827"/>
  </clipPath>
 </defs>
</svg>
