<?xml version="1.0" encoding="utf-8" standalone="no"?>
<!DOCTYPE svg PUBLIC "-//W3C//DTD SVG 1.1//EN"
  "http://www.w3.org/Graphics/SVG/1.1/DTD/svg11.dtd">
<svg xmlns:xlink="http://www.w3.org/1999/xlink" width="155.905512pt" height="113.385827pt" viewBox="0 0 155.905512 113.385827" xmlns="http://www.w3.org/2000/svg" version="1.1">
 <metadata>
  <rdf:RDF xmlns:dc="http://purl.org/dc/elements/1.1/" xmlns:cc="http://creativecommons.org/ns#" xmlns:rdf="http://www.w3.org/1999/02/22-rdf-syntax-ns#">
   <cc:Work>
    <dc:type rdf:resource="http://purl.org/dc/dcmitype/StillImage"/>
    <dc:date>2025-09-01T12:43:02.568965</dc:date>
    <dc:format>image/svg+xml</dc:format>
    <dc:creator>
     <cc:Agent>
      <dc:title>Matplotlib v3.9.2, https://matplotlib.org/</dc:title>
     </cc:Agent>
    </dc:creator>
   </cc:Work>
  </rdf:RDF>
 </metadata>
 <defs>
  <style type="text/css">*{stroke-linejoin: round; stroke-linecap: butt}</style>
 </defs>
 <g id="figure_1">
  <g id="patch_1">
   <path d="M 0 113.385827 
L 155.905512 113.385827 
L 155.905512 0 
L 0 0 
z
" style="fill: #ffffff"/>
  </g>
  <g id="axes_1">
   <g id="patch_2">
    <path d="M 29.38 89.405827 
L 150.505512 89.405827 
L 150.505512 5.4 
L 29.38 5.4 
z
" style="fill: #ffffff"/>
   </g>
   <g id="PathCollection_1">
    <defs>
     <path id="C0_0_ac27253be8" d="M 0 0.866025 
C 0.229673 0.866025 0.449969 0.774776 0.612372 0.612372 
C 0.774776 0.449969 0.866025 0.229673 0.866025 -0 
C 0.866025 -0.229673 0.774776 -0.449969 0.612372 -0.612372 
C 0.449969 -0.774776 0.229673 -0.866025 0 -0.866025 
C -0.229673 -0.866025 -0.449969 -0.774776 -0.612372 -0.612372 
C -0.774776 -0.449969 -0.866025 -0.229673 -0.866025 0 
C -0.866025 0.229673 -0.774776 0.449969 -0.612372 0.612372 
C -0.449969 0.774776 -0.229673 0.866025 0 0.866025 
z
"/>
    </defs>
    <g clip-path="url(#p69aa02eec9)">
     <use xlink:href="#C0_0_ac27253be8" x="89.942756" y="85.58738" style="fill: #ff8c00; fill-opacity: 0.8"/>
    </g>
    <g clip-path="url(#p69aa02eec9)">
     <use xlink:href="#C0_0_ac27253be8" x="89.942756" y="68.616506" style="fill: #ff8c00; fill-opacity: 0.8"/>
    </g>
    <g clip-path="url(#p69aa02eec9)">
     <use xlink:href="#C0_0_ac27253be8" x="144.999807" y="81.344662" style="fill: #ff8c00; fill-opacity: 0.8"/>
    </g>
    <g clip-path="url(#p69aa02eec9)">
     <use xlink:href="#C0_0_ac27253be8" x="89.942756" y="81.344662" style="fill: #ff8c00; fill-opacity: 0.8"/>
    </g>
    <g clip-path="url(#p69aa02eec9)">
     <use xlink:href="#C0_0_ac27253be8" x="144.999807" y="72.859225" style="fill: #ff8c00; fill-opacity: 0.8"/>
    </g>
    <g clip-path="url(#p69aa02eec9)">
     <use xlink:href="#C0_0_ac27253be8" x="34.885705" y="81.344662" style="fill: #ff8c00; fill-opacity: 0.8"/>
    </g>
    <g clip-path="url(#p69aa02eec9)">
     <use xlink:href="#C0_0_ac27253be8" x="144.999807" y="43.160195" style="fill: #ff8c00; fill-opacity: 0.8"/>
    </g>
    <g clip-path="url(#p69aa02eec9)">
     <use xlink:href="#C0_0_ac27253be8" x="89.942756" y="68.616506" style="fill: #ff8c00; fill-opacity: 0.8"/>
    </g>
    <g clip-path="url(#p69aa02eec9)">
     <use xlink:href="#C0_0_ac27253be8" x="89.942756" y="72.859225" style="fill: #ff8c00; fill-opacity: 0.8"/>
    </g>
    <g clip-path="url(#p69aa02eec9)">
     <use xlink:href="#C0_0_ac27253be8" x="34.885705" y="85.58738" style="fill: #ff8c00; fill-opacity: 0.8"/>
    </g>
    <g clip-path="url(#p69aa02eec9)">
     <use xlink:href="#C0_0_ac27253be8" x="34.885705" y="55.88835" style="fill: #ff8c00; fill-opacity: 0.8"/>
    </g>
    <g clip-path="url(#p69aa02eec9)">
     <use xlink:href="#C0_0_ac27253be8" x="89.942756" y="77.101943" style="fill: #ff8c00; fill-opacity: 0.8"/>
    </g>
    <g clip-path="url(#p69aa02eec9)">
     <use xlink:href="#C0_0_ac27253be8" x="89.942756" y="85.58738" style="fill: #ff8c00; fill-opacity: 0.8"/>
    </g>
    <g clip-path="url(#p69aa02eec9)">
     <use xlink:href="#C0_0_ac27253be8" x="89.942756" y="85.58738" style="fill: #ff8c00; fill-opacity: 0.8"/>
    </g>
    <g clip-path="url(#p69aa02eec9)">
     <use xlink:href="#C0_0_ac27253be8" x="34.885705" y="68.616506" style="fill: #ff8c00; fill-opacity: 0.8"/>
    </g>
    <g clip-path="url(#p69aa02eec9)">
     <use xlink:href="#C0_0_ac27253be8" x="34.885705" y="85.58738" style="fill: #ff8c00; fill-opacity: 0.8"/>
    </g>
    <g clip-path="url(#p69aa02eec9)">
     <use xlink:href="#C0_0_ac27253be8" x="34.885705" y="85.58738" style="fill: #ff8c00; fill-opacity: 0.8"/>
    </g>
    <g clip-path="url(#p69aa02eec9)">
     <use xlink:href="#C0_0_ac27253be8" x="34.885705" y="85.58738" style="fill: #ff8c00; fill-opacity: 0.8"/>
    </g>
    <g clip-path="url(#p69aa02eec9)">
     <use xlink:href="#C0_0_ac27253be8" x="89.942756" y="60.131069" style="fill: #ff8c00; fill-opacity: 0.8"/>
    </g>
    <g clip-path="url(#p69aa02eec9)">
     <use xlink:href="#C0_0_ac27253be8" x="34.885705" y="72.859225" style="fill: #ff8c00; fill-opacity: 0.8"/>
    </g>
    <g clip-path="url(#p69aa02eec9)">
     <use xlink:href="#C0_0_ac27253be8" x="89.942756" y="21.946602" style="fill: #ff8c00; fill-opacity: 0.8"/>
    </g>
    <g clip-path="url(#p69aa02eec9)">
     <use xlink:href="#C0_0_ac27253be8" x="89.942756" y="64.373787" style="fill: #ff8c00; fill-opacity: 0.8"/>
    </g>
    <g clip-path="url(#p69aa02eec9)">
     <use xlink:href="#C0_0_ac27253be8" x="144.999807" y="81.344662" style="fill: #ff8c00; fill-opacity: 0.8"/>
    </g>
    <g clip-path="url(#p69aa02eec9)">
     <use xlink:href="#C0_0_ac27253be8" x="144.999807" y="85.58738" style="fill: #ff8c00; fill-opacity: 0.8"/>
    </g>
    <g clip-path="url(#p69aa02eec9)">
     <use xlink:href="#C0_0_ac27253be8" x="89.942756" y="60.131069" style="fill: #ff8c00; fill-opacity: 0.8"/>
    </g>
    <g clip-path="url(#p69aa02eec9)">
     <use xlink:href="#C0_0_ac27253be8" x="89.942756" y="85.58738" style="fill: #ff8c00; fill-opacity: 0.8"/>
    </g>
    <g clip-path="url(#p69aa02eec9)">
     <use xlink:href="#C0_0_ac27253be8" x="89.942756" y="85.58738" style="fill: #ff8c00; fill-opacity: 0.8"/>
    </g>
    <g clip-path="url(#p69aa02eec9)">
     <use xlink:href="#C0_0_ac27253be8" x="34.885705" y="85.58738" style="fill: #ff8c00; fill-opacity: 0.8"/>
    </g>
    <g clip-path="url(#p69aa02eec9)">
     <use xlink:href="#C0_0_ac27253be8" x="89.942756" y="26.189321" style="fill: #ff8c00; fill-opacity: 0.8"/>
    </g>
    <g clip-path="url(#p69aa02eec9)">
     <use xlink:href="#C0_0_ac27253be8" x="144.999807" y="38.917476" style="fill: #ff8c00; fill-opacity: 0.8"/>
    </g>
    <g clip-path="url(#p69aa02eec9)">
     <use xlink:href="#C0_0_ac27253be8" x="89.942756" y="81.344662" style="fill: #ff8c00; fill-opacity: 0.8"/>
    </g>
    <g clip-path="url(#p69aa02eec9)">
     <use xlink:href="#C0_0_ac27253be8" x="89.942756" y="85.58738" style="fill: #ff8c00; fill-opacity: 0.8"/>
    </g>
    <g clip-path="url(#p69aa02eec9)">
     <use xlink:href="#C0_0_ac27253be8" x="144.999807" y="85.58738" style="fill: #ff8c00; fill-opacity: 0.8"/>
    </g>
    <g clip-path="url(#p69aa02eec9)">
     <use xlink:href="#C0_0_ac27253be8" x="89.942756" y="64.373787" style="fill: #ff8c00; fill-opacity: 0.8"/>
    </g>
    <g clip-path="url(#p69aa02eec9)">
     <use xlink:href="#C0_0_ac27253be8" x="89.942756" y="77.101943" style="fill: #ff8c00; fill-opacity: 0.8"/>
    </g>
    <g clip-path="url(#p69aa02eec9)">
     <use xlink:href="#C0_0_ac27253be8" x="89.942756" y="77.101943" style="fill: #ff8c00; fill-opacity: 0.8"/>
    </g>
    <g clip-path="url(#p69aa02eec9)">
     <use xlink:href="#C0_0_ac27253be8" x="89.942756" y="43.160195" style="fill: #ff8c00; fill-opacity: 0.8"/>
    </g>
    <g clip-path="url(#p69aa02eec9)">
     <use xlink:href="#C0_0_ac27253be8" x="144.999807" y="85.58738" style="fill: #ff8c00; fill-opacity: 0.8"/>
    </g>
    <g clip-path="url(#p69aa02eec9)">
     <use xlink:href="#C0_0_ac27253be8" x="89.942756" y="77.101943" style="fill: #ff8c00; fill-opacity: 0.8"/>
    </g>
    <g clip-path="url(#p69aa02eec9)">
     <use xlink:href="#C0_0_ac27253be8" x="144.999807" y="81.344662" style="fill: #ff8c00; fill-opacity: 0.8"/>
    </g>
    <g clip-path="url(#p69aa02eec9)">
     <use xlink:href="#C0_0_ac27253be8" x="89.942756" y="81.344662" style="fill: #ff8c00; fill-opacity: 0.8"/>
    </g>
    <g clip-path="url(#p69aa02eec9)">
     <use xlink:href="#C0_0_ac27253be8" x="89.942756" y="68.616506" style="fill: #ff8c00; fill-opacity: 0.8"/>
    </g>
    <g clip-path="url(#p69aa02eec9)">
     <use xlink:href="#C0_0_ac27253be8" x="144.999807" y="68.616506" style="fill: #ff8c00; fill-opacity: 0.8"/>
    </g>
    <g clip-path="url(#p69aa02eec9)">
     <use xlink:href="#C0_0_ac27253be8" x="144.999807" y="81.344662" style="fill: #ff8c00; fill-opacity: 0.8"/>
    </g>
    <g clip-path="url(#p69aa02eec9)">
     <use xlink:href="#C0_0_ac27253be8" x="34.885705" y="85.58738" style="fill: #ff8c00; fill-opacity: 0.8"/>
    </g>
    <g clip-path="url(#p69aa02eec9)">
     <use xlink:href="#C0_0_ac27253be8" x="89.942756" y="17.703884" style="fill: #ff8c00; fill-opacity: 0.8"/>
    </g>
    <g clip-path="url(#p69aa02eec9)">
     <use xlink:href="#C0_0_ac27253be8" x="89.942756" y="72.859225" style="fill: #ff8c00; fill-opacity: 0.8"/>
    </g>
    <g clip-path="url(#p69aa02eec9)">
     <use xlink:href="#C0_0_ac27253be8" x="89.942756" y="81.344662" style="fill: #ff8c00; fill-opacity: 0.8"/>
    </g>
    <g clip-path="url(#p69aa02eec9)">
     <use xlink:href="#C0_0_ac27253be8" x="144.999807" y="72.859225" style="fill: #ff8c00; fill-opacity: 0.8"/>
    </g>
    <g clip-path="url(#p69aa02eec9)">
     <use xlink:href="#C0_0_ac27253be8" x="34.885705" y="77.101943" style="fill: #ff8c00; fill-opacity: 0.8"/>
    </g>
    <g clip-path="url(#p69aa02eec9)">
     <use xlink:href="#C0_0_ac27253be8" x="144.999807" y="85.58738" style="fill: #ff8c00; fill-opacity: 0.8"/>
    </g>
    <g clip-path="url(#p69aa02eec9)">
     <use xlink:href="#C0_0_ac27253be8" x="144.999807" y="38.917476" style="fill: #ff8c00; fill-opacity: 0.8"/>
    </g>
    <g clip-path="url(#p69aa02eec9)">
     <use xlink:href="#C0_0_ac27253be8" x="144.999807" y="13.461165" style="fill: #ff8c00; fill-opacity: 0.8"/>
    </g>
    <g clip-path="url(#p69aa02eec9)">
     <use xlink:href="#C0_0_ac27253be8" x="144.999807" y="9.218447" style="fill: #ff8c00; fill-opacity: 0.8"/>
    </g>
    <g clip-path="url(#p69aa02eec9)">
     <use xlink:href="#C0_0_ac27253be8" x="34.885705" y="85.58738" style="fill: #ff8c00; fill-opacity: 0.8"/>
    </g>
    <g clip-path="url(#p69aa02eec9)">
     <use xlink:href="#C0_0_ac27253be8" x="89.942756" y="64.373787" style="fill: #ff8c00; fill-opacity: 0.8"/>
    </g>
    <g clip-path="url(#p69aa02eec9)">
     <use xlink:href="#C0_0_ac27253be8" x="34.885705" y="81.344662" style="fill: #ff8c00; fill-opacity: 0.8"/>
    </g>
    <g clip-path="url(#p69aa02eec9)">
     <use xlink:href="#C0_0_ac27253be8" x="34.885705" y="85.58738" style="fill: #ff8c00; fill-opacity: 0.8"/>
    </g>
    <g clip-path="url(#p69aa02eec9)">
     <use xlink:href="#C0_0_ac27253be8" x="89.942756" y="47.402913" style="fill: #ff8c00; fill-opacity: 0.8"/>
    </g>
    <g clip-path="url(#p69aa02eec9)">
     <use xlink:href="#C0_0_ac27253be8" x="34.885705" y="81.344662" style="fill: #ff8c00; fill-opacity: 0.8"/>
    </g>
    <g clip-path="url(#p69aa02eec9)">
     <use xlink:href="#C0_0_ac27253be8" x="34.885705" y="68.616506" style="fill: #ff8c00; fill-opacity: 0.8"/>
    </g>
    <g clip-path="url(#p69aa02eec9)">
     <use xlink:href="#C0_0_ac27253be8" x="89.942756" y="60.131069" style="fill: #ff8c00; fill-opacity: 0.8"/>
    </g>
    <g clip-path="url(#p69aa02eec9)">
     <use xlink:href="#C0_0_ac27253be8" x="34.885705" y="81.344662" style="fill: #ff8c00; fill-opacity: 0.8"/>
    </g>
    <g clip-path="url(#p69aa02eec9)">
     <use xlink:href="#C0_0_ac27253be8" x="144.999807" y="77.101943" style="fill: #ff8c00; fill-opacity: 0.8"/>
    </g>
    <g clip-path="url(#p69aa02eec9)">
     <use xlink:href="#C0_0_ac27253be8" x="89.942756" y="77.101943" style="fill: #ff8c00; fill-opacity: 0.8"/>
    </g>
    <g clip-path="url(#p69aa02eec9)">
     <use xlink:href="#C0_0_ac27253be8" x="144.999807" y="81.344662" style="fill: #ff8c00; fill-opacity: 0.8"/>
    </g>
    <g clip-path="url(#p69aa02eec9)">
     <use xlink:href="#C0_0_ac27253be8" x="89.942756" y="85.58738" style="fill: #ff8c00; fill-opacity: 0.8"/>
    </g>
    <g clip-path="url(#p69aa02eec9)">
     <use xlink:href="#C0_0_ac27253be8" x="34.885705" y="85.58738" style="fill: #ff8c00; fill-opacity: 0.8"/>
    </g>
    <g clip-path="url(#p69aa02eec9)">
     <use xlink:href="#C0_0_ac27253be8" x="144.999807" y="60.131069" style="fill: #ff8c00; fill-opacity: 0.8"/>
    </g>
    <g clip-path="url(#p69aa02eec9)">
     <use xlink:href="#C0_0_ac27253be8" x="34.885705" y="77.101943" style="fill: #ff8c00; fill-opacity: 0.8"/>
    </g>
    <g clip-path="url(#p69aa02eec9)">
     <use xlink:href="#C0_0_ac27253be8" x="144.999807" y="85.58738" style="fill: #ff8c00; fill-opacity: 0.8"/>
    </g>
    <g clip-path="url(#p69aa02eec9)">
     <use xlink:href="#C0_0_ac27253be8" x="34.885705" y="77.101943" style="fill: #ff8c00; fill-opacity: 0.8"/>
    </g>
    <g clip-path="url(#p69aa02eec9)">
     <use xlink:href="#C0_0_ac27253be8" x="144.999807" y="85.58738" style="fill: #ff8c00; fill-opacity: 0.8"/>
    </g>
    <g clip-path="url(#p69aa02eec9)">
     <use xlink:href="#C0_0_ac27253be8" x="89.942756" y="68.616506" style="fill: #ff8c00; fill-opacity: 0.8"/>
    </g>
    <g clip-path="url(#p69aa02eec9)">
     <use xlink:href="#C0_0_ac27253be8" x="144.999807" y="72.859225" style="fill: #ff8c00; fill-opacity: 0.8"/>
    </g>
    <g clip-path="url(#p69aa02eec9)">
     <use xlink:href="#C0_0_ac27253be8" x="34.885705" y="81.344662" style="fill: #ff8c00; fill-opacity: 0.8"/>
    </g>
    <g clip-path="url(#p69aa02eec9)">
     <use xlink:href="#C0_0_ac27253be8" x="144.999807" y="55.88835" style="fill: #ff8c00; fill-opacity: 0.8"/>
    </g>
    <g clip-path="url(#p69aa02eec9)">
     <use xlink:href="#C0_0_ac27253be8" x="89.942756" y="72.859225" style="fill: #ff8c00; fill-opacity: 0.8"/>
    </g>
    <g clip-path="url(#p69aa02eec9)">
     <use xlink:href="#C0_0_ac27253be8" x="34.885705" y="64.373787" style="fill: #ff8c00; fill-opacity: 0.8"/>
    </g>
    <g clip-path="url(#p69aa02eec9)">
     <use xlink:href="#C0_0_ac27253be8" x="89.942756" y="51.645632" style="fill: #ff8c00; fill-opacity: 0.8"/>
    </g>
    <g clip-path="url(#p69aa02eec9)">
     <use xlink:href="#C0_0_ac27253be8" x="89.942756" y="81.344662" style="fill: #ff8c00; fill-opacity: 0.8"/>
    </g>
    <g clip-path="url(#p69aa02eec9)">
     <use xlink:href="#C0_0_ac27253be8" x="89.942756" y="77.101943" style="fill: #ff8c00; fill-opacity: 0.8"/>
    </g>
    <g clip-path="url(#p69aa02eec9)">
     <use xlink:href="#C0_0_ac27253be8" x="144.999807" y="77.101943" style="fill: #ff8c00; fill-opacity: 0.8"/>
    </g>
    <g clip-path="url(#p69aa02eec9)">
     <use xlink:href="#C0_0_ac27253be8" x="34.885705" y="85.58738" style="fill: #ff8c00; fill-opacity: 0.8"/>
    </g>
    <g clip-path="url(#p69aa02eec9)">
     <use xlink:href="#C0_0_ac27253be8" x="89.942756" y="81.344662" style="fill: #ff8c00; fill-opacity: 0.8"/>
    </g>
    <g clip-path="url(#p69aa02eec9)">
     <use xlink:href="#C0_0_ac27253be8" x="144.999807" y="34.674758" style="fill: #ff8c00; fill-opacity: 0.8"/>
    </g>
    <g clip-path="url(#p69aa02eec9)">
     <use xlink:href="#C0_0_ac27253be8" x="144.999807" y="81.344662" style="fill: #ff8c00; fill-opacity: 0.8"/>
    </g>
    <g clip-path="url(#p69aa02eec9)">
     <use xlink:href="#C0_0_ac27253be8" x="144.999807" y="68.616506" style="fill: #ff8c00; fill-opacity: 0.8"/>
    </g>
    <g clip-path="url(#p69aa02eec9)">
     <use xlink:href="#C0_0_ac27253be8" x="34.885705" y="72.859225" style="fill: #ff8c00; fill-opacity: 0.8"/>
    </g>
    <g clip-path="url(#p69aa02eec9)">
     <use xlink:href="#C0_0_ac27253be8" x="89.942756" y="81.344662" style="fill: #ff8c00; fill-opacity: 0.8"/>
    </g>
    <g clip-path="url(#p69aa02eec9)">
     <use xlink:href="#C0_0_ac27253be8" x="34.885705" y="85.58738" style="fill: #ff8c00; fill-opacity: 0.8"/>
    </g>
    <g clip-path="url(#p69aa02eec9)">
     <use xlink:href="#C0_0_ac27253be8" x="89.942756" y="85.58738" style="fill: #ff8c00; fill-opacity: 0.8"/>
    </g>
    <g clip-path="url(#p69aa02eec9)">
     <use xlink:href="#C0_0_ac27253be8" x="144.999807" y="85.58738" style="fill: #ff8c00; fill-opacity: 0.8"/>
    </g>
    <g clip-path="url(#p69aa02eec9)">
     <use xlink:href="#C0_0_ac27253be8" x="34.885705" y="77.101943" style="fill: #ff8c00; fill-opacity: 0.8"/>
    </g>
    <g clip-path="url(#p69aa02eec9)">
     <use xlink:href="#C0_0_ac27253be8" x="89.942756" y="81.344662" style="fill: #ff8c00; fill-opacity: 0.8"/>
    </g>
    <g clip-path="url(#p69aa02eec9)">
     <use xlink:href="#C0_0_ac27253be8" x="89.942756" y="68.616506" style="fill: #ff8c00; fill-opacity: 0.8"/>
    </g>
   </g>
   <g id="PolyCollection_1">
    <path d="M 34.885705 73.628587 
L 34.885705 81.504775 
L 35.997969 81.316105 
L 37.110232 81.134642 
L 38.222496 80.970021 
L 39.33476 80.799234 
L 40.447023 80.616455 
L 41.559287 80.435337 
L 42.671551 80.260924 
L 43.783814 80.086946 
L 44.896078 79.916353 
L 46.008342 79.738762 
L 47.120605 79.558418 
L 48.232869 79.37851 
L 49.345133 79.215214 
L 50.457396 79.048468 
L 51.56966 78.883926 
L 52.681924 78.731094 
L 53.794187 78.572248 
L 54.906451 78.440784 
L 56.018714 78.29535 
L 57.130978 78.154865 
L 58.243242 78.017359 
L 59.355505 77.878897 
L 60.467769 77.745964 
L 61.580033 77.616267 
L 62.692296 77.471063 
L 63.80456 77.34573 
L 64.916824 77.240044 
L 66.029087 77.126497 
L 67.141351 77.008091 
L 68.253615 76.903137 
L 69.365878 76.782488 
L 70.478142 76.665991 
L 71.590406 76.580263 
L 72.702669 76.466752 
L 73.814933 76.361173 
L 74.927197 76.254836 
L 76.03946 76.166822 
L 77.151724 76.083814 
L 78.263988 75.989947 
L 79.376251 75.905496 
L 80.488515 75.813529 
L 81.600779 75.724911 
L 82.713042 75.636769 
L 83.825306 75.556196 
L 84.937569 75.468745 
L 86.049833 75.379302 
L 87.162097 75.30506 
L 88.27436 75.239216 
L 89.386624 75.159863 
L 90.498888 75.08386 
L 91.611151 75.022719 
L 92.723415 74.944777 
L 93.835679 74.876405 
L 94.947942 74.811245 
L 96.060206 74.753605 
L 97.17247 74.684476 
L 98.284733 74.611836 
L 99.396997 74.556264 
L 100.509261 74.484546 
L 101.621524 74.432408 
L 102.733788 74.365585 
L 103.846052 74.310842 
L 104.958315 74.251915 
L 106.070579 74.194277 
L 107.182843 74.128594 
L 108.295106 74.092032 
L 109.40737 74.029123 
L 110.519633 73.986511 
L 111.631897 73.918821 
L 112.744161 73.876998 
L 113.856424 73.8325 
L 114.968688 73.770182 
L 116.080952 73.719908 
L 117.193215 73.6615 
L 118.305479 73.604818 
L 119.417743 73.561742 
L 120.530006 73.519391 
L 121.64227 73.475638 
L 122.754534 73.430704 
L 123.866797 73.370554 
L 124.979061 73.320594 
L 126.091325 73.274772 
L 127.203588 73.237804 
L 128.315852 73.197037 
L 129.428116 73.154578 
L 130.540379 73.107641 
L 131.652643 73.066786 
L 132.764907 73.033169 
L 133.87717 72.982502 
L 134.989434 72.94968 
L 136.101698 72.896977 
L 137.213961 72.850784 
L 138.326225 72.814528 
L 139.438488 72.771454 
L 140.550752 72.723713 
L 141.663016 72.690131 
L 142.775279 72.648538 
L 143.887543 72.607362 
L 144.999807 72.571371 
L 144.999807 58.741537 
L 144.999807 58.741537 
L 143.887543 58.943404 
L 142.775279 59.147746 
L 141.663016 59.351658 
L 140.550752 59.555835 
L 139.438488 59.766151 
L 138.326225 59.969988 
L 137.213961 60.173113 
L 136.101698 60.373178 
L 134.989434 60.574268 
L 133.87717 60.782407 
L 132.764907 60.995168 
L 131.652643 61.21272 
L 130.540379 61.42544 
L 129.428116 61.624546 
L 128.315852 61.848592 
L 127.203588 62.065483 
L 126.091325 62.237497 
L 124.979061 62.455395 
L 123.866797 62.653262 
L 122.754534 62.842088 
L 121.64227 63.04073 
L 120.530006 63.241888 
L 119.417743 63.43703 
L 118.305479 63.633729 
L 117.193215 63.812961 
L 116.080952 64.024861 
L 114.968688 64.203917 
L 113.856424 64.414676 
L 112.744161 64.611378 
L 111.631897 64.801397 
L 110.519633 64.998546 
L 109.40737 65.200444 
L 108.295106 65.403672 
L 107.182843 65.572827 
L 106.070579 65.765095 
L 104.958315 65.958176 
L 103.846052 66.157781 
L 102.733788 66.344819 
L 101.621524 66.539325 
L 100.509261 66.713942 
L 99.396997 66.891046 
L 98.284733 67.07642 
L 97.17247 67.251874 
L 96.060206 67.427417 
L 94.947942 67.61499 
L 93.835679 67.795636 
L 92.723415 67.976865 
L 91.611151 68.17684 
L 90.498888 68.33471 
L 89.386624 68.491106 
L 88.27436 68.664171 
L 87.162097 68.833119 
L 86.049833 68.997997 
L 84.937569 69.166631 
L 83.825306 69.301383 
L 82.713042 69.467643 
L 81.600779 69.630607 
L 80.488515 69.786917 
L 79.376251 69.936746 
L 78.263988 70.078591 
L 77.151724 70.224425 
L 76.03946 70.368969 
L 74.927197 70.519066 
L 73.814933 70.65624 
L 72.702669 70.777858 
L 71.590406 70.896853 
L 70.478142 71.021104 
L 69.365878 71.139986 
L 68.253615 71.264289 
L 67.141351 71.383523 
L 66.029087 71.482275 
L 64.916824 71.597568 
L 63.80456 71.690889 
L 62.692296 71.792196 
L 61.580033 71.88081 
L 60.467769 71.981329 
L 59.355505 72.089287 
L 58.243242 72.184878 
L 57.130978 72.277627 
L 56.018714 72.373949 
L 54.906451 72.443538 
L 53.794187 72.515112 
L 52.681924 72.577669 
L 51.56966 72.651519 
L 50.457396 72.724933 
L 49.345133 72.78529 
L 48.232869 72.871594 
L 47.120605 72.952783 
L 46.008342 73.017418 
L 44.896078 73.084899 
L 43.783814 73.166249 
L 42.671551 73.232316 
L 41.559287 73.309018 
L 40.447023 73.366754 
L 39.33476 73.433254 
L 38.222496 73.499986 
L 37.110232 73.563527 
L 35.997969 73.591512 
L 34.885705 73.628587 
z
" clip-path="url(#p69aa02eec9)" style="fill: #ff8c00; fill-opacity: 0.15"/>
   </g>
   <g id="matplotlib.axis_1">
    <g id="xtick_1">
     <g id="line2d_1">
      <defs>
       <path id="m3a79c5f3e0" d="M 0 0 
L 0 3.5 
" style="stroke: #000000; stroke-width: 0.25"/>
      </defs>
      <g>
       <use xlink:href="#m3a79c5f3e0" x="34.885705" y="89.405827" style="stroke: #000000; stroke-width: 0.25"/>
      </g>
     </g>
     <g id="text_1">
      <!-- high -->
      <g transform="translate(30.159533 97.484733) scale(0.05 -0.05)">
       <defs>
        <path id="ArialMT-68" d="M 422 0 
L 422 4581 
L 984 4581 
L 984 2938 
Q 1378 3394 1978 3394 
Q 2347 3394 2619 3248 
Q 2891 3103 3008 2847 
Q 3125 2591 3125 2103 
L 3125 0 
L 2563 0 
L 2563 2103 
Q 2563 2525 2380 2717 
Q 2197 2909 1863 2909 
Q 1613 2909 1392 2779 
Q 1172 2650 1078 2428 
Q 984 2206 984 1816 
L 984 0 
L 422 0 
z
" transform="scale(0.015625)"/>
        <path id="ArialMT-69" d="M 425 3934 
L 425 4581 
L 988 4581 
L 988 3934 
L 425 3934 
z
M 425 0 
L 425 3319 
L 988 3319 
L 988 0 
L 425 0 
z
" transform="scale(0.015625)"/>
        <path id="ArialMT-67" d="M 319 -275 
L 866 -356 
Q 900 -609 1056 -725 
Q 1266 -881 1628 -881 
Q 2019 -881 2231 -725 
Q 2444 -569 2519 -288 
Q 2563 -116 2559 434 
Q 2191 0 1641 0 
Q 956 0 581 494 
Q 206 988 206 1678 
Q 206 2153 378 2554 
Q 550 2956 876 3175 
Q 1203 3394 1644 3394 
Q 2231 3394 2613 2919 
L 2613 3319 
L 3131 3319 
L 3131 450 
Q 3131 -325 2973 -648 
Q 2816 -972 2473 -1159 
Q 2131 -1347 1631 -1347 
Q 1038 -1347 672 -1080 
Q 306 -813 319 -275 
z
M 784 1719 
Q 784 1066 1043 766 
Q 1303 466 1694 466 
Q 2081 466 2343 764 
Q 2606 1063 2606 1700 
Q 2606 2309 2336 2618 
Q 2066 2928 1684 2928 
Q 1309 2928 1046 2623 
Q 784 2319 784 1719 
z
" transform="scale(0.015625)"/>
       </defs>
       <use xlink:href="#ArialMT-68"/>
       <use xlink:href="#ArialMT-69" x="55.615234"/>
       <use xlink:href="#ArialMT-67" x="77.832031"/>
       <use xlink:href="#ArialMT-68" x="133.447266"/>
      </g>
     </g>
    </g>
    <g id="xtick_2">
     <g id="line2d_2">
      <g>
       <use xlink:href="#m3a79c5f3e0" x="89.942756" y="89.405827" style="stroke: #000000; stroke-width: 0.25"/>
      </g>
     </g>
     <g id="text_2">
      <!-- middle -->
      <g transform="translate(82.578693 97.484733) scale(0.05 -0.05)">
       <defs>
        <path id="ArialMT-6d" d="M 422 0 
L 422 3319 
L 925 3319 
L 925 2853 
Q 1081 3097 1340 3245 
Q 1600 3394 1931 3394 
Q 2300 3394 2536 3241 
Q 2772 3088 2869 2813 
Q 3263 3394 3894 3394 
Q 4388 3394 4653 3120 
Q 4919 2847 4919 2278 
L 4919 0 
L 4359 0 
L 4359 2091 
Q 4359 2428 4304 2576 
Q 4250 2725 4106 2815 
Q 3963 2906 3769 2906 
Q 3419 2906 3187 2673 
Q 2956 2441 2956 1928 
L 2956 0 
L 2394 0 
L 2394 2156 
Q 2394 2531 2256 2718 
Q 2119 2906 1806 2906 
Q 1569 2906 1367 2781 
Q 1166 2656 1075 2415 
Q 984 2175 984 1722 
L 984 0 
L 422 0 
z
" transform="scale(0.015625)"/>
        <path id="ArialMT-64" d="M 2575 0 
L 2575 419 
Q 2259 -75 1647 -75 
Q 1250 -75 917 144 
Q 584 363 401 755 
Q 219 1147 219 1656 
Q 219 2153 384 2558 
Q 550 2963 881 3178 
Q 1213 3394 1622 3394 
Q 1922 3394 2156 3267 
Q 2391 3141 2538 2938 
L 2538 4581 
L 3097 4581 
L 3097 0 
L 2575 0 
z
M 797 1656 
Q 797 1019 1065 703 
Q 1334 388 1700 388 
Q 2069 388 2326 689 
Q 2584 991 2584 1609 
Q 2584 2291 2321 2609 
Q 2059 2928 1675 2928 
Q 1300 2928 1048 2622 
Q 797 2316 797 1656 
z
" transform="scale(0.015625)"/>
        <path id="ArialMT-6c" d="M 409 0 
L 409 4581 
L 972 4581 
L 972 0 
L 409 0 
z
" transform="scale(0.015625)"/>
        <path id="ArialMT-65" d="M 2694 1069 
L 3275 997 
Q 3138 488 2766 206 
Q 2394 -75 1816 -75 
Q 1088 -75 661 373 
Q 234 822 234 1631 
Q 234 2469 665 2931 
Q 1097 3394 1784 3394 
Q 2450 3394 2872 2941 
Q 3294 2488 3294 1666 
Q 3294 1616 3291 1516 
L 816 1516 
Q 847 969 1125 678 
Q 1403 388 1819 388 
Q 2128 388 2347 550 
Q 2566 713 2694 1069 
z
M 847 1978 
L 2700 1978 
Q 2663 2397 2488 2606 
Q 2219 2931 1791 2931 
Q 1403 2931 1139 2672 
Q 875 2413 847 1978 
z
" transform="scale(0.015625)"/>
       </defs>
       <use xlink:href="#ArialMT-6d"/>
       <use xlink:href="#ArialMT-69" x="83.300781"/>
       <use xlink:href="#ArialMT-64" x="105.517578"/>
       <use xlink:href="#ArialMT-64" x="161.132812"/>
       <use xlink:href="#ArialMT-6c" x="216.748047"/>
       <use xlink:href="#ArialMT-65" x="238.964844"/>
      </g>
     </g>
    </g>
    <g id="xtick_3">
     <g id="line2d_3">
      <g>
       <use xlink:href="#m3a79c5f3e0" x="144.999807" y="89.405827" style="stroke: #000000; stroke-width: 0.25"/>
      </g>
     </g>
     <g id="text_3">
      <!-- low -->
      <g transform="translate(141.248635 97.484733) scale(0.05 -0.05)">
       <defs>
        <path id="ArialMT-6f" d="M 213 1659 
Q 213 2581 725 3025 
Q 1153 3394 1769 3394 
Q 2453 3394 2887 2945 
Q 3322 2497 3322 1706 
Q 3322 1066 3130 698 
Q 2938 331 2570 128 
Q 2203 -75 1769 -75 
Q 1072 -75 642 372 
Q 213 819 213 1659 
z
M 791 1659 
Q 791 1022 1069 705 
Q 1347 388 1769 388 
Q 2188 388 2466 706 
Q 2744 1025 2744 1678 
Q 2744 2294 2464 2611 
Q 2184 2928 1769 2928 
Q 1347 2928 1069 2612 
Q 791 2297 791 1659 
z
" transform="scale(0.015625)"/>
        <path id="ArialMT-77" d="M 1034 0 
L 19 3319 
L 600 3319 
L 1128 1403 
L 1325 691 
Q 1338 744 1497 1375 
L 2025 3319 
L 2603 3319 
L 3100 1394 
L 3266 759 
L 3456 1400 
L 4025 3319 
L 4572 3319 
L 3534 0 
L 2950 0 
L 2422 1988 
L 2294 2553 
L 1622 0 
L 1034 0 
z
" transform="scale(0.015625)"/>
       </defs>
       <use xlink:href="#ArialMT-6c"/>
       <use xlink:href="#ArialMT-6f" x="22.216797"/>
       <use xlink:href="#ArialMT-77" x="77.832031"/>
      </g>
     </g>
    </g>
    <g id="text_4">
     <!-- Socioeconomic status -->
     <g transform="translate(60.763068 106.831764) scale(0.06 -0.06)">
      <defs>
       <path id="ArialMT-53" d="M 288 1472 
L 859 1522 
Q 900 1178 1048 958 
Q 1197 738 1509 602 
Q 1822 466 2213 466 
Q 2559 466 2825 569 
Q 3091 672 3220 851 
Q 3350 1031 3350 1244 
Q 3350 1459 3225 1620 
Q 3100 1781 2813 1891 
Q 2628 1963 1997 2114 
Q 1366 2266 1113 2400 
Q 784 2572 623 2826 
Q 463 3081 463 3397 
Q 463 3744 659 4045 
Q 856 4347 1234 4503 
Q 1613 4659 2075 4659 
Q 2584 4659 2973 4495 
Q 3363 4331 3572 4012 
Q 3781 3694 3797 3291 
L 3216 3247 
Q 3169 3681 2898 3903 
Q 2628 4125 2100 4125 
Q 1550 4125 1298 3923 
Q 1047 3722 1047 3438 
Q 1047 3191 1225 3031 
Q 1400 2872 2139 2705 
Q 2878 2538 3153 2413 
Q 3553 2228 3743 1945 
Q 3934 1663 3934 1294 
Q 3934 928 3725 604 
Q 3516 281 3123 101 
Q 2731 -78 2241 -78 
Q 1619 -78 1198 103 
Q 778 284 539 648 
Q 300 1013 288 1472 
z
" transform="scale(0.015625)"/>
       <path id="ArialMT-63" d="M 2588 1216 
L 3141 1144 
Q 3050 572 2676 248 
Q 2303 -75 1759 -75 
Q 1078 -75 664 370 
Q 250 816 250 1647 
Q 250 2184 428 2587 
Q 606 2991 970 3192 
Q 1334 3394 1763 3394 
Q 2303 3394 2647 3120 
Q 2991 2847 3088 2344 
L 2541 2259 
Q 2463 2594 2264 2762 
Q 2066 2931 1784 2931 
Q 1359 2931 1093 2626 
Q 828 2322 828 1663 
Q 828 994 1084 691 
Q 1341 388 1753 388 
Q 2084 388 2306 591 
Q 2528 794 2588 1216 
z
" transform="scale(0.015625)"/>
       <path id="ArialMT-6e" d="M 422 0 
L 422 3319 
L 928 3319 
L 928 2847 
Q 1294 3394 1984 3394 
Q 2284 3394 2536 3286 
Q 2788 3178 2913 3003 
Q 3038 2828 3088 2588 
Q 3119 2431 3119 2041 
L 3119 0 
L 2556 0 
L 2556 2019 
Q 2556 2363 2490 2533 
Q 2425 2703 2258 2804 
Q 2091 2906 1866 2906 
Q 1506 2906 1245 2678 
Q 984 2450 984 1813 
L 984 0 
L 422 0 
z
" transform="scale(0.015625)"/>
       <path id="ArialMT-20" transform="scale(0.015625)"/>
       <path id="ArialMT-73" d="M 197 991 
L 753 1078 
Q 800 744 1014 566 
Q 1228 388 1613 388 
Q 2000 388 2187 545 
Q 2375 703 2375 916 
Q 2375 1106 2209 1216 
Q 2094 1291 1634 1406 
Q 1016 1563 777 1677 
Q 538 1791 414 1992 
Q 291 2194 291 2438 
Q 291 2659 392 2848 
Q 494 3038 669 3163 
Q 800 3259 1026 3326 
Q 1253 3394 1513 3394 
Q 1903 3394 2198 3281 
Q 2494 3169 2634 2976 
Q 2775 2784 2828 2463 
L 2278 2388 
Q 2241 2644 2061 2787 
Q 1881 2931 1553 2931 
Q 1166 2931 1000 2803 
Q 834 2675 834 2503 
Q 834 2394 903 2306 
Q 972 2216 1119 2156 
Q 1203 2125 1616 2013 
Q 2213 1853 2448 1751 
Q 2684 1650 2818 1456 
Q 2953 1263 2953 975 
Q 2953 694 2789 445 
Q 2625 197 2315 61 
Q 2006 -75 1616 -75 
Q 969 -75 630 194 
Q 291 463 197 991 
z
" transform="scale(0.015625)"/>
       <path id="ArialMT-74" d="M 1650 503 
L 1731 6 
Q 1494 -44 1306 -44 
Q 1000 -44 831 53 
Q 663 150 594 308 
Q 525 466 525 972 
L 525 2881 
L 113 2881 
L 113 3319 
L 525 3319 
L 525 4141 
L 1084 4478 
L 1084 3319 
L 1650 3319 
L 1650 2881 
L 1084 2881 
L 1084 941 
Q 1084 700 1114 631 
Q 1144 563 1211 522 
Q 1278 481 1403 481 
Q 1497 481 1650 503 
z
" transform="scale(0.015625)"/>
       <path id="ArialMT-61" d="M 2588 409 
Q 2275 144 1986 34 
Q 1697 -75 1366 -75 
Q 819 -75 525 192 
Q 231 459 231 875 
Q 231 1119 342 1320 
Q 453 1522 633 1644 
Q 813 1766 1038 1828 
Q 1203 1872 1538 1913 
Q 2219 1994 2541 2106 
Q 2544 2222 2544 2253 
Q 2544 2597 2384 2738 
Q 2169 2928 1744 2928 
Q 1347 2928 1158 2789 
Q 969 2650 878 2297 
L 328 2372 
Q 403 2725 575 2942 
Q 747 3159 1072 3276 
Q 1397 3394 1825 3394 
Q 2250 3394 2515 3294 
Q 2781 3194 2906 3042 
Q 3031 2891 3081 2659 
Q 3109 2516 3109 2141 
L 3109 1391 
Q 3109 606 3145 398 
Q 3181 191 3288 0 
L 2700 0 
Q 2613 175 2588 409 
z
M 2541 1666 
Q 2234 1541 1622 1453 
Q 1275 1403 1131 1340 
Q 988 1278 909 1158 
Q 831 1038 831 891 
Q 831 666 1001 516 
Q 1172 366 1500 366 
Q 1825 366 2078 508 
Q 2331 650 2450 897 
Q 2541 1088 2541 1459 
L 2541 1666 
z
" transform="scale(0.015625)"/>
       <path id="ArialMT-75" d="M 2597 0 
L 2597 488 
Q 2209 -75 1544 -75 
Q 1250 -75 995 37 
Q 741 150 617 320 
Q 494 491 444 738 
Q 409 903 409 1263 
L 409 3319 
L 972 3319 
L 972 1478 
Q 972 1038 1006 884 
Q 1059 663 1231 536 
Q 1403 409 1656 409 
Q 1909 409 2131 539 
Q 2353 669 2445 892 
Q 2538 1116 2538 1541 
L 2538 3319 
L 3100 3319 
L 3100 0 
L 2597 0 
z
" transform="scale(0.015625)"/>
      </defs>
      <use xlink:href="#ArialMT-53"/>
      <use xlink:href="#ArialMT-6f" x="66.699219"/>
      <use xlink:href="#ArialMT-63" x="122.314453"/>
      <use xlink:href="#ArialMT-69" x="172.314453"/>
      <use xlink:href="#ArialMT-6f" x="194.53125"/>
      <use xlink:href="#ArialMT-65" x="250.146484"/>
      <use xlink:href="#ArialMT-63" x="305.761719"/>
      <use xlink:href="#ArialMT-6f" x="355.761719"/>
      <use xlink:href="#ArialMT-6e" x="411.376953"/>
      <use xlink:href="#ArialMT-6f" x="466.992188"/>
      <use xlink:href="#ArialMT-6d" x="522.607422"/>
      <use xlink:href="#ArialMT-69" x="605.908203"/>
      <use xlink:href="#ArialMT-63" x="628.125"/>
      <use xlink:href="#ArialMT-20" x="678.125"/>
      <use xlink:href="#ArialMT-73" x="705.908203"/>
      <use xlink:href="#ArialMT-74" x="755.908203"/>
      <use xlink:href="#ArialMT-61" x="783.691406"/>
      <use xlink:href="#ArialMT-74" x="839.306641"/>
      <use xlink:href="#ArialMT-75" x="867.089844"/>
      <use xlink:href="#ArialMT-73" x="922.705078"/>
     </g>
    </g>
   </g>
   <g id="matplotlib.axis_2">
    <g id="ytick_1">
     <g id="line2d_4">
      <defs>
       <path id="m517e3529ca" d="M 0 0 
L -3.5 0 
" style="stroke: #000000; stroke-width: 0.25"/>
      </defs>
      <g>
       <use xlink:href="#m517e3529ca" x="29.38" y="85.58738" style="stroke: #000000; stroke-width: 0.25"/>
      </g>
     </g>
     <g id="text_5">
      <!-- 0.0 -->
      <g transform="translate(17.93 87.376833) scale(0.05 -0.05)">
       <defs>
        <path id="ArialMT-30" d="M 266 2259 
Q 266 3072 433 3567 
Q 600 4063 929 4331 
Q 1259 4600 1759 4600 
Q 2128 4600 2406 4451 
Q 2684 4303 2865 4023 
Q 3047 3744 3150 3342 
Q 3253 2941 3253 2259 
Q 3253 1453 3087 958 
Q 2922 463 2592 192 
Q 2263 -78 1759 -78 
Q 1097 -78 719 397 
Q 266 969 266 2259 
z
M 844 2259 
Q 844 1131 1108 757 
Q 1372 384 1759 384 
Q 2147 384 2411 759 
Q 2675 1134 2675 2259 
Q 2675 3391 2411 3762 
Q 2147 4134 1753 4134 
Q 1366 4134 1134 3806 
Q 844 3388 844 2259 
z
" transform="scale(0.015625)"/>
        <path id="ArialMT-2e" d="M 581 0 
L 581 641 
L 1222 641 
L 1222 0 
L 581 0 
z
" transform="scale(0.015625)"/>
       </defs>
       <use xlink:href="#ArialMT-30"/>
       <use xlink:href="#ArialMT-2e" x="55.615234"/>
       <use xlink:href="#ArialMT-30" x="83.398438"/>
      </g>
     </g>
    </g>
    <g id="ytick_2">
     <g id="line2d_5">
      <g>
       <use xlink:href="#m517e3529ca" x="29.38" y="74.980584" style="stroke: #000000; stroke-width: 0.25"/>
      </g>
     </g>
     <g id="text_6">
      <!-- 2.5 -->
      <g transform="translate(17.93 76.770037) scale(0.05 -0.05)">
       <defs>
        <path id="ArialMT-32" d="M 3222 541 
L 3222 0 
L 194 0 
Q 188 203 259 391 
Q 375 700 629 1000 
Q 884 1300 1366 1694 
Q 2113 2306 2375 2664 
Q 2638 3022 2638 3341 
Q 2638 3675 2398 3904 
Q 2159 4134 1775 4134 
Q 1369 4134 1125 3890 
Q 881 3647 878 3216 
L 300 3275 
Q 359 3922 746 4261 
Q 1134 4600 1788 4600 
Q 2447 4600 2831 4234 
Q 3216 3869 3216 3328 
Q 3216 3053 3103 2787 
Q 2991 2522 2730 2228 
Q 2469 1934 1863 1422 
Q 1356 997 1212 845 
Q 1069 694 975 541 
L 3222 541 
z
" transform="scale(0.015625)"/>
        <path id="ArialMT-35" d="M 266 1200 
L 856 1250 
Q 922 819 1161 601 
Q 1400 384 1738 384 
Q 2144 384 2425 690 
Q 2706 997 2706 1503 
Q 2706 1984 2436 2262 
Q 2166 2541 1728 2541 
Q 1456 2541 1237 2417 
Q 1019 2294 894 2097 
L 366 2166 
L 809 4519 
L 3088 4519 
L 3088 3981 
L 1259 3981 
L 1013 2750 
Q 1425 3038 1878 3038 
Q 2478 3038 2890 2622 
Q 3303 2206 3303 1553 
Q 3303 931 2941 478 
Q 2500 -78 1738 -78 
Q 1113 -78 717 272 
Q 322 622 266 1200 
z
" transform="scale(0.015625)"/>
       </defs>
       <use xlink:href="#ArialMT-32"/>
       <use xlink:href="#ArialMT-2e" x="55.615234"/>
       <use xlink:href="#ArialMT-35" x="83.398438"/>
      </g>
     </g>
    </g>
    <g id="ytick_3">
     <g id="line2d_6">
      <g>
       <use xlink:href="#m517e3529ca" x="29.38" y="64.373787" style="stroke: #000000; stroke-width: 0.25"/>
      </g>
     </g>
     <g id="text_7">
      <!-- 5.0 -->
      <g transform="translate(17.93 66.163241) scale(0.05 -0.05)">
       <use xlink:href="#ArialMT-35"/>
       <use xlink:href="#ArialMT-2e" x="55.615234"/>
       <use xlink:href="#ArialMT-30" x="83.398438"/>
      </g>
     </g>
    </g>
    <g id="ytick_4">
     <g id="line2d_7">
      <g>
       <use xlink:href="#m517e3529ca" x="29.38" y="53.766991" style="stroke: #000000; stroke-width: 0.25"/>
      </g>
     </g>
     <g id="text_8">
      <!-- 7.5 -->
      <g transform="translate(17.93 55.556444) scale(0.05 -0.05)">
       <defs>
        <path id="ArialMT-37" d="M 303 3981 
L 303 4522 
L 3269 4522 
L 3269 4084 
Q 2831 3619 2401 2847 
Q 1972 2075 1738 1259 
Q 1569 684 1522 0 
L 944 0 
Q 953 541 1156 1306 
Q 1359 2072 1739 2783 
Q 2119 3494 2547 3981 
L 303 3981 
z
" transform="scale(0.015625)"/>
       </defs>
       <use xlink:href="#ArialMT-37"/>
       <use xlink:href="#ArialMT-2e" x="55.615234"/>
       <use xlink:href="#ArialMT-35" x="83.398438"/>
      </g>
     </g>
    </g>
    <g id="ytick_5">
     <g id="line2d_8">
      <g>
       <use xlink:href="#m517e3529ca" x="29.38" y="43.160195" style="stroke: #000000; stroke-width: 0.25"/>
      </g>
     </g>
     <g id="text_9">
      <!-- 10.0 -->
      <g transform="translate(15.149531 44.949648) scale(0.05 -0.05)">
       <defs>
        <path id="ArialMT-31" d="M 2384 0 
L 1822 0 
L 1822 3584 
Q 1619 3391 1289 3197 
Q 959 3003 697 2906 
L 697 3450 
Q 1169 3672 1522 3987 
Q 1875 4303 2022 4600 
L 2384 4600 
L 2384 0 
z
" transform="scale(0.015625)"/>
       </defs>
       <use xlink:href="#ArialMT-31"/>
       <use xlink:href="#ArialMT-30" x="55.615234"/>
       <use xlink:href="#ArialMT-2e" x="111.230469"/>
       <use xlink:href="#ArialMT-30" x="139.013672"/>
      </g>
     </g>
    </g>
    <g id="ytick_6">
     <g id="line2d_9">
      <g>
       <use xlink:href="#m517e3529ca" x="29.38" y="32.553399" style="stroke: #000000; stroke-width: 0.25"/>
      </g>
     </g>
     <g id="text_10">
      <!-- 12.5 -->
      <g transform="translate(15.149531 34.342852) scale(0.05 -0.05)">
       <use xlink:href="#ArialMT-31"/>
       <use xlink:href="#ArialMT-32" x="55.615234"/>
       <use xlink:href="#ArialMT-2e" x="111.230469"/>
       <use xlink:href="#ArialMT-35" x="139.013672"/>
      </g>
     </g>
    </g>
    <g id="ytick_7">
     <g id="line2d_10">
      <g>
       <use xlink:href="#m517e3529ca" x="29.38" y="21.946602" style="stroke: #000000; stroke-width: 0.25"/>
      </g>
     </g>
     <g id="text_11">
      <!-- 15.0 -->
      <g transform="translate(15.149531 23.736055) scale(0.05 -0.05)">
       <use xlink:href="#ArialMT-31"/>
       <use xlink:href="#ArialMT-35" x="55.615234"/>
       <use xlink:href="#ArialMT-2e" x="111.230469"/>
       <use xlink:href="#ArialMT-30" x="139.013672"/>
      </g>
     </g>
    </g>
    <g id="ytick_8">
     <g id="line2d_11">
      <g>
       <use xlink:href="#m517e3529ca" x="29.38" y="11.339806" style="stroke: #000000; stroke-width: 0.25"/>
      </g>
     </g>
     <g id="text_12">
      <!-- 17.5 -->
      <g transform="translate(15.149531 13.129259) scale(0.05 -0.05)">
       <use xlink:href="#ArialMT-31"/>
       <use xlink:href="#ArialMT-37" x="55.615234"/>
       <use xlink:href="#ArialMT-2e" x="111.230469"/>
       <use xlink:href="#ArialMT-35" x="139.013672"/>
      </g>
     </g>
    </g>
    <g id="text_13">
     <!-- Number infranormal deviations -->
     <g transform="translate(9.957031 88.251663) rotate(-90) scale(0.06 -0.06)">
      <defs>
       <path id="ArialMT-4e" d="M 488 0 
L 488 4581 
L 1109 4581 
L 3516 984 
L 3516 4581 
L 4097 4581 
L 4097 0 
L 3475 0 
L 1069 3600 
L 1069 0 
L 488 0 
z
" transform="scale(0.015625)"/>
       <path id="ArialMT-62" d="M 941 0 
L 419 0 
L 419 4581 
L 981 4581 
L 981 2947 
Q 1338 3394 1891 3394 
Q 2197 3394 2470 3270 
Q 2744 3147 2920 2923 
Q 3097 2700 3197 2384 
Q 3297 2069 3297 1709 
Q 3297 856 2875 390 
Q 2453 -75 1863 -75 
Q 1275 -75 941 416 
L 941 0 
z
M 934 1684 
Q 934 1088 1097 822 
Q 1363 388 1816 388 
Q 2184 388 2453 708 
Q 2722 1028 2722 1663 
Q 2722 2313 2464 2622 
Q 2206 2931 1841 2931 
Q 1472 2931 1203 2611 
Q 934 2291 934 1684 
z
" transform="scale(0.015625)"/>
       <path id="ArialMT-72" d="M 416 0 
L 416 3319 
L 922 3319 
L 922 2816 
Q 1116 3169 1280 3281 
Q 1444 3394 1641 3394 
Q 1925 3394 2219 3213 
L 2025 2691 
Q 1819 2813 1613 2813 
Q 1428 2813 1281 2702 
Q 1134 2591 1072 2394 
Q 978 2094 978 1738 
L 978 0 
L 416 0 
z
" transform="scale(0.015625)"/>
       <path id="ArialMT-66" d="M 556 0 
L 556 2881 
L 59 2881 
L 59 3319 
L 556 3319 
L 556 3672 
Q 556 4006 616 4169 
Q 697 4388 901 4523 
Q 1106 4659 1475 4659 
Q 1713 4659 2000 4603 
L 1916 4113 
Q 1741 4144 1584 4144 
Q 1328 4144 1222 4034 
Q 1116 3925 1116 3625 
L 1116 3319 
L 1763 3319 
L 1763 2881 
L 1116 2881 
L 1116 0 
L 556 0 
z
" transform="scale(0.015625)"/>
       <path id="ArialMT-76" d="M 1344 0 
L 81 3319 
L 675 3319 
L 1388 1331 
Q 1503 1009 1600 663 
Q 1675 925 1809 1294 
L 2547 3319 
L 3125 3319 
L 1869 0 
L 1344 0 
z
" transform="scale(0.015625)"/>
      </defs>
      <use xlink:href="#ArialMT-4e"/>
      <use xlink:href="#ArialMT-75" x="72.216797"/>
      <use xlink:href="#ArialMT-6d" x="127.832031"/>
      <use xlink:href="#ArialMT-62" x="211.132812"/>
      <use xlink:href="#ArialMT-65" x="266.748047"/>
      <use xlink:href="#ArialMT-72" x="322.363281"/>
      <use xlink:href="#ArialMT-20" x="355.664062"/>
      <use xlink:href="#ArialMT-69" x="383.447266"/>
      <use xlink:href="#ArialMT-6e" x="405.664062"/>
      <use xlink:href="#ArialMT-66" x="461.279297"/>
      <use xlink:href="#ArialMT-72" x="489.0625"/>
      <use xlink:href="#ArialMT-61" x="522.363281"/>
      <use xlink:href="#ArialMT-6e" x="577.978516"/>
      <use xlink:href="#ArialMT-6f" x="633.59375"/>
      <use xlink:href="#ArialMT-72" x="689.208984"/>
      <use xlink:href="#ArialMT-6d" x="722.509766"/>
      <use xlink:href="#ArialMT-61" x="805.810547"/>
      <use xlink:href="#ArialMT-6c" x="861.425781"/>
      <use xlink:href="#ArialMT-20" x="883.642578"/>
      <use xlink:href="#ArialMT-64" x="911.425781"/>
      <use xlink:href="#ArialMT-65" x="967.041016"/>
      <use xlink:href="#ArialMT-76" x="1022.65625"/>
      <use xlink:href="#ArialMT-69" x="1072.65625"/>
      <use xlink:href="#ArialMT-61" x="1094.873047"/>
      <use xlink:href="#ArialMT-74" x="1150.488281"/>
      <use xlink:href="#ArialMT-69" x="1178.271484"/>
      <use xlink:href="#ArialMT-6f" x="1200.488281"/>
      <use xlink:href="#ArialMT-6e" x="1256.103516"/>
      <use xlink:href="#ArialMT-73" x="1311.71875"/>
     </g>
    </g>
   </g>
   <g id="line2d_12">
    <path d="M 34.885705 77.698217 
L 35.997969 77.581464 
L 37.110232 77.464711 
L 38.222496 77.347958 
L 39.33476 77.231205 
L 40.447023 77.114452 
L 41.559287 76.997699 
L 42.671551 76.880946 
L 43.783814 76.764193 
L 44.896078 76.647441 
L 46.008342 76.530688 
L 47.120605 76.413935 
L 48.232869 76.297182 
L 49.345133 76.180429 
L 50.457396 76.063676 
L 51.56966 75.946923 
L 52.681924 75.83017 
L 53.794187 75.713417 
L 54.906451 75.596664 
L 56.018714 75.479911 
L 57.130978 75.363158 
L 58.243242 75.246405 
L 59.355505 75.129652 
L 60.467769 75.012899 
L 61.580033 74.896146 
L 62.692296 74.779393 
L 63.80456 74.662641 
L 64.916824 74.545888 
L 66.029087 74.429135 
L 67.141351 74.312382 
L 68.253615 74.195629 
L 69.365878 74.078876 
L 70.478142 73.962123 
L 71.590406 73.84537 
L 72.702669 73.728617 
L 73.814933 73.611864 
L 74.927197 73.495111 
L 76.03946 73.378358 
L 77.151724 73.261605 
L 78.263988 73.144852 
L 79.376251 73.028099 
L 80.488515 72.911346 
L 81.600779 72.794593 
L 82.713042 72.67784 
L 83.825306 72.561088 
L 84.937569 72.444335 
L 86.049833 72.327582 
L 87.162097 72.210829 
L 88.27436 72.094076 
L 89.386624 71.977323 
L 90.498888 71.86057 
L 91.611151 71.743817 
L 92.723415 71.627064 
L 93.835679 71.510311 
L 94.947942 71.393558 
L 96.060206 71.276805 
L 97.17247 71.160052 
L 98.284733 71.043299 
L 99.396997 70.926546 
L 100.509261 70.809793 
L 101.621524 70.69304 
L 102.733788 70.576288 
L 103.846052 70.459535 
L 104.958315 70.342782 
L 106.070579 70.226029 
L 107.182843 70.109276 
L 108.295106 69.992523 
L 109.40737 69.87577 
L 110.519633 69.759017 
L 111.631897 69.642264 
L 112.744161 69.525511 
L 113.856424 69.408758 
L 114.968688 69.292005 
L 116.080952 69.175252 
L 117.193215 69.058499 
L 118.305479 68.941746 
L 119.417743 68.824993 
L 120.530006 68.70824 
L 121.64227 68.591488 
L 122.754534 68.474735 
L 123.866797 68.357982 
L 124.979061 68.241229 
L 126.091325 68.124476 
L 127.203588 68.007723 
L 128.315852 67.89097 
L 129.428116 67.774217 
L 130.540379 67.657464 
L 131.652643 67.540711 
L 132.764907 67.423958 
L 133.87717 67.307205 
L 134.989434 67.190452 
L 136.101698 67.073699 
L 137.213961 66.956946 
L 138.326225 66.840193 
L 139.438488 66.72344 
L 140.550752 66.606688 
L 141.663016 66.489935 
L 142.775279 66.373182 
L 143.887543 66.256429 
L 144.999807 66.139676 
" clip-path="url(#p69aa02eec9)" style="fill: none; stroke: #ff8c00; stroke-width: 0.75; stroke-linecap: square"/>
   </g>
   <g id="patch_3">
    <path d="M 29.38 89.405827 
L 29.38 5.4 
" style="fill: none; stroke: #000000; stroke-width: 0.25; stroke-linejoin: miter; stroke-linecap: square"/>
   </g>
   <g id="patch_4">
    <path d="M 29.38 89.405827 
L 150.505512 89.405827 
" style="fill: none; stroke: #000000; stroke-width: 0.25; stroke-linejoin: miter; stroke-linecap: square"/>
   </g>
   <g id="text_14">
    <g id="patch_5">
     <path d="M 33.013765 18.702773 
L 56.663765 18.702773 
Q 58.163765 18.702773 58.163765 17.202773 
L 58.163765 7.136367 
Q 58.163765 5.636367 56.663765 5.636367 
L 33.013765 5.636367 
Q 31.513765 5.636367 31.513765 7.136367 
L 31.513765 17.202773 
Q 31.513765 18.702773 33.013765 18.702773 
z
" style="fill: #c0c0c0; opacity: 0.4; stroke: #c0c0c0; stroke-linejoin: miter"/>
    </g>
    <!-- $r=0.200$ -->
    <g transform="translate(33.013765 10.659023) scale(0.05 -0.05)">
     <defs>
      <path id="DejaVuSans-Oblique-72" d="M 2853 2969 
Q 2766 3016 2653 3041 
Q 2541 3066 2413 3066 
Q 1953 3066 1609 2717 
Q 1266 2369 1153 1784 
L 800 0 
L 225 0 
L 909 3500 
L 1484 3500 
L 1375 2956 
Q 1603 3259 1920 3421 
Q 2238 3584 2597 3584 
Q 2691 3584 2781 3573 
Q 2872 3563 2963 3538 
L 2853 2969 
z
" transform="scale(0.015625)"/>
      <path id="DejaVuSans-3d" d="M 678 2906 
L 4684 2906 
L 4684 2381 
L 678 2381 
L 678 2906 
z
M 678 1631 
L 4684 1631 
L 4684 1100 
L 678 1100 
L 678 1631 
z
" transform="scale(0.015625)"/>
      <path id="DejaVuSans-30" d="M 2034 4250 
Q 1547 4250 1301 3770 
Q 1056 3291 1056 2328 
Q 1056 1369 1301 889 
Q 1547 409 2034 409 
Q 2525 409 2770 889 
Q 3016 1369 3016 2328 
Q 3016 3291 2770 3770 
Q 2525 4250 2034 4250 
z
M 2034 4750 
Q 2819 4750 3233 4129 
Q 3647 3509 3647 2328 
Q 3647 1150 3233 529 
Q 2819 -91 2034 -91 
Q 1250 -91 836 529 
Q 422 1150 422 2328 
Q 422 3509 836 4129 
Q 1250 4750 2034 4750 
z
" transform="scale(0.015625)"/>
      <path id="DejaVuSans-2e" d="M 684 794 
L 1344 794 
L 1344 0 
L 684 0 
L 684 794 
z
" transform="scale(0.015625)"/>
      <path id="DejaVuSans-32" d="M 1228 531 
L 3431 531 
L 3431 0 
L 469 0 
L 469 531 
Q 828 903 1448 1529 
Q 2069 2156 2228 2338 
Q 2531 2678 2651 2914 
Q 2772 3150 2772 3378 
Q 2772 3750 2511 3984 
Q 2250 4219 1831 4219 
Q 1534 4219 1204 4116 
Q 875 4013 500 3803 
L 500 4441 
Q 881 4594 1212 4672 
Q 1544 4750 1819 4750 
Q 2544 4750 2975 4387 
Q 3406 4025 3406 3419 
Q 3406 3131 3298 2873 
Q 3191 2616 2906 2266 
Q 2828 2175 2409 1742 
Q 1991 1309 1228 531 
z
" transform="scale(0.015625)"/>
     </defs>
     <use xlink:href="#DejaVuSans-Oblique-72" transform="translate(0 0.78125)"/>
     <use xlink:href="#DejaVuSans-3d" transform="translate(60.595703 0.78125)"/>
     <use xlink:href="#DejaVuSans-30" transform="translate(163.867188 0.78125)"/>
     <use xlink:href="#DejaVuSans-2e" transform="translate(227.490234 0.78125)"/>
     <use xlink:href="#DejaVuSans-32" transform="translate(253.777344 0.78125)"/>
     <use xlink:href="#DejaVuSans-30" transform="translate(317.400391 0.78125)"/>
     <use xlink:href="#DejaVuSans-30" transform="translate(381.023438 0.78125)"/>
    </g>
    <!-- $p=0.051$ -->
    <g transform="translate(33.013765 16.152773) scale(0.05 -0.05)">
     <defs>
      <path id="DejaVuSans-Oblique-70" d="M 3175 2156 
Q 3175 2616 2975 2859 
Q 2775 3103 2400 3103 
Q 2144 3103 1911 2972 
Q 1678 2841 1497 2591 
Q 1319 2344 1212 1994 
Q 1106 1644 1106 1300 
Q 1106 863 1306 627 
Q 1506 391 1875 391 
Q 2147 391 2380 519 
Q 2613 647 2778 891 
Q 2956 1147 3065 1494 
Q 3175 1841 3175 2156 
z
M 1394 2969 
Q 1625 3272 1939 3428 
Q 2253 3584 2638 3584 
Q 3175 3584 3472 3232 
Q 3769 2881 3769 2247 
Q 3769 1728 3584 1258 
Q 3400 788 3053 416 
Q 2822 169 2531 39 
Q 2241 -91 1919 -91 
Q 1547 -91 1294 64 
Q 1041 219 916 525 
L 556 -1331 
L -19 -1331 
L 922 3500 
L 1497 3500 
L 1394 2969 
z
" transform="scale(0.015625)"/>
      <path id="DejaVuSans-35" d="M 691 4666 
L 3169 4666 
L 3169 4134 
L 1269 4134 
L 1269 2991 
Q 1406 3038 1543 3061 
Q 1681 3084 1819 3084 
Q 2600 3084 3056 2656 
Q 3513 2228 3513 1497 
Q 3513 744 3044 326 
Q 2575 -91 1722 -91 
Q 1428 -91 1123 -41 
Q 819 9 494 109 
L 494 744 
Q 775 591 1075 516 
Q 1375 441 1709 441 
Q 2250 441 2565 725 
Q 2881 1009 2881 1497 
Q 2881 1984 2565 2268 
Q 2250 2553 1709 2553 
Q 1456 2553 1204 2497 
Q 953 2441 691 2322 
L 691 4666 
z
" transform="scale(0.015625)"/>
      <path id="DejaVuSans-31" d="M 794 531 
L 1825 531 
L 1825 4091 
L 703 3866 
L 703 4441 
L 1819 4666 
L 2450 4666 
L 2450 531 
L 3481 531 
L 3481 0 
L 794 0 
L 794 531 
z
" transform="scale(0.015625)"/>
     </defs>
     <use xlink:href="#DejaVuSans-Oblique-70" transform="translate(0 0.78125)"/>
     <use xlink:href="#DejaVuSans-3d" transform="translate(82.958984 0.78125)"/>
     <use xlink:href="#DejaVuSans-30" transform="translate(186.230469 0.78125)"/>
     <use xlink:href="#DejaVuSans-2e" transform="translate(249.853516 0.78125)"/>
     <use xlink:href="#DejaVuSans-30" transform="translate(281.640625 0.78125)"/>
     <use xlink:href="#DejaVuSans-35" transform="translate(345.263672 0.78125)"/>
     <use xlink:href="#DejaVuSans-31" transform="translate(408.886719 0.78125)"/>
    </g>
   </g>
  </g>
 </g>
 <defs>
  <clipPath id="p69aa02eec9">
   <rect x="29.38" y="5.4" width="121.125512" height="84.005827"/>
  </clipPath>
 </defs>
</svg>
