<?xml version="1.0" encoding="utf-8" standalone="no"?>
<!DOCTYPE svg PUBLIC "-//W3C//DTD SVG 1.1//EN"
  "http://www.w3.org/Graphics/SVG/1.1/DTD/svg11.dtd">
<svg xmlns:xlink="http://www.w3.org/1999/xlink" width="212.252344pt" height="249.001672pt" viewBox="0 0 212.252344 249.001672" xmlns="http://www.w3.org/2000/svg" version="1.1">
 <metadata>
  <rdf:RDF xmlns:dc="http://purl.org/dc/elements/1.1/" xmlns:cc="http://creativecommons.org/ns#" xmlns:rdf="http://www.w3.org/1999/02/22-rdf-syntax-ns#">
   <cc:Work>
    <dc:type rdf:resource="http://purl.org/dc/dcmitype/StillImage"/>
    <dc:date>2024-12-03T15:08:02.622377</dc:date>
    <dc:format>image/svg+xml</dc:format>
    <dc:creator>
     <cc:Agent>
      <dc:title>Matplotlib v3.9.2, https://matplotlib.org/</dc:title>
     </cc:Agent>
    </dc:creator>
   </cc:Work>
  </rdf:RDF>
 </metadata>
 <defs>
  <style type="text/css">*{stroke-linejoin: round; stroke-linecap: butt}</style>
 </defs>
 <g id="figure_1">
  <g id="patch_1">
   <path d="M 0 249.001672 
L 212.252344 249.001672 
L 212.252344 0 
L 0 0 
z
" style="fill: #ffffff"/>
  </g>
  <g id="axes_1">
   <g id="patch_2">
    <path d="M 37.652344 230.229016 
L 205.052344 230.229016 
L 205.052344 8.469016 
L 37.652344 8.469016 
z
" style="fill: #ffffff"/>
   </g>
   <g id="matplotlib.axis_1">
    <g id="xtick_1">
     <g id="text_1">
      <!-- Term -->
      <g style="fill: #262626" transform="translate(73.52571 240.807922) scale(0.05 -0.05)">
       <defs>
        <path id="ArialMT-54" d="M 1659 0 
L 1659 4041 
L 150 4041 
L 150 4581 
L 3781 4581 
L 3781 4041 
L 2266 4041 
L 2266 0 
L 1659 0 
z
" transform="scale(0.015625)"/>
        <path id="ArialMT-65" d="M 2694 1069 
L 3275 997 
Q 3138 488 2766 206 
Q 2394 -75 1816 -75 
Q 1088 -75 661 373 
Q 234 822 234 1631 
Q 234 2469 665 2931 
Q 1097 3394 1784 3394 
Q 2450 3394 2872 2941 
Q 3294 2488 3294 1666 
Q 3294 1616 3291 1516 
L 816 1516 
Q 847 969 1125 678 
Q 1403 388 1819 388 
Q 2128 388 2347 550 
Q 2566 713 2694 1069 
z
M 847 1978 
L 2700 1978 
Q 2663 2397 2488 2606 
Q 2219 2931 1791 2931 
Q 1403 2931 1139 2672 
Q 875 2413 847 1978 
z
" transform="scale(0.015625)"/>
        <path id="ArialMT-72" d="M 416 0 
L 416 3319 
L 922 3319 
L 922 2816 
Q 1116 3169 1280 3281 
Q 1444 3394 1641 3394 
Q 1925 3394 2219 3213 
L 2025 2691 
Q 1819 2813 1613 2813 
Q 1428 2813 1281 2702 
Q 1134 2591 1072 2394 
Q 978 2094 978 1738 
L 978 0 
L 416 0 
z
" transform="scale(0.015625)"/>
        <path id="ArialMT-6d" d="M 422 0 
L 422 3319 
L 925 3319 
L 925 2853 
Q 1081 3097 1340 3245 
Q 1600 3394 1931 3394 
Q 2300 3394 2536 3241 
Q 2772 3088 2869 2813 
Q 3263 3394 3894 3394 
Q 4388 3394 4653 3120 
Q 4919 2847 4919 2278 
L 4919 0 
L 4359 0 
L 4359 2091 
Q 4359 2428 4304 2576 
Q 4250 2725 4106 2815 
Q 3963 2906 3769 2906 
Q 3419 2906 3187 2673 
Q 2956 2441 2956 1928 
L 2956 0 
L 2394 0 
L 2394 2156 
Q 2394 2531 2256 2718 
Q 2119 2906 1806 2906 
Q 1569 2906 1367 2781 
Q 1166 2656 1075 2415 
Q 984 2175 984 1722 
L 984 0 
L 422 0 
z
" transform="scale(0.015625)"/>
       </defs>
       <use xlink:href="#ArialMT-54"/>
       <use xlink:href="#ArialMT-65" x="49.958984"/>
       <use xlink:href="#ArialMT-72" x="105.574219"/>
       <use xlink:href="#ArialMT-6d" x="138.875"/>
      </g>
     </g>
    </g>
    <g id="xtick_2">
     <g id="text_2">
      <!-- Preterm -->
      <g style="fill: #262626" transform="translate(154.735227 240.807922) scale(0.05 -0.05)">
       <defs>
        <path id="ArialMT-50" d="M 494 0 
L 494 4581 
L 2222 4581 
Q 2678 4581 2919 4538 
Q 3256 4481 3484 4323 
Q 3713 4166 3852 3881 
Q 3991 3597 3991 3256 
Q 3991 2672 3619 2267 
Q 3247 1863 2275 1863 
L 1100 1863 
L 1100 0 
L 494 0 
z
M 1100 2403 
L 2284 2403 
Q 2872 2403 3119 2622 
Q 3366 2841 3366 3238 
Q 3366 3525 3220 3729 
Q 3075 3934 2838 4000 
Q 2684 4041 2272 4041 
L 1100 4041 
L 1100 2403 
z
" transform="scale(0.015625)"/>
        <path id="ArialMT-74" d="M 1650 503 
L 1731 6 
Q 1494 -44 1306 -44 
Q 1000 -44 831 53 
Q 663 150 594 308 
Q 525 466 525 972 
L 525 2881 
L 113 2881 
L 113 3319 
L 525 3319 
L 525 4141 
L 1084 4478 
L 1084 3319 
L 1650 3319 
L 1650 2881 
L 1084 2881 
L 1084 941 
Q 1084 700 1114 631 
Q 1144 563 1211 522 
Q 1278 481 1403 481 
Q 1497 481 1650 503 
z
" transform="scale(0.015625)"/>
       </defs>
       <use xlink:href="#ArialMT-50"/>
       <use xlink:href="#ArialMT-72" x="66.699219"/>
       <use xlink:href="#ArialMT-65" x="100"/>
       <use xlink:href="#ArialMT-74" x="155.615234"/>
       <use xlink:href="#ArialMT-65" x="183.398438"/>
       <use xlink:href="#ArialMT-72" x="239.013672"/>
       <use xlink:href="#ArialMT-6d" x="272.314453"/>
      </g>
     </g>
    </g>
   </g>
   <g id="matplotlib.axis_2">
    <g id="ytick_1">
     <g id="line2d_1">
      <path d="M 37.652344 208.62368 
L 205.052344 208.62368 
" clip-path="url(#p068dce581f)" style="fill: none; stroke: #cccccc; stroke-width: 0.8; stroke-linecap: round"/>
     </g>
     <g id="text_3">
      <!-- 45000 -->
      <g style="fill: #262626" transform="translate(16.75 210.413134) scale(0.05 -0.05)">
       <defs>
        <path id="ArialMT-34" d="M 2069 0 
L 2069 1097 
L 81 1097 
L 81 1613 
L 2172 4581 
L 2631 4581 
L 2631 1613 
L 3250 1613 
L 3250 1097 
L 2631 1097 
L 2631 0 
L 2069 0 
z
M 2069 1613 
L 2069 3678 
L 634 1613 
L 2069 1613 
z
" transform="scale(0.015625)"/>
        <path id="ArialMT-35" d="M 266 1200 
L 856 1250 
Q 922 819 1161 601 
Q 1400 384 1738 384 
Q 2144 384 2425 690 
Q 2706 997 2706 1503 
Q 2706 1984 2436 2262 
Q 2166 2541 1728 2541 
Q 1456 2541 1237 2417 
Q 1019 2294 894 2097 
L 366 2166 
L 809 4519 
L 3088 4519 
L 3088 3981 
L 1259 3981 
L 1013 2750 
Q 1425 3038 1878 3038 
Q 2478 3038 2890 2622 
Q 3303 2206 3303 1553 
Q 3303 931 2941 478 
Q 2500 -78 1738 -78 
Q 1113 -78 717 272 
Q 322 622 266 1200 
z
" transform="scale(0.015625)"/>
        <path id="ArialMT-30" d="M 266 2259 
Q 266 3072 433 3567 
Q 600 4063 929 4331 
Q 1259 4600 1759 4600 
Q 2128 4600 2406 4451 
Q 2684 4303 2865 4023 
Q 3047 3744 3150 3342 
Q 3253 2941 3253 2259 
Q 3253 1453 3087 958 
Q 2922 463 2592 192 
Q 2263 -78 1759 -78 
Q 1097 -78 719 397 
Q 266 969 266 2259 
z
M 844 2259 
Q 844 1131 1108 757 
Q 1372 384 1759 384 
Q 2147 384 2411 759 
Q 2675 1134 2675 2259 
Q 2675 3391 2411 3762 
Q 2147 4134 1753 4134 
Q 1366 4134 1134 3806 
Q 844 3388 844 2259 
z
" transform="scale(0.015625)"/>
       </defs>
       <use xlink:href="#ArialMT-34"/>
       <use xlink:href="#ArialMT-35" x="55.615234"/>
       <use xlink:href="#ArialMT-30" x="111.230469"/>
       <use xlink:href="#ArialMT-30" x="166.845703"/>
       <use xlink:href="#ArialMT-30" x="222.460938"/>
      </g>
     </g>
    </g>
    <g id="ytick_2">
     <g id="line2d_2">
      <path d="M 37.652344 183.669402 
L 205.052344 183.669402 
" clip-path="url(#p068dce581f)" style="fill: none; stroke: #cccccc; stroke-width: 0.8; stroke-linecap: round"/>
     </g>
     <g id="text_4">
      <!-- 50000 -->
      <g style="fill: #262626" transform="translate(16.75 185.458855) scale(0.05 -0.05)">
       <use xlink:href="#ArialMT-35"/>
       <use xlink:href="#ArialMT-30" x="55.615234"/>
       <use xlink:href="#ArialMT-30" x="111.230469"/>
       <use xlink:href="#ArialMT-30" x="166.845703"/>
       <use xlink:href="#ArialMT-30" x="222.460938"/>
      </g>
     </g>
    </g>
    <g id="ytick_3">
     <g id="line2d_3">
      <path d="M 37.652344 158.715124 
L 205.052344 158.715124 
" clip-path="url(#p068dce581f)" style="fill: none; stroke: #cccccc; stroke-width: 0.8; stroke-linecap: round"/>
     </g>
     <g id="text_5">
      <!-- 55000 -->
      <g style="fill: #262626" transform="translate(16.75 160.504577) scale(0.05 -0.05)">
       <use xlink:href="#ArialMT-35"/>
       <use xlink:href="#ArialMT-35" x="55.615234"/>
       <use xlink:href="#ArialMT-30" x="111.230469"/>
       <use xlink:href="#ArialMT-30" x="166.845703"/>
       <use xlink:href="#ArialMT-30" x="222.460938"/>
      </g>
     </g>
    </g>
    <g id="ytick_4">
     <g id="line2d_4">
      <path d="M 37.652344 133.760845 
L 205.052344 133.760845 
" clip-path="url(#p068dce581f)" style="fill: none; stroke: #cccccc; stroke-width: 0.8; stroke-linecap: round"/>
     </g>
     <g id="text_6">
      <!-- 60000 -->
      <g style="fill: #262626" transform="translate(16.75 135.550298) scale(0.05 -0.05)">
       <defs>
        <path id="ArialMT-36" d="M 3184 3459 
L 2625 3416 
Q 2550 3747 2413 3897 
Q 2184 4138 1850 4138 
Q 1581 4138 1378 3988 
Q 1113 3794 959 3422 
Q 806 3050 800 2363 
Q 1003 2672 1297 2822 
Q 1591 2972 1913 2972 
Q 2475 2972 2870 2558 
Q 3266 2144 3266 1488 
Q 3266 1056 3080 686 
Q 2894 316 2569 119 
Q 2244 -78 1831 -78 
Q 1128 -78 684 439 
Q 241 956 241 2144 
Q 241 3472 731 4075 
Q 1159 4600 1884 4600 
Q 2425 4600 2770 4297 
Q 3116 3994 3184 3459 
z
M 888 1484 
Q 888 1194 1011 928 
Q 1134 663 1356 523 
Q 1578 384 1822 384 
Q 2178 384 2434 671 
Q 2691 959 2691 1453 
Q 2691 1928 2437 2201 
Q 2184 2475 1800 2475 
Q 1419 2475 1153 2201 
Q 888 1928 888 1484 
z
" transform="scale(0.015625)"/>
       </defs>
       <use xlink:href="#ArialMT-36"/>
       <use xlink:href="#ArialMT-30" x="55.615234"/>
       <use xlink:href="#ArialMT-30" x="111.230469"/>
       <use xlink:href="#ArialMT-30" x="166.845703"/>
       <use xlink:href="#ArialMT-30" x="222.460938"/>
      </g>
     </g>
    </g>
    <g id="ytick_5">
     <g id="line2d_5">
      <path d="M 37.652344 108.806567 
L 205.052344 108.806567 
" clip-path="url(#p068dce581f)" style="fill: none; stroke: #cccccc; stroke-width: 0.8; stroke-linecap: round"/>
     </g>
     <g id="text_7">
      <!-- 65000 -->
      <g style="fill: #262626" transform="translate(16.75 110.59602) scale(0.05 -0.05)">
       <use xlink:href="#ArialMT-36"/>
       <use xlink:href="#ArialMT-35" x="55.615234"/>
       <use xlink:href="#ArialMT-30" x="111.230469"/>
       <use xlink:href="#ArialMT-30" x="166.845703"/>
       <use xlink:href="#ArialMT-30" x="222.460938"/>
      </g>
     </g>
    </g>
    <g id="ytick_6">
     <g id="line2d_6">
      <path d="M 37.652344 83.852288 
L 205.052344 83.852288 
" clip-path="url(#p068dce581f)" style="fill: none; stroke: #cccccc; stroke-width: 0.8; stroke-linecap: round"/>
     </g>
     <g id="text_8">
      <!-- 70000 -->
      <g style="fill: #262626" transform="translate(16.75 85.641741) scale(0.05 -0.05)">
       <defs>
        <path id="ArialMT-37" d="M 303 3981 
L 303 4522 
L 3269 4522 
L 3269 4084 
Q 2831 3619 2401 2847 
Q 1972 2075 1738 1259 
Q 1569 684 1522 0 
L 944 0 
Q 953 541 1156 1306 
Q 1359 2072 1739 2783 
Q 2119 3494 2547 3981 
L 303 3981 
z
" transform="scale(0.015625)"/>
       </defs>
       <use xlink:href="#ArialMT-37"/>
       <use xlink:href="#ArialMT-30" x="55.615234"/>
       <use xlink:href="#ArialMT-30" x="111.230469"/>
       <use xlink:href="#ArialMT-30" x="166.845703"/>
       <use xlink:href="#ArialMT-30" x="222.460938"/>
      </g>
     </g>
    </g>
    <g id="ytick_7">
     <g id="line2d_7">
      <path d="M 37.652344 58.89801 
L 205.052344 58.89801 
" clip-path="url(#p068dce581f)" style="fill: none; stroke: #cccccc; stroke-width: 0.8; stroke-linecap: round"/>
     </g>
     <g id="text_9">
      <!-- 75000 -->
      <g style="fill: #262626" transform="translate(16.75 60.687463) scale(0.05 -0.05)">
       <use xlink:href="#ArialMT-37"/>
       <use xlink:href="#ArialMT-35" x="55.615234"/>
       <use xlink:href="#ArialMT-30" x="111.230469"/>
       <use xlink:href="#ArialMT-30" x="166.845703"/>
       <use xlink:href="#ArialMT-30" x="222.460938"/>
      </g>
     </g>
    </g>
    <g id="ytick_8">
     <g id="line2d_8">
      <path d="M 37.652344 33.943732 
L 205.052344 33.943732 
" clip-path="url(#p068dce581f)" style="fill: none; stroke: #cccccc; stroke-width: 0.8; stroke-linecap: round"/>
     </g>
     <g id="text_10">
      <!-- 80000 -->
      <g style="fill: #262626" transform="translate(16.75 35.733185) scale(0.05 -0.05)">
       <defs>
        <path id="ArialMT-38" d="M 1131 2484 
Q 781 2613 612 2850 
Q 444 3088 444 3419 
Q 444 3919 803 4259 
Q 1163 4600 1759 4600 
Q 2359 4600 2725 4251 
Q 3091 3903 3091 3403 
Q 3091 3084 2923 2848 
Q 2756 2613 2416 2484 
Q 2838 2347 3058 2040 
Q 3278 1734 3278 1309 
Q 3278 722 2862 322 
Q 2447 -78 1769 -78 
Q 1091 -78 675 323 
Q 259 725 259 1325 
Q 259 1772 486 2073 
Q 713 2375 1131 2484 
z
M 1019 3438 
Q 1019 3113 1228 2906 
Q 1438 2700 1772 2700 
Q 2097 2700 2305 2904 
Q 2513 3109 2513 3406 
Q 2513 3716 2298 3927 
Q 2084 4138 1766 4138 
Q 1444 4138 1231 3931 
Q 1019 3725 1019 3438 
z
M 838 1322 
Q 838 1081 952 856 
Q 1066 631 1291 507 
Q 1516 384 1775 384 
Q 2178 384 2440 643 
Q 2703 903 2703 1303 
Q 2703 1709 2433 1975 
Q 2163 2241 1756 2241 
Q 1359 2241 1098 1978 
Q 838 1716 838 1322 
z
" transform="scale(0.015625)"/>
       </defs>
       <use xlink:href="#ArialMT-38"/>
       <use xlink:href="#ArialMT-30" x="55.615234"/>
       <use xlink:href="#ArialMT-30" x="111.230469"/>
       <use xlink:href="#ArialMT-30" x="166.845703"/>
       <use xlink:href="#ArialMT-30" x="222.460938"/>
      </g>
     </g>
    </g>
    <g id="ytick_9">
     <g id="line2d_9">
      <path d="M 37.652344 8.989453 
L 205.052344 8.989453 
" clip-path="url(#p068dce581f)" style="fill: none; stroke: #cccccc; stroke-width: 0.8; stroke-linecap: round"/>
     </g>
     <g id="text_11">
      <!-- 85000 -->
      <g style="fill: #262626" transform="translate(16.75 10.778906) scale(0.05 -0.05)">
       <use xlink:href="#ArialMT-38"/>
       <use xlink:href="#ArialMT-35" x="55.615234"/>
       <use xlink:href="#ArialMT-30" x="111.230469"/>
       <use xlink:href="#ArialMT-30" x="166.845703"/>
       <use xlink:href="#ArialMT-30" x="222.460938"/>
      </g>
     </g>
    </g>
    <g id="text_12">
     <!-- sGMV [mm$^3$] -->
     <g style="fill: #262626" transform="translate(11.75 133.749016) rotate(-90) scale(0.05 -0.05)">
      <defs>
       <path id="ArialMT-73" d="M 197 991 
L 753 1078 
Q 800 744 1014 566 
Q 1228 388 1613 388 
Q 2000 388 2187 545 
Q 2375 703 2375 916 
Q 2375 1106 2209 1216 
Q 2094 1291 1634 1406 
Q 1016 1563 777 1677 
Q 538 1791 414 1992 
Q 291 2194 291 2438 
Q 291 2659 392 2848 
Q 494 3038 669 3163 
Q 800 3259 1026 3326 
Q 1253 3394 1513 3394 
Q 1903 3394 2198 3281 
Q 2494 3169 2634 2976 
Q 2775 2784 2828 2463 
L 2278 2388 
Q 2241 2644 2061 2787 
Q 1881 2931 1553 2931 
Q 1166 2931 1000 2803 
Q 834 2675 834 2503 
Q 834 2394 903 2306 
Q 972 2216 1119 2156 
Q 1203 2125 1616 2013 
Q 2213 1853 2448 1751 
Q 2684 1650 2818 1456 
Q 2953 1263 2953 975 
Q 2953 694 2789 445 
Q 2625 197 2315 61 
Q 2006 -75 1616 -75 
Q 969 -75 630 194 
Q 291 463 197 991 
z
" transform="scale(0.015625)"/>
       <path id="ArialMT-47" d="M 2638 1797 
L 2638 2334 
L 4578 2338 
L 4578 638 
Q 4131 281 3656 101 
Q 3181 -78 2681 -78 
Q 2006 -78 1454 211 
Q 903 500 622 1047 
Q 341 1594 341 2269 
Q 341 2938 620 3517 
Q 900 4097 1425 4378 
Q 1950 4659 2634 4659 
Q 3131 4659 3532 4498 
Q 3934 4338 4162 4050 
Q 4391 3763 4509 3300 
L 3963 3150 
Q 3859 3500 3706 3700 
Q 3553 3900 3268 4020 
Q 2984 4141 2638 4141 
Q 2222 4141 1919 4014 
Q 1616 3888 1430 3681 
Q 1244 3475 1141 3228 
Q 966 2803 966 2306 
Q 966 1694 1177 1281 
Q 1388 869 1791 669 
Q 2194 469 2647 469 
Q 3041 469 3416 620 
Q 3791 772 3984 944 
L 3984 1797 
L 2638 1797 
z
" transform="scale(0.015625)"/>
       <path id="ArialMT-4d" d="M 475 0 
L 475 4581 
L 1388 4581 
L 2472 1338 
Q 2622 884 2691 659 
Q 2769 909 2934 1394 
L 4031 4581 
L 4847 4581 
L 4847 0 
L 4263 0 
L 4263 3834 
L 2931 0 
L 2384 0 
L 1059 3900 
L 1059 0 
L 475 0 
z
" transform="scale(0.015625)"/>
       <path id="ArialMT-56" d="M 1803 0 
L 28 4581 
L 684 4581 
L 1875 1253 
Q 2019 853 2116 503 
Q 2222 878 2363 1253 
L 3600 4581 
L 4219 4581 
L 2425 0 
L 1803 0 
z
" transform="scale(0.015625)"/>
       <path id="ArialMT-20" transform="scale(0.015625)"/>
       <path id="ArialMT-5b" d="M 434 -1272 
L 434 4581 
L 1675 4581 
L 1675 4116 
L 997 4116 
L 997 -806 
L 1675 -806 
L 1675 -1272 
L 434 -1272 
z
" transform="scale(0.015625)"/>
       <path id="DejaVuSans-33" d="M 2597 2516 
Q 3050 2419 3304 2112 
Q 3559 1806 3559 1356 
Q 3559 666 3084 287 
Q 2609 -91 1734 -91 
Q 1441 -91 1130 -33 
Q 819 25 488 141 
L 488 750 
Q 750 597 1062 519 
Q 1375 441 1716 441 
Q 2309 441 2620 675 
Q 2931 909 2931 1356 
Q 2931 1769 2642 2001 
Q 2353 2234 1838 2234 
L 1294 2234 
L 1294 2753 
L 1863 2753 
Q 2328 2753 2575 2939 
Q 2822 3125 2822 3475 
Q 2822 3834 2567 4026 
Q 2313 4219 1838 4219 
Q 1578 4219 1281 4162 
Q 984 4106 628 3988 
L 628 4550 
Q 988 4650 1302 4700 
Q 1616 4750 1894 4750 
Q 2613 4750 3031 4423 
Q 3450 4097 3450 3541 
Q 3450 3153 3228 2886 
Q 3006 2619 2597 2516 
z
" transform="scale(0.015625)"/>
       <path id="ArialMT-5d" d="M 1363 -1272 
L 122 -1272 
L 122 -806 
L 800 -806 
L 800 4116 
L 122 4116 
L 122 4581 
L 1363 4581 
L 1363 -1272 
z
" transform="scale(0.015625)"/>
      </defs>
      <use xlink:href="#ArialMT-73" transform="translate(0 0.765625)"/>
      <use xlink:href="#ArialMT-47" transform="translate(50 0.765625)"/>
      <use xlink:href="#ArialMT-4d" transform="translate(127.783203 0.765625)"/>
      <use xlink:href="#ArialMT-56" transform="translate(211.083984 0.765625)"/>
      <use xlink:href="#ArialMT-20" transform="translate(277.783203 0.765625)"/>
      <use xlink:href="#ArialMT-5b" transform="translate(305.566406 0.765625)"/>
      <use xlink:href="#ArialMT-6d" transform="translate(333.349609 0.765625)"/>
      <use xlink:href="#ArialMT-6d" transform="translate(416.650391 0.765625)"/>
      <use xlink:href="#DejaVuSans-33" transform="translate(500.908203 39.046875) scale(0.7)"/>
      <use xlink:href="#ArialMT-5d" transform="translate(548.178711 0.765625)"/>
     </g>
    </g>
   </g>
   <g id="PolyCollection_1">
    <defs>
     <path id="mca492f125c" d="M 79.082473 -28.852656 
L 79.07676 -28.852656 
L 79.071602 -30.88902 
L 79.061321 -32.925384 
L 79.043198 -34.961747 
L 79.011546 -36.998111 
L 78.957172 -39.034474 
L 78.875343 -41.070838 
L 78.777717 -43.107202 
L 78.689469 -45.143565 
L 78.62508 -47.179929 
L 78.569336 -49.216293 
L 78.492001 -51.252656 
L 78.377674 -53.28902 
L 78.227231 -55.325384 
L 78.032637 -57.361747 
L 77.765949 -59.398111 
L 77.392961 -61.434474 
L 76.888806 -63.470838 
L 76.248175 -65.507202 
L 75.491584 -67.543565 
L 74.649267 -69.579929 
L 73.71595 -71.616293 
L 72.619126 -73.652656 
L 71.261911 -75.68902 
L 69.634835 -77.725384 
L 67.877742 -79.761747 
L 66.188604 -81.798111 
L 64.657739 -83.834474 
L 63.198974 -85.870838 
L 61.637915 -87.907202 
L 59.873183 -89.943565 
L 57.966721 -91.979929 
L 56.074416 -94.016293 
L 54.312482 -96.052656 
L 52.737168 -98.08902 
L 51.393959 -100.125384 
L 50.279324 -102.161747 
L 49.313174 -104.198111 
L 48.437069 -106.234474 
L 47.651552 -108.270838 
L 46.925837 -110.307202 
L 46.211789 -112.343565 
L 45.585638 -114.379929 
L 45.261435 -116.416293 
L 45.400744 -118.452656 
L 45.956313 -120.48902 
L 46.767025 -122.525384 
L 47.780996 -124.561747 
L 49.086145 -126.598111 
L 50.692247 -128.634474 
L 52.381344 -130.670838 
L 53.867964 -132.707202 
L 55.080317 -134.743565 
L 56.208414 -136.779929 
L 57.483002 -138.816293 
L 58.967149 -140.852656 
L 60.553124 -142.88902 
L 62.092632 -144.925384 
L 63.513609 -146.961747 
L 64.856282 -148.998111 
L 66.216823 -151.034474 
L 67.633476 -153.070838 
L 69.018311 -155.107202 
L 70.222477 -157.143565 
L 71.183085 -159.179929 
L 71.985878 -161.216293 
L 72.768403 -163.252656 
L 73.590307 -165.28902 
L 74.416724 -167.325384 
L 75.186001 -169.361747 
L 75.851875 -171.398111 
L 76.388652 -173.434474 
L 76.804596 -175.470838 
L 77.144991 -177.507202 
L 77.45764 -179.543565 
L 77.759509 -181.579929 
L 78.038916 -183.616293 
L 78.27362 -185.652656 
L 78.443629 -187.68902 
L 78.542094 -189.725384 
L 78.584143 -191.761747 
L 78.603989 -193.798111 
L 78.638393 -195.834474 
L 78.706413 -197.870838 
L 78.799668 -199.907202 
L 78.891014 -201.943565 
L 78.954289 -203.979929 
L 78.97969 -206.016293 
L 78.976945 -208.052656 
L 78.967228 -210.08902 
L 78.968201 -212.125384 
L 78.982361 -214.161747 
L 78.999156 -216.198111 
L 79.008127 -218.234474 
L 79.009604 -220.270838 
L 79.013165 -222.307202 
L 79.026168 -224.343565 
L 79.045687 -226.379929 
L 79.063126 -228.416293 
L 79.073558 -230.452656 
L 79.085675 -230.452656 
L 79.085675 -230.452656 
L 79.096107 -228.416293 
L 79.113546 -226.379929 
L 79.133065 -224.343565 
L 79.146068 -222.307202 
L 79.149629 -220.270838 
L 79.151106 -218.234474 
L 79.160077 -216.198111 
L 79.176872 -214.161747 
L 79.191032 -212.125384 
L 79.192005 -210.08902 
L 79.182288 -208.052656 
L 79.179543 -206.016293 
L 79.204944 -203.979929 
L 79.268219 -201.943565 
L 79.359565 -199.907202 
L 79.45282 -197.870838 
L 79.52084 -195.834474 
L 79.555244 -193.798111 
L 79.57509 -191.761747 
L 79.617139 -189.725384 
L 79.715604 -187.68902 
L 79.885613 -185.652656 
L 80.120317 -183.616293 
L 80.399724 -181.579929 
L 80.701593 -179.543565 
L 81.014242 -177.507202 
L 81.354637 -175.470838 
L 81.770581 -173.434474 
L 82.307358 -171.398111 
L 82.973232 -169.361747 
L 83.742509 -167.325384 
L 84.568926 -165.28902 
L 85.39083 -163.252656 
L 86.173355 -161.216293 
L 86.976148 -159.179929 
L 87.936756 -157.143565 
L 89.140922 -155.107202 
L 90.525757 -153.070838 
L 91.94241 -151.034474 
L 93.302951 -148.998111 
L 94.645624 -146.961747 
L 96.066601 -144.925384 
L 97.606109 -142.88902 
L 99.192084 -140.852656 
L 100.676231 -138.816293 
L 101.950819 -136.779929 
L 103.078915 -134.743565 
L 104.291268 -132.707202 
L 105.777889 -130.670838 
L 107.466986 -128.634474 
L 109.073088 -126.598111 
L 110.378237 -124.561747 
L 111.392208 -122.525384 
L 112.20292 -120.48902 
L 112.758489 -118.452656 
L 112.897798 -116.416293 
L 112.573595 -114.379929 
L 111.947444 -112.343565 
L 111.233396 -110.307202 
L 110.507681 -108.270838 
L 109.722164 -106.234474 
L 108.846059 -104.198111 
L 107.879908 -102.161747 
L 106.765274 -100.125384 
L 105.422065 -98.08902 
L 103.846751 -96.052656 
L 102.084817 -94.016293 
L 100.192512 -91.979929 
L 98.28605 -89.943565 
L 96.521318 -87.907202 
L 94.960259 -85.870838 
L 93.501494 -83.834474 
L 91.970629 -81.798111 
L 90.281491 -79.761747 
L 88.524398 -77.725384 
L 86.897322 -75.68902 
L 85.540107 -73.652656 
L 84.443283 -71.616293 
L 83.509966 -69.579929 
L 82.667649 -67.543565 
L 81.911058 -65.507202 
L 81.270427 -63.470838 
L 80.766272 -61.434474 
L 80.393284 -59.398111 
L 80.126596 -57.361747 
L 79.932002 -55.325384 
L 79.781559 -53.28902 
L 79.667232 -51.252656 
L 79.589897 -49.216293 
L 79.534153 -47.179929 
L 79.469763 -45.143565 
L 79.381516 -43.107202 
L 79.28389 -41.070838 
L 79.202061 -39.034474 
L 79.147687 -36.998111 
L 79.116035 -34.961747 
L 79.097912 -32.925384 
L 79.087631 -30.88902 
L 79.082473 -28.852656 
z
" style="stroke: #4c4c4c; stroke-width: 1.25"/>
    </defs>
    <g clip-path="url(#p068dce581f)">
     <use xlink:href="#mca492f125c" x="0" y="249.001672" style="fill: #5573cd; stroke: #4c4c4c; stroke-width: 1.25"/>
    </g>
   </g>
   <g id="PolyCollection_2">
    <defs>
     <path id="m16e7146a72" d="M 163.693989 -35.681296 
L 163.556153 -35.681296 
L 163.513828 -37.377081 
L 163.45298 -39.072867 
L 163.369536 -40.768653 
L 163.260137 -42.464438 
L 163.122542 -44.160224 
L 162.955659 -45.856009 
L 162.759017 -47.551795 
L 162.531694 -49.247581 
L 162.270913 -50.943366 
L 161.970715 -52.639152 
L 161.621226 -54.334937 
L 161.208867 -56.030723 
L 160.717608 -57.726508 
L 160.131042 -59.422294 
L 159.434788 -61.11808 
L 158.618711 -62.813865 
L 157.678644 -64.509651 
L 156.617527 -66.205436 
L 155.446128 -67.901222 
L 154.183459 -69.597008 
L 152.85679 -71.292793 
L 151.500827 -72.988579 
L 150.155503 -74.684364 
L 148.862066 -76.38015 
L 147.657739 -78.075936 
L 146.569967 -79.771721 
L 145.611723 -81.467507 
L 144.779244 -83.163292 
L 144.052899 -84.859078 
L 143.400919 -86.554864 
L 142.784868 -88.250649 
L 142.165369 -89.946435 
L 141.506861 -91.64222 
L 140.780767 -93.338006 
L 139.967153 -95.033792 
L 139.055444 -96.729577 
L 138.044857 -98.425363 
L 136.945033 -100.121148 
L 135.776997 -101.816934 
L 134.574175 -103.51272 
L 133.382829 -105.208505 
L 132.261094 -106.904291 
L 131.275849 -108.600076 
L 130.497068 -110.295862 
L 129.990067 -111.991648 
L 129.806889 -113.687433 
L 129.978747 -115.383219 
L 130.511439 -117.079004 
L 131.384948 -118.77479 
L 132.557183 -120.470576 
L 133.970514 -122.166361 
L 135.559041 -123.862147 
L 137.254681 -125.557932 
L 138.991156 -127.253718 
L 140.706184 -128.949504 
L 142.343062 -130.645289 
L 143.852861 -132.341075 
L 145.197698 -134.03686 
L 146.3545 -135.732646 
L 147.317917 -137.428432 
L 148.101005 -139.124217 
L 148.733 -140.820003 
L 149.254514 -142.515788 
L 149.711387 -144.211574 
L 150.148651 -145.907359 
L 150.605823 -147.603145 
L 151.114011 -149.298931 
L 151.69466 -150.994716 
L 152.359369 -152.690502 
L 153.110243 -154.386287 
L 153.940482 -156.082073 
L 154.835269 -157.777859 
L 155.773152 -159.473644 
L 156.728024 -161.16943 
L 157.671578 -162.865215 
L 158.575899 -164.561001 
L 159.415768 -166.256787 
L 160.170408 -167.952572 
L 160.824615 -169.648358 
L 161.36942 -171.344143 
L 161.802464 -173.039929 
L 162.128131 -174.735715 
L 162.357331 -176.4315 
L 162.506666 -178.127286 
L 162.596815 -179.823071 
L 162.650151 -181.518857 
L 162.687927 -183.214643 
L 162.727592 -184.910428 
L 162.780829 -186.606214 
L 162.852768 -188.301999 
L 162.94248 -189.997785 
L 163.044535 -191.693571 
L 163.151129 -193.389356 
L 163.254221 -195.085142 
L 163.347203 -196.780927 
L 163.42583 -198.476713 
L 163.488416 -200.172499 
L 163.535448 -201.868284 
L 163.568885 -203.56407 
L 163.681257 -203.56407 
L 163.681257 -203.56407 
L 163.714694 -201.868284 
L 163.761726 -200.172499 
L 163.824313 -198.476713 
L 163.902939 -196.780927 
L 163.995921 -195.085142 
L 164.099013 -193.389356 
L 164.205607 -191.693571 
L 164.307662 -189.997785 
L 164.397374 -188.301999 
L 164.469313 -186.606214 
L 164.52255 -184.910428 
L 164.562215 -183.214643 
L 164.599991 -181.518857 
L 164.653327 -179.823071 
L 164.743476 -178.127286 
L 164.892811 -176.4315 
L 165.122011 -174.735715 
L 165.447678 -173.039929 
L 165.880722 -171.344143 
L 166.425527 -169.648358 
L 167.079734 -167.952572 
L 167.834374 -166.256787 
L 168.674243 -164.561001 
L 169.578564 -162.865215 
L 170.522118 -161.16943 
L 171.47699 -159.473644 
L 172.414874 -157.777859 
L 173.309661 -156.082073 
L 174.139899 -154.386287 
L 174.890773 -152.690502 
L 175.555482 -150.994716 
L 176.136131 -149.298931 
L 176.644319 -147.603145 
L 177.101491 -145.907359 
L 177.538755 -144.211574 
L 177.995628 -142.515788 
L 178.517143 -140.820003 
L 179.149137 -139.124217 
L 179.932225 -137.428432 
L 180.895642 -135.732646 
L 182.052444 -134.03686 
L 183.397281 -132.341075 
L 184.90708 -130.645289 
L 186.543958 -128.949504 
L 188.258986 -127.253718 
L 189.995461 -125.557932 
L 191.691101 -123.862147 
L 193.279628 -122.166361 
L 194.692959 -120.470576 
L 195.865194 -118.77479 
L 196.738703 -117.079004 
L 197.271395 -115.383219 
L 197.443253 -113.687433 
L 197.260075 -111.991648 
L 196.753074 -110.295862 
L 195.974293 -108.600076 
L 194.989048 -106.904291 
L 193.867313 -105.208505 
L 192.675967 -103.51272 
L 191.473145 -101.816934 
L 190.305109 -100.121148 
L 189.205285 -98.425363 
L 188.194698 -96.729577 
L 187.282989 -95.033792 
L 186.469375 -93.338006 
L 185.743281 -91.64222 
L 185.084773 -89.946435 
L 184.465274 -88.250649 
L 183.849223 -86.554864 
L 183.197243 -84.859078 
L 182.470898 -83.163292 
L 181.638419 -81.467507 
L 180.680175 -79.771721 
L 179.592403 -78.075936 
L 178.388076 -76.38015 
L 177.094639 -74.684364 
L 175.749315 -72.988579 
L 174.393352 -71.292793 
L 173.066683 -69.597008 
L 171.804014 -67.901222 
L 170.632615 -66.205436 
L 169.571498 -64.509651 
L 168.631431 -62.813865 
L 167.815354 -61.11808 
L 167.1191 -59.422294 
L 166.532535 -57.726508 
L 166.041275 -56.030723 
L 165.628916 -54.334937 
L 165.279427 -52.639152 
L 164.97923 -50.943366 
L 164.718448 -49.247581 
L 164.491126 -47.551795 
L 164.294483 -45.856009 
L 164.1276 -44.160224 
L 163.990005 -42.464438 
L 163.880606 -40.768653 
L 163.797162 -39.072867 
L 163.736314 -37.377081 
L 163.693989 -35.681296 
z
" style="stroke: #4c4c4c; stroke-width: 1.25"/>
    </defs>
    <g clip-path="url(#p068dce581f)">
     <use xlink:href="#m16e7146a72" x="0" y="249.001672" style="fill: #df8920; stroke: #4c4c4c; stroke-width: 1.25"/>
    </g>
   </g>
   <g id="line2d_10">
    <path d="M 79.079616 197.478488 
L 79.079616 65.417868 
" clip-path="url(#p068dce581f)" style="fill: none; stroke: #4c4c4c; stroke-width: 1.875; stroke-linecap: round"/>
   </g>
   <g id="line2d_11">
    <path d="M 79.079616 148.575499 
L 79.079616 115.277844 
" clip-path="url(#p068dce581f)" style="fill: none; stroke: #4c4c4c; stroke-width: 5.625; stroke-linecap: round"/>
   </g>
   <g id="line2d_12">
    <path d="M 79.079616 132.289897 
" clip-path="url(#p068dce581f)" style="fill: none; stroke: #4c4c4c; stroke-width: 0.5; stroke-linecap: round"/>
    <defs>
     <path id="mebf0299942" d="M 2.34375 0 
L -2.34375 -0 
" style="stroke: #ffffff; stroke-width: 1.125"/>
    </defs>
    <g clip-path="url(#p068dce581f)">
     <use xlink:href="#mebf0299942" x="79.079616" y="132.289897" style="fill: #ffffff; stroke: #ffffff; stroke-width: 1.125"/>
    </g>
   </g>
   <g id="line2d_13">
    <path d="M 163.625071 198.105648 
L 163.625071 79.988155 
" clip-path="url(#p068dce581f)" style="fill: none; stroke: #4c4c4c; stroke-width: 1.875; stroke-linecap: round"/>
   </g>
   <g id="line2d_14">
    <path d="M 163.625071 154.648803 
L 163.625071 121.052024 
" clip-path="url(#p068dce581f)" style="fill: none; stroke: #4c4c4c; stroke-width: 5.625; stroke-linecap: round"/>
   </g>
   <g id="line2d_15">
    <path d="M 163.625071 136.35864 
" clip-path="url(#p068dce581f)" style="fill: none; stroke: #4c4c4c; stroke-width: 0.5; stroke-linecap: round"/>
    <g clip-path="url(#p068dce581f)">
     <use xlink:href="#mebf0299942" x="163.625071" y="136.35864" style="fill: #ffffff; stroke: #ffffff; stroke-width: 1.125"/>
    </g>
   </g>
   <g id="line2d_16">
    <path d="M 79.079616 52.112268 
L 79.079616 47.677068 
L 163.625071 47.677068 
L 163.625071 52.112268 
" style="fill: none; stroke: #333333; stroke-width: 1.5; stroke-linecap: round"/>
   </g>
   <g id="patch_3">
    <path d="M 37.652344 230.229016 
L 37.652344 8.469016 
" style="fill: none; stroke: #cccccc; stroke-width: 0.25; stroke-linejoin: miter; stroke-linecap: square"/>
   </g>
   <g id="patch_4">
    <path d="M 37.652344 230.229016 
L 205.052344 230.229016 
" style="fill: none; stroke: #cccccc; stroke-width: 0.25; stroke-linejoin: miter; stroke-linecap: square"/>
   </g>
   <g id="text_13">
    <!-- **** -->
    <g style="fill: #262626" transform="translate(116.681719 45.484568) scale(0.06 -0.06)">
     <defs>
      <path id="ArialMT-2a" d="M 200 3741 
L 344 4184 
Q 841 4009 1066 3881 
Q 1006 4447 1003 4659 
L 1456 4659 
Q 1447 4350 1384 3884 
Q 1706 4047 2122 4184 
L 2266 3741 
Q 1869 3609 1488 3566 
Q 1678 3400 2025 2975 
L 1650 2709 
Q 1469 2956 1222 3381 
Q 991 2941 816 2709 
L 447 2975 
Q 809 3422 966 3566 
Q 563 3644 200 3741 
z
" transform="scale(0.015625)"/>
     </defs>
     <use xlink:href="#ArialMT-2a"/>
     <use xlink:href="#ArialMT-2a" x="38.916016"/>
     <use xlink:href="#ArialMT-2a" x="77.832031"/>
     <use xlink:href="#ArialMT-2a" x="116.748047"/>
    </g>
   </g>
  </g>
 </g>
 <defs>
  <clipPath id="p068dce581f">
   <rect x="37.652344" y="8.469016" width="167.4" height="221.76"/>
  </clipPath>
 </defs>
</svg>
