<?xml version="1.0" encoding="utf-8" standalone="no"?>
<!DOCTYPE svg PUBLIC "-//W3C//DTD SVG 1.1//EN"
  "http://www.w3.org/Graphics/SVG/1.1/DTD/svg11.dtd">
<svg xmlns:xlink="http://www.w3.org/1999/xlink" width="215.032813pt" height="247.732656pt" viewBox="0 0 215.032813 247.732656" xmlns="http://www.w3.org/2000/svg" version="1.1">
 <metadata>
  <rdf:RDF xmlns:dc="http://purl.org/dc/elements/1.1/" xmlns:cc="http://creativecommons.org/ns#" xmlns:rdf="http://www.w3.org/1999/02/22-rdf-syntax-ns#">
   <cc:Work>
    <dc:type rdf:resource="http://purl.org/dc/dcmitype/StillImage"/>
    <dc:date>2024-12-03T15:08:02.422216</dc:date>
    <dc:format>image/svg+xml</dc:format>
    <dc:creator>
     <cc:Agent>
      <dc:title>Matplotlib v3.9.2, https://matplotlib.org/</dc:title>
     </cc:Agent>
    </dc:creator>
   </cc:Work>
  </rdf:RDF>
 </metadata>
 <defs>
  <style type="text/css">*{stroke-linejoin: round; stroke-linecap: butt}</style>
 </defs>
 <g id="figure_1">
  <g id="patch_1">
   <path d="M 0 247.732656 
L 215.032813 247.732656 
L 215.032813 0 
L 0 0 
z
" style="fill: #ffffff"/>
  </g>
  <g id="axes_1">
   <g id="patch_2">
    <path d="M 40.432813 228.96 
L 207.832813 228.96 
L 207.832813 7.2 
L 40.432813 7.2 
z
" style="fill: #ffffff"/>
   </g>
   <g id="matplotlib.axis_1">
    <g id="xtick_1">
     <g id="text_1">
      <!-- Term -->
      <g style="fill: #262626" transform="translate(76.306179 239.538906) scale(0.05 -0.05)">
       <defs>
        <path id="ArialMT-54" d="M 1659 0 
L 1659 4041 
L 150 4041 
L 150 4581 
L 3781 4581 
L 3781 4041 
L 2266 4041 
L 2266 0 
L 1659 0 
z
" transform="scale(0.015625)"/>
        <path id="ArialMT-65" d="M 2694 1069 
L 3275 997 
Q 3138 488 2766 206 
Q 2394 -75 1816 -75 
Q 1088 -75 661 373 
Q 234 822 234 1631 
Q 234 2469 665 2931 
Q 1097 3394 1784 3394 
Q 2450 3394 2872 2941 
Q 3294 2488 3294 1666 
Q 3294 1616 3291 1516 
L 816 1516 
Q 847 969 1125 678 
Q 1403 388 1819 388 
Q 2128 388 2347 550 
Q 2566 713 2694 1069 
z
M 847 1978 
L 2700 1978 
Q 2663 2397 2488 2606 
Q 2219 2931 1791 2931 
Q 1403 2931 1139 2672 
Q 875 2413 847 1978 
z
" transform="scale(0.015625)"/>
        <path id="ArialMT-72" d="M 416 0 
L 416 3319 
L 922 3319 
L 922 2816 
Q 1116 3169 1280 3281 
Q 1444 3394 1641 3394 
Q 1925 3394 2219 3213 
L 2025 2691 
Q 1819 2813 1613 2813 
Q 1428 2813 1281 2702 
Q 1134 2591 1072 2394 
Q 978 2094 978 1738 
L 978 0 
L 416 0 
z
" transform="scale(0.015625)"/>
        <path id="ArialMT-6d" d="M 422 0 
L 422 3319 
L 925 3319 
L 925 2853 
Q 1081 3097 1340 3245 
Q 1600 3394 1931 3394 
Q 2300 3394 2536 3241 
Q 2772 3088 2869 2813 
Q 3263 3394 3894 3394 
Q 4388 3394 4653 3120 
Q 4919 2847 4919 2278 
L 4919 0 
L 4359 0 
L 4359 2091 
Q 4359 2428 4304 2576 
Q 4250 2725 4106 2815 
Q 3963 2906 3769 2906 
Q 3419 2906 3187 2673 
Q 2956 2441 2956 1928 
L 2956 0 
L 2394 0 
L 2394 2156 
Q 2394 2531 2256 2718 
Q 2119 2906 1806 2906 
Q 1569 2906 1367 2781 
Q 1166 2656 1075 2415 
Q 984 2175 984 1722 
L 984 0 
L 422 0 
z
" transform="scale(0.015625)"/>
       </defs>
       <use xlink:href="#ArialMT-54"/>
       <use xlink:href="#ArialMT-65" x="49.958984"/>
       <use xlink:href="#ArialMT-72" x="105.574219"/>
       <use xlink:href="#ArialMT-6d" x="138.875"/>
      </g>
     </g>
    </g>
    <g id="xtick_2">
     <g id="text_2">
      <!-- Preterm -->
      <g style="fill: #262626" transform="translate(157.515696 239.538906) scale(0.05 -0.05)">
       <defs>
        <path id="ArialMT-50" d="M 494 0 
L 494 4581 
L 2222 4581 
Q 2678 4581 2919 4538 
Q 3256 4481 3484 4323 
Q 3713 4166 3852 3881 
Q 3991 3597 3991 3256 
Q 3991 2672 3619 2267 
Q 3247 1863 2275 1863 
L 1100 1863 
L 1100 0 
L 494 0 
z
M 1100 2403 
L 2284 2403 
Q 2872 2403 3119 2622 
Q 3366 2841 3366 3238 
Q 3366 3525 3220 3729 
Q 3075 3934 2838 4000 
Q 2684 4041 2272 4041 
L 1100 4041 
L 1100 2403 
z
" transform="scale(0.015625)"/>
        <path id="ArialMT-74" d="M 1650 503 
L 1731 6 
Q 1494 -44 1306 -44 
Q 1000 -44 831 53 
Q 663 150 594 308 
Q 525 466 525 972 
L 525 2881 
L 113 2881 
L 113 3319 
L 525 3319 
L 525 4141 
L 1084 4478 
L 1084 3319 
L 1650 3319 
L 1650 2881 
L 1084 2881 
L 1084 941 
Q 1084 700 1114 631 
Q 1144 563 1211 522 
Q 1278 481 1403 481 
Q 1497 481 1650 503 
z
" transform="scale(0.015625)"/>
       </defs>
       <use xlink:href="#ArialMT-50"/>
       <use xlink:href="#ArialMT-72" x="66.699219"/>
       <use xlink:href="#ArialMT-65" x="100"/>
       <use xlink:href="#ArialMT-74" x="155.615234"/>
       <use xlink:href="#ArialMT-65" x="183.398438"/>
       <use xlink:href="#ArialMT-72" x="239.013672"/>
       <use xlink:href="#ArialMT-6d" x="272.314453"/>
      </g>
     </g>
    </g>
   </g>
   <g id="matplotlib.axis_2">
    <g id="ytick_1">
     <g id="line2d_1">
      <path d="M 40.432813 198.561999 
L 207.832813 198.561999 
" clip-path="url(#pe931a3a260)" style="fill: none; stroke: #cccccc; stroke-width: 0.8; stroke-linecap: round"/>
     </g>
     <g id="text_3">
      <!-- 300000 -->
      <g style="fill: #262626" transform="translate(16.75 200.351453) scale(0.05 -0.05)">
       <defs>
        <path id="ArialMT-33" d="M 269 1209 
L 831 1284 
Q 928 806 1161 595 
Q 1394 384 1728 384 
Q 2125 384 2398 659 
Q 2672 934 2672 1341 
Q 2672 1728 2419 1979 
Q 2166 2231 1775 2231 
Q 1616 2231 1378 2169 
L 1441 2663 
Q 1497 2656 1531 2656 
Q 1891 2656 2178 2843 
Q 2466 3031 2466 3422 
Q 2466 3731 2256 3934 
Q 2047 4138 1716 4138 
Q 1388 4138 1169 3931 
Q 950 3725 888 3313 
L 325 3413 
Q 428 3978 793 4289 
Q 1159 4600 1703 4600 
Q 2078 4600 2393 4439 
Q 2709 4278 2876 4000 
Q 3044 3722 3044 3409 
Q 3044 3113 2884 2869 
Q 2725 2625 2413 2481 
Q 2819 2388 3044 2092 
Q 3269 1797 3269 1353 
Q 3269 753 2831 336 
Q 2394 -81 1725 -81 
Q 1122 -81 723 278 
Q 325 638 269 1209 
z
" transform="scale(0.015625)"/>
        <path id="ArialMT-30" d="M 266 2259 
Q 266 3072 433 3567 
Q 600 4063 929 4331 
Q 1259 4600 1759 4600 
Q 2128 4600 2406 4451 
Q 2684 4303 2865 4023 
Q 3047 3744 3150 3342 
Q 3253 2941 3253 2259 
Q 3253 1453 3087 958 
Q 2922 463 2592 192 
Q 2263 -78 1759 -78 
Q 1097 -78 719 397 
Q 266 969 266 2259 
z
M 844 2259 
Q 844 1131 1108 757 
Q 1372 384 1759 384 
Q 2147 384 2411 759 
Q 2675 1134 2675 2259 
Q 2675 3391 2411 3762 
Q 2147 4134 1753 4134 
Q 1366 4134 1134 3806 
Q 844 3388 844 2259 
z
" transform="scale(0.015625)"/>
       </defs>
       <use xlink:href="#ArialMT-33"/>
       <use xlink:href="#ArialMT-30" x="55.615234"/>
       <use xlink:href="#ArialMT-30" x="111.230469"/>
       <use xlink:href="#ArialMT-30" x="166.845703"/>
       <use xlink:href="#ArialMT-30" x="222.460938"/>
       <use xlink:href="#ArialMT-30" x="278.076172"/>
      </g>
     </g>
    </g>
    <g id="ytick_2">
     <g id="line2d_2">
      <path d="M 40.432813 155.694057 
L 207.832813 155.694057 
" clip-path="url(#pe931a3a260)" style="fill: none; stroke: #cccccc; stroke-width: 0.8; stroke-linecap: round"/>
     </g>
     <g id="text_4">
      <!-- 400000 -->
      <g style="fill: #262626" transform="translate(16.75 157.48351) scale(0.05 -0.05)">
       <defs>
        <path id="ArialMT-34" d="M 2069 0 
L 2069 1097 
L 81 1097 
L 81 1613 
L 2172 4581 
L 2631 4581 
L 2631 1613 
L 3250 1613 
L 3250 1097 
L 2631 1097 
L 2631 0 
L 2069 0 
z
M 2069 1613 
L 2069 3678 
L 634 1613 
L 2069 1613 
z
" transform="scale(0.015625)"/>
       </defs>
       <use xlink:href="#ArialMT-34"/>
       <use xlink:href="#ArialMT-30" x="55.615234"/>
       <use xlink:href="#ArialMT-30" x="111.230469"/>
       <use xlink:href="#ArialMT-30" x="166.845703"/>
       <use xlink:href="#ArialMT-30" x="222.460938"/>
       <use xlink:href="#ArialMT-30" x="278.076172"/>
      </g>
     </g>
    </g>
    <g id="ytick_3">
     <g id="line2d_3">
      <path d="M 40.432813 112.826114 
L 207.832813 112.826114 
" clip-path="url(#pe931a3a260)" style="fill: none; stroke: #cccccc; stroke-width: 0.8; stroke-linecap: round"/>
     </g>
     <g id="text_5">
      <!-- 500000 -->
      <g style="fill: #262626" transform="translate(16.75 114.615568) scale(0.05 -0.05)">
       <defs>
        <path id="ArialMT-35" d="M 266 1200 
L 856 1250 
Q 922 819 1161 601 
Q 1400 384 1738 384 
Q 2144 384 2425 690 
Q 2706 997 2706 1503 
Q 2706 1984 2436 2262 
Q 2166 2541 1728 2541 
Q 1456 2541 1237 2417 
Q 1019 2294 894 2097 
L 366 2166 
L 809 4519 
L 3088 4519 
L 3088 3981 
L 1259 3981 
L 1013 2750 
Q 1425 3038 1878 3038 
Q 2478 3038 2890 2622 
Q 3303 2206 3303 1553 
Q 3303 931 2941 478 
Q 2500 -78 1738 -78 
Q 1113 -78 717 272 
Q 322 622 266 1200 
z
" transform="scale(0.015625)"/>
       </defs>
       <use xlink:href="#ArialMT-35"/>
       <use xlink:href="#ArialMT-30" x="55.615234"/>
       <use xlink:href="#ArialMT-30" x="111.230469"/>
       <use xlink:href="#ArialMT-30" x="166.845703"/>
       <use xlink:href="#ArialMT-30" x="222.460938"/>
       <use xlink:href="#ArialMT-30" x="278.076172"/>
      </g>
     </g>
    </g>
    <g id="ytick_4">
     <g id="line2d_4">
      <path d="M 40.432813 69.958172 
L 207.832813 69.958172 
" clip-path="url(#pe931a3a260)" style="fill: none; stroke: #cccccc; stroke-width: 0.8; stroke-linecap: round"/>
     </g>
     <g id="text_6">
      <!-- 600000 -->
      <g style="fill: #262626" transform="translate(16.75 71.747625) scale(0.05 -0.05)">
       <defs>
        <path id="ArialMT-36" d="M 3184 3459 
L 2625 3416 
Q 2550 3747 2413 3897 
Q 2184 4138 1850 4138 
Q 1581 4138 1378 3988 
Q 1113 3794 959 3422 
Q 806 3050 800 2363 
Q 1003 2672 1297 2822 
Q 1591 2972 1913 2972 
Q 2475 2972 2870 2558 
Q 3266 2144 3266 1488 
Q 3266 1056 3080 686 
Q 2894 316 2569 119 
Q 2244 -78 1831 -78 
Q 1128 -78 684 439 
Q 241 956 241 2144 
Q 241 3472 731 4075 
Q 1159 4600 1884 4600 
Q 2425 4600 2770 4297 
Q 3116 3994 3184 3459 
z
M 888 1484 
Q 888 1194 1011 928 
Q 1134 663 1356 523 
Q 1578 384 1822 384 
Q 2178 384 2434 671 
Q 2691 959 2691 1453 
Q 2691 1928 2437 2201 
Q 2184 2475 1800 2475 
Q 1419 2475 1153 2201 
Q 888 1928 888 1484 
z
" transform="scale(0.015625)"/>
       </defs>
       <use xlink:href="#ArialMT-36"/>
       <use xlink:href="#ArialMT-30" x="55.615234"/>
       <use xlink:href="#ArialMT-30" x="111.230469"/>
       <use xlink:href="#ArialMT-30" x="166.845703"/>
       <use xlink:href="#ArialMT-30" x="222.460938"/>
       <use xlink:href="#ArialMT-30" x="278.076172"/>
      </g>
     </g>
    </g>
    <g id="ytick_5">
     <g id="line2d_5">
      <path d="M 40.432813 27.090229 
L 207.832813 27.090229 
" clip-path="url(#pe931a3a260)" style="fill: none; stroke: #cccccc; stroke-width: 0.8; stroke-linecap: round"/>
     </g>
     <g id="text_7">
      <!-- 700000 -->
      <g style="fill: #262626" transform="translate(16.75 28.879683) scale(0.05 -0.05)">
       <defs>
        <path id="ArialMT-37" d="M 303 3981 
L 303 4522 
L 3269 4522 
L 3269 4084 
Q 2831 3619 2401 2847 
Q 1972 2075 1738 1259 
Q 1569 684 1522 0 
L 944 0 
Q 953 541 1156 1306 
Q 1359 2072 1739 2783 
Q 2119 3494 2547 3981 
L 303 3981 
z
" transform="scale(0.015625)"/>
       </defs>
       <use xlink:href="#ArialMT-37"/>
       <use xlink:href="#ArialMT-30" x="55.615234"/>
       <use xlink:href="#ArialMT-30" x="111.230469"/>
       <use xlink:href="#ArialMT-30" x="166.845703"/>
       <use xlink:href="#ArialMT-30" x="222.460938"/>
       <use xlink:href="#ArialMT-30" x="278.076172"/>
      </g>
     </g>
    </g>
    <g id="text_8">
     <!-- WMV [mm$^3$] -->
     <g style="fill: #262626" transform="translate(11.75 131.655) rotate(-90) scale(0.05 -0.05)">
      <defs>
       <path id="ArialMT-57" d="M 1294 0 
L 78 4581 
L 700 4581 
L 1397 1578 
Q 1509 1106 1591 641 
Q 1766 1375 1797 1488 
L 2669 4581 
L 3400 4581 
L 4056 2263 
Q 4303 1400 4413 641 
Q 4500 1075 4641 1638 
L 5359 4581 
L 5969 4581 
L 4713 0 
L 4128 0 
L 3163 3491 
Q 3041 3928 3019 4028 
Q 2947 3713 2884 3491 
L 1913 0 
L 1294 0 
z
" transform="scale(0.015625)"/>
       <path id="ArialMT-4d" d="M 475 0 
L 475 4581 
L 1388 4581 
L 2472 1338 
Q 2622 884 2691 659 
Q 2769 909 2934 1394 
L 4031 4581 
L 4847 4581 
L 4847 0 
L 4263 0 
L 4263 3834 
L 2931 0 
L 2384 0 
L 1059 3900 
L 1059 0 
L 475 0 
z
" transform="scale(0.015625)"/>
       <path id="ArialMT-56" d="M 1803 0 
L 28 4581 
L 684 4581 
L 1875 1253 
Q 2019 853 2116 503 
Q 2222 878 2363 1253 
L 3600 4581 
L 4219 4581 
L 2425 0 
L 1803 0 
z
" transform="scale(0.015625)"/>
       <path id="ArialMT-20" transform="scale(0.015625)"/>
       <path id="ArialMT-5b" d="M 434 -1272 
L 434 4581 
L 1675 4581 
L 1675 4116 
L 997 4116 
L 997 -806 
L 1675 -806 
L 1675 -1272 
L 434 -1272 
z
" transform="scale(0.015625)"/>
       <path id="DejaVuSans-33" d="M 2597 2516 
Q 3050 2419 3304 2112 
Q 3559 1806 3559 1356 
Q 3559 666 3084 287 
Q 2609 -91 1734 -91 
Q 1441 -91 1130 -33 
Q 819 25 488 141 
L 488 750 
Q 750 597 1062 519 
Q 1375 441 1716 441 
Q 2309 441 2620 675 
Q 2931 909 2931 1356 
Q 2931 1769 2642 2001 
Q 2353 2234 1838 2234 
L 1294 2234 
L 1294 2753 
L 1863 2753 
Q 2328 2753 2575 2939 
Q 2822 3125 2822 3475 
Q 2822 3834 2567 4026 
Q 2313 4219 1838 4219 
Q 1578 4219 1281 4162 
Q 984 4106 628 3988 
L 628 4550 
Q 988 4650 1302 4700 
Q 1616 4750 1894 4750 
Q 2613 4750 3031 4423 
Q 3450 4097 3450 3541 
Q 3450 3153 3228 2886 
Q 3006 2619 2597 2516 
z
" transform="scale(0.015625)"/>
       <path id="ArialMT-5d" d="M 1363 -1272 
L 122 -1272 
L 122 -806 
L 800 -806 
L 800 4116 
L 122 4116 
L 122 4581 
L 1363 4581 
L 1363 -1272 
z
" transform="scale(0.015625)"/>
      </defs>
      <use xlink:href="#ArialMT-57" transform="translate(0 0.765625)"/>
      <use xlink:href="#ArialMT-4d" transform="translate(94.384766 0.765625)"/>
      <use xlink:href="#ArialMT-56" transform="translate(177.685547 0.765625)"/>
      <use xlink:href="#ArialMT-20" transform="translate(244.384766 0.765625)"/>
      <use xlink:href="#ArialMT-5b" transform="translate(272.167969 0.765625)"/>
      <use xlink:href="#ArialMT-6d" transform="translate(299.951172 0.765625)"/>
      <use xlink:href="#ArialMT-6d" transform="translate(383.251953 0.765625)"/>
      <use xlink:href="#DejaVuSans-33" transform="translate(467.509766 39.046875) scale(0.7)"/>
      <use xlink:href="#ArialMT-5d" transform="translate(514.780273 0.765625)"/>
     </g>
    </g>
   </g>
   <g id="PolyCollection_1">
    <defs>
     <path id="m556334597c" d="M 81.863765 -28.852656 
L 81.856405 -28.852656 
L 81.848006 -30.88902 
L 81.831557 -32.925384 
L 81.810113 -34.961747 
L 81.791654 -36.998111 
L 81.779682 -39.034474 
L 81.767167 -41.070838 
L 81.740842 -43.107202 
L 81.682748 -45.143565 
L 81.567521 -47.179929 
L 81.380291 -49.216293 
L 81.137023 -51.252656 
L 80.844353 -53.28902 
L 80.438517 -55.325384 
L 79.824973 -57.361747 
L 78.980787 -59.398111 
L 77.955251 -61.434474 
L 76.785327 -63.470838 
L 75.460225 -65.507202 
L 73.93821 -67.543565 
L 72.187344 -69.579929 
L 70.246712 -71.616293 
L 68.248381 -73.652656 
L 66.334144 -75.68902 
L 64.531999 -77.725384 
L 62.764174 -79.761747 
L 60.959099 -81.798111 
L 59.091493 -83.834474 
L 57.181683 -85.870838 
L 55.333004 -87.907202 
L 53.717274 -89.943565 
L 52.44235 -91.979929 
L 51.429172 -94.016293 
L 50.487535 -96.052656 
L 49.516966 -98.08902 
L 48.61226 -100.125384 
L 48.041903 -102.161747 
L 48.104847 -104.198111 
L 48.878009 -106.234474 
L 50.158049 -108.270838 
L 51.728853 -110.307202 
L 53.486124 -112.343565 
L 55.311651 -114.379929 
L 57.100558 -116.416293 
L 58.821581 -118.452656 
L 60.443603 -120.48902 
L 62.008339 -122.525384 
L 63.669781 -124.561747 
L 65.418198 -126.598111 
L 67.007676 -128.634474 
L 68.334505 -130.670838 
L 69.604119 -132.707202 
L 70.991744 -134.743565 
L 72.393201 -136.779929 
L 73.629925 -138.816293 
L 74.678653 -140.852656 
L 75.603846 -142.88902 
L 76.436652 -144.925384 
L 77.183606 -146.961747 
L 77.84473 -148.998111 
L 78.408982 -151.034474 
L 78.897835 -153.070838 
L 79.372195 -155.107202 
L 79.86021 -157.143565 
L 80.322466 -159.179929 
L 80.690253 -161.216293 
L 80.925871 -163.252656 
L 81.051431 -165.28902 
L 81.123797 -167.325384 
L 81.19602 -169.361747 
L 81.293427 -171.398111 
L 81.403138 -173.434474 
L 81.491417 -175.470838 
L 81.543471 -177.507202 
L 81.578236 -179.543565 
L 81.623474 -181.579929 
L 81.68672 -183.616293 
L 81.749078 -185.652656 
L 81.786793 -187.68902 
L 81.795583 -189.725384 
L 81.790366 -191.761747 
L 81.789897 -193.798111 
L 81.802219 -195.834474 
L 81.819943 -197.870838 
L 81.831923 -199.907202 
L 81.837352 -201.943565 
L 81.842403 -203.979929 
L 81.848181 -206.016293 
L 81.850179 -208.052656 
L 81.846608 -210.08902 
L 81.842073 -212.125384 
L 81.842455 -214.161747 
L 81.847378 -216.198111 
L 81.850755 -218.234474 
L 81.848521 -220.270838 
L 81.843369 -222.307202 
L 81.841748 -224.343565 
L 81.846212 -226.379929 
L 81.852943 -228.416293 
L 81.857588 -230.452656 
L 81.862583 -230.452656 
L 81.862583 -230.452656 
L 81.867227 -228.416293 
L 81.873958 -226.379929 
L 81.878423 -224.343565 
L 81.876801 -222.307202 
L 81.87165 -220.270838 
L 81.869415 -218.234474 
L 81.872792 -216.198111 
L 81.877715 -214.161747 
L 81.878097 -212.125384 
L 81.873563 -210.08902 
L 81.869992 -208.052656 
L 81.87199 -206.016293 
L 81.877767 -203.979929 
L 81.882818 -201.943565 
L 81.888248 -199.907202 
L 81.900227 -197.870838 
L 81.917952 -195.834474 
L 81.930274 -193.798111 
L 81.929804 -191.761747 
L 81.924587 -189.725384 
L 81.933377 -187.68902 
L 81.971092 -185.652656 
L 82.03345 -183.616293 
L 82.096696 -181.579929 
L 82.141934 -179.543565 
L 82.1767 -177.507202 
L 82.228754 -175.470838 
L 82.317032 -173.434474 
L 82.426743 -171.398111 
L 82.52415 -169.361747 
L 82.596373 -167.325384 
L 82.668739 -165.28902 
L 82.7943 -163.252656 
L 83.029918 -161.216293 
L 83.397704 -159.179929 
L 83.85996 -157.143565 
L 84.347976 -155.107202 
L 84.822335 -153.070838 
L 85.311189 -151.034474 
L 85.87544 -148.998111 
L 86.536564 -146.961747 
L 87.283518 -144.925384 
L 88.116325 -142.88902 
L 89.041518 -140.852656 
L 90.090246 -138.816293 
L 91.32697 -136.779929 
L 92.728427 -134.743565 
L 94.116051 -132.707202 
L 95.385665 -130.670838 
L 96.712494 -128.634474 
L 98.301972 -126.598111 
L 100.05039 -124.561747 
L 101.711832 -122.525384 
L 103.276568 -120.48902 
L 104.89859 -118.452656 
L 106.619613 -116.416293 
L 108.40852 -114.379929 
L 110.234047 -112.343565 
L 111.991317 -110.307202 
L 113.562122 -108.270838 
L 114.842162 -106.234474 
L 115.615324 -104.198111 
L 115.678267 -102.161747 
L 115.10791 -100.125384 
L 114.203205 -98.08902 
L 113.232636 -96.052656 
L 112.290998 -94.016293 
L 111.277821 -91.979929 
L 110.002896 -89.943565 
L 108.387167 -87.907202 
L 106.538488 -85.870838 
L 104.628677 -83.834474 
L 102.761072 -81.798111 
L 100.955996 -79.761747 
L 99.188171 -77.725384 
L 97.386026 -75.68902 
L 95.471789 -73.652656 
L 93.473459 -71.616293 
L 91.532827 -69.579929 
L 89.781961 -67.543565 
L 88.259945 -65.507202 
L 86.934844 -63.470838 
L 85.764919 -61.434474 
L 84.739384 -59.398111 
L 83.895197 -57.361747 
L 83.281653 -55.325384 
L 82.875818 -53.28902 
L 82.583148 -51.252656 
L 82.339879 -49.216293 
L 82.152649 -47.179929 
L 82.037423 -45.143565 
L 81.979328 -43.107202 
L 81.953004 -41.070838 
L 81.940488 -39.034474 
L 81.928516 -36.998111 
L 81.910057 -34.961747 
L 81.888614 -32.925384 
L 81.872165 -30.88902 
L 81.863765 -28.852656 
z
" style="stroke: #4c4c4c; stroke-width: 1.25"/>
    </defs>
    <g clip-path="url(#pe931a3a260)">
     <use xlink:href="#m556334597c" x="0" y="247.732656" style="fill: #5573cd; stroke: #4c4c4c; stroke-width: 1.25"/>
    </g>
   </g>
   <g id="PolyCollection_2">
    <defs>
     <path id="m2a8c1f119d" d="M 166.527564 -41.477279 
L 166.283516 -41.477279 
L 166.200423 -42.990332 
L 166.073076 -44.503385 
L 165.885235 -46.016438 
L 165.618303 -47.529491 
L 165.252571 -49.042544 
L 164.769171 -50.555598 
L 164.152639 -52.068651 
L 163.393832 -53.581704 
L 162.492679 -55.094757 
L 161.460092 -56.60781 
L 160.318334 -58.120863 
L 159.099338 -59.633916 
L 157.840909 -61.146969 
L 156.581353 -62.660022 
L 155.353604 -64.173075 
L 154.180223 -65.686128 
L 153.070488 -67.199181 
L 152.020273 -68.712234 
L 151.014601 -70.225287 
L 150.031993 -71.738341 
L 149.049236 -73.251394 
L 148.045166 -74.764447 
L 147.002571 -76.2775 
L 145.908161 -77.790553 
L 144.751464 -79.303606 
L 143.524152 -80.816659 
L 142.22128 -82.329712 
L 140.845147 -83.842765 
L 139.411151 -85.355818 
L 137.9536 -86.868871 
L 136.528633 -88.381924 
L 135.211705 -89.894977 
L 134.088618 -91.40803 
L 133.241291 -92.921083 
L 132.731557 -94.434137 
L 132.587358 -95.94719 
L 132.795263 -97.460243 
L 133.301529 -98.973296 
L 134.021516 -100.486349 
L 134.855079 -101.999402 
L 135.704287 -103.512455 
L 136.48961 -105.025508 
L 137.161493 -106.538561 
L 137.70558 -108.051614 
L 138.141262 -109.564667 
L 138.514531 -111.07772 
L 138.886996 -112.590773 
L 139.323426 -114.103826 
L 139.880142 -115.61688 
L 140.596222 -117.129933 
L 141.488708 -118.642986 
L 142.552164 -120.156039 
L 143.762054 -121.669092 
L 145.08076 -123.182145 
L 146.464638 -124.695198 
L 147.870582 -126.208251 
L 149.260849 -127.721304 
L 150.605606 -129.234357 
L 151.883332 -130.74741 
L 153.079856 -132.260463 
L 154.187 -133.773516 
L 155.201667 -135.286569 
L 156.125621 -136.799622 
L 156.965639 -138.312676 
L 157.733314 -139.825729 
L 158.443854 -141.338782 
L 159.113674 -142.851835 
L 159.757258 -144.364888 
L 160.384186 -145.877941 
L 160.99733 -147.390994 
L 161.59279 -148.904047 
L 162.161557 -150.4171 
L 162.692308 -151.930153 
L 163.174447 -153.443206 
L 163.600573 -154.956259 
L 163.967867 -156.469312 
L 164.278246 -157.982365 
L 164.537505 -159.495419 
L 164.753824 -161.008472 
L 164.936092 -162.521525 
L 165.092438 -164.034578 
L 165.229266 -165.547631 
L 165.350921 -167.060684 
L 165.45994 -168.573737 
L 165.557716 -170.08679 
L 165.645293 -171.599843 
L 165.723998 -173.112896 
L 165.795709 -174.625949 
L 165.862688 -176.139002 
L 165.927108 -177.652055 
L 165.990472 -179.165108 
L 166.053203 -180.678162 
L 166.114554 -182.191215 
L 166.172885 -183.704268 
L 166.226189 -185.217321 
L 166.272665 -186.730374 
L 166.311167 -188.243427 
L 166.341405 -189.75648 
L 166.363894 -191.269533 
L 166.447186 -191.269533 
L 166.447186 -191.269533 
L 166.469675 -189.75648 
L 166.499912 -188.243427 
L 166.538414 -186.730374 
L 166.58489 -185.217321 
L 166.638194 -183.704268 
L 166.696526 -182.191215 
L 166.757877 -180.678162 
L 166.820608 -179.165108 
L 166.883972 -177.652055 
L 166.948392 -176.139002 
L 167.015371 -174.625949 
L 167.087081 -173.112896 
L 167.165787 -171.599843 
L 167.253364 -170.08679 
L 167.35114 -168.573737 
L 167.460158 -167.060684 
L 167.581813 -165.547631 
L 167.718642 -164.034578 
L 167.874987 -162.521525 
L 168.057255 -161.008472 
L 168.273575 -159.495419 
L 168.532834 -157.982365 
L 168.843212 -156.469312 
L 169.210506 -154.956259 
L 169.636633 -153.443206 
L 170.118771 -151.930153 
L 170.649522 -150.4171 
L 171.21829 -148.904047 
L 171.813749 -147.390994 
L 172.426893 -145.877941 
L 173.053822 -144.364888 
L 173.697405 -142.851835 
L 174.367226 -141.338782 
L 175.077765 -139.825729 
L 175.845441 -138.312676 
L 176.685458 -136.799622 
L 177.609412 -135.286569 
L 178.62408 -133.773516 
L 179.731224 -132.260463 
L 180.927747 -130.74741 
L 182.205474 -129.234357 
L 183.550231 -127.721304 
L 184.940498 -126.208251 
L 186.346442 -124.695198 
L 187.73032 -123.182145 
L 189.049025 -121.669092 
L 190.258916 -120.156039 
L 191.322371 -118.642986 
L 192.214857 -117.129933 
L 192.930938 -115.61688 
L 193.487654 -114.103826 
L 193.924083 -112.590773 
L 194.296549 -111.07772 
L 194.669817 -109.564667 
L 195.1055 -108.051614 
L 195.649586 -106.538561 
L 196.32147 -105.025508 
L 197.106792 -103.512455 
L 197.956001 -101.999402 
L 198.789564 -100.486349 
L 199.50955 -98.973296 
L 200.015817 -97.460243 
L 200.223722 -95.94719 
L 200.079523 -94.434137 
L 199.569789 -92.921083 
L 198.722461 -91.40803 
L 197.599374 -89.894977 
L 196.282447 -88.381924 
L 194.85748 -86.868871 
L 193.399929 -85.355818 
L 191.965933 -83.842765 
L 190.5898 -82.329712 
L 189.286928 -80.816659 
L 188.059616 -79.303606 
L 186.902918 -77.790553 
L 185.808509 -76.2775 
L 184.765914 -74.764447 
L 183.761843 -73.251394 
L 182.779086 -71.738341 
L 181.796479 -70.225287 
L 180.790806 -68.712234 
L 179.740591 -67.199181 
L 178.630857 -65.686128 
L 177.457475 -64.173075 
L 176.229726 -62.660022 
L 174.97017 -61.146969 
L 173.711741 -59.633916 
L 172.492745 -58.120863 
L 171.350988 -56.60781 
L 170.3184 -55.094757 
L 169.417247 -53.581704 
L 168.658441 -52.068651 
L 168.041909 -50.555598 
L 167.558508 -49.042544 
L 167.192777 -47.529491 
L 166.925845 -46.016438 
L 166.738004 -44.503385 
L 166.610657 -42.990332 
L 166.527564 -41.477279 
z
" style="stroke: #4c4c4c; stroke-width: 1.25"/>
    </defs>
    <g clip-path="url(#pe931a3a260)">
     <use xlink:href="#m2a8c1f119d" x="0" y="247.732656" style="fill: #df8920; stroke: #4c4c4c; stroke-width: 1.25"/>
    </g>
   </g>
   <g id="line2d_6">
    <path d="M 81.860085 200.779073 
L 81.860085 88.431659 
" clip-path="url(#pe931a3a260)" style="fill: none; stroke: #4c4c4c; stroke-width: 1.875; stroke-linecap: round"/>
   </g>
   <g id="line2d_7">
    <path d="M 81.860085 158.567723 
L 81.860085 130.396893 
" clip-path="url(#pe931a3a260)" style="fill: none; stroke: #4c4c4c; stroke-width: 5.625; stroke-linecap: round"/>
   </g>
   <g id="line2d_8">
    <path d="M 81.860085 144.794706 
" clip-path="url(#pe931a3a260)" style="fill: none; stroke: #4c4c4c; stroke-width: 0.5; stroke-linecap: round"/>
    <defs>
     <path id="m9d348ae0f7" d="M 2.34375 0 
L -2.34375 -0 
" style="stroke: #ffffff; stroke-width: 1.125"/>
    </defs>
    <g clip-path="url(#pe931a3a260)">
     <use xlink:href="#m9d348ae0f7" x="81.860085" y="144.794706" style="fill: #ffffff; stroke: #ffffff; stroke-width: 1.125"/>
    </g>
   </g>
   <g id="line2d_9">
    <path d="M 166.40554 192.658005 
L 166.40554 84.451329 
" clip-path="url(#pe931a3a260)" style="fill: none; stroke: #4c4c4c; stroke-width: 1.875; stroke-linecap: round"/>
   </g>
   <g id="line2d_10">
    <path d="M 166.40554 161.463601 
L 166.40554 130.4318 
" clip-path="url(#pe931a3a260)" style="fill: none; stroke: #4c4c4c; stroke-width: 5.625; stroke-linecap: round"/>
   </g>
   <g id="line2d_11">
    <path d="M 166.40554 147.752832 
" clip-path="url(#pe931a3a260)" style="fill: none; stroke: #4c4c4c; stroke-width: 0.5; stroke-linecap: round"/>
    <g clip-path="url(#pe931a3a260)">
     <use xlink:href="#m9d348ae0f7" x="166.40554" y="147.752832" style="fill: #ffffff; stroke: #ffffff; stroke-width: 1.125"/>
    </g>
   </g>
   <g id="line2d_12">
    <path d="M 81.860085 71.145729 
L 81.860085 66.710529 
L 166.40554 66.710529 
L 166.40554 71.145729 
" style="fill: none; stroke: #333333; stroke-width: 1.5; stroke-linecap: round"/>
   </g>
   <g id="patch_3">
    <path d="M 40.432813 228.96 
L 40.432813 7.2 
" style="fill: none; stroke: #cccccc; stroke-width: 0.25; stroke-linejoin: miter; stroke-linecap: square"/>
   </g>
   <g id="patch_4">
    <path d="M 40.432813 228.96 
L 207.832812 228.96 
" style="fill: none; stroke: #cccccc; stroke-width: 0.25; stroke-linejoin: miter; stroke-linecap: square"/>
   </g>
   <g id="text_9">
    <!-- ns -->
    <g style="fill: #262626" transform="translate(120.964531 64.518029) scale(0.06 -0.06)">
     <defs>
      <path id="ArialMT-6e" d="M 422 0 
L 422 3319 
L 928 3319 
L 928 2847 
Q 1294 3394 1984 3394 
Q 2284 3394 2536 3286 
Q 2788 3178 2913 3003 
Q 3038 2828 3088 2588 
Q 3119 2431 3119 2041 
L 3119 0 
L 2556 0 
L 2556 2019 
Q 2556 2363 2490 2533 
Q 2425 2703 2258 2804 
Q 2091 2906 1866 2906 
Q 1506 2906 1245 2678 
Q 984 2450 984 1813 
L 984 0 
L 422 0 
z
" transform="scale(0.015625)"/>
      <path id="ArialMT-73" d="M 197 991 
L 753 1078 
Q 800 744 1014 566 
Q 1228 388 1613 388 
Q 2000 388 2187 545 
Q 2375 703 2375 916 
Q 2375 1106 2209 1216 
Q 2094 1291 1634 1406 
Q 1016 1563 777 1677 
Q 538 1791 414 1992 
Q 291 2194 291 2438 
Q 291 2659 392 2848 
Q 494 3038 669 3163 
Q 800 3259 1026 3326 
Q 1253 3394 1513 3394 
Q 1903 3394 2198 3281 
Q 2494 3169 2634 2976 
Q 2775 2784 2828 2463 
L 2278 2388 
Q 2241 2644 2061 2787 
Q 1881 2931 1553 2931 
Q 1166 2931 1000 2803 
Q 834 2675 834 2503 
Q 834 2394 903 2306 
Q 972 2216 1119 2156 
Q 1203 2125 1616 2013 
Q 2213 1853 2448 1751 
Q 2684 1650 2818 1456 
Q 2953 1263 2953 975 
Q 2953 694 2789 445 
Q 2625 197 2315 61 
Q 2006 -75 1616 -75 
Q 969 -75 630 194 
Q 291 463 197 991 
z
" transform="scale(0.015625)"/>
     </defs>
     <use xlink:href="#ArialMT-6e"/>
     <use xlink:href="#ArialMT-73" x="55.615234"/>
    </g>
   </g>
  </g>
 </g>
 <defs>
  <clipPath id="pe931a3a260">
   <rect x="40.432813" y="7.2" width="167.4" height="221.76"/>
  </clipPath>
 </defs>
</svg>
