<?xml version="1.0" encoding="utf-8" standalone="no"?>
<!DOCTYPE svg PUBLIC "-//W3C//DTD SVG 1.1//EN"
  "http://www.w3.org/Graphics/SVG/1.1/DTD/svg11.dtd">
<svg xmlns:xlink="http://www.w3.org/1999/xlink" width="245.322187pt" height="255.719844pt" viewBox="0 0 245.322187 255.719844" xmlns="http://www.w3.org/2000/svg" version="1.1">
 <metadata>
  <rdf:RDF xmlns:dc="http://purl.org/dc/elements/1.1/" xmlns:cc="http://creativecommons.org/ns#" xmlns:rdf="http://www.w3.org/1999/02/22-rdf-syntax-ns#">
   <cc:Work>
    <dc:type rdf:resource="http://purl.org/dc/dcmitype/StillImage"/>
    <dc:date>2025-05-13T10:52:06.243281</dc:date>
    <dc:format>image/svg+xml</dc:format>
    <dc:creator>
     <cc:Agent>
      <dc:title>Matplotlib v3.9.2, https://matplotlib.org/</dc:title>
     </cc:Agent>
    </dc:creator>
   </cc:Work>
  </rdf:RDF>
 </metadata>
 <defs>
  <style type="text/css">*{stroke-linejoin: round; stroke-linecap: butt}</style>
 </defs>
 <g id="figure_1">
  <g id="patch_1">
   <path d="M -0 255.719844 
L 245.322188 255.719844 
L 245.322188 0 
L -0 0 
z
" style="fill: #ffffff"/>
  </g>
  <g id="axes_1">
   <g id="patch_2">
    <path d="M 70.722188 228.96 
L 238.122188 228.96 
L 238.122188 7.2 
L 70.722188 7.2 
z
" style="fill: #ffffff"/>
   </g>
   <g id="matplotlib.axis_1">
    <g id="xtick_1">
     <g id="text_1">
      <!-- Term -->
      <g style="fill: #262626" transform="translate(99.930866 246.333594) scale(0.11 -0.11)">
       <defs>
        <path id="ArialMT-54" d="M 1659 0 
L 1659 4041 
L 150 4041 
L 150 4581 
L 3781 4581 
L 3781 4041 
L 2266 4041 
L 2266 0 
L 1659 0 
z
" transform="scale(0.015625)"/>
        <path id="ArialMT-65" d="M 2694 1069 
L 3275 997 
Q 3138 488 2766 206 
Q 2394 -75 1816 -75 
Q 1088 -75 661 373 
Q 234 822 234 1631 
Q 234 2469 665 2931 
Q 1097 3394 1784 3394 
Q 2450 3394 2872 2941 
Q 3294 2488 3294 1666 
Q 3294 1616 3291 1516 
L 816 1516 
Q 847 969 1125 678 
Q 1403 388 1819 388 
Q 2128 388 2347 550 
Q 2566 713 2694 1069 
z
M 847 1978 
L 2700 1978 
Q 2663 2397 2488 2606 
Q 2219 2931 1791 2931 
Q 1403 2931 1139 2672 
Q 875 2413 847 1978 
z
" transform="scale(0.015625)"/>
        <path id="ArialMT-72" d="M 416 0 
L 416 3319 
L 922 3319 
L 922 2816 
Q 1116 3169 1280 3281 
Q 1444 3394 1641 3394 
Q 1925 3394 2219 3213 
L 2025 2691 
Q 1819 2813 1613 2813 
Q 1428 2813 1281 2702 
Q 1134 2591 1072 2394 
Q 978 2094 978 1738 
L 978 0 
L 416 0 
z
" transform="scale(0.015625)"/>
        <path id="ArialMT-6d" d="M 422 0 
L 422 3319 
L 925 3319 
L 925 2853 
Q 1081 3097 1340 3245 
Q 1600 3394 1931 3394 
Q 2300 3394 2536 3241 
Q 2772 3088 2869 2813 
Q 3263 3394 3894 3394 
Q 4388 3394 4653 3120 
Q 4919 2847 4919 2278 
L 4919 0 
L 4359 0 
L 4359 2091 
Q 4359 2428 4304 2576 
Q 4250 2725 4106 2815 
Q 3963 2906 3769 2906 
Q 3419 2906 3187 2673 
Q 2956 2441 2956 1928 
L 2956 0 
L 2394 0 
L 2394 2156 
Q 2394 2531 2256 2718 
Q 2119 2906 1806 2906 
Q 1569 2906 1367 2781 
Q 1166 2656 1075 2415 
Q 984 2175 984 1722 
L 984 0 
L 422 0 
z
" transform="scale(0.015625)"/>
       </defs>
       <use xlink:href="#ArialMT-54"/>
       <use xlink:href="#ArialMT-65" x="49.958984"/>
       <use xlink:href="#ArialMT-72" x="105.574219"/>
       <use xlink:href="#ArialMT-6d" x="138.875"/>
      </g>
     </g>
    </g>
    <g id="xtick_2">
     <g id="text_2">
      <!-- Preterm -->
      <g style="fill: #262626" transform="translate(177.137259 246.333594) scale(0.11 -0.11)">
       <defs>
        <path id="ArialMT-50" d="M 494 0 
L 494 4581 
L 2222 4581 
Q 2678 4581 2919 4538 
Q 3256 4481 3484 4323 
Q 3713 4166 3852 3881 
Q 3991 3597 3991 3256 
Q 3991 2672 3619 2267 
Q 3247 1863 2275 1863 
L 1100 1863 
L 1100 0 
L 494 0 
z
M 1100 2403 
L 2284 2403 
Q 2872 2403 3119 2622 
Q 3366 2841 3366 3238 
Q 3366 3525 3220 3729 
Q 3075 3934 2838 4000 
Q 2684 4041 2272 4041 
L 1100 4041 
L 1100 2403 
z
" transform="scale(0.015625)"/>
        <path id="ArialMT-74" d="M 1650 503 
L 1731 6 
Q 1494 -44 1306 -44 
Q 1000 -44 831 53 
Q 663 150 594 308 
Q 525 466 525 972 
L 525 2881 
L 113 2881 
L 113 3319 
L 525 3319 
L 525 4141 
L 1084 4478 
L 1084 3319 
L 1650 3319 
L 1650 2881 
L 1084 2881 
L 1084 941 
Q 1084 700 1114 631 
Q 1144 563 1211 522 
Q 1278 481 1403 481 
Q 1497 481 1650 503 
z
" transform="scale(0.015625)"/>
       </defs>
       <use xlink:href="#ArialMT-50"/>
       <use xlink:href="#ArialMT-72" x="66.699219"/>
       <use xlink:href="#ArialMT-65" x="100"/>
       <use xlink:href="#ArialMT-74" x="155.615234"/>
       <use xlink:href="#ArialMT-65" x="183.398438"/>
       <use xlink:href="#ArialMT-72" x="239.013672"/>
       <use xlink:href="#ArialMT-6d" x="272.314453"/>
      </g>
     </g>
    </g>
   </g>
   <g id="matplotlib.axis_2">
    <g id="ytick_1">
     <g id="text_3">
      <!-- 300000 -->
      <g style="fill: #262626" transform="translate(24.52 203.668558) scale(0.11 -0.11)">
       <defs>
        <path id="ArialMT-33" d="M 269 1209 
L 831 1284 
Q 928 806 1161 595 
Q 1394 384 1728 384 
Q 2125 384 2398 659 
Q 2672 934 2672 1341 
Q 2672 1728 2419 1979 
Q 2166 2231 1775 2231 
Q 1616 2231 1378 2169 
L 1441 2663 
Q 1497 2656 1531 2656 
Q 1891 2656 2178 2843 
Q 2466 3031 2466 3422 
Q 2466 3731 2256 3934 
Q 2047 4138 1716 4138 
Q 1388 4138 1169 3931 
Q 950 3725 888 3313 
L 325 3413 
Q 428 3978 793 4289 
Q 1159 4600 1703 4600 
Q 2078 4600 2393 4439 
Q 2709 4278 2876 4000 
Q 3044 3722 3044 3409 
Q 3044 3113 2884 2869 
Q 2725 2625 2413 2481 
Q 2819 2388 3044 2092 
Q 3269 1797 3269 1353 
Q 3269 753 2831 336 
Q 2394 -81 1725 -81 
Q 1122 -81 723 278 
Q 325 638 269 1209 
z
" transform="scale(0.015625)"/>
        <path id="ArialMT-30" d="M 266 2259 
Q 266 3072 433 3567 
Q 600 4063 929 4331 
Q 1259 4600 1759 4600 
Q 2128 4600 2406 4451 
Q 2684 4303 2865 4023 
Q 3047 3744 3150 3342 
Q 3253 2941 3253 2259 
Q 3253 1453 3087 958 
Q 2922 463 2592 192 
Q 2263 -78 1759 -78 
Q 1097 -78 719 397 
Q 266 969 266 2259 
z
M 844 2259 
Q 844 1131 1108 757 
Q 1372 384 1759 384 
Q 2147 384 2411 759 
Q 2675 1134 2675 2259 
Q 2675 3391 2411 3762 
Q 2147 4134 1753 4134 
Q 1366 4134 1134 3806 
Q 844 3388 844 2259 
z
" transform="scale(0.015625)"/>
       </defs>
       <use xlink:href="#ArialMT-33"/>
       <use xlink:href="#ArialMT-30" x="55.615234"/>
       <use xlink:href="#ArialMT-30" x="111.230469"/>
       <use xlink:href="#ArialMT-30" x="166.845703"/>
       <use xlink:href="#ArialMT-30" x="222.460938"/>
       <use xlink:href="#ArialMT-30" x="278.076172"/>
      </g>
     </g>
    </g>
    <g id="ytick_2">
     <g id="text_4">
      <!-- 400000 -->
      <g style="fill: #262626" transform="translate(24.52 158.025629) scale(0.11 -0.11)">
       <defs>
        <path id="ArialMT-34" d="M 2069 0 
L 2069 1097 
L 81 1097 
L 81 1613 
L 2172 4581 
L 2631 4581 
L 2631 1613 
L 3250 1613 
L 3250 1097 
L 2631 1097 
L 2631 0 
L 2069 0 
z
M 2069 1613 
L 2069 3678 
L 634 1613 
L 2069 1613 
z
" transform="scale(0.015625)"/>
       </defs>
       <use xlink:href="#ArialMT-34"/>
       <use xlink:href="#ArialMT-30" x="55.615234"/>
       <use xlink:href="#ArialMT-30" x="111.230469"/>
       <use xlink:href="#ArialMT-30" x="166.845703"/>
       <use xlink:href="#ArialMT-30" x="222.460938"/>
       <use xlink:href="#ArialMT-30" x="278.076172"/>
      </g>
     </g>
    </g>
    <g id="ytick_3">
     <g id="text_5">
      <!-- 500000 -->
      <g style="fill: #262626" transform="translate(24.52 112.3827) scale(0.11 -0.11)">
       <defs>
        <path id="ArialMT-35" d="M 266 1200 
L 856 1250 
Q 922 819 1161 601 
Q 1400 384 1738 384 
Q 2144 384 2425 690 
Q 2706 997 2706 1503 
Q 2706 1984 2436 2262 
Q 2166 2541 1728 2541 
Q 1456 2541 1237 2417 
Q 1019 2294 894 2097 
L 366 2166 
L 809 4519 
L 3088 4519 
L 3088 3981 
L 1259 3981 
L 1013 2750 
Q 1425 3038 1878 3038 
Q 2478 3038 2890 2622 
Q 3303 2206 3303 1553 
Q 3303 931 2941 478 
Q 2500 -78 1738 -78 
Q 1113 -78 717 272 
Q 322 622 266 1200 
z
" transform="scale(0.015625)"/>
       </defs>
       <use xlink:href="#ArialMT-35"/>
       <use xlink:href="#ArialMT-30" x="55.615234"/>
       <use xlink:href="#ArialMT-30" x="111.230469"/>
       <use xlink:href="#ArialMT-30" x="166.845703"/>
       <use xlink:href="#ArialMT-30" x="222.460938"/>
       <use xlink:href="#ArialMT-30" x="278.076172"/>
      </g>
     </g>
    </g>
    <g id="ytick_4">
     <g id="text_6">
      <!-- 600000 -->
      <g style="fill: #262626" transform="translate(24.52 66.739771) scale(0.11 -0.11)">
       <defs>
        <path id="ArialMT-36" d="M 3184 3459 
L 2625 3416 
Q 2550 3747 2413 3897 
Q 2184 4138 1850 4138 
Q 1581 4138 1378 3988 
Q 1113 3794 959 3422 
Q 806 3050 800 2363 
Q 1003 2672 1297 2822 
Q 1591 2972 1913 2972 
Q 2475 2972 2870 2558 
Q 3266 2144 3266 1488 
Q 3266 1056 3080 686 
Q 2894 316 2569 119 
Q 2244 -78 1831 -78 
Q 1128 -78 684 439 
Q 241 956 241 2144 
Q 241 3472 731 4075 
Q 1159 4600 1884 4600 
Q 2425 4600 2770 4297 
Q 3116 3994 3184 3459 
z
M 888 1484 
Q 888 1194 1011 928 
Q 1134 663 1356 523 
Q 1578 384 1822 384 
Q 2178 384 2434 671 
Q 2691 959 2691 1453 
Q 2691 1928 2437 2201 
Q 2184 2475 1800 2475 
Q 1419 2475 1153 2201 
Q 888 1928 888 1484 
z
" transform="scale(0.015625)"/>
       </defs>
       <use xlink:href="#ArialMT-36"/>
       <use xlink:href="#ArialMT-30" x="55.615234"/>
       <use xlink:href="#ArialMT-30" x="111.230469"/>
       <use xlink:href="#ArialMT-30" x="166.845703"/>
       <use xlink:href="#ArialMT-30" x="222.460938"/>
       <use xlink:href="#ArialMT-30" x="278.076172"/>
      </g>
     </g>
    </g>
    <g id="ytick_5">
     <g id="text_7">
      <!-- 700000 -->
      <g style="fill: #262626" transform="translate(24.52 21.096842) scale(0.11 -0.11)">
       <defs>
        <path id="ArialMT-37" d="M 303 3981 
L 303 4522 
L 3269 4522 
L 3269 4084 
Q 2831 3619 2401 2847 
Q 1972 2075 1738 1259 
Q 1569 684 1522 0 
L 944 0 
Q 953 541 1156 1306 
Q 1359 2072 1739 2783 
Q 2119 3494 2547 3981 
L 303 3981 
z
" transform="scale(0.015625)"/>
       </defs>
       <use xlink:href="#ArialMT-37"/>
       <use xlink:href="#ArialMT-30" x="55.615234"/>
       <use xlink:href="#ArialMT-30" x="111.230469"/>
       <use xlink:href="#ArialMT-30" x="166.845703"/>
       <use xlink:href="#ArialMT-30" x="222.460938"/>
       <use xlink:href="#ArialMT-30" x="278.076172"/>
      </g>
     </g>
    </g>
    <g id="text_8">
     <!-- WMV [mm$^3$] -->
     <g style="fill: #262626" transform="translate(18.12 150.66) rotate(-90) scale(0.12 -0.12)">
      <defs>
       <path id="ArialMT-57" d="M 1294 0 
L 78 4581 
L 700 4581 
L 1397 1578 
Q 1509 1106 1591 641 
Q 1766 1375 1797 1488 
L 2669 4581 
L 3400 4581 
L 4056 2263 
Q 4303 1400 4413 641 
Q 4500 1075 4641 1638 
L 5359 4581 
L 5969 4581 
L 4713 0 
L 4128 0 
L 3163 3491 
Q 3041 3928 3019 4028 
Q 2947 3713 2884 3491 
L 1913 0 
L 1294 0 
z
" transform="scale(0.015625)"/>
       <path id="ArialMT-4d" d="M 475 0 
L 475 4581 
L 1388 4581 
L 2472 1338 
Q 2622 884 2691 659 
Q 2769 909 2934 1394 
L 4031 4581 
L 4847 4581 
L 4847 0 
L 4263 0 
L 4263 3834 
L 2931 0 
L 2384 0 
L 1059 3900 
L 1059 0 
L 475 0 
z
" transform="scale(0.015625)"/>
       <path id="ArialMT-56" d="M 1803 0 
L 28 4581 
L 684 4581 
L 1875 1253 
Q 2019 853 2116 503 
Q 2222 878 2363 1253 
L 3600 4581 
L 4219 4581 
L 2425 0 
L 1803 0 
z
" transform="scale(0.015625)"/>
       <path id="ArialMT-20" transform="scale(0.015625)"/>
       <path id="ArialMT-5b" d="M 434 -1272 
L 434 4581 
L 1675 4581 
L 1675 4116 
L 997 4116 
L 997 -806 
L 1675 -806 
L 1675 -1272 
L 434 -1272 
z
" transform="scale(0.015625)"/>
       <path id="DejaVuSans-33" d="M 2597 2516 
Q 3050 2419 3304 2112 
Q 3559 1806 3559 1356 
Q 3559 666 3084 287 
Q 2609 -91 1734 -91 
Q 1441 -91 1130 -33 
Q 819 25 488 141 
L 488 750 
Q 750 597 1062 519 
Q 1375 441 1716 441 
Q 2309 441 2620 675 
Q 2931 909 2931 1356 
Q 2931 1769 2642 2001 
Q 2353 2234 1838 2234 
L 1294 2234 
L 1294 2753 
L 1863 2753 
Q 2328 2753 2575 2939 
Q 2822 3125 2822 3475 
Q 2822 3834 2567 4026 
Q 2313 4219 1838 4219 
Q 1578 4219 1281 4162 
Q 984 4106 628 3988 
L 628 4550 
Q 988 4650 1302 4700 
Q 1616 4750 1894 4750 
Q 2613 4750 3031 4423 
Q 3450 4097 3450 3541 
Q 3450 3153 3228 2886 
Q 3006 2619 2597 2516 
z
" transform="scale(0.015625)"/>
       <path id="ArialMT-5d" d="M 1363 -1272 
L 122 -1272 
L 122 -806 
L 800 -806 
L 800 4116 
L 122 4116 
L 122 4581 
L 1363 4581 
L 1363 -1272 
z
" transform="scale(0.015625)"/>
      </defs>
      <use xlink:href="#ArialMT-57" transform="translate(0 0.765625)"/>
      <use xlink:href="#ArialMT-4d" transform="translate(94.384766 0.765625)"/>
      <use xlink:href="#ArialMT-56" transform="translate(177.685547 0.765625)"/>
      <use xlink:href="#ArialMT-20" transform="translate(244.384766 0.765625)"/>
      <use xlink:href="#ArialMT-5b" transform="translate(272.167969 0.765625)"/>
      <use xlink:href="#ArialMT-6d" transform="translate(299.951172 0.765625)"/>
      <use xlink:href="#ArialMT-6d" transform="translate(383.251953 0.765625)"/>
      <use xlink:href="#DejaVuSans-33" transform="translate(467.509766 39.046875) scale(0.7)"/>
      <use xlink:href="#ArialMT-5d" transform="translate(514.780273 0.765625)"/>
     </g>
    </g>
   </g>
   <g id="PolyCollection_1">
    <defs>
     <path id="m2e42531a4b" d="M 112.154458 -36.839844 
L 112.144462 -36.839844 
L 112.137262 -38.876207 
L 112.126259 -40.912571 
L 112.114383 -42.948935 
L 112.104605 -44.985298 
L 112.092557 -47.021662 
L 112.061075 -49.058026 
L 111.982678 -51.094389 
L 111.830237 -53.130753 
L 111.591737 -55.167116 
L 111.276314 -57.20348 
L 110.895068 -59.239844 
L 110.429312 -61.276207 
L 109.831906 -63.312571 
L 109.070154 -65.348935 
L 108.146858 -67.385298 
L 107.065294 -69.421662 
L 105.804007 -71.458026 
L 104.350272 -73.494389 
L 102.732486 -75.530753 
L 100.994372 -77.567116 
L 99.156362 -79.60348 
L 97.229438 -81.639844 
L 95.251743 -83.676207 
L 93.271978 -85.712571 
L 91.300003 -87.748935 
L 89.320058 -89.785298 
L 87.369067 -91.821662 
L 85.566121 -93.858026 
L 84.03444 -95.894389 
L 82.811966 -97.930753 
L 81.857181 -99.967116 
L 81.104838 -102.00348 
L 80.476253 -104.039844 
L 79.86901 -106.076207 
L 79.214472 -108.112571 
L 78.601008 -110.148935 
L 78.331278 -112.185298 
L 78.777758 -114.221662 
L 80.099327 -116.258026 
L 82.080652 -118.294389 
L 84.265285 -120.330753 
L 86.253084 -122.367116 
L 87.904003 -124.40348 
L 89.340023 -126.439844 
L 90.785951 -128.476207 
L 92.352846 -130.512571 
L 93.951102 -132.548935 
L 95.433113 -134.585298 
L 96.771666 -136.621662 
L 98.044794 -138.658026 
L 99.308136 -140.694389 
L 100.562851 -142.730753 
L 101.808662 -144.767116 
L 103.042096 -146.80348 
L 104.209918 -148.839844 
L 105.229147 -150.876207 
L 106.065352 -152.912571 
L 106.767832 -154.948935 
L 107.429867 -156.985298 
L 108.120312 -159.021662 
L 108.836431 -161.058026 
L 109.510952 -163.094389 
L 110.07045 -165.130753 
L 110.489795 -167.167116 
L 110.794571 -169.20348 
L 111.026414 -171.239844 
L 111.211434 -173.276207 
L 111.35115 -175.312571 
L 111.438173 -177.348935 
L 111.481842 -179.385298 
L 111.515828 -181.421662 
L 111.578052 -183.458026 
L 111.682783 -185.494389 
L 111.810335 -187.530753 
L 111.923619 -189.567116 
L 111.997021 -191.60348 
L 112.031463 -193.639844 
L 112.046004 -195.676207 
L 112.059833 -197.712571 
L 112.080855 -199.748935 
L 112.105619 -201.785298 
L 112.126714 -203.821662 
L 112.140028 -205.858026 
L 112.146365 -207.894389 
L 112.148662 -209.930753 
L 112.149298 -211.967116 
L 112.149427 -214.00348 
L 112.149399 -216.039844 
L 112.149144 -218.076207 
L 112.148126 -220.112571 
L 112.145115 -222.148935 
L 112.138535 -224.185298 
L 112.128247 -226.221662 
L 112.117654 -228.258026 
L 112.112637 -230.294389 
L 112.116541 -232.330753 
L 112.126735 -234.367116 
L 112.137346 -236.40348 
L 112.144474 -238.439844 
L 112.154447 -238.439844 
L 112.154447 -238.439844 
L 112.161574 -236.40348 
L 112.172185 -234.367116 
L 112.18238 -232.330753 
L 112.186283 -230.294389 
L 112.181266 -228.258026 
L 112.170674 -226.221662 
L 112.160386 -224.185298 
L 112.153805 -222.148935 
L 112.150795 -220.112571 
L 112.149777 -218.076207 
L 112.149521 -216.039844 
L 112.149494 -214.00348 
L 112.149622 -211.967116 
L 112.150259 -209.930753 
L 112.152555 -207.894389 
L 112.158892 -205.858026 
L 112.172206 -203.821662 
L 112.193301 -201.785298 
L 112.218065 -199.748935 
L 112.239088 -197.712571 
L 112.252917 -195.676207 
L 112.267457 -193.639844 
L 112.301899 -191.60348 
L 112.375302 -189.567116 
L 112.488586 -187.530753 
L 112.616137 -185.494389 
L 112.720868 -183.458026 
L 112.783092 -181.421662 
L 112.817078 -179.385298 
L 112.860748 -177.348935 
L 112.94777 -175.312571 
L 113.087486 -173.276207 
L 113.272506 -171.239844 
L 113.504349 -169.20348 
L 113.809125 -167.167116 
L 114.22847 -165.130753 
L 114.787969 -163.094389 
L 115.46249 -161.058026 
L 116.178609 -159.021662 
L 116.869054 -156.985298 
L 117.531088 -154.948935 
L 118.233568 -152.912571 
L 119.069773 -150.876207 
L 120.089002 -148.839844 
L 121.256825 -146.80348 
L 122.490258 -144.767116 
L 123.736069 -142.730753 
L 124.990785 -140.694389 
L 126.254126 -138.658026 
L 127.527255 -136.621662 
L 128.865808 -134.585298 
L 130.347819 -132.548935 
L 131.946075 -130.512571 
L 133.51297 -128.476207 
L 134.958898 -126.439844 
L 136.394917 -124.40348 
L 138.045836 -122.367116 
L 140.033635 -120.330753 
L 142.218268 -118.294389 
L 144.199594 -116.258026 
L 145.521163 -114.221662 
L 145.967642 -112.185298 
L 145.697912 -110.148935 
L 145.084449 -108.112571 
L 144.42991 -106.076207 
L 143.822667 -104.039844 
L 143.194083 -102.00348 
L 142.441739 -99.967116 
L 141.486955 -97.930753 
L 140.264481 -95.894389 
L 138.732799 -93.858026 
L 136.929853 -91.821662 
L 134.978863 -89.785298 
L 132.998917 -87.748935 
L 131.026942 -85.712571 
L 129.047178 -83.676207 
L 127.069483 -81.639844 
L 125.142558 -79.60348 
L 123.304548 -77.567116 
L 121.566435 -75.530753 
L 119.948649 -73.494389 
L 118.494914 -71.458026 
L 117.233626 -69.421662 
L 116.152063 -67.385298 
L 115.228767 -65.348935 
L 114.467015 -63.312571 
L 113.869608 -61.276207 
L 113.403852 -59.239844 
L 113.022606 -57.20348 
L 112.707183 -55.167116 
L 112.468683 -53.130753 
L 112.316242 -51.094389 
L 112.237846 -49.058026 
L 112.206363 -47.021662 
L 112.194315 -44.985298 
L 112.184538 -42.948935 
L 112.172661 -40.912571 
L 112.161659 -38.876207 
L 112.154458 -36.839844 
z
" style="stroke: #4c4c4c; stroke-width: 0.5"/>
    </defs>
    <g clip-path="url(#pf7dc2ac20f)">
     <use xlink:href="#m2e42531a4b" x="0" y="255.719844" style="fill: #5573cd; stroke: #4c4c4c; stroke-width: 0.5"/>
    </g>
   </g>
   <g id="PolyCollection_2">
    <defs>
     <path id="m3511fbcd19" d="M 196.938094 -46.270183 
L 196.451735 -46.270183 
L 196.322705 -47.827083 
L 196.141061 -49.383983 
L 195.893419 -50.940883 
L 195.566474 -52.497783 
L 195.148476 -54.054683 
L 194.630914 -55.611583 
L 194.010139 -57.168483 
L 193.288574 -58.725383 
L 192.475162 -60.282283 
L 191.584825 -61.839183 
L 190.63687 -63.396083 
L 189.652568 -64.952983 
L 188.652347 -66.509883 
L 187.653207 -68.066783 
L 186.666947 -69.623683 
L 185.699596 -71.180583 
L 184.752095 -72.737483 
L 183.821902 -74.294383 
L 182.904866 -75.851283 
L 181.996648 -77.408183 
L 181.093105 -78.965083 
L 180.189486 -80.521983 
L 179.278759 -82.078883 
L 178.349868 -83.635783 
L 177.386902 -85.192683 
L 176.370017 -86.749583 
L 175.278489 -88.306483 
L 174.095601 -89.863383 
L 172.814382 -91.420283 
L 171.442802 -92.977182 
L 170.006963 -94.534082 
L 168.551214 -96.090982 
L 167.134845 -97.647882 
L 165.825814 -99.204782 
L 164.692671 -100.761682 
L 163.796193 -102.318582 
L 163.182214 -103.875482 
L 162.876733 -105.432382 
L 162.883833 -106.989282 
L 163.186374 -108.546182 
L 163.749034 -110.103082 
L 164.523061 -111.659982 
L 165.45208 -113.216882 
L 166.478309 -114.773782 
L 167.548573 -116.330682 
L 168.619511 -117.887582 
L 169.661343 -119.444482 
L 170.6597 -121.001382 
L 171.615214 -122.558282 
L 172.540937 -124.115182 
L 173.458049 -125.672082 
L 174.390648 -127.228982 
L 175.360575 -128.785882 
L 176.38315 -130.342782 
L 177.464467 -131.899682 
L 178.600493 -133.456582 
L 179.777885 -135.013482 
L 180.976152 -136.570382 
L 182.170647 -138.127282 
L 183.33584 -139.684182 
L 184.448422 -141.241082 
L 185.489836 -142.797982 
L 186.448 -144.354882 
L 187.31806 -145.911782 
L 188.102118 -147.468682 
L 188.808049 -149.025582 
L 189.447602 -150.582482 
L 190.034121 -152.139382 
L 190.580304 -153.696282 
L 191.096368 -155.253182 
L 191.588947 -156.810082 
L 192.06082 -158.366982 
L 192.511432 -159.923882 
L 192.937955 -161.480782 
L 193.33657 -163.037682 
L 193.703627 -164.594582 
L 194.036473 -166.151482 
L 194.333839 -167.708382 
L 194.595857 -169.265281 
L 194.823852 -170.822181 
L 195.020075 -172.379081 
L 195.187502 -173.935981 
L 195.329736 -175.492881 
L 195.45094 -177.049781 
L 195.555741 -178.606681 
L 195.648994 -180.163581 
L 195.735401 -181.720481 
L 195.81904 -183.277381 
L 195.902893 -184.834281 
L 195.98852 -186.391181 
L 196.075966 -187.948081 
L 196.16393 -189.504981 
L 196.250174 -191.061881 
L 196.332043 -192.618781 
L 196.407006 -194.175681 
L 196.473081 -195.732581 
L 196.529101 -197.289481 
L 196.574772 -198.846381 
L 196.61058 -200.403281 
L 196.779249 -200.403281 
L 196.779249 -200.403281 
L 196.815057 -198.846381 
L 196.860728 -197.289481 
L 196.916748 -195.732581 
L 196.982824 -194.175681 
L 197.057786 -192.618781 
L 197.139655 -191.061881 
L 197.225899 -189.504981 
L 197.313864 -187.948081 
L 197.401309 -186.391181 
L 197.486936 -184.834281 
L 197.570789 -183.277381 
L 197.654428 -181.720481 
L 197.740836 -180.163581 
L 197.834088 -178.606681 
L 197.938889 -177.049781 
L 198.060094 -175.492881 
L 198.202327 -173.935981 
L 198.369755 -172.379081 
L 198.565977 -170.822181 
L 198.793972 -169.265281 
L 199.055991 -167.708382 
L 199.353357 -166.151482 
L 199.686203 -164.594582 
L 200.05326 -163.037682 
L 200.451874 -161.480782 
L 200.878398 -159.923882 
L 201.32901 -158.366982 
L 201.800883 -156.810082 
L 202.293461 -155.253182 
L 202.809526 -153.696282 
L 203.355708 -152.139382 
L 203.942227 -150.582482 
L 204.58178 -149.025582 
L 205.287712 -147.468682 
L 206.07177 -145.911782 
L 206.941829 -144.354882 
L 207.899994 -142.797982 
L 208.941407 -141.241082 
L 210.053989 -139.684182 
L 211.219183 -138.127282 
L 212.413677 -136.570382 
L 213.611945 -135.013482 
L 214.789336 -133.456582 
L 215.925362 -131.899682 
L 217.00668 -130.342782 
L 218.029255 -128.785882 
L 218.999181 -127.228982 
L 219.931781 -125.672082 
L 220.848893 -124.115182 
L 221.774616 -122.558282 
L 222.73013 -121.001382 
L 223.728487 -119.444482 
L 224.770318 -117.887582 
L 225.841256 -116.330682 
L 226.911521 -114.773782 
L 227.937749 -113.216882 
L 228.866769 -111.659982 
L 229.640796 -110.103082 
L 230.203455 -108.546182 
L 230.505996 -106.989282 
L 230.513097 -105.432382 
L 230.207616 -103.875482 
L 229.593637 -102.318582 
L 228.697159 -100.761682 
L 227.564015 -99.204782 
L 226.254984 -97.647882 
L 224.838615 -96.090982 
L 223.382866 -94.534082 
L 221.947027 -92.977182 
L 220.575448 -91.420283 
L 219.294228 -89.863383 
L 218.11134 -88.306483 
L 217.019812 -86.749583 
L 216.002927 -85.192683 
L 215.039962 -83.635783 
L 214.111071 -82.078883 
L 213.200343 -80.521983 
L 212.296724 -78.965083 
L 211.393182 -77.408183 
L 210.484963 -75.851283 
L 209.567928 -74.294383 
L 208.637735 -72.737483 
L 207.690234 -71.180583 
L 206.722883 -69.623683 
L 205.736623 -68.066783 
L 204.737483 -66.509883 
L 203.737261 -64.952983 
L 202.752959 -63.396083 
L 201.805004 -61.839183 
L 200.914667 -60.282283 
L 200.101256 -58.725383 
L 199.379691 -57.168483 
L 198.758916 -55.611583 
L 198.241354 -54.054683 
L 197.823355 -52.497783 
L 197.496411 -50.940883 
L 197.248769 -49.383983 
L 197.067124 -47.827083 
L 196.938094 -46.270183 
z
" style="stroke: #4c4c4c; stroke-width: 0.5"/>
    </defs>
    <g clip-path="url(#pf7dc2ac20f)">
     <use xlink:href="#m3511fbcd19" x="0" y="255.719844" style="fill: #df8920; stroke: #4c4c4c; stroke-width: 0.5"/>
    </g>
   </g>
   <g id="line2d_1">
    <path d="M 112.14946 202.75298 
L 112.14946 86.352828 
" clip-path="url(#pf7dc2ac20f)" style="fill: none; stroke: #4c4c4c; stroke-width: 0.75; stroke-linecap: round"/>
   </g>
   <g id="line2d_2">
    <path d="M 112.14946 159.811448 
L 112.14946 130.341107 
" clip-path="url(#pf7dc2ac20f)" style="fill: none; stroke: #4c4c4c; stroke-width: 2.25; stroke-linecap: round"/>
   </g>
   <g id="line2d_3">
    <path d="M 112.14946 145.295386 
" clip-path="url(#pf7dc2ac20f)" style="fill: none; stroke: #4c4c4c; stroke-width: 1.5; stroke-linecap: round"/>
    <defs>
     <path id="m6a49a3bee6" d="M 0.9375 0 
L -0.9375 -0 
" style="stroke: #ffffff; stroke-width: 0.45"/>
    </defs>
    <g clip-path="url(#pf7dc2ac20f)">
     <use xlink:href="#m6a49a3bee6" x="112.14946" y="145.295386" style="fill: #ffffff; stroke: #ffffff; stroke-width: 0.45"/>
    </g>
   </g>
   <g id="line2d_4">
    <path d="M 196.694915 192.414841 
L 196.694915 90.766037 
" clip-path="url(#pf7dc2ac20f)" style="fill: none; stroke: #4c4c4c; stroke-width: 0.75; stroke-linecap: round"/>
   </g>
   <g id="line2d_5">
    <path d="M 196.694915 160.27177 
L 196.694915 130.607224 
" clip-path="url(#pf7dc2ac20f)" style="fill: none; stroke: #4c4c4c; stroke-width: 2.25; stroke-linecap: round"/>
   </g>
   <g id="line2d_6">
    <path d="M 196.694915 147.33879 
" clip-path="url(#pf7dc2ac20f)" style="fill: none; stroke: #4c4c4c; stroke-width: 1.5; stroke-linecap: round"/>
    <g clip-path="url(#pf7dc2ac20f)">
     <use xlink:href="#m6a49a3bee6" x="196.694915" y="147.33879" style="fill: #ffffff; stroke: #ffffff; stroke-width: 0.45"/>
    </g>
   </g>
   <g id="line2d_7">
    <path d="M 112.14946 73.047228 
L 112.14946 68.612028 
L 196.694915 68.612028 
L 196.694915 73.047228 
" style="fill: none; stroke: #333333; stroke-width: 0.5; stroke-linecap: round"/>
   </g>
   <g id="patch_3">
    <path d="M 70.722188 228.96 
L 70.722188 7.2 
" style="fill: none; stroke: #262626; stroke-width: 1.25; stroke-linejoin: miter; stroke-linecap: square"/>
   </g>
   <g id="patch_4">
    <path d="M 70.722187 228.96 
L 238.122188 228.96 
" style="fill: none; stroke: #262626; stroke-width: 1.25; stroke-linejoin: miter; stroke-linecap: square"/>
   </g>
   <g id="text_9">
    <!-- ns -->
    <g style="fill: #262626" transform="translate(148.085625 65.227028) scale(0.12 -0.12)">
     <defs>
      <path id="ArialMT-6e" d="M 422 0 
L 422 3319 
L 928 3319 
L 928 2847 
Q 1294 3394 1984 3394 
Q 2284 3394 2536 3286 
Q 2788 3178 2913 3003 
Q 3038 2828 3088 2588 
Q 3119 2431 3119 2041 
L 3119 0 
L 2556 0 
L 2556 2019 
Q 2556 2363 2490 2533 
Q 2425 2703 2258 2804 
Q 2091 2906 1866 2906 
Q 1506 2906 1245 2678 
Q 984 2450 984 1813 
L 984 0 
L 422 0 
z
" transform="scale(0.015625)"/>
      <path id="ArialMT-73" d="M 197 991 
L 753 1078 
Q 800 744 1014 566 
Q 1228 388 1613 388 
Q 2000 388 2187 545 
Q 2375 703 2375 916 
Q 2375 1106 2209 1216 
Q 2094 1291 1634 1406 
Q 1016 1563 777 1677 
Q 538 1791 414 1992 
Q 291 2194 291 2438 
Q 291 2659 392 2848 
Q 494 3038 669 3163 
Q 800 3259 1026 3326 
Q 1253 3394 1513 3394 
Q 1903 3394 2198 3281 
Q 2494 3169 2634 2976 
Q 2775 2784 2828 2463 
L 2278 2388 
Q 2241 2644 2061 2787 
Q 1881 2931 1553 2931 
Q 1166 2931 1000 2803 
Q 834 2675 834 2503 
Q 834 2394 903 2306 
Q 972 2216 1119 2156 
Q 1203 2125 1616 2013 
Q 2213 1853 2448 1751 
Q 2684 1650 2818 1456 
Q 2953 1263 2953 975 
Q 2953 694 2789 445 
Q 2625 197 2315 61 
Q 2006 -75 1616 -75 
Q 969 -75 630 194 
Q 291 463 197 991 
z
" transform="scale(0.015625)"/>
     </defs>
     <use xlink:href="#ArialMT-6e"/>
     <use xlink:href="#ArialMT-73" x="55.615234"/>
    </g>
   </g>
  </g>
 </g>
 <defs>
  <clipPath id="pf7dc2ac20f">
   <rect x="70.722188" y="7.2" width="167.4" height="221.76"/>
  </clipPath>
 </defs>
</svg>
