<?xml version="1.0" encoding="utf-8" standalone="no"?>
<!DOCTYPE svg PUBLIC "-//W3C//DTD SVG 1.1//EN"
  "http://www.w3.org/Graphics/SVG/1.1/DTD/svg11.dtd">
<svg xmlns:xlink="http://www.w3.org/1999/xlink" width="223.91pt" height="266.593437pt" viewBox="0 0 223.91 266.593437" xmlns="http://www.w3.org/2000/svg" version="1.1">
 <metadata>
  <rdf:RDF xmlns:dc="http://purl.org/dc/elements/1.1/" xmlns:cc="http://creativecommons.org/ns#" xmlns:rdf="http://www.w3.org/1999/02/22-rdf-syntax-ns#">
   <cc:Work>
    <dc:type rdf:resource="http://purl.org/dc/dcmitype/StillImage"/>
    <dc:date>2024-12-02T08:47:03.641602</dc:date>
    <dc:format>image/svg+xml</dc:format>
    <dc:creator>
     <cc:Agent>
      <dc:title>Matplotlib v3.9.2, https://matplotlib.org/</dc:title>
     </cc:Agent>
    </dc:creator>
   </cc:Work>
  </rdf:RDF>
 </metadata>
 <defs>
  <style type="text/css">*{stroke-linejoin: round; stroke-linecap: butt}</style>
 </defs>
 <g id="figure_1">
  <g id="patch_1">
   <path d="M 0 266.593437 
L 223.91 266.593437 
L 223.91 0 
L 0 0 
z
" style="fill: #ffffff"/>
  </g>
  <g id="axes_1">
   <g id="patch_2">
    <path d="M 49.31 239.833594 
L 216.71 239.833594 
L 216.71 18.073594 
L 49.31 18.073594 
z
" style="fill: #ffffff"/>
   </g>
   <g id="matplotlib.axis_1">
    <g id="xtick_1">
     <g id="text_1">
      <!-- Term -->
      <g style="fill: #262626" transform="translate(78.518679 257.207187) scale(0.11 -0.11)">
       <defs>
        <path id="ArialMT-54" d="M 1659 0 
L 1659 4041 
L 150 4041 
L 150 4581 
L 3781 4581 
L 3781 4041 
L 2266 4041 
L 2266 0 
L 1659 0 
z
" transform="scale(0.015625)"/>
        <path id="ArialMT-65" d="M 2694 1069 
L 3275 997 
Q 3138 488 2766 206 
Q 2394 -75 1816 -75 
Q 1088 -75 661 373 
Q 234 822 234 1631 
Q 234 2469 665 2931 
Q 1097 3394 1784 3394 
Q 2450 3394 2872 2941 
Q 3294 2488 3294 1666 
Q 3294 1616 3291 1516 
L 816 1516 
Q 847 969 1125 678 
Q 1403 388 1819 388 
Q 2128 388 2347 550 
Q 2566 713 2694 1069 
z
M 847 1978 
L 2700 1978 
Q 2663 2397 2488 2606 
Q 2219 2931 1791 2931 
Q 1403 2931 1139 2672 
Q 875 2413 847 1978 
z
" transform="scale(0.015625)"/>
        <path id="ArialMT-72" d="M 416 0 
L 416 3319 
L 922 3319 
L 922 2816 
Q 1116 3169 1280 3281 
Q 1444 3394 1641 3394 
Q 1925 3394 2219 3213 
L 2025 2691 
Q 1819 2813 1613 2813 
Q 1428 2813 1281 2702 
Q 1134 2591 1072 2394 
Q 978 2094 978 1738 
L 978 0 
L 416 0 
z
" transform="scale(0.015625)"/>
        <path id="ArialMT-6d" d="M 422 0 
L 422 3319 
L 925 3319 
L 925 2853 
Q 1081 3097 1340 3245 
Q 1600 3394 1931 3394 
Q 2300 3394 2536 3241 
Q 2772 3088 2869 2813 
Q 3263 3394 3894 3394 
Q 4388 3394 4653 3120 
Q 4919 2847 4919 2278 
L 4919 0 
L 4359 0 
L 4359 2091 
Q 4359 2428 4304 2576 
Q 4250 2725 4106 2815 
Q 3963 2906 3769 2906 
Q 3419 2906 3187 2673 
Q 2956 2441 2956 1928 
L 2956 0 
L 2394 0 
L 2394 2156 
Q 2394 2531 2256 2718 
Q 2119 2906 1806 2906 
Q 1569 2906 1367 2781 
Q 1166 2656 1075 2415 
Q 984 2175 984 1722 
L 984 0 
L 422 0 
z
" transform="scale(0.015625)"/>
       </defs>
       <use xlink:href="#ArialMT-54"/>
       <use xlink:href="#ArialMT-65" x="49.958984"/>
       <use xlink:href="#ArialMT-72" x="105.574219"/>
       <use xlink:href="#ArialMT-6d" x="138.875"/>
      </g>
     </g>
    </g>
    <g id="xtick_2">
     <g id="text_2">
      <!-- Preterm -->
      <g style="fill: #262626" transform="translate(155.725071 257.207187) scale(0.11 -0.11)">
       <defs>
        <path id="ArialMT-50" d="M 494 0 
L 494 4581 
L 2222 4581 
Q 2678 4581 2919 4538 
Q 3256 4481 3484 4323 
Q 3713 4166 3852 3881 
Q 3991 3597 3991 3256 
Q 3991 2672 3619 2267 
Q 3247 1863 2275 1863 
L 1100 1863 
L 1100 0 
L 494 0 
z
M 1100 2403 
L 2284 2403 
Q 2872 2403 3119 2622 
Q 3366 2841 3366 3238 
Q 3366 3525 3220 3729 
Q 3075 3934 2838 4000 
Q 2684 4041 2272 4041 
L 1100 4041 
L 1100 2403 
z
" transform="scale(0.015625)"/>
        <path id="ArialMT-74" d="M 1650 503 
L 1731 6 
Q 1494 -44 1306 -44 
Q 1000 -44 831 53 
Q 663 150 594 308 
Q 525 466 525 972 
L 525 2881 
L 113 2881 
L 113 3319 
L 525 3319 
L 525 4141 
L 1084 4478 
L 1084 3319 
L 1650 3319 
L 1650 2881 
L 1084 2881 
L 1084 941 
Q 1084 700 1114 631 
Q 1144 563 1211 522 
Q 1278 481 1403 481 
Q 1497 481 1650 503 
z
" transform="scale(0.015625)"/>
       </defs>
       <use xlink:href="#ArialMT-50"/>
       <use xlink:href="#ArialMT-72" x="66.699219"/>
       <use xlink:href="#ArialMT-65" x="100"/>
       <use xlink:href="#ArialMT-74" x="155.615234"/>
       <use xlink:href="#ArialMT-65" x="183.398438"/>
       <use xlink:href="#ArialMT-72" x="239.013672"/>
       <use xlink:href="#ArialMT-6d" x="272.314453"/>
      </g>
     </g>
    </g>
   </g>
   <g id="matplotlib.axis_2">
    <g id="ytick_1">
     <g id="text_3">
      <!-- 0.5 -->
      <g style="fill: #262626" transform="translate(24.52 234.882559) scale(0.11 -0.11)">
       <defs>
        <path id="ArialMT-30" d="M 266 2259 
Q 266 3072 433 3567 
Q 600 4063 929 4331 
Q 1259 4600 1759 4600 
Q 2128 4600 2406 4451 
Q 2684 4303 2865 4023 
Q 3047 3744 3150 3342 
Q 3253 2941 3253 2259 
Q 3253 1453 3087 958 
Q 2922 463 2592 192 
Q 2263 -78 1759 -78 
Q 1097 -78 719 397 
Q 266 969 266 2259 
z
M 844 2259 
Q 844 1131 1108 757 
Q 1372 384 1759 384 
Q 2147 384 2411 759 
Q 2675 1134 2675 2259 
Q 2675 3391 2411 3762 
Q 2147 4134 1753 4134 
Q 1366 4134 1134 3806 
Q 844 3388 844 2259 
z
" transform="scale(0.015625)"/>
        <path id="ArialMT-2e" d="M 581 0 
L 581 641 
L 1222 641 
L 1222 0 
L 581 0 
z
" transform="scale(0.015625)"/>
        <path id="ArialMT-35" d="M 266 1200 
L 856 1250 
Q 922 819 1161 601 
Q 1400 384 1738 384 
Q 2144 384 2425 690 
Q 2706 997 2706 1503 
Q 2706 1984 2436 2262 
Q 2166 2541 1728 2541 
Q 1456 2541 1237 2417 
Q 1019 2294 894 2097 
L 366 2166 
L 809 4519 
L 3088 4519 
L 3088 3981 
L 1259 3981 
L 1013 2750 
Q 1425 3038 1878 3038 
Q 2478 3038 2890 2622 
Q 3303 2206 3303 1553 
Q 3303 931 2941 478 
Q 2500 -78 1738 -78 
Q 1113 -78 717 272 
Q 322 622 266 1200 
z
" transform="scale(0.015625)"/>
       </defs>
       <use xlink:href="#ArialMT-30"/>
       <use xlink:href="#ArialMT-2e" x="55.615234"/>
       <use xlink:href="#ArialMT-35" x="83.398438"/>
      </g>
     </g>
    </g>
    <g id="ytick_2">
     <g id="text_4">
      <!-- 0.6 -->
      <g style="fill: #262626" transform="translate(24.52 196.784636) scale(0.11 -0.11)">
       <defs>
        <path id="ArialMT-36" d="M 3184 3459 
L 2625 3416 
Q 2550 3747 2413 3897 
Q 2184 4138 1850 4138 
Q 1581 4138 1378 3988 
Q 1113 3794 959 3422 
Q 806 3050 800 2363 
Q 1003 2672 1297 2822 
Q 1591 2972 1913 2972 
Q 2475 2972 2870 2558 
Q 3266 2144 3266 1488 
Q 3266 1056 3080 686 
Q 2894 316 2569 119 
Q 2244 -78 1831 -78 
Q 1128 -78 684 439 
Q 241 956 241 2144 
Q 241 3472 731 4075 
Q 1159 4600 1884 4600 
Q 2425 4600 2770 4297 
Q 3116 3994 3184 3459 
z
M 888 1484 
Q 888 1194 1011 928 
Q 1134 663 1356 523 
Q 1578 384 1822 384 
Q 2178 384 2434 671 
Q 2691 959 2691 1453 
Q 2691 1928 2437 2201 
Q 2184 2475 1800 2475 
Q 1419 2475 1153 2201 
Q 888 1928 888 1484 
z
" transform="scale(0.015625)"/>
       </defs>
       <use xlink:href="#ArialMT-30"/>
       <use xlink:href="#ArialMT-2e" x="55.615234"/>
       <use xlink:href="#ArialMT-36" x="83.398438"/>
      </g>
     </g>
    </g>
    <g id="ytick_3">
     <g id="text_5">
      <!-- 0.7 -->
      <g style="fill: #262626" transform="translate(24.52 158.686712) scale(0.11 -0.11)">
       <defs>
        <path id="ArialMT-37" d="M 303 3981 
L 303 4522 
L 3269 4522 
L 3269 4084 
Q 2831 3619 2401 2847 
Q 1972 2075 1738 1259 
Q 1569 684 1522 0 
L 944 0 
Q 953 541 1156 1306 
Q 1359 2072 1739 2783 
Q 2119 3494 2547 3981 
L 303 3981 
z
" transform="scale(0.015625)"/>
       </defs>
       <use xlink:href="#ArialMT-30"/>
       <use xlink:href="#ArialMT-2e" x="55.615234"/>
       <use xlink:href="#ArialMT-37" x="83.398438"/>
      </g>
     </g>
    </g>
    <g id="ytick_4">
     <g id="text_6">
      <!-- 0.8 -->
      <g style="fill: #262626" transform="translate(24.52 120.588789) scale(0.11 -0.11)">
       <defs>
        <path id="ArialMT-38" d="M 1131 2484 
Q 781 2613 612 2850 
Q 444 3088 444 3419 
Q 444 3919 803 4259 
Q 1163 4600 1759 4600 
Q 2359 4600 2725 4251 
Q 3091 3903 3091 3403 
Q 3091 3084 2923 2848 
Q 2756 2613 2416 2484 
Q 2838 2347 3058 2040 
Q 3278 1734 3278 1309 
Q 3278 722 2862 322 
Q 2447 -78 1769 -78 
Q 1091 -78 675 323 
Q 259 725 259 1325 
Q 259 1772 486 2073 
Q 713 2375 1131 2484 
z
M 1019 3438 
Q 1019 3113 1228 2906 
Q 1438 2700 1772 2700 
Q 2097 2700 2305 2904 
Q 2513 3109 2513 3406 
Q 2513 3716 2298 3927 
Q 2084 4138 1766 4138 
Q 1444 4138 1231 3931 
Q 1019 3725 1019 3438 
z
M 838 1322 
Q 838 1081 952 856 
Q 1066 631 1291 507 
Q 1516 384 1775 384 
Q 2178 384 2440 643 
Q 2703 903 2703 1303 
Q 2703 1709 2433 1975 
Q 2163 2241 1756 2241 
Q 1359 2241 1098 1978 
Q 838 1716 838 1322 
z
" transform="scale(0.015625)"/>
       </defs>
       <use xlink:href="#ArialMT-30"/>
       <use xlink:href="#ArialMT-2e" x="55.615234"/>
       <use xlink:href="#ArialMT-38" x="83.398438"/>
      </g>
     </g>
    </g>
    <g id="ytick_5">
     <g id="text_7">
      <!-- 0.9 -->
      <g style="fill: #262626" transform="translate(24.52 82.490865) scale(0.11 -0.11)">
       <defs>
        <path id="ArialMT-39" d="M 350 1059 
L 891 1109 
Q 959 728 1153 556 
Q 1347 384 1650 384 
Q 1909 384 2104 503 
Q 2300 622 2425 820 
Q 2550 1019 2634 1356 
Q 2719 1694 2719 2044 
Q 2719 2081 2716 2156 
Q 2547 1888 2255 1720 
Q 1963 1553 1622 1553 
Q 1053 1553 659 1965 
Q 266 2378 266 3053 
Q 266 3750 677 4175 
Q 1088 4600 1706 4600 
Q 2153 4600 2523 4359 
Q 2894 4119 3086 3673 
Q 3278 3228 3278 2384 
Q 3278 1506 3087 986 
Q 2897 466 2520 194 
Q 2144 -78 1638 -78 
Q 1100 -78 759 220 
Q 419 519 350 1059 
z
M 2653 3081 
Q 2653 3566 2395 3850 
Q 2138 4134 1775 4134 
Q 1400 4134 1122 3828 
Q 844 3522 844 3034 
Q 844 2597 1108 2323 
Q 1372 2050 1759 2050 
Q 2150 2050 2401 2323 
Q 2653 2597 2653 3081 
z
" transform="scale(0.015625)"/>
       </defs>
       <use xlink:href="#ArialMT-30"/>
       <use xlink:href="#ArialMT-2e" x="55.615234"/>
       <use xlink:href="#ArialMT-39" x="83.398438"/>
      </g>
     </g>
    </g>
    <g id="ytick_6">
     <g id="text_8">
      <!-- 1.0 -->
      <g style="fill: #262626" transform="translate(24.52 44.392942) scale(0.11 -0.11)">
       <defs>
        <path id="ArialMT-31" d="M 2384 0 
L 1822 0 
L 1822 3584 
Q 1619 3391 1289 3197 
Q 959 3003 697 2906 
L 697 3450 
Q 1169 3672 1522 3987 
Q 1875 4303 2022 4600 
L 2384 4600 
L 2384 0 
z
" transform="scale(0.015625)"/>
       </defs>
       <use xlink:href="#ArialMT-31"/>
       <use xlink:href="#ArialMT-2e" x="55.615234"/>
       <use xlink:href="#ArialMT-30" x="83.398438"/>
      </g>
     </g>
    </g>
    <g id="text_9">
     <!-- GMV [mm$^3$] -->
     <g style="fill: #262626" transform="translate(18.12 160.513594) rotate(-90) scale(0.12 -0.12)">
      <defs>
       <path id="ArialMT-47" d="M 2638 1797 
L 2638 2334 
L 4578 2338 
L 4578 638 
Q 4131 281 3656 101 
Q 3181 -78 2681 -78 
Q 2006 -78 1454 211 
Q 903 500 622 1047 
Q 341 1594 341 2269 
Q 341 2938 620 3517 
Q 900 4097 1425 4378 
Q 1950 4659 2634 4659 
Q 3131 4659 3532 4498 
Q 3934 4338 4162 4050 
Q 4391 3763 4509 3300 
L 3963 3150 
Q 3859 3500 3706 3700 
Q 3553 3900 3268 4020 
Q 2984 4141 2638 4141 
Q 2222 4141 1919 4014 
Q 1616 3888 1430 3681 
Q 1244 3475 1141 3228 
Q 966 2803 966 2306 
Q 966 1694 1177 1281 
Q 1388 869 1791 669 
Q 2194 469 2647 469 
Q 3041 469 3416 620 
Q 3791 772 3984 944 
L 3984 1797 
L 2638 1797 
z
" transform="scale(0.015625)"/>
       <path id="ArialMT-4d" d="M 475 0 
L 475 4581 
L 1388 4581 
L 2472 1338 
Q 2622 884 2691 659 
Q 2769 909 2934 1394 
L 4031 4581 
L 4847 4581 
L 4847 0 
L 4263 0 
L 4263 3834 
L 2931 0 
L 2384 0 
L 1059 3900 
L 1059 0 
L 475 0 
z
" transform="scale(0.015625)"/>
       <path id="ArialMT-56" d="M 1803 0 
L 28 4581 
L 684 4581 
L 1875 1253 
Q 2019 853 2116 503 
Q 2222 878 2363 1253 
L 3600 4581 
L 4219 4581 
L 2425 0 
L 1803 0 
z
" transform="scale(0.015625)"/>
       <path id="ArialMT-20" transform="scale(0.015625)"/>
       <path id="ArialMT-5b" d="M 434 -1272 
L 434 4581 
L 1675 4581 
L 1675 4116 
L 997 4116 
L 997 -806 
L 1675 -806 
L 1675 -1272 
L 434 -1272 
z
" transform="scale(0.015625)"/>
       <path id="DejaVuSans-33" d="M 2597 2516 
Q 3050 2419 3304 2112 
Q 3559 1806 3559 1356 
Q 3559 666 3084 287 
Q 2609 -91 1734 -91 
Q 1441 -91 1130 -33 
Q 819 25 488 141 
L 488 750 
Q 750 597 1062 519 
Q 1375 441 1716 441 
Q 2309 441 2620 675 
Q 2931 909 2931 1356 
Q 2931 1769 2642 2001 
Q 2353 2234 1838 2234 
L 1294 2234 
L 1294 2753 
L 1863 2753 
Q 2328 2753 2575 2939 
Q 2822 3125 2822 3475 
Q 2822 3834 2567 4026 
Q 2313 4219 1838 4219 
Q 1578 4219 1281 4162 
Q 984 4106 628 3988 
L 628 4550 
Q 988 4650 1302 4700 
Q 1616 4750 1894 4750 
Q 2613 4750 3031 4423 
Q 3450 4097 3450 3541 
Q 3450 3153 3228 2886 
Q 3006 2619 2597 2516 
z
" transform="scale(0.015625)"/>
       <path id="ArialMT-5d" d="M 1363 -1272 
L 122 -1272 
L 122 -806 
L 800 -806 
L 800 4116 
L 122 4116 
L 122 4581 
L 1363 4581 
L 1363 -1272 
z
" transform="scale(0.015625)"/>
      </defs>
      <use xlink:href="#ArialMT-47" transform="translate(0 0.765625)"/>
      <use xlink:href="#ArialMT-4d" transform="translate(77.783203 0.765625)"/>
      <use xlink:href="#ArialMT-56" transform="translate(161.083984 0.765625)"/>
      <use xlink:href="#ArialMT-20" transform="translate(227.783203 0.765625)"/>
      <use xlink:href="#ArialMT-5b" transform="translate(255.566406 0.765625)"/>
      <use xlink:href="#ArialMT-6d" transform="translate(283.349609 0.765625)"/>
      <use xlink:href="#ArialMT-6d" transform="translate(366.650391 0.765625)"/>
      <use xlink:href="#DejaVuSans-33" transform="translate(450.908203 39.046875) scale(0.7)"/>
      <use xlink:href="#ArialMT-5d" transform="translate(498.178711 0.765625)"/>
     </g>
    </g>
    <g id="text_10">
     <!-- 1e6 -->
     <g style="fill: #262626" transform="translate(49.31 15.073594) scale(0.11 -0.11)">
      <use xlink:href="#ArialMT-31"/>
      <use xlink:href="#ArialMT-65" x="55.615234"/>
      <use xlink:href="#ArialMT-36" x="111.230469"/>
     </g>
    </g>
   </g>
   <g id="PolyCollection_1">
    <defs>
     <path id="m8510d436fb" d="M 90.743008 -36.839844 
L 90.731538 -36.839844 
L 90.722961 -38.876207 
L 90.707484 -40.912571 
L 90.684544 -42.948935 
L 90.655437 -44.985298 
L 90.621157 -47.021662 
L 90.580185 -49.058026 
L 90.530376 -51.094389 
L 90.473844 -53.130753 
L 90.417126 -55.167116 
L 90.36234 -57.20348 
L 90.297611 -59.239844 
L 90.200365 -61.276207 
L 90.0549 -63.312571 
L 89.867141 -65.348935 
L 89.656644 -67.385298 
L 89.427226 -69.421662 
L 89.144111 -71.458026 
L 88.745609 -73.494389 
L 88.1837 -75.530753 
L 87.455621 -77.567116 
L 86.597428 -79.60348 
L 85.646677 -81.639844 
L 84.602383 -83.676207 
L 83.415948 -85.712571 
L 82.039906 -87.748935 
L 80.508083 -89.785298 
L 78.95551 -91.821662 
L 77.521785 -93.858026 
L 76.217103 -95.894389 
L 74.900232 -97.930753 
L 73.40932 -99.967116 
L 71.713753 -102.00348 
L 69.933841 -104.039844 
L 68.230748 -106.076207 
L 66.694378 -108.112571 
L 65.314521 -110.148935 
L 64.017881 -112.185298 
L 62.724921 -114.221662 
L 61.396166 -116.258026 
L 60.049187 -118.294389 
L 58.760356 -120.330753 
L 57.677037 -122.367116 
L 57.005328 -124.40348 
L 56.919091 -126.439844 
L 57.435374 -128.476207 
L 58.370988 -130.512571 
L 59.426169 -132.548935 
L 60.339465 -134.585298 
L 61.020048 -136.621662 
L 61.573881 -138.658026 
L 62.199519 -140.694389 
L 63.03379 -142.730753 
L 64.080611 -144.767116 
L 65.275372 -146.80348 
L 66.589075 -148.839844 
L 68.036872 -150.876207 
L 69.598723 -152.912571 
L 71.189328 -154.948935 
L 72.72479 -156.985298 
L 74.181 -159.021662 
L 75.575612 -161.058026 
L 76.928494 -163.094389 
L 78.25104 -165.130753 
L 79.545941 -167.167116 
L 80.802126 -169.20348 
L 82.000619 -171.239844 
L 83.132761 -173.276207 
L 84.20696 -175.312571 
L 85.2321 -177.348935 
L 86.195145 -179.385298 
L 87.056725 -181.421662 
L 87.769557 -183.458026 
L 88.305339 -185.494389 
L 88.672245 -187.530753 
L 88.914614 -189.567116 
L 89.096535 -191.60348 
L 89.276998 -193.639844 
L 89.487531 -195.676207 
L 89.722888 -197.712571 
L 89.951211 -199.748935 
L 90.139621 -201.785298 
L 90.276265 -203.821662 
L 90.370269 -205.858026 
L 90.435875 -207.894389 
L 90.483301 -209.930753 
L 90.521844 -211.967116 
L 90.560789 -214.00348 
L 90.60248 -216.039844 
L 90.638915 -218.076207 
L 90.659335 -220.112571 
L 90.661096 -222.148935 
L 90.652642 -224.185298 
L 90.646907 -226.221662 
L 90.652317 -228.258026 
L 90.668828 -230.294389 
L 90.690392 -232.330753 
L 90.710131 -234.367116 
L 90.724092 -236.40348 
L 90.73195 -238.439844 
L 90.742595 -238.439844 
L 90.742595 -238.439844 
L 90.750454 -236.40348 
L 90.764414 -234.367116 
L 90.784154 -232.330753 
L 90.805718 -230.294389 
L 90.822228 -228.258026 
L 90.827638 -226.221662 
L 90.821903 -224.185298 
L 90.81345 -222.148935 
L 90.81521 -220.112571 
L 90.835631 -218.076207 
L 90.872066 -216.039844 
L 90.913757 -214.00348 
L 90.952701 -211.967116 
L 90.991244 -209.930753 
L 91.03867 -207.894389 
L 91.104276 -205.858026 
L 91.198281 -203.821662 
L 91.334925 -201.785298 
L 91.523335 -199.748935 
L 91.751657 -197.712571 
L 91.987014 -195.676207 
L 92.197547 -193.639844 
L 92.378011 -191.60348 
L 92.559932 -189.567116 
L 92.802301 -187.530753 
L 93.169206 -185.494389 
L 93.704989 -183.458026 
L 94.417821 -181.421662 
L 95.2794 -179.385298 
L 96.242446 -177.348935 
L 97.267585 -175.312571 
L 98.341785 -173.276207 
L 99.473926 -171.239844 
L 100.672419 -169.20348 
L 101.928604 -167.167116 
L 103.223505 -165.130753 
L 104.546051 -163.094389 
L 105.898934 -161.058026 
L 107.293545 -159.021662 
L 108.749756 -156.985298 
L 110.285218 -154.948935 
L 111.875822 -152.912571 
L 113.437673 -150.876207 
L 114.885471 -148.839844 
L 116.199174 -146.80348 
L 117.393934 -144.767116 
L 118.440755 -142.730753 
L 119.275027 -140.694389 
L 119.900664 -138.658026 
L 120.454497 -136.621662 
L 121.13508 -134.585298 
L 122.048376 -132.548935 
L 123.103558 -130.512571 
L 124.039172 -128.476207 
L 124.555455 -126.439844 
L 124.469218 -124.40348 
L 123.797508 -122.367116 
L 122.71419 -120.330753 
L 121.425358 -118.294389 
L 120.07838 -116.258026 
L 118.749625 -114.221662 
L 117.456664 -112.185298 
L 116.160024 -110.148935 
L 114.780168 -108.112571 
L 113.243797 -106.076207 
L 111.540704 -104.039844 
L 109.760793 -102.00348 
L 108.065225 -99.967116 
L 106.574314 -97.930753 
L 105.257442 -95.894389 
L 103.952761 -93.858026 
L 102.519035 -91.821662 
L 100.966462 -89.785298 
L 99.43464 -87.748935 
L 98.058597 -85.712571 
L 96.872163 -83.676207 
L 95.827868 -81.639844 
L 94.877118 -79.60348 
L 94.018924 -77.567116 
L 93.290845 -75.530753 
L 92.728936 -73.494389 
L 92.330435 -71.458026 
L 92.047319 -69.421662 
L 91.817901 -67.385298 
L 91.607405 -65.348935 
L 91.419646 -63.312571 
L 91.274181 -61.276207 
L 91.176935 -59.239844 
L 91.112205 -57.20348 
L 91.05742 -55.167116 
L 91.000702 -53.130753 
L 90.944169 -51.094389 
L 90.894361 -49.058026 
L 90.853389 -47.021662 
L 90.819108 -44.985298 
L 90.790002 -42.948935 
L 90.767061 -40.912571 
L 90.751584 -38.876207 
L 90.743008 -36.839844 
z
" style="stroke: #4c4c4c; stroke-width: 1.25"/>
    </defs>
    <g clip-path="url(#p7b5d55e9b7)">
     <use xlink:href="#m8510d436fb" x="0" y="266.593437" style="fill: #5573cd; stroke: #4c4c4c; stroke-width: 1.25"/>
    </g>
   </g>
   <g id="PolyCollection_2">
    <defs>
     <path id="mc027ed7b8d" d="M 175.413057 -47.96578 
L 175.152398 -47.96578 
L 175.078338 -49.70444 
L 174.972441 -51.443099 
L 174.826503 -53.181758 
L 174.632678 -54.920418 
L 174.384582 -56.659077 
L 174.078475 -58.397736 
L 173.714193 -60.136396 
L 173.295497 -61.875055 
L 172.829482 -63.613714 
L 172.324857 -65.352374 
L 171.789231 -67.091033 
L 171.22585 -68.829692 
L 170.630638 -70.568352 
L 169.990548 -72.307011 
L 169.284122 -74.045671 
L 168.48471 -75.78433 
L 167.566075 -77.522989 
L 166.509266 -79.261649 
L 165.309045 -81.000308 
L 163.97793 -82.738967 
L 162.546384 -84.477627 
L 161.058629 -86.216286 
L 159.564826 -87.954945 
L 158.111507 -89.693605 
L 156.73278 -91.432264 
L 155.444634 -93.170923 
L 154.24381 -94.909583 
L 153.111336 -96.648242 
L 152.019535 -98.386902 
L 150.940438 -100.125561 
L 149.853391 -101.86422 
L 148.750194 -103.60288 
L 147.636984 -105.341539 
L 146.533024 -107.080198 
L 145.46721 -108.818858 
L 144.473366 -110.557517 
L 143.585311 -112.296176 
L 142.832485 -114.034836 
L 142.236635 -115.773495 
L 141.80993 -117.512154 
L 141.554673 -119.250814 
L 141.464545 -120.989473 
L 141.527064 -122.728133 
L 141.726566 -124.466792 
L 142.046896 -126.205451 
L 142.473022 -127.944111 
L 142.991164 -129.68277 
L 143.587613 -131.421429 
L 144.246945 -133.160089 
L 144.950735 -134.898748 
L 145.677752 -136.637407 
L 146.406229 -138.376067 
L 147.117989 -140.114726 
L 147.803488 -141.853385 
L 148.466278 -143.592045 
L 149.125323 -145.330704 
L 149.814058 -147.069364 
L 150.575872 -148.808023 
L 151.456725 -150.546682 
L 152.496378 -152.285342 
L 153.720197 -154.024001 
L 155.133313 -155.76266 
L 156.718387 -157.50132 
L 158.437319 -159.239979 
L 160.236347 -160.978638 
L 162.053309 -162.717298 
L 163.82552 -164.455957 
L 165.496814 -166.194616 
L 167.022715 -167.933276 
L 168.373266 -169.671935 
L 169.533569 -171.410595 
L 170.502529 -173.149254 
L 171.290422 -174.887913 
L 171.915913 -176.626573 
L 172.40298 -178.365232 
L 172.778009 -180.103891 
L 173.06721 -181.842551 
L 173.294437 -183.58121 
L 173.479527 -185.319869 
L 173.637312 -187.058529 
L 173.777415 -188.797188 
L 173.904868 -190.535847 
L 174.021391 -192.274507 
L 174.127024 -194.013166 
L 174.22169 -195.751826 
L 174.306302 -197.490485 
L 174.383166 -199.229144 
L 174.455673 -200.967804 
L 174.527485 -202.706463 
L 174.601549 -204.445122 
L 174.679326 -206.183782 
L 174.760442 -207.922441 
L 174.842871 -209.6611 
L 174.923515 -211.39976 
L 174.998992 -213.138419 
L 175.066369 -214.877078 
L 175.123675 -216.615738 
L 175.170116 -218.354397 
L 175.205992 -220.093057 
L 175.359463 -220.093057 
L 175.359463 -220.093057 
L 175.395338 -218.354397 
L 175.441779 -216.615738 
L 175.499086 -214.877078 
L 175.566462 -213.138419 
L 175.641939 -211.39976 
L 175.722584 -209.6611 
L 175.805013 -207.922441 
L 175.886129 -206.183782 
L 175.963906 -204.445122 
L 176.03797 -202.706463 
L 176.109781 -200.967804 
L 176.182289 -199.229144 
L 176.259153 -197.490485 
L 176.343764 -195.751826 
L 176.43843 -194.013166 
L 176.544063 -192.274507 
L 176.660586 -190.535847 
L 176.788039 -188.797188 
L 176.928143 -187.058529 
L 177.085927 -185.319869 
L 177.271018 -183.58121 
L 177.498245 -181.842551 
L 177.787446 -180.103891 
L 178.162475 -178.365232 
L 178.649541 -176.626573 
L 179.275033 -174.887913 
L 180.062926 -173.149254 
L 181.031886 -171.410595 
L 182.192189 -169.671935 
L 183.542739 -167.933276 
L 185.068641 -166.194616 
L 186.739934 -164.455957 
L 188.512145 -162.717298 
L 190.329108 -160.978638 
L 192.128136 -159.239979 
L 193.847068 -157.50132 
L 195.432142 -155.76266 
L 196.845258 -154.024001 
L 198.069077 -152.285342 
L 199.10873 -150.546682 
L 199.989582 -148.808023 
L 200.751397 -147.069364 
L 201.440132 -145.330704 
L 202.099177 -143.592045 
L 202.761966 -141.853385 
L 203.447466 -140.114726 
L 204.159225 -138.376067 
L 204.887702 -136.637407 
L 205.61472 -134.898748 
L 206.318509 -133.160089 
L 206.977842 -131.421429 
L 207.57429 -129.68277 
L 208.092432 -127.944111 
L 208.518558 -126.205451 
L 208.838888 -124.466792 
L 209.03839 -122.728133 
L 209.100909 -120.989473 
L 209.010782 -119.250814 
L 208.755524 -117.512154 
L 208.32882 -115.773495 
L 207.732969 -114.034836 
L 206.980143 -112.296176 
L 206.092089 -110.557517 
L 205.098244 -108.818858 
L 204.03243 -107.080198 
L 202.92847 -105.341539 
L 201.815261 -103.60288 
L 200.712064 -101.86422 
L 199.625017 -100.125561 
L 198.545919 -98.386902 
L 197.454119 -96.648242 
L 196.321645 -94.909583 
L 195.12082 -93.170923 
L 193.832675 -91.432264 
L 192.453948 -89.693605 
L 191.000629 -87.954945 
L 189.506825 -86.216286 
L 188.019071 -84.477627 
L 186.587525 -82.738967 
L 185.256409 -81.000308 
L 184.056188 -79.261649 
L 182.99938 -77.522989 
L 182.080745 -75.78433 
L 181.281333 -74.045671 
L 180.574907 -72.307011 
L 179.934817 -70.568352 
L 179.339605 -68.829692 
L 178.776223 -67.091033 
L 178.240597 -65.352374 
L 177.735973 -63.613714 
L 177.269957 -61.875055 
L 176.851262 -60.136396 
L 176.48698 -58.397736 
L 176.180872 -56.659077 
L 175.932777 -54.920418 
L 175.738951 -53.181758 
L 175.593013 -51.443099 
L 175.487116 -49.70444 
L 175.413057 -47.96578 
z
" style="stroke: #4c4c4c; stroke-width: 1.25"/>
    </defs>
    <g clip-path="url(#p7b5d55e9b7)">
     <use xlink:href="#mc027ed7b8d" x="0" y="266.593437" style="fill: #df8920; stroke: #4c4c4c; stroke-width: 1.25"/>
    </g>
   </g>
   <g id="line2d_1">
    <path d="M 90.737273 202.871672 
L 90.737273 69.417134 
" clip-path="url(#p7b5d55e9b7)" style="fill: none; stroke: #4c4c4c; stroke-width: 1.875; stroke-linecap: round"/>
   </g>
   <g id="line2d_2">
    <path d="M 90.737273 154.222536 
L 90.737273 120.299761 
" clip-path="url(#p7b5d55e9b7)" style="fill: none; stroke: #4c4c4c; stroke-width: 5.625; stroke-linecap: round"/>
   </g>
   <g id="line2d_3">
    <path d="M 90.737273 137.972298 
" clip-path="url(#p7b5d55e9b7)" style="fill: none; stroke: #4c4c4c; stroke-width: 1.5; stroke-linecap: round"/>
    <defs>
     <path id="maaf546d58b" d="M 2.34375 0 
L -2.34375 -0 
" style="stroke: #ffffff; stroke-width: 1.125"/>
    </defs>
    <g clip-path="url(#p7b5d55e9b7)">
     <use xlink:href="#maaf546d58b" x="90.737273" y="137.972298" style="fill: #ffffff; stroke: #ffffff; stroke-width: 1.125"/>
    </g>
   </g>
   <g id="line2d_4">
    <path d="M 175.282727 201.226292 
L 175.282727 78.719046 
" clip-path="url(#p7b5d55e9b7)" style="fill: none; stroke: #4c4c4c; stroke-width: 1.875; stroke-linecap: round"/>
   </g>
   <g id="line2d_5">
    <path d="M 175.282727 160.144405 
L 175.282727 124.592764 
" clip-path="url(#p7b5d55e9b7)" style="fill: none; stroke: #4c4c4c; stroke-width: 5.625; stroke-linecap: round"/>
   </g>
   <g id="line2d_6">
    <path d="M 175.282727 143.107805 
" clip-path="url(#p7b5d55e9b7)" style="fill: none; stroke: #4c4c4c; stroke-width: 1.5; stroke-linecap: round"/>
    <g clip-path="url(#p7b5d55e9b7)">
     <use xlink:href="#maaf546d58b" x="175.282727" y="143.107805" style="fill: #ffffff; stroke: #ffffff; stroke-width: 1.125"/>
    </g>
   </g>
   <g id="line2d_7">
    <path d="M 90.737273 56.111534 
L 90.737273 51.676334 
L 175.282727 51.676334 
L 175.282727 56.111534 
" style="fill: none; stroke: #333333; stroke-width: 1.5; stroke-linecap: round"/>
   </g>
   <g id="patch_3">
    <path d="M 49.31 239.833594 
L 49.31 18.073594 
" style="fill: none; stroke: #262626; stroke-width: 1.25; stroke-linejoin: miter; stroke-linecap: square"/>
   </g>
   <g id="patch_4">
    <path d="M 49.31 239.833594 
L 216.71 239.833594 
" style="fill: none; stroke: #262626; stroke-width: 1.25; stroke-linejoin: miter; stroke-linecap: square"/>
   </g>
   <g id="text_11">
    <!-- ** -->
    <g style="fill: #262626" transform="translate(128.339375 48.291334) scale(0.12 -0.12)">
     <defs>
      <path id="ArialMT-2a" d="M 200 3741 
L 344 4184 
Q 841 4009 1066 3881 
Q 1006 4447 1003 4659 
L 1456 4659 
Q 1447 4350 1384 3884 
Q 1706 4047 2122 4184 
L 2266 3741 
Q 1869 3609 1488 3566 
Q 1678 3400 2025 2975 
L 1650 2709 
Q 1469 2956 1222 3381 
Q 991 2941 816 2709 
L 447 2975 
Q 809 3422 966 3566 
Q 563 3644 200 3741 
z
" transform="scale(0.015625)"/>
     </defs>
     <use xlink:href="#ArialMT-2a"/>
     <use xlink:href="#ArialMT-2a" x="38.916016"/>
    </g>
   </g>
  </g>
 </g>
 <defs>
  <clipPath id="p7b5d55e9b7">
   <rect x="49.31" y="18.073594" width="167.4" height="221.76"/>
  </clipPath>
 </defs>
</svg>
