<?xml version="1.0" encoding="utf-8" standalone="no"?>
<!DOCTYPE svg PUBLIC "-//W3C//DTD SVG 1.1//EN"
  "http://www.w3.org/Graphics/SVG/1.1/DTD/svg11.dtd">
<svg xmlns:xlink="http://www.w3.org/1999/xlink" width="245.322187pt" height="255.719844pt" viewBox="0 0 245.322187 255.719844" xmlns="http://www.w3.org/2000/svg" version="1.1">
 <metadata>
  <rdf:RDF xmlns:dc="http://purl.org/dc/elements/1.1/" xmlns:cc="http://creativecommons.org/ns#" xmlns:rdf="http://www.w3.org/1999/02/22-rdf-syntax-ns#">
   <cc:Work>
    <dc:type rdf:resource="http://purl.org/dc/dcmitype/StillImage"/>
    <dc:date>2025-05-13T15:52:20.418142</dc:date>
    <dc:format>image/svg+xml</dc:format>
    <dc:creator>
     <cc:Agent>
      <dc:title>Matplotlib v3.9.2, https://matplotlib.org/</dc:title>
     </cc:Agent>
    </dc:creator>
   </cc:Work>
  </rdf:RDF>
 </metadata>
 <defs>
  <style type="text/css">*{stroke-linejoin: round; stroke-linecap: butt}</style>
 </defs>
 <g id="figure_1">
  <g id="patch_1">
   <path d="M -0 255.719844 
L 245.322188 255.719844 
L 245.322188 0 
L -0 0 
z
" style="fill: #ffffff"/>
  </g>
  <g id="axes_1">
   <g id="patch_2">
    <path d="M 70.722188 228.96 
L 238.122188 228.96 
L 238.122188 7.2 
L 70.722188 7.2 
z
" style="fill: #ffffff"/>
   </g>
   <g id="matplotlib.axis_1">
    <g id="xtick_1">
     <g id="text_1">
      <!-- Term -->
      <g style="fill: #262626" transform="translate(99.930866 246.333594) scale(0.11 -0.11)">
       <defs>
        <path id="ArialMT-54" d="M 1659 0 
L 1659 4041 
L 150 4041 
L 150 4581 
L 3781 4581 
L 3781 4041 
L 2266 4041 
L 2266 0 
L 1659 0 
z
" transform="scale(0.015625)"/>
        <path id="ArialMT-65" d="M 2694 1069 
L 3275 997 
Q 3138 488 2766 206 
Q 2394 -75 1816 -75 
Q 1088 -75 661 373 
Q 234 822 234 1631 
Q 234 2469 665 2931 
Q 1097 3394 1784 3394 
Q 2450 3394 2872 2941 
Q 3294 2488 3294 1666 
Q 3294 1616 3291 1516 
L 816 1516 
Q 847 969 1125 678 
Q 1403 388 1819 388 
Q 2128 388 2347 550 
Q 2566 713 2694 1069 
z
M 847 1978 
L 2700 1978 
Q 2663 2397 2488 2606 
Q 2219 2931 1791 2931 
Q 1403 2931 1139 2672 
Q 875 2413 847 1978 
z
" transform="scale(0.015625)"/>
        <path id="ArialMT-72" d="M 416 0 
L 416 3319 
L 922 3319 
L 922 2816 
Q 1116 3169 1280 3281 
Q 1444 3394 1641 3394 
Q 1925 3394 2219 3213 
L 2025 2691 
Q 1819 2813 1613 2813 
Q 1428 2813 1281 2702 
Q 1134 2591 1072 2394 
Q 978 2094 978 1738 
L 978 0 
L 416 0 
z
" transform="scale(0.015625)"/>
        <path id="ArialMT-6d" d="M 422 0 
L 422 3319 
L 925 3319 
L 925 2853 
Q 1081 3097 1340 3245 
Q 1600 3394 1931 3394 
Q 2300 3394 2536 3241 
Q 2772 3088 2869 2813 
Q 3263 3394 3894 3394 
Q 4388 3394 4653 3120 
Q 4919 2847 4919 2278 
L 4919 0 
L 4359 0 
L 4359 2091 
Q 4359 2428 4304 2576 
Q 4250 2725 4106 2815 
Q 3963 2906 3769 2906 
Q 3419 2906 3187 2673 
Q 2956 2441 2956 1928 
L 2956 0 
L 2394 0 
L 2394 2156 
Q 2394 2531 2256 2718 
Q 2119 2906 1806 2906 
Q 1569 2906 1367 2781 
Q 1166 2656 1075 2415 
Q 984 2175 984 1722 
L 984 0 
L 422 0 
z
" transform="scale(0.015625)"/>
       </defs>
       <use xlink:href="#ArialMT-54"/>
       <use xlink:href="#ArialMT-65" x="49.958984"/>
       <use xlink:href="#ArialMT-72" x="105.574219"/>
       <use xlink:href="#ArialMT-6d" x="138.875"/>
      </g>
     </g>
    </g>
    <g id="xtick_2">
     <g id="text_2">
      <!-- Preterm -->
      <g style="fill: #262626" transform="translate(177.137259 246.333594) scale(0.11 -0.11)">
       <defs>
        <path id="ArialMT-50" d="M 494 0 
L 494 4581 
L 2222 4581 
Q 2678 4581 2919 4538 
Q 3256 4481 3484 4323 
Q 3713 4166 3852 3881 
Q 3991 3597 3991 3256 
Q 3991 2672 3619 2267 
Q 3247 1863 2275 1863 
L 1100 1863 
L 1100 0 
L 494 0 
z
M 1100 2403 
L 2284 2403 
Q 2872 2403 3119 2622 
Q 3366 2841 3366 3238 
Q 3366 3525 3220 3729 
Q 3075 3934 2838 4000 
Q 2684 4041 2272 4041 
L 1100 4041 
L 1100 2403 
z
" transform="scale(0.015625)"/>
        <path id="ArialMT-74" d="M 1650 503 
L 1731 6 
Q 1494 -44 1306 -44 
Q 1000 -44 831 53 
Q 663 150 594 308 
Q 525 466 525 972 
L 525 2881 
L 113 2881 
L 113 3319 
L 525 3319 
L 525 4141 
L 1084 4478 
L 1084 3319 
L 1650 3319 
L 1650 2881 
L 1084 2881 
L 1084 941 
Q 1084 700 1114 631 
Q 1144 563 1211 522 
Q 1278 481 1403 481 
Q 1497 481 1650 503 
z
" transform="scale(0.015625)"/>
       </defs>
       <use xlink:href="#ArialMT-50"/>
       <use xlink:href="#ArialMT-72" x="66.699219"/>
       <use xlink:href="#ArialMT-65" x="100"/>
       <use xlink:href="#ArialMT-74" x="155.615234"/>
       <use xlink:href="#ArialMT-65" x="183.398438"/>
       <use xlink:href="#ArialMT-72" x="239.013672"/>
       <use xlink:href="#ArialMT-6d" x="272.314453"/>
      </g>
     </g>
    </g>
   </g>
   <g id="matplotlib.axis_2">
    <g id="ytick_1">
     <g id="text_3">
      <!-- 300000 -->
      <g style="fill: #262626" transform="translate(24.52 200.743744) scale(0.11 -0.11)">
       <defs>
        <path id="ArialMT-33" d="M 269 1209 
L 831 1284 
Q 928 806 1161 595 
Q 1394 384 1728 384 
Q 2125 384 2398 659 
Q 2672 934 2672 1341 
Q 2672 1728 2419 1979 
Q 2166 2231 1775 2231 
Q 1616 2231 1378 2169 
L 1441 2663 
Q 1497 2656 1531 2656 
Q 1891 2656 2178 2843 
Q 2466 3031 2466 3422 
Q 2466 3731 2256 3934 
Q 2047 4138 1716 4138 
Q 1388 4138 1169 3931 
Q 950 3725 888 3313 
L 325 3413 
Q 428 3978 793 4289 
Q 1159 4600 1703 4600 
Q 2078 4600 2393 4439 
Q 2709 4278 2876 4000 
Q 3044 3722 3044 3409 
Q 3044 3113 2884 2869 
Q 2725 2625 2413 2481 
Q 2819 2388 3044 2092 
Q 3269 1797 3269 1353 
Q 3269 753 2831 336 
Q 2394 -81 1725 -81 
Q 1122 -81 723 278 
Q 325 638 269 1209 
z
" transform="scale(0.015625)"/>
        <path id="ArialMT-30" d="M 266 2259 
Q 266 3072 433 3567 
Q 600 4063 929 4331 
Q 1259 4600 1759 4600 
Q 2128 4600 2406 4451 
Q 2684 4303 2865 4023 
Q 3047 3744 3150 3342 
Q 3253 2941 3253 2259 
Q 3253 1453 3087 958 
Q 2922 463 2592 192 
Q 2263 -78 1759 -78 
Q 1097 -78 719 397 
Q 266 969 266 2259 
z
M 844 2259 
Q 844 1131 1108 757 
Q 1372 384 1759 384 
Q 2147 384 2411 759 
Q 2675 1134 2675 2259 
Q 2675 3391 2411 3762 
Q 2147 4134 1753 4134 
Q 1366 4134 1134 3806 
Q 844 3388 844 2259 
z
" transform="scale(0.015625)"/>
       </defs>
       <use xlink:href="#ArialMT-33"/>
       <use xlink:href="#ArialMT-30" x="55.615234"/>
       <use xlink:href="#ArialMT-30" x="111.230469"/>
       <use xlink:href="#ArialMT-30" x="166.845703"/>
       <use xlink:href="#ArialMT-30" x="222.460938"/>
       <use xlink:href="#ArialMT-30" x="278.076172"/>
      </g>
     </g>
    </g>
    <g id="ytick_2">
     <g id="text_4">
      <!-- 400000 -->
      <g style="fill: #262626" transform="translate(24.52 155.771728) scale(0.11 -0.11)">
       <defs>
        <path id="ArialMT-34" d="M 2069 0 
L 2069 1097 
L 81 1097 
L 81 1613 
L 2172 4581 
L 2631 4581 
L 2631 1613 
L 3250 1613 
L 3250 1097 
L 2631 1097 
L 2631 0 
L 2069 0 
z
M 2069 1613 
L 2069 3678 
L 634 1613 
L 2069 1613 
z
" transform="scale(0.015625)"/>
       </defs>
       <use xlink:href="#ArialMT-34"/>
       <use xlink:href="#ArialMT-30" x="55.615234"/>
       <use xlink:href="#ArialMT-30" x="111.230469"/>
       <use xlink:href="#ArialMT-30" x="166.845703"/>
       <use xlink:href="#ArialMT-30" x="222.460938"/>
       <use xlink:href="#ArialMT-30" x="278.076172"/>
      </g>
     </g>
    </g>
    <g id="ytick_3">
     <g id="text_5">
      <!-- 500000 -->
      <g style="fill: #262626" transform="translate(24.52 110.799712) scale(0.11 -0.11)">
       <defs>
        <path id="ArialMT-35" d="M 266 1200 
L 856 1250 
Q 922 819 1161 601 
Q 1400 384 1738 384 
Q 2144 384 2425 690 
Q 2706 997 2706 1503 
Q 2706 1984 2436 2262 
Q 2166 2541 1728 2541 
Q 1456 2541 1237 2417 
Q 1019 2294 894 2097 
L 366 2166 
L 809 4519 
L 3088 4519 
L 3088 3981 
L 1259 3981 
L 1013 2750 
Q 1425 3038 1878 3038 
Q 2478 3038 2890 2622 
Q 3303 2206 3303 1553 
Q 3303 931 2941 478 
Q 2500 -78 1738 -78 
Q 1113 -78 717 272 
Q 322 622 266 1200 
z
" transform="scale(0.015625)"/>
       </defs>
       <use xlink:href="#ArialMT-35"/>
       <use xlink:href="#ArialMT-30" x="55.615234"/>
       <use xlink:href="#ArialMT-30" x="111.230469"/>
       <use xlink:href="#ArialMT-30" x="166.845703"/>
       <use xlink:href="#ArialMT-30" x="222.460938"/>
       <use xlink:href="#ArialMT-30" x="278.076172"/>
      </g>
     </g>
    </g>
    <g id="ytick_4">
     <g id="text_6">
      <!-- 600000 -->
      <g style="fill: #262626" transform="translate(24.52 65.827697) scale(0.11 -0.11)">
       <defs>
        <path id="ArialMT-36" d="M 3184 3459 
L 2625 3416 
Q 2550 3747 2413 3897 
Q 2184 4138 1850 4138 
Q 1581 4138 1378 3988 
Q 1113 3794 959 3422 
Q 806 3050 800 2363 
Q 1003 2672 1297 2822 
Q 1591 2972 1913 2972 
Q 2475 2972 2870 2558 
Q 3266 2144 3266 1488 
Q 3266 1056 3080 686 
Q 2894 316 2569 119 
Q 2244 -78 1831 -78 
Q 1128 -78 684 439 
Q 241 956 241 2144 
Q 241 3472 731 4075 
Q 1159 4600 1884 4600 
Q 2425 4600 2770 4297 
Q 3116 3994 3184 3459 
z
M 888 1484 
Q 888 1194 1011 928 
Q 1134 663 1356 523 
Q 1578 384 1822 384 
Q 2178 384 2434 671 
Q 2691 959 2691 1453 
Q 2691 1928 2437 2201 
Q 2184 2475 1800 2475 
Q 1419 2475 1153 2201 
Q 888 1928 888 1484 
z
" transform="scale(0.015625)"/>
       </defs>
       <use xlink:href="#ArialMT-36"/>
       <use xlink:href="#ArialMT-30" x="55.615234"/>
       <use xlink:href="#ArialMT-30" x="111.230469"/>
       <use xlink:href="#ArialMT-30" x="166.845703"/>
       <use xlink:href="#ArialMT-30" x="222.460938"/>
       <use xlink:href="#ArialMT-30" x="278.076172"/>
      </g>
     </g>
    </g>
    <g id="ytick_5">
     <g id="text_7">
      <!-- 700000 -->
      <g style="fill: #262626" transform="translate(24.52 20.855681) scale(0.11 -0.11)">
       <defs>
        <path id="ArialMT-37" d="M 303 3981 
L 303 4522 
L 3269 4522 
L 3269 4084 
Q 2831 3619 2401 2847 
Q 1972 2075 1738 1259 
Q 1569 684 1522 0 
L 944 0 
Q 953 541 1156 1306 
Q 1359 2072 1739 2783 
Q 2119 3494 2547 3981 
L 303 3981 
z
" transform="scale(0.015625)"/>
       </defs>
       <use xlink:href="#ArialMT-37"/>
       <use xlink:href="#ArialMT-30" x="55.615234"/>
       <use xlink:href="#ArialMT-30" x="111.230469"/>
       <use xlink:href="#ArialMT-30" x="166.845703"/>
       <use xlink:href="#ArialMT-30" x="222.460938"/>
       <use xlink:href="#ArialMT-30" x="278.076172"/>
      </g>
     </g>
    </g>
    <g id="text_8">
     <!-- WMV [mm$^3$] -->
     <g style="fill: #262626" transform="translate(18.12 150.66) rotate(-90) scale(0.12 -0.12)">
      <defs>
       <path id="ArialMT-57" d="M 1294 0 
L 78 4581 
L 700 4581 
L 1397 1578 
Q 1509 1106 1591 641 
Q 1766 1375 1797 1488 
L 2669 4581 
L 3400 4581 
L 4056 2263 
Q 4303 1400 4413 641 
Q 4500 1075 4641 1638 
L 5359 4581 
L 5969 4581 
L 4713 0 
L 4128 0 
L 3163 3491 
Q 3041 3928 3019 4028 
Q 2947 3713 2884 3491 
L 1913 0 
L 1294 0 
z
" transform="scale(0.015625)"/>
       <path id="ArialMT-4d" d="M 475 0 
L 475 4581 
L 1388 4581 
L 2472 1338 
Q 2622 884 2691 659 
Q 2769 909 2934 1394 
L 4031 4581 
L 4847 4581 
L 4847 0 
L 4263 0 
L 4263 3834 
L 2931 0 
L 2384 0 
L 1059 3900 
L 1059 0 
L 475 0 
z
" transform="scale(0.015625)"/>
       <path id="ArialMT-56" d="M 1803 0 
L 28 4581 
L 684 4581 
L 1875 1253 
Q 2019 853 2116 503 
Q 2222 878 2363 1253 
L 3600 4581 
L 4219 4581 
L 2425 0 
L 1803 0 
z
" transform="scale(0.015625)"/>
       <path id="ArialMT-20" transform="scale(0.015625)"/>
       <path id="ArialMT-5b" d="M 434 -1272 
L 434 4581 
L 1675 4581 
L 1675 4116 
L 997 4116 
L 997 -806 
L 1675 -806 
L 1675 -1272 
L 434 -1272 
z
" transform="scale(0.015625)"/>
       <path id="DejaVuSans-33" d="M 2597 2516 
Q 3050 2419 3304 2112 
Q 3559 1806 3559 1356 
Q 3559 666 3084 287 
Q 2609 -91 1734 -91 
Q 1441 -91 1130 -33 
Q 819 25 488 141 
L 488 750 
Q 750 597 1062 519 
Q 1375 441 1716 441 
Q 2309 441 2620 675 
Q 2931 909 2931 1356 
Q 2931 1769 2642 2001 
Q 2353 2234 1838 2234 
L 1294 2234 
L 1294 2753 
L 1863 2753 
Q 2328 2753 2575 2939 
Q 2822 3125 2822 3475 
Q 2822 3834 2567 4026 
Q 2313 4219 1838 4219 
Q 1578 4219 1281 4162 
Q 984 4106 628 3988 
L 628 4550 
Q 988 4650 1302 4700 
Q 1616 4750 1894 4750 
Q 2613 4750 3031 4423 
Q 3450 4097 3450 3541 
Q 3450 3153 3228 2886 
Q 3006 2619 2597 2516 
z
" transform="scale(0.015625)"/>
       <path id="ArialMT-5d" d="M 1363 -1272 
L 122 -1272 
L 122 -806 
L 800 -806 
L 800 4116 
L 122 4116 
L 122 4581 
L 1363 4581 
L 1363 -1272 
z
" transform="scale(0.015625)"/>
      </defs>
      <use xlink:href="#ArialMT-57" transform="translate(0 0.765625)"/>
      <use xlink:href="#ArialMT-4d" transform="translate(94.384766 0.765625)"/>
      <use xlink:href="#ArialMT-56" transform="translate(177.685547 0.765625)"/>
      <use xlink:href="#ArialMT-20" transform="translate(244.384766 0.765625)"/>
      <use xlink:href="#ArialMT-5b" transform="translate(272.167969 0.765625)"/>
      <use xlink:href="#ArialMT-6d" transform="translate(299.951172 0.765625)"/>
      <use xlink:href="#ArialMT-6d" transform="translate(383.251953 0.765625)"/>
      <use xlink:href="#DejaVuSans-33" transform="translate(467.509766 39.046875) scale(0.7)"/>
      <use xlink:href="#ArialMT-5d" transform="translate(514.780273 0.765625)"/>
     </g>
    </g>
   </g>
   <g id="PolyCollection_1">
    <defs>
     <path id="m9ddb283c81" d="M 112.154364 -36.839844 
L 112.144556 -36.839844 
L 112.13628 -38.876207 
L 112.121826 -40.912571 
L 112.103212 -42.948935 
L 112.085148 -44.985298 
L 112.070012 -47.021662 
L 112.05424 -49.058026 
L 112.029956 -51.094389 
L 111.985095 -53.130753 
L 111.897906 -55.167116 
L 111.739837 -57.20348 
L 111.493943 -59.239844 
L 111.160578 -61.276207 
L 110.728871 -63.312571 
L 110.155046 -65.348935 
L 109.397242 -67.385298 
L 108.461587 -69.421662 
L 107.373881 -71.458026 
L 106.116544 -73.494389 
L 104.644713 -75.530753 
L 102.960894 -77.567116 
L 101.136265 -79.60348 
L 99.268521 -81.639844 
L 97.442247 -83.676207 
L 95.698566 -85.712571 
L 93.992818 -87.748935 
L 92.196513 -89.785298 
L 90.203826 -91.821662 
L 88.064911 -93.858026 
L 85.994628 -95.894389 
L 84.226154 -97.930753 
L 82.864503 -99.967116 
L 81.88429 -102.00348 
L 81.201726 -104.039844 
L 80.691676 -106.076207 
L 80.185693 -108.112571 
L 79.548454 -110.148935 
L 78.824879 -112.185298 
L 78.331278 -114.221662 
L 78.527275 -116.258026 
L 79.681764 -118.294389 
L 81.630209 -120.330753 
L 83.891863 -122.367116 
L 86.016457 -124.40348 
L 87.81886 -126.439844 
L 89.382238 -128.476207 
L 90.902916 -130.512571 
L 92.476531 -132.548935 
L 94.024495 -134.585298 
L 95.461896 -136.621662 
L 96.846237 -138.658026 
L 98.275569 -140.694389 
L 99.735121 -142.730753 
L 101.142956 -144.767116 
L 102.468923 -146.80348 
L 103.712832 -148.839844 
L 104.828081 -150.876207 
L 105.756675 -152.912571 
L 106.509383 -154.948935 
L 107.166154 -156.985298 
L 107.816788 -159.021662 
L 108.502519 -161.058026 
L 109.186076 -163.094389 
L 109.783336 -165.130753 
L 110.243117 -167.167116 
L 110.586799 -169.20348 
L 110.868267 -171.239844 
L 111.117916 -173.276207 
L 111.328242 -175.312571 
L 111.475604 -177.348935 
L 111.552785 -179.385298 
L 111.586386 -181.421662 
L 111.622771 -183.458026 
L 111.695755 -185.494389 
L 111.803696 -187.530753 
L 111.913285 -189.567116 
L 111.987376 -191.60348 
L 112.013188 -193.639844 
L 112.0081 -195.676207 
L 112.003368 -197.712571 
L 112.020712 -199.748935 
L 112.058608 -201.785298 
L 112.099383 -203.821662 
L 112.128155 -205.858026 
L 112.142511 -207.894389 
L 112.14773 -209.930753 
L 112.149132 -211.967116 
L 112.149411 -214.00348 
L 112.149437 -216.039844 
L 112.149337 -218.076207 
L 112.148825 -220.112571 
L 112.146996 -222.148935 
L 112.142271 -224.185298 
L 112.133691 -226.221662 
L 112.123452 -228.258026 
L 112.117208 -230.294389 
L 112.119388 -232.330753 
L 112.128376 -234.367116 
L 112.138346 -236.40348 
L 112.145055 -238.439844 
L 112.153866 -238.439844 
L 112.153866 -238.439844 
L 112.160575 -236.40348 
L 112.170544 -234.367116 
L 112.179533 -232.330753 
L 112.181712 -230.294389 
L 112.175468 -228.258026 
L 112.16523 -226.221662 
L 112.156649 -224.185298 
L 112.151925 -222.148935 
L 112.150095 -220.112571 
L 112.149584 -218.076207 
L 112.149483 -216.039844 
L 112.149509 -214.00348 
L 112.149788 -211.967116 
L 112.15119 -209.930753 
L 112.156409 -207.894389 
L 112.170766 -205.858026 
L 112.199537 -203.821662 
L 112.240313 -201.785298 
L 112.278208 -199.748935 
L 112.295552 -197.712571 
L 112.29082 -195.676207 
L 112.285732 -193.639844 
L 112.311544 -191.60348 
L 112.385635 -189.567116 
L 112.495224 -187.530753 
L 112.603165 -185.494389 
L 112.67615 -183.458026 
L 112.712535 -181.421662 
L 112.746135 -179.385298 
L 112.823317 -177.348935 
L 112.970679 -175.312571 
L 113.181004 -173.276207 
L 113.430653 -171.239844 
L 113.712121 -169.20348 
L 114.055803 -167.167116 
L 114.515584 -165.130753 
L 115.112844 -163.094389 
L 115.796402 -161.058026 
L 116.482133 -159.021662 
L 117.132766 -156.985298 
L 117.789537 -154.948935 
L 118.542246 -152.912571 
L 119.470839 -150.876207 
L 120.586089 -148.839844 
L 121.829997 -146.80348 
L 123.155964 -144.767116 
L 124.563799 -142.730753 
L 126.023351 -140.694389 
L 127.452684 -138.658026 
L 128.837025 -136.621662 
L 130.274425 -134.585298 
L 131.822389 -132.548935 
L 133.396004 -130.512571 
L 134.916683 -128.476207 
L 136.480061 -126.439844 
L 138.282463 -124.40348 
L 140.407057 -122.367116 
L 142.668712 -120.330753 
L 144.617156 -118.294389 
L 145.771645 -116.258026 
L 145.967642 -114.221662 
L 145.474042 -112.185298 
L 144.750467 -110.148935 
L 144.113228 -108.112571 
L 143.607245 -106.076207 
L 143.097195 -104.039844 
L 142.414631 -102.00348 
L 141.434417 -99.967116 
L 140.072767 -97.930753 
L 138.304293 -95.894389 
L 136.234009 -93.858026 
L 134.095095 -91.821662 
L 132.102408 -89.785298 
L 130.306103 -87.748935 
L 128.600355 -85.712571 
L 126.856674 -83.676207 
L 125.0304 -81.639844 
L 123.162655 -79.60348 
L 121.338026 -77.567116 
L 119.654208 -75.530753 
L 118.182376 -73.494389 
L 116.925039 -71.458026 
L 115.837333 -69.421662 
L 114.901679 -67.385298 
L 114.143874 -65.348935 
L 113.57005 -63.312571 
L 113.138343 -61.276207 
L 112.804977 -59.239844 
L 112.559083 -57.20348 
L 112.401014 -55.167116 
L 112.313826 -53.130753 
L 112.268964 -51.094389 
L 112.244681 -49.058026 
L 112.228908 -47.021662 
L 112.213773 -44.985298 
L 112.195709 -42.948935 
L 112.177095 -40.912571 
L 112.16264 -38.876207 
L 112.154364 -36.839844 
z
" style="stroke: #4c4c4c; stroke-width: 0.5"/>
    </defs>
    <g clip-path="url(#pac456f1b01)">
     <use xlink:href="#m9ddb283c81" x="0" y="255.719844" style="fill: #5573cd; stroke: #4c4c4c; stroke-width: 0.5"/>
    </g>
   </g>
   <g id="PolyCollection_2">
    <defs>
     <path id="ma3fe8a652c" d="M 196.900544 -50.300037 
L 196.489286 -50.300037 
L 196.370923 -51.814253 
L 196.19935 -53.32847 
L 195.958738 -54.842687 
L 195.632254 -56.356903 
L 195.203573 -57.87112 
L 194.658818 -59.385337 
L 193.98867 -60.899553 
L 193.190307 -62.41377 
L 192.268729 -63.927987 
L 191.237112 -65.442203 
L 190.115955 -66.95642 
L 188.931062 -68.470637 
L 187.710667 -69.984853 
L 186.48224 -71.49907 
L 185.269591 -73.013286 
L 184.090794 -74.527503 
L 182.957207 -76.04172 
L 181.873502 -77.555936 
L 180.838371 -79.070153 
L 179.845387 -80.58437 
L 178.883643 -82.098586 
L 177.938031 -83.612803 
L 176.989429 -85.12702 
L 176.015366 -86.641236 
L 174.991815 -88.155453 
L 173.896552 -89.66967 
L 172.713996 -91.183886 
L 171.440792 -92.698103 
L 170.090805 -94.21232 
L 168.697951 -95.726536 
L 167.315499 -97.240753 
L 166.011246 -98.75497 
L 164.858993 -100.269186 
L 163.927858 -101.783403 
L 163.27162 -103.29762 
L 162.920451 -104.811836 
L 162.876733 -106.326053 
L 163.115685 -107.84027 
L 163.590311 -109.354486 
L 164.239274 -110.868703 
L 164.995935 -112.382919 
L 165.796874 -113.897136 
L 166.588769 -115.411353 
L 167.333091 -116.925569 
L 168.008547 -118.439786 
L 168.611488 -119.954003 
L 169.154547 -121.468219 
L 169.663771 -122.982436 
L 170.174562 -124.496653 
L 170.726793 -126.010869 
L 171.359638 -127.525086 
L 172.106676 -129.039303 
L 172.991812 -130.553519 
L 174.026419 -132.067736 
L 175.207914 -133.581953 
L 176.519783 -135.096169 
L 177.933012 -136.610386 
L 179.408746 -138.124603 
L 180.902005 -139.638819 
L 182.366147 -141.153036 
L 183.757654 -142.667253 
L 185.040684 -144.181469 
L 186.190727 -145.695686 
L 187.196772 -147.209902 
L 188.061568 -148.724119 
L 188.7999 -150.238336 
L 189.435175 -151.752552 
L 189.994961 -153.266769 
L 190.506318 -154.780986 
L 190.991796 -156.295202 
L 191.46677 -157.809419 
L 191.938473 -159.323636 
L 192.406673 -160.837852 
L 192.865606 -162.352069 
L 193.306527 -163.866286 
L 193.720229 -165.380502 
L 194.098984 -166.894719 
L 194.437642 -168.408936 
L 194.733894 -169.923152 
L 194.987935 -171.437369 
L 195.201856 -172.951586 
L 195.379049 -174.465802 
L 195.523814 -175.980019 
L 195.641145 -177.494236 
L 195.736598 -179.008452 
L 195.816104 -180.522669 
L 195.885601 -182.036885 
L 195.950516 -183.551102 
L 196.015186 -185.065319 
L 196.082374 -186.579535 
L 196.153036 -188.093752 
L 196.226416 -189.607969 
L 196.300445 -191.122185 
L 196.372338 -192.636402 
L 196.439249 -194.150619 
L 196.498817 -195.664835 
L 196.54952 -197.179052 
L 196.590791 -198.693269 
L 196.622932 -200.207485 
L 196.766897 -200.207485 
L 196.766897 -200.207485 
L 196.799039 -198.693269 
L 196.84031 -197.179052 
L 196.891012 -195.664835 
L 196.95058 -194.150619 
L 197.017491 -192.636402 
L 197.089385 -191.122185 
L 197.163413 -189.607969 
L 197.236794 -188.093752 
L 197.307456 -186.579535 
L 197.374643 -185.065319 
L 197.439313 -183.551102 
L 197.504229 -182.036885 
L 197.573725 -180.522669 
L 197.653231 -179.008452 
L 197.748685 -177.494236 
L 197.866015 -175.980019 
L 198.01078 -174.465802 
L 198.187974 -172.951586 
L 198.401894 -171.437369 
L 198.655936 -169.923152 
L 198.952188 -168.408936 
L 199.290845 -166.894719 
L 199.6696 -165.380502 
L 200.083303 -163.866286 
L 200.524224 -162.352069 
L 200.983156 -160.837852 
L 201.451357 -159.323636 
L 201.92306 -157.809419 
L 202.398034 -156.295202 
L 202.883512 -154.780986 
L 203.394869 -153.266769 
L 203.954655 -151.752552 
L 204.58993 -150.238336 
L 205.328262 -148.724119 
L 206.193058 -147.209902 
L 207.199102 -145.695686 
L 208.349145 -144.181469 
L 209.632175 -142.667253 
L 211.023683 -141.153036 
L 212.487825 -139.638819 
L 213.981084 -138.124603 
L 215.456818 -136.610386 
L 216.870046 -135.096169 
L 218.181916 -133.581953 
L 219.36341 -132.067736 
L 220.398018 -130.553519 
L 221.283153 -129.039303 
L 222.030191 -127.525086 
L 222.663037 -126.010869 
L 223.215268 -124.496653 
L 223.726058 -122.982436 
L 224.235283 -121.468219 
L 224.778341 -119.954003 
L 225.381283 -118.439786 
L 226.056739 -116.925569 
L 226.801061 -115.411353 
L 227.592956 -113.897136 
L 228.393894 -112.382919 
L 229.150555 -110.868703 
L 229.799519 -109.354486 
L 230.274144 -107.84027 
L 230.513097 -106.326053 
L 230.469378 -104.811836 
L 230.118209 -103.29762 
L 229.461972 -101.783403 
L 228.530836 -100.269186 
L 227.378584 -98.75497 
L 226.074331 -97.240753 
L 224.691879 -95.726536 
L 223.299024 -94.21232 
L 221.949038 -92.698103 
L 220.675833 -91.183886 
L 219.493278 -89.66967 
L 218.398015 -88.155453 
L 217.374464 -86.641236 
L 216.4004 -85.12702 
L 215.451798 -83.612803 
L 214.506186 -82.098586 
L 213.544443 -80.58437 
L 212.551459 -79.070153 
L 211.516327 -77.555936 
L 210.432623 -76.04172 
L 209.299035 -74.527503 
L 208.120239 -73.013286 
L 206.90759 -71.49907 
L 205.679163 -69.984853 
L 204.458768 -68.470637 
L 203.273875 -66.95642 
L 202.152718 -65.442203 
L 201.121101 -63.927987 
L 200.199523 -62.41377 
L 199.401159 -60.899553 
L 198.731011 -59.385337 
L 198.186256 -57.87112 
L 197.757576 -56.356903 
L 197.431091 -54.842687 
L 197.190479 -53.32847 
L 197.018906 -51.814253 
L 196.900544 -50.300037 
z
" style="stroke: #4c4c4c; stroke-width: 0.5"/>
    </defs>
    <g clip-path="url(#pac456f1b01)">
     <use xlink:href="#ma3fe8a652c" x="0" y="255.719844" style="fill: #df8920; stroke: #4c4c4c; stroke-width: 0.5"/>
    </g>
   </g>
   <g id="line2d_1">
    <path d="M 112.14946 199.80432 
L 112.14946 85.845757 
" clip-path="url(#pac456f1b01)" style="fill: none; stroke: #4c4c4c; stroke-width: 0.75; stroke-linecap: round"/>
   </g>
   <g id="line2d_2">
    <path d="M 112.14946 157.49767 
L 112.14946 128.713696 
" clip-path="url(#pac456f1b01)" style="fill: none; stroke: #4c4c4c; stroke-width: 2.25; stroke-linecap: round"/>
   </g>
   <g id="line2d_3">
    <path d="M 112.14946 143.200246 
" clip-path="url(#pac456f1b01)" style="fill: none; stroke: #4c4c4c; stroke-width: 1.5; stroke-linecap: round"/>
    <defs>
     <path id="md089e9b5a4" d="M 0.9375 0 
L -0.9375 -0 
" style="stroke: #ffffff; stroke-width: 0.45"/>
    </defs>
    <g clip-path="url(#pac456f1b01)">
     <use xlink:href="#md089e9b5a4" x="112.14946" y="143.200246" style="fill: #ffffff; stroke: #ffffff; stroke-width: 0.45"/>
    </g>
   </g>
   <g id="line2d_4">
    <path d="M 196.694915 189.632852 
L 196.694915 84.316356 
" clip-path="url(#pac456f1b01)" style="fill: none; stroke: #4c4c4c; stroke-width: 0.75; stroke-linecap: round"/>
   </g>
   <g id="line2d_5">
    <path d="M 196.694915 160.467207 
L 196.694915 128.73453 
" clip-path="url(#pac456f1b01)" style="fill: none; stroke: #4c4c4c; stroke-width: 2.25; stroke-linecap: round"/>
   </g>
   <g id="line2d_6">
    <path d="M 196.694915 146.364278 
" clip-path="url(#pac456f1b01)" style="fill: none; stroke: #4c4c4c; stroke-width: 1.5; stroke-linecap: round"/>
    <g clip-path="url(#pac456f1b01)">
     <use xlink:href="#md089e9b5a4" x="196.694915" y="146.364278" style="fill: #ffffff; stroke: #ffffff; stroke-width: 0.45"/>
    </g>
   </g>
   <g id="line2d_7">
    <path d="M 112.14946 71.010756 
L 112.14946 66.575556 
L 196.694915 66.575556 
L 196.694915 71.010756 
" style="fill: none; stroke: #333333; stroke-width: 0.5; stroke-linecap: round"/>
   </g>
   <g id="patch_3">
    <path d="M 70.722188 228.96 
L 70.722188 7.2 
" style="fill: none; stroke: #262626; stroke-width: 1.25; stroke-linejoin: miter; stroke-linecap: square"/>
   </g>
   <g id="patch_4">
    <path d="M 70.722187 228.96 
L 238.122188 228.96 
" style="fill: none; stroke: #262626; stroke-width: 1.25; stroke-linejoin: miter; stroke-linecap: square"/>
   </g>
   <g id="text_9">
    <!-- ns -->
    <g style="fill: #262626" transform="translate(148.085625 63.190556) scale(0.12 -0.12)">
     <defs>
      <path id="ArialMT-6e" d="M 422 0 
L 422 3319 
L 928 3319 
L 928 2847 
Q 1294 3394 1984 3394 
Q 2284 3394 2536 3286 
Q 2788 3178 2913 3003 
Q 3038 2828 3088 2588 
Q 3119 2431 3119 2041 
L 3119 0 
L 2556 0 
L 2556 2019 
Q 2556 2363 2490 2533 
Q 2425 2703 2258 2804 
Q 2091 2906 1866 2906 
Q 1506 2906 1245 2678 
Q 984 2450 984 1813 
L 984 0 
L 422 0 
z
" transform="scale(0.015625)"/>
      <path id="ArialMT-73" d="M 197 991 
L 753 1078 
Q 800 744 1014 566 
Q 1228 388 1613 388 
Q 2000 388 2187 545 
Q 2375 703 2375 916 
Q 2375 1106 2209 1216 
Q 2094 1291 1634 1406 
Q 1016 1563 777 1677 
Q 538 1791 414 1992 
Q 291 2194 291 2438 
Q 291 2659 392 2848 
Q 494 3038 669 3163 
Q 800 3259 1026 3326 
Q 1253 3394 1513 3394 
Q 1903 3394 2198 3281 
Q 2494 3169 2634 2976 
Q 2775 2784 2828 2463 
L 2278 2388 
Q 2241 2644 2061 2787 
Q 1881 2931 1553 2931 
Q 1166 2931 1000 2803 
Q 834 2675 834 2503 
Q 834 2394 903 2306 
Q 972 2216 1119 2156 
Q 1203 2125 1616 2013 
Q 2213 1853 2448 1751 
Q 2684 1650 2818 1456 
Q 2953 1263 2953 975 
Q 2953 694 2789 445 
Q 2625 197 2315 61 
Q 2006 -75 1616 -75 
Q 969 -75 630 194 
Q 291 463 197 991 
z
" transform="scale(0.015625)"/>
     </defs>
     <use xlink:href="#ArialMT-6e"/>
     <use xlink:href="#ArialMT-73" x="55.615234"/>
    </g>
   </g>
  </g>
 </g>
 <defs>
  <clipPath id="pac456f1b01">
   <rect x="70.722188" y="7.2" width="167.4" height="221.76"/>
  </clipPath>
 </defs>
</svg>
