<?xml version="1.0" encoding="utf-8" standalone="no"?>
<!DOCTYPE svg PUBLIC "-//W3C//DTD SVG 1.1//EN"
  "http://www.w3.org/Graphics/SVG/1.1/DTD/svg11.dtd">
<svg xmlns:xlink="http://www.w3.org/1999/xlink" width="267.94875pt" height="258.463437pt" viewBox="0 0 267.94875 258.463437" xmlns="http://www.w3.org/2000/svg" version="1.1">
 <metadata>
  <rdf:RDF xmlns:dc="http://purl.org/dc/elements/1.1/" xmlns:cc="http://creativecommons.org/ns#" xmlns:rdf="http://www.w3.org/1999/02/22-rdf-syntax-ns#">
   <cc:Work>
    <dc:type rdf:resource="http://purl.org/dc/dcmitype/StillImage"/>
    <dc:date>2025-08-13T14:43:10.899026</dc:date>
    <dc:format>image/svg+xml</dc:format>
    <dc:creator>
     <cc:Agent>
      <dc:title>Matplotlib v3.9.2, https://matplotlib.org/</dc:title>
     </cc:Agent>
    </dc:creator>
   </cc:Work>
  </rdf:RDF>
 </metadata>
 <defs>
  <style type="text/css">*{stroke-linejoin: round; stroke-linecap: butt}</style>
 </defs>
 <g id="figure_1">
  <g id="patch_1">
   <path d="M 0 258.463437 
L 267.94875 258.463437 
L 267.94875 0 
L 0 0 
z
" style="fill: #ffffff"/>
  </g>
  <g id="axes_1">
   <g id="patch_2">
    <path d="M 93.34875 228.96 
L 260.74875 228.96 
L 260.74875 7.2 
L 93.34875 7.2 
z
" style="fill: #ffffff"/>
   </g>
   <g id="matplotlib.axis_1">
    <g id="xtick_1">
     <g id="text_1">
      <!-- Full-term -->
      <g style="fill: #262626" transform="translate(107.167585 248.480937) scale(0.14 -0.14)">
       <defs>
        <path id="ArialMT-46" d="M 525 0 
L 525 4581 
L 3616 4581 
L 3616 4041 
L 1131 4041 
L 1131 2622 
L 3281 2622 
L 3281 2081 
L 1131 2081 
L 1131 0 
L 525 0 
z
" transform="scale(0.015625)"/>
        <path id="ArialMT-75" d="M 2597 0 
L 2597 488 
Q 2209 -75 1544 -75 
Q 1250 -75 995 37 
Q 741 150 617 320 
Q 494 491 444 738 
Q 409 903 409 1263 
L 409 3319 
L 972 3319 
L 972 1478 
Q 972 1038 1006 884 
Q 1059 663 1231 536 
Q 1403 409 1656 409 
Q 1909 409 2131 539 
Q 2353 669 2445 892 
Q 2538 1116 2538 1541 
L 2538 3319 
L 3100 3319 
L 3100 0 
L 2597 0 
z
" transform="scale(0.015625)"/>
        <path id="ArialMT-6c" d="M 409 0 
L 409 4581 
L 972 4581 
L 972 0 
L 409 0 
z
" transform="scale(0.015625)"/>
        <path id="ArialMT-2d" d="M 203 1375 
L 203 1941 
L 1931 1941 
L 1931 1375 
L 203 1375 
z
" transform="scale(0.015625)"/>
        <path id="ArialMT-74" d="M 1650 503 
L 1731 6 
Q 1494 -44 1306 -44 
Q 1000 -44 831 53 
Q 663 150 594 308 
Q 525 466 525 972 
L 525 2881 
L 113 2881 
L 113 3319 
L 525 3319 
L 525 4141 
L 1084 4478 
L 1084 3319 
L 1650 3319 
L 1650 2881 
L 1084 2881 
L 1084 941 
Q 1084 700 1114 631 
Q 1144 563 1211 522 
Q 1278 481 1403 481 
Q 1497 481 1650 503 
z
" transform="scale(0.015625)"/>
        <path id="ArialMT-65" d="M 2694 1069 
L 3275 997 
Q 3138 488 2766 206 
Q 2394 -75 1816 -75 
Q 1088 -75 661 373 
Q 234 822 234 1631 
Q 234 2469 665 2931 
Q 1097 3394 1784 3394 
Q 2450 3394 2872 2941 
Q 3294 2488 3294 1666 
Q 3294 1616 3291 1516 
L 816 1516 
Q 847 969 1125 678 
Q 1403 388 1819 388 
Q 2128 388 2347 550 
Q 2566 713 2694 1069 
z
M 847 1978 
L 2700 1978 
Q 2663 2397 2488 2606 
Q 2219 2931 1791 2931 
Q 1403 2931 1139 2672 
Q 875 2413 847 1978 
z
" transform="scale(0.015625)"/>
        <path id="ArialMT-72" d="M 416 0 
L 416 3319 
L 922 3319 
L 922 2816 
Q 1116 3169 1280 3281 
Q 1444 3394 1641 3394 
Q 1925 3394 2219 3213 
L 2025 2691 
Q 1819 2813 1613 2813 
Q 1428 2813 1281 2702 
Q 1134 2591 1072 2394 
Q 978 2094 978 1738 
L 978 0 
L 416 0 
z
" transform="scale(0.015625)"/>
        <path id="ArialMT-6d" d="M 422 0 
L 422 3319 
L 925 3319 
L 925 2853 
Q 1081 3097 1340 3245 
Q 1600 3394 1931 3394 
Q 2300 3394 2536 3241 
Q 2772 3088 2869 2813 
Q 3263 3394 3894 3394 
Q 4388 3394 4653 3120 
Q 4919 2847 4919 2278 
L 4919 0 
L 4359 0 
L 4359 2091 
Q 4359 2428 4304 2576 
Q 4250 2725 4106 2815 
Q 3963 2906 3769 2906 
Q 3419 2906 3187 2673 
Q 2956 2441 2956 1928 
L 2956 0 
L 2394 0 
L 2394 2156 
Q 2394 2531 2256 2718 
Q 2119 2906 1806 2906 
Q 1569 2906 1367 2781 
Q 1166 2656 1075 2415 
Q 984 2175 984 1722 
L 984 0 
L 422 0 
z
" transform="scale(0.015625)"/>
       </defs>
       <use xlink:href="#ArialMT-46"/>
       <use xlink:href="#ArialMT-75" x="61.083984"/>
       <use xlink:href="#ArialMT-6c" x="116.699219"/>
       <use xlink:href="#ArialMT-6c" x="138.916016"/>
       <use xlink:href="#ArialMT-2d" x="161.132812"/>
       <use xlink:href="#ArialMT-74" x="194.433594"/>
       <use xlink:href="#ArialMT-65" x="222.216797"/>
       <use xlink:href="#ArialMT-72" x="277.832031"/>
       <use xlink:href="#ArialMT-6d" x="311.132812"/>
      </g>
     </g>
    </g>
    <g id="xtick_2">
     <g id="text_2">
      <!-- Preterm -->
      <g style="fill: #262626" transform="translate(194.429915 248.480937) scale(0.14 -0.14)">
       <defs>
        <path id="ArialMT-50" d="M 494 0 
L 494 4581 
L 2222 4581 
Q 2678 4581 2919 4538 
Q 3256 4481 3484 4323 
Q 3713 4166 3852 3881 
Q 3991 3597 3991 3256 
Q 3991 2672 3619 2267 
Q 3247 1863 2275 1863 
L 1100 1863 
L 1100 0 
L 494 0 
z
M 1100 2403 
L 2284 2403 
Q 2872 2403 3119 2622 
Q 3366 2841 3366 3238 
Q 3366 3525 3220 3729 
Q 3075 3934 2838 4000 
Q 2684 4041 2272 4041 
L 1100 4041 
L 1100 2403 
z
" transform="scale(0.015625)"/>
       </defs>
       <use xlink:href="#ArialMT-50"/>
       <use xlink:href="#ArialMT-72" x="66.699219"/>
       <use xlink:href="#ArialMT-65" x="100"/>
       <use xlink:href="#ArialMT-74" x="155.615234"/>
       <use xlink:href="#ArialMT-65" x="183.398438"/>
       <use xlink:href="#ArialMT-72" x="239.013672"/>
       <use xlink:href="#ArialMT-6d" x="272.314453"/>
      </g>
     </g>
    </g>
   </g>
   <g id="matplotlib.axis_2">
    <g id="ytick_1">
     <g id="text_3">
      <!-- −100000 -->
      <g style="fill: #262626" transform="translate(28.96 195.36431) scale(0.14 -0.14)">
       <defs>
        <path id="ArialMT-2212" d="M 3381 1997 
L 356 1997 
L 356 2522 
L 3381 2522 
L 3381 1997 
z
" transform="scale(0.015625)"/>
        <path id="ArialMT-31" d="M 2384 0 
L 1822 0 
L 1822 3584 
Q 1619 3391 1289 3197 
Q 959 3003 697 2906 
L 697 3450 
Q 1169 3672 1522 3987 
Q 1875 4303 2022 4600 
L 2384 4600 
L 2384 0 
z
" transform="scale(0.015625)"/>
        <path id="ArialMT-30" d="M 266 2259 
Q 266 3072 433 3567 
Q 600 4063 929 4331 
Q 1259 4600 1759 4600 
Q 2128 4600 2406 4451 
Q 2684 4303 2865 4023 
Q 3047 3744 3150 3342 
Q 3253 2941 3253 2259 
Q 3253 1453 3087 958 
Q 2922 463 2592 192 
Q 2263 -78 1759 -78 
Q 1097 -78 719 397 
Q 266 969 266 2259 
z
M 844 2259 
Q 844 1131 1108 757 
Q 1372 384 1759 384 
Q 2147 384 2411 759 
Q 2675 1134 2675 2259 
Q 2675 3391 2411 3762 
Q 2147 4134 1753 4134 
Q 1366 4134 1134 3806 
Q 844 3388 844 2259 
z
" transform="scale(0.015625)"/>
       </defs>
       <use xlink:href="#ArialMT-2212"/>
       <use xlink:href="#ArialMT-31" x="58.398438"/>
       <use xlink:href="#ArialMT-30" x="114.013672"/>
       <use xlink:href="#ArialMT-30" x="169.628906"/>
       <use xlink:href="#ArialMT-30" x="225.244141"/>
       <use xlink:href="#ArialMT-30" x="280.859375"/>
       <use xlink:href="#ArialMT-30" x="336.474609"/>
      </g>
     </g>
    </g>
    <g id="ytick_2">
     <g id="text_4">
      <!-- 0 -->
      <g style="fill: #262626" transform="translate(76.063437 151.796071) scale(0.14 -0.14)">
       <use xlink:href="#ArialMT-30"/>
      </g>
     </g>
    </g>
    <g id="ytick_3">
     <g id="text_5">
      <!-- 100000 -->
      <g style="fill: #262626" transform="translate(37.136875 108.227832) scale(0.14 -0.14)">
       <use xlink:href="#ArialMT-31"/>
       <use xlink:href="#ArialMT-30" x="55.615234"/>
       <use xlink:href="#ArialMT-30" x="111.230469"/>
       <use xlink:href="#ArialMT-30" x="166.845703"/>
       <use xlink:href="#ArialMT-30" x="222.460938"/>
       <use xlink:href="#ArialMT-30" x="278.076172"/>
      </g>
     </g>
    </g>
    <g id="ytick_4">
     <g id="text_6">
      <!-- 200000 -->
      <g style="fill: #262626" transform="translate(37.136875 64.659592) scale(0.14 -0.14)">
       <defs>
        <path id="ArialMT-32" d="M 3222 541 
L 3222 0 
L 194 0 
Q 188 203 259 391 
Q 375 700 629 1000 
Q 884 1300 1366 1694 
Q 2113 2306 2375 2664 
Q 2638 3022 2638 3341 
Q 2638 3675 2398 3904 
Q 2159 4134 1775 4134 
Q 1369 4134 1125 3890 
Q 881 3647 878 3216 
L 300 3275 
Q 359 3922 746 4261 
Q 1134 4600 1788 4600 
Q 2447 4600 2831 4234 
Q 3216 3869 3216 3328 
Q 3216 3053 3103 2787 
Q 2991 2522 2730 2228 
Q 2469 1934 1863 1422 
Q 1356 997 1212 845 
Q 1069 694 975 541 
L 3222 541 
z
" transform="scale(0.015625)"/>
       </defs>
       <use xlink:href="#ArialMT-32"/>
       <use xlink:href="#ArialMT-30" x="55.615234"/>
       <use xlink:href="#ArialMT-30" x="111.230469"/>
       <use xlink:href="#ArialMT-30" x="166.845703"/>
       <use xlink:href="#ArialMT-30" x="222.460938"/>
       <use xlink:href="#ArialMT-30" x="278.076172"/>
      </g>
     </g>
    </g>
    <g id="ytick_5">
     <g id="text_7">
      <!-- 300000 -->
      <g style="fill: #262626" transform="translate(37.136875 21.091353) scale(0.14 -0.14)">
       <defs>
        <path id="ArialMT-33" d="M 269 1209 
L 831 1284 
Q 928 806 1161 595 
Q 1394 384 1728 384 
Q 2125 384 2398 659 
Q 2672 934 2672 1341 
Q 2672 1728 2419 1979 
Q 2166 2231 1775 2231 
Q 1616 2231 1378 2169 
L 1441 2663 
Q 1497 2656 1531 2656 
Q 1891 2656 2178 2843 
Q 2466 3031 2466 3422 
Q 2466 3731 2256 3934 
Q 2047 4138 1716 4138 
Q 1388 4138 1169 3931 
Q 950 3725 888 3313 
L 325 3413 
Q 428 3978 793 4289 
Q 1159 4600 1703 4600 
Q 2078 4600 2393 4439 
Q 2709 4278 2876 4000 
Q 3044 3722 3044 3409 
Q 3044 3113 2884 2869 
Q 2725 2625 2413 2481 
Q 2819 2388 3044 2092 
Q 3269 1797 3269 1353 
Q 3269 753 2831 336 
Q 2394 -81 1725 -81 
Q 1122 -81 723 278 
Q 325 638 269 1209 
z
" transform="scale(0.015625)"/>
       </defs>
       <use xlink:href="#ArialMT-33"/>
       <use xlink:href="#ArialMT-30" x="55.615234"/>
       <use xlink:href="#ArialMT-30" x="111.230469"/>
       <use xlink:href="#ArialMT-30" x="166.845703"/>
       <use xlink:href="#ArialMT-30" x="222.460938"/>
       <use xlink:href="#ArialMT-30" x="278.076172"/>
      </g>
     </g>
    </g>
    <g id="text_8">
     <!-- WMV residuals [mm$^3$] -->
     <g style="fill: #262626" transform="translate(21.76 195.76) rotate(-90) scale(0.16 -0.16)">
      <defs>
       <path id="ArialMT-57" d="M 1294 0 
L 78 4581 
L 700 4581 
L 1397 1578 
Q 1509 1106 1591 641 
Q 1766 1375 1797 1488 
L 2669 4581 
L 3400 4581 
L 4056 2263 
Q 4303 1400 4413 641 
Q 4500 1075 4641 1638 
L 5359 4581 
L 5969 4581 
L 4713 0 
L 4128 0 
L 3163 3491 
Q 3041 3928 3019 4028 
Q 2947 3713 2884 3491 
L 1913 0 
L 1294 0 
z
" transform="scale(0.015625)"/>
       <path id="ArialMT-4d" d="M 475 0 
L 475 4581 
L 1388 4581 
L 2472 1338 
Q 2622 884 2691 659 
Q 2769 909 2934 1394 
L 4031 4581 
L 4847 4581 
L 4847 0 
L 4263 0 
L 4263 3834 
L 2931 0 
L 2384 0 
L 1059 3900 
L 1059 0 
L 475 0 
z
" transform="scale(0.015625)"/>
       <path id="ArialMT-56" d="M 1803 0 
L 28 4581 
L 684 4581 
L 1875 1253 
Q 2019 853 2116 503 
Q 2222 878 2363 1253 
L 3600 4581 
L 4219 4581 
L 2425 0 
L 1803 0 
z
" transform="scale(0.015625)"/>
       <path id="ArialMT-20" transform="scale(0.015625)"/>
       <path id="ArialMT-73" d="M 197 991 
L 753 1078 
Q 800 744 1014 566 
Q 1228 388 1613 388 
Q 2000 388 2187 545 
Q 2375 703 2375 916 
Q 2375 1106 2209 1216 
Q 2094 1291 1634 1406 
Q 1016 1563 777 1677 
Q 538 1791 414 1992 
Q 291 2194 291 2438 
Q 291 2659 392 2848 
Q 494 3038 669 3163 
Q 800 3259 1026 3326 
Q 1253 3394 1513 3394 
Q 1903 3394 2198 3281 
Q 2494 3169 2634 2976 
Q 2775 2784 2828 2463 
L 2278 2388 
Q 2241 2644 2061 2787 
Q 1881 2931 1553 2931 
Q 1166 2931 1000 2803 
Q 834 2675 834 2503 
Q 834 2394 903 2306 
Q 972 2216 1119 2156 
Q 1203 2125 1616 2013 
Q 2213 1853 2448 1751 
Q 2684 1650 2818 1456 
Q 2953 1263 2953 975 
Q 2953 694 2789 445 
Q 2625 197 2315 61 
Q 2006 -75 1616 -75 
Q 969 -75 630 194 
Q 291 463 197 991 
z
" transform="scale(0.015625)"/>
       <path id="ArialMT-69" d="M 425 3934 
L 425 4581 
L 988 4581 
L 988 3934 
L 425 3934 
z
M 425 0 
L 425 3319 
L 988 3319 
L 988 0 
L 425 0 
z
" transform="scale(0.015625)"/>
       <path id="ArialMT-64" d="M 2575 0 
L 2575 419 
Q 2259 -75 1647 -75 
Q 1250 -75 917 144 
Q 584 363 401 755 
Q 219 1147 219 1656 
Q 219 2153 384 2558 
Q 550 2963 881 3178 
Q 1213 3394 1622 3394 
Q 1922 3394 2156 3267 
Q 2391 3141 2538 2938 
L 2538 4581 
L 3097 4581 
L 3097 0 
L 2575 0 
z
M 797 1656 
Q 797 1019 1065 703 
Q 1334 388 1700 388 
Q 2069 388 2326 689 
Q 2584 991 2584 1609 
Q 2584 2291 2321 2609 
Q 2059 2928 1675 2928 
Q 1300 2928 1048 2622 
Q 797 2316 797 1656 
z
" transform="scale(0.015625)"/>
       <path id="ArialMT-61" d="M 2588 409 
Q 2275 144 1986 34 
Q 1697 -75 1366 -75 
Q 819 -75 525 192 
Q 231 459 231 875 
Q 231 1119 342 1320 
Q 453 1522 633 1644 
Q 813 1766 1038 1828 
Q 1203 1872 1538 1913 
Q 2219 1994 2541 2106 
Q 2544 2222 2544 2253 
Q 2544 2597 2384 2738 
Q 2169 2928 1744 2928 
Q 1347 2928 1158 2789 
Q 969 2650 878 2297 
L 328 2372 
Q 403 2725 575 2942 
Q 747 3159 1072 3276 
Q 1397 3394 1825 3394 
Q 2250 3394 2515 3294 
Q 2781 3194 2906 3042 
Q 3031 2891 3081 2659 
Q 3109 2516 3109 2141 
L 3109 1391 
Q 3109 606 3145 398 
Q 3181 191 3288 0 
L 2700 0 
Q 2613 175 2588 409 
z
M 2541 1666 
Q 2234 1541 1622 1453 
Q 1275 1403 1131 1340 
Q 988 1278 909 1158 
Q 831 1038 831 891 
Q 831 666 1001 516 
Q 1172 366 1500 366 
Q 1825 366 2078 508 
Q 2331 650 2450 897 
Q 2541 1088 2541 1459 
L 2541 1666 
z
" transform="scale(0.015625)"/>
       <path id="ArialMT-5b" d="M 434 -1272 
L 434 4581 
L 1675 4581 
L 1675 4116 
L 997 4116 
L 997 -806 
L 1675 -806 
L 1675 -1272 
L 434 -1272 
z
" transform="scale(0.015625)"/>
       <path id="DejaVuSans-33" d="M 2597 2516 
Q 3050 2419 3304 2112 
Q 3559 1806 3559 1356 
Q 3559 666 3084 287 
Q 2609 -91 1734 -91 
Q 1441 -91 1130 -33 
Q 819 25 488 141 
L 488 750 
Q 750 597 1062 519 
Q 1375 441 1716 441 
Q 2309 441 2620 675 
Q 2931 909 2931 1356 
Q 2931 1769 2642 2001 
Q 2353 2234 1838 2234 
L 1294 2234 
L 1294 2753 
L 1863 2753 
Q 2328 2753 2575 2939 
Q 2822 3125 2822 3475 
Q 2822 3834 2567 4026 
Q 2313 4219 1838 4219 
Q 1578 4219 1281 4162 
Q 984 4106 628 3988 
L 628 4550 
Q 988 4650 1302 4700 
Q 1616 4750 1894 4750 
Q 2613 4750 3031 4423 
Q 3450 4097 3450 3541 
Q 3450 3153 3228 2886 
Q 3006 2619 2597 2516 
z
" transform="scale(0.015625)"/>
       <path id="ArialMT-5d" d="M 1363 -1272 
L 122 -1272 
L 122 -806 
L 800 -806 
L 800 4116 
L 122 4116 
L 122 4581 
L 1363 4581 
L 1363 -1272 
z
" transform="scale(0.015625)"/>
      </defs>
      <use xlink:href="#ArialMT-57" transform="translate(0 0.765625)"/>
      <use xlink:href="#ArialMT-4d" transform="translate(94.384766 0.765625)"/>
      <use xlink:href="#ArialMT-56" transform="translate(177.685547 0.765625)"/>
      <use xlink:href="#ArialMT-20" transform="translate(244.384766 0.765625)"/>
      <use xlink:href="#ArialMT-72" transform="translate(272.167969 0.765625)"/>
      <use xlink:href="#ArialMT-65" transform="translate(305.46875 0.765625)"/>
      <use xlink:href="#ArialMT-73" transform="translate(361.083984 0.765625)"/>
      <use xlink:href="#ArialMT-69" transform="translate(411.083984 0.765625)"/>
      <use xlink:href="#ArialMT-64" transform="translate(433.300781 0.765625)"/>
      <use xlink:href="#ArialMT-75" transform="translate(488.916016 0.765625)"/>
      <use xlink:href="#ArialMT-61" transform="translate(544.53125 0.765625)"/>
      <use xlink:href="#ArialMT-6c" transform="translate(600.146484 0.765625)"/>
      <use xlink:href="#ArialMT-73" transform="translate(622.363281 0.765625)"/>
      <use xlink:href="#ArialMT-20" transform="translate(672.363281 0.765625)"/>
      <use xlink:href="#ArialMT-5b" transform="translate(700.146484 0.765625)"/>
      <use xlink:href="#ArialMT-6d" transform="translate(727.929688 0.765625)"/>
      <use xlink:href="#ArialMT-6d" transform="translate(811.230469 0.765625)"/>
      <use xlink:href="#DejaVuSans-33" transform="translate(895.488281 39.046875) scale(0.7)"/>
      <use xlink:href="#ArialMT-5d" transform="translate(942.758789 0.765625)"/>
     </g>
    </g>
   </g>
   <g id="PolyCollection_1">
    <defs>
     <path id="m46c7b42a3c" d="M 134.780248 -39.583438 
L 134.771797 -39.583438 
L 134.763924 -41.619801 
L 134.752431 -43.656165 
L 134.744122 -45.692528 
L 134.742727 -47.728892 
L 134.736181 -49.765256 
L 134.702236 -51.801619 
L 134.633342 -53.837983 
L 134.548585 -55.874347 
L 134.461601 -57.91071 
L 134.344414 -59.947074 
L 134.162401 -61.983438 
L 133.924769 -64.019801 
L 133.63882 -66.056165 
L 133.25689 -68.092528 
L 132.737975 -70.128892 
L 132.088305 -72.165256 
L 131.282227 -74.201619 
L 130.238754 -76.237983 
L 128.918801 -78.274347 
L 127.365519 -80.31071 
L 125.626574 -82.347074 
L 123.69832 -84.383438 
L 121.584608 -86.419801 
L 119.367517 -88.456165 
L 117.166288 -90.492528 
L 115.043937 -92.528892 
L 113.023522 -94.565256 
L 111.140311 -96.601619 
L 109.32275 -98.637983 
L 107.328951 -100.674347 
L 105.011763 -102.71071 
L 102.696167 -104.747074 
L 101.161306 -106.783438 
L 100.957841 -108.819801 
L 101.81997 -110.856165 
L 103.026426 -112.892528 
L 104.155176 -114.928892 
L 105.275573 -116.965256 
L 106.630136 -119.001619 
L 108.30544 -121.037983 
L 110.152428 -123.074347 
L 112.043852 -125.11071 
L 114.075974 -127.147074 
L 116.332289 -129.183438 
L 118.616407 -131.219801 
L 120.641998 -133.256165 
L 122.362395 -135.292528 
L 123.916682 -137.328892 
L 125.367525 -139.365256 
L 126.649341 -141.401619 
L 127.722271 -143.437983 
L 128.64556 -145.474347 
L 129.497278 -147.51071 
L 130.320226 -149.547074 
L 131.100417 -151.583438 
L 131.773693 -153.619801 
L 132.311637 -155.656165 
L 132.755533 -157.692528 
L 133.155573 -159.728892 
L 133.515131 -161.765256 
L 133.79538 -163.801619 
L 133.979486 -165.837983 
L 134.104035 -167.874347 
L 134.209822 -169.91071 
L 134.306615 -171.947074 
L 134.398211 -173.983438 
L 134.493285 -176.019801 
L 134.579291 -178.056165 
L 134.628357 -180.092528 
L 134.639667 -182.128892 
L 134.647397 -184.165256 
L 134.677881 -186.201619 
L 134.721209 -188.237983 
L 134.754326 -190.274347 
L 134.770012 -192.31071 
L 134.774866 -194.347074 
L 134.775869 -196.383438 
L 134.776009 -198.419801 
L 134.776022 -200.456165 
L 134.776023 -202.492528 
L 134.776023 -204.528892 
L 134.776023 -206.565256 
L 134.776023 -208.601619 
L 134.776023 -210.637983 
L 134.776023 -212.674347 
L 134.776023 -214.71071 
L 134.776023 -216.747074 
L 134.776022 -218.783438 
L 134.776019 -220.819801 
L 134.775975 -222.856165 
L 134.775655 -224.892528 
L 134.774086 -226.928892 
L 134.769096 -228.965256 
L 134.759214 -231.001619 
L 134.748338 -233.037983 
L 134.745075 -235.074347 
L 134.752544 -237.11071 
L 134.763933 -239.147074 
L 134.771798 -241.183438 
L 134.780248 -241.183438 
L 134.780248 -241.183438 
L 134.788113 -239.147074 
L 134.799502 -237.11071 
L 134.80697 -235.074347 
L 134.803707 -233.037983 
L 134.792832 -231.001619 
L 134.782949 -228.965256 
L 134.77796 -226.928892 
L 134.77639 -224.892528 
L 134.77607 -222.856165 
L 134.776027 -220.819801 
L 134.776023 -218.783438 
L 134.776023 -216.747074 
L 134.776023 -214.71071 
L 134.776023 -212.674347 
L 134.776023 -210.637983 
L 134.776023 -208.601619 
L 134.776023 -206.565256 
L 134.776023 -204.528892 
L 134.776023 -202.492528 
L 134.776024 -200.456165 
L 134.776037 -198.419801 
L 134.776177 -196.383438 
L 134.77718 -194.347074 
L 134.782033 -192.31071 
L 134.79772 -190.274347 
L 134.830837 -188.237983 
L 134.874164 -186.201619 
L 134.904648 -184.165256 
L 134.912378 -182.128892 
L 134.923688 -180.092528 
L 134.972754 -178.056165 
L 135.05876 -176.019801 
L 135.153834 -173.983438 
L 135.245431 -171.947074 
L 135.342224 -169.91071 
L 135.448011 -167.874347 
L 135.572559 -165.837983 
L 135.756666 -163.801619 
L 136.036914 -161.765256 
L 136.396472 -159.728892 
L 136.796512 -157.692528 
L 137.240408 -155.656165 
L 137.778353 -153.619801 
L 138.451629 -151.583438 
L 139.23182 -149.547074 
L 140.054768 -147.51071 
L 140.906486 -145.474347 
L 141.829774 -143.437983 
L 142.902705 -141.401619 
L 144.18452 -139.365256 
L 145.635364 -137.328892 
L 147.18965 -135.292528 
L 148.910048 -133.256165 
L 150.935638 -131.219801 
L 153.219757 -129.183438 
L 155.476072 -127.147074 
L 157.508194 -125.11071 
L 159.399618 -123.074347 
L 161.246605 -121.037983 
L 162.921909 -119.001619 
L 164.276472 -116.965256 
L 165.39687 -114.928892 
L 166.525619 -112.892528 
L 167.732075 -110.856165 
L 168.594205 -108.819801 
L 168.390739 -106.783438 
L 166.855878 -104.747074 
L 164.540282 -102.71071 
L 162.223094 -100.674347 
L 160.229296 -98.637983 
L 158.411734 -96.601619 
L 156.528524 -94.565256 
L 154.508109 -92.528892 
L 152.385758 -90.492528 
L 150.184529 -88.456165 
L 147.967438 -86.419801 
L 145.853725 -84.383438 
L 143.925471 -82.347074 
L 142.186527 -80.31071 
L 140.633244 -78.274347 
L 139.313291 -76.237983 
L 138.269818 -74.201619 
L 137.463741 -72.165256 
L 136.814071 -70.128892 
L 136.295156 -68.092528 
L 135.913226 -66.056165 
L 135.627277 -64.019801 
L 135.389644 -61.983438 
L 135.207631 -59.947074 
L 135.090444 -57.91071 
L 135.003461 -55.874347 
L 134.918704 -53.837983 
L 134.849809 -51.801619 
L 134.815864 -49.765256 
L 134.809318 -47.728892 
L 134.807924 -45.692528 
L 134.799614 -43.656165 
L 134.788122 -41.619801 
L 134.780248 -39.583438 
z
" style="stroke: #4c4c4c; stroke-width: 0.5"/>
    </defs>
    <g clip-path="url(#p1645c68b13)">
     <use xlink:href="#m46c7b42a3c" x="0" y="258.463437" style="fill: #5573cd; stroke: #4c4c4c; stroke-width: 0.5"/>
    </g>
   </g>
   <g id="PolyCollection_2">
    <defs>
     <path id="m3762f5215e" d="M 219.430152 -47.08747 
L 219.212803 -47.08747 
L 219.157837 -48.481379 
L 219.083438 -49.875287 
L 218.986558 -51.269196 
L 218.864956 -52.663105 
L 218.717374 -54.057014 
L 218.543381 -55.450922 
L 218.342804 -56.844831 
L 218.114756 -58.23874 
L 217.856463 -59.632648 
L 217.562175 -61.026557 
L 217.222571 -62.420466 
L 216.824952 -63.814375 
L 216.354428 -65.208283 
L 215.795981 -66.602192 
L 215.137056 -67.996101 
L 214.370109 -69.39001 
L 213.49448 -70.783918 
L 212.517081 -72.177827 
L 211.451657 -73.571736 
L 210.316783 -74.965645 
L 209.133106 -76.359553 
L 207.92057 -77.753462 
L 206.696345 -79.147371 
L 205.473972 -80.54128 
L 204.263752 -81.935188 
L 203.073978 -83.329097 
L 201.912265 -84.723006 
L 200.786169 -86.116915 
L 199.702545 -87.510823 
L 198.665639 -88.904732 
L 197.6745 -90.298641 
L 196.720781 -91.692549 
L 195.78811 -93.086458 
L 194.853878 -94.480367 
L 193.893621 -95.874276 
L 192.887272 -97.268184 
L 191.825898 -98.662093 
L 190.717184 -100.056002 
L 189.588164 -101.449911 
L 188.484365 -102.843819 
L 187.465399 -104.237728 
L 186.597901 -105.631637 
L 185.94717 -107.025546 
L 185.569046 -108.419454 
L 185.503295 -109.813363 
L 185.769368 -111.207272 
L 186.364918 -112.601181 
L 187.267036 -113.995089 
L 188.435774 -115.388998 
L 189.819277 -116.782907 
L 191.359617 -118.176816 
L 192.998384 -119.570724 
L 194.681195 -120.964633 
L 196.360601 -122.358542 
L 197.99728 -123.75245 
L 199.559849 -125.146359 
L 201.023896 -126.540268 
L 202.370942 -127.934177 
L 203.587839 -129.328085 
L 204.666848 -130.721994 
L 205.606235 -132.115903 
L 206.411024 -133.509812 
L 207.093386 -134.90372 
L 207.672292 -136.297629 
L 208.172209 -137.691538 
L 208.620941 -139.085447 
L 209.046897 -140.479355 
L 209.476257 -141.873264 
L 209.930453 -143.267173 
L 210.424363 -144.661082 
L 210.965407 -146.05499 
L 211.553587 -147.448899 
L 212.182359 -148.842808 
L 212.840105 -150.236716 
L 213.511928 -151.630625 
L 214.181463 -153.024534 
L 214.832492 -154.418443 
L 215.450196 -155.812351 
L 216.022029 -157.20626 
L 216.538255 -158.600169 
L 216.992285 -159.994078 
L 217.380867 -161.387986 
L 217.704191 -162.781895 
L 217.965825 -164.175804 
L 218.172407 -165.569713 
L 218.33299 -166.963621 
L 218.458046 -168.35753 
L 218.558239 -169.751439 
L 218.643177 -171.145348 
L 218.720384 -172.539256 
L 218.794718 -173.933165 
L 218.868307 -175.327074 
L 218.940985 -176.720983 
L 219.011059 -178.114891 
L 219.07619 -179.5088 
L 219.134173 -180.902709 
L 219.183475 -182.296617 
L 219.223478 -183.690526 
L 219.254453 -185.084435 
L 219.388501 -185.084435 
L 219.388501 -185.084435 
L 219.419476 -183.690526 
L 219.459479 -182.296617 
L 219.508782 -180.902709 
L 219.566764 -179.5088 
L 219.631895 -178.114891 
L 219.70197 -176.720983 
L 219.774648 -175.327074 
L 219.848237 -173.933165 
L 219.922571 -172.539256 
L 219.999778 -171.145348 
L 220.084715 -169.751439 
L 220.184908 -168.35753 
L 220.309964 -166.963621 
L 220.470547 -165.569713 
L 220.67713 -164.175804 
L 220.938764 -162.781895 
L 221.262087 -161.387986 
L 221.650669 -159.994078 
L 222.104699 -158.600169 
L 222.620926 -157.20626 
L 223.192758 -155.812351 
L 223.810463 -154.418443 
L 224.461492 -153.024534 
L 225.131027 -151.630625 
L 225.802849 -150.236716 
L 226.460596 -148.842808 
L 227.089367 -147.448899 
L 227.677547 -146.05499 
L 228.218591 -144.661082 
L 228.712502 -143.267173 
L 229.166698 -141.873264 
L 229.596057 -140.479355 
L 230.022014 -139.085447 
L 230.470745 -137.691538 
L 230.970663 -136.297629 
L 231.549569 -134.90372 
L 232.231931 -133.509812 
L 233.036719 -132.115903 
L 233.976107 -130.721994 
L 235.055115 -129.328085 
L 236.272013 -127.934177 
L 237.619058 -126.540268 
L 239.083106 -125.146359 
L 240.645674 -123.75245 
L 242.282354 -122.358542 
L 243.96176 -120.964633 
L 245.644571 -119.570724 
L 247.283337 -118.176816 
L 248.823678 -116.782907 
L 250.20718 -115.388998 
L 251.375918 -113.995089 
L 252.278036 -112.601181 
L 252.873587 -111.207272 
L 253.139659 -109.813363 
L 253.073908 -108.419454 
L 252.695785 -107.025546 
L 252.045054 -105.631637 
L 251.177556 -104.237728 
L 250.15859 -102.843819 
L 249.05479 -101.449911 
L 247.925771 -100.056002 
L 246.817056 -98.662093 
L 245.755682 -97.268184 
L 244.749333 -95.874276 
L 243.789076 -94.480367 
L 242.854845 -93.086458 
L 241.922174 -91.692549 
L 240.968455 -90.298641 
L 239.977316 -88.904732 
L 238.940409 -87.510823 
L 237.856785 -86.116915 
L 236.730689 -84.723006 
L 235.568977 -83.329097 
L 234.379202 -81.935188 
L 233.168982 -80.54128 
L 231.94661 -79.147371 
L 230.722385 -77.753462 
L 229.509848 -76.359553 
L 228.326172 -74.965645 
L 227.191298 -73.571736 
L 226.125873 -72.177827 
L 225.148474 -70.783918 
L 224.272846 -69.39001 
L 223.505898 -67.996101 
L 222.846973 -66.602192 
L 222.288527 -65.208283 
L 221.818003 -63.814375 
L 221.420384 -62.420466 
L 221.080779 -61.026557 
L 220.786492 -59.632648 
L 220.528198 -58.23874 
L 220.300151 -56.844831 
L 220.099573 -55.450922 
L 219.925581 -54.057014 
L 219.777998 -52.663105 
L 219.656396 -51.269196 
L 219.559517 -49.875287 
L 219.485118 -48.481379 
L 219.430152 -47.08747 
z
" style="stroke: #4c4c4c; stroke-width: 0.5"/>
    </defs>
    <g clip-path="url(#p1645c68b13)">
     <use xlink:href="#m3762f5215e" x="0" y="258.463437" style="fill: #df8920; stroke: #4c4c4c; stroke-width: 0.5"/>
    </g>
   </g>
   <g id="line2d_1">
    <path d="M 134.776023 194.825403 
L 134.776023 98.862538 
" clip-path="url(#p1645c68b13)" style="fill: none; stroke: #4c4c4c; stroke-width: 0.75; stroke-linecap: round"/>
   </g>
   <g id="line2d_2">
    <path d="M 134.776023 159.194026 
L 134.776023 135.038182 
" clip-path="url(#p1645c68b13)" style="fill: none; stroke: #4c4c4c; stroke-width: 2.25; stroke-linecap: round"/>
   </g>
   <g id="line2d_3">
    <path d="M 134.776023 147.822986 
" clip-path="url(#p1645c68b13)" style="fill: none; stroke: #4c4c4c; stroke-width: 1.5; stroke-linecap: round"/>
    <defs>
     <path id="m63cf75d3d3" d="M 0.9375 0 
L -0.9375 -0 
" style="stroke: #ffffff; stroke-width: 0.45"/>
    </defs>
    <g clip-path="url(#p1645c68b13)">
     <use xlink:href="#m63cf75d3d3" x="134.776023" y="147.822986" style="fill: #ffffff; stroke: #ffffff; stroke-width: 0.45"/>
    </g>
   </g>
   <g id="line2d_4">
    <path d="M 219.321477 197.29461 
L 219.321477 99.828965 
" clip-path="url(#p1645c68b13)" style="fill: none; stroke: #4c4c4c; stroke-width: 0.75; stroke-linecap: round"/>
   </g>
   <g id="line2d_5">
    <path d="M 219.321477 163.561239 
L 219.321477 137.471426 
" clip-path="url(#p1645c68b13)" style="fill: none; stroke: #4c4c4c; stroke-width: 2.25; stroke-linecap: round"/>
   </g>
   <g id="line2d_6">
    <path d="M 219.321477 149.968002 
" clip-path="url(#p1645c68b13)" style="fill: none; stroke: #4c4c4c; stroke-width: 1.5; stroke-linecap: round"/>
    <g clip-path="url(#p1645c68b13)">
     <use xlink:href="#m63cf75d3d3" x="219.321477" y="149.968002" style="fill: #ffffff; stroke: #ffffff; stroke-width: 0.45"/>
    </g>
   </g>
   <g id="line2d_7">
    <path d="M 134.776023 85.556938 
L 134.776023 81.121738 
L 219.321477 81.121738 
L 219.321477 85.556938 
" style="fill: none; stroke: #333333; stroke-width: 0.5; stroke-linecap: round"/>
   </g>
   <g id="patch_3">
    <path d="M 93.34875 228.96 
L 93.34875 7.2 
" style="fill: none; stroke: #262626; stroke-width: 1.25; stroke-linejoin: miter; stroke-linecap: square"/>
   </g>
   <g id="patch_4">
    <path d="M 93.34875 228.96 
L 260.74875 228.96 
" style="fill: none; stroke: #262626; stroke-width: 1.25; stroke-linejoin: miter; stroke-linecap: square"/>
   </g>
   <g id="text_9">
    <!-- ns -->
    <g style="fill: #262626" transform="translate(169.656094 77.339238) scale(0.14 -0.14)">
     <defs>
      <path id="ArialMT-6e" d="M 422 0 
L 422 3319 
L 928 3319 
L 928 2847 
Q 1294 3394 1984 3394 
Q 2284 3394 2536 3286 
Q 2788 3178 2913 3003 
Q 3038 2828 3088 2588 
Q 3119 2431 3119 2041 
L 3119 0 
L 2556 0 
L 2556 2019 
Q 2556 2363 2490 2533 
Q 2425 2703 2258 2804 
Q 2091 2906 1866 2906 
Q 1506 2906 1245 2678 
Q 984 2450 984 1813 
L 984 0 
L 422 0 
z
" transform="scale(0.015625)"/>
     </defs>
     <use xlink:href="#ArialMT-6e"/>
     <use xlink:href="#ArialMT-73" x="55.615234"/>
    </g>
   </g>
  </g>
 </g>
 <defs>
  <clipPath id="p1645c68b13">
   <rect x="93.34875" y="7.2" width="167.4" height="221.76"/>
  </clipPath>
 </defs>
</svg>
