<?xml version="1.0" encoding="utf-8" standalone="no"?>
<!DOCTYPE svg PUBLIC "-//W3C//DTD SVG 1.1//EN"
  "http://www.w3.org/Graphics/SVG/1.1/DTD/svg11.dtd">
<svg xmlns:xlink="http://www.w3.org/1999/xlink" width="260.163437pt" height="258.463437pt" viewBox="0 0 260.163437 258.463437" xmlns="http://www.w3.org/2000/svg" version="1.1">
 <metadata>
  <rdf:RDF xmlns:dc="http://purl.org/dc/elements/1.1/" xmlns:cc="http://creativecommons.org/ns#" xmlns:rdf="http://www.w3.org/1999/02/22-rdf-syntax-ns#">
   <cc:Work>
    <dc:type rdf:resource="http://purl.org/dc/dcmitype/StillImage"/>
    <dc:date>2025-08-13T14:43:11.439381</dc:date>
    <dc:format>image/svg+xml</dc:format>
    <dc:creator>
     <cc:Agent>
      <dc:title>Matplotlib v3.9.2, https://matplotlib.org/</dc:title>
     </cc:Agent>
    </dc:creator>
   </cc:Work>
  </rdf:RDF>
 </metadata>
 <defs>
  <style type="text/css">*{stroke-linejoin: round; stroke-linecap: butt}</style>
 </defs>
 <g id="figure_1">
  <g id="patch_1">
   <path d="M 0 258.463437 
L 260.163437 258.463437 
L 260.163437 0 
L 0 0 
z
" style="fill: #ffffff"/>
  </g>
  <g id="axes_1">
   <g id="patch_2">
    <path d="M 85.563438 228.96 
L 252.963437 228.96 
L 252.963437 7.2 
L 85.563438 7.2 
z
" style="fill: #ffffff"/>
   </g>
   <g id="matplotlib.axis_1">
    <g id="xtick_1">
     <g id="text_1">
      <!-- Full-term -->
      <g style="fill: #262626" transform="translate(99.382273 248.480937) scale(0.14 -0.14)">
       <defs>
        <path id="ArialMT-46" d="M 525 0 
L 525 4581 
L 3616 4581 
L 3616 4041 
L 1131 4041 
L 1131 2622 
L 3281 2622 
L 3281 2081 
L 1131 2081 
L 1131 0 
L 525 0 
z
" transform="scale(0.015625)"/>
        <path id="ArialMT-75" d="M 2597 0 
L 2597 488 
Q 2209 -75 1544 -75 
Q 1250 -75 995 37 
Q 741 150 617 320 
Q 494 491 444 738 
Q 409 903 409 1263 
L 409 3319 
L 972 3319 
L 972 1478 
Q 972 1038 1006 884 
Q 1059 663 1231 536 
Q 1403 409 1656 409 
Q 1909 409 2131 539 
Q 2353 669 2445 892 
Q 2538 1116 2538 1541 
L 2538 3319 
L 3100 3319 
L 3100 0 
L 2597 0 
z
" transform="scale(0.015625)"/>
        <path id="ArialMT-6c" d="M 409 0 
L 409 4581 
L 972 4581 
L 972 0 
L 409 0 
z
" transform="scale(0.015625)"/>
        <path id="ArialMT-2d" d="M 203 1375 
L 203 1941 
L 1931 1941 
L 1931 1375 
L 203 1375 
z
" transform="scale(0.015625)"/>
        <path id="ArialMT-74" d="M 1650 503 
L 1731 6 
Q 1494 -44 1306 -44 
Q 1000 -44 831 53 
Q 663 150 594 308 
Q 525 466 525 972 
L 525 2881 
L 113 2881 
L 113 3319 
L 525 3319 
L 525 4141 
L 1084 4478 
L 1084 3319 
L 1650 3319 
L 1650 2881 
L 1084 2881 
L 1084 941 
Q 1084 700 1114 631 
Q 1144 563 1211 522 
Q 1278 481 1403 481 
Q 1497 481 1650 503 
z
" transform="scale(0.015625)"/>
        <path id="ArialMT-65" d="M 2694 1069 
L 3275 997 
Q 3138 488 2766 206 
Q 2394 -75 1816 -75 
Q 1088 -75 661 373 
Q 234 822 234 1631 
Q 234 2469 665 2931 
Q 1097 3394 1784 3394 
Q 2450 3394 2872 2941 
Q 3294 2488 3294 1666 
Q 3294 1616 3291 1516 
L 816 1516 
Q 847 969 1125 678 
Q 1403 388 1819 388 
Q 2128 388 2347 550 
Q 2566 713 2694 1069 
z
M 847 1978 
L 2700 1978 
Q 2663 2397 2488 2606 
Q 2219 2931 1791 2931 
Q 1403 2931 1139 2672 
Q 875 2413 847 1978 
z
" transform="scale(0.015625)"/>
        <path id="ArialMT-72" d="M 416 0 
L 416 3319 
L 922 3319 
L 922 2816 
Q 1116 3169 1280 3281 
Q 1444 3394 1641 3394 
Q 1925 3394 2219 3213 
L 2025 2691 
Q 1819 2813 1613 2813 
Q 1428 2813 1281 2702 
Q 1134 2591 1072 2394 
Q 978 2094 978 1738 
L 978 0 
L 416 0 
z
" transform="scale(0.015625)"/>
        <path id="ArialMT-6d" d="M 422 0 
L 422 3319 
L 925 3319 
L 925 2853 
Q 1081 3097 1340 3245 
Q 1600 3394 1931 3394 
Q 2300 3394 2536 3241 
Q 2772 3088 2869 2813 
Q 3263 3394 3894 3394 
Q 4388 3394 4653 3120 
Q 4919 2847 4919 2278 
L 4919 0 
L 4359 0 
L 4359 2091 
Q 4359 2428 4304 2576 
Q 4250 2725 4106 2815 
Q 3963 2906 3769 2906 
Q 3419 2906 3187 2673 
Q 2956 2441 2956 1928 
L 2956 0 
L 2394 0 
L 2394 2156 
Q 2394 2531 2256 2718 
Q 2119 2906 1806 2906 
Q 1569 2906 1367 2781 
Q 1166 2656 1075 2415 
Q 984 2175 984 1722 
L 984 0 
L 422 0 
z
" transform="scale(0.015625)"/>
       </defs>
       <use xlink:href="#ArialMT-46"/>
       <use xlink:href="#ArialMT-75" x="61.083984"/>
       <use xlink:href="#ArialMT-6c" x="116.699219"/>
       <use xlink:href="#ArialMT-6c" x="138.916016"/>
       <use xlink:href="#ArialMT-2d" x="161.132812"/>
       <use xlink:href="#ArialMT-74" x="194.433594"/>
       <use xlink:href="#ArialMT-65" x="222.216797"/>
       <use xlink:href="#ArialMT-72" x="277.832031"/>
       <use xlink:href="#ArialMT-6d" x="311.132812"/>
      </g>
     </g>
    </g>
    <g id="xtick_2">
     <g id="text_2">
      <!-- Preterm -->
      <g style="fill: #262626" transform="translate(186.644602 248.480937) scale(0.14 -0.14)">
       <defs>
        <path id="ArialMT-50" d="M 494 0 
L 494 4581 
L 2222 4581 
Q 2678 4581 2919 4538 
Q 3256 4481 3484 4323 
Q 3713 4166 3852 3881 
Q 3991 3597 3991 3256 
Q 3991 2672 3619 2267 
Q 3247 1863 2275 1863 
L 1100 1863 
L 1100 0 
L 494 0 
z
M 1100 2403 
L 2284 2403 
Q 2872 2403 3119 2622 
Q 3366 2841 3366 3238 
Q 3366 3525 3220 3729 
Q 3075 3934 2838 4000 
Q 2684 4041 2272 4041 
L 1100 4041 
L 1100 2403 
z
" transform="scale(0.015625)"/>
       </defs>
       <use xlink:href="#ArialMT-50"/>
       <use xlink:href="#ArialMT-72" x="66.699219"/>
       <use xlink:href="#ArialMT-65" x="100"/>
       <use xlink:href="#ArialMT-74" x="155.615234"/>
       <use xlink:href="#ArialMT-65" x="183.398438"/>
       <use xlink:href="#ArialMT-72" x="239.013672"/>
       <use xlink:href="#ArialMT-6d" x="272.314453"/>
      </g>
     </g>
    </g>
   </g>
   <g id="matplotlib.axis_2">
    <g id="ytick_1">
     <g id="text_3">
      <!-- −15000 -->
      <g style="fill: #262626" transform="translate(28.96 211.784783) scale(0.14 -0.14)">
       <defs>
        <path id="ArialMT-2212" d="M 3381 1997 
L 356 1997 
L 356 2522 
L 3381 2522 
L 3381 1997 
z
" transform="scale(0.015625)"/>
        <path id="ArialMT-31" d="M 2384 0 
L 1822 0 
L 1822 3584 
Q 1619 3391 1289 3197 
Q 959 3003 697 2906 
L 697 3450 
Q 1169 3672 1522 3987 
Q 1875 4303 2022 4600 
L 2384 4600 
L 2384 0 
z
" transform="scale(0.015625)"/>
        <path id="ArialMT-35" d="M 266 1200 
L 856 1250 
Q 922 819 1161 601 
Q 1400 384 1738 384 
Q 2144 384 2425 690 
Q 2706 997 2706 1503 
Q 2706 1984 2436 2262 
Q 2166 2541 1728 2541 
Q 1456 2541 1237 2417 
Q 1019 2294 894 2097 
L 366 2166 
L 809 4519 
L 3088 4519 
L 3088 3981 
L 1259 3981 
L 1013 2750 
Q 1425 3038 1878 3038 
Q 2478 3038 2890 2622 
Q 3303 2206 3303 1553 
Q 3303 931 2941 478 
Q 2500 -78 1738 -78 
Q 1113 -78 717 272 
Q 322 622 266 1200 
z
" transform="scale(0.015625)"/>
        <path id="ArialMT-30" d="M 266 2259 
Q 266 3072 433 3567 
Q 600 4063 929 4331 
Q 1259 4600 1759 4600 
Q 2128 4600 2406 4451 
Q 2684 4303 2865 4023 
Q 3047 3744 3150 3342 
Q 3253 2941 3253 2259 
Q 3253 1453 3087 958 
Q 2922 463 2592 192 
Q 2263 -78 1759 -78 
Q 1097 -78 719 397 
Q 266 969 266 2259 
z
M 844 2259 
Q 844 1131 1108 757 
Q 1372 384 1759 384 
Q 2147 384 2411 759 
Q 2675 1134 2675 2259 
Q 2675 3391 2411 3762 
Q 2147 4134 1753 4134 
Q 1366 4134 1134 3806 
Q 844 3388 844 2259 
z
" transform="scale(0.015625)"/>
       </defs>
       <use xlink:href="#ArialMT-2212"/>
       <use xlink:href="#ArialMT-31" x="58.398438"/>
       <use xlink:href="#ArialMT-35" x="114.013672"/>
       <use xlink:href="#ArialMT-30" x="169.628906"/>
       <use xlink:href="#ArialMT-30" x="225.244141"/>
       <use xlink:href="#ArialMT-30" x="280.859375"/>
      </g>
     </g>
    </g>
    <g id="ytick_2">
     <g id="text_4">
      <!-- −10000 -->
      <g style="fill: #262626" transform="translate(28.96 184.589838) scale(0.14 -0.14)">
       <use xlink:href="#ArialMT-2212"/>
       <use xlink:href="#ArialMT-31" x="58.398438"/>
       <use xlink:href="#ArialMT-30" x="114.013672"/>
       <use xlink:href="#ArialMT-30" x="169.628906"/>
       <use xlink:href="#ArialMT-30" x="225.244141"/>
       <use xlink:href="#ArialMT-30" x="280.859375"/>
      </g>
     </g>
    </g>
    <g id="ytick_3">
     <g id="text_5">
      <!-- −5000 -->
      <g style="fill: #262626" transform="translate(36.745313 157.394894) scale(0.14 -0.14)">
       <use xlink:href="#ArialMT-2212"/>
       <use xlink:href="#ArialMT-35" x="58.398438"/>
       <use xlink:href="#ArialMT-30" x="114.013672"/>
       <use xlink:href="#ArialMT-30" x="169.628906"/>
       <use xlink:href="#ArialMT-30" x="225.244141"/>
      </g>
     </g>
    </g>
    <g id="ytick_4">
     <g id="text_6">
      <!-- 0 -->
      <g style="fill: #262626" transform="translate(68.278125 130.199949) scale(0.14 -0.14)">
       <use xlink:href="#ArialMT-30"/>
      </g>
     </g>
    </g>
    <g id="ytick_5">
     <g id="text_7">
      <!-- 5000 -->
      <g style="fill: #262626" transform="translate(44.922188 103.005005) scale(0.14 -0.14)">
       <use xlink:href="#ArialMT-35"/>
       <use xlink:href="#ArialMT-30" x="55.615234"/>
       <use xlink:href="#ArialMT-30" x="111.230469"/>
       <use xlink:href="#ArialMT-30" x="166.845703"/>
      </g>
     </g>
    </g>
    <g id="ytick_6">
     <g id="text_8">
      <!-- 10000 -->
      <g style="fill: #262626" transform="translate(37.136875 75.81006) scale(0.14 -0.14)">
       <use xlink:href="#ArialMT-31"/>
       <use xlink:href="#ArialMT-30" x="55.615234"/>
       <use xlink:href="#ArialMT-30" x="111.230469"/>
       <use xlink:href="#ArialMT-30" x="166.845703"/>
       <use xlink:href="#ArialMT-30" x="222.460938"/>
      </g>
     </g>
    </g>
    <g id="ytick_7">
     <g id="text_9">
      <!-- 15000 -->
      <g style="fill: #262626" transform="translate(37.136875 48.615116) scale(0.14 -0.14)">
       <use xlink:href="#ArialMT-31"/>
       <use xlink:href="#ArialMT-35" x="55.615234"/>
       <use xlink:href="#ArialMT-30" x="111.230469"/>
       <use xlink:href="#ArialMT-30" x="166.845703"/>
       <use xlink:href="#ArialMT-30" x="222.460938"/>
      </g>
     </g>
    </g>
    <g id="ytick_8">
     <g id="text_10">
      <!-- 20000 -->
      <g style="fill: #262626" transform="translate(37.136875 21.420171) scale(0.14 -0.14)">
       <defs>
        <path id="ArialMT-32" d="M 3222 541 
L 3222 0 
L 194 0 
Q 188 203 259 391 
Q 375 700 629 1000 
Q 884 1300 1366 1694 
Q 2113 2306 2375 2664 
Q 2638 3022 2638 3341 
Q 2638 3675 2398 3904 
Q 2159 4134 1775 4134 
Q 1369 4134 1125 3890 
Q 881 3647 878 3216 
L 300 3275 
Q 359 3922 746 4261 
Q 1134 4600 1788 4600 
Q 2447 4600 2831 4234 
Q 3216 3869 3216 3328 
Q 3216 3053 3103 2787 
Q 2991 2522 2730 2228 
Q 2469 1934 1863 1422 
Q 1356 997 1212 845 
Q 1069 694 975 541 
L 3222 541 
z
" transform="scale(0.015625)"/>
       </defs>
       <use xlink:href="#ArialMT-32"/>
       <use xlink:href="#ArialMT-30" x="55.615234"/>
       <use xlink:href="#ArialMT-30" x="111.230469"/>
       <use xlink:href="#ArialMT-30" x="166.845703"/>
       <use xlink:href="#ArialMT-30" x="222.460938"/>
      </g>
     </g>
    </g>
    <g id="text_11">
     <!-- sGMV residuals [mm$^3$] -->
     <g style="fill: #262626" transform="translate(21.76 198.4) rotate(-90) scale(0.16 -0.16)">
      <defs>
       <path id="ArialMT-73" d="M 197 991 
L 753 1078 
Q 800 744 1014 566 
Q 1228 388 1613 388 
Q 2000 388 2187 545 
Q 2375 703 2375 916 
Q 2375 1106 2209 1216 
Q 2094 1291 1634 1406 
Q 1016 1563 777 1677 
Q 538 1791 414 1992 
Q 291 2194 291 2438 
Q 291 2659 392 2848 
Q 494 3038 669 3163 
Q 800 3259 1026 3326 
Q 1253 3394 1513 3394 
Q 1903 3394 2198 3281 
Q 2494 3169 2634 2976 
Q 2775 2784 2828 2463 
L 2278 2388 
Q 2241 2644 2061 2787 
Q 1881 2931 1553 2931 
Q 1166 2931 1000 2803 
Q 834 2675 834 2503 
Q 834 2394 903 2306 
Q 972 2216 1119 2156 
Q 1203 2125 1616 2013 
Q 2213 1853 2448 1751 
Q 2684 1650 2818 1456 
Q 2953 1263 2953 975 
Q 2953 694 2789 445 
Q 2625 197 2315 61 
Q 2006 -75 1616 -75 
Q 969 -75 630 194 
Q 291 463 197 991 
z
" transform="scale(0.015625)"/>
       <path id="ArialMT-47" d="M 2638 1797 
L 2638 2334 
L 4578 2338 
L 4578 638 
Q 4131 281 3656 101 
Q 3181 -78 2681 -78 
Q 2006 -78 1454 211 
Q 903 500 622 1047 
Q 341 1594 341 2269 
Q 341 2938 620 3517 
Q 900 4097 1425 4378 
Q 1950 4659 2634 4659 
Q 3131 4659 3532 4498 
Q 3934 4338 4162 4050 
Q 4391 3763 4509 3300 
L 3963 3150 
Q 3859 3500 3706 3700 
Q 3553 3900 3268 4020 
Q 2984 4141 2638 4141 
Q 2222 4141 1919 4014 
Q 1616 3888 1430 3681 
Q 1244 3475 1141 3228 
Q 966 2803 966 2306 
Q 966 1694 1177 1281 
Q 1388 869 1791 669 
Q 2194 469 2647 469 
Q 3041 469 3416 620 
Q 3791 772 3984 944 
L 3984 1797 
L 2638 1797 
z
" transform="scale(0.015625)"/>
       <path id="ArialMT-4d" d="M 475 0 
L 475 4581 
L 1388 4581 
L 2472 1338 
Q 2622 884 2691 659 
Q 2769 909 2934 1394 
L 4031 4581 
L 4847 4581 
L 4847 0 
L 4263 0 
L 4263 3834 
L 2931 0 
L 2384 0 
L 1059 3900 
L 1059 0 
L 475 0 
z
" transform="scale(0.015625)"/>
       <path id="ArialMT-56" d="M 1803 0 
L 28 4581 
L 684 4581 
L 1875 1253 
Q 2019 853 2116 503 
Q 2222 878 2363 1253 
L 3600 4581 
L 4219 4581 
L 2425 0 
L 1803 0 
z
" transform="scale(0.015625)"/>
       <path id="ArialMT-20" transform="scale(0.015625)"/>
       <path id="ArialMT-69" d="M 425 3934 
L 425 4581 
L 988 4581 
L 988 3934 
L 425 3934 
z
M 425 0 
L 425 3319 
L 988 3319 
L 988 0 
L 425 0 
z
" transform="scale(0.015625)"/>
       <path id="ArialMT-64" d="M 2575 0 
L 2575 419 
Q 2259 -75 1647 -75 
Q 1250 -75 917 144 
Q 584 363 401 755 
Q 219 1147 219 1656 
Q 219 2153 384 2558 
Q 550 2963 881 3178 
Q 1213 3394 1622 3394 
Q 1922 3394 2156 3267 
Q 2391 3141 2538 2938 
L 2538 4581 
L 3097 4581 
L 3097 0 
L 2575 0 
z
M 797 1656 
Q 797 1019 1065 703 
Q 1334 388 1700 388 
Q 2069 388 2326 689 
Q 2584 991 2584 1609 
Q 2584 2291 2321 2609 
Q 2059 2928 1675 2928 
Q 1300 2928 1048 2622 
Q 797 2316 797 1656 
z
" transform="scale(0.015625)"/>
       <path id="ArialMT-61" d="M 2588 409 
Q 2275 144 1986 34 
Q 1697 -75 1366 -75 
Q 819 -75 525 192 
Q 231 459 231 875 
Q 231 1119 342 1320 
Q 453 1522 633 1644 
Q 813 1766 1038 1828 
Q 1203 1872 1538 1913 
Q 2219 1994 2541 2106 
Q 2544 2222 2544 2253 
Q 2544 2597 2384 2738 
Q 2169 2928 1744 2928 
Q 1347 2928 1158 2789 
Q 969 2650 878 2297 
L 328 2372 
Q 403 2725 575 2942 
Q 747 3159 1072 3276 
Q 1397 3394 1825 3394 
Q 2250 3394 2515 3294 
Q 2781 3194 2906 3042 
Q 3031 2891 3081 2659 
Q 3109 2516 3109 2141 
L 3109 1391 
Q 3109 606 3145 398 
Q 3181 191 3288 0 
L 2700 0 
Q 2613 175 2588 409 
z
M 2541 1666 
Q 2234 1541 1622 1453 
Q 1275 1403 1131 1340 
Q 988 1278 909 1158 
Q 831 1038 831 891 
Q 831 666 1001 516 
Q 1172 366 1500 366 
Q 1825 366 2078 508 
Q 2331 650 2450 897 
Q 2541 1088 2541 1459 
L 2541 1666 
z
" transform="scale(0.015625)"/>
       <path id="ArialMT-5b" d="M 434 -1272 
L 434 4581 
L 1675 4581 
L 1675 4116 
L 997 4116 
L 997 -806 
L 1675 -806 
L 1675 -1272 
L 434 -1272 
z
" transform="scale(0.015625)"/>
       <path id="DejaVuSans-33" d="M 2597 2516 
Q 3050 2419 3304 2112 
Q 3559 1806 3559 1356 
Q 3559 666 3084 287 
Q 2609 -91 1734 -91 
Q 1441 -91 1130 -33 
Q 819 25 488 141 
L 488 750 
Q 750 597 1062 519 
Q 1375 441 1716 441 
Q 2309 441 2620 675 
Q 2931 909 2931 1356 
Q 2931 1769 2642 2001 
Q 2353 2234 1838 2234 
L 1294 2234 
L 1294 2753 
L 1863 2753 
Q 2328 2753 2575 2939 
Q 2822 3125 2822 3475 
Q 2822 3834 2567 4026 
Q 2313 4219 1838 4219 
Q 1578 4219 1281 4162 
Q 984 4106 628 3988 
L 628 4550 
Q 988 4650 1302 4700 
Q 1616 4750 1894 4750 
Q 2613 4750 3031 4423 
Q 3450 4097 3450 3541 
Q 3450 3153 3228 2886 
Q 3006 2619 2597 2516 
z
" transform="scale(0.015625)"/>
       <path id="ArialMT-5d" d="M 1363 -1272 
L 122 -1272 
L 122 -806 
L 800 -806 
L 800 4116 
L 122 4116 
L 122 4581 
L 1363 4581 
L 1363 -1272 
z
" transform="scale(0.015625)"/>
      </defs>
      <use xlink:href="#ArialMT-73" transform="translate(0 0.765625)"/>
      <use xlink:href="#ArialMT-47" transform="translate(50 0.765625)"/>
      <use xlink:href="#ArialMT-4d" transform="translate(127.783203 0.765625)"/>
      <use xlink:href="#ArialMT-56" transform="translate(211.083984 0.765625)"/>
      <use xlink:href="#ArialMT-20" transform="translate(277.783203 0.765625)"/>
      <use xlink:href="#ArialMT-72" transform="translate(305.566406 0.765625)"/>
      <use xlink:href="#ArialMT-65" transform="translate(338.867188 0.765625)"/>
      <use xlink:href="#ArialMT-73" transform="translate(394.482422 0.765625)"/>
      <use xlink:href="#ArialMT-69" transform="translate(444.482422 0.765625)"/>
      <use xlink:href="#ArialMT-64" transform="translate(466.699219 0.765625)"/>
      <use xlink:href="#ArialMT-75" transform="translate(522.314453 0.765625)"/>
      <use xlink:href="#ArialMT-61" transform="translate(577.929688 0.765625)"/>
      <use xlink:href="#ArialMT-6c" transform="translate(633.544922 0.765625)"/>
      <use xlink:href="#ArialMT-73" transform="translate(655.761719 0.765625)"/>
      <use xlink:href="#ArialMT-20" transform="translate(705.761719 0.765625)"/>
      <use xlink:href="#ArialMT-5b" transform="translate(733.544922 0.765625)"/>
      <use xlink:href="#ArialMT-6d" transform="translate(761.328125 0.765625)"/>
      <use xlink:href="#ArialMT-6d" transform="translate(844.628906 0.765625)"/>
      <use xlink:href="#DejaVuSans-33" transform="translate(928.886719 39.046875) scale(0.7)"/>
      <use xlink:href="#ArialMT-5d" transform="translate(976.157227 0.765625)"/>
     </g>
    </g>
   </g>
   <g id="PolyCollection_1">
    <defs>
     <path id="m4956d2927c" d="M 126.995236 -39.583437 
L 126.986184 -39.583437 
L 126.979829 -41.619801 
L 126.96976 -43.656165 
L 126.957845 -45.692528 
L 126.947425 -47.728892 
L 126.940621 -49.765256 
L 126.936717 -51.801619 
L 126.932403 -53.837983 
L 126.921033 -55.874347 
L 126.890705 -57.91071 
L 126.826051 -59.947074 
L 126.717367 -61.983437 
L 126.572403 -64.019801 
L 126.416594 -66.056165 
L 126.271786 -68.092528 
L 126.128021 -70.128892 
L 125.939497 -72.165256 
L 125.654692 -74.201619 
L 125.253194 -76.237983 
L 124.754916 -78.274347 
L 124.198581 -80.31071 
L 123.61392 -82.347074 
L 123.005316 -84.383437 
L 122.347497 -86.419801 
L 121.595632 -88.456165 
L 120.713612 -90.492528 
L 119.702794 -92.528892 
L 118.597559 -94.565256 
L 117.420428 -96.601619 
L 116.137137 -98.637983 
L 114.667153 -100.674347 
L 112.964141 -102.71071 
L 111.094606 -104.747074 
L 109.202889 -106.783437 
L 107.377085 -108.819801 
L 105.581936 -110.856165 
L 103.734019 -112.892528 
L 101.808941 -114.928892 
L 99.88698 -116.965256 
L 98.128053 -119.001619 
L 96.668601 -121.037983 
L 95.515145 -123.074347 
L 94.582739 -125.11071 
L 93.840205 -127.147074 
L 93.350949 -129.183437 
L 93.172528 -131.219801 
L 93.282021 -133.256165 
L 93.607462 -135.292528 
L 94.103525 -137.328892 
L 94.793489 -139.365256 
L 95.729458 -141.401619 
L 96.914043 -143.437983 
L 98.294954 -145.474347 
L 99.826324 -147.51071 
L 101.483116 -149.547074 
L 103.224412 -151.583437 
L 104.998072 -153.619801 
L 106.786632 -155.656165 
L 108.611611 -157.692528 
L 110.470809 -159.728892 
L 112.270395 -161.765256 
L 113.842193 -163.801619 
L 115.07053 -165.837983 
L 116.009969 -167.874347 
L 116.846355 -169.91071 
L 117.740222 -171.947074 
L 118.731395 -173.983437 
L 119.77016 -176.019801 
L 120.785541 -178.056165 
L 121.721399 -180.092528 
L 122.552919 -182.128892 
L 123.293697 -184.165256 
L 123.97381 -186.201619 
L 124.598233 -188.237983 
L 125.133988 -190.274347 
L 125.544259 -192.31071 
L 125.827975 -194.347074 
L 126.021331 -196.383437 
L 126.167557 -198.419801 
L 126.291066 -200.456165 
L 126.395266 -202.492528 
L 126.476314 -204.528892 
L 126.536922 -206.565256 
L 126.589364 -208.601619 
L 126.647159 -210.637983 
L 126.715228 -212.674347 
L 126.78717 -214.71071 
L 126.849285 -216.747074 
L 126.88808 -218.783437 
L 126.898528 -220.819801 
L 126.887846 -222.856165 
L 126.871293 -224.892528 
L 126.863355 -226.928892 
L 126.870722 -228.965256 
L 126.891155 -231.001619 
L 126.917668 -233.037983 
L 126.943485 -235.074347 
L 126.964229 -237.11071 
L 126.978138 -239.147074 
L 126.985775 -241.183437 
L 126.995645 -241.183437 
L 126.995645 -241.183437 
L 127.003282 -239.147074 
L 127.017191 -237.11071 
L 127.037936 -235.074347 
L 127.063752 -233.037983 
L 127.090266 -231.001619 
L 127.110698 -228.965256 
L 127.118066 -226.928892 
L 127.110127 -224.892528 
L 127.093575 -222.856165 
L 127.082893 -220.819801 
L 127.093341 -218.783437 
L 127.132135 -216.747074 
L 127.19425 -214.71071 
L 127.266193 -212.674347 
L 127.334261 -210.637983 
L 127.392057 -208.601619 
L 127.444498 -206.565256 
L 127.505107 -204.528892 
L 127.586155 -202.492528 
L 127.690355 -200.456165 
L 127.813864 -198.419801 
L 127.960089 -196.383437 
L 128.153445 -194.347074 
L 128.437162 -192.31071 
L 128.847432 -190.274347 
L 129.383188 -188.237983 
L 130.00761 -186.201619 
L 130.687723 -184.165256 
L 131.428502 -182.128892 
L 132.260021 -180.092528 
L 133.19588 -178.056165 
L 134.21126 -176.019801 
L 135.250025 -173.983437 
L 136.241199 -171.947074 
L 137.135066 -169.91071 
L 137.971451 -167.874347 
L 138.91089 -165.837983 
L 140.139228 -163.801619 
L 141.711025 -161.765256 
L 143.510612 -159.728892 
L 145.369809 -157.692528 
L 147.194788 -155.656165 
L 148.983349 -153.619801 
L 150.757008 -151.583437 
L 152.498305 -149.547074 
L 154.155097 -147.51071 
L 155.686466 -145.474347 
L 157.067377 -143.437983 
L 158.251963 -141.401619 
L 159.187931 -139.365256 
L 159.877896 -137.328892 
L 160.373958 -135.292528 
L 160.699399 -133.256165 
L 160.808892 -131.219801 
L 160.630472 -129.183437 
L 160.141216 -127.147074 
L 159.398681 -125.11071 
L 158.466275 -123.074347 
L 157.31282 -121.037983 
L 155.853368 -119.001619 
L 154.09444 -116.965256 
L 152.172479 -114.928892 
L 150.247402 -112.892528 
L 148.399485 -110.856165 
L 146.604335 -108.819801 
L 144.778531 -106.783437 
L 142.886815 -104.747074 
L 141.01728 -102.71071 
L 139.314267 -100.674347 
L 137.844283 -98.637983 
L 136.560993 -96.601619 
L 135.383862 -94.565256 
L 134.278626 -92.528892 
L 133.267809 -90.492528 
L 132.385788 -88.456165 
L 131.633924 -86.419801 
L 130.976105 -84.383437 
L 130.367501 -82.347074 
L 129.78284 -80.31071 
L 129.226505 -78.274347 
L 128.728226 -76.237983 
L 128.326728 -74.201619 
L 128.041924 -72.165256 
L 127.853399 -70.128892 
L 127.709635 -68.092528 
L 127.564826 -66.056165 
L 127.409017 -64.019801 
L 127.264053 -61.983437 
L 127.155369 -59.947074 
L 127.090715 -57.91071 
L 127.060388 -55.874347 
L 127.049017 -53.837983 
L 127.044704 -51.801619 
L 127.040799 -49.765256 
L 127.033995 -47.728892 
L 127.023575 -45.692528 
L 127.01166 -43.656165 
L 127.001591 -41.619801 
L 126.995236 -39.583437 
z
" style="stroke: #4c4c4c; stroke-width: 0.5"/>
    </defs>
    <g clip-path="url(#p41929a4f76)">
     <use xlink:href="#m4956d2927c" x="0" y="258.463437" style="fill: #5573cd; stroke: #4c4c4c; stroke-width: 0.5"/>
    </g>
   </g>
   <g id="PolyCollection_2">
    <defs>
     <path id="mf402a6d8d9" d="M 211.638815 -52.111765 
L 211.433515 -52.111765 
L 211.379917 -53.746069 
L 211.30493 -55.380373 
L 211.203039 -57.014676 
L 211.068356 -58.64898 
L 210.894856 -60.283284 
L 210.676616 -61.917588 
L 210.408039 -63.551891 
L 210.084087 -65.186195 
L 209.700554 -66.820499 
L 209.254438 -68.454802 
L 208.744472 -70.089106 
L 208.171774 -71.72341 
L 207.540522 -73.357714 
L 206.858408 -74.992017 
L 206.136593 -76.626321 
L 205.388867 -78.260625 
L 204.6299 -79.894929 
L 203.872687 -81.529232 
L 203.12564 -83.163536 
L 202.390001 -84.79784 
L 201.658375 -86.432144 
L 200.915007 -88.066447 
L 200.138067 -89.700751 
L 199.303634 -91.335055 
L 198.390594 -92.969359 
L 197.385263 -94.603662 
L 196.28456 -96.237966 
L 195.096869 -97.87227 
L 193.840308 -99.506574 
L 192.538869 -101.140877 
L 191.217472 -102.775181 
L 189.897316 -104.409485 
L 188.59285 -106.043789 
L 187.311218 -107.678092 
L 186.054321 -109.312396 
L 184.822831 -110.9467 
L 183.620902 -112.581004 
L 182.460048 -114.215307 
L 181.360918 -115.849611 
L 180.352295 -117.483915 
L 179.467539 -119.118219 
L 178.739486 -120.752522 
L 178.195271 -122.386826 
L 177.852541 -124.02113 
L 177.717983 -125.655434 
L 177.788286 -127.289737 
L 178.052828 -128.924041 
L 178.496865 -130.558345 
L 179.103998 -132.192649 
L 179.857159 -133.826952 
L 180.738102 -135.461256 
L 181.726126 -137.09556 
L 182.797078 -138.729864 
L 183.923596 -140.364167 
L 185.077004 -141.998471 
L 186.230502 -143.632775 
L 187.362768 -145.267079 
L 188.460792 -146.901382 
L 189.521045 -148.535686 
L 190.548598 -150.16999 
L 191.5545 -151.804294 
L 192.55218 -153.438597 
L 193.553846 -155.072901 
L 194.567731 -156.707205 
L 195.596631 -158.341509 
L 196.637798 -159.975812 
L 197.683901 -161.610116 
L 198.724577 -163.24442 
L 199.748123 -164.878724 
L 200.742951 -166.513027 
L 201.698641 -168.147331 
L 202.606541 -169.781635 
L 203.460032 -171.415939 
L 204.254576 -173.050242 
L 204.987682 -174.684546 
L 205.658859 -176.31885 
L 206.26953 -177.953154 
L 206.822862 -179.587457 
L 207.323424 -181.221761 
L 207.776671 -182.856065 
L 208.188302 -184.490369 
L 208.563634 -186.124672 
L 208.907125 -187.758976 
L 209.222171 -189.39328 
L 209.511174 -191.027584 
L 209.775811 -192.661887 
L 210.017371 -194.296191 
L 210.237015 -195.930495 
L 210.43589 -197.564799 
L 210.615099 -199.199102 
L 210.775602 -200.833406 
L 210.918127 -202.46771 
L 211.043177 -204.102014 
L 211.151137 -205.736317 
L 211.242453 -207.370621 
L 211.317817 -209.004925 
L 211.378291 -210.639229 
L 211.425332 -212.273532 
L 211.460724 -213.907836 
L 211.611605 -213.907836 
L 211.611605 -213.907836 
L 211.646998 -212.273532 
L 211.694039 -210.639229 
L 211.754512 -209.004925 
L 211.829876 -207.370621 
L 211.921193 -205.736317 
L 212.029153 -204.102014 
L 212.154203 -202.46771 
L 212.296728 -200.833406 
L 212.45723 -199.199102 
L 212.63644 -197.564799 
L 212.835314 -195.930495 
L 213.054958 -194.296191 
L 213.296519 -192.661887 
L 213.561156 -191.027584 
L 213.850158 -189.39328 
L 214.165204 -187.758976 
L 214.508695 -186.124672 
L 214.884027 -184.490369 
L 215.295659 -182.856065 
L 215.748906 -181.221761 
L 216.249468 -179.587457 
L 216.8028 -177.953154 
L 217.413471 -176.31885 
L 218.084647 -174.684546 
L 218.817754 -173.050242 
L 219.612298 -171.415939 
L 220.465789 -169.781635 
L 221.373689 -168.147331 
L 222.329378 -166.513027 
L 223.324207 -164.878724 
L 224.347753 -163.24442 
L 225.388429 -161.610116 
L 226.434531 -159.975812 
L 227.475699 -158.341509 
L 228.504598 -156.707205 
L 229.518483 -155.072901 
L 230.52015 -153.438597 
L 231.517829 -151.804294 
L 232.523732 -150.16999 
L 233.551285 -148.535686 
L 234.611537 -146.901382 
L 235.709562 -145.267079 
L 236.841828 -143.632775 
L 237.995326 -141.998471 
L 239.148733 -140.364167 
L 240.275252 -138.729864 
L 241.346203 -137.09556 
L 242.334227 -135.461256 
L 243.215171 -133.826952 
L 243.968331 -132.192649 
L 244.575465 -130.558345 
L 245.019502 -128.924041 
L 245.284044 -127.289737 
L 245.354347 -125.655434 
L 245.219788 -124.02113 
L 244.877059 -122.386826 
L 244.332844 -120.752522 
L 243.604791 -119.118219 
L 242.720035 -117.483915 
L 241.711411 -115.849611 
L 240.612281 -114.215307 
L 239.451428 -112.581004 
L 238.249498 -110.9467 
L 237.018008 -109.312396 
L 235.761111 -107.678092 
L 234.47948 -106.043789 
L 233.175014 -104.409485 
L 231.854857 -102.775181 
L 230.53346 -101.140877 
L 229.232021 -99.506574 
L 227.97546 -97.87227 
L 226.787769 -96.237966 
L 225.687067 -94.603662 
L 224.681736 -92.969359 
L 223.768696 -91.335055 
L 222.934263 -89.700751 
L 222.157322 -88.066447 
L 221.413955 -86.432144 
L 220.682329 -84.79784 
L 219.94669 -83.163536 
L 219.199642 -81.529232 
L 218.442429 -79.894929 
L 217.683462 -78.260625 
L 216.935737 -76.626321 
L 216.213921 -74.992017 
L 215.531807 -73.357714 
L 214.900555 -71.72341 
L 214.327858 -70.089106 
L 213.817891 -68.454802 
L 213.371776 -66.820499 
L 212.988242 -65.186195 
L 212.664291 -63.551891 
L 212.395714 -61.917588 
L 212.177474 -60.283284 
L 212.003974 -58.64898 
L 211.869291 -57.014676 
L 211.767399 -55.380373 
L 211.692412 -53.746069 
L 211.638815 -52.111765 
z
" style="stroke: #4c4c4c; stroke-width: 0.5"/>
    </defs>
    <g clip-path="url(#p41929a4f76)">
     <use xlink:href="#mf402a6d8d9" x="0" y="258.463437" style="fill: #df8920; stroke: #4c4c4c; stroke-width: 0.5"/>
    </g>
   </g>
   <g id="line2d_1">
    <path d="M 126.99071 186.570804 
L 126.99071 63.789187 
" clip-path="url(#p41929a4f76)" style="fill: none; stroke: #4c4c4c; stroke-width: 0.75; stroke-linecap: round"/>
   </g>
   <g id="line2d_2">
    <path d="M 126.99071 140.601873 
L 126.99071 109.870622 
" clip-path="url(#p41929a4f76)" style="fill: none; stroke: #4c4c4c; stroke-width: 2.25; stroke-linecap: round"/>
   </g>
   <g id="line2d_3">
    <path d="M 126.99071 125.400065 
" clip-path="url(#p41929a4f76)" style="fill: none; stroke: #4c4c4c; stroke-width: 1.5; stroke-linecap: round"/>
    <defs>
     <path id="m916d2c935e" d="M 0.9375 0 
L -0.9375 -0 
" style="stroke: #ffffff; stroke-width: 0.45"/>
    </defs>
    <g clip-path="url(#p41929a4f76)">
     <use xlink:href="#m916d2c935e" x="126.99071" y="125.400065" style="fill: #ffffff; stroke: #ffffff; stroke-width: 0.45"/>
    </g>
   </g>
   <g id="line2d_4">
    <path d="M 211.536165 189.258654 
L 211.536165 72.290668 
" clip-path="url(#p41929a4f76)" style="fill: none; stroke: #4c4c4c; stroke-width: 0.75; stroke-linecap: round"/>
   </g>
   <g id="line2d_5">
    <path d="M 211.536165 148.056913 
L 211.536165 115.748024 
" clip-path="url(#p41929a4f76)" style="fill: none; stroke: #4c4c4c; stroke-width: 2.25; stroke-linecap: round"/>
   </g>
   <g id="line2d_6">
    <path d="M 211.536165 132.068183 
" clip-path="url(#p41929a4f76)" style="fill: none; stroke: #4c4c4c; stroke-width: 1.5; stroke-linecap: round"/>
    <g clip-path="url(#p41929a4f76)">
     <use xlink:href="#m916d2c935e" x="211.536165" y="132.068183" style="fill: #ffffff; stroke: #ffffff; stroke-width: 0.45"/>
    </g>
   </g>
   <g id="line2d_7">
    <path d="M 126.99071 50.483587 
L 126.99071 46.048387 
L 211.536165 46.048387 
L 211.536165 50.483587 
" style="fill: none; stroke: #333333; stroke-width: 0.5; stroke-linecap: round"/>
   </g>
   <g id="patch_3">
    <path d="M 85.563438 228.96 
L 85.563438 7.2 
" style="fill: none; stroke: #262626; stroke-width: 1.25; stroke-linejoin: miter; stroke-linecap: square"/>
   </g>
   <g id="patch_4">
    <path d="M 85.563438 228.96 
L 252.963437 228.96 
" style="fill: none; stroke: #262626; stroke-width: 1.25; stroke-linejoin: miter; stroke-linecap: square"/>
   </g>
   <g id="text_12">
    <!-- *** -->
    <g style="fill: #262626" transform="translate(161.089844 42.265887) scale(0.14 -0.14)">
     <defs>
      <path id="ArialMT-2a" d="M 200 3741 
L 344 4184 
Q 841 4009 1066 3881 
Q 1006 4447 1003 4659 
L 1456 4659 
Q 1447 4350 1384 3884 
Q 1706 4047 2122 4184 
L 2266 3741 
Q 1869 3609 1488 3566 
Q 1678 3400 2025 2975 
L 1650 2709 
Q 1469 2956 1222 3381 
Q 991 2941 816 2709 
L 447 2975 
Q 809 3422 966 3566 
Q 563 3644 200 3741 
z
" transform="scale(0.015625)"/>
     </defs>
     <use xlink:href="#ArialMT-2a"/>
     <use xlink:href="#ArialMT-2a" x="38.916016"/>
     <use xlink:href="#ArialMT-2a" x="77.832031"/>
    </g>
   </g>
  </g>
 </g>
 <defs>
  <clipPath id="p41929a4f76">
   <rect x="85.563438" y="7.2" width="167.4" height="221.76"/>
  </clipPath>
 </defs>
</svg>
