<?xml version="1.0" encoding="utf-8" standalone="no"?>
<!DOCTYPE svg PUBLIC "-//W3C//DTD SVG 1.1//EN"
  "http://www.w3.org/Graphics/SVG/1.1/DTD/svg11.dtd">
<svg xmlns:xlink="http://www.w3.org/1999/xlink" width="239.205156pt" height="255.719844pt" viewBox="0 0 239.205156 255.719844" xmlns="http://www.w3.org/2000/svg" version="1.1">
 <metadata>
  <rdf:RDF xmlns:dc="http://purl.org/dc/elements/1.1/" xmlns:cc="http://creativecommons.org/ns#" xmlns:rdf="http://www.w3.org/1999/02/22-rdf-syntax-ns#">
   <cc:Work>
    <dc:type rdf:resource="http://purl.org/dc/dcmitype/StillImage"/>
    <dc:date>2025-05-13T10:52:06.354513</dc:date>
    <dc:format>image/svg+xml</dc:format>
    <dc:creator>
     <cc:Agent>
      <dc:title>Matplotlib v3.9.2, https://matplotlib.org/</dc:title>
     </cc:Agent>
    </dc:creator>
   </cc:Work>
  </rdf:RDF>
 </metadata>
 <defs>
  <style type="text/css">*{stroke-linejoin: round; stroke-linecap: butt}</style>
 </defs>
 <g id="figure_1">
  <g id="patch_1">
   <path d="M 0 255.719844 
L 239.205156 255.719844 
L 239.205156 0 
L 0 0 
z
" style="fill: #ffffff"/>
  </g>
  <g id="axes_1">
   <g id="patch_2">
    <path d="M 64.605156 228.96 
L 232.005156 228.96 
L 232.005156 7.2 
L 64.605156 7.2 
z
" style="fill: #ffffff"/>
   </g>
   <g id="matplotlib.axis_1">
    <g id="xtick_1">
     <g id="text_1">
      <!-- Term -->
      <g style="fill: #262626" transform="translate(93.813835 246.333594) scale(0.11 -0.11)">
       <defs>
        <path id="ArialMT-54" d="M 1659 0 
L 1659 4041 
L 150 4041 
L 150 4581 
L 3781 4581 
L 3781 4041 
L 2266 4041 
L 2266 0 
L 1659 0 
z
" transform="scale(0.015625)"/>
        <path id="ArialMT-65" d="M 2694 1069 
L 3275 997 
Q 3138 488 2766 206 
Q 2394 -75 1816 -75 
Q 1088 -75 661 373 
Q 234 822 234 1631 
Q 234 2469 665 2931 
Q 1097 3394 1784 3394 
Q 2450 3394 2872 2941 
Q 3294 2488 3294 1666 
Q 3294 1616 3291 1516 
L 816 1516 
Q 847 969 1125 678 
Q 1403 388 1819 388 
Q 2128 388 2347 550 
Q 2566 713 2694 1069 
z
M 847 1978 
L 2700 1978 
Q 2663 2397 2488 2606 
Q 2219 2931 1791 2931 
Q 1403 2931 1139 2672 
Q 875 2413 847 1978 
z
" transform="scale(0.015625)"/>
        <path id="ArialMT-72" d="M 416 0 
L 416 3319 
L 922 3319 
L 922 2816 
Q 1116 3169 1280 3281 
Q 1444 3394 1641 3394 
Q 1925 3394 2219 3213 
L 2025 2691 
Q 1819 2813 1613 2813 
Q 1428 2813 1281 2702 
Q 1134 2591 1072 2394 
Q 978 2094 978 1738 
L 978 0 
L 416 0 
z
" transform="scale(0.015625)"/>
        <path id="ArialMT-6d" d="M 422 0 
L 422 3319 
L 925 3319 
L 925 2853 
Q 1081 3097 1340 3245 
Q 1600 3394 1931 3394 
Q 2300 3394 2536 3241 
Q 2772 3088 2869 2813 
Q 3263 3394 3894 3394 
Q 4388 3394 4653 3120 
Q 4919 2847 4919 2278 
L 4919 0 
L 4359 0 
L 4359 2091 
Q 4359 2428 4304 2576 
Q 4250 2725 4106 2815 
Q 3963 2906 3769 2906 
Q 3419 2906 3187 2673 
Q 2956 2441 2956 1928 
L 2956 0 
L 2394 0 
L 2394 2156 
Q 2394 2531 2256 2718 
Q 2119 2906 1806 2906 
Q 1569 2906 1367 2781 
Q 1166 2656 1075 2415 
Q 984 2175 984 1722 
L 984 0 
L 422 0 
z
" transform="scale(0.015625)"/>
       </defs>
       <use xlink:href="#ArialMT-54"/>
       <use xlink:href="#ArialMT-65" x="49.958984"/>
       <use xlink:href="#ArialMT-72" x="105.574219"/>
       <use xlink:href="#ArialMT-6d" x="138.875"/>
      </g>
     </g>
    </g>
    <g id="xtick_2">
     <g id="text_2">
      <!-- Preterm -->
      <g style="fill: #262626" transform="translate(171.020227 246.333594) scale(0.11 -0.11)">
       <defs>
        <path id="ArialMT-50" d="M 494 0 
L 494 4581 
L 2222 4581 
Q 2678 4581 2919 4538 
Q 3256 4481 3484 4323 
Q 3713 4166 3852 3881 
Q 3991 3597 3991 3256 
Q 3991 2672 3619 2267 
Q 3247 1863 2275 1863 
L 1100 1863 
L 1100 0 
L 494 0 
z
M 1100 2403 
L 2284 2403 
Q 2872 2403 3119 2622 
Q 3366 2841 3366 3238 
Q 3366 3525 3220 3729 
Q 3075 3934 2838 4000 
Q 2684 4041 2272 4041 
L 1100 4041 
L 1100 2403 
z
" transform="scale(0.015625)"/>
        <path id="ArialMT-74" d="M 1650 503 
L 1731 6 
Q 1494 -44 1306 -44 
Q 1000 -44 831 53 
Q 663 150 594 308 
Q 525 466 525 972 
L 525 2881 
L 113 2881 
L 113 3319 
L 525 3319 
L 525 4141 
L 1084 4478 
L 1084 3319 
L 1650 3319 
L 1650 2881 
L 1084 2881 
L 1084 941 
Q 1084 700 1114 631 
Q 1144 563 1211 522 
Q 1278 481 1403 481 
Q 1497 481 1650 503 
z
" transform="scale(0.015625)"/>
       </defs>
       <use xlink:href="#ArialMT-50"/>
       <use xlink:href="#ArialMT-72" x="66.699219"/>
       <use xlink:href="#ArialMT-65" x="100"/>
       <use xlink:href="#ArialMT-74" x="155.615234"/>
       <use xlink:href="#ArialMT-65" x="183.398438"/>
       <use xlink:href="#ArialMT-72" x="239.013672"/>
       <use xlink:href="#ArialMT-6d" x="272.314453"/>
      </g>
     </g>
    </g>
   </g>
   <g id="matplotlib.axis_2">
    <g id="ytick_1">
     <g id="text_3">
      <!-- 45000 -->
      <g style="fill: #262626" transform="translate(24.52 209.815619) scale(0.11 -0.11)">
       <defs>
        <path id="ArialMT-34" d="M 2069 0 
L 2069 1097 
L 81 1097 
L 81 1613 
L 2172 4581 
L 2631 4581 
L 2631 1613 
L 3250 1613 
L 3250 1097 
L 2631 1097 
L 2631 0 
L 2069 0 
z
M 2069 1613 
L 2069 3678 
L 634 1613 
L 2069 1613 
z
" transform="scale(0.015625)"/>
        <path id="ArialMT-35" d="M 266 1200 
L 856 1250 
Q 922 819 1161 601 
Q 1400 384 1738 384 
Q 2144 384 2425 690 
Q 2706 997 2706 1503 
Q 2706 1984 2436 2262 
Q 2166 2541 1728 2541 
Q 1456 2541 1237 2417 
Q 1019 2294 894 2097 
L 366 2166 
L 809 4519 
L 3088 4519 
L 3088 3981 
L 1259 3981 
L 1013 2750 
Q 1425 3038 1878 3038 
Q 2478 3038 2890 2622 
Q 3303 2206 3303 1553 
Q 3303 931 2941 478 
Q 2500 -78 1738 -78 
Q 1113 -78 717 272 
Q 322 622 266 1200 
z
" transform="scale(0.015625)"/>
        <path id="ArialMT-30" d="M 266 2259 
Q 266 3072 433 3567 
Q 600 4063 929 4331 
Q 1259 4600 1759 4600 
Q 2128 4600 2406 4451 
Q 2684 4303 2865 4023 
Q 3047 3744 3150 3342 
Q 3253 2941 3253 2259 
Q 3253 1453 3087 958 
Q 2922 463 2592 192 
Q 2263 -78 1759 -78 
Q 1097 -78 719 397 
Q 266 969 266 2259 
z
M 844 2259 
Q 844 1131 1108 757 
Q 1372 384 1759 384 
Q 2147 384 2411 759 
Q 2675 1134 2675 2259 
Q 2675 3391 2411 3762 
Q 2147 4134 1753 4134 
Q 1366 4134 1134 3806 
Q 844 3388 844 2259 
z
" transform="scale(0.015625)"/>
       </defs>
       <use xlink:href="#ArialMT-34"/>
       <use xlink:href="#ArialMT-35" x="55.615234"/>
       <use xlink:href="#ArialMT-30" x="111.230469"/>
       <use xlink:href="#ArialMT-30" x="166.845703"/>
       <use xlink:href="#ArialMT-30" x="222.460938"/>
      </g>
     </g>
    </g>
    <g id="ytick_2">
     <g id="text_4">
      <!-- 50000 -->
      <g style="fill: #262626" transform="translate(24.52 184.468782) scale(0.11 -0.11)">
       <use xlink:href="#ArialMT-35"/>
       <use xlink:href="#ArialMT-30" x="55.615234"/>
       <use xlink:href="#ArialMT-30" x="111.230469"/>
       <use xlink:href="#ArialMT-30" x="166.845703"/>
       <use xlink:href="#ArialMT-30" x="222.460938"/>
      </g>
     </g>
    </g>
    <g id="ytick_3">
     <g id="text_5">
      <!-- 55000 -->
      <g style="fill: #262626" transform="translate(24.52 159.121945) scale(0.11 -0.11)">
       <use xlink:href="#ArialMT-35"/>
       <use xlink:href="#ArialMT-35" x="55.615234"/>
       <use xlink:href="#ArialMT-30" x="111.230469"/>
       <use xlink:href="#ArialMT-30" x="166.845703"/>
       <use xlink:href="#ArialMT-30" x="222.460938"/>
      </g>
     </g>
    </g>
    <g id="ytick_4">
     <g id="text_6">
      <!-- 60000 -->
      <g style="fill: #262626" transform="translate(24.52 133.775108) scale(0.11 -0.11)">
       <defs>
        <path id="ArialMT-36" d="M 3184 3459 
L 2625 3416 
Q 2550 3747 2413 3897 
Q 2184 4138 1850 4138 
Q 1581 4138 1378 3988 
Q 1113 3794 959 3422 
Q 806 3050 800 2363 
Q 1003 2672 1297 2822 
Q 1591 2972 1913 2972 
Q 2475 2972 2870 2558 
Q 3266 2144 3266 1488 
Q 3266 1056 3080 686 
Q 2894 316 2569 119 
Q 2244 -78 1831 -78 
Q 1128 -78 684 439 
Q 241 956 241 2144 
Q 241 3472 731 4075 
Q 1159 4600 1884 4600 
Q 2425 4600 2770 4297 
Q 3116 3994 3184 3459 
z
M 888 1484 
Q 888 1194 1011 928 
Q 1134 663 1356 523 
Q 1578 384 1822 384 
Q 2178 384 2434 671 
Q 2691 959 2691 1453 
Q 2691 1928 2437 2201 
Q 2184 2475 1800 2475 
Q 1419 2475 1153 2201 
Q 888 1928 888 1484 
z
" transform="scale(0.015625)"/>
       </defs>
       <use xlink:href="#ArialMT-36"/>
       <use xlink:href="#ArialMT-30" x="55.615234"/>
       <use xlink:href="#ArialMT-30" x="111.230469"/>
       <use xlink:href="#ArialMT-30" x="166.845703"/>
       <use xlink:href="#ArialMT-30" x="222.460938"/>
      </g>
     </g>
    </g>
    <g id="ytick_5">
     <g id="text_7">
      <!-- 65000 -->
      <g style="fill: #262626" transform="translate(24.52 108.42827) scale(0.11 -0.11)">
       <use xlink:href="#ArialMT-36"/>
       <use xlink:href="#ArialMT-35" x="55.615234"/>
       <use xlink:href="#ArialMT-30" x="111.230469"/>
       <use xlink:href="#ArialMT-30" x="166.845703"/>
       <use xlink:href="#ArialMT-30" x="222.460938"/>
      </g>
     </g>
    </g>
    <g id="ytick_6">
     <g id="text_8">
      <!-- 70000 -->
      <g style="fill: #262626" transform="translate(24.52 83.081433) scale(0.11 -0.11)">
       <defs>
        <path id="ArialMT-37" d="M 303 3981 
L 303 4522 
L 3269 4522 
L 3269 4084 
Q 2831 3619 2401 2847 
Q 1972 2075 1738 1259 
Q 1569 684 1522 0 
L 944 0 
Q 953 541 1156 1306 
Q 1359 2072 1739 2783 
Q 2119 3494 2547 3981 
L 303 3981 
z
" transform="scale(0.015625)"/>
       </defs>
       <use xlink:href="#ArialMT-37"/>
       <use xlink:href="#ArialMT-30" x="55.615234"/>
       <use xlink:href="#ArialMT-30" x="111.230469"/>
       <use xlink:href="#ArialMT-30" x="166.845703"/>
       <use xlink:href="#ArialMT-30" x="222.460938"/>
      </g>
     </g>
    </g>
    <g id="ytick_7">
     <g id="text_9">
      <!-- 75000 -->
      <g style="fill: #262626" transform="translate(24.52 57.734596) scale(0.11 -0.11)">
       <use xlink:href="#ArialMT-37"/>
       <use xlink:href="#ArialMT-35" x="55.615234"/>
       <use xlink:href="#ArialMT-30" x="111.230469"/>
       <use xlink:href="#ArialMT-30" x="166.845703"/>
       <use xlink:href="#ArialMT-30" x="222.460938"/>
      </g>
     </g>
    </g>
    <g id="ytick_8">
     <g id="text_10">
      <!-- 80000 -->
      <g style="fill: #262626" transform="translate(24.52 32.387759) scale(0.11 -0.11)">
       <defs>
        <path id="ArialMT-38" d="M 1131 2484 
Q 781 2613 612 2850 
Q 444 3088 444 3419 
Q 444 3919 803 4259 
Q 1163 4600 1759 4600 
Q 2359 4600 2725 4251 
Q 3091 3903 3091 3403 
Q 3091 3084 2923 2848 
Q 2756 2613 2416 2484 
Q 2838 2347 3058 2040 
Q 3278 1734 3278 1309 
Q 3278 722 2862 322 
Q 2447 -78 1769 -78 
Q 1091 -78 675 323 
Q 259 725 259 1325 
Q 259 1772 486 2073 
Q 713 2375 1131 2484 
z
M 1019 3438 
Q 1019 3113 1228 2906 
Q 1438 2700 1772 2700 
Q 2097 2700 2305 2904 
Q 2513 3109 2513 3406 
Q 2513 3716 2298 3927 
Q 2084 4138 1766 4138 
Q 1444 4138 1231 3931 
Q 1019 3725 1019 3438 
z
M 838 1322 
Q 838 1081 952 856 
Q 1066 631 1291 507 
Q 1516 384 1775 384 
Q 2178 384 2440 643 
Q 2703 903 2703 1303 
Q 2703 1709 2433 1975 
Q 2163 2241 1756 2241 
Q 1359 2241 1098 1978 
Q 838 1716 838 1322 
z
" transform="scale(0.015625)"/>
       </defs>
       <use xlink:href="#ArialMT-38"/>
       <use xlink:href="#ArialMT-30" x="55.615234"/>
       <use xlink:href="#ArialMT-30" x="111.230469"/>
       <use xlink:href="#ArialMT-30" x="166.845703"/>
       <use xlink:href="#ArialMT-30" x="222.460938"/>
      </g>
     </g>
    </g>
    <g id="text_11">
     <!-- sGMV [mm$^3$] -->
     <g style="fill: #262626" transform="translate(18.12 152.64) rotate(-90) scale(0.12 -0.12)">
      <defs>
       <path id="ArialMT-73" d="M 197 991 
L 753 1078 
Q 800 744 1014 566 
Q 1228 388 1613 388 
Q 2000 388 2187 545 
Q 2375 703 2375 916 
Q 2375 1106 2209 1216 
Q 2094 1291 1634 1406 
Q 1016 1563 777 1677 
Q 538 1791 414 1992 
Q 291 2194 291 2438 
Q 291 2659 392 2848 
Q 494 3038 669 3163 
Q 800 3259 1026 3326 
Q 1253 3394 1513 3394 
Q 1903 3394 2198 3281 
Q 2494 3169 2634 2976 
Q 2775 2784 2828 2463 
L 2278 2388 
Q 2241 2644 2061 2787 
Q 1881 2931 1553 2931 
Q 1166 2931 1000 2803 
Q 834 2675 834 2503 
Q 834 2394 903 2306 
Q 972 2216 1119 2156 
Q 1203 2125 1616 2013 
Q 2213 1853 2448 1751 
Q 2684 1650 2818 1456 
Q 2953 1263 2953 975 
Q 2953 694 2789 445 
Q 2625 197 2315 61 
Q 2006 -75 1616 -75 
Q 969 -75 630 194 
Q 291 463 197 991 
z
" transform="scale(0.015625)"/>
       <path id="ArialMT-47" d="M 2638 1797 
L 2638 2334 
L 4578 2338 
L 4578 638 
Q 4131 281 3656 101 
Q 3181 -78 2681 -78 
Q 2006 -78 1454 211 
Q 903 500 622 1047 
Q 341 1594 341 2269 
Q 341 2938 620 3517 
Q 900 4097 1425 4378 
Q 1950 4659 2634 4659 
Q 3131 4659 3532 4498 
Q 3934 4338 4162 4050 
Q 4391 3763 4509 3300 
L 3963 3150 
Q 3859 3500 3706 3700 
Q 3553 3900 3268 4020 
Q 2984 4141 2638 4141 
Q 2222 4141 1919 4014 
Q 1616 3888 1430 3681 
Q 1244 3475 1141 3228 
Q 966 2803 966 2306 
Q 966 1694 1177 1281 
Q 1388 869 1791 669 
Q 2194 469 2647 469 
Q 3041 469 3416 620 
Q 3791 772 3984 944 
L 3984 1797 
L 2638 1797 
z
" transform="scale(0.015625)"/>
       <path id="ArialMT-4d" d="M 475 0 
L 475 4581 
L 1388 4581 
L 2472 1338 
Q 2622 884 2691 659 
Q 2769 909 2934 1394 
L 4031 4581 
L 4847 4581 
L 4847 0 
L 4263 0 
L 4263 3834 
L 2931 0 
L 2384 0 
L 1059 3900 
L 1059 0 
L 475 0 
z
" transform="scale(0.015625)"/>
       <path id="ArialMT-56" d="M 1803 0 
L 28 4581 
L 684 4581 
L 1875 1253 
Q 2019 853 2116 503 
Q 2222 878 2363 1253 
L 3600 4581 
L 4219 4581 
L 2425 0 
L 1803 0 
z
" transform="scale(0.015625)"/>
       <path id="ArialMT-20" transform="scale(0.015625)"/>
       <path id="ArialMT-5b" d="M 434 -1272 
L 434 4581 
L 1675 4581 
L 1675 4116 
L 997 4116 
L 997 -806 
L 1675 -806 
L 1675 -1272 
L 434 -1272 
z
" transform="scale(0.015625)"/>
       <path id="DejaVuSans-33" d="M 2597 2516 
Q 3050 2419 3304 2112 
Q 3559 1806 3559 1356 
Q 3559 666 3084 287 
Q 2609 -91 1734 -91 
Q 1441 -91 1130 -33 
Q 819 25 488 141 
L 488 750 
Q 750 597 1062 519 
Q 1375 441 1716 441 
Q 2309 441 2620 675 
Q 2931 909 2931 1356 
Q 2931 1769 2642 2001 
Q 2353 2234 1838 2234 
L 1294 2234 
L 1294 2753 
L 1863 2753 
Q 2328 2753 2575 2939 
Q 2822 3125 2822 3475 
Q 2822 3834 2567 4026 
Q 2313 4219 1838 4219 
Q 1578 4219 1281 4162 
Q 984 4106 628 3988 
L 628 4550 
Q 988 4650 1302 4700 
Q 1616 4750 1894 4750 
Q 2613 4750 3031 4423 
Q 3450 4097 3450 3541 
Q 3450 3153 3228 2886 
Q 3006 2619 2597 2516 
z
" transform="scale(0.015625)"/>
       <path id="ArialMT-5d" d="M 1363 -1272 
L 122 -1272 
L 122 -806 
L 800 -806 
L 800 4116 
L 122 4116 
L 122 4581 
L 1363 4581 
L 1363 -1272 
z
" transform="scale(0.015625)"/>
      </defs>
      <use xlink:href="#ArialMT-73" transform="translate(0 0.765625)"/>
      <use xlink:href="#ArialMT-47" transform="translate(50 0.765625)"/>
      <use xlink:href="#ArialMT-4d" transform="translate(127.783203 0.765625)"/>
      <use xlink:href="#ArialMT-56" transform="translate(211.083984 0.765625)"/>
      <use xlink:href="#ArialMT-20" transform="translate(277.783203 0.765625)"/>
      <use xlink:href="#ArialMT-5b" transform="translate(305.566406 0.765625)"/>
      <use xlink:href="#ArialMT-6d" transform="translate(333.349609 0.765625)"/>
      <use xlink:href="#ArialMT-6d" transform="translate(416.650391 0.765625)"/>
      <use xlink:href="#DejaVuSans-33" transform="translate(500.908203 39.046875) scale(0.7)"/>
      <use xlink:href="#ArialMT-5d" transform="translate(548.178711 0.765625)"/>
     </g>
    </g>
   </g>
   <g id="PolyCollection_1">
    <defs>
     <path id="m1238c6b22d" d="M 106.038292 -36.839844 
L 106.026566 -36.839844 
L 106.018263 -38.876207 
L 106.003574 -40.912571 
L 105.981779 -42.948935 
L 105.953349 -44.985298 
L 105.918243 -47.021662 
L 105.87437 -49.058026 
L 105.818511 -51.094389 
L 105.748718 -53.130753 
L 105.664575 -55.167116 
L 105.564994 -57.20348 
L 105.448035 -59.239844 
L 105.313957 -61.276207 
L 105.164039 -63.312571 
L 104.99033 -65.348935 
L 104.765687 -67.385298 
L 104.447577 -69.421662 
L 103.996117 -71.458026 
L 103.394225 -73.494389 
L 102.655259 -75.530753 
L 101.809651 -77.567116 
L 100.876492 -79.60348 
L 99.838576 -81.639844 
L 98.640609 -83.676207 
L 97.224985 -85.712571 
L 95.595136 -87.748935 
L 93.849355 -89.785298 
L 92.127513 -91.821662 
L 90.504107 -93.858026 
L 88.938334 -95.894389 
L 87.33569 -97.930753 
L 85.651088 -99.967116 
L 83.929682 -102.00348 
L 82.264686 -104.039844 
L 80.733509 -106.076207 
L 79.365982 -108.112571 
L 78.141553 -110.148935 
L 77.000542 -112.185298 
L 75.884528 -114.221662 
L 74.798576 -116.258026 
L 73.827946 -118.294389 
L 73.071451 -120.330753 
L 72.563426 -122.367116 
L 72.280426 -124.40348 
L 72.214247 -126.439844 
L 72.402801 -128.476207 
L 72.88474 -130.512571 
L 73.664755 -132.548935 
L 74.742738 -134.585298 
L 76.131673 -136.621662 
L 77.794792 -138.658026 
L 79.576753 -140.694389 
L 81.254158 -142.730753 
L 82.691571 -144.767116 
L 83.942984 -146.80348 
L 85.181842 -148.839844 
L 86.531271 -150.876207 
L 87.975979 -152.912571 
L 89.43286 -154.948935 
L 90.866414 -156.985298 
L 92.301723 -159.021662 
L 93.742665 -161.058026 
L 95.123035 -163.094389 
L 96.354316 -165.130753 
L 97.402637 -167.167116 
L 98.306174 -169.20348 
L 99.131101 -171.239844 
L 99.927428 -173.276207 
L 100.719406 -175.312571 
L 101.511658 -177.348935 
L 102.287014 -179.385298 
L 103.004209 -181.421662 
L 103.615034 -183.458026 
L 104.094126 -185.494389 
L 104.452843 -187.530753 
L 104.725886 -189.567116 
L 104.948163 -191.60348 
L 105.140912 -193.639844 
L 105.309626 -195.676207 
L 105.448768 -197.712571 
L 105.550303 -199.748935 
L 105.61325 -201.785298 
L 105.649006 -203.821662 
L 105.677925 -205.858026 
L 105.718489 -207.894389 
L 105.77653 -209.930753 
L 105.842222 -211.967116 
L 105.896761 -214.00348 
L 105.924285 -216.039844 
L 105.921771 -218.076207 
L 105.900912 -220.112571 
L 105.88075 -222.148935 
L 105.876181 -224.185298 
L 105.890829 -226.221662 
L 105.918723 -228.258026 
L 105.9509 -230.294389 
L 105.980335 -232.330753 
L 106.003149 -234.367116 
L 106.018225 -236.40348 
L 106.026593 -238.439844 
L 106.038265 -238.439844 
L 106.038265 -238.439844 
L 106.046632 -236.40348 
L 106.061709 -234.367116 
L 106.084523 -232.330753 
L 106.113958 -230.294389 
L 106.146135 -228.258026 
L 106.174029 -226.221662 
L 106.188677 -224.185298 
L 106.184108 -222.148935 
L 106.163946 -220.112571 
L 106.143087 -218.076207 
L 106.140573 -216.039844 
L 106.168097 -214.00348 
L 106.222636 -211.967116 
L 106.288328 -209.930753 
L 106.346369 -207.894389 
L 106.386932 -205.858026 
L 106.415852 -203.821662 
L 106.451608 -201.785298 
L 106.514555 -199.748935 
L 106.61609 -197.712571 
L 106.755232 -195.676207 
L 106.923946 -193.639844 
L 107.116695 -191.60348 
L 107.338972 -189.567116 
L 107.612015 -187.530753 
L 107.970732 -185.494389 
L 108.449824 -183.458026 
L 109.060649 -181.421662 
L 109.777844 -179.385298 
L 110.5532 -177.348935 
L 111.345452 -175.312571 
L 112.13743 -173.276207 
L 112.933757 -171.239844 
L 113.758684 -169.20348 
L 114.662221 -167.167116 
L 115.710542 -165.130753 
L 116.941823 -163.094389 
L 118.322193 -161.058026 
L 119.763135 -159.021662 
L 121.198444 -156.985298 
L 122.631998 -154.948935 
L 124.088879 -152.912571 
L 125.533587 -150.876207 
L 126.883016 -148.839844 
L 128.121874 -146.80348 
L 129.373287 -144.767116 
L 130.8107 -142.730753 
L 132.488105 -140.694389 
L 134.270066 -138.658026 
L 135.933185 -136.621662 
L 137.32212 -134.585298 
L 138.400103 -132.548935 
L 139.180118 -130.512571 
L 139.662057 -128.476207 
L 139.850611 -126.439844 
L 139.784432 -124.40348 
L 139.501432 -122.367116 
L 138.993407 -120.330753 
L 138.236912 -118.294389 
L 137.266282 -116.258026 
L 136.18033 -114.221662 
L 135.064316 -112.185298 
L 133.923305 -110.148935 
L 132.698876 -108.112571 
L 131.331349 -106.076207 
L 129.800172 -104.039844 
L 128.135176 -102.00348 
L 126.41377 -99.967116 
L 124.729168 -97.930753 
L 123.126524 -95.894389 
L 121.560751 -93.858026 
L 119.937345 -91.821662 
L 118.215503 -89.785298 
L 116.469722 -87.748935 
L 114.839873 -85.712571 
L 113.424249 -83.676207 
L 112.226282 -81.639844 
L 111.188366 -79.60348 
L 110.255207 -77.567116 
L 109.409599 -75.530753 
L 108.670633 -73.494389 
L 108.068741 -71.458026 
L 107.617281 -69.421662 
L 107.299171 -67.385298 
L 107.074528 -65.348935 
L 106.900819 -63.312571 
L 106.750901 -61.276207 
L 106.616823 -59.239844 
L 106.499864 -57.20348 
L 106.400283 -55.167116 
L 106.31614 -53.130753 
L 106.246347 -51.094389 
L 106.190488 -49.058026 
L 106.146615 -47.021662 
L 106.111509 -44.985298 
L 106.083079 -42.948935 
L 106.061284 -40.912571 
L 106.046595 -38.876207 
L 106.038292 -36.839844 
z
" style="stroke: #4c4c4c; stroke-width: 0.5"/>
    </defs>
    <g clip-path="url(#p9f8255b523)">
     <use xlink:href="#m1238c6b22d" x="0" y="255.719844" style="fill: #5573cd; stroke: #4c4c4c; stroke-width: 0.5"/>
    </g>
   </g>
   <g id="PolyCollection_2">
    <defs>
     <path id="m81dc39ac31" d="M 190.803348 -52.124676 
L 190.352419 -52.124676 
L 190.257119 -53.589356 
L 190.130865 -55.054037 
L 189.967238 -56.518717 
L 189.759597 -57.983397 
L 189.501347 -59.448077 
L 189.186205 -60.912757 
L 188.808451 -62.377437 
L 188.363151 -63.842117 
L 187.846358 -65.306798 
L 187.255311 -66.771478 
L 186.588677 -68.236158 
L 185.846848 -69.700838 
L 185.032331 -71.165518 
L 184.150189 -72.630198 
L 183.208476 -74.094878 
L 182.218537 -75.559559 
L 181.195053 -77.024239 
L 180.155674 -78.488919 
L 179.120159 -79.953599 
L 178.109003 -81.418279 
L 177.141635 -82.882959 
L 176.234396 -84.347639 
L 175.398557 -85.81232 
L 174.638699 -87.277 
L 173.951759 -88.74168 
L 173.326914 -90.20636 
L 172.74641 -91.67104 
L 172.187238 -93.13572 
L 171.623446 -94.600401 
L 171.02878 -96.065081 
L 170.379311 -97.529761 
L 169.655734 -98.994441 
L 168.845125 -100.459121 
L 167.942031 -101.923801 
L 166.948914 -103.388481 
L 165.876013 -104.853162 
L 164.74078 -106.317842 
L 163.567012 -107.782522 
L 162.383793 -109.247202 
L 161.224319 -110.711882 
L 160.124594 -112.176562 
L 159.122005 -113.641242 
L 158.253737 -115.105923 
L 157.555027 -116.570603 
L 157.057277 -118.035283 
L 156.786142 -119.499963 
L 156.759702 -120.964643 
L 156.98693 -122.429323 
L 157.466631 -123.894003 
L 158.187023 -125.358684 
L 159.126078 -126.823364 
L 160.252634 -128.288044 
L 161.528204 -129.752724 
L 162.909318 -131.217404 
L 164.350186 -132.682084 
L 165.805406 -134.146764 
L 167.23251 -135.611445 
L 168.594136 -137.076125 
L 169.859705 -138.540805 
L 171.006521 -140.005485 
L 172.020291 -141.470165 
L 172.895095 -142.934845 
L 173.632859 -144.399525 
L 174.242444 -145.864206 
L 174.738442 -147.328886 
L 175.1398 -148.793566 
L 175.468386 -150.258246 
L 175.74759 -151.722926 
L 176.001033 -153.187606 
L 176.251434 -154.652286 
L 176.519623 -156.116967 
L 176.823731 -157.581647 
L 177.178517 -159.046327 
L 177.594855 -160.511007 
L 178.079383 -161.975687 
L 178.634347 -163.440367 
L 179.257668 -164.905048 
L 179.943251 -166.369728 
L 180.681526 -167.834408 
L 181.460185 -169.299088 
L 182.265053 -170.763768 
L 183.081015 -172.228448 
L 183.892905 -173.693128 
L 184.686306 -175.157809 
L 185.4482 -176.622489 
L 186.167448 -178.087169 
L 186.835104 -179.551849 
L 187.444579 -181.016529 
L 187.991664 -182.481209 
L 188.474453 -183.945889 
L 188.893166 -185.41057 
L 189.2499 -186.87525 
L 189.548317 -188.33993 
L 189.793291 -189.80461 
L 189.990528 -191.26929 
L 190.146192 -192.73397 
L 190.266553 -194.19865 
L 190.357684 -195.663331 
L 190.425216 -197.128011 
L 190.730551 -197.128011 
L 190.730551 -197.128011 
L 190.798083 -195.663331 
L 190.889214 -194.19865 
L 191.009575 -192.73397 
L 191.16524 -191.26929 
L 191.362476 -189.80461 
L 191.60745 -188.33993 
L 191.905867 -186.87525 
L 192.262601 -185.41057 
L 192.681314 -183.945889 
L 193.164103 -182.481209 
L 193.711188 -181.016529 
L 194.320663 -179.551849 
L 194.988319 -178.087169 
L 195.707567 -176.622489 
L 196.469461 -175.157809 
L 197.262862 -173.693128 
L 198.074752 -172.228448 
L 198.890714 -170.763768 
L 199.695582 -169.299088 
L 200.474241 -167.834408 
L 201.212516 -166.369728 
L 201.898099 -164.905048 
L 202.52142 -163.440367 
L 203.076384 -161.975687 
L 203.560912 -160.511007 
L 203.97725 -159.046327 
L 204.332036 -157.581647 
L 204.636144 -156.116967 
L 204.904333 -154.652286 
L 205.154734 -153.187606 
L 205.408178 -151.722926 
L 205.687381 -150.258246 
L 206.015967 -148.793566 
L 206.417325 -147.328886 
L 206.913323 -145.864206 
L 207.522908 -144.399525 
L 208.260672 -142.934845 
L 209.135476 -141.470165 
L 210.149246 -140.005485 
L 211.296062 -138.540805 
L 212.561631 -137.076125 
L 213.923257 -135.611445 
L 215.350361 -134.146764 
L 216.805581 -132.682084 
L 218.246449 -131.217404 
L 219.627563 -129.752724 
L 220.903133 -128.288044 
L 222.029689 -126.823364 
L 222.968744 -125.358684 
L 223.689136 -123.894003 
L 224.168837 -122.429323 
L 224.396065 -120.964643 
L 224.369626 -119.499963 
L 224.09849 -118.035283 
L 223.600741 -116.570603 
L 222.90203 -115.105923 
L 222.033762 -113.641242 
L 221.031173 -112.176562 
L 219.931448 -110.711882 
L 218.771974 -109.247202 
L 217.588756 -107.782522 
L 216.414987 -106.317842 
L 215.279754 -104.853162 
L 214.206853 -103.388481 
L 213.213736 -101.923801 
L 212.310642 -100.459121 
L 211.500033 -98.994441 
L 210.776456 -97.529761 
L 210.126987 -96.065081 
L 209.532321 -94.600401 
L 208.968529 -93.13572 
L 208.409357 -91.67104 
L 207.828853 -90.20636 
L 207.204008 -88.74168 
L 206.517068 -87.277 
L 205.757211 -85.81232 
L 204.921371 -84.347639 
L 204.014132 -82.882959 
L 203.046764 -81.418279 
L 202.035608 -79.953599 
L 201.000094 -78.488919 
L 199.960715 -77.024239 
L 198.93723 -75.559559 
L 197.947291 -74.094878 
L 197.005578 -72.630198 
L 196.123436 -71.165518 
L 195.308919 -69.700838 
L 194.56709 -68.236158 
L 193.900456 -66.771478 
L 193.309409 -65.306798 
L 192.792616 -63.842117 
L 192.347316 -62.377437 
L 191.969562 -60.912757 
L 191.65442 -59.448077 
L 191.39617 -57.983397 
L 191.188529 -56.518717 
L 191.024902 -55.054037 
L 190.898648 -53.589356 
L 190.803348 -52.124676 
z
" style="stroke: #4c4c4c; stroke-width: 0.5"/>
    </defs>
    <g clip-path="url(#p9f8255b523)">
     <use xlink:href="#m81dc39ac31" x="0" y="255.719844" style="fill: #df8920; stroke: #4c4c4c; stroke-width: 0.5"/>
    </g>
   </g>
   <g id="line2d_1">
    <path d="M 106.032429 193.999574 
L 106.032429 64.847075 
" clip-path="url(#p9f8255b523)" style="fill: none; stroke: #4c4c4c; stroke-width: 0.75; stroke-linecap: round"/>
   </g>
   <g id="line2d_2">
    <path d="M 106.032429 146.269438 
L 106.032429 113.333377 
" clip-path="url(#p9f8255b523)" style="fill: none; stroke: #4c4c4c; stroke-width: 2.25; stroke-linecap: round"/>
   </g>
   <g id="line2d_3">
    <path d="M 106.032429 129.713747 
" clip-path="url(#p9f8255b523)" style="fill: none; stroke: #4c4c4c; stroke-width: 1.5; stroke-linecap: round"/>
    <defs>
     <path id="m395e211d0c" d="M 0.9375 0 
L -0.9375 -0 
" style="stroke: #ffffff; stroke-width: 0.45"/>
    </defs>
    <g clip-path="url(#p9f8255b523)">
     <use xlink:href="#m395e211d0c" x="106.032429" y="129.713747" style="fill: #ffffff; stroke: #ffffff; stroke-width: 0.45"/>
    </g>
   </g>
   <g id="line2d_4">
    <path d="M 190.577884 185.267823 
L 190.577884 76.919177 
" clip-path="url(#p9f8255b523)" style="fill: none; stroke: #4c4c4c; stroke-width: 0.75; stroke-linecap: round"/>
   </g>
   <g id="line2d_5">
    <path d="M 190.577884 151.833078 
L 190.577884 118.733474 
" clip-path="url(#p9f8255b523)" style="fill: none; stroke: #4c4c4c; stroke-width: 2.25; stroke-linecap: round"/>
   </g>
   <g id="line2d_6">
    <path d="M 190.577884 134.717205 
" clip-path="url(#p9f8255b523)" style="fill: none; stroke: #4c4c4c; stroke-width: 1.5; stroke-linecap: round"/>
    <g clip-path="url(#p9f8255b523)">
     <use xlink:href="#m395e211d0c" x="190.577884" y="134.717205" style="fill: #ffffff; stroke: #ffffff; stroke-width: 0.45"/>
    </g>
   </g>
   <g id="line2d_7">
    <path d="M 106.032429 51.541475 
L 106.032429 47.106275 
L 190.577884 47.106275 
L 190.577884 51.541475 
" style="fill: none; stroke: #333333; stroke-width: 0.5; stroke-linecap: round"/>
   </g>
   <g id="patch_3">
    <path d="M 64.605156 228.96 
L 64.605156 7.2 
" style="fill: none; stroke: #262626; stroke-width: 1.25; stroke-linejoin: miter; stroke-linecap: square"/>
   </g>
   <g id="patch_4">
    <path d="M 64.605156 228.96 
L 232.005156 228.96 
" style="fill: none; stroke: #262626; stroke-width: 1.25; stroke-linejoin: miter; stroke-linecap: square"/>
   </g>
   <g id="text_12">
    <!-- * -->
    <g style="fill: #262626" transform="translate(145.969844 43.721275) scale(0.12 -0.12)">
     <defs>
      <path id="ArialMT-2a" d="M 200 3741 
L 344 4184 
Q 841 4009 1066 3881 
Q 1006 4447 1003 4659 
L 1456 4659 
Q 1447 4350 1384 3884 
Q 1706 4047 2122 4184 
L 2266 3741 
Q 1869 3609 1488 3566 
Q 1678 3400 2025 2975 
L 1650 2709 
Q 1469 2956 1222 3381 
Q 991 2941 816 2709 
L 447 2975 
Q 809 3422 966 3566 
Q 563 3644 200 3741 
z
" transform="scale(0.015625)"/>
     </defs>
     <use xlink:href="#ArialMT-2a"/>
    </g>
   </g>
  </g>
 </g>
 <defs>
  <clipPath id="p9f8255b523">
   <rect x="64.605156" y="7.2" width="167.4" height="221.76"/>
  </clipPath>
 </defs>
</svg>
