<?xml version="1.0" encoding="utf-8" standalone="no"?>
<!DOCTYPE svg PUBLIC "-//W3C//DTD SVG 1.1//EN"
  "http://www.w3.org/Graphics/SVG/1.1/DTD/svg11.dtd">
<svg xmlns:xlink="http://www.w3.org/1999/xlink" width="230.334688pt" height="255.719844pt" viewBox="0 0 230.334688 255.719844" xmlns="http://www.w3.org/2000/svg" version="1.1">
 <metadata>
  <rdf:RDF xmlns:dc="http://purl.org/dc/elements/1.1/" xmlns:cc="http://creativecommons.org/ns#" xmlns:rdf="http://www.w3.org/1999/02/22-rdf-syntax-ns#">
   <cc:Work>
    <dc:type rdf:resource="http://purl.org/dc/dcmitype/StillImage"/>
    <dc:date>2025-06-10T15:36:49.645948</dc:date>
    <dc:format>image/svg+xml</dc:format>
    <dc:creator>
     <cc:Agent>
      <dc:title>Matplotlib v3.9.2, https://matplotlib.org/</dc:title>
     </cc:Agent>
    </dc:creator>
   </cc:Work>
  </rdf:RDF>
 </metadata>
 <defs>
  <style type="text/css">*{stroke-linejoin: round; stroke-linecap: butt}</style>
 </defs>
 <g id="figure_1">
  <g id="patch_1">
   <path d="M 0 255.719844 
L 230.334688 255.719844 
L 230.334688 0 
L 0 0 
z
" style="fill: #ffffff"/>
  </g>
  <g id="axes_1">
   <g id="patch_2">
    <path d="M 55.734688 228.96 
L 223.134688 228.96 
L 223.134688 7.2 
L 55.734688 7.2 
z
" style="fill: #ffffff"/>
   </g>
   <g id="matplotlib.axis_1">
    <g id="xtick_1">
     <g id="text_1">
      <!-- Term -->
      <g style="fill: #262626" transform="translate(84.943366 246.333594) scale(0.11 -0.11)">
       <defs>
        <path id="ArialMT-54" d="M 1659 0 
L 1659 4041 
L 150 4041 
L 150 4581 
L 3781 4581 
L 3781 4041 
L 2266 4041 
L 2266 0 
L 1659 0 
z
" transform="scale(0.015625)"/>
        <path id="ArialMT-65" d="M 2694 1069 
L 3275 997 
Q 3138 488 2766 206 
Q 2394 -75 1816 -75 
Q 1088 -75 661 373 
Q 234 822 234 1631 
Q 234 2469 665 2931 
Q 1097 3394 1784 3394 
Q 2450 3394 2872 2941 
Q 3294 2488 3294 1666 
Q 3294 1616 3291 1516 
L 816 1516 
Q 847 969 1125 678 
Q 1403 388 1819 388 
Q 2128 388 2347 550 
Q 2566 713 2694 1069 
z
M 847 1978 
L 2700 1978 
Q 2663 2397 2488 2606 
Q 2219 2931 1791 2931 
Q 1403 2931 1139 2672 
Q 875 2413 847 1978 
z
" transform="scale(0.015625)"/>
        <path id="ArialMT-72" d="M 416 0 
L 416 3319 
L 922 3319 
L 922 2816 
Q 1116 3169 1280 3281 
Q 1444 3394 1641 3394 
Q 1925 3394 2219 3213 
L 2025 2691 
Q 1819 2813 1613 2813 
Q 1428 2813 1281 2702 
Q 1134 2591 1072 2394 
Q 978 2094 978 1738 
L 978 0 
L 416 0 
z
" transform="scale(0.015625)"/>
        <path id="ArialMT-6d" d="M 422 0 
L 422 3319 
L 925 3319 
L 925 2853 
Q 1081 3097 1340 3245 
Q 1600 3394 1931 3394 
Q 2300 3394 2536 3241 
Q 2772 3088 2869 2813 
Q 3263 3394 3894 3394 
Q 4388 3394 4653 3120 
Q 4919 2847 4919 2278 
L 4919 0 
L 4359 0 
L 4359 2091 
Q 4359 2428 4304 2576 
Q 4250 2725 4106 2815 
Q 3963 2906 3769 2906 
Q 3419 2906 3187 2673 
Q 2956 2441 2956 1928 
L 2956 0 
L 2394 0 
L 2394 2156 
Q 2394 2531 2256 2718 
Q 2119 2906 1806 2906 
Q 1569 2906 1367 2781 
Q 1166 2656 1075 2415 
Q 984 2175 984 1722 
L 984 0 
L 422 0 
z
" transform="scale(0.015625)"/>
       </defs>
       <use xlink:href="#ArialMT-54"/>
       <use xlink:href="#ArialMT-65" x="49.958984"/>
       <use xlink:href="#ArialMT-72" x="105.574219"/>
       <use xlink:href="#ArialMT-6d" x="138.875"/>
      </g>
     </g>
    </g>
    <g id="xtick_2">
     <g id="text_2">
      <!-- Preterm -->
      <g style="fill: #262626" transform="translate(162.149759 246.333594) scale(0.11 -0.11)">
       <defs>
        <path id="ArialMT-50" d="M 494 0 
L 494 4581 
L 2222 4581 
Q 2678 4581 2919 4538 
Q 3256 4481 3484 4323 
Q 3713 4166 3852 3881 
Q 3991 3597 3991 3256 
Q 3991 2672 3619 2267 
Q 3247 1863 2275 1863 
L 1100 1863 
L 1100 0 
L 494 0 
z
M 1100 2403 
L 2284 2403 
Q 2872 2403 3119 2622 
Q 3366 2841 3366 3238 
Q 3366 3525 3220 3729 
Q 3075 3934 2838 4000 
Q 2684 4041 2272 4041 
L 1100 4041 
L 1100 2403 
z
" transform="scale(0.015625)"/>
        <path id="ArialMT-74" d="M 1650 503 
L 1731 6 
Q 1494 -44 1306 -44 
Q 1000 -44 831 53 
Q 663 150 594 308 
Q 525 466 525 972 
L 525 2881 
L 113 2881 
L 113 3319 
L 525 3319 
L 525 4141 
L 1084 4478 
L 1084 3319 
L 1650 3319 
L 1650 2881 
L 1084 2881 
L 1084 941 
Q 1084 700 1114 631 
Q 1144 563 1211 522 
Q 1278 481 1403 481 
Q 1497 481 1650 503 
z
" transform="scale(0.015625)"/>
       </defs>
       <use xlink:href="#ArialMT-50"/>
       <use xlink:href="#ArialMT-72" x="66.699219"/>
       <use xlink:href="#ArialMT-65" x="100"/>
       <use xlink:href="#ArialMT-74" x="155.615234"/>
       <use xlink:href="#ArialMT-65" x="183.398438"/>
       <use xlink:href="#ArialMT-72" x="239.013672"/>
       <use xlink:href="#ArialMT-6d" x="272.314453"/>
      </g>
     </g>
    </g>
   </g>
   <g id="matplotlib.axis_2">
    <g id="ytick_1">
     <g id="text_3">
      <!-- −0.3 -->
      <g style="fill: #262626" transform="translate(24.52 206.568787) scale(0.11 -0.11)">
       <defs>
        <path id="ArialMT-2212" d="M 3381 1997 
L 356 1997 
L 356 2522 
L 3381 2522 
L 3381 1997 
z
" transform="scale(0.015625)"/>
        <path id="ArialMT-30" d="M 266 2259 
Q 266 3072 433 3567 
Q 600 4063 929 4331 
Q 1259 4600 1759 4600 
Q 2128 4600 2406 4451 
Q 2684 4303 2865 4023 
Q 3047 3744 3150 3342 
Q 3253 2941 3253 2259 
Q 3253 1453 3087 958 
Q 2922 463 2592 192 
Q 2263 -78 1759 -78 
Q 1097 -78 719 397 
Q 266 969 266 2259 
z
M 844 2259 
Q 844 1131 1108 757 
Q 1372 384 1759 384 
Q 2147 384 2411 759 
Q 2675 1134 2675 2259 
Q 2675 3391 2411 3762 
Q 2147 4134 1753 4134 
Q 1366 4134 1134 3806 
Q 844 3388 844 2259 
z
" transform="scale(0.015625)"/>
        <path id="ArialMT-2e" d="M 581 0 
L 581 641 
L 1222 641 
L 1222 0 
L 581 0 
z
" transform="scale(0.015625)"/>
        <path id="ArialMT-33" d="M 269 1209 
L 831 1284 
Q 928 806 1161 595 
Q 1394 384 1728 384 
Q 2125 384 2398 659 
Q 2672 934 2672 1341 
Q 2672 1728 2419 1979 
Q 2166 2231 1775 2231 
Q 1616 2231 1378 2169 
L 1441 2663 
Q 1497 2656 1531 2656 
Q 1891 2656 2178 2843 
Q 2466 3031 2466 3422 
Q 2466 3731 2256 3934 
Q 2047 4138 1716 4138 
Q 1388 4138 1169 3931 
Q 950 3725 888 3313 
L 325 3413 
Q 428 3978 793 4289 
Q 1159 4600 1703 4600 
Q 2078 4600 2393 4439 
Q 2709 4278 2876 4000 
Q 3044 3722 3044 3409 
Q 3044 3113 2884 2869 
Q 2725 2625 2413 2481 
Q 2819 2388 3044 2092 
Q 3269 1797 3269 1353 
Q 3269 753 2831 336 
Q 2394 -81 1725 -81 
Q 1122 -81 723 278 
Q 325 638 269 1209 
z
" transform="scale(0.015625)"/>
       </defs>
       <use xlink:href="#ArialMT-2212"/>
       <use xlink:href="#ArialMT-30" x="58.398438"/>
       <use xlink:href="#ArialMT-2e" x="114.013672"/>
       <use xlink:href="#ArialMT-33" x="141.796875"/>
      </g>
     </g>
    </g>
    <g id="ytick_2">
     <g id="text_4">
      <!-- −0.2 -->
      <g style="fill: #262626" transform="translate(24.52 176.52942) scale(0.11 -0.11)">
       <defs>
        <path id="ArialMT-32" d="M 3222 541 
L 3222 0 
L 194 0 
Q 188 203 259 391 
Q 375 700 629 1000 
Q 884 1300 1366 1694 
Q 2113 2306 2375 2664 
Q 2638 3022 2638 3341 
Q 2638 3675 2398 3904 
Q 2159 4134 1775 4134 
Q 1369 4134 1125 3890 
Q 881 3647 878 3216 
L 300 3275 
Q 359 3922 746 4261 
Q 1134 4600 1788 4600 
Q 2447 4600 2831 4234 
Q 3216 3869 3216 3328 
Q 3216 3053 3103 2787 
Q 2991 2522 2730 2228 
Q 2469 1934 1863 1422 
Q 1356 997 1212 845 
Q 1069 694 975 541 
L 3222 541 
z
" transform="scale(0.015625)"/>
       </defs>
       <use xlink:href="#ArialMT-2212"/>
       <use xlink:href="#ArialMT-30" x="58.398438"/>
       <use xlink:href="#ArialMT-2e" x="114.013672"/>
       <use xlink:href="#ArialMT-32" x="141.796875"/>
      </g>
     </g>
    </g>
    <g id="ytick_3">
     <g id="text_5">
      <!-- −0.1 -->
      <g style="fill: #262626" transform="translate(24.52 146.490053) scale(0.11 -0.11)">
       <defs>
        <path id="ArialMT-31" d="M 2384 0 
L 1822 0 
L 1822 3584 
Q 1619 3391 1289 3197 
Q 959 3003 697 2906 
L 697 3450 
Q 1169 3672 1522 3987 
Q 1875 4303 2022 4600 
L 2384 4600 
L 2384 0 
z
" transform="scale(0.015625)"/>
       </defs>
       <use xlink:href="#ArialMT-2212"/>
       <use xlink:href="#ArialMT-30" x="58.398438"/>
       <use xlink:href="#ArialMT-2e" x="114.013672"/>
       <use xlink:href="#ArialMT-31" x="141.796875"/>
      </g>
     </g>
    </g>
    <g id="ytick_4">
     <g id="text_6">
      <!-- 0.0 -->
      <g style="fill: #262626" transform="translate(30.944688 116.450686) scale(0.11 -0.11)">
       <use xlink:href="#ArialMT-30"/>
       <use xlink:href="#ArialMT-2e" x="55.615234"/>
       <use xlink:href="#ArialMT-30" x="83.398438"/>
      </g>
     </g>
    </g>
    <g id="ytick_5">
     <g id="text_7">
      <!-- 0.1 -->
      <g style="fill: #262626" transform="translate(30.944688 86.411319) scale(0.11 -0.11)">
       <use xlink:href="#ArialMT-30"/>
       <use xlink:href="#ArialMT-2e" x="55.615234"/>
       <use xlink:href="#ArialMT-31" x="83.398438"/>
      </g>
     </g>
    </g>
    <g id="ytick_6">
     <g id="text_8">
      <!-- 0.2 -->
      <g style="fill: #262626" transform="translate(30.944688 56.371953) scale(0.11 -0.11)">
       <use xlink:href="#ArialMT-30"/>
       <use xlink:href="#ArialMT-2e" x="55.615234"/>
       <use xlink:href="#ArialMT-32" x="83.398438"/>
      </g>
     </g>
    </g>
    <g id="ytick_7">
     <g id="text_9">
      <!-- 0.3 -->
      <g style="fill: #262626" transform="translate(30.944688 26.332586) scale(0.11 -0.11)">
       <use xlink:href="#ArialMT-30"/>
       <use xlink:href="#ArialMT-2e" x="55.615234"/>
       <use xlink:href="#ArialMT-33" x="83.398438"/>
      </g>
     </g>
    </g>
    <g id="text_10">
     <!-- meanCT2 residuals [mm$^3$] -->
     <g style="fill: #262626" transform="translate(18.12 188.04) rotate(-90) scale(0.12 -0.12)">
      <defs>
       <path id="ArialMT-61" d="M 2588 409 
Q 2275 144 1986 34 
Q 1697 -75 1366 -75 
Q 819 -75 525 192 
Q 231 459 231 875 
Q 231 1119 342 1320 
Q 453 1522 633 1644 
Q 813 1766 1038 1828 
Q 1203 1872 1538 1913 
Q 2219 1994 2541 2106 
Q 2544 2222 2544 2253 
Q 2544 2597 2384 2738 
Q 2169 2928 1744 2928 
Q 1347 2928 1158 2789 
Q 969 2650 878 2297 
L 328 2372 
Q 403 2725 575 2942 
Q 747 3159 1072 3276 
Q 1397 3394 1825 3394 
Q 2250 3394 2515 3294 
Q 2781 3194 2906 3042 
Q 3031 2891 3081 2659 
Q 3109 2516 3109 2141 
L 3109 1391 
Q 3109 606 3145 398 
Q 3181 191 3288 0 
L 2700 0 
Q 2613 175 2588 409 
z
M 2541 1666 
Q 2234 1541 1622 1453 
Q 1275 1403 1131 1340 
Q 988 1278 909 1158 
Q 831 1038 831 891 
Q 831 666 1001 516 
Q 1172 366 1500 366 
Q 1825 366 2078 508 
Q 2331 650 2450 897 
Q 2541 1088 2541 1459 
L 2541 1666 
z
" transform="scale(0.015625)"/>
       <path id="ArialMT-6e" d="M 422 0 
L 422 3319 
L 928 3319 
L 928 2847 
Q 1294 3394 1984 3394 
Q 2284 3394 2536 3286 
Q 2788 3178 2913 3003 
Q 3038 2828 3088 2588 
Q 3119 2431 3119 2041 
L 3119 0 
L 2556 0 
L 2556 2019 
Q 2556 2363 2490 2533 
Q 2425 2703 2258 2804 
Q 2091 2906 1866 2906 
Q 1506 2906 1245 2678 
Q 984 2450 984 1813 
L 984 0 
L 422 0 
z
" transform="scale(0.015625)"/>
       <path id="ArialMT-43" d="M 3763 1606 
L 4369 1453 
Q 4178 706 3683 314 
Q 3188 -78 2472 -78 
Q 1731 -78 1267 223 
Q 803 525 561 1097 
Q 319 1669 319 2325 
Q 319 3041 592 3573 
Q 866 4106 1370 4382 
Q 1875 4659 2481 4659 
Q 3169 4659 3637 4309 
Q 4106 3959 4291 3325 
L 3694 3184 
Q 3534 3684 3231 3912 
Q 2928 4141 2469 4141 
Q 1941 4141 1586 3887 
Q 1231 3634 1087 3207 
Q 944 2781 944 2328 
Q 944 1744 1114 1308 
Q 1284 872 1643 656 
Q 2003 441 2422 441 
Q 2931 441 3284 734 
Q 3638 1028 3763 1606 
z
" transform="scale(0.015625)"/>
       <path id="ArialMT-20" transform="scale(0.015625)"/>
       <path id="ArialMT-73" d="M 197 991 
L 753 1078 
Q 800 744 1014 566 
Q 1228 388 1613 388 
Q 2000 388 2187 545 
Q 2375 703 2375 916 
Q 2375 1106 2209 1216 
Q 2094 1291 1634 1406 
Q 1016 1563 777 1677 
Q 538 1791 414 1992 
Q 291 2194 291 2438 
Q 291 2659 392 2848 
Q 494 3038 669 3163 
Q 800 3259 1026 3326 
Q 1253 3394 1513 3394 
Q 1903 3394 2198 3281 
Q 2494 3169 2634 2976 
Q 2775 2784 2828 2463 
L 2278 2388 
Q 2241 2644 2061 2787 
Q 1881 2931 1553 2931 
Q 1166 2931 1000 2803 
Q 834 2675 834 2503 
Q 834 2394 903 2306 
Q 972 2216 1119 2156 
Q 1203 2125 1616 2013 
Q 2213 1853 2448 1751 
Q 2684 1650 2818 1456 
Q 2953 1263 2953 975 
Q 2953 694 2789 445 
Q 2625 197 2315 61 
Q 2006 -75 1616 -75 
Q 969 -75 630 194 
Q 291 463 197 991 
z
" transform="scale(0.015625)"/>
       <path id="ArialMT-69" d="M 425 3934 
L 425 4581 
L 988 4581 
L 988 3934 
L 425 3934 
z
M 425 0 
L 425 3319 
L 988 3319 
L 988 0 
L 425 0 
z
" transform="scale(0.015625)"/>
       <path id="ArialMT-64" d="M 2575 0 
L 2575 419 
Q 2259 -75 1647 -75 
Q 1250 -75 917 144 
Q 584 363 401 755 
Q 219 1147 219 1656 
Q 219 2153 384 2558 
Q 550 2963 881 3178 
Q 1213 3394 1622 3394 
Q 1922 3394 2156 3267 
Q 2391 3141 2538 2938 
L 2538 4581 
L 3097 4581 
L 3097 0 
L 2575 0 
z
M 797 1656 
Q 797 1019 1065 703 
Q 1334 388 1700 388 
Q 2069 388 2326 689 
Q 2584 991 2584 1609 
Q 2584 2291 2321 2609 
Q 2059 2928 1675 2928 
Q 1300 2928 1048 2622 
Q 797 2316 797 1656 
z
" transform="scale(0.015625)"/>
       <path id="ArialMT-75" d="M 2597 0 
L 2597 488 
Q 2209 -75 1544 -75 
Q 1250 -75 995 37 
Q 741 150 617 320 
Q 494 491 444 738 
Q 409 903 409 1263 
L 409 3319 
L 972 3319 
L 972 1478 
Q 972 1038 1006 884 
Q 1059 663 1231 536 
Q 1403 409 1656 409 
Q 1909 409 2131 539 
Q 2353 669 2445 892 
Q 2538 1116 2538 1541 
L 2538 3319 
L 3100 3319 
L 3100 0 
L 2597 0 
z
" transform="scale(0.015625)"/>
       <path id="ArialMT-6c" d="M 409 0 
L 409 4581 
L 972 4581 
L 972 0 
L 409 0 
z
" transform="scale(0.015625)"/>
       <path id="ArialMT-5b" d="M 434 -1272 
L 434 4581 
L 1675 4581 
L 1675 4116 
L 997 4116 
L 997 -806 
L 1675 -806 
L 1675 -1272 
L 434 -1272 
z
" transform="scale(0.015625)"/>
       <path id="DejaVuSans-33" d="M 2597 2516 
Q 3050 2419 3304 2112 
Q 3559 1806 3559 1356 
Q 3559 666 3084 287 
Q 2609 -91 1734 -91 
Q 1441 -91 1130 -33 
Q 819 25 488 141 
L 488 750 
Q 750 597 1062 519 
Q 1375 441 1716 441 
Q 2309 441 2620 675 
Q 2931 909 2931 1356 
Q 2931 1769 2642 2001 
Q 2353 2234 1838 2234 
L 1294 2234 
L 1294 2753 
L 1863 2753 
Q 2328 2753 2575 2939 
Q 2822 3125 2822 3475 
Q 2822 3834 2567 4026 
Q 2313 4219 1838 4219 
Q 1578 4219 1281 4162 
Q 984 4106 628 3988 
L 628 4550 
Q 988 4650 1302 4700 
Q 1616 4750 1894 4750 
Q 2613 4750 3031 4423 
Q 3450 4097 3450 3541 
Q 3450 3153 3228 2886 
Q 3006 2619 2597 2516 
z
" transform="scale(0.015625)"/>
       <path id="ArialMT-5d" d="M 1363 -1272 
L 122 -1272 
L 122 -806 
L 800 -806 
L 800 4116 
L 122 4116 
L 122 4581 
L 1363 4581 
L 1363 -1272 
z
" transform="scale(0.015625)"/>
      </defs>
      <use xlink:href="#ArialMT-6d" transform="translate(0 0.765625)"/>
      <use xlink:href="#ArialMT-65" transform="translate(83.300781 0.765625)"/>
      <use xlink:href="#ArialMT-61" transform="translate(138.916016 0.765625)"/>
      <use xlink:href="#ArialMT-6e" transform="translate(194.53125 0.765625)"/>
      <use xlink:href="#ArialMT-43" transform="translate(250.146484 0.765625)"/>
      <use xlink:href="#ArialMT-54" transform="translate(322.363281 0.765625)"/>
      <use xlink:href="#ArialMT-32" transform="translate(383.447266 0.765625)"/>
      <use xlink:href="#ArialMT-20" transform="translate(439.0625 0.765625)"/>
      <use xlink:href="#ArialMT-72" transform="translate(466.845703 0.765625)"/>
      <use xlink:href="#ArialMT-65" transform="translate(500.146484 0.765625)"/>
      <use xlink:href="#ArialMT-73" transform="translate(555.761719 0.765625)"/>
      <use xlink:href="#ArialMT-69" transform="translate(605.761719 0.765625)"/>
      <use xlink:href="#ArialMT-64" transform="translate(627.978516 0.765625)"/>
      <use xlink:href="#ArialMT-75" transform="translate(683.59375 0.765625)"/>
      <use xlink:href="#ArialMT-61" transform="translate(739.208984 0.765625)"/>
      <use xlink:href="#ArialMT-6c" transform="translate(794.824219 0.765625)"/>
      <use xlink:href="#ArialMT-73" transform="translate(817.041016 0.765625)"/>
      <use xlink:href="#ArialMT-20" transform="translate(867.041016 0.765625)"/>
      <use xlink:href="#ArialMT-5b" transform="translate(894.824219 0.765625)"/>
      <use xlink:href="#ArialMT-6d" transform="translate(922.607422 0.765625)"/>
      <use xlink:href="#ArialMT-6d" transform="translate(1005.908203 0.765625)"/>
      <use xlink:href="#DejaVuSans-33" transform="translate(1090.166016 39.046875) scale(0.7)"/>
      <use xlink:href="#ArialMT-5d" transform="translate(1137.436523 0.765625)"/>
     </g>
    </g>
   </g>
   <g id="PolyCollection_1">
    <defs>
     <path id="mca89b4a3ef" d="M 97.166419 -36.839844 
L 97.157501 -36.839844 
L 97.151373 -38.876207 
L 97.142231 -40.912571 
L 97.133045 -42.948935 
L 97.128321 -44.985298 
L 97.12973 -47.021662 
L 97.133003 -49.058026 
L 97.129981 -51.094389 
L 97.113759 -53.130753 
L 97.082432 -55.167116 
L 97.04019 -57.20348 
L 96.996609 -59.239844 
L 96.962879 -61.276207 
L 96.943756 -63.312571 
L 96.930412 -65.348935 
L 96.903694 -67.385298 
L 96.848099 -69.421662 
L 96.762471 -71.458026 
L 96.656184 -73.494389 
L 96.53755 -75.530753 
L 96.407086 -77.567116 
L 96.257958 -79.60348 
L 96.081786 -81.639844 
L 95.877242 -83.676207 
L 95.648636 -85.712571 
L 95.386127 -87.748935 
L 95.048409 -89.785298 
L 94.57612 -91.821662 
L 93.929299 -93.858026 
L 93.109993 -95.894389 
L 92.143016 -97.930753 
L 91.040198 -99.967116 
L 89.804575 -102.00348 
L 88.472078 -104.039844 
L 87.113183 -106.076207 
L 85.774601 -108.112571 
L 84.450947 -110.148935 
L 83.124976 -112.185298 
L 81.786495 -114.221662 
L 80.383354 -116.258026 
L 78.800469 -118.294389 
L 76.949857 -120.330753 
L 74.896521 -122.367116 
L 72.863481 -124.40348 
L 71.074759 -126.439844 
L 69.590484 -128.476207 
L 68.313605 -130.512571 
L 67.139465 -132.548935 
L 66.054202 -134.585298 
L 65.102616 -136.621662 
L 64.331824 -138.658026 
L 63.777253 -140.694389 
L 63.451614 -142.730753 
L 63.343778 -144.767116 
L 63.460932 -146.80348 
L 63.867809 -148.839844 
L 64.667609 -150.876207 
L 65.930588 -152.912571 
L 67.605249 -154.948935 
L 69.479772 -156.985298 
L 71.274037 -159.021662 
L 72.828965 -161.058026 
L 74.214213 -163.094389 
L 75.630324 -165.130753 
L 77.212435 -167.167116 
L 78.944673 -169.20348 
L 80.738277 -171.239844 
L 82.535855 -173.276207 
L 84.312339 -175.312571 
L 86.012522 -177.348935 
L 87.554665 -179.385298 
L 88.905163 -181.421662 
L 90.097624 -183.458026 
L 91.159571 -185.494389 
L 92.060579 -187.530753 
L 92.758354 -189.567116 
L 93.276769 -191.60348 
L 93.711744 -193.639844 
L 94.154918 -195.676207 
L 94.624769 -197.712571 
L 95.077974 -199.748935 
L 95.469269 -201.785298 
L 95.784519 -203.821662 
L 96.031457 -205.858026 
L 96.224062 -207.894389 
L 96.377898 -209.930753 
L 96.505947 -211.967116 
L 96.613666 -214.00348 
L 96.703015 -216.039844 
L 96.78062 -218.076207 
L 96.855573 -220.112571 
L 96.929135 -222.148935 
L 96.992925 -224.185298 
L 97.039419 -226.221662 
L 97.070523 -228.258026 
L 97.094212 -230.294389 
L 97.115831 -232.330753 
L 97.134922 -234.367116 
L 97.148837 -236.40348 
L 97.156796 -238.439844 
L 97.167125 -238.439844 
L 97.167125 -238.439844 
L 97.175083 -236.40348 
L 97.188999 -234.367116 
L 97.20809 -232.330753 
L 97.229708 -230.294389 
L 97.253397 -228.258026 
L 97.284501 -226.221662 
L 97.330996 -224.185298 
L 97.394786 -222.148935 
L 97.468347 -220.112571 
L 97.5433 -218.076207 
L 97.620906 -216.039844 
L 97.710255 -214.00348 
L 97.817973 -211.967116 
L 97.946023 -209.930753 
L 98.099858 -207.894389 
L 98.292464 -205.858026 
L 98.539402 -203.821662 
L 98.854651 -201.785298 
L 99.245947 -199.748935 
L 99.699152 -197.712571 
L 100.169003 -195.676207 
L 100.612177 -193.639844 
L 101.047151 -191.60348 
L 101.565567 -189.567116 
L 102.263341 -187.530753 
L 103.16435 -185.494389 
L 104.226296 -183.458026 
L 105.418758 -181.421662 
L 106.769256 -179.385298 
L 108.311398 -177.348935 
L 110.011582 -175.312571 
L 111.788065 -173.276207 
L 113.585644 -171.239844 
L 115.379247 -169.20348 
L 117.111485 -167.167116 
L 118.693596 -165.130753 
L 120.109708 -163.094389 
L 121.494955 -161.058026 
L 123.049884 -159.021662 
L 124.844149 -156.985298 
L 126.718671 -154.948935 
L 128.393333 -152.912571 
L 129.656312 -150.876207 
L 130.456112 -148.839844 
L 130.862988 -146.80348 
L 130.980142 -144.767116 
L 130.872306 -142.730753 
L 130.546668 -140.694389 
L 129.992096 -138.658026 
L 129.221304 -136.621662 
L 128.269719 -134.585298 
L 127.184455 -132.548935 
L 126.010316 -130.512571 
L 124.733437 -128.476207 
L 123.249161 -126.439844 
L 121.460439 -124.40348 
L 119.427399 -122.367116 
L 117.374063 -120.330753 
L 115.523451 -118.294389 
L 113.940566 -116.258026 
L 112.537426 -114.221662 
L 111.198944 -112.185298 
L 109.872974 -110.148935 
L 108.549319 -108.112571 
L 107.210737 -106.076207 
L 105.851842 -104.039844 
L 104.519345 -102.00348 
L 103.283722 -99.967116 
L 102.180904 -97.930753 
L 101.213927 -95.894389 
L 100.394621 -93.858026 
L 99.7478 -91.821662 
L 99.275511 -89.785298 
L 98.937794 -87.748935 
L 98.675285 -85.712571 
L 98.446679 -83.676207 
L 98.242135 -81.639844 
L 98.065962 -79.60348 
L 97.916835 -77.567116 
L 97.786371 -75.530753 
L 97.667737 -73.494389 
L 97.56145 -71.458026 
L 97.475821 -69.421662 
L 97.420226 -67.385298 
L 97.393509 -65.348935 
L 97.380165 -63.312571 
L 97.361042 -61.276207 
L 97.327312 -59.239844 
L 97.28373 -57.20348 
L 97.241489 -55.167116 
L 97.210161 -53.130753 
L 97.193939 -51.094389 
L 97.190918 -49.058026 
L 97.194191 -47.021662 
L 97.195599 -44.985298 
L 97.190875 -42.948935 
L 97.181689 -40.912571 
L 97.172548 -38.876207 
L 97.166419 -36.839844 
z
" style="stroke: #4c4c4c; stroke-width: 0.5"/>
    </defs>
    <g clip-path="url(#p847de2fd84)">
     <use xlink:href="#mca89b4a3ef" x="0" y="255.719844" style="fill: #5573cd; stroke: #4c4c4c; stroke-width: 0.5"/>
    </g>
   </g>
   <g id="PolyCollection_2">
    <defs>
     <path id="m5d347ed912" d="M 181.797141 -51.268338 
L 181.617689 -51.268338 
L 181.573759 -52.998521 
L 181.515135 -54.728704 
L 181.440086 -56.458887 
L 181.347927 -58.18907 
L 181.23936 -59.919254 
L 181.116583 -61.649437 
L 180.983093 -63.37962 
L 180.843103 -65.109803 
L 180.700646 -66.839986 
L 180.558486 -68.570169 
L 180.417091 -70.300352 
L 180.273918 -72.030535 
L 180.123264 -73.760718 
L 179.956795 -75.490901 
L 179.764724 -77.221085 
L 179.53742 -78.951268 
L 179.267066 -80.681451 
L 178.94894 -82.411634 
L 178.581926 -84.141817 
L 178.168041 -85.872 
L 177.711036 -87.602183 
L 177.21435 -89.332366 
L 176.67895 -91.062549 
L 176.101572 -92.792732 
L 175.473843 -94.522916 
L 174.782466 -96.253099 
L 174.010444 -97.983282 
L 173.139072 -99.713465 
L 172.150323 -101.443648 
L 171.029322 -103.173831 
L 169.766661 -104.904014 
L 168.360438 -106.634197 
L 166.817909 -108.36438 
L 165.156573 -110.094563 
L 163.404408 -111.824747 
L 161.598906 -113.55493 
L 159.784676 -115.285113 
L 158.009623 -117.015296 
L 156.320189 -118.745479 
L 154.756456 -120.475662 
L 153.348197 -122.205845 
L 152.112793 -123.936028 
L 151.055506 -125.666211 
L 150.171937 -127.396394 
L 149.451788 -129.126578 
L 148.882688 -130.856761 
L 148.452806 -132.586944 
L 148.1515 -134.317127 
L 147.968039 -136.04731 
L 147.889233 -137.777493 
L 147.897362 -139.507676 
L 147.969765 -141.237859 
L 148.08089 -142.968042 
L 148.206651 -144.698225 
L 148.330022 -146.428409 
L 148.446175 -148.158592 
L 148.5655 -149.888775 
L 148.713454 -151.618958 
L 148.927127 -153.349141 
L 149.24936 -155.079324 
L 149.72185 -156.809507 
L 150.378759 -158.53969 
L 151.241981 -160.269873 
L 152.318617 -162.000056 
L 153.600643 -163.73024 
L 155.066342 -165.460423 
L 156.682999 -167.190606 
L 158.410326 -168.920789 
L 160.204217 -170.650972 
L 162.020448 -172.381155 
L 163.817925 -174.111338 
L 165.561095 -175.841521 
L 167.221229 -177.571704 
L 168.776516 -179.301887 
L 170.211211 -181.032071 
L 171.514325 -182.762254 
L 172.678497 -184.492437 
L 173.699525 -186.22262 
L 174.576761 -187.952803 
L 175.314172 -189.682986 
L 175.921536 -191.413169 
L 176.415128 -193.143352 
L 176.817323 -194.873535 
L 177.154886 -196.603718 
L 177.456088 -198.333902 
L 177.747191 -200.064085 
L 178.049031 -201.794268 
L 178.374462 -203.524451 
L 178.727226 -205.254634 
L 179.102446 -206.984817 
L 179.488579 -208.715 
L 179.870305 -210.445183 
L 180.231709 -212.175366 
L 180.559055 -213.905549 
L 180.842698 -215.635733 
L 181.077905 -217.365916 
L 181.264663 -219.096099 
L 181.406732 -220.826282 
L 181.51033 -222.556465 
L 181.9045 -222.556465 
L 181.9045 -222.556465 
L 182.008098 -220.826282 
L 182.150167 -219.096099 
L 182.336925 -217.365916 
L 182.572132 -215.635733 
L 182.855774 -213.905549 
L 183.18312 -212.175366 
L 183.544524 -210.445183 
L 183.926251 -208.715 
L 184.312383 -206.984817 
L 184.687604 -205.254634 
L 185.040368 -203.524451 
L 185.365799 -201.794268 
L 185.667638 -200.064085 
L 185.958741 -198.333902 
L 186.259944 -196.603718 
L 186.597506 -194.873535 
L 186.999701 -193.143352 
L 187.493293 -191.413169 
L 188.100658 -189.682986 
L 188.838068 -187.952803 
L 189.715304 -186.22262 
L 190.736332 -184.492437 
L 191.900505 -182.762254 
L 193.203619 -181.032071 
L 194.638313 -179.301887 
L 196.193601 -177.571704 
L 197.853735 -175.841521 
L 199.596905 -174.111338 
L 201.394382 -172.381155 
L 203.210613 -170.650972 
L 205.004503 -168.920789 
L 206.73183 -167.190606 
L 208.348487 -165.460423 
L 209.814187 -163.73024 
L 211.096212 -162.000056 
L 212.172849 -160.269873 
L 213.036071 -158.53969 
L 213.692979 -156.809507 
L 214.165469 -155.079324 
L 214.487702 -153.349141 
L 214.701376 -151.618958 
L 214.84933 -149.888775 
L 214.968655 -148.158592 
L 215.084807 -146.428409 
L 215.208179 -144.698225 
L 215.33394 -142.968042 
L 215.445065 -141.237859 
L 215.517468 -139.507676 
L 215.525597 -137.777493 
L 215.44679 -136.04731 
L 215.263329 -134.317127 
L 214.962024 -132.586944 
L 214.532141 -130.856761 
L 213.963042 -129.126578 
L 213.242893 -127.396394 
L 212.359323 -125.666211 
L 211.302037 -123.936028 
L 210.066632 -122.205845 
L 208.658373 -120.475662 
L 207.094641 -118.745479 
L 205.405206 -117.015296 
L 203.630154 -115.285113 
L 201.815923 -113.55493 
L 200.010422 -111.824747 
L 198.258257 -110.094563 
L 196.59692 -108.36438 
L 195.054391 -106.634197 
L 193.648168 -104.904014 
L 192.385507 -103.173831 
L 191.264507 -101.443648 
L 190.275758 -99.713465 
L 189.404385 -97.983282 
L 188.632364 -96.253099 
L 187.940986 -94.522916 
L 187.313257 -92.792732 
L 186.73588 -91.062549 
L 186.200479 -89.332366 
L 185.703794 -87.602183 
L 185.246788 -85.872 
L 184.832904 -84.141817 
L 184.465889 -82.411634 
L 184.147764 -80.681451 
L 183.87741 -78.951268 
L 183.650106 -77.221085 
L 183.458035 -75.490901 
L 183.291566 -73.760718 
L 183.140912 -72.030535 
L 182.997739 -70.300352 
L 182.856343 -68.570169 
L 182.714184 -66.839986 
L 182.571726 -65.109803 
L 182.431737 -63.37962 
L 182.298247 -61.649437 
L 182.17547 -59.919254 
L 182.066902 -58.18907 
L 181.974744 -56.458887 
L 181.899694 -54.728704 
L 181.84107 -52.998521 
L 181.797141 -51.268338 
z
" style="stroke: #4c4c4c; stroke-width: 0.5"/>
    </defs>
    <g clip-path="url(#p847de2fd84)">
     <use xlink:href="#m5d347ed912" x="0" y="255.719844" style="fill: #df8920; stroke: #4c4c4c; stroke-width: 0.5"/>
    </g>
   </g>
   <g id="line2d_1">
    <path d="M 97.16196 174.097484 
L 97.16196 50.968015 
" clip-path="url(#p847de2fd84)" style="fill: none; stroke: #4c4c4c; stroke-width: 0.75; stroke-linecap: round"/>
   </g>
   <g id="line2d_2">
    <path d="M 97.16196 128.177136 
L 97.16196 97.268682 
" clip-path="url(#p847de2fd84)" style="fill: none; stroke: #4c4c4c; stroke-width: 2.25; stroke-linecap: round"/>
   </g>
   <g id="line2d_3">
    <path d="M 97.16196 112.400647 
" clip-path="url(#p847de2fd84)" style="fill: none; stroke: #4c4c4c; stroke-width: 1.5; stroke-linecap: round"/>
    <defs>
     <path id="m9101045df4" d="M 0.9375 0 
L -0.9375 -0 
" style="stroke: #ffffff; stroke-width: 0.45"/>
    </defs>
    <g clip-path="url(#p847de2fd84)">
     <use xlink:href="#m9101045df4" x="97.16196" y="112.400647" style="fill: #ffffff; stroke: #ffffff; stroke-width: 0.45"/>
    </g>
   </g>
   <g id="line2d_4">
    <path d="M 181.707415 180.272643 
L 181.707415 50.767526 
" clip-path="url(#p847de2fd84)" style="fill: none; stroke: #4c4c4c; stroke-width: 0.75; stroke-linecap: round"/>
   </g>
   <g id="line2d_5">
    <path d="M 181.707415 130.286411 
L 181.707415 96.274884 
" clip-path="url(#p847de2fd84)" style="fill: none; stroke: #4c4c4c; stroke-width: 2.25; stroke-linecap: round"/>
   </g>
   <g id="line2d_6">
    <path d="M 181.707415 114.148292 
" clip-path="url(#p847de2fd84)" style="fill: none; stroke: #4c4c4c; stroke-width: 1.5; stroke-linecap: round"/>
    <g clip-path="url(#p847de2fd84)">
     <use xlink:href="#m9101045df4" x="181.707415" y="114.148292" style="fill: #ffffff; stroke: #ffffff; stroke-width: 0.45"/>
    </g>
   </g>
   <g id="line2d_7">
    <path d="M 97.16196 37.461926 
L 97.16196 33.026726 
L 181.707415 33.026726 
L 181.707415 37.461926 
" style="fill: none; stroke: #333333; stroke-width: 0.5; stroke-linecap: round"/>
   </g>
   <g id="patch_3">
    <path d="M 55.734688 228.96 
L 55.734688 7.2 
" style="fill: none; stroke: #262626; stroke-width: 1.25; stroke-linejoin: miter; stroke-linecap: square"/>
   </g>
   <g id="patch_4">
    <path d="M 55.734688 228.96 
L 223.134688 228.96 
" style="fill: none; stroke: #262626; stroke-width: 1.25; stroke-linejoin: miter; stroke-linecap: square"/>
   </g>
   <g id="text_11">
    <!-- ns -->
    <g style="fill: #262626" transform="translate(133.098125 29.641726) scale(0.12 -0.12)">
     <use xlink:href="#ArialMT-6e"/>
     <use xlink:href="#ArialMT-73" x="55.615234"/>
    </g>
   </g>
  </g>
 </g>
 <defs>
  <clipPath id="p847de2fd84">
   <rect x="55.734688" y="7.2" width="167.4" height="221.76"/>
  </clipPath>
 </defs>
</svg>
