<?xml version="1.0" encoding="utf-8" standalone="no"?>
<!DOCTYPE svg PUBLIC "-//W3C//DTD SVG 1.1//EN"
  "http://www.w3.org/Graphics/SVG/1.1/DTD/svg11.dtd">
<svg xmlns:xlink="http://www.w3.org/1999/xlink" width="155.905512pt" height="113.385827pt" viewBox="0 0 155.905512 113.385827" xmlns="http://www.w3.org/2000/svg" version="1.1">
 <metadata>
  <rdf:RDF xmlns:dc="http://purl.org/dc/elements/1.1/" xmlns:cc="http://creativecommons.org/ns#" xmlns:rdf="http://www.w3.org/1999/02/22-rdf-syntax-ns#">
   <cc:Work>
    <dc:type rdf:resource="http://purl.org/dc/dcmitype/StillImage"/>
    <dc:date>2024-12-04T17:30:58.201834</dc:date>
    <dc:format>image/svg+xml</dc:format>
    <dc:creator>
     <cc:Agent>
      <dc:title>Matplotlib v3.9.2, https://matplotlib.org/</dc:title>
     </cc:Agent>
    </dc:creator>
   </cc:Work>
  </rdf:RDF>
 </metadata>
 <defs>
  <style type="text/css">*{stroke-linejoin: round; stroke-linecap: butt}</style>
 </defs>
 <g id="figure_1">
  <g id="patch_1">
   <path d="M 0 113.385827 
L 155.905512 113.385827 
L 155.905512 0 
L 0 0 
z
" style="fill: #ffffff"/>
  </g>
  <g id="axes_1">
   <g id="patch_2">
    <path d="M 36.349 89.218327 
L 150.505512 89.218327 
L 150.505512 5.4 
L 36.349 5.4 
z
" style="fill: #ffffff"/>
   </g>
   <g id="PathCollection_1">
    <defs>
     <path id="C0_0_8102f90881" d="M 0 0.866025 
C 0.229673 0.866025 0.449969 0.774776 0.612372 0.612372 
C 0.774776 0.449969 0.866025 0.229673 0.866025 -0 
C 0.866025 -0.229673 0.774776 -0.449969 0.612372 -0.612372 
C 0.449969 -0.774776 0.229673 -0.866025 0 -0.866025 
C -0.229673 -0.866025 -0.449969 -0.774776 -0.612372 -0.612372 
C -0.774776 -0.449969 -0.866025 -0.229673 -0.866025 0 
C -0.866025 0.229673 -0.774776 0.449969 -0.612372 0.612372 
C -0.449969 0.774776 -0.229673 0.866025 0 0.866025 
z
"/>
    </defs>
    <g clip-path="url(#p3dae56658f)">
     <use xlink:href="#C0_0_8102f90881" x="88.710045" y="78.032333" style="fill: #ff8c00; fill-opacity: 0.8"/>
    </g>
    <g clip-path="url(#p3dae56658f)">
     <use xlink:href="#C0_0_8102f90881" x="98.144467" y="47.569074" style="fill: #ff8c00; fill-opacity: 0.8"/>
    </g>
    <g clip-path="url(#p3dae56658f)">
     <use xlink:href="#C0_0_8102f90881" x="98.144467" y="81.751736" style="fill: #ff8c00; fill-opacity: 0.8"/>
    </g>
    <g clip-path="url(#p3dae56658f)">
     <use xlink:href="#C0_0_8102f90881" x="69.8412" y="51.853109" style="fill: #ff8c00; fill-opacity: 0.8"/>
    </g>
    <g clip-path="url(#p3dae56658f)">
     <use xlink:href="#C0_0_8102f90881" x="98.144467" y="45.346394" style="fill: #ff8c00; fill-opacity: 0.8"/>
    </g>
    <g clip-path="url(#p3dae56658f)">
     <use xlink:href="#C0_0_8102f90881" x="135.882157" y="39.198175" style="fill: #ff8c00; fill-opacity: 0.8"/>
    </g>
    <g clip-path="url(#p3dae56658f)">
     <use xlink:href="#C0_0_8102f90881" x="98.144467" y="41.008583" style="fill: #ff8c00; fill-opacity: 0.8"/>
    </g>
    <g clip-path="url(#p3dae56658f)">
     <use xlink:href="#C0_0_8102f90881" x="60.406777" y="49.33467" style="fill: #ff8c00; fill-opacity: 0.8"/>
    </g>
    <g clip-path="url(#p3dae56658f)">
     <use xlink:href="#C0_0_8102f90881" x="88.710045" y="41.537366" style="fill: #ff8c00; fill-opacity: 0.8"/>
    </g>
    <g clip-path="url(#p3dae56658f)">
     <use xlink:href="#C0_0_8102f90881" x="117.013312" y="56.298469" style="fill: #ff8c00; fill-opacity: 0.8"/>
    </g>
    <g clip-path="url(#p3dae56658f)">
     <use xlink:href="#C0_0_8102f90881" x="50.972355" y="66.067505" style="fill: #ff8c00; fill-opacity: 0.8"/>
    </g>
    <g clip-path="url(#p3dae56658f)">
     <use xlink:href="#C0_0_8102f90881" x="88.710045" y="44.315716" style="fill: #ff8c00; fill-opacity: 0.8"/>
    </g>
    <g clip-path="url(#p3dae56658f)">
     <use xlink:href="#C0_0_8102f90881" x="88.710045" y="62.760372" style="fill: #ff8c00; fill-opacity: 0.8"/>
    </g>
    <g clip-path="url(#p3dae56658f)">
     <use xlink:href="#C0_0_8102f90881" x="88.710045" y="74.913411" style="fill: #ff8c00; fill-opacity: 0.8"/>
    </g>
    <g clip-path="url(#p3dae56658f)">
     <use xlink:href="#C0_0_8102f90881" x="79.275622" y="31.28436" style="fill: #ff8c00; fill-opacity: 0.8"/>
    </g>
    <g clip-path="url(#p3dae56658f)">
     <use xlink:href="#C0_0_8102f90881" x="98.144467" y="40.856222" style="fill: #ff8c00; fill-opacity: 0.8"/>
    </g>
    <g clip-path="url(#p3dae56658f)">
     <use xlink:href="#C0_0_8102f90881" x="79.275622" y="55.11543" style="fill: #ff8c00; fill-opacity: 0.8"/>
    </g>
    <g clip-path="url(#p3dae56658f)">
     <use xlink:href="#C0_0_8102f90881" x="79.275622" y="44.324678" style="fill: #ff8c00; fill-opacity: 0.8"/>
    </g>
    <g clip-path="url(#p3dae56658f)">
     <use xlink:href="#C0_0_8102f90881" x="88.710045" y="12.095823" style="fill: #ff8c00; fill-opacity: 0.8"/>
    </g>
    <g clip-path="url(#p3dae56658f)">
     <use xlink:href="#C0_0_8102f90881" x="79.275622" y="33.166468" style="fill: #ff8c00; fill-opacity: 0.8"/>
    </g>
    <g clip-path="url(#p3dae56658f)">
     <use xlink:href="#C0_0_8102f90881" x="60.406777" y="48.904474" style="fill: #ff8c00; fill-opacity: 0.8"/>
    </g>
    <g clip-path="url(#p3dae56658f)">
     <use xlink:href="#C0_0_8102f90881" x="69.8412" y="45.471868" style="fill: #ff8c00; fill-opacity: 0.8"/>
    </g>
    <g clip-path="url(#p3dae56658f)">
     <use xlink:href="#C0_0_8102f90881" x="98.144467" y="72.412897" style="fill: #ff8c00; fill-opacity: 0.8"/>
    </g>
    <g clip-path="url(#p3dae56658f)">
     <use xlink:href="#C0_0_8102f90881" x="98.144467" y="67.277431" style="fill: #ff8c00; fill-opacity: 0.8"/>
    </g>
    <g clip-path="url(#p3dae56658f)">
     <use xlink:href="#C0_0_8102f90881" x="41.537932" y="20.099262" style="fill: #ff8c00; fill-opacity: 0.8"/>
    </g>
    <g clip-path="url(#p3dae56658f)">
     <use xlink:href="#C0_0_8102f90881" x="88.710045" y="36.294352" style="fill: #ff8c00; fill-opacity: 0.8"/>
    </g>
    <g clip-path="url(#p3dae56658f)">
     <use xlink:href="#C0_0_8102f90881" x="88.710045" y="55.93101" style="fill: #ff8c00; fill-opacity: 0.8"/>
    </g>
    <g clip-path="url(#p3dae56658f)">
     <use xlink:href="#C0_0_8102f90881" x="117.013312" y="79.260184" style="fill: #ff8c00; fill-opacity: 0.8"/>
    </g>
    <g clip-path="url(#p3dae56658f)">
     <use xlink:href="#C0_0_8102f90881" x="88.710045" y="35.855193" style="fill: #ff8c00; fill-opacity: 0.8"/>
    </g>
    <g clip-path="url(#p3dae56658f)">
     <use xlink:href="#C0_0_8102f90881" x="88.710045" y="9.514646" style="fill: #ff8c00; fill-opacity: 0.8"/>
    </g>
    <g clip-path="url(#p3dae56658f)">
     <use xlink:href="#C0_0_8102f90881" x="88.710045" y="44.387415" style="fill: #ff8c00; fill-opacity: 0.8"/>
    </g>
    <g clip-path="url(#p3dae56658f)">
     <use xlink:href="#C0_0_8102f90881" x="88.710045" y="42.971353" style="fill: #ff8c00; fill-opacity: 0.8"/>
    </g>
    <g clip-path="url(#p3dae56658f)">
     <use xlink:href="#C0_0_8102f90881" x="145.316579" y="82.845151" style="fill: #ff8c00; fill-opacity: 0.8"/>
    </g>
    <g clip-path="url(#p3dae56658f)">
     <use xlink:href="#C0_0_8102f90881" x="126.447735" y="46.807268" style="fill: #ff8c00; fill-opacity: 0.8"/>
    </g>
    <g clip-path="url(#p3dae56658f)">
     <use xlink:href="#C0_0_8102f90881" x="98.144467" y="58.3419" style="fill: #ff8c00; fill-opacity: 0.8"/>
    </g>
    <g clip-path="url(#p3dae56658f)">
     <use xlink:href="#C0_0_8102f90881" x="88.710045" y="53.905503" style="fill: #ff8c00; fill-opacity: 0.8"/>
    </g>
    <g clip-path="url(#p3dae56658f)">
     <use xlink:href="#C0_0_8102f90881" x="69.8412" y="36.258502" style="fill: #ff8c00; fill-opacity: 0.8"/>
    </g>
    <g clip-path="url(#p3dae56658f)">
     <use xlink:href="#C0_0_8102f90881" x="126.447735" y="61.944792" style="fill: #ff8c00; fill-opacity: 0.8"/>
    </g>
    <g clip-path="url(#p3dae56658f)">
     <use xlink:href="#C0_0_8102f90881" x="79.275622" y="57.866892" style="fill: #ff8c00; fill-opacity: 0.8"/>
    </g>
    <g clip-path="url(#p3dae56658f)">
     <use xlink:href="#C0_0_8102f90881" x="69.8412" y="66.381189" style="fill: #ff8c00; fill-opacity: 0.8"/>
    </g>
    <g clip-path="url(#p3dae56658f)">
     <use xlink:href="#C0_0_8102f90881" x="60.406777" y="78.247431" style="fill: #ff8c00; fill-opacity: 0.8"/>
    </g>
    <g clip-path="url(#p3dae56658f)">
     <use xlink:href="#C0_0_8102f90881" x="98.144467" y="49.639392" style="fill: #ff8c00; fill-opacity: 0.8"/>
    </g>
    <g clip-path="url(#p3dae56658f)">
     <use xlink:href="#C0_0_8102f90881" x="79.275622" y="38.050985" style="fill: #ff8c00; fill-opacity: 0.8"/>
    </g>
    <g clip-path="url(#p3dae56658f)">
     <use xlink:href="#C0_0_8102f90881" x="135.882157" y="54.039939" style="fill: #ff8c00; fill-opacity: 0.8"/>
    </g>
    <g clip-path="url(#p3dae56658f)">
     <use xlink:href="#C0_0_8102f90881" x="98.144467" y="77.691761" style="fill: #ff8c00; fill-opacity: 0.8"/>
    </g>
    <g clip-path="url(#p3dae56658f)">
     <use xlink:href="#C0_0_8102f90881" x="79.275622" y="12.812816" style="fill: #ff8c00; fill-opacity: 0.8"/>
    </g>
    <g clip-path="url(#p3dae56658f)">
     <use xlink:href="#C0_0_8102f90881" x="135.882157" y="34.896214" style="fill: #ff8c00; fill-opacity: 0.8"/>
    </g>
    <g clip-path="url(#p3dae56658f)">
     <use xlink:href="#C0_0_8102f90881" x="88.710045" y="41.232644" style="fill: #ff8c00; fill-opacity: 0.8"/>
    </g>
    <g clip-path="url(#p3dae56658f)">
     <use xlink:href="#C0_0_8102f90881" x="88.710045" y="37.809" style="fill: #ff8c00; fill-opacity: 0.8"/>
    </g>
    <g clip-path="url(#p3dae56658f)">
     <use xlink:href="#C0_0_8102f90881" x="88.710045" y="77.297414" style="fill: #ff8c00; fill-opacity: 0.8"/>
    </g>
    <g clip-path="url(#p3dae56658f)">
     <use xlink:href="#C0_0_8102f90881" x="117.013312" y="43.007203" style="fill: #ff8c00; fill-opacity: 0.8"/>
    </g>
    <g clip-path="url(#p3dae56658f)">
     <use xlink:href="#C0_0_8102f90881" x="88.710045" y="35.147162" style="fill: #ff8c00; fill-opacity: 0.8"/>
    </g>
    <g clip-path="url(#p3dae56658f)">
     <use xlink:href="#C0_0_8102f90881" x="60.406777" y="31.974466" style="fill: #ff8c00; fill-opacity: 0.8"/>
    </g>
    <g clip-path="url(#p3dae56658f)">
     <use xlink:href="#C0_0_8102f90881" x="88.710045" y="51.252627" style="fill: #ff8c00; fill-opacity: 0.8"/>
    </g>
    <g clip-path="url(#p3dae56658f)">
     <use xlink:href="#C0_0_8102f90881" x="107.57889" y="56.639041" style="fill: #ff8c00; fill-opacity: 0.8"/>
    </g>
    <g clip-path="url(#p3dae56658f)">
     <use xlink:href="#C0_0_8102f90881" x="88.710045" y="49.424294" style="fill: #ff8c00; fill-opacity: 0.8"/>
    </g>
    <g clip-path="url(#p3dae56658f)">
     <use xlink:href="#C0_0_8102f90881" x="98.144467" y="65.71797" style="fill: #ff8c00; fill-opacity: 0.8"/>
    </g>
    <g clip-path="url(#p3dae56658f)">
     <use xlink:href="#C0_0_8102f90881" x="88.710045" y="57.060274" style="fill: #ff8c00; fill-opacity: 0.8"/>
    </g>
    <g clip-path="url(#p3dae56658f)">
     <use xlink:href="#C0_0_8102f90881" x="98.144467" y="37.665601" style="fill: #ff8c00; fill-opacity: 0.8"/>
    </g>
    <g clip-path="url(#p3dae56658f)">
     <use xlink:href="#C0_0_8102f90881" x="88.710045" y="61.747619" style="fill: #ff8c00; fill-opacity: 0.8"/>
    </g>
    <g clip-path="url(#p3dae56658f)">
     <use xlink:href="#C0_0_8102f90881" x="98.144467" y="69.948232" style="fill: #ff8c00; fill-opacity: 0.8"/>
    </g>
    <g clip-path="url(#p3dae56658f)">
     <use xlink:href="#C0_0_8102f90881" x="98.144467" y="26.122007" style="fill: #ff8c00; fill-opacity: 0.8"/>
    </g>
    <g clip-path="url(#p3dae56658f)">
     <use xlink:href="#C0_0_8102f90881" x="79.275622" y="51.790372" style="fill: #ff8c00; fill-opacity: 0.8"/>
    </g>
    <g clip-path="url(#p3dae56658f)">
     <use xlink:href="#C0_0_8102f90881" x="88.710045" y="52.328118" style="fill: #ff8c00; fill-opacity: 0.8"/>
    </g>
    <g clip-path="url(#p3dae56658f)">
     <use xlink:href="#C0_0_8102f90881" x="88.710045" y="57.651794" style="fill: #ff8c00; fill-opacity: 0.8"/>
    </g>
    <g clip-path="url(#p3dae56658f)">
     <use xlink:href="#C0_0_8102f90881" x="69.8412" y="52.032358" style="fill: #ff8c00; fill-opacity: 0.8"/>
    </g>
    <g clip-path="url(#p3dae56658f)">
     <use xlink:href="#C0_0_8102f90881" x="98.144467" y="63.853787" style="fill: #ff8c00; fill-opacity: 0.8"/>
    </g>
    <g clip-path="url(#p3dae56658f)">
     <use xlink:href="#C0_0_8102f90881" x="88.710045" y="22.519115" style="fill: #ff8c00; fill-opacity: 0.8"/>
    </g>
    <g clip-path="url(#p3dae56658f)">
     <use xlink:href="#C0_0_8102f90881" x="98.144467" y="45.238845" style="fill: #ff8c00; fill-opacity: 0.8"/>
    </g>
    <g clip-path="url(#p3dae56658f)">
     <use xlink:href="#C0_0_8102f90881" x="145.316579" y="25.109254" style="fill: #ff8c00; fill-opacity: 0.8"/>
    </g>
    <g clip-path="url(#p3dae56658f)">
     <use xlink:href="#C0_0_8102f90881" x="126.447735" y="59.408428" style="fill: #ff8c00; fill-opacity: 0.8"/>
    </g>
    <g clip-path="url(#p3dae56658f)">
     <use xlink:href="#C0_0_8102f90881" x="60.406777" y="55.456001" style="fill: #ff8c00; fill-opacity: 0.8"/>
    </g>
    <g clip-path="url(#p3dae56658f)">
     <use xlink:href="#C0_0_8102f90881" x="145.316579" y="63.074057" style="fill: #ff8c00; fill-opacity: 0.8"/>
    </g>
    <g clip-path="url(#p3dae56658f)">
     <use xlink:href="#C0_0_8102f90881" x="79.275622" y="27.000324" style="fill: #ff8c00; fill-opacity: 0.8"/>
    </g>
    <g clip-path="url(#p3dae56658f)">
     <use xlink:href="#C0_0_8102f90881" x="88.710045" y="49.926189" style="fill: #ff8c00; fill-opacity: 0.8"/>
    </g>
    <g clip-path="url(#p3dae56658f)">
     <use xlink:href="#C0_0_8102f90881" x="126.447735" y="57.096124" style="fill: #ff8c00; fill-opacity: 0.8"/>
    </g>
    <g clip-path="url(#p3dae56658f)">
     <use xlink:href="#C0_0_8102f90881" x="60.406777" y="31.033412" style="fill: #ff8c00; fill-opacity: 0.8"/>
    </g>
    <g clip-path="url(#p3dae56658f)">
     <use xlink:href="#C0_0_8102f90881" x="88.710045" y="64.391532" style="fill: #ff8c00; fill-opacity: 0.8"/>
    </g>
    <g clip-path="url(#p3dae56658f)">
     <use xlink:href="#C0_0_8102f90881" x="69.8412" y="44.199204" style="fill: #ff8c00; fill-opacity: 0.8"/>
    </g>
    <g clip-path="url(#p3dae56658f)">
     <use xlink:href="#C0_0_8102f90881" x="98.144467" y="34.923102" style="fill: #ff8c00; fill-opacity: 0.8"/>
    </g>
    <g clip-path="url(#p3dae56658f)">
     <use xlink:href="#C0_0_8102f90881" x="88.710045" y="50.1144" style="fill: #ff8c00; fill-opacity: 0.8"/>
    </g>
    <g clip-path="url(#p3dae56658f)">
     <use xlink:href="#C0_0_8102f90881" x="117.013312" y="67.080258" style="fill: #ff8c00; fill-opacity: 0.8"/>
    </g>
    <g clip-path="url(#p3dae56658f)">
     <use xlink:href="#C0_0_8102f90881" x="79.275622" y="45.427056" style="fill: #ff8c00; fill-opacity: 0.8"/>
    </g>
    <g clip-path="url(#p3dae56658f)">
     <use xlink:href="#C0_0_8102f90881" x="79.275622" y="85.408403" style="fill: #ff8c00; fill-opacity: 0.8"/>
    </g>
    <g clip-path="url(#p3dae56658f)">
     <use xlink:href="#C0_0_8102f90881" x="107.57889" y="51.853109" style="fill: #ff8c00; fill-opacity: 0.8"/>
    </g>
    <g clip-path="url(#p3dae56658f)">
     <use xlink:href="#C0_0_8102f90881" x="98.144467" y="9.209924" style="fill: #ff8c00; fill-opacity: 0.8"/>
    </g>
    <g clip-path="url(#p3dae56658f)">
     <use xlink:href="#C0_0_8102f90881" x="98.144467" y="32.790046" style="fill: #ff8c00; fill-opacity: 0.8"/>
    </g>
    <g clip-path="url(#p3dae56658f)">
     <use xlink:href="#C0_0_8102f90881" x="98.144467" y="75.307758" style="fill: #ff8c00; fill-opacity: 0.8"/>
    </g>
    <g clip-path="url(#p3dae56658f)">
     <use xlink:href="#C0_0_8102f90881" x="88.710045" y="44.736949" style="fill: #ff8c00; fill-opacity: 0.8"/>
    </g>
    <g clip-path="url(#p3dae56658f)">
     <use xlink:href="#C0_0_8102f90881" x="107.57889" y="57.221598" style="fill: #ff8c00; fill-opacity: 0.8"/>
    </g>
    <g clip-path="url(#p3dae56658f)">
     <use xlink:href="#C0_0_8102f90881" x="98.144467" y="79.887553" style="fill: #ff8c00; fill-opacity: 0.8"/>
    </g>
    <g clip-path="url(#p3dae56658f)">
     <use xlink:href="#C0_0_8102f90881" x="107.57889" y="69.267088" style="fill: #ff8c00; fill-opacity: 0.8"/>
    </g>
    <g clip-path="url(#p3dae56658f)">
     <use xlink:href="#C0_0_8102f90881" x="98.144467" y="56.854139" style="fill: #ff8c00; fill-opacity: 0.8"/>
    </g>
    <g clip-path="url(#p3dae56658f)">
     <use xlink:href="#C0_0_8102f90881" x="98.144467" y="36.751435" style="fill: #ff8c00; fill-opacity: 0.8"/>
    </g>
    <g clip-path="url(#p3dae56658f)">
     <use xlink:href="#C0_0_8102f90881" x="107.57889" y="64.732104" style="fill: #ff8c00; fill-opacity: 0.8"/>
    </g>
    <g clip-path="url(#p3dae56658f)">
     <use xlink:href="#C0_0_8102f90881" x="117.013312" y="35.95378" style="fill: #ff8c00; fill-opacity: 0.8"/>
    </g>
   </g>
   <g id="PolyCollection_1">
    <path d="M 41.537932 33.882248 
L 41.537932 53.298202 
L 42.586202 53.257696 
L 43.634471 53.216395 
L 44.68274 53.17815 
L 45.731009 53.152459 
L 46.779278 53.103498 
L 47.827547 53.064158 
L 48.875816 53.018485 
L 49.924086 53.017681 
L 50.972355 52.971895 
L 52.020624 52.948196 
L 53.068893 52.907866 
L 54.117162 52.857783 
L 55.165431 52.84151 
L 56.213701 52.812201 
L 57.26197 52.793759 
L 58.310239 52.807564 
L 59.358508 52.773703 
L 60.406777 52.788656 
L 61.455046 52.772601 
L 62.503316 52.76083 
L 63.551585 52.730433 
L 64.599854 52.728545 
L 65.648123 52.730092 
L 66.696392 52.684573 
L 67.744661 52.672122 
L 68.792931 52.668585 
L 69.8412 52.650441 
L 70.889469 52.64838 
L 71.937738 52.646827 
L 72.986007 52.645987 
L 74.034276 52.659592 
L 75.082546 52.687926 
L 76.130815 52.679253 
L 77.179084 52.694296 
L 78.227353 52.703095 
L 79.275622 52.704825 
L 80.323891 52.719743 
L 81.372161 52.749554 
L 82.42043 52.802651 
L 83.468699 52.82119 
L 84.516968 52.874963 
L 85.565237 52.962294 
L 86.613506 53.026874 
L 87.661776 53.104431 
L 88.710045 53.196717 
L 89.758314 53.279926 
L 90.806583 53.400304 
L 91.854852 53.531548 
L 92.903121 53.666212 
L 93.95139 53.807067 
L 94.99966 53.930485 
L 96.047929 54.107246 
L 97.096198 54.269548 
L 98.144467 54.464201 
L 99.192736 54.650728 
L 100.241005 54.855429 
L 101.289275 55.081794 
L 102.337544 55.293194 
L 103.385813 55.500172 
L 104.434082 55.71612 
L 105.482351 55.952125 
L 106.53062 56.176101 
L 107.57889 56.437915 
L 108.627159 56.658698 
L 109.675428 56.912997 
L 110.723697 57.165116 
L 111.771966 57.422576 
L 112.820235 57.65863 
L 113.868505 57.946956 
L 114.916774 58.237928 
L 115.965043 58.508848 
L 117.013312 58.794969 
L 118.061581 59.077154 
L 119.10985 59.361868 
L 120.15812 59.674296 
L 121.206389 59.956625 
L 122.254658 60.248815 
L 123.302927 60.56514 
L 124.351196 60.881034 
L 125.399465 61.17445 
L 126.447735 61.477285 
L 127.496004 61.753513 
L 128.544273 62.044982 
L 129.592542 62.355194 
L 130.640811 62.652005 
L 131.68908 62.970313 
L 132.73735 63.264723 
L 133.785619 63.556225 
L 134.833888 63.885517 
L 135.882157 64.177691 
L 136.930426 64.488227 
L 137.978695 64.795103 
L 139.026964 65.098441 
L 140.075234 65.384036 
L 141.123503 65.663814 
L 142.171772 65.98254 
L 143.220041 66.286257 
L 144.26831 66.608172 
L 145.316579 66.904367 
L 145.316579 47.417266 
L 145.316579 47.417266 
L 144.26831 47.458256 
L 143.220041 47.507828 
L 142.171772 47.556756 
L 141.123503 47.606276 
L 140.075234 47.637419 
L 139.026964 47.675478 
L 137.978695 47.723562 
L 136.930426 47.785411 
L 135.882157 47.8063 
L 134.833888 47.849388 
L 133.785619 47.875029 
L 132.73735 47.912975 
L 131.68908 47.962108 
L 130.640811 47.986344 
L 129.592542 48.017202 
L 128.544273 48.054219 
L 127.496004 48.074546 
L 126.447735 48.069804 
L 125.399465 48.10085 
L 124.351196 48.080607 
L 123.302927 48.082746 
L 122.254658 48.079891 
L 121.206389 48.112032 
L 120.15812 48.093023 
L 119.10985 48.096284 
L 118.061581 48.10307 
L 117.013312 48.086641 
L 115.965043 48.078439 
L 114.916774 48.072878 
L 113.868505 48.056471 
L 112.820235 48.033331 
L 111.771966 48.010086 
L 110.723697 48.027406 
L 109.675428 47.997778 
L 108.627159 47.960837 
L 107.57889 47.958126 
L 106.53062 47.925438 
L 105.482351 47.896877 
L 104.434082 47.866808 
L 103.385813 47.815245 
L 102.337544 47.763392 
L 101.289275 47.701676 
L 100.241005 47.612406 
L 99.192736 47.546401 
L 98.144467 47.431633 
L 97.096198 47.313083 
L 96.047929 47.213587 
L 94.99966 47.105307 
L 93.95139 46.982987 
L 92.903121 46.861077 
L 91.854852 46.709741 
L 90.806583 46.529741 
L 89.758314 46.37583 
L 88.710045 46.188693 
L 87.661776 46.016904 
L 86.613506 45.821769 
L 85.565237 45.635519 
L 84.516968 45.440493 
L 83.468699 45.218192 
L 82.42043 44.993238 
L 81.372161 44.748829 
L 80.323891 44.495977 
L 79.275622 44.27246 
L 78.227353 44.045993 
L 77.179084 43.791578 
L 76.130815 43.553854 
L 75.082546 43.295323 
L 74.034276 43.0372 
L 72.986007 42.773003 
L 71.937738 42.501046 
L 70.889469 42.215571 
L 69.8412 41.941496 
L 68.792931 41.687457 
L 67.744661 41.416944 
L 66.696392 41.118144 
L 65.648123 40.847931 
L 64.599854 40.579357 
L 63.551585 40.302426 
L 62.503316 39.997802 
L 61.455046 39.70412 
L 60.406777 39.394487 
L 59.358508 39.114068 
L 58.310239 38.803295 
L 57.26197 38.492615 
L 56.213701 38.189376 
L 55.165431 37.883647 
L 54.117162 37.586014 
L 53.068893 37.279659 
L 52.020624 36.958821 
L 50.972355 36.64442 
L 49.924086 36.356803 
L 48.875816 36.052468 
L 47.827547 35.736668 
L 46.779278 35.419317 
L 45.731009 35.11883 
L 44.68274 34.809811 
L 43.634471 34.500443 
L 42.586202 34.191769 
L 41.537932 33.882248 
z
" clip-path="url(#p3dae56658f)" style="fill: #ff8c00; fill-opacity: 0.15"/>
   </g>
   <g id="matplotlib.axis_1">
    <g id="xtick_1">
     <g id="line2d_1">
      <defs>
       <path id="meb3eb6c5d2" d="M 0 0 
L 0 3.5 
" style="stroke: #000000; stroke-width: 0.25"/>
      </defs>
      <g>
       <use xlink:href="#meb3eb6c5d2" x="50.972355" y="89.218327" style="stroke: #000000; stroke-width: 0.25"/>
      </g>
     </g>
     <g id="text_1">
      <!-- 26 -->
      <g transform="translate(48.191886 97.297233) scale(0.05 -0.05)">
       <defs>
        <path id="ArialMT-32" d="M 3222 541 
L 3222 0 
L 194 0 
Q 188 203 259 391 
Q 375 700 629 1000 
Q 884 1300 1366 1694 
Q 2113 2306 2375 2664 
Q 2638 3022 2638 3341 
Q 2638 3675 2398 3904 
Q 2159 4134 1775 4134 
Q 1369 4134 1125 3890 
Q 881 3647 878 3216 
L 300 3275 
Q 359 3922 746 4261 
Q 1134 4600 1788 4600 
Q 2447 4600 2831 4234 
Q 3216 3869 3216 3328 
Q 3216 3053 3103 2787 
Q 2991 2522 2730 2228 
Q 2469 1934 1863 1422 
Q 1356 997 1212 845 
Q 1069 694 975 541 
L 3222 541 
z
" transform="scale(0.015625)"/>
        <path id="ArialMT-36" d="M 3184 3459 
L 2625 3416 
Q 2550 3747 2413 3897 
Q 2184 4138 1850 4138 
Q 1581 4138 1378 3988 
Q 1113 3794 959 3422 
Q 806 3050 800 2363 
Q 1003 2672 1297 2822 
Q 1591 2972 1913 2972 
Q 2475 2972 2870 2558 
Q 3266 2144 3266 1488 
Q 3266 1056 3080 686 
Q 2894 316 2569 119 
Q 2244 -78 1831 -78 
Q 1128 -78 684 439 
Q 241 956 241 2144 
Q 241 3472 731 4075 
Q 1159 4600 1884 4600 
Q 2425 4600 2770 4297 
Q 3116 3994 3184 3459 
z
M 888 1484 
Q 888 1194 1011 928 
Q 1134 663 1356 523 
Q 1578 384 1822 384 
Q 2178 384 2434 671 
Q 2691 959 2691 1453 
Q 2691 1928 2437 2201 
Q 2184 2475 1800 2475 
Q 1419 2475 1153 2201 
Q 888 1928 888 1484 
z
" transform="scale(0.015625)"/>
       </defs>
       <use xlink:href="#ArialMT-32"/>
       <use xlink:href="#ArialMT-36" x="55.615234"/>
      </g>
     </g>
    </g>
    <g id="xtick_2">
     <g id="line2d_2">
      <g>
       <use xlink:href="#meb3eb6c5d2" x="69.8412" y="89.218327" style="stroke: #000000; stroke-width: 0.25"/>
      </g>
     </g>
     <g id="text_2">
      <!-- 28 -->
      <g transform="translate(67.060731 97.297233) scale(0.05 -0.05)">
       <defs>
        <path id="ArialMT-38" d="M 1131 2484 
Q 781 2613 612 2850 
Q 444 3088 444 3419 
Q 444 3919 803 4259 
Q 1163 4600 1759 4600 
Q 2359 4600 2725 4251 
Q 3091 3903 3091 3403 
Q 3091 3084 2923 2848 
Q 2756 2613 2416 2484 
Q 2838 2347 3058 2040 
Q 3278 1734 3278 1309 
Q 3278 722 2862 322 
Q 2447 -78 1769 -78 
Q 1091 -78 675 323 
Q 259 725 259 1325 
Q 259 1772 486 2073 
Q 713 2375 1131 2484 
z
M 1019 3438 
Q 1019 3113 1228 2906 
Q 1438 2700 1772 2700 
Q 2097 2700 2305 2904 
Q 2513 3109 2513 3406 
Q 2513 3716 2298 3927 
Q 2084 4138 1766 4138 
Q 1444 4138 1231 3931 
Q 1019 3725 1019 3438 
z
M 838 1322 
Q 838 1081 952 856 
Q 1066 631 1291 507 
Q 1516 384 1775 384 
Q 2178 384 2440 643 
Q 2703 903 2703 1303 
Q 2703 1709 2433 1975 
Q 2163 2241 1756 2241 
Q 1359 2241 1098 1978 
Q 838 1716 838 1322 
z
" transform="scale(0.015625)"/>
       </defs>
       <use xlink:href="#ArialMT-32"/>
       <use xlink:href="#ArialMT-38" x="55.615234"/>
      </g>
     </g>
    </g>
    <g id="xtick_3">
     <g id="line2d_3">
      <g>
       <use xlink:href="#meb3eb6c5d2" x="88.710045" y="89.218327" style="stroke: #000000; stroke-width: 0.25"/>
      </g>
     </g>
     <g id="text_3">
      <!-- 30 -->
      <g transform="translate(85.929576 97.297233) scale(0.05 -0.05)">
       <defs>
        <path id="ArialMT-33" d="M 269 1209 
L 831 1284 
Q 928 806 1161 595 
Q 1394 384 1728 384 
Q 2125 384 2398 659 
Q 2672 934 2672 1341 
Q 2672 1728 2419 1979 
Q 2166 2231 1775 2231 
Q 1616 2231 1378 2169 
L 1441 2663 
Q 1497 2656 1531 2656 
Q 1891 2656 2178 2843 
Q 2466 3031 2466 3422 
Q 2466 3731 2256 3934 
Q 2047 4138 1716 4138 
Q 1388 4138 1169 3931 
Q 950 3725 888 3313 
L 325 3413 
Q 428 3978 793 4289 
Q 1159 4600 1703 4600 
Q 2078 4600 2393 4439 
Q 2709 4278 2876 4000 
Q 3044 3722 3044 3409 
Q 3044 3113 2884 2869 
Q 2725 2625 2413 2481 
Q 2819 2388 3044 2092 
Q 3269 1797 3269 1353 
Q 3269 753 2831 336 
Q 2394 -81 1725 -81 
Q 1122 -81 723 278 
Q 325 638 269 1209 
z
" transform="scale(0.015625)"/>
        <path id="ArialMT-30" d="M 266 2259 
Q 266 3072 433 3567 
Q 600 4063 929 4331 
Q 1259 4600 1759 4600 
Q 2128 4600 2406 4451 
Q 2684 4303 2865 4023 
Q 3047 3744 3150 3342 
Q 3253 2941 3253 2259 
Q 3253 1453 3087 958 
Q 2922 463 2592 192 
Q 2263 -78 1759 -78 
Q 1097 -78 719 397 
Q 266 969 266 2259 
z
M 844 2259 
Q 844 1131 1108 757 
Q 1372 384 1759 384 
Q 2147 384 2411 759 
Q 2675 1134 2675 2259 
Q 2675 3391 2411 3762 
Q 2147 4134 1753 4134 
Q 1366 4134 1134 3806 
Q 844 3388 844 2259 
z
" transform="scale(0.015625)"/>
       </defs>
       <use xlink:href="#ArialMT-33"/>
       <use xlink:href="#ArialMT-30" x="55.615234"/>
      </g>
     </g>
    </g>
    <g id="xtick_4">
     <g id="line2d_4">
      <g>
       <use xlink:href="#meb3eb6c5d2" x="107.57889" y="89.218327" style="stroke: #000000; stroke-width: 0.25"/>
      </g>
     </g>
     <g id="text_4">
      <!-- 32 -->
      <g transform="translate(104.798421 97.297233) scale(0.05 -0.05)">
       <use xlink:href="#ArialMT-33"/>
       <use xlink:href="#ArialMT-32" x="55.615234"/>
      </g>
     </g>
    </g>
    <g id="xtick_5">
     <g id="line2d_5">
      <g>
       <use xlink:href="#meb3eb6c5d2" x="126.447735" y="89.218327" style="stroke: #000000; stroke-width: 0.25"/>
      </g>
     </g>
     <g id="text_5">
      <!-- 34 -->
      <g transform="translate(123.667266 97.297233) scale(0.05 -0.05)">
       <defs>
        <path id="ArialMT-34" d="M 2069 0 
L 2069 1097 
L 81 1097 
L 81 1613 
L 2172 4581 
L 2631 4581 
L 2631 1613 
L 3250 1613 
L 3250 1097 
L 2631 1097 
L 2631 0 
L 2069 0 
z
M 2069 1613 
L 2069 3678 
L 634 1613 
L 2069 1613 
z
" transform="scale(0.015625)"/>
       </defs>
       <use xlink:href="#ArialMT-33"/>
       <use xlink:href="#ArialMT-34" x="55.615234"/>
      </g>
     </g>
    </g>
    <g id="xtick_6">
     <g id="line2d_6">
      <g>
       <use xlink:href="#meb3eb6c5d2" x="145.316579" y="89.218327" style="stroke: #000000; stroke-width: 0.25"/>
      </g>
     </g>
     <g id="text_6">
      <!-- 36 -->
      <g transform="translate(142.536111 97.297233) scale(0.05 -0.05)">
       <use xlink:href="#ArialMT-33"/>
       <use xlink:href="#ArialMT-36" x="55.615234"/>
      </g>
     </g>
    </g>
    <g id="text_7">
     <!-- Gestational age [weeks] -->
     <g transform="translate(61.410693 106.658796) scale(0.06 -0.06)">
      <defs>
       <path id="ArialMT-47" d="M 2638 1797 
L 2638 2334 
L 4578 2338 
L 4578 638 
Q 4131 281 3656 101 
Q 3181 -78 2681 -78 
Q 2006 -78 1454 211 
Q 903 500 622 1047 
Q 341 1594 341 2269 
Q 341 2938 620 3517 
Q 900 4097 1425 4378 
Q 1950 4659 2634 4659 
Q 3131 4659 3532 4498 
Q 3934 4338 4162 4050 
Q 4391 3763 4509 3300 
L 3963 3150 
Q 3859 3500 3706 3700 
Q 3553 3900 3268 4020 
Q 2984 4141 2638 4141 
Q 2222 4141 1919 4014 
Q 1616 3888 1430 3681 
Q 1244 3475 1141 3228 
Q 966 2803 966 2306 
Q 966 1694 1177 1281 
Q 1388 869 1791 669 
Q 2194 469 2647 469 
Q 3041 469 3416 620 
Q 3791 772 3984 944 
L 3984 1797 
L 2638 1797 
z
" transform="scale(0.015625)"/>
       <path id="ArialMT-65" d="M 2694 1069 
L 3275 997 
Q 3138 488 2766 206 
Q 2394 -75 1816 -75 
Q 1088 -75 661 373 
Q 234 822 234 1631 
Q 234 2469 665 2931 
Q 1097 3394 1784 3394 
Q 2450 3394 2872 2941 
Q 3294 2488 3294 1666 
Q 3294 1616 3291 1516 
L 816 1516 
Q 847 969 1125 678 
Q 1403 388 1819 388 
Q 2128 388 2347 550 
Q 2566 713 2694 1069 
z
M 847 1978 
L 2700 1978 
Q 2663 2397 2488 2606 
Q 2219 2931 1791 2931 
Q 1403 2931 1139 2672 
Q 875 2413 847 1978 
z
" transform="scale(0.015625)"/>
       <path id="ArialMT-73" d="M 197 991 
L 753 1078 
Q 800 744 1014 566 
Q 1228 388 1613 388 
Q 2000 388 2187 545 
Q 2375 703 2375 916 
Q 2375 1106 2209 1216 
Q 2094 1291 1634 1406 
Q 1016 1563 777 1677 
Q 538 1791 414 1992 
Q 291 2194 291 2438 
Q 291 2659 392 2848 
Q 494 3038 669 3163 
Q 800 3259 1026 3326 
Q 1253 3394 1513 3394 
Q 1903 3394 2198 3281 
Q 2494 3169 2634 2976 
Q 2775 2784 2828 2463 
L 2278 2388 
Q 2241 2644 2061 2787 
Q 1881 2931 1553 2931 
Q 1166 2931 1000 2803 
Q 834 2675 834 2503 
Q 834 2394 903 2306 
Q 972 2216 1119 2156 
Q 1203 2125 1616 2013 
Q 2213 1853 2448 1751 
Q 2684 1650 2818 1456 
Q 2953 1263 2953 975 
Q 2953 694 2789 445 
Q 2625 197 2315 61 
Q 2006 -75 1616 -75 
Q 969 -75 630 194 
Q 291 463 197 991 
z
" transform="scale(0.015625)"/>
       <path id="ArialMT-74" d="M 1650 503 
L 1731 6 
Q 1494 -44 1306 -44 
Q 1000 -44 831 53 
Q 663 150 594 308 
Q 525 466 525 972 
L 525 2881 
L 113 2881 
L 113 3319 
L 525 3319 
L 525 4141 
L 1084 4478 
L 1084 3319 
L 1650 3319 
L 1650 2881 
L 1084 2881 
L 1084 941 
Q 1084 700 1114 631 
Q 1144 563 1211 522 
Q 1278 481 1403 481 
Q 1497 481 1650 503 
z
" transform="scale(0.015625)"/>
       <path id="ArialMT-61" d="M 2588 409 
Q 2275 144 1986 34 
Q 1697 -75 1366 -75 
Q 819 -75 525 192 
Q 231 459 231 875 
Q 231 1119 342 1320 
Q 453 1522 633 1644 
Q 813 1766 1038 1828 
Q 1203 1872 1538 1913 
Q 2219 1994 2541 2106 
Q 2544 2222 2544 2253 
Q 2544 2597 2384 2738 
Q 2169 2928 1744 2928 
Q 1347 2928 1158 2789 
Q 969 2650 878 2297 
L 328 2372 
Q 403 2725 575 2942 
Q 747 3159 1072 3276 
Q 1397 3394 1825 3394 
Q 2250 3394 2515 3294 
Q 2781 3194 2906 3042 
Q 3031 2891 3081 2659 
Q 3109 2516 3109 2141 
L 3109 1391 
Q 3109 606 3145 398 
Q 3181 191 3288 0 
L 2700 0 
Q 2613 175 2588 409 
z
M 2541 1666 
Q 2234 1541 1622 1453 
Q 1275 1403 1131 1340 
Q 988 1278 909 1158 
Q 831 1038 831 891 
Q 831 666 1001 516 
Q 1172 366 1500 366 
Q 1825 366 2078 508 
Q 2331 650 2450 897 
Q 2541 1088 2541 1459 
L 2541 1666 
z
" transform="scale(0.015625)"/>
       <path id="ArialMT-69" d="M 425 3934 
L 425 4581 
L 988 4581 
L 988 3934 
L 425 3934 
z
M 425 0 
L 425 3319 
L 988 3319 
L 988 0 
L 425 0 
z
" transform="scale(0.015625)"/>
       <path id="ArialMT-6f" d="M 213 1659 
Q 213 2581 725 3025 
Q 1153 3394 1769 3394 
Q 2453 3394 2887 2945 
Q 3322 2497 3322 1706 
Q 3322 1066 3130 698 
Q 2938 331 2570 128 
Q 2203 -75 1769 -75 
Q 1072 -75 642 372 
Q 213 819 213 1659 
z
M 791 1659 
Q 791 1022 1069 705 
Q 1347 388 1769 388 
Q 2188 388 2466 706 
Q 2744 1025 2744 1678 
Q 2744 2294 2464 2611 
Q 2184 2928 1769 2928 
Q 1347 2928 1069 2612 
Q 791 2297 791 1659 
z
" transform="scale(0.015625)"/>
       <path id="ArialMT-6e" d="M 422 0 
L 422 3319 
L 928 3319 
L 928 2847 
Q 1294 3394 1984 3394 
Q 2284 3394 2536 3286 
Q 2788 3178 2913 3003 
Q 3038 2828 3088 2588 
Q 3119 2431 3119 2041 
L 3119 0 
L 2556 0 
L 2556 2019 
Q 2556 2363 2490 2533 
Q 2425 2703 2258 2804 
Q 2091 2906 1866 2906 
Q 1506 2906 1245 2678 
Q 984 2450 984 1813 
L 984 0 
L 422 0 
z
" transform="scale(0.015625)"/>
       <path id="ArialMT-6c" d="M 409 0 
L 409 4581 
L 972 4581 
L 972 0 
L 409 0 
z
" transform="scale(0.015625)"/>
       <path id="ArialMT-20" transform="scale(0.015625)"/>
       <path id="ArialMT-67" d="M 319 -275 
L 866 -356 
Q 900 -609 1056 -725 
Q 1266 -881 1628 -881 
Q 2019 -881 2231 -725 
Q 2444 -569 2519 -288 
Q 2563 -116 2559 434 
Q 2191 0 1641 0 
Q 956 0 581 494 
Q 206 988 206 1678 
Q 206 2153 378 2554 
Q 550 2956 876 3175 
Q 1203 3394 1644 3394 
Q 2231 3394 2613 2919 
L 2613 3319 
L 3131 3319 
L 3131 450 
Q 3131 -325 2973 -648 
Q 2816 -972 2473 -1159 
Q 2131 -1347 1631 -1347 
Q 1038 -1347 672 -1080 
Q 306 -813 319 -275 
z
M 784 1719 
Q 784 1066 1043 766 
Q 1303 466 1694 466 
Q 2081 466 2343 764 
Q 2606 1063 2606 1700 
Q 2606 2309 2336 2618 
Q 2066 2928 1684 2928 
Q 1309 2928 1046 2623 
Q 784 2319 784 1719 
z
" transform="scale(0.015625)"/>
       <path id="ArialMT-5b" d="M 434 -1272 
L 434 4581 
L 1675 4581 
L 1675 4116 
L 997 4116 
L 997 -806 
L 1675 -806 
L 1675 -1272 
L 434 -1272 
z
" transform="scale(0.015625)"/>
       <path id="ArialMT-77" d="M 1034 0 
L 19 3319 
L 600 3319 
L 1128 1403 
L 1325 691 
Q 1338 744 1497 1375 
L 2025 3319 
L 2603 3319 
L 3100 1394 
L 3266 759 
L 3456 1400 
L 4025 3319 
L 4572 3319 
L 3534 0 
L 2950 0 
L 2422 1988 
L 2294 2553 
L 1622 0 
L 1034 0 
z
" transform="scale(0.015625)"/>
       <path id="ArialMT-6b" d="M 425 0 
L 425 4581 
L 988 4581 
L 988 1969 
L 2319 3319 
L 3047 3319 
L 1778 2088 
L 3175 0 
L 2481 0 
L 1384 1697 
L 988 1316 
L 988 0 
L 425 0 
z
" transform="scale(0.015625)"/>
       <path id="ArialMT-5d" d="M 1363 -1272 
L 122 -1272 
L 122 -806 
L 800 -806 
L 800 4116 
L 122 4116 
L 122 4581 
L 1363 4581 
L 1363 -1272 
z
" transform="scale(0.015625)"/>
      </defs>
      <use xlink:href="#ArialMT-47"/>
      <use xlink:href="#ArialMT-65" x="77.783203"/>
      <use xlink:href="#ArialMT-73" x="133.398438"/>
      <use xlink:href="#ArialMT-74" x="183.398438"/>
      <use xlink:href="#ArialMT-61" x="211.181641"/>
      <use xlink:href="#ArialMT-74" x="266.796875"/>
      <use xlink:href="#ArialMT-69" x="294.580078"/>
      <use xlink:href="#ArialMT-6f" x="316.796875"/>
      <use xlink:href="#ArialMT-6e" x="372.412109"/>
      <use xlink:href="#ArialMT-61" x="428.027344"/>
      <use xlink:href="#ArialMT-6c" x="483.642578"/>
      <use xlink:href="#ArialMT-20" x="505.859375"/>
      <use xlink:href="#ArialMT-61" x="533.642578"/>
      <use xlink:href="#ArialMT-67" x="589.257812"/>
      <use xlink:href="#ArialMT-65" x="644.873047"/>
      <use xlink:href="#ArialMT-20" x="700.488281"/>
      <use xlink:href="#ArialMT-5b" x="728.271484"/>
      <use xlink:href="#ArialMT-77" x="756.054688"/>
      <use xlink:href="#ArialMT-65" x="828.271484"/>
      <use xlink:href="#ArialMT-65" x="883.886719"/>
      <use xlink:href="#ArialMT-6b" x="939.501953"/>
      <use xlink:href="#ArialMT-73" x="989.501953"/>
      <use xlink:href="#ArialMT-5d" x="1039.501953"/>
     </g>
    </g>
   </g>
   <g id="matplotlib.axis_2">
    <g id="ytick_1">
     <g id="line2d_7">
      <defs>
       <path id="m674191ee58" d="M 0 0 
L -3.5 0 
" style="stroke: #000000; stroke-width: 0.25"/>
      </defs>
      <g>
       <use xlink:href="#m674191ee58" x="36.349" y="78.810717" style="stroke: #000000; stroke-width: 0.25"/>
      </g>
     </g>
     <g id="text_8">
      <!-- −0.2 -->
      <g transform="translate(21.978687 80.600171) scale(0.05 -0.05)">
       <defs>
        <path id="ArialMT-2212" d="M 3381 1997 
L 356 1997 
L 356 2522 
L 3381 2522 
L 3381 1997 
z
" transform="scale(0.015625)"/>
        <path id="ArialMT-2e" d="M 581 0 
L 581 641 
L 1222 641 
L 1222 0 
L 581 0 
z
" transform="scale(0.015625)"/>
       </defs>
       <use xlink:href="#ArialMT-2212"/>
       <use xlink:href="#ArialMT-30" x="58.398438"/>
       <use xlink:href="#ArialMT-2e" x="114.013672"/>
       <use xlink:href="#ArialMT-32" x="141.796875"/>
      </g>
     </g>
    </g>
    <g id="ytick_2">
     <g id="line2d_8">
      <g>
       <use xlink:href="#m674191ee58" x="36.349" y="67.075104" style="stroke: #000000; stroke-width: 0.25"/>
      </g>
     </g>
     <g id="text_9">
      <!-- −0.1 -->
      <g transform="translate(21.978687 68.864557) scale(0.05 -0.05)">
       <defs>
        <path id="ArialMT-31" d="M 2384 0 
L 1822 0 
L 1822 3584 
Q 1619 3391 1289 3197 
Q 959 3003 697 2906 
L 697 3450 
Q 1169 3672 1522 3987 
Q 1875 4303 2022 4600 
L 2384 4600 
L 2384 0 
z
" transform="scale(0.015625)"/>
       </defs>
       <use xlink:href="#ArialMT-2212"/>
       <use xlink:href="#ArialMT-30" x="58.398438"/>
       <use xlink:href="#ArialMT-2e" x="114.013672"/>
       <use xlink:href="#ArialMT-31" x="141.796875"/>
      </g>
     </g>
    </g>
    <g id="ytick_3">
     <g id="line2d_9">
      <g>
       <use xlink:href="#m674191ee58" x="36.349" y="55.33949" style="stroke: #000000; stroke-width: 0.25"/>
      </g>
     </g>
     <g id="text_10">
      <!-- 0.0 -->
      <g transform="translate(24.899 57.128943) scale(0.05 -0.05)">
       <use xlink:href="#ArialMT-30"/>
       <use xlink:href="#ArialMT-2e" x="55.615234"/>
       <use xlink:href="#ArialMT-30" x="83.398438"/>
      </g>
     </g>
    </g>
    <g id="ytick_4">
     <g id="line2d_10">
      <g>
       <use xlink:href="#m674191ee58" x="36.349" y="43.603876" style="stroke: #000000; stroke-width: 0.25"/>
      </g>
     </g>
     <g id="text_11">
      <!-- 0.1 -->
      <g transform="translate(24.899 45.393329) scale(0.05 -0.05)">
       <use xlink:href="#ArialMT-30"/>
       <use xlink:href="#ArialMT-2e" x="55.615234"/>
       <use xlink:href="#ArialMT-31" x="83.398438"/>
      </g>
     </g>
    </g>
    <g id="ytick_5">
     <g id="line2d_11">
      <g>
       <use xlink:href="#m674191ee58" x="36.349" y="31.868263" style="stroke: #000000; stroke-width: 0.25"/>
      </g>
     </g>
     <g id="text_12">
      <!-- 0.2 -->
      <g transform="translate(24.899 33.657716) scale(0.05 -0.05)">
       <use xlink:href="#ArialMT-30"/>
       <use xlink:href="#ArialMT-2e" x="55.615234"/>
       <use xlink:href="#ArialMT-32" x="83.398438"/>
      </g>
     </g>
    </g>
    <g id="ytick_6">
     <g id="line2d_12">
      <g>
       <use xlink:href="#m674191ee58" x="36.349" y="20.132649" style="stroke: #000000; stroke-width: 0.25"/>
      </g>
     </g>
     <g id="text_13">
      <!-- 0.3 -->
      <g transform="translate(24.899 21.922102) scale(0.05 -0.05)">
       <use xlink:href="#ArialMT-30"/>
       <use xlink:href="#ArialMT-2e" x="55.615234"/>
       <use xlink:href="#ArialMT-33" x="83.398438"/>
      </g>
     </g>
    </g>
    <g id="ytick_7">
     <g id="line2d_13">
      <g>
       <use xlink:href="#m674191ee58" x="36.349" y="8.397035" style="stroke: #000000; stroke-width: 0.25"/>
      </g>
     </g>
     <g id="text_14">
      <!-- 0.4 -->
      <g transform="translate(24.899 10.186488) scale(0.05 -0.05)">
       <use xlink:href="#ArialMT-30"/>
       <use xlink:href="#ArialMT-2e" x="55.615234"/>
       <use xlink:href="#ArialMT-34" x="83.398438"/>
      </g>
     </g>
    </g>
    <g id="text_15">
     <!-- rho of Per gene expression -->
     <g transform="translate(10.36975 83.328382) rotate(-90) scale(0.06 -0.06)">
      <defs>
       <path id="ArialMT-72" d="M 416 0 
L 416 3319 
L 922 3319 
L 922 2816 
Q 1116 3169 1280 3281 
Q 1444 3394 1641 3394 
Q 1925 3394 2219 3213 
L 2025 2691 
Q 1819 2813 1613 2813 
Q 1428 2813 1281 2702 
Q 1134 2591 1072 2394 
Q 978 2094 978 1738 
L 978 0 
L 416 0 
z
" transform="scale(0.015625)"/>
       <path id="ArialMT-68" d="M 422 0 
L 422 4581 
L 984 4581 
L 984 2938 
Q 1378 3394 1978 3394 
Q 2347 3394 2619 3248 
Q 2891 3103 3008 2847 
Q 3125 2591 3125 2103 
L 3125 0 
L 2563 0 
L 2563 2103 
Q 2563 2525 2380 2717 
Q 2197 2909 1863 2909 
Q 1613 2909 1392 2779 
Q 1172 2650 1078 2428 
Q 984 2206 984 1816 
L 984 0 
L 422 0 
z
" transform="scale(0.015625)"/>
       <path id="ArialMT-66" d="M 556 0 
L 556 2881 
L 59 2881 
L 59 3319 
L 556 3319 
L 556 3672 
Q 556 4006 616 4169 
Q 697 4388 901 4523 
Q 1106 4659 1475 4659 
Q 1713 4659 2000 4603 
L 1916 4113 
Q 1741 4144 1584 4144 
Q 1328 4144 1222 4034 
Q 1116 3925 1116 3625 
L 1116 3319 
L 1763 3319 
L 1763 2881 
L 1116 2881 
L 1116 0 
L 556 0 
z
" transform="scale(0.015625)"/>
       <path id="ArialMT-50" d="M 494 0 
L 494 4581 
L 2222 4581 
Q 2678 4581 2919 4538 
Q 3256 4481 3484 4323 
Q 3713 4166 3852 3881 
Q 3991 3597 3991 3256 
Q 3991 2672 3619 2267 
Q 3247 1863 2275 1863 
L 1100 1863 
L 1100 0 
L 494 0 
z
M 1100 2403 
L 2284 2403 
Q 2872 2403 3119 2622 
Q 3366 2841 3366 3238 
Q 3366 3525 3220 3729 
Q 3075 3934 2838 4000 
Q 2684 4041 2272 4041 
L 1100 4041 
L 1100 2403 
z
" transform="scale(0.015625)"/>
       <path id="ArialMT-78" d="M 47 0 
L 1259 1725 
L 138 3319 
L 841 3319 
L 1350 2541 
Q 1494 2319 1581 2169 
Q 1719 2375 1834 2534 
L 2394 3319 
L 3066 3319 
L 1919 1756 
L 3153 0 
L 2463 0 
L 1781 1031 
L 1600 1309 
L 728 0 
L 47 0 
z
" transform="scale(0.015625)"/>
       <path id="ArialMT-70" d="M 422 -1272 
L 422 3319 
L 934 3319 
L 934 2888 
Q 1116 3141 1344 3267 
Q 1572 3394 1897 3394 
Q 2322 3394 2647 3175 
Q 2972 2956 3137 2557 
Q 3303 2159 3303 1684 
Q 3303 1175 3120 767 
Q 2938 359 2589 142 
Q 2241 -75 1856 -75 
Q 1575 -75 1351 44 
Q 1128 163 984 344 
L 984 -1272 
L 422 -1272 
z
M 931 1641 
Q 931 1000 1190 694 
Q 1450 388 1819 388 
Q 2194 388 2461 705 
Q 2728 1022 2728 1688 
Q 2728 2322 2467 2637 
Q 2206 2953 1844 2953 
Q 1484 2953 1207 2617 
Q 931 2281 931 1641 
z
" transform="scale(0.015625)"/>
      </defs>
      <use xlink:href="#ArialMT-72"/>
      <use xlink:href="#ArialMT-68" x="33.300781"/>
      <use xlink:href="#ArialMT-6f" x="88.916016"/>
      <use xlink:href="#ArialMT-20" x="144.53125"/>
      <use xlink:href="#ArialMT-6f" x="172.314453"/>
      <use xlink:href="#ArialMT-66" x="227.929688"/>
      <use xlink:href="#ArialMT-20" x="255.712891"/>
      <use xlink:href="#ArialMT-50" x="283.496094"/>
      <use xlink:href="#ArialMT-65" x="350.195312"/>
      <use xlink:href="#ArialMT-72" x="405.810547"/>
      <use xlink:href="#ArialMT-20" x="439.111328"/>
      <use xlink:href="#ArialMT-67" x="466.894531"/>
      <use xlink:href="#ArialMT-65" x="522.509766"/>
      <use xlink:href="#ArialMT-6e" x="578.125"/>
      <use xlink:href="#ArialMT-65" x="633.740234"/>
      <use xlink:href="#ArialMT-20" x="689.355469"/>
      <use xlink:href="#ArialMT-65" x="717.138672"/>
      <use xlink:href="#ArialMT-78" x="772.753906"/>
      <use xlink:href="#ArialMT-70" x="822.753906"/>
      <use xlink:href="#ArialMT-72" x="878.369141"/>
      <use xlink:href="#ArialMT-65" x="911.669922"/>
      <use xlink:href="#ArialMT-73" x="967.285156"/>
      <use xlink:href="#ArialMT-73" x="1017.285156"/>
      <use xlink:href="#ArialMT-69" x="1067.285156"/>
      <use xlink:href="#ArialMT-6f" x="1089.501953"/>
      <use xlink:href="#ArialMT-6e" x="1145.117188"/>
     </g>
     <!--  with IBAPs [a.u.] -->
     <g transform="translate(16.786187 70.151351) rotate(-90) scale(0.06 -0.06)">
      <defs>
       <path id="ArialMT-49" d="M 597 0 
L 597 4581 
L 1203 4581 
L 1203 0 
L 597 0 
z
" transform="scale(0.015625)"/>
       <path id="ArialMT-42" d="M 469 0 
L 469 4581 
L 2188 4581 
Q 2713 4581 3030 4442 
Q 3347 4303 3526 4014 
Q 3706 3725 3706 3409 
Q 3706 3116 3547 2856 
Q 3388 2597 3066 2438 
Q 3481 2316 3704 2022 
Q 3928 1728 3928 1328 
Q 3928 1006 3792 729 
Q 3656 453 3456 303 
Q 3256 153 2954 76 
Q 2653 0 2216 0 
L 469 0 
z
M 1075 2656 
L 2066 2656 
Q 2469 2656 2644 2709 
Q 2875 2778 2992 2937 
Q 3109 3097 3109 3338 
Q 3109 3566 3000 3739 
Q 2891 3913 2687 3977 
Q 2484 4041 1991 4041 
L 1075 4041 
L 1075 2656 
z
M 1075 541 
L 2216 541 
Q 2509 541 2628 563 
Q 2838 600 2978 687 
Q 3119 775 3209 942 
Q 3300 1109 3300 1328 
Q 3300 1584 3169 1773 
Q 3038 1963 2805 2039 
Q 2572 2116 2134 2116 
L 1075 2116 
L 1075 541 
z
" transform="scale(0.015625)"/>
       <path id="ArialMT-41" d="M -9 0 
L 1750 4581 
L 2403 4581 
L 4278 0 
L 3588 0 
L 3053 1388 
L 1138 1388 
L 634 0 
L -9 0 
z
M 1313 1881 
L 2866 1881 
L 2388 3150 
Q 2169 3728 2063 4100 
Q 1975 3659 1816 3225 
L 1313 1881 
z
" transform="scale(0.015625)"/>
       <path id="ArialMT-75" d="M 2597 0 
L 2597 488 
Q 2209 -75 1544 -75 
Q 1250 -75 995 37 
Q 741 150 617 320 
Q 494 491 444 738 
Q 409 903 409 1263 
L 409 3319 
L 972 3319 
L 972 1478 
Q 972 1038 1006 884 
Q 1059 663 1231 536 
Q 1403 409 1656 409 
Q 1909 409 2131 539 
Q 2353 669 2445 892 
Q 2538 1116 2538 1541 
L 2538 3319 
L 3100 3319 
L 3100 0 
L 2597 0 
z
" transform="scale(0.015625)"/>
      </defs>
      <use xlink:href="#ArialMT-20"/>
      <use xlink:href="#ArialMT-77" x="27.783203"/>
      <use xlink:href="#ArialMT-69" x="100"/>
      <use xlink:href="#ArialMT-74" x="122.216797"/>
      <use xlink:href="#ArialMT-68" x="150"/>
      <use xlink:href="#ArialMT-20" x="205.615234"/>
      <use xlink:href="#ArialMT-49" x="233.398438"/>
      <use xlink:href="#ArialMT-42" x="261.181641"/>
      <use xlink:href="#ArialMT-41" x="327.880859"/>
      <use xlink:href="#ArialMT-50" x="394.580078"/>
      <use xlink:href="#ArialMT-73" x="461.279297"/>
      <use xlink:href="#ArialMT-20" x="511.279297"/>
      <use xlink:href="#ArialMT-5b" x="539.0625"/>
      <use xlink:href="#ArialMT-61" x="566.845703"/>
      <use xlink:href="#ArialMT-2e" x="622.460938"/>
      <use xlink:href="#ArialMT-75" x="650.244141"/>
      <use xlink:href="#ArialMT-2e" x="705.859375"/>
      <use xlink:href="#ArialMT-5d" x="733.642578"/>
     </g>
    </g>
   </g>
   <g id="line2d_14">
    <path d="M 41.537932 43.558243 
L 42.586202 43.694238 
L 43.634471 43.830232 
L 44.68274 43.966226 
L 45.731009 44.102221 
L 46.779278 44.238215 
L 47.827547 44.37421 
L 48.875816 44.510204 
L 49.924086 44.646199 
L 50.972355 44.782193 
L 52.020624 44.918187 
L 53.068893 45.054182 
L 54.117162 45.190176 
L 55.165431 45.326171 
L 56.213701 45.462165 
L 57.26197 45.59816 
L 58.310239 45.734154 
L 59.358508 45.870148 
L 60.406777 46.006143 
L 61.455046 46.142137 
L 62.503316 46.278132 
L 63.551585 46.414126 
L 64.599854 46.55012 
L 65.648123 46.686115 
L 66.696392 46.822109 
L 67.744661 46.958104 
L 68.792931 47.094098 
L 69.8412 47.230093 
L 70.889469 47.366087 
L 71.937738 47.502081 
L 72.986007 47.638076 
L 74.034276 47.77407 
L 75.082546 47.910065 
L 76.130815 48.046059 
L 77.179084 48.182053 
L 78.227353 48.318048 
L 79.275622 48.454042 
L 80.323891 48.590037 
L 81.372161 48.726031 
L 82.42043 48.862026 
L 83.468699 48.99802 
L 84.516968 49.134014 
L 85.565237 49.270009 
L 86.613506 49.406003 
L 87.661776 49.541998 
L 88.710045 49.677992 
L 89.758314 49.813987 
L 90.806583 49.949981 
L 91.854852 50.085975 
L 92.903121 50.22197 
L 93.95139 50.357964 
L 94.99966 50.493959 
L 96.047929 50.629953 
L 97.096198 50.765947 
L 98.144467 50.901942 
L 99.192736 51.037936 
L 100.241005 51.173931 
L 101.289275 51.309925 
L 102.337544 51.44592 
L 103.385813 51.581914 
L 104.434082 51.717908 
L 105.482351 51.853903 
L 106.53062 51.989897 
L 107.57889 52.125892 
L 108.627159 52.261886 
L 109.675428 52.397881 
L 110.723697 52.533875 
L 111.771966 52.669869 
L 112.820235 52.805864 
L 113.868505 52.941858 
L 114.916774 53.077853 
L 115.965043 53.213847 
L 117.013312 53.349841 
L 118.061581 53.485836 
L 119.10985 53.62183 
L 120.15812 53.757825 
L 121.206389 53.893819 
L 122.254658 54.029814 
L 123.302927 54.165808 
L 124.351196 54.301802 
L 125.399465 54.437797 
L 126.447735 54.573791 
L 127.496004 54.709786 
L 128.544273 54.84578 
L 129.592542 54.981774 
L 130.640811 55.117769 
L 131.68908 55.253763 
L 132.73735 55.389758 
L 133.785619 55.525752 
L 134.833888 55.661747 
L 135.882157 55.797741 
L 136.930426 55.933735 
L 137.978695 56.06973 
L 139.026964 56.205724 
L 140.075234 56.341719 
L 141.123503 56.477713 
L 142.171772 56.613708 
L 143.220041 56.749702 
L 144.26831 56.885696 
L 145.316579 57.021691 
" clip-path="url(#p3dae56658f)" style="fill: none; stroke: #ff8c00; stroke-width: 0.75; stroke-linecap: square"/>
   </g>
   <g id="patch_3">
    <path d="M 36.349 89.218327 
L 36.349 5.4 
" style="fill: none; stroke: #000000; stroke-width: 0.25; stroke-linejoin: miter; stroke-linecap: square"/>
   </g>
   <g id="patch_4">
    <path d="M 36.349 89.218327 
L 150.505512 89.218327 
" style="fill: none; stroke: #000000; stroke-width: 0.25; stroke-linejoin: miter; stroke-linecap: square"/>
   </g>
   <g id="text_16">
    <g id="patch_5">
     <path d="M 39.773695 18.699023 
L 68.423695 18.699023 
Q 69.923695 18.699023 69.923695 17.199023 
L 69.923695 7.132617 
Q 69.923695 5.632617 68.423695 5.632617 
L 39.773695 5.632617 
Q 38.273695 5.632617 38.273695 7.132617 
L 38.273695 17.199023 
Q 38.273695 18.699023 39.773695 18.699023 
z
" style="fill: #c0c0c0; opacity: 0.4; stroke: #c0c0c0; stroke-linejoin: miter"/>
    </g>
    <!-- $r=-0.196$ -->
    <g transform="translate(39.773695 10.655273) scale(0.05 -0.05)">
     <defs>
      <path id="DejaVuSans-Oblique-72" d="M 2853 2969 
Q 2766 3016 2653 3041 
Q 2541 3066 2413 3066 
Q 1953 3066 1609 2717 
Q 1266 2369 1153 1784 
L 800 0 
L 225 0 
L 909 3500 
L 1484 3500 
L 1375 2956 
Q 1603 3259 1920 3421 
Q 2238 3584 2597 3584 
Q 2691 3584 2781 3573 
Q 2872 3563 2963 3538 
L 2853 2969 
z
" transform="scale(0.015625)"/>
      <path id="DejaVuSans-3d" d="M 678 2906 
L 4684 2906 
L 4684 2381 
L 678 2381 
L 678 2906 
z
M 678 1631 
L 4684 1631 
L 4684 1100 
L 678 1100 
L 678 1631 
z
" transform="scale(0.015625)"/>
      <path id="DejaVuSans-2212" d="M 678 2272 
L 4684 2272 
L 4684 1741 
L 678 1741 
L 678 2272 
z
" transform="scale(0.015625)"/>
      <path id="DejaVuSans-30" d="M 2034 4250 
Q 1547 4250 1301 3770 
Q 1056 3291 1056 2328 
Q 1056 1369 1301 889 
Q 1547 409 2034 409 
Q 2525 409 2770 889 
Q 3016 1369 3016 2328 
Q 3016 3291 2770 3770 
Q 2525 4250 2034 4250 
z
M 2034 4750 
Q 2819 4750 3233 4129 
Q 3647 3509 3647 2328 
Q 3647 1150 3233 529 
Q 2819 -91 2034 -91 
Q 1250 -91 836 529 
Q 422 1150 422 2328 
Q 422 3509 836 4129 
Q 1250 4750 2034 4750 
z
" transform="scale(0.015625)"/>
      <path id="DejaVuSans-2e" d="M 684 794 
L 1344 794 
L 1344 0 
L 684 0 
L 684 794 
z
" transform="scale(0.015625)"/>
      <path id="DejaVuSans-31" d="M 794 531 
L 1825 531 
L 1825 4091 
L 703 3866 
L 703 4441 
L 1819 4666 
L 2450 4666 
L 2450 531 
L 3481 531 
L 3481 0 
L 794 0 
L 794 531 
z
" transform="scale(0.015625)"/>
      <path id="DejaVuSans-39" d="M 703 97 
L 703 672 
Q 941 559 1184 500 
Q 1428 441 1663 441 
Q 2288 441 2617 861 
Q 2947 1281 2994 2138 
Q 2813 1869 2534 1725 
Q 2256 1581 1919 1581 
Q 1219 1581 811 2004 
Q 403 2428 403 3163 
Q 403 3881 828 4315 
Q 1253 4750 1959 4750 
Q 2769 4750 3195 4129 
Q 3622 3509 3622 2328 
Q 3622 1225 3098 567 
Q 2575 -91 1691 -91 
Q 1453 -91 1209 -44 
Q 966 3 703 97 
z
M 1959 2075 
Q 2384 2075 2632 2365 
Q 2881 2656 2881 3163 
Q 2881 3666 2632 3958 
Q 2384 4250 1959 4250 
Q 1534 4250 1286 3958 
Q 1038 3666 1038 3163 
Q 1038 2656 1286 2365 
Q 1534 2075 1959 2075 
z
" transform="scale(0.015625)"/>
      <path id="DejaVuSans-36" d="M 2113 2584 
Q 1688 2584 1439 2293 
Q 1191 2003 1191 1497 
Q 1191 994 1439 701 
Q 1688 409 2113 409 
Q 2538 409 2786 701 
Q 3034 994 3034 1497 
Q 3034 2003 2786 2293 
Q 2538 2584 2113 2584 
z
M 3366 4563 
L 3366 3988 
Q 3128 4100 2886 4159 
Q 2644 4219 2406 4219 
Q 1781 4219 1451 3797 
Q 1122 3375 1075 2522 
Q 1259 2794 1537 2939 
Q 1816 3084 2150 3084 
Q 2853 3084 3261 2657 
Q 3669 2231 3669 1497 
Q 3669 778 3244 343 
Q 2819 -91 2113 -91 
Q 1303 -91 875 529 
Q 447 1150 447 2328 
Q 447 3434 972 4092 
Q 1497 4750 2381 4750 
Q 2619 4750 2861 4703 
Q 3103 4656 3366 4563 
z
" transform="scale(0.015625)"/>
     </defs>
     <use xlink:href="#DejaVuSans-Oblique-72" transform="translate(0 0.78125)"/>
     <use xlink:href="#DejaVuSans-3d" transform="translate(60.595703 0.78125)"/>
     <use xlink:href="#DejaVuSans-2212" transform="translate(183.349609 0.78125)"/>
     <use xlink:href="#DejaVuSans-30" transform="translate(286.621094 0.78125)"/>
     <use xlink:href="#DejaVuSans-2e" transform="translate(350.244141 0.78125)"/>
     <use xlink:href="#DejaVuSans-31" transform="translate(382.03125 0.78125)"/>
     <use xlink:href="#DejaVuSans-39" transform="translate(445.654297 0.78125)"/>
     <use xlink:href="#DejaVuSans-36" transform="translate(509.277344 0.78125)"/>
    </g>
    <!-- $p=0.056$ -->
    <g transform="translate(39.773695 16.149023) scale(0.05 -0.05)">
     <defs>
      <path id="DejaVuSans-Oblique-70" d="M 3175 2156 
Q 3175 2616 2975 2859 
Q 2775 3103 2400 3103 
Q 2144 3103 1911 2972 
Q 1678 2841 1497 2591 
Q 1319 2344 1212 1994 
Q 1106 1644 1106 1300 
Q 1106 863 1306 627 
Q 1506 391 1875 391 
Q 2147 391 2380 519 
Q 2613 647 2778 891 
Q 2956 1147 3065 1494 
Q 3175 1841 3175 2156 
z
M 1394 2969 
Q 1625 3272 1939 3428 
Q 2253 3584 2638 3584 
Q 3175 3584 3472 3232 
Q 3769 2881 3769 2247 
Q 3769 1728 3584 1258 
Q 3400 788 3053 416 
Q 2822 169 2531 39 
Q 2241 -91 1919 -91 
Q 1547 -91 1294 64 
Q 1041 219 916 525 
L 556 -1331 
L -19 -1331 
L 922 3500 
L 1497 3500 
L 1394 2969 
z
" transform="scale(0.015625)"/>
      <path id="DejaVuSans-35" d="M 691 4666 
L 3169 4666 
L 3169 4134 
L 1269 4134 
L 1269 2991 
Q 1406 3038 1543 3061 
Q 1681 3084 1819 3084 
Q 2600 3084 3056 2656 
Q 3513 2228 3513 1497 
Q 3513 744 3044 326 
Q 2575 -91 1722 -91 
Q 1428 -91 1123 -41 
Q 819 9 494 109 
L 494 744 
Q 775 591 1075 516 
Q 1375 441 1709 441 
Q 2250 441 2565 725 
Q 2881 1009 2881 1497 
Q 2881 1984 2565 2268 
Q 2250 2553 1709 2553 
Q 1456 2553 1204 2497 
Q 953 2441 691 2322 
L 691 4666 
z
" transform="scale(0.015625)"/>
     </defs>
     <use xlink:href="#DejaVuSans-Oblique-70" transform="translate(0 0.78125)"/>
     <use xlink:href="#DejaVuSans-3d" transform="translate(82.958984 0.78125)"/>
     <use xlink:href="#DejaVuSans-30" transform="translate(186.230469 0.78125)"/>
     <use xlink:href="#DejaVuSans-2e" transform="translate(249.853516 0.78125)"/>
     <use xlink:href="#DejaVuSans-30" transform="translate(281.640625 0.78125)"/>
     <use xlink:href="#DejaVuSans-35" transform="translate(345.263672 0.78125)"/>
     <use xlink:href="#DejaVuSans-36" transform="translate(408.886719 0.78125)"/>
    </g>
   </g>
  </g>
 </g>
 <defs>
  <clipPath id="p3dae56658f">
   <rect x="36.349" y="5.4" width="114.156512" height="83.818327"/>
  </clipPath>
 </defs>
</svg>
